<?xml version="1.0" encoding="utf-8" ?>
<svg baseProfile="full" height="210" version="1.1" viewBox="0 0 310.0 210" width="310.0" xmlns="http://www.w3.org/2000/svg" xmlns:ev="http://www.w3.org/2001/xml-events" xmlns:xlink="http://www.w3.org/1999/xlink"><defs /><polyline fill="none" fill-opacity="0" points="75.0,85.0 75.0,125.0 95.0,125.0" stroke="rgb(85,170,255)" stroke-width="0.25mm" /><defs /><polyline fill="none" fill-opacity="0" points="75.0,85.0 95.0,85.0" stroke="rgb(85,170,255)" stroke-width="0.25mm" /><defs /><polyline fill="none" fill-opacity="0" points="215.0,85.0 235.0,85.0" stroke="rgb(85,170,255)" stroke-width="0.25mm" /><defs /><polyline fill="none" fill-opacity="0" points="235.0,85.0 235.0,125.0 215.0,125.0" stroke="rgb(85,170,255)" stroke-width="0.25mm" /><defs /><polyline fill="none" fill-opacity="0" points="65.0,105.0 75.0,105.0" stroke="rgb(85,170,255)" stroke-width="0.25mm" /><defs /><polyline fill="none" fill-opacity="0" points="235.0,105.0 245.0,105.0" stroke="rgb(85,170,255)" stroke-width="0.25mm" /><defs /><text dominant-baseline="middle" fill="rgb(0,0,0)" fill-opacity="1" font-family="Verdana" font-size="40.0" text-anchor="middle" x="155.0" y="165.0">m=m</text><defs /><path d="M 95.0 85.0 C 95.5 82.0 96.0 79.0 99.5 75.0 99.5 75.0 103.0 71.0 110.0 71.0 110.0 71.0 117.0 71.0 120.5 75.0 120.5 75.0 124.0 79.0 124.5 82.0 124.5 82.0 125.0 85.0 125.0 85.0" fill="none" fill-opacity="0" stroke="rgb(0,128,255)" stroke-width="0.25mm" /><defs /><path d="M 125.0 85.0 C 125.5 82.0 126.0 79.0 129.5 75.0 129.5 75.0 133.0 71.0 140.0 71.0 140.0 71.0 147.0 71.0 150.5 75.0 150.5 75.0 154.0 79.0 154.5 82.0 154.5 82.0 155.0 85.0 155.0 85.0" fill="none" fill-opacity="0" stroke="rgb(0,128,255)" stroke-width="0.25mm" /><defs /><path d="M 155.0 85.0 C 155.5 82.0 156.0 79.0 159.5 75.0 159.5 75.0 163.0 71.0 170.0 71.0 170.0 71.0 177.0 71.0 180.5 75.0 180.5 75.0 184.0 79.0 184.5 82.0 184.5 82.0 185.0 85.0 185.0 85.0" fill="none" fill-opacity="0" stroke="rgb(0,128,255)" stroke-width="0.25mm" /><defs /><path d="M 185.0 85.0 C 185.5 82.0 186.0 79.0 189.5 75.0 189.5 75.0 193.0 71.0 200.0 71.0 200.0 71.0 207.0 71.0 210.5 75.0 210.5 75.0 214.0 79.0 214.5 82.0 214.5 82.0 215.0 85.0 215.0 85.0" fill="none" fill-opacity="0" stroke="rgb(0,128,255)" stroke-width="0.25mm" /><defs /><path d="M 95.0 125.0 C 95.5 128.0 96.0 131.0 99.5 135.0 99.5 135.0 103.0 139.0 110.0 139.0 110.0 139.0 117.0 139.0 120.5 135.0 120.5 135.0 124.0 131.0 124.5 128.0 124.5 128.0 125.0 125.0 125.0 125.0" fill="none" fill-opacity="0" stroke="rgb(0,128,255)" stroke-width="0.25mm" /><defs /><path d="M 125.0 125.0 C 125.5 128.0 126.0 131.0 129.5 135.0 129.5 135.0 133.0 139.0 140.0 139.0 140.0 139.0 147.0 139.0 150.5 135.0 150.5 135.0 154.0 131.0 154.5 128.0 154.5 128.0 155.0 125.0 155.0 125.0" fill="none" fill-opacity="0" stroke="rgb(0,128,255)" stroke-width="0.25mm" /><defs /><path d="M 155.0 125.0 C 155.5 128.0 156.0 131.0 159.5 135.0 159.5 135.0 163.0 139.0 170.0 139.0 170.0 139.0 177.0 139.0 180.5 135.0 180.5 135.0 184.0 131.0 184.5 128.0 184.5 128.0 185.0 125.0 185.0 125.0" fill="none" fill-opacity="0" stroke="rgb(0,128,255)" stroke-width="0.25mm" /><defs /><path d="M 185.0 125.0 C 185.5 128.0 186.0 131.0 189.5 135.0 189.5 135.0 193.0 139.0 200.0 139.0 200.0 139.0 207.0 139.0 210.5 135.0 210.5 135.0 214.0 131.0 214.5 128.0 214.5 128.0 215.0 125.0 215.0 125.0" fill="none" fill-opacity="0" stroke="rgb(0,128,255)" stroke-width="0.25mm" /><defs /><text dominant-baseline="middle" fill="rgb(0,0,255)" fill-opacity="1" font-family="Verdana" font-size="40.0" text-anchor="middle" x="155.0" y="35.0">name</text><defs /><g id="plug_p"><ellipse cx="35.0" cy="105.0" fill="rgb(85,170,255)" fill-opacity="1" rx="20.0" ry="20.0" stroke="rgb(85,170,255)" stroke-width="0.25mm" /><defs /><g display="none" id="info"><text id="name">plug_p</text><text id="type">Modelica.Electrical.QuasiStationary.MultiPhase.Interfaces.PositivePlug</text><text id="classDesc">Positive quasi-static polyphase plug</text><text id="desc">Positive quasi-static polyphase plug</text></g></g><g id="plug_n"><ellipse cx="35.0" cy="105.0" fill="rgb(255,255,255)" fill-opacity="1" rx="20.0" ry="20.0" stroke="rgb(85,170,255)" stroke-width="0.25mm" /><defs /><g display="none" id="info"><text id="name">plug_n</text><text id="type">Modelica.Electrical.QuasiStationary.MultiPhase.Interfaces.NegativePlug</text><text id="classDesc">Negative quasi-static polyphase plug</text><text id="desc">Negative quasi-static polyphase plug</text></g></g></svg>