<?xml version="1.0" encoding="utf-8" ?>
<svg baseProfile="full" height="305.0" version="1.1" viewBox="0 0 310.0 305.0" width="310.0" xmlns="http://www.w3.org/2000/svg" xmlns:ev="http://www.w3.org/2001/xml-events" xmlns:xlink="http://www.w3.org/1999/xlink"><defs /><text dominant-baseline="middle" fill="rgb(0,0,255)" fill-opacity="1" font-family="Verdana" font-size="40.0" text-anchor="middle" x="155.0" y="25.0">name</text><defs /><text dominant-baseline="middle" fill="rgb(0,0,255)" fill-opacity="1" font-family="Verdana" font-size="40.0" text-anchor="middle" x="155.0" y="235.0">M</text><defs /><polyline fill="none" fill-opacity="0" points="115.0,95.0 115.0,55.0 65.0,55.0" stroke="rgb(0,0,255)" stroke-width="0.25mm" /><defs /><polyline fill="none" fill-opacity="0" points="195.0,95.0 195.0,55.0 245.0,55.0" stroke="rgb(0,0,255)" stroke-width="0.25mm" /><defs /><polyline fill="none" fill-opacity="0" points="115.0,215.0 115.0,255.0 65.0,255.0" stroke="rgb(0,0,255)" stroke-width="0.25mm" /><defs /><polyline fill="none" fill-opacity="0" points="195.0,215.0 195.0,255.0 245.0,255.0" stroke="rgb(0,0,255)" stroke-width="0.25mm" /><defs /><path d="M 115.00208477336805 94.99902728217691 C 118.0020152542026 95.49944421850074 121.00194573503717 95.99986115482459 125.00145926506123 99.50041704255935 125.00145926506123 99.50041704255935 129.0009727950853 103.00097293029411 128.9999999323956 110.00097286268971 128.9999999323956 110.00097286268971 128.9990270697059 117.00097279508529 124.99854067699215 120.50041683974611 124.99854067699215 120.50041683974611 120.99805428427838 123.99986088440693 117.99798482305958 124.49944393842532 117.99798482305958 124.49944393842532 114.99791536184078 124.9990269924437 114.99791536184078 124.9990269924437" fill="none" fill-opacity="0" stroke="rgb(0,0,255)" stroke-width="0.25mm" /><defs /><path d="M 115.00208477336805 124.99902728217691 C 118.0020152542026 125.49944421850074 121.00194573503717 125.99986115482459 125.00145926506123 129.50041704255935 125.00145926506123 129.50041704255935 129.0009727950853 133.0009729302941 128.9999999323956 140.0009728626897 128.9999999323956 140.0009728626897 128.9990270697059 147.0009727950853 124.99854067699215 150.5004168397461 124.99854067699215 150.5004168397461 120.99805428427838 153.99986088440693 117.99798482305958 154.49944393842532 117.99798482305958 154.49944393842532 114.99791536184078 154.9990269924437 114.99791536184078 154.9990269924437" fill="none" fill-opacity="0" stroke="rgb(0,0,255)" stroke-width="0.25mm" /><defs /><path d="M 115.00208477336805 154.9990272821769 C 118.0020152542026 155.49944421850074 121.00194573503717 155.9998611548246 125.00145926506123 159.50041704255938 125.00145926506123 159.50041704255938 129.0009727950853 163.00097293029413 128.9999999323956 170.0009728626897 128.9999999323956 170.0009728626897 128.9990270697059 177.0009727950853 124.99854067699215 180.5004168397461 124.99854067699215 180.5004168397461 120.99805428427838 183.99986088440693 117.99798482305958 184.49944393842532 117.99798482305958 184.49944393842532 114.99791536184078 184.9990269924437 114.99791536184078 184.9990269924437" fill="none" fill-opacity="0" stroke="rgb(0,0,255)" stroke-width="0.25mm" /><defs /><path d="M 115.00208477336805 184.9990272821769 C 118.0020152542026 185.49944421850074 121.00194573503717 185.9998611548246 125.00145926506123 189.50041704255935 125.00145926506123 189.50041704255935 129.0009727950853 193.0009729302941 128.9999999323956 200.0009728626897 128.9999999323956 200.0009728626897 128.9990270697059 207.0009727950853 124.99854067699215 210.5004168397461 124.99854067699215 210.5004168397461 120.99805428427838 213.99986088440693 117.99798482305958 214.49944393842532 117.99798482305958 214.49944393842532 114.99791536184078 214.9990269924437 114.99791536184078 214.9990269924437" fill="none" fill-opacity="0" stroke="rgb(0,0,255)" stroke-width="0.25mm" /><defs /><path d="M 194.9993050905652 125.00032427146787 C 191.9993282571819 124.50018529161977 188.9993514237986 124.00004631177168 184.99951357187302 120.49986100834796 184.99951357187302 120.49986100834796 180.99967571994745 116.99967570492424 181.0000000075116 109.99967571243585 181.0000000075116 109.99967571243585 181.00032429507576 102.99967571994745 185.0004864345655 99.49986103088277 185.0004864345655 99.49986103088277 189.00064857405522 96.00004634181809 192.0006717342334 95.50018532273927 192.0006717342334 95.50018532273927 195.0006948944116 95.00032430366045 195.0006948944116 95.00032430366045" fill="none" fill-opacity="0" stroke="rgb(0,0,255)" stroke-width="0.25mm" /><defs /><path d="M 194.9993050905652 155.00032427146786 C 191.9993282571819 154.50018529161977 188.9993514237986 154.00004631177168 184.99951357187302 150.49986100834798 184.99951357187302 150.49986100834798 180.99967571994745 146.99967570492424 181.0000000075116 139.99967571243585 181.0000000075116 139.99967571243585 181.00032429507576 132.99967571994745 185.0004864345655 129.49986103088276 185.0004864345655 129.49986103088276 189.00064857405522 126.00004634181809 192.0006717342334 125.50018532273927 192.0006717342334 125.50018532273927 195.0006948944116 125.00032430366045 195.0006948944116 125.00032430366045" fill="none" fill-opacity="0" stroke="rgb(0,0,255)" stroke-width="0.25mm" /><defs /><path d="M 194.9993050905652 185.00032427146786 C 191.9993282571819 184.50018529161977 188.9993514237986 184.00004631177168 184.99951357187302 180.49986100834798 184.99951357187302 180.49986100834798 180.99967571994745 176.99967570492424 181.0000000075116 169.99967571243585 181.0000000075116 169.99967571243585 181.00032429507576 162.99967571994745 185.0004864345655 159.49986103088276 185.0004864345655 159.49986103088276 189.00064857405522 156.0000463418181 192.0006717342334 155.50018532273927 192.0006717342334 155.50018532273927 195.0006948944116 155.00032430366045 195.0006948944116 155.00032430366045" fill="none" fill-opacity="0" stroke="rgb(0,0,255)" stroke-width="0.25mm" /><defs /><path d="M 194.9993050905652 215.0003242714679 C 191.9993282571819 214.5001852916198 188.9993514237986 214.00004631177168 184.99951357187302 210.49986100834798 184.99951357187302 210.49986100834798 180.99967571994745 206.99967570492424 181.0000000075116 199.99967571243585 181.0000000075116 199.99967571243585 181.00032429507576 192.99967571994745 185.0004864345655 189.49986103088276 185.0004864345655 189.49986103088276 189.00064857405522 186.0000463418181 192.0006717342334 185.50018532273927 192.0006717342334 185.50018532273927 195.0006948944116 185.00032430366045 195.0006948944116 185.00032430366045" fill="none" fill-opacity="0" stroke="rgb(0,0,255)" stroke-width="0.25mm" /><defs /><text dominant-baseline="middle" fill="rgb(0,0,255)" fill-opacity="1" font-family="Verdana" font-size="40.0" text-anchor="middle" x="76.0" y="155.0">L1</text><defs /><text dominant-baseline="middle" fill="rgb(0,0,255)" fill-opacity="1" font-family="Verdana" font-size="40.0" text-anchor="middle" x="235.0" y="155.0">L2</text><defs /><g id="p1"><rect fill="rgb(0,0,255)" fill-opacity="1" height="40.0" rx="0.0" ry="0.0" stroke="rgb(0,0,255)" stroke-width="0.25mm" width="40.0" x="15.0" y="135.0" /><defs /><g display="none" id="info"><text id="name">p1</text><text id="type">Modelica.Electrical.Analog.Interfaces.PositivePin</text><text id="classDesc">Positive pin of an electrical component</text><text id="desc">Positive electrical pin of port 1</text></g></g><g id="n1"><rect fill="rgb(255,255,255)" fill-opacity="1" height="40.0" rx="0.0" ry="0.0" stroke="rgb(0,0,255)" stroke-width="0.25mm" width="40.0" x="15.0" y="135.0" /><defs /><g display="none" id="info"><text id="name">n1</text><text id="type">Modelica.Electrical.Analog.Interfaces.NegativePin</text><text id="classDesc">Negative pin of an electrical component</text><text id="desc">Negative electrical pin of port 1</text></g></g><g id="p2"><rect fill="rgb(0,0,255)" fill-opacity="1" height="40.0" rx="0.0" ry="0.0" stroke="rgb(0,0,255)" stroke-width="0.25mm" width="40.0" x="15.0" y="135.0" /><defs /><g display="none" id="info"><text id="name">p2</text><text id="type">Modelica.Electrical.Analog.Interfaces.PositivePin</text><text id="classDesc">Positive pin of an electrical component</text><text id="desc">Positive electrical pin of port 2</text></g></g><g id="n2"><rect fill="rgb(255,255,255)" fill-opacity="1" height="40.0" rx="0.0" ry="0.0" stroke="rgb(0,0,255)" stroke-width="0.25mm" width="40.0" x="15.0" y="135.0" /><defs /><g display="none" id="info"><text id="name">n2</text><text id="type">Modelica.Electrical.Analog.Interfaces.NegativePin</text><text id="classDesc">Negative pin of an electrical component</text><text id="desc">Negative electrical pin of port 2</text></g></g></svg>