<?xml version="1.0" encoding="utf-8" ?>
<svg baseProfile="full" height="310.0" version="1.1" viewBox="0 0 310.0 310.0" width="310.0" xmlns="http://www.w3.org/2000/svg" xmlns:ev="http://www.w3.org/2001/xml-events" xmlns:xlink="http://www.w3.org/1999/xlink"><defs /><rect fill="rgb(255,255,255)" fill-opacity="1" height="200.0" rx="0.0" ry="0.0" stroke="rgb(0,0,127)" stroke-width="0.25mm" width="200.0" x="55.0" y="55.0" /><defs /><text dominant-baseline="middle" fill="rgb(0,0,255)" fill-opacity="1" font-family="Verdana" font-size="40.0" text-anchor="middle" x="155.0" y="25.0">name</text><defs /><rect fill="rgb(255,255,255)" fill-opacity="1" height="100.0" rx="0.0" ry="0.0" stroke="rgb(0,0,127)" stroke-width="0.25mm" width="40.0" x="65.0" y="104.0" /><defs /><rect fill="rgb(255,255,255)" fill-opacity="1" height="100.0" rx="0.0" ry="0.0" stroke="rgb(0,0,127)" stroke-width="0.25mm" width="40.0" x="205.0" y="105.0" /><defs /><polygon fill="rgb(0,0,127)" fill-opacity="1" points="60.589600000000004,153.09208 60.589600000000004,157.09208 64.5896,155.0920762 60.589600000000004,153.09208" stroke="rgb(0,0,127)" stroke-width="0.25mm" /><defs /><polyline fill="none" fill-opacity="0" points="83.0,153.0 94.8605,142.093 105.8605,142.093" stroke="rgb(0,0,127)" stroke-width="0.25mm" /><defs /><polyline fill="none" fill-opacity="0" points="82.0,151.0 96.0,115.0 106.0,115.0" stroke="rgb(0,0,127)" stroke-width="0.25mm" /><defs /><polyline fill="none" fill-opacity="0" points="42.0,155.0 78.9627,155.0180176" stroke="rgb(0,0,127)" stroke-width="0.25mm" /><defs /><ellipse cx="78.9563" cy="155.15745" fill="rgb(0,0,127)" fill-opacity="1" rx="5.0" ry="4.75" stroke="rgb(0,0,127)" stroke-width="0.25mm" /><defs /><polyline fill="none" fill-opacity="0" points="82.0,160.0 95.0,195.0 106.0,195.0" stroke="rgb(0,0,127)" stroke-width="0.25mm" /><defs /><polyline fill="none" fill-opacity="0" points="83.0,157.0 94.9302,167.907 105.9302,167.907" stroke="rgb(0,0,127)" stroke-width="0.25mm" /><defs /><polygon fill="rgb(255,255,255)" fill-opacity="1" points="106.1192,166.0 106.1192,170.0 110.1192,168.0 106.1192,166.0" stroke="rgb(0,0,127)" stroke-width="0.25mm" /><defs /><polyline fill="none" fill-opacity="0" points="109.0,142.0 120.0,142.0 190.0,185.0 200.0,185.0" stroke="rgb(0,0,127)" stroke-width="0.25mm" /><defs /><polyline fill="none" fill-opacity="0" points="110.0,115.0 120.0,115.0 190.0,155.0 199.0,155.0" stroke="rgb(0,0,127)" stroke-width="0.25mm" /><defs /><polyline fill="none" fill-opacity="0" points="110.0,195.0 121.0,195.0 190.0,125.0 199.0,125.0" stroke="rgb(0,0,127)" stroke-width="0.25mm" /><defs /><polygon fill="rgb(255,255,255)" fill-opacity="1" points="106.0,113.0 106.0,117.0 110.0,115.0 106.0,113.0" stroke="rgb(0,0,127)" stroke-width="0.25mm" /><defs /><polygon fill="rgb(255,255,255)" fill-opacity="1" points="106.1272,193.02949999999998 106.1272,197.02949999999998 110.1272,195.02949999999998 106.1272,193.02949999999998" stroke="rgb(0,0,127)" stroke-width="0.25mm" /><defs /><polygon fill="rgb(255,255,255)" fill-opacity="1" points="106.0017,140.1199 106.0017,144.1199 110.0017,142.1199 106.0017,140.1199" stroke="rgb(0,0,127)" stroke-width="0.25mm" /><defs /><ellipse cx="229.3052" cy="155.62257" fill="rgb(0,0,127)" fill-opacity="1" rx="5.0" ry="4.75" stroke="rgb(0,0,127)" stroke-width="0.25mm" /><defs /><polyline fill="none" fill-opacity="0" points="235.0,155.0 255.0,155.0" stroke="rgb(0,0,127)" stroke-width="0.25mm" /><defs /><polygon fill="rgb(0,0,127)" fill-opacity="1" points="198.1618,122.69149999999999 198.1618,126.6915 202.1618,124.6915 198.1618,122.69149999999999" stroke="rgb(0,0,127)" stroke-width="0.25mm" /><defs /><polygon fill="rgb(0,0,127)" fill-opacity="1" points="198.2575,153.19557 198.2575,157.19557 202.2575,155.195573 198.2575,153.19557" stroke="rgb(0,0,127)" stroke-width="0.25mm" /><defs /><polygon fill="rgb(0,0,127)" fill-opacity="1" points="198.88049999999998,183.1745 198.88049999999998,187.1745 202.88049999999998,185.1745 198.88049999999998,183.1745" stroke="rgb(0,0,127)" stroke-width="0.25mm" /><defs /><polyline fill="none" fill-opacity="0" points="203.0,155.0 225.0,155.0" stroke="rgb(0,0,127)" stroke-width="0.25mm" /><defs /><polyline fill="none" fill-opacity="0" points="202.0,125.0 215.0,125.0 228.0,152.0" stroke="rgb(0,0,127)" stroke-width="0.25mm" /><defs /><polyline fill="none" fill-opacity="0" points="204.0,185.0 215.0,185.0 229.0,159.0" stroke="rgb(0,0,127)" stroke-width="0.25mm" /><defs /><text dominant-baseline="middle" fill="rgb(0,0,0)" fill-opacity="1" font-family="Verdana" font-size="40.0" text-anchor="middle" x="155.0" y="285.0">extract=extract</text><defs /><g id="u"><polygon fill="rgb(0,0,127)" fill-opacity="1" points="15.0,135.0 55.0,155.0 15.0,175.0" stroke="rgb(0,0,127)" stroke-width="0.25mm" /><defs /><g display="none" id="info"><text id="name">u</text><text id="type">Modelica.Blocks.Interfaces.RealInput</text><text id="classDesc">'input Real' as connector</text><text id="desc" /></g></g><g id="y"><polygon fill="rgb(255,255,255)" fill-opacity="1" points="15.0,135.0 55.0,155.0 15.0,175.0" stroke="rgb(0,0,127)" stroke-width="0.25mm" /><defs /><g display="none" id="info"><text id="name">y</text><text id="type">Modelica.Blocks.Interfaces.RealOutput</text><text id="classDesc">'output Real' as connector</text><text id="desc" /></g></g></svg>