<?xml version="1.0" encoding="utf-8" ?>
<svg baseProfile="full" height="290.0" version="1.1" viewBox="0 0 310.0 290.0" width="310.0" xmlns="http://www.w3.org/2000/svg" xmlns:ev="http://www.w3.org/2001/xml-events" xmlns:xlink="http://www.w3.org/1999/xlink"><defs /><rect fill="rgb(255,255,255)" fill-opacity="1" height="200.0" rx="0.0" ry="0.0" stroke="rgb(0,0,127)" stroke-width="0.25mm" width="200.0" x="55.0" y="5.0" /><defs /><text dominant-baseline="middle" fill="rgb(0,0,255)" fill-opacity="1" font-family="Verdana" font-size="40.0" text-anchor="middle" x="155.0" y="265.0">name</text><defs /><polyline fill="none" fill-opacity="0" points="55.0,105.0 57.0,105.0 167.0,105.0" stroke="rgb(0,0,255)" stroke-width="0.25mm" /><defs /><polyline fill="none" fill-opacity="0" points="95.0,127.0 95.0,169.0 199.0,169.0 199.0,141.0" stroke="rgb(0,0,255)" stroke-width="0.25mm" /><defs /><polyline fill="none" fill-opacity="0" points="75.0,121.0 75.0,125.0 115.0,85.0 115.0,125.0 119.0,121.0" stroke="rgb(0,0,255)" stroke-width="0.25mm" /><defs /><polyline fill="none" fill-opacity="0" points="93.0,105.0 79.0,101.0 79.0,109.0 93.0,105.0" stroke="rgb(0,0,255)" stroke-width="0.25mm" /><defs /><polyline fill="none" fill-opacity="0" points="199.0,141.0 199.0,141.0 195.0,155.0 199.0,155.0 203.0,155.0 199.0,141.0" stroke="rgb(0,0,255)" stroke-width="0.25mm" /><defs /><polyline fill="none" fill-opacity="0" points="175.0,125.0 177.0,125.0 179.0,125.0 179.0,85.0 199.0,85.0 199.0,125.0 219.0,125.0 219.0,121.0" stroke="rgb(255,0,255)" stroke-width="0.25mm" /><defs /><polyline fill="none" fill-opacity="0" points="115.0,121.0 115.0,125.0 155.0,85.0 155.0,125.0 159.0,121.0" stroke="rgb(0,0,255)" stroke-width="0.25mm" /><defs /><polyline fill="none" fill-opacity="0" points="215.0,125.0 217.0,125.0 219.0,125.0 219.0,85.0 239.0,85.0 239.0,125.0 239.0,125.0 243.0,125.0" stroke="rgb(255,0,255)" stroke-width="0.25mm" /><defs /><g id="dutyCycle"><polygon fill="rgb(0,0,127)" fill-opacity="1" points="15.0,85.0 55.0,105.0 15.0,125.0" stroke="rgb(0,0,127)" stroke-width="0.25mm" /><defs /><g display="none" id="info"><text id="name">dutyCycle</text><text id="type">Modelica.Blocks.Interfaces.RealInput</text><text id="classDesc">'input Real' as connector</text><text id="desc">Duty cycle</text></g></g><g id="fire"><polygon fill="rgb(255,255,255)" fill-opacity="1" points="15.0,85.0 55.0,105.0 15.0,125.0 15.0,85.0" stroke="rgb(255,0,255)" stroke-width="0.25mm" /><defs /><g display="none" id="info"><text id="name">fire</text><text id="type">Modelica.Blocks.Interfaces.BooleanOutput</text><text id="classDesc">'output Boolean' as connector</text><text id="desc">Firing PWM signal</text></g></g><g id="notFire"><polygon fill="rgb(255,255,255)" fill-opacity="1" points="15.0,85.0 55.0,105.0 15.0,125.0 15.0,85.0" stroke="rgb(255,0,255)" stroke-width="0.25mm" /><defs /><g display="none" id="info"><text id="name">notFire</text><text id="type">Modelica.Blocks.Interfaces.BooleanOutput</text><text id="classDesc">'output Boolean' as connector</text><text id="desc">Firing PWM signal</text></g></g></svg>