<?xml version="1.0" encoding="utf-8" ?>
<svg baseProfile="full" height="214.0" version="1.1" viewBox="0 0 214.0 214.0" width="214.0" xmlns="http://www.w3.org/2000/svg" xmlns:ev="http://www.w3.org/2001/xml-events" xmlns:xlink="http://www.w3.org/1999/xlink"><defs /><rect fill="none" fill-opacity="0" height="204.0" rx="0.0" ry="0.0" stroke="rgb(255,0,0)" stroke-dasharray="8.0 4.0" stroke-width="0.5mm" width="204.0" x="5.0" y="5.0" /><defs /><rect fill="url(#0)" height="20.0" rx="0.0" ry="0.0" stroke="rgb(64,64,64)" stroke-width="0.25mm" width="30.0" x="17.0" y="97.0" /><defs><linearGradient id="0" x1="0%" x2="0%" y1="0%" y2="100%"><stop offset="0" stop-color="rgb(64, 64, 64)" stop-opacity="1" /><stop offset="0.3" stop-color="rgb(255, 255, 255)" stop-opacity="1" /><stop offset="0.7" stop-color="rgb(255, 255, 255)" stop-opacity="1" /><stop offset="1" stop-color="rgb(64, 64, 64)" stop-opacity="1" /></linearGradient></defs><polygon fill="url(#1)" fill-opacity="0" points="47.0,97.0 47.0,87.0 67.0,67.0 67.0,147.0 47.0,127.0 47.0,97.0" stroke="rgb(0,0,0)" stroke-width="0.25mm" /><defs><linearGradient id="1" x1="0%" x2="0%" y1="0%" y2="100%"><stop offset="0" stop-color="rgb(0, 0, 0)" stop-opacity="1" /><stop offset="0.3" stop-color="rgb(192, 192, 192)" stop-opacity="1" /><stop offset="0.7" stop-color="rgb(192, 192, 192)" stop-opacity="1" /><stop offset="1" stop-color="rgb(0, 0, 0)" stop-opacity="1" /></linearGradient></defs><rect fill="url(#2)" height="120.0" rx="10.0" ry="10.0" stroke="rgb(64,64,64)" stroke-width="0.25mm" width="80.0" x="67.0" y="47.0" /><defs><linearGradient id="2" x1="0%" x2="0%" y1="0%" y2="100%"><stop offset="0" stop-color="rgb(64, 64, 64)" stop-opacity="1" /><stop offset="0.3" stop-color="rgb(255, 255, 255)" stop-opacity="1" /><stop offset="0.7" stop-color="rgb(255, 255, 255)" stop-opacity="1" /><stop offset="1" stop-color="rgb(64, 64, 64)" stop-opacity="1" /></linearGradient></defs><polygon fill="url(#3)" fill-opacity="0" points="167.0,87.0 147.0,67.0 147.0,147.0 167.0,127.0 167.0,87.0" stroke="rgb(0,0,0)" stroke-width="0.25mm" /><defs><linearGradient id="3" x1="0%" x2="0%" y1="0%" y2="100%"><stop offset="0" stop-color="rgb(0, 0, 0)" stop-opacity="1" /><stop offset="0.3" stop-color="rgb(192, 192, 192)" stop-opacity="1" /><stop offset="0.7" stop-color="rgb(192, 192, 192)" stop-opacity="1" /><stop offset="1" stop-color="rgb(0, 0, 0)" stop-opacity="1" /></linearGradient></defs><rect fill="url(#4)" height="20.0" rx="0.0" ry="0.0" stroke="rgb(64,64,64)" stroke-width="0.25mm" width="30.0" x="167.0" y="97.0" /><defs><linearGradient id="4" x1="0%" x2="0%" y1="0%" y2="100%"><stop offset="0" stop-color="rgb(64, 64, 64)" stop-opacity="1" /><stop offset="0.3" stop-color="rgb(255, 255, 255)" stop-opacity="1" /><stop offset="0.7" stop-color="rgb(255, 255, 255)" stop-opacity="1" /><stop offset="1" stop-color="rgb(64, 64, 64)" stop-opacity="1" /></linearGradient></defs><polygon fill="rgb(64,64,64)" fill-opacity="1" points="47.0,197.0 57.0,197.0 87.0,137.0 127.0,137.0 155.0,197.0 167.0,197.0 167.0,207.0 47.0,207.0 47.0,197.0" stroke="rgb(0,0,0)" stroke-width="0.25mm" /><defs /></svg>