<?xml version="1.0" encoding="utf-8" ?>
<svg baseProfile="full" height="260.0" version="1.1" viewBox="0 0 310.0 260.0" width="310.0" xmlns="http://www.w3.org/2000/svg" xmlns:ev="http://www.w3.org/2001/xml-events" xmlns:xlink="http://www.w3.org/1999/xlink"><defs /><rect fill="rgb(255,255,255)" fill-opacity="1" height="200.0" rx="0.0" ry="0.0" stroke="rgb(255,255,255)" stroke-width="0.25mm" width="180.0" x="65.0" y="55.0" /><defs /><rect fill="rgb(255,128,0)" fill-opacity="1" height="60.0" rx="0.0" ry="0.0" stroke="rgb(255,128,0)" stroke-width="0.25mm" width="94.0" x="151.0" y="125.0" /><defs /><rect fill="rgb(255,128,0)" fill-opacity="1" height="60.0" rx="0.0" ry="0.0" stroke="rgb(255,128,0)" stroke-width="0.25mm" width="50.0" x="65.0" y="125.0" /><defs /><rect fill="rgb(255,128,0)" fill-opacity="1" height="200.0" rx="0.0" ry="0.0" stroke="rgb(255,128,0)" stroke-width="0.25mm" width="10.0" x="65.0" y="55.0" /><defs /><rect fill="rgb(255,128,0)" fill-opacity="1" height="10.0" rx="0.0" ry="0.0" stroke="rgb(255,128,0)" stroke-width="0.25mm" width="180.0" x="65.0" y="55.0" /><defs /><rect fill="rgb(255,128,0)" fill-opacity="1" height="10.0" rx="0.0" ry="0.0" stroke="rgb(255,128,0)" stroke-width="0.25mm" width="180.0" x="65.0" y="245.0" /><defs /><rect fill="rgb(255,128,0)" fill-opacity="1" height="60.0" rx="0.0" ry="0.0" stroke="rgb(255,128,0)" stroke-width="0.25mm" width="10.0" x="235.0" y="55.0" /><defs /><rect fill="rgb(255,128,0)" fill-opacity="1" height="60.0" rx="0.0" ry="0.0" stroke="rgb(255,128,0)" stroke-width="0.25mm" width="10.0" x="235.0" y="195.0" /><defs /><rect fill="rgb(255,213,170)" fill-opacity="1" height="40.0" rx="0.0" ry="0.0" stroke="rgb(255,213,170)" stroke-width="0.25mm" width="140.0" x="85.0" y="75.0" /><defs /><rect fill="rgb(255,213,170)" fill-opacity="1" height="40.0" rx="0.0" ry="0.0" stroke="rgb(255,213,170)" stroke-width="0.25mm" width="140.0" x="85.0" y="195.0" /><defs /><polyline fill="none" fill-opacity="0" points="159.0,125.0 159.0,123.0 157.0,117.0 151.0,107.0 141.0,95.0 133.0,83.0 131.0,75.0 131.0,65.0" stroke="rgb(255,128,0)" stroke-width="0.25mm" /><defs /><polyline fill="none" fill-opacity="0" points="177.0,125.0 177.0,123.0 175.0,117.0 169.0,107.0 159.0,95.0 151.0,83.0 149.0,75.0 149.0,65.0" stroke="rgb(255,128,0)" stroke-width="0.25mm" /><defs /><polyline fill="none" fill-opacity="0" points="195.0,125.0 195.0,123.0 193.0,117.0 187.0,107.0 177.0,95.0 169.0,83.0 167.0,75.0 167.0,65.0" stroke="rgb(255,128,0)" stroke-width="0.25mm" /><defs /><text dominant-baseline="middle" fill="rgb(0,0,255)" fill-opacity="1" font-family="Verdana" font-size="40.0" text-anchor="middle" x="155.0" y="25.0">name</text><defs /><g id="p"><rect fill="rgb(0,0,255)" fill-opacity="1" height="40.0" rx="0.0" ry="0.0" stroke="rgb(0,0,255)" stroke-width="0.25mm" width="40.0" x="15.0" y="135.0" /><defs /><g display="none" id="info"><text id="name">p</text><text id="type">Modelica.Electrical.Analog.Interfaces.PositivePin</text><text id="classDesc">Positive pin of an electrical component</text><text id="desc">Electrical connector</text></g></g><g id="n"><rect fill="rgb(255,255,255)" fill-opacity="1" height="40.0" rx="0.0" ry="0.0" stroke="rgb(0,0,255)" stroke-width="0.25mm" width="40.0" x="15.0" y="135.0" /><defs /><g display="none" id="info"><text id="name">n</text><text id="type">Modelica.Electrical.Analog.Interfaces.NegativePin</text><text id="classDesc">Negative pin of an electrical component</text><text id="desc">Electrical connector</text></g></g><g id="flange"><rect fill="rgb(255,255,255)" fill-opacity="1" height="40.0" rx="0.0" ry="0.0" stroke="rgb(0,127,0)" stroke-width="0.25mm" width="40.0" x="15.0" y="135.0" /><defs /><g display="none" id="info"><text id="name">flange</text><text id="type">Modelica.Mechanics.Translational.Interfaces.Flange_b</text><text id="classDesc">One-dimensional translational flange (right, flange axis directed OUT OF cut plane)</text><text id="desc">Flange of component</text></g></g></svg>