<?xml version="1.0" encoding="utf-8" ?>
<svg baseProfile="full" height="217.50900000000001" version="1.1" viewBox="0 0 210.0 217.50900000000001" width="210.0" xmlns="http://www.w3.org/2000/svg" xmlns:ev="http://www.w3.org/2001/xml-events" xmlns:xlink="http://www.w3.org/1999/xlink"><defs /><rect fill="url(#0)" height="200.0" rx="25.0" ry="25.0" stroke="rgb(200,200,200)" stroke-width="0.25mm" width="200.0" x="5.0" y="5.0" /><defs><linearGradient id="0" x1="0%" x2="0%" y1="0%" y2="100%"><stop offset="0" stop-color="rgb(200, 200, 200)" stop-opacity="1" /><stop offset="0.3" stop-color="rgb(248, 248, 248)" stop-opacity="1" /><stop offset="0.7" stop-color="rgb(248, 248, 248)" stop-opacity="1" /><stop offset="1" stop-color="rgb(200, 200, 200)" stop-opacity="1" /></linearGradient></defs><rect fill="none" fill-opacity="0" height="200.0" rx="25.0" ry="25.0" stroke="rgb(128,128,128)" stroke-width="0.25mm" width="200.0" x="5.0" y="5.0" /><defs /><polygon fill="rgb(64,64,64)" fill-opacity="1" points="29.781784110115552,53.75023013846398 47.45904416015159,71.42830913827049 65.13679558004992,67.89318470817147 68.67273895991941,50.21559707822725 50.99547890988337,32.537518078420746 54.531094709844666,29.002066068413527 65.1376145298204,32.53784565832892 82.81487457985642,50.215924658135435 82.81438320999415,71.42912808804095 142.91706738011666,131.5345966873831 164.13027081002218,131.5350880572454 178.27207885005103,145.6775512570906 178.27158748018874,166.8907546869961 171.20035588026613,173.96165870701054 164.12945186025172,166.89042710708793 167.66506766021303,163.35497509708074 167.6653952401212,149.21283947714372 160.59449122010682,142.1416078772211 146.45235560016977,142.1412802973129 139.38112400024715,149.21218431732734 139.38079642033898,163.35431993726434 146.4517004403534,170.42555153718695 160.5938360602904,170.42587911709515 164.12945186025172,166.89042710708793 171.20035588026613,173.96165870701054 164.12912428034352,181.03256272702495 142.915920850438,181.0320713571627 128.77411281040918,166.88960815731747 128.77460418027147,145.67640472741192 68.67192001014894,85.57093612806979 47.458716580243404,85.57044475820751 29.781456530207365,67.892365758401 26.246168310154246,57.28568214847118" /><defs /><polygon fill="rgb(255,255,255)" fill-opacity="1" points="166.2048532539879,27.462884427973833 187.4185480537557,48.67559648801708 187.4187118437098,55.74666429798559 148.52873973363052,94.63843809755991 134.3866041136935,94.6387656774681 127.31570009367908,101.7099972773907 130.85147968359448,112.31651709736641 127.31602767358729,115.85213289732772 116.70918027370337,105.2457768673061 63.67740012359526,158.28001386672565 60.142111903542144,168.88669747665546 38.92923605354481,183.02932446645474 31.8580044536222,175.95842044644036 45.999648703696934,154.74488943662664 56.60616852367265,151.20910984671121 109.63794867378077,98.17487284729168 99.03110127389687,87.56851681727007 102.56655328390407,84.03290101730876 113.17323689383387,87.56818923736188 120.2441409138483,80.49695763743927 120.2438133339401,66.35482201750224 159.1337854440194,27.46304821792792" stroke="rgb(0,0,0)" stroke-width="0.25mm" /><defs /></svg>