<?xml version="1.0" encoding="utf-8" ?>
<svg baseProfile="full" height="214.0" version="1.1" viewBox="0 0 214.0 214.0" width="214.0" xmlns="http://www.w3.org/2000/svg" xmlns:ev="http://www.w3.org/2001/xml-events" xmlns:xlink="http://www.w3.org/1999/xlink"><defs /><rect fill="none" fill-opacity="0" height="204.0" rx="0.0" ry="0.0" stroke="rgb(255,0,0)" stroke-dasharray="8.0 4.0" stroke-width="0.5mm" width="204.0" x="5.0" y="5.0" /><defs /><ellipse cx="107.0" cy="107.0" fill="rgb(75,138,73)" fill-opacity="1" rx="100.0" ry="100.0" /><defs /><path d="M 87.0 102.0 C 87.0 97.0 87.0 92.0 102.0 87.0 102.0 87.0 117.0 82.0 122.0 92.0 122.0 92.0 127.0 102.0 117.0 127.0 117.0 127.0 107.0 152.0 112.0 152.0 112.0 152.0 117.0 152.0 122.0 152.0 122.0 152.0 127.0 152.0 127.0 157.0 127.0 157.0 127.0 162.0 112.0 167.0 112.0 167.0 97.0 172.0 92.0 162.0 92.0 162.0 87.0 152.0 97.0 127.0 97.0 127.0 107.0 102.0 102.0 102.0 102.0 102.0 97.0 102.0 97.0 102.0" fill="rgb(255,255,255)" fill-opacity="1" /><defs /><ellipse cx="114.5" cy="50.5" fill="rgb(255,255,255)" fill-opacity="1" rx="12.5" ry="12.5" /><defs /></svg>