<?xml version="1.0" encoding="utf-8" ?>
<svg baseProfile="full" height="210.0" version="1.1" viewBox="0 0 370.0 210.0" width="370.0" xmlns="http://www.w3.org/2000/svg" xmlns:ev="http://www.w3.org/2001/xml-events" xmlns:xlink="http://www.w3.org/1999/xlink"><defs /><rect fill="url(#0)" height="101.0" rx="0.0" ry="0.0" stroke="rgb(0,0,0)" stroke-width="0.25mm" width="50.0" x="55.0" y="54.0" /><defs><linearGradient id="0" x1="0%" x2="0%" y1="0%" y2="100%"><stop offset="0" stop-color="rgb(0, 0, 0)" stop-opacity="1" /><stop offset="0.3" stop-color="rgb(135, 135, 135)" stop-opacity="1" /><stop offset="0.7" stop-color="rgb(135, 135, 135)" stop-opacity="1" /><stop offset="1" stop-color="rgb(0, 0, 0)" stop-opacity="1" /></linearGradient></defs><rect fill="rgb(135,135,135)" fill-opacity="1" height="40.0" rx="0.0" ry="0.0" stroke="rgb(135,135,135)" stroke-width="0.25mm" width="111.0" x="124.0" y="85.0" /><defs /><text dominant-baseline="middle" fill="rgb(0,0,0)" fill-opacity="1" font-family="Verdana" font-size="40.0" text-anchor="middle" x="265.0" y="165.0">k=k</text><defs /><polyline fill="none" fill-opacity="0" points="115.0,56.0 115.0,25.0 145.0,25.0 145.0,14.0" stroke="rgb(0,0,255)" stroke-width="0.25mm" /><defs /><polyline fill="none" fill-opacity="0" points="165.0,154.0 165.0,185.0 145.0,185.0 145.0,194.0 145.0,195.0" stroke="rgb(0,0,255)" stroke-width="0.25mm" /><defs /><ellipse cx="139.0" cy="105.0" fill="none" fill-opacity="0" rx="15.0" ry="50.0" stroke="rgb(0,0,255)" stroke-width="0.25mm" /><defs /><ellipse cx="162.0" cy="105.0" fill="none" fill-opacity="0" rx="15.0" ry="50.0" stroke="rgb(0,0,255)" stroke-width="0.25mm" /><defs /><ellipse cx="117.0" cy="105.0" fill="none" fill-opacity="0" rx="15.0" ry="50.0" stroke="rgb(0,0,255)" stroke-width="0.25mm" /><defs /><rect fill="rgb(135,135,135)" fill-opacity="1" height="40.0" rx="0.0" ry="0.0" stroke="rgb(135,135,135)" stroke-width="0.25mm" width="3.0" x="141.0" y="85.0" /><defs /><rect fill="rgb(135,135,135)" fill-opacity="1" height="40.0" rx="0.0" ry="0.0" stroke="rgb(135,135,135)" stroke-width="0.25mm" width="3.0" x="152.0" y="85.0" /><defs /><rect fill="rgb(135,135,135)" fill-opacity="1" height="40.0" rx="0.0" ry="0.0" stroke="rgb(135,135,135)" stroke-width="0.25mm" width="3.0" x="131.0" y="85.0" /><defs /><rect fill="rgb(135,135,135)" fill-opacity="1" height="40.0" rx="0.0" ry="0.0" stroke="rgb(135,135,135)" stroke-width="0.25mm" width="25.0" x="164.0" y="85.0" /><defs /><polyline fill="none" fill-opacity="0" points="45.0,175.0 105.0,175.0" stroke="rgb(0,0,0)" stroke-width="0.25mm" /><defs /><polyline fill="none" fill-opacity="0" points="45.0,195.0 65.0,175.0" stroke="rgb(0,0,0)" stroke-width="0.25mm" /><defs /><polyline fill="none" fill-opacity="0" points="65.0,195.0 85.0,175.0" stroke="rgb(0,0,0)" stroke-width="0.25mm" /><defs /><polyline fill="none" fill-opacity="0" points="85.0,195.0 105.0,175.0" stroke="rgb(0,0,0)" stroke-width="0.25mm" /><defs /><polyline fill="none" fill-opacity="0" points="75.0,175.0 75.0,155.0" stroke="rgb(0,0,0)" stroke-width="0.25mm" /><defs /><text dominant-baseline="middle" fill="rgb(0,0,255)" fill-opacity="1" font-family="Verdana" font-size="40.0" text-anchor="middle" x="265.0" y="45.0">name</text><defs /><g id="p"><rect fill="rgb(0,0,255)" fill-opacity="1" height="40.0" rx="0.0" ry="0.0" stroke="rgb(0,0,255)" stroke-width="0.25mm" width="40.0" x="5.0" y="85.0" /><defs /><g display="none" id="info"><text id="name">p</text><text id="type">Modelica.Electrical.Analog.Interfaces.PositivePin</text><text id="classDesc">Positive pin of an electrical component</text><text id="desc">Positive electrical pin</text></g></g><g id="n"><rect fill="rgb(255,255,255)" fill-opacity="1" height="40.0" rx="0.0" ry="0.0" stroke="rgb(0,0,255)" stroke-width="0.25mm" width="40.0" x="5.0" y="85.0" /><defs /><g display="none" id="info"><text id="name">n</text><text id="type">Modelica.Electrical.Analog.Interfaces.NegativePin</text><text id="classDesc">Negative pin of an electrical component</text><text id="desc">Negative electrical pin</text></g></g><g id="flange"><rect fill="rgb(255,255,255)" fill-opacity="1" height="40.0" rx="0.0" ry="0.0" stroke="rgb(0,127,0)" stroke-width="0.25mm" width="40.0" x="5.0" y="85.0" /><defs /><g display="none" id="info"><text id="name">flange</text><text id="type">Modelica.Mechanics.Translational.Interfaces.Flange_b</text><text id="classDesc">One-dimensional translational flange (right, flange axis directed OUT OF cut plane)</text><text id="desc">Flange</text></g></g><g id="support"><rect fill="rgb(175,175,175)" fill-opacity="1" height="24.0" rx="0.0" ry="0.0" stroke="rgb(0,127,0)" stroke-width="0.25mm" width="24.0" x="13.0" y="93.0" /><defs /><rect fill="rgb(175,190,175)" fill-opacity="1" height="40.0" rx="0.0" ry="0.0" width="40.0" x="5.0" y="85.0" /><defs /><rect fill="rgb(0,127,0)" fill-opacity="1" height="24.0" rx="0.0" ry="0.0" stroke="rgb(0,127,0)" stroke-width="0.25mm" width="24.0" x="13.0" y="93.0" /><defs /><g display="none" id="info"><text id="name">support</text><text id="type">Modelica.Mechanics.Translational.Interfaces.Support</text><text id="classDesc">Support/housing flange of a one-dimensional translational component</text><text id="desc">Support/housing</text></g></g></svg>