<?xml version="1.0" encoding="utf-8" ?>
<svg baseProfile="full" height="270.0" version="1.1" viewBox="0 0 310.0 270.0" width="310.0" xmlns="http://www.w3.org/2000/svg" xmlns:ev="http://www.w3.org/2001/xml-events" xmlns:xlink="http://www.w3.org/1999/xlink"><defs /><polyline fill="none" fill-opacity="0" points="57.0,105.0 107.0,105.0" stroke="rgb(0,127,0)" stroke-width="0.25mm" /><defs /><polyline fill="none" fill-opacity="0" points="107.0,69.0 107.0,143.0" stroke="rgb(0,127,0)" stroke-width="1.0mm" /><defs /><polyline fill="none" fill-opacity="0" points="143.0,143.0 143.0,69.0" stroke="rgb(0,127,0)" stroke-width="1.0mm" /><defs /><polyline fill="none" fill-opacity="0" points="143.0,133.0 225.0,133.0 225.0,81.0" stroke="rgb(0,127,0)" stroke-width="0.25mm" /><defs /><polyline fill="none" fill-opacity="0" points="225.0,105.0 253.0,105.0" stroke="rgb(0,127,0)" stroke-width="0.25mm" /><defs /><polyline fill="none" fill-opacity="0" points="143.0,81.0 155.0,81.0 161.0,71.0 173.0,91.0 185.0,71.0 197.0,91.0 209.0,71.0 215.0,81.0 225.0,81.0" stroke="rgb(0,127,0)" stroke-width="0.25mm" /><defs /><rect fill="rgb(192,192,192)" fill-opacity="1" height="44.0" rx="0.0" ry="0.0" stroke="rgb(0,127,0)" stroke-width="0.25mm" width="40.0" x="165.0" y="111.0" /><defs /><polyline fill="none" fill-opacity="0" points="103.0,175.0 183.0,175.0" stroke="rgb(95,127,95)" stroke-width="0.25mm" /><defs /><polygon fill="rgb(95,127,95)" fill-opacity="1" points="213.0,175.0 183.0,165.0 183.0,185.0 213.0,175.0" stroke="rgb(95,127,95)" stroke-width="0.25mm" /><defs /><text dominant-baseline="middle" fill="rgb(0,0,255)" fill-opacity="1" font-family="Verdana" font-size="40.0" text-anchor="middle" x="155.0" y="25.0">name</text><defs /><text dominant-baseline="middle" fill="rgb(0,0,0)" fill-opacity="1" font-family="Verdana" font-size="30.0" text-anchor="middle" x="155.0" y="215.0">c=c</text><defs /><text dominant-baseline="middle" fill="rgb(0,0,0)" fill-opacity="1" font-family="Verdana" font-size="30.0" text-anchor="middle" x="155.0" y="250.0">d=d</text><defs /><polyline fill="none" fill-opacity="0" points="55.0,205.0 55.0,149.0 177.0,149.0 177.0,133.0" stroke="rgb(191,0,0)" stroke-dasharray="1.0 2.0" stroke-width="0.25mm" /><defs /><polyline fill="none" fill-opacity="0" points="155.0,155.0 205.0,155.0 205.0,111.0 155.0,111.0" stroke="rgb(0,127,0)" stroke-width="0.25mm" /><defs /><g id="heatPort"><rect fill="rgb(191,0,0)" fill-opacity="1" height="40.0" rx="0.0" ry="0.0" stroke="rgb(191,0,0)" stroke-width="0.25mm" width="40.0" x="15.0" y="85.0" /><defs /><g display="none" id="info"><text id="name">heatPort</text><text id="type">Modelica.Thermal.HeatTransfer.Interfaces.HeatPort_a</text><text id="classDesc">Thermal port for 1-dim. heat transfer (filled rectangular icon)</text><text id="desc">Optional port to which dissipated losses are transported in form of heat</text></g></g><g id="flange_a"><rect fill="rgb(0,127,0)" fill-opacity="1" height="40.0" rx="0.0" ry="0.0" stroke="rgb(0,127,0)" stroke-width="0.25mm" width="40.0" x="15.0" y="85.0" /><defs /><g display="none" id="info"><text id="name">flange_a</text><text id="type">Modelica.Mechanics.Translational.Interfaces.Flange_a</text><text id="classDesc">One-dimensional translational flange (left, flange axis directed INTO cut plane)</text><text id="desc">Left flange of compliant 1-dim. translational component</text></g></g><g id="flange_b"><rect fill="rgb(255,255,255)" fill-opacity="1" height="40.0" rx="0.0" ry="0.0" stroke="rgb(0,127,0)" stroke-width="0.25mm" width="40.0" x="15.0" y="85.0" /><defs /><g display="none" id="info"><text id="name">flange_b</text><text id="type">Modelica.Mechanics.Translational.Interfaces.Flange_b</text><text id="classDesc">One-dimensional translational flange (right, flange axis directed OUT OF cut plane)</text><text id="desc">Right flange of compliant 1-dim. translational component</text></g></g></svg>