<?xml version="1.0" encoding="utf-8" ?>
<svg baseProfile="full" height="285.0" version="1.1" viewBox="0 0 310.0 285.0" width="310.0" xmlns="http://www.w3.org/2000/svg" xmlns:ev="http://www.w3.org/2001/xml-events" xmlns:xlink="http://www.w3.org/1999/xlink"><defs /><polyline fill="none" fill-opacity="0" points="255.0,265.0 249.0,265.0 239.0,263.0 231.0,259.0 219.0,251.0 205.0,237.0 197.0,223.0 191.0,205.0 185.0,183.0 185.0,165.0 185.0,147.0 189.0,129.0 201.0,99.0 217.0,81.0 233.0,69.0 245.0,65.0 255.0,65.0" stroke="rgb(255,128,0)" stroke-width="0.25mm" /><defs /><polyline fill="none" fill-opacity="0" points="135.0,105.0 135.0,65.0 55.0,65.0" stroke="rgb(0,0,255)" stroke-width="0.25mm" /><defs /><polyline fill="none" fill-opacity="0" points="135.0,225.0 135.0,265.0 55.0,265.0" stroke="rgb(0,0,255)" stroke-width="0.25mm" /><defs /><path d="M 135.00208477336804 104.99902728217691 C 160.00166759077098 108.00250176280964 185.00125040817392 111.00597624344238 200.00027740061762 118.00806088160161 200.00027740061762 118.00806088160161 214.99930439306132 125.01014551976083 214.99791458921888 135.01014542318308 214.99791458921888 135.01014542318308 214.99652478537644 145.01014532660534 199.9954130871691 153.00806054357952 199.9954130871691 153.00806054357952 184.9943013889618 161.0059757605537 159.99402366963764 163.0025012316321 159.99402366963764 163.0025012316321 134.9937459503135 164.99902670271047 134.9937459503135 164.99902670271047" fill="none" fill-opacity="0" stroke="rgb(0,0,255)" stroke-width="0.25mm" /><defs /><path d="M 135.00208477336804 164.9990272821769 C 160.00166759077098 168.00250176280963 185.00125040817392 171.00597624344238 200.00027740061762 178.0080608816016 200.00027740061762 178.0080608816016 214.99930439306132 185.01014551976084 214.99791458921888 195.0101454231831 214.99791458921888 195.0101454231831 214.99652478537644 205.01014532660537 199.9954130871691 213.00806054357952 199.9954130871691 213.00806054357952 184.9943013889618 221.0059757605537 159.99402366963764 223.0025012316321 159.99402366963764 223.0025012316321 134.9937459503135 224.99902670271047 134.9937459503135 224.99902670271047" fill="none" fill-opacity="0" stroke="rgb(0,0,255)" stroke-width="0.25mm" /><defs /><text dominant-baseline="middle" fill="rgb(0,0,255)" fill-opacity="1" font-family="Verdana" font-size="40.0" text-anchor="middle" x="155.0" y="25.0">name</text><defs /><g id="pin_p"><rect fill="rgb(0,0,255)" fill-opacity="1" height="40.0" rx="0.0" ry="0.0" stroke="rgb(0,0,255)" stroke-width="0.25mm" width="40.0" x="15.0" y="145.0" /><defs /><g display="none" id="info"><text id="name">pin_p</text><text id="type">Modelica.Electrical.Analog.Interfaces.PositivePin</text><text id="classDesc">Positive pin of an electrical component</text><text id="desc">Positive pin</text></g></g><g id="pin_n"><rect fill="rgb(255,255,255)" fill-opacity="1" height="40.0" rx="0.0" ry="0.0" stroke="rgb(0,0,255)" stroke-width="0.25mm" width="40.0" x="15.0" y="145.0" /><defs /><g display="none" id="info"><text id="name">pin_n</text><text id="type">Modelica.Electrical.Analog.Interfaces.NegativePin</text><text id="classDesc">Negative pin of an electrical component</text><text id="desc">Negative pin</text></g></g><g id="port_p"><ellipse cx="35.0" cy="165.0" fill="rgb(255,128,0)" fill-opacity="1" rx="20.0" ry="20.0" stroke="rgb(255,128,0)" stroke-width="0.25mm" /><defs /><g display="none" id="info"><text id="name">port_p</text><text id="type">Modelica.Magnetic.FundamentalWave.Interfaces.PositiveMagneticPort</text><text id="classDesc">Positive magnetic port of fundamental wave machines</text><text id="desc">Positive complex magnetic port</text></g></g><g id="port_n"><ellipse cx="35.0" cy="165.0" fill="rgb(255,255,255)" fill-opacity="1" rx="20.0" ry="20.0" stroke="rgb(255,128,0)" stroke-width="0.25mm" /><defs /><g display="none" id="info"><text id="name">port_n</text><text id="type">Modelica.Magnetic.FundamentalWave.Interfaces.NegativeMagneticPort</text><text id="classDesc">Negative magnetic port of fundamental wave machines</text><text id="desc">Negative complex magnetic port</text></g></g></svg>