<?xml version="1.0" encoding="utf-8" ?>
<svg baseProfile="full" height="210" version="1.1" viewBox="0 0 310.0 210" width="310.0" xmlns="http://www.w3.org/2000/svg" xmlns:ev="http://www.w3.org/2001/xml-events" xmlns:xlink="http://www.w3.org/1999/xlink"><defs /><text dominant-baseline="middle" fill="rgb(0,0,255)" fill-opacity="1" font-family="Verdana" font-size="40.0" text-anchor="middle" x="155.0" y="35.0">name</text><defs /><polyline fill="none" fill-opacity="0" points="85.0,105.0 55.0,105.0" stroke="rgb(255,128,0)" stroke-width="0.25mm" /><defs /><rect fill="rgb(255,255,255)" fill-opacity="1" height="60.0" rx="0.0" ry="0.0" stroke="rgb(255,128,0)" stroke-width="0.25mm" width="140.0" x="85.0" y="75.0" /><defs /><polyline fill="none" fill-opacity="0" points="225.0,105.0 255.0,105.0" stroke="rgb(255,128,0)" stroke-width="0.25mm" /><defs /><path d="M 125.0 125.0 C 133.0 125.0 141.0 125.0 145.0 123.0 145.0 123.0 149.0 121.0 153.0 113.0 153.0 113.0 157.0 105.0 161.0 97.0 161.0 97.0 165.0 89.0 169.0 87.0 169.0 87.0 173.0 85.0 177.0 85.0 177.0 85.0 181.0 85.0 181.0 85.0" fill="none" fill-opacity="0" stroke="rgb(255,128,0)" stroke-width="0.25mm" /><defs /><path d="M 181.0018529430229 85.0027796935367 C 173.00185297736164 85.0020384648194 165.0018530117004 85.00129723610212 161.00166772169047 87.00092661315878 161.00166772169047 87.00092661315878 157.0014824316805 89.00055599021546 153.0007412201326 97.00018534151806 153.0007412201326 97.00018534151806 149.0000000085847 104.99981469282068 144.9992587970368 112.9994440441233 144.9992587970368 112.9994440441233 140.99851758548888 120.9990733954259 136.99833229547892 122.99870277248257 136.99833229547892 122.99870277248257 132.99814700546898 124.99833214953924 128.99814702263836 124.9979615351806 128.99814702263836 124.9979615351806 124.99814703980773 124.99759092082195 124.99814703980773 124.99759092082195" fill="none" fill-opacity="0" stroke="rgb(255,128,0)" stroke-width="0.25mm" /><defs /><text dominant-baseline="middle" fill="rgb(255,128,0)" fill-opacity="1" font-family="Verdana" font-size="30.0" text-anchor="middle" x="195.0" y="120.0">TT</text><defs /><g id="heatPort"><rect fill="rgb(191,0,0)" fill-opacity="1" height="40.0" rx="0.0" ry="0.0" stroke="rgb(191,0,0)" stroke-width="0.25mm" width="40.0" x="15.0" y="85.0" /><defs /><g display="none" id="info"><text id="name">heatPort</text><text id="type">Modelica.Thermal.HeatTransfer.Interfaces.HeatPort_a</text><text id="classDesc">Thermal port for 1-dim. heat transfer (filled rectangular icon)</text><text id="desc" /></g></g><g id="port_p"><rect fill="rgb(255,127,0)" fill-opacity="1" height="40.0" rx="0.0" ry="0.0" stroke="rgb(255,127,0)" stroke-width="0.25mm" width="40.0" x="15.0" y="85.0" /><defs /><g display="none" id="info"><text id="name">port_p</text><text id="type">Modelica.Magnetic.FluxTubes.Interfaces.PositiveMagneticPort</text><text id="classDesc">Positive magnetic port</text><text id="desc">Positive magnetic port</text></g></g><g id="port_n"><rect fill="rgb(255,255,255)" fill-opacity="1" height="40.0" rx="0.0" ry="0.0" stroke="rgb(255,127,0)" stroke-width="0.25mm" width="40.0" x="15.0" y="85.0" /><defs /><g display="none" id="info"><text id="name">port_n</text><text id="type">Modelica.Magnetic.FluxTubes.Interfaces.NegativeMagneticPort</text><text id="classDesc">Negative magnetic port</text><text id="desc">Negative magnetic port</text></g></g></svg>