<?xml version="1.0" encoding="utf-8" ?>
<svg baseProfile="full" height="270.0" version="1.1" viewBox="0 0 310.0 270.0" width="310.0" xmlns="http://www.w3.org/2000/svg" xmlns:ev="http://www.w3.org/2001/xml-events" xmlns:xlink="http://www.w3.org/1999/xlink"><defs /><polyline fill="none" fill-opacity="0" points="105.0,265.0 125.0,245.0" stroke="rgb(0,127,0)" stroke-width="0.25mm" /><defs /><polyline fill="none" fill-opacity="0" points="125.0,265.0 145.0,245.0" stroke="rgb(0,127,0)" stroke-width="0.25mm" /><defs /><polyline fill="none" fill-opacity="0" points="145.0,265.0 165.0,245.0" stroke="rgb(0,127,0)" stroke-width="0.25mm" /><defs /><polyline fill="none" fill-opacity="0" points="165.0,265.0 185.0,245.0" stroke="rgb(0,127,0)" stroke-width="0.25mm" /><defs /><polyline fill="none" fill-opacity="0" points="125.0,245.0 185.0,245.0" stroke="rgb(0,127,0)" stroke-width="0.25mm" /><defs /><rect fill="rgb(255,255,255)" fill-opacity="1" height="192.0" rx="0.0" ry="0.0" stroke="rgb(255,255,255)" stroke-width="0.25mm" width="192.0" x="59.0" y="45.0" /><defs /><polyline fill="none" fill-opacity="0" points="155.0,205.0 155.0,245.0" stroke="rgb(0,127,0)" stroke-width="0.25mm" /><defs /><text dominant-baseline="middle" fill="rgb(0,0,255)" fill-opacity="1" font-family="Verdana" font-size="40.0" text-anchor="middle" x="155.0" y="25.0">name</text><defs /><polyline fill="none" fill-opacity="0" points="77.0,65.0 206.0,65.0" stroke="rgb(95,127,95)" stroke-width="0.25mm" /><defs /><polygon fill="rgb(95,127,95)" fill-opacity="1" points="236.0,65.0 206.0,55.0 206.0,75.0 236.0,65.0" stroke="rgb(95,127,95)" stroke-width="0.25mm" /><defs /><polyline fill="none" fill-opacity="0" points="103.0,205.0 232.0,205.0" stroke="rgb(95,127,95)" stroke-width="0.25mm" /><defs /><polygon fill="rgb(95,127,95)" fill-opacity="1" points="73.0,205.0 104.0,195.0 104.0,215.0 73.0,205.0" stroke="rgb(95,127,95)" stroke-width="0.25mm" /><defs /><polyline fill="none" fill-opacity="0" points="80.0,145.0 230.0,145.0" stroke="rgb(192,192,192)" stroke-width="0.25mm" /><defs /><polyline fill="none" fill-opacity="0" points="155.0,85.0 155.0,195.0" stroke="rgb(192,192,192)" stroke-width="0.25mm" /><defs /><path d="M 155.0 145.0 C 157.0 132.5 159.0 120.0 161.0 112.0 161.0 112.0 163.0 104.0 165.0 100.5 165.0 100.5 167.0 97.0 169.0 96.0 169.0 96.0 171.0 95.0 173.0 95.5 173.0 95.5 175.0 96.0 177.0 97.5 177.0 97.5 179.0 99.0 181.0 101.0 181.0 101.0 183.0 103.0 185.0 105.0 185.0 105.0 187.0 107.0 189.0 109.0 189.0 109.0 191.0 111.0 196.0 115.5 196.0 115.5 201.0 120.0 206.0 123.5 206.0 123.5 211.0 127.0 216.0 130.0 216.0 130.0 221.0 133.0 226.0 135.0 226.0 135.0 231.0 137.0 231.0 137.0" fill="none" fill-opacity="0" stroke="rgb(0,0,127)" stroke-width="0.25mm" /><defs /><path d="M 155.0 145.0 C 153.0 157.5 151.0 170.0 149.0 178.0 149.0 178.0 147.0 186.0 145.0 189.5 145.0 189.5 143.0 193.0 141.0 194.0 141.0 194.0 139.0 195.0 137.0 194.5 137.0 194.5 135.0 194.0 133.0 192.5 133.0 192.5 131.0 191.0 129.0 189.0 129.0 189.0 127.0 187.0 125.0 185.0 125.0 185.0 123.0 183.0 121.0 181.0 121.0 181.0 119.0 179.0 114.0 174.5 114.0 174.5 109.0 170.0 104.0 166.5 104.0 166.5 99.0 163.0 94.0 160.0 94.0 160.0 89.0 157.0 84.0 155.0 84.0 155.0 79.0 153.0 79.0 153.0" fill="none" fill-opacity="0" stroke="rgb(0,0,127)" stroke-width="0.25mm" /><defs /><g id="heatPort"><rect fill="rgb(191,0,0)" fill-opacity="1" height="40.0" rx="0.0" ry="0.0" stroke="rgb(191,0,0)" stroke-width="0.25mm" width="40.0" x="15.0" y="125.0" /><defs /><g display="none" id="info"><text id="name">heatPort</text><text id="type">Modelica.Thermal.HeatTransfer.Interfaces.HeatPort_a</text><text id="classDesc">Thermal port for 1-dim. heat transfer (filled rectangular icon)</text><text id="desc">Optional port to which dissipated losses are transported in form of heat</text></g></g><g id="flange"><rect fill="rgb(255,255,255)" fill-opacity="1" height="40.0" rx="0.0" ry="0.0" stroke="rgb(0,127,0)" stroke-width="0.25mm" width="40.0" x="15.0" y="125.0" /><defs /><g display="none" id="info"><text id="name">flange</text><text id="type">Modelica.Mechanics.Translational.Interfaces.Flange_b</text><text id="classDesc">One-dimensional translational flange (right, flange axis directed OUT OF cut plane)</text><text id="desc">Flange of component</text></g></g><g id="support"><rect fill="rgb(175,175,175)" fill-opacity="1" height="24.0" rx="0.0" ry="0.0" stroke="rgb(0,127,0)" stroke-width="0.25mm" width="24.0" x="23.0" y="133.0" /><defs /><rect fill="rgb(175,190,175)" fill-opacity="1" height="40.0" rx="0.0" ry="0.0" width="40.0" x="15.0" y="125.0" /><defs /><rect fill="rgb(0,127,0)" fill-opacity="1" height="24.0" rx="0.0" ry="0.0" stroke="rgb(0,127,0)" stroke-width="0.25mm" width="24.0" x="23.0" y="133.0" /><defs /><g display="none" id="info"><text id="name">support</text><text id="type">Modelica.Mechanics.Translational.Interfaces.Support</text><text id="classDesc">Support/housing flange of a one-dimensional translational component</text><text id="desc">Support/housing of component</text></g></g></svg>