<svg width="223" height="233" xmlns="http://www.w3.org/2000/svg" xmlns:xlink="http://www.w3.org/1999/xlink">
	<g id="Modelica.Electrical.Machines.Losses.DCMachines.StrayLoad" class="component">
		<polygon points="91.5,231.5 131.5,231.5 131.5,191.5 91.5,191.5" fill="#C0C0C0" stroke="#C0C0C0" stroke-width="1.0" stroke-linecap="round" stroke-linejoin="round" />
		<polyline points="21.5,111.5 201.5,111.5" fill-opacity="0" stroke="#0000FF" stroke-width="1.0" stroke-linecap="round" stroke-linejoin="round" />
		<polygon points="41.5,141.5 181.5,141.5 181.5,81.5 41.5,81.5" fill-opacity="0" stroke="#0000FF" stroke-dasharray="1 2" stroke-width="1.0" stroke-linecap="round" stroke-linejoin="round" />
		<g id="p" class="port">
			<polygon points="1.5,121.5 21.5,121.5 21.5,101.5 1.5,101.5" fill="#0000FF" stroke="#0000FF" stroke-width="1.0" stroke-linecap="round" stroke-linejoin="round" />
		</g>
		<g id="n" class="port">
			<polygon points="221.5,121.5 201.5,121.5 201.5,101.5 221.5,101.5" fill="#FFFFFF" stroke="#0000FF" stroke-width="1.0" stroke-linecap="round" stroke-linejoin="round" />
		</g>
		<g id="flange" class="port">
			<polygon points="121.5,11.5 121.5,12.4 121.4,13.2 121.2,14.1 120.9,14.9 120.6,15.7 120.2,16.4 119.7,17.2 119.2,17.9 118.6,18.5 118.0,19.1 117.3,19.6 116.6,20.1 115.9,20.5 115.1,20.8 114.3,21.1 113.4,21.3 112.6,21.4 111.7,21.5 110.9,21.5 110.0,21.4 109.2,21.2 108.3,21.0 107.5,20.7 106.8,20.3 106.0,19.9 105.3,19.4 104.7,18.8 104.1,18.2 103.5,17.5 103.0,16.8 102.6,16.1 102.2,15.3 102.0,14.5 101.7,13.6 101.6,12.8 101.5,11.9 101.5,11.1 101.6,10.2 101.7,9.4 102.0,8.5 102.2,7.7 102.6,6.9 103.0,6.2 103.5,5.5 104.1,4.8 104.7,4.2 105.3,3.6 106.0,3.1 106.8,2.7 107.5,2.3 108.3,2.0 109.2,1.8 110.0,1.6 110.9,1.5 111.7,1.5 112.6,1.6 113.4,1.7 114.3,1.9 115.1,2.2 115.9,2.5 116.6,2.9 117.3,3.4 118.0,3.9 118.6,4.5 119.2,5.1 119.7,5.8 120.2,6.6 120.6,7.3 120.9,8.1 121.2,8.9 121.4,9.8 121.5,10.6" fill="#5F5F5F" stroke="#000000" stroke-width="1.0" stroke-linecap="round" stroke-linejoin="round" />
		</g>
		<g id="support" class="port">
			<polygon points="121.5,211.5 121.5,210.6 121.4,209.8 121.2,208.9 120.9,208.1 120.6,207.3 120.2,206.6 119.7,205.8 119.2,205.1 118.6,204.5 118.0,203.9 117.3,203.4 116.6,202.9 115.9,202.5 115.1,202.2 114.3,201.9 113.4,201.7 112.6,201.6 111.7,201.5 110.9,201.5 110.0,201.6 109.2,201.8 108.3,202.0 107.5,202.3 106.8,202.7 106.0,203.1 105.3,203.6 104.7,204.2 104.1,204.8 103.5,205.5 103.0,206.2 102.6,206.9 102.2,207.7 102.0,208.5 101.7,209.4 101.6,210.2 101.5,211.1 101.5,211.9 101.6,212.8 101.7,213.6 102.0,214.5 102.2,215.3 102.6,216.1 103.0,216.8 103.5,217.5 104.1,218.2 104.7,218.8 105.3,219.4 106.0,219.9 106.8,220.3 107.5,220.7 108.3,221.0 109.2,221.2 110.0,221.4 110.9,221.5 111.7,221.5 112.6,221.4 113.4,221.3 114.3,221.1 115.1,220.8 115.9,220.5 116.6,220.1 117.3,219.6 118.0,219.1 118.6,218.5 119.2,217.9 119.7,217.2 120.2,216.4 120.6,215.7 120.9,214.9 121.2,214.1 121.4,213.2 121.5,212.4" fill="#5F5F5F" stroke="#000000" stroke-width="1.0" stroke-linecap="round" stroke-linejoin="round" />
		</g>
		<g id="heatPort" class="port">
			<polygon points="1.5,221.5 21.5,221.5 21.5,201.5 1.5,201.5" fill="#BF0000" stroke="#BF0000" stroke-width="1.0" stroke-linecap="round" stroke-linejoin="round" />
		</g>
	</g>
</svg>
