<svg width="213" height="213" xmlns="http://www.w3.org/2000/svg" xmlns:xlink="http://www.w3.org/1999/xlink">
	<g id="Modelica.Mechanics.MultiBody.Joints.Revolute" class="component">
		<defs>
			<linearGradient id="cyl2" x1="0" y1="0" x2="0" y2="1">
				<stop offset="0%" stop-color="#404040" />
				<stop offset="5%" stop-color="#646464" />
				<stop offset="10%" stop-color="#858585" />
				<stop offset="15%" stop-color="#A1A1A1" />
				<stop offset="20%" stop-color="#BABABA" />
				<stop offset="25%" stop-color="#CFCFCF" />
				<stop offset="30%" stop-color="#E0E0E0" />
				<stop offset="35%" stop-color="#EEEEEE" />
				<stop offset="40%" stop-color="#F7F7F7" />
				<stop offset="45%" stop-color="#FDFDFD" />
				<stop offset="50%" stop-color="#FFFFFF" />
				<stop offset="55%" stop-color="#FDFDFD" />
				<stop offset="60%" stop-color="#F7F7F7" />
				<stop offset="65%" stop-color="#EEEEEE" />
				<stop offset="70%" stop-color="#E0E0E0" />
				<stop offset="75%" stop-color="#CFCFCF" />
				<stop offset="80%" stop-color="#BABABA" />
				<stop offset="85%" stop-color="#A1A1A1" />
				<stop offset="90%" stop-color="#858585" />
				<stop offset="95%" stop-color="#646464" />
				<stop offset="100%" stop-color="#404040" />
			</linearGradient>
		</defs>
		<polygon points="9.2,168.6 10.8,169.9 12.5,170.8 14.3,171.3 16.3,171.5 16.3,171.5 24.6,171.5 41.3,171.5 41.3,171.5 58.0,171.5 66.3,171.5 66.3,171.5 68.3,171.3 70.1,170.8 71.8,169.9 73.4,168.6 73.4,168.6 75.0,166.5 76.0,164.1 76.3,161.5 76.3,161.5 76.3,146.9 76.3,111.5 76.3,111.5 76.3,76.1 76.3,61.5 76.3,61.5 76.0,58.9 75.0,56.5 73.4,54.4 73.4,54.4 71.8,53.1 70.1,52.2 68.3,51.7 66.3,51.5 66.3,51.5 58.0,51.5 41.3,51.5 41.3,51.5 24.6,51.5 16.3,51.5 16.3,51.5 14.3,51.7 12.5,52.2 10.8,53.1 9.2,54.4 9.2,54.4 7.9,56.0 7.0,57.7 6.5,59.5 6.3,61.5 6.3,61.5 6.3,76.1 6.3,111.5 6.3,111.5 6.3,146.9 6.3,161.5 6.3,161.5 6.5,163.5 7.0,165.3 7.9,167.0" fill="url(#cyl2)" stroke="#404040" stroke-width="1.0" stroke-linecap="butt" stroke-linejoin="round" />
		<defs>
			<linearGradient id="cyl3" x1="0" y1="0" x2="0" y2="1">
				<stop offset="0%" stop-color="#404040" />
				<stop offset="5%" stop-color="#646464" />
				<stop offset="10%" stop-color="#858585" />
				<stop offset="15%" stop-color="#A1A1A1" />
				<stop offset="20%" stop-color="#BABABA" />
				<stop offset="25%" stop-color="#CFCFCF" />
				<stop offset="30%" stop-color="#E0E0E0" />
				<stop offset="35%" stop-color="#EEEEEE" />
				<stop offset="40%" stop-color="#F7F7F7" />
				<stop offset="45%" stop-color="#FDFDFD" />
				<stop offset="50%" stop-color="#FFFFFF" />
				<stop offset="55%" stop-color="#FDFDFD" />
				<stop offset="60%" stop-color="#F7F7F7" />
				<stop offset="65%" stop-color="#EEEEEE" />
				<stop offset="70%" stop-color="#E0E0E0" />
				<stop offset="75%" stop-color="#CFCFCF" />
				<stop offset="80%" stop-color="#BABABA" />
				<stop offset="85%" stop-color="#A1A1A1" />
				<stop offset="90%" stop-color="#858585" />
				<stop offset="95%" stop-color="#646464" />
				<stop offset="100%" stop-color="#404040" />
			</linearGradient>
		</defs>
		<polygon points="139.2,168.6 140.8,169.9 142.5,170.8 144.3,171.3 146.3,171.5 146.3,171.5 154.6,171.5 171.3,171.5 171.3,171.5 188.0,171.5 196.3,171.5 196.3,171.5 198.3,171.3 200.1,170.8 201.8,169.9 203.4,168.6 203.4,168.6 204.7,167.0 205.6,165.3 206.1,163.5 206.3,161.5 206.3,161.5 206.3,146.9 206.3,111.5 206.3,111.5 206.3,76.1 206.3,61.5 206.3,61.5 206.1,59.5 205.6,57.7 204.7,56.0 203.4,54.4 203.4,54.4 201.8,53.1 200.1,52.2 198.3,51.7 196.3,51.5 196.3,51.5 188.0,51.5 171.3,51.5 171.3,51.5 154.6,51.5 146.3,51.5 146.3,51.5 144.3,51.7 142.5,52.2 140.8,53.1 139.2,54.4 139.2,54.4 137.6,56.5 136.6,58.9 136.3,61.5 136.3,61.5 136.3,76.1 136.3,111.5 136.3,111.5 136.3,146.9 136.3,161.5 136.3,161.5 136.6,164.1 137.6,166.5" fill="url(#cyl3)" stroke="#404040" stroke-width="1.0" stroke-linecap="butt" stroke-linejoin="round" />
		<polygon points="9.2,168.6 10.8,169.9 12.5,170.8 14.3,171.3 16.3,171.5 16.3,171.5 24.6,171.5 41.3,171.5 41.3,171.5 58.0,171.5 66.3,171.5 66.3,171.5 68.3,171.3 70.1,170.8 71.8,169.9 73.4,168.6 73.4,168.6 75.0,166.5 76.0,164.1 76.3,161.5 76.3,161.5 76.3,146.9 76.3,111.5 76.3,111.5 76.3,76.1 76.3,61.5 76.3,61.5 76.0,58.9 75.0,56.5 73.4,54.4 73.4,54.4 71.8,53.1 70.1,52.2 68.3,51.7 66.3,51.5 66.3,51.5 58.0,51.5 41.3,51.5 41.3,51.5 24.6,51.5 16.3,51.5 16.3,51.5 14.3,51.7 12.5,52.2 10.8,53.1 9.2,54.4 9.2,54.4 7.9,56.0 7.0,57.7 6.5,59.5 6.3,61.5 6.3,61.5 6.3,76.1 6.3,111.5 6.3,111.5 6.3,146.9 6.3,161.5 6.3,161.5 6.5,163.5 7.0,165.3 7.9,167.0" fill-opacity="0" stroke="#404040" stroke-width="1.0" stroke-linecap="butt" stroke-linejoin="round" />
		<polygon points="139.2,168.6 140.8,169.9 142.5,170.8 144.3,171.3 146.3,171.5 146.3,171.5 154.6,171.5 171.3,171.5 171.3,171.5 188.0,171.5 196.3,171.5 196.3,171.5 198.3,171.3 200.1,170.8 201.8,169.9 203.4,168.6 203.4,168.6 204.7,167.0 205.6,165.3 206.1,163.5 206.3,161.5 206.3,161.5 206.3,146.9 206.3,111.5 206.3,111.5 206.3,76.1 206.3,61.5 206.3,61.5 206.1,59.5 205.6,57.7 204.7,56.0 203.4,54.4 203.4,54.4 201.8,53.1 200.1,52.2 198.3,51.7 196.3,51.5 196.3,51.5 188.0,51.5 171.3,51.5 171.3,51.5 154.6,51.5 146.3,51.5 146.3,51.5 144.3,51.7 142.5,52.2 140.8,53.1 139.2,54.4 139.2,54.4 137.6,56.5 136.6,58.9 136.3,61.5 136.3,61.5 136.3,76.1 136.3,111.5 136.3,111.5 136.3,146.9 136.3,161.5 136.3,161.5 136.6,164.1 137.6,166.5" fill-opacity="0" stroke="#404040" stroke-width="1.0" stroke-linecap="butt" stroke-linejoin="round" />
		<text x="34.3" y="122.2" text-anchor="middle" fill="#808080" font-size="33.2px" font-family="sans-serif">a</text>
		<text x="175.3" y="125.2" text-anchor="middle" fill="#808080" font-size="33.2px" font-family="sans-serif">b</text>
		<polygon points="76.3,121.5 136.3,121.5 136.3,100.5 76.3,100.5" fill="#C0C0C0" stroke="#404040" stroke-width="1.0" stroke-linecap="butt" stroke-linejoin="round" />
		<g id="axis" class="port">
			<polygon points="96.3,11.5 96.3,10.6 96.4,9.8 96.6,8.9 96.9,8.1 97.2,7.3 97.6,6.6 98.1,5.8 98.6,5.1 99.2,4.5 99.8,3.9 100.5,3.4 101.2,2.9 101.9,2.5 102.7,2.2 103.5,1.9 104.4,1.7 105.2,1.6 106.1,1.5 106.9,1.5 107.8,1.6 108.6,1.8 109.5,2.0 110.3,2.3 111.0,2.7 111.8,3.1 112.5,3.6 113.1,4.2 113.7,4.8 114.3,5.5 114.8,6.2 115.2,6.9 115.6,7.7 115.8,8.5 116.1,9.4 116.2,10.2 116.3,11.1 116.3,11.9 116.2,12.8 116.1,13.6 115.8,14.5 115.6,15.3 115.2,16.1 114.8,16.8 114.3,17.5 113.7,18.2 113.1,18.8 112.5,19.4 111.8,19.9 111.0,20.3 110.3,20.7 109.5,21.0 108.6,21.2 107.8,21.4 106.9,21.5 106.1,21.5 105.2,21.4 104.4,21.3 103.5,21.1 102.7,20.8 101.9,20.5 101.2,20.1 100.5,19.6 99.8,19.1 99.2,18.5 98.6,17.9 98.1,17.2 97.6,16.4 97.2,15.7 96.9,14.9 96.6,14.1 96.4,13.2 96.3,12.4" fill="#5F5F5F" stroke="#000000" stroke-width="1.0" stroke-linecap="butt" stroke-linejoin="round" />
		</g>
		<g id="support" class="port">
			<polygon points="56.3,11.5 56.3,10.6 56.2,9.8 56.0,8.9 55.7,8.1 55.4,7.3 55.0,6.6 54.5,5.8 54.0,5.1 53.4,4.5 52.8,3.9 52.1,3.4 51.4,2.9 50.7,2.5 49.9,2.2 49.1,1.9 48.2,1.7 47.4,1.6 46.5,1.5 45.7,1.5 44.8,1.6 44.0,1.8 43.1,2.0 42.3,2.3 41.6,2.7 40.8,3.1 40.1,3.6 39.5,4.2 38.9,4.8 38.3,5.5 37.8,6.2 37.4,6.9 37.0,7.7 36.8,8.5 36.5,9.4 36.4,10.2 36.3,11.1 36.3,11.9 36.4,12.8 36.5,13.6 36.8,14.5 37.0,15.3 37.4,16.1 37.8,16.8 38.3,17.5 38.9,18.2 39.5,18.8 40.1,19.4 40.8,19.9 41.6,20.3 42.3,20.7 43.1,21.0 44.0,21.2 44.8,21.4 45.7,21.5 46.5,21.5 47.4,21.4 48.2,21.3 49.1,21.1 49.9,20.8 50.7,20.5 51.4,20.1 52.1,19.6 52.8,19.1 53.4,18.5 54.0,17.9 54.5,17.2 55.0,16.4 55.4,15.7 55.7,14.9 56.0,14.1 56.2,13.2 56.3,12.4" fill="#FFFFFF" stroke="#000000" stroke-width="1.0" stroke-linecap="butt" stroke-linejoin="round" />
		</g>
		<g id="frame_a" class="port">
			<polygon points="4.7,113.1 7.9,113.1 7.9,109.9 4.7,109.9" fill-opacity="0" stroke="#5F5F5F" stroke-width="1.0" stroke-linecap="butt" stroke-linejoin="round" />
			<polygon points="1.5,127.5 11.1,127.5 11.1,95.5 1.5,95.5" fill="#C0C0C0" stroke="#000000" stroke-width="1.0" stroke-linecap="butt" stroke-linejoin="round" />
		</g>
		<g id="frame_b" class="port">
			<polygon points="204.7,113.1 207.9,113.1 207.9,109.9 204.7,109.9" fill-opacity="0" stroke="#5F5F5F" stroke-width="1.0" stroke-linecap="butt" stroke-linejoin="round" />
			<polygon points="201.5,127.5 211.1,127.5 211.1,95.5 201.5,95.5" fill="#FFFFFF" stroke="#000000" stroke-width="1.0" stroke-linecap="butt" stroke-linejoin="round" />
		</g>
	</g>
</svg>
