<svg width="233" height="243" xmlns="http://www.w3.org/2000/svg" xmlns:xlink="http://www.w3.org/1999/xlink">
	<g id="Modelica.Electrical.Analog.Basic.Potentiometer" class="component">
		<polygon points="51.5,131.5 191.5,131.5 191.5,71.5 51.5,71.5" fill="#FFFFFF" stroke="#0000FF" stroke-width="1.0" stroke-linecap="round" stroke-linejoin="round" />
		<polyline points="31.5,101.5 51.5,101.5" fill-opacity="0" stroke="#0000FF" stroke-width="1.0" stroke-linecap="round" stroke-linejoin="round" />
		<polyline points="191.5,101.5 211.5,101.5" fill-opacity="0" stroke="#0000FF" stroke-width="1.0" stroke-linecap="round" stroke-linejoin="round" />
		<polyline points="121.5,61.5 121.5,141.5 221.5,181.5 221.5,191.5" fill-opacity="0" stroke="#0000FF" stroke-width="1.0" stroke-linecap="round" stroke-linejoin="round" />
		<polygon points="121.5,131.5 117.5,141.5 125.5,141.5" fill="#0000FF" stroke="#0000FF" stroke-width="1.0" stroke-linecap="round" stroke-linejoin="round" />
		<g id="heatPort" class="port">
			<polygon points="111.5,211.5 131.5,211.5 131.5,191.5 111.5,191.5" fill="#BF0000" stroke="#BF0000" stroke-width="1.0" stroke-linecap="round" stroke-linejoin="round" />
		</g>
		<g id="pin_p" class="port">
			<polygon points="11.5,111.5 31.5,111.5 31.5,91.5 11.5,91.5" fill="#0000FF" stroke="#0000FF" stroke-width="1.0" stroke-linecap="round" stroke-linejoin="round" />
		</g>
		<g id="contact" class="port">
			<polygon points="211.5,211.5 231.5,211.5 231.5,191.5 211.5,191.5" fill="#0000FF" stroke="#0000FF" stroke-width="1.0" stroke-linecap="round" stroke-linejoin="round" />
		</g>
		<g id="pin_n" class="port">
			<polygon points="211.5,111.5 231.5,111.5 231.5,91.5 211.5,91.5" fill="#FFFFFF" stroke="#0000FF" stroke-width="1.0" stroke-linecap="round" stroke-linejoin="round" />
		</g>
		<g id="r" class="port">
			<polygon points="1.5,241.5 21.5,201.5 41.5,241.5" fill="#00007F" stroke="#00007F" stroke-width="1.0" stroke-linecap="round" stroke-linejoin="round" />
		</g>
	</g>
</svg>
