<svg width="223" height="213" xmlns="http://www.w3.org/2000/svg" xmlns:xlink="http://www.w3.org/1999/xlink">
	<g id="Modelica.Magnetic.FluxTubes.Shapes.HysteresisAndMagnets.GenericHystTellinenPermanentMagnet" class="component">
		<polyline points="41.5,101.5 11.5,101.5" fill-opacity="0" stroke="#FF8000" stroke-width="1.0" stroke-linecap="round" stroke-linejoin="round" />
		<polyline points="81.5,121.5 89.5,121.5 92.5,121.4 95.3,121.2 97.7,120.8 99.7,120.2 101.5,119.5 101.5,119.5 102.8,118.7 104.2,117.5 105.5,116.0 106.8,114.2 108.2,112.0 109.5,109.5 109.5,109.5 113.5,101.5 117.5,93.5 117.5,93.5 118.8,91.0 120.2,88.8 121.5,87.0 122.8,85.5 124.2,84.3 125.5,83.5 125.5,83.5 127.5,82.6 129.5,82.0 131.5,81.6 133.5,81.5 137.5,81.5" fill-opacity="0" stroke="#FF8000" stroke-width="1.0" stroke-linecap="round" stroke-linejoin="round" />
		<polyline points="137.5,81.5 129.5,81.5 126.5,81.6 123.7,81.8 121.3,82.2 119.3,82.8 117.5,83.5 117.5,83.5 115.9,84.5 114.3,86.1 112.7,88.1 111.1,90.5 109.5,93.5 109.5,93.5 105.5,101.5 101.5,109.5 101.5,109.5 100.2,112.0 98.8,114.2 97.5,116.0 96.2,117.5 94.8,118.7 93.5,119.5 93.5,119.5 91.5,120.4 89.5,121.0 87.5,121.4 85.5,121.5 81.5,121.5" fill-opacity="0" stroke="#FF8000" stroke-width="1.0" stroke-linecap="round" stroke-linejoin="round" />
		<polygon points="41.5,131.5 181.5,131.5 181.5,71.5 41.5,71.5" fill="#FFFFFF" stroke="#FF8000" stroke-width="1.0" stroke-linecap="round" stroke-linejoin="round" />
		<polyline points="181.5,101.5 211.5,101.5" fill-opacity="0" stroke="#FF8000" stroke-width="1.0" stroke-linecap="round" stroke-linejoin="round" />
		<polygon points="145.5,121.5 171.5,121.5 171.5,81.5 145.5,81.5" fill="#007F00" stroke="#007F00" stroke-width="1.0" stroke-linecap="round" stroke-linejoin="round" />
		<g class="transform" transform="rotate(-90.0 171.2 101.5)">
			<text x="171.2" y="101.5" text-anchor="middle" fill="#000000" font-size="33.2px" font-family="sans-serif" font-weight="bold">S</text>
		</g>
		<polyline points="73.5,121.5 90.5,121.5 95.1,121.5 99.2,121.3 102.7,121.1 105.7,120.8 108.2,120.5 110.1,120.0 111.5,119.5 111.5,119.5 112.8,118.7 114.2,117.5 115.5,116.0 116.8,114.2 118.2,112.0 119.5,109.5 119.5,109.5 123.5,101.5 127.5,93.5 127.5,93.5 128.8,91.0 130.2,88.8 131.5,87.0 132.8,85.5 134.2,84.3 135.5,83.5 135.5,83.5 137.5,82.6 139.5,82.0 141.5,81.6 143.5,81.5 147.5,81.5" fill-opacity="0" stroke="#FF8000" stroke-width="1.0" stroke-linecap="round" stroke-linejoin="round" />
		<polyline points="147.5,81.5 133.5,81.5 129.1,81.6 125.3,81.7 122.0,82.0 119.3,82.4 117.1,82.9 115.5,83.5 115.5,83.5 114.2,84.3 112.8,85.5 111.5,87.0 110.2,88.8 108.8,91.0 107.5,93.5 107.5,93.5 103.5,101.5 99.5,109.5 99.5,109.5 97.9,112.5 96.3,114.9 94.7,116.9 93.1,118.5 91.5,119.5 91.5,119.5 89.4,120.4 87.2,121.0 84.9,121.4 82.5,121.5 77.5,121.5" fill-opacity="0" stroke="#FF8000" stroke-width="1.0" stroke-linecap="round" stroke-linejoin="round" />
		<polyline points="11.5,101.5 41.5,101.5" fill-opacity="0" stroke="#FF8000" stroke-width="1.0" stroke-linecap="round" stroke-linejoin="round" />
		<polygon points="51.5,121.5 77.5,121.5 77.5,81.5 51.5,81.5" fill="#FF0000" stroke="#FF0000" stroke-width="1.0" stroke-linecap="round" stroke-linejoin="round" />
		<g class="transform" transform="rotate(-90.0 77.2 101.5)">
			<text x="77.2" y="101.5" text-anchor="middle" fill="#000000" font-size="33.2px" font-family="sans-serif" font-weight="bold">N</text>
		</g>
		<text x="133.5" y="119.4" text-anchor="middle" fill="#FF8000" font-size="23.9px" font-family="sans-serif">TH</text>
		<g id="port_p" class="port">
			<polygon points="1.5,111.5 21.5,111.5 21.5,91.5 1.5,91.5" fill="#FF7F00" stroke="#FF7F00" stroke-width="1.0" stroke-linecap="round" stroke-linejoin="round" />
		</g>
		<g id="port_n" class="port">
			<polygon points="201.5,111.5 221.5,111.5 221.5,91.5 201.5,91.5" fill="#FFFFFF" stroke="#FF7F00" stroke-width="1.0" stroke-linecap="round" stroke-linejoin="round" />
		</g>
		<g id="heatPort" class="port">
			<polygon points="101.5,211.5 121.5,211.5 121.5,191.5 101.5,191.5" fill="#BF0000" stroke="#BF0000" stroke-width="1.0" stroke-linecap="round" stroke-linejoin="round" />
		</g>
	</g>
</svg>
