<svg width="218" height="213" xmlns="http://www.w3.org/2000/svg" xmlns:xlink="http://www.w3.org/1999/xlink">
	<g id="Modelica.Mechanics.MultiBody.Forces.SpringDamperParallel" class="component">
		<polyline points="31.5,61.5 51.5,61.5 66.5,91.5 96.5,31.5 126.5,91.5 156.5,31.5 171.5,61.5 191.5,61.5" fill-opacity="0" stroke="#000000" stroke-width="1.0" stroke-linecap="round" stroke-linejoin="round" />
		<polyline points="31.5,61.5 31.5,171.5" fill-opacity="0" stroke="#000000" stroke-width="1.0" stroke-linecap="round" stroke-linejoin="round" />
		<polyline points="31.5,171.5 59.5,171.5" fill-opacity="0" stroke="#000000" stroke-width="1.0" stroke-linecap="round" stroke-linejoin="round" />
		<polygon points="59.5,201.5 149.5,201.5 149.5,141.5 59.5,141.5" fill="#C0C0C0" stroke="#000000" stroke-width="1.0" stroke-linecap="round" stroke-linejoin="round" />
		<polyline points="59.5,141.5 179.5,141.5" fill-opacity="0" stroke="#000000" stroke-width="1.0" stroke-linecap="round" stroke-linejoin="round" />
		<polyline points="59.5,201.5 179.5,201.5" fill-opacity="0" stroke="#000000" stroke-width="1.0" stroke-linecap="round" stroke-linejoin="round" />
		<polyline points="149.5,171.5 191.5,171.5" fill-opacity="0" stroke="#000000" stroke-width="1.0" stroke-linecap="round" stroke-linejoin="round" />
		<polyline points="191.5,61.5 191.5,171.5" fill-opacity="0" stroke="#000000" stroke-width="1.0" stroke-linecap="round" stroke-linejoin="round" />
		<polyline points="11.5,101.5 31.5,101.5" fill-opacity="0" stroke="#000000" stroke-width="1.0" stroke-linecap="round" stroke-linejoin="round" />
		<polyline points="191.5,101.5 211.5,101.5" fill-opacity="0" stroke="#000000" stroke-width="1.0" stroke-linecap="round" stroke-linejoin="round" />
		<g id="frame_a" class="port">
			<polygon points="9.9,103.1 13.1,103.1 13.1,99.9 9.9,99.9" fill-opacity="0" stroke="#5F5F5F" stroke-width="1.0" stroke-linecap="round" stroke-linejoin="round" />
			<polygon points="6.7,117.5 16.3,117.5 16.3,85.5 6.7,85.5" fill="#C0C0C0" stroke="#000000" stroke-width="1.0" stroke-linecap="round" stroke-linejoin="round" />
		</g>
		<g id="frame_b" class="port">
			<polygon points="209.9,103.1 213.1,103.1 213.1,99.9 209.9,99.9" fill-opacity="0" stroke="#5F5F5F" stroke-width="1.0" stroke-linecap="round" stroke-linejoin="round" />
			<polygon points="206.7,117.5 216.3,117.5 216.3,85.5 206.7,85.5" fill="#FFFFFF" stroke="#000000" stroke-width="1.0" stroke-linecap="round" stroke-linejoin="round" />
		</g>
		<g id="heatPort" class="port">
			<polygon points="1.5,211.5 21.5,211.5 21.5,191.5 1.5,191.5" fill="#BF0000" stroke="#BF0000" stroke-width="1.0" stroke-linecap="round" stroke-linejoin="round" />
		</g>
	</g>
</svg>
