<svg width="228" height="223" xmlns="http://www.w3.org/2000/svg" xmlns:xlink="http://www.w3.org/1999/xlink">
	<g id="Modelica.Electrical.Analog.Basic.EMF" class="component">
		<defs>
			<linearGradient id="cyl2" x1="0" y1="0" x2="0" y2="1">
				<stop offset="0%" stop-color="#000000" />
				<stop offset="5%" stop-color="#242424" />
				<stop offset="10%" stop-color="#454545" />
				<stop offset="15%" stop-color="#626262" />
				<stop offset="20%" stop-color="#7B7B7B" />
				<stop offset="25%" stop-color="#909090" />
				<stop offset="30%" stop-color="#A1A1A1" />
				<stop offset="35%" stop-color="#AFAFAF" />
				<stop offset="40%" stop-color="#B8B8B8" />
				<stop offset="45%" stop-color="#BEBEBE" />
				<stop offset="50%" stop-color="#C0C0C0" />
				<stop offset="55%" stop-color="#BEBEBE" />
				<stop offset="60%" stop-color="#B8B8B8" />
				<stop offset="65%" stop-color="#AFAFAF" />
				<stop offset="70%" stop-color="#A1A1A1" />
				<stop offset="75%" stop-color="#909090" />
				<stop offset="80%" stop-color="#7B7B7B" />
				<stop offset="85%" stop-color="#626262" />
				<stop offset="90%" stop-color="#454545" />
				<stop offset="95%" stop-color="#242424" />
				<stop offset="100%" stop-color="#000000" />
			</linearGradient>
		</defs>
		<polygon points="31.5,121.5 80.5,121.5 80.5,101.5 31.5,101.5" fill="url(#cyl2)" stroke="#000000" stroke-width="1.0" stroke-linecap="round" stroke-linejoin="round" />
		<defs>
			<linearGradient id="cyl3" x1="0" y1="0" x2="0" y2="1">
				<stop offset="0%" stop-color="#000000" />
				<stop offset="5%" stop-color="#242424" />
				<stop offset="10%" stop-color="#454545" />
				<stop offset="15%" stop-color="#626262" />
				<stop offset="20%" stop-color="#7B7B7B" />
				<stop offset="25%" stop-color="#909090" />
				<stop offset="30%" stop-color="#A1A1A1" />
				<stop offset="35%" stop-color="#AFAFAF" />
				<stop offset="40%" stop-color="#B8B8B8" />
				<stop offset="45%" stop-color="#BEBEBE" />
				<stop offset="50%" stop-color="#C0C0C0" />
				<stop offset="55%" stop-color="#BEBEBE" />
				<stop offset="60%" stop-color="#B8B8B8" />
				<stop offset="65%" stop-color="#AFAFAF" />
				<stop offset="70%" stop-color="#A1A1A1" />
				<stop offset="75%" stop-color="#909090" />
				<stop offset="80%" stop-color="#7B7B7B" />
				<stop offset="85%" stop-color="#626262" />
				<stop offset="90%" stop-color="#454545" />
				<stop offset="95%" stop-color="#242424" />
				<stop offset="100%" stop-color="#000000" />
			</linearGradient>
		</defs>
		<polygon points="151.5,121.5 216.5,121.5 216.5,101.5 151.5,101.5" fill="url(#cyl3)" stroke="#000000" stroke-width="1.0" stroke-linecap="round" stroke-linejoin="round" />
		<polygon points="156.5,111.5 156.4,108.1 155.9,104.6 155.2,101.3 154.2,98.0 152.9,94.8 151.3,91.7 149.5,88.8 147.4,86.1 145.1,83.5 142.6,81.2 139.9,79.0 137.0,77.1 134.0,75.5 130.8,74.1 127.5,73.1 124.2,72.2 120.8,71.7 117.4,71.5 113.9,71.6 110.5,72.0 107.1,72.6 103.8,73.6 100.6,74.8 97.5,76.3 94.5,78.1 91.8,80.1 89.1,82.3 86.7,84.8 84.5,87.4 82.6,90.3 80.9,93.3 79.5,96.4 78.3,99.6 77.4,103.0 76.8,106.4 76.5,109.8 76.5,113.2 76.8,116.6 77.4,120.0 78.3,123.4 79.5,126.6 80.9,129.7 82.6,132.7 84.5,135.6 86.7,138.2 89.1,140.7 91.8,142.9 94.5,144.9 97.5,146.7 100.6,148.2 103.8,149.4 107.1,150.4 110.5,151.0 113.9,151.4 117.4,151.5 120.8,151.3 124.2,150.8 127.5,149.9 130.8,148.9 134.0,147.5 137.0,145.9 139.9,144.0 142.6,141.8 145.1,139.5 147.4,136.9 149.5,134.2 151.3,131.3 152.9,128.2 154.2,125.0 155.2,121.7 155.9,118.4 156.4,114.9" fill="#FFFFFF" stroke="#0000FF" stroke-width="1.0" stroke-linecap="round" stroke-linejoin="round" />
		<polyline points="16.5,141.5 76.5,141.5" fill-opacity="0" stroke="#000000" stroke-width="1.0" stroke-linecap="round" stroke-linejoin="round" />
		<polyline points="16.5,161.5 36.5,141.5" fill-opacity="0" stroke="#000000" stroke-width="1.0" stroke-linecap="round" stroke-linejoin="round" />
		<polyline points="36.5,161.5 56.5,141.5" fill-opacity="0" stroke="#000000" stroke-width="1.0" stroke-linecap="round" stroke-linejoin="round" />
		<polyline points="56.5,161.5 76.5,141.5" fill-opacity="0" stroke="#000000" stroke-width="1.0" stroke-linecap="round" stroke-linejoin="round" />
		<polyline points="46.5,141.5 46.5,121.5" fill-opacity="0" stroke="#000000" stroke-width="1.0" stroke-linecap="round" stroke-linejoin="round" />
		<polyline points="116.5,71.5 116.5,61.5" fill-opacity="0" stroke="#0000FF" stroke-width="1.0" stroke-linecap="round" stroke-linejoin="round" />
		<polyline points="116.5,161.5 116.5,151.5" fill-opacity="0" stroke="#0000FF" stroke-width="1.0" stroke-linecap="round" stroke-linejoin="round" />
		<g id="p" class="port">
			<polygon points="126.5,21.5 126.5,1.5 106.5,1.5 106.5,21.5" fill="#0000FF" stroke="#0000FF" stroke-width="1.0" stroke-linecap="round" stroke-linejoin="round" />
		</g>
		<g id="n" class="port">
			<polygon points="126.5,221.5 126.5,201.5 106.5,201.5 106.5,221.5" fill="#FFFFFF" stroke="#0000FF" stroke-width="1.0" stroke-linecap="round" stroke-linejoin="round" />
		</g>
		<g id="flange" class="port">
			<polygon points="226.5,111.5 226.5,110.6 226.4,109.8 226.2,108.9 225.9,108.1 225.6,107.3 225.2,106.6 224.7,105.8 224.2,105.1 223.6,104.5 223.0,103.9 222.3,103.4 221.6,102.9 220.9,102.5 220.1,102.2 219.3,101.9 218.4,101.7 217.6,101.6 216.7,101.5 215.9,101.5 215.0,101.6 214.2,101.8 213.3,102.0 212.5,102.3 211.8,102.7 211.0,103.1 210.3,103.6 209.7,104.2 209.1,104.8 208.5,105.5 208.0,106.2 207.6,106.9 207.2,107.7 207.0,108.5 206.7,109.4 206.6,110.2 206.5,111.1 206.5,111.9 206.6,112.8 206.7,113.6 207.0,114.5 207.2,115.3 207.6,116.1 208.0,116.8 208.5,117.5 209.1,118.2 209.7,118.8 210.3,119.4 211.0,119.9 211.8,120.3 212.5,120.7 213.3,121.0 214.2,121.2 215.0,121.4 215.9,121.5 216.7,121.5 217.6,121.4 218.4,121.3 219.3,121.1 220.1,120.8 220.9,120.5 221.6,120.1 222.3,119.6 223.0,119.1 223.6,118.5 224.2,117.9 224.7,117.2 225.2,116.4 225.6,115.7 225.9,114.9 226.2,114.1 226.4,113.2 226.5,112.4" fill="#FFFFFF" stroke="#000000" stroke-width="1.0" stroke-linecap="round" stroke-linejoin="round" />
		</g>
		<g id="support" class="port">
			<polygon points="26.5,111.5 26.5,110.6 26.4,109.8 26.2,108.9 25.9,108.1 25.6,107.3 25.2,106.6 24.7,105.8 24.2,105.1 23.6,104.5 23.0,103.9 22.3,103.4 21.6,102.9 20.9,102.5 20.1,102.2 19.3,101.9 18.4,101.7 17.6,101.6 16.7,101.5 15.9,101.5 15.0,101.6 14.2,101.8 13.3,102.0 12.5,102.3 11.8,102.7 11.0,103.1 10.3,103.6 9.7,104.2 9.1,104.8 8.5,105.5 8.0,106.2 7.6,106.9 7.2,107.7 7.0,108.5 6.7,109.4 6.6,110.2 6.5,111.1 6.5,111.9 6.6,112.8 6.7,113.6 7.0,114.5 7.2,115.3 7.6,116.1 8.0,116.8 8.5,117.5 9.1,118.2 9.7,118.8 10.3,119.4 11.0,119.9 11.8,120.3 12.5,120.7 13.3,121.0 14.2,121.2 15.0,121.4 15.9,121.5 16.7,121.5 17.6,121.4 18.4,121.3 19.3,121.1 20.1,120.8 20.9,120.5 21.6,120.1 22.3,119.6 23.0,119.1 23.6,118.5 24.2,117.9 24.7,117.2 25.2,116.4 25.6,115.7 25.9,114.9 26.2,114.1 26.4,113.2 26.5,112.4" fill="#5F5F5F" stroke="#000000" stroke-width="1.0" stroke-linecap="round" stroke-linejoin="round" />
			<polygon points="1.5,126.5 31.5,126.5 31.5,96.5 1.5,96.5" fill="#C0C0C0" stroke="#C0C0C0" stroke-width="1.0" stroke-linecap="round" stroke-linejoin="round" />
			<polygon points="26.5,111.5 26.5,110.6 26.4,109.8 26.2,108.9 25.9,108.1 25.6,107.3 25.2,106.6 24.7,105.8 24.2,105.1 23.6,104.5 23.0,103.9 22.3,103.4 21.6,102.9 20.9,102.5 20.1,102.2 19.3,101.9 18.4,101.7 17.6,101.6 16.7,101.5 15.9,101.5 15.0,101.6 14.2,101.8 13.3,102.0 12.5,102.3 11.8,102.7 11.0,103.1 10.3,103.6 9.7,104.2 9.1,104.8 8.5,105.5 8.0,106.2 7.6,106.9 7.2,107.7 7.0,108.5 6.7,109.4 6.6,110.2 6.5,111.1 6.5,111.9 6.6,112.8 6.7,113.6 7.0,114.5 7.2,115.3 7.6,116.1 8.0,116.8 8.5,117.5 9.1,118.2 9.7,118.8 10.3,119.4 11.0,119.9 11.8,120.3 12.5,120.7 13.3,121.0 14.2,121.2 15.0,121.4 15.9,121.5 16.7,121.5 17.6,121.4 18.4,121.3 19.3,121.1 20.1,120.8 20.9,120.5 21.6,120.1 22.3,119.6 23.0,119.1 23.6,118.5 24.2,117.9 24.7,117.2 25.2,116.4 25.6,115.7 25.9,114.9 26.2,114.1 26.4,113.2 26.5,112.4" fill="#5F5F5F" stroke="#000000" stroke-width="1.0" stroke-linecap="round" stroke-linejoin="round" />
		</g>
	</g>
</svg>
