<svg width="223" height="223" xmlns="http://www.w3.org/2000/svg" xmlns:xlink="http://www.w3.org/1999/xlink">
	<g id="Modelica.Electrical.Analog.Basic.Gyrator" class="component">
		<polygon points="31.5,191.5 191.5,191.5 191.5,31.5 31.5,31.5" fill="#FFFFFF" stroke="#0000FF" stroke-width="1.0" stroke-linecap="round" stroke-linejoin="round" />
		<polyline points="71.5,81.5 151.5,81.5" fill-opacity="0" stroke="#0000FF" stroke-width="1.0" stroke-linecap="round" stroke-linejoin="round" />
		<polyline points="91.5,141.5 131.5,141.5" fill-opacity="0" stroke="#0000FF" stroke-width="1.0" stroke-linecap="round" stroke-linejoin="round" />
		<polygon points="141.5,77.5 151.5,81.5 141.5,85.5" fill="#0000FF" stroke="#0000FF" stroke-width="1.0" stroke-linecap="round" stroke-linejoin="round" />
		<polyline points="106.5,101.5 101.5,121.5" fill-opacity="0" stroke="#000000" stroke-width="1.0" stroke-linecap="round" stroke-linejoin="round" />
		<polyline points="120.5,101.5 115.5,120.5" fill-opacity="0" stroke="#000000" stroke-width="1.0" stroke-linecap="round" stroke-linejoin="round" />
		<polyline points="99.5,101.5 127.5,101.5" fill-opacity="0" stroke="#000000" stroke-width="1.0" stroke-linecap="round" stroke-linejoin="round" />
		<text x="112.0" y="71.1" text-anchor="middle" fill="#000000" font-size="38.5px" font-family="sans-serif">G1</text>
		<text x="111.5" y="179.1" text-anchor="middle" fill="#000000" font-size="38.5px" font-family="sans-serif">G2</text>
		<polygon points="101.5,137.5 91.5,141.5 101.5,145.5" fill="#0000FF" stroke="#0000FF" stroke-width="1.0" stroke-linecap="round" stroke-linejoin="round" />
		<polyline points="11.5,11.5 71.5,11.5 71.5,51.5" fill-opacity="0" stroke="#0000FF" stroke-width="1.0" stroke-linecap="round" stroke-linejoin="round" />
		<polyline points="211.5,11.5 151.5,11.5 151.5,51.5" fill-opacity="0" stroke="#0000FF" stroke-width="1.0" stroke-linecap="round" stroke-linejoin="round" />
		<polyline points="11.5,211.5 71.5,211.5 71.5,171.5" fill-opacity="0" stroke="#0000FF" stroke-width="1.0" stroke-linecap="round" stroke-linejoin="round" />
		<polyline points="211.5,211.5 151.5,211.5 151.5,171.5" fill-opacity="0" stroke="#0000FF" stroke-width="1.0" stroke-linecap="round" stroke-linejoin="round" />
		<g id="p1" class="port">
			<polygon points="1.5,21.5 21.5,21.5 21.5,1.5 1.5,1.5" fill="#0000FF" stroke="#0000FF" stroke-width="1.0" stroke-linecap="round" stroke-linejoin="round" />
		</g>
		<g id="n1" class="port">
			<polygon points="21.5,221.5 1.5,221.5 1.5,201.5 21.5,201.5" fill="#FFFFFF" stroke="#0000FF" stroke-width="1.0" stroke-linecap="round" stroke-linejoin="round" />
		</g>
		<g id="p2" class="port">
			<polygon points="221.5,21.5 201.5,21.5 201.5,1.5 221.5,1.5" fill="#0000FF" stroke="#0000FF" stroke-width="1.0" stroke-linecap="round" stroke-linejoin="round" />
		</g>
		<g id="n2" class="port">
			<polygon points="201.5,221.5 221.5,221.5 221.5,201.5 201.5,201.5" fill="#FFFFFF" stroke="#0000FF" stroke-width="1.0" stroke-linecap="round" stroke-linejoin="round" />
		</g>
	</g>
</svg>
