<svg width="207" height="207" xmlns="http://www.w3.org/2000/svg" xmlns:xlink="http://www.w3.org/1999/xlink">
	<g id="Modelica.Icons.Info" class="component">
		<polygon points="1.5,205.5 205.5,205.5 205.5,1.5 1.5,1.5" fill-opacity="0" stroke="#FF0000" stroke-dasharray="3 4" stroke-width="1.0" stroke-linecap="butt" stroke-linejoin="round" />
		<polygon points="203.5,103.5 203.1,94.9 202.0,86.4 200.2,78.0 197.6,69.7 194.4,61.8 190.5,54.1 185.9,46.8 180.7,40.0 175.0,33.6 168.7,27.7 161.9,22.3 154.7,17.6 147.2,13.5 139.3,10.1 131.1,7.4 122.7,5.4 114.2,4.1 105.7,3.5 97.0,3.7 88.5,4.6 80.1,6.3 71.8,8.7 63.7,11.7 56.0,15.5 48.6,19.9 41.6,24.9 35.1,30.5 29.1,36.7 23.6,43.3 18.7,50.4 14.5,57.9 10.9,65.7 8.0,73.8 5.8,82.1 4.3,90.6 3.6,99.2 3.6,107.8 4.3,116.4 5.8,124.9 8.0,133.2 10.9,141.3 14.5,149.1 18.7,156.6 23.6,163.7 29.1,170.3 35.1,176.5 41.6,182.1 48.6,187.1 56.0,191.5 63.7,195.3 71.8,198.3 80.1,200.7 88.5,202.4 97.0,203.3 105.7,203.5 114.2,202.9 122.7,201.6 131.1,199.6 139.3,196.9 147.2,193.5 154.7,189.4 161.9,184.7 168.7,179.3 175.0,173.4 180.7,167.0 185.9,160.2 190.5,152.9 194.4,145.2 197.6,137.3 200.2,129.0 202.0,120.6 203.1,112.1" fill="#4B8A49" stroke-opacity="0" stroke-width="1.0" stroke-linecap="butt" stroke-linejoin="round" />
		<polygon points="88.5,98.5 86.3,98.2 84.8,97.2 83.8,95.7 83.5,93.5 83.5,93.5 83.8,92.1 84.7,90.6 86.3,89.2 88.4,87.8 91.2,86.4 94.5,84.9 98.5,83.5 98.5,83.5 102.6,82.4 106.3,81.9 109.5,82.0 112.4,82.7 114.8,84.0 116.9,85.9 118.5,88.5 118.5,88.5 119.3,90.4 119.8,92.6 120.1,95.1 120.2,97.8 119.9,100.7 119.5,103.9 118.8,107.3 117.8,111.0 116.6,114.9 115.2,119.1 113.5,123.5 113.5,123.5 111.5,128.7 109.8,133.4 108.5,137.4 107.6,140.8 107.0,143.6 106.8,145.7 107.0,147.3 107.6,148.2 108.5,148.5 108.5,148.5 113.5,148.5 118.5,148.5 118.5,148.5 120.7,148.8 122.2,149.8 123.2,151.3 123.5,153.5 123.5,153.5 123.2,154.9 122.3,156.4 120.7,157.8 118.6,159.2 115.8,160.6 112.5,162.1 108.5,163.5 108.5,163.5 104.4,164.6 100.7,165.1 97.5,165.0 94.6,164.3 92.2,163.0 90.1,161.1 88.5,158.5 88.5,158.5 87.7,156.6 87.2,154.4 86.9,151.9 86.8,149.2 87.1,146.3 87.5,143.1 88.2,139.7 89.2,136.0 90.4,132.1 91.8,127.9 93.5,123.5 93.5,123.5 95.5,118.3 97.2,113.6 98.5,109.6 99.4,106.2 100.0,103.4 100.2,101.3 100.0,99.7 99.4,98.8 98.5,98.5 98.5,98.5 93.5,98.5" fill="#FFFFFF" stroke-opacity="0" stroke-width="1.0" stroke-linecap="butt" stroke-linejoin="round" />
		<polygon points="123.5,47.0 123.5,45.9 123.3,44.9 123.1,43.8 122.8,42.8 122.4,41.8 121.9,40.8 121.3,39.9 120.7,39.1 119.9,38.3 119.1,37.5 118.3,36.9 117.4,36.3 116.5,35.8 115.5,35.3 114.5,35.0 113.4,34.7 112.3,34.6 111.3,34.5 110.2,34.5 109.1,34.6 108.1,34.8 107.0,35.1 106.0,35.5 105.1,36.0 104.1,36.6 103.3,37.2 102.5,37.9 101.7,38.6 101.0,39.5 100.4,40.4 99.9,41.3 99.4,42.3 99.1,43.3 98.8,44.3 98.6,45.4 98.5,46.5 98.5,47.5 98.6,48.6 98.8,49.7 99.1,50.7 99.4,51.7 99.9,52.7 100.4,53.6 101.0,54.5 101.7,55.4 102.5,56.1 103.3,56.8 104.1,57.4 105.1,58.0 106.0,58.5 107.0,58.9 108.1,59.2 109.1,59.4 110.2,59.5 111.3,59.5 112.3,59.4 113.4,59.3 114.5,59.0 115.5,58.7 116.5,58.2 117.4,57.7 118.3,57.1 119.1,56.5 119.9,55.7 120.7,54.9 121.3,54.1 121.9,53.2 122.4,52.2 122.8,51.2 123.1,50.2 123.3,49.1 123.5,48.1" fill="#FFFFFF" stroke-opacity="0" stroke-width="1.0" stroke-linecap="butt" stroke-linejoin="round" />
	</g>
</svg>
