<svg width="223" height="223" xmlns="http://www.w3.org/2000/svg" xmlns:xlink="http://www.w3.org/1999/xlink">
	<g id="Modelica.Magnetic.QuasiStatic.FundamentalWave.BasicMachines.Components.QuasiStaticAnalogWinding" class="component">
		<polyline points="211.5,211.5 205.5,211.5 195.5,209.5 187.5,205.5 175.5,197.5 161.5,183.5 153.5,169.5 147.5,151.5 141.5,129.5 141.5,111.5 141.5,93.5 145.5,75.5 157.5,45.5 173.5,27.5 189.5,15.5 201.5,11.5 211.5,11.5" fill-opacity="0" stroke="#FFAA55" stroke-width="1.0" stroke-linecap="butt" stroke-linejoin="round" />
		<polyline points="151.5,51.5 11.5,51.5 11.5,11.5" fill-opacity="0" stroke="#0000FF" stroke-width="1.0" stroke-linecap="butt" stroke-linejoin="round" />
		<polyline points="151.5,171.5 11.5,171.5 11.5,209.5" fill-opacity="0" stroke="#0000FF" stroke-width="1.0" stroke-linecap="butt" stroke-linejoin="round" />
		<polyline points="151.5,51.5 211.5,91.5 151.5,131.5 111.5,131.5 71.5,111.5 111.5,91.5 151.5,91.5 211.5,131.5 151.5,171.5" fill-opacity="0" stroke="#0000FF" stroke-width="1.0" stroke-linecap="butt" stroke-linejoin="round" />
		<g id="pin_p" class="port">
			<polygon points="21.5,1.5 1.5,1.5 1.5,21.5 21.5,21.5" fill="#0000FF" stroke="#0000FF" stroke-width="1.0" stroke-linecap="butt" stroke-linejoin="round" />
		</g>
		<g id="pin_n" class="port">
			<polygon points="21.5,201.5 1.5,201.5 1.5,221.5 21.5,221.5" fill="#FFFFFF" stroke="#0000FF" stroke-width="1.0" stroke-linecap="butt" stroke-linejoin="round" />
		</g>
		<g id="port_n" class="port">
			<polygon points="221.5,211.5 221.5,210.6 221.4,209.8 221.2,208.9 220.9,208.1 220.6,207.3 220.2,206.6 219.7,205.8 219.2,205.1 218.6,204.5 218.0,203.9 217.3,203.4 216.6,202.9 215.9,202.5 215.1,202.2 214.3,201.9 213.4,201.7 212.6,201.6 211.7,201.5 210.9,201.5 210.0,201.6 209.2,201.8 208.3,202.0 207.5,202.3 206.8,202.7 206.0,203.1 205.3,203.6 204.7,204.2 204.1,204.8 203.5,205.5 203.0,206.2 202.6,206.9 202.2,207.7 202.0,208.5 201.7,209.4 201.6,210.2 201.5,211.1 201.5,211.9 201.6,212.8 201.7,213.6 202.0,214.5 202.2,215.3 202.6,216.1 203.0,216.8 203.5,217.5 204.1,218.2 204.7,218.8 205.3,219.4 206.0,219.9 206.8,220.3 207.5,220.7 208.3,221.0 209.2,221.2 210.0,221.4 210.9,221.5 211.7,221.5 212.6,221.4 213.4,221.3 214.3,221.1 215.1,220.8 215.9,220.5 216.6,220.1 217.3,219.6 218.0,219.1 218.6,218.5 219.2,217.9 219.7,217.2 220.2,216.4 220.6,215.7 220.9,214.9 221.2,214.1 221.4,213.2 221.5,212.4" fill="#FFFFFF" stroke="#FFAA55" stroke-width="1.0" stroke-linecap="butt" stroke-linejoin="round" />
		</g>
		<g id="port_p" class="port">
			<polygon points="221.5,11.5 221.5,10.6 221.4,9.8 221.2,8.9 220.9,8.1 220.6,7.3 220.2,6.6 219.7,5.8 219.2,5.1 218.6,4.5 218.0,3.9 217.3,3.4 216.6,2.9 215.9,2.5 215.1,2.2 214.3,1.9 213.4,1.7 212.6,1.6 211.7,1.5 210.9,1.5 210.0,1.6 209.2,1.8 208.3,2.0 207.5,2.3 206.8,2.7 206.0,3.1 205.3,3.6 204.7,4.2 204.1,4.8 203.5,5.5 203.0,6.2 202.6,6.9 202.2,7.7 202.0,8.5 201.7,9.4 201.6,10.2 201.5,11.1 201.5,11.9 201.6,12.8 201.7,13.6 202.0,14.5 202.2,15.3 202.6,16.1 203.0,16.8 203.5,17.5 204.1,18.2 204.7,18.8 205.3,19.4 206.0,19.9 206.8,20.3 207.5,20.7 208.3,21.0 209.2,21.2 210.0,21.4 210.9,21.5 211.7,21.5 212.6,21.4 213.4,21.3 214.3,21.1 215.1,20.8 215.9,20.5 216.6,20.1 217.3,19.6 218.0,19.1 218.6,18.5 219.2,17.9 219.7,17.2 220.2,16.4 220.6,15.7 220.9,14.9 221.2,14.1 221.4,13.2 221.5,12.4" fill="#FFAA55" stroke="#FFAA55" stroke-width="1.0" stroke-linecap="butt" stroke-linejoin="round" />
		</g>
		<g id="heatPortWinding" class="port">
			<polygon points="101.5,221.5 121.5,221.5 121.5,201.5 101.5,201.5" fill="#BF0000" stroke="#BF0000" stroke-width="1.0" stroke-linecap="butt" stroke-linejoin="round" />
		</g>
	</g>
</svg>
