<svg width="207" height="207" xmlns="http://www.w3.org/2000/svg" xmlns:xlink="http://www.w3.org/1999/xlink">
	<g id="Modelica.Fluid.Icons.BaseClassLibrary" class="component">
		<defs>
			<linearGradient id="cyl2" x1="0" y1="0" x2="0" y2="1">
				<stop offset="0%" stop-color="#C8C8C8" />
				<stop offset="5%" stop-color="#D1D1D1" />
				<stop offset="10%" stop-color="#D9D9D9" />
				<stop offset="15%" stop-color="#E0E0E0" />
				<stop offset="20%" stop-color="#E7E7E7" />
				<stop offset="25%" stop-color="#ECECEC" />
				<stop offset="30%" stop-color="#F0F0F0" />
				<stop offset="35%" stop-color="#F4F4F4" />
				<stop offset="40%" stop-color="#F6F6F6" />
				<stop offset="45%" stop-color="#F8F8F8" />
				<stop offset="50%" stop-color="#F8F8F8" />
				<stop offset="55%" stop-color="#F8F8F8" />
				<stop offset="60%" stop-color="#F6F6F6" />
				<stop offset="65%" stop-color="#F4F4F4" />
				<stop offset="70%" stop-color="#F0F0F0" />
				<stop offset="75%" stop-color="#ECECEC" />
				<stop offset="80%" stop-color="#E7E7E7" />
				<stop offset="85%" stop-color="#E0E0E0" />
				<stop offset="90%" stop-color="#D9D9D9" />
				<stop offset="95%" stop-color="#D1D1D1" />
				<stop offset="100%" stop-color="#C8C8C8" />
			</linearGradient>
		</defs>
		<polygon points="10.8,196.2 13.0,198.1 15.3,199.8 17.7,201.1 20.2,202.2 22.8,202.9 25.6,203.4 28.5,203.5 28.5,203.5 52.4,203.5 103.5,203.5 103.5,203.5 154.6,203.5 178.5,203.5 178.5,203.5 181.4,203.4 184.2,202.9 186.8,202.2 189.3,201.1 191.7,199.8 194.0,198.1 196.2,196.2 196.2,196.2 198.1,194.0 199.8,191.7 201.1,189.3 202.2,186.8 202.9,184.2 203.4,181.4 203.5,178.5 203.5,178.5 203.5,154.6 203.5,103.5 203.5,103.5 203.5,52.4 203.5,28.5 203.5,28.5 203.4,25.6 202.9,22.8 202.2,20.2 201.1,17.7 199.8,15.3 198.1,13.0 196.2,10.8 196.2,10.8 194.0,8.9 191.7,7.2 189.3,5.9 186.8,4.8 184.2,4.1 181.4,3.6 178.5,3.5 178.5,3.5 154.6,3.5 103.5,3.5 103.5,3.5 52.4,3.5 28.5,3.5 28.5,3.5 25.6,3.6 22.8,4.1 20.2,4.8 17.7,5.9 15.3,7.2 13.0,8.9 10.8,10.8 10.8,10.8 8.9,13.0 7.2,15.3 5.9,17.7 4.8,20.2 4.1,22.8 3.6,25.6 3.5,28.5 3.5,28.5 3.5,52.4 3.5,103.5 3.5,103.5 3.5,154.6 3.5,178.5 3.5,178.5 3.6,181.4 4.1,184.2 4.8,186.8 5.9,189.3 7.2,191.7 8.9,194.0" fill="url(#cyl2)" stroke="#C8C8C8" stroke-width="1.0" stroke-linecap="butt" stroke-linejoin="round" />
		<polygon points="10.8,196.2 13.0,198.1 15.3,199.8 17.7,201.1 20.2,202.2 22.8,202.9 25.6,203.4 28.5,203.5 28.5,203.5 52.4,203.5 103.5,203.5 103.5,203.5 154.6,203.5 178.5,203.5 178.5,203.5 181.4,203.4 184.2,202.9 186.8,202.2 189.3,201.1 191.7,199.8 194.0,198.1 196.2,196.2 196.2,196.2 198.1,194.0 199.8,191.7 201.1,189.3 202.2,186.8 202.9,184.2 203.4,181.4 203.5,178.5 203.5,178.5 203.5,154.6 203.5,103.5 203.5,103.5 203.5,52.4 203.5,28.5 203.5,28.5 203.4,25.6 202.9,22.8 202.2,20.2 201.1,17.7 199.8,15.3 198.1,13.0 196.2,10.8 196.2,10.8 194.0,8.9 191.7,7.2 189.3,5.9 186.8,4.8 184.2,4.1 181.4,3.6 178.5,3.5 178.5,3.5 154.6,3.5 103.5,3.5 103.5,3.5 52.4,3.5 28.5,3.5 28.5,3.5 25.6,3.6 22.8,4.1 20.2,4.8 17.7,5.9 15.3,7.2 13.0,8.9 10.8,10.8 10.8,10.8 8.9,13.0 7.2,15.3 5.9,17.7 4.8,20.2 4.1,22.8 3.6,25.6 3.5,28.5 3.5,28.5 3.5,52.4 3.5,103.5 3.5,103.5 3.5,154.6 3.5,178.5 3.5,178.5 3.6,181.4 4.1,184.2 4.8,186.8 5.9,189.3 7.2,191.7 8.9,194.0" fill-opacity="0" stroke="#808080" stroke-width="1.0" stroke-linecap="butt" stroke-linejoin="round" />
		<polygon points="133.5,103.5 133.4,100.9 133.1,98.4 132.5,95.8 131.7,93.4 130.8,91.0 129.6,88.7 128.2,86.5 126.7,84.4 124.9,82.5 123.1,80.8 121.0,79.2 118.9,77.7 116.6,76.5 114.2,75.5 111.8,74.7 109.3,74.1 106.7,73.7 104.1,73.5 101.6,73.6 99.0,73.8 96.5,74.3 94.0,75.0 91.6,76.0 89.3,77.1 87.0,78.4 84.9,79.9 83.0,81.6 81.2,83.5 79.5,85.5 78.1,87.6 76.8,89.8 75.7,92.2 74.9,94.6 74.2,97.1 73.7,99.6 73.5,102.2 73.5,104.8 73.7,107.4 74.2,109.9 74.9,112.4 75.7,114.8 76.8,117.2 78.1,119.4 79.5,121.5 81.2,123.5 83.0,125.4 84.9,127.1 87.0,128.6 89.3,129.9 91.6,131.0 94.0,132.0 96.5,132.7 99.0,133.2 101.6,133.4 104.1,133.5 106.7,133.3 109.3,132.9 111.8,132.3 114.2,131.5 116.6,130.5 118.9,129.3 121.0,127.8 123.1,126.2 124.9,124.5 126.7,122.6 128.2,120.5 129.6,118.3 130.8,116.0 131.7,113.6 132.5,111.2 133.1,108.6 133.4,106.1" fill="#FFFFFF" stroke="#808080" stroke-width="1.0" stroke-linecap="butt" stroke-linejoin="round" />
		<polygon points="1.5,205.5 205.5,205.5 205.5,1.5 1.5,1.5" fill-opacity="0" stroke="#FF0000" stroke-dasharray="3 4" stroke-width="1.0" stroke-linecap="butt" stroke-linejoin="round" />
	</g>
</svg>
