<svg width="223" height="213" xmlns="http://www.w3.org/2000/svg" xmlns:xlink="http://www.w3.org/1999/xlink">
	<g id="Modelica.Fluid.Sensors.Density" class="component">
		<polygon points="171.5,101.5 171.2,95.5 170.5,89.5 169.2,83.6 167.4,77.9 165.1,72.3 162.4,66.9 159.2,61.8 155.6,57.0 151.5,52.5 147.1,48.4 142.4,44.7 137.4,41.4 132.1,38.5 126.5,36.1 120.8,34.2 115.0,32.8 109.0,31.9 103.0,31.5 97.0,31.6 91.0,32.3 85.1,33.5 79.3,35.1 73.7,37.3 68.3,39.9 63.1,43.0 58.2,46.5 53.6,50.4 49.4,54.7 45.6,59.4 42.2,64.3 39.2,69.6 36.7,75.1 34.7,80.7 33.1,86.6 32.1,92.5 31.6,98.5 31.6,104.5 32.1,110.5 33.1,116.4 34.7,122.3 36.7,127.9 39.2,133.4 42.2,138.7 45.6,143.6 49.4,148.3 53.6,152.6 58.2,156.5 63.1,160.0 68.3,163.1 73.7,165.7 79.3,167.9 85.1,169.5 91.0,170.7 97.0,171.4 103.0,171.5 109.0,171.1 115.0,170.2 120.8,168.8 126.5,166.9 132.1,164.5 137.4,161.6 142.4,158.3 147.1,154.6 151.5,150.5 155.6,146.0 159.2,141.2 162.4,136.1 165.1,130.7 167.4,125.1 169.2,119.4 170.5,113.5 171.2,107.5" fill="#F5F5F5" stroke="#000000" stroke-width="1.0" stroke-linecap="butt" stroke-linejoin="round" />
		<polyline points="101.5,31.5 101.5,61.5" fill-opacity="0" stroke="#000000" stroke-width="1.0" stroke-linecap="butt" stroke-linejoin="round" />
		<polyline points="124.4,68.7 141.7,44.2" fill-opacity="0" stroke="#000000" stroke-width="1.0" stroke-linecap="butt" stroke-linejoin="round" />
		<polyline points="78.6,68.7 61.3,44.2" fill-opacity="0" stroke="#000000" stroke-width="1.0" stroke-linecap="butt" stroke-linejoin="round" />
		<polyline points="139.1,87.8 167.3,77.6" fill-opacity="0" stroke="#000000" stroke-width="1.0" stroke-linecap="butt" stroke-linejoin="round" />
		<polyline points="63.9,87.8 35.7,77.6" fill-opacity="0" stroke="#000000" stroke-width="1.0" stroke-linecap="butt" stroke-linejoin="round" />
		<polygon points="113.5,101.5 113.5,100.5 113.3,99.4 113.1,98.4 112.8,97.4 112.4,96.5 111.9,95.6 111.4,94.7 110.8,93.9 110.1,93.1 109.3,92.4 108.5,91.8 107.6,91.2 106.7,90.7 105.8,90.3 104.8,90.0 103.8,89.7 102.8,89.6 101.8,89.5 100.7,89.5 99.7,89.6 98.7,89.8 97.7,90.1 96.7,90.5 95.8,90.9 94.9,91.5 94.1,92.1 93.3,92.7 92.6,93.5 91.9,94.3 91.3,95.1 90.8,96.0 90.4,97.0 90.0,97.9 89.8,98.9 89.6,100.0 89.5,101.0 89.5,102.0 89.6,103.0 89.8,104.1 90.0,105.1 90.4,106.0 90.8,107.0 91.3,107.9 91.9,108.7 92.6,109.5 93.3,110.3 94.1,110.9 94.9,111.5 95.8,112.1 96.7,112.5 97.7,112.9 98.7,113.2 99.7,113.4 100.7,113.5 101.8,113.5 102.8,113.4 103.8,113.3 104.8,113.0 105.8,112.7 106.7,112.3 107.6,111.8 108.5,111.2 109.3,110.6 110.1,109.9 110.8,109.1 111.4,108.3 111.9,107.4 112.4,106.5 112.8,105.6 113.1,104.6 113.3,103.6 113.5,102.5" fill-opacity="0" stroke="#404040" stroke-width="1.0" stroke-linecap="butt" stroke-linejoin="round" />
		<polygon points="96.7,100.0 117.6,43.7 121.0,39.5 121.4,44.9 106.3,103.0" fill="#404040" stroke-opacity="0" stroke-width="1.0" stroke-linecap="butt" stroke-linejoin="round" />
		<polygon points="108.5,101.5 108.5,100.9 108.4,100.3 108.3,99.7 108.1,99.1 107.9,98.6 107.6,98.0 107.3,97.5 106.9,97.1 106.5,96.6 106.1,96.2 105.6,95.8 105.1,95.5 104.6,95.2 104.0,95.0 103.4,94.8 102.8,94.6 102.3,94.5 101.7,94.5 101.0,94.5 100.4,94.6 99.9,94.7 99.3,94.9 98.7,95.1 98.2,95.3 97.7,95.6 97.2,96.0 96.7,96.4 96.3,96.8 95.9,97.3 95.6,97.8 95.3,98.3 95.0,98.9 94.8,99.4 94.7,100.0 94.6,100.6 94.5,101.2 94.5,101.8 94.6,102.4 94.7,103.0 94.8,103.6 95.0,104.1 95.3,104.7 95.6,105.2 95.9,105.7 96.3,106.2 96.7,106.6 97.2,107.0 97.7,107.4 98.2,107.7 98.7,107.9 99.3,108.1 99.9,108.3 100.4,108.4 101.0,108.5 101.7,108.5 102.3,108.5 102.8,108.4 103.4,108.2 104.0,108.0 104.6,107.8 105.1,107.5 105.6,107.2 106.1,106.8 106.5,106.4 106.9,105.9 107.3,105.5 107.6,105.0 107.9,104.4 108.1,103.9 108.3,103.3 108.4,102.7 108.5,102.1" fill="#404040" stroke-opacity="0" stroke-width="1.0" stroke-linecap="butt" stroke-linejoin="round" />
		<polyline points="101.5,171.5 101.5,201.5" fill-opacity="0" stroke="#00007F" stroke-width="1.0" stroke-linecap="butt" stroke-linejoin="round" />
		<polyline points="171.5,101.5 201.5,101.5" fill-opacity="0" stroke="#00007F" stroke-width="1.0" stroke-linecap="butt" stroke-linejoin="round" />
		<g id="port" class="port">
			<polygon points="101.5,191.5 100.6,191.5 99.8,191.6 98.9,191.8 98.1,192.1 97.3,192.4 96.6,192.8 95.8,193.3 95.1,193.8 94.5,194.4 93.9,195.0 93.4,195.7 92.9,196.4 92.5,197.1 92.2,197.9 91.9,198.7 91.7,199.6 91.6,200.4 91.5,201.3 91.5,202.1 91.6,203.0 91.8,203.8 92.0,204.7 92.3,205.5 92.7,206.2 93.1,207.0 93.6,207.7 94.2,208.3 94.8,208.9 95.5,209.5 96.2,210.0 96.9,210.4 97.7,210.8 98.5,211.0 99.4,211.3 100.2,211.4 101.1,211.5 101.9,211.5 102.8,211.4 103.6,211.3 104.5,211.0 105.3,210.8 106.1,210.4 106.8,210.0 107.5,209.5 108.2,208.9 108.8,208.3 109.4,207.7 109.9,207.0 110.3,206.2 110.7,205.5 111.0,204.7 111.2,203.8 111.4,203.0 111.5,202.1 111.5,201.3 111.4,200.4 111.3,199.6 111.1,198.7 110.8,197.9 110.5,197.1 110.1,196.4 109.6,195.7 109.1,195.0 108.5,194.4 107.9,193.8 107.2,193.3 106.4,192.8 105.7,192.4 104.9,192.1 104.1,191.8 103.2,191.6 102.4,191.5" fill="#007FFF" stroke="#007FFF" stroke-width="1.0" stroke-linecap="butt" stroke-linejoin="round" />
			<polygon points="101.5,191.5 100.6,191.5 99.8,191.6 98.9,191.8 98.1,192.1 97.3,192.4 96.6,192.8 95.8,193.3 95.1,193.8 94.5,194.4 93.9,195.0 93.4,195.7 92.9,196.4 92.5,197.1 92.2,197.9 91.9,198.7 91.7,199.6 91.6,200.4 91.5,201.3 91.5,202.1 91.6,203.0 91.8,203.8 92.0,204.7 92.3,205.5 92.7,206.2 93.1,207.0 93.6,207.7 94.2,208.3 94.8,208.9 95.5,209.5 96.2,210.0 96.9,210.4 97.7,210.8 98.5,211.0 99.4,211.3 100.2,211.4 101.1,211.5 101.9,211.5 102.8,211.4 103.6,211.3 104.5,211.0 105.3,210.8 106.1,210.4 106.8,210.0 107.5,209.5 108.2,208.9 108.8,208.3 109.4,207.7 109.9,207.0 110.3,206.2 110.7,205.5 111.0,204.7 111.2,203.8 111.4,203.0 111.5,202.1 111.5,201.3 111.4,200.4 111.3,199.6 111.1,198.7 110.8,197.9 110.5,197.1 110.1,196.4 109.6,195.7 109.1,195.0 108.5,194.4 107.9,193.8 107.2,193.3 106.4,192.8 105.7,192.4 104.9,192.1 104.1,191.8 103.2,191.6 102.4,191.5" fill="#007FFF" stroke="#000000" stroke-width="1.0" stroke-linecap="butt" stroke-linejoin="round" />
		</g>
		<g id="d" class="port">
			<polygon points="201.5,91.5 221.5,101.5 201.5,111.5" fill="#FFFFFF" stroke="#00007F" stroke-width="1.0" stroke-linecap="butt" stroke-linejoin="round" />
		</g>
	</g>
</svg>
