<svg width="253" height="223" xmlns="http://www.w3.org/2000/svg" xmlns:xlink="http://www.w3.org/1999/xlink">
	<g id="Modelica.Mechanics.Translational.Sources.Force" class="component">
		<polyline points="91.5,221.5 111.5,201.5" fill-opacity="0" stroke="#007F00" stroke-width="1.0" stroke-linecap="round" stroke-linejoin="round" />
		<polyline points="111.5,221.5 131.5,201.5" fill-opacity="0" stroke="#007F00" stroke-width="1.0" stroke-linecap="round" stroke-linejoin="round" />
		<polyline points="131.5,221.5 151.5,201.5" fill-opacity="0" stroke="#007F00" stroke-width="1.0" stroke-linecap="round" stroke-linejoin="round" />
		<polyline points="151.5,221.5 171.5,201.5" fill-opacity="0" stroke="#007F00" stroke-width="1.0" stroke-linecap="round" stroke-linejoin="round" />
		<polyline points="111.5,201.5 171.5,201.5" fill-opacity="0" stroke="#007F00" stroke-width="1.0" stroke-linecap="round" stroke-linejoin="round" />
		<polyline points="141.5,161.5 141.5,202.5" fill-opacity="0" stroke="#007F00" stroke-width="1.0" stroke-linecap="round" stroke-linejoin="round" />
		<polygon points="41.5,91.5 161.5,91.5 161.5,60.5 231.5,101.5 161.5,142.5 161.5,111.5 41.5,111.5" fill="#A0D7A0" stroke="#007F00" stroke-width="1.0" stroke-linecap="round" stroke-linejoin="round" />
		<polygon points="191.5,155.5 111.5,155.5 111.5,147.5 81.5,161.5 111.5,175.5 111.5,167.5 191.5,167.5" fill="#A0D7A0" stroke="#007F00" stroke-width="1.0" stroke-linecap="round" stroke-linejoin="round" />
		<g id="flange" class="port">
			<polygon points="231.5,111.5 251.5,111.5 251.5,91.5 231.5,91.5" fill="#FFFFFF" stroke="#007F00" stroke-width="1.0" stroke-linecap="round" stroke-linejoin="round" />
		</g>
		<g id="support" class="port">
			<polygon points="132.5,210.5 150.5,210.5 150.5,192.5 132.5,192.5" fill="#AFAFAF" stroke="#007F00" stroke-width="1.0" stroke-linecap="round" stroke-linejoin="round" />
			<polygon points="126.5,216.5 156.5,216.5 156.5,186.5 126.5,186.5" fill="#AFBEAF" stroke-opacity="0" stroke-width="1.0" stroke-linecap="round" stroke-linejoin="round" />
			<polygon points="132.5,210.5 150.5,210.5 150.5,192.5 132.5,192.5" fill="#007F00" stroke="#007F00" stroke-width="1.0" stroke-linecap="round" stroke-linejoin="round" />
		</g>
		<g id="f" class="port">
			<polygon points="1.5,81.5 41.5,101.5 1.5,121.5" fill="#00007F" stroke="#00007F" stroke-width="1.0" stroke-linecap="round" stroke-linejoin="round" />
		</g>
	</g>
</svg>
