<svg width="223" height="243" xmlns="http://www.w3.org/2000/svg" xmlns:xlink="http://www.w3.org/1999/xlink">
	<g id="Modelica.Electrical.Analog.Sources.SignalVoltage" class="component">
		<polygon points="161.5,141.5 161.3,137.2 160.8,132.9 159.8,128.7 158.6,124.6 156.9,120.6 155.0,116.8 152.7,113.2 150.1,109.7 147.2,106.5 144.1,103.6 140.7,100.9 137.1,98.6 133.3,96.5 129.4,94.8 125.3,93.4 121.1,92.4 116.9,91.8 112.6,91.5 108.3,91.6 104.0,92.1 99.8,92.9 95.6,94.1 91.6,95.6 87.8,97.5 84.1,99.7 80.6,102.2 77.3,105.0 74.3,108.1 71.6,111.4 69.1,115.0 67.0,118.7 65.2,122.6 63.8,126.7 62.7,130.8 61.9,135.1 61.5,139.3 61.5,143.7 61.9,147.9 62.7,152.2 63.8,156.3 65.2,160.4 67.0,164.3 69.1,168.0 71.6,171.6 74.3,174.9 77.3,178.0 80.6,180.8 84.1,183.3 87.8,185.5 91.6,187.4 95.6,188.9 99.8,190.1 104.0,190.9 108.3,191.4 112.6,191.5 116.9,191.2 121.1,190.6 125.3,189.6 129.4,188.2 133.3,186.5 137.1,184.4 140.7,182.1 144.1,179.4 147.2,176.5 150.1,173.3 152.7,169.8 155.0,166.2 156.9,162.4 158.6,158.4 159.8,154.3 160.8,150.1 161.3,145.8" fill="#FFFFFF" stroke="#0000FF" stroke-width="1.0" stroke-linecap="round" stroke-linejoin="round" />
		<polyline points="21.5,141.5 61.5,141.5" fill-opacity="0" stroke="#0000FF" stroke-width="1.0" stroke-linecap="round" stroke-linejoin="round" />
		<polyline points="161.5,141.5 201.5,141.5" fill-opacity="0" stroke="#0000FF" stroke-width="1.0" stroke-linecap="round" stroke-linejoin="round" />
		<polyline points="61.5,141.5 161.5,141.5" fill-opacity="0" stroke="#0000FF" stroke-width="1.0" stroke-linecap="round" stroke-linejoin="round" />
		<polyline points="41.5,111.5 41.5,131.5" fill-opacity="0" stroke="#0000FF" stroke-width="1.0" stroke-linecap="round" stroke-linejoin="round" />
		<polyline points="31.5,121.5 51.5,121.5" fill-opacity="0" stroke="#0000FF" stroke-width="1.0" stroke-linecap="round" stroke-linejoin="round" />
		<polyline points="171.5,121.5 191.5,121.5" fill-opacity="0" stroke="#0000FF" stroke-width="1.0" stroke-linecap="round" stroke-linejoin="round" />
		<g id="p" class="port">
			<polygon points="1.5,151.5 21.5,151.5 21.5,131.5 1.5,131.5" fill="#0000FF" stroke="#0000FF" stroke-width="1.0" stroke-linecap="round" stroke-linejoin="round" />
		</g>
		<g id="n" class="port">
			<polygon points="221.5,151.5 201.5,151.5 201.5,131.5 221.5,131.5" fill="#FFFFFF" stroke="#0000FF" stroke-width="1.0" stroke-linecap="round" stroke-linejoin="round" />
		</g>
		<g id="v" class="port">
			<polygon points="131.5,1.5 111.5,41.5 91.5,1.5" fill="#00007F" stroke="#00007F" stroke-width="1.0" stroke-linecap="round" stroke-linejoin="round" />
		</g>
	</g>
</svg>
