<svg width="203" height="213" xmlns="http://www.w3.org/2000/svg" xmlns:xlink="http://www.w3.org/1999/xlink">
	<g id="flowPort" class="port">
		<polygon points="91.5,211.5 111.5,211.5 111.5,191.5 91.5,191.5" fill="#FFFFFF" stroke="#FF0000" stroke-width="1.0" stroke-linecap="round" stroke-linejoin="round" />
		<polygon points="111.3,201.5 111.3,200.7 111.2,199.8 111.0,199.0 110.7,198.2 110.4,197.4 110.0,196.7 109.6,195.9 109.1,195.3 108.5,194.6 107.9,194.1 107.2,193.5 106.5,193.1 105.8,192.7 105.0,192.3 104.2,192.1 103.4,191.9 102.6,191.8 101.7,191.7 100.9,191.7 100.0,191.8 99.2,192.0 98.4,192.2 97.6,192.5 96.8,192.9 96.1,193.3 95.4,193.8 94.8,194.4 94.2,195.0 93.7,195.6 93.2,196.3 92.8,197.0 92.4,197.8 92.1,198.6 91.9,199.4 91.8,200.2 91.7,201.1 91.7,201.9 91.8,202.8 91.9,203.6 92.1,204.4 92.4,205.2 92.8,206.0 93.2,206.7 93.7,207.4 94.2,208.0 94.8,208.6 95.4,209.2 96.1,209.7 96.8,210.1 97.6,210.5 98.4,210.8 99.2,211.0 100.0,211.2 100.9,211.3 101.7,211.3 102.6,211.2 103.4,211.1 104.2,210.9 105.0,210.7 105.8,210.3 106.5,209.9 107.2,209.5 107.9,208.9 108.5,208.4 109.1,207.7 109.6,207.1 110.0,206.3 110.4,205.6 110.7,204.8 111.0,204.0 111.2,203.2 111.3,202.3" fill="#0000FF" stroke="#0000FF" stroke-width="1.0" stroke-linecap="round" stroke-linejoin="round" />
	</g>
</svg>
