<svg width="239" height="213" xmlns="http://www.w3.org/2000/svg" xmlns:xlink="http://www.w3.org/1999/xlink">
	<g id="Modelica.Mechanics.MultiBody.Joints.RollingWheelSet" class="component">
		<polygon points="19.5,211.5 219.5,211.5 219.5,191.5 19.5,191.5" fill="#AFAFAF" stroke="#000000" stroke-width="1.0" stroke-linecap="round" stroke-linejoin="round" />
		<polygon points="237.5,111.5 237.3,104.6 236.9,97.8 236.2,91.1 235.2,84.5 234.0,78.1 232.5,72.0 230.8,66.2 228.8,60.7 226.6,55.5 224.2,50.8 221.7,46.6 218.9,42.8 216.1,39.5 213.1,36.8 210.0,34.6 206.8,33.0 203.5,32.0 200.3,31.5 197.0,31.7 193.8,32.4 190.6,33.7 187.4,35.6 184.4,38.1 181.4,41.1 178.6,44.6 176.0,48.6 173.5,53.1 171.2,58.1 169.1,63.4 167.3,69.0 165.6,75.0 164.3,81.3 163.2,87.8 162.3,94.4 161.8,101.2 161.5,108.1 161.5,114.9 161.8,121.8 162.3,128.6 163.2,135.2 164.3,141.7 165.6,148.0 167.3,154.0 169.1,159.6 171.2,164.9 173.5,169.9 176.0,174.3 178.6,178.4 181.4,181.9 184.4,184.9 187.4,187.4 190.6,189.3 193.8,190.6 197.0,191.3 200.3,191.5 203.5,191.0 206.8,190.0 210.0,188.4 213.1,186.2 216.1,183.5 218.9,180.2 221.7,176.4 224.2,172.2 226.6,167.5 228.8,162.3 230.8,156.8 232.5,151.0 234.0,144.9 235.2,138.5 236.2,131.9 236.9,125.2 237.3,118.4" fill="#FFFFFF" stroke="#000000" stroke-width="1.0" stroke-linecap="round" stroke-linejoin="round" />
		<polyline points="205.5,87.5 183.5,87.5 183.5,99.5 175.5,99.5" fill-opacity="0" stroke="#000000" stroke-width="1.0" stroke-linecap="round" stroke-linejoin="round" />
		<polyline points="205.5,135.5 183.5,135.5 183.5,123.5 175.5,123.5" fill-opacity="0" stroke="#000000" stroke-width="1.0" stroke-linecap="round" stroke-linejoin="round" />
		<polyline points="219.5,11.5 199.5,11.5 199.5,113.5" fill-opacity="0" stroke="#000000" stroke-width="1.0" stroke-linecap="round" stroke-linejoin="round" />
		<polyline points="119.5,35.5 119.5,107.5" fill-opacity="0" stroke="#000000" stroke-width="1.0" stroke-linecap="round" stroke-linejoin="round" />
		<polygon points="57.5,105.5 183.5,105.5 183.5,117.5 125.5,117.5 125.5,131.5 113.5,131.5 113.5,117.5 57.5,117.5" fill="#FFFFFF" stroke="#000000" stroke-width="1.0" stroke-linecap="round" stroke-linejoin="round" />
		<polygon points="77.5,111.5 77.3,104.6 76.9,97.8 76.2,91.1 75.2,84.5 74.0,78.1 72.5,72.0 70.8,66.2 68.8,60.7 66.6,55.5 64.2,50.8 61.7,46.6 58.9,42.8 56.1,39.5 53.1,36.8 50.0,34.6 46.8,33.0 43.5,32.0 40.3,31.5 37.0,31.7 33.8,32.4 30.6,33.7 27.4,35.6 24.4,38.1 21.4,41.1 18.6,44.6 16.0,48.6 13.5,53.1 11.2,58.1 9.1,63.4 7.3,69.0 5.6,75.0 4.3,81.3 3.2,87.8 2.3,94.4 1.8,101.2 1.5,108.1 1.5,114.9 1.8,121.8 2.3,128.6 3.2,135.2 4.3,141.7 5.6,148.0 7.3,154.0 9.1,159.6 11.2,164.9 13.5,169.9 16.0,174.3 18.6,178.4 21.4,181.9 24.4,184.9 27.4,187.4 30.6,189.3 33.8,190.6 37.0,191.3 40.3,191.5 43.5,191.0 46.8,190.0 50.0,188.4 53.1,186.2 56.1,183.5 58.9,180.2 61.7,176.4 64.2,172.2 66.6,167.5 68.8,162.3 70.8,156.8 72.5,151.0 74.0,144.9 75.2,138.5 76.2,131.9 76.9,125.2 77.3,118.4" fill="#FFFFFF" stroke="#000000" stroke-width="1.0" stroke-linecap="round" stroke-linejoin="round" />
		<polyline points="23.5,11.5 39.5,11.5 39.5,107.5" fill-opacity="0" stroke="#000000" stroke-width="1.0" stroke-linecap="round" stroke-linejoin="round" />
		<g id="frameMiddle" class="port">
			<polygon points="121.1,133.1 121.1,129.9 117.9,129.9 117.9,133.1" fill-opacity="0" stroke="#5F5F5F" stroke-width="1.0" stroke-linecap="round" stroke-linejoin="round" />
			<polygon points="135.5,136.3 135.5,126.7 103.5,126.7 103.5,136.3" fill="#C0C0C0" stroke="#000000" stroke-width="1.0" stroke-linecap="round" stroke-linejoin="round" />
		</g>
		<g id="frame1" class="port">
			<polygon points="37.9,109.9 41.1,109.9 41.1,113.1 37.9,113.1" fill-opacity="0" stroke="#5F5F5F" stroke-width="1.0" stroke-linecap="round" stroke-linejoin="round" />
			<polygon points="34.7,95.5 44.3,95.5 44.3,127.5 34.7,127.5" fill="#C0C0C0" stroke="#000000" stroke-width="1.0" stroke-linecap="round" stroke-linejoin="round" />
		</g>
		<g id="frame2" class="port">
			<polygon points="197.9,109.9 201.1,109.9 201.1,113.1 197.9,113.1" fill-opacity="0" stroke="#5F5F5F" stroke-width="1.0" stroke-linecap="round" stroke-linejoin="round" />
			<polygon points="194.7,95.5 204.3,95.5 204.3,127.5 194.7,127.5" fill="#FFFFFF" stroke="#000000" stroke-width="1.0" stroke-linecap="round" stroke-linejoin="round" />
		</g>
		<g id="axis1" class="port">
			<polygon points="29.5,11.5 29.4,10.6 29.3,9.8 29.1,8.9 28.9,8.1 28.6,7.3 28.2,6.6 27.7,5.8 27.2,5.1 26.6,4.5 26.0,3.9 25.3,3.4 24.6,2.9 23.8,2.5 23.0,2.2 22.2,1.9 21.4,1.7 20.5,1.6 19.7,1.5 18.8,1.5 18.0,1.6 17.1,1.8 16.3,2.0 15.5,2.3 14.7,2.7 14.0,3.1 13.3,3.6 12.6,4.2 12.0,4.8 11.5,5.5 11.0,6.2 10.6,6.9 10.2,7.7 9.9,8.5 9.7,9.4 9.5,10.2 9.5,11.1 9.5,11.9 9.5,12.8 9.7,13.6 9.9,14.5 10.2,15.3 10.6,16.1 11.0,16.8 11.5,17.5 12.0,18.2 12.6,18.8 13.3,19.4 14.0,19.9 14.7,20.3 15.5,20.7 16.3,21.0 17.1,21.2 18.0,21.4 18.8,21.5 19.7,21.5 20.5,21.4 21.4,21.3 22.2,21.1 23.0,20.8 23.8,20.5 24.6,20.1 25.3,19.6 26.0,19.1 26.6,18.5 27.2,17.9 27.7,17.2 28.2,16.4 28.6,15.7 28.9,14.9 29.1,14.1 29.3,13.2 29.4,12.4" fill="#5F5F5F" stroke="#000000" stroke-width="1.0" stroke-linecap="round" stroke-linejoin="round" />
		</g>
		<g id="axis2" class="port">
			<polygon points="229.5,11.5 229.4,10.6 229.3,9.8 229.1,8.9 228.9,8.1 228.6,7.3 228.2,6.6 227.7,5.8 227.2,5.1 226.6,4.5 226.0,3.9 225.3,3.4 224.6,2.9 223.8,2.5 223.0,2.2 222.2,1.9 221.4,1.7 220.5,1.6 219.7,1.5 218.8,1.5 218.0,1.6 217.1,1.8 216.3,2.0 215.5,2.3 214.7,2.7 214.0,3.1 213.3,3.6 212.6,4.2 212.0,4.8 211.5,5.5 211.0,6.2 210.6,6.9 210.2,7.7 209.9,8.5 209.7,9.4 209.5,10.2 209.5,11.1 209.5,11.9 209.5,12.8 209.7,13.6 209.9,14.5 210.2,15.3 210.6,16.1 211.0,16.8 211.5,17.5 212.0,18.2 212.6,18.8 213.3,19.4 214.0,19.9 214.7,20.3 215.5,20.7 216.3,21.0 217.1,21.2 218.0,21.4 218.8,21.5 219.7,21.5 220.5,21.4 221.4,21.3 222.2,21.1 223.0,20.8 223.8,20.5 224.6,20.1 225.3,19.6 226.0,19.1 226.6,18.5 227.2,17.9 227.7,17.2 228.2,16.4 228.6,15.7 228.9,14.9 229.1,14.1 229.3,13.2 229.4,12.4" fill="#5F5F5F" stroke="#000000" stroke-width="1.0" stroke-linecap="round" stroke-linejoin="round" />
		</g>
		<g id="support" class="port">
			<polygon points="129.5,31.5 129.4,30.6 129.3,29.8 129.1,28.9 128.9,28.1 128.6,27.3 128.2,26.6 127.7,25.8 127.2,25.1 126.6,24.5 126.0,23.9 125.3,23.4 124.6,22.9 123.8,22.5 123.0,22.2 122.2,21.9 121.4,21.7 120.5,21.6 119.7,21.5 118.8,21.5 118.0,21.6 117.1,21.8 116.3,22.0 115.5,22.3 114.7,22.7 114.0,23.1 113.3,23.6 112.6,24.2 112.0,24.8 111.5,25.5 111.0,26.2 110.6,26.9 110.2,27.7 109.9,28.5 109.7,29.4 109.5,30.2 109.5,31.1 109.5,31.9 109.5,32.8 109.7,33.6 109.9,34.5 110.2,35.3 110.6,36.1 111.0,36.8 111.5,37.5 112.0,38.2 112.6,38.8 113.3,39.4 114.0,39.9 114.7,40.3 115.5,40.7 116.3,41.0 117.1,41.2 118.0,41.4 118.8,41.5 119.7,41.5 120.5,41.4 121.4,41.3 122.2,41.1 123.0,40.8 123.8,40.5 124.6,40.1 125.3,39.6 126.0,39.1 126.6,38.5 127.2,37.9 127.7,37.2 128.2,36.4 128.6,35.7 128.9,34.9 129.1,34.1 129.3,33.2 129.4,32.4" fill="#FFFFFF" stroke="#000000" stroke-width="1.0" stroke-linecap="round" stroke-linejoin="round" />
		</g>
	</g>
</svg>
