<svg width="263" height="203" xmlns="http://www.w3.org/2000/svg" xmlns:xlink="http://www.w3.org/1999/xlink">
	<g id="Modelica.Electrical.PowerConverters.DCAC.Control.SVPWM" class="component">
		<polygon points="41.5,201.5 241.5,201.5 241.5,1.5 41.5,1.5" fill="#DFD3A9" stroke="#00007F" stroke-width="1.5" stroke-linecap="round" stroke-linejoin="round" />
		<polyline points="44.5,200.0 240.0,200.0 240.0,4.5" fill-opacity="0" stroke="#706A55" stroke-width="3.0" stroke-linecap="round" stroke-linejoin="round" />
		<polyline points="43.0,198.5 43.0,3.0 238.5,3.0" fill-opacity="0" stroke="#EFE9D4" stroke-width="3.0" stroke-linecap="round" stroke-linejoin="round" />
		<polyline points="61.5,71.5 105.5,71.5 105.5,51.5 131.5,51.5 131.5,71.5 151.5,71.5 151.5,51.5 177.5,51.5 177.5,71.5 221.5,71.5" fill-opacity="0" stroke="#FF0000" stroke-width="1.0" stroke-linecap="round" stroke-linejoin="round" />
		<polyline points="61.5,111.5 71.5,111.5 71.5,91.5 105.5,91.5 105.5,111.5 177.5,111.5 177.5,91.5 211.5,91.5 211.5,111.5 221.5,111.5" fill-opacity="0" stroke="#0000FF" stroke-width="1.0" stroke-linecap="round" stroke-linejoin="round" />
		<polyline points="61.5,151.5 61.5,131.5 71.5,131.5 71.5,151.5 131.5,151.5 131.5,131.5 151.5,131.5 151.5,151.5 211.5,151.5 211.5,131.5 221.5,131.5 221.5,151.5" fill-opacity="0" stroke="#000000" stroke-width="1.0" stroke-linecap="round" stroke-linejoin="round" />
		<g id="u" class="port">
			<polygon points="1.5,81.5 41.5,101.5 1.5,121.5" fill="#00007F" stroke="#00007F" stroke-width="1.0" stroke-linecap="round" stroke-linejoin="round" />
		</g>
		<g id="fire_p" class="port">
			<polygon points="241.5,31.5 261.5,41.5 241.5,51.5" fill="#FFFFFF" stroke="#FF00FF" stroke-width="1.0" stroke-linecap="round" stroke-linejoin="round" />
		</g>
		<g id="fire_n" class="port">
			<polygon points="241.5,151.5 261.5,161.5 241.5,171.5" fill="#FFFFFF" stroke="#FF00FF" stroke-width="1.0" stroke-linecap="round" stroke-linejoin="round" />
		</g>
	</g>
</svg>
