<svg width="203" height="203" xmlns="http://www.w3.org/2000/svg" xmlns:xlink="http://www.w3.org/1999/xlink">
	<g id="Modelica.Magnetic" class="component">
		<defs>
			<linearGradient id="cyl2" x1="0" y1="0" x2="0" y2="1">
				<stop offset="0%" stop-color="#C8C8C8" />
				<stop offset="5%" stop-color="#D1D1D1" />
				<stop offset="10%" stop-color="#D9D9D9" />
				<stop offset="15%" stop-color="#E0E0E0" />
				<stop offset="20%" stop-color="#E7E7E7" />
				<stop offset="25%" stop-color="#ECECEC" />
				<stop offset="30%" stop-color="#F0F0F0" />
				<stop offset="35%" stop-color="#F4F4F4" />
				<stop offset="40%" stop-color="#F6F6F6" />
				<stop offset="45%" stop-color="#F8F8F8" />
				<stop offset="50%" stop-color="#F8F8F8" />
				<stop offset="55%" stop-color="#F8F8F8" />
				<stop offset="60%" stop-color="#F6F6F6" />
				<stop offset="65%" stop-color="#F4F4F4" />
				<stop offset="70%" stop-color="#F0F0F0" />
				<stop offset="75%" stop-color="#ECECEC" />
				<stop offset="80%" stop-color="#E7E7E7" />
				<stop offset="85%" stop-color="#E0E0E0" />
				<stop offset="90%" stop-color="#D9D9D9" />
				<stop offset="95%" stop-color="#D1D1D1" />
				<stop offset="100%" stop-color="#C8C8C8" />
			</linearGradient>
		</defs>
		<polygon points="8.8,194.2 11.0,196.1 13.3,197.8 15.7,199.1 18.2,200.2 20.8,200.9 23.6,201.4 26.5,201.5 26.5,201.5 50.4,201.5 101.5,201.5 101.5,201.5 152.6,201.5 176.5,201.5 176.5,201.5 179.4,201.4 182.2,200.9 184.8,200.2 187.3,199.1 189.7,197.8 192.0,196.1 194.2,194.2 194.2,194.2 196.1,192.0 197.8,189.7 199.1,187.3 200.2,184.8 200.9,182.2 201.4,179.4 201.5,176.5 201.5,176.5 201.5,152.6 201.5,101.5 201.5,101.5 201.5,50.4 201.5,26.5 201.5,26.5 201.4,23.6 200.9,20.8 200.2,18.2 199.1,15.7 197.8,13.3 196.1,11.0 194.2,8.8 194.2,8.8 192.0,6.9 189.7,5.2 187.3,3.9 184.8,2.8 182.2,2.1 179.4,1.6 176.5,1.5 176.5,1.5 152.6,1.5 101.5,1.5 101.5,1.5 50.4,1.5 26.5,1.5 26.5,1.5 23.6,1.6 20.8,2.1 18.2,2.8 15.7,3.9 13.3,5.2 11.0,6.9 8.8,8.8 8.8,8.8 6.9,11.0 5.2,13.3 3.9,15.7 2.8,18.2 2.1,20.8 1.6,23.6 1.5,26.5 1.5,26.5 1.5,50.4 1.5,101.5 1.5,101.5 1.5,152.6 1.5,176.5 1.5,176.5 1.6,179.4 2.1,182.2 2.8,184.8 3.9,187.3 5.2,189.7 6.9,192.0" fill="url(#cyl2)" stroke="#C8C8C8" stroke-width="1.0" stroke-linecap="butt" stroke-linejoin="round" />
		<polygon points="8.8,194.2 11.0,196.1 13.3,197.8 15.7,199.1 18.2,200.2 20.8,200.9 23.6,201.4 26.5,201.5 26.5,201.5 50.4,201.5 101.5,201.5 101.5,201.5 152.6,201.5 176.5,201.5 176.5,201.5 179.4,201.4 182.2,200.9 184.8,200.2 187.3,199.1 189.7,197.8 192.0,196.1 194.2,194.2 194.2,194.2 196.1,192.0 197.8,189.7 199.1,187.3 200.2,184.8 200.9,182.2 201.4,179.4 201.5,176.5 201.5,176.5 201.5,152.6 201.5,101.5 201.5,101.5 201.5,50.4 201.5,26.5 201.5,26.5 201.4,23.6 200.9,20.8 200.2,18.2 199.1,15.7 197.8,13.3 196.1,11.0 194.2,8.8 194.2,8.8 192.0,6.9 189.7,5.2 187.3,3.9 184.8,2.8 182.2,2.1 179.4,1.6 176.5,1.5 176.5,1.5 152.6,1.5 101.5,1.5 101.5,1.5 50.4,1.5 26.5,1.5 26.5,1.5 23.6,1.6 20.8,2.1 18.2,2.8 15.7,3.9 13.3,5.2 11.0,6.9 8.8,8.8 8.8,8.8 6.9,11.0 5.2,13.3 3.9,15.7 2.8,18.2 2.1,20.8 1.6,23.6 1.5,26.5 1.5,26.5 1.5,50.4 1.5,101.5 1.5,101.5 1.5,152.6 1.5,176.5 1.5,176.5 1.6,179.4 2.1,182.2 2.8,184.8 3.9,187.3 5.2,189.7 6.9,192.0" fill-opacity="0" stroke="#808080" stroke-width="1.0" stroke-linecap="butt" stroke-linejoin="round" />
		<polygon points="131.5,51.5 51.5,51.5 51.5,151.5 131.5,151.5 131.5,131.5 76.5,131.5 76.5,71.5 131.5,71.5" fill="#A0A0A4" stroke="#000000" stroke-width="1.0" stroke-linecap="butt" stroke-linejoin="round" />
		<polygon points="34.0,79.8 34.0,79.5 33.9,79.1 33.8,78.8 33.7,78.5 33.6,78.2 33.4,77.8 33.3,77.6 33.1,77.3 32.8,77.0 32.6,76.8 32.3,76.6 32.0,76.4 31.7,76.2 31.4,76.1 31.1,76.0 30.7,75.9 30.4,75.8 30.1,75.8 29.7,75.8 29.4,75.9 29.0,75.9 28.7,76.0 28.4,76.2 28.1,76.3 27.8,76.5 27.5,76.7 27.2,76.9 27.0,77.2 26.8,77.4 26.6,77.7 26.4,78.0 26.3,78.3 26.2,78.6 26.1,79.0 26.0,79.3 26.0,79.7 26.0,80.0 26.0,80.3 26.1,80.7 26.2,81.0 26.3,81.3 26.4,81.6 26.6,81.9 26.8,82.2 27.0,82.5 27.2,82.7 27.5,83.0 27.8,83.2 28.1,83.3 28.4,83.5 28.7,83.6 29.0,83.7 29.4,83.8 29.7,83.8 30.1,83.8 30.4,83.8 30.7,83.7 31.1,83.7 31.4,83.6 31.7,83.4 32.0,83.3 32.3,83.1 32.6,82.9 32.8,82.6 33.1,82.4 33.3,82.1 33.4,81.8 33.6,81.5 33.7,81.2 33.8,80.8 33.9,80.5 34.0,80.2" fill-opacity="0" stroke="#000000" stroke-width="1.0" stroke-linecap="butt" stroke-linejoin="round" />
		<polyline points="48.0,79.8 34.0,79.8" fill-opacity="0" stroke="#000000" stroke-width="1.0" stroke-linecap="butt" stroke-linejoin="round" />
		<polyline points="47.8,91.4 80.0,99.8" fill-opacity="0" stroke="#000000" stroke-width="1.0" stroke-linecap="butt" stroke-linejoin="round" />
		<polyline points="48.0,79.8 80.0,87.8" fill-opacity="0" stroke="#000000" stroke-width="1.0" stroke-linecap="butt" stroke-linejoin="round" />
		<polygon points="34.0,115.8 34.0,115.5 33.9,115.1 33.8,114.8 33.7,114.5 33.6,114.2 33.4,113.8 33.3,113.6 33.1,113.3 32.8,113.0 32.6,112.8 32.3,112.6 32.0,112.4 31.7,112.2 31.4,112.1 31.1,112.0 30.7,111.9 30.4,111.8 30.1,111.8 29.7,111.8 29.4,111.9 29.0,111.9 28.7,112.0 28.4,112.2 28.1,112.3 27.8,112.5 27.5,112.7 27.2,112.9 27.0,113.2 26.8,113.4 26.6,113.7 26.4,114.0 26.3,114.3 26.2,114.6 26.1,115.0 26.0,115.3 26.0,115.7 26.0,116.0 26.0,116.3 26.1,116.7 26.2,117.0 26.3,117.3 26.4,117.6 26.6,117.9 26.8,118.2 27.0,118.5 27.2,118.7 27.5,119.0 27.8,119.2 28.1,119.3 28.4,119.5 28.7,119.6 29.0,119.7 29.4,119.8 29.7,119.8 30.1,119.8 30.4,119.8 30.7,119.7 31.1,119.7 31.4,119.6 31.7,119.4 32.0,119.3 32.3,119.1 32.6,118.9 32.8,118.6 33.1,118.4 33.3,118.1 33.4,117.8 33.6,117.5 33.7,117.2 33.8,116.8 33.9,116.5 34.0,116.2" fill-opacity="0" stroke="#000000" stroke-width="1.0" stroke-linecap="butt" stroke-linejoin="round" />
		<polyline points="48.0,115.8 34.0,115.8" fill-opacity="0" stroke="#000000" stroke-width="1.0" stroke-linecap="butt" stroke-linejoin="round" />
		<polyline points="48.0,103.8 80.0,111.8" fill-opacity="0" stroke="#000000" stroke-width="1.0" stroke-linecap="butt" stroke-linejoin="round" />
		<polyline points="48.0,115.8 80.0,123.8" fill-opacity="0" stroke="#000000" stroke-width="1.0" stroke-linecap="butt" stroke-linejoin="round" />
		<polygon points="151.5,151.5 176.5,151.5 176.5,51.5 151.5,51.5" fill="#A0A0A4" stroke="#000000" stroke-width="1.0" stroke-linecap="butt" stroke-linejoin="round" />
	</g>
</svg>
