<svg width="103" height="403" xmlns="http://www.w3.org/2000/svg" xmlns:xlink="http://www.w3.org/1999/xlink">
	<g id="Modelica.Fluid.Vessels.BaseClasses.VesselFluidPorts_a" class="component">
		<polygon points="1.5,401.5 101.5,401.5 101.5,1.5 1.5,1.5" fill="#FFFFFF" stroke="#007FFF" stroke-width="1.0" stroke-linecap="butt" stroke-linejoin="round" />
		<polygon points="31.5,201.5 31.5,184.3 31.3,167.2 31.1,150.4 30.8,134.0 30.4,118.1 29.9,102.7 29.4,88.2 28.8,74.4 28.1,61.6 27.3,49.8 26.5,39.2 25.6,29.7 24.7,21.6 23.8,14.7 22.8,9.3 21.8,5.2 20.8,2.7 19.8,1.5 18.7,1.9 17.7,3.8 16.7,7.1 15.7,11.8 14.7,18.0 13.8,25.5 12.9,34.3 12.1,44.4 11.3,55.6 10.6,67.9 9.9,81.2 9.3,95.4 8.8,110.3 8.4,126.0 8.0,142.2 7.8,158.8 7.6,175.8 7.5,192.9 7.5,210.1 7.6,227.2 7.8,244.2 8.0,260.8 8.4,277.0 8.8,292.7 9.3,307.6 9.9,321.8 10.6,335.1 11.3,347.4 12.1,358.6 12.9,368.7 13.8,377.5 14.7,385.0 15.7,391.2 16.7,395.9 17.7,399.2 18.7,401.1 19.8,401.5 20.8,400.3 21.8,397.8 22.8,393.7 23.8,388.3 24.7,381.4 25.6,373.3 26.5,363.8 27.3,353.2 28.1,341.4 28.8,328.6 29.4,314.8 29.9,300.3 30.4,284.9 30.8,269.0 31.1,252.6 31.3,235.8 31.5,218.7" fill="#007FFF" stroke="#000000" stroke-width="1.0" stroke-linecap="butt" stroke-linejoin="round" />
		<polygon points="63.5,201.5 63.5,184.3 63.3,167.2 63.1,150.4 62.8,134.0 62.4,118.1 61.9,102.7 61.4,88.2 60.8,74.4 60.1,61.6 59.3,49.8 58.5,39.2 57.6,29.7 56.7,21.6 55.8,14.7 54.8,9.3 53.8,5.2 52.8,2.7 51.8,1.5 50.7,1.9 49.7,3.8 48.7,7.1 47.7,11.8 46.7,18.0 45.8,25.5 44.9,34.3 44.1,44.4 43.3,55.6 42.6,67.9 41.9,81.2 41.3,95.4 40.8,110.3 40.4,126.0 40.0,142.2 39.8,158.8 39.6,175.8 39.5,192.9 39.5,210.1 39.6,227.2 39.8,244.2 40.0,260.8 40.4,277.0 40.8,292.7 41.3,307.6 41.9,321.8 42.6,335.1 43.3,347.4 44.1,358.6 44.9,368.7 45.8,377.5 46.7,385.0 47.7,391.2 48.7,395.9 49.7,399.2 50.7,401.1 51.8,401.5 52.8,400.3 53.8,397.8 54.8,393.7 55.8,388.3 56.7,381.4 57.6,373.3 58.5,363.8 59.3,353.2 60.1,341.4 60.8,328.6 61.4,314.8 61.9,300.3 62.4,284.9 62.8,269.0 63.1,252.6 63.3,235.8 63.5,218.7" fill="#007FFF" stroke="#000000" stroke-width="1.0" stroke-linecap="butt" stroke-linejoin="round" />
		<polygon points="95.5,201.5 95.5,184.3 95.3,167.2 95.1,150.4 94.8,134.0 94.4,118.1 93.9,102.7 93.4,88.2 92.8,74.4 92.1,61.6 91.3,49.8 90.5,39.2 89.6,29.7 88.7,21.6 87.8,14.7 86.8,9.3 85.8,5.2 84.8,2.7 83.8,1.5 82.7,1.9 81.7,3.8 80.7,7.1 79.7,11.8 78.7,18.0 77.8,25.5 76.9,34.3 76.1,44.4 75.3,55.6 74.6,67.9 73.9,81.2 73.3,95.4 72.8,110.3 72.4,126.0 72.0,142.2 71.8,158.8 71.6,175.8 71.5,192.9 71.5,210.1 71.6,227.2 71.8,244.2 72.0,260.8 72.4,277.0 72.8,292.7 73.3,307.6 73.9,321.8 74.6,335.1 75.3,347.4 76.1,358.6 76.9,368.7 77.8,377.5 78.7,385.0 79.7,391.2 80.7,395.9 81.7,399.2 82.7,401.1 83.8,401.5 84.8,400.3 85.8,397.8 86.8,393.7 87.8,388.3 88.7,381.4 89.6,373.3 90.5,363.8 91.3,353.2 92.1,341.4 92.8,328.6 93.4,314.8 93.9,300.3 94.4,284.9 94.8,269.0 95.1,252.6 95.3,235.8 95.5,218.7" fill="#007FFF" stroke="#000000" stroke-width="1.0" stroke-linecap="butt" stroke-linejoin="round" />
	</g>
</svg>
