<svg width="223" height="223" xmlns="http://www.w3.org/2000/svg" xmlns:xlink="http://www.w3.org/1999/xlink">
	<g id="Modelica.Thermal.FluidHeatFlow.Components.Valve" class="component">
		<polygon points="21.5,111.5 51.5,111.5 51.5,61.5 111.5,121.5 171.5,61.5 171.5,111.5 201.5,111.5 201.5,131.5 171.5,131.5 171.5,181.5 111.5,121.5 51.5,181.5 51.5,131.5 21.5,131.5" fill="#0000FF" stroke="#FF0000" stroke-width="1.0" stroke-linecap="butt" stroke-linejoin="round" />
		<polyline points="111.5,41.5 111.5,121.5" fill-opacity="0" stroke="#00007F" stroke-width="1.0" stroke-linecap="butt" stroke-linejoin="round" />
		<g id="flowPort_a" class="port">
			<polygon points="1.5,131.5 21.5,131.5 21.5,111.5 1.5,111.5" fill="#FFFFFF" stroke="#FF0000" stroke-width="1.0" stroke-linecap="butt" stroke-linejoin="round" />
			<polygon points="21.3,121.5 21.3,120.7 21.2,119.8 21.0,119.0 20.7,118.2 20.4,117.4 20.0,116.7 19.6,115.9 19.1,115.3 18.5,114.6 17.9,114.1 17.2,113.5 16.5,113.1 15.8,112.7 15.0,112.3 14.2,112.1 13.4,111.9 12.6,111.8 11.7,111.7 10.9,111.7 10.0,111.8 9.2,112.0 8.4,112.2 7.6,112.5 6.8,112.9 6.1,113.3 5.4,113.8 4.8,114.4 4.2,115.0 3.7,115.6 3.2,116.3 2.8,117.0 2.4,117.8 2.1,118.6 1.9,119.4 1.8,120.2 1.7,121.1 1.7,121.9 1.8,122.8 1.9,123.6 2.1,124.4 2.4,125.2 2.8,126.0 3.2,126.7 3.7,127.4 4.2,128.0 4.8,128.6 5.4,129.2 6.1,129.7 6.8,130.1 7.6,130.5 8.4,130.8 9.2,131.0 10.0,131.2 10.9,131.3 11.7,131.3 12.6,131.2 13.4,131.1 14.2,130.9 15.0,130.7 15.8,130.3 16.5,129.9 17.2,129.5 17.9,128.9 18.5,128.4 19.1,127.7 19.6,127.1 20.0,126.3 20.4,125.6 20.7,124.8 21.0,124.0 21.2,123.2 21.3,122.3" fill="#0000FF" stroke="#0000FF" stroke-width="1.0" stroke-linecap="butt" stroke-linejoin="round" />
		</g>
		<g id="flowPort_b" class="port">
			<polygon points="201.5,131.5 221.5,131.5 221.5,111.5 201.5,111.5" fill="#FFFFFF" stroke="#FF0000" stroke-width="1.0" stroke-linecap="butt" stroke-linejoin="round" />
			<polygon points="221.3,121.5 221.3,120.7 221.2,119.8 221.0,119.0 220.7,118.2 220.4,117.4 220.0,116.7 219.6,115.9 219.1,115.3 218.5,114.6 217.9,114.1 217.2,113.5 216.5,113.1 215.8,112.7 215.0,112.3 214.2,112.1 213.4,111.9 212.6,111.8 211.7,111.7 210.9,111.7 210.0,111.8 209.2,112.0 208.4,112.2 207.6,112.5 206.8,112.9 206.1,113.3 205.4,113.8 204.8,114.4 204.2,115.0 203.7,115.6 203.2,116.3 202.8,117.0 202.4,117.8 202.1,118.6 201.9,119.4 201.8,120.2 201.7,121.1 201.7,121.9 201.8,122.8 201.9,123.6 202.1,124.4 202.4,125.2 202.8,126.0 203.2,126.7 203.7,127.4 204.2,128.0 204.8,128.6 205.4,129.2 206.1,129.7 206.8,130.1 207.6,130.5 208.4,130.8 209.2,131.0 210.0,131.2 210.9,131.3 211.7,131.3 212.6,131.2 213.4,131.1 214.2,130.9 215.0,130.7 215.8,130.3 216.5,129.9 217.2,129.5 217.9,128.9 218.5,128.4 219.1,127.7 219.6,127.1 220.0,126.3 220.4,125.6 220.7,124.8 221.0,124.0 221.2,123.2 221.3,122.3" fill-opacity="0" stroke="#0000FF" stroke-width="1.0" stroke-linecap="butt" stroke-linejoin="round" />
		</g>
		<g id="y" class="port">
			<polygon points="131.5,1.5 111.5,41.5 91.5,1.5" fill="#00007F" stroke="#00007F" stroke-width="1.0" stroke-linecap="butt" stroke-linejoin="round" />
		</g>
	</g>
</svg>
