<svg width="243" height="203" xmlns="http://www.w3.org/2000/svg" xmlns:xlink="http://www.w3.org/1999/xlink">
	<g id="Modelica.Media.Examples.Utilities.ShortPipe" class="component">
		<defs>
			<linearGradient id="cyl2" x1="0" y1="0" x2="0" y2="1">
				<stop offset="0%" stop-color="#000000" />
				<stop offset="5%" stop-color="#242424" />
				<stop offset="10%" stop-color="#454545" />
				<stop offset="15%" stop-color="#626262" />
				<stop offset="20%" stop-color="#7B7B7B" />
				<stop offset="25%" stop-color="#909090" />
				<stop offset="30%" stop-color="#A1A1A1" />
				<stop offset="35%" stop-color="#AFAFAF" />
				<stop offset="40%" stop-color="#B8B8B8" />
				<stop offset="45%" stop-color="#BEBEBE" />
				<stop offset="50%" stop-color="#C0C0C0" />
				<stop offset="55%" stop-color="#BEBEBE" />
				<stop offset="60%" stop-color="#B8B8B8" />
				<stop offset="65%" stop-color="#AFAFAF" />
				<stop offset="70%" stop-color="#A1A1A1" />
				<stop offset="75%" stop-color="#909090" />
				<stop offset="80%" stop-color="#7B7B7B" />
				<stop offset="85%" stop-color="#626262" />
				<stop offset="90%" stop-color="#454545" />
				<stop offset="95%" stop-color="#242424" />
				<stop offset="100%" stop-color="#000000" />
			</linearGradient>
		</defs>
		<polygon points="21.5,161.5 221.5,161.5 221.5,41.5 21.5,41.5" fill="url(#cyl2)" stroke="#000000" stroke-width="1.0" stroke-linecap="butt" stroke-linejoin="round" />
		<defs>
			<linearGradient id="cyl3" x1="0" y1="0" x2="0" y2="1">
				<stop offset="0%" stop-color="#000000" />
				<stop offset="5%" stop-color="#001830" />
				<stop offset="10%" stop-color="#002E5C" />
				<stop offset="15%" stop-color="#004182" />
				<stop offset="20%" stop-color="#0051A3" />
				<stop offset="25%" stop-color="#005FBF" />
				<stop offset="30%" stop-color="#006BD6" />
				<stop offset="35%" stop-color="#0074E8" />
				<stop offset="40%" stop-color="#007AF5" />
				<stop offset="45%" stop-color="#007EFC" />
				<stop offset="50%" stop-color="#007FFF" />
				<stop offset="55%" stop-color="#007EFC" />
				<stop offset="60%" stop-color="#007AF5" />
				<stop offset="65%" stop-color="#0074E8" />
				<stop offset="70%" stop-color="#006BD6" />
				<stop offset="75%" stop-color="#005FBF" />
				<stop offset="80%" stop-color="#0051A3" />
				<stop offset="85%" stop-color="#004182" />
				<stop offset="90%" stop-color="#002E5C" />
				<stop offset="95%" stop-color="#001830" />
				<stop offset="100%" stop-color="#000000" />
			</linearGradient>
		</defs>
		<polygon points="21.5,137.5 221.5,137.5 221.5,67.5 21.5,67.5" fill="url(#cyl3)" stroke="#000000" stroke-width="1.0" stroke-linecap="butt" stroke-linejoin="round" />
		<g id="port_a" class="port">
			<polygon points="21.5,101.5 21.5,100.6 21.3,99.8 21.2,98.9 20.9,98.1 20.6,97.3 20.2,96.6 19.7,95.8 19.2,95.1 18.6,94.5 18.0,93.9 17.3,93.4 16.6,92.9 15.9,92.5 15.1,92.2 14.3,91.9 13.4,91.7 12.6,91.6 11.7,91.5 10.8,91.5 10.0,91.6 9.1,91.8 8.3,92.0 7.5,92.3 6.7,92.7 6.0,93.1 5.3,93.6 4.7,94.2 4.0,94.8 3.5,95.5 3.0,96.2 2.6,96.9 2.2,97.7 1.9,98.5 1.7,99.4 1.6,100.2 1.5,101.1 1.5,101.9 1.6,102.8 1.7,103.6 1.9,104.5 2.2,105.3 2.6,106.1 3.0,106.8 3.5,107.5 4.0,108.2 4.7,108.8 5.3,109.4 6.0,109.9 6.7,110.3 7.5,110.7 8.3,111.0 9.1,111.2 10.0,111.4 10.8,111.5 11.7,111.5 12.6,111.4 13.4,111.3 14.3,111.1 15.1,110.8 15.9,110.5 16.6,110.1 17.3,109.6 18.0,109.1 18.6,108.5 19.2,107.9 19.7,107.2 20.2,106.4 20.6,105.7 20.9,104.9 21.2,104.1 21.3,103.2 21.5,102.4" fill="#007FFF" stroke="#007FFF" stroke-width="1.0" stroke-linecap="butt" stroke-linejoin="round" />
			<polygon points="21.5,101.5 21.5,100.6 21.3,99.8 21.2,98.9 20.9,98.1 20.6,97.3 20.2,96.6 19.7,95.8 19.2,95.1 18.6,94.5 18.0,93.9 17.3,93.4 16.6,92.9 15.9,92.5 15.1,92.2 14.3,91.9 13.4,91.7 12.6,91.6 11.7,91.5 10.8,91.5 10.0,91.6 9.1,91.8 8.3,92.0 7.5,92.3 6.7,92.7 6.0,93.1 5.3,93.6 4.7,94.2 4.0,94.8 3.5,95.5 3.0,96.2 2.6,96.9 2.2,97.7 1.9,98.5 1.7,99.4 1.6,100.2 1.5,101.1 1.5,101.9 1.6,102.8 1.7,103.6 1.9,104.5 2.2,105.3 2.6,106.1 3.0,106.8 3.5,107.5 4.0,108.2 4.7,108.8 5.3,109.4 6.0,109.9 6.7,110.3 7.5,110.7 8.3,111.0 9.1,111.2 10.0,111.4 10.8,111.5 11.7,111.5 12.6,111.4 13.4,111.3 14.3,111.1 15.1,110.8 15.9,110.5 16.6,110.1 17.3,109.6 18.0,109.1 18.6,108.5 19.2,107.9 19.7,107.2 20.2,106.4 20.6,105.7 20.9,104.9 21.2,104.1 21.3,103.2 21.5,102.4" fill="#007FFF" stroke="#000000" stroke-width="1.0" stroke-linecap="butt" stroke-linejoin="round" />
		</g>
		<g id="port_b" class="port">
			<polygon points="221.5,101.5 221.5,100.6 221.6,99.8 221.8,98.9 222.1,98.1 222.4,97.3 222.8,96.6 223.3,95.8 223.8,95.1 224.3,94.5 225.0,93.9 225.6,93.4 226.4,92.9 227.1,92.5 227.9,92.2 228.7,91.9 229.6,91.7 230.4,91.6 231.3,91.5 232.1,91.5 233.0,91.6 233.8,91.8 234.7,92.0 235.5,92.3 236.2,92.7 237.0,93.1 237.7,93.6 238.3,94.2 238.9,94.8 239.5,95.5 240.0,96.2 240.4,96.9 240.7,97.7 241.0,98.5 241.3,99.4 241.4,100.2 241.5,101.1 241.5,101.9 241.4,102.8 241.3,103.6 241.0,104.5 240.7,105.3 240.4,106.1 240.0,106.8 239.5,107.5 238.9,108.2 238.3,108.8 237.7,109.4 237.0,109.9 236.2,110.3 235.5,110.7 234.7,111.0 233.8,111.2 233.0,111.4 232.1,111.5 231.3,111.5 230.4,111.4 229.6,111.3 228.7,111.1 227.9,110.8 227.1,110.5 226.4,110.1 225.6,109.6 225.0,109.1 224.3,108.5 223.8,107.9 223.3,107.2 222.8,106.4 222.4,105.7 222.1,104.9 221.8,104.1 221.6,103.2 221.5,102.4" fill="#007FFF" stroke="#007FFF" stroke-width="1.0" stroke-linecap="butt" stroke-linejoin="round" />
			<polygon points="221.5,101.5 221.5,100.6 221.6,99.8 221.8,98.9 222.1,98.1 222.4,97.3 222.8,96.6 223.3,95.8 223.8,95.1 224.3,94.5 225.0,93.9 225.6,93.4 226.4,92.9 227.1,92.5 227.9,92.2 228.7,91.9 229.6,91.7 230.4,91.6 231.3,91.5 232.1,91.5 233.0,91.6 233.8,91.8 234.7,92.0 235.5,92.3 236.2,92.7 237.0,93.1 237.7,93.6 238.3,94.2 238.9,94.8 239.5,95.5 240.0,96.2 240.4,96.9 240.7,97.7 241.0,98.5 241.3,99.4 241.4,100.2 241.5,101.1 241.5,101.9 241.4,102.8 241.3,103.6 241.0,104.5 240.7,105.3 240.4,106.1 240.0,106.8 239.5,107.5 238.9,108.2 238.3,108.8 237.7,109.4 237.0,109.9 236.2,110.3 235.5,110.7 234.7,111.0 233.8,111.2 233.0,111.4 232.1,111.5 231.3,111.5 230.4,111.4 229.6,111.3 228.7,111.1 227.9,110.8 227.1,110.5 226.4,110.1 225.6,109.6 225.0,109.1 224.3,108.5 223.8,107.9 223.3,107.2 222.8,106.4 222.4,105.7 222.1,104.9 221.8,104.1 221.6,103.2 221.5,102.4" fill="#007FFF" stroke="#000000" stroke-width="1.0" stroke-linecap="butt" stroke-linejoin="round" />
			<polygon points="223.5,101.5 223.5,100.8 223.6,100.1 223.8,99.5 224.0,98.8 224.2,98.2 224.5,97.5 224.9,97.0 225.3,96.4 225.8,95.9 226.3,95.4 226.8,95.0 227.4,94.6 228.0,94.3 228.6,94.0 229.3,93.8 230.0,93.6 230.6,93.5 231.3,93.5 232.0,93.5 232.7,93.6 233.4,93.7 234.0,93.9 234.7,94.2 235.3,94.5 235.9,94.8 236.4,95.2 237.0,95.7 237.4,96.2 237.9,96.7 238.3,97.3 238.6,97.9 238.9,98.5 239.1,99.1 239.3,99.8 239.4,100.5 239.5,101.2 239.5,101.8 239.4,102.5 239.3,103.2 239.1,103.9 238.9,104.5 238.6,105.1 238.3,105.7 237.9,106.3 237.4,106.8 237.0,107.3 236.4,107.8 235.9,108.2 235.3,108.5 234.7,108.8 234.0,109.1 233.4,109.3 232.7,109.4 232.0,109.5 231.3,109.5 230.6,109.5 230.0,109.4 229.3,109.2 228.6,109.0 228.0,108.7 227.4,108.4 226.8,108.0 226.3,107.6 225.8,107.1 225.3,106.6 224.9,106.0 224.5,105.5 224.2,104.8 224.0,104.2 223.8,103.5 223.6,102.9 223.5,102.2" fill="#FFFFFF" stroke="#007FFF" stroke-width="1.0" stroke-linecap="butt" stroke-linejoin="round" />
		</g>
	</g>
</svg>
