<svg width="223" height="213" xmlns="http://www.w3.org/2000/svg" xmlns:xlink="http://www.w3.org/1999/xlink">
	<g id="Modelica.Mechanics.Translational.Components.MassWithStopAndFriction" class="component">
		<polyline points="11.5,101.5 211.5,101.5" fill-opacity="0" stroke="#007F00" stroke-width="1.0" stroke-linecap="round" stroke-linejoin="round" />
		<polygon points="191.5,201.5 161.5,191.5 161.5,211.5" fill="#5F7F5F" stroke="#5F7F5F" stroke-width="1.0" stroke-linecap="round" stroke-linejoin="round" />
		<polyline points="71.5,201.5 161.5,201.5" fill-opacity="0" stroke="#5F7F5F" stroke-width="1.0" stroke-linecap="round" stroke-linejoin="round" />
		<defs>
			<radialGradient id="sph5">
				<stop offset="0%" stop-color="#A6DDA6" />
				<stop offset="10%" stop-color="#A4DCA4" />
				<stop offset="20%" stop-color="#9FD99F" />
				<stop offset="30%" stop-color="#97D597" />
				<stop offset="40%" stop-color="#8BCE8B" />
				<stop offset="50%" stop-color="#7DC67D" />
				<stop offset="60%" stop-color="#6ABB6A" />
				<stop offset="70%" stop-color="#55AF55" />
				<stop offset="80%" stop-color="#3CA13C" />
				<stop offset="90%" stop-color="#209120" />
				<stop offset="100%" stop-color="#007F00" />
			</radialGradient>
		</defs>
		<polygon points="81.5,131.5 141.5,131.5 141.5,71.5 81.5,71.5" fill="url(#sph5)" stroke="#007F00" stroke-width="1.0" stroke-linecap="round" stroke-linejoin="round" />
		<polygon points="47.5,147.5 55.5,147.5 55.5,117.5 47.5,117.5" fill="#007F00" stroke="#007F00" stroke-width="1.0" stroke-linecap="round" stroke-linejoin="round" />
		<polygon points="167.5,147.5 175.5,147.5 175.5,117.5 167.5,117.5" fill="#007F00" stroke="#007F00" stroke-width="1.0" stroke-linecap="round" stroke-linejoin="round" />
		<polyline points="61.5,191.5 83.5,169.5" fill-opacity="0" stroke="#007F00" stroke-width="1.0" stroke-linecap="round" stroke-linejoin="round" />
		<polyline points="81.5,191.5 103.5,169.5" fill-opacity="0" stroke="#007F00" stroke-width="1.0" stroke-linecap="round" stroke-linejoin="round" />
		<polyline points="101.5,191.5 123.5,169.5" fill-opacity="0" stroke="#007F00" stroke-width="1.0" stroke-linecap="round" stroke-linejoin="round" />
		<polyline points="121.5,191.5 143.5,169.5" fill-opacity="0" stroke="#007F00" stroke-width="1.0" stroke-linecap="round" stroke-linejoin="round" />
		<polygon points="41.5,171.5 181.5,171.5 181.5,147.5 41.5,147.5" fill="#A0D7A0" stroke="#007F00" stroke-width="1.0" stroke-linecap="round" stroke-linejoin="round" />
		<g id="flange_a" class="port">
			<polygon points="1.5,111.5 21.5,111.5 21.5,91.5 1.5,91.5" fill="#007F00" stroke="#007F00" stroke-width="1.0" stroke-linecap="round" stroke-linejoin="round" />
		</g>
		<g id="flange_b" class="port">
			<polygon points="201.5,111.5 221.5,111.5 221.5,91.5 201.5,91.5" fill="#FFFFFF" stroke="#007F00" stroke-width="1.0" stroke-linecap="round" stroke-linejoin="round" />
		</g>
		<g id="heatPort" class="port">
			<polygon points="1.5,211.5 21.5,211.5 21.5,191.5 1.5,191.5" fill="#BF0000" stroke="#BF0000" stroke-width="1.0" stroke-linecap="round" stroke-linejoin="round" />
		</g>
	</g>
</svg>
