<svg width="233" height="233" xmlns="http://www.w3.org/2000/svg" xmlns:xlink="http://www.w3.org/1999/xlink">
	<g id="Modelica.Electrical.Machines.BasicMachines.QuasiStationaryDCMachines.DC_SeriesExcited" class="component">
		<defs>
			<linearGradient id="cyl2" x1="0" y1="0" x2="0" y2="1">
				<stop offset="0%" stop-color="#000000" />
				<stop offset="5%" stop-color="#001830" />
				<stop offset="10%" stop-color="#002E5C" />
				<stop offset="15%" stop-color="#004182" />
				<stop offset="20%" stop-color="#0052A3" />
				<stop offset="25%" stop-color="#0060BF" />
				<stop offset="30%" stop-color="#006CD6" />
				<stop offset="35%" stop-color="#0074E8" />
				<stop offset="40%" stop-color="#007BF5" />
				<stop offset="45%" stop-color="#007FFC" />
				<stop offset="50%" stop-color="#0080FF" />
				<stop offset="55%" stop-color="#007FFC" />
				<stop offset="60%" stop-color="#007BF5" />
				<stop offset="65%" stop-color="#0074E8" />
				<stop offset="70%" stop-color="#006CD6" />
				<stop offset="75%" stop-color="#0060BF" />
				<stop offset="80%" stop-color="#0052A3" />
				<stop offset="85%" stop-color="#004182" />
				<stop offset="90%" stop-color="#002E5C" />
				<stop offset="95%" stop-color="#001830" />
				<stop offset="100%" stop-color="#000000" />
			</linearGradient>
		</defs>
		<polygon points="71.5,171.5 191.5,171.5 191.5,51.5 71.5,51.5" fill="url(#cyl2)" stroke="#000000" stroke-width="1.0" stroke-linecap="round" stroke-linejoin="round" />
		<polygon points="191.5,231.5 231.5,231.5 231.5,191.5 191.5,191.5" fill="#C0C0C0" stroke="#C0C0C0" stroke-width="1.0" stroke-linecap="round" stroke-linejoin="round" />
		<polyline points="191.5,211.5 231.5,211.5" fill-opacity="0" stroke="#000000" stroke-width="1.0" stroke-linecap="round" stroke-linejoin="round" />
		<polyline points="201.5,211.5 191.5,231.5" fill-opacity="0" stroke="#000000" stroke-width="1.0" stroke-linecap="round" stroke-linejoin="round" />
		<polyline points="211.5,211.5 201.5,231.5" fill-opacity="0" stroke="#000000" stroke-width="1.0" stroke-linecap="round" stroke-linejoin="round" />
		<polyline points="221.5,211.5 211.5,231.5" fill-opacity="0" stroke="#000000" stroke-width="1.0" stroke-linecap="round" stroke-linejoin="round" />
		<polyline points="231.5,211.5 221.5,231.5" fill-opacity="0" stroke="#000000" stroke-width="1.0" stroke-linecap="round" stroke-linejoin="round" />
		<polyline points="71.5,41.5 51.5,41.5 51.5,21.5" fill-opacity="0" stroke="#0000FF" stroke-width="1.0" stroke-linecap="round" stroke-linejoin="round" />
		<polyline points="151.5,41.5 171.5,41.5 171.5,21.5" fill-opacity="0" stroke="#0000FF" stroke-width="1.0" stroke-linecap="round" stroke-linejoin="round" />
		<polyline points="11.5,121.5 6.5,120.5 2.5,116.5 1.5,111.5 2.5,106.5 6.5,102.5 11.5,101.5" fill-opacity="0" stroke="#0000FF" stroke-width="1.0" stroke-linecap="round" stroke-linejoin="round" />
		<polyline points="11.5,141.5 6.5,140.5 2.5,136.5 1.5,131.5 2.5,126.5 6.5,122.5 11.5,121.5" fill-opacity="0" stroke="#0000FF" stroke-width="1.0" stroke-linecap="round" stroke-linejoin="round" />
		<polyline points="11.5,101.5 6.5,100.5 2.5,96.5 1.5,91.5 2.5,86.5 6.5,82.5 11.5,81.5" fill-opacity="0" stroke="#0000FF" stroke-width="1.0" stroke-linecap="round" stroke-linejoin="round" />
		<polyline points="11.5,61.5 11.5,81.5" fill-opacity="0" stroke="#0000FF" stroke-width="1.0" stroke-linecap="round" stroke-linejoin="round" />
		<polyline points="11.5,141.5 11.5,161.5" fill-opacity="0" stroke="#0000FF" stroke-width="1.0" stroke-linecap="round" stroke-linejoin="round" />
		<defs>
			<linearGradient id="cyl16" x1="0" y1="0" x2="0" y2="1">
				<stop offset="0%" stop-color="#000000" />
				<stop offset="5%" stop-color="#202830" />
				<stop offset="10%" stop-color="#3D4D5C" />
				<stop offset="15%" stop-color="#576D82" />
				<stop offset="20%" stop-color="#6D88A3" />
				<stop offset="25%" stop-color="#80A0BF" />
				<stop offset="30%" stop-color="#8FB3D6" />
				<stop offset="35%" stop-color="#9BC2E8" />
				<stop offset="40%" stop-color="#A3CCF5" />
				<stop offset="45%" stop-color="#A8D3FC" />
				<stop offset="50%" stop-color="#AAD5FF" />
				<stop offset="55%" stop-color="#A8D3FC" />
				<stop offset="60%" stop-color="#A3CCF5" />
				<stop offset="65%" stop-color="#9BC2E8" />
				<stop offset="70%" stop-color="#8FB3D6" />
				<stop offset="75%" stop-color="#80A0BF" />
				<stop offset="80%" stop-color="#6D88A3" />
				<stop offset="85%" stop-color="#576D82" />
				<stop offset="90%" stop-color="#3D4D5C" />
				<stop offset="95%" stop-color="#202830" />
				<stop offset="100%" stop-color="#000000" />
			</linearGradient>
		</defs>
		<polygon points="71.5,171.5 191.5,171.5 191.5,51.5 71.5,51.5" fill="url(#cyl16)" stroke="#000000" stroke-width="1.0" stroke-linecap="round" stroke-linejoin="round" />
		<defs>
			<linearGradient id="cyl17" x1="0" y1="0" x2="0" y2="1">
				<stop offset="0%" stop-color="#000000" />
				<stop offset="5%" stop-color="#181818" />
				<stop offset="10%" stop-color="#2E2E2E" />
				<stop offset="15%" stop-color="#414141" />
				<stop offset="20%" stop-color="#525252" />
				<stop offset="25%" stop-color="#606060" />
				<stop offset="30%" stop-color="#6C6C6C" />
				<stop offset="35%" stop-color="#747474" />
				<stop offset="40%" stop-color="#7B7B7B" />
				<stop offset="45%" stop-color="#7F7F7F" />
				<stop offset="50%" stop-color="#808080" />
				<stop offset="55%" stop-color="#7F7F7F" />
				<stop offset="60%" stop-color="#7B7B7B" />
				<stop offset="65%" stop-color="#747474" />
				<stop offset="70%" stop-color="#6C6C6C" />
				<stop offset="75%" stop-color="#606060" />
				<stop offset="80%" stop-color="#525252" />
				<stop offset="85%" stop-color="#414141" />
				<stop offset="90%" stop-color="#2E2E2E" />
				<stop offset="95%" stop-color="#181818" />
				<stop offset="100%" stop-color="#000000" />
			</linearGradient>
		</defs>
		<polygon points="51.5,171.5 71.5,171.5 71.5,51.5 51.5,51.5" fill="url(#cyl17)" stroke="#000000" stroke-width="1.0" stroke-linecap="round" stroke-linejoin="round" />
		<defs>
			<linearGradient id="cyl18" x1="0" y1="0" x2="0" y2="1">
				<stop offset="0%" stop-color="#000000" />
				<stop offset="5%" stop-color="#121212" />
				<stop offset="10%" stop-color="#222222" />
				<stop offset="15%" stop-color="#303030" />
				<stop offset="20%" stop-color="#3D3D3D" />
				<stop offset="25%" stop-color="#474747" />
				<stop offset="30%" stop-color="#505050" />
				<stop offset="35%" stop-color="#565656" />
				<stop offset="40%" stop-color="#5B5B5B" />
				<stop offset="45%" stop-color="#5E5E5E" />
				<stop offset="50%" stop-color="#5F5F5F" />
				<stop offset="55%" stop-color="#5E5E5E" />
				<stop offset="60%" stop-color="#5B5B5B" />
				<stop offset="65%" stop-color="#565656" />
				<stop offset="70%" stop-color="#505050" />
				<stop offset="75%" stop-color="#474747" />
				<stop offset="80%" stop-color="#3D3D3D" />
				<stop offset="85%" stop-color="#303030" />
				<stop offset="90%" stop-color="#222222" />
				<stop offset="95%" stop-color="#121212" />
				<stop offset="100%" stop-color="#000000" />
			</linearGradient>
		</defs>
		<polygon points="191.5,121.5 211.5,121.5 211.5,101.5 191.5,101.5" fill="url(#cyl18)" stroke="#000000" stroke-width="1.0" stroke-linecap="round" stroke-linejoin="round" />
		<polygon points="71.5,61.5 151.5,61.5 151.5,41.5 71.5,41.5" fill="#5F5F5F" stroke="#5F5F5F" stroke-width="1.0" stroke-linecap="round" stroke-linejoin="round" />
		<polygon points="61.5,201.5 71.5,201.5 101.5,131.5 151.5,131.5 181.5,201.5 191.5,201.5 191.5,211.5 61.5,211.5" fill="#000000" stroke="#000000" stroke-width="1.0" stroke-linecap="round" stroke-linejoin="round" />
		<g id="flange" class="port">
			<polygon points="221.5,111.5 221.5,110.6 221.4,109.8 221.2,108.9 220.9,108.1 220.6,107.3 220.2,106.6 219.7,105.8 219.2,105.1 218.6,104.5 218.0,103.9 217.3,103.4 216.6,102.9 215.9,102.5 215.1,102.2 214.3,101.9 213.4,101.7 212.6,101.6 211.7,101.5 210.9,101.5 210.0,101.6 209.2,101.8 208.3,102.0 207.5,102.3 206.8,102.7 206.0,103.1 205.3,103.6 204.7,104.2 204.1,104.8 203.5,105.5 203.0,106.2 202.6,106.9 202.2,107.7 202.0,108.5 201.7,109.4 201.6,110.2 201.5,111.1 201.5,111.9 201.6,112.8 201.7,113.6 202.0,114.5 202.2,115.3 202.6,116.1 203.0,116.8 203.5,117.5 204.1,118.2 204.7,118.8 205.3,119.4 206.0,119.9 206.8,120.3 207.5,120.7 208.3,121.0 209.2,121.2 210.0,121.4 210.9,121.5 211.7,121.5 212.6,121.4 213.4,121.3 214.3,121.1 215.1,120.8 215.9,120.5 216.6,120.1 217.3,119.6 218.0,119.1 218.6,118.5 219.2,117.9 219.7,117.2 220.2,116.4 220.6,115.7 220.9,114.9 221.2,114.1 221.4,113.2 221.5,112.4" fill="#5F5F5F" stroke="#000000" stroke-width="1.0" stroke-linecap="round" stroke-linejoin="round" />
		</g>
		<g id="support" class="port">
			<polygon points="221.5,211.5 221.5,210.6 221.4,209.8 221.2,208.9 220.9,208.1 220.6,207.3 220.2,206.6 219.7,205.8 219.2,205.1 218.6,204.5 218.0,203.9 217.3,203.4 216.6,202.9 215.9,202.5 215.1,202.2 214.3,201.9 213.4,201.7 212.6,201.6 211.7,201.5 210.9,201.5 210.0,201.6 209.2,201.8 208.3,202.0 207.5,202.3 206.8,202.7 206.0,203.1 205.3,203.6 204.7,204.2 204.1,204.8 203.5,205.5 203.0,206.2 202.6,206.9 202.2,207.7 202.0,208.5 201.7,209.4 201.6,210.2 201.5,211.1 201.5,211.9 201.6,212.8 201.7,213.6 202.0,214.5 202.2,215.3 202.6,216.1 203.0,216.8 203.5,217.5 204.1,218.2 204.7,218.8 205.3,219.4 206.0,219.9 206.8,220.3 207.5,220.7 208.3,221.0 209.2,221.2 210.0,221.4 210.9,221.5 211.7,221.5 212.6,221.4 213.4,221.3 214.3,221.1 215.1,220.8 215.9,220.5 216.6,220.1 217.3,219.6 218.0,219.1 218.6,218.5 219.2,217.9 219.7,217.2 220.2,216.4 220.6,215.7 220.9,214.9 221.2,214.1 221.4,213.2 221.5,212.4" fill="#5F5F5F" stroke="#000000" stroke-width="1.0" stroke-linecap="round" stroke-linejoin="round" />
		</g>
		<g id="pin_ap" class="port">
			<polygon points="161.5,1.5 181.5,1.5 181.5,21.5 161.5,21.5" fill="#0000FF" stroke="#0000FF" stroke-width="1.0" stroke-linecap="round" stroke-linejoin="round" />
		</g>
		<g id="pin_an" class="port">
			<polygon points="41.5,1.5 61.5,1.5 61.5,21.5 41.5,21.5" fill="#FFFFFF" stroke="#0000FF" stroke-width="1.0" stroke-linecap="round" stroke-linejoin="round" />
		</g>
		<g id="thermalPort" class="port">
			<polygon points="100.5,222.5 122.5,222.5 122.5,200.5 100.5,200.5" fill="#5F5F5F" stroke="#BF0000" stroke-width="1.0" stroke-linecap="round" stroke-linejoin="round" />
			<polygon points="119.5,211.5 119.5,210.8 119.4,210.1 119.2,209.5 119.0,208.8 118.8,208.2 118.5,207.5 118.1,207.0 117.7,206.4 117.2,205.9 116.7,205.4 116.2,205.0 115.6,204.6 115.0,204.3 114.4,204.0 113.7,203.8 113.0,203.6 112.4,203.5 111.7,203.5 111.0,203.5 110.3,203.6 109.6,203.7 109.0,203.9 108.3,204.2 107.7,204.5 107.1,204.8 106.6,205.2 106.0,205.7 105.5,206.2 105.1,206.7 104.7,207.3 104.4,207.9 104.1,208.5 103.9,209.1 103.7,209.8 103.6,210.5 103.5,211.2 103.5,211.8 103.6,212.5 103.7,213.2 103.9,213.9 104.1,214.5 104.4,215.1 104.7,215.7 105.1,216.3 105.5,216.8 106.0,217.3 106.6,217.8 107.1,218.2 107.7,218.5 108.3,218.8 109.0,219.1 109.6,219.3 110.3,219.4 111.0,219.5 111.7,219.5 112.4,219.5 113.0,219.4 113.7,219.2 114.4,219.0 115.0,218.7 115.6,218.4 116.2,218.0 116.7,217.6 117.2,217.1 117.7,216.6 118.1,216.0 118.5,215.5 118.8,214.8 119.0,214.2 119.2,213.5 119.4,212.9 119.5,212.2" fill="#BF0000" stroke="#BF0000" stroke-width="1.0" stroke-linecap="round" stroke-linejoin="round" />
		</g>
		<g id="pin_ep" class="port">
			<polygon points="1.5,41.5 21.5,41.5 21.5,61.5 1.5,61.5" fill="#0000FF" stroke="#0000FF" stroke-width="1.0" stroke-linecap="round" stroke-linejoin="round" />
		</g>
		<g id="pin_en" class="port">
			<polygon points="21.5,161.5 1.5,161.5 1.5,181.5 21.5,181.5" fill="#FFFFFF" stroke="#0000FF" stroke-width="1.0" stroke-linecap="round" stroke-linejoin="round" />
		</g>
	</g>
</svg>
