<svg width="203" height="203" xmlns="http://www.w3.org/2000/svg" xmlns:xlink="http://www.w3.org/1999/xlink">
	<g id="Modelica.Electrical.Digital.Registers.DFFREGL" class="component">
		<polygon points="51.5,151.5 151.5,151.5 151.5,31.5 51.5,31.5" fill="#FFFFFF" stroke="#7F007F" stroke-width="1.0" stroke-linecap="butt" stroke-linejoin="round" />
		<polyline points="15.5,61.5 51.5,61.5" fill-opacity="0" stroke="#7F007F" stroke-width="1.0" stroke-linecap="butt" stroke-linejoin="round" />
		<polyline points="17.5,121.5 51.5,121.5" fill-opacity="0" stroke="#7F007F" stroke-width="1.0" stroke-linecap="butt" stroke-linejoin="round" />
		<polyline points="17.5,161.5 101.5,161.5 101.5,151.5" fill-opacity="0" stroke="#7F007F" stroke-width="1.0" stroke-linecap="butt" stroke-linejoin="round" />
		<polyline points="151.5,61.5 185.5,61.5" fill-opacity="0" stroke="#7F007F" stroke-width="1.0" stroke-linecap="butt" stroke-linejoin="round" />
		<polyline points="51.5,111.5 65.5,121.5 51.5,131.5" fill-opacity="0" stroke="#7F007F" stroke-width="1.0" stroke-linecap="butt" stroke-linejoin="round" />
		<text x="100.5" y="68.8" text-anchor="middle" fill="#7F216B" font-size="19.4px" font-family="sans-serif">DFFREG</text>
		<text x="100.5" y="146.3" text-anchor="middle" fill="#7F216B" font-size="12.3px" font-family="sans-serif">reset</text>
		<text x="86.5" y="126.1" text-anchor="middle" fill="#7F216B" font-size="11.5px" font-family="sans-serif">clock</text>
		<text x="101.5" y="81.6" text-anchor="middle" fill="#7F216B" font-size="10.8px" font-family="sans-serif">high active</text>
		<polygon points="71.5,85.5 129.5,85.5 129.5,71.5 71.5,71.5" fill="#FFFFFF" stroke-opacity="0" stroke-width="1.0" stroke-linecap="butt" stroke-linejoin="round" />
		<text x="99.5" y="82.7" text-anchor="middle" fill="#7F216B" font-size="12.1px" font-family="sans-serif">low active</text>
		<g id="reset" class="port">
			<polygon points="1.5,169.5 17.5,169.5 17.5,153.5 1.5,153.5" fill="#7F007F" stroke="#7F007F" stroke-width="1.0" stroke-linecap="butt" stroke-linejoin="round" />
		</g>
		<g id="clock" class="port">
			<polygon points="1.5,129.5 17.5,129.5 17.5,113.5 1.5,113.5" fill="#7F007F" stroke="#7F007F" stroke-width="1.0" stroke-linecap="butt" stroke-linejoin="round" />
		</g>
		<g id="dataIn" class="port">
			<polygon points="1.5,69.5 17.5,69.5 17.5,53.5 1.5,53.5" fill="#7F007F" stroke="#7F007F" stroke-width="1.0" stroke-linecap="butt" stroke-linejoin="round" />
		</g>
		<g id="dataOut" class="port">
			<polygon points="185.5,53.5 201.5,61.5 185.5,69.5" fill="#FFFFFF" stroke="#7F007F" stroke-width="1.0" stroke-linecap="butt" stroke-linejoin="round" />
		</g>
	</g>
</svg>
