<svg width="223" height="221" xmlns="http://www.w3.org/2000/svg" xmlns:xlink="http://www.w3.org/1999/xlink">
	<g id="Modelica.Magnetic.FundamentalWave.Interfaces.NegativePortInterface" class="component">
		<polyline points="11.5,111.5 111.5,111.5 211.5,11.5" fill-opacity="0" stroke="#FF8000" stroke-width="1.0" stroke-linecap="butt" stroke-linejoin="round" />
		<polyline points="111.5,111.5 211.5,211.5" fill-opacity="0" stroke="#FF8000" stroke-width="1.0" stroke-linecap="butt" stroke-linejoin="round" />
		<g id="port" class="port">
			<polygon points="21.5,111.5 21.5,110.6 21.3,109.8 21.2,108.9 20.9,108.1 20.6,107.3 20.2,106.6 19.7,105.8 19.2,105.1 18.6,104.5 18.0,103.9 17.3,103.4 16.6,102.9 15.9,102.5 15.1,102.2 14.3,101.9 13.4,101.7 12.6,101.6 11.7,101.5 10.8,101.5 10.0,101.6 9.1,101.8 8.3,102.0 7.5,102.3 6.7,102.7 6.0,103.1 5.3,103.6 4.7,104.2 4.0,104.8 3.5,105.5 3.0,106.2 2.6,106.9 2.2,107.7 1.9,108.5 1.7,109.4 1.6,110.2 1.5,111.1 1.5,111.9 1.6,112.8 1.7,113.6 1.9,114.5 2.2,115.3 2.6,116.1 3.0,116.8 3.5,117.5 4.0,118.2 4.7,118.8 5.3,119.4 6.0,119.9 6.7,120.3 7.5,120.7 8.3,121.0 9.1,121.2 10.0,121.4 10.8,121.5 11.7,121.5 12.6,121.4 13.4,121.3 14.3,121.1 15.1,120.8 15.9,120.5 16.6,120.1 17.3,119.6 18.0,119.1 18.6,118.5 19.2,117.9 19.7,117.2 20.2,116.4 20.6,115.7 20.9,114.9 21.2,114.1 21.3,113.2 21.5,112.4" fill="#FFFFFF" stroke="#FF8000" stroke-width="1.0" stroke-linecap="butt" stroke-linejoin="round" />
		</g>
		<g id="port_re" class="port">
			<polygon points="201.5,21.5 221.5,21.5 221.5,1.5 201.5,1.5" fill="#FFFFFF" stroke="#FF7F00" stroke-width="1.0" stroke-linecap="butt" stroke-linejoin="round" />
		</g>
		<g id="port_im" class="port">
			<polygon points="201.5,219.5 221.5,219.5 221.5,199.5 201.5,199.5" fill="#FFFFFF" stroke="#FF7F00" stroke-width="1.0" stroke-linecap="butt" stroke-linejoin="round" />
		</g>
	</g>
</svg>
