<svg width="223" height="223" xmlns="http://www.w3.org/2000/svg" xmlns:xlink="http://www.w3.org/1999/xlink">
	<g id="plug_p1" class="port">
		<polygon points="21.5,11.5 21.5,10.6 21.3,9.8 21.2,8.9 20.9,8.1 20.6,7.3 20.2,6.6 19.7,5.8 19.2,5.1 18.6,4.5 18.0,3.9 17.3,3.4 16.6,2.9 15.9,2.5 15.1,2.2 14.3,1.9 13.4,1.7 12.6,1.6 11.7,1.5 10.8,1.5 10.0,1.6 9.1,1.8 8.3,2.0 7.5,2.3 6.7,2.7 6.0,3.1 5.3,3.6 4.7,4.2 4.0,4.8 3.5,5.5 3.0,6.2 2.6,6.9 2.2,7.7 1.9,8.5 1.7,9.4 1.6,10.2 1.5,11.1 1.5,11.9 1.6,12.8 1.7,13.6 1.9,14.5 2.2,15.3 2.6,16.1 3.0,16.8 3.5,17.5 4.0,18.2 4.7,18.8 5.3,19.4 6.0,19.9 6.7,20.3 7.5,20.7 8.3,21.0 9.1,21.2 10.0,21.4 10.8,21.5 11.7,21.5 12.6,21.4 13.4,21.3 14.3,21.1 15.1,20.8 15.9,20.5 16.6,20.1 17.3,19.6 18.0,19.1 18.6,18.5 19.2,17.9 19.7,17.2 20.2,16.4 20.6,15.7 20.9,14.9 21.2,14.1 21.3,13.2 21.5,12.4" fill="#0000FF" stroke="#0000FF" stroke-width="1.0" stroke-linecap="butt" stroke-linejoin="round" />
		<g id="plug_p2" class="port">
			<polygon points="221.5,11.5 221.5,10.6 221.3,9.8 221.2,8.9 220.9,8.1 220.6,7.3 220.2,6.6 219.7,5.8 219.2,5.1 218.6,4.5 218.0,3.9 217.3,3.4 216.6,2.9 215.9,2.5 215.1,2.2 214.3,1.9 213.4,1.7 212.6,1.6 211.7,1.5 210.8,1.5 210.0,1.6 209.1,1.8 208.3,2.0 207.5,2.3 206.7,2.7 206.0,3.1 205.3,3.6 204.7,4.2 204.0,4.8 203.5,5.5 203.0,6.2 202.6,6.9 202.2,7.7 201.9,8.5 201.7,9.4 201.6,10.2 201.5,11.1 201.5,11.9 201.6,12.8 201.7,13.6 201.9,14.5 202.2,15.3 202.6,16.1 203.0,16.8 203.5,17.5 204.0,18.2 204.7,18.8 205.3,19.4 206.0,19.9 206.7,20.3 207.5,20.7 208.3,21.0 209.1,21.2 210.0,21.4 210.8,21.5 211.7,21.5 212.6,21.4 213.4,21.3 214.3,21.1 215.1,20.8 215.9,20.5 216.6,20.1 217.3,19.6 218.0,19.1 218.6,18.5 219.2,17.9 219.7,17.2 220.2,16.4 220.6,15.7 220.9,14.9 221.2,14.1 221.3,13.2 221.5,12.4" fill="#0000FF" stroke="#0000FF" stroke-width="1.0" stroke-linecap="butt" stroke-linejoin="round" />
		</g>
		<g id="plug_n1" class="port">
			<polygon points="21.5,211.5 21.5,210.6 21.3,209.8 21.2,208.9 20.9,208.1 20.6,207.3 20.2,206.6 19.7,205.8 19.2,205.1 18.6,204.5 18.0,203.9 17.3,203.4 16.6,202.9 15.9,202.5 15.1,202.2 14.3,201.9 13.4,201.7 12.6,201.6 11.7,201.5 10.8,201.5 10.0,201.6 9.1,201.8 8.3,202.0 7.5,202.3 6.7,202.7 6.0,203.1 5.3,203.6 4.7,204.2 4.0,204.8 3.5,205.5 3.0,206.2 2.6,206.9 2.2,207.7 1.9,208.5 1.7,209.4 1.6,210.2 1.5,211.1 1.5,211.9 1.6,212.8 1.7,213.6 1.9,214.5 2.2,215.3 2.6,216.1 3.0,216.8 3.5,217.5 4.0,218.2 4.7,218.8 5.3,219.4 6.0,219.9 6.7,220.3 7.5,220.7 8.3,221.0 9.1,221.2 10.0,221.4 10.8,221.5 11.7,221.5 12.6,221.4 13.4,221.3 14.3,221.1 15.1,220.8 15.9,220.5 16.6,220.1 17.3,219.6 18.0,219.1 18.6,218.5 19.2,217.9 19.7,217.2 20.2,216.4 20.6,215.7 20.9,214.9 21.2,214.1 21.3,213.2 21.5,212.4" fill="#FFFFFF" stroke="#0000FF" stroke-width="1.0" stroke-linecap="butt" stroke-linejoin="round" />
		</g>
		<g id="plug_n2" class="port">
			<polygon points="221.5,211.5 221.5,210.6 221.3,209.8 221.2,208.9 220.9,208.1 220.6,207.3 220.2,206.6 219.7,205.8 219.2,205.1 218.6,204.5 218.0,203.9 217.3,203.4 216.6,202.9 215.9,202.5 215.1,202.2 214.3,201.9 213.4,201.7 212.6,201.6 211.7,201.5 210.8,201.5 210.0,201.6 209.1,201.8 208.3,202.0 207.5,202.3 206.7,202.7 206.0,203.1 205.3,203.6 204.7,204.2 204.0,204.8 203.5,205.5 203.0,206.2 202.6,206.9 202.2,207.7 201.9,208.5 201.7,209.4 201.6,210.2 201.5,211.1 201.5,211.9 201.6,212.8 201.7,213.6 201.9,214.5 202.2,215.3 202.6,216.1 203.0,216.8 203.5,217.5 204.0,218.2 204.7,218.8 205.3,219.4 206.0,219.9 206.7,220.3 207.5,220.7 208.3,221.0 209.1,221.2 210.0,221.4 210.8,221.5 211.7,221.5 212.6,221.4 213.4,221.3 214.3,221.1 215.1,220.8 215.9,220.5 216.6,220.1 217.3,219.6 218.0,219.1 218.6,218.5 219.2,217.9 219.7,217.2 220.2,216.4 220.6,215.7 220.9,214.9 221.2,214.1 221.3,213.2 221.5,212.4" fill="#FFFFFF" stroke="#0000FF" stroke-width="1.0" stroke-linecap="butt" stroke-linejoin="round" />
		</g>
	</g>
</svg>
