<svg width="253" height="203" xmlns="http://www.w3.org/2000/svg" xmlns:xlink="http://www.w3.org/1999/xlink">
	<g id="Modelica.Blocks.MathBoolean.Nor" class="component">
		<polygon points="21.5,201.5 221.5,201.5 221.5,1.5 21.5,1.5" fill="#D7D7D7" stroke="#000000" stroke-width="1.5" stroke-linecap="butt" stroke-linejoin="round" />
		<polyline points="24.5,200.0 220.0,200.0 220.0,4.5" fill-opacity="0" stroke="#6C6C6C" stroke-width="3.0" stroke-linecap="butt" stroke-linejoin="round" />
		<polyline points="23.0,198.5 23.0,3.0 218.5,3.0" fill-opacity="0" stroke="#EBEBEB" stroke-width="3.0" stroke-linecap="butt" stroke-linejoin="round" />
		<polygon points="201.5,101.5 201.4,100.6 201.3,99.8 201.1,98.9 200.9,98.1 200.6,97.3 200.2,96.6 199.7,95.8 199.2,95.1 198.6,94.5 198.0,93.9 197.3,93.4 196.6,92.9 195.8,92.5 195.1,92.2 194.2,91.9 193.4,91.7 192.6,91.6 191.7,91.5 190.8,91.5 190.0,91.6 189.1,91.8 188.3,92.0 187.5,92.3 186.7,92.7 186.0,93.1 185.3,93.6 184.6,94.2 184.0,94.8 183.5,95.5 183.0,96.2 182.6,96.9 182.2,97.7 181.9,98.5 181.7,99.4 181.6,100.2 181.5,101.1 181.5,101.9 181.6,102.8 181.7,103.6 181.9,104.5 182.2,105.3 182.6,106.1 183.0,106.8 183.5,107.5 184.0,108.2 184.6,108.8 185.3,109.4 186.0,109.9 186.7,110.3 187.5,110.7 188.3,111.0 189.1,111.2 190.0,111.4 190.8,111.5 191.7,111.5 192.6,111.4 193.4,111.3 194.2,111.1 195.1,110.8 195.8,110.5 196.6,110.1 197.3,109.6 198.0,109.1 198.6,108.5 199.2,107.9 199.7,107.2 200.2,106.4 200.6,105.7 200.9,104.9 201.1,104.1 201.3,103.2 201.4,102.4" fill="#EBEBEB" stroke="#EBEBEB" stroke-width="1.0" stroke-linecap="butt" stroke-linejoin="round" />
		<text x="111.5" y="136.6" text-anchor="middle" fill="#000000" font-size="98.2px" font-family="sans-serif">nor</text>
		<g id="u" class="port">
			<polygon points="41.5,101.5 41.4,107.5 41.2,113.5 40.8,119.4 40.3,125.1 39.7,130.7 38.9,136.1 38.0,141.2 36.9,146.0 35.8,150.5 34.5,154.6 33.2,158.3 31.7,161.6 30.2,164.5 28.6,166.9 27.0,168.8 25.3,170.2 23.6,171.1 21.9,171.5 20.2,171.4 18.5,170.7 16.8,169.5 15.1,167.9 13.5,165.7 12.0,163.1 10.5,160.0 9.1,156.5 7.8,152.6 6.6,148.3 5.5,143.6 4.5,138.7 3.7,133.4 3.0,127.9 2.4,122.3 1.9,116.4 1.6,110.5 1.5,104.5 1.5,98.5 1.6,92.5 1.9,86.6 2.4,80.7 3.0,75.1 3.7,69.6 4.5,64.3 5.5,59.4 6.6,54.7 7.8,50.4 9.1,46.5 10.5,43.0 12.0,39.9 13.5,37.3 15.1,35.1 16.8,33.5 18.5,32.3 20.2,31.6 21.9,31.5 23.6,31.9 25.3,32.8 27.0,34.2 28.6,36.1 30.2,38.5 31.7,41.4 33.2,44.7 34.5,48.4 35.8,52.5 36.9,57.0 38.0,61.8 38.9,66.9 39.7,72.3 40.3,77.9 40.8,83.6 41.2,89.5 41.4,95.5" fill="#FF00FF" stroke="#FF00FF" stroke-width="1.0" stroke-linecap="butt" stroke-linejoin="round" />
		</g>
		<g id="y" class="port">
			<polygon points="221.5,86.5 251.5,101.5 221.5,116.5" fill="#FFFFFF" stroke="#FF00FF" stroke-width="1.0" stroke-linecap="butt" stroke-linejoin="round" />
		</g>
	</g>
</svg>
