<svg width="223" height="203" xmlns="http://www.w3.org/2000/svg" xmlns:xlink="http://www.w3.org/1999/xlink">
	<g id="Modelica.Electrical.MultiPhase.Basic.ZeroInductor" class="component">
		<polyline points="21.5,101.5 61.5,101.5" fill-opacity="0" stroke="#0000FF" stroke-width="1.0" stroke-linecap="round" stroke-linejoin="round" />
		<polyline points="163.5,101.5 201.5,101.5" fill-opacity="0" stroke="#0000FF" stroke-width="1.0" stroke-linecap="round" stroke-linejoin="round" />
		<polygon points="103.5,102.5 103.4,99.8 103.2,97.2 102.8,94.6 102.3,92.0 101.6,89.6 100.8,87.2 99.8,84.9 98.7,82.8 97.5,80.8 96.2,79.0 94.8,77.3 93.3,75.9 91.7,74.6 90.0,73.6 88.3,72.7 86.5,72.1 84.7,71.7 82.9,71.5 81.1,71.6 79.3,71.9 77.6,72.4 75.8,73.1 74.1,74.1 72.5,75.2 71.0,76.6 69.5,78.1 68.1,79.9 66.9,81.8 65.7,83.8 64.7,86.0 63.8,88.4 63.0,90.8 62.4,93.3 62.0,95.9 61.7,98.5 61.5,101.2 61.5,103.8 61.7,106.5 62.0,109.1 62.4,111.7 63.0,114.2 63.8,116.6 64.7,119.0 65.7,121.2 66.9,123.2 68.1,125.1 69.5,126.9 71.0,128.4 72.5,129.8 74.1,130.9 75.8,131.9 77.6,132.6 79.3,133.1 81.1,133.4 82.9,133.5 84.7,133.3 86.5,132.9 88.3,132.3 90.0,131.4 91.7,130.4 93.3,129.1 94.8,127.7 96.2,126.0 97.5,124.2 98.7,122.2 99.8,120.1 100.8,117.8 101.6,115.4 102.3,113.0 102.8,110.4 103.2,107.8 103.4,105.2" fill-opacity="0" stroke="#0000FF" stroke-width="1.0" stroke-linecap="round" stroke-linejoin="round" />
		<polygon points="133.5,102.5 133.4,99.8 133.2,97.2 132.8,94.6 132.3,92.0 131.6,89.6 130.8,87.2 129.8,84.9 128.7,82.8 127.5,80.8 126.2,79.0 124.8,77.3 123.3,75.9 121.7,74.6 120.0,73.6 118.3,72.7 116.5,72.1 114.7,71.7 112.9,71.5 111.1,71.6 109.3,71.9 107.6,72.4 105.8,73.1 104.1,74.1 102.5,75.2 101.0,76.6 99.5,78.1 98.1,79.9 96.9,81.8 95.7,83.8 94.7,86.0 93.8,88.4 93.0,90.8 92.4,93.3 92.0,95.9 91.7,98.5 91.5,101.2 91.5,103.8 91.7,106.5 92.0,109.1 92.4,111.7 93.0,114.2 93.8,116.6 94.7,119.0 95.7,121.2 96.9,123.2 98.1,125.1 99.5,126.9 101.0,128.4 102.5,129.8 104.1,130.9 105.8,131.9 107.6,132.6 109.3,133.1 111.1,133.4 112.9,133.5 114.7,133.3 116.5,132.9 118.3,132.3 120.0,131.4 121.7,130.4 123.3,129.1 124.8,127.7 126.2,126.0 127.5,124.2 128.7,122.2 129.8,120.1 130.8,117.8 131.6,115.4 132.3,113.0 132.8,110.4 133.2,107.8 133.4,105.2" fill-opacity="0" stroke="#0000FF" stroke-width="1.0" stroke-linecap="round" stroke-linejoin="round" />
		<polygon points="163.5,102.5 163.4,99.8 163.2,97.2 162.8,94.6 162.3,92.0 161.6,89.6 160.8,87.2 159.8,84.9 158.7,82.8 157.5,80.8 156.2,79.0 154.8,77.3 153.3,75.9 151.7,74.6 150.0,73.6 148.3,72.7 146.5,72.1 144.7,71.7 142.9,71.5 141.1,71.6 139.3,71.9 137.6,72.4 135.8,73.1 134.1,74.1 132.5,75.2 131.0,76.6 129.5,78.1 128.1,79.9 126.9,81.8 125.7,83.8 124.7,86.0 123.8,88.4 123.0,90.8 122.4,93.3 122.0,95.9 121.7,98.5 121.5,101.2 121.5,103.8 121.7,106.5 122.0,109.1 122.4,111.7 123.0,114.2 123.8,116.6 124.7,119.0 125.7,121.2 126.9,123.2 128.1,125.1 129.5,126.9 131.0,128.4 132.5,129.8 134.1,130.9 135.8,131.9 137.6,132.6 139.3,133.1 141.1,133.4 142.9,133.5 144.7,133.3 146.5,132.9 148.3,132.3 150.0,131.4 151.7,130.4 153.3,129.1 154.8,127.7 156.2,126.0 157.5,124.2 158.7,122.2 159.8,120.1 160.8,117.8 161.6,115.4 162.3,113.0 162.8,110.4 163.2,107.8 163.4,105.2" fill-opacity="0" stroke="#0000FF" stroke-width="1.0" stroke-linecap="round" stroke-linejoin="round" />
		<g id="plug_p" class="port">
			<polygon points="21.5,101.5 21.5,100.6 21.3,99.8 21.2,98.9 20.9,98.1 20.6,97.3 20.2,96.6 19.7,95.8 19.2,95.1 18.6,94.5 18.0,93.9 17.3,93.4 16.6,92.9 15.9,92.5 15.1,92.2 14.3,91.9 13.4,91.7 12.6,91.6 11.7,91.5 10.8,91.5 10.0,91.6 9.1,91.8 8.3,92.0 7.5,92.3 6.7,92.7 6.0,93.1 5.3,93.6 4.7,94.2 4.0,94.8 3.5,95.5 3.0,96.2 2.6,96.9 2.2,97.7 1.9,98.5 1.7,99.4 1.6,100.2 1.5,101.1 1.5,101.9 1.6,102.8 1.7,103.6 1.9,104.5 2.2,105.3 2.6,106.1 3.0,106.8 3.5,107.5 4.0,108.2 4.7,108.8 5.3,109.4 6.0,109.9 6.7,110.3 7.5,110.7 8.3,111.0 9.1,111.2 10.0,111.4 10.8,111.5 11.7,111.5 12.6,111.4 13.4,111.3 14.3,111.1 15.1,110.8 15.9,110.5 16.6,110.1 17.3,109.6 18.0,109.1 18.6,108.5 19.2,107.9 19.7,107.2 20.2,106.4 20.6,105.7 20.9,104.9 21.2,104.1 21.3,103.2 21.5,102.4" fill="#0000FF" stroke="#0000FF" stroke-width="1.0" stroke-linecap="round" stroke-linejoin="round" />
		</g>
		<g id="plug_n" class="port">
			<polygon points="221.5,101.5 221.5,100.6 221.3,99.8 221.2,98.9 220.9,98.1 220.6,97.3 220.2,96.6 219.7,95.8 219.2,95.1 218.6,94.5 218.0,93.9 217.3,93.4 216.6,92.9 215.9,92.5 215.1,92.2 214.3,91.9 213.4,91.7 212.6,91.6 211.7,91.5 210.8,91.5 210.0,91.6 209.1,91.8 208.3,92.0 207.5,92.3 206.7,92.7 206.0,93.1 205.3,93.6 204.7,94.2 204.0,94.8 203.5,95.5 203.0,96.2 202.6,96.9 202.2,97.7 201.9,98.5 201.7,99.4 201.6,100.2 201.5,101.1 201.5,101.9 201.6,102.8 201.7,103.6 201.9,104.5 202.2,105.3 202.6,106.1 203.0,106.8 203.5,107.5 204.0,108.2 204.7,108.8 205.3,109.4 206.0,109.9 206.7,110.3 207.5,110.7 208.3,111.0 209.1,111.2 210.0,111.4 210.8,111.5 211.7,111.5 212.6,111.4 213.4,111.3 214.3,111.1 215.1,110.8 215.9,110.5 216.6,110.1 217.3,109.6 218.0,109.1 218.6,108.5 219.2,107.9 219.7,107.2 220.2,106.4 220.6,105.7 220.9,104.9 221.2,104.1 221.3,103.2 221.5,102.4" fill="#FFFFFF" stroke="#0000FF" stroke-width="1.0" stroke-linecap="round" stroke-linejoin="round" />
		</g>
	</g>
</svg>
