<svg width="223" height="203" xmlns="http://www.w3.org/2000/svg" xmlns:xlink="http://www.w3.org/1999/xlink">
	<g id="Modelica.Electrical.Analog.Examples.Utilities.Transistor" class="component">
		<polygon points="31.5,181.5 191.5,181.5 191.5,21.5 31.5,21.5" fill="#FFFFFF" stroke="#0000FF" stroke-width="1.0" stroke-linecap="butt" stroke-linejoin="round" />
		<polyline points="191.5,41.5 211.5,41.5" fill-opacity="0" stroke="#0000FF" stroke-width="1.0" stroke-linecap="butt" stroke-linejoin="round" />
		<polyline points="191.5,161.5 211.5,161.5" fill-opacity="0" stroke="#0000FF" stroke-width="1.0" stroke-linecap="butt" stroke-linejoin="round" />
		<polyline points="11.5,101.5 31.5,101.5" fill-opacity="0" stroke="#0000FF" stroke-width="1.0" stroke-linecap="butt" stroke-linejoin="round" />
		<polyline points="51.5,101.5 101.5,101.5" fill-opacity="0" stroke="#0000FF" stroke-width="1.0" stroke-linecap="butt" stroke-linejoin="round" />
		<polyline points="101.5,61.5 101.5,141.5" fill-opacity="0" stroke="#0000FF" stroke-width="1.0" stroke-linecap="butt" stroke-linejoin="round" />
		<polyline points="171.5,41.5 151.5,41.5 101.5,91.5" fill-opacity="0" stroke="#0000FF" stroke-width="1.0" stroke-linecap="butt" stroke-linejoin="round" />
		<polyline points="101.5,111.5 151.5,161.5 171.5,161.5" fill-opacity="0" stroke="#0000FF" stroke-width="1.0" stroke-linecap="butt" stroke-linejoin="round" />
		<g id="c" class="port">
			<polygon points="201.5,51.5 221.5,51.5 221.5,31.5 201.5,31.5" fill="#0000FF" stroke="#0000FF" stroke-width="1.0" stroke-linecap="butt" stroke-linejoin="round" />
		</g>
		<g id="b" class="port">
			<polygon points="1.5,111.5 21.5,111.5 21.5,91.5 1.5,91.5" fill="#0000FF" stroke="#0000FF" stroke-width="1.0" stroke-linecap="butt" stroke-linejoin="round" />
		</g>
		<g id="e" class="port">
			<polygon points="201.5,171.5 221.5,171.5 221.5,151.5 201.5,151.5" fill="#0000FF" stroke="#0000FF" stroke-width="1.0" stroke-linecap="butt" stroke-linejoin="round" />
		</g>
	</g>
</svg>
