<svg width="213" height="203" xmlns="http://www.w3.org/2000/svg" xmlns:xlink="http://www.w3.org/1999/xlink">
	<g id="Modelica.Mechanics.MultiBody.Joints.Universal" class="component">
		<defs>
			<linearGradient id="cyl2" x1="0" y1="0" x2="0" y2="1">
				<stop offset="0%" stop-color="#000000" />
				<stop offset="5%" stop-color="#2D2D2D" />
				<stop offset="10%" stop-color="#555555" />
				<stop offset="15%" stop-color="#787878" />
				<stop offset="20%" stop-color="#969696" />
				<stop offset="25%" stop-color="#B0B0B0" />
				<stop offset="30%" stop-color="#C5C5C5" />
				<stop offset="35%" stop-color="#D6D6D6" />
				<stop offset="40%" stop-color="#E2E2E2" />
				<stop offset="45%" stop-color="#E9E9E9" />
				<stop offset="50%" stop-color="#EBEBEB" />
				<stop offset="55%" stop-color="#E9E9E9" />
				<stop offset="60%" stop-color="#E2E2E2" />
				<stop offset="65%" stop-color="#D6D6D6" />
				<stop offset="70%" stop-color="#C5C5C5" />
				<stop offset="75%" stop-color="#B0B0B0" />
				<stop offset="80%" stop-color="#969696" />
				<stop offset="85%" stop-color="#787878" />
				<stop offset="90%" stop-color="#555555" />
				<stop offset="95%" stop-color="#2D2D2D" />
				<stop offset="100%" stop-color="#000000" />
			</linearGradient>
		</defs>
		<polygon points="6.3,116.5 41.3,116.5 41.3,86.5 6.3,86.5" fill="url(#cyl2)" stroke="#000000" stroke-width="1.0" stroke-linecap="round" stroke-linejoin="round" />
		<polygon points="186.3,101.5 186.0,94.6 185.1,87.8 183.6,81.1 181.6,74.5 179.0,68.1 175.9,62.0 172.2,56.2 168.1,50.7 163.5,45.5 158.5,40.8 153.0,36.6 147.3,32.8 141.2,29.5 134.9,26.8 128.4,24.6 121.7,23.0 114.9,22.0 108.0,21.5 101.1,21.7 94.3,22.4 87.5,23.7 80.9,25.6 74.5,28.1 68.3,31.1 62.4,34.6 56.8,38.6 51.6,43.1 46.8,48.1 42.4,53.4 38.5,59.0 35.1,65.0 32.2,71.3 29.9,77.8 28.1,84.4 27.0,91.2 26.4,98.1 26.4,104.9 27.0,111.8 28.1,118.6 29.9,125.2 32.2,131.7 35.1,138.0 38.5,144.0 42.4,149.6 46.8,154.9 51.6,159.9 56.8,164.4 62.4,168.4 68.3,171.9 74.5,174.9 80.9,177.4 87.5,179.3 94.3,180.6 101.1,181.3 108.0,181.5 114.9,181.0 121.7,180.0 128.4,178.4 134.9,176.2 141.2,173.5 147.3,170.2 153.0,166.4 158.5,162.2 163.5,157.5 168.1,152.3 172.2,146.8 175.9,141.0 179.0,134.9 181.6,128.5 183.6,121.9 185.1,115.2 186.0,108.4" fill="#C0C0C0" stroke="#A0A0A4" stroke-width="1.0" stroke-linecap="round" stroke-linejoin="round" />
		<polygon points="166.3,101.5 166.1,96.3 165.4,91.2 164.3,86.2 162.8,81.2 160.8,76.5 158.5,71.9 155.7,67.5 152.6,63.4 149.2,59.5 145.4,56.0 141.4,52.8 137.0,50.0 132.5,47.5 127.8,45.5 122.9,43.8 117.8,42.6 112.7,41.8 107.6,41.5 102.4,41.6 97.3,42.2 92.2,43.2 87.3,44.6 82.4,46.4 77.8,48.7 73.4,51.3 69.2,54.4 65.3,57.7 61.7,61.4 58.4,65.4 55.4,69.7 52.9,74.1 50.7,78.8 49.0,83.7 47.7,88.7 46.8,93.8 46.4,98.9 46.4,104.1 46.8,109.2 47.7,114.3 49.0,119.3 50.7,124.2 52.9,128.9 55.4,133.3 58.4,137.6 61.7,141.6 65.3,145.3 69.2,148.6 73.4,151.7 77.8,154.3 82.4,156.6 87.3,158.4 92.2,159.8 97.3,160.8 102.4,161.4 107.6,161.5 112.7,161.2 117.8,160.4 122.9,159.2 127.8,157.5 132.5,155.5 137.0,153.0 141.4,150.2 145.4,147.0 149.2,143.5 152.6,139.6 155.7,135.5 158.5,131.1 160.8,126.5 162.8,121.8 164.3,116.8 165.4,111.8 166.1,106.7" fill="#FFFFFF" stroke="#A0A0A4" stroke-width="1.0" stroke-linecap="round" stroke-linejoin="round" />
		<polygon points="118.3,183.5 186.3,183.5 186.3,19.5 118.3,19.5" fill="#FFFFFF" stroke="#FFFFFF" stroke-width="1.0" stroke-linecap="round" stroke-linejoin="round" />
		<defs>
			<linearGradient id="cyl6" x1="0" y1="0" x2="0" y2="1">
				<stop offset="0%" stop-color="#000000" />
				<stop offset="5%" stop-color="#2D2D2D" />
				<stop offset="10%" stop-color="#555555" />
				<stop offset="15%" stop-color="#787878" />
				<stop offset="20%" stop-color="#969696" />
				<stop offset="25%" stop-color="#B0B0B0" />
				<stop offset="30%" stop-color="#C5C5C5" />
				<stop offset="35%" stop-color="#D6D6D6" />
				<stop offset="40%" stop-color="#E2E2E2" />
				<stop offset="45%" stop-color="#E9E9E9" />
				<stop offset="50%" stop-color="#EBEBEB" />
				<stop offset="55%" stop-color="#E9E9E9" />
				<stop offset="60%" stop-color="#E2E2E2" />
				<stop offset="65%" stop-color="#D6D6D6" />
				<stop offset="70%" stop-color="#C5C5C5" />
				<stop offset="75%" stop-color="#B0B0B0" />
				<stop offset="80%" stop-color="#969696" />
				<stop offset="85%" stop-color="#787878" />
				<stop offset="90%" stop-color="#555555" />
				<stop offset="95%" stop-color="#2D2D2D" />
				<stop offset="100%" stop-color="#000000" />
			</linearGradient>
		</defs>
		<polygon points="162.3,116.5 206.3,116.5 206.3,86.5 162.3,86.5" fill="url(#cyl6)" stroke="#000000" stroke-width="1.0" stroke-linecap="round" stroke-linejoin="round" />
		<polyline points="118.3,23.5 118.3,179.5" fill-opacity="0" stroke="#000000" stroke-width="1.0" stroke-linecap="round" stroke-linejoin="round" />
		<polygon points="186.3,101.5 186.1,98.1 185.3,94.6 184.1,91.3 182.4,88.0 180.3,84.8 177.7,81.7 174.7,78.8 171.3,76.1 167.5,73.5 163.3,71.2 158.9,69.0 154.1,67.1 149.1,65.5 143.9,64.1 138.5,63.1 133.0,62.2 127.4,61.7 121.7,61.5 116.0,61.6 110.4,62.0 104.8,62.6 99.4,63.6 94.1,64.8 89.0,66.3 84.1,68.1 79.5,70.1 75.2,72.3 71.2,74.8 67.6,77.4 64.4,80.3 61.6,83.3 59.2,86.4 57.3,89.6 55.8,93.0 54.8,96.4 54.4,99.8 54.4,103.2 54.8,106.6 55.8,110.0 57.3,113.4 59.2,116.6 61.6,119.7 64.4,122.7 67.6,125.6 71.2,128.2 75.2,130.7 79.5,132.9 84.1,134.9 89.0,136.7 94.1,138.2 99.4,139.4 104.8,140.4 110.4,141.0 116.0,141.4 121.7,141.5 127.4,141.3 133.0,140.8 138.5,139.9 143.9,138.9 149.1,137.5 154.1,135.9 158.9,134.0 163.3,131.8 167.5,129.5 171.3,126.9 174.7,124.2 177.7,121.3 180.3,118.2 182.4,115.0 184.1,111.7 185.3,108.4 186.1,104.9" fill="#C0C0C0" stroke="#A0A0A4" stroke-width="1.0" stroke-linecap="round" stroke-linejoin="round" />
		<polygon points="166.3,98.5 166.1,96.5 165.6,94.6 164.8,92.6 163.6,90.7 162.1,88.9 160.3,87.1 158.2,85.5 155.8,83.9 153.2,82.4 150.3,81.1 147.2,79.8 143.9,78.7 140.4,77.8 136.8,77.0 133.0,76.4 129.2,75.9 125.2,75.6 121.3,75.5 117.3,75.5 113.4,75.8 109.5,76.1 105.7,76.7 102.0,77.4 98.5,78.3 95.1,79.3 91.8,80.4 88.8,81.7 86.1,83.1 83.6,84.7 81.3,86.3 79.4,88.0 77.7,89.8 76.4,91.7 75.4,93.6 74.7,95.5 74.3,97.5 74.3,99.5 74.7,101.5 75.4,103.4 76.4,105.3 77.7,107.2 79.4,109.0 81.3,110.7 83.6,112.3 86.1,113.9 88.8,115.3 91.8,116.6 95.1,117.7 98.5,118.7 102.0,119.6 105.7,120.3 109.5,120.9 113.4,121.2 117.3,121.5 121.3,121.5 125.2,121.4 129.2,121.1 133.0,120.6 136.8,120.0 140.4,119.2 143.9,118.3 147.2,117.2 150.3,115.9 153.2,114.6 155.8,113.1 158.2,111.5 160.3,109.9 162.1,108.1 163.6,106.3 164.8,104.4 165.6,102.4 166.1,100.5" fill="#FFFFFF" stroke="#A0A0A4" stroke-width="1.0" stroke-linecap="round" stroke-linejoin="round" />
		<polygon points="84.3,155.5 46.3,101.5 84.3,51.5 146.3,49.5" fill="#FFFFFF" stroke-opacity="0" stroke-width="1.0" stroke-linecap="round" stroke-linejoin="round" />
		<polyline points="118.3,23.5 118.3,121.5" fill-opacity="0" stroke="#000000" stroke-width="1.0" stroke-linecap="round" stroke-linejoin="round" />
		<polyline points="138.3,63.5 94.3,137.5" fill-opacity="0" stroke="#000000" stroke-width="1.0" stroke-linecap="round" stroke-linejoin="round" />
		<g id="frame_a" class="port">
			<polygon points="4.7,103.1 7.9,103.1 7.9,99.9 4.7,99.9" fill-opacity="0" stroke="#5F5F5F" stroke-width="1.0" stroke-linecap="round" stroke-linejoin="round" />
			<polygon points="1.5,117.5 11.1,117.5 11.1,85.5 1.5,85.5" fill="#C0C0C0" stroke="#000000" stroke-width="1.0" stroke-linecap="round" stroke-linejoin="round" />
		</g>
		<g id="frame_b" class="port">
			<polygon points="204.7,103.1 207.9,103.1 207.9,99.9 204.7,99.9" fill-opacity="0" stroke="#5F5F5F" stroke-width="1.0" stroke-linecap="round" stroke-linejoin="round" />
			<polygon points="201.5,117.5 211.1,117.5 211.1,85.5 201.5,85.5" fill="#FFFFFF" stroke="#000000" stroke-width="1.0" stroke-linecap="round" stroke-linejoin="round" />
		</g>
	</g>
</svg>
