<svg width="203" height="203" xmlns="http://www.w3.org/2000/svg" xmlns:xlink="http://www.w3.org/1999/xlink">
	<g id="Modelica.Blocks.Types" class="component">
		<defs>
			<linearGradient id="cyl2" x1="0" y1="0" x2="0" y2="1">
				<stop offset="0%" stop-color="#C8C8C8" />
				<stop offset="5%" stop-color="#D1D1D1" />
				<stop offset="10%" stop-color="#D9D9D9" />
				<stop offset="15%" stop-color="#E0E0E0" />
				<stop offset="20%" stop-color="#E7E7E7" />
				<stop offset="25%" stop-color="#ECECEC" />
				<stop offset="30%" stop-color="#F0F0F0" />
				<stop offset="35%" stop-color="#F4F4F4" />
				<stop offset="40%" stop-color="#F6F6F6" />
				<stop offset="45%" stop-color="#F8F8F8" />
				<stop offset="50%" stop-color="#F8F8F8" />
				<stop offset="55%" stop-color="#F8F8F8" />
				<stop offset="60%" stop-color="#F6F6F6" />
				<stop offset="65%" stop-color="#F4F4F4" />
				<stop offset="70%" stop-color="#F0F0F0" />
				<stop offset="75%" stop-color="#ECECEC" />
				<stop offset="80%" stop-color="#E7E7E7" />
				<stop offset="85%" stop-color="#E0E0E0" />
				<stop offset="90%" stop-color="#D9D9D9" />
				<stop offset="95%" stop-color="#D1D1D1" />
				<stop offset="100%" stop-color="#C8C8C8" />
			</linearGradient>
		</defs>
		<polygon points="8.8,194.2 11.0,196.1 13.3,197.8 15.7,199.1 18.2,200.2 20.8,200.9 23.6,201.4 26.5,201.5 26.5,201.5 50.4,201.5 101.5,201.5 101.5,201.5 152.6,201.5 176.5,201.5 176.5,201.5 179.4,201.4 182.2,200.9 184.8,200.2 187.3,199.1 189.7,197.8 192.0,196.1 194.2,194.2 194.2,194.2 196.1,192.0 197.8,189.7 199.1,187.3 200.2,184.8 200.9,182.2 201.4,179.4 201.5,176.5 201.5,176.5 201.5,152.6 201.5,101.5 201.5,101.5 201.5,50.4 201.5,26.5 201.5,26.5 201.4,23.6 200.9,20.8 200.2,18.2 199.1,15.7 197.8,13.3 196.1,11.0 194.2,8.8 194.2,8.8 192.0,6.9 189.7,5.2 187.3,3.9 184.8,2.8 182.2,2.1 179.4,1.6 176.5,1.5 176.5,1.5 152.6,1.5 101.5,1.5 101.5,1.5 50.4,1.5 26.5,1.5 26.5,1.5 23.6,1.6 20.8,2.1 18.2,2.8 15.7,3.9 13.3,5.2 11.0,6.9 8.8,8.8 8.8,8.8 6.9,11.0 5.2,13.3 3.9,15.7 2.8,18.2 2.1,20.8 1.6,23.6 1.5,26.5 1.5,26.5 1.5,50.4 1.5,101.5 1.5,101.5 1.5,152.6 1.5,176.5 1.5,176.5 1.6,179.4 2.1,182.2 2.8,184.8 3.9,187.3 5.2,189.7 6.9,192.0" fill="url(#cyl2)" stroke="#C8C8C8" stroke-width="1.0" stroke-linecap="round" stroke-linejoin="round" />
		<polygon points="8.8,194.2 11.0,196.1 13.3,197.8 15.7,199.1 18.2,200.2 20.8,200.9 23.6,201.4 26.5,201.5 26.5,201.5 50.4,201.5 101.5,201.5 101.5,201.5 152.6,201.5 176.5,201.5 176.5,201.5 179.4,201.4 182.2,200.9 184.8,200.2 187.3,199.1 189.7,197.8 192.0,196.1 194.2,194.2 194.2,194.2 196.1,192.0 197.8,189.7 199.1,187.3 200.2,184.8 200.9,182.2 201.4,179.4 201.5,176.5 201.5,176.5 201.5,152.6 201.5,101.5 201.5,101.5 201.5,50.4 201.5,26.5 201.5,26.5 201.4,23.6 200.9,20.8 200.2,18.2 199.1,15.7 197.8,13.3 196.1,11.0 194.2,8.8 194.2,8.8 192.0,6.9 189.7,5.2 187.3,3.9 184.8,2.8 182.2,2.1 179.4,1.6 176.5,1.5 176.5,1.5 152.6,1.5 101.5,1.5 101.5,1.5 50.4,1.5 26.5,1.5 26.5,1.5 23.6,1.6 20.8,2.1 18.2,2.8 15.7,3.9 13.3,5.2 11.0,6.9 8.8,8.8 8.8,8.8 6.9,11.0 5.2,13.3 3.9,15.7 2.8,18.2 2.1,20.8 1.6,23.6 1.5,26.5 1.5,26.5 1.5,50.4 1.5,101.5 1.5,101.5 1.5,152.6 1.5,176.5 1.5,176.5 1.6,179.4 2.1,182.2 2.8,184.8 3.9,187.3 5.2,189.7 6.9,192.0" fill-opacity="0" stroke="#808080" stroke-width="1.0" stroke-linecap="round" stroke-linejoin="round" />
		<polygon points="97.5,82.0 99.3,71.3 100.8,61.6 101.8,53.0 102.5,45.5 102.5,45.5 103.0,41.8 103.9,38.8 105.2,36.4 106.9,34.7 109.0,33.7 111.6,33.3 114.5,33.5 114.5,33.5 116.4,34.1 117.9,35.3 119.2,37.0 120.3,39.3 121.0,42.0 121.4,45.4 121.6,49.2 121.5,53.6 121.1,58.5 120.5,64.0 119.5,70.0 119.5,70.0 117.7,79.7 115.7,88.9 113.6,97.8 111.3,106.3 108.9,114.4 106.3,122.2 103.5,129.5 103.5,129.5 101.5,134.7 99.8,139.4 98.5,143.4 97.6,146.8 97.0,149.6 96.8,151.7 97.0,153.3 97.6,154.2 98.5,154.5 98.5,154.5 103.5,154.5 108.5,154.5 108.5,154.5 110.7,154.8 112.2,155.8 113.2,157.3 113.5,159.5 113.5,159.5 113.2,160.9 112.3,162.4 110.7,163.8 108.6,165.2 105.8,166.6 102.5,168.1 98.5,169.5 98.5,169.5 94.4,170.6 90.7,171.1 87.5,171.0 84.6,170.3 82.2,169.0 80.1,167.1 78.5,164.5 78.5,164.5 77.7,162.6 77.2,160.4 76.9,157.9 76.8,155.2 77.1,152.3 77.5,149.1 78.2,145.7 79.2,142.0 80.4,138.1 81.8,133.9 83.5,129.5 83.5,129.5 86.2,122.4 88.7,115.4 91.0,108.5 93.0,101.7 94.7,95.1 96.2,88.5" fill="#808080" stroke-opacity="0" stroke-width="1.0" stroke-linecap="round" stroke-linejoin="round" />
		<polygon points="153.5,81.5 153.1,80.0 152.1,78.8 150.3,77.8 147.7,77.0 144.5,76.5 144.5,76.5 141.9,76.3 139.1,76.3 136.2,76.4 133.2,76.7 130.1,77.1 126.9,77.7 123.5,78.5 123.5,78.5 110.2,81.8 94.5,85.5 94.5,85.5 90.4,86.4 86.4,87.1 82.7,87.7 79.2,88.0 76.0,88.2 72.9,88.1 70.1,87.9 67.5,87.5 67.5,87.5 63.1,86.9 59.8,87.0 57.6,87.9 56.5,89.5 56.5,89.5 56.5,91.1 57.1,92.5 58.5,93.9 60.7,95.3 63.5,96.5 63.5,96.5 65.9,97.3 68.5,97.8 71.3,98.2 74.3,98.3 77.5,98.2 80.9,98.0 84.5,97.5 84.5,97.5 91.4,96.3 99.2,94.8 107.9,92.8 117.5,90.5 117.5,90.5 122.3,89.3 126.8,88.3 130.8,87.5 134.5,86.8 137.8,86.2 140.8,85.8 143.3,85.6 145.5,85.5 145.5,85.5 149.0,85.2 151.5,84.5 153.0,83.2" fill="#808080" stroke-opacity="0" stroke-width="1.0" stroke-linecap="round" stroke-linejoin="round" />
	</g>
</svg>
