<svg width="207" height="207" xmlns="http://www.w3.org/2000/svg" xmlns:xlink="http://www.w3.org/1999/xlink">
	<g id="Modelica.Media.Examples.Tests.Components.FluidPort_b" class="component">
		<polygon points="1.5,205.5 205.5,205.5 205.5,1.5 1.5,1.5" fill-opacity="0" stroke="#FF0000" stroke-dasharray="3 4" stroke-width="1.0" stroke-linecap="round" stroke-linejoin="round" />
		<polygon points="203.5,103.5 203.1,94.9 202.0,86.4 200.2,78.0 197.6,69.7 194.4,61.8 190.5,54.1 185.9,46.8 180.7,40.0 175.0,33.6 168.7,27.7 161.9,22.3 154.7,17.6 147.2,13.5 139.3,10.1 131.1,7.4 122.7,5.4 114.2,4.1 105.7,3.5 97.0,3.7 88.5,4.6 80.1,6.3 71.8,8.7 63.7,11.7 56.0,15.5 48.6,19.9 41.6,24.9 35.1,30.5 29.1,36.7 23.6,43.3 18.7,50.4 14.5,57.9 10.9,65.7 8.0,73.8 5.8,82.1 4.3,90.6 3.6,99.2 3.6,107.8 4.3,116.4 5.8,124.9 8.0,133.2 10.9,141.3 14.5,149.1 18.7,156.6 23.6,163.7 29.1,170.3 35.1,176.5 41.6,182.1 48.6,187.1 56.0,191.5 63.7,195.3 71.8,198.3 80.1,200.7 88.5,202.4 97.0,203.3 105.7,203.5 114.2,202.9 122.7,201.6 131.1,199.6 139.3,196.9 147.2,193.5 154.7,189.4 161.9,184.7 168.7,179.3 175.0,173.4 180.7,167.0 185.9,160.2 190.5,152.9 194.4,145.2 197.6,137.3 200.2,129.0 202.0,120.6 203.1,112.1" fill="#007FFF" stroke="#007FFF" stroke-width="1.0" stroke-linecap="round" stroke-linejoin="round" />
		<polygon points="203.5,103.5 203.1,94.9 202.0,86.4 200.2,78.0 197.6,69.7 194.4,61.8 190.5,54.1 185.9,46.8 180.7,40.0 175.0,33.6 168.7,27.7 161.9,22.3 154.7,17.6 147.2,13.5 139.3,10.1 131.1,7.4 122.7,5.4 114.2,4.1 105.7,3.5 97.0,3.7 88.5,4.6 80.1,6.3 71.8,8.7 63.7,11.7 56.0,15.5 48.6,19.9 41.6,24.9 35.1,30.5 29.1,36.7 23.6,43.3 18.7,50.4 14.5,57.9 10.9,65.7 8.0,73.8 5.8,82.1 4.3,90.6 3.6,99.2 3.6,107.8 4.3,116.4 5.8,124.9 8.0,133.2 10.9,141.3 14.5,149.1 18.7,156.6 23.6,163.7 29.1,170.3 35.1,176.5 41.6,182.1 48.6,187.1 56.0,191.5 63.7,195.3 71.8,198.3 80.1,200.7 88.5,202.4 97.0,203.3 105.7,203.5 114.2,202.9 122.7,201.6 131.1,199.6 139.3,196.9 147.2,193.5 154.7,189.4 161.9,184.7 168.7,179.3 175.0,173.4 180.7,167.0 185.9,160.2 190.5,152.9 194.4,145.2 197.6,137.3 200.2,129.0 202.0,120.6 203.1,112.1" fill="#007FFF" stroke="#000000" stroke-width="1.0" stroke-linecap="round" stroke-linejoin="round" />
		<polygon points="183.5,103.5 183.2,96.6 182.3,89.8 180.8,83.1 178.8,76.5 176.2,70.1 173.1,64.0 169.4,58.2 165.3,52.7 160.7,47.5 155.7,42.8 150.2,38.6 144.5,34.8 138.4,31.5 132.1,28.8 125.6,26.6 118.9,25.0 112.1,24.0 105.2,23.5 98.3,23.7 91.5,24.4 84.7,25.7 78.1,27.6 71.7,30.1 65.5,33.1 59.6,36.6 54.0,40.6 48.8,45.1 44.0,50.1 39.6,55.4 35.7,61.0 32.3,67.0 29.4,73.3 27.1,79.8 25.3,86.4 24.2,93.2 23.6,100.1 23.6,106.9 24.2,113.8 25.3,120.6 27.1,127.2 29.4,133.7 32.3,140.0 35.7,146.0 39.6,151.6 44.0,156.9 48.8,161.9 54.0,166.4 59.6,170.4 65.5,173.9 71.7,176.9 78.1,179.4 84.7,181.3 91.5,182.6 98.3,183.3 105.2,183.5 112.1,183.0 118.9,182.0 125.6,180.4 132.1,178.2 138.4,175.5 144.5,172.2 150.2,168.4 155.7,164.2 160.7,159.5 165.3,154.3 169.4,148.8 173.1,143.0 176.2,136.9 178.8,130.5 180.8,123.9 182.3,117.2 183.2,110.4" fill="#FFFFFF" stroke="#007FFF" stroke-width="1.0" stroke-linecap="round" stroke-linejoin="round" />
	</g>
</svg>
