<svg width="203" height="203" xmlns="http://www.w3.org/2000/svg" xmlns:xlink="http://www.w3.org/1999/xlink">
	<g id="Modelica.UsersGuide.Conventions.UsersGuide.RevisionHistory" class="component">
		<polygon points="21.5,201.5 21.5,1.5 101.5,1.5 101.5,81.5 181.5,81.5 181.5,201.5" fill="#F5F5F5" stroke="#000000" stroke-width="1.0" stroke-linecap="butt" stroke-linejoin="round" />
		<polygon points="101.5,1.5 181.5,81.5 101.5,81.5" fill="#D7D7D7" stroke="#000000" stroke-width="1.0" stroke-linecap="butt" stroke-linejoin="round" />
		<polyline points="103.5,113.5 151.5,113.5" fill-opacity="0" stroke="#000000" stroke-width="1.0" stroke-linecap="butt" stroke-linejoin="round" />
		<polygon points="73.5,113.5 73.4,112.3 73.3,111.1 73.0,109.9 72.7,108.8 72.2,107.7 71.7,106.6 71.0,105.6 70.3,104.6 69.5,103.7 68.6,102.9 67.7,102.1 66.7,101.5 65.6,100.9 64.5,100.4 63.4,100.0 62.2,99.8 61.0,99.6 59.8,99.5 58.6,99.5 57.4,99.7 56.2,99.9 55.1,100.2 53.9,100.7 52.9,101.2 51.8,101.8 50.8,102.5 49.9,103.3 49.1,104.1 48.3,105.1 47.6,106.1 47.0,107.1 46.5,108.2 46.1,109.3 45.8,110.5 45.6,111.7 45.5,112.9 45.5,114.1 45.6,115.3 45.8,116.5 46.1,117.7 46.5,118.8 47.0,119.9 47.6,120.9 48.3,121.9 49.1,122.9 49.9,123.7 50.8,124.5 51.8,125.2 52.9,125.8 53.9,126.3 55.1,126.8 56.2,127.1 57.4,127.3 58.6,127.5 59.8,127.5 61.0,127.4 62.2,127.2 63.4,127.0 64.5,126.6 65.6,126.1 66.7,125.5 67.7,124.9 68.6,124.1 69.5,123.3 70.3,122.4 71.0,121.4 71.7,120.4 72.2,119.3 72.7,118.2 73.0,117.1 73.3,115.9 73.4,114.7" fill="#D7D7D7" stroke="#000000" stroke-width="1.0" stroke-linecap="butt" stroke-linejoin="round" />
		<polyline points="103.5,161.5 151.5,161.5" fill-opacity="0" stroke="#000000" stroke-width="1.0" stroke-linecap="butt" stroke-linejoin="round" />
		<polygon points="73.5,161.5 73.4,160.3 73.3,159.1 73.0,157.9 72.7,156.8 72.2,155.7 71.7,154.6 71.0,153.6 70.3,152.6 69.5,151.7 68.6,150.9 67.7,150.1 66.7,149.5 65.6,148.9 64.5,148.4 63.4,148.0 62.2,147.8 61.0,147.6 59.8,147.5 58.6,147.5 57.4,147.7 56.2,147.9 55.1,148.2 53.9,148.7 52.9,149.2 51.8,149.8 50.8,150.5 49.9,151.3 49.1,152.1 48.3,153.1 47.6,154.1 47.0,155.1 46.5,156.2 46.1,157.3 45.8,158.5 45.6,159.7 45.5,160.9 45.5,162.1 45.6,163.3 45.8,164.5 46.1,165.7 46.5,166.8 47.0,167.9 47.6,168.9 48.3,169.9 49.1,170.9 49.9,171.7 50.8,172.5 51.8,173.2 52.9,173.8 53.9,174.3 55.1,174.8 56.2,175.1 57.4,175.3 58.6,175.5 59.8,175.5 61.0,175.4 62.2,175.2 63.4,175.0 64.5,174.6 65.6,174.1 66.7,173.5 67.7,172.9 68.6,172.1 69.5,171.3 70.3,170.4 71.0,169.4 71.7,168.4 72.2,167.3 72.7,166.2 73.0,165.1 73.3,163.9 73.4,162.7" fill="#D7D7D7" stroke="#000000" stroke-width="1.0" stroke-linecap="butt" stroke-linejoin="round" />
	</g>
</svg>
