<svg width="233" height="243" xmlns="http://www.w3.org/2000/svg" xmlns:xlink="http://www.w3.org/1999/xlink">
	<g id="Modelica.Electrical.PowerConverters.DCDC.ChopperStepUp" class="component">
		<polygon points="11.5,201.5 211.5,201.5 211.5,1.5 11.5,1.5" fill="#FFFFFF" stroke="#00007F" stroke-width="1.0" stroke-linecap="round" stroke-linejoin="round" />
		<polyline points="11.5,201.5 211.5,1.5" fill-opacity="0" stroke="#00007F" stroke-width="1.0" stroke-linecap="round" stroke-linejoin="round" />
		<text x="61.5" y="51.4" text-anchor="middle" fill="#00007F" font-size="26.6px" font-family="sans-serif">DC in</text>
		<text x="161.5" y="171.4" text-anchor="middle" fill="#00007F" font-size="26.6px" font-family="sans-serif">DC out</text>
		<polygon points="71.5,141.5 151.5,141.5 151.5,61.5 71.5,61.5" fill="#FFFFFF" stroke="#FFFFFF" stroke-width="1.0" stroke-linecap="round" stroke-linejoin="round" />
		<polygon points="53.5,71.5 53.5,71.3 53.5,71.2 53.4,71.0 53.4,70.8 53.3,70.7 53.2,70.5 53.1,70.4 53.0,70.2 52.9,70.1 52.8,70.0 52.7,69.9 52.5,69.8 52.4,69.7 52.2,69.6 52.1,69.6 51.9,69.5 51.7,69.5 51.5,69.5 51.4,69.5 51.2,69.5 51.0,69.6 50.9,69.6 50.7,69.7 50.6,69.7 50.4,69.8 50.3,69.9 50.1,70.0 50.0,70.2 49.9,70.3 49.8,70.4 49.7,70.6 49.6,70.7 49.6,70.9 49.5,71.1 49.5,71.2 49.5,71.4 49.5,71.6 49.5,71.8 49.5,71.9 49.6,72.1 49.6,72.3 49.7,72.4 49.8,72.6 49.9,72.7 50.0,72.8 50.1,73.0 50.3,73.1 50.4,73.2 50.6,73.3 50.7,73.3 50.9,73.4 51.0,73.4 51.2,73.5 51.4,73.5 51.5,73.5 51.7,73.5 51.9,73.5 52.1,73.4 52.2,73.4 52.4,73.3 52.5,73.2 52.7,73.1 52.8,73.0 52.9,72.9 53.0,72.8 53.1,72.6 53.2,72.5 53.3,72.3 53.4,72.2 53.4,72.0 53.5,71.8 53.5,71.7" fill-opacity="0" stroke="#0000FF" stroke-width="1.0" stroke-linecap="round" stroke-linejoin="round" />
		<polygon points="101.5,101.5 101.4,100.3 101.3,99.1 101.0,97.9 100.7,96.8 100.2,95.7 99.7,94.6 99.0,93.6 98.3,92.6 97.5,91.7 96.6,90.9 95.7,90.1 94.7,89.5 93.6,88.9 92.5,88.4 91.4,88.0 90.2,87.8 89.0,87.6 87.8,87.5 86.6,87.5 85.4,87.7 84.2,87.9 83.1,88.2 81.9,88.7 80.9,89.2 79.8,89.8 78.8,90.5 77.9,91.3 77.1,92.1 76.3,93.1 75.6,94.1 75.0,95.1 74.5,96.2 74.1,97.3 73.8,98.5 73.6,99.7 73.5,100.9 73.5,102.1 73.6,103.3 73.8,104.5 74.1,105.7 74.5,106.8 75.0,107.9 75.6,108.9 76.3,109.9 77.1,110.9 77.9,111.7 78.8,112.5 79.8,113.2 80.9,113.8 81.9,114.3 83.1,114.8 84.2,115.1 85.4,115.3 86.6,115.5 87.8,115.5 89.0,115.4 90.2,115.2 91.4,115.0 92.5,114.6 93.6,114.1 94.7,113.5 95.7,112.9 96.6,112.1 97.5,111.3 98.3,110.4 99.0,109.4 99.7,108.4 100.2,107.3 100.7,106.2 101.0,105.1 101.3,103.9 101.4,102.7" fill-opacity="0" stroke="#0000FF" stroke-width="1.0" stroke-linecap="round" stroke-linejoin="round" />
		<polyline points="51.5,71.5 171.5,71.5" fill-opacity="0" stroke="#0000FF" stroke-width="1.0" stroke-linecap="round" stroke-linejoin="round" />
		<polygon points="93.5,71.5 93.5,71.3 93.5,71.2 93.4,71.0 93.4,70.8 93.3,70.7 93.2,70.5 93.1,70.4 93.0,70.2 92.9,70.1 92.8,70.0 92.7,69.9 92.5,69.8 92.4,69.7 92.2,69.6 92.1,69.6 91.9,69.5 91.7,69.5 91.5,69.5 91.4,69.5 91.2,69.5 91.0,69.6 90.9,69.6 90.7,69.7 90.6,69.7 90.4,69.8 90.3,69.9 90.1,70.0 90.0,70.2 89.9,70.3 89.8,70.4 89.7,70.6 89.6,70.7 89.6,70.9 89.5,71.1 89.5,71.2 89.5,71.4 89.5,71.6 89.5,71.8 89.5,71.9 89.6,72.1 89.6,72.3 89.7,72.4 89.8,72.6 89.9,72.7 90.0,72.8 90.1,73.0 90.3,73.1 90.4,73.2 90.6,73.3 90.7,73.3 90.9,73.4 91.0,73.4 91.2,73.5 91.4,73.5 91.5,73.5 91.7,73.5 91.9,73.5 92.1,73.4 92.2,73.4 92.4,73.3 92.5,73.2 92.7,73.1 92.8,73.0 92.9,72.9 93.0,72.8 93.1,72.6 93.2,72.5 93.3,72.3 93.4,72.2 93.4,72.0 93.5,71.8 93.5,71.7" fill-opacity="0" stroke="#0000FF" stroke-width="1.0" stroke-linecap="round" stroke-linejoin="round" />
		<polyline points="61.5,101.5 81.5,101.5" fill-opacity="0" stroke="#D943B4" stroke-width="1.0" stroke-linecap="round" stroke-linejoin="round" />
		<polyline points="91.5,71.5 91.5,91.5" fill-opacity="0" stroke="#0000FF" stroke-width="1.0" stroke-linecap="round" stroke-linejoin="round" />
		<polyline points="141.5,61.5 141.5,81.5" fill-opacity="0" stroke="#0000FF" stroke-width="1.0" stroke-linecap="round" stroke-linejoin="round" />
		<polygon points="141.5,71.5 121.5,61.5 121.5,81.5" fill-opacity="0" stroke="#0000FF" stroke-width="1.0" stroke-linecap="round" stroke-linejoin="round" />
		<polygon points="173.5,131.5 173.5,131.3 173.5,131.2 173.4,131.0 173.4,130.8 173.3,130.7 173.2,130.5 173.1,130.4 173.0,130.2 172.9,130.1 172.8,130.0 172.7,129.9 172.5,129.8 172.4,129.7 172.2,129.6 172.1,129.6 171.9,129.5 171.7,129.5 171.5,129.5 171.4,129.5 171.2,129.5 171.0,129.6 170.9,129.6 170.7,129.7 170.6,129.7 170.4,129.8 170.3,129.9 170.1,130.0 170.0,130.2 169.9,130.3 169.8,130.4 169.7,130.6 169.6,130.7 169.6,130.9 169.5,131.1 169.5,131.2 169.5,131.4 169.5,131.6 169.5,131.8 169.5,131.9 169.6,132.1 169.6,132.3 169.7,132.4 169.8,132.6 169.9,132.7 170.0,132.8 170.1,133.0 170.3,133.1 170.4,133.2 170.6,133.3 170.7,133.3 170.9,133.4 171.0,133.4 171.2,133.5 171.4,133.5 171.5,133.5 171.7,133.5 171.9,133.5 172.1,133.4 172.2,133.4 172.4,133.3 172.5,133.2 172.7,133.1 172.8,133.0 172.9,132.9 173.0,132.8 173.1,132.6 173.2,132.5 173.3,132.3 173.4,132.2 173.4,132.0 173.5,131.8 173.5,131.7" fill-opacity="0" stroke="#0000FF" stroke-width="1.0" stroke-linecap="round" stroke-linejoin="round" />
		<polyline points="51.5,131.5 171.5,131.5" fill-opacity="0" stroke="#0000FF" stroke-width="1.0" stroke-linecap="round" stroke-linejoin="round" />
		<polygon points="173.5,71.5 173.5,71.3 173.5,71.2 173.4,71.0 173.4,70.8 173.3,70.7 173.2,70.5 173.1,70.4 173.0,70.2 172.9,70.1 172.8,70.0 172.7,69.9 172.5,69.8 172.4,69.7 172.2,69.6 172.1,69.6 171.9,69.5 171.7,69.5 171.5,69.5 171.4,69.5 171.2,69.5 171.0,69.6 170.9,69.6 170.7,69.7 170.6,69.7 170.4,69.8 170.3,69.9 170.1,70.0 170.0,70.2 169.9,70.3 169.8,70.4 169.7,70.6 169.6,70.7 169.6,70.9 169.5,71.1 169.5,71.2 169.5,71.4 169.5,71.6 169.5,71.8 169.5,71.9 169.6,72.1 169.6,72.3 169.7,72.4 169.8,72.6 169.9,72.7 170.0,72.8 170.1,73.0 170.3,73.1 170.4,73.2 170.6,73.3 170.7,73.3 170.9,73.4 171.0,73.4 171.2,73.5 171.4,73.5 171.5,73.5 171.7,73.5 171.9,73.5 172.1,73.4 172.2,73.4 172.4,73.3 172.5,73.2 172.7,73.1 172.8,73.0 172.9,72.9 173.0,72.8 173.1,72.6 173.2,72.5 173.3,72.3 173.4,72.2 173.4,72.0 173.5,71.8 173.5,71.7" fill-opacity="0" stroke="#0000FF" stroke-width="1.0" stroke-linecap="round" stroke-linejoin="round" />
		<polygon points="93.5,131.5 93.5,131.3 93.5,131.2 93.4,131.0 93.4,130.8 93.3,130.7 93.2,130.5 93.1,130.4 93.0,130.2 92.9,130.1 92.8,130.0 92.7,129.9 92.5,129.8 92.4,129.7 92.2,129.6 92.1,129.6 91.9,129.5 91.7,129.5 91.5,129.5 91.4,129.5 91.2,129.5 91.0,129.6 90.9,129.6 90.7,129.7 90.6,129.7 90.4,129.8 90.3,129.9 90.1,130.0 90.0,130.2 89.9,130.3 89.8,130.4 89.7,130.6 89.6,130.7 89.6,130.9 89.5,131.1 89.5,131.2 89.5,131.4 89.5,131.6 89.5,131.8 89.5,131.9 89.6,132.1 89.6,132.3 89.7,132.4 89.8,132.6 89.9,132.7 90.0,132.8 90.1,133.0 90.3,133.1 90.4,133.2 90.6,133.3 90.7,133.3 90.9,133.4 91.0,133.4 91.2,133.5 91.4,133.5 91.5,133.5 91.7,133.5 91.9,133.5 92.1,133.4 92.2,133.4 92.4,133.3 92.5,133.2 92.7,133.1 92.8,133.0 92.9,132.9 93.0,132.8 93.1,132.6 93.2,132.5 93.3,132.3 93.4,132.2 93.4,132.0 93.5,131.8 93.5,131.7" fill-opacity="0" stroke="#0000FF" stroke-width="1.0" stroke-linecap="round" stroke-linejoin="round" />
		<polygon points="53.5,131.5 53.5,131.3 53.5,131.2 53.4,131.0 53.4,130.8 53.3,130.7 53.2,130.5 53.1,130.4 53.0,130.2 52.9,130.1 52.8,130.0 52.7,129.9 52.5,129.8 52.4,129.7 52.2,129.6 52.1,129.6 51.9,129.5 51.7,129.5 51.5,129.5 51.4,129.5 51.2,129.5 51.0,129.6 50.9,129.6 50.7,129.7 50.6,129.7 50.4,129.8 50.3,129.9 50.1,130.0 50.0,130.2 49.9,130.3 49.8,130.4 49.7,130.6 49.6,130.7 49.6,130.9 49.5,131.1 49.5,131.2 49.5,131.4 49.5,131.6 49.5,131.8 49.5,131.9 49.6,132.1 49.6,132.3 49.7,132.4 49.8,132.6 49.9,132.7 50.0,132.8 50.1,133.0 50.3,133.1 50.4,133.2 50.6,133.3 50.7,133.3 50.9,133.4 51.0,133.4 51.2,133.5 51.4,133.5 51.5,133.5 51.7,133.5 51.9,133.5 52.1,133.4 52.2,133.4 52.4,133.3 52.5,133.2 52.7,133.1 52.8,133.0 52.9,132.9 53.0,132.8 53.1,132.6 53.2,132.5 53.3,132.3 53.4,132.2 53.4,132.0 53.5,131.8 53.5,131.7" fill-opacity="0" stroke="#0000FF" stroke-width="1.0" stroke-linecap="round" stroke-linejoin="round" />
		<polygon points="91.5,111.5 87.5,105.5 85.5,107.5" fill="#0000FF" stroke="#0000FF" stroke-width="1.0" stroke-linecap="round" stroke-linejoin="round" />
		<polyline points="81.5,111.5 81.5,91.5" fill-opacity="0" stroke="#0000FF" stroke-width="1.0" stroke-linecap="round" stroke-linejoin="round" />
		<polyline points="91.5,91.5 81.5,101.5 91.5,111.5" fill-opacity="0" stroke="#1C6CC8" stroke-width="1.0" stroke-linecap="round" stroke-linejoin="round" />
		<polyline points="91.5,111.5 91.5,131.5" fill-opacity="0" stroke="#0000FF" stroke-width="1.0" stroke-linecap="round" stroke-linejoin="round" />
		<g id="dc_p1" class="port">
			<polygon points="1.5,51.5 21.5,51.5 21.5,31.5 1.5,31.5" fill="#0000FF" stroke="#0000FF" stroke-width="1.0" stroke-linecap="round" stroke-linejoin="round" />
		</g>
		<g id="dc_n1" class="port">
			<polygon points="1.5,171.5 21.5,171.5 21.5,151.5 1.5,151.5" fill="#FFFFFF" stroke="#0000FF" stroke-width="1.0" stroke-linecap="round" stroke-linejoin="round" />
		</g>
		<g id="dc_p2" class="port">
			<polygon points="201.5,51.5 221.5,51.5 221.5,31.5 201.5,31.5" fill="#0000FF" stroke="#0000FF" stroke-width="1.0" stroke-linecap="round" stroke-linejoin="round" />
		</g>
		<g id="dc_n2" class="port">
			<polygon points="201.5,171.5 221.5,171.5 221.5,151.5 201.5,151.5" fill="#FFFFFF" stroke="#0000FF" stroke-width="1.0" stroke-linecap="round" stroke-linejoin="round" />
		</g>
		<g id="heatPort" class="port">
			<polygon points="101.5,211.5 121.5,211.5 121.5,191.5 101.5,191.5" fill="#BF0000" stroke="#BF0000" stroke-width="1.0" stroke-linecap="round" stroke-linejoin="round" />
		</g>
		<g id="enable" class="port">
			<polygon points="191.5,241.5 211.5,201.5 231.5,241.5" fill="#FF00FF" stroke="#FF00FF" stroke-width="1.0" stroke-linecap="round" stroke-linejoin="round" />
		</g>
		<g id="fire_p" class="port">
			<polygon points="31.5,241.5 51.5,201.5 71.5,241.5" fill="#FF00FF" stroke="#FF00FF" stroke-width="1.0" stroke-linecap="round" stroke-linejoin="round" />
		</g>
	</g>
</svg>
