<svg width="263" height="203" xmlns="http://www.w3.org/2000/svg" xmlns:xlink="http://www.w3.org/1999/xlink">
	<g id="Modelica.Blocks.Logical.OnOffController" class="component">
		<polygon points="41.5,201.5 241.5,201.5 241.5,1.5 41.5,1.5" fill="#D2D2D2" stroke="#000000" stroke-width="1.5" stroke-linecap="butt" stroke-linejoin="round" />
		<polyline points="44.5,200.0 240.0,200.0 240.0,4.5" fill-opacity="0" stroke="#696969" stroke-width="3.0" stroke-linecap="butt" stroke-linejoin="round" />
		<polyline points="43.0,198.5 43.0,3.0 238.5,3.0" fill-opacity="0" stroke="#E9E9E9" stroke-width="3.0" stroke-linecap="butt" stroke-linejoin="round" />
		<text x="117.5" y="54.4" text-anchor="middle" fill="#000000" font-size="32.4px" font-family="sans-serif">reference</text>
		<text x="77.5" y="175.3" text-anchor="middle" fill="#000000" font-size="29.2px" font-family="sans-serif">u</text>
		<polyline points="65.5,133.5 73.5,107.5 91.5,75.5 117.5,61.5 139.5,59.5 157.5,65.5 173.5,73.5 189.5,89.5 199.5,107.5 209.5,129.5" fill-opacity="0" stroke="#00007F" stroke-width="1.0" stroke-linecap="butt" stroke-linejoin="round" />
		<polyline points="63.5,103.5 135.5,83.5 223.5,113.5" fill-opacity="0" stroke="#FF0000" stroke-width="1.0" stroke-linecap="butt" stroke-linejoin="round" />
		<polyline points="63.5,89.5 135.5,71.5 223.5,101.5" fill-opacity="0" stroke="#000000" stroke-width="1.0" stroke-linecap="butt" stroke-linejoin="round" />
		<polyline points="63.5,117.5 135.5,97.5 223.5,127.5" fill-opacity="0" stroke="#000000" stroke-width="1.0" stroke-linecap="butt" stroke-linejoin="round" />
		<polyline points="59.5,119.5 85.5,119.5 85.5,141.5 205.5,141.5 205.5,121.5 231.5,121.5" fill-opacity="0" stroke="#FF00FF" stroke-width="1.0" stroke-linecap="butt" stroke-linejoin="round" />
		<g id="reference" class="port">
			<polygon points="1.5,61.5 41.5,41.5 1.5,21.5" fill="#00007F" stroke="#00007F" stroke-width="1.0" stroke-linecap="butt" stroke-linejoin="round" />
		</g>
		<g id="u" class="port">
			<polygon points="1.5,181.5 41.5,161.5 1.5,141.5" fill="#00007F" stroke="#00007F" stroke-width="1.0" stroke-linecap="butt" stroke-linejoin="round" />
		</g>
		<g id="y" class="port">
			<polygon points="241.5,91.5 261.5,101.5 241.5,111.5" fill="#FFFFFF" stroke="#FF00FF" stroke-width="1.0" stroke-linecap="butt" stroke-linejoin="round" />
		</g>
	</g>
</svg>
