<svg width="233" height="233" xmlns="http://www.w3.org/2000/svg" xmlns:xlink="http://www.w3.org/1999/xlink">
	<g id="Modelica.Magnetic.QuasiStatic.FundamentalWave.BasicMachines.InductionMachines.IM_SlipRing" class="component">
		<defs>
			<linearGradient id="cyl2" x1="0" y1="0" x2="0" y2="1">
				<stop offset="0%" stop-color="#000000" />
				<stop offset="5%" stop-color="#302717" />
				<stop offset="10%" stop-color="#5C4A2B" />
				<stop offset="15%" stop-color="#82693D" />
				<stop offset="20%" stop-color="#A3844D" />
				<stop offset="25%" stop-color="#BF9B5A" />
				<stop offset="30%" stop-color="#D6AD65" />
				<stop offset="35%" stop-color="#E8BB6D" />
				<stop offset="40%" stop-color="#F5C673" />
				<stop offset="45%" stop-color="#FCCC77" />
				<stop offset="50%" stop-color="#FFCE78" />
				<stop offset="55%" stop-color="#FCCC77" />
				<stop offset="60%" stop-color="#F5C673" />
				<stop offset="65%" stop-color="#E8BB6D" />
				<stop offset="70%" stop-color="#D6AD65" />
				<stop offset="75%" stop-color="#BF9B5A" />
				<stop offset="80%" stop-color="#A3844D" />
				<stop offset="85%" stop-color="#82693D" />
				<stop offset="90%" stop-color="#5C4A2B" />
				<stop offset="95%" stop-color="#302717" />
				<stop offset="100%" stop-color="#000000" />
			</linearGradient>
		</defs>
		<polygon points="71.5,171.5 191.5,171.5 191.5,51.5 71.5,51.5" fill="url(#cyl2)" stroke="#000000" stroke-width="1.0" stroke-linecap="butt" stroke-linejoin="round" />
		<defs>
			<linearGradient id="cyl3" x1="0" y1="0" x2="0" y2="1">
				<stop offset="0%" stop-color="#000000" />
				<stop offset="5%" stop-color="#181818" />
				<stop offset="10%" stop-color="#2E2E2E" />
				<stop offset="15%" stop-color="#414141" />
				<stop offset="20%" stop-color="#525252" />
				<stop offset="25%" stop-color="#606060" />
				<stop offset="30%" stop-color="#6C6C6C" />
				<stop offset="35%" stop-color="#747474" />
				<stop offset="40%" stop-color="#7B7B7B" />
				<stop offset="45%" stop-color="#7F7F7F" />
				<stop offset="50%" stop-color="#808080" />
				<stop offset="55%" stop-color="#7F7F7F" />
				<stop offset="60%" stop-color="#7B7B7B" />
				<stop offset="65%" stop-color="#747474" />
				<stop offset="70%" stop-color="#6C6C6C" />
				<stop offset="75%" stop-color="#606060" />
				<stop offset="80%" stop-color="#525252" />
				<stop offset="85%" stop-color="#414141" />
				<stop offset="90%" stop-color="#2E2E2E" />
				<stop offset="95%" stop-color="#181818" />
				<stop offset="100%" stop-color="#000000" />
			</linearGradient>
		</defs>
		<polygon points="51.5,171.5 71.5,171.5 71.5,51.5 51.5,51.5" fill="url(#cyl3)" stroke="#000000" stroke-width="1.0" stroke-linecap="butt" stroke-linejoin="round" />
		<defs>
			<linearGradient id="cyl4" x1="0" y1="0" x2="0" y2="1">
				<stop offset="0%" stop-color="#000000" />
				<stop offset="5%" stop-color="#121212" />
				<stop offset="10%" stop-color="#222222" />
				<stop offset="15%" stop-color="#303030" />
				<stop offset="20%" stop-color="#3D3D3D" />
				<stop offset="25%" stop-color="#474747" />
				<stop offset="30%" stop-color="#505050" />
				<stop offset="35%" stop-color="#565656" />
				<stop offset="40%" stop-color="#5B5B5B" />
				<stop offset="45%" stop-color="#5E5E5E" />
				<stop offset="50%" stop-color="#5F5F5F" />
				<stop offset="55%" stop-color="#5E5E5E" />
				<stop offset="60%" stop-color="#5B5B5B" />
				<stop offset="65%" stop-color="#565656" />
				<stop offset="70%" stop-color="#505050" />
				<stop offset="75%" stop-color="#474747" />
				<stop offset="80%" stop-color="#3D3D3D" />
				<stop offset="85%" stop-color="#303030" />
				<stop offset="90%" stop-color="#222222" />
				<stop offset="95%" stop-color="#121212" />
				<stop offset="100%" stop-color="#000000" />
			</linearGradient>
		</defs>
		<polygon points="191.5,121.5 211.5,121.5 211.5,101.5 191.5,101.5" fill="url(#cyl4)" stroke="#000000" stroke-width="1.0" stroke-linecap="butt" stroke-linejoin="round" />
		<polygon points="71.5,61.5 151.5,61.5 151.5,41.5 71.5,41.5" fill="#5F5F5F" stroke="#5F5F5F" stroke-width="1.0" stroke-linecap="butt" stroke-linejoin="round" />
		<polygon points="61.5,201.5 71.5,201.5 101.5,131.5 151.5,131.5 181.5,201.5 191.5,201.5 191.5,211.5 61.5,211.5" fill="#000000" stroke="#000000" stroke-width="1.0" stroke-linecap="butt" stroke-linejoin="round" />
		<polygon points="191.5,231.5 231.5,231.5 231.5,191.5 191.5,191.5" fill="#C0C0C0" stroke="#C0C0C0" stroke-width="1.0" stroke-linecap="butt" stroke-linejoin="round" />
		<polyline points="61.5,11.5 91.5,11.5 91.5,41.5" fill-opacity="0" stroke="#55AAFF" stroke-width="1.0" stroke-linecap="butt" stroke-linejoin="round" />
		<polyline points="161.5,11.5 131.5,11.5 131.5,41.5" fill-opacity="0" stroke="#55AAFF" stroke-width="1.0" stroke-linecap="butt" stroke-linejoin="round" />
		<polyline points="191.5,211.5 231.5,211.5" fill-opacity="0" stroke="#000000" stroke-width="1.0" stroke-linecap="butt" stroke-linejoin="round" />
		<polyline points="201.5,211.5 191.5,231.5" fill-opacity="0" stroke="#000000" stroke-width="1.0" stroke-linecap="butt" stroke-linejoin="round" />
		<polyline points="211.5,211.5 201.5,231.5" fill-opacity="0" stroke="#000000" stroke-width="1.0" stroke-linecap="butt" stroke-linejoin="round" />
		<polyline points="221.5,211.5 211.5,231.5" fill-opacity="0" stroke="#000000" stroke-width="1.0" stroke-linecap="butt" stroke-linejoin="round" />
		<polyline points="231.5,211.5 221.5,231.5" fill-opacity="0" stroke="#000000" stroke-width="1.0" stroke-linecap="butt" stroke-linejoin="round" />
		<polyline points="11.5,61.5 11.5,91.5 51.5,91.5" fill-opacity="0" stroke="#55AAFF" stroke-width="1.0" stroke-linecap="butt" stroke-linejoin="round" />
		<polyline points="11.5,161.5 11.5,131.5 51.5,131.5" fill-opacity="0" stroke="#55AAFF" stroke-width="1.0" stroke-linecap="butt" stroke-linejoin="round" />
		<g id="flange" class="port">
			<polygon points="221.5,111.5 221.5,110.6 221.3,109.8 221.2,108.9 220.9,108.1 220.6,107.3 220.2,106.6 219.7,105.8 219.2,105.1 218.6,104.5 218.0,103.9 217.3,103.4 216.6,102.9 215.9,102.5 215.1,102.2 214.3,101.9 213.4,101.7 212.6,101.6 211.7,101.5 210.8,101.5 210.0,101.6 209.1,101.8 208.3,102.0 207.5,102.3 206.7,102.7 206.0,103.1 205.3,103.6 204.7,104.2 204.0,104.8 203.5,105.5 203.0,106.2 202.6,106.9 202.2,107.7 201.9,108.5 201.7,109.4 201.6,110.2 201.5,111.1 201.5,111.9 201.6,112.8 201.7,113.6 201.9,114.5 202.2,115.3 202.6,116.1 203.0,116.8 203.5,117.5 204.0,118.2 204.7,118.8 205.3,119.4 206.0,119.9 206.7,120.3 207.5,120.7 208.3,121.0 209.1,121.2 210.0,121.4 210.8,121.5 211.7,121.5 212.6,121.4 213.4,121.3 214.3,121.1 215.1,120.8 215.9,120.5 216.6,120.1 217.3,119.6 218.0,119.1 218.6,118.5 219.2,117.9 219.7,117.2 220.2,116.4 220.6,115.7 220.9,114.9 221.2,114.1 221.3,113.2 221.5,112.4" fill="#5F5F5F" stroke="#000000" stroke-width="1.0" stroke-linecap="butt" stroke-linejoin="round" />
		</g>
		<g id="support" class="port">
			<polygon points="221.5,211.5 221.5,210.6 221.3,209.8 221.2,208.9 220.9,208.1 220.6,207.3 220.2,206.6 219.7,205.8 219.2,205.1 218.6,204.5 218.0,203.9 217.3,203.4 216.6,202.9 215.9,202.5 215.1,202.2 214.3,201.9 213.4,201.7 212.6,201.6 211.7,201.5 210.8,201.5 210.0,201.6 209.1,201.8 208.3,202.0 207.5,202.3 206.7,202.7 206.0,203.1 205.3,203.6 204.7,204.2 204.0,204.8 203.5,205.5 203.0,206.2 202.6,206.9 202.2,207.7 201.9,208.5 201.7,209.4 201.6,210.2 201.5,211.1 201.5,211.9 201.6,212.8 201.7,213.6 201.9,214.5 202.2,215.3 202.6,216.1 203.0,216.8 203.5,217.5 204.0,218.2 204.7,218.8 205.3,219.4 206.0,219.9 206.7,220.3 207.5,220.7 208.3,221.0 209.1,221.2 210.0,221.4 210.8,221.5 211.7,221.5 212.6,221.4 213.4,221.3 214.3,221.1 215.1,220.8 215.9,220.5 216.6,220.1 217.3,219.6 218.0,219.1 218.6,218.5 219.2,217.9 219.7,217.2 220.2,216.4 220.6,215.7 220.9,214.9 221.2,214.1 221.3,213.2 221.5,212.4" fill="#5F5F5F" stroke="#000000" stroke-width="1.0" stroke-linecap="butt" stroke-linejoin="round" />
		</g>
		<g id="plug_sp" class="port">
			<polygon points="181.5,11.5 181.5,10.6 181.3,9.8 181.2,8.9 180.9,8.1 180.6,7.3 180.2,6.6 179.7,5.8 179.2,5.1 178.6,4.5 178.0,3.9 177.3,3.4 176.6,2.9 175.9,2.5 175.1,2.2 174.3,1.9 173.4,1.7 172.6,1.6 171.7,1.5 170.8,1.5 170.0,1.6 169.1,1.8 168.3,2.0 167.5,2.3 166.7,2.7 166.0,3.1 165.3,3.6 164.7,4.2 164.0,4.8 163.5,5.5 163.0,6.2 162.6,6.9 162.2,7.7 161.9,8.5 161.7,9.4 161.6,10.2 161.5,11.1 161.5,11.9 161.6,12.8 161.7,13.6 161.9,14.5 162.2,15.3 162.6,16.1 163.0,16.8 163.5,17.5 164.0,18.2 164.7,18.8 165.3,19.4 166.0,19.9 166.7,20.3 167.5,20.7 168.3,21.0 169.1,21.2 170.0,21.4 170.8,21.5 171.7,21.5 172.6,21.4 173.4,21.3 174.3,21.1 175.1,20.8 175.9,20.5 176.6,20.1 177.3,19.6 178.0,19.1 178.6,18.5 179.2,17.9 179.7,17.2 180.2,16.4 180.6,15.7 180.9,14.9 181.2,14.1 181.3,13.2 181.5,12.4" fill="#55AAFF" stroke="#55AAFF" stroke-width="1.0" stroke-linecap="butt" stroke-linejoin="round" />
		</g>
		<g id="plug_sn" class="port">
			<polygon points="61.5,11.5 61.5,10.6 61.3,9.8 61.2,8.9 60.9,8.1 60.6,7.3 60.2,6.6 59.7,5.8 59.2,5.1 58.6,4.5 58.0,3.9 57.3,3.4 56.6,2.9 55.9,2.5 55.1,2.2 54.3,1.9 53.4,1.7 52.6,1.6 51.7,1.5 50.8,1.5 50.0,1.6 49.1,1.8 48.3,2.0 47.5,2.3 46.7,2.7 46.0,3.1 45.3,3.6 44.7,4.2 44.0,4.8 43.5,5.5 43.0,6.2 42.6,6.9 42.2,7.7 41.9,8.5 41.7,9.4 41.6,10.2 41.5,11.1 41.5,11.9 41.6,12.8 41.7,13.6 41.9,14.5 42.2,15.3 42.6,16.1 43.0,16.8 43.5,17.5 44.0,18.2 44.7,18.8 45.3,19.4 46.0,19.9 46.7,20.3 47.5,20.7 48.3,21.0 49.1,21.2 50.0,21.4 50.8,21.5 51.7,21.5 52.6,21.4 53.4,21.3 54.3,21.1 55.1,20.8 55.9,20.5 56.6,20.1 57.3,19.6 58.0,19.1 58.6,18.5 59.2,17.9 59.7,17.2 60.2,16.4 60.6,15.7 60.9,14.9 61.2,14.1 61.3,13.2 61.5,12.4" fill="#FFFFFF" stroke="#55AAFF" stroke-width="1.0" stroke-linecap="butt" stroke-linejoin="round" />
		</g>
		<g id="thermalPort" class="port">
			<polygon points="100.5,222.5 122.5,222.5 122.5,200.5 100.5,200.5" fill="#5F5F5F" stroke="#BF0000" stroke-width="1.0" stroke-linecap="butt" stroke-linejoin="round" />
			<polygon points="119.5,211.5 119.5,210.8 119.4,210.1 119.2,209.5 119.0,208.8 118.8,208.2 118.4,207.5 118.1,207.0 117.7,206.4 117.2,205.9 116.7,205.4 116.2,205.0 115.6,204.6 115.0,204.3 114.4,204.0 113.7,203.8 113.0,203.6 112.3,203.5 111.7,203.5 111.0,203.5 110.3,203.6 109.6,203.7 109.0,203.9 108.3,204.2 107.7,204.5 107.1,204.8 106.5,205.2 106.0,205.7 105.5,206.2 105.1,206.7 104.7,207.3 104.4,207.9 104.1,208.5 103.9,209.1 103.7,209.8 103.6,210.5 103.5,211.2 103.5,211.8 103.6,212.5 103.7,213.2 103.9,213.9 104.1,214.5 104.4,215.1 104.7,215.7 105.1,216.3 105.5,216.8 106.0,217.3 106.5,217.8 107.1,218.2 107.7,218.5 108.3,218.8 109.0,219.1 109.6,219.3 110.3,219.4 111.0,219.5 111.7,219.5 112.3,219.5 113.0,219.3 113.7,219.2 114.4,219.0 115.0,218.7 115.6,218.4 116.2,218.0 116.7,217.6 117.2,217.1 117.7,216.6 118.1,216.0 118.4,215.4 118.8,214.8 119.0,214.2 119.2,213.5 119.4,212.9 119.5,212.2" fill="#BF0000" stroke="#BF0000" stroke-width="1.0" stroke-linecap="butt" stroke-linejoin="round" />
		</g>
		<g id="internalThermalPort" class="port">
			<polygon points="67.1,205.9 75.9,205.9 75.9,197.1 67.1,197.1" fill="#5F5F5F" stroke="#BF0000" stroke-width="1.0" stroke-linecap="butt" stroke-linejoin="round" />
			<polygon points="74.7,201.5 74.7,201.2 74.6,200.9 74.6,200.7 74.5,200.4 74.4,200.2 74.3,199.9 74.1,199.7 74.0,199.5 73.8,199.3 73.6,199.1 73.4,198.9 73.1,198.7 72.9,198.6 72.6,198.5 72.4,198.4 72.1,198.4 71.8,198.3 71.6,198.3 71.3,198.3 71.0,198.3 70.7,198.4 70.5,198.5 70.2,198.6 70.0,198.7 69.7,198.8 69.5,199.0 69.3,199.2 69.1,199.4 68.9,199.6 68.8,199.8 68.6,200.0 68.5,200.3 68.4,200.5 68.4,200.8 68.3,201.1 68.3,201.4 68.3,201.6 68.3,201.9 68.4,202.2 68.4,202.4 68.5,202.7 68.6,203.0 68.8,203.2 68.9,203.4 69.1,203.6 69.3,203.8 69.5,204.0 69.7,204.2 70.0,204.3 70.2,204.4 70.5,204.5 70.7,204.6 71.0,204.7 71.3,204.7 71.6,204.7 71.8,204.7 72.1,204.6 72.4,204.6 72.6,204.5 72.9,204.4 73.1,204.2 73.4,204.1 73.6,203.9 73.8,203.7 74.0,203.5 74.1,203.3 74.3,203.1 74.4,202.8 74.5,202.6 74.6,202.3 74.6,202.0 74.7,201.8" fill="#BF0000" stroke="#BF0000" stroke-width="1.0" stroke-linecap="butt" stroke-linejoin="round" />
		</g>
		<g id="internalSupport" class="port">
			<polygon points="175.5,211.5 175.5,211.2 175.4,210.8 175.4,210.5 175.3,210.1 175.1,209.8 175.0,209.5 174.8,209.2 174.6,209.0 174.3,208.7 174.1,208.5 173.8,208.3 173.5,208.1 173.2,207.9 172.9,207.8 172.6,207.7 172.3,207.6 171.9,207.5 171.6,207.5 171.2,207.5 170.9,207.5 170.6,207.6 170.2,207.7 169.9,207.8 169.6,208.0 169.3,208.2 169.0,208.4 168.8,208.6 168.5,208.8 168.3,209.1 168.1,209.4 167.9,209.7 167.8,210.0 167.7,210.3 167.6,210.6 167.5,211.0 167.5,211.3 167.5,211.7 167.5,212.0 167.6,212.4 167.7,212.7 167.8,213.0 167.9,213.3 168.1,213.6 168.3,213.9 168.5,214.2 168.8,214.4 169.0,214.6 169.3,214.8 169.6,215.0 169.9,215.2 170.2,215.3 170.6,215.4 170.9,215.5 171.2,215.5 171.6,215.5 171.9,215.5 172.3,215.4 172.6,215.3 172.9,215.2 173.2,215.1 173.5,214.9 173.8,214.7 174.1,214.5 174.3,214.3 174.6,214.0 174.8,213.8 175.0,213.5 175.1,213.2 175.3,212.8 175.4,212.5 175.4,212.2 175.5,211.8" fill="#5F5F5F" stroke="#000000" stroke-width="1.0" stroke-linecap="butt" stroke-linejoin="round" />
			<polygon points="165.5,217.5 177.5,217.5 177.5,205.5 165.5,205.5" fill="#C0C0C0" stroke="#C0C0C0" stroke-width="1.0" stroke-linecap="butt" stroke-linejoin="round" />
			<polygon points="175.5,211.5 175.5,211.2 175.4,210.8 175.4,210.5 175.3,210.1 175.1,209.8 175.0,209.5 174.8,209.2 174.6,209.0 174.3,208.7 174.1,208.5 173.8,208.3 173.5,208.1 173.2,207.9 172.9,207.8 172.6,207.7 172.3,207.6 171.9,207.5 171.6,207.5 171.2,207.5 170.9,207.5 170.6,207.6 170.2,207.7 169.9,207.8 169.6,208.0 169.3,208.2 169.0,208.4 168.8,208.6 168.5,208.8 168.3,209.1 168.1,209.4 167.9,209.7 167.8,210.0 167.7,210.3 167.6,210.6 167.5,211.0 167.5,211.3 167.5,211.7 167.5,212.0 167.6,212.4 167.7,212.7 167.8,213.0 167.9,213.3 168.1,213.6 168.3,213.9 168.5,214.2 168.8,214.4 169.0,214.6 169.3,214.8 169.6,215.0 169.9,215.2 170.2,215.3 170.6,215.4 170.9,215.5 171.2,215.5 171.6,215.5 171.9,215.5 172.3,215.4 172.6,215.3 172.9,215.2 173.2,215.1 173.5,214.9 173.8,214.7 174.1,214.5 174.3,214.3 174.6,214.0 174.8,213.8 175.0,213.5 175.1,213.2 175.3,212.8 175.4,212.5 175.4,212.2 175.5,211.8" fill="#5F5F5F" stroke="#000000" stroke-width="1.0" stroke-linecap="butt" stroke-linejoin="round" />
		</g>
		<g id="plug_rn" class="port">
			<polygon points="21.5,171.5 21.5,172.4 21.3,173.2 21.2,174.1 20.9,174.9 20.6,175.7 20.2,176.4 19.7,177.2 19.2,177.9 18.6,178.5 18.0,179.1 17.3,179.6 16.6,180.1 15.9,180.5 15.1,180.8 14.3,181.1 13.4,181.3 12.6,181.4 11.7,181.5 10.8,181.5 10.0,181.4 9.1,181.2 8.3,181.0 7.5,180.7 6.7,180.3 6.0,179.9 5.3,179.4 4.7,178.8 4.0,178.2 3.5,177.5 3.0,176.8 2.6,176.1 2.2,175.3 1.9,174.5 1.7,173.6 1.6,172.8 1.5,171.9 1.5,171.1 1.6,170.2 1.7,169.4 1.9,168.5 2.2,167.7 2.6,166.9 3.0,166.2 3.5,165.5 4.0,164.8 4.7,164.2 5.3,163.6 6.0,163.1 6.7,162.7 7.5,162.3 8.3,162.0 9.1,161.8 10.0,161.6 10.8,161.5 11.7,161.5 12.6,161.6 13.4,161.7 14.3,161.9 15.1,162.2 15.9,162.5 16.6,162.9 17.3,163.4 18.0,163.9 18.6,164.5 19.2,165.1 19.7,165.8 20.2,166.6 20.6,167.3 20.9,168.1 21.2,168.9 21.3,169.8 21.5,170.6" fill="#FFFFFF" stroke="#55AAFF" stroke-width="1.0" stroke-linecap="butt" stroke-linejoin="round" />
		</g>
		<g id="plug_rp" class="port">
			<polygon points="21.5,51.5 21.5,52.4 21.3,53.2 21.2,54.1 20.9,54.9 20.6,55.7 20.2,56.4 19.7,57.2 19.2,57.9 18.6,58.5 18.0,59.1 17.3,59.6 16.6,60.1 15.9,60.5 15.1,60.8 14.3,61.1 13.4,61.3 12.6,61.4 11.7,61.5 10.8,61.5 10.0,61.4 9.1,61.2 8.3,61.0 7.5,60.7 6.7,60.3 6.0,59.9 5.3,59.4 4.7,58.8 4.0,58.2 3.5,57.5 3.0,56.8 2.6,56.1 2.2,55.3 1.9,54.5 1.7,53.6 1.6,52.8 1.5,51.9 1.5,51.1 1.6,50.2 1.7,49.4 1.9,48.5 2.2,47.7 2.6,46.9 3.0,46.2 3.5,45.5 4.0,44.8 4.7,44.2 5.3,43.6 6.0,43.1 6.7,42.7 7.5,42.3 8.3,42.0 9.1,41.8 10.0,41.6 10.8,41.5 11.7,41.5 12.6,41.6 13.4,41.7 14.3,41.9 15.1,42.2 15.9,42.5 16.6,42.9 17.3,43.4 18.0,43.9 18.6,44.5 19.2,45.1 19.7,45.8 20.2,46.6 20.6,47.3 20.9,48.1 21.2,48.9 21.3,49.8 21.5,50.6" fill="#55AAFF" stroke="#55AAFF" stroke-width="1.0" stroke-linecap="butt" stroke-linejoin="round" />
		</g>
	</g>
</svg>
