<svg width="207" height="207" xmlns="http://www.w3.org/2000/svg" xmlns:xlink="http://www.w3.org/1999/xlink">
	<g id="Modelica.Electrical.Spice3.Internal.Bjt3" class="component">
		<defs>
			<linearGradient id="cyl2" x1="0" y1="0" x2="0" y2="1">
				<stop offset="0%" stop-color="#D7D7D7" />
				<stop offset="5%" stop-color="#DFDFDF" />
				<stop offset="10%" stop-color="#E5E5E5" />
				<stop offset="15%" stop-color="#EBEBEB" />
				<stop offset="20%" stop-color="#F1F1F1" />
				<stop offset="25%" stop-color="#F5F5F5" />
				<stop offset="30%" stop-color="#F9F9F9" />
				<stop offset="35%" stop-color="#FBFBFB" />
				<stop offset="40%" stop-color="#FDFDFD" />
				<stop offset="45%" stop-color="#FFFFFF" />
				<stop offset="50%" stop-color="#FFFFFF" />
				<stop offset="55%" stop-color="#FFFFFF" />
				<stop offset="60%" stop-color="#FDFDFD" />
				<stop offset="65%" stop-color="#FBFBFB" />
				<stop offset="70%" stop-color="#F9F9F9" />
				<stop offset="75%" stop-color="#F5F5F5" />
				<stop offset="80%" stop-color="#F1F1F1" />
				<stop offset="85%" stop-color="#EBEBEB" />
				<stop offset="90%" stop-color="#E5E5E5" />
				<stop offset="95%" stop-color="#DFDFDF" />
				<stop offset="100%" stop-color="#D7D7D7" />
			</linearGradient>
		</defs>
		<polygon points="10.8,196.2 13.0,198.1 15.3,199.8 17.7,201.1 20.2,202.2 22.8,202.9 25.6,203.4 28.5,203.5 28.5,203.5 52.4,203.5 103.5,203.5 103.5,203.5 154.6,203.5 178.5,203.5 178.5,203.5 181.4,203.4 184.2,202.9 186.8,202.2 189.3,201.1 191.7,199.8 194.0,198.1 196.2,196.2 196.2,196.2 198.1,194.0 199.8,191.7 201.1,189.3 202.2,186.8 202.9,184.2 203.4,181.4 203.5,178.5 203.5,178.5 203.5,154.6 203.5,103.5 203.5,103.5 203.5,52.4 203.5,28.5 203.5,28.5 203.4,25.6 202.9,22.8 202.2,20.2 201.1,17.7 199.8,15.3 198.1,13.0 196.2,10.8 196.2,10.8 194.0,8.9 191.7,7.2 189.3,5.9 186.8,4.8 184.2,4.1 181.4,3.6 178.5,3.5 178.5,3.5 154.6,3.5 103.5,3.5 103.5,3.5 52.4,3.5 28.5,3.5 28.5,3.5 25.6,3.6 22.8,4.1 20.2,4.8 17.7,5.9 15.3,7.2 13.0,8.9 10.8,10.8 10.8,10.8 8.9,13.0 7.2,15.3 5.9,17.7 4.8,20.2 4.1,22.8 3.6,25.6 3.5,28.5 3.5,28.5 3.5,52.4 3.5,103.5 3.5,103.5 3.5,154.6 3.5,178.5 3.5,178.5 3.6,181.4 4.1,184.2 4.8,186.8 5.9,189.3 7.2,191.7 8.9,194.0" fill="url(#cyl2)" stroke="#D7D7D7" stroke-width="1.0" stroke-linecap="round" stroke-linejoin="round" />
		<polygon points="10.8,196.2 13.0,198.1 15.3,199.8 17.7,201.1 20.2,202.2 22.8,202.9 25.6,203.4 28.5,203.5 28.5,203.5 52.4,203.5 103.5,203.5 103.5,203.5 154.6,203.5 178.5,203.5 178.5,203.5 181.4,203.4 184.2,202.9 186.8,202.2 189.3,201.1 191.7,199.8 194.0,198.1 196.2,196.2 196.2,196.2 198.1,194.0 199.8,191.7 201.1,189.3 202.2,186.8 202.9,184.2 203.4,181.4 203.5,178.5 203.5,178.5 203.5,154.6 203.5,103.5 203.5,103.5 203.5,52.4 203.5,28.5 203.5,28.5 203.4,25.6 202.9,22.8 202.2,20.2 201.1,17.7 199.8,15.3 198.1,13.0 196.2,10.8 196.2,10.8 194.0,8.9 191.7,7.2 189.3,5.9 186.8,4.8 184.2,4.1 181.4,3.6 178.5,3.5 178.5,3.5 154.6,3.5 103.5,3.5 103.5,3.5 52.4,3.5 28.5,3.5 28.5,3.5 25.6,3.6 22.8,4.1 20.2,4.8 17.7,5.9 15.3,7.2 13.0,8.9 10.8,10.8 10.8,10.8 8.9,13.0 7.2,15.3 5.9,17.7 4.8,20.2 4.1,22.8 3.6,25.6 3.5,28.5 3.5,28.5 3.5,52.4 3.5,103.5 3.5,103.5 3.5,154.6 3.5,178.5 3.5,178.5 3.6,181.4 4.1,184.2 4.8,186.8 5.9,189.3 7.2,191.7 8.9,194.0" fill-opacity="0" stroke="#D7D7D7" stroke-width="1.0" stroke-linecap="round" stroke-linejoin="round" />
		<polygon points="183.5,103.5 183.2,96.6 182.3,89.8 180.8,83.1 178.8,76.5 176.2,70.1 173.1,64.0 169.4,58.2 165.3,52.7 160.7,47.5 155.7,42.8 150.2,38.6 144.5,34.8 138.4,31.5 132.1,28.8 125.6,26.6 118.9,25.0 112.1,24.0 105.2,23.5 98.3,23.7 91.5,24.4 84.7,25.7 78.1,27.6 71.7,30.1 65.5,33.1 59.6,36.6 54.0,40.6 48.8,45.1 44.0,50.1 39.6,55.4 35.7,61.0 32.3,67.0 29.4,73.3 27.1,79.8 25.3,86.4 24.2,93.2 23.6,100.1 23.6,106.9 24.2,113.8 25.3,120.6 27.1,127.2 29.4,133.7 32.3,140.0 35.7,146.0 39.6,151.6 44.0,156.9 48.8,161.9 54.0,166.4 59.6,170.4 65.5,173.9 71.7,176.9 78.1,179.4 84.7,181.3 91.5,182.6 98.3,183.3 105.2,183.5 112.1,183.0 118.9,182.0 125.6,180.4 132.1,178.2 138.4,175.5 144.5,172.2 150.2,168.4 155.7,164.2 160.7,159.5 165.3,154.3 169.4,148.8 173.1,143.0 176.2,136.9 178.8,130.5 180.8,123.9 182.3,117.2 183.2,110.4" fill="#D7D7D7" stroke="#D7D7D7" stroke-width="1.0" stroke-linecap="round" stroke-linejoin="round" />
		<polygon points="158.5,103.5 158.3,98.8 157.7,94.1 156.7,89.5 155.3,84.9 153.5,80.6 151.3,76.3 148.8,72.3 146.0,68.6 142.8,65.0 139.4,61.8 135.6,58.9 131.7,56.3 127.5,54.0 123.2,52.1 118.7,50.6 114.1,49.5 109.4,48.8 104.7,48.5 100.0,48.6 95.2,49.1 90.6,50.0 86.1,51.3 81.6,53.0 77.4,55.1 73.3,57.5 69.5,60.3 65.9,63.4 62.6,66.8 59.6,70.4 56.9,74.3 54.5,78.4 52.6,82.7 51.0,87.2 49.8,91.8 49.0,96.4 48.6,101.1 48.6,105.9 49.0,110.6 49.8,115.2 51.0,119.8 52.6,124.3 54.5,128.6 56.9,132.7 59.6,136.6 62.6,140.2 65.9,143.6 69.5,146.7 73.3,149.5 77.4,151.9 81.6,154.0 86.1,155.7 90.6,157.0 95.2,157.9 100.0,158.4 104.7,158.5 109.4,158.2 114.1,157.5 118.7,156.4 123.2,154.9 127.5,153.0 131.7,150.7 135.6,148.1 139.4,145.2 142.8,142.0 146.0,138.4 148.8,134.7 151.3,130.7 153.5,126.4 155.3,122.1 156.7,117.5 157.7,112.9 158.3,108.2" fill="#FFFFFF" stroke="#FFFFFF" stroke-width="1.0" stroke-linecap="round" stroke-linejoin="round" />
		<polygon points="71.0,155.8 155.8,71.0 136.0,51.2 51.2,136.0" fill="#D7D7D7" stroke="#D7D7D7" stroke-width="1.0" stroke-linecap="round" stroke-linejoin="round" />
		<polygon points="1.5,205.5 205.5,205.5 205.5,1.5 1.5,1.5" fill-opacity="0" stroke="#FF0000" stroke-dasharray="3 4" stroke-width="1.0" stroke-linecap="round" stroke-linejoin="round" />
	</g>
</svg>
