<svg width="223" height="243" xmlns="http://www.w3.org/2000/svg" xmlns:xlink="http://www.w3.org/1999/xlink">
	<g id="Modelica.Electrical.Machines.Sensors.MechanicalPowerSensor" class="component">
		<polygon points="181.5,121.5 181.2,115.5 180.5,109.5 179.2,103.6 177.4,97.9 175.1,92.3 172.4,86.9 169.2,81.8 165.5,77.0 161.5,72.5 157.1,68.4 152.4,64.7 147.4,61.4 142.1,58.5 136.5,56.1 130.8,54.2 125.0,52.8 119.0,51.9 113.0,51.5 107.0,51.6 101.0,52.3 95.1,53.5 89.3,55.1 83.7,57.3 78.2,59.9 73.1,63.0 68.2,66.5 63.6,70.4 59.4,74.7 55.6,79.4 52.2,84.3 49.2,89.6 46.7,95.1 44.6,100.7 43.1,106.6 42.1,112.5 41.6,118.5 41.6,124.5 42.1,130.5 43.1,136.4 44.6,142.3 46.7,147.9 49.2,153.4 52.2,158.7 55.6,163.6 59.4,168.3 63.6,172.6 68.2,176.5 73.1,180.0 78.2,183.1 83.7,185.7 89.3,187.9 95.1,189.5 101.0,190.7 107.0,191.4 113.0,191.5 119.0,191.1 125.0,190.2 130.8,188.8 136.5,186.9 142.1,184.5 147.4,181.6 152.4,178.3 157.1,174.6 161.5,170.5 165.5,166.0 169.2,161.2 172.4,156.1 175.1,150.7 177.4,145.1 179.2,139.4 180.5,133.5 181.2,127.5" fill="#F5F5F5" stroke="#000000" stroke-width="1.0" stroke-linecap="round" stroke-linejoin="round" />
		<polyline points="111.5,51.5 111.5,81.5" fill-opacity="0" stroke="#000000" stroke-width="1.0" stroke-linecap="round" stroke-linejoin="round" />
		<polyline points="134.4,88.7 151.7,64.2" fill-opacity="0" stroke="#000000" stroke-width="1.0" stroke-linecap="round" stroke-linejoin="round" />
		<polyline points="88.6,88.7 71.3,64.2" fill-opacity="0" stroke="#000000" stroke-width="1.0" stroke-linecap="round" stroke-linejoin="round" />
		<polyline points="149.1,107.8 177.3,97.6" fill-opacity="0" stroke="#000000" stroke-width="1.0" stroke-linecap="round" stroke-linejoin="round" />
		<polyline points="73.9,107.8 45.7,97.6" fill-opacity="0" stroke="#000000" stroke-width="1.0" stroke-linecap="round" stroke-linejoin="round" />
		<polygon points="123.5,121.5 123.4,120.5 123.3,119.4 123.1,118.4 122.8,117.4 122.4,116.5 121.9,115.6 121.4,114.7 120.8,113.9 120.1,113.1 119.3,112.4 118.5,111.8 117.6,111.2 116.7,110.7 115.8,110.3 114.8,110.0 113.8,109.7 112.8,109.6 111.7,109.5 110.7,109.5 109.7,109.6 108.7,109.8 107.7,110.1 106.7,110.5 105.8,110.9 104.9,111.5 104.1,112.1 103.3,112.7 102.6,113.5 101.9,114.3 101.3,115.1 100.8,116.0 100.4,117.0 100.0,117.9 99.8,118.9 99.6,120.0 99.5,121.0 99.5,122.0 99.6,123.0 99.8,124.1 100.0,125.1 100.4,126.0 100.8,127.0 101.3,127.9 101.9,128.7 102.6,129.5 103.3,130.3 104.1,130.9 104.9,131.5 105.8,132.1 106.7,132.5 107.7,132.9 108.7,133.2 109.7,133.4 110.7,133.5 111.7,133.5 112.8,133.4 113.8,133.3 114.8,133.0 115.8,132.7 116.7,132.3 117.6,131.8 118.5,131.2 119.3,130.6 120.1,129.9 120.8,129.1 121.4,128.3 121.9,127.4 122.4,126.5 122.8,125.6 123.1,124.6 123.3,123.6 123.4,122.5" fill-opacity="0" stroke="#404040" stroke-width="1.0" stroke-linecap="round" stroke-linejoin="round" />
		<polygon points="106.7,120.0 127.6,63.7 131.0,59.5 131.4,64.9 116.3,123.0" fill="#404040" stroke-opacity="0" stroke-width="1.0" stroke-linecap="round" stroke-linejoin="round" />
		<polygon points="118.5,121.5 118.5,120.9 118.4,120.3 118.3,119.7 118.1,119.1 117.9,118.6 117.6,118.0 117.3,117.5 116.9,117.1 116.5,116.6 116.1,116.2 115.6,115.8 115.1,115.5 114.5,115.2 114.0,115.0 113.4,114.8 112.8,114.6 112.2,114.5 111.6,114.5 111.0,114.5 110.4,114.6 109.8,114.7 109.3,114.9 108.7,115.1 108.2,115.3 107.6,115.6 107.2,116.0 106.7,116.4 106.3,116.8 105.9,117.3 105.6,117.8 105.3,118.3 105.0,118.9 104.8,119.4 104.7,120.0 104.5,120.6 104.5,121.2 104.5,121.8 104.5,122.4 104.7,123.0 104.8,123.6 105.0,124.1 105.3,124.7 105.6,125.2 105.9,125.7 106.3,126.2 106.7,126.6 107.2,127.0 107.6,127.4 108.2,127.7 108.7,127.9 109.3,128.1 109.8,128.3 110.4,128.4 111.0,128.5 111.6,128.5 112.2,128.5 112.8,128.4 113.4,128.2 114.0,128.0 114.5,127.8 115.1,127.5 115.6,127.2 116.1,126.8 116.5,126.4 116.9,125.9 117.3,125.5 117.6,125.0 117.9,124.4 118.1,123.9 118.3,123.3 118.4,122.7 118.5,122.1" fill="#404040" stroke-opacity="0" stroke-width="1.0" stroke-linecap="round" stroke-linejoin="round" />
		<polyline points="41.5,121.5 21.5,121.5" fill-opacity="0" stroke="#000000" stroke-width="1.0" stroke-linecap="round" stroke-linejoin="round" />
		<polyline points="181.5,121.5 201.5,121.5" fill-opacity="0" stroke="#000000" stroke-width="1.0" stroke-linecap="round" stroke-linejoin="round" />
		<polyline points="111.5,51.5 111.5,21.5" fill-opacity="0" stroke="#00007F" stroke-width="1.0" stroke-linecap="round" stroke-linejoin="round" />
		<polyline points="91.5,221.5 131.5,221.5" fill-opacity="0" stroke="#000000" stroke-width="1.0" stroke-linecap="round" stroke-linejoin="round" />
		<polyline points="101.5,221.5 91.5,241.5" fill-opacity="0" stroke="#000000" stroke-width="1.0" stroke-linecap="round" stroke-linejoin="round" />
		<polyline points="111.5,221.5 101.5,241.5" fill-opacity="0" stroke="#000000" stroke-width="1.0" stroke-linecap="round" stroke-linejoin="round" />
		<polyline points="121.5,221.5 111.5,241.5" fill-opacity="0" stroke="#000000" stroke-width="1.0" stroke-linecap="round" stroke-linejoin="round" />
		<polyline points="131.5,221.5 121.5,241.5" fill-opacity="0" stroke="#000000" stroke-width="1.0" stroke-linecap="round" stroke-linejoin="round" />
		<text x="111.5" y="171.8" text-anchor="middle" fill="#0000FF" font-size="27.8px" font-family="sans-serif">Pmech</text>
		<g id="flange_a" class="port">
			<polygon points="21.5,121.5 21.5,120.6 21.3,119.8 21.2,118.9 20.9,118.1 20.6,117.3 20.2,116.6 19.7,115.8 19.2,115.1 18.6,114.5 18.0,113.9 17.3,113.4 16.6,112.9 15.9,112.5 15.1,112.2 14.3,111.9 13.4,111.7 12.6,111.6 11.7,111.5 10.8,111.5 10.0,111.6 9.1,111.8 8.3,112.0 7.5,112.3 6.7,112.7 6.0,113.1 5.3,113.6 4.7,114.2 4.0,114.8 3.5,115.5 3.0,116.2 2.6,116.9 2.2,117.7 1.9,118.5 1.7,119.4 1.6,120.2 1.5,121.1 1.5,121.9 1.6,122.8 1.7,123.6 1.9,124.5 2.2,125.3 2.6,126.1 3.0,126.8 3.5,127.5 4.0,128.2 4.7,128.8 5.3,129.4 6.0,129.9 6.7,130.3 7.5,130.7 8.3,131.0 9.1,131.2 10.0,131.4 10.8,131.5 11.7,131.5 12.6,131.4 13.4,131.3 14.3,131.1 15.1,130.8 15.9,130.5 16.6,130.1 17.3,129.6 18.0,129.1 18.6,128.5 19.2,127.9 19.7,127.2 20.2,126.4 20.6,125.7 20.9,124.9 21.2,124.1 21.3,123.2 21.5,122.4" fill="#5F5F5F" stroke="#000000" stroke-width="1.0" stroke-linecap="round" stroke-linejoin="round" />
		</g>
		<g id="flange_b" class="port">
			<polygon points="221.5,121.5 221.5,120.6 221.3,119.8 221.2,118.9 220.9,118.1 220.6,117.3 220.2,116.6 219.7,115.8 219.2,115.1 218.6,114.5 218.0,113.9 217.3,113.4 216.6,112.9 215.9,112.5 215.1,112.2 214.3,111.9 213.4,111.7 212.6,111.6 211.7,111.5 210.8,111.5 210.0,111.6 209.1,111.8 208.3,112.0 207.5,112.3 206.7,112.7 206.0,113.1 205.3,113.6 204.7,114.2 204.0,114.8 203.5,115.5 203.0,116.2 202.6,116.9 202.2,117.7 201.9,118.5 201.7,119.4 201.6,120.2 201.5,121.1 201.5,121.9 201.6,122.8 201.7,123.6 201.9,124.5 202.2,125.3 202.6,126.1 203.0,126.8 203.5,127.5 204.0,128.2 204.7,128.8 205.3,129.4 206.0,129.9 206.7,130.3 207.5,130.7 208.3,131.0 209.1,131.2 210.0,131.4 210.8,131.5 211.7,131.5 212.6,131.4 213.4,131.3 214.3,131.1 215.1,130.8 215.9,130.5 216.6,130.1 217.3,129.6 218.0,129.1 218.6,128.5 219.2,127.9 219.7,127.2 220.2,126.4 220.6,125.7 220.9,124.9 221.2,124.1 221.3,123.2 221.5,122.4" fill="#FFFFFF" stroke="#000000" stroke-width="1.0" stroke-linecap="round" stroke-linejoin="round" />
		</g>
		<g id="P" class="port">
			<polygon points="121.5,21.5 111.5,1.5 101.5,21.5" fill="#FFFFFF" stroke="#00007F" stroke-width="1.0" stroke-linecap="round" stroke-linejoin="round" />
		</g>
		<g id="support" class="port">
			<polygon points="121.5,221.5 121.5,220.6 121.3,219.8 121.2,218.9 120.9,218.1 120.6,217.3 120.2,216.6 119.7,215.8 119.2,215.1 118.6,214.5 118.0,213.9 117.3,213.4 116.6,212.9 115.9,212.5 115.1,212.2 114.3,211.9 113.4,211.7 112.6,211.6 111.7,211.5 110.8,211.5 110.0,211.6 109.1,211.8 108.3,212.0 107.5,212.3 106.7,212.7 106.0,213.1 105.3,213.6 104.7,214.2 104.0,214.8 103.5,215.5 103.0,216.2 102.6,216.9 102.2,217.7 101.9,218.5 101.7,219.4 101.6,220.2 101.5,221.1 101.5,221.9 101.6,222.8 101.7,223.6 101.9,224.5 102.2,225.3 102.6,226.1 103.0,226.8 103.5,227.5 104.0,228.2 104.7,228.8 105.3,229.4 106.0,229.9 106.7,230.3 107.5,230.7 108.3,231.0 109.1,231.2 110.0,231.4 110.8,231.5 111.7,231.5 112.6,231.4 113.4,231.3 114.3,231.1 115.1,230.8 115.9,230.5 116.6,230.1 117.3,229.6 118.0,229.1 118.6,228.5 119.2,227.9 119.7,227.2 120.2,226.4 120.6,225.7 120.9,224.9 121.2,224.1 121.3,223.2 121.5,222.4" fill="#5F5F5F" stroke="#000000" stroke-width="1.0" stroke-linecap="round" stroke-linejoin="round" />
		</g>
	</g>
</svg>
