<svg width="223" height="223" xmlns="http://www.w3.org/2000/svg" xmlns:xlink="http://www.w3.org/1999/xlink">
	<g id="Modelica.Electrical.Machines.Interfaces.PartialBasicMachine" class="component">
		<defs>
			<linearGradient id="cyl2" x1="0" y1="0" x2="0" y2="1">
				<stop offset="0%" stop-color="#000000" />
				<stop offset="5%" stop-color="#001830" />
				<stop offset="10%" stop-color="#002E5C" />
				<stop offset="15%" stop-color="#004182" />
				<stop offset="20%" stop-color="#0052A3" />
				<stop offset="25%" stop-color="#0060BF" />
				<stop offset="30%" stop-color="#006CD6" />
				<stop offset="35%" stop-color="#0074E8" />
				<stop offset="40%" stop-color="#007BF5" />
				<stop offset="45%" stop-color="#007FFC" />
				<stop offset="50%" stop-color="#0080FF" />
				<stop offset="55%" stop-color="#007FFC" />
				<stop offset="60%" stop-color="#007BF5" />
				<stop offset="65%" stop-color="#0074E8" />
				<stop offset="70%" stop-color="#006CD6" />
				<stop offset="75%" stop-color="#0060BF" />
				<stop offset="80%" stop-color="#0052A3" />
				<stop offset="85%" stop-color="#004182" />
				<stop offset="90%" stop-color="#002E5C" />
				<stop offset="95%" stop-color="#001830" />
				<stop offset="100%" stop-color="#000000" />
			</linearGradient>
		</defs>
		<polygon points="61.5,161.5 181.5,161.5 181.5,41.5 61.5,41.5" fill="url(#cyl2)" stroke="#000000" stroke-width="1.0" stroke-linecap="butt" stroke-linejoin="round" />
		<defs>
			<linearGradient id="cyl3" x1="0" y1="0" x2="0" y2="1">
				<stop offset="0%" stop-color="#000000" />
				<stop offset="5%" stop-color="#181818" />
				<stop offset="10%" stop-color="#2E2E2E" />
				<stop offset="15%" stop-color="#414141" />
				<stop offset="20%" stop-color="#525252" />
				<stop offset="25%" stop-color="#606060" />
				<stop offset="30%" stop-color="#6C6C6C" />
				<stop offset="35%" stop-color="#747474" />
				<stop offset="40%" stop-color="#7B7B7B" />
				<stop offset="45%" stop-color="#7F7F7F" />
				<stop offset="50%" stop-color="#808080" />
				<stop offset="55%" stop-color="#7F7F7F" />
				<stop offset="60%" stop-color="#7B7B7B" />
				<stop offset="65%" stop-color="#747474" />
				<stop offset="70%" stop-color="#6C6C6C" />
				<stop offset="75%" stop-color="#606060" />
				<stop offset="80%" stop-color="#525252" />
				<stop offset="85%" stop-color="#414141" />
				<stop offset="90%" stop-color="#2E2E2E" />
				<stop offset="95%" stop-color="#181818" />
				<stop offset="100%" stop-color="#000000" />
			</linearGradient>
		</defs>
		<polygon points="41.5,161.5 61.5,161.5 61.5,41.5 41.5,41.5" fill="url(#cyl3)" stroke="#000000" stroke-width="1.0" stroke-linecap="butt" stroke-linejoin="round" />
		<defs>
			<linearGradient id="cyl4" x1="0" y1="0" x2="0" y2="1">
				<stop offset="0%" stop-color="#000000" />
				<stop offset="5%" stop-color="#121212" />
				<stop offset="10%" stop-color="#222222" />
				<stop offset="15%" stop-color="#303030" />
				<stop offset="20%" stop-color="#3D3D3D" />
				<stop offset="25%" stop-color="#474747" />
				<stop offset="30%" stop-color="#505050" />
				<stop offset="35%" stop-color="#565656" />
				<stop offset="40%" stop-color="#5B5B5B" />
				<stop offset="45%" stop-color="#5E5E5E" />
				<stop offset="50%" stop-color="#5F5F5F" />
				<stop offset="55%" stop-color="#5E5E5E" />
				<stop offset="60%" stop-color="#5B5B5B" />
				<stop offset="65%" stop-color="#565656" />
				<stop offset="70%" stop-color="#505050" />
				<stop offset="75%" stop-color="#474747" />
				<stop offset="80%" stop-color="#3D3D3D" />
				<stop offset="85%" stop-color="#303030" />
				<stop offset="90%" stop-color="#222222" />
				<stop offset="95%" stop-color="#121212" />
				<stop offset="100%" stop-color="#000000" />
			</linearGradient>
		</defs>
		<polygon points="181.5,111.5 201.5,111.5 201.5,91.5 181.5,91.5" fill="url(#cyl4)" stroke="#000000" stroke-width="1.0" stroke-linecap="butt" stroke-linejoin="round" />
		<polygon points="61.5,51.5 141.5,51.5 141.5,31.5 61.5,31.5" fill="#5F5F5F" stroke="#5F5F5F" stroke-width="1.0" stroke-linecap="butt" stroke-linejoin="round" />
		<polygon points="51.5,191.5 61.5,191.5 91.5,121.5 141.5,121.5 171.5,191.5 181.5,191.5 181.5,201.5 51.5,201.5" fill="#000000" stroke="#000000" stroke-width="1.0" stroke-linecap="butt" stroke-linejoin="round" />
		<polygon points="181.5,221.5 221.5,221.5 221.5,181.5 181.5,181.5" fill="#C0C0C0" stroke="#C0C0C0" stroke-width="1.0" stroke-linecap="butt" stroke-linejoin="round" />
		<polyline points="181.5,201.5 221.5,201.5" fill-opacity="0" stroke="#000000" stroke-width="1.0" stroke-linecap="butt" stroke-linejoin="round" />
		<polyline points="191.5,201.5 181.5,221.5" fill-opacity="0" stroke="#000000" stroke-width="1.0" stroke-linecap="butt" stroke-linejoin="round" />
		<polyline points="201.5,201.5 191.5,221.5" fill-opacity="0" stroke="#000000" stroke-width="1.0" stroke-linecap="butt" stroke-linejoin="round" />
		<polyline points="211.5,201.5 201.5,221.5" fill-opacity="0" stroke="#000000" stroke-width="1.0" stroke-linecap="butt" stroke-linejoin="round" />
		<polyline points="221.5,201.5 211.5,221.5" fill-opacity="0" stroke="#000000" stroke-width="1.0" stroke-linecap="butt" stroke-linejoin="round" />
		<g id="flange" class="port">
			<polygon points="211.5,101.5 211.5,100.6 211.4,99.8 211.2,98.9 210.9,98.1 210.6,97.3 210.2,96.6 209.7,95.8 209.2,95.1 208.6,94.5 208.0,93.9 207.3,93.4 206.6,92.9 205.9,92.5 205.1,92.2 204.3,91.9 203.4,91.7 202.6,91.6 201.7,91.5 200.9,91.5 200.0,91.6 199.2,91.8 198.3,92.0 197.5,92.3 196.8,92.7 196.0,93.1 195.3,93.6 194.7,94.2 194.1,94.8 193.5,95.5 193.0,96.2 192.6,96.9 192.2,97.7 192.0,98.5 191.7,99.4 191.6,100.2 191.5,101.1 191.5,101.9 191.6,102.8 191.7,103.6 192.0,104.5 192.2,105.3 192.6,106.1 193.0,106.8 193.5,107.5 194.1,108.2 194.7,108.8 195.3,109.4 196.0,109.9 196.8,110.3 197.5,110.7 198.3,111.0 199.2,111.2 200.0,111.4 200.9,111.5 201.7,111.5 202.6,111.4 203.4,111.3 204.3,111.1 205.1,110.8 205.9,110.5 206.6,110.1 207.3,109.6 208.0,109.1 208.6,108.5 209.2,107.9 209.7,107.2 210.2,106.4 210.6,105.7 210.9,104.9 211.2,104.1 211.4,103.2 211.5,102.4" fill="#5F5F5F" stroke="#000000" stroke-width="1.0" stroke-linecap="butt" stroke-linejoin="round" />
		</g>
		<g id="support" class="port">
			<polygon points="211.5,201.5 211.5,200.6 211.4,199.8 211.2,198.9 210.9,198.1 210.6,197.3 210.2,196.6 209.7,195.8 209.2,195.1 208.6,194.5 208.0,193.9 207.3,193.4 206.6,192.9 205.9,192.5 205.1,192.2 204.3,191.9 203.4,191.7 202.6,191.6 201.7,191.5 200.9,191.5 200.0,191.6 199.2,191.8 198.3,192.0 197.5,192.3 196.8,192.7 196.0,193.1 195.3,193.6 194.7,194.2 194.1,194.8 193.5,195.5 193.0,196.2 192.6,196.9 192.2,197.7 192.0,198.5 191.7,199.4 191.6,200.2 191.5,201.1 191.5,201.9 191.6,202.8 191.7,203.6 192.0,204.5 192.2,205.3 192.6,206.1 193.0,206.8 193.5,207.5 194.1,208.2 194.7,208.8 195.3,209.4 196.0,209.9 196.8,210.3 197.5,210.7 198.3,211.0 199.2,211.2 200.0,211.4 200.9,211.5 201.7,211.5 202.6,211.4 203.4,211.3 204.3,211.1 205.1,210.8 205.9,210.5 206.6,210.1 207.3,209.6 208.0,209.1 208.6,208.5 209.2,207.9 209.7,207.2 210.2,206.4 210.6,205.7 210.9,204.9 211.2,204.1 211.4,203.2 211.5,202.4" fill="#5F5F5F" stroke="#000000" stroke-width="1.0" stroke-linecap="butt" stroke-linejoin="round" />
		</g>
	</g>
</svg>
