<svg width="263" height="203" xmlns="http://www.w3.org/2000/svg" xmlns:xlink="http://www.w3.org/1999/xlink">
	<g id="Modelica.Blocks.Math.Atan2" class="component">
		<polygon points="41.5,201.5 241.5,201.5 241.5,1.5 41.5,1.5" fill="#FFFFFF" stroke="#00007F" stroke-width="1.0" stroke-linecap="butt" stroke-linejoin="round" />
		<polygon points="141.5,11.5 133.5,33.5 149.5,33.5" fill="#C0C0C0" stroke="#C0C0C0" stroke-width="1.0" stroke-linecap="butt" stroke-linejoin="round" />
		<polyline points="141.5,181.5 141.5,33.5" fill-opacity="0" stroke="#C0C0C0" stroke-width="1.0" stroke-linecap="butt" stroke-linejoin="round" />
		<polyline points="51.5,101.5 209.5,101.5" fill-opacity="0" stroke="#C0C0C0" stroke-width="1.0" stroke-linecap="butt" stroke-linejoin="round" />
		<polygon points="231.5,101.5 209.5,93.5 209.5,109.5" fill="#C0C0C0" stroke="#C0C0C0" stroke-width="1.0" stroke-linecap="butt" stroke-linejoin="round" />
		<polyline points="61.5,136.4 78.4,134.6 84.9,133.9 90.6,133.2 95.7,132.4 100.1,131.6 103.8,130.8 103.8,130.8 106.5,130.0 109.0,129.2 111.4,128.4 113.6,127.6 115.7,126.7 117.6,125.8 117.6,125.8 119.8,124.7 121.8,123.4 123.8,122.2 125.5,120.9 127.2,119.5 127.2,119.5 128.8,118.0 130.4,116.4 132.0,114.5 133.7,112.5 135.3,110.3 135.3,110.3 138.2,106.4 141.2,102.0 144.5,97.3 144.5,97.3 146.1,94.9 147.7,92.7 149.2,90.8 150.6,89.0 151.9,87.4 153.2,86.0 153.2,86.0 154.8,84.5 156.3,83.1 158.0,81.7 159.7,80.5 161.4,79.3 161.4,79.3 163.3,78.2 165.4,77.1 167.7,76.0 170.3,75.0 173.2,74.0 173.2,74.0 175.7,73.2 178.5,72.4 181.6,71.7 184.8,71.0 188.3,70.4 192.0,69.8 192.0,69.8 197.7,68.9 203.0,68.3 207.9,67.7 212.6,67.3 221.5,66.6" fill-opacity="0" stroke="#000000" stroke-width="1.0" stroke-linecap="butt" stroke-linejoin="round" />
		<polyline points="61.5,56.4 78.6,54.6 85.0,53.9 90.8,53.1 95.9,52.3 100.3,51.5 104.0,50.7 104.0,50.7 106.7,50.0 109.3,49.2 111.7,48.4 113.9,47.6 116.0,46.7 117.9,45.8 117.9,45.8 120.0,44.6 122.1,43.4 123.9,42.1 125.7,40.7 127.4,39.3 127.4,39.3 128.9,37.8 130.5,36.1 132.2,34.2 133.8,32.2 135.5,30.0 135.5,30.0 137.9,26.7 139.6,24.3 140.6,22.9 141.5,21.5" fill-opacity="0" stroke="#000000" stroke-width="1.0" stroke-linecap="butt" stroke-linejoin="round" />
		<polyline points="141.5,181.5 146.0,175.1 147.4,173.0 148.9,171.1 150.3,169.3 151.7,167.7 153.1,166.1 154.5,164.8 154.5,164.8 156.2,163.2 157.9,161.8 159.8,160.4 161.7,159.1 163.7,158.0 163.7,158.0 165.8,156.8 168.1,155.8 170.6,154.8 173.3,153.9 176.2,153.0 176.2,153.0 179.4,152.2 183.2,151.4 187.4,150.6 192.2,149.8 197.5,149.1 197.5,149.1 205.8,148.1 212.1,147.3 216.4,147.0 221.5,146.6" fill-opacity="0" stroke="#000000" stroke-width="1.0" stroke-linecap="butt" stroke-linejoin="round" />
		<text x="87.5" y="182.2" text-anchor="middle" fill="#C0C0C0" font-size="29.0px" font-family="sans-serif">atan2</text>
		<g id="u1" class="port">
			<polygon points="1.5,21.5 41.5,41.5 1.5,61.5" fill="#00007F" stroke="#00007F" stroke-width="1.0" stroke-linecap="butt" stroke-linejoin="round" />
		</g>
		<g id="u2" class="port">
			<polygon points="1.5,141.5 41.5,161.5 1.5,181.5" fill="#00007F" stroke="#00007F" stroke-width="1.0" stroke-linecap="butt" stroke-linejoin="round" />
		</g>
		<g id="y" class="port">
			<polygon points="241.5,91.5 261.5,101.5 241.5,111.5" fill="#FFFFFF" stroke="#00007F" stroke-width="1.0" stroke-linecap="butt" stroke-linejoin="round" />
		</g>
	</g>
</svg>
