<svg width="223" height="229" xmlns="http://www.w3.org/2000/svg" xmlns:xlink="http://www.w3.org/1999/xlink">
	<g id="Modelica.Electrical.Machines.SpacePhasors.Components.SpacePhasor" class="component">
		<polyline points="111.5,111.5 191.5,31.5 171.5,39.5 183.5,51.5 191.5,31.5" fill-opacity="0" stroke="#0000FF" stroke-width="1.0" stroke-linecap="round" stroke-linejoin="round" />
		<polyline points="111.5,111.5 191.5,191.5 183.5,171.5 171.5,183.5 191.5,191.5" fill-opacity="0" stroke="#0000FF" stroke-width="1.0" stroke-linecap="round" stroke-linejoin="round" />
		<polyline points="31.5,111.5 34.8,106.5 36.2,104.6 37.5,102.7 38.8,101.0 40.2,99.4 41.5,97.8 41.5,97.8 43.2,96.2 44.8,94.8 46.5,93.7 48.2,92.8 48.2,92.8 50.4,92.2 52.6,92.2 54.8,92.8 54.8,92.8 56.5,93.7 58.2,94.8 59.8,96.2 61.5,97.8 61.5,97.8 62.8,99.4 64.2,101.0 65.5,102.7 66.8,104.6 68.2,106.5 68.2,106.5 71.5,111.5 74.8,116.5 74.8,116.5 76.2,118.4 77.5,120.3 78.8,122.0 80.2,123.6 81.5,125.2 81.5,125.2 83.2,126.8 84.8,128.2 86.5,129.3 88.2,130.2 88.2,130.2 90.4,130.8 92.6,130.8 94.8,130.2 94.8,130.2 96.5,129.3 98.2,128.2 99.8,126.8 101.5,125.2 101.5,125.2 102.8,123.6 104.2,122.0 105.5,120.3 106.8,118.4 108.2,116.5 111.5,111.5" fill-opacity="0" stroke="#0000FF" stroke-width="1.0" stroke-linecap="round" stroke-linejoin="round" />
		<polyline points="21.5,111.5 24.8,106.5 26.2,104.6 27.5,102.7 28.8,101.0 30.2,99.4 31.5,97.8 31.5,97.8 33.2,96.2 34.8,94.8 36.5,93.7 38.2,92.8 38.2,92.8 40.4,92.2 42.6,92.2 44.8,92.8 44.8,92.8 46.5,93.7 48.2,94.8 49.8,96.2 51.5,97.8 51.5,97.8 52.8,99.4 54.2,101.0 55.5,102.7 56.8,104.6 58.2,106.5 58.2,106.5 61.5,111.5 64.8,116.5 64.8,116.5 66.2,118.4 67.5,120.3 68.8,122.0 70.2,123.6 71.5,125.2 71.5,125.2 73.2,126.8 74.8,128.2 76.5,129.3 78.2,130.2 78.2,130.2 80.4,130.8 82.6,130.8 84.8,130.2 84.8,130.2 86.5,129.3 88.2,128.2 89.8,126.8 91.5,125.2 91.5,125.2 92.8,123.6 94.2,122.0 95.5,120.3 96.8,118.4 98.2,116.5 101.5,111.5" fill-opacity="0" stroke="#0000FF" stroke-width="1.0" stroke-linecap="round" stroke-linejoin="round" />
		<polyline points="41.5,111.5 44.8,106.5 46.2,104.6 47.5,102.7 48.8,101.0 50.2,99.4 51.5,97.8 51.5,97.8 53.2,96.2 54.8,94.8 56.5,93.7 58.2,92.8 58.2,92.8 60.4,92.2 62.6,92.2 64.8,92.8 64.8,92.8 66.5,93.7 68.2,94.8 69.8,96.2 71.5,97.8 71.5,97.8 72.8,99.4 74.2,101.0 75.5,102.7 76.8,104.6 78.2,106.5 78.2,106.5 81.5,111.5 84.8,116.5 84.8,116.5 86.2,118.4 87.5,120.3 88.8,122.0 90.2,123.6 91.5,125.2 91.5,125.2 93.2,126.8 94.8,128.2 96.5,129.3 98.2,130.2 98.2,130.2 100.4,130.8 102.6,130.8 104.8,130.2 104.8,130.2 106.5,129.3 108.2,128.2 109.8,126.8 111.5,125.2 111.5,125.2 112.8,123.6 114.2,122.0 115.5,120.3 116.8,118.4 118.2,116.5 121.5,111.5" fill-opacity="0" stroke="#0000FF" stroke-width="1.0" stroke-linecap="round" stroke-linejoin="round" />
		<text x="176.5" y="121.4" text-anchor="middle" fill="#0000FF" font-size="26.6px" font-family="sans-serif">zero</text>
		<polyline points="201.5,211.5 171.5,211.5" fill-opacity="0" stroke="#0000FF" stroke-width="1.0" stroke-linecap="round" stroke-linejoin="round" />
		<polyline points="171.5,195.5 171.5,227.5" fill-opacity="0" stroke="#0000FF" stroke-width="1.0" stroke-linecap="round" stroke-linejoin="round" />
		<polyline points="161.5,201.5 161.5,221.5" fill-opacity="0" stroke="#0000FF" stroke-width="1.0" stroke-linecap="round" stroke-linejoin="round" />
		<polyline points="151.5,207.5 151.5,215.5" fill-opacity="0" stroke="#0000FF" stroke-width="1.0" stroke-linecap="round" stroke-linejoin="round" />
		<g id="plug_p" class="port">
			<polygon points="21.5,11.5 21.5,10.6 21.3,9.8 21.2,8.9 20.9,8.1 20.6,7.3 20.2,6.6 19.7,5.8 19.2,5.1 18.6,4.5 18.0,3.9 17.3,3.4 16.6,2.9 15.9,2.5 15.1,2.2 14.3,1.9 13.4,1.7 12.6,1.6 11.7,1.5 10.8,1.5 10.0,1.6 9.1,1.8 8.3,2.0 7.5,2.3 6.7,2.7 6.0,3.1 5.3,3.6 4.7,4.2 4.0,4.8 3.5,5.5 3.0,6.2 2.6,6.9 2.2,7.7 1.9,8.5 1.7,9.4 1.6,10.2 1.5,11.1 1.5,11.9 1.6,12.8 1.7,13.6 1.9,14.5 2.2,15.3 2.6,16.1 3.0,16.8 3.5,17.5 4.0,18.2 4.7,18.8 5.3,19.4 6.0,19.9 6.7,20.3 7.5,20.7 8.3,21.0 9.1,21.2 10.0,21.4 10.8,21.5 11.7,21.5 12.6,21.4 13.4,21.3 14.3,21.1 15.1,20.8 15.9,20.5 16.6,20.1 17.3,19.6 18.0,19.1 18.6,18.5 19.2,17.9 19.7,17.2 20.2,16.4 20.6,15.7 20.9,14.9 21.2,14.1 21.3,13.2 21.5,12.4" fill="#0000FF" stroke="#0000FF" stroke-width="1.0" stroke-linecap="round" stroke-linejoin="round" />
		</g>
		<g id="plug_n" class="port">
			<polygon points="21.5,211.5 21.5,210.6 21.3,209.8 21.2,208.9 20.9,208.1 20.6,207.3 20.2,206.6 19.7,205.8 19.2,205.1 18.6,204.5 18.0,203.9 17.3,203.4 16.6,202.9 15.9,202.5 15.1,202.2 14.3,201.9 13.4,201.7 12.6,201.6 11.7,201.5 10.8,201.5 10.0,201.6 9.1,201.8 8.3,202.0 7.5,202.3 6.7,202.7 6.0,203.1 5.3,203.6 4.7,204.2 4.0,204.8 3.5,205.5 3.0,206.2 2.6,206.9 2.2,207.7 1.9,208.5 1.7,209.4 1.6,210.2 1.5,211.1 1.5,211.9 1.6,212.8 1.7,213.6 1.9,214.5 2.2,215.3 2.6,216.1 3.0,216.8 3.5,217.5 4.0,218.2 4.7,218.8 5.3,219.4 6.0,219.9 6.7,220.3 7.5,220.7 8.3,221.0 9.1,221.2 10.0,221.4 10.8,221.5 11.7,221.5 12.6,221.4 13.4,221.3 14.3,221.1 15.1,220.8 15.9,220.5 16.6,220.1 17.3,219.6 18.0,219.1 18.6,218.5 19.2,217.9 19.7,217.2 20.2,216.4 20.6,215.7 20.9,214.9 21.2,214.1 21.3,213.2 21.5,212.4" fill="#FFFFFF" stroke="#0000FF" stroke-width="1.0" stroke-linecap="round" stroke-linejoin="round" />
		</g>
		<g id="zero" class="port">
			<polygon points="201.5,121.5 221.5,121.5 221.5,101.5 201.5,101.5" fill="#0000FF" stroke="#0000FF" stroke-width="1.0" stroke-linecap="round" stroke-linejoin="round" />
		</g>
		<g id="ground" class="port">
			<polygon points="201.5,221.5 221.5,221.5 221.5,201.5 201.5,201.5" fill="#FFFFFF" stroke="#0000FF" stroke-width="1.0" stroke-linecap="round" stroke-linejoin="round" />
		</g>
		<g id="spacePhasor" class="port">
			<polygon points="211.5,1.5 201.5,11.5 211.5,21.5 221.5,11.5" fill="#0000FF" stroke="#0000FF" stroke-width="1.0" stroke-linecap="round" stroke-linejoin="round" />
		</g>
	</g>
</svg>
