<svg width="253" height="203" xmlns="http://www.w3.org/2000/svg" xmlns:xlink="http://www.w3.org/1999/xlink">
	<g id="Modelica.Mechanics.Rotational.Components.InitializeFlange" class="component">
		<polygon points="41.5,201.5 241.5,201.5 241.5,1.5 41.5,1.5" fill="#FFFFFF" stroke="#00007F" stroke-width="1.0" stroke-linecap="round" stroke-linejoin="round" />
		<text x="127.5" y="28.7" text-anchor="middle" fill="#808080" font-size="28.4px" font-family="sans-serif">phi_start</text>
		<text x="124.5" y="115.0" text-anchor="middle" fill="#808080" font-size="39.9px" font-family="sans-serif">w_start</text>
		<text x="125.5" y="195.1" text-anchor="middle" fill="#808080" font-size="37.2px" font-family="sans-serif">a_start</text>
		<g id="phi_start" class="port">
			<polygon points="1.5,1.5 41.5,21.5 1.5,41.5" fill="#00007F" stroke="#00007F" stroke-width="1.0" stroke-linecap="round" stroke-linejoin="round" />
		</g>
		<g id="w_start" class="port">
			<polygon points="1.5,81.5 41.5,101.5 1.5,121.5" fill="#00007F" stroke="#00007F" stroke-width="1.0" stroke-linecap="round" stroke-linejoin="round" />
		</g>
		<g id="a_start" class="port">
			<polygon points="1.5,161.5 41.5,181.5 1.5,201.5" fill="#00007F" stroke="#00007F" stroke-width="1.0" stroke-linecap="round" stroke-linejoin="round" />
		</g>
		<g id="flange" class="port">
			<polygon points="251.5,101.5 251.5,100.6 251.4,99.8 251.2,98.9 250.9,98.1 250.6,97.3 250.2,96.6 249.7,95.8 249.2,95.1 248.6,94.5 248.0,93.9 247.3,93.4 246.6,92.9 245.9,92.5 245.1,92.2 244.3,91.9 243.4,91.7 242.6,91.6 241.7,91.5 240.9,91.5 240.0,91.6 239.2,91.8 238.3,92.0 237.5,92.3 236.8,92.7 236.0,93.1 235.3,93.6 234.7,94.2 234.1,94.8 233.5,95.5 233.0,96.2 232.6,96.9 232.2,97.7 232.0,98.5 231.7,99.4 231.6,100.2 231.5,101.1 231.5,101.9 231.6,102.8 231.7,103.6 232.0,104.5 232.2,105.3 232.6,106.1 233.0,106.8 233.5,107.5 234.1,108.2 234.7,108.8 235.3,109.4 236.0,109.9 236.8,110.3 237.5,110.7 238.3,111.0 239.2,111.2 240.0,111.4 240.9,111.5 241.7,111.5 242.6,111.4 243.4,111.3 244.3,111.1 245.1,110.8 245.9,110.5 246.6,110.1 247.3,109.6 248.0,109.1 248.6,108.5 249.2,107.9 249.7,107.2 250.2,106.4 250.6,105.7 250.9,104.9 251.2,104.1 251.4,103.2 251.5,102.4" fill="#FFFFFF" stroke="#000000" stroke-width="1.0" stroke-linecap="round" stroke-linejoin="round" />
		</g>
	</g>
</svg>
