<svg width="263" height="243" xmlns="http://www.w3.org/2000/svg" xmlns:xlink="http://www.w3.org/1999/xlink">
	<g id="Modelica.Blocks.Continuous.LimPID" class="component">
		<polygon points="41.5,201.5 241.5,201.5 241.5,1.5 41.5,1.5" fill="#FFFFFF" stroke="#00007F" stroke-width="1.0" stroke-linecap="round" stroke-linejoin="round" />
		<polyline points="61.5,23.5 61.5,191.5" fill-opacity="0" stroke="#C0C0C0" stroke-width="1.0" stroke-linecap="round" stroke-linejoin="round" />
		<polygon points="61.5,11.5 53.5,33.5 69.5,33.5" fill="#C0C0C0" stroke="#C0C0C0" stroke-width="1.0" stroke-linecap="round" stroke-linejoin="round" />
		<polyline points="51.5,181.5 223.5,181.5" fill-opacity="0" stroke="#C0C0C0" stroke-width="1.0" stroke-linecap="round" stroke-linejoin="round" />
		<polygon points="231.5,181.5 209.5,173.5 209.5,189.5" fill="#C0C0C0" stroke="#C0C0C0" stroke-width="1.0" stroke-linecap="round" stroke-linejoin="round" />
		<polyline points="61.5,181.5 61.5,121.5 171.5,41.5 221.5,41.5" fill-opacity="0" stroke="#00007F" stroke-width="1.0" stroke-linecap="round" stroke-linejoin="round" />
		<text x="171.5" y="143.2" text-anchor="middle" fill="#C0C0C0" font-size="9.0px" font-family="sans-serif">Modelica.Blocks.Types.SimpleController.PID</text>
		<g id="u_s" class="port">
			<polygon points="1.5,81.5 41.5,101.5 1.5,121.5" fill="#00007F" stroke="#00007F" stroke-width="1.0" stroke-linecap="round" stroke-linejoin="round" />
		</g>
		<g id="u_m" class="port">
			<polygon points="161.5,241.5 141.5,201.5 121.5,241.5" fill="#00007F" stroke="#00007F" stroke-width="1.0" stroke-linecap="round" stroke-linejoin="round" />
		</g>
		<g id="y" class="port">
			<polygon points="241.5,91.5 261.5,101.5 241.5,111.5" fill="#FFFFFF" stroke="#00007F" stroke-width="1.0" stroke-linecap="round" stroke-linejoin="round" />
		</g>
		<g id="u_ff" class="port">
			<polygon points="221.5,241.5 201.5,201.5 181.5,241.5" fill="#00007F" stroke="#00007F" stroke-width="1.0" stroke-linecap="round" stroke-linejoin="round" />
		</g>
	</g>
</svg>
