<svg width="213" height="209" xmlns="http://www.w3.org/2000/svg" xmlns:xlink="http://www.w3.org/1999/xlink">
	<g id="Modelica.Mechanics.MultiBody.Parts.Mounting1D" class="component">
		<polygon points="21.5,201.5 181.5,201.5 181.5,161.5 21.5,161.5" fill="#FFFFFF" stroke="#000000" stroke-width="1.0" stroke-linecap="butt" stroke-linejoin="round" />
		<polyline points="181.5,161.5 141.5,201.5" fill-opacity="0" stroke="#000000" stroke-width="1.0" stroke-linecap="butt" stroke-linejoin="round" />
		<polyline points="141.5,161.5 101.5,201.5" fill-opacity="0" stroke="#000000" stroke-width="1.0" stroke-linecap="butt" stroke-linejoin="round" />
		<polyline points="101.5,161.5 61.5,201.5" fill-opacity="0" stroke="#000000" stroke-width="1.0" stroke-linecap="butt" stroke-linejoin="round" />
		<polyline points="61.5,161.5 21.5,201.5" fill-opacity="0" stroke="#000000" stroke-width="1.0" stroke-linecap="butt" stroke-linejoin="round" />
		<polyline points="101.5,161.5 101.5,101.5" fill-opacity="0" stroke="#000000" stroke-width="1.0" stroke-linecap="butt" stroke-linejoin="round" />
		<polyline points="101.5,101.5 191.5,101.5" fill-opacity="0" stroke="#000000" stroke-width="1.0" stroke-linecap="butt" stroke-linejoin="round" />
		<g id="flange_b" class="port">
			<polygon points="191.5,101.5 191.5,102.4 191.6,103.2 191.8,104.1 192.1,104.9 192.4,105.7 192.8,106.4 193.3,107.2 193.8,107.9 194.4,108.5 195.0,109.1 195.7,109.6 196.4,110.1 197.1,110.5 197.9,110.8 198.7,111.1 199.6,111.3 200.4,111.4 201.3,111.5 202.1,111.5 203.0,111.4 203.8,111.2 204.7,111.0 205.5,110.7 206.2,110.3 207.0,109.9 207.7,109.4 208.3,108.8 208.9,108.2 209.5,107.5 210.0,106.8 210.4,106.1 210.8,105.3 211.0,104.5 211.3,103.6 211.4,102.8 211.5,101.9 211.5,101.1 211.4,100.2 211.3,99.4 211.0,98.5 210.8,97.7 210.4,96.9 210.0,96.2 209.5,95.5 208.9,94.8 208.3,94.2 207.7,93.6 207.0,93.1 206.2,92.7 205.5,92.3 204.7,92.0 203.8,91.8 203.0,91.6 202.1,91.5 201.3,91.5 200.4,91.6 199.6,91.7 198.7,91.9 197.9,92.2 197.1,92.5 196.4,92.9 195.7,93.4 195.0,93.9 194.4,94.5 193.8,95.1 193.3,95.8 192.8,96.6 192.4,97.3 192.1,98.1 191.8,98.9 191.6,99.8 191.5,100.6" fill="#FFFFFF" stroke="#000000" stroke-width="1.0" stroke-linecap="butt" stroke-linejoin="round" />
		</g>
		<g id="frame_a" class="port">
			<polygon points="103.5,203.5 103.5,199.5 99.5,199.5 99.5,203.5" fill-opacity="0" stroke="#5F5F5F" stroke-width="1.0" stroke-linecap="butt" stroke-linejoin="round" />
			<polygon points="121.5,207.5 121.5,195.5 81.5,195.5 81.5,207.5" fill="#C0C0C0" stroke="#000000" stroke-width="1.0" stroke-linecap="butt" stroke-linejoin="round" />
		</g>
	</g>
</svg>
