<svg width="223" height="233" xmlns="http://www.w3.org/2000/svg" xmlns:xlink="http://www.w3.org/1999/xlink">
	<g id="Modelica.Magnetic.QuasiStatic.FundamentalWave.BasicMachines.Components.PermanentMagnet" class="component">
		<polygon points="91.5,231.5 131.5,231.5 131.5,191.5 91.5,191.5" fill="#C0C0C0" stroke="#C0C0C0" stroke-width="1.0" stroke-linecap="round" stroke-linejoin="round" />
		<polygon points="151.5,111.5 151.4,108.1 150.9,104.6 150.2,101.3 149.2,98.0 147.9,94.8 146.3,91.7 144.5,88.8 142.4,86.1 140.1,83.5 137.6,81.2 134.9,79.0 132.0,77.1 129.0,75.5 125.8,74.1 122.5,73.1 119.2,72.2 115.8,71.7 112.4,71.5 108.9,71.6 105.5,72.0 102.1,72.6 98.8,73.6 95.6,74.8 92.5,76.3 89.5,78.1 86.8,80.1 84.1,82.3 81.7,84.8 79.5,87.4 77.6,90.3 75.9,93.3 74.5,96.4 73.3,99.6 72.4,103.0 71.8,106.3 71.5,109.8 71.5,113.2 71.8,116.6 72.4,120.0 73.3,123.4 74.5,126.6 75.9,129.7 77.6,132.7 79.5,135.6 81.7,138.2 84.1,140.7 86.8,142.9 89.5,144.9 92.5,146.7 95.6,148.2 98.8,149.4 102.1,150.4 105.5,151.0 108.9,151.4 112.4,151.5 115.8,151.3 119.2,150.7 122.5,149.9 125.8,148.9 129.0,147.5 132.0,145.8 134.9,144.0 137.6,141.8 140.1,139.5 142.4,136.9 144.5,134.2 146.3,131.2 147.9,128.2 149.2,125.0 150.2,121.7 150.9,118.3 151.4,114.9" fill-opacity="0" stroke="#C80000" stroke-width="1.0" stroke-linecap="round" stroke-linejoin="round" />
		<polyline points="11.5,111.5 211.5,111.5" fill-opacity="0" stroke="#FFAA55" stroke-width="1.0" stroke-linecap="round" stroke-linejoin="round" />
		<polygon points="161.5,111.5 161.3,107.2 160.8,102.9 159.8,98.7 158.6,94.6 156.9,90.6 155.0,86.8 152.7,83.2 150.1,79.7 147.2,76.5 144.1,73.6 140.7,70.9 137.1,68.6 133.3,66.5 129.4,64.8 125.3,63.4 121.1,62.4 116.9,61.8 112.6,61.5 108.3,61.6 104.0,62.1 99.8,62.9 95.6,64.1 91.6,65.6 87.8,67.5 84.1,69.7 80.6,72.2 77.3,75.0 74.3,78.1 71.6,81.4 69.1,85.0 67.0,88.7 65.2,92.6 63.8,96.7 62.7,100.8 61.9,105.1 61.5,109.3 61.5,113.6 61.9,117.9 62.7,122.2 63.8,126.3 65.2,130.4 67.0,134.3 69.1,138.0 71.6,141.6 74.3,144.9 77.3,148.0 80.6,150.8 84.1,153.3 87.8,155.5 91.6,157.4 95.6,158.9 99.8,160.1 104.0,160.9 108.3,161.4 112.6,161.5 116.9,161.2 121.1,160.6 125.3,159.6 129.4,158.2 133.3,156.5 137.1,154.4 140.7,152.1 144.1,149.4 147.2,146.5 150.1,143.3 152.7,139.8 155.0,136.2 156.9,132.4 158.6,128.4 159.8,124.3 160.8,120.1 161.3,115.8" fill-opacity="0" stroke="#FFAA55" stroke-width="1.0" stroke-linecap="round" stroke-linejoin="round" />
		<g id="flange" class="port">
			<polygon points="121.5,11.5 121.5,12.4 121.4,13.2 121.2,14.1 120.9,14.9 120.6,15.7 120.2,16.4 119.7,17.2 119.2,17.9 118.6,18.5 118.0,19.1 117.3,19.6 116.6,20.1 115.9,20.5 115.1,20.8 114.3,21.1 113.4,21.3 112.6,21.4 111.7,21.5 110.9,21.5 110.0,21.4 109.2,21.2 108.3,21.0 107.5,20.7 106.8,20.3 106.0,19.9 105.3,19.4 104.7,18.8 104.1,18.2 103.5,17.5 103.0,16.8 102.6,16.1 102.2,15.3 102.0,14.5 101.7,13.6 101.6,12.8 101.5,11.9 101.5,11.1 101.6,10.2 101.7,9.4 102.0,8.5 102.2,7.7 102.6,6.9 103.0,6.2 103.5,5.5 104.1,4.8 104.7,4.2 105.3,3.6 106.0,3.1 106.8,2.7 107.5,2.3 108.3,2.0 109.2,1.8 110.0,1.6 110.9,1.5 111.7,1.5 112.6,1.6 113.4,1.7 114.3,1.9 115.1,2.2 115.9,2.5 116.6,2.9 117.3,3.4 118.0,3.9 118.6,4.5 119.2,5.1 119.7,5.8 120.2,6.6 120.6,7.3 120.9,8.1 121.2,8.9 121.4,9.8 121.5,10.6" fill="#5F5F5F" stroke="#000000" stroke-width="1.0" stroke-linecap="round" stroke-linejoin="round" />
		</g>
		<g id="support" class="port">
			<polygon points="121.5,211.5 121.5,210.6 121.4,209.8 121.2,208.9 120.9,208.1 120.6,207.3 120.2,206.6 119.7,205.8 119.2,205.1 118.6,204.5 118.0,203.9 117.3,203.4 116.6,202.9 115.9,202.5 115.1,202.2 114.3,201.9 113.4,201.7 112.6,201.6 111.7,201.5 110.9,201.5 110.0,201.6 109.2,201.8 108.3,202.0 107.5,202.3 106.8,202.7 106.0,203.1 105.3,203.6 104.7,204.2 104.1,204.8 103.5,205.5 103.0,206.2 102.6,206.9 102.2,207.7 102.0,208.5 101.7,209.4 101.6,210.2 101.5,211.1 101.5,211.9 101.6,212.8 101.7,213.6 102.0,214.5 102.2,215.3 102.6,216.1 103.0,216.8 103.5,217.5 104.1,218.2 104.7,218.8 105.3,219.4 106.0,219.9 106.8,220.3 107.5,220.7 108.3,221.0 109.2,221.2 110.0,221.4 110.9,221.5 111.7,221.5 112.6,221.4 113.4,221.3 114.3,221.1 115.1,220.8 115.9,220.5 116.6,220.1 117.3,219.6 118.0,219.1 118.6,218.5 119.2,217.9 119.7,217.2 120.2,216.4 120.6,215.7 120.9,214.9 121.2,214.1 121.4,213.2 121.5,212.4" fill="#5F5F5F" stroke="#000000" stroke-width="1.0" stroke-linecap="round" stroke-linejoin="round" />
		</g>
		<g id="heatPort" class="port">
			<polygon points="1.5,221.5 21.5,221.5 21.5,201.5 1.5,201.5" fill="#BF0000" stroke="#BF0000" stroke-width="1.0" stroke-linecap="round" stroke-linejoin="round" />
		</g>
		<g id="port_p" class="port">
			<polygon points="21.5,111.5 21.5,110.6 21.4,109.8 21.2,108.9 20.9,108.1 20.6,107.3 20.2,106.6 19.7,105.8 19.2,105.1 18.6,104.5 18.0,103.9 17.3,103.4 16.6,102.9 15.9,102.5 15.1,102.2 14.3,101.9 13.4,101.7 12.6,101.6 11.7,101.5 10.9,101.5 10.0,101.6 9.2,101.8 8.3,102.0 7.5,102.3 6.8,102.7 6.0,103.1 5.3,103.6 4.7,104.2 4.1,104.8 3.5,105.5 3.0,106.2 2.6,106.9 2.2,107.7 2.0,108.5 1.7,109.4 1.6,110.2 1.5,111.1 1.5,111.9 1.6,112.8 1.7,113.6 2.0,114.5 2.2,115.3 2.6,116.1 3.0,116.8 3.5,117.5 4.1,118.2 4.7,118.8 5.3,119.4 6.0,119.9 6.8,120.3 7.5,120.7 8.3,121.0 9.2,121.2 10.0,121.4 10.9,121.5 11.7,121.5 12.6,121.4 13.4,121.3 14.3,121.1 15.1,120.8 15.9,120.5 16.6,120.1 17.3,119.6 18.0,119.1 18.6,118.5 19.2,117.9 19.7,117.2 20.2,116.4 20.6,115.7 20.9,114.9 21.2,114.1 21.4,113.2 21.5,112.4" fill="#FFAA55" stroke="#FFAA55" stroke-width="1.0" stroke-linecap="round" stroke-linejoin="round" />
		</g>
		<g id="port_n" class="port">
			<polygon points="221.5,111.5 221.5,110.6 221.4,109.8 221.2,108.9 220.9,108.1 220.6,107.3 220.2,106.6 219.7,105.8 219.2,105.1 218.6,104.5 218.0,103.9 217.3,103.4 216.6,102.9 215.9,102.5 215.1,102.2 214.3,101.9 213.4,101.7 212.6,101.6 211.7,101.5 210.9,101.5 210.0,101.6 209.2,101.8 208.3,102.0 207.5,102.3 206.8,102.7 206.0,103.1 205.3,103.6 204.7,104.2 204.1,104.8 203.5,105.5 203.0,106.2 202.6,106.9 202.2,107.7 202.0,108.5 201.7,109.4 201.6,110.2 201.5,111.1 201.5,111.9 201.6,112.8 201.7,113.6 202.0,114.5 202.2,115.3 202.6,116.1 203.0,116.8 203.5,117.5 204.1,118.2 204.7,118.8 205.3,119.4 206.0,119.9 206.8,120.3 207.5,120.7 208.3,121.0 209.2,121.2 210.0,121.4 210.9,121.5 211.7,121.5 212.6,121.4 213.4,121.3 214.3,121.1 215.1,120.8 215.9,120.5 216.6,120.1 217.3,119.6 218.0,119.1 218.6,118.5 219.2,117.9 219.7,117.2 220.2,116.4 220.6,115.7 220.9,114.9 221.2,114.1 221.4,113.2 221.5,112.4" fill="#FFFFFF" stroke="#FFAA55" stroke-width="1.0" stroke-linecap="round" stroke-linejoin="round" />
		</g>
	</g>
</svg>
