<svg width="223" height="233" xmlns="http://www.w3.org/2000/svg" xmlns:xlink="http://www.w3.org/1999/xlink">
	<g id="Modelica.Electrical.MultiPhase.Sensors.PowerSensor" class="component">
		<polygon points="181.5,111.5 181.2,105.5 180.5,99.5 179.2,93.6 177.4,87.9 175.1,82.3 172.4,76.9 169.2,71.8 165.6,67.0 161.5,62.5 157.1,58.4 152.4,54.7 147.4,51.4 142.1,48.5 136.5,46.1 130.8,44.2 125.0,42.8 119.0,41.9 113.0,41.5 107.0,41.6 101.0,42.3 95.1,43.4 89.3,45.1 83.7,47.3 78.3,49.9 73.1,53.0 68.2,56.5 63.6,60.4 59.4,64.7 55.6,69.4 52.2,74.3 49.2,79.6 46.7,85.1 44.7,90.7 43.1,96.6 42.1,102.5 41.6,108.5 41.6,114.5 42.1,120.5 43.1,126.4 44.7,132.3 46.7,137.9 49.2,143.4 52.2,148.6 55.6,153.6 59.4,158.3 63.6,162.6 68.2,166.5 73.1,170.0 78.3,173.1 83.7,175.7 89.3,177.9 95.1,179.5 101.0,180.7 107.0,181.4 113.0,181.5 119.0,181.1 125.0,180.2 130.8,178.8 136.5,176.9 142.1,174.5 147.4,171.6 152.4,168.3 157.1,164.6 161.5,160.5 165.6,156.0 169.2,151.2 172.4,146.1 175.1,140.7 177.4,135.1 179.2,129.4 180.5,123.5 181.2,117.5" fill="#F5F5F5" stroke="#000000" stroke-width="1.0" stroke-linecap="butt" stroke-linejoin="round" />
		<polyline points="111.5,41.5 111.5,71.5" fill-opacity="0" stroke="#000000" stroke-width="1.0" stroke-linecap="butt" stroke-linejoin="round" />
		<polyline points="134.4,78.7 151.7,54.2" fill-opacity="0" stroke="#000000" stroke-width="1.0" stroke-linecap="butt" stroke-linejoin="round" />
		<polyline points="88.6,78.7 71.3,54.2" fill-opacity="0" stroke="#000000" stroke-width="1.0" stroke-linecap="butt" stroke-linejoin="round" />
		<polyline points="149.1,97.8 177.3,87.6" fill-opacity="0" stroke="#000000" stroke-width="1.0" stroke-linecap="butt" stroke-linejoin="round" />
		<polyline points="73.9,97.8 45.7,87.6" fill-opacity="0" stroke="#000000" stroke-width="1.0" stroke-linecap="butt" stroke-linejoin="round" />
		<polygon points="123.5,111.5 123.5,110.5 123.3,109.4 123.1,108.4 122.8,107.4 122.4,106.5 121.9,105.6 121.4,104.7 120.8,103.9 120.1,103.1 119.3,102.4 118.5,101.8 117.6,101.2 116.7,100.7 115.8,100.3 114.8,100.0 113.8,99.7 112.8,99.6 111.8,99.5 110.7,99.5 109.7,99.6 108.7,99.8 107.7,100.1 106.7,100.5 105.8,100.9 104.9,101.5 104.1,102.1 103.3,102.7 102.6,103.5 101.9,104.3 101.3,105.1 100.8,106.0 100.4,107.0 100.0,107.9 99.8,108.9 99.6,110.0 99.5,111.0 99.5,112.0 99.6,113.0 99.8,114.1 100.0,115.1 100.4,116.0 100.8,117.0 101.3,117.9 101.9,118.7 102.6,119.5 103.3,120.3 104.1,120.9 104.9,121.5 105.8,122.1 106.7,122.5 107.7,122.9 108.7,123.2 109.7,123.4 110.7,123.5 111.8,123.5 112.8,123.4 113.8,123.3 114.8,123.0 115.8,122.7 116.7,122.3 117.6,121.8 118.5,121.2 119.3,120.6 120.1,119.9 120.8,119.1 121.4,118.3 121.9,117.4 122.4,116.5 122.8,115.5 123.1,114.6 123.3,113.6 123.5,112.5" fill-opacity="0" stroke="#404040" stroke-width="1.0" stroke-linecap="butt" stroke-linejoin="round" />
		<polygon points="106.7,110.0 127.6,53.7 131.0,49.5 131.4,54.9 116.3,113.0" fill="#404040" stroke-opacity="0" stroke-width="1.0" stroke-linecap="butt" stroke-linejoin="round" />
		<polygon points="118.5,111.5 118.5,110.9 118.4,110.3 118.3,109.7 118.1,109.1 117.9,108.6 117.6,108.0 117.3,107.5 116.9,107.0 116.5,106.6 116.1,106.2 115.6,105.8 115.1,105.5 114.6,105.2 114.0,105.0 113.4,104.8 112.8,104.6 112.3,104.5 111.7,104.5 111.0,104.5 110.4,104.6 109.9,104.7 109.3,104.9 108.7,105.1 108.2,105.3 107.7,105.6 107.2,106.0 106.7,106.4 106.3,106.8 105.9,107.3 105.6,107.8 105.3,108.3 105.0,108.9 104.8,109.4 104.7,110.0 104.6,110.6 104.5,111.2 104.5,111.8 104.6,112.4 104.7,113.0 104.8,113.6 105.0,114.1 105.3,114.7 105.6,115.2 105.9,115.7 106.3,116.2 106.7,116.6 107.2,117.0 107.7,117.3 108.2,117.7 108.7,117.9 109.3,118.1 109.9,118.3 110.4,118.4 111.0,118.5 111.7,118.5 112.3,118.5 112.8,118.4 113.4,118.2 114.0,118.0 114.6,117.8 115.1,117.5 115.6,117.2 116.1,116.8 116.5,116.4 116.9,115.9 117.3,115.5 117.6,115.0 117.9,114.4 118.1,113.9 118.3,113.3 118.4,112.7 118.5,112.1" fill="#404040" stroke-opacity="0" stroke-width="1.0" stroke-linecap="butt" stroke-linejoin="round" />
		<polyline points="111.5,11.5 111.5,41.5" fill-opacity="0" stroke="#0000FF" stroke-width="1.0" stroke-linecap="butt" stroke-linejoin="round" />
		<polyline points="111.5,181.5 111.5,211.5" fill-opacity="0" stroke="#0000FF" stroke-width="1.0" stroke-linecap="butt" stroke-linejoin="round" />
		<polygon points="116.5,111.5 116.5,111.1 116.4,110.6 116.3,110.2 116.2,109.8 116.0,109.4 115.8,109.0 115.6,108.7 115.4,108.3 115.1,108.0 114.8,107.7 114.4,107.4 114.1,107.2 113.7,107.0 113.3,106.8 112.9,106.7 112.5,106.6 112.0,106.5 111.6,106.5 111.2,106.5 110.7,106.6 110.3,106.6 109.9,106.8 109.5,106.9 109.1,107.1 108.8,107.3 108.4,107.6 108.1,107.8 107.8,108.2 107.5,108.5 107.3,108.8 107.0,109.2 106.9,109.6 106.7,110.0 106.6,110.4 106.5,110.9 106.5,111.3 106.5,111.7 106.5,112.1 106.6,112.6 106.7,113.0 106.9,113.4 107.0,113.8 107.3,114.2 107.5,114.5 107.8,114.8 108.1,115.1 108.4,115.4 108.8,115.7 109.1,115.9 109.5,116.1 109.9,116.2 110.3,116.4 110.7,116.4 111.2,116.5 111.6,116.5 112.0,116.5 112.5,116.4 112.9,116.3 113.3,116.2 113.7,116.0 114.1,115.8 114.4,115.6 114.8,115.3 115.1,115.0 115.4,114.7 115.6,114.3 115.8,114.0 116.0,113.6 116.2,113.2 116.3,112.8 116.4,112.4 116.5,111.9" fill="#000000" stroke="#000000" stroke-width="1.0" stroke-linecap="butt" stroke-linejoin="round" />
		<text x="112.0" y="180.1" text-anchor="middle" fill="#000000" font-size="78.4px" font-family="sans-serif">P</text>
		<polyline points="11.5,111.5 211.5,111.5" fill-opacity="0" stroke="#0000FF" stroke-width="1.0" stroke-linecap="butt" stroke-linejoin="round" />
		<polyline points="11.5,211.5 11.5,191.5 53.5,149.5" fill-opacity="0" stroke="#00007F" stroke-width="1.0" stroke-linecap="butt" stroke-linejoin="round" />
		<g id="pc" class="port">
			<polygon points="21.5,111.5 21.5,112.4 21.4,113.2 21.2,114.1 20.9,114.9 20.6,115.7 20.2,116.4 19.7,117.2 19.2,117.9 18.6,118.5 18.0,119.1 17.3,119.6 16.6,120.1 15.9,120.5 15.1,120.8 14.3,121.1 13.4,121.3 12.6,121.4 11.7,121.5 10.9,121.5 10.0,121.4 9.2,121.2 8.3,121.0 7.5,120.7 6.8,120.3 6.0,119.9 5.3,119.4 4.7,118.8 4.1,118.2 3.5,117.5 3.0,116.8 2.6,116.1 2.2,115.3 2.0,114.5 1.7,113.6 1.6,112.8 1.5,111.9 1.5,111.1 1.6,110.2 1.7,109.4 2.0,108.5 2.2,107.7 2.6,106.9 3.0,106.2 3.5,105.5 4.1,104.8 4.7,104.2 5.3,103.6 6.0,103.1 6.8,102.7 7.5,102.3 8.3,102.0 9.2,101.8 10.0,101.6 10.9,101.5 11.7,101.5 12.6,101.6 13.4,101.7 14.3,101.9 15.1,102.2 15.9,102.5 16.6,102.9 17.3,103.4 18.0,103.9 18.6,104.5 19.2,105.1 19.7,105.8 20.2,106.6 20.6,107.3 20.9,108.1 21.2,108.9 21.4,109.8 21.5,110.6" fill="#0000FF" stroke="#0000FF" stroke-width="1.0" stroke-linecap="butt" stroke-linejoin="round" />
		</g>
		<g id="nc" class="port">
			<polygon points="221.5,111.5 221.5,112.4 221.4,113.2 221.2,114.1 220.9,114.9 220.6,115.7 220.2,116.4 219.7,117.2 219.2,117.9 218.6,118.5 218.0,119.1 217.3,119.6 216.6,120.1 215.9,120.5 215.1,120.8 214.3,121.1 213.4,121.3 212.6,121.4 211.7,121.5 210.9,121.5 210.0,121.4 209.2,121.2 208.3,121.0 207.5,120.7 206.8,120.3 206.0,119.9 205.3,119.4 204.7,118.8 204.1,118.2 203.5,117.5 203.0,116.8 202.6,116.1 202.2,115.3 202.0,114.5 201.7,113.6 201.6,112.8 201.5,111.9 201.5,111.1 201.6,110.2 201.7,109.4 202.0,108.5 202.2,107.7 202.6,106.9 203.0,106.2 203.5,105.5 204.1,104.8 204.7,104.2 205.3,103.6 206.0,103.1 206.8,102.7 207.5,102.3 208.3,102.0 209.2,101.8 210.0,101.6 210.9,101.5 211.7,101.5 212.6,101.6 213.4,101.7 214.3,101.9 215.1,102.2 215.9,102.5 216.6,102.9 217.3,103.4 218.0,103.9 218.6,104.5 219.2,105.1 219.7,105.8 220.2,106.6 220.6,107.3 220.9,108.1 221.2,108.9 221.4,109.8 221.5,110.6" fill="#FFFFFF" stroke="#0000FF" stroke-width="1.0" stroke-linecap="butt" stroke-linejoin="round" />
		</g>
		<g id="pv" class="port">
			<polygon points="121.5,11.5 121.5,10.6 121.4,9.8 121.2,8.9 120.9,8.1 120.6,7.3 120.2,6.6 119.7,5.8 119.2,5.1 118.6,4.5 118.0,3.9 117.3,3.4 116.6,2.9 115.9,2.5 115.1,2.2 114.3,1.9 113.4,1.7 112.6,1.6 111.7,1.5 110.9,1.5 110.0,1.6 109.2,1.8 108.3,2.0 107.5,2.3 106.8,2.7 106.0,3.1 105.3,3.6 104.7,4.2 104.1,4.8 103.5,5.5 103.0,6.2 102.6,6.9 102.2,7.7 102.0,8.5 101.7,9.4 101.6,10.2 101.5,11.1 101.5,11.9 101.6,12.8 101.7,13.6 102.0,14.5 102.2,15.3 102.6,16.1 103.0,16.8 103.5,17.5 104.1,18.2 104.7,18.8 105.3,19.4 106.0,19.9 106.8,20.3 107.5,20.7 108.3,21.0 109.2,21.2 110.0,21.4 110.9,21.5 111.7,21.5 112.6,21.4 113.4,21.3 114.3,21.1 115.1,20.8 115.9,20.5 116.6,20.1 117.3,19.6 118.0,19.1 118.6,18.5 119.2,17.9 119.7,17.2 120.2,16.4 120.6,15.7 120.9,14.9 121.2,14.1 121.4,13.2 121.5,12.4" fill="#0000FF" stroke="#0000FF" stroke-width="1.0" stroke-linecap="butt" stroke-linejoin="round" />
		</g>
		<g id="nv" class="port">
			<polygon points="121.5,211.5 121.5,212.4 121.4,213.2 121.2,214.1 120.9,214.9 120.6,215.7 120.2,216.4 119.7,217.2 119.2,217.9 118.6,218.5 118.0,219.1 117.3,219.6 116.6,220.1 115.9,220.5 115.1,220.8 114.3,221.1 113.4,221.3 112.6,221.4 111.7,221.5 110.9,221.5 110.0,221.4 109.2,221.2 108.3,221.0 107.5,220.7 106.8,220.3 106.0,219.9 105.3,219.4 104.7,218.8 104.1,218.2 103.5,217.5 103.0,216.8 102.6,216.1 102.2,215.3 102.0,214.5 101.7,213.6 101.6,212.8 101.5,211.9 101.5,211.1 101.6,210.2 101.7,209.4 102.0,208.5 102.2,207.7 102.6,206.9 103.0,206.2 103.5,205.5 104.1,204.8 104.7,204.2 105.3,203.6 106.0,203.1 106.8,202.7 107.5,202.3 108.3,202.0 109.2,201.8 110.0,201.6 110.9,201.5 111.7,201.5 112.6,201.6 113.4,201.7 114.3,201.9 115.1,202.2 115.9,202.5 116.6,202.9 117.3,203.4 118.0,203.9 118.6,204.5 119.2,205.1 119.7,205.8 120.2,206.6 120.6,207.3 120.9,208.1 121.2,208.9 121.4,209.8 121.5,210.6" fill="#FFFFFF" stroke="#0000FF" stroke-width="1.0" stroke-linecap="butt" stroke-linejoin="round" />
		</g>
		<g id="power" class="port">
			<polygon points="1.5,211.5 11.5,231.5 21.5,211.5" fill="#FFFFFF" stroke="#00007F" stroke-width="1.0" stroke-linecap="butt" stroke-linejoin="round" />
		</g>
	</g>
</svg>
