<svg width="228" height="223" xmlns="http://www.w3.org/2000/svg" xmlns:xlink="http://www.w3.org/1999/xlink">
	<g id="Modelica.Electrical.Analog.Basic.TranslationalEMF" class="component">
		<defs>
			<linearGradient id="cyl2" x1="0" y1="0" x2="0" y2="1">
				<stop offset="0%" stop-color="#000000" />
				<stop offset="5%" stop-color="#1A1A1A" />
				<stop offset="10%" stop-color="#313131" />
				<stop offset="15%" stop-color="#454545" />
				<stop offset="20%" stop-color="#565656" />
				<stop offset="25%" stop-color="#656565" />
				<stop offset="30%" stop-color="#717171" />
				<stop offset="35%" stop-color="#7B7B7B" />
				<stop offset="40%" stop-color="#828282" />
				<stop offset="45%" stop-color="#868686" />
				<stop offset="50%" stop-color="#878787" />
				<stop offset="55%" stop-color="#868686" />
				<stop offset="60%" stop-color="#828282" />
				<stop offset="65%" stop-color="#7B7B7B" />
				<stop offset="70%" stop-color="#717171" />
				<stop offset="75%" stop-color="#656565" />
				<stop offset="80%" stop-color="#565656" />
				<stop offset="85%" stop-color="#454545" />
				<stop offset="90%" stop-color="#313131" />
				<stop offset="95%" stop-color="#1A1A1A" />
				<stop offset="100%" stop-color="#000000" />
			</linearGradient>
		</defs>
		<polygon points="26.5,161.5 76.5,161.5 76.5,60.5 26.5,60.5" fill="url(#cyl2)" stroke="#000000" stroke-width="1.0" stroke-linecap="butt" stroke-linejoin="round" />
		<polygon points="95.5,131.5 206.5,131.5 206.5,91.5 95.5,91.5" fill="#878787" stroke="#878787" stroke-width="1.0" stroke-linecap="butt" stroke-linejoin="round" />
		<polyline points="86.5,62.5 86.5,31.5 116.5,31.5 116.5,20.5" fill-opacity="0" stroke="#0000FF" stroke-width="1.0" stroke-linecap="butt" stroke-linejoin="round" />
		<polyline points="136.5,160.5 136.5,191.5 116.5,191.5 116.5,200.5 116.5,201.5" fill-opacity="0" stroke="#0000FF" stroke-width="1.0" stroke-linecap="butt" stroke-linejoin="round" />
		<polygon points="125.5,111.5 125.4,107.2 125.3,102.9 125.0,98.7 124.6,94.6 124.1,90.6 123.5,86.8 122.9,83.2 122.1,79.7 121.2,76.5 120.3,73.6 119.3,70.9 118.2,68.6 117.0,66.5 115.9,64.8 114.6,63.4 113.4,62.4 112.1,61.8 110.8,61.5 109.5,61.6 108.2,62.1 107.0,62.9 105.7,64.1 104.5,65.6 103.4,67.5 102.3,69.7 101.2,72.2 100.2,75.0 99.3,78.1 98.5,81.4 97.8,85.0 97.1,88.7 96.6,92.6 96.2,96.7 95.8,100.8 95.6,105.1 95.5,109.3 95.5,113.7 95.6,117.9 95.8,122.2 96.2,126.3 96.6,130.4 97.1,134.3 97.8,138.0 98.5,141.6 99.3,144.9 100.2,148.0 101.2,150.8 102.3,153.3 103.4,155.5 104.5,157.4 105.7,158.9 107.0,160.1 108.2,160.9 109.5,161.4 110.8,161.5 112.1,161.2 113.4,160.6 114.6,159.6 115.9,158.2 117.0,156.5 118.2,154.4 119.3,152.1 120.3,149.4 121.2,146.5 122.1,143.3 122.9,139.8 123.5,136.2 124.1,132.4 124.6,128.4 125.0,124.3 125.3,120.1 125.4,115.8" fill-opacity="0" stroke="#0000FF" stroke-width="1.0" stroke-linecap="butt" stroke-linejoin="round" />
		<polygon points="148.5,111.5 148.4,107.2 148.3,102.9 148.0,98.7 147.6,94.6 147.1,90.6 146.5,86.8 145.9,83.2 145.1,79.7 144.2,76.5 143.3,73.6 142.3,70.9 141.2,68.6 140.0,66.5 138.9,64.8 137.6,63.4 136.4,62.4 135.1,61.8 133.8,61.5 132.5,61.6 131.2,62.1 130.0,62.9 128.7,64.1 127.5,65.6 126.4,67.5 125.3,69.7 124.2,72.2 123.2,75.0 122.3,78.1 121.5,81.4 120.8,85.0 120.1,88.7 119.6,92.6 119.2,96.7 118.8,100.8 118.6,105.1 118.5,109.3 118.5,113.7 118.6,117.9 118.8,122.2 119.2,126.3 119.6,130.4 120.1,134.3 120.8,138.0 121.5,141.6 122.3,144.9 123.2,148.0 124.2,150.8 125.3,153.3 126.4,155.5 127.5,157.4 128.7,158.9 130.0,160.1 131.2,160.9 132.5,161.4 133.8,161.5 135.1,161.2 136.4,160.6 137.6,159.6 138.9,158.2 140.0,156.5 141.2,154.4 142.3,152.1 143.3,149.4 144.2,146.5 145.1,143.3 145.9,139.8 146.5,136.2 147.1,132.4 147.6,128.4 148.0,124.3 148.3,120.1 148.4,115.8" fill-opacity="0" stroke="#0000FF" stroke-width="1.0" stroke-linecap="butt" stroke-linejoin="round" />
		<polygon points="103.5,111.5 103.4,107.2 103.3,102.9 103.0,98.7 102.6,94.6 102.1,90.6 101.5,86.8 100.9,83.2 100.1,79.7 99.2,76.5 98.3,73.6 97.3,70.9 96.2,68.6 95.0,66.5 93.9,64.8 92.6,63.4 91.4,62.4 90.1,61.8 88.8,61.5 87.5,61.6 86.2,62.1 85.0,62.9 83.7,64.1 82.5,65.6 81.4,67.5 80.3,69.7 79.2,72.2 78.2,75.0 77.3,78.1 76.5,81.4 75.8,85.0 75.1,88.7 74.6,92.6 74.2,96.7 73.8,100.8 73.6,105.1 73.5,109.3 73.5,113.7 73.6,117.9 73.8,122.2 74.2,126.3 74.6,130.4 75.1,134.3 75.8,138.0 76.5,141.6 77.3,144.9 78.2,148.0 79.2,150.8 80.3,153.3 81.4,155.5 82.5,157.4 83.7,158.9 85.0,160.1 86.2,160.9 87.5,161.4 88.8,161.5 90.1,161.2 91.4,160.6 92.6,159.6 93.9,158.2 95.0,156.5 96.2,154.4 97.3,152.1 98.3,149.4 99.2,146.5 100.1,143.3 100.9,139.8 101.5,136.2 102.1,132.4 102.6,128.4 103.0,124.3 103.3,120.1 103.4,115.8" fill-opacity="0" stroke="#0000FF" stroke-width="1.0" stroke-linecap="butt" stroke-linejoin="round" />
		<polygon points="112.5,131.5 115.5,131.5 115.5,91.5 112.5,91.5" fill="#878787" stroke="#878787" stroke-width="1.0" stroke-linecap="butt" stroke-linejoin="round" />
		<polygon points="123.5,131.5 126.5,131.5 126.5,91.5 123.5,91.5" fill="#878787" stroke="#878787" stroke-width="1.0" stroke-linecap="butt" stroke-linejoin="round" />
		<polygon points="102.5,131.5 105.5,131.5 105.5,91.5 102.5,91.5" fill="#878787" stroke="#878787" stroke-width="1.0" stroke-linecap="butt" stroke-linejoin="round" />
		<polygon points="135.5,131.5 160.5,131.5 160.5,91.5 135.5,91.5" fill="#878787" stroke="#878787" stroke-width="1.0" stroke-linecap="butt" stroke-linejoin="round" />
		<polyline points="16.5,181.5 76.5,181.5" fill-opacity="0" stroke="#000000" stroke-width="1.0" stroke-linecap="butt" stroke-linejoin="round" />
		<polyline points="16.5,201.5 36.5,181.5" fill-opacity="0" stroke="#000000" stroke-width="1.0" stroke-linecap="butt" stroke-linejoin="round" />
		<polyline points="36.5,201.5 56.5,181.5" fill-opacity="0" stroke="#000000" stroke-width="1.0" stroke-linecap="butt" stroke-linejoin="round" />
		<polyline points="56.5,201.5 76.5,181.5" fill-opacity="0" stroke="#000000" stroke-width="1.0" stroke-linecap="butt" stroke-linejoin="round" />
		<polyline points="46.5,181.5 46.5,161.5" fill-opacity="0" stroke="#000000" stroke-width="1.0" stroke-linecap="butt" stroke-linejoin="round" />
		<g id="p" class="port">
			<polygon points="126.5,21.5 126.5,1.5 106.5,1.5 106.5,21.5" fill="#0000FF" stroke="#0000FF" stroke-width="1.0" stroke-linecap="butt" stroke-linejoin="round" />
		</g>
		<g id="n" class="port">
			<polygon points="126.5,221.5 126.5,201.5 106.5,201.5 106.5,221.5" fill="#FFFFFF" stroke="#0000FF" stroke-width="1.0" stroke-linecap="butt" stroke-linejoin="round" />
		</g>
		<g id="flange" class="port">
			<polygon points="206.5,121.5 226.5,121.5 226.5,101.5 206.5,101.5" fill="#FFFFFF" stroke="#007F00" stroke-width="1.0" stroke-linecap="butt" stroke-linejoin="round" />
		</g>
		<g id="support" class="port">
			<polygon points="7.5,120.5 25.5,120.5 25.5,102.5 7.5,102.5" fill="#AFAFAF" stroke="#007F00" stroke-width="1.0" stroke-linecap="butt" stroke-linejoin="round" />
			<polygon points="1.5,126.5 31.5,126.5 31.5,96.5 1.5,96.5" fill="#AFBEAF" stroke-opacity="0" stroke-width="1.0" stroke-linecap="butt" stroke-linejoin="round" />
			<polygon points="7.5,120.5 25.5,120.5 25.5,102.5 7.5,102.5" fill="#007F00" stroke="#007F00" stroke-width="1.0" stroke-linecap="butt" stroke-linejoin="round" />
		</g>
	</g>
</svg>
