<svg width="263" height="203" xmlns="http://www.w3.org/2000/svg" xmlns:xlink="http://www.w3.org/1999/xlink">
	<g id="Modelica.Blocks.Examples.NoiseExamples.Utilities.UniformDensity" class="component">
		<polygon points="41.5,201.5 241.5,201.5 241.5,1.5 41.5,1.5" fill="#FFFFFF" stroke="#00007F" stroke-width="1.0" stroke-linecap="round" stroke-linejoin="round" />
		<polygon points="141.5,7.5 133.5,29.5 149.5,29.5" fill="#C0C0C0" stroke="#C0C0C0" stroke-width="1.0" stroke-linecap="round" stroke-linejoin="round" />
		<polyline points="141.5,25.5 141.5,173.5" fill-opacity="0" stroke="#C0C0C0" stroke-width="1.0" stroke-linecap="round" stroke-linejoin="round" />
		<polyline points="55.5,183.5 213.5,183.5" fill-opacity="0" stroke="#C0C0C0" stroke-width="1.0" stroke-linecap="round" stroke-linejoin="round" />
		<polygon points="233.5,183.5 211.5,175.5 211.5,191.5" fill="#C0C0C0" stroke="#C0C0C0" stroke-width="1.0" stroke-linecap="round" stroke-linejoin="round" />
		<polyline points="71.5,177.5 73.2,177.4 75.0,177.4 76.8,177.3 76.8,177.3 78.5,177.3 80.2,177.2 80.2,177.2 82.0,177.0 83.8,176.9 83.8,176.9 85.5,176.6 87.2,176.3 87.2,176.3 89.0,175.9 90.8,175.3 90.8,175.3 92.5,174.6 94.2,173.7 94.2,173.7 95.4,173.0 96.6,172.2 97.8,171.2 97.8,171.2 98.9,170.1 100.1,168.8 101.2,167.3 101.2,167.3 102.4,165.7 103.6,163.9 104.8,161.8 104.8,161.8 105.6,160.1 106.5,158.3 107.4,156.3 108.2,154.2 108.2,154.2 109.1,151.9 110.0,149.5 110.9,146.9 111.8,144.2 111.8,144.2 112.9,140.3 114.1,136.2 115.2,131.8 115.2,131.8 116.4,127.1 117.6,122.2 118.8,117.1 118.8,117.1 120.5,109.2 122.2,100.9 122.2,100.9 124.0,92.6 125.8,84.2 125.8,84.2 127.5,76.0 129.2,68.2 129.2,68.2 130.4,63.2 131.6,58.6 132.8,54.4 132.8,54.4 133.6,51.4 134.5,48.8 135.4,46.4 136.2,44.2 136.2,44.2 137.4,41.8 138.6,40.1 139.8,38.8 139.8,38.8 141.5,38.1 143.2,38.8 143.2,38.8 144.4,40.1 145.6,41.8 146.8,44.2 146.8,44.2 147.6,46.4 148.5,48.8 149.4,51.4 150.2,54.4 150.2,54.4 151.4,58.6 152.6,63.2 153.8,68.2 153.8,68.2 155.5,76.0 157.2,84.2 157.2,84.2 159.0,92.6 160.8,100.9 160.8,100.9 162.5,109.2 164.2,117.1 164.2,117.1 165.4,122.2 166.6,127.1 167.8,131.8 167.8,131.8 168.9,136.2 170.1,140.3 171.2,144.2 171.2,144.2 172.1,146.9 173.0,149.5 173.9,151.9 174.8,154.2 174.8,154.2 175.6,156.3 176.5,158.3 177.4,160.1 178.2,161.8 178.2,161.8 179.4,163.9 180.6,165.7 181.8,167.3 181.8,167.3 182.9,168.8 184.1,170.1 185.2,171.2 185.2,171.2 186.4,172.2 187.6,173.0 188.8,173.7 188.8,173.7 190.5,174.6 192.2,175.3 192.2,175.3 194.0,175.9 195.8,176.3 195.8,176.3 197.5,176.6 199.2,176.9 199.2,176.9 201.0,177.0 202.8,177.2 202.8,177.2 204.5,177.3 206.2,177.3 206.2,177.3 208.0,177.4 209.8,177.4 211.5,177.5" fill-opacity="0" stroke="#000000" stroke-width="1.0" stroke-linecap="round" stroke-linejoin="round" />
		<g id="u" class="port">
			<polygon points="1.5,81.5 41.5,101.5 1.5,121.5" fill="#00007F" stroke="#00007F" stroke-width="1.0" stroke-linecap="round" stroke-linejoin="round" />
		</g>
		<g id="y" class="port">
			<polygon points="241.5,91.5 261.5,101.5 241.5,111.5" fill="#FFFFFF" stroke="#00007F" stroke-width="1.0" stroke-linecap="round" stroke-linejoin="round" />
		</g>
	</g>
</svg>
