<svg width="213" height="203" xmlns="http://www.w3.org/2000/svg" xmlns:xlink="http://www.w3.org/1999/xlink">
	<g id="Modelica.Magnetic.QuasiStatic.FundamentalWave.Utilities.TerminalBox" class="component">
		<text x="111.5" y="175.3" text-anchor="middle" fill="#000000" font-size="9.2px" font-family="sans-serif">terminalConnection</text>
		<polygon points="31.5,141.5 31.5,145.5 31.5,181.5 71.5,201.5 151.5,201.5 191.5,171.5 191.5,145.5 187.5,141.5" fill="#878787" stroke="#5F5F5F" stroke-width="1.0" stroke-linecap="round" stroke-linejoin="round" />
		<g id="plug_sp" class="port">
			<polygon points="181.5,161.5 181.5,162.4 181.4,163.2 181.2,164.1 180.9,164.9 180.6,165.7 180.2,166.4 179.7,167.2 179.2,167.9 178.6,168.5 178.0,169.1 177.3,169.6 176.6,170.1 175.9,170.5 175.1,170.8 174.3,171.1 173.4,171.3 172.6,171.4 171.7,171.5 170.9,171.5 170.0,171.4 169.2,171.2 168.3,171.0 167.5,170.7 166.8,170.3 166.0,169.9 165.3,169.4 164.7,168.8 164.1,168.2 163.5,167.5 163.0,166.8 162.6,166.1 162.2,165.3 162.0,164.5 161.7,163.6 161.6,162.8 161.5,161.9 161.5,161.1 161.6,160.2 161.7,159.4 162.0,158.5 162.2,157.7 162.6,156.9 163.0,156.2 163.5,155.5 164.1,154.8 164.7,154.2 165.3,153.6 166.0,153.1 166.8,152.7 167.5,152.3 168.3,152.0 169.2,151.8 170.0,151.6 170.9,151.5 171.7,151.5 172.6,151.6 173.4,151.7 174.3,151.9 175.1,152.2 175.9,152.5 176.6,152.9 177.3,153.4 178.0,153.9 178.6,154.5 179.2,155.1 179.7,155.8 180.2,156.6 180.6,157.3 180.9,158.1 181.2,158.9 181.4,159.8 181.5,160.6" fill="#55AAFF" stroke="#55AAFF" stroke-width="1.0" stroke-linecap="round" stroke-linejoin="round" />
		</g>
		<g id="plug_sn" class="port">
			<polygon points="61.5,161.5 61.5,162.4 61.4,163.2 61.2,164.1 60.9,164.9 60.6,165.7 60.2,166.4 59.7,167.2 59.2,167.9 58.6,168.5 58.0,169.1 57.3,169.6 56.6,170.1 55.9,170.5 55.1,170.8 54.3,171.1 53.4,171.3 52.6,171.4 51.7,171.5 50.9,171.5 50.0,171.4 49.2,171.2 48.3,171.0 47.5,170.7 46.8,170.3 46.0,169.9 45.3,169.4 44.7,168.8 44.1,168.2 43.5,167.5 43.0,166.8 42.6,166.1 42.2,165.3 42.0,164.5 41.7,163.6 41.6,162.8 41.5,161.9 41.5,161.1 41.6,160.2 41.7,159.4 42.0,158.5 42.2,157.7 42.6,156.9 43.0,156.2 43.5,155.5 44.1,154.8 44.7,154.2 45.3,153.6 46.0,153.1 46.8,152.7 47.5,152.3 48.3,152.0 49.2,151.8 50.0,151.6 50.9,151.5 51.7,151.5 52.6,151.6 53.4,151.7 54.3,151.9 55.1,152.2 55.9,152.5 56.6,152.9 57.3,153.4 58.0,153.9 58.6,154.5 59.2,155.1 59.7,155.8 60.2,156.6 60.6,157.3 60.9,158.1 61.2,158.9 61.4,159.8 61.5,160.6" fill="#FFFFFF" stroke="#55AAFF" stroke-width="1.0" stroke-linecap="round" stroke-linejoin="round" />
		</g>
		<g id="plugSupply" class="port">
			<polygon points="121.5,141.5 121.5,142.4 121.4,143.2 121.2,144.1 120.9,144.9 120.6,145.7 120.2,146.4 119.7,147.2 119.2,147.9 118.6,148.5 118.0,149.1 117.3,149.6 116.6,150.1 115.9,150.5 115.1,150.8 114.3,151.1 113.4,151.3 112.6,151.4 111.7,151.5 110.9,151.5 110.0,151.4 109.2,151.2 108.3,151.0 107.5,150.7 106.8,150.3 106.0,149.9 105.3,149.4 104.7,148.8 104.1,148.2 103.5,147.5 103.0,146.8 102.6,146.1 102.2,145.3 102.0,144.5 101.7,143.6 101.6,142.8 101.5,141.9 101.5,141.1 101.6,140.2 101.7,139.4 102.0,138.5 102.2,137.7 102.6,136.9 103.0,136.2 103.5,135.5 104.1,134.8 104.7,134.2 105.3,133.6 106.0,133.1 106.8,132.7 107.5,132.3 108.3,132.0 109.2,131.8 110.0,131.6 110.9,131.5 111.7,131.5 112.6,131.6 113.4,131.7 114.3,131.9 115.1,132.2 115.9,132.5 116.6,132.9 117.3,133.4 118.0,133.9 118.6,134.5 119.2,135.1 119.7,135.8 120.2,136.6 120.6,137.3 120.9,138.1 121.2,138.9 121.4,139.8 121.5,140.6" fill="#55AAFF" stroke="#55AAFF" stroke-width="1.0" stroke-linecap="round" stroke-linejoin="round" />
		</g>
		<g id="starpoint" class="port">
			<polygon points="1.5,151.5 21.5,151.5 21.5,131.5 1.5,131.5" fill="#FFFFFF" stroke="#55AAFF" stroke-width="1.0" stroke-linecap="round" stroke-linejoin="round" />
		</g>
	</g>
</svg>
