<svg width="223" height="253" xmlns="http://www.w3.org/2000/svg" xmlns:xlink="http://www.w3.org/1999/xlink">
	<g id="Modelica.Electrical.QuasiStationary.SinglePhase.Ideal.IdealCommutingSwitch" class="component">
		<polygon points="75.5,141.5 75.5,141.2 75.4,140.8 75.4,140.5 75.3,140.1 75.1,139.8 75.0,139.5 74.8,139.2 74.6,139.0 74.4,138.7 74.1,138.5 73.8,138.3 73.5,138.1 73.2,137.9 72.9,137.8 72.6,137.7 72.3,137.6 71.9,137.5 71.6,137.5 71.2,137.5 70.9,137.5 70.6,137.6 70.2,137.7 69.9,137.8 69.6,138.0 69.3,138.2 69.0,138.4 68.8,138.6 68.5,138.8 68.3,139.1 68.1,139.4 67.9,139.7 67.8,140.0 67.7,140.3 67.6,140.6 67.5,141.0 67.5,141.3 67.5,141.7 67.5,142.0 67.6,142.4 67.7,142.7 67.8,143.0 67.9,143.3 68.1,143.6 68.3,143.9 68.5,144.2 68.8,144.4 69.0,144.6 69.3,144.8 69.6,145.0 69.9,145.2 70.2,145.3 70.6,145.4 70.9,145.5 71.2,145.5 71.6,145.5 71.9,145.5 72.3,145.4 72.6,145.3 72.9,145.2 73.2,145.1 73.5,144.9 73.8,144.7 74.1,144.5 74.4,144.3 74.6,144.0 74.8,143.8 75.0,143.5 75.1,143.2 75.3,142.9 75.4,142.5 75.4,142.2 75.5,141.8" fill-opacity="0" stroke="#55AAFF" stroke-width="1.0" stroke-linecap="butt" stroke-linejoin="round" />
		<polyline points="11.5,141.5 67.5,141.5" fill-opacity="0" stroke="#55AAFF" stroke-width="1.0" stroke-linecap="butt" stroke-linejoin="round" />
		<polyline points="74.5,139.5 151.5,101.5" fill-opacity="0" stroke="#55AAFF" stroke-width="1.0" stroke-linecap="butt" stroke-linejoin="round" />
		<polyline points="151.5,101.5 211.5,101.5" fill-opacity="0" stroke="#55AAFF" stroke-width="1.0" stroke-linecap="butt" stroke-linejoin="round" />
		<polyline points="151.5,141.5 211.5,141.5" fill-opacity="0" stroke="#55AAFF" stroke-width="1.0" stroke-linecap="butt" stroke-linejoin="round" />
		<g id="heatPort" class="port">
			<polygon points="101.5,251.5 121.5,251.5 121.5,231.5 101.5,231.5" fill="#BF0000" stroke="#BF0000" stroke-width="1.0" stroke-linecap="butt" stroke-linejoin="round" />
		</g>
		<g id="p" class="port">
			<polygon points="1.5,151.5 21.5,151.5 21.5,131.5 1.5,131.5" fill="#55AAFF" stroke="#55AAFF" stroke-width="1.0" stroke-linecap="butt" stroke-linejoin="round" />
		</g>
		<g id="n2" class="port">
			<polygon points="201.5,151.5 221.5,151.5 221.5,131.5 201.5,131.5" fill="#FFFFFF" stroke="#55AAFF" stroke-width="1.0" stroke-linecap="butt" stroke-linejoin="round" />
		</g>
		<g id="n1" class="port">
			<polygon points="201.5,111.5 221.5,111.5 221.5,91.5 201.5,91.5" fill="#FFFFFF" stroke="#55AAFF" stroke-width="1.0" stroke-linecap="butt" stroke-linejoin="round" />
		</g>
		<g id="control" class="port">
			<polygon points="131.5,1.5 111.5,41.5 91.5,1.5" fill="#FF00FF" stroke="#FF00FF" stroke-width="1.0" stroke-linecap="butt" stroke-linejoin="round" />
		</g>
	</g>
</svg>
