<svg width="263" height="203" xmlns="http://www.w3.org/2000/svg" xmlns:xlink="http://www.w3.org/1999/xlink">
	<g id="Modelica.Blocks.Logical.Less" class="component">
		<polygon points="41.5,201.5 241.5,201.5 241.5,1.5 41.5,1.5" fill="#D2D2D2" stroke="#000000" stroke-width="1.5" stroke-linecap="round" stroke-linejoin="round" />
		<polyline points="44.5,200.0 240.0,200.0 240.0,4.5" fill-opacity="0" stroke="#696969" stroke-width="3.0" stroke-linecap="round" stroke-linejoin="round" />
		<polyline points="43.0,198.5 43.0,3.0 238.5,3.0" fill-opacity="0" stroke="#E9E9E9" stroke-width="3.0" stroke-linecap="round" stroke-linejoin="round" />
		<polygon points="228.5,101.5 228.5,100.9 228.4,100.3 228.3,99.7 228.1,99.1 227.9,98.6 227.6,98.0 227.3,97.5 226.9,97.1 226.5,96.6 226.1,96.2 225.6,95.8 225.1,95.5 224.6,95.2 224.0,95.0 223.4,94.8 222.8,94.6 222.3,94.5 221.7,94.5 221.0,94.5 220.4,94.6 219.9,94.7 219.3,94.9 218.7,95.1 218.2,95.3 217.7,95.6 217.2,96.0 216.7,96.4 216.3,96.8 215.9,97.3 215.6,97.8 215.3,98.3 215.0,98.9 214.8,99.4 214.7,100.0 214.6,100.6 214.5,101.2 214.5,101.8 214.6,102.4 214.7,103.0 214.8,103.6 215.0,104.1 215.3,104.7 215.6,105.2 215.9,105.7 216.3,106.2 216.7,106.6 217.2,107.0 217.7,107.4 218.2,107.7 218.7,107.9 219.3,108.1 219.9,108.3 220.4,108.4 221.0,108.5 221.7,108.5 222.3,108.5 222.8,108.4 223.4,108.2 224.0,108.0 224.6,107.8 225.1,107.5 225.6,107.2 226.1,106.8 226.5,106.4 226.9,105.9 227.3,105.5 227.6,105.0 227.9,104.4 228.1,103.9 228.3,103.3 228.4,102.7 228.5,102.1" fill="#EBEBEB" stroke="#EBEBEB" stroke-width="1.0" stroke-linecap="round" stroke-linejoin="round" />
		<polygon points="193.5,101.5 193.5,100.6 193.4,99.8 193.2,98.9 192.9,98.1 192.6,97.3 192.2,96.6 191.7,95.8 191.2,95.1 190.6,94.5 190.0,93.9 189.3,93.4 188.6,92.9 187.9,92.5 187.1,92.2 186.3,91.9 185.4,91.7 184.6,91.6 183.7,91.5 182.9,91.5 182.0,91.6 181.2,91.8 180.3,92.0 179.5,92.3 178.8,92.7 178.0,93.1 177.3,93.6 176.7,94.2 176.1,94.8 175.5,95.5 175.0,96.2 174.6,96.9 174.2,97.7 174.0,98.5 173.7,99.4 173.6,100.2 173.5,101.1 173.5,101.9 173.6,102.8 173.7,103.6 174.0,104.5 174.2,105.3 174.6,106.1 175.0,106.8 175.5,107.5 176.1,108.2 176.7,108.8 177.3,109.4 178.0,109.9 178.8,110.3 179.5,110.7 180.3,111.0 181.2,111.2 182.0,111.4 182.9,111.5 183.7,111.5 184.6,111.4 185.4,111.3 186.3,111.1 187.1,110.8 187.9,110.5 188.6,110.1 189.3,109.6 190.0,109.1 190.6,108.5 191.2,107.9 191.7,107.2 192.2,106.4 192.6,105.7 192.9,104.9 193.2,104.1 193.4,103.2 193.5,102.4" fill-opacity="0" stroke="#00007F" stroke-width="1.0" stroke-linecap="round" stroke-linejoin="round" />
		<polyline points="41.5,181.5 183.5,181.5 183.5,101.5" fill-opacity="0" stroke="#00007F" stroke-width="1.0" stroke-linecap="round" stroke-linejoin="round" />
		<polyline points="135.5,83.5 91.5,103.5 135.5,121.5" fill-opacity="0" stroke="#000000" stroke-width="1.0" stroke-linecap="round" stroke-linejoin="round" />
		<g id="u1" class="port">
			<polygon points="1.5,81.5 41.5,101.5 1.5,121.5" fill="#00007F" stroke="#00007F" stroke-width="1.0" stroke-linecap="round" stroke-linejoin="round" />
		</g>
		<g id="u2" class="port">
			<polygon points="1.5,161.5 41.5,181.5 1.5,201.5" fill="#00007F" stroke="#00007F" stroke-width="1.0" stroke-linecap="round" stroke-linejoin="round" />
		</g>
		<g id="y" class="port">
			<polygon points="241.5,91.5 261.5,101.5 241.5,111.5" fill="#FFFFFF" stroke="#FF00FF" stroke-width="1.0" stroke-linecap="round" stroke-linejoin="round" />
		</g>
	</g>
</svg>
