<svg width="263" height="203" xmlns="http://www.w3.org/2000/svg" xmlns:xlink="http://www.w3.org/1999/xlink">
	<g id="Modelica.Blocks.Routing.DeMultiplex2" class="component">
		<polygon points="41.5,201.5 241.5,201.5 241.5,1.5 41.5,1.5" fill="#FFFFFF" stroke="#00007F" stroke-width="1.0" stroke-linecap="round" stroke-linejoin="round" />
		<polyline points="241.5,41.5 201.5,41.5 141.5,101.5" fill-opacity="0" stroke="#00007F" stroke-width="1.0" stroke-linecap="round" stroke-linejoin="round" />
		<polygon points="156.5,101.5 156.4,100.2 156.3,98.9 156.0,97.7 155.6,96.4 155.1,95.2 154.5,94.1 153.9,93.0 153.1,92.0 152.2,91.0 151.3,90.1 150.3,89.3 149.2,88.6 148.0,88.0 146.9,87.5 145.6,87.1 144.4,86.8 143.1,86.6 141.8,86.5 140.5,86.5 139.2,86.7 138.0,86.9 136.7,87.3 135.5,87.7 134.4,88.3 133.3,89.0 132.2,89.7 131.2,90.6 130.3,91.5 129.5,92.5 128.8,93.5 128.1,94.7 127.6,95.8 127.2,97.0 126.8,98.3 126.6,99.6 126.5,100.9 126.5,102.1 126.6,103.4 126.8,104.7 127.2,106.0 127.6,107.2 128.1,108.3 128.8,109.5 129.5,110.5 130.3,111.5 131.2,112.4 132.2,113.3 133.3,114.0 134.4,114.7 135.5,115.3 136.7,115.7 138.0,116.1 139.2,116.3 140.5,116.5 141.8,116.5 143.1,116.4 144.4,116.2 145.6,115.9 146.9,115.5 148.0,115.0 149.2,114.4 150.3,113.7 151.3,112.9 152.2,112.0 153.1,111.0 153.9,110.0 154.5,108.9 155.1,107.8 155.6,106.6 156.0,105.3 156.3,104.1 156.4,102.8" fill="#00007F" stroke="#00007F" stroke-width="1.0" stroke-linecap="round" stroke-linejoin="round" />
		<polyline points="241.5,161.5 201.5,161.5 141.5,101.5" fill-opacity="0" stroke="#00007F" stroke-width="1.0" stroke-linecap="round" stroke-linejoin="round" />
		<polyline points="41.5,101.5 135.5,101.5" fill-opacity="0" stroke="#00007F" stroke-width="1.0" stroke-linecap="round" stroke-linejoin="round" />
		<g id="u" class="port">
			<polygon points="1.5,81.5 41.5,101.5 1.5,121.5" fill="#00007F" stroke="#00007F" stroke-width="1.0" stroke-linecap="round" stroke-linejoin="round" />
		</g>
		<g id="y1" class="port">
			<polygon points="241.5,31.5 261.5,41.5 241.5,51.5" fill="#FFFFFF" stroke="#00007F" stroke-width="1.0" stroke-linecap="round" stroke-linejoin="round" />
		</g>
		<g id="y2" class="port">
			<polygon points="241.5,151.5 261.5,161.5 241.5,171.5" fill="#FFFFFF" stroke="#00007F" stroke-width="1.0" stroke-linecap="round" stroke-linejoin="round" />
		</g>
	</g>
</svg>
