<svg width="223" height="233" xmlns="http://www.w3.org/2000/svg" xmlns:xlink="http://www.w3.org/1999/xlink">
	<g id="Modelica.Magnetic.FluxTubes.Shapes.Force.HollowCylinderAxialFlux" class="component">
		<polygon points="141.5,141.5 181.5,141.5 181.5,81.5 141.5,81.5" fill="#FFFFFF" stroke="#FF8000" stroke-width="1.0" stroke-linecap="round" stroke-linejoin="round" />
		<polyline points="41.5,111.5 21.5,111.5" fill-opacity="0" stroke="#FF8000" stroke-width="1.0" stroke-linecap="round" stroke-linejoin="round" />
		<polyline points="181.5,111.5 201.5,111.5" fill-opacity="0" stroke="#FF8000" stroke-width="1.0" stroke-linecap="round" stroke-linejoin="round" />
		<polyline points="101.5,211.5 81.5,231.5" fill-opacity="0" stroke="#000000" stroke-width="1.0" stroke-linecap="round" stroke-linejoin="round" />
		<polyline points="81.5,211.5 61.5,231.5" fill-opacity="0" stroke="#000000" stroke-width="1.0" stroke-linecap="round" stroke-linejoin="round" />
		<polyline points="81.5,211.5 141.5,211.5" fill-opacity="0" stroke="#000000" stroke-width="1.0" stroke-linecap="round" stroke-linejoin="round" />
		<polyline points="121.5,211.5 101.5,231.5" fill-opacity="0" stroke="#000000" stroke-width="1.0" stroke-linecap="round" stroke-linejoin="round" />
		<polyline points="141.5,211.5 121.5,231.5" fill-opacity="0" stroke="#000000" stroke-width="1.0" stroke-linecap="round" stroke-linejoin="round" />
		<polygon points="41.5,141.5 81.5,141.5 81.5,81.5 41.5,81.5" fill="#FFFFFF" stroke="#FF8000" stroke-width="1.0" stroke-linecap="round" stroke-linejoin="round" />
		<polygon points="101.5,141.5 121.5,141.5 121.5,31.5 101.5,31.5" fill="#007F00" stroke="#000000" stroke-width="1.0" stroke-linecap="round" stroke-linejoin="round" />
		<g id="port_p" class="port">
			<polygon points="1.5,121.5 21.5,121.5 21.5,101.5 1.5,101.5" fill="#FF7F00" stroke="#FF7F00" stroke-width="1.0" stroke-linecap="round" stroke-linejoin="round" />
		</g>
		<g id="port_n" class="port">
			<polygon points="201.5,121.5 221.5,121.5 221.5,101.5 201.5,101.5" fill="#FFFFFF" stroke="#FF7F00" stroke-width="1.0" stroke-linecap="round" stroke-linejoin="round" />
		</g>
		<g id="flange" class="port">
			<polygon points="101.5,21.5 121.5,21.5 121.5,1.5 101.5,1.5" fill="#FFFFFF" stroke="#007F00" stroke-width="1.0" stroke-linecap="round" stroke-linejoin="round" />
		</g>
		<g id="support" class="port">
			<polygon points="102.5,220.5 120.5,220.5 120.5,202.5 102.5,202.5" fill="#AFAFAF" stroke="#007F00" stroke-width="1.0" stroke-linecap="round" stroke-linejoin="round" />
			<polygon points="96.5,226.5 126.5,226.5 126.5,196.5 96.5,196.5" fill="#AFBEAF" stroke-opacity="0" stroke-width="1.0" stroke-linecap="round" stroke-linejoin="round" />
			<polygon points="102.5,220.5 120.5,220.5 120.5,202.5 102.5,202.5" fill="#007F00" stroke="#007F00" stroke-width="1.0" stroke-linecap="round" stroke-linejoin="round" />
		</g>
	</g>
</svg>
