<svg width="263" height="203" xmlns="http://www.w3.org/2000/svg" xmlns:xlink="http://www.w3.org/1999/xlink">
	<g id="Modelica.Blocks.Math.Cosh" class="component">
		<polygon points="41.5,201.5 241.5,201.5 241.5,1.5 41.5,1.5" fill="#FFFFFF" stroke="#00007F" stroke-width="1.0" stroke-linecap="butt" stroke-linejoin="round" />
		<polygon points="141.5,11.5 133.5,33.5 149.5,33.5" fill="#C0C0C0" stroke="#C0C0C0" stroke-width="1.0" stroke-linecap="butt" stroke-linejoin="round" />
		<polyline points="141.5,181.5 141.5,33.5" fill-opacity="0" stroke="#C0C0C0" stroke-width="1.0" stroke-linecap="butt" stroke-linejoin="round" />
		<text x="176.5" y="70.1" text-anchor="middle" fill="#C0C0C0" font-size="31.5px" font-family="sans-serif">cosh</text>
		<polyline points="61.5,21.5 62.7,31.0 64.0,40.8 65.5,51.3 65.5,51.3 66.6,58.4 67.6,65.1 68.7,71.5 68.7,71.5 69.8,77.7 71.0,84.1 72.4,90.5 72.4,90.5 73.7,96.8 75.1,102.7 76.4,108.2 76.4,108.2 77.8,113.4 79.2,118.6 80.8,123.7 80.8,123.7 82.0,127.5 83.3,131.1 84.6,134.7 86.0,138.2 86.0,138.2 87.1,140.8 88.3,143.5 89.5,146.0 90.8,148.4 92.0,150.8 92.0,150.8 93.4,153.1 94.7,155.2 96.1,157.3 97.5,159.3 98.9,161.2 98.9,161.2 100.4,163.0 101.9,164.7 103.5,166.4 105.2,168.0 106.9,169.5 106.9,169.5 108.7,170.9 110.6,172.3 112.6,173.6 114.7,174.8 117.0,175.9 117.0,175.9 119.3,176.9 121.7,177.9 124.3,178.7 127.0,179.4 129.8,180.0 129.8,180.0 132.8,180.5 135.7,180.8 138.7,181.0 141.7,181.1 144.7,181.0 144.7,181.0 147.8,180.8 150.7,180.4 153.5,180.0 156.2,179.4 158.8,178.6 158.8,178.6 161.3,177.8 163.7,176.9 166.1,175.8 168.3,174.7 170.4,173.4 170.4,173.4 172.5,172.1 174.4,170.7 176.3,169.3 178.0,167.7 179.7,166.2 179.7,166.2 181.3,164.5 182.8,162.8 184.2,161.1 185.6,159.3 186.9,157.4 186.9,157.4 188.2,155.5 189.4,153.5 190.6,151.4 191.8,149.3 193.0,147.1 193.0,147.1 194.3,144.3 195.7,141.3 197.0,138.3 198.2,135.2 198.2,135.2 199.8,131.1 201.2,126.8 202.6,122.6 202.6,122.6 203.9,118.1 205.3,113.3 206.6,108.2 206.6,108.2 207.9,102.7 209.3,96.8 210.6,90.5 210.6,90.5 212.0,84.1 213.2,77.7 214.3,71.5 214.3,71.5 215.4,65.1 216.4,58.4 217.5,51.3 217.5,51.3 219.0,40.8 220.3,31.0 221.5,21.5" fill-opacity="0" stroke="#000000" stroke-width="1.0" stroke-linecap="butt" stroke-linejoin="round" />
		<polyline points="51.5,187.6 209.5,187.6" fill-opacity="0" stroke="#C0C0C0" stroke-width="1.0" stroke-linecap="butt" stroke-linejoin="round" />
		<polygon points="231.5,187.6 209.5,179.6 209.5,195.6" fill="#C0C0C0" stroke="#C0C0C0" stroke-width="1.0" stroke-linecap="butt" stroke-linejoin="round" />
		<g id="u" class="port">
			<polygon points="1.5,81.5 41.5,101.5 1.5,121.5" fill="#00007F" stroke="#00007F" stroke-width="1.0" stroke-linecap="butt" stroke-linejoin="round" />
		</g>
		<g id="y" class="port">
			<polygon points="241.5,91.5 261.5,101.5 241.5,111.5" fill="#FFFFFF" stroke="#00007F" stroke-width="1.0" stroke-linecap="butt" stroke-linejoin="round" />
		</g>
	</g>
</svg>
