<svg width="248" height="208" xmlns="http://www.w3.org/2000/svg" xmlns:xlink="http://www.w3.org/1999/xlink">
	<g id="Modelica.Mechanics.MultiBody.Forces.WorldForceAndTorque" class="component">
		<text x="132.0" y="81.8" text-anchor="middle" fill="#C0C0C0" font-size="35.4px" font-family="sans-serif">resolve</text>
		<polyline points="41.5,46.3 55.5,38.3 61.5,34.3 71.5,28.3 77.5,24.3 95.5,20.3 107.5,18.3 125.5,18.3 139.5,20.3 153.5,26.3 165.5,32.3 175.5,38.3 187.5,48.3 193.5,52.3 199.5,58.3" fill-opacity="0" stroke="#000000" stroke-width="1.0" stroke-linecap="butt" stroke-linejoin="round" />
		<polygon points="230.5,89.3 205.5,30.3 171.5,65.3" fill="#000000" stroke="#000000" stroke-width="1.0" stroke-linecap="butt" stroke-linejoin="round" />
		<polyline points="141.5,11.3 141.5,132.3" fill-opacity="0" stroke="#5F5F5F" stroke-dasharray="1 2" stroke-width="1.0" stroke-linecap="butt" stroke-linejoin="round" />
		<polyline points="141.5,106.3 237.5,106.3" fill-opacity="0" stroke="#5F5F5F" stroke-dasharray="1 2" stroke-width="1.0" stroke-linecap="butt" stroke-linejoin="round" />
		<polygon points="37.5,154.3 195.5,106.3 187.5,86.3 237.5,106.3 207.5,148.3 201.5,128.3 45.5,178.3" fill="#000000" stroke="#000000" stroke-width="1.0" stroke-linecap="butt" stroke-linejoin="round" />
		<g id="frame_b" class="port">
			<polygon points="239.9,107.9 243.1,107.9 243.1,104.7 239.9,104.7" fill-opacity="0" stroke="#5F5F5F" stroke-width="1.0" stroke-linecap="butt" stroke-linejoin="round" />
			<polygon points="236.7,122.3 246.3,122.3 246.3,90.3 236.7,90.3" fill="#FFFFFF" stroke="#000000" stroke-width="1.0" stroke-linecap="butt" stroke-linejoin="round" />
		</g>
		<g id="frame_resolve" class="port">
			<polygon points="139.9,7.9 139.9,4.7 143.1,4.7 143.1,7.9" fill-opacity="0" stroke="#5F5F5F" stroke-dasharray="1 2" stroke-width="1.0" stroke-linecap="butt" stroke-linejoin="round" />
			<polygon points="125.5,11.1 125.5,1.5 157.5,1.5 157.5,11.1" fill="#FFFFFF" stroke="#5F5F5F" stroke-dasharray="1 2" stroke-width="1.0" stroke-linecap="butt" stroke-linejoin="round" />
		</g>
		<g id="force" class="port">
			<polygon points="1.5,146.3 41.5,166.3 1.5,186.3" fill="#00007F" stroke="#00007F" stroke-width="1.0" stroke-linecap="butt" stroke-linejoin="round" />
		</g>
		<g id="torque" class="port">
			<polygon points="1.5,26.3 41.5,46.3 1.5,66.3" fill="#00007F" stroke="#00007F" stroke-width="1.0" stroke-linecap="butt" stroke-linejoin="round" />
		</g>
	</g>
</svg>
