<svg width="213" height="203" xmlns="http://www.w3.org/2000/svg" xmlns:xlink="http://www.w3.org/1999/xlink">
	<g id="Modelica.Mechanics.MultiBody.Joints.Cylindrical" class="component">
		<defs>
			<linearGradient id="cyl2" x1="0" y1="0" x2="0" y2="1">
				<stop offset="0%" stop-color="#404040" />
				<stop offset="5%" stop-color="#646464" />
				<stop offset="10%" stop-color="#858585" />
				<stop offset="15%" stop-color="#A1A1A1" />
				<stop offset="20%" stop-color="#BABABA" />
				<stop offset="25%" stop-color="#CFCFCF" />
				<stop offset="30%" stop-color="#E0E0E0" />
				<stop offset="35%" stop-color="#EEEEEE" />
				<stop offset="40%" stop-color="#F7F7F7" />
				<stop offset="45%" stop-color="#FDFDFD" />
				<stop offset="50%" stop-color="#FFFFFF" />
				<stop offset="55%" stop-color="#FDFDFD" />
				<stop offset="60%" stop-color="#F7F7F7" />
				<stop offset="65%" stop-color="#EEEEEE" />
				<stop offset="70%" stop-color="#E0E0E0" />
				<stop offset="75%" stop-color="#CFCFCF" />
				<stop offset="80%" stop-color="#BABABA" />
				<stop offset="85%" stop-color="#A1A1A1" />
				<stop offset="90%" stop-color="#858585" />
				<stop offset="95%" stop-color="#646464" />
				<stop offset="100%" stop-color="#404040" />
			</linearGradient>
		</defs>
		<polygon points="79.2,128.6 80.8,129.9 82.5,130.8 84.3,131.3 86.3,131.5 86.3,131.5 102.1,131.5 141.3,131.5 141.3,131.5 180.5,131.5 196.3,131.5 196.3,131.5 198.9,131.2 201.3,130.2 203.4,128.6 203.4,128.6 204.7,127.0 205.6,125.3 206.1,123.5 206.3,121.5 206.3,121.5 206.3,114.4 206.3,101.5 206.3,101.5 206.3,88.6 206.3,81.5 206.3,81.5 206.1,79.5 205.6,77.7 204.7,76.0 203.4,74.4 203.4,74.4 201.3,72.8 198.9,71.8 196.3,71.5 196.3,71.5 180.5,71.5 141.3,71.5 141.3,71.5 102.1,71.5 86.3,71.5 86.3,71.5 84.3,71.7 82.5,72.2 80.8,73.1 79.2,74.4 79.2,74.4 77.9,76.0 77.0,77.7 76.5,79.5 76.3,81.5 76.3,81.5 76.3,88.6 76.3,101.5 76.3,101.5 76.3,114.4 76.3,121.5 76.3,121.5 76.5,123.5 77.0,125.3 77.9,127.0" fill="url(#cyl2)" stroke="#404040" stroke-width="1.0" stroke-linecap="butt" stroke-linejoin="round" />
		<polygon points="79.2,128.6 80.8,129.9 82.5,130.8 84.3,131.3 86.3,131.5 86.3,131.5 102.1,131.5 141.3,131.5 141.3,131.5 180.5,131.5 196.3,131.5 196.3,131.5 198.9,131.2 201.3,130.2 203.4,128.6 203.4,128.6 204.7,127.0 205.6,125.3 206.1,123.5 206.3,121.5 206.3,121.5 206.3,114.4 206.3,101.5 206.3,101.5 206.3,88.6 206.3,81.5 206.3,81.5 206.1,79.5 205.6,77.7 204.7,76.0 203.4,74.4 203.4,74.4 201.3,72.8 198.9,71.8 196.3,71.5 196.3,71.5 180.5,71.5 141.3,71.5 141.3,71.5 102.1,71.5 86.3,71.5 86.3,71.5 84.3,71.7 82.5,72.2 80.8,73.1 79.2,74.4 79.2,74.4 77.9,76.0 77.0,77.7 76.5,79.5 76.3,81.5 76.3,81.5 76.3,88.6 76.3,101.5 76.3,101.5 76.3,114.4 76.3,121.5 76.3,121.5 76.5,123.5 77.0,125.3 77.9,127.0" fill-opacity="0" stroke="#404040" stroke-width="1.0" stroke-linecap="butt" stroke-linejoin="round" />
		<defs>
			<linearGradient id="cyl4" x1="0" y1="0" x2="0" y2="1">
				<stop offset="0%" stop-color="#404040" />
				<stop offset="5%" stop-color="#646464" />
				<stop offset="10%" stop-color="#858585" />
				<stop offset="15%" stop-color="#A1A1A1" />
				<stop offset="20%" stop-color="#BABABA" />
				<stop offset="25%" stop-color="#CFCFCF" />
				<stop offset="30%" stop-color="#E0E0E0" />
				<stop offset="35%" stop-color="#EEEEEE" />
				<stop offset="40%" stop-color="#F7F7F7" />
				<stop offset="45%" stop-color="#FDFDFD" />
				<stop offset="50%" stop-color="#FFFFFF" />
				<stop offset="55%" stop-color="#FDFDFD" />
				<stop offset="60%" stop-color="#F7F7F7" />
				<stop offset="65%" stop-color="#EEEEEE" />
				<stop offset="70%" stop-color="#E0E0E0" />
				<stop offset="75%" stop-color="#CFCFCF" />
				<stop offset="80%" stop-color="#BABABA" />
				<stop offset="85%" stop-color="#A1A1A1" />
				<stop offset="90%" stop-color="#858585" />
				<stop offset="95%" stop-color="#646464" />
				<stop offset="100%" stop-color="#404040" />
			</linearGradient>
		</defs>
		<polygon points="9.2,148.6 11.3,150.2 13.7,151.2 16.3,151.5 16.3,151.5 28.4,151.5 56.3,151.5 56.3,151.5 84.2,151.5 96.3,151.5 96.3,151.5 98.3,151.3 100.1,150.8 101.8,149.9 103.4,148.6 103.4,148.6 104.7,147.0 105.6,145.3 106.1,143.5 106.3,141.5 106.3,141.5 106.3,129.4 106.3,101.5 106.3,101.5 106.3,73.6 106.3,61.5 106.3,61.5 106.1,59.5 105.6,57.7 104.7,56.0 103.4,54.4 103.4,54.4 101.8,53.1 100.1,52.2 98.3,51.7 96.3,51.5 96.3,51.5 84.2,51.5 56.3,51.5 56.3,51.5 28.4,51.5 16.3,51.5 16.3,51.5 13.7,51.8 11.3,52.8 9.2,54.4 9.2,54.4 7.9,56.0 7.0,57.7 6.5,59.5 6.3,61.5 6.3,61.5 6.3,73.6 6.3,101.5 6.3,101.5 6.3,129.4 6.3,141.5 6.3,141.5 6.5,143.5 7.0,145.3 7.9,147.0" fill="url(#cyl4)" stroke="#404040" stroke-width="1.0" stroke-linecap="butt" stroke-linejoin="round" />
		<polygon points="9.2,148.6 11.3,150.2 13.7,151.2 16.3,151.5 16.3,151.5 28.4,151.5 56.3,151.5 56.3,151.5 84.2,151.5 96.3,151.5 96.3,151.5 98.3,151.3 100.1,150.8 101.8,149.9 103.4,148.6 103.4,148.6 104.7,147.0 105.6,145.3 106.1,143.5 106.3,141.5 106.3,141.5 106.3,129.4 106.3,101.5 106.3,101.5 106.3,73.6 106.3,61.5 106.3,61.5 106.1,59.5 105.6,57.7 104.7,56.0 103.4,54.4 103.4,54.4 101.8,53.1 100.1,52.2 98.3,51.7 96.3,51.5 96.3,51.5 84.2,51.5 56.3,51.5 56.3,51.5 28.4,51.5 16.3,51.5 16.3,51.5 13.7,51.8 11.3,52.8 9.2,54.4 9.2,54.4 7.9,56.0 7.0,57.7 6.5,59.5 6.3,61.5 6.3,61.5 6.3,73.6 6.3,101.5 6.3,101.5 6.3,129.4 6.3,141.5 6.3,141.5 6.5,143.5 7.0,145.3 7.9,147.0" fill-opacity="0" stroke="#404040" stroke-width="1.0" stroke-linecap="butt" stroke-linejoin="round" />
		<g id="frame_a" class="port">
			<polygon points="4.7,103.1 7.9,103.1 7.9,99.9 4.7,99.9" fill-opacity="0" stroke="#5F5F5F" stroke-width="1.0" stroke-linecap="butt" stroke-linejoin="round" />
			<polygon points="1.5,117.5 11.1,117.5 11.1,85.5 1.5,85.5" fill="#C0C0C0" stroke="#000000" stroke-width="1.0" stroke-linecap="butt" stroke-linejoin="round" />
		</g>
		<g id="frame_b" class="port">
			<polygon points="204.7,103.1 207.9,103.1 207.9,99.9 204.7,99.9" fill-opacity="0" stroke="#5F5F5F" stroke-width="1.0" stroke-linecap="butt" stroke-linejoin="round" />
			<polygon points="201.5,117.5 211.1,117.5 211.1,85.5 201.5,85.5" fill="#FFFFFF" stroke="#000000" stroke-width="1.0" stroke-linecap="butt" stroke-linejoin="round" />
		</g>
	</g>
</svg>
