<svg width="263" height="203" xmlns="http://www.w3.org/2000/svg" xmlns:xlink="http://www.w3.org/1999/xlink">
	<g id="Modelica.Blocks.Math.Sin" class="component">
		<polygon points="41.5,201.5 241.5,201.5 241.5,1.5 41.5,1.5" fill="#FFFFFF" stroke="#00007F" stroke-width="1.0" stroke-linecap="round" stroke-linejoin="round" />
		<polygon points="61.5,11.5 53.5,33.5 69.5,33.5" fill="#C0C0C0" stroke="#C0C0C0" stroke-width="1.0" stroke-linecap="round" stroke-linejoin="round" />
		<polyline points="61.5,181.5 61.5,33.5" fill-opacity="0" stroke="#C0C0C0" stroke-width="1.0" stroke-linecap="round" stroke-linejoin="round" />
		<polyline points="51.5,101.5 209.5,101.5" fill-opacity="0" stroke="#C0C0C0" stroke-width="1.0" stroke-linecap="round" stroke-linejoin="round" />
		<polyline points="61.5,101.5 67.2,84.4 70.7,73.8 73.8,65.0 76.4,57.8 76.4,57.8 78.2,53.3 79.9,49.1 81.6,45.2 83.2,41.8 83.2,41.8 84.5,39.2 85.7,36.8 86.9,34.7 88.1,32.7 89.2,31.0 89.2,31.0 90.7,29.1 92.1,27.4 93.5,25.9 94.9,24.6 94.9,24.6 96.8,23.4 98.6,22.5 100.5,22.0 100.5,22.0 102.4,22.0 104.2,22.5 106.1,23.3 106.1,23.3 107.5,24.2 108.9,25.4 110.3,26.7 111.8,28.4 111.8,28.4 112.9,29.8 114.0,31.4 115.2,33.1 116.3,35.0 117.4,37.0 117.4,37.0 118.8,39.7 120.3,42.7 121.8,46.1 123.4,49.8 123.4,49.8 125.6,55.3 128.0,61.6 130.6,68.8 130.6,68.8 133.8,78.1 138.0,90.6 143.1,106.3 143.1,106.3 148.2,121.8 152.3,133.7 155.2,142.0 155.2,142.0 157.0,146.7 158.7,151.0 160.4,155.0 162.0,158.7 162.0,158.7 163.3,161.4 164.5,163.9 165.7,166.2 166.9,168.3 168.0,170.2 168.0,170.2 169.4,172.3 170.8,174.2 172.2,175.8 173.6,177.2 173.6,177.2 175.5,178.8 177.4,180.0 179.3,180.7 179.3,180.7 181.2,181.0 183.0,180.9 184.9,180.3 184.9,180.3 186.8,179.3 188.7,177.9 190.6,176.0 190.6,176.0 192.0,174.4 193.4,172.6 194.8,170.5 196.2,168.2 196.2,168.2 197.3,166.2 198.5,164.0 199.7,161.5 200.9,158.9 202.2,156.0 202.2,156.0 204.4,150.7 206.8,144.5 209.4,137.5 209.4,137.5 212.1,129.9 214.8,122.0 217.5,113.9 221.5,101.5" fill-opacity="0" stroke="#000000" stroke-width="1.0" stroke-linecap="round" stroke-linejoin="round" />
		<polygon points="231.5,101.5 209.5,93.5 209.5,109.5" fill="#C0C0C0" stroke="#C0C0C0" stroke-width="1.0" stroke-linecap="round" stroke-linejoin="round" />
		<text x="189.5" y="63.7" text-anchor="middle" fill="#C0C0C0" font-size="61.6px" font-family="sans-serif">sin</text>
		<g id="u" class="port">
			<polygon points="1.5,81.5 41.5,101.5 1.5,121.5" fill="#00007F" stroke="#00007F" stroke-width="1.0" stroke-linecap="round" stroke-linejoin="round" />
		</g>
		<g id="y" class="port">
			<polygon points="241.5,91.5 261.5,101.5 241.5,111.5" fill="#FFFFFF" stroke="#00007F" stroke-width="1.0" stroke-linecap="round" stroke-linejoin="round" />
		</g>
	</g>
</svg>
