<svg width="213" height="223" xmlns="http://www.w3.org/2000/svg" xmlns:xlink="http://www.w3.org/1999/xlink">
	<g id="Modelica.Mechanics.Translational.Sources.SignForce" class="component">
		<polyline points="51.5,221.5 71.5,201.5" fill-opacity="0" stroke="#007F00" stroke-width="1.0" stroke-linecap="butt" stroke-linejoin="round" />
		<polyline points="71.5,221.5 91.5,201.5" fill-opacity="0" stroke="#007F00" stroke-width="1.0" stroke-linecap="butt" stroke-linejoin="round" />
		<polyline points="91.5,221.5 111.5,201.5" fill-opacity="0" stroke="#007F00" stroke-width="1.0" stroke-linecap="butt" stroke-linejoin="round" />
		<polyline points="111.5,221.5 131.5,201.5" fill-opacity="0" stroke="#007F00" stroke-width="1.0" stroke-linecap="butt" stroke-linejoin="round" />
		<polyline points="71.5,201.5 131.5,201.5" fill-opacity="0" stroke="#007F00" stroke-width="1.0" stroke-linecap="butt" stroke-linejoin="round" />
		<polygon points="5.5,193.5 197.5,193.5 197.5,1.5 5.5,1.5" fill="#FFFFFF" stroke="#FFFFFF" stroke-width="1.0" stroke-linecap="butt" stroke-linejoin="round" />
		<polyline points="101.5,161.5 101.5,201.5" fill-opacity="0" stroke="#007F00" stroke-width="1.0" stroke-linecap="butt" stroke-linejoin="round" />
		<polyline points="23.5,21.5 152.5,21.5" fill-opacity="0" stroke="#5F7F5F" stroke-width="1.0" stroke-linecap="butt" stroke-linejoin="round" />
		<polygon points="182.5,21.5 152.5,11.5 152.5,31.5" fill="#5F7F5F" stroke="#5F7F5F" stroke-width="1.0" stroke-linecap="butt" stroke-linejoin="round" />
		<polyline points="49.5,161.5 178.5,161.5" fill-opacity="0" stroke="#5F7F5F" stroke-width="1.0" stroke-linecap="butt" stroke-linejoin="round" />
		<polygon points="19.5,161.5 50.5,151.5 50.5,171.5" fill="#5F7F5F" stroke="#5F7F5F" stroke-width="1.0" stroke-linecap="butt" stroke-linejoin="round" />
		<polyline points="101.5,35.5 101.5,121.5" fill-opacity="0" stroke="#C0C0C0" stroke-width="1.0" stroke-linecap="butt" stroke-linejoin="round" />
		<polyline points="26.5,77.5 176.5,77.5" fill-opacity="0" stroke="#C0C0C0" stroke-width="1.0" stroke-linecap="butt" stroke-linejoin="round" />
		<polyline points="27.5,113.5 93.5,113.5 95.5,111.5 107.5,43.5 109.5,41.5 175.5,41.5" fill-opacity="0" stroke="#000000" stroke-width="1.0" stroke-linecap="butt" stroke-linejoin="round" />
		<g id="flange" class="port">
			<polygon points="191.5,111.5 211.5,111.5 211.5,91.5 191.5,91.5" fill="#FFFFFF" stroke="#007F00" stroke-width="1.0" stroke-linecap="butt" stroke-linejoin="round" />
		</g>
		<g id="support" class="port">
			<polygon points="92.5,210.5 110.5,210.5 110.5,192.5 92.5,192.5" fill="#AFAFAF" stroke="#007F00" stroke-width="1.0" stroke-linecap="butt" stroke-linejoin="round" />
			<polygon points="86.5,216.5 116.5,216.5 116.5,186.5 86.5,186.5" fill="#AFBEAF" stroke-opacity="0" stroke-width="1.0" stroke-linecap="butt" stroke-linejoin="round" />
			<polygon points="92.5,210.5 110.5,210.5 110.5,192.5 92.5,192.5" fill="#007F00" stroke="#007F00" stroke-width="1.0" stroke-linecap="butt" stroke-linejoin="round" />
		</g>
	</g>
</svg>
