<svg width="223" height="203" xmlns="http://www.w3.org/2000/svg" xmlns:xlink="http://www.w3.org/1999/xlink">
	<g id="Modelica.Blocks.Sources.Exponentials" class="component">
		<polygon points="1.5,201.5 201.5,201.5 201.5,1.5 1.5,1.5" fill="#FFFFFF" stroke="#00007F" stroke-width="1.0" stroke-linecap="butt" stroke-linejoin="round" />
		<polyline points="11.5,171.5 169.5,171.5" fill-opacity="0" stroke="#C0C0C0" stroke-width="1.0" stroke-linecap="butt" stroke-linejoin="round" />
		<polygon points="191.5,171.5 169.5,163.5 169.5,179.5" fill="#C0C0C0" stroke="#C0C0C0" stroke-width="1.0" stroke-linecap="butt" stroke-linejoin="round" />
		<polyline points="21.5,171.5 24.3,156.8 27.2,143.6 30.7,129.1 34.2,116.5 37.8,105.6 42.0,94.3 46.2,84.8 51.2,75.5 56.9,67.0 63.2,59.4 70.3,52.9 78.8,47.2 89.4,42.3 91.5,41.5 93.6,54.0 96.4,68.8 99.3,81.7 102.1,93.0 105.6,105.2 109.2,115.5 113.4,125.7 117.7,134.1 122.6,142.0 128.3,148.9 134.6,154.8 142.4,160.0 152.3,164.3 161.5,166.9" fill-opacity="0" stroke="#000000" stroke-width="1.0" stroke-linecap="butt" stroke-linejoin="round" />
		<polygon points="21.5,11.5 13.5,33.5 29.5,33.5" fill="#C0C0C0" stroke="#C0C0C0" stroke-width="1.0" stroke-linecap="butt" stroke-linejoin="round" />
		<polyline points="21.5,33.5 21.5,181.5" fill-opacity="0" stroke="#C0C0C0" stroke-width="1.0" stroke-linecap="butt" stroke-linejoin="round" />
		<g id="y" class="port">
			<polygon points="201.5,91.5 221.5,101.5 201.5,111.5" fill="#FFFFFF" stroke="#00007F" stroke-width="1.0" stroke-linecap="butt" stroke-linejoin="round" />
		</g>
	</g>
</svg>
