<svg width="203" height="203" xmlns="http://www.w3.org/2000/svg" xmlns:xlink="http://www.w3.org/1999/xlink">
	<g id="Modelica.Mechanics.Rotational.Components.AngleToTorqueAdaptor" class="component">
		<defs>
			<linearGradient id="cyl2" x1="0" y1="0" x2="0" y2="1">
				<stop offset="0%" stop-color="#5F5F5F" />
				<stop offset="5%" stop-color="#7D7D7D" />
				<stop offset="10%" stop-color="#999999" />
				<stop offset="15%" stop-color="#B1B1B1" />
				<stop offset="20%" stop-color="#C5C5C5" />
				<stop offset="25%" stop-color="#D7D7D7" />
				<stop offset="30%" stop-color="#E5E5E5" />
				<stop offset="35%" stop-color="#F1F1F1" />
				<stop offset="40%" stop-color="#F9F9F9" />
				<stop offset="45%" stop-color="#FDFDFD" />
				<stop offset="50%" stop-color="#FFFFFF" />
				<stop offset="55%" stop-color="#FDFDFD" />
				<stop offset="60%" stop-color="#F9F9F9" />
				<stop offset="65%" stop-color="#F1F1F1" />
				<stop offset="70%" stop-color="#E5E5E5" />
				<stop offset="75%" stop-color="#D7D7D7" />
				<stop offset="80%" stop-color="#C5C5C5" />
				<stop offset="85%" stop-color="#B1B1B1" />
				<stop offset="90%" stop-color="#999999" />
				<stop offset="95%" stop-color="#7D7D7D" />
				<stop offset="100%" stop-color="#5F5F5F" />
			</linearGradient>
		</defs>
		<polygon points="84.4,198.6 86.0,199.9 87.7,200.8 89.5,201.3 91.5,201.5 91.5,201.5 96.1,201.5 101.5,201.5 101.5,201.5 106.9,201.5 111.5,201.5 111.5,201.5 113.5,201.3 115.3,200.8 117.0,199.9 118.6,198.6 118.6,198.6 120.2,196.5 121.2,194.1 121.5,191.5 121.5,191.5 121.5,166.9 121.5,101.5 121.5,101.5 121.5,36.1 121.5,11.5 121.5,11.5 121.2,8.9 120.2,6.5 118.6,4.4 118.6,4.4 117.0,3.1 115.3,2.2 113.5,1.7 111.5,1.5 111.5,1.5 106.9,1.5 101.5,1.5 101.5,1.5 96.1,1.5 91.5,1.5 91.5,1.5 89.5,1.7 87.7,2.2 86.0,3.1 84.4,4.4 84.4,4.4 82.8,6.5 81.8,8.9 81.5,11.5 81.5,11.5 81.5,36.1 81.5,101.5 81.5,101.5 81.5,166.9 81.5,191.5 81.5,191.5 81.8,194.1 82.8,196.5" fill="url(#cyl2)" stroke="#5F5F5F" stroke-width="1.0" stroke-linecap="butt" stroke-linejoin="round" />
		<polygon points="84.4,198.6 86.0,199.9 87.7,200.8 89.5,201.3 91.5,201.5 91.5,201.5 96.1,201.5 101.5,201.5 101.5,201.5 106.9,201.5 111.5,201.5 111.5,201.5 113.5,201.3 115.3,200.8 117.0,199.9 118.6,198.6 118.6,198.6 120.2,196.5 121.2,194.1 121.5,191.5 121.5,191.5 121.5,166.9 121.5,101.5 121.5,101.5 121.5,36.1 121.5,11.5 121.5,11.5 121.2,8.9 120.2,6.5 118.6,4.4 118.6,4.4 117.0,3.1 115.3,2.2 113.5,1.7 111.5,1.5 111.5,1.5 106.9,1.5 101.5,1.5 101.5,1.5 96.1,1.5 91.5,1.5 91.5,1.5 89.5,1.7 87.7,2.2 86.0,3.1 84.4,4.4 84.4,4.4 82.8,6.5 81.8,8.9 81.5,11.5 81.5,11.5 81.5,36.1 81.5,101.5 81.5,101.5 81.5,166.9 81.5,191.5 81.5,191.5 81.8,194.1 82.8,196.5" fill-opacity="0" stroke="#5F5F5F" stroke-width="1.0" stroke-linecap="butt" stroke-linejoin="round" />
		<text x="101.5" y="26.3" text-anchor="middle" fill="#000000" font-size="22.3px" font-family="sans-serif">phi</text>
		<text x="101.5" y="191.3" text-anchor="middle" fill="#000000" font-size="29.2px" font-family="sans-serif">tau</text>
		<g id="flange" class="port">
			<polygon points="131.5,101.5 131.5,100.6 131.4,99.8 131.2,98.9 130.9,98.1 130.6,97.3 130.2,96.6 129.7,95.8 129.2,95.1 128.6,94.5 128.0,93.9 127.3,93.4 126.6,92.9 125.9,92.5 125.1,92.2 124.3,91.9 123.4,91.7 122.6,91.6 121.7,91.5 120.9,91.5 120.0,91.6 119.2,91.8 118.3,92.0 117.5,92.3 116.8,92.7 116.0,93.1 115.3,93.6 114.7,94.2 114.1,94.8 113.5,95.5 113.0,96.2 112.6,96.9 112.2,97.7 112.0,98.5 111.7,99.4 111.6,100.2 111.5,101.1 111.5,101.9 111.6,102.8 111.7,103.6 112.0,104.5 112.2,105.3 112.6,106.1 113.0,106.8 113.5,107.5 114.1,108.2 114.7,108.8 115.3,109.4 116.0,109.9 116.8,110.3 117.5,110.7 118.3,111.0 119.2,111.2 120.0,111.4 120.9,111.5 121.7,111.5 122.6,111.4 123.4,111.3 124.3,111.1 125.1,110.8 125.9,110.5 126.6,110.1 127.3,109.6 128.0,109.1 128.6,108.5 129.2,107.9 129.7,107.2 130.2,106.4 130.6,105.7 130.9,104.9 131.2,104.1 131.4,103.2 131.5,102.4" fill="#FFFFFF" stroke="#000000" stroke-width="1.0" stroke-linecap="butt" stroke-linejoin="round" />
		</g>
		<g id="phi" class="port">
			<polygon points="61.5,11.5 81.5,21.5 61.5,31.5" fill="#00007F" stroke="#00007F" stroke-width="1.0" stroke-linecap="butt" stroke-linejoin="round" />
		</g>
		<g id="w" class="port">
			<polygon points="61.5,41.5 81.5,51.5 61.5,61.5" fill="#00007F" stroke="#00007F" stroke-width="1.0" stroke-linecap="butt" stroke-linejoin="round" />
		</g>
		<g id="a" class="port">
			<polygon points="61.5,71.5 81.5,81.5 61.5,91.5" fill="#00007F" stroke="#00007F" stroke-width="1.0" stroke-linecap="butt" stroke-linejoin="round" />
		</g>
		<g id="tau" class="port">
			<polygon points="81.5,171.5 61.5,181.5 81.5,191.5" fill="#FFFFFF" stroke="#00007F" stroke-width="1.0" stroke-linecap="butt" stroke-linejoin="round" />
		</g>
	</g>
</svg>
