<svg width="213" height="203" xmlns="http://www.w3.org/2000/svg" xmlns:xlink="http://www.w3.org/1999/xlink">
	<g id="Modelica.Fluid.Sources.FixedBoundary" class="component">
		<defs>
			<radialGradient id="sph2">
				<stop offset="0%" stop-color="#007FFF" />
				<stop offset="10%" stop-color="#007EFC" />
				<stop offset="20%" stop-color="#007AF5" />
				<stop offset="30%" stop-color="#0074E8" />
				<stop offset="40%" stop-color="#006BD6" />
				<stop offset="50%" stop-color="#005FBF" />
				<stop offset="60%" stop-color="#0051A3" />
				<stop offset="70%" stop-color="#004182" />
				<stop offset="80%" stop-color="#002E5C" />
				<stop offset="90%" stop-color="#001830" />
				<stop offset="100%" stop-color="#000000" />
			</radialGradient>
		</defs>
		<polygon points="201.5,101.5 201.1,92.9 200.0,84.4 198.2,76.0 195.6,67.7 192.4,59.8 188.5,52.1 183.9,44.8 178.7,38.0 173.0,31.6 166.7,25.7 159.9,20.3 152.7,15.6 145.2,11.5 137.3,8.1 129.1,5.4 120.7,3.4 112.2,2.1 103.7,1.5 95.0,1.7 86.5,2.6 78.1,4.3 69.8,6.7 61.7,9.7 54.0,13.5 46.6,17.9 39.6,22.9 33.1,28.5 27.1,34.7 21.6,41.3 16.7,48.4 12.5,55.9 8.9,63.7 6.0,71.8 3.8,80.1 2.3,88.6 1.6,97.2 1.6,105.8 2.3,114.4 3.8,122.9 6.0,131.2 8.9,139.3 12.5,147.1 16.7,154.6 21.6,161.7 27.1,168.3 33.1,174.5 39.6,180.1 46.6,185.1 54.0,189.5 61.7,193.3 69.8,196.3 78.1,198.7 86.5,200.4 95.0,201.3 103.7,201.5 112.2,200.9 120.7,199.6 129.1,197.6 137.3,194.9 145.2,191.5 152.7,187.4 159.9,182.7 166.7,177.3 173.0,171.4 178.7,165.0 183.9,158.2 188.5,150.9 192.4,143.2 195.6,135.3 198.2,127.0 200.0,118.6 201.1,110.1" fill="url(#sph2)" stroke="#000000" stroke-width="1.0" stroke-linecap="butt" stroke-linejoin="round" />
		<g id="ports" class="port">
			<polygon points="191.5,61.5 211.5,61.5 211.5,141.5 191.5,141.5" fill="#FFFFFF" stroke="#007FFF" stroke-width="1.0" stroke-linecap="butt" stroke-linejoin="round" />
			<polygon points="211.5,127.5 211.5,128.4 211.4,129.2 211.2,130.1 210.9,130.9 210.6,131.7 210.2,132.4 209.7,133.2 209.2,133.9 208.6,134.5 208.0,135.1 207.3,135.6 206.6,136.1 205.9,136.5 205.1,136.8 204.3,137.1 203.4,137.3 202.6,137.4 201.7,137.5 200.9,137.5 200.0,137.4 199.2,137.2 198.3,137.0 197.5,136.7 196.8,136.3 196.0,135.9 195.3,135.4 194.7,134.8 194.1,134.2 193.5,133.5 193.0,132.8 192.6,132.1 192.2,131.3 192.0,130.5 191.7,129.6 191.6,128.8 191.5,127.9 191.5,127.1 191.6,126.2 191.7,125.4 192.0,124.5 192.2,123.7 192.6,122.9 193.0,122.2 193.5,121.5 194.1,120.8 194.7,120.2 195.3,119.6 196.0,119.1 196.8,118.7 197.5,118.3 198.3,118.0 199.2,117.8 200.0,117.6 200.9,117.5 201.7,117.5 202.6,117.6 203.4,117.7 204.3,117.9 205.1,118.2 205.9,118.5 206.6,118.9 207.3,119.4 208.0,119.9 208.6,120.5 209.2,121.1 209.7,121.8 210.2,122.6 210.6,123.3 210.9,124.1 211.2,124.9 211.4,125.8 211.5,126.6" fill="#007FFF" stroke="#000000" stroke-width="1.0" stroke-linecap="butt" stroke-linejoin="round" />
			<polygon points="211.5,101.5 211.5,102.4 211.4,103.2 211.2,104.1 210.9,104.9 210.6,105.7 210.2,106.4 209.7,107.2 209.2,107.9 208.6,108.5 208.0,109.1 207.3,109.6 206.6,110.1 205.9,110.5 205.1,110.8 204.3,111.1 203.4,111.3 202.6,111.4 201.7,111.5 200.9,111.5 200.0,111.4 199.2,111.2 198.3,111.0 197.5,110.7 196.8,110.3 196.0,109.9 195.3,109.4 194.7,108.8 194.1,108.2 193.5,107.5 193.0,106.8 192.6,106.1 192.2,105.3 192.0,104.5 191.7,103.6 191.6,102.8 191.5,101.9 191.5,101.1 191.6,100.2 191.7,99.4 192.0,98.5 192.2,97.7 192.6,96.9 193.0,96.2 193.5,95.5 194.1,94.8 194.7,94.2 195.3,93.6 196.0,93.1 196.8,92.7 197.5,92.3 198.3,92.0 199.2,91.8 200.0,91.6 200.9,91.5 201.7,91.5 202.6,91.6 203.4,91.7 204.3,91.9 205.1,92.2 205.9,92.5 206.6,92.9 207.3,93.4 208.0,93.9 208.6,94.5 209.2,95.1 209.7,95.8 210.2,96.6 210.6,97.3 210.9,98.1 211.2,98.9 211.4,99.8 211.5,100.6" fill="#007FFF" stroke="#000000" stroke-width="1.0" stroke-linecap="butt" stroke-linejoin="round" />
			<polygon points="211.5,75.5 211.5,76.4 211.4,77.2 211.2,78.1 210.9,78.9 210.6,79.7 210.2,80.4 209.7,81.2 209.2,81.9 208.6,82.5 208.0,83.1 207.3,83.6 206.6,84.1 205.9,84.5 205.1,84.8 204.3,85.1 203.4,85.3 202.6,85.4 201.7,85.5 200.9,85.5 200.0,85.4 199.2,85.2 198.3,85.0 197.5,84.7 196.8,84.3 196.0,83.9 195.3,83.4 194.7,82.8 194.1,82.2 193.5,81.5 193.0,80.8 192.6,80.1 192.2,79.3 192.0,78.5 191.7,77.6 191.6,76.8 191.5,75.9 191.5,75.1 191.6,74.2 191.7,73.4 192.0,72.5 192.2,71.7 192.6,70.9 193.0,70.2 193.5,69.5 194.1,68.8 194.7,68.2 195.3,67.6 196.0,67.1 196.8,66.7 197.5,66.3 198.3,66.0 199.2,65.8 200.0,65.6 200.9,65.5 201.7,65.5 202.6,65.6 203.4,65.7 204.3,65.9 205.1,66.2 205.9,66.5 206.6,66.9 207.3,67.4 208.0,67.9 208.6,68.5 209.2,69.1 209.7,69.8 210.2,70.6 210.6,71.3 210.9,72.1 211.2,72.9 211.4,73.8 211.5,74.6" fill="#007FFF" stroke="#000000" stroke-width="1.0" stroke-linecap="butt" stroke-linejoin="round" />
			<polygon points="207.5,101.5 207.5,102.0 207.4,102.5 207.3,103.0 207.1,103.5 207.0,104.0 206.7,104.5 206.4,104.9 206.1,105.3 205.8,105.7 205.4,106.0 205.0,106.4 204.6,106.7 204.1,106.9 203.6,107.1 203.2,107.3 202.7,107.4 202.1,107.5 201.6,107.5 201.1,107.5 200.6,107.4 200.1,107.3 199.6,107.2 199.1,107.0 198.7,106.8 198.2,106.5 197.8,106.2 197.4,105.9 197.0,105.5 196.7,105.1 196.4,104.7 196.2,104.2 195.9,103.8 195.8,103.3 195.6,102.8 195.5,102.3 195.5,101.8 195.5,101.2 195.5,100.7 195.6,100.2 195.8,99.7 195.9,99.2 196.2,98.8 196.4,98.3 196.7,97.9 197.0,97.5 197.4,97.1 197.8,96.8 198.2,96.5 198.7,96.2 199.1,96.0 199.6,95.8 200.1,95.7 200.6,95.6 201.1,95.5 201.6,95.5 202.1,95.5 202.7,95.6 203.2,95.7 203.6,95.9 204.1,96.1 204.6,96.3 205.0,96.6 205.4,97.0 205.8,97.3 206.1,97.7 206.4,98.1 206.7,98.5 207.0,99.0 207.1,99.5 207.3,100.0 207.4,100.5 207.5,101.0" fill="#FFFFFF" stroke="#007FFF" stroke-width="1.0" stroke-linecap="butt" stroke-linejoin="round" />
			<polygon points="207.5,127.5 207.5,128.0 207.4,128.5 207.3,129.0 207.1,129.5 207.0,130.0 206.7,130.5 206.4,130.9 206.1,131.3 205.8,131.7 205.4,132.0 205.0,132.4 204.6,132.7 204.1,132.9 203.6,133.1 203.2,133.3 202.7,133.4 202.1,133.5 201.6,133.5 201.1,133.5 200.6,133.4 200.1,133.3 199.6,133.2 199.1,133.0 198.7,132.8 198.2,132.5 197.8,132.2 197.4,131.9 197.0,131.5 196.7,131.1 196.4,130.7 196.2,130.2 195.9,129.8 195.8,129.3 195.6,128.8 195.5,128.3 195.5,127.8 195.5,127.2 195.5,126.7 195.6,126.2 195.8,125.7 195.9,125.2 196.2,124.8 196.4,124.3 196.7,123.9 197.0,123.5 197.4,123.1 197.8,122.8 198.2,122.5 198.7,122.2 199.1,122.0 199.6,121.8 200.1,121.7 200.6,121.6 201.1,121.5 201.6,121.5 202.1,121.5 202.7,121.6 203.2,121.7 203.6,121.9 204.1,122.1 204.6,122.3 205.0,122.6 205.4,123.0 205.8,123.3 206.1,123.7 206.4,124.1 206.7,124.5 207.0,125.0 207.1,125.5 207.3,126.0 207.4,126.5 207.5,127.0" fill="#FFFFFF" stroke="#007FFF" stroke-width="1.0" stroke-linecap="butt" stroke-linejoin="round" />
			<polygon points="207.5,75.5 207.5,76.0 207.4,76.5 207.3,77.0 207.1,77.5 207.0,78.0 206.7,78.5 206.4,78.9 206.1,79.3 205.8,79.7 205.4,80.0 205.0,80.4 204.6,80.7 204.1,80.9 203.6,81.1 203.2,81.3 202.7,81.4 202.1,81.5 201.6,81.5 201.1,81.5 200.6,81.4 200.1,81.3 199.6,81.2 199.1,81.0 198.7,80.8 198.2,80.5 197.8,80.2 197.4,79.9 197.0,79.5 196.7,79.1 196.4,78.7 196.2,78.2 195.9,77.8 195.8,77.3 195.6,76.8 195.5,76.3 195.5,75.8 195.5,75.2 195.5,74.7 195.6,74.2 195.8,73.7 195.9,73.2 196.2,72.8 196.4,72.3 196.7,71.9 197.0,71.5 197.4,71.1 197.8,70.8 198.2,70.5 198.7,70.2 199.1,70.0 199.6,69.8 200.1,69.7 200.6,69.6 201.1,69.5 201.6,69.5 202.1,69.5 202.7,69.6 203.2,69.7 203.6,69.9 204.1,70.1 204.6,70.3 205.0,70.6 205.4,71.0 205.8,71.3 206.1,71.7 206.4,72.1 206.7,72.5 207.0,73.0 207.1,73.5 207.3,74.0 207.4,74.5 207.5,75.0" fill="#FFFFFF" stroke="#007FFF" stroke-width="1.0" stroke-linecap="butt" stroke-linejoin="round" />
		</g>
	</g>
</svg>
