<svg width="215" height="225" xmlns="http://www.w3.org/2000/svg" xmlns:xlink="http://www.w3.org/1999/xlink">
	<g id="Modelica.Mechanics.Rotational.Interfaces.PartialElementaryOneFlangeAndSupport" class="component">
		<polygon points="1.5,205.5 205.5,205.5 205.5,1.5 1.5,1.5" fill-opacity="0" stroke="#FF0000" stroke-dasharray="3 4" stroke-width="1.0" stroke-linecap="round" stroke-linejoin="round" />
		<polyline points="53.5,223.5 73.5,203.5" fill-opacity="0" stroke="#000000" stroke-width="1.0" stroke-linecap="round" stroke-linejoin="round" />
		<polyline points="73.5,223.5 93.5,203.5" fill-opacity="0" stroke="#000000" stroke-width="1.0" stroke-linecap="round" stroke-linejoin="round" />
		<polyline points="93.5,223.5 113.5,203.5" fill-opacity="0" stroke="#000000" stroke-width="1.0" stroke-linecap="round" stroke-linejoin="round" />
		<polyline points="113.5,223.5 133.5,203.5" fill-opacity="0" stroke="#000000" stroke-width="1.0" stroke-linecap="round" stroke-linejoin="round" />
		<polyline points="73.5,203.5 133.5,203.5" fill-opacity="0" stroke="#000000" stroke-width="1.0" stroke-linecap="round" stroke-linejoin="round" />
		<g id="flange" class="port">
			<polygon points="213.5,103.5 213.5,102.6 213.4,101.8 213.2,100.9 212.9,100.1 212.6,99.3 212.2,98.6 211.7,97.8 211.2,97.1 210.6,96.5 210.0,95.9 209.3,95.4 208.6,94.9 207.9,94.5 207.1,94.2 206.3,93.9 205.4,93.7 204.6,93.6 203.7,93.5 202.9,93.5 202.0,93.6 201.2,93.8 200.3,94.0 199.5,94.3 198.8,94.7 198.0,95.1 197.3,95.6 196.7,96.2 196.1,96.8 195.5,97.5 195.0,98.2 194.6,98.9 194.2,99.7 194.0,100.5 193.7,101.4 193.6,102.2 193.5,103.1 193.5,103.9 193.6,104.8 193.7,105.6 194.0,106.5 194.2,107.3 194.6,108.1 195.0,108.8 195.5,109.5 196.1,110.2 196.7,110.8 197.3,111.4 198.0,111.9 198.8,112.3 199.5,112.7 200.3,113.0 201.2,113.2 202.0,113.4 202.9,113.5 203.7,113.5 204.6,113.4 205.4,113.3 206.3,113.1 207.1,112.8 207.9,112.5 208.6,112.1 209.3,111.6 210.0,111.1 210.6,110.5 211.2,109.9 211.7,109.2 212.2,108.4 212.6,107.7 212.9,106.9 213.2,106.1 213.4,105.2 213.5,104.4" fill="#FFFFFF" stroke="#000000" stroke-width="1.0" stroke-linecap="round" stroke-linejoin="round" />
		</g>
		<g id="support" class="port">
			<polygon points="113.5,203.5 113.5,202.6 113.4,201.8 113.2,200.9 112.9,200.1 112.6,199.3 112.2,198.6 111.7,197.8 111.2,197.1 110.6,196.5 110.0,195.9 109.3,195.4 108.6,194.9 107.9,194.5 107.1,194.2 106.3,193.9 105.4,193.7 104.6,193.6 103.7,193.5 102.9,193.5 102.0,193.6 101.2,193.8 100.3,194.0 99.5,194.3 98.8,194.7 98.0,195.1 97.3,195.6 96.7,196.2 96.1,196.8 95.5,197.5 95.0,198.2 94.6,198.9 94.2,199.7 94.0,200.5 93.7,201.4 93.6,202.2 93.5,203.1 93.5,203.9 93.6,204.8 93.7,205.6 94.0,206.5 94.2,207.3 94.6,208.1 95.0,208.8 95.5,209.5 96.1,210.2 96.7,210.8 97.3,211.4 98.0,211.9 98.8,212.3 99.5,212.7 100.3,213.0 101.2,213.2 102.0,213.4 102.9,213.5 103.7,213.5 104.6,213.4 105.4,213.3 106.3,213.1 107.1,212.8 107.9,212.5 108.6,212.1 109.3,211.6 110.0,211.1 110.6,210.5 111.2,209.9 111.7,209.2 112.2,208.4 112.6,207.7 112.9,206.9 113.2,206.1 113.4,205.2 113.5,204.4" fill="#5F5F5F" stroke="#000000" stroke-width="1.0" stroke-linecap="round" stroke-linejoin="round" />
			<polygon points="88.5,218.5 118.5,218.5 118.5,188.5 88.5,188.5" fill="#C0C0C0" stroke="#C0C0C0" stroke-width="1.0" stroke-linecap="round" stroke-linejoin="round" />
			<polygon points="113.5,203.5 113.5,202.6 113.4,201.8 113.2,200.9 112.9,200.1 112.6,199.3 112.2,198.6 111.7,197.8 111.2,197.1 110.6,196.5 110.0,195.9 109.3,195.4 108.6,194.9 107.9,194.5 107.1,194.2 106.3,193.9 105.4,193.7 104.6,193.6 103.7,193.5 102.9,193.5 102.0,193.6 101.2,193.8 100.3,194.0 99.5,194.3 98.8,194.7 98.0,195.1 97.3,195.6 96.7,196.2 96.1,196.8 95.5,197.5 95.0,198.2 94.6,198.9 94.2,199.7 94.0,200.5 93.7,201.4 93.6,202.2 93.5,203.1 93.5,203.9 93.6,204.8 93.7,205.6 94.0,206.5 94.2,207.3 94.6,208.1 95.0,208.8 95.5,209.5 96.1,210.2 96.7,210.8 97.3,211.4 98.0,211.9 98.8,212.3 99.5,212.7 100.3,213.0 101.2,213.2 102.0,213.4 102.9,213.5 103.7,213.5 104.6,213.4 105.4,213.3 106.3,213.1 107.1,212.8 107.9,212.5 108.6,212.1 109.3,211.6 110.0,211.1 110.6,210.5 111.2,209.9 111.7,209.2 112.2,208.4 112.6,207.7 112.9,206.9 113.2,206.1 113.4,205.2 113.5,204.4" fill="#5F5F5F" stroke="#000000" stroke-width="1.0" stroke-linecap="round" stroke-linejoin="round" />
		</g>
	</g>
</svg>
