<svg width="433" height="203" xmlns="http://www.w3.org/2000/svg" xmlns:xlink="http://www.w3.org/1999/xlink">
	<g id="Modelica.Blocks.MathBoolean.MultiSwitch" class="component">
		<text x="211.5" y="191.0" text-anchor="middle" fill="#000000" font-size="39.9px" font-family="sans-serif">else: false</text>
		<text x="212.0" y="41.7" text-anchor="middle" fill="#0000FF" font-size="53.1px" font-family="sans-serif">MultiSwitch</text>
		<polygon points="11.5,152.5 411.5,152.5 411.5,51.5 11.5,51.5" fill="#D2D2D2" stroke="#FF7F00" stroke-width="1.5" stroke-linecap="butt" stroke-linejoin="round" />
		<polyline points="14.5,151.0 410.0,151.0 410.0,54.5" fill-opacity="0" stroke="#696969" stroke-width="3.0" stroke-linecap="butt" stroke-linejoin="round" />
		<polyline points="13.0,149.5 13.0,53.0 408.5,53.0" fill-opacity="0" stroke="#E9E9E9" stroke-width="3.0" stroke-linecap="butt" stroke-linejoin="round" />
		<text x="206.0" y="116.0" text-anchor="middle" fill="#000000" font-size="41.2px" font-family="sans-serif">fill(false, nu)</text>
		<polygon points="400.5,100.5 400.5,99.9 400.4,99.3 400.3,98.7 400.1,98.1 399.9,97.6 399.6,97.0 399.3,96.5 398.9,96.1 398.5,95.6 398.1,95.2 397.6,94.8 397.1,94.5 396.5,94.2 396.0,94.0 395.4,93.8 394.8,93.6 394.2,93.5 393.6,93.5 393.0,93.5 392.4,93.6 391.8,93.7 391.3,93.9 390.7,94.1 390.2,94.3 389.6,94.6 389.2,95.0 388.7,95.4 388.3,95.8 387.9,96.3 387.6,96.8 387.3,97.3 387.0,97.9 386.8,98.4 386.7,99.0 386.5,99.6 386.5,100.2 386.5,100.8 386.5,101.4 386.7,102.0 386.8,102.6 387.0,103.1 387.3,103.7 387.6,104.2 387.9,104.7 388.3,105.2 388.7,105.6 389.2,106.0 389.6,106.4 390.2,106.7 390.7,106.9 391.3,107.1 391.8,107.3 392.4,107.4 393.0,107.5 393.6,107.5 394.2,107.5 394.8,107.4 395.4,107.2 396.0,107.0 396.5,106.8 397.1,106.5 397.6,106.2 398.1,105.8 398.5,105.4 398.9,104.9 399.3,104.5 399.6,104.0 399.9,103.4 400.1,102.9 400.3,102.3 400.4,101.7 400.5,101.1" fill="#EBEBEB" stroke="#EBEBEB" stroke-width="1.0" stroke-linecap="butt" stroke-linejoin="round" />
		<g id="u" class="port">
			<polygon points="21.5,101.5 21.5,104.1 21.3,106.6 21.2,109.2 20.9,111.6 20.6,114.0 20.2,116.3 19.7,118.5 19.2,120.6 18.6,122.5 18.0,124.2 17.3,125.8 16.6,127.3 15.9,128.5 15.1,129.5 14.3,130.3 13.4,130.9 12.6,131.3 11.7,131.5 10.8,131.4 10.0,131.2 9.1,130.7 8.3,130.0 7.5,129.0 6.7,127.9 6.0,126.6 5.3,125.1 4.7,123.4 4.0,121.5 3.5,119.5 3.0,117.4 2.6,115.2 2.2,112.8 1.9,110.4 1.7,107.9 1.6,105.4 1.5,102.8 1.5,100.2 1.6,97.6 1.7,95.1 1.9,92.6 2.2,90.2 2.6,87.8 3.0,85.6 3.5,83.5 4.0,81.5 4.7,79.6 5.3,77.9 6.0,76.4 6.7,75.1 7.5,74.0 8.3,73.0 9.1,72.3 10.0,71.8 10.8,71.6 11.7,71.5 12.6,71.7 13.4,72.1 14.3,72.7 15.1,73.5 15.9,74.5 16.6,75.7 17.3,77.2 18.0,78.8 18.6,80.5 19.2,82.4 19.7,84.5 20.2,86.7 20.6,89.0 20.9,91.4 21.2,93.8 21.3,96.4 21.5,98.9" fill="#FF00FF" stroke="#FF00FF" stroke-width="1.0" stroke-linecap="butt" stroke-linejoin="round" />
		</g>
		<g id="y" class="port">
			<polygon points="411.5,91.5 431.5,101.5 411.5,111.5" fill="#FFFFFF" stroke="#FF00FF" stroke-width="1.0" stroke-linecap="butt" stroke-linejoin="round" />
		</g>
	</g>
</svg>
