<svg width="223" height="203" xmlns="http://www.w3.org/2000/svg" xmlns:xlink="http://www.w3.org/1999/xlink">
	<g id="Modelica.Electrical.Machines.BasicMachines.Components.InductorDC" class="component">
		<polygon points="81.5,101.5 81.4,100.2 81.3,98.9 81.0,97.7 80.6,96.4 80.1,95.2 79.5,94.1 78.9,93.0 78.1,92.0 77.2,91.0 76.3,90.1 75.3,89.3 74.2,88.6 73.0,88.0 71.9,87.5 70.6,87.1 69.4,86.8 68.1,86.6 66.8,86.5 65.5,86.5 64.2,86.7 63.0,86.9 61.7,87.3 60.5,87.7 59.4,88.3 58.3,89.0 57.2,89.7 56.2,90.6 55.3,91.5 54.5,92.5 53.8,93.5 53.1,94.7 52.6,95.8 52.2,97.0 51.8,98.3 51.6,99.6 51.5,100.9 51.5,102.1 51.6,103.4 51.8,104.7 52.2,106.0 52.6,107.2 53.1,108.3 53.8,109.5 54.5,110.5 55.3,111.5 56.2,112.4 57.2,113.3 58.3,114.0 59.4,114.7 60.5,115.3 61.7,115.7 63.0,116.1 64.2,116.3 65.5,116.5 66.8,116.5 68.1,116.4 69.4,116.2 70.6,115.9 71.9,115.5 73.0,115.0 74.2,114.4 75.3,113.7 76.3,112.9 77.2,112.0 78.1,111.0 78.9,110.0 79.5,108.9 80.1,107.8 80.6,106.6 81.0,105.3 81.3,104.1 81.4,102.8" fill-opacity="0" stroke="#0000FF" stroke-width="1.0" stroke-linecap="round" stroke-linejoin="round" />
		<polygon points="111.5,101.5 111.4,100.2 111.3,98.9 111.0,97.7 110.6,96.4 110.1,95.2 109.5,94.1 108.9,93.0 108.1,92.0 107.2,91.0 106.3,90.1 105.3,89.3 104.2,88.6 103.0,88.0 101.9,87.5 100.6,87.1 99.4,86.8 98.1,86.6 96.8,86.5 95.5,86.5 94.2,86.7 93.0,86.9 91.7,87.3 90.5,87.7 89.4,88.3 88.3,89.0 87.2,89.7 86.2,90.6 85.3,91.5 84.5,92.5 83.8,93.5 83.1,94.7 82.6,95.8 82.2,97.0 81.8,98.3 81.6,99.6 81.5,100.9 81.5,102.1 81.6,103.4 81.8,104.7 82.2,106.0 82.6,107.2 83.1,108.3 83.8,109.5 84.5,110.5 85.3,111.5 86.2,112.4 87.2,113.3 88.3,114.0 89.4,114.7 90.5,115.3 91.7,115.7 93.0,116.1 94.2,116.3 95.5,116.5 96.8,116.5 98.1,116.4 99.4,116.2 100.6,115.9 101.9,115.5 103.0,115.0 104.2,114.4 105.3,113.7 106.3,112.9 107.2,112.0 108.1,111.0 108.9,110.0 109.5,108.9 110.1,107.8 110.6,106.6 111.0,105.3 111.3,104.1 111.4,102.8" fill-opacity="0" stroke="#0000FF" stroke-width="1.0" stroke-linecap="round" stroke-linejoin="round" />
		<polygon points="141.5,101.5 141.4,100.2 141.3,98.9 141.0,97.7 140.6,96.4 140.1,95.2 139.5,94.1 138.9,93.0 138.1,92.0 137.2,91.0 136.3,90.1 135.3,89.3 134.2,88.6 133.0,88.0 131.9,87.5 130.6,87.1 129.4,86.8 128.1,86.6 126.8,86.5 125.5,86.5 124.2,86.7 123.0,86.9 121.7,87.3 120.5,87.7 119.4,88.3 118.3,89.0 117.2,89.7 116.2,90.6 115.3,91.5 114.5,92.5 113.8,93.5 113.1,94.7 112.6,95.8 112.2,97.0 111.8,98.3 111.6,99.6 111.5,100.9 111.5,102.1 111.6,103.4 111.8,104.7 112.2,106.0 112.6,107.2 113.1,108.3 113.8,109.5 114.5,110.5 115.3,111.5 116.2,112.4 117.2,113.3 118.3,114.0 119.4,114.7 120.5,115.3 121.7,115.7 123.0,116.1 124.2,116.3 125.5,116.5 126.8,116.5 128.1,116.4 129.4,116.2 130.6,115.9 131.9,115.5 133.0,115.0 134.2,114.4 135.3,113.7 136.3,112.9 137.2,112.0 138.1,111.0 138.9,110.0 139.5,108.9 140.1,107.8 140.6,106.6 141.0,105.3 141.3,104.1 141.4,102.8" fill-opacity="0" stroke="#0000FF" stroke-width="1.0" stroke-linecap="round" stroke-linejoin="round" />
		<polygon points="171.5,101.5 171.4,100.2 171.3,98.9 171.0,97.7 170.6,96.4 170.1,95.2 169.5,94.1 168.9,93.0 168.1,92.0 167.2,91.0 166.3,90.1 165.3,89.3 164.2,88.6 163.0,88.0 161.9,87.5 160.6,87.1 159.4,86.8 158.1,86.6 156.8,86.5 155.5,86.5 154.2,86.7 153.0,86.9 151.7,87.3 150.5,87.7 149.4,88.3 148.3,89.0 147.2,89.7 146.2,90.6 145.3,91.5 144.5,92.5 143.8,93.5 143.1,94.7 142.6,95.8 142.2,97.0 141.8,98.3 141.6,99.6 141.5,100.9 141.5,102.1 141.6,103.4 141.8,104.7 142.2,106.0 142.6,107.2 143.1,108.3 143.8,109.5 144.5,110.5 145.3,111.5 146.2,112.4 147.2,113.3 148.3,114.0 149.4,114.7 150.5,115.3 151.7,115.7 153.0,116.1 154.2,116.3 155.5,116.5 156.8,116.5 158.1,116.4 159.4,116.2 160.6,115.9 161.9,115.5 163.0,115.0 164.2,114.4 165.3,113.7 166.3,112.9 167.2,112.0 168.1,111.0 168.9,110.0 169.5,108.9 170.1,107.8 170.6,106.6 171.0,105.3 171.3,104.1 171.4,102.8" fill-opacity="0" stroke="#0000FF" stroke-width="1.0" stroke-linecap="round" stroke-linejoin="round" />
		<polygon points="51.5,131.5 171.5,131.5 171.5,101.5 51.5,101.5" fill="#FFFFFF" stroke="#FFFFFF" stroke-width="1.0" stroke-linecap="round" stroke-linejoin="round" />
		<polyline points="171.5,101.5 201.5,101.5" fill-opacity="0" stroke="#0000FF" stroke-width="1.0" stroke-linecap="round" stroke-linejoin="round" />
		<polyline points="21.5,101.5 51.5,101.5" fill-opacity="0" stroke="#0000FF" stroke-width="1.0" stroke-linecap="round" stroke-linejoin="round" />
		<g id="p" class="port">
			<polygon points="1.5,111.5 21.5,111.5 21.5,91.5 1.5,91.5" fill="#0000FF" stroke="#0000FF" stroke-width="1.0" stroke-linecap="round" stroke-linejoin="round" />
		</g>
		<g id="n" class="port">
			<polygon points="221.5,111.5 201.5,111.5 201.5,91.5 221.5,91.5" fill="#FFFFFF" stroke="#0000FF" stroke-width="1.0" stroke-linecap="round" stroke-linejoin="round" />
		</g>
	</g>
</svg>
