<svg width="223" height="253" xmlns="http://www.w3.org/2000/svg" xmlns:xlink="http://www.w3.org/1999/xlink">
	<g id="Modelica.Mechanics.Translational.Components.Brake" class="component">
		<polyline points="61.5,251.5 81.5,231.5" fill-opacity="0" stroke="#007F00" stroke-width="1.0" stroke-linecap="butt" stroke-linejoin="round" />
		<polyline points="81.5,251.5 101.5,231.5" fill-opacity="0" stroke="#007F00" stroke-width="1.0" stroke-linecap="butt" stroke-linejoin="round" />
		<polyline points="101.5,251.5 121.5,231.5" fill-opacity="0" stroke="#007F00" stroke-width="1.0" stroke-linecap="butt" stroke-linejoin="round" />
		<polyline points="121.5,251.5 141.5,231.5" fill-opacity="0" stroke="#007F00" stroke-width="1.0" stroke-linecap="butt" stroke-linejoin="round" />
		<polyline points="81.5,231.5 141.5,231.5" fill-opacity="0" stroke="#007F00" stroke-width="1.0" stroke-linecap="butt" stroke-linejoin="round" />
		<polygon points="21.5,141.5 201.5,141.5 201.5,121.5 21.5,121.5" fill="#A0D7A0" stroke="#007F00" stroke-width="1.0" stroke-linecap="butt" stroke-linejoin="round" />
		<polygon points="111.5,161.5 121.5,181.5 101.5,181.5" fill="#00007F" stroke="#00007F" stroke-width="1.0" stroke-linecap="butt" stroke-linejoin="round" />
		<polygon points="121.5,81.5 101.5,81.5 111.5,101.5" fill="#00007F" stroke="#00007F" stroke-width="1.0" stroke-linecap="butt" stroke-linejoin="round" />
		<polyline points="111.5,41.5 111.5,81.5" fill-opacity="0" stroke="#00007F" stroke-width="1.0" stroke-linecap="butt" stroke-linejoin="round" />
		<polygon points="131.5,109.5 141.5,109.5 141.5,103.5 131.5,103.5" fill="#AFBEAF" stroke="#AFBEAF" stroke-width="1.0" stroke-linecap="butt" stroke-linejoin="round" />
		<polygon points="131.5,159.5 141.5,159.5 141.5,153.5 131.5,153.5" fill="#AFBEAF" stroke="#AFBEAF" stroke-width="1.0" stroke-linecap="butt" stroke-linejoin="round" />
		<polygon points="141.5,233.5 147.5,233.5 147.5,103.5 141.5,103.5" fill="#AFBEAF" stroke="#AFBEAF" stroke-width="1.0" stroke-linecap="butt" stroke-linejoin="round" />
		<polygon points="125.5,233.5 141.5,233.5 141.5,227.5 125.5,227.5" fill="#AFBEAF" stroke="#AFBEAF" stroke-width="1.0" stroke-linecap="butt" stroke-linejoin="round" />
		<polyline points="111.5,181.5 111.5,191.5 71.5,181.5 71.5,83.5 111.5,71.5 111.5,41.5" fill-opacity="0" stroke="#00007F" stroke-width="1.0" stroke-linecap="butt" stroke-linejoin="round" />
		<polygon points="91.5,111.5 131.5,111.5 131.5,101.5 91.5,101.5" fill="#000000" stroke="#000000" stroke-width="1.0" stroke-linecap="butt" stroke-linejoin="round" />
		<polygon points="91.5,161.5 131.5,161.5 131.5,151.5 91.5,151.5" fill="#000000" stroke="#000000" stroke-width="1.0" stroke-linecap="butt" stroke-linejoin="round" />
		<g id="flange_a" class="port">
			<polygon points="1.5,141.5 21.5,141.5 21.5,121.5 1.5,121.5" fill="#007F00" stroke="#007F00" stroke-width="1.0" stroke-linecap="butt" stroke-linejoin="round" />
		</g>
		<g id="flange_b" class="port">
			<polygon points="201.5,141.5 221.5,141.5 221.5,121.5 201.5,121.5" fill="#FFFFFF" stroke="#007F00" stroke-width="1.0" stroke-linecap="butt" stroke-linejoin="round" />
		</g>
		<g id="support" class="port">
			<polygon points="102.5,240.5 120.5,240.5 120.5,222.5 102.5,222.5" fill="#AFAFAF" stroke="#007F00" stroke-width="1.0" stroke-linecap="butt" stroke-linejoin="round" />
			<polygon points="96.5,246.5 126.5,246.5 126.5,216.5 96.5,216.5" fill="#AFBEAF" stroke-opacity="0" stroke-width="1.0" stroke-linecap="butt" stroke-linejoin="round" />
			<polygon points="102.5,240.5 120.5,240.5 120.5,222.5 102.5,222.5" fill="#007F00" stroke="#007F00" stroke-width="1.0" stroke-linecap="butt" stroke-linejoin="round" />
		</g>
		<g id="heatPort" class="port">
			<polygon points="1.5,241.5 21.5,241.5 21.5,221.5 1.5,221.5" fill="#BF0000" stroke="#BF0000" stroke-width="1.0" stroke-linecap="butt" stroke-linejoin="round" />
		</g>
		<g id="f_normalized" class="port">
			<polygon points="91.5,1.5 111.5,41.5 131.5,1.5" fill="#00007F" stroke="#00007F" stroke-width="1.0" stroke-linecap="butt" stroke-linejoin="round" />
		</g>
	</g>
</svg>
