<svg width="233" height="223" xmlns="http://www.w3.org/2000/svg" xmlns:xlink="http://www.w3.org/1999/xlink">
	<g id="Modelica.Electrical.Machines.Sensors.RotorDisplacementAngle" class="component">
		<polygon points="171.5,61.5 171.3,59.8 170.6,58.1 169.5,56.4 168.0,54.7 166.0,53.2 163.7,51.6 160.9,50.2 157.8,48.8 154.4,47.5 150.6,46.3 146.5,45.3 142.2,44.3 137.7,43.5 133.0,42.8 128.1,42.3 123.0,41.9 117.9,41.6 112.8,41.5 107.6,41.5 102.5,41.7 97.4,42.1 92.5,42.5 87.6,43.1 83.0,43.9 78.6,44.8 74.4,45.8 70.5,46.9 66.8,48.1 63.6,49.5 60.6,50.9 58.1,52.4 55.9,53.9 54.2,55.6 52.9,57.2 52.0,58.9 51.5,60.6 51.5,62.4 52.0,64.1 52.9,65.8 54.2,67.4 55.9,69.1 58.1,70.6 60.6,72.1 63.6,73.5 66.8,74.9 70.5,76.1 74.4,77.2 78.6,78.2 83.0,79.1 87.6,79.9 92.5,80.5 97.4,80.9 102.5,81.3 107.6,81.5 112.8,81.5 117.9,81.4 123.0,81.1 128.1,80.7 133.0,80.2 137.7,79.5 142.2,78.7 146.5,77.7 150.6,76.7 154.4,75.5 157.8,74.2 160.9,72.8 163.7,71.4 166.0,69.8 168.0,68.3 169.5,66.6 170.6,64.9 171.3,63.2" fill="#FFFFFF" stroke="#00FF00" stroke-width="1.0" stroke-linecap="round" stroke-linejoin="round" />
		<polygon points="171.5,181.5 171.3,179.8 170.6,178.1 169.5,176.4 168.0,174.7 166.0,173.2 163.7,171.6 160.9,170.2 157.8,168.8 154.4,167.5 150.6,166.3 146.5,165.3 142.2,164.3 137.7,163.5 133.0,162.8 128.1,162.3 123.0,161.9 117.9,161.6 112.8,161.5 107.6,161.5 102.5,161.7 97.4,162.1 92.5,162.5 87.6,163.1 83.0,163.9 78.6,164.8 74.4,165.8 70.5,166.9 66.8,168.1 63.6,169.5 60.6,170.9 58.1,172.4 55.9,173.9 54.2,175.6 52.9,177.2 52.0,178.9 51.5,180.6 51.5,182.4 52.0,184.1 52.9,185.8 54.2,187.4 55.9,189.1 58.1,190.6 60.6,192.1 63.6,193.5 66.8,194.9 70.5,196.1 74.4,197.2 78.6,198.2 83.0,199.1 87.6,199.9 92.5,200.5 97.4,200.9 102.5,201.3 107.6,201.5 112.8,201.5 117.9,201.4 123.0,201.1 128.1,200.7 133.0,200.2 137.7,199.5 142.2,198.7 146.5,197.7 150.6,196.7 154.4,195.5 157.8,194.2 160.9,192.8 163.7,191.4 166.0,189.8 168.0,188.3 169.5,186.6 170.6,184.9 171.3,183.2" fill="#FFFFFF" stroke="#00FF00" stroke-width="1.0" stroke-linecap="round" stroke-linejoin="round" />
		<polygon points="51.5,81.5 171.5,81.5 171.5,61.5 51.5,61.5" fill="#FFFFFF" stroke="#00FF00" stroke-width="1.0" stroke-linecap="round" stroke-linejoin="round" />
		<polygon points="51.5,181.5 171.5,181.5 171.5,161.5 51.5,161.5" fill="#FFFFFF" stroke="#00FF00" stroke-width="1.0" stroke-linecap="round" stroke-linejoin="round" />
		<polygon points="71.5,161.5 151.5,161.5 151.5,81.5 71.5,81.5" fill="#FFFFFF" stroke="#00FF00" stroke-width="1.0" stroke-linecap="round" stroke-linejoin="round" />
		<polyline points="111.5,121.5 31.5,41.5" fill-opacity="0" stroke="#0000FF" stroke-width="1.0" stroke-linecap="round" stroke-linejoin="round" />
		<polygon points="31.5,41.5 43.5,45.5 35.5,53.5" fill="#FFFFFF" stroke="#0000FF" stroke-width="1.0" stroke-linecap="round" stroke-linejoin="round" />
		<polyline points="111.5,121.5 111.5,41.5" fill-opacity="0" stroke="#00FF00" stroke-width="1.0" stroke-linecap="round" stroke-linejoin="round" />
		<polygon points="111.5,37.5 115.5,49.5 107.5,49.5" fill="#FFFFFF" stroke="#00FF00" stroke-width="1.0" stroke-linecap="round" stroke-linejoin="round" />
		<polygon points="191.5,41.5 231.5,41.5 231.5,1.5 191.5,1.5" fill="#C0C0C0" stroke="#C0C0C0" stroke-width="1.0" stroke-linecap="round" stroke-linejoin="round" />
		<polyline points="191.5,21.5 231.5,21.5" fill-opacity="0" stroke="#000000" stroke-width="1.0" stroke-linecap="round" stroke-linejoin="round" />
		<polyline points="201.5,1.5 191.5,21.5" fill-opacity="0" stroke="#000000" stroke-width="1.0" stroke-linecap="round" stroke-linejoin="round" />
		<polyline points="211.5,1.5 201.5,21.5" fill-opacity="0" stroke="#000000" stroke-width="1.0" stroke-linecap="round" stroke-linejoin="round" />
		<polyline points="221.5,1.5 211.5,21.5" fill-opacity="0" stroke="#000000" stroke-width="1.0" stroke-linecap="round" stroke-linejoin="round" />
		<polyline points="231.5,1.5 221.5,21.5" fill-opacity="0" stroke="#000000" stroke-width="1.0" stroke-linecap="round" stroke-linejoin="round" />
		<g id="rotorDisplacementAngle" class="port">
			<polygon points="211.5,111.5 231.5,121.5 211.5,131.5" fill="#FFFFFF" stroke="#00007F" stroke-width="1.0" stroke-linecap="round" stroke-linejoin="round" />
		</g>
		<g id="plug_p" class="port">
			<polygon points="21.5,61.5 21.5,60.6 21.3,59.8 21.2,58.9 20.9,58.1 20.6,57.3 20.2,56.6 19.7,55.8 19.2,55.1 18.6,54.5 18.0,53.9 17.3,53.4 16.6,52.9 15.9,52.5 15.1,52.2 14.3,51.9 13.4,51.7 12.6,51.6 11.7,51.5 10.8,51.5 10.0,51.6 9.1,51.8 8.3,52.0 7.5,52.3 6.7,52.7 6.0,53.1 5.3,53.6 4.7,54.2 4.0,54.8 3.5,55.5 3.0,56.2 2.6,56.9 2.2,57.7 1.9,58.5 1.7,59.4 1.6,60.2 1.5,61.1 1.5,61.9 1.6,62.8 1.7,63.6 1.9,64.5 2.2,65.3 2.6,66.1 3.0,66.8 3.5,67.5 4.0,68.2 4.7,68.8 5.3,69.4 6.0,69.9 6.7,70.3 7.5,70.7 8.3,71.0 9.1,71.2 10.0,71.4 10.8,71.5 11.7,71.5 12.6,71.4 13.4,71.3 14.3,71.1 15.1,70.8 15.9,70.5 16.6,70.1 17.3,69.6 18.0,69.1 18.6,68.5 19.2,67.9 19.7,67.2 20.2,66.4 20.6,65.7 20.9,64.9 21.2,64.1 21.3,63.2 21.5,62.4" fill="#0000FF" stroke="#0000FF" stroke-width="1.0" stroke-linecap="round" stroke-linejoin="round" />
		</g>
		<g id="plug_n" class="port">
			<polygon points="21.5,181.5 21.5,180.6 21.3,179.8 21.2,178.9 20.9,178.1 20.6,177.3 20.2,176.6 19.7,175.8 19.2,175.1 18.6,174.5 18.0,173.9 17.3,173.4 16.6,172.9 15.9,172.5 15.1,172.2 14.3,171.9 13.4,171.7 12.6,171.6 11.7,171.5 10.8,171.5 10.0,171.6 9.1,171.8 8.3,172.0 7.5,172.3 6.7,172.7 6.0,173.1 5.3,173.6 4.7,174.2 4.0,174.8 3.5,175.5 3.0,176.2 2.6,176.9 2.2,177.7 1.9,178.5 1.7,179.4 1.6,180.2 1.5,181.1 1.5,181.9 1.6,182.8 1.7,183.6 1.9,184.5 2.2,185.3 2.6,186.1 3.0,186.8 3.5,187.5 4.0,188.2 4.7,188.8 5.3,189.4 6.0,189.9 6.7,190.3 7.5,190.7 8.3,191.0 9.1,191.2 10.0,191.4 10.8,191.5 11.7,191.5 12.6,191.4 13.4,191.3 14.3,191.1 15.1,190.8 15.9,190.5 16.6,190.1 17.3,189.6 18.0,189.1 18.6,188.5 19.2,187.9 19.7,187.2 20.2,186.4 20.6,185.7 20.9,184.9 21.2,184.1 21.3,183.2 21.5,182.4" fill="#FFFFFF" stroke="#0000FF" stroke-width="1.0" stroke-linecap="round" stroke-linejoin="round" />
		</g>
		<g id="flange" class="port">
			<polygon points="121.5,21.5 121.5,20.6 121.3,19.8 121.2,18.9 120.9,18.1 120.6,17.3 120.2,16.6 119.7,15.8 119.2,15.1 118.6,14.5 118.0,13.9 117.3,13.4 116.6,12.9 115.9,12.5 115.1,12.2 114.3,11.9 113.4,11.7 112.6,11.6 111.7,11.5 110.8,11.5 110.0,11.6 109.1,11.8 108.3,12.0 107.5,12.3 106.7,12.7 106.0,13.1 105.3,13.6 104.7,14.2 104.0,14.8 103.5,15.5 103.0,16.2 102.6,16.9 102.2,17.7 101.9,18.5 101.7,19.4 101.6,20.2 101.5,21.1 101.5,21.9 101.6,22.8 101.7,23.6 101.9,24.5 102.2,25.3 102.6,26.1 103.0,26.8 103.5,27.5 104.0,28.2 104.7,28.8 105.3,29.4 106.0,29.9 106.7,30.3 107.5,30.7 108.3,31.0 109.1,31.2 110.0,31.4 110.8,31.5 111.7,31.5 112.6,31.4 113.4,31.3 114.3,31.1 115.1,30.8 115.9,30.5 116.6,30.1 117.3,29.6 118.0,29.1 118.6,28.5 119.2,27.9 119.7,27.2 120.2,26.4 120.6,25.7 120.9,24.9 121.2,24.1 121.3,23.2 121.5,22.4" fill="#5F5F5F" stroke="#000000" stroke-width="1.0" stroke-linecap="round" stroke-linejoin="round" />
		</g>
		<g id="support" class="port">
			<polygon points="221.5,21.5 221.5,20.6 221.3,19.8 221.2,18.9 220.9,18.1 220.6,17.3 220.2,16.6 219.7,15.8 219.2,15.1 218.6,14.5 218.0,13.9 217.3,13.4 216.6,12.9 215.9,12.5 215.1,12.2 214.3,11.9 213.4,11.7 212.6,11.6 211.7,11.5 210.8,11.5 210.0,11.6 209.1,11.8 208.3,12.0 207.5,12.3 206.7,12.7 206.0,13.1 205.3,13.6 204.7,14.2 204.0,14.8 203.5,15.5 203.0,16.2 202.6,16.9 202.2,17.7 201.9,18.5 201.7,19.4 201.6,20.2 201.5,21.1 201.5,21.9 201.6,22.8 201.7,23.6 201.9,24.5 202.2,25.3 202.6,26.1 203.0,26.8 203.5,27.5 204.0,28.2 204.7,28.8 205.3,29.4 206.0,29.9 206.7,30.3 207.5,30.7 208.3,31.0 209.1,31.2 210.0,31.4 210.8,31.5 211.7,31.5 212.6,31.4 213.4,31.3 214.3,31.1 215.1,30.8 215.9,30.5 216.6,30.1 217.3,29.6 218.0,29.1 218.6,28.5 219.2,27.9 219.7,27.2 220.2,26.4 220.6,25.7 220.9,24.9 221.2,24.1 221.3,23.2 221.5,22.4" fill="#5F5F5F" stroke="#000000" stroke-width="1.0" stroke-linecap="round" stroke-linejoin="round" />
		</g>
	</g>
</svg>
