<svg width="253" height="223" xmlns="http://www.w3.org/2000/svg" xmlns:xlink="http://www.w3.org/1999/xlink">
	<g id="Modelica.Mechanics.Rotational.Sources.Position" class="component">
		<polyline points="91.5,221.5 111.5,201.5" fill-opacity="0" stroke="#000000" stroke-width="1.0" stroke-linecap="butt" stroke-linejoin="round" />
		<polyline points="111.5,221.5 131.5,201.5" fill-opacity="0" stroke="#000000" stroke-width="1.0" stroke-linecap="butt" stroke-linejoin="round" />
		<polyline points="131.5,221.5 151.5,201.5" fill-opacity="0" stroke="#000000" stroke-width="1.0" stroke-linecap="butt" stroke-linejoin="round" />
		<polyline points="151.5,221.5 171.5,201.5" fill-opacity="0" stroke="#000000" stroke-width="1.0" stroke-linecap="butt" stroke-linejoin="round" />
		<polyline points="111.5,201.5 171.5,201.5" fill-opacity="0" stroke="#000000" stroke-width="1.0" stroke-linecap="butt" stroke-linejoin="round" />
		<defs>
			<linearGradient id="cyl7" x1="0" y1="0" x2="0" y2="1">
				<stop offset="0%" stop-color="#404040" />
				<stop offset="5%" stop-color="#585858" />
				<stop offset="10%" stop-color="#6E6E6E" />
				<stop offset="15%" stop-color="#818181" />
				<stop offset="20%" stop-color="#929292" />
				<stop offset="25%" stop-color="#A0A0A0" />
				<stop offset="30%" stop-color="#ACACAC" />
				<stop offset="35%" stop-color="#B4B4B4" />
				<stop offset="40%" stop-color="#BBBBBB" />
				<stop offset="45%" stop-color="#BFBFBF" />
				<stop offset="50%" stop-color="#C0C0C0" />
				<stop offset="55%" stop-color="#BFBFBF" />
				<stop offset="60%" stop-color="#BBBBBB" />
				<stop offset="65%" stop-color="#B4B4B4" />
				<stop offset="70%" stop-color="#ACACAC" />
				<stop offset="75%" stop-color="#A0A0A0" />
				<stop offset="80%" stop-color="#929292" />
				<stop offset="85%" stop-color="#818181" />
				<stop offset="90%" stop-color="#6E6E6E" />
				<stop offset="95%" stop-color="#585858" />
				<stop offset="100%" stop-color="#404040" />
			</linearGradient>
		</defs>
		<polygon points="41.5,121.5 241.5,121.5 241.5,81.5 41.5,81.5" fill="url(#cyl7)" stroke="#404040" stroke-width="1.0" stroke-linecap="butt" stroke-linejoin="round" />
		<polyline points="111.5,133.5 171.5,133.5" fill-opacity="0" stroke="#000000" stroke-width="1.0" stroke-linecap="butt" stroke-linejoin="round" />
		<polyline points="141.5,49.5 141.5,69.5" fill-opacity="0" stroke="#000000" stroke-width="1.0" stroke-linecap="butt" stroke-linejoin="round" />
		<polyline points="112.5,69.5 171.5,69.5" fill-opacity="0" stroke="#000000" stroke-width="1.0" stroke-linecap="butt" stroke-linejoin="round" />
		<polyline points="141.5,133.5 141.5,201.5" fill-opacity="0" stroke="#000000" stroke-width="1.0" stroke-linecap="butt" stroke-linejoin="round" />
		<g id="flange" class="port">
			<polygon points="251.5,101.5 251.5,100.6 251.4,99.8 251.2,98.9 250.9,98.1 250.6,97.3 250.2,96.6 249.7,95.8 249.2,95.1 248.6,94.5 248.0,93.9 247.3,93.4 246.6,92.9 245.9,92.5 245.1,92.2 244.3,91.9 243.4,91.7 242.6,91.6 241.7,91.5 240.9,91.5 240.0,91.6 239.2,91.8 238.3,92.0 237.5,92.3 236.8,92.7 236.0,93.1 235.3,93.6 234.7,94.2 234.1,94.8 233.5,95.5 233.0,96.2 232.6,96.9 232.2,97.7 232.0,98.5 231.7,99.4 231.6,100.2 231.5,101.1 231.5,101.9 231.6,102.8 231.7,103.6 232.0,104.5 232.2,105.3 232.6,106.1 233.0,106.8 233.5,107.5 234.1,108.2 234.7,108.8 235.3,109.4 236.0,109.9 236.8,110.3 237.5,110.7 238.3,111.0 239.2,111.2 240.0,111.4 240.9,111.5 241.7,111.5 242.6,111.4 243.4,111.3 244.3,111.1 245.1,110.8 245.9,110.5 246.6,110.1 247.3,109.6 248.0,109.1 248.6,108.5 249.2,107.9 249.7,107.2 250.2,106.4 250.6,105.7 250.9,104.9 251.2,104.1 251.4,103.2 251.5,102.4" fill="#FFFFFF" stroke="#000000" stroke-width="1.0" stroke-linecap="butt" stroke-linejoin="round" />
		</g>
		<g id="support" class="port">
			<polygon points="151.5,201.5 151.5,200.6 151.4,199.8 151.2,198.9 150.9,198.1 150.6,197.3 150.2,196.6 149.7,195.8 149.2,195.1 148.6,194.5 148.0,193.9 147.3,193.4 146.6,192.9 145.9,192.5 145.1,192.2 144.3,191.9 143.4,191.7 142.6,191.6 141.7,191.5 140.9,191.5 140.0,191.6 139.2,191.8 138.3,192.0 137.5,192.3 136.8,192.7 136.0,193.1 135.3,193.6 134.7,194.2 134.1,194.8 133.5,195.5 133.0,196.2 132.6,196.9 132.2,197.7 132.0,198.5 131.7,199.4 131.6,200.2 131.5,201.1 131.5,201.9 131.6,202.8 131.7,203.6 132.0,204.5 132.2,205.3 132.6,206.1 133.0,206.8 133.5,207.5 134.1,208.2 134.7,208.8 135.3,209.4 136.0,209.9 136.8,210.3 137.5,210.7 138.3,211.0 139.2,211.2 140.0,211.4 140.9,211.5 141.7,211.5 142.6,211.4 143.4,211.3 144.3,211.1 145.1,210.8 145.9,210.5 146.6,210.1 147.3,209.6 148.0,209.1 148.6,208.5 149.2,207.9 149.7,207.2 150.2,206.4 150.6,205.7 150.9,204.9 151.2,204.1 151.4,203.2 151.5,202.4" fill="#5F5F5F" stroke="#000000" stroke-width="1.0" stroke-linecap="butt" stroke-linejoin="round" />
			<polygon points="126.5,216.5 156.5,216.5 156.5,186.5 126.5,186.5" fill="#C0C0C0" stroke="#C0C0C0" stroke-width="1.0" stroke-linecap="butt" stroke-linejoin="round" />
			<polygon points="151.5,201.5 151.5,200.6 151.4,199.8 151.2,198.9 150.9,198.1 150.6,197.3 150.2,196.6 149.7,195.8 149.2,195.1 148.6,194.5 148.0,193.9 147.3,193.4 146.6,192.9 145.9,192.5 145.1,192.2 144.3,191.9 143.4,191.7 142.6,191.6 141.7,191.5 140.9,191.5 140.0,191.6 139.2,191.8 138.3,192.0 137.5,192.3 136.8,192.7 136.0,193.1 135.3,193.6 134.7,194.2 134.1,194.8 133.5,195.5 133.0,196.2 132.6,196.9 132.2,197.7 132.0,198.5 131.7,199.4 131.6,200.2 131.5,201.1 131.5,201.9 131.6,202.8 131.7,203.6 132.0,204.5 132.2,205.3 132.6,206.1 133.0,206.8 133.5,207.5 134.1,208.2 134.7,208.8 135.3,209.4 136.0,209.9 136.8,210.3 137.5,210.7 138.3,211.0 139.2,211.2 140.0,211.4 140.9,211.5 141.7,211.5 142.6,211.4 143.4,211.3 144.3,211.1 145.1,210.8 145.9,210.5 146.6,210.1 147.3,209.6 148.0,209.1 148.6,208.5 149.2,207.9 149.7,207.2 150.2,206.4 150.6,205.7 150.9,204.9 151.2,204.1 151.4,203.2 151.5,202.4" fill="#5F5F5F" stroke="#000000" stroke-width="1.0" stroke-linecap="butt" stroke-linejoin="round" />
		</g>
		<g id="phi_ref" class="port">
			<polygon points="1.5,81.5 41.5,101.5 1.5,121.5" fill="#00007F" stroke="#00007F" stroke-width="1.0" stroke-linecap="butt" stroke-linejoin="round" />
		</g>
	</g>
</svg>
