<svg width="204" height="203" xmlns="http://www.w3.org/2000/svg" xmlns:xlink="http://www.w3.org/1999/xlink">
	<g id="Modelica.Mechanics.MultiBody.Visualizers.Advanced.Surface" class="component">
		<polygon points="24.6,146.5 19.9,130.1 15.7,114.9 12.1,100.8 9.0,87.9 6.4,76.2 4.4,65.7 2.9,56.4 1.9,48.3 1.5,41.3 1.6,35.5 1.6,35.5 1.9,33.4 2.4,31.6 3.2,30.0 4.2,28.8 5.4,27.8 6.8,27.1 8.5,26.7 10.4,26.6 12.5,26.8 14.9,27.3 17.5,28.0 20.3,29.1 23.4,30.4 26.7,32.0 30.2,33.9 33.9,36.1 37.9,38.6 42.1,41.4 46.6,44.4 51.2,47.7 56.1,51.4 61.3,55.3 66.6,59.5 66.6,59.5 70.5,62.5 74.4,65.3 78.2,67.8 81.9,70.0 85.6,72.0 89.2,73.8 92.8,75.3 96.3,76.6 99.8,77.6 103.2,78.3 106.5,78.9 109.8,79.1 113.0,79.2 116.2,78.9 119.3,78.5 122.4,77.8 125.4,76.8 128.3,75.6 131.2,74.1 134.1,72.4 136.8,70.4 139.5,68.2 142.2,65.8 144.8,63.1 147.4,60.1 149.9,56.9 152.3,53.5 154.7,49.8 157.0,45.8 159.3,41.6 161.5,37.2 163.6,32.5 163.6,32.5 166.4,26.4 169.1,21.1 171.7,16.5 174.1,12.6 176.5,9.5 178.8,7.1 180.9,5.4 183.0,4.4 184.9,4.1 186.8,4.6 188.5,5.8 190.1,7.8 191.7,10.4 193.1,13.8 194.4,17.9 195.6,22.7 196.7,28.3 197.8,34.6 198.7,41.6 199.5,49.3 200.2,57.8 200.8,67.0 201.2,76.9 201.6,87.5 201.6,87.5 201.8,94.3 201.9,100.9 201.9,107.3 201.8,113.4 201.6,119.2 201.3,124.8 200.9,130.2 200.4,135.4 199.9,140.3 199.2,144.9 198.5,149.3 197.7,153.5 196.8,157.5 195.8,161.1 194.7,164.6 193.5,167.8 192.2,170.8 190.8,173.5 189.4,176.0 187.8,178.2 186.2,180.3 184.5,182.0 182.7,183.5 180.8,184.8 178.8,185.9 176.7,186.7 174.5,187.2 172.2,187.6 169.9,187.6 167.4,187.5 164.9,187.1 162.3,186.4 159.6,185.5 156.8,184.4 153.9,183.0 150.9,181.4 147.8,179.6 144.6,177.5 144.6,177.5 139.2,173.9 133.9,170.6 128.8,167.7 123.9,165.2 119.2,163.1 114.6,161.3 110.3,159.9 106.1,158.9 102.1,158.2 98.3,157.9 94.6,158.0 91.2,158.5 87.9,159.3 84.8,160.5 81.9,162.1 79.2,164.0 76.6,166.3 74.3,169.0 72.1,172.1 70.1,175.5 68.3,179.3 66.6,183.5 66.6,183.5 65.0,187.8 63.3,191.4 61.6,194.5 59.9,197.0 58.1,198.8 56.3,200.1 54.4,200.7 52.5,200.8 50.6,200.2 48.6,199.1 46.6,197.3 44.6,194.9 42.5,192.0 40.4,188.4 38.3,184.2 36.1,179.4 33.9,174.1 31.6,168.1 29.3,161.5 27.0,154.3" fill="#FFFFFF" stroke="#0000FF" stroke-width="1.0" stroke-linecap="round" stroke-linejoin="round" />
	</g>
</svg>
