<svg width="223" height="253" xmlns="http://www.w3.org/2000/svg" xmlns:xlink="http://www.w3.org/1999/xlink">
	<g id="Modelica.Mechanics.Rotational.Components.Brake" class="component">
		<polyline points="61.5,251.5 81.5,231.5" fill-opacity="0" stroke="#000000" stroke-width="1.0" stroke-linecap="butt" stroke-linejoin="round" />
		<polyline points="81.5,251.5 101.5,231.5" fill-opacity="0" stroke="#000000" stroke-width="1.0" stroke-linecap="butt" stroke-linejoin="round" />
		<polyline points="101.5,251.5 121.5,231.5" fill-opacity="0" stroke="#000000" stroke-width="1.0" stroke-linecap="butt" stroke-linejoin="round" />
		<polyline points="121.5,251.5 141.5,231.5" fill-opacity="0" stroke="#000000" stroke-width="1.0" stroke-linecap="butt" stroke-linejoin="round" />
		<polyline points="81.5,231.5 141.5,231.5" fill-opacity="0" stroke="#000000" stroke-width="1.0" stroke-linecap="butt" stroke-linejoin="round" />
		<polygon points="74.5,186.5 74.5,221.5 148.5,221.5 148.5,186.5 144.5,186.5 144.5,217.5 78.5,217.5 78.5,186.5" fill="#C0C0C0" stroke="#C0C0C0" stroke-width="1.0" stroke-linecap="butt" stroke-linejoin="round" />
		<defs>
			<linearGradient id="cyl8" x1="0" y1="0" x2="0" y2="1">
				<stop offset="0%" stop-color="#404040" />
				<stop offset="5%" stop-color="#585858" />
				<stop offset="10%" stop-color="#6E6E6E" />
				<stop offset="15%" stop-color="#818181" />
				<stop offset="20%" stop-color="#929292" />
				<stop offset="25%" stop-color="#A0A0A0" />
				<stop offset="30%" stop-color="#ACACAC" />
				<stop offset="35%" stop-color="#B4B4B4" />
				<stop offset="40%" stop-color="#BBBBBB" />
				<stop offset="45%" stop-color="#BFBFBF" />
				<stop offset="50%" stop-color="#C0C0C0" />
				<stop offset="55%" stop-color="#BFBFBF" />
				<stop offset="60%" stop-color="#BBBBBB" />
				<stop offset="65%" stop-color="#B4B4B4" />
				<stop offset="70%" stop-color="#ACACAC" />
				<stop offset="75%" stop-color="#A0A0A0" />
				<stop offset="80%" stop-color="#929292" />
				<stop offset="85%" stop-color="#818181" />
				<stop offset="90%" stop-color="#6E6E6E" />
				<stop offset="95%" stop-color="#585858" />
				<stop offset="100%" stop-color="#404040" />
			</linearGradient>
		</defs>
		<polygon points="11.5,141.5 91.5,141.5 91.5,121.5 11.5,121.5" fill="url(#cyl8)" stroke="#404040" stroke-width="1.0" stroke-linecap="butt" stroke-linejoin="round" />
		<defs>
			<linearGradient id="cyl9" x1="0" y1="0" x2="0" y2="1">
				<stop offset="0%" stop-color="#404040" />
				<stop offset="5%" stop-color="#646464" />
				<stop offset="10%" stop-color="#858585" />
				<stop offset="15%" stop-color="#A1A1A1" />
				<stop offset="20%" stop-color="#BABABA" />
				<stop offset="25%" stop-color="#CFCFCF" />
				<stop offset="30%" stop-color="#E0E0E0" />
				<stop offset="35%" stop-color="#EEEEEE" />
				<stop offset="40%" stop-color="#F7F7F7" />
				<stop offset="45%" stop-color="#FDFDFD" />
				<stop offset="50%" stop-color="#FFFFFF" />
				<stop offset="55%" stop-color="#FDFDFD" />
				<stop offset="60%" stop-color="#F7F7F7" />
				<stop offset="65%" stop-color="#EEEEEE" />
				<stop offset="70%" stop-color="#E0E0E0" />
				<stop offset="75%" stop-color="#CFCFCF" />
				<stop offset="80%" stop-color="#BABABA" />
				<stop offset="85%" stop-color="#A1A1A1" />
				<stop offset="90%" stop-color="#858585" />
				<stop offset="95%" stop-color="#646464" />
				<stop offset="100%" stop-color="#404040" />
			</linearGradient>
		</defs>
		<polygon points="94.4,188.6 96.0,189.9 97.7,190.8 99.5,191.3 101.5,191.5 101.5,191.5 106.1,191.5 111.5,191.5 111.5,191.5 116.9,191.5 121.5,191.5 121.5,191.5 123.5,191.3 125.3,190.8 127.0,189.9 128.6,188.6 128.6,188.6 130.2,186.5 131.2,184.1 131.5,181.5 131.5,181.5 131.5,166.9 131.5,131.5 131.5,131.5 131.5,96.1 131.5,81.5 131.5,81.5 131.2,78.9 130.2,76.5 128.6,74.4 128.6,74.4 127.0,73.1 125.3,72.2 123.5,71.7 121.5,71.5 121.5,71.5 116.9,71.5 111.5,71.5 111.5,71.5 106.1,71.5 101.5,71.5 101.5,71.5 99.5,71.7 97.7,72.2 96.0,73.1 94.4,74.4 94.4,74.4 92.8,76.5 91.8,78.9 91.5,81.5 91.5,81.5 91.5,96.1 91.5,131.5 91.5,131.5 91.5,166.9 91.5,181.5 91.5,181.5 91.8,184.1 92.8,186.5" fill="url(#cyl9)" stroke="#404040" stroke-width="1.0" stroke-linecap="butt" stroke-linejoin="round" />
		<polygon points="94.4,188.6 96.0,189.9 97.7,190.8 99.5,191.3 101.5,191.5 101.5,191.5 106.1,191.5 111.5,191.5 111.5,191.5 116.9,191.5 121.5,191.5 121.5,191.5 123.5,191.3 125.3,190.8 127.0,189.9 128.6,188.6 128.6,188.6 130.2,186.5 131.2,184.1 131.5,181.5 131.5,181.5 131.5,166.9 131.5,131.5 131.5,131.5 131.5,96.1 131.5,81.5 131.5,81.5 131.2,78.9 130.2,76.5 128.6,74.4 128.6,74.4 127.0,73.1 125.3,72.2 123.5,71.7 121.5,71.5 121.5,71.5 116.9,71.5 111.5,71.5 111.5,71.5 106.1,71.5 101.5,71.5 101.5,71.5 99.5,71.7 97.7,72.2 96.0,73.1 94.4,74.4 94.4,74.4 92.8,76.5 91.8,78.9 91.5,81.5 91.5,81.5 91.5,96.1 91.5,131.5 91.5,131.5 91.5,166.9 91.5,181.5 91.5,181.5 91.8,184.1 92.8,186.5" fill-opacity="0" stroke="#404040" stroke-width="1.0" stroke-linecap="butt" stroke-linejoin="round" />
		<defs>
			<linearGradient id="cyl11" x1="0" y1="0" x2="0" y2="1">
				<stop offset="0%" stop-color="#404040" />
				<stop offset="5%" stop-color="#585858" />
				<stop offset="10%" stop-color="#6E6E6E" />
				<stop offset="15%" stop-color="#818181" />
				<stop offset="20%" stop-color="#929292" />
				<stop offset="25%" stop-color="#A0A0A0" />
				<stop offset="30%" stop-color="#ACACAC" />
				<stop offset="35%" stop-color="#B4B4B4" />
				<stop offset="40%" stop-color="#BBBBBB" />
				<stop offset="45%" stop-color="#BFBFBF" />
				<stop offset="50%" stop-color="#C0C0C0" />
				<stop offset="55%" stop-color="#BFBFBF" />
				<stop offset="60%" stop-color="#BBBBBB" />
				<stop offset="65%" stop-color="#B4B4B4" />
				<stop offset="70%" stop-color="#ACACAC" />
				<stop offset="75%" stop-color="#A0A0A0" />
				<stop offset="80%" stop-color="#929292" />
				<stop offset="85%" stop-color="#818181" />
				<stop offset="90%" stop-color="#6E6E6E" />
				<stop offset="95%" stop-color="#585858" />
				<stop offset="100%" stop-color="#404040" />
			</linearGradient>
		</defs>
		<polygon points="131.5,141.5 211.5,141.5 211.5,121.5 131.5,121.5" fill="url(#cyl11)" stroke="#404040" stroke-width="1.0" stroke-linecap="butt" stroke-linejoin="round" />
		<polygon points="151.5,171.5 181.5,161.5 181.5,181.5" fill="#00007F" stroke="#00007F" stroke-width="1.0" stroke-linecap="butt" stroke-linejoin="round" />
		<polygon points="141.5,186.5 151.5,186.5 151.5,156.5 141.5,156.5" fill="#000000" stroke="#000000" stroke-width="1.0" stroke-linecap="butt" stroke-linejoin="round" />
		<polygon points="71.5,171.5 41.5,161.5 41.5,181.5" fill="#00007F" stroke="#00007F" stroke-width="1.0" stroke-linecap="butt" stroke-linejoin="round" />
		<polygon points="71.5,186.5 81.5,186.5 81.5,156.5 71.5,156.5" fill="#000000" stroke="#000000" stroke-width="1.0" stroke-linecap="butt" stroke-linejoin="round" />
		<polyline points="111.5,41.5 191.5,61.5 191.5,171.5 181.5,171.5" fill-opacity="0" stroke="#00007F" stroke-width="1.0" stroke-linecap="butt" stroke-linejoin="round" />
		<polyline points="111.5,41.5 31.5,61.5 31.5,171.5 41.5,171.5" fill-opacity="0" stroke="#00007F" stroke-width="1.0" stroke-linecap="butt" stroke-linejoin="round" />
		<g id="flange_a" class="port">
			<polygon points="21.5,131.5 21.5,130.6 21.4,129.8 21.2,128.9 20.9,128.1 20.6,127.3 20.2,126.6 19.7,125.8 19.2,125.1 18.6,124.5 18.0,123.9 17.3,123.4 16.6,122.9 15.9,122.5 15.1,122.2 14.3,121.9 13.4,121.7 12.6,121.6 11.7,121.5 10.9,121.5 10.0,121.6 9.2,121.8 8.3,122.0 7.5,122.3 6.8,122.7 6.0,123.1 5.3,123.6 4.7,124.2 4.1,124.8 3.5,125.5 3.0,126.2 2.6,126.9 2.2,127.7 2.0,128.5 1.7,129.4 1.6,130.2 1.5,131.1 1.5,131.9 1.6,132.8 1.7,133.6 2.0,134.5 2.2,135.3 2.6,136.1 3.0,136.8 3.5,137.5 4.1,138.2 4.7,138.8 5.3,139.4 6.0,139.9 6.8,140.3 7.5,140.7 8.3,141.0 9.2,141.2 10.0,141.4 10.9,141.5 11.7,141.5 12.6,141.4 13.4,141.3 14.3,141.1 15.1,140.8 15.9,140.5 16.6,140.1 17.3,139.6 18.0,139.1 18.6,138.5 19.2,137.9 19.7,137.2 20.2,136.4 20.6,135.7 20.9,134.9 21.2,134.1 21.4,133.2 21.5,132.4" fill="#5F5F5F" stroke="#000000" stroke-width="1.0" stroke-linecap="butt" stroke-linejoin="round" />
		</g>
		<g id="flange_b" class="port">
			<polygon points="221.5,131.5 221.5,130.6 221.4,129.8 221.2,128.9 220.9,128.1 220.6,127.3 220.2,126.6 219.7,125.8 219.2,125.1 218.6,124.5 218.0,123.9 217.3,123.4 216.6,122.9 215.9,122.5 215.1,122.2 214.3,121.9 213.4,121.7 212.6,121.6 211.7,121.5 210.9,121.5 210.0,121.6 209.2,121.8 208.3,122.0 207.5,122.3 206.8,122.7 206.0,123.1 205.3,123.6 204.7,124.2 204.1,124.8 203.5,125.5 203.0,126.2 202.6,126.9 202.2,127.7 202.0,128.5 201.7,129.4 201.6,130.2 201.5,131.1 201.5,131.9 201.6,132.8 201.7,133.6 202.0,134.5 202.2,135.3 202.6,136.1 203.0,136.8 203.5,137.5 204.1,138.2 204.7,138.8 205.3,139.4 206.0,139.9 206.8,140.3 207.5,140.7 208.3,141.0 209.2,141.2 210.0,141.4 210.9,141.5 211.7,141.5 212.6,141.4 213.4,141.3 214.3,141.1 215.1,140.8 215.9,140.5 216.6,140.1 217.3,139.6 218.0,139.1 218.6,138.5 219.2,137.9 219.7,137.2 220.2,136.4 220.6,135.7 220.9,134.9 221.2,134.1 221.4,133.2 221.5,132.4" fill="#FFFFFF" stroke="#000000" stroke-width="1.0" stroke-linecap="butt" stroke-linejoin="round" />
		</g>
		<g id="support" class="port">
			<polygon points="121.5,231.5 121.5,230.6 121.4,229.8 121.2,228.9 120.9,228.1 120.6,227.3 120.2,226.6 119.7,225.8 119.2,225.1 118.6,224.5 118.0,223.9 117.3,223.4 116.6,222.9 115.9,222.5 115.1,222.2 114.3,221.9 113.4,221.7 112.6,221.6 111.7,221.5 110.9,221.5 110.0,221.6 109.2,221.8 108.3,222.0 107.5,222.3 106.8,222.7 106.0,223.1 105.3,223.6 104.7,224.2 104.1,224.8 103.5,225.5 103.0,226.2 102.6,226.9 102.2,227.7 102.0,228.5 101.7,229.4 101.6,230.2 101.5,231.1 101.5,231.9 101.6,232.8 101.7,233.6 102.0,234.5 102.2,235.3 102.6,236.1 103.0,236.8 103.5,237.5 104.1,238.2 104.7,238.8 105.3,239.4 106.0,239.9 106.8,240.3 107.5,240.7 108.3,241.0 109.2,241.2 110.0,241.4 110.9,241.5 111.7,241.5 112.6,241.4 113.4,241.3 114.3,241.1 115.1,240.8 115.9,240.5 116.6,240.1 117.3,239.6 118.0,239.1 118.6,238.5 119.2,237.9 119.7,237.2 120.2,236.4 120.6,235.7 120.9,234.9 121.2,234.1 121.4,233.2 121.5,232.4" fill="#5F5F5F" stroke="#000000" stroke-width="1.0" stroke-linecap="butt" stroke-linejoin="round" />
			<polygon points="96.5,246.5 126.5,246.5 126.5,216.5 96.5,216.5" fill="#C0C0C0" stroke="#C0C0C0" stroke-width="1.0" stroke-linecap="butt" stroke-linejoin="round" />
			<polygon points="121.5,231.5 121.5,230.6 121.4,229.8 121.2,228.9 120.9,228.1 120.6,227.3 120.2,226.6 119.7,225.8 119.2,225.1 118.6,224.5 118.0,223.9 117.3,223.4 116.6,222.9 115.9,222.5 115.1,222.2 114.3,221.9 113.4,221.7 112.6,221.6 111.7,221.5 110.9,221.5 110.0,221.6 109.2,221.8 108.3,222.0 107.5,222.3 106.8,222.7 106.0,223.1 105.3,223.6 104.7,224.2 104.1,224.8 103.5,225.5 103.0,226.2 102.6,226.9 102.2,227.7 102.0,228.5 101.7,229.4 101.6,230.2 101.5,231.1 101.5,231.9 101.6,232.8 101.7,233.6 102.0,234.5 102.2,235.3 102.6,236.1 103.0,236.8 103.5,237.5 104.1,238.2 104.7,238.8 105.3,239.4 106.0,239.9 106.8,240.3 107.5,240.7 108.3,241.0 109.2,241.2 110.0,241.4 110.9,241.5 111.7,241.5 112.6,241.4 113.4,241.3 114.3,241.1 115.1,240.8 115.9,240.5 116.6,240.1 117.3,239.6 118.0,239.1 118.6,238.5 119.2,237.9 119.7,237.2 120.2,236.4 120.6,235.7 120.9,234.9 121.2,234.1 121.4,233.2 121.5,232.4" fill="#5F5F5F" stroke="#000000" stroke-width="1.0" stroke-linecap="butt" stroke-linejoin="round" />
		</g>
		<g id="heatPort" class="port">
			<polygon points="1.5,241.5 21.5,241.5 21.5,221.5 1.5,221.5" fill="#BF0000" stroke="#BF0000" stroke-width="1.0" stroke-linecap="butt" stroke-linejoin="round" />
		</g>
		<g id="f_normalized" class="port">
			<polygon points="91.5,1.5 111.5,41.5 131.5,1.5" fill="#00007F" stroke="#00007F" stroke-width="1.0" stroke-linecap="butt" stroke-linejoin="round" />
		</g>
	</g>
</svg>
