<svg width="263" height="203" xmlns="http://www.w3.org/2000/svg" xmlns:xlink="http://www.w3.org/1999/xlink">
	<g id="Modelica.ComplexBlocks.ComplexMath.Division" class="component">
		<polygon points="41.5,201.5 241.5,201.5 241.5,1.5 41.5,1.5" fill="#FFFFFF" stroke="#00007F" stroke-width="1.0" stroke-linecap="round" stroke-linejoin="round" />
		<polyline points="191.5,101.5 241.5,101.5" fill-opacity="0" stroke="#00007F" stroke-width="1.0" stroke-linecap="round" stroke-linejoin="round" />
		<polyline points="111.5,101.5 171.5,101.5" fill-opacity="0" stroke="#000000" stroke-width="1.0" stroke-linecap="round" stroke-linejoin="round" />
		<polygon points="146.5,76.5 146.5,76.1 146.4,75.6 146.3,75.2 146.2,74.8 146.0,74.4 145.8,74.0 145.6,73.7 145.4,73.3 145.1,73.0 144.8,72.7 144.4,72.4 144.1,72.2 143.7,72.0 143.3,71.8 142.9,71.7 142.5,71.6 142.0,71.5 141.6,71.5 141.2,71.5 140.7,71.6 140.3,71.6 139.9,71.8 139.5,71.9 139.1,72.1 138.8,72.3 138.4,72.6 138.1,72.9 137.8,73.2 137.5,73.5 137.3,73.8 137.0,74.2 136.9,74.6 136.7,75.0 136.6,75.4 136.5,75.9 136.5,76.3 136.5,76.7 136.5,77.1 136.6,77.6 136.7,78.0 136.9,78.4 137.0,78.8 137.3,79.2 137.5,79.5 137.8,79.8 138.1,80.1 138.4,80.4 138.8,80.7 139.1,80.9 139.5,81.1 139.9,81.2 140.3,81.4 140.7,81.4 141.2,81.5 141.6,81.5 142.0,81.5 142.5,81.4 142.9,81.3 143.3,81.2 143.7,81.0 144.1,80.8 144.4,80.6 144.8,80.3 145.1,80.0 145.4,79.7 145.6,79.3 145.8,79.0 146.0,78.6 146.2,78.2 146.3,77.8 146.4,77.4 146.5,76.9" fill="#000000" stroke="#000000" stroke-width="1.0" stroke-linecap="round" stroke-linejoin="round" />
		<polygon points="146.5,126.5 146.5,126.1 146.4,125.6 146.3,125.2 146.2,124.8 146.0,124.4 145.8,124.0 145.6,123.7 145.4,123.3 145.1,123.0 144.8,122.7 144.4,122.4 144.1,122.2 143.7,122.0 143.3,121.8 142.9,121.7 142.5,121.6 142.0,121.5 141.6,121.5 141.2,121.5 140.7,121.6 140.3,121.6 139.9,121.8 139.5,121.9 139.1,122.1 138.8,122.3 138.4,122.6 138.1,122.9 137.8,123.2 137.5,123.5 137.3,123.8 137.0,124.2 136.9,124.6 136.7,125.0 136.6,125.4 136.5,125.9 136.5,126.3 136.5,126.7 136.5,127.1 136.6,127.6 136.7,128.0 136.9,128.4 137.0,128.8 137.3,129.2 137.5,129.5 137.8,129.8 138.1,130.1 138.4,130.4 138.8,130.7 139.1,130.9 139.5,131.1 139.9,131.2 140.3,131.4 140.7,131.4 141.2,131.5 141.6,131.5 142.0,131.5 142.5,131.4 142.9,131.3 143.3,131.2 143.7,131.0 144.1,130.8 144.4,130.6 144.8,130.3 145.1,130.0 145.4,129.7 145.6,129.3 145.8,129.0 146.0,128.6 146.2,128.2 146.3,127.8 146.4,127.4 146.5,126.9" fill="#000000" stroke="#000000" stroke-width="1.0" stroke-linecap="round" stroke-linejoin="round" />
		<polygon points="191.5,101.5 191.3,97.2 190.8,92.9 189.8,88.7 188.6,84.6 186.9,80.6 185.0,76.8 182.7,73.2 180.1,69.7 177.2,66.5 174.1,63.6 170.7,60.9 167.1,58.6 163.3,56.5 159.4,54.8 155.3,53.4 151.1,52.4 146.9,51.8 142.6,51.5 138.3,51.6 134.0,52.1 129.8,52.9 125.6,54.1 121.6,55.6 117.8,57.5 114.1,59.7 110.6,62.2 107.3,65.0 104.3,68.1 101.6,71.4 99.1,75.0 97.0,78.7 95.2,82.6 93.8,86.7 92.7,90.8 91.9,95.1 91.5,99.3 91.5,103.7 91.9,107.9 92.7,112.2 93.8,116.3 95.2,120.4 97.0,124.3 99.1,128.0 101.6,131.6 104.3,134.9 107.3,138.0 110.6,140.8 114.1,143.3 117.8,145.5 121.6,147.4 125.6,148.9 129.8,150.1 134.0,150.9 138.3,151.4 142.6,151.5 146.9,151.2 151.1,150.6 155.3,149.6 159.4,148.2 163.3,146.5 167.1,144.4 170.7,142.1 174.1,139.4 177.2,136.5 180.1,133.3 182.7,129.8 185.0,126.2 186.9,122.4 188.6,118.4 189.8,114.3 190.8,110.1 191.3,105.8" fill-opacity="0" stroke="#00007F" stroke-width="1.0" stroke-linecap="round" stroke-linejoin="round" />
		<polyline points="41.5,41.5 75.5,41.5 101.5,71.5" fill-opacity="0" stroke="#00007F" stroke-width="1.0" stroke-linecap="round" stroke-linejoin="round" />
		<polyline points="41.5,161.5 141.5,161.5 141.5,151.5" fill-opacity="0" stroke="#00007F" stroke-width="1.0" stroke-linecap="round" stroke-linejoin="round" />
		<text x="156.5" y="43.2" text-anchor="middle" fill="#808080" font-size="43.0px" font-family="sans-serif">u1 / u2</text>
		<g id="u1" class="port">
			<polygon points="3.0,60.0 4.6,61.1 6.5,61.5 6.5,61.5 11.3,61.5 21.5,61.5 21.5,61.5 31.7,61.5 36.5,61.5 36.5,61.5 38.4,61.1 40.0,60.0 40.0,60.0 41.1,58.4 41.5,56.5 41.5,56.5 41.5,51.7 41.5,41.5 41.5,41.5 41.5,31.3 41.5,26.5 41.5,26.5 41.1,24.6 40.0,23.0 40.0,23.0 38.4,21.9 36.5,21.5 36.5,21.5 31.7,21.5 21.5,21.5 21.5,21.5 11.3,21.5 6.5,21.5 6.5,21.5 4.6,21.9 3.0,23.0 3.0,23.0 1.9,24.6 1.5,26.5 1.5,26.5 1.5,31.3 1.5,41.5 1.5,41.5 1.5,51.7 1.5,56.5 1.5,56.5 1.9,58.4" fill="#A0A0A4" stroke="#A0A0A4" stroke-width="1.0" stroke-linecap="round" stroke-linejoin="round" />
			<text x="21.5" y="51.4" text-anchor="middle" fill="#FFFFFF" font-size="26.6px" font-family="sans-serif">C</text>
			<polygon points="1.5,21.5 41.5,41.5 1.5,61.5" fill="#55AAFF" stroke="#55AAFF" stroke-width="1.0" stroke-linecap="round" stroke-linejoin="round" />
		</g>
		<g id="u2" class="port">
			<polygon points="3.0,180.0 4.6,181.1 6.5,181.5 6.5,181.5 11.3,181.5 21.5,181.5 21.5,181.5 31.7,181.5 36.5,181.5 36.5,181.5 38.4,181.1 40.0,180.0 40.0,180.0 41.1,178.4 41.5,176.5 41.5,176.5 41.5,171.7 41.5,161.5 41.5,161.5 41.5,151.3 41.5,146.5 41.5,146.5 41.1,144.6 40.0,143.0 40.0,143.0 38.4,141.9 36.5,141.5 36.5,141.5 31.7,141.5 21.5,141.5 21.5,141.5 11.3,141.5 6.5,141.5 6.5,141.5 4.6,141.9 3.0,143.0 3.0,143.0 1.9,144.6 1.5,146.5 1.5,146.5 1.5,151.3 1.5,161.5 1.5,161.5 1.5,171.7 1.5,176.5 1.5,176.5 1.9,178.4" fill="#A0A0A4" stroke="#A0A0A4" stroke-width="1.0" stroke-linecap="round" stroke-linejoin="round" />
			<text x="21.5" y="171.4" text-anchor="middle" fill="#FFFFFF" font-size="26.6px" font-family="sans-serif">C</text>
			<polygon points="1.5,141.5 41.5,161.5 1.5,181.5" fill="#55AAFF" stroke="#55AAFF" stroke-width="1.0" stroke-linecap="round" stroke-linejoin="round" />
		</g>
		<g id="y" class="port">
			<polygon points="242.2,110.8 243.0,111.3 244.0,111.5 244.0,111.5 246.4,111.5 251.5,111.5 251.5,111.5 256.6,111.5 259.0,111.5 259.0,111.5 260.0,111.3 260.8,110.8 260.8,110.8 261.3,110.0 261.5,109.0 261.5,109.0 261.5,106.6 261.5,101.5 261.5,101.5 261.5,96.4 261.5,94.0 261.5,94.0 261.3,93.0 260.8,92.2 260.8,92.2 260.0,91.7 259.0,91.5 259.0,91.5 256.6,91.5 251.5,91.5 251.5,91.5 246.4,91.5 244.0,91.5 244.0,91.5 243.0,91.7 242.2,92.2 242.2,92.2 241.7,93.0 241.5,94.0 241.5,94.0 241.5,96.4 241.5,101.5 241.5,101.5 241.5,106.6 241.5,109.0 241.5,109.0 241.7,110.0" fill="#A0A0A4" stroke="#A0A0A4" stroke-width="1.0" stroke-linecap="round" stroke-linejoin="round" />
			<text x="251.5" y="106.7" text-anchor="middle" fill="#FFFFFF" font-size="13.3px" font-family="sans-serif">C</text>
			<polygon points="241.5,91.5 261.5,101.5 241.5,111.5" fill="#FFFFFF" stroke="#55AAFF" stroke-width="1.0" stroke-linecap="round" stroke-linejoin="round" />
		</g>
	</g>
</svg>
