<svg width="213" height="223" xmlns="http://www.w3.org/2000/svg" xmlns:xlink="http://www.w3.org/1999/xlink">
	<g id="Modelica.Fluid.Machines.SweptVolume" class="component">
		<polygon points="61.5,201.5 161.5,201.5 161.5,75.5 61.5,75.5" fill="#AAD5FF" stroke-opacity="0" stroke-width="1.0" stroke-linecap="butt" stroke-linejoin="round" />
		<defs>
			<pattern id="pat3" patternUnits="userSpaceOnUse" width="14" height="14">
				<rect width="14" height="14" fill="#878787" />
				<path d="M-1,13 l2,2 M0,0 l14,14 M13,-1 l2,2" stroke="#5F5F5F" stroke-width="1" />
			</pattern>
		</defs>
		<polygon points="59.5,49.5 63.5,49.5 63.5,141.5 59.5,141.5" fill="url(#pat3)" stroke="#5F5F5F" stroke-width="1.0" stroke-linecap="butt" stroke-linejoin="round" />
		<defs>
			<pattern id="pat4" patternUnits="userSpaceOnUse" width="14" height="14">
				<rect width="14" height="14" fill="#878787" />
				<path d="M-1,13 l2,2 M0,0 l14,14 M13,-1 l2,2" stroke="#5F5F5F" stroke-width="1" />
			</pattern>
		</defs>
		<polygon points="159.5,51.5 163.5,51.5 163.5,145.5 159.5,145.5" fill="url(#pat4)" stroke="#5F5F5F" stroke-width="1.0" stroke-linecap="butt" stroke-linejoin="round" />
		<defs>
			<pattern id="pat5" patternUnits="userSpaceOnUse" width="14" height="14">
				<rect width="14" height="14" fill="#878787" />
				<path d="M-1,1 l2,-2 M0,14 l14,-14 M13,15 l2,-2" stroke="#5F5F5F" stroke-width="1" />
			</pattern>
		</defs>
		<polygon points="63.5,81.5 159.5,81.5 159.5,71.5 63.5,71.5" fill="url(#pat5)" stroke="#5F5F5F" stroke-width="1.0" stroke-linecap="butt" stroke-linejoin="round" />
		<defs>
			<pattern id="pat6" patternUnits="userSpaceOnUse" width="14" height="14">
				<rect width="14" height="14" fill="#878787" />
				<path d="M-1,1 l2,-2 M0,14 l14,-14 M13,15 l2,-2" stroke="#5F5F5F" stroke-width="1" />
			</pattern>
		</defs>
		<polygon points="105.5,71.5 117.5,71.5 117.5,19.5 105.5,19.5" fill="url(#pat6)" stroke="#5F5F5F" stroke-width="1.0" stroke-linecap="butt" stroke-linejoin="round" />
		<defs>
			<pattern id="pat7" patternUnits="userSpaceOnUse" width="14" height="14">
				<rect width="14" height="14" fill="#878787" />
				<path d="M-1,13 l2,2 M0,0 l14,14 M13,-1 l2,2" stroke="#5F5F5F" stroke-width="1" />
			</pattern>
		</defs>
		<polygon points="63.5,201.5 159.5,201.5 159.5,41.5 163.5,41.5 163.5,205.5 59.5,205.5 59.5,41.5 63.5,41.5" fill="url(#pat7)" stroke="#5F5F5F" stroke-width="1.0" stroke-linecap="butt" stroke-linejoin="round" />
		<g id="ports" class="port">
			<polygon points="71.5,221.5 151.5,221.5 151.5,201.5 71.5,201.5" fill="#FFFFFF" stroke="#007FFF" stroke-width="1.0" stroke-linecap="butt" stroke-linejoin="round" />
			<polygon points="95.5,211.5 95.5,210.6 95.4,209.8 95.2,208.9 94.9,208.1 94.6,207.3 94.2,206.6 93.8,205.8 93.3,205.1 92.8,204.5 92.2,203.9 91.5,203.4 90.8,202.9 90.1,202.5 89.3,202.2 88.6,201.9 87.7,201.7 86.9,201.6 86.1,201.5 85.3,201.5 84.5,201.6 83.6,201.8 82.9,202.0 82.1,202.3 81.3,202.7 80.6,203.1 80.0,203.6 79.3,204.2 78.8,204.8 78.2,205.5 77.8,206.2 77.4,206.9 77.0,207.7 76.7,208.5 76.5,209.4 76.4,210.2 76.3,211.1 76.3,211.9 76.4,212.8 76.5,213.6 76.7,214.5 77.0,215.3 77.4,216.1 77.8,216.8 78.2,217.5 78.8,218.2 79.3,218.8 80.0,219.4 80.6,219.9 81.3,220.3 82.1,220.7 82.9,221.0 83.6,221.2 84.5,221.4 85.3,221.5 86.1,221.5 86.9,221.4 87.7,221.3 88.6,221.1 89.3,220.8 90.1,220.5 90.8,220.1 91.5,219.6 92.2,219.1 92.8,218.5 93.3,217.9 93.8,217.2 94.2,216.4 94.6,215.7 94.9,214.9 95.2,214.1 95.4,213.2 95.5,212.4" fill="#007FFF" stroke="#000000" stroke-width="1.0" stroke-linecap="butt" stroke-linejoin="round" />
			<polygon points="121.1,211.5 121.1,210.6 121.0,209.8 120.8,208.9 120.5,208.1 120.2,207.3 119.8,206.6 119.4,205.8 118.9,205.1 118.4,204.5 117.8,203.9 117.1,203.4 116.4,202.9 115.7,202.5 114.9,202.2 114.2,201.9 113.3,201.7 112.5,201.6 111.7,201.5 110.9,201.5 110.1,201.6 109.2,201.8 108.5,202.0 107.7,202.3 106.9,202.7 106.2,203.1 105.6,203.6 104.9,204.2 104.4,204.8 103.8,205.5 103.4,206.2 103.0,206.9 102.6,207.7 102.3,208.5 102.1,209.4 102.0,210.2 101.9,211.1 101.9,211.9 102.0,212.8 102.1,213.6 102.3,214.5 102.6,215.3 103.0,216.1 103.4,216.8 103.8,217.5 104.4,218.2 104.9,218.8 105.6,219.4 106.2,219.9 106.9,220.3 107.7,220.7 108.5,221.0 109.2,221.2 110.1,221.4 110.9,221.5 111.7,221.5 112.5,221.4 113.3,221.3 114.2,221.1 114.9,220.8 115.7,220.5 116.4,220.1 117.1,219.6 117.8,219.1 118.4,218.5 118.9,217.9 119.4,217.2 119.8,216.4 120.2,215.7 120.5,214.9 120.8,214.1 121.0,213.2 121.1,212.4" fill="#007FFF" stroke="#000000" stroke-width="1.0" stroke-linecap="butt" stroke-linejoin="round" />
			<polygon points="146.7,211.5 146.7,210.6 146.6,209.8 146.4,208.9 146.1,208.1 145.8,207.3 145.4,206.6 145.0,205.8 144.5,205.1 144.0,204.5 143.4,203.9 142.7,203.4 142.0,202.9 141.3,202.5 140.5,202.2 139.8,201.9 138.9,201.7 138.1,201.6 137.3,201.5 136.5,201.5 135.7,201.6 134.8,201.8 134.1,202.0 133.3,202.3 132.5,202.7 131.8,203.1 131.2,203.6 130.5,204.2 130.0,204.8 129.4,205.5 129.0,206.2 128.6,206.9 128.2,207.7 127.9,208.5 127.7,209.4 127.6,210.2 127.5,211.1 127.5,211.9 127.6,212.8 127.7,213.6 127.9,214.5 128.2,215.3 128.6,216.1 129.0,216.8 129.4,217.5 130.0,218.2 130.5,218.8 131.2,219.4 131.8,219.9 132.5,220.3 133.3,220.7 134.1,221.0 134.8,221.2 135.7,221.4 136.5,221.5 137.3,221.5 138.1,221.4 138.9,221.3 139.8,221.1 140.5,220.8 141.3,220.5 142.0,220.1 142.7,219.6 143.4,219.1 144.0,218.5 144.5,217.9 145.0,217.2 145.4,216.4 145.8,215.7 146.1,214.9 146.4,214.1 146.6,213.2 146.7,212.4" fill="#007FFF" stroke="#000000" stroke-width="1.0" stroke-linecap="butt" stroke-linejoin="round" />
			<polygon points="91.5,211.6 91.5,211.1 91.4,210.6 91.3,210.2 91.2,209.7 91.0,209.2 90.8,208.8 90.5,208.4 90.2,208.0 89.9,207.6 89.6,207.2 89.2,206.9 88.8,206.7 88.3,206.4 87.9,206.2 87.4,206.1 87.0,206.0 86.5,205.9 86.0,205.9 85.5,205.9 85.1,205.9 84.6,206.0 84.1,206.1 83.7,206.3 83.2,206.5 82.8,206.8 82.4,207.1 82.1,207.4 81.7,207.8 81.4,208.2 81.2,208.6 80.9,209.0 80.7,209.5 80.6,209.9 80.4,210.4 80.3,210.9 80.3,211.4 80.3,211.9 80.3,212.4 80.4,212.9 80.6,213.4 80.7,213.8 80.9,214.3 81.2,214.7 81.4,215.1 81.7,215.5 82.1,215.9 82.4,216.2 82.8,216.5 83.2,216.7 83.7,216.9 84.1,217.1 84.6,217.3 85.1,217.4 85.5,217.4 86.0,217.4 86.5,217.4 87.0,217.3 87.4,217.2 87.9,217.0 88.3,216.8 88.8,216.6 89.2,216.3 89.6,216.0 89.9,215.7 90.2,215.3 90.5,214.9 90.8,214.5 91.0,214.1 91.2,213.6 91.3,213.1 91.4,212.6 91.5,212.1" fill="#FFFFFF" stroke="#007FFF" stroke-width="1.0" stroke-linecap="butt" stroke-linejoin="round" />
			<polygon points="117.1,211.6 117.1,211.1 117.0,210.6 116.9,210.2 116.8,209.7 116.6,209.2 116.4,208.8 116.1,208.4 115.8,208.0 115.5,207.6 115.2,207.2 114.8,206.9 114.4,206.7 113.9,206.4 113.5,206.2 113.0,206.1 112.6,206.0 112.1,205.9 111.6,205.9 111.1,205.9 110.7,205.9 110.2,206.0 109.7,206.1 109.3,206.3 108.8,206.5 108.4,206.8 108.0,207.1 107.7,207.4 107.3,207.8 107.0,208.2 106.8,208.6 106.5,209.0 106.3,209.5 106.2,209.9 106.0,210.4 105.9,210.9 105.9,211.4 105.9,211.9 105.9,212.4 106.0,212.9 106.2,213.4 106.3,213.8 106.5,214.3 106.8,214.7 107.0,215.1 107.3,215.5 107.7,215.9 108.0,216.2 108.4,216.5 108.8,216.7 109.3,216.9 109.7,217.1 110.2,217.3 110.7,217.4 111.1,217.4 111.6,217.4 112.1,217.4 112.6,217.3 113.0,217.2 113.5,217.0 113.9,216.8 114.4,216.6 114.8,216.3 115.2,216.0 115.5,215.7 115.8,215.3 116.1,214.9 116.4,214.5 116.6,214.1 116.8,213.6 116.9,213.1 117.0,212.6 117.1,212.1" fill="#FFFFFF" stroke="#007FFF" stroke-width="1.0" stroke-linecap="butt" stroke-linejoin="round" />
			<polygon points="142.7,211.6 142.7,211.1 142.6,210.6 142.5,210.1 142.4,209.6 142.2,209.2 142.0,208.7 141.7,208.3 141.4,207.9 141.1,207.5 140.8,207.2 140.4,206.9 140.0,206.6 139.5,206.4 139.1,206.2 138.6,206.0 138.2,205.9 137.7,205.8 137.2,205.8 136.7,205.8 136.3,205.9 135.8,206.0 135.3,206.1 134.9,206.3 134.4,206.5 134.0,206.7 133.6,207.0 133.3,207.4 132.9,207.7 132.6,208.1 132.4,208.5 132.1,208.9 131.9,209.4 131.8,209.9 131.6,210.4 131.5,210.8 131.5,211.3 131.5,211.8 131.5,212.3 131.6,212.8 131.8,213.3 131.9,213.8 132.1,214.2 132.4,214.7 132.6,215.1 132.9,215.5 133.3,215.8 133.6,216.1 134.0,216.4 134.4,216.7 134.9,216.9 135.3,217.1 135.8,217.2 136.3,217.3 136.7,217.4 137.2,217.4 137.7,217.3 138.2,217.3 138.6,217.2 139.1,217.0 139.5,216.8 140.0,216.6 140.4,216.3 140.8,216.0 141.1,215.6 141.4,215.3 141.7,214.9 142.0,214.4 142.2,214.0 142.4,213.5 142.5,213.1 142.6,212.6 142.7,212.1" fill="#FFFFFF" stroke="#007FFF" stroke-width="1.0" stroke-linecap="butt" stroke-linejoin="round" />
		</g>
		<g id="heatPort" class="port">
			<polygon points="1.5,121.5 21.5,121.5 21.5,101.5 1.5,101.5" fill="#BF0000" stroke="#BF0000" stroke-width="1.0" stroke-linecap="butt" stroke-linejoin="round" />
		</g>
		<g id="flange" class="port">
			<polygon points="101.5,21.5 121.5,21.5 121.5,1.5 101.5,1.5" fill="#FFFFFF" stroke="#007F00" stroke-width="1.0" stroke-linecap="butt" stroke-linejoin="round" />
		</g>
	</g>
</svg>
