<svg width="223" height="203" xmlns="http://www.w3.org/2000/svg" xmlns:xlink="http://www.w3.org/1999/xlink">
	<g id="Modelica.Electrical.MultiPhase.Sources.SineVoltage" class="component">
		<polyline points="21.5,101.5 61.5,101.5" fill-opacity="0" stroke="#0000FF" stroke-width="1.0" stroke-linecap="butt" stroke-linejoin="round" />
		<polyline points="161.5,101.5 201.5,101.5" fill-opacity="0" stroke="#0000FF" stroke-width="1.0" stroke-linecap="butt" stroke-linejoin="round" />
		<polygon points="161.5,101.5 161.3,97.2 160.8,92.9 159.8,88.7 158.6,84.6 156.9,80.6 155.0,76.8 152.7,73.2 150.1,69.7 147.2,66.5 144.1,63.6 140.7,60.9 137.1,58.6 133.3,56.5 129.4,54.8 125.3,53.4 121.1,52.4 116.9,51.8 112.6,51.5 108.3,51.6 104.0,52.1 99.8,52.9 95.6,54.1 91.6,55.6 87.7,57.5 84.0,59.7 80.6,62.2 77.3,65.0 74.3,68.1 71.6,71.4 69.1,75.0 67.0,78.7 65.2,82.6 63.7,86.7 62.6,90.8 61.9,95.1 61.5,99.3 61.5,103.7 61.9,107.9 62.6,112.2 63.7,116.3 65.2,120.4 67.0,124.3 69.1,128.0 71.6,131.6 74.3,134.9 77.3,138.0 80.6,140.8 84.0,143.3 87.7,145.5 91.6,147.4 95.6,148.9 99.8,150.1 104.0,150.9 108.3,151.4 112.6,151.5 116.9,151.2 121.1,150.6 125.3,149.6 129.4,148.2 133.3,146.5 137.1,144.4 140.7,142.1 144.1,139.4 147.2,136.5 150.1,133.3 152.7,129.8 155.0,126.2 156.9,122.4 158.6,118.4 159.8,114.3 160.8,110.1 161.3,105.8" fill="#FFFFFF" stroke="#0000FF" stroke-width="1.0" stroke-linecap="butt" stroke-linejoin="round" />
		<polyline points="61.5,101.5 161.5,101.5" fill-opacity="0" stroke="#0000FF" stroke-width="1.0" stroke-linecap="butt" stroke-linejoin="round" />
		<polyline points="41.5,101.5 46.4,86.6 49.5,77.3 52.2,69.6 54.5,63.3 54.5,63.3 56.1,59.3 57.6,55.6 59.1,52.3 60.5,49.2 60.5,49.2 61.6,47.0 62.7,44.9 63.7,43.0 64.7,41.4 65.7,39.8 65.7,39.8 67.0,38.2 68.2,36.7 69.4,35.4 70.7,34.3 70.7,34.3 72.4,33.2 74.0,32.4 75.6,32.0 75.6,32.0 77.3,32.0 78.9,32.4 80.5,33.1 80.5,33.1 82.2,34.2 83.8,35.7 85.4,37.5 85.4,37.5 86.7,39.1 87.9,40.9 89.1,42.8 90.4,45.0 90.4,45.0 91.4,46.9 92.4,49.0 93.5,51.2 94.6,53.6 95.7,56.2 95.7,56.2 97.6,61.0 99.7,66.6 102.0,72.9 102.0,72.9 104.8,81.0 108.4,91.9 112.9,105.6 112.9,105.6 117.3,119.2 120.9,129.7 123.4,137.0 123.4,137.0 125.0,141.1 126.5,144.9 128.0,148.4 129.4,151.6 129.4,151.6 130.6,154.0 131.7,156.1 132.7,158.1 133.7,160.0 134.7,161.6 134.7,161.6 136.0,163.4 137.2,165.1 138.4,166.6 139.6,167.8 139.6,167.8 141.3,169.2 142.9,170.2 144.5,170.8 144.5,170.8 147.0,171.1 149.5,170.4 149.5,170.4 151.2,169.6 152.8,168.3 154.4,166.7 154.4,166.7 155.7,165.3 156.9,163.6 158.1,161.8 159.3,159.8 159.3,159.8 160.3,158.0 161.4,156.1 162.4,154.0 163.5,151.7 164.6,149.2 164.6,149.2 166.5,144.6 168.7,139.2 170.9,133.0 170.9,133.0 173.3,126.4 175.7,119.5 178.0,112.4 181.5,101.5" fill-opacity="0" stroke="#C0C0C0" stroke-width="1.0" stroke-linecap="butt" stroke-linejoin="round" />
		<g id="plug_p" class="port">
			<polygon points="21.5,101.5 21.5,100.6 21.3,99.8 21.2,98.9 20.9,98.1 20.6,97.3 20.2,96.6 19.7,95.8 19.2,95.1 18.6,94.5 18.0,93.9 17.3,93.4 16.6,92.9 15.9,92.5 15.1,92.2 14.3,91.9 13.4,91.7 12.6,91.6 11.7,91.5 10.8,91.5 10.0,91.6 9.1,91.8 8.3,92.0 7.5,92.3 6.7,92.7 6.0,93.1 5.3,93.6 4.7,94.2 4.0,94.8 3.5,95.5 3.0,96.2 2.6,96.9 2.2,97.7 1.9,98.5 1.7,99.4 1.6,100.2 1.5,101.1 1.5,101.9 1.6,102.8 1.7,103.6 1.9,104.5 2.2,105.3 2.6,106.1 3.0,106.8 3.5,107.5 4.0,108.2 4.7,108.8 5.3,109.4 6.0,109.9 6.7,110.3 7.5,110.7 8.3,111.0 9.1,111.2 10.0,111.4 10.8,111.5 11.7,111.5 12.6,111.4 13.4,111.3 14.3,111.1 15.1,110.8 15.9,110.5 16.6,110.1 17.3,109.6 18.0,109.1 18.6,108.5 19.2,107.9 19.7,107.2 20.2,106.4 20.6,105.7 20.9,104.9 21.2,104.1 21.3,103.2 21.5,102.4" fill="#0000FF" stroke="#0000FF" stroke-width="1.0" stroke-linecap="butt" stroke-linejoin="round" />
		</g>
		<g id="plug_n" class="port">
			<polygon points="221.5,101.5 221.5,100.6 221.3,99.8 221.2,98.9 220.9,98.1 220.6,97.3 220.2,96.6 219.7,95.8 219.2,95.1 218.6,94.5 218.0,93.9 217.3,93.4 216.6,92.9 215.9,92.5 215.1,92.2 214.3,91.9 213.4,91.7 212.6,91.6 211.7,91.5 210.8,91.5 210.0,91.6 209.1,91.8 208.3,92.0 207.5,92.3 206.7,92.7 206.0,93.1 205.3,93.6 204.7,94.2 204.0,94.8 203.5,95.5 203.0,96.2 202.6,96.9 202.2,97.7 201.9,98.5 201.7,99.4 201.6,100.2 201.5,101.1 201.5,101.9 201.6,102.8 201.7,103.6 201.9,104.5 202.2,105.3 202.6,106.1 203.0,106.8 203.5,107.5 204.0,108.2 204.7,108.8 205.3,109.4 206.0,109.9 206.7,110.3 207.5,110.7 208.3,111.0 209.1,111.2 210.0,111.4 210.8,111.5 211.7,111.5 212.6,111.4 213.4,111.3 214.3,111.1 215.1,110.8 215.9,110.5 216.6,110.1 217.3,109.6 218.0,109.1 218.6,108.5 219.2,107.9 219.7,107.2 220.2,106.4 220.6,105.7 220.9,104.9 221.2,104.1 221.3,103.2 221.5,102.4" fill="#FFFFFF" stroke="#0000FF" stroke-width="1.0" stroke-linecap="butt" stroke-linejoin="round" />
		</g>
	</g>
</svg>
