<svg width="203" height="203" xmlns="http://www.w3.org/2000/svg" xmlns:xlink="http://www.w3.org/1999/xlink">
	<g id="Modelica.Electrical.MultiPhase" class="component">
		<defs>
			<linearGradient id="cyl2" x1="0" y1="0" x2="0" y2="1">
				<stop offset="0%" stop-color="#C8C8C8" />
				<stop offset="5%" stop-color="#D1D1D1" />
				<stop offset="10%" stop-color="#D9D9D9" />
				<stop offset="15%" stop-color="#E0E0E0" />
				<stop offset="20%" stop-color="#E7E7E7" />
				<stop offset="25%" stop-color="#ECECEC" />
				<stop offset="30%" stop-color="#F0F0F0" />
				<stop offset="35%" stop-color="#F4F4F4" />
				<stop offset="40%" stop-color="#F6F6F6" />
				<stop offset="45%" stop-color="#F8F8F8" />
				<stop offset="50%" stop-color="#F8F8F8" />
				<stop offset="55%" stop-color="#F8F8F8" />
				<stop offset="60%" stop-color="#F6F6F6" />
				<stop offset="65%" stop-color="#F4F4F4" />
				<stop offset="70%" stop-color="#F0F0F0" />
				<stop offset="75%" stop-color="#ECECEC" />
				<stop offset="80%" stop-color="#E7E7E7" />
				<stop offset="85%" stop-color="#E0E0E0" />
				<stop offset="90%" stop-color="#D9D9D9" />
				<stop offset="95%" stop-color="#D1D1D1" />
				<stop offset="100%" stop-color="#C8C8C8" />
			</linearGradient>
		</defs>
		<polygon points="8.8,194.2 11.0,196.1 13.3,197.8 15.7,199.1 18.2,200.2 20.8,200.9 23.6,201.4 26.5,201.5 26.5,201.5 50.4,201.5 101.5,201.5 101.5,201.5 152.6,201.5 176.5,201.5 176.5,201.5 179.4,201.4 182.2,200.9 184.8,200.2 187.3,199.1 189.7,197.8 192.0,196.1 194.2,194.2 194.2,194.2 196.1,192.0 197.8,189.7 199.1,187.3 200.2,184.8 200.9,182.2 201.4,179.4 201.5,176.5 201.5,176.5 201.5,152.6 201.5,101.5 201.5,101.5 201.5,50.4 201.5,26.5 201.5,26.5 201.4,23.6 200.9,20.8 200.2,18.2 199.1,15.7 197.8,13.3 196.1,11.0 194.2,8.8 194.2,8.8 192.0,6.9 189.7,5.2 187.3,3.9 184.8,2.8 182.2,2.1 179.4,1.6 176.5,1.5 176.5,1.5 152.6,1.5 101.5,1.5 101.5,1.5 50.4,1.5 26.5,1.5 26.5,1.5 23.6,1.6 20.8,2.1 18.2,2.8 15.7,3.9 13.3,5.2 11.0,6.9 8.8,8.8 8.8,8.8 6.9,11.0 5.2,13.3 3.9,15.7 2.8,18.2 2.1,20.8 1.6,23.6 1.5,26.5 1.5,26.5 1.5,50.4 1.5,101.5 1.5,101.5 1.5,152.6 1.5,176.5 1.5,176.5 1.6,179.4 2.1,182.2 2.8,184.8 3.9,187.3 5.2,189.7 6.9,192.0" fill="url(#cyl2)" stroke="#C8C8C8" stroke-width="1.0" stroke-linecap="butt" stroke-linejoin="round" />
		<polygon points="8.8,194.2 11.0,196.1 13.3,197.8 15.7,199.1 18.2,200.2 20.8,200.9 23.6,201.4 26.5,201.5 26.5,201.5 50.4,201.5 101.5,201.5 101.5,201.5 152.6,201.5 176.5,201.5 176.5,201.5 179.4,201.4 182.2,200.9 184.8,200.2 187.3,199.1 189.7,197.8 192.0,196.1 194.2,194.2 194.2,194.2 196.1,192.0 197.8,189.7 199.1,187.3 200.2,184.8 200.9,182.2 201.4,179.4 201.5,176.5 201.5,176.5 201.5,152.6 201.5,101.5 201.5,101.5 201.5,50.4 201.5,26.5 201.5,26.5 201.4,23.6 200.9,20.8 200.2,18.2 199.1,15.7 197.8,13.3 196.1,11.0 194.2,8.8 194.2,8.8 192.0,6.9 189.7,5.2 187.3,3.9 184.8,2.8 182.2,2.1 179.4,1.6 176.5,1.5 176.5,1.5 152.6,1.5 101.5,1.5 101.5,1.5 50.4,1.5 26.5,1.5 26.5,1.5 23.6,1.6 20.8,2.1 18.2,2.8 15.7,3.9 13.3,5.2 11.0,6.9 8.8,8.8 8.8,8.8 6.9,11.0 5.2,13.3 3.9,15.7 2.8,18.2 2.1,20.8 1.6,23.6 1.5,26.5 1.5,26.5 1.5,50.4 1.5,101.5 1.5,101.5 1.5,152.6 1.5,176.5 1.5,176.5 1.6,179.4 2.1,182.2 2.8,184.8 3.9,187.3 5.2,189.7 6.9,192.0" fill-opacity="0" stroke="#808080" stroke-width="1.0" stroke-linecap="butt" stroke-linejoin="round" />
		<polygon points="171.5,101.5 171.2,95.5 170.5,89.5 169.2,83.6 167.4,77.9 165.1,72.3 162.4,66.9 159.2,61.8 155.6,57.0 151.5,52.5 147.1,48.4 142.4,44.7 137.4,41.4 132.1,38.5 126.5,36.1 120.8,34.2 115.0,32.8 109.0,31.9 103.0,31.5 97.0,31.6 91.0,32.3 85.1,33.5 79.3,35.1 73.7,37.3 68.3,39.9 63.1,43.0 58.2,46.5 53.6,50.4 49.4,54.7 45.6,59.4 42.2,64.3 39.2,69.6 36.7,75.1 34.7,80.7 33.1,86.6 32.1,92.5 31.6,98.5 31.6,104.5 32.1,110.5 33.1,116.4 34.7,122.3 36.7,127.9 39.2,133.4 42.2,138.7 45.6,143.6 49.4,148.3 53.6,152.6 58.2,156.5 63.1,160.0 68.3,163.1 73.7,165.7 79.3,167.9 85.1,169.5 91.0,170.7 97.0,171.4 103.0,171.5 109.0,171.1 115.0,170.2 120.8,168.8 126.5,166.9 132.1,164.5 137.4,161.6 142.4,158.3 147.1,154.6 151.5,150.5 155.6,146.0 159.2,141.2 162.4,136.1 165.1,130.7 167.4,125.1 169.2,119.4 170.5,113.5 171.2,107.5" fill-opacity="0" stroke="#5F5F5F" stroke-width="1.0" stroke-linecap="butt" stroke-linejoin="round" />
		<polygon points="81.5,83.5 81.5,82.6 81.4,81.8 81.2,80.9 80.9,80.1 80.6,79.3 80.2,78.6 79.7,77.8 79.2,77.1 78.6,76.5 78.0,75.9 77.3,75.4 76.6,74.9 75.9,74.5 75.1,74.2 74.3,73.9 73.4,73.7 72.6,73.6 71.7,73.5 70.9,73.5 70.0,73.6 69.2,73.8 68.3,74.0 67.5,74.3 66.8,74.7 66.0,75.1 65.3,75.6 64.7,76.2 64.1,76.8 63.5,77.5 63.0,78.2 62.6,78.9 62.2,79.7 62.0,80.5 61.7,81.4 61.6,82.2 61.5,83.1 61.5,83.9 61.6,84.8 61.7,85.6 62.0,86.5 62.2,87.3 62.6,88.1 63.0,88.8 63.5,89.5 64.1,90.2 64.7,90.8 65.3,91.4 66.0,91.9 66.8,92.3 67.5,92.7 68.3,93.0 69.2,93.2 70.0,93.4 70.9,93.5 71.7,93.5 72.6,93.4 73.4,93.3 74.3,93.1 75.1,92.8 75.9,92.5 76.6,92.1 77.3,91.6 78.0,91.1 78.6,90.5 79.2,89.9 79.7,89.2 80.2,88.4 80.6,87.7 80.9,86.9 81.2,86.1 81.4,85.2 81.5,84.4" fill="#5F5F5F" stroke="#5F5F5F" stroke-width="1.0" stroke-linecap="butt" stroke-linejoin="round" />
		<polygon points="141.5,85.5 141.5,84.6 141.4,83.8 141.2,82.9 140.9,82.1 140.6,81.3 140.2,80.6 139.7,79.8 139.2,79.1 138.6,78.5 138.0,77.9 137.3,77.4 136.6,76.9 135.9,76.5 135.1,76.2 134.3,75.9 133.4,75.7 132.6,75.6 131.7,75.5 130.9,75.5 130.0,75.6 129.2,75.8 128.3,76.0 127.5,76.3 126.8,76.7 126.0,77.1 125.3,77.6 124.7,78.2 124.1,78.8 123.5,79.5 123.0,80.2 122.6,80.9 122.2,81.7 122.0,82.5 121.7,83.4 121.6,84.2 121.5,85.1 121.5,85.9 121.6,86.8 121.7,87.6 122.0,88.5 122.2,89.3 122.6,90.1 123.0,90.8 123.5,91.5 124.1,92.2 124.7,92.8 125.3,93.4 126.0,93.9 126.8,94.3 127.5,94.7 128.3,95.0 129.2,95.2 130.0,95.4 130.9,95.5 131.7,95.5 132.6,95.4 133.4,95.3 134.3,95.1 135.1,94.8 135.9,94.5 136.6,94.1 137.3,93.6 138.0,93.1 138.6,92.5 139.2,91.9 139.7,91.2 140.2,90.4 140.6,89.7 140.9,88.9 141.2,88.1 141.4,87.2 141.5,86.4" fill="#5F5F5F" stroke="#5F5F5F" stroke-width="1.0" stroke-linecap="butt" stroke-linejoin="round" />
		<polygon points="111.5,131.5 111.5,130.6 111.4,129.8 111.2,128.9 110.9,128.1 110.6,127.3 110.2,126.6 109.7,125.8 109.2,125.1 108.6,124.5 108.0,123.9 107.3,123.4 106.6,122.9 105.9,122.5 105.1,122.2 104.3,121.9 103.4,121.7 102.6,121.6 101.7,121.5 100.9,121.5 100.0,121.6 99.2,121.8 98.3,122.0 97.5,122.3 96.8,122.7 96.0,123.1 95.3,123.6 94.7,124.2 94.1,124.8 93.5,125.5 93.0,126.2 92.6,126.9 92.2,127.7 92.0,128.5 91.7,129.4 91.6,130.2 91.5,131.1 91.5,131.9 91.6,132.8 91.7,133.6 92.0,134.5 92.2,135.3 92.6,136.1 93.0,136.8 93.5,137.5 94.1,138.2 94.7,138.8 95.3,139.4 96.0,139.9 96.8,140.3 97.5,140.7 98.3,141.0 99.2,141.2 100.0,141.4 100.9,141.5 101.7,141.5 102.6,141.4 103.4,141.3 104.3,141.1 105.1,140.8 105.9,140.5 106.6,140.1 107.3,139.6 108.0,139.1 108.6,138.5 109.2,137.9 109.7,137.2 110.2,136.4 110.6,135.7 110.9,134.9 111.2,134.1 111.4,133.2 111.5,132.4" fill="#5F5F5F" stroke="#5F5F5F" stroke-width="1.0" stroke-linecap="butt" stroke-linejoin="round" />
	</g>
</svg>
