<svg width="211" height="206" xmlns="http://www.w3.org/2000/svg" xmlns:xlink="http://www.w3.org/1999/xlink">
	<g id="Modelica.Mechanics.MultiBody.Joints.Assemblies.JointSSP" class="component">
		<defs>
			<radialGradient id="sph2">
				<stop offset="0%" stop-color="#C0C0C0" />
				<stop offset="10%" stop-color="#BEBEBE" />
				<stop offset="20%" stop-color="#B8B8B8" />
				<stop offset="30%" stop-color="#AFAFAF" />
				<stop offset="40%" stop-color="#A1A1A1" />
				<stop offset="50%" stop-color="#909090" />
				<stop offset="60%" stop-color="#7B7B7B" />
				<stop offset="70%" stop-color="#626262" />
				<stop offset="80%" stop-color="#454545" />
				<stop offset="90%" stop-color="#242424" />
				<stop offset="100%" stop-color="#000000" />
			</radialGradient>
		</defs>
		<polygon points="63.9,103.9 63.8,101.3 63.5,98.8 62.9,96.2 62.1,93.8 61.2,91.4 60.0,89.1 58.6,86.9 57.1,84.8 55.3,82.9 53.5,81.2 51.4,79.6 49.3,78.1 47.0,76.9 44.6,75.9 42.2,75.1 39.7,74.5 37.1,74.1 34.5,73.9 32.0,74.0 29.4,74.2 26.9,74.7 24.4,75.4 22.0,76.4 19.7,77.5 17.4,78.8 15.3,80.3 13.4,82.0 11.6,83.9 9.9,85.9 8.5,88.0 7.2,90.2 6.1,92.6 5.3,95.0 4.6,97.5 4.1,100.0 3.9,102.6 3.9,105.2 4.1,107.8 4.6,110.3 5.3,112.8 6.1,115.2 7.2,117.6 8.5,119.8 9.9,121.9 11.6,123.9 13.4,125.8 15.3,127.5 17.4,129.0 19.7,130.3 22.0,131.4 24.4,132.4 26.9,133.1 29.4,133.6 32.0,133.8 34.5,133.9 37.1,133.7 39.7,133.3 42.2,132.7 44.6,131.9 47.0,130.9 49.3,129.7 51.4,128.2 53.5,126.6 55.3,124.9 57.1,123.0 58.6,120.9 60.0,118.7 61.2,116.4 62.1,114.0 62.9,111.6 63.5,109.0 63.8,106.5" fill="url(#sph2)" stroke="#000000" stroke-width="1.0" stroke-linecap="butt" stroke-linejoin="round" />
		<polygon points="55.9,103.4 55.8,101.5 55.6,99.5 55.2,97.7 54.6,95.8 53.8,94.0 53.0,92.3 51.9,90.6 50.8,89.1 49.5,87.7 48.1,86.3 46.5,85.1 44.9,84.1 43.2,83.2 41.4,82.4 39.6,81.8 37.7,81.3 35.8,81.0 33.9,80.9 31.9,80.9 30.0,81.2 28.1,81.5 26.3,82.1 24.5,82.8 22.7,83.6 21.1,84.6 19.5,85.7 18.0,87.0 16.7,88.4 15.4,89.9 14.3,91.5 13.4,93.1 12.6,94.9 11.9,96.7 11.4,98.6 11.1,100.5 10.9,102.4 10.9,104.4 11.1,106.3 11.4,108.2 11.9,110.1 12.6,111.9 13.4,113.7 14.3,115.3 15.4,116.9 16.7,118.4 18.0,119.8 19.5,121.1 21.1,122.2 22.7,123.2 24.5,124.0 26.3,124.7 28.1,125.3 30.0,125.6 31.9,125.9 33.9,125.9 35.8,125.8 37.7,125.5 39.6,125.0 41.4,124.4 43.2,123.6 44.9,122.7 46.5,121.7 48.1,120.5 49.5,119.1 50.8,117.7 51.9,116.2 53.0,114.5 53.8,112.8 54.6,111.0 55.2,109.1 55.6,107.3 55.8,105.3" fill="#FFFFFF" stroke="#A0A0A4" stroke-width="1.0" stroke-linecap="butt" stroke-linejoin="round" />
		<polygon points="40.9,136.9 64.9,136.9 64.9,70.9 40.9,70.9" fill="#FFFFFF" stroke="#FFFFFF" stroke-width="1.0" stroke-linecap="butt" stroke-linejoin="round" />
		<defs>
			<radialGradient id="sph5">
				<stop offset="0%" stop-color="#C0C0C0" />
				<stop offset="10%" stop-color="#BEBEBE" />
				<stop offset="20%" stop-color="#B8B8B8" />
				<stop offset="30%" stop-color="#AFAFAF" />
				<stop offset="40%" stop-color="#A1A1A1" />
				<stop offset="50%" stop-color="#909090" />
				<stop offset="60%" stop-color="#7B7B7B" />
				<stop offset="70%" stop-color="#626262" />
				<stop offset="80%" stop-color="#454545" />
				<stop offset="90%" stop-color="#242424" />
				<stop offset="100%" stop-color="#000000" />
			</radialGradient>
		</defs>
		<polygon points="123.9,103.9 123.8,101.3 123.5,98.8 122.9,96.2 122.1,93.8 121.2,91.4 120.0,89.1 118.6,86.9 117.1,84.8 115.3,82.9 113.5,81.2 111.4,79.6 109.3,78.1 107.0,76.9 104.6,75.9 102.2,75.1 99.7,74.5 97.1,74.1 94.5,73.9 92.0,74.0 89.4,74.2 86.9,74.7 84.4,75.4 82.0,76.4 79.7,77.5 77.4,78.8 75.3,80.3 73.4,82.0 71.6,83.9 69.9,85.9 68.5,88.0 67.2,90.2 66.1,92.6 65.3,95.0 64.6,97.5 64.1,100.0 63.9,102.6 63.9,105.2 64.1,107.8 64.6,110.3 65.3,112.8 66.1,115.2 67.2,117.6 68.5,119.8 69.9,121.9 71.6,123.9 73.4,125.8 75.3,127.5 77.4,129.0 79.7,130.3 82.0,131.4 84.4,132.4 86.9,133.1 89.4,133.6 92.0,133.8 94.5,133.9 97.1,133.7 99.7,133.3 102.2,132.7 104.6,131.9 107.0,130.9 109.3,129.7 111.4,128.2 113.5,126.6 115.3,124.9 117.1,123.0 118.6,120.9 120.0,118.7 121.2,116.4 122.1,114.0 122.9,111.6 123.5,109.0 123.8,106.5" fill="url(#sph5)" stroke="#000000" stroke-width="1.0" stroke-linecap="butt" stroke-linejoin="round" />
		<polygon points="115.9,103.4 115.8,101.5 115.6,99.5 115.2,97.7 114.6,95.8 113.8,94.0 113.0,92.3 111.9,90.6 110.8,89.1 109.5,87.7 108.1,86.3 106.5,85.1 104.9,84.1 103.2,83.2 101.4,82.4 99.6,81.8 97.7,81.3 95.8,81.0 93.9,80.9 91.9,80.9 90.0,81.2 88.1,81.5 86.3,82.1 84.5,82.8 82.7,83.6 81.1,84.6 79.5,85.7 78.0,87.0 76.7,88.4 75.4,89.9 74.3,91.5 73.4,93.1 72.6,94.9 71.9,96.7 71.4,98.6 71.1,100.5 70.9,102.4 70.9,104.4 71.1,106.3 71.4,108.2 71.9,110.1 72.6,111.9 73.4,113.7 74.3,115.3 75.4,116.9 76.7,118.4 78.0,119.8 79.5,121.1 81.1,122.2 82.7,123.2 84.5,124.0 86.3,124.7 88.1,125.3 90.0,125.6 91.9,125.9 93.9,125.9 95.8,125.8 97.7,125.5 99.6,125.0 101.4,124.4 103.2,123.6 104.9,122.7 106.5,121.7 108.1,120.5 109.5,119.1 110.8,117.7 111.9,116.2 113.0,114.5 113.8,112.8 114.6,111.0 115.2,109.1 115.6,107.3 115.8,105.3" fill="#FFFFFF" stroke="#C0C0C0" stroke-width="1.0" stroke-linecap="butt" stroke-linejoin="round" />
		<polygon points="59.9,133.9 84.9,133.9 84.9,72.9 59.9,72.9" fill="#FFFFFF" stroke="#FFFFFF" stroke-width="1.0" stroke-linecap="butt" stroke-linejoin="round" />
		<polygon points="100.9,103.9 100.9,103.0 100.8,102.2 100.6,101.3 100.3,100.5 100.0,99.7 99.6,99.0 99.1,98.2 98.6,97.5 98.0,96.9 97.4,96.3 96.7,95.8 96.0,95.3 95.3,94.9 94.5,94.6 93.7,94.3 92.8,94.1 92.0,94.0 91.1,93.9 90.3,93.9 89.4,94.0 88.6,94.2 87.7,94.4 86.9,94.7 86.2,95.1 85.4,95.5 84.7,96.0 84.1,96.6 83.5,97.2 82.9,97.9 82.4,98.6 82.0,99.3 81.6,100.1 81.4,100.9 81.1,101.8 81.0,102.6 80.9,103.5 80.9,104.3 81.0,105.2 81.1,106.0 81.4,106.9 81.6,107.7 82.0,108.5 82.4,109.2 82.9,109.9 83.5,110.6 84.1,111.2 84.7,111.8 85.4,112.3 86.2,112.7 86.9,113.1 87.7,113.4 88.6,113.6 89.4,113.8 90.3,113.9 91.1,113.9 92.0,113.8 92.8,113.7 93.7,113.5 94.5,113.2 95.3,112.9 96.0,112.5 96.7,112.0 97.4,111.5 98.0,110.9 98.6,110.3 99.1,109.6 99.6,108.8 100.0,108.1 100.3,107.3 100.6,106.5 100.8,105.6 100.9,104.8" fill="#000000" stroke="#000000" stroke-width="1.0" stroke-linecap="butt" stroke-linejoin="round" />
		<defs>
			<linearGradient id="cyl9" x1="0" y1="0" x2="0" y2="1">
				<stop offset="0%" stop-color="#000000" />
				<stop offset="5%" stop-color="#242424" />
				<stop offset="10%" stop-color="#454545" />
				<stop offset="15%" stop-color="#626262" />
				<stop offset="20%" stop-color="#7B7B7B" />
				<stop offset="25%" stop-color="#909090" />
				<stop offset="30%" stop-color="#A1A1A1" />
				<stop offset="35%" stop-color="#AFAFAF" />
				<stop offset="40%" stop-color="#B8B8B8" />
				<stop offset="45%" stop-color="#BEBEBE" />
				<stop offset="50%" stop-color="#C0C0C0" />
				<stop offset="55%" stop-color="#BEBEBE" />
				<stop offset="60%" stop-color="#B8B8B8" />
				<stop offset="65%" stop-color="#AFAFAF" />
				<stop offset="70%" stop-color="#A1A1A1" />
				<stop offset="75%" stop-color="#909090" />
				<stop offset="80%" stop-color="#7B7B7B" />
				<stop offset="85%" stop-color="#626262" />
				<stop offset="90%" stop-color="#454545" />
				<stop offset="95%" stop-color="#242424" />
				<stop offset="100%" stop-color="#000000" />
			</linearGradient>
		</defs>
		<polygon points="122.9,109.9 164.9,109.9 164.9,97.9 122.9,97.9" fill="url(#cyl9)" stroke="#000000" stroke-width="1.0" stroke-linecap="butt" stroke-linejoin="round" />
		<polygon points="43.9,102.9 43.9,102.0 43.8,101.2 43.6,100.3 43.3,99.5 43.0,98.7 42.6,98.0 42.1,97.2 41.6,96.5 41.0,95.9 40.4,95.3 39.7,94.8 39.0,94.3 38.3,93.9 37.5,93.6 36.7,93.3 35.8,93.1 35.0,93.0 34.1,92.9 33.3,92.9 32.4,93.0 31.6,93.2 30.7,93.4 29.9,93.7 29.2,94.1 28.4,94.5 27.7,95.0 27.1,95.6 26.5,96.2 25.9,96.9 25.4,97.6 25.0,98.3 24.6,99.1 24.4,99.9 24.1,100.8 24.0,101.6 23.9,102.5 23.9,103.3 24.0,104.2 24.1,105.0 24.4,105.9 24.6,106.7 25.0,107.5 25.4,108.2 25.9,108.9 26.5,109.6 27.1,110.2 27.7,110.8 28.4,111.3 29.2,111.7 29.9,112.1 30.7,112.4 31.6,112.6 32.4,112.8 33.3,112.9 34.1,112.9 35.0,112.8 35.8,112.7 36.7,112.5 37.5,112.2 38.3,111.9 39.0,111.5 39.7,111.0 40.4,110.5 41.0,109.9 41.6,109.3 42.1,108.6 42.6,107.8 43.0,107.1 43.3,106.3 43.6,105.5 43.8,104.6 43.9,103.8" fill="#000000" stroke="#000000" stroke-width="1.0" stroke-linecap="butt" stroke-linejoin="round" />
		<defs>
			<linearGradient id="cyl11" x1="0" y1="0" x2="0" y2="1">
				<stop offset="0%" stop-color="#000000" />
				<stop offset="5%" stop-color="#242424" />
				<stop offset="10%" stop-color="#454545" />
				<stop offset="15%" stop-color="#626262" />
				<stop offset="20%" stop-color="#7B7B7B" />
				<stop offset="25%" stop-color="#909090" />
				<stop offset="30%" stop-color="#A1A1A1" />
				<stop offset="35%" stop-color="#AFAFAF" />
				<stop offset="40%" stop-color="#B8B8B8" />
				<stop offset="45%" stop-color="#BEBEBE" />
				<stop offset="50%" stop-color="#C0C0C0" />
				<stop offset="55%" stop-color="#BEBEBE" />
				<stop offset="60%" stop-color="#B8B8B8" />
				<stop offset="65%" stop-color="#AFAFAF" />
				<stop offset="70%" stop-color="#A1A1A1" />
				<stop offset="75%" stop-color="#909090" />
				<stop offset="80%" stop-color="#7B7B7B" />
				<stop offset="85%" stop-color="#626262" />
				<stop offset="90%" stop-color="#454545" />
				<stop offset="95%" stop-color="#242424" />
				<stop offset="100%" stop-color="#000000" />
			</linearGradient>
		</defs>
		<polygon points="41.9,108.9 82.9,108.9 82.9,97.9 41.9,97.9" fill="url(#cyl11)" stroke="#000000" stroke-width="1.0" stroke-linecap="butt" stroke-linejoin="round" />
		<polyline points="122.9,97.9 122.9,23.9 103.9,23.9 103.9,3.9" fill-opacity="0" stroke="#5F5F5F" stroke-width="1.0" stroke-linecap="butt" stroke-linejoin="round" />
		<polygon points="153.9,123.9 183.9,123.9 183.9,83.9 153.9,83.9" fill="#C0C0C0" stroke="#000000" stroke-width="1.0" stroke-linecap="butt" stroke-linejoin="round" />
		<polygon points="183.9,133.9 203.9,133.9 203.9,73.9 183.9,73.9" fill="#C0C0C0" stroke="#000000" stroke-width="1.0" stroke-linecap="butt" stroke-linejoin="round" />
		<polygon points="153.9,89.9 183.9,89.9 183.9,83.9 153.9,83.9" fill="#000000" stroke-opacity="0" stroke-width="1.0" stroke-linecap="butt" stroke-linejoin="round" />
		<polygon points="183.9,79.9 203.9,79.9 203.9,73.9 183.9,73.9" fill="#000000" stroke-opacity="0" stroke-width="1.0" stroke-linecap="butt" stroke-linejoin="round" />
		<polyline points="153.9,97.9 153.9,23.9 183.9,23.9 183.9,3.9" fill-opacity="0" stroke="#5F5F5F" stroke-width="1.0" stroke-linecap="butt" stroke-linejoin="round" />
		<polyline points="204.9,23.9 183.9,23.9" fill-opacity="0" stroke="#5F5F5F" stroke-width="1.0" stroke-linecap="butt" stroke-linejoin="round" />
		<polyline points="202.9,63.9 193.9,63.9 193.9,73.9" fill-opacity="0" stroke="#5F5F5F" stroke-width="1.0" stroke-linecap="butt" stroke-linejoin="round" />
		<g id="frame_a" class="port">
			<polygon points="3.1,104.7 4.7,104.7 4.7,103.1 3.1,103.1" fill-opacity="0" stroke="#5F5F5F" stroke-width="1.0" stroke-linecap="butt" stroke-linejoin="round" />
			<polygon points="1.5,111.9 6.3,111.9 6.3,95.9 1.5,95.9" fill="#C0C0C0" stroke="#000000" stroke-width="1.0" stroke-linecap="butt" stroke-linejoin="round" />
		</g>
		<g id="frame_b" class="port">
			<polygon points="203.1,104.7 204.7,104.7 204.7,103.1 203.1,103.1" fill-opacity="0" stroke="#5F5F5F" stroke-width="1.0" stroke-linecap="butt" stroke-linejoin="round" />
			<polygon points="201.5,111.9 206.3,111.9 206.3,95.9 201.5,95.9" fill="#FFFFFF" stroke="#000000" stroke-width="1.0" stroke-linecap="butt" stroke-linejoin="round" />
		</g>
		<g id="frame_ib" class="port">
			<polygon points="184.7,3.1 184.7,4.7 183.1,4.7 183.1,3.1" fill-opacity="0" stroke="#5F5F5F" stroke-width="1.0" stroke-linecap="butt" stroke-linejoin="round" />
			<polygon points="191.9,1.5 191.9,6.3 175.9,6.3 175.9,1.5" fill="#FFFFFF" stroke="#000000" stroke-width="1.0" stroke-linecap="butt" stroke-linejoin="round" />
		</g>
		<g id="frame_im" class="port">
			<polygon points="103.1,4.7 103.1,3.1 104.7,3.1 104.7,4.7" fill-opacity="0" stroke="#5F5F5F" stroke-width="1.0" stroke-linecap="butt" stroke-linejoin="round" />
			<polygon points="95.9,6.3 95.9,1.5 111.9,1.5 111.9,6.3" fill="#FFFFFF" stroke="#000000" stroke-width="1.0" stroke-linecap="butt" stroke-linejoin="round" />
		</g>
		<g id="axis" class="port">
			<polygon points="198.9,28.9 208.9,28.9 208.9,18.9 198.9,18.9" fill="#007F00" stroke="#007F00" stroke-width="1.0" stroke-linecap="butt" stroke-linejoin="round" />
		</g>
		<g id="bearing" class="port">
			<polygon points="208.9,68.9 198.9,68.9 198.9,58.9 208.9,58.9" fill="#FFFFFF" stroke="#007F00" stroke-width="1.0" stroke-linecap="butt" stroke-linejoin="round" />
		</g>
	</g>
</svg>
