<svg width="213" height="263" xmlns="http://www.w3.org/2000/svg" xmlns:xlink="http://www.w3.org/1999/xlink">
	<g id="Modelica.Mechanics.MultiBody.Sensors.Internal.BasicTransformRelativeVector" class="component">
		<polygon points="176.3,141.5 176.0,135.5 175.3,129.5 174.0,123.6 172.2,117.9 169.9,112.3 167.2,106.9 164.0,101.8 160.4,97.0 156.3,92.5 151.9,88.4 147.2,84.7 142.2,81.4 136.9,78.5 131.3,76.1 125.6,74.2 119.8,72.8 113.8,71.9 107.8,71.5 101.8,71.6 95.8,72.3 89.9,73.5 84.1,75.1 78.5,77.3 73.1,79.9 67.9,83.0 63.0,86.5 58.4,90.4 54.2,94.7 50.4,99.4 47.0,104.3 44.0,109.6 41.5,115.1 39.5,120.7 37.9,126.6 36.9,132.5 36.4,138.5 36.4,144.5 36.9,150.5 37.9,156.4 39.5,162.3 41.5,167.9 44.0,173.4 47.0,178.7 50.4,183.6 54.2,188.3 58.4,192.6 63.0,196.5 67.9,200.0 73.1,203.1 78.5,205.7 84.1,207.9 89.9,209.5 95.8,210.7 101.8,211.4 107.8,211.5 113.8,211.1 119.8,210.2 125.6,208.8 131.3,206.9 136.9,204.5 142.2,201.6 147.2,198.3 151.9,194.6 156.3,190.5 160.4,186.0 164.0,181.2 167.2,176.1 169.9,170.7 172.2,165.1 174.0,159.4 175.3,153.5 176.0,147.5" fill="#F5F5F5" stroke="#000000" stroke-width="1.0" stroke-linecap="round" stroke-linejoin="round" />
		<polyline points="106.3,71.5 106.3,101.5" fill-opacity="0" stroke="#000000" stroke-width="1.0" stroke-linecap="round" stroke-linejoin="round" />
		<polyline points="129.2,108.7 146.5,84.2" fill-opacity="0" stroke="#000000" stroke-width="1.0" stroke-linecap="round" stroke-linejoin="round" />
		<polyline points="83.4,108.7 66.1,84.2" fill-opacity="0" stroke="#000000" stroke-width="1.0" stroke-linecap="round" stroke-linejoin="round" />
		<polyline points="143.9,127.8 172.1,117.6" fill-opacity="0" stroke="#000000" stroke-width="1.0" stroke-linecap="round" stroke-linejoin="round" />
		<polyline points="68.7,127.8 40.5,117.6" fill-opacity="0" stroke="#000000" stroke-width="1.0" stroke-linecap="round" stroke-linejoin="round" />
		<polygon points="118.3,141.5 118.3,140.5 118.1,139.4 117.9,138.4 117.6,137.4 117.2,136.5 116.7,135.6 116.2,134.7 115.6,133.9 114.9,133.1 114.1,132.4 113.3,131.8 112.4,131.2 111.5,130.7 110.6,130.3 109.6,130.0 108.6,129.7 107.6,129.6 106.6,129.5 105.5,129.5 104.5,129.6 103.5,129.8 102.5,130.1 101.5,130.5 100.6,130.9 99.7,131.5 98.9,132.1 98.1,132.7 97.4,133.5 96.7,134.3 96.1,135.1 95.6,136.0 95.2,137.0 94.8,137.9 94.6,138.9 94.4,140.0 94.3,141.0 94.3,142.0 94.4,143.0 94.6,144.1 94.8,145.1 95.2,146.0 95.6,147.0 96.1,147.9 96.7,148.7 97.4,149.5 98.1,150.3 98.9,150.9 99.7,151.5 100.6,152.1 101.5,152.5 102.5,152.9 103.5,153.2 104.5,153.4 105.5,153.5 106.6,153.5 107.6,153.4 108.6,153.3 109.6,153.0 110.6,152.7 111.5,152.3 112.4,151.8 113.3,151.2 114.1,150.6 114.9,149.9 115.6,149.1 116.2,148.3 116.7,147.4 117.2,146.5 117.6,145.6 117.9,144.6 118.1,143.6 118.3,142.5" fill-opacity="0" stroke="#404040" stroke-width="1.0" stroke-linecap="round" stroke-linejoin="round" />
		<polygon points="101.5,140.0 122.4,83.7 125.8,79.5 126.2,84.9 111.1,143.0" fill="#404040" stroke-opacity="0" stroke-width="1.0" stroke-linecap="round" stroke-linejoin="round" />
		<polygon points="113.3,141.5 113.3,140.9 113.2,140.3 113.1,139.7 112.9,139.1 112.7,138.6 112.4,138.0 112.1,137.5 111.7,137.1 111.3,136.6 110.9,136.2 110.4,135.8 109.9,135.5 109.4,135.2 108.8,135.0 108.2,134.8 107.6,134.6 107.1,134.5 106.5,134.5 105.8,134.5 105.2,134.6 104.7,134.7 104.1,134.9 103.5,135.1 103.0,135.3 102.5,135.6 102.0,136.0 101.5,136.4 101.1,136.8 100.7,137.3 100.4,137.8 100.1,138.3 99.8,138.9 99.6,139.4 99.5,140.0 99.4,140.6 99.3,141.2 99.3,141.8 99.4,142.4 99.5,143.0 99.6,143.6 99.8,144.1 100.1,144.7 100.4,145.2 100.7,145.7 101.1,146.2 101.5,146.6 102.0,147.0 102.5,147.4 103.0,147.7 103.5,147.9 104.1,148.1 104.7,148.3 105.2,148.4 105.8,148.5 106.5,148.5 107.1,148.5 107.6,148.4 108.2,148.2 108.8,148.0 109.4,147.8 109.9,147.5 110.4,147.2 110.9,146.8 111.3,146.4 111.7,145.9 112.1,145.5 112.4,145.0 112.7,144.4 112.9,143.9 113.1,143.3 113.2,142.7 113.3,142.1" fill="#404040" stroke-opacity="0" stroke-width="1.0" stroke-linecap="round" stroke-linejoin="round" />
		<polyline points="36.3,141.5 10.3,141.5" fill-opacity="0" stroke="#000000" stroke-width="1.0" stroke-linecap="round" stroke-linejoin="round" />
		<polyline points="202.3,141.5 176.3,141.5" fill-opacity="0" stroke="#000000" stroke-width="1.0" stroke-linecap="round" stroke-linejoin="round" />
		<polyline points="106.3,211.5 106.3,241.5" fill-opacity="0" stroke="#00007F" stroke-width="1.0" stroke-linecap="round" stroke-linejoin="round" />
		<polyline points="166.3,105.5 166.3,61.5 201.3,61.5" fill-opacity="0" stroke="#000000" stroke-dasharray="1 2" stroke-width="1.0" stroke-linecap="round" stroke-linejoin="round" />
		<polyline points="106.3,41.5 106.3,71.5" fill-opacity="0" stroke="#00007F" stroke-width="1.0" stroke-linecap="round" stroke-linejoin="round" />
		<g id="frame_a" class="port">
			<polygon points="4.7,143.1 7.9,143.1 7.9,139.9 4.7,139.9" fill-opacity="0" stroke="#5F5F5F" stroke-width="1.0" stroke-linecap="round" stroke-linejoin="round" />
			<polygon points="1.5,157.5 11.1,157.5 11.1,125.5 1.5,125.5" fill="#C0C0C0" stroke="#000000" stroke-width="1.0" stroke-linecap="round" stroke-linejoin="round" />
		</g>
		<g id="frame_b" class="port">
			<polygon points="204.7,143.1 207.9,143.1 207.9,139.9 204.7,139.9" fill-opacity="0" stroke="#5F5F5F" stroke-width="1.0" stroke-linecap="round" stroke-linejoin="round" />
			<polygon points="201.5,157.5 211.1,157.5 211.1,125.5 201.5,125.5" fill="#FFFFFF" stroke="#000000" stroke-width="1.0" stroke-linecap="round" stroke-linejoin="round" />
		</g>
		<g id="frame_resolve" class="port">
			<polygon points="204.7,63.1 207.9,63.1 207.9,59.9 204.7,59.9" fill-opacity="0" stroke="#5F5F5F" stroke-dasharray="1 2" stroke-width="1.0" stroke-linecap="round" stroke-linejoin="round" />
			<polygon points="201.5,77.5 211.1,77.5 211.1,45.5 201.5,45.5" fill="#FFFFFF" stroke="#5F5F5F" stroke-dasharray="1 2" stroke-width="1.0" stroke-linecap="round" stroke-linejoin="round" />
		</g>
		<g id="r_in" class="port">
			<polygon points="126.3,1.5 106.3,41.5 86.3,1.5" fill="#00007F" stroke="#00007F" stroke-width="1.0" stroke-linecap="round" stroke-linejoin="round" />
		</g>
		<g id="r_out" class="port">
			<polygon points="116.3,241.5 106.3,261.5 96.3,241.5" fill="#FFFFFF" stroke="#00007F" stroke-width="1.0" stroke-linecap="round" stroke-linejoin="round" />
		</g>
	</g>
</svg>
