<svg width="223" height="213" xmlns="http://www.w3.org/2000/svg" xmlns:xlink="http://www.w3.org/1999/xlink">
	<g id="Modelica.Electrical.PowerConverters.ACDC.DiodeCenterTap2mPulse" class="component">
		<polygon points="11.5,201.5 211.5,201.5 211.5,1.5 11.5,1.5" fill="#FFFFFF" stroke="#00007F" stroke-width="1.0" stroke-linecap="butt" stroke-linejoin="round" />
		<polyline points="11.5,201.5 211.5,1.5" fill-opacity="0" stroke="#00007F" stroke-width="1.0" stroke-linecap="butt" stroke-linejoin="round" />
		<text x="61.5" y="51.4" text-anchor="middle" fill="#00007F" font-size="26.6px" font-family="sans-serif">AC</text>
		<text x="161.5" y="171.4" text-anchor="middle" fill="#00007F" font-size="26.6px" font-family="sans-serif">DC</text>
		<polygon points="71.5,125.5 151.5,125.5 151.5,77.5 71.5,77.5" fill="#FFFFFF" stroke="#FFFFFF" stroke-width="1.0" stroke-linecap="butt" stroke-linejoin="round" />
		<polyline points="71.5,101.5 151.5,101.5" fill-opacity="0" stroke="#0000FF" stroke-width="1.0" stroke-linecap="butt" stroke-linejoin="round" />
		<polyline points="131.5,77.5 131.5,125.5" fill-opacity="0" stroke="#0000FF" stroke-width="1.0" stroke-linecap="butt" stroke-linejoin="round" />
		<polygon points="131.5,101.5 91.5,77.5 91.5,125.5" fill-opacity="0" stroke="#0000FF" stroke-width="1.0" stroke-linecap="butt" stroke-linejoin="round" />
		<g id="ac_p" class="port">
			<polygon points="21.5,41.5 21.5,40.6 21.3,39.8 21.2,38.9 20.9,38.1 20.6,37.3 20.2,36.6 19.7,35.8 19.2,35.1 18.6,34.5 18.0,33.9 17.3,33.4 16.6,32.9 15.9,32.5 15.1,32.2 14.3,31.9 13.4,31.7 12.6,31.6 11.7,31.5 10.8,31.5 10.0,31.6 9.1,31.8 8.3,32.0 7.5,32.3 6.7,32.7 6.0,33.1 5.3,33.6 4.7,34.2 4.0,34.8 3.5,35.5 3.0,36.2 2.6,36.9 2.2,37.7 1.9,38.5 1.7,39.4 1.6,40.2 1.5,41.1 1.5,41.9 1.6,42.8 1.7,43.6 1.9,44.5 2.2,45.3 2.6,46.1 3.0,46.8 3.5,47.5 4.0,48.2 4.7,48.8 5.3,49.4 6.0,49.9 6.7,50.3 7.5,50.7 8.3,51.0 9.1,51.2 10.0,51.4 10.8,51.5 11.7,51.5 12.6,51.4 13.4,51.3 14.3,51.1 15.1,50.8 15.9,50.5 16.6,50.1 17.3,49.6 18.0,49.1 18.6,48.5 19.2,47.9 19.7,47.2 20.2,46.4 20.6,45.7 20.9,44.9 21.2,44.1 21.3,43.2 21.5,42.4" fill="#0000FF" stroke="#0000FF" stroke-width="1.0" stroke-linecap="butt" stroke-linejoin="round" />
		</g>
		<g id="ac_n" class="port">
			<polygon points="21.5,161.5 21.5,160.6 21.3,159.8 21.2,158.9 20.9,158.1 20.6,157.3 20.2,156.6 19.7,155.8 19.2,155.1 18.6,154.5 18.0,153.9 17.3,153.4 16.6,152.9 15.9,152.5 15.1,152.2 14.3,151.9 13.4,151.7 12.6,151.6 11.7,151.5 10.8,151.5 10.0,151.6 9.1,151.8 8.3,152.0 7.5,152.3 6.7,152.7 6.0,153.1 5.3,153.6 4.7,154.2 4.0,154.8 3.5,155.5 3.0,156.2 2.6,156.9 2.2,157.7 1.9,158.5 1.7,159.4 1.6,160.2 1.5,161.1 1.5,161.9 1.6,162.8 1.7,163.6 1.9,164.5 2.2,165.3 2.6,166.1 3.0,166.8 3.5,167.5 4.0,168.2 4.7,168.8 5.3,169.4 6.0,169.9 6.7,170.3 7.5,170.7 8.3,171.0 9.1,171.2 10.0,171.4 10.8,171.5 11.7,171.5 12.6,171.4 13.4,171.3 14.3,171.1 15.1,170.8 15.9,170.5 16.6,170.1 17.3,169.6 18.0,169.1 18.6,168.5 19.2,167.9 19.7,167.2 20.2,166.4 20.6,165.7 20.9,164.9 21.2,164.1 21.3,163.2 21.5,162.4" fill="#FFFFFF" stroke="#0000FF" stroke-width="1.0" stroke-linecap="butt" stroke-linejoin="round" />
		</g>
		<g id="dc_p" class="port">
			<polygon points="201.5,111.5 221.5,111.5 221.5,91.5 201.5,91.5" fill="#0000FF" stroke="#0000FF" stroke-width="1.0" stroke-linecap="butt" stroke-linejoin="round" />
		</g>
		<g id="heatPort" class="port">
			<polygon points="101.5,211.5 121.5,211.5 121.5,191.5 101.5,191.5" fill="#BF0000" stroke="#BF0000" stroke-width="1.0" stroke-linecap="butt" stroke-linejoin="round" />
		</g>
	</g>
</svg>
