<svg width="223" height="203" xmlns="http://www.w3.org/2000/svg" xmlns:xlink="http://www.w3.org/1999/xlink">
	<g id="Modelica.Electrical.Analog.Basic.M_Transformer" class="component">
		<polyline points="171.5,151.5 201.5,151.5" fill-opacity="0" stroke="#0000FF" stroke-width="1.0" stroke-linecap="butt" stroke-linejoin="round" />
		<polyline points="21.5,151.5 51.5,151.5" fill-opacity="0" stroke="#0000FF" stroke-width="1.0" stroke-linecap="butt" stroke-linejoin="round" />
		<polyline points="51.5,151.5 52.0,148.5 52.4,146.9 53.2,145.2 54.4,143.4 56.0,141.5 56.0,141.5 57.5,140.1 59.4,138.9 61.5,138.1 63.8,137.7 66.5,137.5 66.5,137.5 69.2,137.7 71.5,138.1 73.6,138.9 75.5,140.1 77.0,141.5 77.0,141.5 78.6,143.4 79.8,145.2 80.6,146.9 81.0,148.5 81.5,151.5" fill-opacity="0" stroke="#0000FF" stroke-width="1.0" stroke-linecap="butt" stroke-linejoin="round" />
		<polyline points="81.5,151.5 82.0,148.5 82.4,146.9 83.2,145.2 84.4,143.4 86.0,141.5 86.0,141.5 87.5,140.1 89.4,138.9 91.5,138.1 93.8,137.7 96.5,137.5 96.5,137.5 99.2,137.7 101.5,138.1 103.6,138.9 105.5,140.1 107.0,141.5 107.0,141.5 108.6,143.4 109.8,145.2 110.6,146.9 111.0,148.5 111.5,151.5" fill-opacity="0" stroke="#0000FF" stroke-width="1.0" stroke-linecap="butt" stroke-linejoin="round" />
		<polyline points="111.5,151.5 112.0,148.5 112.4,146.9 113.2,145.2 114.4,143.4 116.0,141.5 116.0,141.5 117.5,140.1 119.4,138.9 121.5,138.1 123.8,137.7 126.5,137.5 126.5,137.5 129.2,137.7 131.5,138.1 133.6,138.9 135.5,140.1 137.0,141.5 137.0,141.5 138.6,143.4 139.8,145.2 140.6,146.9 141.0,148.5 141.5,151.5" fill-opacity="0" stroke="#0000FF" stroke-width="1.0" stroke-linecap="butt" stroke-linejoin="round" />
		<polyline points="141.5,151.5 142.0,148.5 142.4,146.9 143.2,145.2 144.4,143.4 146.0,141.5 146.0,141.5 147.5,140.1 149.4,138.9 151.5,138.1 153.8,137.7 156.5,137.5 156.5,137.5 159.2,137.7 161.5,138.1 163.6,138.9 165.5,140.1 167.0,141.5 167.0,141.5 168.6,143.4 169.8,145.2 170.6,146.9 171.0,148.5 171.5,151.5" fill-opacity="0" stroke="#0000FF" stroke-width="1.0" stroke-linecap="butt" stroke-linejoin="round" />
		<polyline points="171.5,81.5 201.5,81.5" fill-opacity="0" stroke="#0000FF" stroke-width="1.0" stroke-linecap="butt" stroke-linejoin="round" />
		<polyline points="21.5,81.5 51.5,81.5" fill-opacity="0" stroke="#0000FF" stroke-width="1.0" stroke-linecap="butt" stroke-linejoin="round" />
		<polyline points="51.5,81.5 52.0,78.5 52.4,76.9 53.2,75.2 54.4,73.4 56.0,71.5 56.0,71.5 57.5,70.1 59.4,68.9 61.5,68.1 63.8,67.7 66.5,67.5 66.5,67.5 69.2,67.7 71.5,68.1 73.6,68.9 75.5,70.1 77.0,71.5 77.0,71.5 78.6,73.4 79.8,75.2 80.6,76.9 81.0,78.5 81.5,81.5" fill-opacity="0" stroke="#0000FF" stroke-width="1.0" stroke-linecap="butt" stroke-linejoin="round" />
		<polyline points="81.5,81.5 82.0,78.5 82.4,76.9 83.2,75.2 84.4,73.4 86.0,71.5 86.0,71.5 87.5,70.1 89.4,68.9 91.5,68.1 93.8,67.7 96.5,67.5 96.5,67.5 99.2,67.7 101.5,68.1 103.6,68.9 105.5,70.1 107.0,71.5 107.0,71.5 108.6,73.4 109.8,75.2 110.6,76.9 111.0,78.5 111.5,81.5" fill-opacity="0" stroke="#0000FF" stroke-width="1.0" stroke-linecap="butt" stroke-linejoin="round" />
		<polyline points="111.5,81.5 112.0,78.5 112.4,76.9 113.2,75.2 114.4,73.4 116.0,71.5 116.0,71.5 117.5,70.1 119.4,68.9 121.5,68.1 123.8,67.7 126.5,67.5 126.5,67.5 129.2,67.7 131.5,68.1 133.6,68.9 135.5,70.1 137.0,71.5 137.0,71.5 138.6,73.4 139.8,75.2 140.6,76.9 141.0,78.5 141.5,81.5" fill-opacity="0" stroke="#0000FF" stroke-width="1.0" stroke-linecap="butt" stroke-linejoin="round" />
		<polyline points="141.5,81.5 142.0,78.5 142.4,76.9 143.2,75.2 144.4,73.4 146.0,71.5 146.0,71.5 147.5,70.1 149.4,68.9 151.5,68.1 153.8,67.7 156.5,67.5 156.5,67.5 159.2,67.7 161.5,68.1 163.6,68.9 165.5,70.1 167.0,71.5 167.0,71.5 168.6,73.4 169.8,75.2 170.6,76.9 171.0,78.5 171.5,81.5" fill-opacity="0" stroke="#0000FF" stroke-width="1.0" stroke-linecap="butt" stroke-linejoin="round" />
		<polyline points="171.5,51.5 201.5,51.5" fill-opacity="0" stroke="#0000FF" stroke-width="1.0" stroke-linecap="butt" stroke-linejoin="round" />
		<polyline points="21.5,51.5 51.5,51.5" fill-opacity="0" stroke="#0000FF" stroke-width="1.0" stroke-linecap="butt" stroke-linejoin="round" />
		<polyline points="51.5,51.5 52.0,48.5 52.4,46.9 53.2,45.2 54.4,43.4 56.0,41.5 56.0,41.5 57.5,40.1 59.4,38.9 61.5,38.1 63.8,37.7 66.5,37.5 66.5,37.5 69.2,37.7 71.5,38.1 73.6,38.9 75.5,40.1 77.0,41.5 77.0,41.5 78.6,43.4 79.8,45.2 80.6,46.9 81.0,48.5 81.5,51.5" fill-opacity="0" stroke="#0000FF" stroke-width="1.0" stroke-linecap="butt" stroke-linejoin="round" />
		<polyline points="81.5,51.5 82.0,48.5 82.4,46.9 83.2,45.2 84.4,43.4 86.0,41.5 86.0,41.5 87.5,40.1 89.4,38.9 91.5,38.1 93.8,37.7 96.5,37.5 96.5,37.5 99.2,37.7 101.5,38.1 103.6,38.9 105.5,40.1 107.0,41.5 107.0,41.5 108.6,43.4 109.8,45.2 110.6,46.9 111.0,48.5 111.5,51.5" fill-opacity="0" stroke="#0000FF" stroke-width="1.0" stroke-linecap="butt" stroke-linejoin="round" />
		<polyline points="111.5,51.5 112.0,48.5 112.4,46.9 113.2,45.2 114.4,43.4 116.0,41.5 116.0,41.5 117.5,40.1 119.4,38.9 121.5,38.1 123.8,37.7 126.5,37.5 126.5,37.5 129.2,37.7 131.5,38.1 133.6,38.9 135.5,40.1 137.0,41.5 137.0,41.5 138.6,43.4 139.8,45.2 140.6,46.9 141.0,48.5 141.5,51.5" fill-opacity="0" stroke="#0000FF" stroke-width="1.0" stroke-linecap="butt" stroke-linejoin="round" />
		<polyline points="141.5,51.5 142.0,48.5 142.4,46.9 143.2,45.2 144.4,43.4 146.0,41.5 146.0,41.5 147.5,40.1 149.4,38.9 151.5,38.1 153.8,37.7 156.5,37.5 156.5,37.5 159.2,37.7 161.5,38.1 163.6,38.9 165.5,40.1 167.0,41.5 167.0,41.5 168.6,43.4 169.8,45.2 170.6,46.9 171.0,48.5 171.5,51.5" fill-opacity="0" stroke="#0000FF" stroke-width="1.0" stroke-linecap="butt" stroke-linejoin="round" />
		<polygon points="113.5,97.5 113.5,97.3 113.5,97.2 113.4,97.0 113.4,96.8 113.3,96.7 113.2,96.5 113.1,96.4 113.0,96.2 112.9,96.1 112.8,96.0 112.7,95.9 112.5,95.8 112.4,95.7 112.2,95.6 112.1,95.6 111.9,95.5 111.7,95.5 111.5,95.5 111.4,95.5 111.2,95.5 111.0,95.6 110.9,95.6 110.7,95.7 110.6,95.7 110.4,95.8 110.3,95.9 110.1,96.0 110.0,96.2 109.9,96.3 109.8,96.4 109.7,96.6 109.6,96.7 109.6,96.9 109.5,97.1 109.5,97.2 109.5,97.4 109.5,97.6 109.5,97.8 109.5,97.9 109.6,98.1 109.6,98.3 109.7,98.4 109.8,98.6 109.9,98.7 110.0,98.8 110.1,99.0 110.3,99.1 110.4,99.2 110.6,99.3 110.7,99.3 110.9,99.4 111.0,99.4 111.2,99.5 111.4,99.5 111.5,99.5 111.7,99.5 111.9,99.5 112.1,99.4 112.2,99.4 112.4,99.3 112.5,99.2 112.7,99.1 112.8,99.0 112.9,98.9 113.0,98.8 113.1,98.6 113.2,98.5 113.3,98.3 113.4,98.2 113.4,98.0 113.5,97.8 113.5,97.7" fill="#0000FF" stroke="#0000FF" stroke-width="1.0" stroke-linecap="butt" stroke-linejoin="round" />
		<polygon points="113.5,125.5 113.5,125.3 113.5,125.2 113.4,125.0 113.4,124.8 113.3,124.7 113.2,124.5 113.1,124.4 113.0,124.2 112.9,124.1 112.8,124.0 112.7,123.9 112.5,123.8 112.4,123.7 112.2,123.6 112.1,123.6 111.9,123.5 111.7,123.5 111.5,123.5 111.4,123.5 111.2,123.5 111.0,123.6 110.9,123.6 110.7,123.7 110.6,123.7 110.4,123.8 110.3,123.9 110.1,124.0 110.0,124.2 109.9,124.3 109.8,124.4 109.7,124.6 109.6,124.7 109.6,124.9 109.5,125.1 109.5,125.2 109.5,125.4 109.5,125.6 109.5,125.8 109.5,125.9 109.6,126.1 109.6,126.3 109.7,126.4 109.8,126.6 109.9,126.7 110.0,126.8 110.1,127.0 110.3,127.1 110.4,127.2 110.6,127.3 110.7,127.3 110.9,127.4 111.0,127.4 111.2,127.5 111.4,127.5 111.5,127.5 111.7,127.5 111.9,127.5 112.1,127.4 112.2,127.4 112.4,127.3 112.5,127.2 112.7,127.1 112.8,127.0 112.9,126.9 113.0,126.8 113.1,126.6 113.2,126.5 113.3,126.3 113.4,126.2 113.4,126.0 113.5,125.8 113.5,125.7" fill="#0000FF" stroke="#0000FF" stroke-width="1.0" stroke-linecap="butt" stroke-linejoin="round" />
		<polygon points="113.5,111.5 113.5,111.3 113.5,111.2 113.4,111.0 113.4,110.8 113.3,110.7 113.2,110.5 113.1,110.4 113.0,110.2 112.9,110.1 112.8,110.0 112.7,109.9 112.5,109.8 112.4,109.7 112.2,109.6 112.1,109.6 111.9,109.5 111.7,109.5 111.5,109.5 111.4,109.5 111.2,109.5 111.0,109.6 110.9,109.6 110.7,109.7 110.6,109.7 110.4,109.8 110.3,109.9 110.1,110.0 110.0,110.2 109.9,110.3 109.8,110.4 109.7,110.6 109.6,110.7 109.6,110.9 109.5,111.1 109.5,111.2 109.5,111.4 109.5,111.6 109.5,111.8 109.5,111.9 109.6,112.1 109.6,112.3 109.7,112.4 109.8,112.6 109.9,112.7 110.0,112.8 110.1,113.0 110.3,113.1 110.4,113.2 110.6,113.3 110.7,113.3 110.9,113.4 111.0,113.4 111.2,113.5 111.4,113.5 111.5,113.5 111.7,113.5 111.9,113.5 112.1,113.4 112.2,113.4 112.4,113.3 112.5,113.2 112.7,113.1 112.8,113.0 112.9,112.9 113.0,112.8 113.1,112.6 113.2,112.5 113.3,112.3 113.4,112.2 113.4,112.0 113.5,111.8 113.5,111.7" fill="#0000FF" stroke="#0000FF" stroke-width="1.0" stroke-linecap="butt" stroke-linejoin="round" />
		<g id="p" class="port">
			<polygon points="1.5,171.5 21.5,171.5 21.5,31.5 1.5,31.5" fill="#0000FF" stroke="#0000FF" stroke-width="1.0" stroke-linecap="butt" stroke-linejoin="round" />
		</g>
		<g id="n" class="port">
			<polygon points="201.5,171.5 221.5,171.5 221.5,31.5 201.5,31.5" fill="#FFFFFF" stroke="#0000FF" stroke-width="1.0" stroke-linecap="butt" stroke-linejoin="round" />
		</g>
	</g>
</svg>
