<svg width="211" height="206" xmlns="http://www.w3.org/2000/svg" xmlns:xlink="http://www.w3.org/1999/xlink">
	<g id="Modelica.Mechanics.MultiBody.Joints.Assemblies.JointRRR" class="component">
		<polygon points="13.9,193.9 193.9,193.9 193.9,13.9 13.9,13.9" fill="#FFFFFF" stroke="#FFFFFF" stroke-width="1.0" stroke-linecap="butt" stroke-linejoin="round" />
		<polygon points="53.9,103.9 53.8,101.8 53.5,99.6 53.1,97.5 52.4,95.5 51.6,93.5 50.6,91.6 49.5,89.7 48.2,88.0 46.8,86.4 45.2,84.9 43.5,83.6 41.7,82.4 39.8,81.4 37.8,80.6 35.8,79.9 33.7,79.4 31.6,79.0 29.4,78.9 27.3,79.0 25.1,79.2 23.0,79.6 21.0,80.2 19.0,81.0 17.0,81.9 15.2,83.0 13.4,84.3 11.8,85.7 10.3,87.2 8.9,88.9 7.7,90.6 6.6,92.5 5.8,94.5 5.0,96.5 4.5,98.6 4.1,100.7 3.9,102.8 3.9,105.0 4.1,107.1 4.5,109.2 5.0,111.3 5.8,113.3 6.6,115.3 7.7,117.2 8.9,118.9 10.3,120.6 11.8,122.1 13.4,123.5 15.2,124.8 17.0,125.9 19.0,126.8 21.0,127.6 23.0,128.2 25.1,128.6 27.3,128.8 29.4,128.9 31.6,128.8 33.7,128.4 35.8,127.9 37.8,127.2 39.8,126.4 41.7,125.4 43.5,124.2 45.2,122.9 46.8,121.4 48.2,119.8 49.5,118.1 50.6,116.2 51.6,114.3 52.4,112.3 53.1,110.3 53.5,108.2 53.8,106.0" fill="#C0C0C0" stroke="#000000" stroke-width="1.0" stroke-linecap="butt" stroke-linejoin="round" />
		<polygon points="38.9,103.9 38.9,103.0 38.8,102.2 38.6,101.3 38.3,100.5 38.0,99.7 37.6,99.0 37.1,98.2 36.6,97.5 36.0,96.9 35.4,96.3 34.7,95.8 34.0,95.3 33.3,94.9 32.5,94.6 31.7,94.3 30.8,94.1 30.0,94.0 29.1,93.9 28.3,93.9 27.4,94.0 26.6,94.2 25.7,94.4 24.9,94.7 24.2,95.1 23.4,95.5 22.7,96.0 22.1,96.6 21.5,97.2 20.9,97.9 20.4,98.6 20.0,99.3 19.6,100.1 19.4,100.9 19.1,101.8 19.0,102.6 18.9,103.5 18.9,104.3 19.0,105.2 19.1,106.0 19.4,106.9 19.6,107.7 20.0,108.5 20.4,109.2 20.9,109.9 21.5,110.6 22.1,111.2 22.7,111.8 23.4,112.3 24.2,112.7 24.9,113.1 25.7,113.4 26.6,113.6 27.4,113.8 28.3,113.9 29.1,113.9 30.0,113.8 30.8,113.7 31.7,113.5 32.5,113.2 33.3,112.9 34.0,112.5 34.7,112.0 35.4,111.5 36.0,110.9 36.6,110.3 37.1,109.6 37.6,108.8 38.0,108.1 38.3,107.3 38.6,106.5 38.8,105.6 38.9,104.8" fill="#000000" stroke="#000000" stroke-width="1.0" stroke-linecap="butt" stroke-linejoin="round" />
		<polygon points="203.9,103.9 203.8,101.8 203.5,99.6 203.1,97.5 202.4,95.5 201.6,93.5 200.6,91.6 199.5,89.7 198.2,88.0 196.8,86.4 195.2,84.9 193.5,83.6 191.7,82.4 189.8,81.4 187.8,80.6 185.8,79.9 183.7,79.4 181.6,79.0 179.4,78.9 177.3,79.0 175.1,79.2 173.0,79.6 171.0,80.2 169.0,81.0 167.0,81.9 165.2,83.0 163.4,84.3 161.8,85.7 160.3,87.2 158.9,88.9 157.7,90.6 156.6,92.5 155.8,94.5 155.0,96.5 154.5,98.6 154.1,100.7 153.9,102.8 153.9,105.0 154.1,107.1 154.5,109.2 155.0,111.3 155.8,113.3 156.6,115.3 157.7,117.2 158.9,118.9 160.3,120.6 161.8,122.1 163.4,123.5 165.2,124.8 167.0,125.9 169.0,126.8 171.0,127.6 173.0,128.2 175.1,128.6 177.3,128.8 179.4,128.9 181.6,128.8 183.7,128.4 185.8,127.9 187.8,127.2 189.8,126.4 191.7,125.4 193.5,124.2 195.2,122.9 196.8,121.4 198.2,119.8 199.5,118.1 200.6,116.2 201.6,114.3 202.4,112.3 203.1,110.3 203.5,108.2 203.8,106.0" fill="#C0C0C0" stroke="#000000" stroke-width="1.0" stroke-linecap="butt" stroke-linejoin="round" />
		<polygon points="188.9,103.9 188.9,103.0 188.8,102.2 188.6,101.3 188.3,100.5 188.0,99.7 187.6,99.0 187.1,98.2 186.6,97.5 186.0,96.9 185.4,96.3 184.7,95.8 184.0,95.3 183.3,94.9 182.5,94.6 181.7,94.3 180.8,94.1 180.0,94.0 179.1,93.9 178.3,93.9 177.4,94.0 176.6,94.2 175.7,94.4 174.9,94.7 174.2,95.1 173.4,95.5 172.7,96.0 172.1,96.6 171.5,97.2 170.9,97.9 170.4,98.6 170.0,99.3 169.6,100.1 169.4,100.9 169.1,101.8 169.0,102.6 168.9,103.5 168.9,104.3 169.0,105.2 169.1,106.0 169.4,106.9 169.6,107.7 170.0,108.5 170.4,109.2 170.9,109.9 171.5,110.6 172.1,111.2 172.7,111.8 173.4,112.3 174.2,112.7 174.9,113.1 175.7,113.4 176.6,113.6 177.4,113.8 178.3,113.9 179.1,113.9 180.0,113.8 180.8,113.7 181.7,113.5 182.5,113.2 183.3,112.9 184.0,112.5 184.7,112.0 185.4,111.5 186.0,110.9 186.6,110.3 187.1,109.6 187.6,108.8 188.0,108.1 188.3,107.3 188.6,106.5 188.8,105.6 188.9,104.8" fill="#000000" stroke="#000000" stroke-width="1.0" stroke-linecap="butt" stroke-linejoin="round" />
		<polygon points="127.9,48.9 127.8,46.8 127.5,44.6 127.1,42.5 126.4,40.5 125.6,38.5 124.6,36.6 123.5,34.7 122.2,33.0 120.8,31.4 119.2,29.9 117.5,28.6 115.7,27.4 113.8,26.4 111.8,25.6 109.8,24.9 107.7,24.4 105.6,24.0 103.4,23.9 101.3,24.0 99.1,24.2 97.0,24.6 95.0,25.2 93.0,26.0 91.0,26.9 89.2,28.0 87.4,29.3 85.8,30.7 84.3,32.2 82.9,33.9 81.7,35.6 80.6,37.5 79.8,39.5 79.0,41.5 78.5,43.6 78.1,45.7 77.9,47.8 77.9,50.0 78.1,52.1 78.5,54.2 79.0,56.3 79.8,58.3 80.6,60.3 81.7,62.2 82.9,63.9 84.3,65.6 85.8,67.1 87.4,68.5 89.2,69.8 91.0,70.9 93.0,71.8 95.0,72.6 97.0,73.2 99.1,73.6 101.3,73.8 103.4,73.9 105.6,73.8 107.7,73.4 109.8,72.9 111.8,72.2 113.8,71.4 115.7,70.4 117.5,69.2 119.2,67.9 120.8,66.4 122.2,64.8 123.5,63.1 124.6,61.2 125.6,59.3 126.4,57.3 127.1,55.3 127.5,53.2 127.8,51.0" fill="#C0C0C0" stroke="#000000" stroke-width="1.0" stroke-linecap="butt" stroke-linejoin="round" />
		<polygon points="113.9,47.9 113.9,47.0 113.8,46.2 113.6,45.3 113.3,44.5 113.0,43.7 112.6,43.0 112.1,42.2 111.6,41.5 111.0,40.9 110.4,40.3 109.7,39.8 109.0,39.3 108.3,38.9 107.5,38.6 106.7,38.3 105.8,38.1 105.0,38.0 104.1,37.9 103.3,37.9 102.4,38.0 101.6,38.2 100.7,38.4 99.9,38.7 99.2,39.1 98.4,39.5 97.7,40.0 97.1,40.6 96.5,41.2 95.9,41.9 95.4,42.6 95.0,43.3 94.6,44.1 94.4,44.9 94.1,45.8 94.0,46.6 93.9,47.5 93.9,48.3 94.0,49.2 94.1,50.0 94.4,50.9 94.6,51.7 95.0,52.5 95.4,53.2 95.9,53.9 96.5,54.6 97.1,55.2 97.7,55.8 98.4,56.3 99.2,56.7 99.9,57.1 100.7,57.4 101.6,57.6 102.4,57.8 103.3,57.9 104.1,57.9 105.0,57.8 105.8,57.7 106.7,57.5 107.5,57.2 108.3,56.9 109.0,56.5 109.7,56.0 110.4,55.5 111.0,54.9 111.6,54.3 112.1,53.6 112.6,52.8 113.0,52.1 113.3,51.3 113.6,50.5 113.8,49.6 113.9,48.8" fill="#000000" stroke="#000000" stroke-width="1.0" stroke-linecap="butt" stroke-linejoin="round" />
		<polygon points="32.9,94.9 79.9,58.9 84.9,64.9 37.9,100.9" fill="#000000" stroke="#000000" stroke-width="1.0" stroke-linecap="butt" stroke-linejoin="round" />
		<polygon points="157.9,91.9 108.9,56.9 113.9,51.9 162.9,85.9" fill="#000000" stroke="#000000" stroke-width="1.0" stroke-linecap="butt" stroke-linejoin="round" />
		<polygon points="203.9,107.9 186.9,107.9 187.9,100.9 203.9,100.9" fill="#000000" stroke="#000000" stroke-width="1.0" stroke-linecap="butt" stroke-linejoin="round" />
		<polyline points="183.9,79.9 183.9,23.9 183.9,23.9 183.9,3.9" fill-opacity="0" stroke="#5F5F5F" stroke-width="1.0" stroke-linecap="butt" stroke-linejoin="round" />
		<polyline points="103.9,46.9 103.9,17.9 103.9,17.9 103.9,3.9" fill-opacity="0" stroke="#5F5F5F" stroke-width="1.0" stroke-linecap="butt" stroke-linejoin="round" />
		<polyline points="23.9,3.9 23.9,95.9" fill-opacity="0" stroke="#5F5F5F" stroke-width="1.0" stroke-linecap="butt" stroke-linejoin="round" />
		<polyline points="183.9,23.9 204.9,23.9" fill-opacity="0" stroke="#5F5F5F" stroke-width="1.0" stroke-linecap="butt" stroke-linejoin="round" />
		<polyline points="203.9,63.9 196.9,63.9 196.9,100.9" fill-opacity="0" stroke="#5F5F5F" stroke-width="1.0" stroke-linecap="butt" stroke-linejoin="round" />
		<g id="frame_a" class="port">
			<polygon points="3.1,104.7 4.7,104.7 4.7,103.1 3.1,103.1" fill-opacity="0" stroke="#5F5F5F" stroke-width="1.0" stroke-linecap="butt" stroke-linejoin="round" />
			<polygon points="1.5,111.9 6.3,111.9 6.3,95.9 1.5,95.9" fill="#C0C0C0" stroke="#000000" stroke-width="1.0" stroke-linecap="butt" stroke-linejoin="round" />
		</g>
		<g id="frame_b" class="port">
			<polygon points="203.1,104.7 204.7,104.7 204.7,103.1 203.1,103.1" fill-opacity="0" stroke="#5F5F5F" stroke-width="1.0" stroke-linecap="butt" stroke-linejoin="round" />
			<polygon points="201.5,111.9 206.3,111.9 206.3,95.9 201.5,95.9" fill="#FFFFFF" stroke="#000000" stroke-width="1.0" stroke-linecap="butt" stroke-linejoin="round" />
		</g>
		<g id="frame_ia" class="port">
			<polygon points="24.7,4.7 24.7,3.1 23.1,3.1 23.1,4.7" fill-opacity="0" stroke="#5F5F5F" stroke-width="1.0" stroke-linecap="butt" stroke-linejoin="round" />
			<polygon points="31.9,6.3 31.9,1.5 15.9,1.5 15.9,6.3" fill="#C0C0C0" stroke="#000000" stroke-width="1.0" stroke-linecap="butt" stroke-linejoin="round" />
		</g>
		<g id="frame_ib" class="port">
			<polygon points="184.7,3.1 184.7,4.7 183.1,4.7 183.1,3.1" fill-opacity="0" stroke="#5F5F5F" stroke-width="1.0" stroke-linecap="butt" stroke-linejoin="round" />
			<polygon points="191.9,1.5 191.9,6.3 175.9,6.3 175.9,1.5" fill="#FFFFFF" stroke="#000000" stroke-width="1.0" stroke-linecap="butt" stroke-linejoin="round" />
		</g>
		<g id="frame_im" class="port">
			<polygon points="103.1,4.7 103.1,3.1 104.7,3.1 104.7,4.7" fill-opacity="0" stroke="#5F5F5F" stroke-width="1.0" stroke-linecap="butt" stroke-linejoin="round" />
			<polygon points="95.9,6.3 95.9,1.5 111.9,1.5 111.9,6.3" fill="#FFFFFF" stroke="#000000" stroke-width="1.0" stroke-linecap="butt" stroke-linejoin="round" />
		</g>
		<g id="axis" class="port">
			<polygon points="198.9,23.9 198.9,24.3 199.0,24.8 199.1,25.2 199.2,25.6 199.4,26.0 199.6,26.4 199.8,26.7 200.0,27.1 200.3,27.4 200.6,27.7 201.0,28.0 201.3,28.2 201.7,28.4 202.1,28.6 202.5,28.7 202.9,28.8 203.4,28.9 203.8,28.9 204.2,28.9 204.7,28.8 205.1,28.8 205.5,28.6 205.9,28.5 206.3,28.3 206.6,28.1 207.0,27.8 207.3,27.5 207.6,27.2 207.9,26.9 208.1,26.6 208.4,26.2 208.5,25.8 208.7,25.4 208.8,25.0 208.9,24.5 208.9,24.1 208.9,23.7 208.9,23.3 208.8,22.8 208.7,22.4 208.5,22.0 208.4,21.6 208.1,21.2 207.9,20.9 207.6,20.6 207.3,20.3 207.0,20.0 206.6,19.7 206.3,19.5 205.9,19.3 205.5,19.2 205.1,19.0 204.7,19.0 204.2,18.9 203.8,18.9 203.4,18.9 202.9,19.0 202.5,19.1 202.1,19.2 201.7,19.4 201.3,19.6 201.0,19.8 200.6,20.1 200.3,20.4 200.0,20.7 199.8,21.1 199.6,21.4 199.4,21.8 199.2,22.2 199.1,22.6 199.0,23.0 198.9,23.5" fill="#5F5F5F" stroke="#000000" stroke-width="1.0" stroke-linecap="butt" stroke-linejoin="round" />
		</g>
		<g id="bearing" class="port">
			<polygon points="208.9,63.9 208.9,64.3 208.8,64.8 208.7,65.2 208.6,65.6 208.4,66.0 208.2,66.4 208.0,66.7 207.8,67.1 207.5,67.4 207.2,67.7 206.8,68.0 206.5,68.2 206.1,68.4 205.7,68.6 205.3,68.7 204.9,68.8 204.4,68.9 204.0,68.9 203.6,68.9 203.1,68.8 202.7,68.8 202.3,68.6 201.9,68.5 201.5,68.3 201.2,68.1 200.8,67.8 200.5,67.5 200.2,67.2 199.9,66.9 199.7,66.6 199.4,66.2 199.3,65.8 199.1,65.4 199.0,65.0 198.9,64.5 198.9,64.1 198.9,63.7 198.9,63.3 199.0,62.8 199.1,62.4 199.3,62.0 199.4,61.6 199.7,61.2 199.9,60.9 200.2,60.6 200.5,60.3 200.8,60.0 201.2,59.7 201.5,59.5 201.9,59.3 202.3,59.2 202.7,59.0 203.1,59.0 203.6,58.9 204.0,58.9 204.4,58.9 204.9,59.0 205.3,59.1 205.7,59.2 206.1,59.4 206.5,59.6 206.8,59.8 207.2,60.1 207.5,60.4 207.8,60.7 208.0,61.1 208.2,61.4 208.4,61.8 208.6,62.2 208.7,62.6 208.8,63.0 208.9,63.5" fill="#FFFFFF" stroke="#000000" stroke-width="1.0" stroke-linecap="butt" stroke-linejoin="round" />
		</g>
	</g>
</svg>
