<svg width="203" height="203" xmlns="http://www.w3.org/2000/svg" xmlns:xlink="http://www.w3.org/1999/xlink">
	<g id="Modelica.Mechanics.MultiBody.Joints.RollingWheel" class="component">
		<polygon points="1.5,201.5 201.5,201.5 201.5,181.5 1.5,181.5" fill="#AFAFAF" stroke="#000000" stroke-width="1.0" stroke-linecap="butt" stroke-linejoin="round" />
		<polygon points="181.5,101.5 181.2,94.6 180.3,87.8 178.8,81.1 176.8,74.5 174.2,68.1 171.1,62.0 167.4,56.2 163.3,50.7 158.7,45.5 153.7,40.8 148.2,36.6 142.5,32.8 136.4,29.5 130.1,26.8 123.6,24.6 116.9,23.0 110.1,22.0 103.2,21.5 96.3,21.7 89.5,22.4 82.7,23.7 76.1,25.6 69.7,28.1 63.5,31.1 57.6,34.6 52.0,38.6 46.8,43.1 42.0,48.1 37.6,53.4 33.7,59.0 30.3,65.0 27.4,71.3 25.1,77.8 23.3,84.4 22.2,91.2 21.6,98.1 21.6,104.9 22.2,111.8 23.3,118.6 25.1,125.2 27.4,131.7 30.3,138.0 33.7,144.0 37.6,149.6 42.0,154.9 46.8,159.9 52.0,164.4 57.6,168.4 63.5,171.9 69.7,174.9 76.1,177.4 82.7,179.3 89.5,180.6 96.3,181.3 103.2,181.5 110.1,181.0 116.9,180.0 123.6,178.4 130.1,176.2 136.4,173.5 142.5,170.2 148.2,166.4 153.7,162.2 158.7,157.5 163.3,152.3 167.4,146.8 171.1,141.0 174.2,134.9 176.8,128.5 178.8,121.9 180.3,115.2 181.2,108.4" fill="#FFFFFF" stroke="#000000" stroke-width="1.0" stroke-linecap="butt" stroke-linejoin="round" />
		<g id="frame_a" class="port">
			<polygon points="99.9,103.1 103.1,103.1 103.1,99.9 99.9,99.9" fill-opacity="0" stroke="#5F5F5F" stroke-width="1.0" stroke-linecap="butt" stroke-linejoin="round" />
			<polygon points="96.7,117.5 106.3,117.5 106.3,85.5 96.7,85.5" fill="#C0C0C0" stroke="#000000" stroke-width="1.0" stroke-linecap="butt" stroke-linejoin="round" />
		</g>
	</g>
</svg>
