<svg width="248" height="208" xmlns="http://www.w3.org/2000/svg" xmlns:xlink="http://www.w3.org/1999/xlink">
	<g id="Modelica.Mechanics.MultiBody.Forces.WorldForce" class="component">
		<text x="141.5" y="177.0" text-anchor="middle" fill="#C0C0C0" font-size="39.9px" font-family="sans-serif">resolve</text>
		<polygon points="41.5,91.5 191.5,91.5 191.5,70.5 235.5,101.5 191.5,132.5 191.5,111.5 41.5,111.5" fill="#000000" stroke="#000000" stroke-width="1.0" stroke-linecap="round" stroke-linejoin="round" />
		<polyline points="141.5,111.5 141.5,196.5" fill-opacity="0" stroke="#5F5F5F" stroke-dasharray="1 2" stroke-width="1.0" stroke-linecap="round" stroke-linejoin="round" />
		<g id="frame_b" class="port">
			<polygon points="239.9,103.1 243.1,103.1 243.1,99.9 239.9,99.9" fill-opacity="0" stroke="#5F5F5F" stroke-width="1.0" stroke-linecap="round" stroke-linejoin="round" />
			<polygon points="236.7,117.5 246.3,117.5 246.3,85.5 236.7,85.5" fill="#FFFFFF" stroke="#000000" stroke-width="1.0" stroke-linecap="round" stroke-linejoin="round" />
		</g>
		<g id="frame_resolve" class="port">
			<polygon points="139.9,199.9 139.9,203.1 143.1,203.1 143.1,199.9" fill-opacity="0" stroke="#5F5F5F" stroke-dasharray="1 2" stroke-width="1.0" stroke-linecap="round" stroke-linejoin="round" />
			<polygon points="125.5,196.7 125.5,206.3 157.5,206.3 157.5,196.7" fill="#FFFFFF" stroke="#5F5F5F" stroke-dasharray="1 2" stroke-width="1.0" stroke-linecap="round" stroke-linejoin="round" />
		</g>
		<g id="force" class="port">
			<polygon points="1.5,81.5 41.5,101.5 1.5,121.5" fill="#00007F" stroke="#00007F" stroke-width="1.0" stroke-linecap="round" stroke-linejoin="round" />
		</g>
	</g>
</svg>
