<svg width="203" height="203" xmlns="http://www.w3.org/2000/svg" xmlns:xlink="http://www.w3.org/1999/xlink">
	<g id="Modelica.Electrical.QuasiStationary.MultiPhase.Basic.PlugToPin_p" class="component">
		<polygon points="81.5,121.5 141.5,121.5 141.5,81.5 81.5,81.5" fill="#D7D7D7" stroke="#000000" stroke-width="1.0" stroke-linecap="round" stroke-linejoin="round" />
		<polygon points="101.5,101.5 101.4,99.8 101.2,98.1 100.8,96.4 100.3,94.7 99.7,93.2 98.9,91.6 98.0,90.2 96.9,88.8 95.8,87.5 94.5,86.3 93.2,85.3 91.7,84.3 90.2,83.5 88.7,82.8 87.0,82.3 85.3,81.9 83.6,81.6 81.9,81.5 80.2,81.5 78.5,81.7 76.8,82.1 75.2,82.5 73.5,83.1 72.0,83.9 70.5,84.8 69.1,85.8 67.8,86.9 66.6,88.1 65.5,89.5 64.5,90.9 63.7,92.4 63.0,93.9 62.4,95.6 62.0,97.2 61.7,98.9 61.5,100.6 61.5,102.4 61.7,104.1 62.0,105.8 62.4,107.4 63.0,109.1 63.7,110.6 64.5,112.1 65.5,113.5 66.6,114.9 67.8,116.1 69.1,117.2 70.5,118.2 72.0,119.1 73.5,119.9 75.2,120.5 76.8,120.9 78.5,121.3 80.2,121.5 81.9,121.5 83.6,121.4 85.3,121.1 87.0,120.7 88.7,120.2 90.2,119.5 91.7,118.7 93.2,117.7 94.5,116.7 95.8,115.5 96.9,114.2 98.0,112.8 98.9,111.4 99.7,109.8 100.3,108.3 100.8,106.6 101.2,104.9 101.4,103.2" fill="#D7D7D7" stroke="#000000" stroke-width="1.0" stroke-linecap="round" stroke-linejoin="round" />
		<g id="plug_p" class="port">
			<polygon points="91.5,101.5 91.5,100.6 91.4,99.8 91.2,98.9 90.9,98.1 90.6,97.3 90.2,96.6 89.7,95.8 89.2,95.1 88.6,94.5 88.0,93.9 87.3,93.4 86.6,92.9 85.9,92.5 85.1,92.2 84.3,91.9 83.4,91.7 82.6,91.6 81.7,91.5 80.9,91.5 80.0,91.6 79.2,91.8 78.3,92.0 77.5,92.3 76.8,92.7 76.0,93.1 75.3,93.6 74.7,94.2 74.1,94.8 73.5,95.5 73.0,96.2 72.6,96.9 72.2,97.7 72.0,98.5 71.7,99.4 71.6,100.2 71.5,101.1 71.5,101.9 71.6,102.8 71.7,103.6 72.0,104.5 72.2,105.3 72.6,106.1 73.0,106.8 73.5,107.5 74.1,108.2 74.7,108.8 75.3,109.4 76.0,109.9 76.8,110.3 77.5,110.7 78.3,111.0 79.2,111.2 80.0,111.4 80.9,111.5 81.7,111.5 82.6,111.4 83.4,111.3 84.3,111.1 85.1,110.8 85.9,110.5 86.6,110.1 87.3,109.6 88.0,109.1 88.6,108.5 89.2,107.9 89.7,107.2 90.2,106.4 90.6,105.7 90.9,104.9 91.2,104.1 91.4,103.2 91.5,102.4" fill="#55AAFF" stroke="#55AAFF" stroke-width="1.0" stroke-linecap="round" stroke-linejoin="round" />
		</g>
		<g id="pin_p" class="port">
			<polygon points="111.5,111.5 131.5,111.5 131.5,91.5 111.5,91.5" fill="#55AAFF" stroke="#55AAFF" stroke-width="1.0" stroke-linecap="round" stroke-linejoin="round" />
		</g>
	</g>
</svg>
