<svg width="203" height="203" xmlns="http://www.w3.org/2000/svg" xmlns:xlink="http://www.w3.org/1999/xlink">
	<g id="Modelica.Mechanics.MultiBody.Icons.MotorIcon" class="component">
		<defs>
			<linearGradient id="cyl2" x1="0" y1="0" x2="0" y2="1">
				<stop offset="0%" stop-color="#404040" />
				<stop offset="5%" stop-color="#646464" />
				<stop offset="10%" stop-color="#858585" />
				<stop offset="15%" stop-color="#A1A1A1" />
				<stop offset="20%" stop-color="#BABABA" />
				<stop offset="25%" stop-color="#CFCFCF" />
				<stop offset="30%" stop-color="#E0E0E0" />
				<stop offset="35%" stop-color="#EEEEEE" />
				<stop offset="40%" stop-color="#F7F7F7" />
				<stop offset="45%" stop-color="#FDFDFD" />
				<stop offset="50%" stop-color="#FFFFFF" />
				<stop offset="55%" stop-color="#FDFDFD" />
				<stop offset="60%" stop-color="#F7F7F7" />
				<stop offset="65%" stop-color="#EEEEEE" />
				<stop offset="70%" stop-color="#E0E0E0" />
				<stop offset="75%" stop-color="#CFCFCF" />
				<stop offset="80%" stop-color="#BABABA" />
				<stop offset="85%" stop-color="#A1A1A1" />
				<stop offset="90%" stop-color="#858585" />
				<stop offset="95%" stop-color="#646464" />
				<stop offset="100%" stop-color="#404040" />
			</linearGradient>
		</defs>
		<polygon points="131.5,111.5 191.5,111.5 191.5,91.5 131.5,91.5" fill="url(#cyl2)" stroke="#404040" stroke-width="1.0" stroke-linecap="butt" stroke-linejoin="round" />
		<defs>
			<linearGradient id="cyl3" x1="0" y1="0" x2="0" y2="1">
				<stop offset="0%" stop-color="#520002" />
				<stop offset="5%" stop-color="#72070C" />
				<stop offset="10%" stop-color="#8F0D16" />
				<stop offset="15%" stop-color="#A9131E" />
				<stop offset="20%" stop-color="#BF1825" />
				<stop offset="25%" stop-color="#D21C2B" />
				<stop offset="30%" stop-color="#E11F30" />
				<stop offset="35%" stop-color="#ED2234" />
				<stop offset="40%" stop-color="#F52437" />
				<stop offset="45%" stop-color="#FA2538" />
				<stop offset="50%" stop-color="#FC2539" />
				<stop offset="55%" stop-color="#FA2538" />
				<stop offset="60%" stop-color="#F52437" />
				<stop offset="65%" stop-color="#ED2234" />
				<stop offset="70%" stop-color="#E11F30" />
				<stop offset="75%" stop-color="#D21C2B" />
				<stop offset="80%" stop-color="#BF1825" />
				<stop offset="85%" stop-color="#A9131E" />
				<stop offset="90%" stop-color="#8F0D16" />
				<stop offset="95%" stop-color="#72070C" />
				<stop offset="100%" stop-color="#520002" />
			</linearGradient>
		</defs>
		<polygon points="4.4,148.6 6.5,150.2 8.9,151.2 11.5,151.5 11.5,151.5 27.3,151.5 66.5,151.5 66.5,151.5 105.7,151.5 121.5,151.5 121.5,151.5 123.5,151.3 125.3,150.8 127.0,149.9 128.6,148.6 128.6,148.6 129.9,147.0 130.8,145.3 131.3,143.5 131.5,141.5 131.5,141.5 131.5,129.4 131.5,101.5 131.5,101.5 131.5,73.6 131.5,61.5 131.5,61.5 131.3,59.5 130.8,57.7 129.9,56.0 128.6,54.4 128.6,54.4 127.0,53.1 125.3,52.2 123.5,51.7 121.5,51.5 121.5,51.5 105.7,51.5 66.5,51.5 66.5,51.5 27.3,51.5 11.5,51.5 11.5,51.5 8.9,51.8 6.5,52.8 4.4,54.4 4.4,54.4 3.1,56.0 2.2,57.7 1.7,59.5 1.5,61.5 1.5,61.5 1.5,73.6 1.5,101.5 1.5,101.5 1.5,129.4 1.5,141.5 1.5,141.5 1.7,143.5 2.2,145.3 3.1,147.0" fill="url(#cyl3)" stroke="#520002" stroke-width="1.0" stroke-linecap="butt" stroke-linejoin="round" />
		<polygon points="1.5,161.5 11.5,161.5 41.5,121.5 91.5,121.5 121.5,161.5 131.5,161.5 131.5,171.5 1.5,171.5" fill="#404040" stroke="#000000" stroke-width="1.0" stroke-linecap="butt" stroke-linejoin="round" />
	</g>
</svg>
