<svg width="303" height="303" xmlns="http://www.w3.org/2000/svg" xmlns:xlink="http://www.w3.org/1999/xlink">
	<g id="Modelica.Mechanics.Rotational.Interfaces.Support" class="component">
		<polygon points="251.5,151.5 251.1,142.9 250.0,134.4 248.2,126.0 245.6,117.7 242.4,109.8 238.5,102.1 233.9,94.8 228.7,88.0 223.0,81.6 216.7,75.7 209.9,70.3 202.7,65.6 195.2,61.5 187.3,58.1 179.1,55.4 170.7,53.4 162.2,52.1 153.7,51.5 145.0,51.7 136.5,52.6 128.1,54.3 119.8,56.7 111.7,59.7 104.0,63.5 96.6,67.9 89.6,72.9 83.1,78.5 77.1,84.7 71.6,91.3 66.7,98.4 62.5,105.9 58.9,113.7 56.0,121.8 53.8,130.1 52.3,138.6 51.6,147.2 51.6,155.8 52.3,164.4 53.8,172.9 56.0,181.2 58.9,189.3 62.5,197.1 66.7,204.6 71.6,211.7 77.1,218.3 83.1,224.5 89.6,230.1 96.6,235.1 104.0,239.5 111.7,243.3 119.8,246.3 128.1,248.7 136.5,250.4 145.0,251.3 153.7,251.5 162.2,250.9 170.7,249.6 179.1,247.6 187.3,244.9 195.2,241.5 202.7,237.4 209.9,232.7 216.7,227.3 223.0,221.4 228.7,215.0 233.9,208.2 238.5,200.9 242.4,193.2 245.6,185.3 248.2,177.0 250.0,168.6 251.1,160.1" fill="#5F5F5F" stroke="#000000" stroke-width="1.0" stroke-linecap="round" stroke-linejoin="round" />
		<polygon points="1.5,301.5 301.5,301.5 301.5,1.5 1.5,1.5" fill="#C0C0C0" stroke="#C0C0C0" stroke-width="1.0" stroke-linecap="round" stroke-linejoin="round" />
		<polygon points="251.5,151.5 251.1,142.9 250.0,134.4 248.2,126.0 245.6,117.7 242.4,109.8 238.5,102.1 233.9,94.8 228.7,88.0 223.0,81.6 216.7,75.7 209.9,70.3 202.7,65.6 195.2,61.5 187.3,58.1 179.1,55.4 170.7,53.4 162.2,52.1 153.7,51.5 145.0,51.7 136.5,52.6 128.1,54.3 119.8,56.7 111.7,59.7 104.0,63.5 96.6,67.9 89.6,72.9 83.1,78.5 77.1,84.7 71.6,91.3 66.7,98.4 62.5,105.9 58.9,113.7 56.0,121.8 53.8,130.1 52.3,138.6 51.6,147.2 51.6,155.8 52.3,164.4 53.8,172.9 56.0,181.2 58.9,189.3 62.5,197.1 66.7,204.6 71.6,211.7 77.1,218.3 83.1,224.5 89.6,230.1 96.6,235.1 104.0,239.5 111.7,243.3 119.8,246.3 128.1,248.7 136.5,250.4 145.0,251.3 153.7,251.5 162.2,250.9 170.7,249.6 179.1,247.6 187.3,244.9 195.2,241.5 202.7,237.4 209.9,232.7 216.7,227.3 223.0,221.4 228.7,215.0 233.9,208.2 238.5,200.9 242.4,193.2 245.6,185.3 248.2,177.0 250.0,168.6 251.1,160.1" fill="#5F5F5F" stroke="#000000" stroke-width="1.0" stroke-linecap="round" stroke-linejoin="round" />
	</g>
</svg>
