<svg width="263" height="203" xmlns="http://www.w3.org/2000/svg" xmlns:xlink="http://www.w3.org/1999/xlink">
	<g id="Modelica.Blocks.Math.Tan" class="component">
		<polygon points="41.5,201.5 241.5,201.5 241.5,1.5 41.5,1.5" fill="#FFFFFF" stroke="#00007F" stroke-width="1.0" stroke-linecap="butt" stroke-linejoin="round" />
		<polygon points="141.5,11.5 133.5,33.5 149.5,33.5" fill="#C0C0C0" stroke="#C0C0C0" stroke-width="1.0" stroke-linecap="butt" stroke-linejoin="round" />
		<polyline points="141.5,181.5 141.5,33.5" fill-opacity="0" stroke="#C0C0C0" stroke-width="1.0" stroke-linecap="butt" stroke-linejoin="round" />
		<polyline points="61.5,181.5 62.3,175.7 62.8,172.0 63.4,168.6 63.9,165.6 63.9,165.6 64.5,162.6 65.1,159.5 65.9,156.4 65.9,156.4 66.5,153.9 67.2,151.6 67.9,149.2 68.7,147.0 68.7,147.0 69.5,144.7 70.4,142.6 71.4,140.5 72.4,138.4 72.4,138.4 73.4,136.5 74.7,134.5 76.1,132.4 77.6,130.4 77.6,130.4 78.9,128.8 80.4,127.2 82.0,125.6 83.7,124.0 85.6,122.5 85.6,122.5 87.3,121.2 89.1,120.0 91.1,118.7 93.3,117.5 95.6,116.3 98.0,115.1 98.0,115.1 100.8,113.9 104.0,112.6 107.7,111.3 111.8,109.9 116.4,108.5 121.4,107.0 121.4,107.0 137.9,102.4 156.0,97.5 156.0,97.5 163.1,95.5 169.4,93.6 174.8,91.9 179.3,90.3 182.9,88.8 182.9,88.8 185.5,87.7 187.9,86.5 190.1,85.3 192.2,84.1 194.0,83.0 195.8,81.8 195.8,81.8 197.6,80.4 199.4,79.0 201.0,77.5 202.5,76.1 203.8,74.6 203.8,74.6 205.4,72.7 206.8,70.8 208.2,68.7 209.4,66.6 209.4,66.6 210.6,64.5 211.7,62.4 212.6,60.3 213.5,58.2 213.5,58.2 214.3,56.2 215.0,54.0 215.7,51.9 216.3,49.8 216.3,49.8 217.1,46.9 217.7,44.2 218.3,41.6 218.3,41.6 218.9,38.5 219.5,34.5 220.3,29.6 221.5,21.5" fill-opacity="0" stroke="#000000" stroke-width="1.0" stroke-linecap="butt" stroke-linejoin="round" />
		<polyline points="51.5,101.5 209.5,101.5" fill-opacity="0" stroke="#C0C0C0" stroke-width="1.0" stroke-linecap="butt" stroke-linejoin="round" />
		<polygon points="231.5,101.5 209.5,93.5 209.5,109.5" fill="#C0C0C0" stroke="#C0C0C0" stroke-width="1.0" stroke-linecap="butt" stroke-linejoin="round" />
		<text x="87.5" y="72.9" text-anchor="middle" fill="#C0C0C0" font-size="53.7px" font-family="sans-serif">tan</text>
		<g id="u" class="port">
			<polygon points="1.5,81.5 41.5,101.5 1.5,121.5" fill="#00007F" stroke="#00007F" stroke-width="1.0" stroke-linecap="butt" stroke-linejoin="round" />
		</g>
		<g id="y" class="port">
			<polygon points="241.5,91.5 261.5,101.5 241.5,111.5" fill="#FFFFFF" stroke="#00007F" stroke-width="1.0" stroke-linecap="butt" stroke-linejoin="round" />
		</g>
	</g>
</svg>
