<svg width="233" height="218" xmlns="http://www.w3.org/2000/svg" xmlns:xlink="http://www.w3.org/1999/xlink">
	<g id="Modelica.Mechanics.Rotational.Components.IdealGearR2T" class="component">
		<polyline points="201.5,211.5 211.5,201.5" fill-opacity="0" stroke="#007F00" stroke-width="1.0" stroke-linecap="round" stroke-linejoin="round" />
		<polyline points="211.5,211.5 221.5,201.5" fill-opacity="0" stroke="#007F00" stroke-width="1.0" stroke-linecap="round" stroke-linejoin="round" />
		<polyline points="221.5,211.5 231.5,201.5" fill-opacity="0" stroke="#007F00" stroke-width="1.0" stroke-linecap="round" stroke-linejoin="round" />
		<polyline points="201.5,201.5 231.5,201.5" fill-opacity="0" stroke="#007F00" stroke-width="1.0" stroke-linecap="round" stroke-linejoin="round" />
		<polyline points="1.5,211.5 11.5,201.5" fill-opacity="0" stroke="#000000" stroke-width="1.0" stroke-linecap="round" stroke-linejoin="round" />
		<polyline points="11.5,211.5 21.5,201.5" fill-opacity="0" stroke="#000000" stroke-width="1.0" stroke-linecap="round" stroke-linejoin="round" />
		<polyline points="21.5,211.5 31.5,201.5" fill-opacity="0" stroke="#000000" stroke-width="1.0" stroke-linecap="round" stroke-linejoin="round" />
		<polyline points="1.5,201.5 31.5,201.5" fill-opacity="0" stroke="#000000" stroke-width="1.0" stroke-linecap="round" stroke-linejoin="round" />
		<defs>
			<linearGradient id="cyl10" x1="0" y1="0" x2="0" y2="1">
				<stop offset="0%" stop-color="#404040" />
				<stop offset="5%" stop-color="#585858" />
				<stop offset="10%" stop-color="#6E6E6E" />
				<stop offset="15%" stop-color="#818181" />
				<stop offset="20%" stop-color="#929292" />
				<stop offset="25%" stop-color="#A0A0A0" />
				<stop offset="30%" stop-color="#ACACAC" />
				<stop offset="35%" stop-color="#B4B4B4" />
				<stop offset="40%" stop-color="#BBBBBB" />
				<stop offset="45%" stop-color="#BFBFBF" />
				<stop offset="50%" stop-color="#C0C0C0" />
				<stop offset="55%" stop-color="#BFBFBF" />
				<stop offset="60%" stop-color="#BBBBBB" />
				<stop offset="65%" stop-color="#B4B4B4" />
				<stop offset="70%" stop-color="#ACACAC" />
				<stop offset="75%" stop-color="#A0A0A0" />
				<stop offset="80%" stop-color="#929292" />
				<stop offset="85%" stop-color="#818181" />
				<stop offset="90%" stop-color="#6E6E6E" />
				<stop offset="95%" stop-color="#585858" />
				<stop offset="100%" stop-color="#404040" />
			</linearGradient>
		</defs>
		<polygon points="16.5,111.5 86.5,111.5 86.5,91.5 16.5,91.5" fill="url(#cyl10)" stroke="#404040" stroke-width="1.0" stroke-linecap="round" stroke-linejoin="round" />
		<polygon points="211.5,161.5 222.5,161.5 222.5,111.5 211.5,111.5" fill="#83AF83" stroke="#000000" stroke-width="1.0" stroke-linecap="round" stroke-linejoin="round" />
		<polygon points="42.1,181.5 223.1,181.5 223.1,161.5 42.1,161.5" fill="#83AF83" stroke="#000000" stroke-width="1.0" stroke-linecap="round" stroke-linejoin="round" />
		<polyline points="16.5,85.5 36.5,85.5" fill-opacity="0" stroke="#000000" stroke-width="1.0" stroke-linecap="round" stroke-linejoin="round" />
		<polyline points="16.5,117.5 36.5,117.5" fill-opacity="0" stroke="#000000" stroke-width="1.0" stroke-linecap="round" stroke-linejoin="round" />
		<polyline points="16.5,117.5 16.5,201.5" fill-opacity="0" stroke="#000000" stroke-width="1.0" stroke-linecap="round" stroke-linejoin="round" />
		<polyline points="216.5,181.5 216.5,201.5" fill-opacity="0" stroke="#007F00" stroke-width="1.0" stroke-linecap="round" stroke-linejoin="round" />
		<polygon points="49.0,161.5 54.0,141.5 64.0,141.5 69.0,161.5 79.0,161.5 84.0,141.5 94.0,141.5 99.0,161.5 109.0,161.5 114.0,141.5 124.0,141.5 129.0,161.5 139.0,161.5 144.0,141.5 154.0,141.5 159.0,161.5 169.0,161.5 174.0,141.5 184.0,141.5 189.0,161.5 199.0,161.5 204.0,141.5 211.5,141.5 211.5,161.5" fill="#83AF83" stroke="#000000" stroke-width="1.0" stroke-linecap="round" stroke-linejoin="round" />
		<polygon points="83.8,58.1 84.9,93.4 51.3,104.4 53.1,114.2 88.4,113.1 99.4,146.7 109.2,144.9 108.1,109.6 141.7,98.6 139.9,88.8 104.6,89.9 93.6,56.3" fill="#FFFFFF" stroke="#000000" stroke-width="1.0" stroke-linecap="round" stroke-linejoin="round" />
		<polygon points="56.8,79.8 82.6,104.0 66.6,135.5 74.8,141.2 99.0,115.4 130.5,131.4 136.2,123.2 110.4,99.0 126.4,67.5 118.2,61.8 94.0,87.6 62.5,71.6" fill="#FFFFFF" stroke="#000000" stroke-width="1.0" stroke-linecap="round" stroke-linejoin="round" />
		<polygon points="126.5,101.5 126.4,98.9 126.1,96.4 125.5,93.8 124.7,91.4 123.8,89.0 122.6,86.7 121.2,84.5 119.7,82.4 117.9,80.5 116.1,78.8 114.0,77.2 111.9,75.7 109.6,74.5 107.2,73.5 104.8,72.7 102.3,72.1 99.7,71.7 97.1,71.5 94.6,71.6 92.0,71.8 89.5,72.3 87.0,73.0 84.6,74.0 82.3,75.1 80.0,76.4 77.9,77.9 76.0,79.6 74.2,81.5 72.5,83.5 71.1,85.6 69.8,87.8 68.7,90.2 67.9,92.6 67.2,95.1 66.7,97.6 66.5,100.2 66.5,102.8 66.7,105.4 67.2,107.9 67.9,110.4 68.7,112.8 69.8,115.2 71.1,117.4 72.5,119.5 74.2,121.5 76.0,123.4 77.9,125.1 80.0,126.6 82.3,127.9 84.6,129.0 87.0,130.0 89.5,130.7 92.0,131.2 94.6,131.4 97.1,131.5 99.7,131.3 102.3,130.9 104.8,130.3 107.2,129.5 109.6,128.5 111.9,127.3 114.0,125.8 116.1,124.2 117.9,122.5 119.7,120.6 121.2,118.5 122.6,116.3 123.8,114.0 124.7,111.6 125.5,109.2 126.1,106.6 126.4,104.1" fill="#FFFFFF" stroke="#000000" stroke-width="1.0" stroke-linecap="round" stroke-linejoin="round" />
		<polygon points="106.5,101.5 106.5,100.6 106.4,99.8 106.2,98.9 105.9,98.1 105.6,97.3 105.2,96.6 104.7,95.8 104.2,95.1 103.6,94.5 103.0,93.9 102.3,93.4 101.6,92.9 100.9,92.5 100.1,92.2 99.3,91.9 98.4,91.7 97.6,91.6 96.7,91.5 95.9,91.5 95.0,91.6 94.2,91.8 93.3,92.0 92.5,92.3 91.8,92.7 91.0,93.1 90.3,93.6 89.7,94.2 89.1,94.8 88.5,95.5 88.0,96.2 87.6,96.9 87.2,97.7 87.0,98.5 86.7,99.4 86.6,100.2 86.5,101.1 86.5,101.9 86.6,102.8 86.7,103.6 87.0,104.5 87.2,105.3 87.6,106.1 88.0,106.8 88.5,107.5 89.1,108.2 89.7,108.8 90.3,109.4 91.0,109.9 91.8,110.3 92.5,110.7 93.3,111.0 94.2,111.2 95.0,111.4 95.9,111.5 96.7,111.5 97.6,111.4 98.4,111.3 99.3,111.1 100.1,110.8 100.9,110.5 101.6,110.1 102.3,109.6 103.0,109.1 103.6,108.5 104.2,107.9 104.7,107.2 105.2,106.4 105.6,105.7 105.9,104.9 106.2,104.1 106.4,103.2 106.5,102.4" fill="#808080" stroke="#000000" stroke-width="1.0" stroke-linecap="round" stroke-linejoin="round" />
		<g id="flangeR" class="port">
			<polygon points="26.5,101.5 26.5,100.6 26.4,99.8 26.2,98.9 25.9,98.1 25.6,97.3 25.2,96.6 24.7,95.8 24.2,95.1 23.6,94.5 23.0,93.9 22.3,93.4 21.6,92.9 20.9,92.5 20.1,92.2 19.3,91.9 18.4,91.7 17.6,91.6 16.7,91.5 15.9,91.5 15.0,91.6 14.2,91.8 13.3,92.0 12.5,92.3 11.8,92.7 11.0,93.1 10.3,93.6 9.7,94.2 9.1,94.8 8.5,95.5 8.0,96.2 7.6,96.9 7.2,97.7 7.0,98.5 6.7,99.4 6.6,100.2 6.5,101.1 6.5,101.9 6.6,102.8 6.7,103.6 7.0,104.5 7.2,105.3 7.6,106.1 8.0,106.8 8.5,107.5 9.1,108.2 9.7,108.8 10.3,109.4 11.0,109.9 11.8,110.3 12.5,110.7 13.3,111.0 14.2,111.2 15.0,111.4 15.9,111.5 16.7,111.5 17.6,111.4 18.4,111.3 19.3,111.1 20.1,110.8 20.9,110.5 21.6,110.1 22.3,109.6 23.0,109.1 23.6,108.5 24.2,107.9 24.7,107.2 25.2,106.4 25.6,105.7 25.9,104.9 26.2,104.1 26.4,103.2 26.5,102.4" fill="#5F5F5F" stroke="#000000" stroke-width="1.0" stroke-linecap="round" stroke-linejoin="round" />
		</g>
		<g id="flangeT" class="port">
			<polygon points="206.5,91.5 226.5,91.5 226.5,111.5 206.5,111.5" fill="#FFFFFF" stroke="#007F00" stroke-width="1.0" stroke-linecap="round" stroke-linejoin="round" />
		</g>
		<g id="supportR" class="port">
			<polygon points="26.5,201.5 26.5,200.6 26.4,199.8 26.2,198.9 25.9,198.1 25.6,197.3 25.2,196.6 24.7,195.8 24.2,195.1 23.6,194.5 23.0,193.9 22.3,193.4 21.6,192.9 20.9,192.5 20.1,192.2 19.3,191.9 18.4,191.7 17.6,191.6 16.7,191.5 15.9,191.5 15.0,191.6 14.2,191.8 13.3,192.0 12.5,192.3 11.8,192.7 11.0,193.1 10.3,193.6 9.7,194.2 9.1,194.8 8.5,195.5 8.0,196.2 7.6,196.9 7.2,197.7 7.0,198.5 6.7,199.4 6.6,200.2 6.5,201.1 6.5,201.9 6.6,202.8 6.7,203.6 7.0,204.5 7.2,205.3 7.6,206.1 8.0,206.8 8.5,207.5 9.1,208.2 9.7,208.8 10.3,209.4 11.0,209.9 11.8,210.3 12.5,210.7 13.3,211.0 14.2,211.2 15.0,211.4 15.9,211.5 16.7,211.5 17.6,211.4 18.4,211.3 19.3,211.1 20.1,210.8 20.9,210.5 21.6,210.1 22.3,209.6 23.0,209.1 23.6,208.5 24.2,207.9 24.7,207.2 25.2,206.4 25.6,205.7 25.9,204.9 26.2,204.1 26.4,203.2 26.5,202.4" fill="#5F5F5F" stroke="#000000" stroke-width="1.0" stroke-linecap="round" stroke-linejoin="round" />
			<polygon points="1.5,216.5 31.5,216.5 31.5,186.5 1.5,186.5" fill="#C0C0C0" stroke="#C0C0C0" stroke-width="1.0" stroke-linecap="round" stroke-linejoin="round" />
			<polygon points="26.5,201.5 26.5,200.6 26.4,199.8 26.2,198.9 25.9,198.1 25.6,197.3 25.2,196.6 24.7,195.8 24.2,195.1 23.6,194.5 23.0,193.9 22.3,193.4 21.6,192.9 20.9,192.5 20.1,192.2 19.3,191.9 18.4,191.7 17.6,191.6 16.7,191.5 15.9,191.5 15.0,191.6 14.2,191.8 13.3,192.0 12.5,192.3 11.8,192.7 11.0,193.1 10.3,193.6 9.7,194.2 9.1,194.8 8.5,195.5 8.0,196.2 7.6,196.9 7.2,197.7 7.0,198.5 6.7,199.4 6.6,200.2 6.5,201.1 6.5,201.9 6.6,202.8 6.7,203.6 7.0,204.5 7.2,205.3 7.6,206.1 8.0,206.8 8.5,207.5 9.1,208.2 9.7,208.8 10.3,209.4 11.0,209.9 11.8,210.3 12.5,210.7 13.3,211.0 14.2,211.2 15.0,211.4 15.9,211.5 16.7,211.5 17.6,211.4 18.4,211.3 19.3,211.1 20.1,210.8 20.9,210.5 21.6,210.1 22.3,209.6 23.0,209.1 23.6,208.5 24.2,207.9 24.7,207.2 25.2,206.4 25.6,205.7 25.9,204.9 26.2,204.1 26.4,203.2 26.5,202.4" fill="#5F5F5F" stroke="#000000" stroke-width="1.0" stroke-linecap="round" stroke-linejoin="round" />
		</g>
		<g id="supportT" class="port">
			<polygon points="225.5,210.5 207.5,210.5 207.5,192.5 225.5,192.5" fill="#AFAFAF" stroke="#007F00" stroke-width="1.0" stroke-linecap="round" stroke-linejoin="round" />
			<polygon points="231.5,216.5 201.5,216.5 201.5,186.5 231.5,186.5" fill="#AFBEAF" stroke-opacity="0" stroke-width="1.0" stroke-linecap="round" stroke-linejoin="round" />
			<polygon points="225.5,210.5 207.5,210.5 207.5,192.5 225.5,192.5" fill="#007F00" stroke="#007F00" stroke-width="1.0" stroke-linecap="round" stroke-linejoin="round" />
		</g>
	</g>
</svg>
