<svg width="203" height="203" xmlns="http://www.w3.org/2000/svg" xmlns:xlink="http://www.w3.org/1999/xlink">
	<g id="Modelica" class="component">
		<defs>
			<linearGradient id="cyl2" x1="0" y1="0" x2="0" y2="1">
				<stop offset="0%" stop-color="#C8C8C8" />
				<stop offset="5%" stop-color="#D1D1D1" />
				<stop offset="10%" stop-color="#D9D9D9" />
				<stop offset="15%" stop-color="#E0E0E0" />
				<stop offset="20%" stop-color="#E7E7E7" />
				<stop offset="25%" stop-color="#ECECEC" />
				<stop offset="30%" stop-color="#F0F0F0" />
				<stop offset="35%" stop-color="#F4F4F4" />
				<stop offset="40%" stop-color="#F6F6F6" />
				<stop offset="45%" stop-color="#F8F8F8" />
				<stop offset="50%" stop-color="#F8F8F8" />
				<stop offset="55%" stop-color="#F8F8F8" />
				<stop offset="60%" stop-color="#F6F6F6" />
				<stop offset="65%" stop-color="#F4F4F4" />
				<stop offset="70%" stop-color="#F0F0F0" />
				<stop offset="75%" stop-color="#ECECEC" />
				<stop offset="80%" stop-color="#E7E7E7" />
				<stop offset="85%" stop-color="#E0E0E0" />
				<stop offset="90%" stop-color="#D9D9D9" />
				<stop offset="95%" stop-color="#D1D1D1" />
				<stop offset="100%" stop-color="#C8C8C8" />
			</linearGradient>
		</defs>
		<polygon points="8.8,194.2 11.0,196.1 13.3,197.8 15.7,199.1 18.2,200.2 20.8,200.9 23.6,201.4 26.5,201.5 26.5,201.5 50.4,201.5 101.5,201.5 101.5,201.5 152.6,201.5 176.5,201.5 176.5,201.5 179.4,201.4 182.2,200.9 184.8,200.2 187.3,199.1 189.7,197.8 192.0,196.1 194.2,194.2 194.2,194.2 196.1,192.0 197.8,189.7 199.1,187.3 200.2,184.8 200.9,182.2 201.4,179.4 201.5,176.5 201.5,176.5 201.5,152.6 201.5,101.5 201.5,101.5 201.5,50.4 201.5,26.5 201.5,26.5 201.4,23.6 200.9,20.8 200.2,18.2 199.1,15.7 197.8,13.3 196.1,11.0 194.2,8.8 194.2,8.8 192.0,6.9 189.7,5.2 187.3,3.9 184.8,2.8 182.2,2.1 179.4,1.6 176.5,1.5 176.5,1.5 152.6,1.5 101.5,1.5 101.5,1.5 50.4,1.5 26.5,1.5 26.5,1.5 23.6,1.6 20.8,2.1 18.2,2.8 15.7,3.9 13.3,5.2 11.0,6.9 8.8,8.8 8.8,8.8 6.9,11.0 5.2,13.3 3.9,15.7 2.8,18.2 2.1,20.8 1.6,23.6 1.5,26.5 1.5,26.5 1.5,50.4 1.5,101.5 1.5,101.5 1.5,152.6 1.5,176.5 1.5,176.5 1.6,179.4 2.1,182.2 2.8,184.8 3.9,187.3 5.2,189.7 6.9,192.0" fill="url(#cyl2)" stroke="#C8C8C8" stroke-width="1.0" stroke-linecap="butt" stroke-linejoin="round" />
		<polygon points="8.8,194.2 11.0,196.1 13.3,197.8 15.7,199.1 18.2,200.2 20.8,200.9 23.6,201.4 26.5,201.5 26.5,201.5 50.4,201.5 101.5,201.5 101.5,201.5 152.6,201.5 176.5,201.5 176.5,201.5 179.4,201.4 182.2,200.9 184.8,200.2 187.3,199.1 189.7,197.8 192.0,196.1 194.2,194.2 194.2,194.2 196.1,192.0 197.8,189.7 199.1,187.3 200.2,184.8 200.9,182.2 201.4,179.4 201.5,176.5 201.5,176.5 201.5,152.6 201.5,101.5 201.5,101.5 201.5,50.4 201.5,26.5 201.5,26.5 201.4,23.6 200.9,20.8 200.2,18.2 199.1,15.7 197.8,13.3 196.1,11.0 194.2,8.8 194.2,8.8 192.0,6.9 189.7,5.2 187.3,3.9 184.8,2.8 182.2,2.1 179.4,1.6 176.5,1.5 176.5,1.5 152.6,1.5 101.5,1.5 101.5,1.5 50.4,1.5 26.5,1.5 26.5,1.5 23.6,1.6 20.8,2.1 18.2,2.8 15.7,3.9 13.3,5.2 11.0,6.9 8.8,8.8 8.8,8.8 6.9,11.0 5.2,13.3 3.9,15.7 2.8,18.2 2.1,20.8 1.6,23.6 1.5,26.5 1.5,26.5 1.5,50.4 1.5,101.5 1.5,101.5 1.5,152.6 1.5,176.5 1.5,176.5 1.6,179.4 2.1,182.2 2.8,184.8 3.9,187.3 5.2,189.7 6.9,192.0" fill-opacity="0" stroke="#808080" stroke-width="1.0" stroke-linecap="butt" stroke-linejoin="round" />
		<polygon points="1.5,82.4 1.7,79.6 2.1,77.0 2.9,74.5 4.0,72.2 5.4,69.9 7.1,67.8 9.2,65.8 11.5,64.0 11.5,64.0 17.6,59.7 22.6,56.2 26.5,53.5 26.5,53.5 28.5,52.2 30.6,51.0 32.8,49.8 35.1,48.6 37.4,47.5 37.4,47.5 39.7,46.4 42.1,45.5 44.4,44.8 46.7,44.2 49.0,43.7 49.0,43.7 51.7,43.4 54.3,43.4 56.7,43.6 58.9,44.0 58.9,44.0 60.9,44.7 62.8,45.8 64.4,47.1 65.9,48.6 65.9,48.6 67.2,50.4 68.2,52.1 69.0,53.8 69.5,55.5 69.5,55.5 70.0,57.7 70.3,59.7 70.5,61.5 70.5,61.5 71.8,62.4 74.9,60.2 74.9,60.2 76.6,58.6 78.3,57.1 80.0,55.7 81.8,54.3 83.6,52.9 83.6,52.9 85.5,51.5 87.3,50.3 89.2,49.1 91.0,48.1 92.9,47.1 92.9,47.1 94.8,46.1 96.8,45.3 99.0,44.6 101.2,43.9 103.6,43.4 103.6,43.4 106.7,42.8 109.7,42.6 112.7,42.7 115.7,43.1 115.7,43.1 118.4,43.8 120.8,44.8 122.8,46.2 124.4,48.0 124.4,48.0 125.7,50.0 126.8,52.1 127.7,54.3 128.4,56.6 128.4,56.6 129.5,58.8 131.3,59.1 133.8,57.4 133.8,57.4 135.5,55.8 137.3,54.3 139.2,52.8 141.2,51.3 143.3,49.8 143.3,49.8 145.4,48.5 147.6,47.2 149.9,46.0 152.2,44.9 154.5,43.9 154.5,43.9 156.9,43.0 159.3,42.4 161.7,41.9 164.1,41.7 166.5,41.6 166.5,41.6 168.8,41.8 171.0,42.2 173.2,42.9 175.2,43.8 177.2,44.9 177.2,44.9 179.0,46.3 180.5,47.9 181.8,49.7 182.9,51.7 183.8,53.9 183.8,53.9 184.6,56.9 185.0,59.8 185.2,62.8 185.1,65.8 185.1,65.8 184.8,68.8 184.2,71.7 183.5,74.5 182.6,77.2 182.6,77.2 181.8,79.3 180.8,81.3 179.8,83.3 178.7,85.2 177.4,87.0 177.4,87.0 175.2,90.1 172.7,93.5 170.0,97.2 170.0,97.2 167.2,101.0 164.4,104.9 161.6,108.8 161.6,108.8 159.7,111.4 158.2,113.2 157.1,114.3 156.4,114.5 156.4,114.5 156.3,113.9 156.9,112.2 158.2,109.6 160.2,105.9 160.2,105.9 163.3,100.5 166.0,95.5 168.4,90.7 168.4,90.7 169.5,88.4 170.6,86.2 171.5,84.0 172.3,81.8 173.1,79.7 173.7,77.6 173.7,77.6 174.5,74.6 175.0,71.8 175.1,69.3 174.9,66.9 174.9,66.9 174.4,64.8 173.5,62.9 172.3,61.2 170.7,59.8 170.7,59.8 168.8,58.6 166.7,57.9 164.3,57.6 161.7,57.8 161.7,57.8 159.5,58.2 157.2,58.9 154.9,59.8 152.6,61.0 150.2,62.5 150.2,62.5 148.2,63.9 146.2,65.4 144.3,66.9 142.4,68.4 140.6,70.0 138.8,71.7 138.8,71.7 136.2,74.2 133.6,76.8 131.1,79.4 128.6,82.1 128.6,82.1 126.2,84.8 123.9,87.5 121.7,90.2 119.6,92.8 119.6,92.8 115.6,98.0 111.7,103.0 111.7,103.0 107.8,108.0 103.9,113.1 103.9,113.1 101.3,116.5 98.9,119.7 96.6,122.9 96.6,122.9 94.5,125.8 92.5,128.6 90.8,131.2 90.8,131.2 89.3,133.2 88.1,134.3 87.3,134.4 87.3,134.4 87.2,133.4 88.2,131.3 90.1,128.0 90.1,128.0 93.7,122.4 96.9,117.2 96.9,117.2 99.0,113.6 101.2,109.7 103.6,105.4 103.6,105.4 106.0,100.9 108.4,96.5 110.6,92.0 110.6,92.0 111.9,89.4 113.1,86.8 114.2,84.3 115.2,81.9 116.1,79.5 116.1,79.5 116.9,76.5 117.5,73.6 117.7,70.8 117.5,68.1 117.5,68.1 117.0,65.6 116.3,63.5 115.3,61.7 113.9,60.4 113.9,60.4 111.8,59.2 109.5,58.5 106.8,58.3 106.8,58.3 104.6,58.5 102.4,58.9 100.1,59.5 97.8,60.4 97.8,60.4 95.9,61.3 94.0,62.3 92.0,63.5 90.1,64.9 88.1,66.4 88.1,66.4 86.2,68.0 84.3,69.6 82.5,71.3 80.7,73.0 79.0,74.7 79.0,74.7 76.1,77.7 73.1,80.9 70.0,84.4 70.0,84.4 66.9,87.9 63.7,91.6 60.6,95.3 60.6,95.3 56.0,101.1 51.2,106.9 51.2,106.9 48.9,109.8 46.6,112.7 44.4,115.7 42.2,118.8 42.2,118.8 38.1,124.8 34.0,130.8 34.0,130.8 30.1,136.7 26.1,142.6 26.1,142.6 22.5,147.9 19.5,152.2 19.5,152.2 17.9,154.3 16.7,155.5 15.9,155.8 15.9,155.8 15.8,154.9 16.8,152.7 18.8,149.2 18.8,149.2 22.8,142.5 27.2,135.2 27.2,135.2 31.8,127.2 36.9,118.5 36.9,118.5 41.8,110.2 45.9,103.1 45.9,103.1 47.7,100.0 49.5,96.7 51.1,93.5 52.7,90.2 52.7,90.2 53.8,87.6 54.9,85.1 55.9,82.7 56.7,80.4 57.4,78.1 57.4,78.1 58.2,75.4 58.6,72.7 58.8,69.9 58.6,67.2 58.6,67.2 58.2,64.6 57.5,62.5 56.4,60.8 55.1,59.6 55.1,59.6 52.8,58.6 50.2,58.2 47.3,58.3 47.3,58.3 44.9,58.8 42.6,59.5 40.3,60.5 38.1,61.7 38.1,61.7 36.4,62.9 34.7,64.1 33.0,65.3 31.3,66.6 29.7,68.0 29.7,68.0 26.9,70.3 24.3,72.7 21.6,75.1 21.6,75.1 16.6,79.7 9.6,86.2 9.6,86.2 6.7,88.9 4.4,91.0 2.8,92.4 1.8,93.3 1.5,93.6 1.5,93.6 1.5,92.9 1.5,90.8 1.5,87.3" fill="#000000" stroke-opacity="0" stroke-width="1.0" stroke-linecap="butt" stroke-linejoin="round" />
		<polygon points="160.2,139.3 160.1,137.7 159.9,136.2 159.6,134.7 159.1,133.2 158.5,131.8 157.8,130.4 157.0,129.1 156.1,127.9 155.1,126.8 154.0,125.7 152.8,124.8 151.5,123.9 150.1,123.2 148.7,122.6 147.3,122.1 145.8,121.7 144.2,121.5 142.7,121.4 141.2,121.4 139.6,121.6 138.1,121.9 136.7,122.3 135.2,122.9 133.8,123.5 132.5,124.3 131.3,125.2 130.1,126.2 129.0,127.3 128.1,128.5 127.2,129.8 126.4,131.1 125.8,132.5 125.3,134.0 124.9,135.4 124.6,137.0 124.5,138.5 124.5,140.0 124.6,141.6 124.9,143.1 125.3,144.6 125.8,146.0 126.4,147.4 127.2,148.7 128.1,150.0 129.0,151.2 130.1,152.3 131.3,153.3 132.5,154.2 133.8,155.0 135.2,155.6 136.7,156.2 138.1,156.6 139.6,156.9 141.2,157.1 142.7,157.1 144.2,157.0 145.8,156.8 147.3,156.4 148.7,155.9 150.1,155.3 151.5,154.6 152.8,153.8 154.0,152.8 155.1,151.7 156.1,150.6 157.0,149.4 157.8,148.1 158.5,146.7 159.1,145.3 159.6,143.8 159.9,142.3 160.1,140.8" fill="#A10004" stroke-opacity="0" stroke-width="1.0" stroke-linecap="butt" stroke-linejoin="round" />
	</g>
</svg>
