<svg width="223" height="223" xmlns="http://www.w3.org/2000/svg" xmlns:xlink="http://www.w3.org/1999/xlink">
	<g id="Modelica.Magnetic.QuasiStatic.FundamentalWave.Components.MultiPhaseElectroMagneticConverter" class="component">
		<polyline points="211.5,211.5 205.5,211.5 195.5,209.5 187.5,205.5 175.5,197.5 161.5,183.5 153.5,169.5 147.5,151.5 141.5,129.5 141.5,111.5 141.5,93.5 145.5,75.5 157.5,45.5 173.5,27.5 189.5,15.5 201.5,11.5 211.5,11.5" fill-opacity="0" stroke="#FFAA55" stroke-width="1.0" stroke-linecap="butt" stroke-linejoin="round" />
		<polyline points="91.5,51.5 91.5,11.5 11.5,11.5" fill-opacity="0" stroke="#55AAFF" stroke-width="1.0" stroke-linecap="butt" stroke-linejoin="round" />
		<polyline points="91.5,171.5 91.5,211.5 11.5,211.5" fill-opacity="0" stroke="#55AAFF" stroke-width="1.0" stroke-linecap="butt" stroke-linejoin="round" />
		<polyline points="91.5,51.5 116.5,54.5 121.9,55.2 127.1,56.0 132.1,56.9 136.7,58.0 141.2,59.1 145.4,60.3 149.3,61.6 153.0,63.0 156.5,64.5 156.5,64.5 159.6,66.1 162.4,67.8 164.8,69.5 166.9,71.3 168.5,73.2 169.8,75.2 170.8,77.2 171.3,79.3 171.5,81.5 171.5,81.5 171.3,83.7 170.8,85.8 169.8,87.9 168.5,90.0 166.9,92.0 164.8,93.9 162.4,95.8 159.6,97.7 156.5,99.5 156.5,99.5 153.7,100.9 150.7,102.2 147.6,103.4 144.3,104.5 140.8,105.5 137.2,106.4 133.4,107.2 129.4,108.0 125.3,108.6 121.0,109.1 116.5,109.5 91.5,111.5" fill-opacity="0" stroke="#55AAFF" stroke-width="1.0" stroke-linecap="butt" stroke-linejoin="round" />
		<polyline points="91.5,111.5 116.5,114.5 121.9,115.2 127.1,116.0 132.1,116.9 136.7,118.0 141.2,119.1 145.4,120.3 149.3,121.6 153.0,123.0 156.5,124.5 156.5,124.5 159.6,126.1 162.4,127.8 164.8,129.5 166.9,131.3 168.5,133.2 169.8,135.2 170.8,137.2 171.3,139.3 171.5,141.5 171.5,141.5 171.3,143.7 170.8,145.8 169.8,147.9 168.5,150.0 166.9,152.0 164.8,153.9 162.4,155.8 159.6,157.7 156.5,159.5 156.5,159.5 153.7,160.9 150.7,162.2 147.6,163.4 144.3,164.5 140.8,165.5 137.2,166.4 133.4,167.2 129.4,168.0 125.3,168.6 121.0,169.1 116.5,169.5 91.5,171.5" fill-opacity="0" stroke="#55AAFF" stroke-width="1.0" stroke-linecap="butt" stroke-linejoin="round" />
		<g id="plug_p" class="port">
			<polygon points="1.5,11.5 1.5,12.4 1.6,13.2 1.8,14.1 2.1,14.9 2.4,15.7 2.8,16.4 3.3,17.2 3.8,17.9 4.4,18.5 5.0,19.1 5.7,19.6 6.4,20.1 7.1,20.5 7.9,20.8 8.7,21.1 9.6,21.3 10.4,21.4 11.3,21.5 12.1,21.5 13.0,21.4 13.8,21.2 14.7,21.0 15.5,20.7 16.2,20.3 17.0,19.9 17.7,19.4 18.3,18.8 18.9,18.2 19.5,17.5 20.0,16.8 20.4,16.1 20.8,15.3 21.0,14.5 21.3,13.6 21.4,12.8 21.5,11.9 21.5,11.1 21.4,10.2 21.3,9.4 21.0,8.5 20.8,7.7 20.4,6.9 20.0,6.2 19.5,5.5 18.9,4.8 18.3,4.2 17.7,3.6 17.0,3.1 16.2,2.7 15.5,2.3 14.7,2.0 13.8,1.8 13.0,1.6 12.1,1.5 11.3,1.5 10.4,1.6 9.6,1.7 8.7,1.9 7.9,2.2 7.1,2.5 6.4,2.9 5.7,3.4 5.0,3.9 4.4,4.5 3.8,5.1 3.3,5.8 2.8,6.6 2.4,7.3 2.1,8.1 1.8,8.9 1.6,9.8 1.5,10.6" fill="#55AAFF" stroke="#55AAFF" stroke-width="1.0" stroke-linecap="butt" stroke-linejoin="round" />
		</g>
		<g id="plug_n" class="port">
			<polygon points="1.5,211.5 1.5,212.4 1.6,213.2 1.8,214.1 2.1,214.9 2.4,215.7 2.8,216.4 3.3,217.2 3.8,217.9 4.4,218.5 5.0,219.1 5.7,219.6 6.4,220.1 7.1,220.5 7.9,220.8 8.7,221.1 9.6,221.3 10.4,221.4 11.3,221.5 12.1,221.5 13.0,221.4 13.8,221.2 14.7,221.0 15.5,220.7 16.2,220.3 17.0,219.9 17.7,219.4 18.3,218.8 18.9,218.2 19.5,217.5 20.0,216.8 20.4,216.1 20.8,215.3 21.0,214.5 21.3,213.6 21.4,212.8 21.5,211.9 21.5,211.1 21.4,210.2 21.3,209.4 21.0,208.5 20.8,207.7 20.4,206.9 20.0,206.2 19.5,205.5 18.9,204.8 18.3,204.2 17.7,203.6 17.0,203.1 16.2,202.7 15.5,202.3 14.7,202.0 13.8,201.8 13.0,201.6 12.1,201.5 11.3,201.5 10.4,201.6 9.6,201.7 8.7,201.9 7.9,202.2 7.1,202.5 6.4,202.9 5.7,203.4 5.0,203.9 4.4,204.5 3.8,205.1 3.3,205.8 2.8,206.6 2.4,207.3 2.1,208.1 1.8,208.9 1.6,209.8 1.5,210.6" fill="#FFFFFF" stroke="#55AAFF" stroke-width="1.0" stroke-linecap="butt" stroke-linejoin="round" />
		</g>
		<g id="port_p" class="port">
			<polygon points="221.5,11.5 221.5,10.6 221.4,9.8 221.2,8.9 220.9,8.1 220.6,7.3 220.2,6.6 219.7,5.8 219.2,5.1 218.6,4.5 218.0,3.9 217.3,3.4 216.6,2.9 215.9,2.5 215.1,2.2 214.3,1.9 213.4,1.7 212.6,1.6 211.7,1.5 210.9,1.5 210.0,1.6 209.2,1.8 208.3,2.0 207.5,2.3 206.8,2.7 206.0,3.1 205.3,3.6 204.7,4.2 204.1,4.8 203.5,5.5 203.0,6.2 202.6,6.9 202.2,7.7 202.0,8.5 201.7,9.4 201.6,10.2 201.5,11.1 201.5,11.9 201.6,12.8 201.7,13.6 202.0,14.5 202.2,15.3 202.6,16.1 203.0,16.8 203.5,17.5 204.1,18.2 204.7,18.8 205.3,19.4 206.0,19.9 206.8,20.3 207.5,20.7 208.3,21.0 209.2,21.2 210.0,21.4 210.9,21.5 211.7,21.5 212.6,21.4 213.4,21.3 214.3,21.1 215.1,20.8 215.9,20.5 216.6,20.1 217.3,19.6 218.0,19.1 218.6,18.5 219.2,17.9 219.7,17.2 220.2,16.4 220.6,15.7 220.9,14.9 221.2,14.1 221.4,13.2 221.5,12.4" fill="#FFAA55" stroke="#FFAA55" stroke-width="1.0" stroke-linecap="butt" stroke-linejoin="round" />
		</g>
		<g id="port_n" class="port">
			<polygon points="221.5,211.5 221.5,210.6 221.4,209.8 221.2,208.9 220.9,208.1 220.6,207.3 220.2,206.6 219.7,205.8 219.2,205.1 218.6,204.5 218.0,203.9 217.3,203.4 216.6,202.9 215.9,202.5 215.1,202.2 214.3,201.9 213.4,201.7 212.6,201.6 211.7,201.5 210.9,201.5 210.0,201.6 209.2,201.8 208.3,202.0 207.5,202.3 206.8,202.7 206.0,203.1 205.3,203.6 204.7,204.2 204.1,204.8 203.5,205.5 203.0,206.2 202.6,206.9 202.2,207.7 202.0,208.5 201.7,209.4 201.6,210.2 201.5,211.1 201.5,211.9 201.6,212.8 201.7,213.6 202.0,214.5 202.2,215.3 202.6,216.1 203.0,216.8 203.5,217.5 204.1,218.2 204.7,218.8 205.3,219.4 206.0,219.9 206.8,220.3 207.5,220.7 208.3,221.0 209.2,221.2 210.0,221.4 210.9,221.5 211.7,221.5 212.6,221.4 213.4,221.3 214.3,221.1 215.1,220.8 215.9,220.5 216.6,220.1 217.3,219.6 218.0,219.1 218.6,218.5 219.2,217.9 219.7,217.2 220.2,216.4 220.6,215.7 220.9,214.9 221.2,214.1 221.4,213.2 221.5,212.4" fill="#FFFFFF" stroke="#FFAA55" stroke-width="1.0" stroke-linecap="butt" stroke-linejoin="round" />
		</g>
	</g>
</svg>
