<svg width="433" height="203" xmlns="http://www.w3.org/2000/svg" xmlns:xlink="http://www.w3.org/1999/xlink">
	<g id="Modelica.Blocks.Math.MultiSwitch" class="component">
		<polygon points="11.5,152.5 411.5,152.5 411.5,51.5 11.5,51.5" fill="#AAD5FF" stroke="#000000" stroke-width="1.5" stroke-linecap="butt" stroke-linejoin="round" />
		<polyline points="14.5,151.0 410.0,151.0 410.0,54.5" fill-opacity="0" stroke="#556B80" stroke-width="3.0" stroke-linecap="butt" stroke-linejoin="round" />
		<polyline points="13.0,149.5 13.0,53.0 408.5,53.0" fill-opacity="0" stroke="#D5EAFF" stroke-width="3.0" stroke-linecap="butt" stroke-linejoin="round" />
		<text x="216.0" y="117.9" text-anchor="middle" fill="#000000" font-size="43.8px" font-family="sans-serif">fill(0, nu)</text>
		<text x="211.5" y="191.0" text-anchor="middle" fill="#000000" font-size="39.9px" font-family="sans-serif">else: 0</text>
		<text x="211.5" y="40.7" text-anchor="middle" fill="#0000FF" font-size="53.1px" font-family="sans-serif">MultiSwitch</text>
		<g id="u" class="port">
			<polygon points="21.5,101.5 21.5,104.1 21.3,106.6 21.2,109.2 20.9,111.6 20.6,114.0 20.2,116.3 19.7,118.5 19.2,120.6 18.6,122.5 18.0,124.2 17.3,125.8 16.6,127.3 15.9,128.5 15.1,129.5 14.3,130.3 13.4,130.9 12.6,131.3 11.7,131.5 10.8,131.4 10.0,131.2 9.1,130.7 8.3,130.0 7.5,129.0 6.7,127.9 6.0,126.6 5.3,125.1 4.7,123.4 4.0,121.5 3.5,119.5 3.0,117.4 2.6,115.2 2.2,112.8 1.9,110.4 1.7,107.9 1.6,105.4 1.5,102.8 1.5,100.2 1.6,97.6 1.7,95.1 1.9,92.6 2.2,90.2 2.6,87.8 3.0,85.6 3.5,83.5 4.0,81.5 4.7,79.6 5.3,77.9 6.0,76.4 6.7,75.1 7.5,74.0 8.3,73.0 9.1,72.3 10.0,71.8 10.8,71.6 11.7,71.5 12.6,71.7 13.4,72.1 14.3,72.7 15.1,73.5 15.9,74.5 16.6,75.7 17.3,77.2 18.0,78.8 18.6,80.5 19.2,82.4 19.7,84.5 20.2,86.7 20.6,89.0 20.9,91.4 21.2,93.8 21.3,96.4 21.5,98.9" fill="#FF00FF" stroke="#FF00FF" stroke-width="1.0" stroke-linecap="butt" stroke-linejoin="round" />
		</g>
		<g id="y" class="port">
			<polygon points="411.5,91.5 431.5,101.5 411.5,111.5" fill="#FFFFFF" stroke="#00007F" stroke-width="1.0" stroke-linecap="butt" stroke-linejoin="round" />
		</g>
	</g>
</svg>
