<svg width="223" height="223" xmlns="http://www.w3.org/2000/svg" xmlns:xlink="http://www.w3.org/1999/xlink">
	<g id="Modelica.Magnetic.QuasiStatic.FundamentalWave.BasicMachines.Components.RotorSaliencyAirGap" class="component">
		<polygon points="211.5,111.5 211.1,102.9 210.0,94.4 208.2,86.0 205.6,77.7 202.4,69.8 198.4,62.1 193.9,54.8 188.7,48.0 183.0,41.6 176.7,35.7 169.9,30.3 162.7,25.6 155.2,21.5 147.3,18.1 139.1,15.4 130.7,13.4 122.2,12.1 113.6,11.5 105.0,11.7 96.5,12.6 88.0,14.3 79.8,16.7 71.7,19.7 64.0,23.5 56.6,27.9 49.6,32.9 43.1,38.5 37.1,44.7 31.6,51.3 26.7,58.4 22.5,65.9 18.9,73.7 16.0,81.8 13.8,90.1 12.3,98.6 11.6,107.2 11.6,115.8 12.3,124.4 13.8,132.8 16.0,141.2 18.9,149.3 22.5,157.1 26.7,164.6 31.6,171.7 37.1,178.3 43.1,184.5 49.6,190.1 56.6,195.1 64.0,199.5 71.7,203.3 79.8,206.3 88.0,208.7 96.5,210.4 105.0,211.3 113.6,211.5 122.2,210.9 130.7,209.6 139.1,207.6 147.3,204.9 155.2,201.5 162.7,197.4 169.9,192.7 176.7,187.3 183.0,181.4 188.7,175.0 193.9,168.2 198.4,160.9 202.4,153.2 205.6,145.2 208.2,137.0 210.0,128.6 211.1,120.1" fill="#FFFFFF" stroke="#000000" stroke-width="1.0" stroke-linecap="butt" stroke-linejoin="round" />
		<polyline points="11.5,21.5 11.5,51.5 31.5,51.5" fill-opacity="0" stroke="#FFAA55" stroke-width="1.0" stroke-linecap="butt" stroke-linejoin="round" />
		<polyline points="11.5,201.5 11.5,171.5 31.5,171.5" fill-opacity="0" stroke="#FFAA55" stroke-width="1.0" stroke-linecap="butt" stroke-linejoin="round" />
		<polyline points="151.5,51.5 211.5,51.5 211.5,21.5" fill-opacity="0" stroke="#FFAA55" stroke-width="1.0" stroke-linecap="butt" stroke-linejoin="round" />
		<polyline points="151.5,171.5 211.5,171.5 211.5,201.5" fill-opacity="0" stroke="#FFAA55" stroke-width="1.0" stroke-linecap="butt" stroke-linejoin="round" />
		<polygon points="171.5,111.5 171.3,104.6 170.6,97.8 169.5,91.1 168.0,84.5 166.0,78.1 163.7,72.0 160.9,66.2 157.8,60.7 154.4,55.5 150.6,50.8 146.5,46.6 142.2,42.8 137.7,39.5 133.0,36.8 128.1,34.6 123.0,33.0 117.9,32.0 112.8,31.5 107.6,31.7 102.5,32.4 97.4,33.7 92.5,35.6 87.6,38.1 83.0,41.1 78.6,44.6 74.4,48.6 70.5,53.1 66.8,58.1 63.6,63.4 60.6,69.0 58.1,75.0 55.9,81.3 54.2,87.8 52.9,94.4 52.0,101.2 51.5,108.1 51.5,114.9 52.0,121.8 52.9,128.6 54.2,135.2 55.9,141.7 58.1,148.0 60.6,154.0 63.6,159.6 66.8,164.9 70.5,169.9 74.4,174.3 78.6,178.4 83.0,181.9 87.6,184.9 92.5,187.4 97.4,189.3 102.5,190.6 107.6,191.3 112.8,191.5 117.9,191.0 123.0,190.0 128.1,188.4 133.0,186.2 137.7,183.5 142.2,180.2 146.5,176.4 150.6,172.2 154.4,167.5 157.8,162.3 160.9,156.8 163.7,151.0 166.0,144.9 168.0,138.5 169.5,131.9 170.6,125.2 171.3,118.4" fill="#FFFFFF" stroke="#000000" stroke-width="1.0" stroke-linecap="butt" stroke-linejoin="round" />
		<polyline points="111.5,31.5 111.5,21.5" fill-opacity="0" stroke="#000000" stroke-width="1.0" stroke-linecap="butt" stroke-linejoin="round" />
		<g id="port_sp" class="port">
			<polygon points="21.5,211.5 21.5,210.6 21.3,209.8 21.2,208.9 20.9,208.1 20.6,207.3 20.2,206.6 19.7,205.8 19.2,205.1 18.6,204.5 18.0,203.9 17.3,203.4 16.6,202.9 15.9,202.5 15.1,202.2 14.3,201.9 13.4,201.7 12.6,201.6 11.7,201.5 10.8,201.5 10.0,201.6 9.1,201.8 8.3,202.0 7.5,202.3 6.7,202.7 6.0,203.1 5.3,203.6 4.7,204.2 4.0,204.8 3.5,205.5 3.0,206.2 2.6,206.9 2.2,207.7 1.9,208.5 1.7,209.4 1.6,210.2 1.5,211.1 1.5,211.9 1.6,212.8 1.7,213.6 1.9,214.5 2.2,215.3 2.6,216.1 3.0,216.8 3.5,217.5 4.0,218.2 4.7,218.8 5.3,219.4 6.0,219.9 6.7,220.3 7.5,220.7 8.3,221.0 9.1,221.2 10.0,221.4 10.8,221.5 11.7,221.5 12.6,221.4 13.4,221.3 14.3,221.1 15.1,220.8 15.9,220.5 16.6,220.1 17.3,219.6 18.0,219.1 18.6,218.5 19.2,217.9 19.7,217.2 20.2,216.4 20.6,215.7 20.9,214.9 21.2,214.1 21.3,213.2 21.5,212.4" fill="#FFAA55" stroke="#FFAA55" stroke-width="1.0" stroke-linecap="butt" stroke-linejoin="round" />
		</g>
		<g id="port_sn" class="port">
			<polygon points="21.5,11.5 21.5,10.6 21.3,9.8 21.2,8.9 20.9,8.1 20.6,7.3 20.2,6.6 19.7,5.8 19.2,5.1 18.6,4.5 18.0,3.9 17.3,3.4 16.6,2.9 15.9,2.5 15.1,2.2 14.3,1.9 13.4,1.7 12.6,1.6 11.7,1.5 10.8,1.5 10.0,1.6 9.1,1.8 8.3,2.0 7.5,2.3 6.7,2.7 6.0,3.1 5.3,3.6 4.7,4.2 4.0,4.8 3.5,5.5 3.0,6.2 2.6,6.9 2.2,7.7 1.9,8.5 1.7,9.4 1.6,10.2 1.5,11.1 1.5,11.9 1.6,12.8 1.7,13.6 1.9,14.5 2.2,15.3 2.6,16.1 3.0,16.8 3.5,17.5 4.0,18.2 4.7,18.8 5.3,19.4 6.0,19.9 6.7,20.3 7.5,20.7 8.3,21.0 9.1,21.2 10.0,21.4 10.8,21.5 11.7,21.5 12.6,21.4 13.4,21.3 14.3,21.1 15.1,20.8 15.9,20.5 16.6,20.1 17.3,19.6 18.0,19.1 18.6,18.5 19.2,17.9 19.7,17.2 20.2,16.4 20.6,15.7 20.9,14.9 21.2,14.1 21.3,13.2 21.5,12.4" fill="#FFFFFF" stroke="#FFAA55" stroke-width="1.0" stroke-linecap="butt" stroke-linejoin="round" />
		</g>
		<g id="port_rp" class="port">
			<polygon points="221.5,11.5 221.5,10.6 221.3,9.8 221.2,8.9 220.9,8.1 220.6,7.3 220.2,6.6 219.7,5.8 219.2,5.1 218.6,4.5 218.0,3.9 217.3,3.4 216.6,2.9 215.9,2.5 215.1,2.2 214.3,1.9 213.4,1.7 212.6,1.6 211.7,1.5 210.8,1.5 210.0,1.6 209.1,1.8 208.3,2.0 207.5,2.3 206.7,2.7 206.0,3.1 205.3,3.6 204.7,4.2 204.0,4.8 203.5,5.5 203.0,6.2 202.6,6.9 202.2,7.7 201.9,8.5 201.7,9.4 201.6,10.2 201.5,11.1 201.5,11.9 201.6,12.8 201.7,13.6 201.9,14.5 202.2,15.3 202.6,16.1 203.0,16.8 203.5,17.5 204.0,18.2 204.7,18.8 205.3,19.4 206.0,19.9 206.7,20.3 207.5,20.7 208.3,21.0 209.1,21.2 210.0,21.4 210.8,21.5 211.7,21.5 212.6,21.4 213.4,21.3 214.3,21.1 215.1,20.8 215.9,20.5 216.6,20.1 217.3,19.6 218.0,19.1 218.6,18.5 219.2,17.9 219.7,17.2 220.2,16.4 220.6,15.7 220.9,14.9 221.2,14.1 221.3,13.2 221.5,12.4" fill="#FFAA55" stroke="#FFAA55" stroke-width="1.0" stroke-linecap="butt" stroke-linejoin="round" />
		</g>
		<g id="port_rn" class="port">
			<polygon points="221.5,211.5 221.5,210.6 221.3,209.8 221.2,208.9 220.9,208.1 220.6,207.3 220.2,206.6 219.7,205.8 219.2,205.1 218.6,204.5 218.0,203.9 217.3,203.4 216.6,202.9 215.9,202.5 215.1,202.2 214.3,201.9 213.4,201.7 212.6,201.6 211.7,201.5 210.8,201.5 210.0,201.6 209.1,201.8 208.3,202.0 207.5,202.3 206.7,202.7 206.0,203.1 205.3,203.6 204.7,204.2 204.0,204.8 203.5,205.5 203.0,206.2 202.6,206.9 202.2,207.7 201.9,208.5 201.7,209.4 201.6,210.2 201.5,211.1 201.5,211.9 201.6,212.8 201.7,213.6 201.9,214.5 202.2,215.3 202.6,216.1 203.0,216.8 203.5,217.5 204.0,218.2 204.7,218.8 205.3,219.4 206.0,219.9 206.7,220.3 207.5,220.7 208.3,221.0 209.1,221.2 210.0,221.4 210.8,221.5 211.7,221.5 212.6,221.4 213.4,221.3 214.3,221.1 215.1,220.8 215.9,220.5 216.6,220.1 217.3,219.6 218.0,219.1 218.6,218.5 219.2,217.9 219.7,217.2 220.2,216.4 220.6,215.7 220.9,214.9 221.2,214.1 221.3,213.2 221.5,212.4" fill="#FFFFFF" stroke="#FFAA55" stroke-width="1.0" stroke-linecap="butt" stroke-linejoin="round" />
		</g>
		<g id="flange_a" class="port">
			<polygon points="121.5,11.5 121.5,12.4 121.3,13.2 121.2,14.1 120.9,14.9 120.6,15.7 120.2,16.4 119.7,17.2 119.2,17.9 118.6,18.5 118.0,19.1 117.3,19.6 116.6,20.1 115.9,20.5 115.1,20.8 114.3,21.1 113.4,21.3 112.6,21.4 111.7,21.5 110.8,21.5 110.0,21.4 109.1,21.2 108.3,21.0 107.5,20.7 106.7,20.3 106.0,19.9 105.3,19.4 104.7,18.8 104.0,18.2 103.5,17.5 103.0,16.8 102.6,16.1 102.2,15.3 101.9,14.5 101.7,13.6 101.6,12.8 101.5,11.9 101.5,11.1 101.6,10.2 101.7,9.4 101.9,8.5 102.2,7.7 102.6,6.9 103.0,6.2 103.5,5.5 104.0,4.8 104.7,4.2 105.3,3.6 106.0,3.1 106.7,2.7 107.5,2.3 108.3,2.0 109.1,1.8 110.0,1.6 110.8,1.5 111.7,1.5 112.6,1.6 113.4,1.7 114.3,1.9 115.1,2.2 115.9,2.5 116.6,2.9 117.3,3.4 118.0,3.9 118.6,4.5 119.2,5.1 119.7,5.8 120.2,6.6 120.6,7.3 120.9,8.1 121.2,8.9 121.3,9.8 121.5,10.6" fill="#5F5F5F" stroke="#000000" stroke-width="1.0" stroke-linecap="butt" stroke-linejoin="round" />
		</g>
		<g id="support" class="port">
			<polygon points="121.5,211.5 121.5,210.6 121.3,209.8 121.2,208.9 120.9,208.1 120.6,207.3 120.2,206.6 119.7,205.8 119.2,205.1 118.6,204.5 118.0,203.9 117.3,203.4 116.6,202.9 115.9,202.5 115.1,202.2 114.3,201.9 113.4,201.7 112.6,201.6 111.7,201.5 110.8,201.5 110.0,201.6 109.1,201.8 108.3,202.0 107.5,202.3 106.7,202.7 106.0,203.1 105.3,203.6 104.7,204.2 104.0,204.8 103.5,205.5 103.0,206.2 102.6,206.9 102.2,207.7 101.9,208.5 101.7,209.4 101.6,210.2 101.5,211.1 101.5,211.9 101.6,212.8 101.7,213.6 101.9,214.5 102.2,215.3 102.6,216.1 103.0,216.8 103.5,217.5 104.0,218.2 104.7,218.8 105.3,219.4 106.0,219.9 106.7,220.3 107.5,220.7 108.3,221.0 109.1,221.2 110.0,221.4 110.8,221.5 111.7,221.5 112.6,221.4 113.4,221.3 114.3,221.1 115.1,220.8 115.9,220.5 116.6,220.1 117.3,219.6 118.0,219.1 118.6,218.5 119.2,217.9 119.7,217.2 120.2,216.4 120.6,215.7 120.9,214.9 121.2,214.1 121.3,213.2 121.5,212.4" fill="#5F5F5F" stroke="#000000" stroke-width="1.0" stroke-linecap="butt" stroke-linejoin="round" />
		</g>
	</g>
</svg>
