<svg width="263" height="203" xmlns="http://www.w3.org/2000/svg" xmlns:xlink="http://www.w3.org/1999/xlink">
	<g id="Modelica.Electrical.QuasiStationary.Machines.SpacePhasors.Blocks.FromSpacePhasor" class="component">
		<polygon points="41.5,201.5 241.5,201.5 241.5,1.5 41.5,1.5" fill="#FFFFFF" stroke="#00007F" stroke-width="1.0" stroke-linecap="butt" stroke-linejoin="round" />
		<polyline points="141.5,101.5 61.5,21.5 81.5,29.5 69.5,41.5 61.5,21.5" fill-opacity="0" stroke="#55AAFF" stroke-width="1.0" stroke-linecap="butt" stroke-linejoin="round" />
		<polyline points="141.5,101.5 61.5,181.5 69.5,161.5 81.5,173.5 61.5,181.5" fill-opacity="0" stroke="#55AAFF" stroke-width="1.0" stroke-linecap="butt" stroke-linejoin="round" />
		<polyline points="141.5,101.5 144.8,96.5 146.2,94.6 147.5,92.7 148.8,91.0 150.2,89.4 151.5,87.8 151.5,87.8 153.2,86.2 154.8,84.8 156.5,83.7 158.2,82.8 158.2,82.8 160.4,82.2 162.6,82.2 164.8,82.8 164.8,82.8 166.5,83.7 168.2,84.8 169.8,86.2 171.5,87.8 171.5,87.8 172.8,89.4 174.2,91.0 175.5,92.7 176.8,94.6 178.2,96.5 178.2,96.5 181.5,101.5 184.8,106.5 184.8,106.5 186.2,108.4 187.5,110.3 188.8,112.0 190.2,113.6 191.5,115.2 191.5,115.2 193.2,116.8 194.8,118.2 196.5,119.3 198.2,120.2 198.2,120.2 200.4,120.8 202.6,120.8 204.8,120.2 204.8,120.2 206.5,119.3 208.2,118.2 209.8,116.8 211.5,115.2 211.5,115.2 212.8,113.6 214.2,112.0 215.5,110.3 216.8,108.4 218.2,106.5 221.5,101.5" fill-opacity="0" stroke="#55AAFF" stroke-width="1.0" stroke-linecap="butt" stroke-linejoin="round" />
		<polyline points="131.5,101.5 134.8,96.5 136.2,94.6 137.5,92.7 138.8,91.0 140.2,89.4 141.5,87.8 141.5,87.8 143.2,86.2 144.8,84.8 146.5,83.7 148.2,82.8 148.2,82.8 150.4,82.2 152.6,82.2 154.8,82.8 154.8,82.8 156.5,83.7 158.2,84.8 159.8,86.2 161.5,87.8 161.5,87.8 162.8,89.4 164.2,91.0 165.5,92.7 166.8,94.6 168.2,96.5 168.2,96.5 171.5,101.5 174.8,106.5 174.8,106.5 176.2,108.4 177.5,110.3 178.8,112.0 180.2,113.6 181.5,115.2 181.5,115.2 183.2,116.8 184.8,118.2 186.5,119.3 188.2,120.2 188.2,120.2 190.4,120.8 192.6,120.8 194.8,120.2 194.8,120.2 196.5,119.3 198.2,118.2 199.8,116.8 201.5,115.2 201.5,115.2 202.8,113.6 204.2,112.0 205.5,110.3 206.8,108.4 208.2,106.5 211.5,101.5" fill-opacity="0" stroke="#55AAFF" stroke-width="1.0" stroke-linecap="butt" stroke-linejoin="round" />
		<polyline points="151.5,101.5 154.8,96.5 156.2,94.6 157.5,92.7 158.8,91.0 160.2,89.4 161.5,87.8 161.5,87.8 163.2,86.2 164.8,84.8 166.5,83.7 168.2,82.8 168.2,82.8 170.4,82.2 172.6,82.2 174.8,82.8 174.8,82.8 176.5,83.7 178.2,84.8 179.8,86.2 181.5,87.8 181.5,87.8 182.8,89.4 184.2,91.0 185.5,92.7 186.8,94.6 188.2,96.5 188.2,96.5 191.5,101.5 194.8,106.5 194.8,106.5 196.2,108.4 197.5,110.3 198.8,112.0 200.2,113.6 201.5,115.2 201.5,115.2 203.2,116.8 204.8,118.2 206.5,119.3 208.2,120.2 208.2,120.2 210.4,120.8 212.6,120.8 214.8,120.2 214.8,120.2 216.5,119.3 218.2,118.2 219.8,116.8 221.5,115.2 221.5,115.2 222.8,113.6 224.2,112.0 225.5,110.3 226.8,108.4 228.2,106.5 231.5,101.5" fill-opacity="0" stroke="#55AAFF" stroke-width="1.0" stroke-linecap="butt" stroke-linejoin="round" />
		<text x="117.5" y="187.6" text-anchor="middle" fill="#000000" font-size="15.9px" font-family="sans-serif">zero</text>
		<g id="u" class="port">
			<polygon points="1.5,81.5 41.5,101.5 1.5,121.5" fill="#00007F" stroke="#00007F" stroke-width="1.0" stroke-linecap="butt" stroke-linejoin="round" />
		</g>
		<g id="y" class="port">
			<polygon points="242.2,110.8 243.0,111.3 244.0,111.5 244.0,111.5 246.4,111.5 251.5,111.5 251.5,111.5 256.6,111.5 259.0,111.5 259.0,111.5 260.0,111.3 260.8,110.8 260.8,110.8 261.3,110.0 261.5,109.0 261.5,109.0 261.5,106.6 261.5,101.5 261.5,101.5 261.5,96.4 261.5,94.0 261.5,94.0 261.3,93.0 260.8,92.2 260.8,92.2 260.0,91.7 259.0,91.5 259.0,91.5 256.6,91.5 251.5,91.5 251.5,91.5 246.4,91.5 244.0,91.5 244.0,91.5 243.0,91.7 242.2,92.2 242.2,92.2 241.7,93.0 241.5,94.0 241.5,94.0 241.5,96.4 241.5,101.5 241.5,101.5 241.5,106.6 241.5,109.0 241.5,109.0 241.7,110.0" fill="#A0A0A4" stroke="#A0A0A4" stroke-width="1.0" stroke-linecap="butt" stroke-linejoin="round" />
			<text x="251.5" y="106.7" text-anchor="middle" fill="#FFFFFF" font-size="13.3px" font-family="sans-serif">C</text>
			<polygon points="241.5,91.5 261.5,101.5 241.5,111.5" fill="#FFFFFF" stroke="#55AAFF" stroke-width="1.0" stroke-linecap="butt" stroke-linejoin="round" />
		</g>
	</g>
</svg>
