<svg width="225" height="203" xmlns="http://www.w3.org/2000/svg" xmlns:xlink="http://www.w3.org/1999/xlink">
	<g id="Modelica.Electrical.Analog.Examples.Utilities.SwitchedCapacitor" class="component">
		<polygon points="33.5,133.5 193.5,133.5 193.5,71.5 33.5,71.5" fill-opacity="0" stroke="#0000FF" stroke-width="1.0" stroke-linecap="round" stroke-linejoin="round" />
		<polyline points="21.5,101.5 33.5,101.5" fill-opacity="0" stroke="#5555FF" stroke-width="1.0" stroke-linecap="round" stroke-linejoin="round" />
		<polyline points="193.5,101.5 205.5,101.5" fill-opacity="0" stroke="#5555FF" stroke-width="1.0" stroke-linecap="round" stroke-linejoin="round" />
		<polyline points="39.5,101.5 33.5,101.5 53.5,101.5" fill-opacity="0" stroke="#55FF55" stroke-width="1.0" stroke-linecap="round" stroke-linejoin="round" />
		<polyline points="33.5,121.5 53.5,121.5 53.5,117.5 73.5,111.5 109.5,111.5" fill-opacity="0" stroke="#55FF55" stroke-width="1.0" stroke-linecap="round" stroke-linejoin="round" />
		<polyline points="117.5,111.5 153.5,111.5 173.5,117.5 173.5,121.5 193.5,121.5" fill-opacity="0" stroke="#55FF55" stroke-width="1.0" stroke-linecap="round" stroke-linejoin="round" />
		<polyline points="193.5,101.5 173.5,101.5" fill-opacity="0" stroke="#55FF55" stroke-width="1.0" stroke-linecap="round" stroke-linejoin="round" />
		<polyline points="173.5,101.5 173.5,105.5" fill-opacity="0" stroke="#55FF55" stroke-width="1.0" stroke-linecap="round" stroke-linejoin="round" />
		<polyline points="53.5,101.5 53.5,107.5" fill-opacity="0" stroke="#AAFFAA" stroke-width="1.0" stroke-linecap="round" stroke-linejoin="round" />
		<polyline points="109.5,101.5 109.5,121.5" fill-opacity="0" stroke="#55FF55" stroke-width="1.0" stroke-linecap="round" stroke-linejoin="round" />
		<polyline points="117.5,101.5 117.5,121.5" fill-opacity="0" stroke="#55FF55" stroke-width="1.0" stroke-linecap="round" stroke-linejoin="round" />
		<g id="p" class="port">
			<polygon points="1.5,111.5 21.5,111.5 21.5,91.5 1.5,91.5" fill="#0000FF" stroke="#0000FF" stroke-width="1.0" stroke-linecap="round" stroke-linejoin="round" />
		</g>
		<g id="n" class="port">
			<polygon points="203.5,111.5 223.5,111.5 223.5,91.5 203.5,91.5" fill="#FFFFFF" stroke="#0000FF" stroke-width="1.0" stroke-linecap="round" stroke-linejoin="round" />
		</g>
	</g>
</svg>
