<svg width="203" height="203" xmlns="http://www.w3.org/2000/svg" xmlns:xlink="http://www.w3.org/1999/xlink">
	<g id="Modelica.SIunits" class="component">
		<defs>
			<linearGradient id="cyl2" x1="0" y1="0" x2="0" y2="1">
				<stop offset="0%" stop-color="#C8C8C8" />
				<stop offset="5%" stop-color="#D1D1D1" />
				<stop offset="10%" stop-color="#D9D9D9" />
				<stop offset="15%" stop-color="#E0E0E0" />
				<stop offset="20%" stop-color="#E7E7E7" />
				<stop offset="25%" stop-color="#ECECEC" />
				<stop offset="30%" stop-color="#F0F0F0" />
				<stop offset="35%" stop-color="#F4F4F4" />
				<stop offset="40%" stop-color="#F6F6F6" />
				<stop offset="45%" stop-color="#F8F8F8" />
				<stop offset="50%" stop-color="#F8F8F8" />
				<stop offset="55%" stop-color="#F8F8F8" />
				<stop offset="60%" stop-color="#F6F6F6" />
				<stop offset="65%" stop-color="#F4F4F4" />
				<stop offset="70%" stop-color="#F0F0F0" />
				<stop offset="75%" stop-color="#ECECEC" />
				<stop offset="80%" stop-color="#E7E7E7" />
				<stop offset="85%" stop-color="#E0E0E0" />
				<stop offset="90%" stop-color="#D9D9D9" />
				<stop offset="95%" stop-color="#D1D1D1" />
				<stop offset="100%" stop-color="#C8C8C8" />
			</linearGradient>
		</defs>
		<polygon points="8.8,194.2 11.0,196.1 13.3,197.8 15.7,199.1 18.2,200.2 20.8,200.9 23.6,201.4 26.5,201.5 26.5,201.5 50.4,201.5 101.5,201.5 101.5,201.5 152.6,201.5 176.5,201.5 176.5,201.5 179.4,201.4 182.2,200.9 184.8,200.2 187.3,199.1 189.7,197.8 192.0,196.1 194.2,194.2 194.2,194.2 196.1,192.0 197.8,189.7 199.1,187.3 200.2,184.8 200.9,182.2 201.4,179.4 201.5,176.5 201.5,176.5 201.5,152.6 201.5,101.5 201.5,101.5 201.5,50.4 201.5,26.5 201.5,26.5 201.4,23.6 200.9,20.8 200.2,18.2 199.1,15.7 197.8,13.3 196.1,11.0 194.2,8.8 194.2,8.8 192.0,6.9 189.7,5.2 187.3,3.9 184.8,2.8 182.2,2.1 179.4,1.6 176.5,1.5 176.5,1.5 152.6,1.5 101.5,1.5 101.5,1.5 50.4,1.5 26.5,1.5 26.5,1.5 23.6,1.6 20.8,2.1 18.2,2.8 15.7,3.9 13.3,5.2 11.0,6.9 8.8,8.8 8.8,8.8 6.9,11.0 5.2,13.3 3.9,15.7 2.8,18.2 2.1,20.8 1.6,23.6 1.5,26.5 1.5,26.5 1.5,50.4 1.5,101.5 1.5,101.5 1.5,152.6 1.5,176.5 1.5,176.5 1.6,179.4 2.1,182.2 2.8,184.8 3.9,187.3 5.2,189.7 6.9,192.0" fill="url(#cyl2)" stroke="#C8C8C8" stroke-width="1.0" stroke-linecap="butt" stroke-linejoin="round" />
		<polygon points="8.8,194.2 11.0,196.1 13.3,197.8 15.7,199.1 18.2,200.2 20.8,200.9 23.6,201.4 26.5,201.5 26.5,201.5 50.4,201.5 101.5,201.5 101.5,201.5 152.6,201.5 176.5,201.5 176.5,201.5 179.4,201.4 182.2,200.9 184.8,200.2 187.3,199.1 189.7,197.8 192.0,196.1 194.2,194.2 194.2,194.2 196.1,192.0 197.8,189.7 199.1,187.3 200.2,184.8 200.9,182.2 201.4,179.4 201.5,176.5 201.5,176.5 201.5,152.6 201.5,101.5 201.5,101.5 201.5,50.4 201.5,26.5 201.5,26.5 201.4,23.6 200.9,20.8 200.2,18.2 199.1,15.7 197.8,13.3 196.1,11.0 194.2,8.8 194.2,8.8 192.0,6.9 189.7,5.2 187.3,3.9 184.8,2.8 182.2,2.1 179.4,1.6 176.5,1.5 176.5,1.5 152.6,1.5 101.5,1.5 101.5,1.5 50.4,1.5 26.5,1.5 26.5,1.5 23.6,1.6 20.8,2.1 18.2,2.8 15.7,3.9 13.3,5.2 11.0,6.9 8.8,8.8 8.8,8.8 6.9,11.0 5.2,13.3 3.9,15.7 2.8,18.2 2.1,20.8 1.6,23.6 1.5,26.5 1.5,26.5 1.5,50.4 1.5,101.5 1.5,101.5 1.5,152.6 1.5,176.5 1.5,176.5 1.6,179.4 2.1,182.2 2.8,184.8 3.9,187.3 5.2,189.7 6.9,192.0" fill-opacity="0" stroke="#808080" stroke-width="1.0" stroke-linecap="butt" stroke-linejoin="round" />
		<polygon points="31.5,141.5 30.1,141.2 29.0,140.4 28.1,139.1 27.5,137.2 27.1,134.8 27.1,131.9 27.3,128.5 27.7,124.5 28.4,119.9 29.4,114.9 30.7,109.3 32.2,103.2 34.0,96.5 34.0,96.5 39.5,76.4 43.7,61.2 46.4,50.8 47.8,45.2 47.8,45.2 47.9,42.6 47.1,40.9 45.4,40.1 42.8,40.2 42.8,40.2 39.3,40.7 37.2,40.2 36.5,39.0 36.5,39.0 36.8,38.2 37.7,37.3 39.3,36.2 41.4,34.9 44.2,33.5 47.5,32.0 51.5,30.2 51.5,30.2 56.1,28.6 60.0,27.8 63.1,27.8 65.4,28.6 67.0,30.3 67.8,32.8 67.8,32.8 67.9,34.4 67.9,36.3 67.8,38.5 67.5,40.9 67.1,43.7 66.5,46.8 65.8,50.2 65.0,53.9 64.0,57.8 62.9,62.1 61.6,66.6 60.2,71.5 60.2,71.5 58.7,76.7 57.4,81.4 56.1,85.6 55.0,89.4 54.1,92.6 53.3,95.3 52.7,97.5 52.2,99.3 51.8,100.5 51.6,101.2 51.5,101.5 51.5,101.5 51.9,101.2 53.1,100.3 55.1,98.8 57.9,96.7 61.5,94.0 61.5,94.0 63.9,92.1 66.2,90.3 68.3,88.5 70.3,86.8 72.0,85.1 73.7,83.5 75.2,81.8 76.5,80.2 76.5,80.2 78.6,76.8 78.2,74.7 75.3,74.0 75.2,74.0 71.8,74.0 69.7,74.0 69.0,74.0 69.0,74.0 69.0,73.4 69.0,71.5 69.0,71.5 69.0,69.6 69.0,69.0 69.0,69.0 69.7,69.0 71.8,69.0 75.3,69.0 80.2,69.0 86.5,69.0 86.5,69.0 92.8,69.0 97.7,69.0 101.2,69.0 103.3,69.0 104.0,69.0 104.0,69.0 104.0,69.6 104.0,71.5 104.0,71.5 104.0,73.4 104.0,74.0 104.0,74.0 102.8,74.0 99.0,74.0 99.0,74.0 97.7,74.2 96.1,74.6 94.4,75.4 92.4,76.5 90.3,77.9 88.0,79.6 85.5,81.7 82.8,84.0 82.8,84.0 79.3,87.1 76.5,89.6 74.3,91.5 72.8,92.9 71.8,93.7 71.5,94.0 71.5,94.0 71.6,94.4 71.8,95.8 72.1,98.1 72.6,101.2 73.2,105.3 74.0,110.2 74.0,110.2 74.7,114.6 75.5,118.4 76.4,121.5 77.3,124.1 78.2,126.1 79.2,127.5 80.2,128.4 80.2,128.4 82.8,129.2 85.2,129.2 87.8,128.4 87.8,128.4 90.1,127.4 92.2,127.0 94.0,127.1 94.0,127.1 95.4,127.8 96.2,129.1 96.5,130.9 96.5,130.9 96.1,132.5 95.1,134.3 93.3,136.3 90.9,138.4 90.9,138.4 88.9,139.7 86.9,140.9 84.8,142.0 82.5,142.8 80.2,143.5 77.8,144.0 77.8,144.0 74.9,144.2 72.2,144.0 69.9,143.2 67.8,142.0 65.9,140.2 65.9,140.2 64.8,138.9 63.8,137.2 62.9,135.2 62.0,132.9 61.1,130.3 60.4,127.5 59.7,124.3 59.0,120.9 59.0,120.9 58.1,115.7 57.4,111.7 56.9,108.8 56.6,107.1 56.5,106.5 56.5,106.5 56.1,106.8 54.8,107.6 52.8,109.0 52.8,109.0 50.7,110.4 49.4,111.2 49.0,111.5 49.0,111.5 48.9,111.9 48.6,113.2 48.1,115.2 47.3,118.2 46.4,121.9 45.3,126.5 45.3,126.5 44.1,131.1 43.2,134.8 42.4,137.7 41.9,139.8 41.6,141.1 41.5,141.5 41.5,141.5 40.9,141.5 39.0,141.5 35.9,141.5" fill="#808080" stroke-opacity="0" stroke-width="1.0" stroke-linecap="butt" stroke-linejoin="round" />
		<polygon points="185.2,76.5 186.1,74.3 184.9,72.8 181.7,71.8 176.5,71.5 176.5,71.5 171.0,71.5 167.1,71.5 164.8,71.5 164.0,71.5 164.0,71.5 163.1,71.0 160.3,69.6 160.3,69.6 158.5,68.9 156.4,68.3 153.7,67.8 150.7,67.4 147.1,67.1 147.1,67.1 144.4,67.1 141.7,67.2 139.0,67.6 136.2,68.2 133.4,69.1 130.6,70.2 127.8,71.5 127.8,71.5 125.3,72.8 123.1,74.3 121.0,75.9 119.2,77.6 117.4,79.5 115.9,81.5 114.6,83.6 113.4,85.9 113.4,85.9 112.1,88.9 111.2,91.8 110.6,94.6 110.3,97.3 110.4,99.8 110.9,102.1 110.9,102.1 111.8,104.7 113.0,106.9 114.5,108.8 116.3,110.3 118.4,111.5 118.4,111.5 121.5,112.9 123.4,113.7 124.0,114.0 124.0,114.0 123.5,114.3 122.0,115.2 119.4,116.8 115.9,119.0 115.9,119.0 113.4,120.7 111.4,122.5 109.8,124.3 108.7,126.2 108.0,128.2 107.8,130.2 107.8,130.2 108.1,133.1 109.0,135.4 110.6,137.2 112.8,138.4 112.8,138.4 115.5,139.4 117.2,140.0 117.8,140.2 117.8,140.2 118.4,140.6 120.3,141.5 120.3,141.5 122.1,142.4 122.8,142.7 122.8,142.7 123.2,142.9 124.7,143.3 127.0,144.1 130.4,145.1 134.6,146.5 134.6,146.5 137.8,147.6 140.5,148.8 142.9,150.2 144.7,151.6 146.2,153.1 147.2,154.8 147.8,156.5 147.8,156.5 147.9,158.9 147.4,161.2 146.1,163.3 144.2,165.3 141.5,167.1 141.5,167.1 138.9,168.4 136.2,169.3 133.4,169.8 130.4,169.9 127.3,169.6 124.0,169.0 124.0,169.0 120.9,168.0 118.2,166.8 115.9,165.4 114.0,163.7 112.5,161.8 111.5,159.6 111.5,159.6 110.9,157.0 111.0,154.4 111.9,152.0 113.5,149.8 115.9,147.8 115.9,147.8 118.9,145.6 121.0,144.0 122.3,143.1 122.8,142.7 122.8,142.7 122.1,142.4 120.3,141.5 120.3,141.5 118.4,140.6 117.8,140.2 117.8,140.2 117.2,140.4 115.5,140.8 112.8,141.5 112.8,141.5 110.7,142.1 108.6,143.0 106.3,144.1 104.0,145.5 101.5,147.1 101.5,147.1 99.6,148.7 98.2,150.6 97.1,152.8 96.5,155.2 96.3,157.9 96.5,160.9 96.5,160.9 97.0,162.9 97.8,164.8 99.1,166.5 100.7,168.1 102.7,169.6 105.1,170.9 107.9,172.1 111.1,173.1 114.6,174.0 114.6,174.0 118.0,174.6 121.4,175.1 124.8,175.3 128.2,175.3 131.7,175.1 135.1,174.7 138.6,174.0 142.0,173.2 145.5,172.1 149.0,170.9 149.0,170.9 152.3,169.4 155.3,167.8 157.9,166.1 160.1,164.3 162.0,162.3 163.5,160.2 164.6,157.9 165.4,155.5 165.8,152.9 165.9,150.2 165.9,150.2 165.6,147.6 164.9,145.1 163.9,142.8 162.6,140.8 160.9,138.8 158.8,137.1 156.4,135.6 153.7,134.2 150.6,133.1 147.1,132.1 147.1,132.1 142.8,131.1 139.0,130.0 135.7,129.0 132.9,128.1 130.6,127.1 128.7,126.3 127.4,125.4 126.5,124.6 126.5,124.6 125.2,121.7 126.5,119.0 126.5,119.0 128.4,117.1 129.0,116.5 129.0,116.5 129.3,115.6 130.3,112.7 130.3,112.7 131.2,109.9 131.5,109.0 131.5,109.0 131.2,108.4 130.3,106.5 130.3,106.5 129.7,105.0 129.5,102.9 129.4,100.3 129.6,97.1 129.6,97.1 129.9,94.8 130.4,92.4 131.0,89.9 131.8,87.4 132.8,84.8 134.0,82.1 134.0,82.1 135.3,79.6 136.7,77.5 138.2,75.7 139.8,74.3 141.6,73.4 143.4,72.8 143.4,72.8 146.0,72.4 148.4,72.8 150.4,73.7 152.1,75.2 152.1,75.2 153.4,77.3 154.2,79.8 154.4,82.6 154.0,85.9 154.0,85.9 153.5,88.2 153.0,90.5 152.3,92.9 151.5,95.3 150.6,97.8 149.6,100.2 149.6,100.2 148.5,102.6 147.3,104.7 146.0,106.5 144.6,108.0 143.1,109.3 141.5,110.2 141.5,110.2 138.4,111.4 135.9,111.6 134.0,110.9 134.0,110.9 132.1,109.5 131.5,109.0 131.5,109.0 131.2,109.9 130.3,112.7 130.3,112.7 129.3,115.6 129.0,116.5 129.0,116.5 129.9,116.6 132.6,116.8 137.1,117.1 137.1,117.1 139.5,117.2 142.0,117.0 144.6,116.6 147.2,116.0 150.0,115.1 152.9,114.1 155.9,112.8 155.9,112.8 158.4,111.5 160.8,110.1 162.9,108.6 164.8,107.0 166.5,105.3 167.9,103.5 169.2,101.6 170.2,99.6 170.2,99.6 171.6,96.5 172.4,93.6 173.0,91.0 173.0,88.6 172.8,86.5 172.8,86.5 172.1,83.7 171.6,82.1 171.5,81.5 171.5,81.5 172.8,81.5 176.5,81.5 176.5,81.5 178.9,81.2 181.2,80.2 183.3,78.7" fill="#808080" stroke-opacity="0" stroke-width="1.0" stroke-linecap="butt" stroke-linejoin="round" />
	</g>
</svg>
