<svg width="243" height="223" xmlns="http://www.w3.org/2000/svg" xmlns:xlink="http://www.w3.org/1999/xlink">
	<g id="Modelica.Electrical.PowerConverters.DCDC.Control.SignalPWM" class="component">
		<polygon points="41.5,221.5 241.5,221.5 241.5,21.5 41.5,21.5" fill="#FFFFFF" stroke="#00007F" stroke-width="1.0" stroke-linecap="round" stroke-linejoin="round" />
		<polyline points="41.5,121.5 43.5,121.5 153.5,121.5" fill-opacity="0" stroke="#0000FF" stroke-width="1.0" stroke-linecap="round" stroke-linejoin="round" />
		<polyline points="81.5,143.5 81.5,185.5 185.5,185.5 185.5,157.5" fill-opacity="0" stroke="#0000FF" stroke-width="1.0" stroke-linecap="round" stroke-linejoin="round" />
		<polyline points="61.5,137.5 61.5,141.5 101.5,101.5 101.5,141.5 105.5,137.5" fill-opacity="0" stroke="#0000FF" stroke-width="1.0" stroke-linecap="round" stroke-linejoin="round" />
		<polygon points="79.5,121.5 65.5,117.5 65.5,125.5" fill-opacity="0" stroke="#0000FF" stroke-width="1.0" stroke-linecap="round" stroke-linejoin="round" />
		<polygon points="185.5,157.5 181.5,171.5 185.5,171.5 189.5,171.5" fill-opacity="0" stroke="#0000FF" stroke-width="1.0" stroke-linecap="round" stroke-linejoin="round" />
		<polyline points="161.5,141.5 163.5,141.5 165.5,141.5 165.5,101.5 185.5,101.5 185.5,141.5 205.5,141.5 205.5,137.5" fill-opacity="0" stroke="#FF00FF" stroke-width="1.0" stroke-linecap="round" stroke-linejoin="round" />
		<polyline points="101.5,137.5 101.5,141.5 141.5,101.5 141.5,141.5 145.5,137.5" fill-opacity="0" stroke="#0000FF" stroke-width="1.0" stroke-linecap="round" stroke-linejoin="round" />
		<polyline points="201.5,141.5 203.5,141.5 205.5,141.5 205.5,101.5 225.5,101.5 225.5,141.5 225.5,141.5 229.5,141.5" fill-opacity="0" stroke="#FF00FF" stroke-width="1.0" stroke-linecap="round" stroke-linejoin="round" />
		<g id="dutyCycle" class="port">
			<polygon points="1.5,101.5 41.5,121.5 1.5,141.5" fill="#00007F" stroke="#00007F" stroke-width="1.0" stroke-linecap="round" stroke-linejoin="round" />
		</g>
		<g id="fire" class="port">
			<polygon points="71.5,21.5 81.5,1.5 91.5,21.5" fill="#FFFFFF" stroke="#FF00FF" stroke-width="1.0" stroke-linecap="round" stroke-linejoin="round" />
		</g>
		<g id="notFire" class="port">
			<polygon points="191.5,21.5 201.5,1.5 211.5,21.5" fill="#FFFFFF" stroke="#FF00FF" stroke-width="1.0" stroke-linecap="round" stroke-linejoin="round" />
		</g>
	</g>
</svg>
