<svg width="223" height="203" xmlns="http://www.w3.org/2000/svg" xmlns:xlink="http://www.w3.org/1999/xlink">
	<g id="Modelica.Mechanics.Rotational.Sources.Torque2" class="component">
		<polygon points="33.5,77.5 42.5,84.5 22.5,101.5" fill="#000000" stroke="#000000" stroke-width="1.0" stroke-linecap="round" stroke-linejoin="round" />
		<polyline points="37.5,81.5 39.5,80.0 40.9,79.0 42.4,78.0 44.0,77.0 44.0,77.0 45.7,76.1 47.3,75.2 49.0,74.5 49.0,74.5 50.6,73.9 52.1,73.4 53.5,73.0 53.5,73.0 54.9,72.7 56.6,72.3 58.5,72.0 58.5,72.0 60.7,71.7 63.2,71.6 66.0,71.5 66.0,71.5 68.8,71.6 71.3,71.7 73.5,72.0 73.5,72.0 75.4,72.3 77.0,72.7 78.5,73.0 78.5,73.0 79.9,73.4 81.4,73.9 83.0,74.5 83.0,74.5 84.7,75.2 86.3,76.1 88.0,77.0 88.0,77.0 89.6,78.0 91.1,79.0 92.5,80.0 92.5,80.0 93.8,81.1 95.2,82.4 96.5,84.0 96.5,84.0 97.8,85.7 98.9,87.6 100.0,89.5 101.5,92.5" fill-opacity="0" stroke="#000000" stroke-width="1.0" stroke-linecap="round" stroke-linejoin="round" />
		<polyline points="185.5,81.5 183.5,80.0 182.1,79.0 180.6,78.0 179.0,77.0 179.0,77.0 177.3,76.1 175.7,75.2 174.0,74.5 174.0,74.5 172.4,73.9 170.9,73.4 169.5,73.0 169.5,73.0 168.0,72.7 166.4,72.3 164.5,72.0 164.5,72.0 162.3,71.7 159.8,71.6 157.0,71.5 157.0,71.5 154.2,71.6 151.7,71.7 149.5,72.0 149.5,72.0 147.6,72.3 145.9,72.7 144.5,73.0 144.5,73.0 143.1,73.4 141.6,73.9 140.0,74.5 140.0,74.5 138.3,75.2 136.7,76.1 135.0,77.0 135.0,77.0 133.4,78.0 131.9,79.0 130.5,80.0 130.5,80.0 129.2,81.1 127.8,82.4 126.5,84.0 126.5,84.0 125.2,85.7 124.0,87.6 123.0,89.5 121.5,92.5" fill-opacity="0" stroke="#000000" stroke-width="1.0" stroke-linecap="round" stroke-linejoin="round" />
		<polygon points="200.5,101.5 189.5,77.5 180.5,84.5" fill="#000000" stroke="#000000" stroke-width="1.0" stroke-linecap="round" stroke-linejoin="round" />
		<g id="flange_a" class="port">
			<polygon points="21.5,101.5 21.5,100.6 21.3,99.8 21.2,98.9 20.9,98.1 20.6,97.3 20.2,96.6 19.7,95.8 19.2,95.1 18.6,94.5 18.0,93.9 17.3,93.4 16.6,92.9 15.9,92.5 15.1,92.2 14.3,91.9 13.4,91.7 12.6,91.6 11.7,91.5 10.8,91.5 10.0,91.6 9.1,91.8 8.3,92.0 7.5,92.3 6.7,92.7 6.0,93.1 5.3,93.6 4.7,94.2 4.0,94.8 3.5,95.5 3.0,96.2 2.6,96.9 2.2,97.7 1.9,98.5 1.7,99.4 1.6,100.2 1.5,101.1 1.5,101.9 1.6,102.8 1.7,103.6 1.9,104.5 2.2,105.3 2.6,106.1 3.0,106.8 3.5,107.5 4.0,108.2 4.7,108.8 5.3,109.4 6.0,109.9 6.7,110.3 7.5,110.7 8.3,111.0 9.1,111.2 10.0,111.4 10.8,111.5 11.7,111.5 12.6,111.4 13.4,111.3 14.3,111.1 15.1,110.8 15.9,110.5 16.6,110.1 17.3,109.6 18.0,109.1 18.6,108.5 19.2,107.9 19.7,107.2 20.2,106.4 20.6,105.7 20.9,104.9 21.2,104.1 21.3,103.2 21.5,102.4" fill="#5F5F5F" stroke="#000000" stroke-width="1.0" stroke-linecap="round" stroke-linejoin="round" />
		</g>
		<g id="flange_b" class="port">
			<polygon points="221.5,101.5 221.5,100.6 221.3,99.8 221.2,98.9 220.9,98.1 220.6,97.3 220.2,96.6 219.7,95.8 219.2,95.1 218.6,94.5 218.0,93.9 217.3,93.4 216.6,92.9 215.9,92.5 215.1,92.2 214.3,91.9 213.4,91.7 212.6,91.6 211.7,91.5 210.8,91.5 210.0,91.6 209.1,91.8 208.3,92.0 207.5,92.3 206.7,92.7 206.0,93.1 205.3,93.6 204.7,94.2 204.0,94.8 203.5,95.5 203.0,96.2 202.6,96.9 202.2,97.7 201.9,98.5 201.7,99.4 201.6,100.2 201.5,101.1 201.5,101.9 201.6,102.8 201.7,103.6 201.9,104.5 202.2,105.3 202.6,106.1 203.0,106.8 203.5,107.5 204.0,108.2 204.7,108.8 205.3,109.4 206.0,109.9 206.7,110.3 207.5,110.7 208.3,111.0 209.1,111.2 210.0,111.4 210.8,111.5 211.7,111.5 212.6,111.4 213.4,111.3 214.3,111.1 215.1,110.8 215.9,110.5 216.6,110.1 217.3,109.6 218.0,109.1 218.6,108.5 219.2,107.9 219.7,107.2 220.2,106.4 220.6,105.7 220.9,104.9 221.2,104.1 221.3,103.2 221.5,102.4" fill="#FFFFFF" stroke="#000000" stroke-width="1.0" stroke-linecap="round" stroke-linejoin="round" />
		</g>
		<g id="tau" class="port">
			<polygon points="131.5,41.5 111.5,81.5 91.5,41.5" fill="#00007F" stroke="#00007F" stroke-width="1.0" stroke-linecap="round" stroke-linejoin="round" />
		</g>
	</g>
</svg>
