<svg width="203" height="213" xmlns="http://www.w3.org/2000/svg" xmlns:xlink="http://www.w3.org/1999/xlink">
	<g id="port" class="port">
		<polygon points="101.5,191.5 100.6,191.5 99.8,191.6 98.9,191.8 98.1,192.1 97.3,192.4 96.6,192.8 95.8,193.3 95.1,193.8 94.5,194.4 93.9,195.0 93.4,195.7 92.9,196.4 92.5,197.1 92.2,197.9 91.9,198.7 91.7,199.6 91.6,200.4 91.5,201.3 91.5,202.1 91.6,203.0 91.8,203.8 92.0,204.7 92.3,205.5 92.7,206.2 93.1,207.0 93.6,207.7 94.2,208.3 94.8,208.9 95.5,209.5 96.2,210.0 96.9,210.4 97.7,210.8 98.5,211.0 99.4,211.3 100.2,211.4 101.1,211.5 101.9,211.5 102.8,211.4 103.6,211.3 104.5,211.0 105.3,210.8 106.1,210.4 106.8,210.0 107.5,209.5 108.2,208.9 108.8,208.3 109.4,207.7 109.9,207.0 110.3,206.2 110.7,205.5 111.0,204.7 111.2,203.8 111.4,203.0 111.5,202.1 111.5,201.3 111.4,200.4 111.3,199.6 111.1,198.7 110.8,197.9 110.5,197.1 110.1,196.4 109.6,195.7 109.1,195.0 108.5,194.4 107.9,193.8 107.2,193.3 106.4,192.8 105.7,192.4 104.9,192.1 104.1,191.8 103.2,191.6 102.4,191.5" fill="#007FFF" stroke="#007FFF" stroke-width="1.0" stroke-linecap="round" stroke-linejoin="round" />
		<polygon points="101.5,191.5 100.6,191.5 99.8,191.6 98.9,191.8 98.1,192.1 97.3,192.4 96.6,192.8 95.8,193.3 95.1,193.8 94.5,194.4 93.9,195.0 93.4,195.7 92.9,196.4 92.5,197.1 92.2,197.9 91.9,198.7 91.7,199.6 91.6,200.4 91.5,201.3 91.5,202.1 91.6,203.0 91.8,203.8 92.0,204.7 92.3,205.5 92.7,206.2 93.1,207.0 93.6,207.7 94.2,208.3 94.8,208.9 95.5,209.5 96.2,210.0 96.9,210.4 97.7,210.8 98.5,211.0 99.4,211.3 100.2,211.4 101.1,211.5 101.9,211.5 102.8,211.4 103.6,211.3 104.5,211.0 105.3,210.8 106.1,210.4 106.8,210.0 107.5,209.5 108.2,208.9 108.8,208.3 109.4,207.7 109.9,207.0 110.3,206.2 110.7,205.5 111.0,204.7 111.2,203.8 111.4,203.0 111.5,202.1 111.5,201.3 111.4,200.4 111.3,199.6 111.1,198.7 110.8,197.9 110.5,197.1 110.1,196.4 109.6,195.7 109.1,195.0 108.5,194.4 107.9,193.8 107.2,193.3 106.4,192.8 105.7,192.4 104.9,192.1 104.1,191.8 103.2,191.6 102.4,191.5" fill="#007FFF" stroke="#000000" stroke-width="1.0" stroke-linecap="round" stroke-linejoin="round" />
	</g>
</svg>
