<svg width="223" height="223" xmlns="http://www.w3.org/2000/svg" xmlns:xlink="http://www.w3.org/1999/xlink">
	<g id="Modelica.Electrical.Machines.BasicMachines.Components.PartialAirGapDC" class="component">
		<polygon points="201.5,112.5 201.2,104.7 200.2,96.9 198.5,89.3 196.2,81.8 193.3,74.5 189.8,67.6 185.7,60.9 181.0,54.7 175.8,48.8 170.2,43.5 164.1,38.6 157.6,34.4 150.8,30.6 143.7,27.5 136.3,25.0 128.8,23.2 121.2,22.0 113.4,21.5 105.7,21.7 98.0,22.5 90.4,24.0 83.0,26.2 75.7,29.0 68.8,32.4 62.1,36.4 55.8,41.0 49.9,46.1 44.5,51.7 39.6,57.8 35.2,64.2 31.4,71.0 28.2,78.1 25.6,85.5 23.6,93.1 22.2,100.8 21.6,108.6 21.6,116.4 22.2,124.2 23.6,131.9 25.6,139.5 28.2,146.9 31.4,154.0 35.2,160.8 39.6,167.2 44.5,173.3 49.9,178.9 55.8,184.0 62.1,188.6 68.8,192.6 75.7,196.0 83.0,198.8 90.4,201.0 98.0,202.5 105.7,203.3 113.4,203.5 121.2,203.0 128.8,201.8 136.3,200.0 143.7,197.5 150.8,194.4 157.6,190.6 164.1,186.4 170.2,181.5 175.8,176.2 181.0,170.3 185.7,164.1 189.8,157.4 193.3,150.5 196.2,143.2 198.5,135.7 200.2,128.1 201.2,120.3" fill="#FFFFFF" stroke="#0000FF" stroke-width="1.0" stroke-linecap="butt" stroke-linejoin="round" />
		<polygon points="191.5,111.5 191.2,104.6 190.3,97.8 188.8,91.1 186.8,84.5 184.2,78.1 181.1,72.0 177.4,66.2 173.3,60.7 168.7,55.5 163.7,50.8 158.2,46.6 152.5,42.8 146.4,39.5 140.1,36.8 133.6,34.6 126.9,33.0 120.1,32.0 113.2,31.5 106.3,31.7 99.5,32.4 92.7,33.7 86.1,35.6 79.7,38.1 73.5,41.1 67.6,44.6 62.0,48.6 56.8,53.1 52.0,58.1 47.6,63.4 43.7,69.0 40.3,75.0 37.4,81.3 35.1,87.8 33.3,94.4 32.2,101.2 31.6,108.1 31.6,114.9 32.2,121.8 33.3,128.6 35.1,135.2 37.4,141.7 40.3,148.0 43.7,154.0 47.6,159.6 52.0,164.9 56.8,169.9 62.0,174.4 67.6,178.4 73.5,181.9 79.7,184.9 86.1,187.4 92.7,189.3 99.5,190.6 106.3,191.3 113.2,191.5 120.1,191.0 126.9,190.0 133.6,188.4 140.1,186.2 146.4,183.5 152.5,180.2 158.2,176.4 163.7,172.2 168.7,167.5 173.3,162.3 177.4,156.8 181.1,151.0 184.2,144.9 186.8,138.5 188.8,131.9 190.3,125.2 191.2,118.4" fill="#FFFFFF" stroke="#0000FF" stroke-width="1.0" stroke-linecap="butt" stroke-linejoin="round" />
		<defs>
			<linearGradient id="cyl4" x1="0" y1="0" x2="1" y2="0">
				<stop offset="0%" stop-color="#000000" />
				<stop offset="5%" stop-color="#181818" />
				<stop offset="10%" stop-color="#2E2E2E" />
				<stop offset="15%" stop-color="#414141" />
				<stop offset="20%" stop-color="#525252" />
				<stop offset="25%" stop-color="#606060" />
				<stop offset="30%" stop-color="#6C6C6C" />
				<stop offset="35%" stop-color="#747474" />
				<stop offset="40%" stop-color="#7B7B7B" />
				<stop offset="45%" stop-color="#7F7F7F" />
				<stop offset="50%" stop-color="#808080" />
				<stop offset="55%" stop-color="#7F7F7F" />
				<stop offset="60%" stop-color="#7B7B7B" />
				<stop offset="65%" stop-color="#747474" />
				<stop offset="70%" stop-color="#6C6C6C" />
				<stop offset="75%" stop-color="#606060" />
				<stop offset="80%" stop-color="#525252" />
				<stop offset="85%" stop-color="#414141" />
				<stop offset="90%" stop-color="#2E2E2E" />
				<stop offset="95%" stop-color="#181818" />
				<stop offset="100%" stop-color="#000000" />
			</linearGradient>
		</defs>
		<polygon points="101.5,191.5 121.5,191.5 121.5,21.5 101.5,21.5" fill="url(#cyl4)" stroke="#000000" stroke-width="1.0" stroke-linecap="butt" stroke-linejoin="round" />
		<text x="151.5" y="149.4" text-anchor="middle" fill="#000000" font-size="106.3px" font-family="sans-serif">E</text>
		<text x="71.5" y="149.4" text-anchor="middle" fill="#000000" font-size="106.3px" font-family="sans-serif">A</text>
		<g id="flange" class="port">
			<polygon points="121.5,11.5 121.5,12.4 121.4,13.2 121.2,14.1 120.9,14.9 120.6,15.7 120.2,16.4 119.7,17.2 119.2,17.9 118.6,18.5 118.0,19.1 117.3,19.6 116.6,20.1 115.9,20.5 115.1,20.8 114.3,21.1 113.4,21.3 112.6,21.4 111.7,21.5 110.9,21.5 110.0,21.4 109.2,21.2 108.3,21.0 107.5,20.7 106.8,20.3 106.0,19.9 105.3,19.4 104.7,18.8 104.1,18.2 103.5,17.5 103.0,16.8 102.6,16.1 102.2,15.3 102.0,14.5 101.7,13.6 101.6,12.8 101.5,11.9 101.5,11.1 101.6,10.2 101.7,9.4 102.0,8.5 102.2,7.7 102.6,6.9 103.0,6.2 103.5,5.5 104.1,4.8 104.7,4.2 105.3,3.6 106.0,3.1 106.8,2.7 107.5,2.3 108.3,2.0 109.2,1.8 110.0,1.6 110.9,1.5 111.7,1.5 112.6,1.6 113.4,1.7 114.3,1.9 115.1,2.2 115.9,2.5 116.6,2.9 117.3,3.4 118.0,3.9 118.6,4.5 119.2,5.1 119.7,5.8 120.2,6.6 120.6,7.3 120.9,8.1 121.2,8.9 121.4,9.8 121.5,10.6" fill="#5F5F5F" stroke="#000000" stroke-width="1.0" stroke-linecap="butt" stroke-linejoin="round" />
		</g>
		<g id="support" class="port">
			<polygon points="121.5,211.5 121.5,210.6 121.4,209.8 121.2,208.9 120.9,208.1 120.6,207.3 120.2,206.6 119.7,205.8 119.2,205.1 118.6,204.5 118.0,203.9 117.3,203.4 116.6,202.9 115.9,202.5 115.1,202.2 114.3,201.9 113.4,201.7 112.6,201.6 111.7,201.5 110.9,201.5 110.0,201.6 109.2,201.8 108.3,202.0 107.5,202.3 106.8,202.7 106.0,203.1 105.3,203.6 104.7,204.2 104.1,204.8 103.5,205.5 103.0,206.2 102.6,206.9 102.2,207.7 102.0,208.5 101.7,209.4 101.6,210.2 101.5,211.1 101.5,211.9 101.6,212.8 101.7,213.6 102.0,214.5 102.2,215.3 102.6,216.1 103.0,216.8 103.5,217.5 104.1,218.2 104.7,218.8 105.3,219.4 106.0,219.9 106.8,220.3 107.5,220.7 108.3,221.0 109.2,221.2 110.0,221.4 110.9,221.5 111.7,221.5 112.6,221.4 113.4,221.3 114.3,221.1 115.1,220.8 115.9,220.5 116.6,220.1 117.3,219.6 118.0,219.1 118.6,218.5 119.2,217.9 119.7,217.2 120.2,216.4 120.6,215.7 120.9,214.9 121.2,214.1 121.4,213.2 121.5,212.4" fill="#5F5F5F" stroke="#000000" stroke-width="1.0" stroke-linecap="butt" stroke-linejoin="round" />
		</g>
		<g id="pin_ap" class="port">
			<polygon points="1.5,1.5 21.5,1.5 21.5,21.5 1.5,21.5" fill="#0000FF" stroke="#0000FF" stroke-width="1.0" stroke-linecap="butt" stroke-linejoin="round" />
		</g>
		<g id="pin_ep" class="port">
			<polygon points="201.5,1.5 221.5,1.5 221.5,21.5 201.5,21.5" fill="#0000FF" stroke="#0000FF" stroke-width="1.0" stroke-linecap="butt" stroke-linejoin="round" />
		</g>
		<g id="pin_an" class="port">
			<polygon points="1.5,221.5 21.5,221.5 21.5,201.5 1.5,201.5" fill="#FFFFFF" stroke="#0000FF" stroke-width="1.0" stroke-linecap="butt" stroke-linejoin="round" />
		</g>
		<g id="pin_en" class="port">
			<polygon points="201.5,221.5 221.5,221.5 221.5,201.5 201.5,201.5" fill="#FFFFFF" stroke="#0000FF" stroke-width="1.0" stroke-linecap="butt" stroke-linejoin="round" />
		</g>
	</g>
</svg>
