<svg width="203" height="203" xmlns="http://www.w3.org/2000/svg" xmlns:xlink="http://www.w3.org/1999/xlink">
	<g id="Modelica.Blocks.Discrete" class="component">
		<defs>
			<linearGradient id="cyl2" x1="0" y1="0" x2="0" y2="1">
				<stop offset="0%" stop-color="#C8C8C8" />
				<stop offset="5%" stop-color="#D1D1D1" />
				<stop offset="10%" stop-color="#D9D9D9" />
				<stop offset="15%" stop-color="#E0E0E0" />
				<stop offset="20%" stop-color="#E7E7E7" />
				<stop offset="25%" stop-color="#ECECEC" />
				<stop offset="30%" stop-color="#F0F0F0" />
				<stop offset="35%" stop-color="#F4F4F4" />
				<stop offset="40%" stop-color="#F6F6F6" />
				<stop offset="45%" stop-color="#F8F8F8" />
				<stop offset="50%" stop-color="#F8F8F8" />
				<stop offset="55%" stop-color="#F8F8F8" />
				<stop offset="60%" stop-color="#F6F6F6" />
				<stop offset="65%" stop-color="#F4F4F4" />
				<stop offset="70%" stop-color="#F0F0F0" />
				<stop offset="75%" stop-color="#ECECEC" />
				<stop offset="80%" stop-color="#E7E7E7" />
				<stop offset="85%" stop-color="#E0E0E0" />
				<stop offset="90%" stop-color="#D9D9D9" />
				<stop offset="95%" stop-color="#D1D1D1" />
				<stop offset="100%" stop-color="#C8C8C8" />
			</linearGradient>
		</defs>
		<polygon points="8.8,194.2 11.0,196.1 13.3,197.8 15.7,199.1 18.2,200.2 20.8,200.9 23.6,201.4 26.5,201.5 26.5,201.5 50.4,201.5 101.5,201.5 101.5,201.5 152.6,201.5 176.5,201.5 176.5,201.5 179.4,201.4 182.2,200.9 184.8,200.2 187.3,199.1 189.7,197.8 192.0,196.1 194.2,194.2 194.2,194.2 196.1,192.0 197.8,189.7 199.1,187.3 200.2,184.8 200.9,182.2 201.4,179.4 201.5,176.5 201.5,176.5 201.5,152.6 201.5,101.5 201.5,101.5 201.5,50.4 201.5,26.5 201.5,26.5 201.4,23.6 200.9,20.8 200.2,18.2 199.1,15.7 197.8,13.3 196.1,11.0 194.2,8.8 194.2,8.8 192.0,6.9 189.7,5.2 187.3,3.9 184.8,2.8 182.2,2.1 179.4,1.6 176.5,1.5 176.5,1.5 152.6,1.5 101.5,1.5 101.5,1.5 50.4,1.5 26.5,1.5 26.5,1.5 23.6,1.6 20.8,2.1 18.2,2.8 15.7,3.9 13.3,5.2 11.0,6.9 8.8,8.8 8.8,8.8 6.9,11.0 5.2,13.3 3.9,15.7 2.8,18.2 2.1,20.8 1.6,23.6 1.5,26.5 1.5,26.5 1.5,50.4 1.5,101.5 1.5,101.5 1.5,152.6 1.5,176.5 1.5,176.5 1.6,179.4 2.1,182.2 2.8,184.8 3.9,187.3 5.2,189.7 6.9,192.0" fill="url(#cyl2)" stroke="#C8C8C8" stroke-width="1.0" stroke-linecap="butt" stroke-linejoin="round" />
		<polygon points="8.8,194.2 11.0,196.1 13.3,197.8 15.7,199.1 18.2,200.2 20.8,200.9 23.6,201.4 26.5,201.5 26.5,201.5 50.4,201.5 101.5,201.5 101.5,201.5 152.6,201.5 176.5,201.5 176.5,201.5 179.4,201.4 182.2,200.9 184.8,200.2 187.3,199.1 189.7,197.8 192.0,196.1 194.2,194.2 194.2,194.2 196.1,192.0 197.8,189.7 199.1,187.3 200.2,184.8 200.9,182.2 201.4,179.4 201.5,176.5 201.5,176.5 201.5,152.6 201.5,101.5 201.5,101.5 201.5,50.4 201.5,26.5 201.5,26.5 201.4,23.6 200.9,20.8 200.2,18.2 199.1,15.7 197.8,13.3 196.1,11.0 194.2,8.8 194.2,8.8 192.0,6.9 189.7,5.2 187.3,3.9 184.8,2.8 182.2,2.1 179.4,1.6 176.5,1.5 176.5,1.5 152.6,1.5 101.5,1.5 101.5,1.5 50.4,1.5 26.5,1.5 26.5,1.5 23.6,1.6 20.8,2.1 18.2,2.8 15.7,3.9 13.3,5.2 11.0,6.9 8.8,8.8 8.8,8.8 6.9,11.0 5.2,13.3 3.9,15.7 2.8,18.2 2.1,20.8 1.6,23.6 1.5,26.5 1.5,26.5 1.5,50.4 1.5,101.5 1.5,101.5 1.5,152.6 1.5,176.5 1.5,176.5 1.6,179.4 2.1,182.2 2.8,184.8 3.9,187.3 5.2,189.7 6.9,192.0" fill-opacity="0" stroke="#808080" stroke-width="1.0" stroke-linecap="butt" stroke-linejoin="round" />
		<polyline points="13.5,101.5 56.5,101.5" fill-opacity="0" stroke="#5F5F5F" stroke-width="1.0" stroke-linecap="butt" stroke-linejoin="round" />
		<polygon points="76.5,101.5 76.5,100.6 76.4,99.8 76.2,98.9 75.9,98.1 75.6,97.3 75.2,96.6 74.7,95.8 74.2,95.1 73.6,94.5 73.0,93.9 72.3,93.4 71.6,92.9 70.9,92.5 70.1,92.2 69.3,91.9 68.4,91.7 67.6,91.6 66.7,91.5 65.9,91.5 65.0,91.6 64.2,91.8 63.3,92.0 62.5,92.3 61.8,92.7 61.0,93.1 60.3,93.6 59.7,94.2 59.1,94.8 58.5,95.5 58.0,96.2 57.6,96.9 57.2,97.7 57.0,98.5 56.7,99.4 56.6,100.2 56.5,101.1 56.5,101.9 56.6,102.8 56.7,103.6 57.0,104.5 57.2,105.3 57.6,106.1 58.0,106.8 58.5,107.5 59.1,108.2 59.7,108.8 60.3,109.4 61.0,109.9 61.8,110.3 62.5,110.7 63.3,111.0 64.2,111.2 65.0,111.4 65.9,111.5 66.7,111.5 67.6,111.4 68.4,111.3 69.3,111.1 70.1,110.8 70.9,110.5 71.6,110.1 72.3,109.6 73.0,109.1 73.6,108.5 74.2,107.9 74.7,107.2 75.2,106.4 75.6,105.7 75.9,104.9 76.2,104.1 76.4,103.2 76.5,102.4" fill="#FFFFFF" stroke="#5F5F5F" stroke-width="1.0" stroke-linecap="butt" stroke-linejoin="round" />
		<polyline points="66.5,101.5 125.5,49.5" fill-opacity="0" stroke="#5F5F5F" stroke-width="1.0" stroke-linecap="butt" stroke-linejoin="round" />
		<polygon points="146.5,101.5 146.5,100.6 146.4,99.8 146.2,98.9 145.9,98.1 145.6,97.3 145.2,96.6 144.7,95.8 144.2,95.1 143.6,94.5 143.0,93.9 142.3,93.4 141.6,92.9 140.9,92.5 140.1,92.2 139.3,91.9 138.4,91.7 137.6,91.6 136.7,91.5 135.9,91.5 135.0,91.6 134.2,91.8 133.3,92.0 132.5,92.3 131.8,92.7 131.0,93.1 130.3,93.6 129.7,94.2 129.1,94.8 128.5,95.5 128.0,96.2 127.6,96.9 127.2,97.7 127.0,98.5 126.7,99.4 126.6,100.2 126.5,101.1 126.5,101.9 126.6,102.8 126.7,103.6 127.0,104.5 127.2,105.3 127.6,106.1 128.0,106.8 128.5,107.5 129.1,108.2 129.7,108.8 130.3,109.4 131.0,109.9 131.8,110.3 132.5,110.7 133.3,111.0 134.2,111.2 135.0,111.4 135.9,111.5 136.7,111.5 137.6,111.4 138.4,111.3 139.3,111.1 140.1,110.8 140.9,110.5 141.6,110.1 142.3,109.6 143.0,109.1 143.6,108.5 144.2,107.9 144.7,107.2 145.2,106.4 145.6,105.7 145.9,104.9 146.2,104.1 146.4,103.2 146.5,102.4" fill="#FFFFFF" stroke="#5F5F5F" stroke-width="1.0" stroke-linecap="butt" stroke-linejoin="round" />
		<polyline points="146.5,101.5 183.5,101.5" fill-opacity="0" stroke="#5F5F5F" stroke-width="1.0" stroke-linecap="butt" stroke-linejoin="round" />
	</g>
</svg>
