<svg width="223" height="213" xmlns="http://www.w3.org/2000/svg" xmlns:xlink="http://www.w3.org/1999/xlink">
	<g id="Modelica.Magnetic.FundamentalWave.BasicMachines.Components.SymmetricMultiPhaseCageWinding" class="component">
		<polygon points="191.5,101.5 191.2,94.6 190.3,87.8 188.8,81.1 186.8,74.5 184.2,68.1 181.1,62.0 177.4,56.2 173.3,50.7 168.7,45.5 163.6,40.8 158.2,36.6 152.5,32.8 146.4,29.5 140.1,26.8 133.6,24.6 126.9,23.0 120.1,22.0 113.2,21.5 106.3,21.7 99.5,22.4 92.7,23.7 86.1,25.6 79.7,28.1 73.5,31.1 67.6,34.6 62.0,38.6 56.8,43.1 52.0,48.1 47.6,53.4 43.7,59.0 40.3,65.0 37.4,71.3 35.1,77.8 33.3,84.4 32.2,91.2 31.6,98.1 31.6,104.9 32.2,111.8 33.3,118.6 35.1,125.2 37.4,131.7 40.3,138.0 43.7,144.0 47.6,149.6 52.0,154.9 56.8,159.9 62.0,164.4 67.6,168.4 73.5,171.9 79.7,174.9 86.1,177.4 92.7,179.3 99.5,180.6 106.3,181.3 113.2,181.5 120.1,181.0 126.9,180.0 133.6,178.4 140.1,176.2 146.4,173.5 152.5,170.2 158.2,166.4 163.6,162.2 168.7,157.5 173.3,152.3 177.4,146.8 181.1,141.0 184.2,134.9 186.8,128.5 188.8,121.9 190.3,115.2 191.2,108.4" fill="#AFAFAF" stroke="#000000" stroke-width="1.0" stroke-linecap="round" stroke-linejoin="round" />
		<polygon points="131.5,45.5 131.4,43.8 131.2,42.1 130.8,40.4 130.3,38.7 129.7,37.2 128.9,35.6 128.0,34.2 126.9,32.8 125.8,31.5 124.5,30.3 123.2,29.3 121.7,28.3 120.2,27.5 118.6,26.8 117.0,26.3 115.3,25.9 113.6,25.6 111.9,25.5 110.2,25.5 108.5,25.7 106.8,26.1 105.1,26.5 103.5,27.1 102.0,27.9 100.5,28.8 99.1,29.8 97.8,30.9 96.6,32.1 95.5,33.5 94.5,34.9 93.7,36.4 93.0,37.9 92.4,39.6 92.0,41.2 91.7,42.9 91.5,44.6 91.5,46.4 91.7,48.1 92.0,49.8 92.4,51.4 93.0,53.1 93.7,54.6 94.5,56.1 95.5,57.5 96.6,58.9 97.8,60.1 99.1,61.2 100.5,62.2 102.0,63.1 103.5,63.9 105.1,64.5 106.8,64.9 108.5,65.3 110.2,65.5 111.9,65.5 113.6,65.4 115.3,65.1 117.0,64.7 118.6,64.2 120.2,63.5 121.7,62.7 123.2,61.7 124.5,60.7 125.8,59.5 126.9,58.2 128.0,56.8 128.9,55.4 129.7,53.8 130.3,52.3 130.8,50.6 131.2,48.9 131.4,47.2" fill="#FFFFFF" stroke="#000000" stroke-width="1.0" stroke-linecap="round" stroke-linejoin="round" />
		<polygon points="179.5,75.5 179.4,73.8 179.2,72.1 178.8,70.4 178.3,68.7 177.7,67.2 176.9,65.6 176.0,64.2 174.9,62.8 173.8,61.5 172.5,60.3 171.2,59.3 169.7,58.3 168.2,57.5 166.6,56.8 165.0,56.3 163.3,55.9 161.6,55.6 159.9,55.5 158.2,55.5 156.5,55.7 154.8,56.1 153.1,56.5 151.5,57.1 150.0,57.9 148.5,58.8 147.1,59.8 145.8,60.9 144.6,62.1 143.5,63.5 142.5,64.9 141.7,66.4 141.0,67.9 140.4,69.6 140.0,71.2 139.7,72.9 139.5,74.6 139.5,76.4 139.7,78.1 140.0,79.8 140.4,81.4 141.0,83.1 141.7,84.6 142.5,86.1 143.5,87.5 144.6,88.9 145.8,90.1 147.1,91.2 148.5,92.2 150.0,93.1 151.5,93.9 153.1,94.5 154.8,94.9 156.5,95.3 158.2,95.5 159.9,95.5 161.6,95.4 163.3,95.1 165.0,94.7 166.6,94.2 168.2,93.5 169.7,92.7 171.2,91.7 172.5,90.7 173.8,89.5 174.9,88.2 176.0,86.8 176.9,85.4 177.7,83.8 178.3,82.3 178.8,80.6 179.2,78.9 179.4,77.2" fill="#FFFFFF" stroke="#000000" stroke-width="1.0" stroke-linecap="round" stroke-linejoin="round" />
		<polygon points="179.5,129.5 179.4,127.8 179.2,126.1 178.8,124.4 178.3,122.7 177.7,121.2 176.9,119.6 176.0,118.2 174.9,116.8 173.8,115.5 172.5,114.3 171.2,113.3 169.7,112.3 168.2,111.5 166.6,110.8 165.0,110.3 163.3,109.9 161.6,109.6 159.9,109.5 158.2,109.5 156.5,109.7 154.8,110.1 153.1,110.5 151.5,111.1 150.0,111.9 148.5,112.8 147.1,113.8 145.8,114.9 144.6,116.1 143.5,117.5 142.5,118.9 141.7,120.4 141.0,121.9 140.4,123.6 140.0,125.2 139.7,126.9 139.5,128.6 139.5,130.4 139.7,132.1 140.0,133.8 140.4,135.4 141.0,137.1 141.7,138.6 142.5,140.1 143.5,141.5 144.6,142.9 145.8,144.1 147.1,145.2 148.5,146.2 150.0,147.1 151.5,147.9 153.1,148.5 154.8,148.9 156.5,149.3 158.2,149.5 159.9,149.5 161.6,149.4 163.3,149.1 165.0,148.7 166.6,148.2 168.2,147.5 169.7,146.7 171.2,145.7 172.5,144.7 173.8,143.5 174.9,142.2 176.0,140.8 176.9,139.4 177.7,137.8 178.3,136.3 178.8,134.6 179.2,132.9 179.4,131.2" fill="#FFFFFF" stroke="#000000" stroke-width="1.0" stroke-linecap="round" stroke-linejoin="round" />
		<polygon points="131.5,157.5 131.4,155.8 131.2,154.1 130.8,152.4 130.3,150.7 129.7,149.2 128.9,147.6 128.0,146.2 126.9,144.8 125.8,143.5 124.5,142.3 123.2,141.3 121.7,140.3 120.2,139.5 118.6,138.8 117.0,138.3 115.3,137.9 113.6,137.6 111.9,137.5 110.2,137.5 108.5,137.7 106.8,138.1 105.1,138.5 103.5,139.1 102.0,139.9 100.5,140.8 99.1,141.8 97.8,142.9 96.6,144.1 95.5,145.5 94.5,146.9 93.7,148.4 93.0,149.9 92.4,151.6 92.0,153.2 91.7,154.9 91.5,156.6 91.5,158.4 91.7,160.1 92.0,161.8 92.4,163.4 93.0,165.1 93.7,166.6 94.5,168.1 95.5,169.5 96.6,170.9 97.8,172.1 99.1,173.2 100.5,174.2 102.0,175.1 103.5,175.9 105.1,176.5 106.8,176.9 108.5,177.3 110.2,177.5 111.9,177.5 113.6,177.4 115.3,177.1 117.0,176.7 118.6,176.2 120.2,175.5 121.7,174.7 123.2,173.7 124.5,172.7 125.8,171.5 126.9,170.2 128.0,168.8 128.9,167.4 129.7,165.8 130.3,164.3 130.8,162.6 131.2,160.9 131.4,159.2" fill="#FFFFFF" stroke="#000000" stroke-width="1.0" stroke-linecap="round" stroke-linejoin="round" />
		<polygon points="83.5,127.5 83.4,125.8 83.2,124.1 82.8,122.4 82.3,120.7 81.7,119.2 80.9,117.6 80.0,116.2 78.9,114.8 77.8,113.5 76.5,112.3 75.2,111.3 73.7,110.3 72.2,109.5 70.6,108.8 69.0,108.3 67.3,107.9 65.6,107.6 63.9,107.5 62.2,107.5 60.5,107.7 58.8,108.1 57.1,108.5 55.5,109.1 54.0,109.9 52.5,110.8 51.1,111.8 49.8,112.9 48.6,114.1 47.5,115.5 46.5,116.9 45.7,118.4 45.0,119.9 44.4,121.6 44.0,123.2 43.7,124.9 43.5,126.6 43.5,128.4 43.7,130.1 44.0,131.8 44.4,133.4 45.0,135.1 45.7,136.6 46.5,138.1 47.5,139.5 48.6,140.9 49.8,142.1 51.1,143.2 52.5,144.2 54.0,145.1 55.5,145.9 57.1,146.5 58.8,146.9 60.5,147.3 62.2,147.5 63.9,147.5 65.6,147.4 67.3,147.1 69.0,146.7 70.6,146.2 72.2,145.5 73.7,144.7 75.2,143.7 76.5,142.7 77.8,141.5 78.9,140.2 80.0,138.8 80.9,137.4 81.7,135.8 82.3,134.3 82.8,132.6 83.2,130.9 83.4,129.2" fill="#FFFFFF" stroke="#000000" stroke-width="1.0" stroke-linecap="round" stroke-linejoin="round" />
		<polygon points="85.5,71.5 85.4,69.8 85.2,68.1 84.8,66.4 84.3,64.7 83.7,63.2 82.9,61.6 82.0,60.2 80.9,58.8 79.8,57.5 78.5,56.3 77.2,55.3 75.7,54.3 74.2,53.5 72.6,52.8 71.0,52.3 69.3,51.9 67.6,51.6 65.9,51.5 64.2,51.5 62.5,51.7 60.8,52.1 59.1,52.5 57.5,53.1 56.0,53.9 54.5,54.8 53.1,55.8 51.8,56.9 50.6,58.1 49.5,59.5 48.5,60.9 47.7,62.4 47.0,63.9 46.4,65.6 46.0,67.2 45.7,68.9 45.5,70.6 45.5,72.4 45.7,74.1 46.0,75.8 46.4,77.4 47.0,79.1 47.7,80.6 48.5,82.1 49.5,83.5 50.6,84.9 51.8,86.1 53.1,87.2 54.5,88.2 56.0,89.1 57.5,89.9 59.1,90.5 60.8,90.9 62.5,91.3 64.2,91.5 65.9,91.5 67.6,91.4 69.3,91.1 71.0,90.7 72.6,90.2 74.2,89.5 75.7,88.7 77.2,87.7 78.5,86.7 79.8,85.5 80.9,84.2 82.0,82.8 82.9,81.4 83.7,79.8 84.3,78.3 84.8,76.6 85.2,74.9 85.4,73.2" fill="#FFFFFF" stroke="#000000" stroke-width="1.0" stroke-linecap="round" stroke-linejoin="round" />
		<polyline points="31.5,101.5 11.5,101.5" fill-opacity="0" stroke="#FF8000" stroke-width="1.0" stroke-linecap="round" stroke-linejoin="round" />
		<polyline points="211.5,101.5 191.5,101.5" fill-opacity="0" stroke="#FF8000" stroke-width="1.0" stroke-linecap="round" stroke-linejoin="round" />
		<g id="port_p" class="port">
			<polygon points="21.5,101.5 21.5,100.6 21.3,99.8 21.2,98.9 20.9,98.1 20.6,97.3 20.2,96.6 19.7,95.8 19.2,95.1 18.6,94.5 18.0,93.9 17.3,93.4 16.6,92.9 15.9,92.5 15.1,92.2 14.3,91.9 13.4,91.7 12.6,91.6 11.7,91.5 10.8,91.5 10.0,91.6 9.1,91.8 8.3,92.0 7.5,92.3 6.7,92.7 6.0,93.1 5.3,93.6 4.7,94.2 4.0,94.8 3.5,95.5 3.0,96.2 2.6,96.9 2.2,97.7 1.9,98.5 1.7,99.4 1.6,100.2 1.5,101.1 1.5,101.9 1.6,102.8 1.7,103.6 1.9,104.5 2.2,105.3 2.6,106.1 3.0,106.8 3.5,107.5 4.0,108.2 4.7,108.8 5.3,109.4 6.0,109.9 6.7,110.3 7.5,110.7 8.3,111.0 9.1,111.2 10.0,111.4 10.8,111.5 11.7,111.5 12.6,111.4 13.4,111.3 14.3,111.1 15.1,110.8 15.9,110.5 16.6,110.1 17.3,109.6 18.0,109.1 18.6,108.5 19.2,107.9 19.7,107.2 20.2,106.4 20.6,105.7 20.9,104.9 21.2,104.1 21.3,103.2 21.5,102.4" fill="#FF8000" stroke="#FF8000" stroke-width="1.0" stroke-linecap="round" stroke-linejoin="round" />
		</g>
		<g id="port_n" class="port">
			<polygon points="221.5,101.5 221.5,100.6 221.3,99.8 221.2,98.9 220.9,98.1 220.6,97.3 220.2,96.6 219.7,95.8 219.2,95.1 218.6,94.5 218.0,93.9 217.3,93.4 216.6,92.9 215.9,92.5 215.1,92.2 214.3,91.9 213.4,91.7 212.6,91.6 211.7,91.5 210.8,91.5 210.0,91.6 209.1,91.8 208.3,92.0 207.5,92.3 206.7,92.7 206.0,93.1 205.3,93.6 204.7,94.2 204.0,94.8 203.5,95.5 203.0,96.2 202.6,96.9 202.2,97.7 201.9,98.5 201.7,99.4 201.6,100.2 201.5,101.1 201.5,101.9 201.6,102.8 201.7,103.6 201.9,104.5 202.2,105.3 202.6,106.1 203.0,106.8 203.5,107.5 204.0,108.2 204.7,108.8 205.3,109.4 206.0,109.9 206.7,110.3 207.5,110.7 208.3,111.0 209.1,111.2 210.0,111.4 210.8,111.5 211.7,111.5 212.6,111.4 213.4,111.3 214.3,111.1 215.1,110.8 215.9,110.5 216.6,110.1 217.3,109.6 218.0,109.1 218.6,108.5 219.2,107.9 219.7,107.2 220.2,106.4 220.6,105.7 220.9,104.9 221.2,104.1 221.3,103.2 221.5,102.4" fill="#FFFFFF" stroke="#FF8000" stroke-width="1.0" stroke-linecap="round" stroke-linejoin="round" />
		</g>
		<g id="heatPortWinding" class="port">
			<polygon points="101.5,211.5 121.5,211.5 121.5,191.5 101.5,191.5" fill="#BF0000" stroke="#BF0000" stroke-width="1.0" stroke-linecap="round" stroke-linejoin="round" />
		</g>
	</g>
</svg>
