<svg width="213" height="213" xmlns="http://www.w3.org/2000/svg" xmlns:xlink="http://www.w3.org/1999/xlink">
	<g id="Modelica.Fluid.Vessels.ClosedVolume" class="component">
		<defs>
			<radialGradient id="sph2">
				<stop offset="0%" stop-color="#AAD5FF" />
				<stop offset="10%" stop-color="#A8D3FC" />
				<stop offset="20%" stop-color="#A3CCF5" />
				<stop offset="30%" stop-color="#9BC2E8" />
				<stop offset="40%" stop-color="#8FB3D6" />
				<stop offset="50%" stop-color="#80A0BF" />
				<stop offset="60%" stop-color="#6D88A3" />
				<stop offset="70%" stop-color="#576D82" />
				<stop offset="80%" stop-color="#3D4D5C" />
				<stop offset="90%" stop-color="#202830" />
				<stop offset="100%" stop-color="#000000" />
			</radialGradient>
		</defs>
		<polygon points="211.5,101.5 211.1,92.9 210.0,84.4 208.2,76.0 205.6,67.7 202.4,59.8 198.5,52.1 193.9,44.8 188.7,38.0 183.0,31.6 176.7,25.7 169.9,20.3 162.7,15.6 155.2,11.5 147.3,8.1 139.1,5.4 130.7,3.4 122.2,2.1 113.7,1.5 105.0,1.7 96.5,2.6 88.1,4.3 79.8,6.7 71.7,9.7 64.0,13.5 56.6,17.9 49.6,22.9 43.1,28.5 37.1,34.7 31.6,41.3 26.7,48.4 22.5,55.9 18.9,63.7 16.0,71.8 13.8,80.1 12.3,88.6 11.6,97.2 11.6,105.8 12.3,114.4 13.8,122.9 16.0,131.2 18.9,139.3 22.5,147.1 26.7,154.6 31.6,161.7 37.1,168.3 43.1,174.5 49.6,180.1 56.6,185.1 64.0,189.5 71.7,193.3 79.8,196.3 88.1,198.7 96.5,200.4 105.0,201.3 113.7,201.5 122.2,200.9 130.7,199.6 139.1,197.6 147.3,194.9 155.2,191.5 162.7,187.4 169.9,182.7 176.7,177.3 183.0,171.4 188.7,165.0 193.9,158.2 198.5,150.9 202.4,143.2 205.6,135.3 208.2,127.0 210.0,118.6 211.1,110.1" fill="url(#sph2)" stroke="#000000" stroke-width="1.0" stroke-linecap="butt" stroke-linejoin="round" />
		<g id="ports" class="port">
			<polygon points="71.5,211.5 151.5,211.5 151.5,191.5 71.5,191.5" fill="#FFFFFF" stroke="#007FFF" stroke-width="1.0" stroke-linecap="butt" stroke-linejoin="round" />
			<polygon points="95.5,201.5 95.5,200.6 95.4,199.8 95.2,198.9 94.9,198.1 94.6,197.3 94.2,196.6 93.8,195.8 93.3,195.1 92.8,194.5 92.2,193.9 91.5,193.4 90.8,192.9 90.1,192.5 89.3,192.2 88.6,191.9 87.7,191.7 86.9,191.6 86.1,191.5 85.3,191.5 84.5,191.6 83.6,191.8 82.9,192.0 82.1,192.3 81.3,192.7 80.6,193.1 80.0,193.6 79.3,194.2 78.8,194.8 78.2,195.5 77.8,196.2 77.4,196.9 77.0,197.7 76.7,198.5 76.5,199.4 76.4,200.2 76.3,201.1 76.3,201.9 76.4,202.8 76.5,203.6 76.7,204.5 77.0,205.3 77.4,206.1 77.8,206.8 78.2,207.5 78.8,208.2 79.3,208.8 80.0,209.4 80.6,209.9 81.3,210.3 82.1,210.7 82.9,211.0 83.6,211.2 84.5,211.4 85.3,211.5 86.1,211.5 86.9,211.4 87.7,211.3 88.6,211.1 89.3,210.8 90.1,210.5 90.8,210.1 91.5,209.6 92.2,209.1 92.8,208.5 93.3,207.9 93.8,207.2 94.2,206.4 94.6,205.7 94.9,204.9 95.2,204.1 95.4,203.2 95.5,202.4" fill="#007FFF" stroke="#000000" stroke-width="1.0" stroke-linecap="butt" stroke-linejoin="round" />
			<polygon points="121.1,201.5 121.1,200.6 121.0,199.8 120.8,198.9 120.5,198.1 120.2,197.3 119.8,196.6 119.4,195.8 118.9,195.1 118.4,194.5 117.8,193.9 117.1,193.4 116.4,192.9 115.7,192.5 114.9,192.2 114.2,191.9 113.3,191.7 112.5,191.6 111.7,191.5 110.9,191.5 110.1,191.6 109.2,191.8 108.5,192.0 107.7,192.3 106.9,192.7 106.2,193.1 105.6,193.6 104.9,194.2 104.4,194.8 103.8,195.5 103.4,196.2 103.0,196.9 102.6,197.7 102.3,198.5 102.1,199.4 102.0,200.2 101.9,201.1 101.9,201.9 102.0,202.8 102.1,203.6 102.3,204.5 102.6,205.3 103.0,206.1 103.4,206.8 103.8,207.5 104.4,208.2 104.9,208.8 105.6,209.4 106.2,209.9 106.9,210.3 107.7,210.7 108.5,211.0 109.2,211.2 110.1,211.4 110.9,211.5 111.7,211.5 112.5,211.4 113.3,211.3 114.2,211.1 114.9,210.8 115.7,210.5 116.4,210.1 117.1,209.6 117.8,209.1 118.4,208.5 118.9,207.9 119.4,207.2 119.8,206.4 120.2,205.7 120.5,204.9 120.8,204.1 121.0,203.2 121.1,202.4" fill="#007FFF" stroke="#000000" stroke-width="1.0" stroke-linecap="butt" stroke-linejoin="round" />
			<polygon points="146.7,201.5 146.7,200.6 146.6,199.8 146.4,198.9 146.1,198.1 145.8,197.3 145.4,196.6 145.0,195.8 144.5,195.1 144.0,194.5 143.4,193.9 142.7,193.4 142.0,192.9 141.3,192.5 140.5,192.2 139.8,191.9 138.9,191.7 138.1,191.6 137.3,191.5 136.5,191.5 135.7,191.6 134.8,191.8 134.1,192.0 133.3,192.3 132.5,192.7 131.8,193.1 131.2,193.6 130.5,194.2 130.0,194.8 129.4,195.5 129.0,196.2 128.6,196.9 128.2,197.7 127.9,198.5 127.7,199.4 127.6,200.2 127.5,201.1 127.5,201.9 127.6,202.8 127.7,203.6 127.9,204.5 128.2,205.3 128.6,206.1 129.0,206.8 129.4,207.5 130.0,208.2 130.5,208.8 131.2,209.4 131.8,209.9 132.5,210.3 133.3,210.7 134.1,211.0 134.8,211.2 135.7,211.4 136.5,211.5 137.3,211.5 138.1,211.4 138.9,211.3 139.8,211.1 140.5,210.8 141.3,210.5 142.0,210.1 142.7,209.6 143.4,209.1 144.0,208.5 144.5,207.9 145.0,207.2 145.4,206.4 145.8,205.7 146.1,204.9 146.4,204.1 146.6,203.2 146.7,202.4" fill="#007FFF" stroke="#000000" stroke-width="1.0" stroke-linecap="butt" stroke-linejoin="round" />
			<polygon points="91.5,201.6 91.5,201.1 91.4,200.6 91.3,200.2 91.2,199.7 91.0,199.2 90.8,198.8 90.5,198.4 90.2,198.0 89.9,197.6 89.6,197.2 89.2,196.9 88.8,196.7 88.3,196.4 87.9,196.2 87.4,196.1 87.0,196.0 86.5,195.9 86.0,195.9 85.5,195.9 85.1,195.9 84.6,196.0 84.1,196.1 83.7,196.3 83.2,196.5 82.8,196.8 82.4,197.1 82.1,197.4 81.7,197.8 81.4,198.2 81.2,198.6 80.9,199.0 80.7,199.5 80.6,199.9 80.4,200.4 80.3,200.9 80.3,201.4 80.3,201.9 80.3,202.4 80.4,202.9 80.6,203.4 80.7,203.8 80.9,204.3 81.2,204.7 81.4,205.1 81.7,205.5 82.1,205.9 82.4,206.2 82.8,206.5 83.2,206.7 83.7,206.9 84.1,207.1 84.6,207.3 85.1,207.4 85.5,207.4 86.0,207.4 86.5,207.4 87.0,207.3 87.4,207.2 87.9,207.0 88.3,206.8 88.8,206.6 89.2,206.3 89.6,206.0 89.9,205.7 90.2,205.3 90.5,204.9 90.8,204.5 91.0,204.1 91.2,203.6 91.3,203.1 91.4,202.6 91.5,202.1" fill="#FFFFFF" stroke="#007FFF" stroke-width="1.0" stroke-linecap="butt" stroke-linejoin="round" />
			<polygon points="117.1,201.6 117.1,201.1 117.0,200.6 116.9,200.2 116.8,199.7 116.6,199.2 116.4,198.8 116.1,198.4 115.8,198.0 115.5,197.6 115.2,197.2 114.8,196.9 114.4,196.7 113.9,196.4 113.5,196.2 113.0,196.1 112.6,196.0 112.1,195.9 111.6,195.9 111.1,195.9 110.7,195.9 110.2,196.0 109.7,196.1 109.3,196.3 108.8,196.5 108.4,196.8 108.0,197.1 107.7,197.4 107.3,197.8 107.0,198.2 106.8,198.6 106.5,199.0 106.3,199.5 106.2,199.9 106.0,200.4 105.9,200.9 105.9,201.4 105.9,201.9 105.9,202.4 106.0,202.9 106.2,203.4 106.3,203.8 106.5,204.3 106.8,204.7 107.0,205.1 107.3,205.5 107.7,205.9 108.0,206.2 108.4,206.5 108.8,206.7 109.3,206.9 109.7,207.1 110.2,207.3 110.7,207.4 111.1,207.4 111.6,207.4 112.1,207.4 112.6,207.3 113.0,207.2 113.5,207.0 113.9,206.8 114.4,206.6 114.8,206.3 115.2,206.0 115.5,205.7 115.8,205.3 116.1,204.9 116.4,204.5 116.6,204.1 116.8,203.6 116.9,203.1 117.0,202.6 117.1,202.1" fill="#FFFFFF" stroke="#007FFF" stroke-width="1.0" stroke-linecap="butt" stroke-linejoin="round" />
			<polygon points="142.7,201.6 142.7,201.1 142.6,200.6 142.5,200.1 142.4,199.6 142.2,199.2 142.0,198.7 141.7,198.3 141.4,197.9 141.1,197.5 140.8,197.2 140.4,196.9 140.0,196.6 139.5,196.4 139.1,196.2 138.6,196.0 138.2,195.9 137.7,195.8 137.2,195.8 136.7,195.8 136.3,195.9 135.8,196.0 135.3,196.1 134.9,196.3 134.4,196.5 134.0,196.7 133.6,197.0 133.3,197.4 132.9,197.7 132.6,198.1 132.4,198.5 132.1,198.9 131.9,199.4 131.8,199.9 131.6,200.4 131.5,200.8 131.5,201.3 131.5,201.8 131.5,202.3 131.6,202.8 131.8,203.3 131.9,203.8 132.1,204.2 132.4,204.7 132.6,205.1 132.9,205.5 133.3,205.8 133.6,206.1 134.0,206.4 134.4,206.7 134.9,206.9 135.3,207.1 135.8,207.2 136.3,207.3 136.7,207.4 137.2,207.4 137.7,207.3 138.2,207.3 138.6,207.2 139.1,207.0 139.5,206.8 140.0,206.6 140.4,206.3 140.8,206.0 141.1,205.6 141.4,205.3 141.7,204.9 142.0,204.4 142.2,204.0 142.4,203.5 142.5,203.1 142.6,202.6 142.7,202.1" fill="#FFFFFF" stroke="#007FFF" stroke-width="1.0" stroke-linecap="butt" stroke-linejoin="round" />
		</g>
		<g id="heatPort" class="port">
			<polygon points="1.5,111.5 21.5,111.5 21.5,91.5 1.5,91.5" fill="#BF0000" stroke="#BF0000" stroke-width="1.0" stroke-linecap="butt" stroke-linejoin="round" />
		</g>
	</g>
</svg>
