<svg width="223" height="213" xmlns="http://www.w3.org/2000/svg" xmlns:xlink="http://www.w3.org/1999/xlink">
	<g id="Modelica.Fluid.Machines.Pump" class="component">
		<defs>
			<linearGradient id="cyl2" x1="0" y1="0" x2="0" y2="1">
				<stop offset="0%" stop-color="#000000" />
				<stop offset="5%" stop-color="#001830" />
				<stop offset="10%" stop-color="#002E5C" />
				<stop offset="15%" stop-color="#004182" />
				<stop offset="20%" stop-color="#0051A3" />
				<stop offset="25%" stop-color="#005FBF" />
				<stop offset="30%" stop-color="#006BD6" />
				<stop offset="35%" stop-color="#0074E8" />
				<stop offset="40%" stop-color="#007AF5" />
				<stop offset="45%" stop-color="#007EFC" />
				<stop offset="50%" stop-color="#007FFF" />
				<stop offset="55%" stop-color="#007EFC" />
				<stop offset="60%" stop-color="#007AF5" />
				<stop offset="65%" stop-color="#0074E8" />
				<stop offset="70%" stop-color="#006BD6" />
				<stop offset="75%" stop-color="#005FBF" />
				<stop offset="80%" stop-color="#0051A3" />
				<stop offset="85%" stop-color="#004182" />
				<stop offset="90%" stop-color="#002E5C" />
				<stop offset="95%" stop-color="#001830" />
				<stop offset="100%" stop-color="#000000" />
			</linearGradient>
		</defs>
		<polygon points="11.5,157.5 211.5,157.5 211.5,65.5 11.5,65.5" fill="url(#cyl2)" stroke="#000000" stroke-width="1.0" stroke-linecap="round" stroke-linejoin="round" />
		<defs>
			<linearGradient id="cyl3" x1="0" y1="0" x2="1" y2="0">
				<stop offset="0%" stop-color="#0000FF" />
				<stop offset="5%" stop-color="#0000CF" />
				<stop offset="10%" stop-color="#0000A3" />
				<stop offset="15%" stop-color="#00007D" />
				<stop offset="20%" stop-color="#00005C" />
				<stop offset="25%" stop-color="#000040" />
				<stop offset="30%" stop-color="#000029" />
				<stop offset="35%" stop-color="#000017" />
				<stop offset="40%" stop-color="#00000A" />
				<stop offset="45%" stop-color="#000003" />
				<stop offset="50%" stop-color="#000000" />
				<stop offset="55%" stop-color="#000003" />
				<stop offset="60%" stop-color="#00000A" />
				<stop offset="65%" stop-color="#000017" />
				<stop offset="70%" stop-color="#000029" />
				<stop offset="75%" stop-color="#000040" />
				<stop offset="80%" stop-color="#00005C" />
				<stop offset="85%" stop-color="#00007D" />
				<stop offset="90%" stop-color="#0000A3" />
				<stop offset="95%" stop-color="#0000CF" />
				<stop offset="100%" stop-color="#0000FF" />
			</linearGradient>
		</defs>
		<polygon points="63.5,171.5 39.5,211.5 183.5,211.5 159.5,171.5" fill="url(#cyl3)" stroke-opacity="0" stroke-width="1.0" stroke-linecap="round" stroke-linejoin="round" />
		<defs>
			<radialGradient id="sph4">
				<stop offset="0%" stop-color="#0064C7" />
				<stop offset="10%" stop-color="#0063C5" />
				<stop offset="20%" stop-color="#0060BF" />
				<stop offset="30%" stop-color="#005BB5" />
				<stop offset="40%" stop-color="#0054A7" />
				<stop offset="50%" stop-color="#004B95" />
				<stop offset="60%" stop-color="#00407F" />
				<stop offset="70%" stop-color="#003365" />
				<stop offset="80%" stop-color="#002448" />
				<stop offset="90%" stop-color="#001326" />
				<stop offset="100%" stop-color="#000000" />
			</radialGradient>
		</defs>
		<polygon points="191.5,111.5 191.2,104.6 190.3,97.8 188.8,91.1 186.8,84.5 184.2,78.1 181.1,72.0 177.4,66.2 173.3,60.7 168.7,55.5 163.6,50.8 158.2,46.6 152.5,42.8 146.4,39.5 140.1,36.8 133.6,34.6 126.9,33.0 120.1,32.0 113.2,31.5 106.3,31.7 99.5,32.4 92.7,33.7 86.1,35.6 79.7,38.1 73.5,41.1 67.6,44.6 62.0,48.6 56.8,53.1 52.0,58.1 47.6,63.4 43.7,69.0 40.3,75.0 37.4,81.3 35.1,87.8 33.3,94.4 32.2,101.2 31.6,108.1 31.6,114.9 32.2,121.8 33.3,128.6 35.1,135.2 37.4,141.7 40.3,148.0 43.7,154.0 47.6,159.6 52.0,164.9 56.8,169.9 62.0,174.3 67.6,178.4 73.5,181.9 79.7,184.9 86.1,187.4 92.7,189.3 99.5,190.6 106.3,191.3 113.2,191.5 120.1,191.0 126.9,190.0 133.6,188.4 140.1,186.2 146.4,183.5 152.5,180.2 158.2,176.4 163.6,172.2 168.7,167.5 173.3,162.3 177.4,156.8 181.1,151.0 184.2,144.9 186.8,138.5 188.8,131.9 190.3,125.2 191.2,118.4" fill="url(#sph4)" stroke="#000000" stroke-width="1.0" stroke-linecap="round" stroke-linejoin="round" />
		<defs>
			<linearGradient id="cyl5" x1="0" y1="0" x2="0" y2="1">
				<stop offset="0%" stop-color="#000000" />
				<stop offset="5%" stop-color="#303030" />
				<stop offset="10%" stop-color="#5C5C5C" />
				<stop offset="15%" stop-color="#828282" />
				<stop offset="20%" stop-color="#A3A3A3" />
				<stop offset="25%" stop-color="#BFBFBF" />
				<stop offset="30%" stop-color="#D6D6D6" />
				<stop offset="35%" stop-color="#E8E8E8" />
				<stop offset="40%" stop-color="#F5F5F5" />
				<stop offset="45%" stop-color="#FCFCFC" />
				<stop offset="50%" stop-color="#FFFFFF" />
				<stop offset="55%" stop-color="#FCFCFC" />
				<stop offset="60%" stop-color="#F5F5F5" />
				<stop offset="65%" stop-color="#E8E8E8" />
				<stop offset="70%" stop-color="#D6D6D6" />
				<stop offset="75%" stop-color="#BFBFBF" />
				<stop offset="80%" stop-color="#A3A3A3" />
				<stop offset="85%" stop-color="#828282" />
				<stop offset="90%" stop-color="#5C5C5C" />
				<stop offset="95%" stop-color="#303030" />
				<stop offset="100%" stop-color="#000000" />
			</linearGradient>
		</defs>
		<polygon points="83.5,81.5 83.5,141.5 161.5,113.5" fill="url(#cyl5)" stroke-opacity="0" stroke-width="1.0" stroke-linecap="round" stroke-linejoin="round" />
		<defs>
			<linearGradient id="cyl6" x1="0" y1="0" x2="1" y2="0">
				<stop offset="0%" stop-color="#000000" />
				<stop offset="5%" stop-color="#121212" />
				<stop offset="10%" stop-color="#222222" />
				<stop offset="15%" stop-color="#303030" />
				<stop offset="20%" stop-color="#3D3D3D" />
				<stop offset="25%" stop-color="#474747" />
				<stop offset="30%" stop-color="#505050" />
				<stop offset="35%" stop-color="#565656" />
				<stop offset="40%" stop-color="#5B5B5B" />
				<stop offset="45%" stop-color="#5E5E5E" />
				<stop offset="50%" stop-color="#5F5F5F" />
				<stop offset="55%" stop-color="#5E5E5E" />
				<stop offset="60%" stop-color="#5B5B5B" />
				<stop offset="65%" stop-color="#565656" />
				<stop offset="70%" stop-color="#505050" />
				<stop offset="75%" stop-color="#474747" />
				<stop offset="80%" stop-color="#3D3D3D" />
				<stop offset="85%" stop-color="#303030" />
				<stop offset="90%" stop-color="#222222" />
				<stop offset="95%" stop-color="#121212" />
				<stop offset="100%" stop-color="#000000" />
			</linearGradient>
		</defs>
		<polygon points="101.5,33.5 121.5,33.5 121.5,11.5 101.5,11.5" fill="url(#cyl6)" stroke="#000000" stroke-width="1.0" stroke-linecap="round" stroke-linejoin="round" />
		<g id="port_a" class="port">
			<polygon points="21.5,111.5 21.5,110.6 21.3,109.8 21.2,108.9 20.9,108.1 20.6,107.3 20.2,106.6 19.7,105.8 19.2,105.1 18.6,104.5 18.0,103.9 17.3,103.4 16.6,102.9 15.9,102.5 15.1,102.2 14.3,101.9 13.4,101.7 12.6,101.6 11.7,101.5 10.8,101.5 10.0,101.6 9.1,101.8 8.3,102.0 7.5,102.3 6.7,102.7 6.0,103.1 5.3,103.6 4.7,104.2 4.0,104.8 3.5,105.5 3.0,106.2 2.6,106.9 2.2,107.7 1.9,108.5 1.7,109.4 1.6,110.2 1.5,111.1 1.5,111.9 1.6,112.8 1.7,113.6 1.9,114.5 2.2,115.3 2.6,116.1 3.0,116.8 3.5,117.5 4.0,118.2 4.7,118.8 5.3,119.4 6.0,119.9 6.7,120.3 7.5,120.7 8.3,121.0 9.1,121.2 10.0,121.4 10.8,121.5 11.7,121.5 12.6,121.4 13.4,121.3 14.3,121.1 15.1,120.8 15.9,120.5 16.6,120.1 17.3,119.6 18.0,119.1 18.6,118.5 19.2,117.9 19.7,117.2 20.2,116.4 20.6,115.7 20.9,114.9 21.2,114.1 21.3,113.2 21.5,112.4" fill="#007FFF" stroke="#007FFF" stroke-width="1.0" stroke-linecap="round" stroke-linejoin="round" />
			<polygon points="21.5,111.5 21.5,110.6 21.3,109.8 21.2,108.9 20.9,108.1 20.6,107.3 20.2,106.6 19.7,105.8 19.2,105.1 18.6,104.5 18.0,103.9 17.3,103.4 16.6,102.9 15.9,102.5 15.1,102.2 14.3,101.9 13.4,101.7 12.6,101.6 11.7,101.5 10.8,101.5 10.0,101.6 9.1,101.8 8.3,102.0 7.5,102.3 6.7,102.7 6.0,103.1 5.3,103.6 4.7,104.2 4.0,104.8 3.5,105.5 3.0,106.2 2.6,106.9 2.2,107.7 1.9,108.5 1.7,109.4 1.6,110.2 1.5,111.1 1.5,111.9 1.6,112.8 1.7,113.6 1.9,114.5 2.2,115.3 2.6,116.1 3.0,116.8 3.5,117.5 4.0,118.2 4.7,118.8 5.3,119.4 6.0,119.9 6.7,120.3 7.5,120.7 8.3,121.0 9.1,121.2 10.0,121.4 10.8,121.5 11.7,121.5 12.6,121.4 13.4,121.3 14.3,121.1 15.1,120.8 15.9,120.5 16.6,120.1 17.3,119.6 18.0,119.1 18.6,118.5 19.2,117.9 19.7,117.2 20.2,116.4 20.6,115.7 20.9,114.9 21.2,114.1 21.3,113.2 21.5,112.4" fill="#007FFF" stroke="#000000" stroke-width="1.0" stroke-linecap="round" stroke-linejoin="round" />
		</g>
		<g id="port_b" class="port">
			<polygon points="201.5,111.5 201.5,110.6 201.6,109.8 201.8,108.9 202.1,108.1 202.4,107.3 202.8,106.6 203.3,105.8 203.8,105.1 204.3,104.5 205.0,103.9 205.6,103.4 206.4,102.9 207.1,102.5 207.9,102.2 208.7,101.9 209.6,101.7 210.4,101.6 211.3,101.5 212.1,101.5 213.0,101.6 213.8,101.8 214.7,102.0 215.5,102.3 216.2,102.7 217.0,103.1 217.7,103.6 218.3,104.2 218.9,104.8 219.5,105.5 220.0,106.2 220.4,106.9 220.7,107.7 221.0,108.5 221.3,109.4 221.4,110.2 221.5,111.1 221.5,111.9 221.4,112.8 221.3,113.6 221.0,114.5 220.7,115.3 220.4,116.1 220.0,116.8 219.5,117.5 218.9,118.2 218.3,118.8 217.7,119.4 217.0,119.9 216.2,120.3 215.5,120.7 214.7,121.0 213.8,121.2 213.0,121.4 212.1,121.5 211.3,121.5 210.4,121.4 209.6,121.3 208.7,121.1 207.9,120.8 207.1,120.5 206.4,120.1 205.6,119.6 205.0,119.1 204.3,118.5 203.8,117.9 203.3,117.2 202.8,116.4 202.4,115.7 202.1,114.9 201.8,114.1 201.6,113.2 201.5,112.4" fill="#007FFF" stroke="#007FFF" stroke-width="1.0" stroke-linecap="round" stroke-linejoin="round" />
			<polygon points="201.5,111.5 201.5,110.6 201.6,109.8 201.8,108.9 202.1,108.1 202.4,107.3 202.8,106.6 203.3,105.8 203.8,105.1 204.3,104.5 205.0,103.9 205.6,103.4 206.4,102.9 207.1,102.5 207.9,102.2 208.7,101.9 209.6,101.7 210.4,101.6 211.3,101.5 212.1,101.5 213.0,101.6 213.8,101.8 214.7,102.0 215.5,102.3 216.2,102.7 217.0,103.1 217.7,103.6 218.3,104.2 218.9,104.8 219.5,105.5 220.0,106.2 220.4,106.9 220.7,107.7 221.0,108.5 221.3,109.4 221.4,110.2 221.5,111.1 221.5,111.9 221.4,112.8 221.3,113.6 221.0,114.5 220.7,115.3 220.4,116.1 220.0,116.8 219.5,117.5 218.9,118.2 218.3,118.8 217.7,119.4 217.0,119.9 216.2,120.3 215.5,120.7 214.7,121.0 213.8,121.2 213.0,121.4 212.1,121.5 211.3,121.5 210.4,121.4 209.6,121.3 208.7,121.1 207.9,120.8 207.1,120.5 206.4,120.1 205.6,119.6 205.0,119.1 204.3,118.5 203.8,117.9 203.3,117.2 202.8,116.4 202.4,115.7 202.1,114.9 201.8,114.1 201.6,113.2 201.5,112.4" fill="#007FFF" stroke="#000000" stroke-width="1.0" stroke-linecap="round" stroke-linejoin="round" />
			<polygon points="203.5,111.5 203.5,110.8 203.6,110.1 203.8,109.5 204.0,108.8 204.2,108.2 204.5,107.5 204.9,107.0 205.3,106.4 205.8,105.9 206.3,105.4 206.8,105.0 207.4,104.6 208.0,104.3 208.6,104.0 209.3,103.8 210.0,103.6 210.6,103.5 211.3,103.5 212.0,103.5 212.7,103.6 213.4,103.7 214.0,103.9 214.7,104.2 215.3,104.5 215.9,104.8 216.4,105.2 217.0,105.7 217.4,106.2 217.9,106.7 218.3,107.3 218.6,107.9 218.9,108.5 219.1,109.1 219.3,109.8 219.4,110.5 219.5,111.2 219.5,111.8 219.4,112.5 219.3,113.2 219.1,113.9 218.9,114.5 218.6,115.1 218.3,115.7 217.9,116.3 217.4,116.8 217.0,117.3 216.4,117.8 215.9,118.2 215.3,118.5 214.7,118.8 214.0,119.1 213.4,119.3 212.7,119.4 212.0,119.5 211.3,119.5 210.6,119.5 210.0,119.3 209.3,119.2 208.6,119.0 208.0,118.7 207.4,118.4 206.8,118.0 206.3,117.6 205.8,117.1 205.3,116.6 204.9,116.0 204.5,115.4 204.2,114.8 204.0,114.2 203.8,113.5 203.6,112.9 203.5,112.2" fill="#FFFFFF" stroke="#007FFF" stroke-width="1.0" stroke-linecap="round" stroke-linejoin="round" />
		</g>
		<g id="heatPort" class="port">
			<polygon points="141.5,181.5 161.5,181.5 161.5,161.5 141.5,161.5" fill="#BF0000" stroke="#BF0000" stroke-width="1.0" stroke-linecap="round" stroke-linejoin="round" />
		</g>
		<g id="shaft" class="port">
			<polygon points="121.5,11.5 121.5,10.6 121.3,9.8 121.2,8.9 120.9,8.1 120.6,7.3 120.2,6.6 119.7,5.8 119.2,5.1 118.6,4.5 118.0,3.9 117.3,3.4 116.6,2.9 115.9,2.5 115.1,2.2 114.3,1.9 113.4,1.7 112.6,1.6 111.7,1.5 110.8,1.5 110.0,1.6 109.1,1.8 108.3,2.0 107.5,2.3 106.7,2.7 106.0,3.1 105.3,3.6 104.7,4.2 104.0,4.8 103.5,5.5 103.0,6.2 102.6,6.9 102.2,7.7 101.9,8.5 101.7,9.4 101.6,10.2 101.5,11.1 101.5,11.9 101.6,12.8 101.7,13.6 101.9,14.5 102.2,15.3 102.6,16.1 103.0,16.8 103.5,17.5 104.0,18.2 104.7,18.8 105.3,19.4 106.0,19.9 106.7,20.3 107.5,20.7 108.3,21.0 109.1,21.2 110.0,21.4 110.8,21.5 111.7,21.5 112.6,21.4 113.4,21.3 114.3,21.1 115.1,20.8 115.9,20.5 116.6,20.1 117.3,19.6 118.0,19.1 118.6,18.5 119.2,17.9 119.7,17.2 120.2,16.4 120.6,15.7 120.9,14.9 121.2,14.1 121.3,13.2 121.5,12.4" fill="#5F5F5F" stroke="#000000" stroke-width="1.0" stroke-linecap="round" stroke-linejoin="round" />
		</g>
	</g>
</svg>
