<svg width="203" height="203" xmlns="http://www.w3.org/2000/svg" xmlns:xlink="http://www.w3.org/1999/xlink">
	<g id="Modelica.Math.Random.Generators.Xorshift64star" class="component">
		<defs>
			<linearGradient id="cyl2" x1="0" y1="0" x2="0" y2="1">
				<stop offset="0%" stop-color="#C8C8C8" />
				<stop offset="5%" stop-color="#D1D1D1" />
				<stop offset="10%" stop-color="#D9D9D9" />
				<stop offset="15%" stop-color="#E0E0E0" />
				<stop offset="20%" stop-color="#E7E7E7" />
				<stop offset="25%" stop-color="#ECECEC" />
				<stop offset="30%" stop-color="#F0F0F0" />
				<stop offset="35%" stop-color="#F4F4F4" />
				<stop offset="40%" stop-color="#F6F6F6" />
				<stop offset="45%" stop-color="#F8F8F8" />
				<stop offset="50%" stop-color="#F8F8F8" />
				<stop offset="55%" stop-color="#F8F8F8" />
				<stop offset="60%" stop-color="#F6F6F6" />
				<stop offset="65%" stop-color="#F4F4F4" />
				<stop offset="70%" stop-color="#F0F0F0" />
				<stop offset="75%" stop-color="#ECECEC" />
				<stop offset="80%" stop-color="#E7E7E7" />
				<stop offset="85%" stop-color="#E0E0E0" />
				<stop offset="90%" stop-color="#D9D9D9" />
				<stop offset="95%" stop-color="#D1D1D1" />
				<stop offset="100%" stop-color="#C8C8C8" />
			</linearGradient>
		</defs>
		<polygon points="8.8,194.2 11.0,196.1 13.3,197.8 15.7,199.1 18.2,200.2 20.8,200.9 23.6,201.4 26.5,201.5 26.5,201.5 50.4,201.5 101.5,201.5 101.5,201.5 152.6,201.5 176.5,201.5 176.5,201.5 179.4,201.4 182.2,200.9 184.8,200.2 187.3,199.1 189.7,197.8 192.0,196.1 194.2,194.2 194.2,194.2 196.1,192.0 197.8,189.7 199.1,187.3 200.2,184.8 200.9,182.2 201.4,179.4 201.5,176.5 201.5,176.5 201.5,152.6 201.5,101.5 201.5,101.5 201.5,50.4 201.5,26.5 201.5,26.5 201.4,23.6 200.9,20.8 200.2,18.2 199.1,15.7 197.8,13.3 196.1,11.0 194.2,8.8 194.2,8.8 192.0,6.9 189.7,5.2 187.3,3.9 184.8,2.8 182.2,2.1 179.4,1.6 176.5,1.5 176.5,1.5 152.6,1.5 101.5,1.5 101.5,1.5 50.4,1.5 26.5,1.5 26.5,1.5 23.6,1.6 20.8,2.1 18.2,2.8 15.7,3.9 13.3,5.2 11.0,6.9 8.8,8.8 8.8,8.8 6.9,11.0 5.2,13.3 3.9,15.7 2.8,18.2 2.1,20.8 1.6,23.6 1.5,26.5 1.5,26.5 1.5,50.4 1.5,101.5 1.5,101.5 1.5,152.6 1.5,176.5 1.5,176.5 1.6,179.4 2.1,182.2 2.8,184.8 3.9,187.3 5.2,189.7 6.9,192.0" fill="url(#cyl2)" stroke="#C8C8C8" stroke-width="1.0" stroke-linecap="butt" stroke-linejoin="round" />
		<polygon points="8.8,194.2 11.0,196.1 13.3,197.8 15.7,199.1 18.2,200.2 20.8,200.9 23.6,201.4 26.5,201.5 26.5,201.5 50.4,201.5 101.5,201.5 101.5,201.5 152.6,201.5 176.5,201.5 176.5,201.5 179.4,201.4 182.2,200.9 184.8,200.2 187.3,199.1 189.7,197.8 192.0,196.1 194.2,194.2 194.2,194.2 196.1,192.0 197.8,189.7 199.1,187.3 200.2,184.8 200.9,182.2 201.4,179.4 201.5,176.5 201.5,176.5 201.5,152.6 201.5,101.5 201.5,101.5 201.5,50.4 201.5,26.5 201.5,26.5 201.4,23.6 200.9,20.8 200.2,18.2 199.1,15.7 197.8,13.3 196.1,11.0 194.2,8.8 194.2,8.8 192.0,6.9 189.7,5.2 187.3,3.9 184.8,2.8 182.2,2.1 179.4,1.6 176.5,1.5 176.5,1.5 152.6,1.5 101.5,1.5 101.5,1.5 50.4,1.5 26.5,1.5 26.5,1.5 23.6,1.6 20.8,2.1 18.2,2.8 15.7,3.9 13.3,5.2 11.0,6.9 8.8,8.8 8.8,8.8 6.9,11.0 5.2,13.3 3.9,15.7 2.8,18.2 2.1,20.8 1.6,23.6 1.5,26.5 1.5,26.5 1.5,50.4 1.5,101.5 1.5,101.5 1.5,152.6 1.5,176.5 1.5,176.5 1.6,179.4 2.1,182.2 2.8,184.8 3.9,187.3 5.2,189.7 6.9,192.0" fill-opacity="0" stroke="#808080" stroke-width="1.0" stroke-linecap="butt" stroke-linejoin="round" />
		<polygon points="87.5,126.5 87.4,124.4 87.1,122.2 86.7,120.1 86.0,118.1 85.2,116.1 84.2,114.2 83.1,112.3 81.8,110.6 80.4,109.0 78.8,107.5 77.1,106.2 75.3,105.0 73.4,104.0 71.4,103.2 69.4,102.5 67.3,102.0 65.2,101.6 63.0,101.5 60.9,101.6 58.7,101.8 56.6,102.2 54.6,102.8 52.6,103.6 50.6,104.5 48.8,105.6 47.0,106.9 45.4,108.3 43.9,109.8 42.5,111.5 41.3,113.2 40.2,115.1 39.4,117.1 38.6,119.1 38.1,121.2 37.7,123.3 37.5,125.4 37.5,127.6 37.7,129.7 38.1,131.8 38.6,133.9 39.4,135.9 40.2,137.9 41.3,139.8 42.5,141.5 43.9,143.2 45.4,144.7 47.0,146.1 48.8,147.4 50.6,148.5 52.6,149.4 54.6,150.2 56.6,150.8 58.7,151.2 60.9,151.4 63.0,151.5 65.2,151.4 67.3,151.0 69.4,150.5 71.4,149.8 73.4,149.0 75.3,148.0 77.1,146.8 78.8,145.5 80.4,144.0 81.8,142.4 83.1,140.7 84.2,138.8 85.2,136.9 86.0,134.9 86.7,132.9 87.1,130.8 87.4,128.6" fill="#D7D7D7" stroke="#000000" stroke-width="1.0" stroke-linecap="butt" stroke-linejoin="round" />
		<polygon points="163.5,74.5 163.4,72.4 163.1,70.2 162.7,68.1 162.0,66.1 161.2,64.1 160.2,62.2 159.1,60.3 157.8,58.6 156.4,57.0 154.8,55.5 153.1,54.2 151.3,53.0 149.4,52.0 147.4,51.2 145.4,50.5 143.3,50.0 141.2,49.6 139.0,49.5 136.9,49.6 134.7,49.8 132.6,50.2 130.6,50.8 128.6,51.6 126.6,52.5 124.8,53.6 123.0,54.9 121.4,56.3 119.9,57.8 118.5,59.5 117.3,61.2 116.2,63.1 115.4,65.1 114.6,67.1 114.1,69.2 113.7,71.3 113.5,73.4 113.5,75.6 113.7,77.7 114.1,79.8 114.6,81.9 115.4,83.9 116.2,85.9 117.3,87.8 118.5,89.5 119.9,91.2 121.4,92.7 123.0,94.1 124.8,95.4 126.6,96.5 128.6,97.4 130.6,98.2 132.6,98.8 134.7,99.2 136.9,99.4 139.0,99.5 141.2,99.4 143.3,99.0 145.4,98.5 147.4,97.8 149.4,97.0 151.3,96.0 153.1,94.8 154.8,93.5 156.4,92.0 157.8,90.4 159.1,88.7 160.2,86.8 161.2,84.9 162.0,82.9 162.7,80.9 163.1,78.8 163.4,76.6" fill="#D7D7D7" stroke="#000000" stroke-width="1.0" stroke-linecap="butt" stroke-linejoin="round" />
	</g>
</svg>
