<svg width="203" height="203" xmlns="http://www.w3.org/2000/svg" xmlns:xlink="http://www.w3.org/1999/xlink">
	<g id="Modelica.Mechanics.Rotational.Interfaces.InternalSupport" class="component">
		<polygon points="121.5,101.5 121.4,99.8 121.2,98.1 120.8,96.4 120.3,94.7 119.7,93.2 118.9,91.6 118.0,90.2 116.9,88.8 115.8,87.5 114.5,86.3 113.2,85.3 111.7,84.3 110.2,83.5 108.7,82.8 107.0,82.3 105.3,81.9 103.6,81.6 101.9,81.5 100.2,81.5 98.5,81.7 96.8,82.1 95.2,82.5 93.5,83.1 92.0,83.9 90.5,84.8 89.1,85.8 87.8,86.9 86.6,88.1 85.5,89.5 84.5,90.9 83.7,92.4 83.0,93.9 82.4,95.6 82.0,97.2 81.7,98.9 81.5,100.6 81.5,102.4 81.7,104.1 82.0,105.8 82.4,107.4 83.0,109.1 83.7,110.6 84.5,112.1 85.5,113.5 86.6,114.9 87.8,116.1 89.1,117.2 90.5,118.2 92.0,119.1 93.5,119.9 95.2,120.5 96.8,120.9 98.5,121.3 100.2,121.5 101.9,121.5 103.6,121.4 105.3,121.1 107.0,120.7 108.7,120.2 110.2,119.5 111.7,118.7 113.2,117.7 114.5,116.7 115.8,115.5 116.9,114.2 118.0,112.8 118.9,111.4 119.7,109.8 120.3,108.3 120.8,106.6 121.2,104.9 121.4,103.2" fill="#AFAFAF" stroke="#878787" stroke-width="1.0" stroke-linecap="round" stroke-linejoin="round" />
		<g id="flange" class="port">
			<polygon points="111.5,101.5 111.5,100.6 111.4,99.8 111.2,98.9 110.9,98.1 110.6,97.3 110.2,96.6 109.7,95.8 109.2,95.1 108.6,94.5 108.0,93.9 107.3,93.4 106.6,92.9 105.9,92.5 105.1,92.2 104.3,91.9 103.4,91.7 102.6,91.6 101.7,91.5 100.9,91.5 100.0,91.6 99.2,91.8 98.3,92.0 97.5,92.3 96.8,92.7 96.0,93.1 95.3,93.6 94.7,94.2 94.1,94.8 93.5,95.5 93.0,96.2 92.6,96.9 92.2,97.7 92.0,98.5 91.7,99.4 91.6,100.2 91.5,101.1 91.5,101.9 91.6,102.8 91.7,103.6 92.0,104.5 92.2,105.3 92.6,106.1 93.0,106.8 93.5,107.5 94.1,108.2 94.7,108.8 95.3,109.4 96.0,109.9 96.8,110.3 97.5,110.7 98.3,111.0 99.2,111.2 100.0,111.4 100.9,111.5 101.7,111.5 102.6,111.4 103.4,111.3 104.3,111.1 105.1,110.8 105.9,110.5 106.6,110.1 107.3,109.6 108.0,109.1 108.6,108.5 109.2,107.9 109.7,107.2 110.2,106.4 110.6,105.7 110.9,104.9 111.2,104.1 111.4,103.2 111.5,102.4" fill="#5F5F5F" stroke="#000000" stroke-width="1.0" stroke-linecap="round" stroke-linejoin="round" />
		</g>
	</g>
</svg>
