<svg width="223" height="223" xmlns="http://www.w3.org/2000/svg" xmlns:xlink="http://www.w3.org/1999/xlink">
	<g id="Modelica.Electrical.Machines.BasicMachines.Components.PartialCore" class="component">
		<polyline points="21.5,11.5 81.5,11.5" fill-opacity="0" stroke="#0000FF" stroke-width="1.0" stroke-linecap="butt" stroke-linejoin="round" />
		<polyline points="21.5,211.5 81.5,211.5" fill-opacity="0" stroke="#0000FF" stroke-width="1.0" stroke-linecap="butt" stroke-linejoin="round" />
		<polyline points="141.5,11.5 201.5,11.5" fill-opacity="0" stroke="#0000FF" stroke-width="1.0" stroke-linecap="butt" stroke-linejoin="round" />
		<polyline points="141.5,71.5 203.5,71.5" fill-opacity="0" stroke="#0000FF" stroke-width="1.0" stroke-linecap="butt" stroke-linejoin="round" />
		<polyline points="141.5,151.5 201.5,151.5" fill-opacity="0" stroke="#0000FF" stroke-width="1.0" stroke-linecap="butt" stroke-linejoin="round" />
		<polyline points="141.5,211.5 201.5,211.5" fill-opacity="0" stroke="#0000FF" stroke-width="1.0" stroke-linecap="butt" stroke-linejoin="round" />
		<polyline points="141.5,31.5 139.0,31.0 137.3,30.4 135.7,29.4 134.0,28.0 134.0,28.0 132.6,26.2 131.8,24.0 131.5,21.5 131.5,21.5 131.8,19.0 132.6,16.8 134.0,15.0 134.0,15.0 135.7,13.6 137.3,12.6 139.0,12.0 141.5,11.5" fill-opacity="0" stroke="#0000FF" stroke-width="1.0" stroke-linecap="butt" stroke-linejoin="round" />
		<polyline points="141.5,51.5 139.0,51.0 137.3,50.4 135.7,49.4 134.0,48.0 134.0,48.0 132.6,46.2 131.8,44.0 131.5,41.5 131.5,41.5 131.8,39.0 132.6,36.8 134.0,35.0 134.0,35.0 135.7,33.6 137.3,32.6 139.0,32.0 141.5,31.5" fill-opacity="0" stroke="#0000FF" stroke-width="1.0" stroke-linecap="butt" stroke-linejoin="round" />
		<polyline points="141.5,71.5 139.0,71.0 137.3,70.4 135.7,69.4 134.0,68.0 134.0,68.0 132.6,66.2 131.8,64.0 131.5,61.5 131.5,61.5 131.8,59.0 132.6,56.8 134.0,55.0 134.0,55.0 135.7,53.6 137.3,52.6 139.0,52.0 141.5,51.5" fill-opacity="0" stroke="#0000FF" stroke-width="1.0" stroke-linecap="butt" stroke-linejoin="round" />
		<polyline points="141.5,171.5 139.0,171.0 137.3,170.4 135.7,169.4 134.0,168.0 134.0,168.0 132.6,166.2 131.8,164.0 131.5,161.5 131.5,161.5 131.8,159.0 132.6,156.8 134.0,155.0 134.0,155.0 135.7,153.6 137.3,152.6 139.0,152.0 141.5,151.5" fill-opacity="0" stroke="#0000FF" stroke-width="1.0" stroke-linecap="butt" stroke-linejoin="round" />
		<polyline points="141.5,191.5 139.0,191.0 137.3,190.4 135.7,189.4 134.0,188.0 134.0,188.0 132.6,186.2 131.8,184.0 131.5,181.5 131.5,181.5 131.8,179.0 132.6,176.8 134.0,175.0 134.0,175.0 135.7,173.6 137.3,172.6 139.0,172.0 141.5,171.5" fill-opacity="0" stroke="#0000FF" stroke-width="1.0" stroke-linecap="butt" stroke-linejoin="round" />
		<polyline points="141.5,211.5 139.0,211.0 137.3,210.4 135.7,209.4 134.0,208.0 134.0,208.0 132.6,206.2 131.8,204.0 131.5,201.5 131.5,201.5 131.8,199.0 132.6,196.8 134.0,195.0 134.0,195.0 135.7,193.6 137.3,192.6 139.0,192.0 141.5,191.5" fill-opacity="0" stroke="#0000FF" stroke-width="1.0" stroke-linecap="butt" stroke-linejoin="round" />
		<polyline points="81.5,31.5 84.0,31.0 85.7,30.4 87.3,29.4 89.0,28.0 89.0,28.0 90.4,26.2 91.2,24.0 91.5,21.5 91.5,21.5 91.2,19.0 90.4,16.8 89.0,15.0 89.0,15.0 87.3,13.6 85.7,12.6 84.0,12.0 81.5,11.5" fill-opacity="0" stroke="#0000FF" stroke-width="1.0" stroke-linecap="butt" stroke-linejoin="round" />
		<polyline points="81.5,51.5 84.0,51.0 85.7,50.4 87.3,49.4 89.0,48.0 89.0,48.0 90.4,46.2 91.2,44.0 91.5,41.5 91.5,41.5 91.2,39.0 90.4,36.8 89.0,35.0 89.0,35.0 87.3,33.6 85.7,32.6 84.0,32.0 81.5,31.5" fill-opacity="0" stroke="#0000FF" stroke-width="1.0" stroke-linecap="butt" stroke-linejoin="round" />
		<polyline points="81.5,71.5 84.0,71.0 85.7,70.4 87.3,69.4 89.0,68.0 89.0,68.0 90.4,66.2 91.2,64.0 91.5,61.5 91.5,61.5 91.2,59.0 90.4,56.8 89.0,55.0 89.0,55.0 87.3,53.6 85.7,52.6 84.0,52.0 81.5,51.5" fill-opacity="0" stroke="#0000FF" stroke-width="1.0" stroke-linecap="butt" stroke-linejoin="round" />
		<polyline points="81.5,91.5 84.0,91.0 85.7,90.4 87.3,89.4 89.0,88.0 89.0,88.0 90.4,86.2 91.2,84.0 91.5,81.5 91.5,81.5 91.2,79.0 90.4,76.8 89.0,75.0 89.0,75.0 87.3,73.6 85.7,72.6 84.0,72.0 81.5,71.5" fill-opacity="0" stroke="#0000FF" stroke-width="1.0" stroke-linecap="butt" stroke-linejoin="round" />
		<polyline points="81.5,111.5 84.0,111.0 85.7,110.4 87.3,109.4 89.0,108.0 89.0,108.0 90.4,106.2 91.2,104.0 91.5,101.5 91.5,101.5 91.2,99.0 90.4,96.8 89.0,95.0 89.0,95.0 87.3,93.6 85.7,92.6 84.0,92.0 81.5,91.5" fill-opacity="0" stroke="#0000FF" stroke-width="1.0" stroke-linecap="butt" stroke-linejoin="round" />
		<polyline points="81.5,131.5 84.0,131.0 85.7,130.4 87.3,129.4 89.0,128.0 89.0,128.0 90.4,126.2 91.2,124.0 91.5,121.5 91.5,121.5 91.2,119.0 90.4,116.8 89.0,115.0 89.0,115.0 87.3,113.6 85.7,112.6 84.0,112.0 81.5,111.5" fill-opacity="0" stroke="#0000FF" stroke-width="1.0" stroke-linecap="butt" stroke-linejoin="round" />
		<polyline points="81.5,151.5 84.0,151.0 85.7,150.4 87.3,149.4 89.0,148.0 89.0,148.0 90.4,146.2 91.2,144.0 91.5,141.5 91.5,141.5 91.2,139.0 90.4,136.8 89.0,135.0 89.0,135.0 87.3,133.6 85.7,132.6 84.0,132.0 81.5,131.5" fill-opacity="0" stroke="#0000FF" stroke-width="1.0" stroke-linecap="butt" stroke-linejoin="round" />
		<polyline points="81.5,171.5 84.0,171.0 85.7,170.4 87.3,169.4 89.0,168.0 89.0,168.0 90.4,166.2 91.2,164.0 91.5,161.5 91.5,161.5 91.2,159.0 90.4,156.8 89.0,155.0 89.0,155.0 87.3,153.6 85.7,152.6 84.0,152.0 81.5,151.5" fill-opacity="0" stroke="#0000FF" stroke-width="1.0" stroke-linecap="butt" stroke-linejoin="round" />
		<polyline points="81.5,191.5 84.0,191.0 85.7,190.4 87.3,189.4 89.0,188.0 89.0,188.0 90.4,186.2 91.2,184.0 91.5,181.5 91.5,181.5 91.2,179.0 90.4,176.8 89.0,175.0 89.0,175.0 87.3,173.6 85.7,172.6 84.0,172.0 81.5,171.5" fill-opacity="0" stroke="#0000FF" stroke-width="1.0" stroke-linecap="butt" stroke-linejoin="round" />
		<polyline points="81.5,211.5 84.0,211.0 85.7,210.4 87.3,209.4 89.0,208.0 89.0,208.0 90.4,206.2 91.2,204.0 91.5,201.5 91.5,201.5 91.2,199.0 90.4,196.8 89.0,195.0 89.0,195.0 87.3,193.6 85.7,192.6 84.0,192.0 81.5,191.5" fill-opacity="0" stroke="#0000FF" stroke-width="1.0" stroke-linecap="butt" stroke-linejoin="round" />
		<g id="plug_p1" class="port">
			<polygon points="21.5,11.5 21.5,10.6 21.3,9.8 21.2,8.9 20.9,8.1 20.6,7.3 20.2,6.6 19.7,5.8 19.2,5.1 18.6,4.5 18.0,3.9 17.3,3.4 16.6,2.9 15.9,2.5 15.1,2.2 14.3,1.9 13.4,1.7 12.6,1.6 11.7,1.5 10.8,1.5 10.0,1.6 9.1,1.8 8.3,2.0 7.5,2.3 6.7,2.7 6.0,3.1 5.3,3.6 4.7,4.2 4.0,4.8 3.5,5.5 3.0,6.2 2.6,6.9 2.2,7.7 1.9,8.5 1.7,9.4 1.6,10.2 1.5,11.1 1.5,11.9 1.6,12.8 1.7,13.6 1.9,14.5 2.2,15.3 2.6,16.1 3.0,16.8 3.5,17.5 4.0,18.2 4.7,18.8 5.3,19.4 6.0,19.9 6.7,20.3 7.5,20.7 8.3,21.0 9.1,21.2 10.0,21.4 10.8,21.5 11.7,21.5 12.6,21.4 13.4,21.3 14.3,21.1 15.1,20.8 15.9,20.5 16.6,20.1 17.3,19.6 18.0,19.1 18.6,18.5 19.2,17.9 19.7,17.2 20.2,16.4 20.6,15.7 20.9,14.9 21.2,14.1 21.3,13.2 21.5,12.4" fill="#0000FF" stroke="#0000FF" stroke-width="1.0" stroke-linecap="butt" stroke-linejoin="round" />
		</g>
		<g id="plug_n1" class="port">
			<polygon points="21.5,211.5 21.5,210.6 21.3,209.8 21.2,208.9 20.9,208.1 20.6,207.3 20.2,206.6 19.7,205.8 19.2,205.1 18.6,204.5 18.0,203.9 17.3,203.4 16.6,202.9 15.9,202.5 15.1,202.2 14.3,201.9 13.4,201.7 12.6,201.6 11.7,201.5 10.8,201.5 10.0,201.6 9.1,201.8 8.3,202.0 7.5,202.3 6.7,202.7 6.0,203.1 5.3,203.6 4.7,204.2 4.0,204.8 3.5,205.5 3.0,206.2 2.6,206.9 2.2,207.7 1.9,208.5 1.7,209.4 1.6,210.2 1.5,211.1 1.5,211.9 1.6,212.8 1.7,213.6 1.9,214.5 2.2,215.3 2.6,216.1 3.0,216.8 3.5,217.5 4.0,218.2 4.7,218.8 5.3,219.4 6.0,219.9 6.7,220.3 7.5,220.7 8.3,221.0 9.1,221.2 10.0,221.4 10.8,221.5 11.7,221.5 12.6,221.4 13.4,221.3 14.3,221.1 15.1,220.8 15.9,220.5 16.6,220.1 17.3,219.6 18.0,219.1 18.6,218.5 19.2,217.9 19.7,217.2 20.2,216.4 20.6,215.7 20.9,214.9 21.2,214.1 21.3,213.2 21.5,212.4" fill="#FFFFFF" stroke="#0000FF" stroke-width="1.0" stroke-linecap="butt" stroke-linejoin="round" />
		</g>
		<g id="plug_p2" class="port">
			<polygon points="221.5,11.5 221.5,10.6 221.3,9.8 221.2,8.9 220.9,8.1 220.6,7.3 220.2,6.6 219.7,5.8 219.2,5.1 218.6,4.5 218.0,3.9 217.3,3.4 216.6,2.9 215.9,2.5 215.1,2.2 214.3,1.9 213.4,1.7 212.6,1.6 211.7,1.5 210.8,1.5 210.0,1.6 209.1,1.8 208.3,2.0 207.5,2.3 206.7,2.7 206.0,3.1 205.3,3.6 204.7,4.2 204.0,4.8 203.5,5.5 203.0,6.2 202.6,6.9 202.2,7.7 201.9,8.5 201.7,9.4 201.6,10.2 201.5,11.1 201.5,11.9 201.6,12.8 201.7,13.6 201.9,14.5 202.2,15.3 202.6,16.1 203.0,16.8 203.5,17.5 204.0,18.2 204.7,18.8 205.3,19.4 206.0,19.9 206.7,20.3 207.5,20.7 208.3,21.0 209.1,21.2 210.0,21.4 210.8,21.5 211.7,21.5 212.6,21.4 213.4,21.3 214.3,21.1 215.1,20.8 215.9,20.5 216.6,20.1 217.3,19.6 218.0,19.1 218.6,18.5 219.2,17.9 219.7,17.2 220.2,16.4 220.6,15.7 220.9,14.9 221.2,14.1 221.3,13.2 221.5,12.4" fill="#0000FF" stroke="#0000FF" stroke-width="1.0" stroke-linecap="butt" stroke-linejoin="round" />
		</g>
		<g id="plug_n2" class="port">
			<polygon points="221.5,71.5 221.5,70.6 221.3,69.8 221.2,68.9 220.9,68.1 220.6,67.3 220.2,66.6 219.7,65.8 219.2,65.1 218.6,64.5 218.0,63.9 217.3,63.4 216.6,62.9 215.9,62.5 215.1,62.2 214.3,61.9 213.4,61.7 212.6,61.6 211.7,61.5 210.8,61.5 210.0,61.6 209.1,61.8 208.3,62.0 207.5,62.3 206.7,62.7 206.0,63.1 205.3,63.6 204.7,64.2 204.0,64.8 203.5,65.5 203.0,66.2 202.6,66.9 202.2,67.7 201.9,68.5 201.7,69.4 201.6,70.2 201.5,71.1 201.5,71.9 201.6,72.8 201.7,73.6 201.9,74.5 202.2,75.3 202.6,76.1 203.0,76.8 203.5,77.5 204.0,78.2 204.7,78.8 205.3,79.4 206.0,79.9 206.7,80.3 207.5,80.7 208.3,81.0 209.1,81.2 210.0,81.4 210.8,81.5 211.7,81.5 212.6,81.4 213.4,81.3 214.3,81.1 215.1,80.8 215.9,80.5 216.6,80.1 217.3,79.6 218.0,79.1 218.6,78.5 219.2,77.9 219.7,77.2 220.2,76.4 220.6,75.7 220.9,74.9 221.2,74.1 221.3,73.2 221.5,72.4" fill="#FFFFFF" stroke="#0000FF" stroke-width="1.0" stroke-linecap="butt" stroke-linejoin="round" />
		</g>
		<g id="plug_p3" class="port">
			<polygon points="221.5,151.5 221.5,152.4 221.3,153.2 221.2,154.1 220.9,154.9 220.6,155.7 220.2,156.4 219.7,157.2 219.2,157.9 218.6,158.5 218.0,159.1 217.3,159.6 216.6,160.1 215.9,160.5 215.1,160.8 214.3,161.1 213.4,161.3 212.6,161.4 211.7,161.5 210.8,161.5 210.0,161.4 209.1,161.2 208.3,161.0 207.5,160.7 206.7,160.3 206.0,159.9 205.3,159.4 204.7,158.8 204.0,158.2 203.5,157.5 203.0,156.8 202.6,156.1 202.2,155.3 201.9,154.5 201.7,153.6 201.6,152.8 201.5,151.9 201.5,151.1 201.6,150.2 201.7,149.4 201.9,148.5 202.2,147.7 202.6,146.9 203.0,146.2 203.5,145.5 204.0,144.8 204.7,144.2 205.3,143.6 206.0,143.1 206.7,142.7 207.5,142.3 208.3,142.0 209.1,141.8 210.0,141.6 210.8,141.5 211.7,141.5 212.6,141.6 213.4,141.7 214.3,141.9 215.1,142.2 215.9,142.5 216.6,142.9 217.3,143.4 218.0,143.9 218.6,144.5 219.2,145.1 219.7,145.8 220.2,146.6 220.6,147.3 220.9,148.1 221.2,148.9 221.3,149.8 221.5,150.6" fill="#0000FF" stroke="#0000FF" stroke-width="1.0" stroke-linecap="butt" stroke-linejoin="round" />
		</g>
		<g id="plug_n3" class="port">
			<polygon points="221.5,211.5 221.5,212.4 221.3,213.2 221.2,214.1 220.9,214.9 220.6,215.7 220.2,216.4 219.7,217.2 219.2,217.9 218.6,218.5 218.0,219.1 217.3,219.6 216.6,220.1 215.9,220.5 215.1,220.8 214.3,221.1 213.4,221.3 212.6,221.4 211.7,221.5 210.8,221.5 210.0,221.4 209.1,221.2 208.3,221.0 207.5,220.7 206.7,220.3 206.0,219.9 205.3,219.4 204.7,218.8 204.0,218.2 203.5,217.5 203.0,216.8 202.6,216.1 202.2,215.3 201.9,214.5 201.7,213.6 201.6,212.8 201.5,211.9 201.5,211.1 201.6,210.2 201.7,209.4 201.9,208.5 202.2,207.7 202.6,206.9 203.0,206.2 203.5,205.5 204.0,204.8 204.7,204.2 205.3,203.6 206.0,203.1 206.7,202.7 207.5,202.3 208.3,202.0 209.1,201.8 210.0,201.6 210.8,201.5 211.7,201.5 212.6,201.6 213.4,201.7 214.3,201.9 215.1,202.2 215.9,202.5 216.6,202.9 217.3,203.4 218.0,203.9 218.6,204.5 219.2,205.1 219.7,205.8 220.2,206.6 220.6,207.3 220.9,208.1 221.2,208.9 221.3,209.8 221.5,210.6" fill="#FFFFFF" stroke="#0000FF" stroke-width="1.0" stroke-linecap="butt" stroke-linejoin="round" />
		</g>
	</g>
</svg>
