<svg width="223" height="223" xmlns="http://www.w3.org/2000/svg" xmlns:xlink="http://www.w3.org/1999/xlink">
	<g id="Modelica.Electrical.MultiPhase.Ideal.IdealTransformer" class="component">
		<polyline points="71.5,51.5 71.5,11.5 21.5,11.5" fill-opacity="0" stroke="#0000FF" stroke-width="1.0" stroke-linecap="butt" stroke-linejoin="round" />
		<polyline points="151.5,51.5 151.5,11.5 201.5,11.5" fill-opacity="0" stroke="#0000FF" stroke-width="1.0" stroke-linecap="butt" stroke-linejoin="round" />
		<polyline points="71.5,171.5 71.5,211.5 21.5,211.5" fill-opacity="0" stroke="#0000FF" stroke-width="1.0" stroke-linecap="butt" stroke-linejoin="round" />
		<polyline points="151.5,171.5 151.5,211.5 201.5,211.5" fill-opacity="0" stroke="#0000FF" stroke-width="1.0" stroke-linecap="butt" stroke-linejoin="round" />
		<polyline points="71.5,51.5 74.5,52.0 76.1,52.4 77.7,53.2 79.6,54.4 81.5,56.0 81.5,56.0 82.9,57.5 84.1,59.4 84.9,61.5 85.3,63.8 85.5,66.5 85.5,66.5 85.3,69.2 84.9,71.5 84.1,73.6 82.9,75.5 81.5,77.0 81.5,77.0 79.6,78.6 77.7,79.7 76.1,80.6 74.5,81.0 71.5,81.5" fill-opacity="0" stroke="#0000FF" stroke-width="1.0" stroke-linecap="butt" stroke-linejoin="round" />
		<polyline points="71.5,81.5 74.5,82.0 76.1,82.4 77.7,83.2 79.6,84.4 81.5,86.0 81.5,86.0 82.9,87.5 84.1,89.4 84.9,91.5 85.3,93.8 85.5,96.5 85.5,96.5 85.3,99.2 84.9,101.5 84.1,103.6 82.9,105.5 81.5,107.0 81.5,107.0 79.6,108.6 77.7,109.7 76.1,110.6 74.5,111.0 71.5,111.5" fill-opacity="0" stroke="#0000FF" stroke-width="1.0" stroke-linecap="butt" stroke-linejoin="round" />
		<polyline points="71.5,111.5 74.5,112.0 76.1,112.4 77.7,113.2 79.6,114.4 81.5,116.0 81.5,116.0 82.9,117.5 84.1,119.4 84.9,121.5 85.3,123.8 85.5,126.5 85.5,126.5 85.3,129.2 84.9,131.5 84.1,133.6 82.9,135.5 81.5,137.0 81.5,137.0 79.6,138.6 77.7,139.7 76.1,140.6 74.5,141.0 71.5,141.5" fill-opacity="0" stroke="#0000FF" stroke-width="1.0" stroke-linecap="butt" stroke-linejoin="round" />
		<polyline points="71.5,141.5 74.5,142.0 76.1,142.4 77.7,143.2 79.6,144.4 81.5,146.0 81.5,146.0 82.9,147.5 84.1,149.4 84.9,151.5 85.3,153.8 85.5,156.5 85.5,156.5 85.3,159.2 84.9,161.5 84.1,163.6 82.9,165.5 81.5,167.0 81.5,167.0 79.6,168.6 77.7,169.7 76.1,170.6 74.5,171.0 71.5,171.5" fill-opacity="0" stroke="#0000FF" stroke-width="1.0" stroke-linecap="butt" stroke-linejoin="round" />
		<polyline points="151.5,81.5 148.5,81.0 146.9,80.6 145.2,79.7 143.4,78.6 141.5,77.0 141.5,77.0 140.1,75.5 138.9,73.6 138.1,71.5 137.7,69.2 137.5,66.5 137.5,66.5 137.7,63.8 138.1,61.5 138.9,59.4 140.1,57.5 141.5,56.0 141.5,56.0 143.4,54.4 145.2,53.2 146.9,52.4 148.5,52.0 151.5,51.5" fill-opacity="0" stroke="#0000FF" stroke-width="1.0" stroke-linecap="butt" stroke-linejoin="round" />
		<polyline points="151.5,111.5 148.5,111.0 146.9,110.6 145.2,109.7 143.4,108.6 141.5,107.0 141.5,107.0 140.1,105.5 138.9,103.6 138.1,101.5 137.7,99.2 137.5,96.5 137.5,96.5 137.7,93.8 138.1,91.5 138.9,89.4 140.1,87.5 141.5,86.0 141.5,86.0 143.4,84.4 145.2,83.2 146.9,82.4 148.5,82.0 151.5,81.5" fill-opacity="0" stroke="#0000FF" stroke-width="1.0" stroke-linecap="butt" stroke-linejoin="round" />
		<polyline points="151.5,141.5 148.5,141.0 146.9,140.6 145.2,139.7 143.4,138.6 141.5,137.0 141.5,137.0 140.1,135.5 138.9,133.6 138.1,131.5 137.7,129.2 137.5,126.5 137.5,126.5 137.7,123.8 138.1,121.5 138.9,119.4 140.1,117.5 141.5,116.0 141.5,116.0 143.4,114.4 145.2,113.2 146.9,112.4 148.5,112.0 151.5,111.5" fill-opacity="0" stroke="#0000FF" stroke-width="1.0" stroke-linecap="butt" stroke-linejoin="round" />
		<polyline points="151.5,171.5 148.5,171.0 146.9,170.6 145.2,169.7 143.4,168.6 141.5,167.0 141.5,167.0 140.1,165.5 138.9,163.6 138.1,161.5 137.7,159.2 137.5,156.5 137.5,156.5 137.7,153.8 138.1,151.5 138.9,149.4 140.1,147.5 141.5,146.0 141.5,146.0 143.4,144.4 145.2,143.2 146.9,142.4 148.5,142.0 151.5,141.5" fill-opacity="0" stroke="#0000FF" stroke-width="1.0" stroke-linecap="butt" stroke-linejoin="round" />
		<text x="31.5" y="130.7" text-anchor="middle" fill="#0000FF" font-size="53.1px" font-family="sans-serif">1</text>
		<text x="191.5" y="130.7" text-anchor="middle" fill="#0000FF" font-size="53.1px" font-family="sans-serif">2</text>
		<g id="plug_p1" class="port">
			<polygon points="21.5,11.5 21.5,10.6 21.3,9.8 21.2,8.9 20.9,8.1 20.6,7.3 20.2,6.6 19.7,5.8 19.2,5.1 18.6,4.5 18.0,3.9 17.3,3.4 16.6,2.9 15.9,2.5 15.1,2.2 14.3,1.9 13.4,1.7 12.6,1.6 11.7,1.5 10.8,1.5 10.0,1.6 9.1,1.8 8.3,2.0 7.5,2.3 6.7,2.7 6.0,3.1 5.3,3.6 4.7,4.2 4.0,4.8 3.5,5.5 3.0,6.2 2.6,6.9 2.2,7.7 1.9,8.5 1.7,9.4 1.6,10.2 1.5,11.1 1.5,11.9 1.6,12.8 1.7,13.6 1.9,14.5 2.2,15.3 2.6,16.1 3.0,16.8 3.5,17.5 4.0,18.2 4.7,18.8 5.3,19.4 6.0,19.9 6.7,20.3 7.5,20.7 8.3,21.0 9.1,21.2 10.0,21.4 10.8,21.5 11.7,21.5 12.6,21.4 13.4,21.3 14.3,21.1 15.1,20.8 15.9,20.5 16.6,20.1 17.3,19.6 18.0,19.1 18.6,18.5 19.2,17.9 19.7,17.2 20.2,16.4 20.6,15.7 20.9,14.9 21.2,14.1 21.3,13.2 21.5,12.4" fill="#0000FF" stroke="#0000FF" stroke-width="1.0" stroke-linecap="butt" stroke-linejoin="round" />
		</g>
		<g id="plug_p2" class="port">
			<polygon points="221.5,11.5 221.5,10.6 221.3,9.8 221.2,8.9 220.9,8.1 220.6,7.3 220.2,6.6 219.7,5.8 219.2,5.1 218.6,4.5 218.0,3.9 217.3,3.4 216.6,2.9 215.9,2.5 215.1,2.2 214.3,1.9 213.4,1.7 212.6,1.6 211.7,1.5 210.8,1.5 210.0,1.6 209.1,1.8 208.3,2.0 207.5,2.3 206.7,2.7 206.0,3.1 205.3,3.6 204.7,4.2 204.0,4.8 203.5,5.5 203.0,6.2 202.6,6.9 202.2,7.7 201.9,8.5 201.7,9.4 201.6,10.2 201.5,11.1 201.5,11.9 201.6,12.8 201.7,13.6 201.9,14.5 202.2,15.3 202.6,16.1 203.0,16.8 203.5,17.5 204.0,18.2 204.7,18.8 205.3,19.4 206.0,19.9 206.7,20.3 207.5,20.7 208.3,21.0 209.1,21.2 210.0,21.4 210.8,21.5 211.7,21.5 212.6,21.4 213.4,21.3 214.3,21.1 215.1,20.8 215.9,20.5 216.6,20.1 217.3,19.6 218.0,19.1 218.6,18.5 219.2,17.9 219.7,17.2 220.2,16.4 220.6,15.7 220.9,14.9 221.2,14.1 221.3,13.2 221.5,12.4" fill="#0000FF" stroke="#0000FF" stroke-width="1.0" stroke-linecap="butt" stroke-linejoin="round" />
		</g>
		<g id="plug_n1" class="port">
			<polygon points="21.5,211.5 21.5,210.6 21.3,209.8 21.2,208.9 20.9,208.1 20.6,207.3 20.2,206.6 19.7,205.8 19.2,205.1 18.6,204.5 18.0,203.9 17.3,203.4 16.6,202.9 15.9,202.5 15.1,202.2 14.3,201.9 13.4,201.7 12.6,201.6 11.7,201.5 10.8,201.5 10.0,201.6 9.1,201.8 8.3,202.0 7.5,202.3 6.7,202.7 6.0,203.1 5.3,203.6 4.7,204.2 4.0,204.8 3.5,205.5 3.0,206.2 2.6,206.9 2.2,207.7 1.9,208.5 1.7,209.4 1.6,210.2 1.5,211.1 1.5,211.9 1.6,212.8 1.7,213.6 1.9,214.5 2.2,215.3 2.6,216.1 3.0,216.8 3.5,217.5 4.0,218.2 4.7,218.8 5.3,219.4 6.0,219.9 6.7,220.3 7.5,220.7 8.3,221.0 9.1,221.2 10.0,221.4 10.8,221.5 11.7,221.5 12.6,221.4 13.4,221.3 14.3,221.1 15.1,220.8 15.9,220.5 16.6,220.1 17.3,219.6 18.0,219.1 18.6,218.5 19.2,217.9 19.7,217.2 20.2,216.4 20.6,215.7 20.9,214.9 21.2,214.1 21.3,213.2 21.5,212.4" fill="#FFFFFF" stroke="#0000FF" stroke-width="1.0" stroke-linecap="butt" stroke-linejoin="round" />
		</g>
		<g id="plug_n2" class="port">
			<polygon points="221.5,211.5 221.5,210.6 221.3,209.8 221.2,208.9 220.9,208.1 220.6,207.3 220.2,206.6 219.7,205.8 219.2,205.1 218.6,204.5 218.0,203.9 217.3,203.4 216.6,202.9 215.9,202.5 215.1,202.2 214.3,201.9 213.4,201.7 212.6,201.6 211.7,201.5 210.8,201.5 210.0,201.6 209.1,201.8 208.3,202.0 207.5,202.3 206.7,202.7 206.0,203.1 205.3,203.6 204.7,204.2 204.0,204.8 203.5,205.5 203.0,206.2 202.6,206.9 202.2,207.7 201.9,208.5 201.7,209.4 201.6,210.2 201.5,211.1 201.5,211.9 201.6,212.8 201.7,213.6 201.9,214.5 202.2,215.3 202.6,216.1 203.0,216.8 203.5,217.5 204.0,218.2 204.7,218.8 205.3,219.4 206.0,219.9 206.7,220.3 207.5,220.7 208.3,221.0 209.1,221.2 210.0,221.4 210.8,221.5 211.7,221.5 212.6,221.4 213.4,221.3 214.3,221.1 215.1,220.8 215.9,220.5 216.6,220.1 217.3,219.6 218.0,219.1 218.6,218.5 219.2,217.9 219.7,217.2 220.2,216.4 220.6,215.7 220.9,214.9 221.2,214.1 221.3,213.2 221.5,212.4" fill="#FFFFFF" stroke="#0000FF" stroke-width="1.0" stroke-linecap="butt" stroke-linejoin="round" />
		</g>
	</g>
</svg>
