<svg width="207" height="207" xmlns="http://www.w3.org/2000/svg" xmlns:xlink="http://www.w3.org/1999/xlink">
	<g id="Modelica.Media.Examples.TestOnly.N2AsMix" class="component">
		<defs>
			<linearGradient id="cyl2" x1="0" y1="0" x2="0" y2="1">
				<stop offset="0%" stop-color="#C8C8C8" />
				<stop offset="5%" stop-color="#D1D1D1" />
				<stop offset="10%" stop-color="#D9D9D9" />
				<stop offset="15%" stop-color="#E0E0E0" />
				<stop offset="20%" stop-color="#E7E7E7" />
				<stop offset="25%" stop-color="#ECECEC" />
				<stop offset="30%" stop-color="#F0F0F0" />
				<stop offset="35%" stop-color="#F4F4F4" />
				<stop offset="40%" stop-color="#F6F6F6" />
				<stop offset="45%" stop-color="#F8F8F8" />
				<stop offset="50%" stop-color="#F8F8F8" />
				<stop offset="55%" stop-color="#F8F8F8" />
				<stop offset="60%" stop-color="#F6F6F6" />
				<stop offset="65%" stop-color="#F4F4F4" />
				<stop offset="70%" stop-color="#F0F0F0" />
				<stop offset="75%" stop-color="#ECECEC" />
				<stop offset="80%" stop-color="#E7E7E7" />
				<stop offset="85%" stop-color="#E0E0E0" />
				<stop offset="90%" stop-color="#D9D9D9" />
				<stop offset="95%" stop-color="#D1D1D1" />
				<stop offset="100%" stop-color="#C8C8C8" />
			</linearGradient>
		</defs>
		<polygon points="10.8,196.2 13.0,198.1 15.3,199.8 17.7,201.1 20.2,202.2 22.8,202.9 25.6,203.4 28.5,203.5 28.5,203.5 52.4,203.5 103.5,203.5 103.5,203.5 154.6,203.5 178.5,203.5 178.5,203.5 181.4,203.4 184.2,202.9 186.8,202.2 189.3,201.1 191.7,199.8 194.0,198.1 196.2,196.2 196.2,196.2 198.1,194.0 199.8,191.7 201.1,189.3 202.2,186.8 202.9,184.2 203.4,181.4 203.5,178.5 203.5,178.5 203.5,154.6 203.5,103.5 203.5,103.5 203.5,52.4 203.5,28.5 203.5,28.5 203.4,25.6 202.9,22.8 202.2,20.2 201.1,17.7 199.8,15.3 198.1,13.0 196.2,10.8 196.2,10.8 194.0,8.9 191.7,7.2 189.3,5.9 186.8,4.8 184.2,4.1 181.4,3.6 178.5,3.5 178.5,3.5 154.6,3.5 103.5,3.5 103.5,3.5 52.4,3.5 28.5,3.5 28.5,3.5 25.6,3.6 22.8,4.1 20.2,4.8 17.7,5.9 15.3,7.2 13.0,8.9 10.8,10.8 10.8,10.8 8.9,13.0 7.2,15.3 5.9,17.7 4.8,20.2 4.1,22.8 3.6,25.6 3.5,28.5 3.5,28.5 3.5,52.4 3.5,103.5 3.5,103.5 3.5,154.6 3.5,178.5 3.5,178.5 3.6,181.4 4.1,184.2 4.8,186.8 5.9,189.3 7.2,191.7 8.9,194.0" fill="url(#cyl2)" stroke="#C8C8C8" stroke-width="1.0" stroke-linecap="round" stroke-linejoin="round" />
		<polygon points="10.8,196.2 13.0,198.1 15.3,199.8 17.7,201.1 20.2,202.2 22.8,202.9 25.6,203.4 28.5,203.5 28.5,203.5 52.4,203.5 103.5,203.5 103.5,203.5 154.6,203.5 178.5,203.5 178.5,203.5 181.4,203.4 184.2,202.9 186.8,202.2 189.3,201.1 191.7,199.8 194.0,198.1 196.2,196.2 196.2,196.2 198.1,194.0 199.8,191.7 201.1,189.3 202.2,186.8 202.9,184.2 203.4,181.4 203.5,178.5 203.5,178.5 203.5,154.6 203.5,103.5 203.5,103.5 203.5,52.4 203.5,28.5 203.5,28.5 203.4,25.6 202.9,22.8 202.2,20.2 201.1,17.7 199.8,15.3 198.1,13.0 196.2,10.8 196.2,10.8 194.0,8.9 191.7,7.2 189.3,5.9 186.8,4.8 184.2,4.1 181.4,3.6 178.5,3.5 178.5,3.5 154.6,3.5 103.5,3.5 103.5,3.5 52.4,3.5 28.5,3.5 28.5,3.5 25.6,3.6 22.8,4.1 20.2,4.8 17.7,5.9 15.3,7.2 13.0,8.9 10.8,10.8 10.8,10.8 8.9,13.0 7.2,15.3 5.9,17.7 4.8,20.2 4.1,22.8 3.6,25.6 3.5,28.5 3.5,28.5 3.5,52.4 3.5,103.5 3.5,103.5 3.5,154.6 3.5,178.5 3.5,178.5 3.6,181.4 4.1,184.2 4.8,186.8 5.9,189.3 7.2,191.7 8.9,194.0" fill-opacity="0" stroke="#808080" stroke-width="1.0" stroke-linecap="round" stroke-linejoin="round" />
		<defs>
			<radialGradient id="sph4">
				<stop offset="0%" stop-color="#CCCCCC" />
				<stop offset="10%" stop-color="#CBCBCB" />
				<stop offset="20%" stop-color="#C8C8C8" />
				<stop offset="30%" stop-color="#C3C3C3" />
				<stop offset="40%" stop-color="#BCBCBC" />
				<stop offset="50%" stop-color="#B3B3B3" />
				<stop offset="60%" stop-color="#A7A7A7" />
				<stop offset="70%" stop-color="#9A9A9A" />
				<stop offset="80%" stop-color="#8B8B8B" />
				<stop offset="90%" stop-color="#797979" />
				<stop offset="100%" stop-color="#666666" />
			</radialGradient>
		</defs>
		<polygon points="163.5,103.5 163.3,98.3 162.6,93.2 161.5,88.2 160.0,83.2 158.0,78.5 155.7,73.9 152.9,69.5 149.8,65.4 146.4,61.5 142.6,58.0 138.6,54.8 134.2,52.0 129.7,49.5 125.0,47.5 120.1,45.8 115.0,44.6 109.9,43.8 104.8,43.5 99.6,43.6 94.5,44.2 89.4,45.2 84.5,46.6 79.6,48.4 75.0,50.7 70.6,53.3 66.4,56.4 62.5,59.7 58.9,63.4 55.6,67.4 52.6,71.7 50.1,76.1 47.9,80.8 46.2,85.7 44.9,90.7 44.0,95.8 43.6,100.9 43.6,106.1 44.0,111.2 44.9,116.3 46.2,121.3 47.9,126.2 50.1,130.9 52.6,135.3 55.6,139.6 58.9,143.6 62.5,147.3 66.4,150.6 70.6,153.7 75.0,156.3 79.6,158.6 84.5,160.4 89.4,161.8 94.5,162.8 99.6,163.4 104.8,163.5 109.9,163.2 115.0,162.4 120.1,161.2 125.0,159.5 129.7,157.5 134.2,155.0 138.6,152.2 142.6,149.0 146.4,145.5 149.8,141.6 152.9,137.5 155.7,133.1 158.0,128.5 160.0,123.8 161.5,118.8 162.6,113.8 163.3,108.7" fill="url(#sph4)" stroke-opacity="0" stroke-width="1.0" stroke-linecap="round" stroke-linejoin="round" />
		<polygon points="1.5,205.5 205.5,205.5 205.5,1.5 1.5,1.5" fill-opacity="0" stroke="#FF0000" stroke-dasharray="3 4" stroke-width="1.0" stroke-linecap="round" stroke-linejoin="round" />
	</g>
</svg>
