<svg width="103" height="403" xmlns="http://www.w3.org/2000/svg" xmlns:xlink="http://www.w3.org/1999/xlink">
	<g id="Modelica.Fluid.Vessels.BaseClasses.VesselFluidPorts_b" class="component">
		<polygon points="1.5,401.5 101.5,401.5 101.5,1.5 1.5,1.5" fill="#FFFFFF" stroke="#007FFF" stroke-width="1.0" stroke-linecap="round" stroke-linejoin="round" />
		<polygon points="31.5,201.5 31.5,184.3 31.3,167.2 31.1,150.4 30.8,134.0 30.4,118.1 29.9,102.7 29.4,88.2 28.8,74.4 28.1,61.6 27.3,49.8 26.5,39.2 25.6,29.7 24.7,21.6 23.8,14.7 22.8,9.3 21.8,5.2 20.8,2.7 19.8,1.5 18.7,1.9 17.7,3.8 16.7,7.1 15.7,11.8 14.7,18.0 13.8,25.5 12.9,34.3 12.1,44.4 11.3,55.6 10.6,67.9 9.9,81.2 9.3,95.4 8.8,110.3 8.4,126.0 8.0,142.2 7.8,158.8 7.6,175.8 7.5,192.9 7.5,210.1 7.6,227.2 7.8,244.2 8.0,260.8 8.4,277.0 8.8,292.7 9.3,307.6 9.9,321.8 10.6,335.1 11.3,347.4 12.1,358.6 12.9,368.7 13.8,377.5 14.7,385.0 15.7,391.2 16.7,395.9 17.7,399.2 18.7,401.1 19.8,401.5 20.8,400.3 21.8,397.8 22.8,393.7 23.8,388.3 24.7,381.4 25.6,373.3 26.5,363.8 27.3,353.2 28.1,341.4 28.8,328.6 29.4,314.8 29.9,300.3 30.4,284.9 30.8,269.0 31.1,252.6 31.3,235.8 31.5,218.7" fill="#007FFF" stroke="#000000" stroke-width="1.0" stroke-linecap="round" stroke-linejoin="round" />
		<polygon points="63.5,201.5 63.5,184.3 63.3,167.2 63.1,150.4 62.8,134.0 62.4,118.1 61.9,102.7 61.4,88.2 60.8,74.4 60.1,61.6 59.3,49.8 58.5,39.2 57.6,29.7 56.7,21.6 55.8,14.7 54.8,9.3 53.8,5.2 52.8,2.7 51.8,1.5 50.7,1.9 49.7,3.8 48.7,7.1 47.7,11.8 46.7,18.0 45.8,25.5 44.9,34.3 44.1,44.4 43.3,55.6 42.6,67.9 41.9,81.2 41.3,95.4 40.8,110.3 40.4,126.0 40.0,142.2 39.8,158.8 39.6,175.8 39.5,192.9 39.5,210.1 39.6,227.2 39.8,244.2 40.0,260.8 40.4,277.0 40.8,292.7 41.3,307.6 41.9,321.8 42.6,335.1 43.3,347.4 44.1,358.6 44.9,368.7 45.8,377.5 46.7,385.0 47.7,391.2 48.7,395.9 49.7,399.2 50.7,401.1 51.8,401.5 52.8,400.3 53.8,397.8 54.8,393.7 55.8,388.3 56.7,381.4 57.6,373.3 58.5,363.8 59.3,353.2 60.1,341.4 60.8,328.6 61.4,314.8 61.9,300.3 62.4,284.9 62.8,269.0 63.1,252.6 63.3,235.8 63.5,218.7" fill="#007FFF" stroke="#000000" stroke-width="1.0" stroke-linecap="round" stroke-linejoin="round" />
		<polygon points="95.5,201.5 95.5,184.3 95.3,167.2 95.1,150.4 94.8,134.0 94.4,118.1 93.9,102.7 93.4,88.2 92.8,74.4 92.1,61.6 91.3,49.8 90.5,39.2 89.6,29.7 88.7,21.6 87.8,14.7 86.8,9.3 85.8,5.2 84.8,2.7 83.8,1.5 82.7,1.9 81.7,3.8 80.7,7.1 79.7,11.8 78.7,18.0 77.8,25.5 76.9,34.3 76.1,44.4 75.3,55.6 74.6,67.9 73.9,81.2 73.3,95.4 72.8,110.3 72.4,126.0 72.0,142.2 71.8,158.8 71.6,175.8 71.5,192.9 71.5,210.1 71.6,227.2 71.8,244.2 72.0,260.8 72.4,277.0 72.8,292.7 73.3,307.6 73.9,321.8 74.6,335.1 75.3,347.4 76.1,358.6 76.9,368.7 77.8,377.5 78.7,385.0 79.7,391.2 80.7,395.9 81.7,399.2 82.7,401.1 83.8,401.5 84.8,400.3 85.8,397.8 86.8,393.7 87.8,388.3 88.7,381.4 89.6,373.3 90.5,363.8 91.3,353.2 92.1,341.4 92.8,328.6 93.4,314.8 93.9,300.3 94.4,284.9 94.8,269.0 95.1,252.6 95.3,235.8 95.5,218.7" fill="#007FFF" stroke="#000000" stroke-width="1.0" stroke-linecap="round" stroke-linejoin="round" />
		<polygon points="26.5,204.2 26.5,194.3 26.4,184.4 26.3,174.7 26.1,165.2 25.9,156.0 25.6,147.1 25.3,138.7 24.9,130.7 24.5,123.3 24.1,116.5 23.6,110.3 23.1,104.8 22.6,100.1 22.0,96.2 21.4,93.0 20.8,90.7 20.3,89.2 19.7,88.5 19.0,88.7 18.4,89.8 17.9,91.7 17.3,94.5 16.7,98.0 16.2,102.4 15.7,107.5 15.2,113.3 14.7,119.8 14.3,126.9 13.9,134.6 13.6,142.8 13.3,151.5 13.0,160.5 12.8,169.9 12.7,179.5 12.6,189.3 12.5,199.3 12.5,209.2 12.6,219.2 12.7,229.0 12.8,238.6 13.0,248.0 13.3,257.0 13.6,265.7 13.9,273.9 14.3,281.6 14.7,288.7 15.2,295.2 15.7,301.0 16.2,306.1 16.7,310.5 17.3,314.0 17.9,316.8 18.4,318.7 19.0,319.8 19.7,320.0 20.3,319.3 20.8,317.8 21.4,315.5 22.0,312.3 22.6,308.4 23.1,303.7 23.6,298.2 24.1,292.0 24.5,285.2 24.9,277.8 25.3,269.8 25.6,261.4 25.9,252.5 26.1,243.3 26.3,233.8 26.4,224.1 26.5,214.2" fill="#FFFFFF" stroke="#007FFF" stroke-width="1.0" stroke-linecap="round" stroke-linejoin="round" />
		<polygon points="58.5,204.2 58.5,194.3 58.4,184.4 58.3,174.7 58.1,165.2 57.9,156.0 57.6,147.1 57.3,138.7 56.9,130.7 56.5,123.3 56.1,116.5 55.6,110.3 55.1,104.8 54.6,100.1 54.0,96.2 53.4,93.0 52.8,90.7 52.3,89.2 51.7,88.5 51.0,88.7 50.4,89.8 49.9,91.7 49.3,94.5 48.7,98.0 48.2,102.4 47.7,107.5 47.2,113.3 46.7,119.8 46.3,126.9 45.9,134.6 45.6,142.8 45.3,151.5 45.0,160.5 44.8,169.9 44.7,179.5 44.6,189.3 44.5,199.3 44.5,209.2 44.6,219.2 44.7,229.0 44.8,238.6 45.0,248.0 45.3,257.0 45.6,265.7 45.9,273.9 46.3,281.6 46.7,288.7 47.2,295.2 47.7,301.0 48.2,306.1 48.7,310.5 49.3,314.0 49.9,316.8 50.4,318.7 51.0,319.8 51.7,320.0 52.3,319.3 52.8,317.8 53.4,315.5 54.0,312.3 54.6,308.4 55.1,303.7 55.6,298.2 56.1,292.0 56.5,285.2 56.9,277.8 57.3,269.8 57.6,261.4 57.9,252.5 58.1,243.3 58.3,233.8 58.4,224.1 58.5,214.2" fill="#FFFFFF" stroke="#007FFF" stroke-width="1.0" stroke-linecap="round" stroke-linejoin="round" />
		<polygon points="90.5,203.2 90.5,193.3 90.4,183.4 90.3,173.7 90.1,164.2 89.9,155.0 89.6,146.1 89.3,137.7 88.9,129.7 88.5,122.3 88.1,115.5 87.6,109.3 87.1,103.8 86.6,99.1 86.0,95.2 85.4,92.0 84.8,89.7 84.3,88.2 83.7,87.5 83.0,87.7 82.4,88.8 81.9,90.7 81.3,93.5 80.7,97.0 80.2,101.4 79.7,106.5 79.2,112.3 78.7,118.8 78.3,125.9 77.9,133.6 77.6,141.8 77.3,150.5 77.0,159.5 76.8,168.9 76.7,178.5 76.6,188.3 76.5,198.3 76.5,208.2 76.6,218.2 76.7,228.0 76.8,237.6 77.0,247.0 77.3,256.0 77.6,264.7 77.9,272.9 78.3,280.6 78.7,287.7 79.2,294.2 79.7,300.0 80.2,305.1 80.7,309.5 81.3,313.0 81.9,315.8 82.4,317.7 83.0,318.8 83.7,319.0 84.3,318.3 84.8,316.8 85.4,314.5 86.0,311.3 86.6,307.4 87.1,302.7 87.6,297.2 88.1,291.0 88.5,284.2 88.9,276.8 89.3,268.8 89.6,260.4 89.9,251.5 90.1,242.3 90.3,232.8 90.4,223.1 90.5,213.2" fill="#FFFFFF" stroke="#007FFF" stroke-width="1.0" stroke-linecap="round" stroke-linejoin="round" />
	</g>
</svg>
