<svg width="203" height="203" xmlns="http://www.w3.org/2000/svg" xmlns:xlink="http://www.w3.org/1999/xlink">
	<g id="Modelica.Electrical.Digital.Multiplexers.MUX2x1" class="component">
		<polyline points="21.5,51.5 61.5,51.5" fill-opacity="0" stroke="#7F007F" stroke-width="1.0" stroke-linecap="round" stroke-linejoin="round" />
		<polyline points="39.5,151.5 39.5,151.5" fill-opacity="0" stroke="#7F007F" stroke-width="1.0" stroke-linecap="round" stroke-linejoin="round" />
		<polyline points="21.5,151.5 61.5,151.5" fill-opacity="0" stroke="#7F007F" stroke-width="1.0" stroke-linecap="round" stroke-linejoin="round" />
		<polyline points="101.5,41.5 101.5,21.5" fill-opacity="0" stroke="#7F007F" stroke-width="1.0" stroke-linecap="round" stroke-linejoin="round" />
		<polyline points="141.5,101.5 181.5,101.5" fill-opacity="0" stroke="#7F007F" stroke-width="1.0" stroke-linecap="round" stroke-linejoin="round" />
		<polygon points="61.5,21.5 61.5,181.5 141.5,141.5 141.5,61.5" fill="#D5AAFF" stroke="#D5AAFF" stroke-width="1.0" stroke-linecap="round" stroke-linejoin="round" />
		<text x="102.5" y="191.1" text-anchor="middle" fill="#0000FF" font-size="22.9px" font-family="sans-serif">MUX2x1</text>
		<text x="101.5" y="110.3" text-anchor="middle" fill="#7F007F" font-size="23.6px" font-family="sans-serif">MUX2x1</text>
		<g id="in1" class="port">
			<polygon points="1.5,61.5 21.5,61.5 21.5,41.5 1.5,41.5" fill="#7F007F" stroke="#7F007F" stroke-width="1.0" stroke-linecap="round" stroke-linejoin="round" />
		</g>
		<g id="in0" class="port">
			<polygon points="1.5,161.5 21.5,161.5 21.5,141.5 1.5,141.5" fill="#7F007F" stroke="#7F007F" stroke-width="1.0" stroke-linecap="round" stroke-linejoin="round" />
		</g>
		<g id="sel" class="port">
			<polygon points="91.5,21.5 111.5,21.5 111.5,1.5 91.5,1.5" fill="#7F007F" stroke="#7F007F" stroke-width="1.0" stroke-linecap="round" stroke-linejoin="round" />
		</g>
		<g id="out" class="port">
			<polygon points="181.5,91.5 201.5,101.5 181.5,111.5" fill="#FFFFFF" stroke="#7F007F" stroke-width="1.0" stroke-linecap="round" stroke-linejoin="round" />
		</g>
	</g>
</svg>
