<svg width="213" height="213" xmlns="http://www.w3.org/2000/svg" xmlns:xlink="http://www.w3.org/1999/xlink">
	<g id="Modelica.Mechanics.MultiBody.Forces.LineForceWithMass" class="component">
		<defs>
			<radialGradient id="sph2">
				<stop offset="0%" stop-color="#C0C0C0" />
				<stop offset="10%" stop-color="#BEBEBE" />
				<stop offset="20%" stop-color="#B8B8B8" />
				<stop offset="30%" stop-color="#AFAFAF" />
				<stop offset="40%" stop-color="#A1A1A1" />
				<stop offset="50%" stop-color="#909090" />
				<stop offset="60%" stop-color="#7B7B7B" />
				<stop offset="70%" stop-color="#626262" />
				<stop offset="80%" stop-color="#454545" />
				<stop offset="90%" stop-color="#242424" />
				<stop offset="100%" stop-color="#000000" />
			</radialGradient>
		</defs>
		<polygon points="91.3,111.5 91.2,108.1 90.7,104.6 90.0,101.3 89.0,98.0 87.7,94.8 86.1,91.7 84.3,88.8 82.2,86.1 79.9,83.5 77.4,81.2 74.7,79.0 71.8,77.1 68.8,75.5 65.6,74.1 62.3,73.1 59.0,72.2 55.6,71.7 52.2,71.5 48.7,71.6 45.3,72.0 41.9,72.6 38.6,73.6 35.4,74.8 32.3,76.3 29.3,78.1 26.6,80.1 23.9,82.3 21.5,84.8 19.3,87.4 17.4,90.3 15.7,93.3 14.3,96.4 13.1,99.6 12.2,103.0 11.6,106.4 11.3,109.8 11.3,113.2 11.6,116.6 12.2,120.0 13.1,123.4 14.3,126.6 15.7,129.7 17.4,132.7 19.3,135.6 21.5,138.2 23.9,140.7 26.6,142.9 29.3,144.9 32.3,146.7 35.4,148.2 38.6,149.4 41.9,150.4 45.3,151.0 48.7,151.4 52.2,151.5 55.6,151.3 59.0,150.8 62.3,149.9 65.6,148.9 68.8,147.5 71.8,145.9 74.7,144.0 77.4,141.8 79.9,139.5 82.2,136.9 84.3,134.2 86.1,131.3 87.7,128.2 89.0,125.0 90.0,121.7 90.7,118.4 91.2,114.9" fill="url(#sph2)" stroke="#000000" stroke-width="1.0" stroke-linecap="butt" stroke-linejoin="round" />
		<polygon points="81.3,111.5 81.2,108.9 80.9,106.4 80.3,103.8 79.5,101.4 78.6,99.0 77.4,96.7 76.0,94.5 74.5,92.4 72.7,90.5 70.9,88.8 68.8,87.2 66.7,85.7 64.4,84.5 62.0,83.5 59.6,82.7 57.1,82.1 54.5,81.7 51.9,81.5 49.4,81.6 46.8,81.8 44.3,82.3 41.8,83.0 39.4,84.0 37.1,85.1 34.8,86.4 32.7,87.9 30.8,89.6 29.0,91.5 27.3,93.5 25.9,95.6 24.6,97.8 23.5,100.2 22.7,102.6 22.0,105.1 21.5,107.6 21.3,110.2 21.3,112.8 21.5,115.4 22.0,117.9 22.7,120.4 23.5,122.8 24.6,125.2 25.9,127.4 27.3,129.5 29.0,131.5 30.8,133.4 32.7,135.1 34.8,136.6 37.1,137.9 39.4,139.0 41.8,140.0 44.3,140.7 46.8,141.2 49.4,141.4 51.9,141.5 54.5,141.3 57.1,140.9 59.6,140.3 62.0,139.5 64.4,138.5 66.7,137.3 68.8,135.8 70.9,134.2 72.7,132.5 74.5,130.6 76.0,128.5 77.4,126.3 78.6,124.0 79.5,121.6 80.3,119.2 80.9,116.6 81.2,114.1" fill="#FFFFFF" stroke="#000000" stroke-width="1.0" stroke-linecap="butt" stroke-linejoin="round" />
		<defs>
			<radialGradient id="sph4">
				<stop offset="0%" stop-color="#C0C0C0" />
				<stop offset="10%" stop-color="#BEBEBE" />
				<stop offset="20%" stop-color="#B8B8B8" />
				<stop offset="30%" stop-color="#AFAFAF" />
				<stop offset="40%" stop-color="#A1A1A1" />
				<stop offset="50%" stop-color="#909090" />
				<stop offset="60%" stop-color="#7B7B7B" />
				<stop offset="70%" stop-color="#626262" />
				<stop offset="80%" stop-color="#454545" />
				<stop offset="90%" stop-color="#242424" />
				<stop offset="100%" stop-color="#000000" />
			</radialGradient>
		</defs>
		<polygon points="201.3,111.5 201.2,108.1 200.7,104.6 200.0,101.3 199.0,98.0 197.7,94.8 196.1,91.7 194.3,88.8 192.2,86.1 189.9,83.5 187.4,81.2 184.7,79.0 181.8,77.1 178.8,75.5 175.6,74.1 172.3,73.1 169.0,72.2 165.6,71.7 162.2,71.5 158.7,71.6 155.3,72.0 151.9,72.6 148.6,73.6 145.4,74.8 142.3,76.3 139.3,78.1 136.6,80.1 133.9,82.3 131.5,84.8 129.3,87.4 127.4,90.3 125.7,93.3 124.3,96.4 123.1,99.6 122.2,103.0 121.6,106.4 121.3,109.8 121.3,113.2 121.6,116.6 122.2,120.0 123.1,123.4 124.3,126.6 125.7,129.7 127.4,132.7 129.3,135.6 131.5,138.2 133.9,140.7 136.6,142.9 139.3,144.9 142.3,146.7 145.4,148.2 148.6,149.4 151.9,150.4 155.3,151.0 158.7,151.4 162.2,151.5 165.6,151.3 169.0,150.8 172.3,149.9 175.6,148.9 178.8,147.5 181.8,145.9 184.7,144.0 187.4,141.8 189.9,139.5 192.2,136.9 194.3,134.2 196.1,131.3 197.7,128.2 199.0,125.0 200.0,121.7 200.7,118.4 201.2,114.9" fill="url(#sph4)" stroke="#000000" stroke-width="1.0" stroke-linecap="butt" stroke-linejoin="round" />
		<polygon points="189.3,112.0 189.2,109.5 188.9,106.9 188.3,104.5 187.5,102.0 186.6,99.7 185.4,97.4 184.0,95.3 182.5,93.3 180.7,91.4 178.9,89.6 176.8,88.1 174.7,86.7 172.4,85.5 170.0,84.5 167.6,83.6 165.1,83.1 162.5,82.7 159.9,82.5 157.4,82.6 154.8,82.8 152.3,83.3 149.8,84.0 147.4,84.9 145.1,86.0 142.8,87.3 140.7,88.8 138.8,90.5 137.0,92.3 135.3,94.3 133.9,96.3 132.6,98.6 131.5,100.9 130.7,103.2 130.0,105.7 129.5,108.2 129.3,110.7 129.3,113.3 129.5,115.8 130.0,118.3 130.7,120.8 131.5,123.1 132.6,125.4 133.9,127.7 135.3,129.7 137.0,131.7 138.8,133.5 140.7,135.2 142.8,136.7 145.1,138.0 147.4,139.1 149.8,140.0 152.3,140.7 154.8,141.2 157.4,141.4 159.9,141.5 162.5,141.3 165.1,140.9 167.6,140.4 170.0,139.5 172.4,138.5 174.7,137.3 176.8,135.9 178.9,134.4 180.7,132.6 182.5,130.7 184.0,128.7 185.4,126.6 186.6,124.3 187.5,122.0 188.3,119.5 188.9,117.1 189.2,114.5" fill="#FFFFFF" stroke="#808080" stroke-width="1.0" stroke-linecap="butt" stroke-linejoin="round" />
		<polygon points="66.3,151.5 150.3,151.5 150.3,70.5 66.3,70.5" fill="#FFFFFF" stroke="#FFFFFF" stroke-width="1.0" stroke-linecap="butt" stroke-linejoin="round" />
		<defs>
			<radialGradient id="sph7">
				<stop offset="0%" stop-color="#C0C0C0" />
				<stop offset="10%" stop-color="#BEBEBE" />
				<stop offset="20%" stop-color="#B8B8B8" />
				<stop offset="30%" stop-color="#AFAFAF" />
				<stop offset="40%" stop-color="#A1A1A1" />
				<stop offset="50%" stop-color="#909090" />
				<stop offset="60%" stop-color="#7B7B7B" />
				<stop offset="70%" stop-color="#626262" />
				<stop offset="80%" stop-color="#454545" />
				<stop offset="90%" stop-color="#242424" />
				<stop offset="100%" stop-color="#000000" />
			</radialGradient>
		</defs>
		<polygon points="65.3,110.5 65.2,109.3 65.1,108.1 64.8,106.9 64.4,105.8 64.0,104.7 63.4,103.6 62.7,102.6 62.0,101.6 61.2,100.7 60.3,99.9 59.3,99.1 58.2,98.5 57.1,97.9 56.0,97.4 54.8,97.0 53.6,96.8 52.4,96.6 51.1,96.5 49.9,96.5 48.6,96.7 47.4,96.9 46.2,97.2 45.0,97.7 43.9,98.2 42.8,98.8 41.8,99.5 40.9,100.3 40.0,101.1 39.2,102.1 38.5,103.1 37.9,104.1 37.4,105.2 37.0,106.3 36.6,107.5 36.4,108.7 36.3,109.9 36.3,111.1 36.4,112.3 36.6,113.5 37.0,114.7 37.4,115.8 37.9,116.9 38.5,117.9 39.2,118.9 40.0,119.9 40.9,120.7 41.8,121.5 42.8,122.2 43.9,122.8 45.0,123.3 46.2,123.8 47.4,124.1 48.6,124.3 49.9,124.5 51.1,124.5 52.4,124.4 53.6,124.2 54.8,124.0 56.0,123.6 57.1,123.1 58.2,122.5 59.3,121.9 60.3,121.1 61.2,120.3 62.0,119.4 62.7,118.4 63.4,117.4 64.0,116.3 64.4,115.2 64.8,114.1 65.1,112.9 65.2,111.7" fill="url(#sph7)" stroke="#000000" stroke-width="1.0" stroke-linecap="butt" stroke-linejoin="round" />
		<defs>
			<radialGradient id="sph8">
				<stop offset="0%" stop-color="#C0C0C0" />
				<stop offset="10%" stop-color="#BEBEBE" />
				<stop offset="20%" stop-color="#B8B8B8" />
				<stop offset="30%" stop-color="#AFAFAF" />
				<stop offset="40%" stop-color="#A1A1A1" />
				<stop offset="50%" stop-color="#909090" />
				<stop offset="60%" stop-color="#7B7B7B" />
				<stop offset="70%" stop-color="#626262" />
				<stop offset="80%" stop-color="#454545" />
				<stop offset="90%" stop-color="#242424" />
				<stop offset="100%" stop-color="#000000" />
			</radialGradient>
		</defs>
		<polygon points="175.3,111.5 175.2,110.3 175.1,109.1 174.8,107.9 174.4,106.8 174.0,105.7 173.4,104.6 172.7,103.6 172.0,102.6 171.2,101.7 170.3,100.9 169.3,100.1 168.2,99.5 167.1,98.9 166.0,98.4 164.8,98.0 163.6,97.8 162.4,97.6 161.1,97.5 159.9,97.5 158.6,97.7 157.4,97.9 156.2,98.2 155.0,98.7 153.9,99.2 152.8,99.8 151.8,100.5 150.9,101.3 150.0,102.1 149.2,103.1 148.5,104.1 147.9,105.1 147.4,106.2 147.0,107.3 146.6,108.5 146.4,109.7 146.3,110.9 146.3,112.1 146.4,113.3 146.6,114.5 147.0,115.7 147.4,116.8 147.9,117.9 148.5,118.9 149.2,119.9 150.0,120.9 150.9,121.7 151.8,122.5 152.8,123.2 153.9,123.8 155.0,124.3 156.2,124.8 157.4,125.1 158.6,125.3 159.9,125.5 161.1,125.5 162.4,125.4 163.6,125.2 164.8,125.0 166.0,124.6 167.1,124.1 168.2,123.5 169.3,122.9 170.3,122.1 171.2,121.3 172.0,120.4 172.7,119.4 173.4,118.4 174.0,117.3 174.4,116.2 174.8,115.1 175.1,113.9 175.2,112.7" fill="url(#sph8)" stroke="#000000" stroke-width="1.0" stroke-linecap="butt" stroke-linejoin="round" />
		<polyline points="50.3,111.5 50.3,88.5 76.3,88.5 76.3,41.5 46.3,41.5 46.3,10.5" fill-opacity="0" stroke="#000000" stroke-width="1.0" stroke-linecap="butt" stroke-linejoin="round" />
		<polyline points="161.3,112.5 161.3,91.5 136.3,91.5 136.3,41.5 166.3,41.5 166.3,11.5" fill-opacity="0" stroke="#000000" stroke-width="1.0" stroke-linecap="butt" stroke-linejoin="round" />
		<polyline points="50.3,111.5 161.3,112.5" fill-opacity="0" stroke="#000000" stroke-dasharray="1 2" stroke-width="1.0" stroke-linecap="butt" stroke-linejoin="round" />
		<polygon points="114.3,111.5 114.3,110.8 114.2,110.1 114.0,109.5 113.8,108.8 113.6,108.2 113.3,107.5 112.9,107.0 112.5,106.4 112.0,105.9 111.5,105.4 111.0,105.0 110.4,104.6 109.8,104.3 109.2,104.0 108.5,103.8 107.8,103.6 107.2,103.5 106.5,103.5 105.8,103.5 105.1,103.6 104.4,103.7 103.8,103.9 103.1,104.2 102.5,104.5 101.9,104.8 101.4,105.2 100.8,105.7 100.3,106.2 99.9,106.7 99.5,107.3 99.2,107.9 98.9,108.5 98.7,109.1 98.5,109.8 98.4,110.5 98.3,111.2 98.3,111.8 98.4,112.5 98.5,113.2 98.7,113.9 98.9,114.5 99.2,115.1 99.5,115.7 99.9,116.3 100.3,116.8 100.8,117.3 101.4,117.8 101.9,118.2 102.5,118.5 103.1,118.8 103.8,119.1 104.4,119.3 105.1,119.4 105.8,119.5 106.5,119.5 107.2,119.5 107.8,119.4 108.5,119.2 109.2,119.0 109.8,118.7 110.4,118.4 111.0,118.0 111.5,117.6 112.0,117.1 112.5,116.6 112.9,116.0 113.3,115.5 113.6,114.8 113.8,114.2 114.0,113.5 114.2,112.9 114.3,112.2" fill="#000000" stroke="#000000" stroke-width="1.0" stroke-linecap="butt" stroke-linejoin="round" />
		<g id="frame_a" class="port">
			<polygon points="4.7,113.1 7.9,113.1 7.9,109.9 4.7,109.9" fill-opacity="0" stroke="#5F5F5F" stroke-width="1.0" stroke-linecap="butt" stroke-linejoin="round" />
			<polygon points="1.5,127.5 11.1,127.5 11.1,95.5 1.5,95.5" fill="#C0C0C0" stroke="#000000" stroke-width="1.0" stroke-linecap="butt" stroke-linejoin="round" />
		</g>
		<g id="frame_b" class="port">
			<polygon points="204.7,113.1 207.9,113.1 207.9,109.9 204.7,109.9" fill-opacity="0" stroke="#5F5F5F" stroke-width="1.0" stroke-linecap="butt" stroke-linejoin="round" />
			<polygon points="201.5,127.5 211.1,127.5 211.1,95.5 201.5,95.5" fill="#FFFFFF" stroke="#000000" stroke-width="1.0" stroke-linecap="butt" stroke-linejoin="round" />
		</g>
		<g id="flange_b" class="port">
			<polygon points="176.3,21.5 176.3,1.5 156.3,1.5 156.3,21.5" fill="#007F00" stroke="#007F00" stroke-width="1.0" stroke-linecap="butt" stroke-linejoin="round" />
		</g>
		<g id="flange_a" class="port">
			<polygon points="56.3,21.5 56.3,1.5 36.3,1.5 36.3,21.5" fill="#FFFFFF" stroke="#007F00" stroke-width="1.0" stroke-linecap="butt" stroke-linejoin="round" />
		</g>
	</g>
</svg>
