<svg width="233" height="251" xmlns="http://www.w3.org/2000/svg" xmlns:xlink="http://www.w3.org/1999/xlink">
	<g id="Modelica.Electrical.MultiPhase.Ideal.IdealThyristor" class="component">
		<polyline points="21.5,139.5 151.5,139.5" fill-opacity="0" stroke="#0000FF" stroke-width="1.0" stroke-linecap="butt" stroke-linejoin="round" />
		<polygon points="141.5,139.5 81.5,99.5 81.5,179.5" fill-opacity="0" stroke="#0000FF" stroke-width="1.0" stroke-linecap="butt" stroke-linejoin="round" />
		<polyline points="141.5,99.5 141.5,179.5" fill-opacity="0" stroke="#0000FF" stroke-width="1.0" stroke-linecap="butt" stroke-linejoin="round" />
		<polyline points="151.5,139.5 201.5,139.5" fill-opacity="0" stroke="#0000FF" stroke-width="1.0" stroke-linecap="butt" stroke-linejoin="round" />
		<polyline points="151.5,89.5 171.5,109.5" fill-opacity="0" stroke="#0000FF" stroke-width="1.0" stroke-linecap="butt" stroke-linejoin="round" />
		<polyline points="141.5,119.5 169.5,91.5" fill-opacity="0" stroke="#0000FF" stroke-width="1.0" stroke-linecap="butt" stroke-linejoin="round" />
		<polyline points="211.5,49.5 211.5,39.5" fill-opacity="0" stroke="#0000FF" stroke-width="1.0" stroke-linecap="butt" stroke-linejoin="round" />
		<g id="plug_p" class="port">
			<polygon points="21.5,139.5 21.5,138.6 21.3,137.8 21.2,136.9 20.9,136.1 20.6,135.3 20.2,134.6 19.7,133.8 19.2,133.1 18.6,132.5 18.0,131.9 17.3,131.4 16.6,130.9 15.9,130.5 15.1,130.2 14.3,129.9 13.4,129.7 12.6,129.6 11.7,129.5 10.8,129.5 10.0,129.6 9.1,129.8 8.3,130.0 7.5,130.3 6.7,130.7 6.0,131.1 5.3,131.6 4.7,132.2 4.0,132.8 3.5,133.5 3.0,134.2 2.6,134.9 2.2,135.7 1.9,136.5 1.7,137.4 1.6,138.2 1.5,139.1 1.5,139.9 1.6,140.8 1.7,141.6 1.9,142.5 2.2,143.3 2.6,144.1 3.0,144.8 3.5,145.5 4.0,146.2 4.7,146.8 5.3,147.4 6.0,147.9 6.7,148.3 7.5,148.7 8.3,149.0 9.1,149.2 10.0,149.4 10.8,149.5 11.7,149.5 12.6,149.4 13.4,149.3 14.3,149.1 15.1,148.8 15.9,148.5 16.6,148.1 17.3,147.6 18.0,147.1 18.6,146.5 19.2,145.9 19.7,145.2 20.2,144.4 20.6,143.7 20.9,142.9 21.2,142.1 21.3,141.2 21.5,140.4" fill="#0000FF" stroke="#0000FF" stroke-width="1.0" stroke-linecap="butt" stroke-linejoin="round" />
		</g>
		<g id="plug_n" class="port">
			<polygon points="221.5,139.5 221.5,138.6 221.3,137.8 221.2,136.9 220.9,136.1 220.6,135.3 220.2,134.6 219.7,133.8 219.2,133.1 218.6,132.5 218.0,131.9 217.3,131.4 216.6,130.9 215.9,130.5 215.1,130.2 214.3,129.9 213.4,129.7 212.6,129.6 211.7,129.5 210.8,129.5 210.0,129.6 209.1,129.8 208.3,130.0 207.5,130.3 206.7,130.7 206.0,131.1 205.3,131.6 204.7,132.2 204.0,132.8 203.5,133.5 203.0,134.2 202.6,134.9 202.2,135.7 201.9,136.5 201.7,137.4 201.6,138.2 201.5,139.1 201.5,139.9 201.6,140.8 201.7,141.6 201.9,142.5 202.2,143.3 202.6,144.1 203.0,144.8 203.5,145.5 204.0,146.2 204.7,146.8 205.3,147.4 206.0,147.9 206.7,148.3 207.5,148.7 208.3,149.0 209.1,149.2 210.0,149.4 210.8,149.5 211.7,149.5 212.6,149.4 213.4,149.3 214.3,149.1 215.1,148.8 215.9,148.5 216.6,148.1 217.3,147.6 218.0,147.1 218.6,146.5 219.2,145.9 219.7,145.2 220.2,144.4 220.6,143.7 220.9,142.9 221.2,142.1 221.3,141.2 221.5,140.4" fill="#FFFFFF" stroke="#0000FF" stroke-width="1.0" stroke-linecap="butt" stroke-linejoin="round" />
		</g>
		<g id="heatPort" class="port">
			<polygon points="101.5,249.5 121.5,249.5 121.5,229.5 101.5,229.5" fill="#BF0000" stroke="#BF0000" stroke-width="1.0" stroke-linecap="butt" stroke-linejoin="round" />
		</g>
		<g id="fire" class="port">
			<polygon points="231.5,1.5 211.5,41.5 191.5,1.5" fill="#FF00FF" stroke="#FF00FF" stroke-width="1.0" stroke-linecap="butt" stroke-linejoin="round" />
		</g>
	</g>
</svg>
