<svg width="223" height="223" xmlns="http://www.w3.org/2000/svg" xmlns:xlink="http://www.w3.org/1999/xlink">
	<g id="Modelica.Electrical.Analog.Basic.VCV" class="component">
		<polygon points="31.5,191.5 191.5,191.5 191.5,31.5 31.5,31.5" fill="#FFFFFF" stroke="#0000FF" stroke-width="1.0" stroke-linecap="round" stroke-linejoin="round" />
		<polyline points="201.5,11.5 151.5,11.5 151.5,211.5 211.5,211.5" fill-opacity="0" stroke="#0000FF" stroke-width="1.0" stroke-linecap="round" stroke-linejoin="round" />
		<polygon points="171.5,111.5 171.4,109.8 171.2,108.1 170.8,106.4 170.3,104.7 169.7,103.2 168.9,101.6 168.0,100.2 166.9,98.8 165.8,97.5 164.5,96.3 163.2,95.3 161.7,94.3 160.2,93.5 158.7,92.8 157.0,92.3 155.3,91.9 153.6,91.6 151.9,91.5 150.2,91.5 148.5,91.7 146.8,92.1 145.2,92.5 143.5,93.1 142.0,93.9 140.5,94.8 139.1,95.8 137.8,96.9 136.6,98.1 135.5,99.5 134.5,100.9 133.7,102.4 133.0,103.9 132.4,105.6 132.0,107.2 131.7,108.9 131.5,110.6 131.5,112.4 131.7,114.1 132.0,115.8 132.4,117.4 133.0,119.1 133.7,120.6 134.5,122.1 135.5,123.5 136.6,124.9 137.8,126.1 139.1,127.2 140.5,128.2 142.0,129.1 143.5,129.9 145.2,130.5 146.8,130.9 148.5,131.3 150.2,131.5 151.9,131.5 153.6,131.4 155.3,131.1 157.0,130.7 158.7,130.2 160.2,129.5 161.7,128.7 163.2,127.7 164.5,126.7 165.8,125.5 166.9,124.2 168.0,122.8 168.9,121.4 169.7,119.8 170.3,118.3 170.8,116.6 171.2,114.9 171.4,113.2" fill-opacity="0" stroke="#0000FF" stroke-width="1.0" stroke-linecap="round" stroke-linejoin="round" />
		<polyline points="91.5,51.5 131.5,51.5" fill-opacity="0" stroke="#0000FF" stroke-width="1.0" stroke-linecap="round" stroke-linejoin="round" />
		<polygon points="131.5,51.5 121.5,48.5 121.5,54.5" fill="#0000FF" stroke="#0000FF" stroke-width="1.0" stroke-linecap="round" stroke-linejoin="round" />
		<polyline points="21.5,11.5 71.5,11.5 71.5,49.5" fill-opacity="0" stroke="#0000FF" stroke-width="1.0" stroke-linecap="round" stroke-linejoin="round" />
		<polyline points="21.5,211.5 71.5,211.5 71.5,171.5" fill-opacity="0" stroke="#0000FF" stroke-width="1.0" stroke-linecap="round" stroke-linejoin="round" />
		<g id="p1" class="port">
			<polygon points="1.5,21.5 21.5,21.5 21.5,1.5 1.5,1.5" fill="#0000FF" stroke="#0000FF" stroke-width="1.0" stroke-linecap="round" stroke-linejoin="round" />
		</g>
		<g id="n1" class="port">
			<polygon points="21.5,221.5 1.5,221.5 1.5,201.5 21.5,201.5" fill="#FFFFFF" stroke="#0000FF" stroke-width="1.0" stroke-linecap="round" stroke-linejoin="round" />
		</g>
		<g id="p2" class="port">
			<polygon points="221.5,21.5 201.5,21.5 201.5,1.5 221.5,1.5" fill="#0000FF" stroke="#0000FF" stroke-width="1.0" stroke-linecap="round" stroke-linejoin="round" />
		</g>
		<g id="n2" class="port">
			<polygon points="201.5,221.5 221.5,221.5 221.5,201.5 201.5,201.5" fill="#FFFFFF" stroke="#0000FF" stroke-width="1.0" stroke-linecap="round" stroke-linejoin="round" />
		</g>
	</g>
</svg>
