<svg width="223" height="223" xmlns="http://www.w3.org/2000/svg" xmlns:xlink="http://www.w3.org/1999/xlink">
	<g id="Modelica.Electrical.QuasiStationary.SinglePhase.Interfaces.RelativeSensor" class="component">
		<polygon points="181.5,101.5 181.2,95.5 180.5,89.5 179.2,83.6 177.4,77.9 175.1,72.3 172.4,66.9 169.2,61.8 165.6,57.0 161.5,52.5 157.1,48.4 152.4,44.7 147.4,41.4 142.1,38.5 136.5,36.1 130.8,34.2 125.0,32.8 119.0,31.9 113.0,31.5 107.0,31.6 101.0,32.3 95.1,33.5 89.3,35.1 83.7,37.3 78.3,39.9 73.1,43.0 68.2,46.5 63.6,50.4 59.4,54.7 55.6,59.4 52.2,64.3 49.2,69.6 46.7,75.1 44.7,80.7 43.1,86.6 42.1,92.5 41.6,98.5 41.6,104.5 42.1,110.5 43.1,116.4 44.7,122.3 46.7,127.9 49.2,133.4 52.2,138.7 55.6,143.6 59.4,148.3 63.6,152.6 68.2,156.5 73.1,160.0 78.3,163.1 83.7,165.7 89.3,167.9 95.1,169.5 101.0,170.7 107.0,171.4 113.0,171.5 119.0,171.1 125.0,170.2 130.8,168.8 136.5,166.9 142.1,164.5 147.4,161.6 152.4,158.3 157.1,154.6 161.5,150.5 165.6,146.0 169.2,141.2 172.4,136.1 175.1,130.7 177.4,125.1 179.2,119.4 180.5,113.5 181.2,107.5" fill="#F5F5F5" stroke="#000000" stroke-width="1.0" stroke-linecap="butt" stroke-linejoin="round" />
		<polyline points="111.5,31.5 111.5,61.5" fill-opacity="0" stroke="#000000" stroke-width="1.0" stroke-linecap="butt" stroke-linejoin="round" />
		<polyline points="134.4,68.7 151.7,44.2" fill-opacity="0" stroke="#000000" stroke-width="1.0" stroke-linecap="butt" stroke-linejoin="round" />
		<polyline points="88.6,68.7 71.3,44.2" fill-opacity="0" stroke="#000000" stroke-width="1.0" stroke-linecap="butt" stroke-linejoin="round" />
		<polyline points="149.1,87.8 177.3,77.6" fill-opacity="0" stroke="#000000" stroke-width="1.0" stroke-linecap="butt" stroke-linejoin="round" />
		<polyline points="73.9,87.8 45.7,77.6" fill-opacity="0" stroke="#000000" stroke-width="1.0" stroke-linecap="butt" stroke-linejoin="round" />
		<polygon points="123.5,101.5 123.5,100.5 123.3,99.4 123.1,98.4 122.8,97.4 122.4,96.5 121.9,95.6 121.4,94.7 120.8,93.9 120.1,93.1 119.3,92.4 118.5,91.8 117.6,91.2 116.7,90.7 115.8,90.3 114.8,90.0 113.8,89.7 112.8,89.6 111.8,89.5 110.7,89.5 109.7,89.6 108.7,89.8 107.7,90.1 106.7,90.5 105.8,90.9 104.9,91.5 104.1,92.1 103.3,92.7 102.6,93.5 101.9,94.3 101.3,95.1 100.8,96.0 100.4,97.0 100.0,97.9 99.8,98.9 99.6,100.0 99.5,101.0 99.5,102.0 99.6,103.0 99.8,104.1 100.0,105.1 100.4,106.0 100.8,107.0 101.3,107.9 101.9,108.7 102.6,109.5 103.3,110.3 104.1,110.9 104.9,111.5 105.8,112.1 106.7,112.5 107.7,112.9 108.7,113.2 109.7,113.4 110.7,113.5 111.8,113.5 112.8,113.4 113.8,113.3 114.8,113.0 115.8,112.7 116.7,112.3 117.6,111.8 118.5,111.2 119.3,110.6 120.1,109.9 120.8,109.1 121.4,108.3 121.9,107.4 122.4,106.5 122.8,105.6 123.1,104.6 123.3,103.6 123.5,102.5" fill-opacity="0" stroke="#404040" stroke-width="1.0" stroke-linecap="butt" stroke-linejoin="round" />
		<polygon points="106.7,100.0 127.6,43.7 131.0,39.5 131.4,44.9 116.3,103.0" fill="#404040" stroke-opacity="0" stroke-width="1.0" stroke-linecap="butt" stroke-linejoin="round" />
		<polygon points="118.5,101.5 118.5,100.9 118.4,100.3 118.3,99.7 118.1,99.1 117.9,98.6 117.6,98.0 117.3,97.5 116.9,97.1 116.5,96.6 116.1,96.2 115.6,95.8 115.1,95.5 114.6,95.2 114.0,95.0 113.4,94.8 112.8,94.6 112.3,94.5 111.7,94.5 111.0,94.5 110.4,94.6 109.9,94.7 109.3,94.9 108.7,95.1 108.2,95.3 107.7,95.6 107.2,96.0 106.7,96.4 106.3,96.8 105.9,97.3 105.6,97.8 105.3,98.3 105.0,98.9 104.8,99.4 104.7,100.0 104.6,100.6 104.5,101.2 104.5,101.8 104.6,102.4 104.7,103.0 104.8,103.6 105.0,104.1 105.3,104.7 105.6,105.2 105.9,105.7 106.3,106.2 106.7,106.6 107.2,107.0 107.7,107.4 108.2,107.7 108.7,107.9 109.3,108.1 109.9,108.3 110.4,108.4 111.0,108.5 111.7,108.5 112.3,108.5 112.8,108.4 113.4,108.2 114.0,108.0 114.6,107.8 115.1,107.5 115.6,107.2 116.1,106.8 116.5,106.4 116.9,105.9 117.3,105.5 117.6,105.0 117.9,104.4 118.1,103.9 118.3,103.3 118.4,102.7 118.5,102.1" fill="#404040" stroke-opacity="0" stroke-width="1.0" stroke-linecap="butt" stroke-linejoin="round" />
		<polyline points="41.5,101.5 17.5,101.5" fill-opacity="0" stroke="#55AAFF" stroke-width="1.0" stroke-linecap="butt" stroke-linejoin="round" />
		<polyline points="181.5,101.5 205.5,101.5" fill-opacity="0" stroke="#55AAFF" stroke-width="1.0" stroke-linecap="butt" stroke-linejoin="round" />
		<polyline points="111.5,171.5 111.5,181.5 111.5,191.5 111.5,201.5" fill-opacity="0" stroke="#000000" stroke-width="1.0" stroke-linecap="butt" stroke-linejoin="round" />
		<g id="pin_p" class="port">
			<polygon points="1.5,111.5 21.5,111.5 21.5,91.5 1.5,91.5" fill="#55AAFF" stroke="#55AAFF" stroke-width="1.0" stroke-linecap="butt" stroke-linejoin="round" />
		</g>
		<g id="pin_n" class="port">
			<polygon points="201.5,111.5 221.5,111.5 221.5,91.5 201.5,91.5" fill="#FFFFFF" stroke="#55AAFF" stroke-width="1.0" stroke-linecap="butt" stroke-linejoin="round" />
		</g>
		<g id="y" class="port">
			<polygon points="102.2,202.2 101.7,203.0 101.5,204.0 101.5,204.0 101.5,206.4 101.5,211.5 101.5,211.5 101.5,216.6 101.5,219.0 101.5,219.0 101.7,220.0 102.2,220.8 102.2,220.8 103.0,221.3 104.0,221.5 104.0,221.5 106.4,221.5 111.5,221.5 111.5,221.5 116.6,221.5 119.0,221.5 119.0,221.5 120.0,221.3 120.8,220.8 120.8,220.8 121.3,220.0 121.5,219.0 121.5,219.0 121.5,216.6 121.5,211.5 121.5,211.5 121.5,206.4 121.5,204.0 121.5,204.0 121.3,203.0 120.8,202.2 120.8,202.2 120.0,201.7 119.0,201.5 119.0,201.5 116.6,201.5 111.5,201.5 111.5,201.5 106.4,201.5 104.0,201.5 104.0,201.5 103.0,201.7" fill="#A0A0A4" stroke="#A0A0A4" stroke-width="1.0" stroke-linecap="butt" stroke-linejoin="round" />
			<g class="transform" transform="rotate(-450.0 116.7 211.5)">
				<text x="116.7" y="211.5" text-anchor="middle" fill="#FFFFFF" font-size="13.3px" font-family="sans-serif">C</text>
			</g>
			<polygon points="121.5,201.5 111.5,221.5 101.5,201.5" fill="#FFFFFF" stroke="#55AAFF" stroke-width="1.0" stroke-linecap="butt" stroke-linejoin="round" />
		</g>
	</g>
</svg>
