<svg width="263" height="203" xmlns="http://www.w3.org/2000/svg" xmlns:xlink="http://www.w3.org/1999/xlink">
	<g id="Modelica.Electrical.Machines.SpacePhasors.Blocks.ToSpacePhasor" class="component">
		<polygon points="41.5,201.5 241.5,201.5 241.5,1.5 41.5,1.5" fill="#FFFFFF" stroke="#00007F" stroke-width="1.0" stroke-linecap="round" stroke-linejoin="round" />
		<polyline points="141.5,101.5 221.5,21.5 201.5,29.5 213.5,41.5 221.5,21.5" fill-opacity="0" stroke="#0000FF" stroke-width="1.0" stroke-linecap="round" stroke-linejoin="round" />
		<polyline points="141.5,101.5 221.5,181.5 213.5,161.5 201.5,173.5 221.5,181.5" fill-opacity="0" stroke="#0000FF" stroke-width="1.0" stroke-linecap="round" stroke-linejoin="round" />
		<polyline points="61.5,101.5 64.8,96.5 66.2,94.6 67.5,92.7 68.8,91.0 70.2,89.4 71.5,87.8 71.5,87.8 73.2,86.2 74.8,84.8 76.5,83.7 78.2,82.8 78.2,82.8 80.4,82.2 82.6,82.2 84.8,82.8 84.8,82.8 86.5,83.7 88.2,84.8 89.8,86.2 91.5,87.8 91.5,87.8 92.8,89.4 94.2,91.0 95.5,92.7 96.8,94.6 98.2,96.5 98.2,96.5 101.5,101.5 104.8,106.5 104.8,106.5 106.2,108.4 107.5,110.3 108.8,112.0 110.2,113.6 111.5,115.2 111.5,115.2 113.2,116.8 114.8,118.2 116.5,119.3 118.2,120.2 118.2,120.2 120.4,120.8 122.6,120.8 124.8,120.2 124.8,120.2 126.5,119.3 128.2,118.2 129.8,116.8 131.5,115.2 131.5,115.2 132.8,113.6 134.2,112.0 135.5,110.3 136.8,108.4 138.2,106.5 141.5,101.5" fill-opacity="0" stroke="#0000FF" stroke-width="1.0" stroke-linecap="round" stroke-linejoin="round" />
		<polyline points="51.5,101.5 54.8,96.5 56.2,94.6 57.5,92.7 58.8,91.0 60.2,89.4 61.5,87.8 61.5,87.8 63.2,86.2 64.8,84.8 66.5,83.7 68.2,82.8 68.2,82.8 70.4,82.2 72.6,82.2 74.8,82.8 74.8,82.8 76.5,83.7 78.2,84.8 79.8,86.2 81.5,87.8 81.5,87.8 82.8,89.4 84.2,91.0 85.5,92.7 86.8,94.6 88.2,96.5 88.2,96.5 91.5,101.5 94.8,106.5 94.8,106.5 96.2,108.4 97.5,110.3 98.8,112.0 100.2,113.6 101.5,115.2 101.5,115.2 103.2,116.8 104.8,118.2 106.5,119.3 108.2,120.2 108.2,120.2 110.4,120.8 112.6,120.8 114.8,120.2 114.8,120.2 116.5,119.3 118.2,118.2 119.8,116.8 121.5,115.2 121.5,115.2 122.8,113.6 124.2,112.0 125.5,110.3 126.8,108.4 128.2,106.5 131.5,101.5" fill-opacity="0" stroke="#0000FF" stroke-width="1.0" stroke-linecap="round" stroke-linejoin="round" />
		<polyline points="71.5,101.5 74.8,96.5 76.2,94.6 77.5,92.7 78.8,91.0 80.2,89.4 81.5,87.8 81.5,87.8 83.2,86.2 84.8,84.8 86.5,83.7 88.2,82.8 88.2,82.8 90.4,82.2 92.6,82.2 94.8,82.8 94.8,82.8 96.5,83.7 98.2,84.8 99.8,86.2 101.5,87.8 101.5,87.8 102.8,89.4 104.2,91.0 105.5,92.7 106.8,94.6 108.2,96.5 108.2,96.5 111.5,101.5 114.8,106.5 114.8,106.5 116.2,108.4 117.5,110.3 118.8,112.0 120.2,113.6 121.5,115.2 121.5,115.2 123.2,116.8 124.8,118.2 126.5,119.3 128.2,120.2 128.2,120.2 130.4,120.8 132.6,120.8 134.8,120.2 134.8,120.2 136.5,119.3 138.2,118.2 139.8,116.8 141.5,115.2 141.5,115.2 142.8,113.6 144.2,112.0 145.5,110.3 146.8,108.4 148.2,106.5 151.5,101.5" fill-opacity="0" stroke="#0000FF" stroke-width="1.0" stroke-linecap="round" stroke-linejoin="round" />
		<text x="167.5" y="187.6" text-anchor="middle" fill="#000000" font-size="15.9px" font-family="sans-serif">zero</text>
		<g id="u" class="port">
			<polygon points="1.5,81.5 41.5,101.5 1.5,121.5" fill="#00007F" stroke="#00007F" stroke-width="1.0" stroke-linecap="round" stroke-linejoin="round" />
		</g>
		<g id="y" class="port">
			<polygon points="241.5,91.5 261.5,101.5 241.5,111.5" fill="#FFFFFF" stroke="#00007F" stroke-width="1.0" stroke-linecap="round" stroke-linejoin="round" />
		</g>
		<g id="zero" class="port">
			<polygon points="241.5,191.5 261.5,181.5 241.5,171.5" fill="#FFFFFF" stroke="#00007F" stroke-width="1.0" stroke-linecap="round" stroke-linejoin="round" />
		</g>
	</g>
</svg>
