<svg width="213" height="203" xmlns="http://www.w3.org/2000/svg" xmlns:xlink="http://www.w3.org/1999/xlink">
	<g id="Modelica.Mechanics.MultiBody.Joints.Spherical" class="component">
		<defs>
			<radialGradient id="sph2">
				<stop offset="0%" stop-color="#C0C0C0" />
				<stop offset="10%" stop-color="#BEBEBE" />
				<stop offset="20%" stop-color="#B8B8B8" />
				<stop offset="30%" stop-color="#AFAFAF" />
				<stop offset="40%" stop-color="#A1A1A1" />
				<stop offset="50%" stop-color="#909090" />
				<stop offset="60%" stop-color="#7B7B7B" />
				<stop offset="70%" stop-color="#626262" />
				<stop offset="80%" stop-color="#454545" />
				<stop offset="90%" stop-color="#242424" />
				<stop offset="100%" stop-color="#000000" />
			</radialGradient>
		</defs>
		<polygon points="176.3,101.5 176.0,95.5 175.3,89.5 174.0,83.6 172.2,77.9 169.9,72.3 167.2,66.9 164.0,61.8 160.4,57.0 156.3,52.5 151.9,48.4 147.2,44.7 142.2,41.4 136.9,38.5 131.3,36.1 125.6,34.2 119.8,32.8 113.8,31.9 107.8,31.5 101.8,31.6 95.8,32.3 89.9,33.5 84.1,35.1 78.5,37.3 73.1,39.9 67.9,43.0 63.0,46.5 58.4,50.4 54.2,54.7 50.4,59.4 47.0,64.3 44.0,69.6 41.5,75.1 39.5,80.7 37.9,86.6 36.9,92.5 36.4,98.5 36.4,104.5 36.9,110.5 37.9,116.4 39.5,122.3 41.5,127.9 44.0,133.4 47.0,138.7 50.4,143.6 54.2,148.3 58.4,152.6 63.0,156.5 67.9,160.0 73.1,163.1 78.5,165.7 84.1,167.9 89.9,169.5 95.8,170.7 101.8,171.4 107.8,171.5 113.8,171.1 119.8,170.2 125.6,168.8 131.3,166.9 136.9,164.5 142.2,161.6 147.2,158.3 151.9,154.6 156.3,150.5 160.4,146.0 164.0,141.2 167.2,136.1 169.9,130.7 172.2,125.1 174.0,119.4 175.3,113.5 176.0,107.5" fill="url(#sph2)" stroke="#000000" stroke-width="1.0" stroke-linecap="butt" stroke-linejoin="round" />
		<polygon points="157.3,101.5 157.1,97.2 156.6,92.9 155.6,88.7 154.4,84.6 152.7,80.6 150.8,76.8 148.5,73.2 145.9,69.7 143.0,66.5 139.9,63.6 136.5,60.9 132.9,58.6 129.1,56.5 125.2,54.8 121.1,53.4 116.9,52.4 112.7,51.8 108.4,51.5 104.1,51.6 99.8,52.1 95.6,52.9 91.4,54.1 87.4,55.6 83.6,57.5 79.9,59.7 76.4,62.2 73.1,65.0 70.1,68.1 67.4,71.4 64.9,75.0 62.8,78.7 61.0,82.6 59.6,86.7 58.5,90.8 57.7,95.1 57.3,99.3 57.3,103.7 57.7,107.9 58.5,112.2 59.6,116.3 61.0,120.4 62.8,124.3 64.9,128.0 67.4,131.6 70.1,134.9 73.1,138.0 76.4,140.8 79.9,143.3 83.6,145.5 87.4,147.4 91.4,148.9 95.6,150.1 99.8,150.9 104.1,151.4 108.4,151.5 112.7,151.2 116.9,150.6 121.1,149.6 125.2,148.2 129.1,146.5 132.9,144.4 136.5,142.1 139.9,139.4 143.0,136.5 145.9,133.3 148.5,129.8 150.8,126.2 152.7,122.4 154.4,118.4 155.6,114.3 156.6,110.1 157.1,105.8" fill="#FFFFFF" stroke="#808080" stroke-width="1.0" stroke-linecap="butt" stroke-linejoin="round" />
		<polygon points="136.3,169.5 177.3,169.5 177.3,31.5 136.3,31.5" fill="#FFFFFF" stroke="#FFFFFF" stroke-width="1.0" stroke-linecap="butt" stroke-linejoin="round" />
		<defs>
			<linearGradient id="cyl5" x1="0" y1="0" x2="0" y2="1">
				<stop offset="0%" stop-color="#000000" />
				<stop offset="5%" stop-color="#242424" />
				<stop offset="10%" stop-color="#454545" />
				<stop offset="15%" stop-color="#626262" />
				<stop offset="20%" stop-color="#7B7B7B" />
				<stop offset="25%" stop-color="#909090" />
				<stop offset="30%" stop-color="#A1A1A1" />
				<stop offset="35%" stop-color="#AFAFAF" />
				<stop offset="40%" stop-color="#B8B8B8" />
				<stop offset="45%" stop-color="#BEBEBE" />
				<stop offset="50%" stop-color="#C0C0C0" />
				<stop offset="55%" stop-color="#BEBEBE" />
				<stop offset="60%" stop-color="#B8B8B8" />
				<stop offset="65%" stop-color="#AFAFAF" />
				<stop offset="70%" stop-color="#A1A1A1" />
				<stop offset="75%" stop-color="#909090" />
				<stop offset="80%" stop-color="#7B7B7B" />
				<stop offset="85%" stop-color="#626262" />
				<stop offset="90%" stop-color="#454545" />
				<stop offset="95%" stop-color="#242424" />
				<stop offset="100%" stop-color="#000000" />
			</linearGradient>
		</defs>
		<polygon points="6.3,111.5 38.3,111.5 38.3,91.5 6.3,91.5" fill="url(#cyl5)" stroke="#000000" stroke-width="1.0" stroke-linecap="butt" stroke-linejoin="round" />
		<defs>
			<linearGradient id="cyl6" x1="0" y1="0" x2="0" y2="1">
				<stop offset="0%" stop-color="#000000" />
				<stop offset="5%" stop-color="#242424" />
				<stop offset="10%" stop-color="#454545" />
				<stop offset="15%" stop-color="#626262" />
				<stop offset="20%" stop-color="#7B7B7B" />
				<stop offset="25%" stop-color="#909090" />
				<stop offset="30%" stop-color="#A1A1A1" />
				<stop offset="35%" stop-color="#AFAFAF" />
				<stop offset="40%" stop-color="#B8B8B8" />
				<stop offset="45%" stop-color="#BEBEBE" />
				<stop offset="50%" stop-color="#C0C0C0" />
				<stop offset="55%" stop-color="#BEBEBE" />
				<stop offset="60%" stop-color="#B8B8B8" />
				<stop offset="65%" stop-color="#AFAFAF" />
				<stop offset="70%" stop-color="#A1A1A1" />
				<stop offset="75%" stop-color="#909090" />
				<stop offset="80%" stop-color="#7B7B7B" />
				<stop offset="85%" stop-color="#626262" />
				<stop offset="90%" stop-color="#454545" />
				<stop offset="95%" stop-color="#242424" />
				<stop offset="100%" stop-color="#000000" />
			</linearGradient>
		</defs>
		<polygon points="129.3,111.5 206.3,111.5 206.3,91.5 129.3,91.5" fill="url(#cyl6)" stroke="#000000" stroke-width="1.0" stroke-linecap="butt" stroke-linejoin="round" />
		<defs>
			<radialGradient id="sph7">
				<stop offset="0%" stop-color="#A0A0A4" />
				<stop offset="10%" stop-color="#9E9EA2" />
				<stop offset="20%" stop-color="#9A9A9D" />
				<stop offset="30%" stop-color="#929295" />
				<stop offset="40%" stop-color="#86868A" />
				<stop offset="50%" stop-color="#78787B" />
				<stop offset="60%" stop-color="#666669" />
				<stop offset="70%" stop-color="#525254" />
				<stop offset="80%" stop-color="#3A3A3B" />
				<stop offset="90%" stop-color="#1E1E1F" />
				<stop offset="100%" stop-color="#000000" />
			</radialGradient>
		</defs>
		<polygon points="132.3,101.5 132.2,99.4 131.9,97.2 131.5,95.1 130.8,93.1 130.0,91.1 129.0,89.2 127.9,87.3 126.6,85.6 125.2,84.0 123.6,82.5 121.9,81.2 120.1,80.0 118.2,79.0 116.2,78.2 114.2,77.5 112.1,77.0 110.0,76.6 107.8,76.5 105.7,76.6 103.5,76.8 101.4,77.2 99.4,77.8 97.4,78.6 95.4,79.5 93.6,80.6 91.8,81.9 90.2,83.3 88.7,84.8 87.3,86.5 86.1,88.2 85.0,90.1 84.2,92.1 83.4,94.1 82.9,96.2 82.5,98.3 82.3,100.4 82.3,102.6 82.5,104.7 82.9,106.8 83.4,108.9 84.2,110.9 85.0,112.9 86.1,114.8 87.3,116.5 88.7,118.2 90.2,119.7 91.8,121.1 93.6,122.4 95.4,123.5 97.4,124.4 99.4,125.2 101.4,125.8 103.5,126.2 105.7,126.4 107.8,126.5 110.0,126.4 112.1,126.0 114.2,125.5 116.2,124.8 118.2,124.0 120.1,123.0 121.9,121.8 123.6,120.5 125.2,119.0 126.6,117.4 127.9,115.7 129.0,113.8 130.0,111.9 130.8,109.9 131.5,107.9 131.9,105.8 132.2,103.6" fill="url(#sph7)" stroke="#000000" stroke-width="1.0" stroke-linecap="butt" stroke-linejoin="round" />
		<g id="frame_a" class="port">
			<polygon points="4.7,103.1 7.9,103.1 7.9,99.9 4.7,99.9" fill-opacity="0" stroke="#5F5F5F" stroke-width="1.0" stroke-linecap="butt" stroke-linejoin="round" />
			<polygon points="1.5,117.5 11.1,117.5 11.1,85.5 1.5,85.5" fill="#C0C0C0" stroke="#000000" stroke-width="1.0" stroke-linecap="butt" stroke-linejoin="round" />
		</g>
		<g id="frame_b" class="port">
			<polygon points="204.7,103.1 207.9,103.1 207.9,99.9 204.7,99.9" fill-opacity="0" stroke="#5F5F5F" stroke-width="1.0" stroke-linecap="butt" stroke-linejoin="round" />
			<polygon points="201.5,117.5 211.1,117.5 211.1,85.5 201.5,85.5" fill="#FFFFFF" stroke="#000000" stroke-width="1.0" stroke-linecap="butt" stroke-linejoin="round" />
		</g>
	</g>
</svg>
