<svg width="203" height="213" xmlns="http://www.w3.org/2000/svg" xmlns:xlink="http://www.w3.org/1999/xlink">
	<g id="Modelica.Fluid.Sensors.Temperature" class="component">
		<polygon points="121.5,170.5 121.4,168.9 121.2,167.2 120.8,165.6 120.3,164.1 119.7,162.6 118.9,161.1 118.0,159.7 116.9,158.4 115.8,157.2 114.5,156.1 113.2,155.1 111.7,154.2 110.2,153.4 108.7,152.8 107.0,152.2 105.3,151.9 103.6,151.6 101.9,151.5 100.2,151.5 98.5,151.7 96.8,152.0 95.2,152.5 93.5,153.1 92.0,153.8 90.5,154.6 89.1,155.6 87.8,156.6 86.6,157.8 85.5,159.1 84.5,160.4 83.7,161.8 83.0,163.3 82.4,164.9 82.0,166.4 81.7,168.1 81.5,169.7 81.5,171.3 81.7,172.9 82.0,174.6 82.4,176.1 83.0,177.7 83.7,179.2 84.5,180.6 85.5,181.9 86.6,183.2 87.8,184.4 89.1,185.4 90.5,186.4 92.0,187.2 93.5,187.9 95.2,188.5 96.8,189.0 98.5,189.3 100.2,189.5 101.9,189.5 103.6,189.4 105.3,189.1 107.0,188.8 108.7,188.2 110.2,187.6 111.7,186.8 113.2,185.9 114.5,184.9 115.8,183.8 116.9,182.6 118.0,181.3 118.9,179.9 119.7,178.4 120.3,176.9 120.8,175.4 121.2,173.8 121.4,172.1" fill="#BF0000" stroke="#000000" stroke-width="1.0" stroke-linecap="butt" stroke-linejoin="round" />
		<polygon points="89.5,159.5 113.5,159.5 113.5,51.5 89.5,51.5" fill="#BF0000" stroke="#BF0000" stroke-width="1.0" stroke-linecap="butt" stroke-linejoin="round" />
		<polygon points="89.5,51.5 89.5,11.5 91.5,5.5 95.5,3.5 101.5,1.5 107.5,3.5 111.5,5.5 113.5,11.5 113.5,51.5" fill-opacity="0" stroke="#000000" stroke-width="1.0" stroke-linecap="butt" stroke-linejoin="round" />
		<polyline points="89.5,51.5 89.5,155.5" fill-opacity="0" stroke="#000000" stroke-width="1.0" stroke-linecap="butt" stroke-linejoin="round" />
		<polyline points="113.5,51.5 113.5,155.5" fill-opacity="0" stroke="#000000" stroke-width="1.0" stroke-linecap="butt" stroke-linejoin="round" />
		<polyline points="61.5,111.5 89.5,111.5" fill-opacity="0" stroke="#000000" stroke-width="1.0" stroke-linecap="butt" stroke-linejoin="round" />
		<polyline points="61.5,71.5 89.5,71.5" fill-opacity="0" stroke="#000000" stroke-width="1.0" stroke-linecap="butt" stroke-linejoin="round" />
		<polyline points="61.5,31.5 89.5,31.5" fill-opacity="0" stroke="#000000" stroke-width="1.0" stroke-linecap="butt" stroke-linejoin="round" />
		<polyline points="113.5,101.5 161.5,101.5" fill-opacity="0" stroke="#00007F" stroke-width="1.0" stroke-linecap="butt" stroke-linejoin="round" />
		<g id="port" class="port">
			<polygon points="101.5,191.5 100.6,191.5 99.8,191.6 98.9,191.8 98.1,192.1 97.3,192.4 96.6,192.8 95.8,193.3 95.1,193.8 94.5,194.4 93.9,195.0 93.4,195.7 92.9,196.4 92.5,197.1 92.2,197.9 91.9,198.7 91.7,199.6 91.6,200.4 91.5,201.3 91.5,202.1 91.6,203.0 91.8,203.8 92.0,204.7 92.3,205.5 92.7,206.2 93.1,207.0 93.6,207.7 94.2,208.3 94.8,208.9 95.5,209.5 96.2,210.0 96.9,210.4 97.7,210.8 98.5,211.0 99.4,211.3 100.2,211.4 101.1,211.5 101.9,211.5 102.8,211.4 103.6,211.3 104.5,211.0 105.3,210.8 106.1,210.4 106.8,210.0 107.5,209.5 108.2,208.9 108.8,208.3 109.4,207.7 109.9,207.0 110.3,206.2 110.7,205.5 111.0,204.7 111.2,203.8 111.4,203.0 111.5,202.1 111.5,201.3 111.4,200.4 111.3,199.6 111.1,198.7 110.8,197.9 110.5,197.1 110.1,196.4 109.6,195.7 109.1,195.0 108.5,194.4 107.9,193.8 107.2,193.3 106.4,192.8 105.7,192.4 104.9,192.1 104.1,191.8 103.2,191.6 102.4,191.5" fill="#007FFF" stroke="#007FFF" stroke-width="1.0" stroke-linecap="butt" stroke-linejoin="round" />
			<polygon points="101.5,191.5 100.6,191.5 99.8,191.6 98.9,191.8 98.1,192.1 97.3,192.4 96.6,192.8 95.8,193.3 95.1,193.8 94.5,194.4 93.9,195.0 93.4,195.7 92.9,196.4 92.5,197.1 92.2,197.9 91.9,198.7 91.7,199.6 91.6,200.4 91.5,201.3 91.5,202.1 91.6,203.0 91.8,203.8 92.0,204.7 92.3,205.5 92.7,206.2 93.1,207.0 93.6,207.7 94.2,208.3 94.8,208.9 95.5,209.5 96.2,210.0 96.9,210.4 97.7,210.8 98.5,211.0 99.4,211.3 100.2,211.4 101.1,211.5 101.9,211.5 102.8,211.4 103.6,211.3 104.5,211.0 105.3,210.8 106.1,210.4 106.8,210.0 107.5,209.5 108.2,208.9 108.8,208.3 109.4,207.7 109.9,207.0 110.3,206.2 110.7,205.5 111.0,204.7 111.2,203.8 111.4,203.0 111.5,202.1 111.5,201.3 111.4,200.4 111.3,199.6 111.1,198.7 110.8,197.9 110.5,197.1 110.1,196.4 109.6,195.7 109.1,195.0 108.5,194.4 107.9,193.8 107.2,193.3 106.4,192.8 105.7,192.4 104.9,192.1 104.1,191.8 103.2,191.6 102.4,191.5" fill="#007FFF" stroke="#000000" stroke-width="1.0" stroke-linecap="butt" stroke-linejoin="round" />
		</g>
		<g id="T" class="port">
			<polygon points="161.5,91.5 181.5,101.5 161.5,111.5" fill="#FFFFFF" stroke="#00007F" stroke-width="1.0" stroke-linecap="butt" stroke-linejoin="round" />
		</g>
	</g>
</svg>
