<svg width="207" height="207" xmlns="http://www.w3.org/2000/svg" xmlns:xlink="http://www.w3.org/1999/xlink">
	<g id="Modelica.Fluid.Icons.VariantLibrary" class="component">
		<polygon points="1.5,205.5 205.5,205.5 205.5,1.5 1.5,1.5" fill-opacity="0" stroke="#FF0000" stroke-dasharray="3 4" stroke-width="1.0" stroke-linecap="round" stroke-linejoin="round" />
		<defs>
			<linearGradient id="cyl3" x1="0" y1="0" x2="0" y2="1">
				<stop offset="0%" stop-color="#C8C8C8" />
				<stop offset="5%" stop-color="#D1D1D1" />
				<stop offset="10%" stop-color="#D9D9D9" />
				<stop offset="15%" stop-color="#E0E0E0" />
				<stop offset="20%" stop-color="#E7E7E7" />
				<stop offset="25%" stop-color="#ECECEC" />
				<stop offset="30%" stop-color="#F0F0F0" />
				<stop offset="35%" stop-color="#F4F4F4" />
				<stop offset="40%" stop-color="#F6F6F6" />
				<stop offset="45%" stop-color="#F8F8F8" />
				<stop offset="50%" stop-color="#F8F8F8" />
				<stop offset="55%" stop-color="#F8F8F8" />
				<stop offset="60%" stop-color="#F6F6F6" />
				<stop offset="65%" stop-color="#F4F4F4" />
				<stop offset="70%" stop-color="#F0F0F0" />
				<stop offset="75%" stop-color="#ECECEC" />
				<stop offset="80%" stop-color="#E7E7E7" />
				<stop offset="85%" stop-color="#E0E0E0" />
				<stop offset="90%" stop-color="#D9D9D9" />
				<stop offset="95%" stop-color="#D1D1D1" />
				<stop offset="100%" stop-color="#C8C8C8" />
			</linearGradient>
		</defs>
		<polygon points="10.8,196.2 13.0,198.1 15.3,199.8 17.7,201.1 20.2,202.2 22.8,202.9 25.6,203.4 28.5,203.5 28.5,203.5 52.4,203.5 103.5,203.5 103.5,203.5 154.6,203.5 178.5,203.5 178.5,203.5 181.4,203.4 184.2,202.9 186.8,202.2 189.3,201.1 191.7,199.8 194.0,198.1 196.2,196.2 196.2,196.2 198.1,194.0 199.8,191.7 201.1,189.3 202.2,186.8 202.9,184.2 203.4,181.4 203.5,178.5 203.5,178.5 203.5,154.6 203.5,103.5 203.5,103.5 203.5,52.4 203.5,28.5 203.5,28.5 203.4,25.6 202.9,22.8 202.2,20.2 201.1,17.7 199.8,15.3 198.1,13.0 196.2,10.8 196.2,10.8 194.0,8.9 191.7,7.2 189.3,5.9 186.8,4.8 184.2,4.1 181.4,3.6 178.5,3.5 178.5,3.5 154.6,3.5 103.5,3.5 103.5,3.5 52.4,3.5 28.5,3.5 28.5,3.5 25.6,3.6 22.8,4.1 20.2,4.8 17.7,5.9 15.3,7.2 13.0,8.9 10.8,10.8 10.8,10.8 8.9,13.0 7.2,15.3 5.9,17.7 4.8,20.2 4.1,22.8 3.6,25.6 3.5,28.5 3.5,28.5 3.5,52.4 3.5,103.5 3.5,103.5 3.5,154.6 3.5,178.5 3.5,178.5 3.6,181.4 4.1,184.2 4.8,186.8 5.9,189.3 7.2,191.7 8.9,194.0" fill="url(#cyl3)" stroke="#C8C8C8" stroke-width="1.0" stroke-linecap="round" stroke-linejoin="round" />
		<polygon points="10.8,196.2 13.0,198.1 15.3,199.8 17.7,201.1 20.2,202.2 22.8,202.9 25.6,203.4 28.5,203.5 28.5,203.5 52.4,203.5 103.5,203.5 103.5,203.5 154.6,203.5 178.5,203.5 178.5,203.5 181.4,203.4 184.2,202.9 186.8,202.2 189.3,201.1 191.7,199.8 194.0,198.1 196.2,196.2 196.2,196.2 198.1,194.0 199.8,191.7 201.1,189.3 202.2,186.8 202.9,184.2 203.4,181.4 203.5,178.5 203.5,178.5 203.5,154.6 203.5,103.5 203.5,103.5 203.5,52.4 203.5,28.5 203.5,28.5 203.4,25.6 202.9,22.8 202.2,20.2 201.1,17.7 199.8,15.3 198.1,13.0 196.2,10.8 196.2,10.8 194.0,8.9 191.7,7.2 189.3,5.9 186.8,4.8 184.2,4.1 181.4,3.6 178.5,3.5 178.5,3.5 154.6,3.5 103.5,3.5 103.5,3.5 52.4,3.5 28.5,3.5 28.5,3.5 25.6,3.6 22.8,4.1 20.2,4.8 17.7,5.9 15.3,7.2 13.0,8.9 10.8,10.8 10.8,10.8 8.9,13.0 7.2,15.3 5.9,17.7 4.8,20.2 4.1,22.8 3.6,25.6 3.5,28.5 3.5,28.5 3.5,52.4 3.5,103.5 3.5,103.5 3.5,154.6 3.5,178.5 3.5,178.5 3.6,181.4 4.1,184.2 4.8,186.8 5.9,189.3 7.2,191.7 8.9,194.0" fill-opacity="0" stroke="#808080" stroke-width="1.0" stroke-linecap="round" stroke-linejoin="round" />
		<polygon points="93.5,143.5 93.4,140.9 93.1,138.4 92.5,135.8 91.7,133.4 90.8,131.0 89.6,128.7 88.2,126.5 86.7,124.4 84.9,122.5 83.1,120.8 81.0,119.2 78.9,117.7 76.6,116.5 74.2,115.5 71.8,114.7 69.3,114.1 66.7,113.7 64.1,113.5 61.6,113.6 59.0,113.8 56.5,114.3 54.0,115.0 51.6,116.0 49.3,117.1 47.0,118.4 44.9,119.9 43.0,121.6 41.2,123.5 39.5,125.5 38.1,127.6 36.8,129.8 35.7,132.2 34.9,134.6 34.2,137.1 33.7,139.6 33.5,142.2 33.5,144.8 33.7,147.4 34.2,149.9 34.9,152.4 35.7,154.8 36.8,157.2 38.1,159.4 39.5,161.5 41.2,163.5 43.0,165.4 44.9,167.1 47.0,168.6 49.3,169.9 51.6,171.0 54.0,172.0 56.5,172.7 59.0,173.2 61.6,173.4 64.1,173.5 66.7,173.3 69.3,172.9 71.8,172.3 74.2,171.5 76.6,170.5 78.9,169.3 81.0,167.8 83.1,166.2 84.9,164.5 86.7,162.6 88.2,160.5 89.6,158.3 90.8,156.0 91.7,153.6 92.5,151.2 93.1,148.6 93.4,146.1" fill="#4C4C4C" stroke-opacity="0" stroke-width="1.0" stroke-linecap="round" stroke-linejoin="round" />
		<polygon points="173.5,143.5 173.4,140.9 173.1,138.4 172.5,135.8 171.7,133.4 170.8,131.0 169.6,128.7 168.2,126.5 166.7,124.4 164.9,122.5 163.1,120.8 161.0,119.2 158.9,117.7 156.6,116.5 154.2,115.5 151.8,114.7 149.3,114.1 146.7,113.7 144.1,113.5 141.6,113.6 139.0,113.8 136.5,114.3 134.0,115.0 131.6,116.0 129.3,117.1 127.0,118.4 124.9,119.9 123.0,121.6 121.2,123.5 119.5,125.5 118.1,127.6 116.8,129.8 115.7,132.2 114.9,134.6 114.2,137.1 113.7,139.6 113.5,142.2 113.5,144.8 113.7,147.4 114.2,149.9 114.9,152.4 115.7,154.8 116.8,157.2 118.1,159.4 119.5,161.5 121.2,163.5 123.0,165.4 124.9,167.1 127.0,168.6 129.3,169.9 131.6,171.0 134.0,172.0 136.5,172.7 139.0,173.2 141.6,173.4 144.1,173.5 146.7,173.3 149.3,172.9 151.8,172.3 154.2,171.5 156.6,170.5 158.9,169.3 161.0,167.8 163.1,166.2 164.9,164.5 166.7,162.6 168.2,160.5 169.6,158.3 170.8,156.0 171.7,153.6 172.5,151.2 173.1,148.6 173.4,146.1" fill="#000000" stroke-opacity="0" stroke-width="1.0" stroke-linecap="round" stroke-linejoin="round" />
		<polygon points="173.5,63.5 173.4,60.9 173.1,58.4 172.5,55.8 171.7,53.4 170.8,51.0 169.6,48.7 168.2,46.5 166.7,44.4 164.9,42.5 163.1,40.8 161.0,39.2 158.9,37.7 156.6,36.5 154.2,35.5 151.8,34.7 149.3,34.1 146.7,33.7 144.1,33.5 141.6,33.6 139.0,33.8 136.5,34.3 134.0,35.0 131.6,36.0 129.3,37.1 127.0,38.4 124.9,39.9 123.0,41.6 121.2,43.5 119.5,45.5 118.1,47.6 116.8,49.8 115.7,52.2 114.9,54.6 114.2,57.1 113.7,59.6 113.5,62.2 113.5,64.8 113.7,67.4 114.2,69.9 114.9,72.4 115.7,74.8 116.8,77.2 118.1,79.4 119.5,81.5 121.2,83.5 123.0,85.4 124.9,87.1 127.0,88.6 129.3,89.9 131.6,91.0 134.0,92.0 136.5,92.7 139.0,93.2 141.6,93.4 144.1,93.5 146.7,93.3 149.3,92.9 151.8,92.3 154.2,91.5 156.6,90.5 158.9,89.3 161.0,87.8 163.1,86.2 164.9,84.5 166.7,82.6 168.2,80.5 169.6,78.3 170.8,76.0 171.7,73.6 172.5,71.2 173.1,68.6 173.4,66.1" fill="#808080" stroke-opacity="0" stroke-width="1.0" stroke-linecap="round" stroke-linejoin="round" />
		<polygon points="93.5,63.5 93.4,60.9 93.1,58.4 92.5,55.8 91.7,53.4 90.8,51.0 89.6,48.7 88.2,46.5 86.7,44.4 84.9,42.5 83.1,40.8 81.0,39.2 78.9,37.7 76.6,36.5 74.2,35.5 71.8,34.7 69.3,34.1 66.7,33.7 64.1,33.5 61.6,33.6 59.0,33.8 56.5,34.3 54.0,35.0 51.6,36.0 49.3,37.1 47.0,38.4 44.9,39.9 43.0,41.6 41.2,43.5 39.5,45.5 38.1,47.6 36.8,49.8 35.7,52.2 34.9,54.6 34.2,57.1 33.7,59.6 33.5,62.2 33.5,64.8 33.7,67.4 34.2,69.9 34.9,72.4 35.7,74.8 36.8,77.2 38.1,79.4 39.5,81.5 41.2,83.5 43.0,85.4 44.9,87.1 47.0,88.6 49.3,89.9 51.6,91.0 54.0,92.0 56.5,92.7 59.0,93.2 61.6,93.4 64.1,93.5 66.7,93.3 69.3,92.9 71.8,92.3 74.2,91.5 76.6,90.5 78.9,89.3 81.0,87.8 83.1,86.2 84.9,84.5 86.7,82.6 88.2,80.5 89.6,78.3 90.8,76.0 91.7,73.6 92.5,71.2 93.1,68.6 93.4,66.1" fill="#FFFFFF" stroke="#808080" stroke-width="1.0" stroke-linecap="round" stroke-linejoin="round" />
	</g>
</svg>
