<svg width="223" height="223" xmlns="http://www.w3.org/2000/svg" xmlns:xlink="http://www.w3.org/1999/xlink">
	<g id="Modelica.Thermal.FluidHeatFlow.Sources.PressureIncrease" class="component">
		<polygon points="201.5,121.5 201.2,113.8 200.2,106.1 198.5,98.5 196.2,91.1 193.3,84.0 189.8,77.1 185.7,70.5 181.0,64.3 175.8,58.5 170.2,53.3 164.1,48.5 157.6,44.2 150.8,40.5 143.7,37.5 136.3,35.0 128.8,33.2 121.2,32.0 113.4,31.5 105.7,31.7 98.0,32.5 90.4,34.0 83.0,36.1 75.7,38.9 68.8,42.3 62.1,46.3 55.8,50.8 49.9,55.8 44.5,61.4 39.6,67.4 35.2,73.7 31.4,80.5 28.2,87.5 25.6,94.8 23.6,102.3 22.2,109.9 21.6,117.6 21.6,125.4 22.2,133.1 23.6,140.7 25.6,148.2 28.2,155.5 31.4,162.5 35.2,169.3 39.6,175.6 44.5,181.6 49.9,187.2 55.8,192.2 62.1,196.7 68.8,200.7 75.7,204.1 83.0,206.9 90.4,209.0 98.0,210.5 105.7,211.3 113.4,211.5 121.2,211.0 128.8,209.8 136.3,208.0 143.7,205.5 150.8,202.5 157.6,198.8 164.1,194.5 170.2,189.7 175.8,184.5 181.0,178.7 185.7,172.5 189.8,165.9 193.3,159.0 196.2,151.9 198.5,144.5 200.2,136.9 201.2,129.2" fill="#FFFFFF" stroke="#FF0000" stroke-width="1.0" stroke-linecap="round" stroke-linejoin="round" />
		<polygon points="51.5,53.5 201.5,111.5 201.5,131.5 51.5,189.5" fill="#FF0000" stroke="#0000FF" stroke-width="1.0" stroke-linecap="round" stroke-linejoin="round" />
		<text x="101.5" y="135.8" text-anchor="middle" fill="#000000" font-size="58.5px" font-family="sans-serif">dp</text>
		<g id="flowPort_a" class="port">
			<polygon points="1.5,131.5 21.5,131.5 21.5,111.5 1.5,111.5" fill="#FFFFFF" stroke="#FF0000" stroke-width="1.0" stroke-linecap="round" stroke-linejoin="round" />
			<polygon points="21.3,121.5 21.3,120.7 21.2,119.8 21.0,119.0 20.7,118.2 20.4,117.4 20.0,116.7 19.6,115.9 19.1,115.3 18.5,114.6 17.9,114.1 17.2,113.5 16.5,113.1 15.8,112.7 15.0,112.3 14.2,112.1 13.4,111.9 12.6,111.8 11.7,111.7 10.9,111.7 10.0,111.8 9.2,112.0 8.4,112.2 7.6,112.5 6.8,112.9 6.1,113.3 5.4,113.8 4.8,114.4 4.2,115.0 3.7,115.6 3.2,116.3 2.8,117.0 2.4,117.8 2.1,118.6 1.9,119.4 1.8,120.2 1.7,121.1 1.7,121.9 1.8,122.8 1.9,123.6 2.1,124.4 2.4,125.2 2.8,126.0 3.2,126.7 3.7,127.4 4.2,128.0 4.8,128.6 5.4,129.2 6.1,129.7 6.8,130.1 7.6,130.5 8.4,130.8 9.2,131.0 10.0,131.2 10.9,131.3 11.7,131.3 12.6,131.2 13.4,131.1 14.2,130.9 15.0,130.7 15.8,130.3 16.5,129.9 17.2,129.5 17.9,128.9 18.5,128.4 19.1,127.7 19.6,127.1 20.0,126.3 20.4,125.6 20.7,124.8 21.0,124.0 21.2,123.2 21.3,122.3" fill="#0000FF" stroke="#0000FF" stroke-width="1.0" stroke-linecap="round" stroke-linejoin="round" />
		</g>
		<g id="flowPort_b" class="port">
			<polygon points="201.5,131.5 221.5,131.5 221.5,111.5 201.5,111.5" fill="#FFFFFF" stroke="#FF0000" stroke-width="1.0" stroke-linecap="round" stroke-linejoin="round" />
			<polygon points="221.3,121.5 221.3,120.7 221.2,119.8 221.0,119.0 220.7,118.2 220.4,117.4 220.0,116.7 219.6,115.9 219.1,115.3 218.5,114.6 217.9,114.1 217.2,113.5 216.5,113.1 215.8,112.7 215.0,112.3 214.2,112.1 213.4,111.9 212.6,111.8 211.7,111.7 210.9,111.7 210.0,111.8 209.2,112.0 208.4,112.2 207.6,112.5 206.8,112.9 206.1,113.3 205.4,113.8 204.8,114.4 204.2,115.0 203.7,115.6 203.2,116.3 202.8,117.0 202.4,117.8 202.1,118.6 201.9,119.4 201.8,120.2 201.7,121.1 201.7,121.9 201.8,122.8 201.9,123.6 202.1,124.4 202.4,125.2 202.8,126.0 203.2,126.7 203.7,127.4 204.2,128.0 204.8,128.6 205.4,129.2 206.1,129.7 206.8,130.1 207.6,130.5 208.4,130.8 209.2,131.0 210.0,131.2 210.9,131.3 211.7,131.3 212.6,131.2 213.4,131.1 214.2,130.9 215.0,130.7 215.8,130.3 216.5,129.9 217.2,129.5 217.9,128.9 218.5,128.4 219.1,127.7 219.6,127.1 220.0,126.3 220.4,125.6 220.7,124.8 221.0,124.0 221.2,123.2 221.3,122.3" fill-opacity="0" stroke="#0000FF" stroke-width="1.0" stroke-linecap="round" stroke-linejoin="round" />
		</g>
		<g id="pressureIncrease" class="port">
			<polygon points="131.5,1.5 111.5,41.5 91.5,1.5" fill="#00007F" stroke="#00007F" stroke-width="1.0" stroke-linecap="round" stroke-linejoin="round" />
		</g>
	</g>
</svg>
