<svg width="207" height="207" xmlns="http://www.w3.org/2000/svg" xmlns:xlink="http://www.w3.org/1999/xlink">
	<g id="Modelica.Electrical.Spice3.Internal.Functions.junction2SPICE3MOSFET" class="component">
		<polygon points="203.5,103.5 203.1,94.9 202.0,86.4 200.2,78.0 197.6,69.7 194.4,61.8 190.5,54.1 185.9,46.8 180.7,40.0 175.0,33.6 168.7,27.7 161.9,22.3 154.7,17.6 147.2,13.5 139.3,10.1 131.1,7.4 122.7,5.4 114.2,4.1 105.7,3.5 97.0,3.7 88.5,4.6 80.1,6.3 71.8,8.7 63.7,11.7 56.0,15.5 48.6,19.9 41.6,24.9 35.1,30.5 29.1,36.7 23.6,43.3 18.7,50.4 14.5,57.9 10.9,65.7 8.0,73.8 5.8,82.1 4.3,90.6 3.6,99.2 3.6,107.8 4.3,116.4 5.8,124.9 8.0,133.2 10.9,141.3 14.5,149.1 18.7,156.6 23.6,163.7 29.1,170.3 35.1,176.5 41.6,182.1 48.6,187.1 56.0,191.5 63.7,195.3 71.8,198.3 80.1,200.7 88.5,202.4 97.0,203.3 105.7,203.5 114.2,202.9 122.7,201.6 131.1,199.6 139.3,196.9 147.2,193.5 154.7,189.4 161.9,184.7 168.7,179.3 175.0,173.4 180.7,167.0 185.9,160.2 190.5,152.9 194.4,145.2 197.6,137.3 200.2,129.0 202.0,120.6 203.1,112.1" fill="#FFD788" stroke="#6C5831" stroke-width="1.0" stroke-linecap="round" stroke-linejoin="round" />
		<text x="103.5" y="188.2" text-anchor="middle" fill="#6C5831" font-size="239.1px" font-family="sans-serif">f</text>
		<polygon points="1.5,205.5 205.5,205.5 205.5,1.5 1.5,1.5" fill-opacity="0" stroke="#FF0000" stroke-dasharray="3 4" stroke-width="1.0" stroke-linecap="round" stroke-linejoin="round" />
	</g>
</svg>
