<svg width="223" height="253" xmlns="http://www.w3.org/2000/svg" xmlns:xlink="http://www.w3.org/1999/xlink">
	<g id="Modelica.Electrical.QuasiStationary.MultiPhase.Ideal.IdealOpeningSwitch" class="component">
		<polyline points="21.5,141.5 67.5,141.5" fill-opacity="0" stroke="#55AAFF" stroke-width="1.0" stroke-linecap="round" stroke-linejoin="round" />
		<polygon points="75.5,141.5 75.5,141.2 75.4,140.8 75.4,140.5 75.3,140.1 75.1,139.8 75.0,139.5 74.8,139.2 74.6,139.0 74.3,138.7 74.1,138.5 73.8,138.3 73.5,138.1 73.2,137.9 72.9,137.8 72.6,137.7 72.3,137.6 71.9,137.5 71.6,137.5 71.2,137.5 70.9,137.5 70.6,137.6 70.2,137.7 69.9,137.8 69.6,138.0 69.3,138.2 69.0,138.4 68.8,138.6 68.5,138.8 68.3,139.1 68.1,139.4 67.9,139.7 67.8,140.0 67.7,140.3 67.6,140.6 67.5,141.0 67.5,141.3 67.5,141.7 67.5,142.0 67.6,142.4 67.7,142.7 67.8,143.0 67.9,143.3 68.1,143.6 68.3,143.9 68.5,144.2 68.8,144.4 69.0,144.6 69.3,144.8 69.6,145.0 69.9,145.2 70.2,145.3 70.6,145.4 70.9,145.5 71.2,145.5 71.6,145.5 71.9,145.5 72.3,145.4 72.6,145.3 72.9,145.2 73.2,145.1 73.5,144.9 73.8,144.7 74.1,144.5 74.3,144.3 74.6,144.0 74.8,143.8 75.0,143.5 75.1,143.2 75.3,142.9 75.4,142.5 75.4,142.2 75.5,141.8" fill-opacity="0" stroke="#55AAFF" stroke-width="1.0" stroke-linecap="round" stroke-linejoin="round" />
		<polyline points="74.5,139.5 151.5,101.5" fill-opacity="0" stroke="#55AAFF" stroke-width="1.0" stroke-linecap="round" stroke-linejoin="round" />
		<polyline points="151.5,141.5 201.5,141.5" fill-opacity="0" stroke="#55AAFF" stroke-width="1.0" stroke-linecap="round" stroke-linejoin="round" />
		<polyline points="151.5,121.5 151.5,141.5" fill-opacity="0" stroke="#55AAFF" stroke-width="1.0" stroke-linecap="round" stroke-linejoin="round" />
		<g id="plug_p" class="port">
			<polygon points="21.5,141.5 21.5,140.6 21.3,139.8 21.2,138.9 20.9,138.1 20.6,137.3 20.2,136.6 19.7,135.8 19.2,135.1 18.6,134.5 18.0,133.9 17.3,133.4 16.6,132.9 15.9,132.5 15.1,132.2 14.3,131.9 13.4,131.7 12.6,131.6 11.7,131.5 10.8,131.5 10.0,131.6 9.1,131.8 8.3,132.0 7.5,132.3 6.7,132.7 6.0,133.1 5.3,133.6 4.7,134.2 4.0,134.8 3.5,135.5 3.0,136.2 2.6,136.9 2.2,137.7 1.9,138.5 1.7,139.4 1.6,140.2 1.5,141.1 1.5,141.9 1.6,142.8 1.7,143.6 1.9,144.5 2.2,145.3 2.6,146.1 3.0,146.8 3.5,147.5 4.0,148.2 4.7,148.8 5.3,149.4 6.0,149.9 6.7,150.3 7.5,150.7 8.3,151.0 9.1,151.2 10.0,151.4 10.8,151.5 11.7,151.5 12.6,151.4 13.4,151.3 14.3,151.1 15.1,150.8 15.9,150.5 16.6,150.1 17.3,149.6 18.0,149.1 18.6,148.5 19.2,147.9 19.7,147.2 20.2,146.4 20.6,145.7 20.9,144.9 21.2,144.1 21.3,143.2 21.5,142.4" fill="#55AAFF" stroke="#55AAFF" stroke-width="1.0" stroke-linecap="round" stroke-linejoin="round" />
		</g>
		<g id="plug_n" class="port">
			<polygon points="221.5,141.5 221.5,140.6 221.3,139.8 221.2,138.9 220.9,138.1 220.6,137.3 220.2,136.6 219.7,135.8 219.2,135.1 218.6,134.5 218.0,133.9 217.3,133.4 216.6,132.9 215.9,132.5 215.1,132.2 214.3,131.9 213.4,131.7 212.6,131.6 211.7,131.5 210.8,131.5 210.0,131.6 209.1,131.8 208.3,132.0 207.5,132.3 206.7,132.7 206.0,133.1 205.3,133.6 204.7,134.2 204.0,134.8 203.5,135.5 203.0,136.2 202.6,136.9 202.2,137.7 201.9,138.5 201.7,139.4 201.6,140.2 201.5,141.1 201.5,141.9 201.6,142.8 201.7,143.6 201.9,144.5 202.2,145.3 202.6,146.1 203.0,146.8 203.5,147.5 204.0,148.2 204.7,148.8 205.3,149.4 206.0,149.9 206.7,150.3 207.5,150.7 208.3,151.0 209.1,151.2 210.0,151.4 210.8,151.5 211.7,151.5 212.6,151.4 213.4,151.3 214.3,151.1 215.1,150.8 215.9,150.5 216.6,150.1 217.3,149.6 218.0,149.1 218.6,148.5 219.2,147.9 219.7,147.2 220.2,146.4 220.6,145.7 220.9,144.9 221.2,144.1 221.3,143.2 221.5,142.4" fill="#FFFFFF" stroke="#55AAFF" stroke-width="1.0" stroke-linecap="round" stroke-linejoin="round" />
		</g>
		<g id="heatPort" class="port">
			<polygon points="101.5,251.5 121.5,251.5 121.5,231.5 101.5,231.5" fill="#BF0000" stroke="#BF0000" stroke-width="1.0" stroke-linecap="round" stroke-linejoin="round" />
		</g>
		<g id="control" class="port">
			<polygon points="131.5,1.5 111.5,41.5 91.5,1.5" fill="#FF00FF" stroke="#FF00FF" stroke-width="1.0" stroke-linecap="round" stroke-linejoin="round" />
		</g>
	</g>
</svg>
