<svg width="203" height="203" xmlns="http://www.w3.org/2000/svg" xmlns:xlink="http://www.w3.org/1999/xlink">
	<g id="Modelica.Mechanics.Translational.Sensors" class="component">
		<defs>
			<linearGradient id="cyl2" x1="0" y1="0" x2="0" y2="1">
				<stop offset="0%" stop-color="#C8C8C8" />
				<stop offset="5%" stop-color="#D1D1D1" />
				<stop offset="10%" stop-color="#D9D9D9" />
				<stop offset="15%" stop-color="#E0E0E0" />
				<stop offset="20%" stop-color="#E7E7E7" />
				<stop offset="25%" stop-color="#ECECEC" />
				<stop offset="30%" stop-color="#F0F0F0" />
				<stop offset="35%" stop-color="#F4F4F4" />
				<stop offset="40%" stop-color="#F6F6F6" />
				<stop offset="45%" stop-color="#F8F8F8" />
				<stop offset="50%" stop-color="#F8F8F8" />
				<stop offset="55%" stop-color="#F8F8F8" />
				<stop offset="60%" stop-color="#F6F6F6" />
				<stop offset="65%" stop-color="#F4F4F4" />
				<stop offset="70%" stop-color="#F0F0F0" />
				<stop offset="75%" stop-color="#ECECEC" />
				<stop offset="80%" stop-color="#E7E7E7" />
				<stop offset="85%" stop-color="#E0E0E0" />
				<stop offset="90%" stop-color="#D9D9D9" />
				<stop offset="95%" stop-color="#D1D1D1" />
				<stop offset="100%" stop-color="#C8C8C8" />
			</linearGradient>
		</defs>
		<polygon points="8.8,194.2 11.0,196.1 13.3,197.8 15.7,199.1 18.2,200.2 20.8,200.9 23.6,201.4 26.5,201.5 26.5,201.5 50.4,201.5 101.5,201.5 101.5,201.5 152.6,201.5 176.5,201.5 176.5,201.5 179.4,201.4 182.2,200.9 184.8,200.2 187.3,199.1 189.7,197.8 192.0,196.1 194.2,194.2 194.2,194.2 196.1,192.0 197.8,189.7 199.1,187.3 200.2,184.8 200.9,182.2 201.4,179.4 201.5,176.5 201.5,176.5 201.5,152.6 201.5,101.5 201.5,101.5 201.5,50.4 201.5,26.5 201.5,26.5 201.4,23.6 200.9,20.8 200.2,18.2 199.1,15.7 197.8,13.3 196.1,11.0 194.2,8.8 194.2,8.8 192.0,6.9 189.7,5.2 187.3,3.9 184.8,2.8 182.2,2.1 179.4,1.6 176.5,1.5 176.5,1.5 152.6,1.5 101.5,1.5 101.5,1.5 50.4,1.5 26.5,1.5 26.5,1.5 23.6,1.6 20.8,2.1 18.2,2.8 15.7,3.9 13.3,5.2 11.0,6.9 8.8,8.8 8.8,8.8 6.9,11.0 5.2,13.3 3.9,15.7 2.8,18.2 2.1,20.8 1.6,23.6 1.5,26.5 1.5,26.5 1.5,50.4 1.5,101.5 1.5,101.5 1.5,152.6 1.5,176.5 1.5,176.5 1.6,179.4 2.1,182.2 2.8,184.8 3.9,187.3 5.2,189.7 6.9,192.0" fill="url(#cyl2)" stroke="#C8C8C8" stroke-width="1.0" stroke-linecap="butt" stroke-linejoin="round" />
		<polygon points="8.8,194.2 11.0,196.1 13.3,197.8 15.7,199.1 18.2,200.2 20.8,200.9 23.6,201.4 26.5,201.5 26.5,201.5 50.4,201.5 101.5,201.5 101.5,201.5 152.6,201.5 176.5,201.5 176.5,201.5 179.4,201.4 182.2,200.9 184.8,200.2 187.3,199.1 189.7,197.8 192.0,196.1 194.2,194.2 194.2,194.2 196.1,192.0 197.8,189.7 199.1,187.3 200.2,184.8 200.9,182.2 201.4,179.4 201.5,176.5 201.5,176.5 201.5,152.6 201.5,101.5 201.5,101.5 201.5,50.4 201.5,26.5 201.5,26.5 201.4,23.6 200.9,20.8 200.2,18.2 199.1,15.7 197.8,13.3 196.1,11.0 194.2,8.8 194.2,8.8 192.0,6.9 189.7,5.2 187.3,3.9 184.8,2.8 182.2,2.1 179.4,1.6 176.5,1.5 176.5,1.5 152.6,1.5 101.5,1.5 101.5,1.5 50.4,1.5 26.5,1.5 26.5,1.5 23.6,1.6 20.8,2.1 18.2,2.8 15.7,3.9 13.3,5.2 11.0,6.9 8.8,8.8 8.8,8.8 6.9,11.0 5.2,13.3 3.9,15.7 2.8,18.2 2.1,20.8 1.6,23.6 1.5,26.5 1.5,26.5 1.5,50.4 1.5,101.5 1.5,101.5 1.5,152.6 1.5,176.5 1.5,176.5 1.6,179.4 2.1,182.2 2.8,184.8 3.9,187.3 5.2,189.7 6.9,192.0" fill-opacity="0" stroke="#808080" stroke-width="1.0" stroke-linecap="butt" stroke-linejoin="round" />
		<polygon points="186.1,100.7 183.2,93.7 179.7,87.0 175.7,80.5 171.1,74.5 166.1,68.8 160.6,63.6 154.7,58.9 148.4,54.7 141.7,51.0 134.8,47.9 127.7,45.4 120.3,43.5 112.8,42.2 105.3,41.6 97.7,41.6 90.2,42.2 82.7,43.5 75.3,45.4 68.2,47.9 61.3,51.0 54.6,54.7 48.3,58.9 42.4,63.6 36.9,68.8 31.9,74.5 27.3,80.5 23.3,87.0 19.8,93.7 16.9,100.7 101.5,131.5" fill-opacity="0" stroke="#000000" stroke-width="1.0" stroke-linecap="butt" stroke-linejoin="round" />
		<polygon points="121.5,131.5 121.4,129.8 121.2,128.1 120.8,126.4 120.3,124.7 119.7,123.2 118.9,121.6 118.0,120.2 116.9,118.8 115.8,117.5 114.5,116.3 113.2,115.3 111.7,114.3 110.2,113.5 108.7,112.8 107.0,112.3 105.3,111.9 103.6,111.6 101.9,111.5 100.2,111.5 98.5,111.7 96.8,112.1 95.2,112.5 93.5,113.1 92.0,113.9 90.5,114.8 89.1,115.8 87.8,116.9 86.6,118.1 85.5,119.5 84.5,120.9 83.7,122.4 83.0,123.9 82.4,125.6 82.0,127.2 81.7,128.9 81.5,130.6 81.5,132.4 81.7,134.1 82.0,135.8 82.4,137.4 83.0,139.1 83.7,140.6 84.5,142.1 85.5,143.5 86.6,144.9 87.8,146.1 89.1,147.2 90.5,148.2 92.0,149.1 93.5,149.9 95.2,150.5 96.8,150.9 98.5,151.3 100.2,151.5 101.9,151.5 103.6,151.4 105.3,151.1 107.0,150.7 108.7,150.2 110.2,149.5 111.7,148.7 113.2,147.7 114.5,146.7 115.8,145.5 116.9,144.2 118.0,142.8 118.9,141.4 119.7,139.8 120.3,138.3 120.8,136.6 121.2,134.9 121.4,133.2" fill="#808080" stroke-opacity="0" stroke-width="1.0" stroke-linecap="butt" stroke-linejoin="round" />
		<polyline points="101.5,71.5 101.5,41.5" fill-opacity="0" stroke="#000000" stroke-width="1.0" stroke-linecap="butt" stroke-linejoin="round" />
		<polygon points="111.5,131.5 111.5,130.6 111.4,129.8 111.2,128.9 110.9,128.1 110.6,127.3 110.2,126.6 109.7,125.8 109.2,125.1 108.6,124.5 108.0,123.9 107.3,123.4 106.6,122.9 105.9,122.5 105.1,122.2 104.3,121.9 103.4,121.7 102.6,121.6 101.7,121.5 100.9,121.5 100.0,121.6 99.2,121.8 98.3,122.0 97.5,122.3 96.8,122.7 96.0,123.1 95.3,123.6 94.7,124.2 94.1,124.8 93.5,125.5 93.0,126.2 92.6,126.9 92.2,127.7 92.0,128.5 91.7,129.4 91.6,130.2 91.5,131.1 91.5,131.9 91.6,132.8 91.7,133.6 92.0,134.5 92.2,135.3 92.6,136.1 93.0,136.8 93.5,137.5 94.1,138.2 94.7,138.8 95.3,139.4 96.0,139.9 96.8,140.3 97.5,140.7 98.3,141.0 99.2,141.2 100.0,141.4 100.9,141.5 101.7,141.5 102.6,141.4 103.4,141.3 104.3,141.1 105.1,140.8 105.9,140.5 106.6,140.1 107.3,139.6 108.0,139.1 108.6,138.5 109.2,137.9 109.7,137.2 110.2,136.4 110.6,135.7 110.9,134.9 111.2,134.1 111.4,133.2 111.5,132.4" fill="#404040" stroke-opacity="0" stroke-width="1.0" stroke-linecap="butt" stroke-linejoin="round" />
		<polygon points="95.8,127.5 147.8,60.2 153.1,57.8 152.7,63.6 107.2,135.5" fill="#404040" stroke-opacity="0" stroke-width="1.0" stroke-linecap="butt" stroke-linejoin="round" />
		<polyline points="45.5,162.5 45.5,182.5" fill-opacity="0" stroke="#000000" stroke-width="1.0" stroke-linecap="butt" stroke-linejoin="round" />
		<polyline points="65.5,162.5 65.5,182.5" fill-opacity="0" stroke="#000000" stroke-width="1.0" stroke-linecap="butt" stroke-linejoin="round" />
		<polyline points="85.5,162.5 85.5,182.5" fill-opacity="0" stroke="#000000" stroke-width="1.0" stroke-linecap="butt" stroke-linejoin="round" />
		<polyline points="105.5,162.5 105.5,182.5" fill-opacity="0" stroke="#000000" stroke-width="1.0" stroke-linecap="butt" stroke-linejoin="round" />
		<polyline points="125.5,162.5 125.5,182.5" fill-opacity="0" stroke="#000000" stroke-width="1.0" stroke-linecap="butt" stroke-linejoin="round" />
		<polyline points="145.5,162.5 145.5,182.5" fill-opacity="0" stroke="#000000" stroke-width="1.0" stroke-linecap="butt" stroke-linejoin="round" />
	</g>
</svg>
