<svg width="223" height="223" xmlns="http://www.w3.org/2000/svg" xmlns:xlink="http://www.w3.org/1999/xlink">
	<g id="Modelica.Fluid.Sensors.TemperatureTwoPort" class="component">
		<polyline points="111.5,21.5 111.5,71.5" fill-opacity="0" stroke="#00007F" stroke-width="1.0" stroke-linecap="round" stroke-linejoin="round" />
		<polyline points="19.5,121.5 211.5,121.5" fill-opacity="0" stroke="#0080FF" stroke-width="1.0" stroke-linecap="round" stroke-linejoin="round" />
		<polygon points="131.5,170.5 131.4,168.9 131.2,167.2 130.8,165.6 130.3,164.1 129.7,162.6 128.9,161.1 128.0,159.7 126.9,158.4 125.8,157.2 124.5,156.1 123.2,155.1 121.7,154.2 120.2,153.4 118.6,152.8 117.0,152.2 115.3,151.9 113.6,151.6 111.9,151.5 110.2,151.5 108.5,151.7 106.8,152.0 105.1,152.5 103.5,153.1 102.0,153.8 100.5,154.6 99.1,155.6 97.8,156.6 96.6,157.8 95.5,159.1 94.5,160.4 93.7,161.8 93.0,163.3 92.4,164.9 92.0,166.4 91.7,168.1 91.5,169.7 91.5,171.3 91.7,172.9 92.0,174.6 92.4,176.1 93.0,177.7 93.7,179.2 94.5,180.6 95.5,181.9 96.6,183.2 97.8,184.4 99.1,185.4 100.5,186.4 102.0,187.2 103.5,187.9 105.1,188.5 106.8,189.0 108.5,189.3 110.2,189.5 111.9,189.5 113.6,189.4 115.3,189.1 117.0,188.8 118.6,188.2 120.2,187.6 121.7,186.8 123.2,185.9 124.5,184.9 125.8,183.8 126.9,182.6 128.0,181.3 128.9,179.9 129.7,178.4 130.3,176.9 130.8,175.4 131.2,173.8 131.4,172.1" fill="#BF0000" stroke="#000000" stroke-width="1.0" stroke-linecap="round" stroke-linejoin="round" />
		<polygon points="99.5,155.5 123.5,155.5 123.5,71.5 99.5,71.5" fill="#BF0000" stroke="#BF0000" stroke-width="1.0" stroke-linecap="round" stroke-linejoin="round" />
		<polygon points="99.5,71.5 99.5,51.5 101.5,45.5 105.5,43.5 111.5,41.5 117.5,43.5 121.5,45.5 123.5,51.5 123.5,71.5" fill-opacity="0" stroke="#000000" stroke-width="1.0" stroke-linecap="round" stroke-linejoin="round" />
		<polyline points="99.5,71.5 99.5,156.5" fill-opacity="0" stroke="#000000" stroke-width="1.0" stroke-linecap="round" stroke-linejoin="round" />
		<polyline points="123.5,71.5 123.5,155.5" fill-opacity="0" stroke="#000000" stroke-width="1.0" stroke-linecap="round" stroke-linejoin="round" />
		<polyline points="71.5,131.5 99.5,131.5" fill-opacity="0" stroke="#000000" stroke-width="1.0" stroke-linecap="round" stroke-linejoin="round" />
		<polyline points="71.5,101.5 99.5,101.5" fill-opacity="0" stroke="#000000" stroke-width="1.0" stroke-linecap="round" stroke-linejoin="round" />
		<polyline points="71.5,71.5 99.5,71.5" fill-opacity="0" stroke="#000000" stroke-width="1.0" stroke-linecap="round" stroke-linejoin="round" />
		<g id="port_a" class="port">
			<polygon points="21.5,121.5 21.5,120.6 21.3,119.8 21.2,118.9 20.9,118.1 20.6,117.3 20.2,116.6 19.7,115.8 19.2,115.1 18.6,114.5 18.0,113.9 17.3,113.4 16.6,112.9 15.9,112.5 15.1,112.2 14.3,111.9 13.4,111.7 12.6,111.6 11.7,111.5 10.8,111.5 10.0,111.6 9.1,111.8 8.3,112.0 7.5,112.3 6.7,112.7 6.0,113.1 5.3,113.6 4.7,114.2 4.0,114.8 3.5,115.5 3.0,116.2 2.6,116.9 2.2,117.7 1.9,118.5 1.7,119.4 1.6,120.2 1.5,121.1 1.5,121.9 1.6,122.8 1.7,123.6 1.9,124.5 2.2,125.3 2.6,126.1 3.0,126.8 3.5,127.5 4.0,128.2 4.7,128.8 5.3,129.4 6.0,129.9 6.7,130.3 7.5,130.7 8.3,131.0 9.1,131.2 10.0,131.4 10.8,131.5 11.7,131.5 12.6,131.4 13.4,131.3 14.3,131.1 15.1,130.8 15.9,130.5 16.6,130.1 17.3,129.6 18.0,129.1 18.6,128.5 19.2,127.9 19.7,127.2 20.2,126.4 20.6,125.7 20.9,124.9 21.2,124.1 21.3,123.2 21.5,122.4" fill="#007FFF" stroke="#007FFF" stroke-width="1.0" stroke-linecap="round" stroke-linejoin="round" />
			<polygon points="21.5,121.5 21.5,120.6 21.3,119.8 21.2,118.9 20.9,118.1 20.6,117.3 20.2,116.6 19.7,115.8 19.2,115.1 18.6,114.5 18.0,113.9 17.3,113.4 16.6,112.9 15.9,112.5 15.1,112.2 14.3,111.9 13.4,111.7 12.6,111.6 11.7,111.5 10.8,111.5 10.0,111.6 9.1,111.8 8.3,112.0 7.5,112.3 6.7,112.7 6.0,113.1 5.3,113.6 4.7,114.2 4.0,114.8 3.5,115.5 3.0,116.2 2.6,116.9 2.2,117.7 1.9,118.5 1.7,119.4 1.6,120.2 1.5,121.1 1.5,121.9 1.6,122.8 1.7,123.6 1.9,124.5 2.2,125.3 2.6,126.1 3.0,126.8 3.5,127.5 4.0,128.2 4.7,128.8 5.3,129.4 6.0,129.9 6.7,130.3 7.5,130.7 8.3,131.0 9.1,131.2 10.0,131.4 10.8,131.5 11.7,131.5 12.6,131.4 13.4,131.3 14.3,131.1 15.1,130.8 15.9,130.5 16.6,130.1 17.3,129.6 18.0,129.1 18.6,128.5 19.2,127.9 19.7,127.2 20.2,126.4 20.6,125.7 20.9,124.9 21.2,124.1 21.3,123.2 21.5,122.4" fill="#007FFF" stroke="#000000" stroke-width="1.0" stroke-linecap="round" stroke-linejoin="round" />
		</g>
		<g id="port_b" class="port">
			<polygon points="201.5,121.5 201.5,120.6 201.6,119.8 201.8,118.9 202.1,118.1 202.4,117.3 202.8,116.6 203.3,115.8 203.8,115.1 204.3,114.5 205.0,113.9 205.6,113.4 206.4,112.9 207.1,112.5 207.9,112.2 208.7,111.9 209.6,111.7 210.4,111.6 211.3,111.5 212.1,111.5 213.0,111.6 213.8,111.8 214.7,112.0 215.5,112.3 216.2,112.7 217.0,113.1 217.7,113.6 218.3,114.2 218.9,114.8 219.5,115.5 220.0,116.2 220.4,116.9 220.7,117.7 221.0,118.5 221.3,119.4 221.4,120.2 221.5,121.1 221.5,121.9 221.4,122.8 221.3,123.6 221.0,124.5 220.7,125.3 220.4,126.1 220.0,126.8 219.5,127.5 218.9,128.2 218.3,128.8 217.7,129.4 217.0,129.9 216.2,130.3 215.5,130.7 214.7,131.0 213.8,131.2 213.0,131.4 212.1,131.5 211.3,131.5 210.4,131.4 209.6,131.3 208.7,131.1 207.9,130.8 207.1,130.5 206.4,130.1 205.6,129.6 205.0,129.1 204.3,128.5 203.8,127.9 203.3,127.2 202.8,126.4 202.4,125.7 202.1,124.9 201.8,124.1 201.6,123.2 201.5,122.4" fill="#007FFF" stroke="#007FFF" stroke-width="1.0" stroke-linecap="round" stroke-linejoin="round" />
			<polygon points="201.5,121.5 201.5,120.6 201.6,119.8 201.8,118.9 202.1,118.1 202.4,117.3 202.8,116.6 203.3,115.8 203.8,115.1 204.3,114.5 205.0,113.9 205.6,113.4 206.4,112.9 207.1,112.5 207.9,112.2 208.7,111.9 209.6,111.7 210.4,111.6 211.3,111.5 212.1,111.5 213.0,111.6 213.8,111.8 214.7,112.0 215.5,112.3 216.2,112.7 217.0,113.1 217.7,113.6 218.3,114.2 218.9,114.8 219.5,115.5 220.0,116.2 220.4,116.9 220.7,117.7 221.0,118.5 221.3,119.4 221.4,120.2 221.5,121.1 221.5,121.9 221.4,122.8 221.3,123.6 221.0,124.5 220.7,125.3 220.4,126.1 220.0,126.8 219.5,127.5 218.9,128.2 218.3,128.8 217.7,129.4 217.0,129.9 216.2,130.3 215.5,130.7 214.7,131.0 213.8,131.2 213.0,131.4 212.1,131.5 211.3,131.5 210.4,131.4 209.6,131.3 208.7,131.1 207.9,130.8 207.1,130.5 206.4,130.1 205.6,129.6 205.0,129.1 204.3,128.5 203.8,127.9 203.3,127.2 202.8,126.4 202.4,125.7 202.1,124.9 201.8,124.1 201.6,123.2 201.5,122.4" fill="#007FFF" stroke="#000000" stroke-width="1.0" stroke-linecap="round" stroke-linejoin="round" />
			<polygon points="203.5,121.5 203.5,120.8 203.6,120.1 203.8,119.5 204.0,118.8 204.2,118.2 204.5,117.5 204.9,117.0 205.3,116.4 205.8,115.9 206.3,115.4 206.8,115.0 207.4,114.6 208.0,114.3 208.6,114.0 209.3,113.8 210.0,113.6 210.6,113.5 211.3,113.5 212.0,113.5 212.7,113.6 213.4,113.7 214.0,113.9 214.7,114.2 215.3,114.5 215.9,114.8 216.4,115.2 217.0,115.7 217.4,116.2 217.9,116.7 218.3,117.3 218.6,117.9 218.9,118.5 219.1,119.1 219.3,119.8 219.4,120.5 219.5,121.2 219.5,121.8 219.4,122.5 219.3,123.2 219.1,123.9 218.9,124.5 218.6,125.1 218.3,125.7 217.9,126.3 217.4,126.8 217.0,127.3 216.4,127.8 215.9,128.2 215.3,128.5 214.7,128.8 214.0,129.1 213.4,129.3 212.7,129.4 212.0,129.5 211.3,129.5 210.6,129.5 210.0,129.4 209.3,129.2 208.6,129.0 208.0,128.7 207.4,128.4 206.8,128.0 206.3,127.6 205.8,127.1 205.3,126.6 204.9,126.0 204.5,125.5 204.2,124.8 204.0,124.2 203.8,123.5 203.6,122.9 203.5,122.2" fill="#FFFFFF" stroke="#007FFF" stroke-width="1.0" stroke-linecap="round" stroke-linejoin="round" />
		</g>
		<g id="T" class="port">
			<polygon points="121.5,21.5 111.5,1.5 101.5,21.5" fill="#FFFFFF" stroke="#00007F" stroke-width="1.0" stroke-linecap="round" stroke-linejoin="round" />
		</g>
	</g>
</svg>
