<svg width="263" height="203" xmlns="http://www.w3.org/2000/svg" xmlns:xlink="http://www.w3.org/1999/xlink">
	<g id="Modelica.Blocks.Nonlinear.PadeDelay" class="component">
		<polygon points="41.5,201.5 241.5,201.5 241.5,1.5 41.5,1.5" fill="#FFFFFF" stroke="#00007F" stroke-width="1.0" stroke-linecap="round" stroke-linejoin="round" />
		<polyline points="47.5,101.5 53.2,84.4 56.7,73.8 59.8,65.0 62.4,57.8 62.4,57.8 64.2,53.3 65.9,49.1 67.6,45.2 69.2,41.8 69.2,41.8 70.5,39.2 71.7,36.8 72.9,34.7 74.1,32.7 75.2,31.0 75.2,31.0 76.7,29.1 78.1,27.4 79.5,25.9 80.9,24.6 80.9,24.6 82.8,23.4 84.6,22.5 86.5,22.0 86.5,22.0 88.4,22.0 90.2,22.5 92.1,23.3 92.1,23.3 93.5,24.2 94.9,25.4 96.3,26.7 97.8,28.4 97.8,28.4 98.9,29.8 100.0,31.4 101.2,33.1 102.3,35.0 103.4,37.0 103.4,37.0 104.8,39.7 106.3,42.7 107.8,46.1 109.4,49.8 109.4,49.8 111.6,55.3 114.0,61.6 116.6,68.8 116.6,68.8 119.8,78.1 124.0,90.6 129.1,106.3 129.1,106.3 134.2,121.8 138.3,133.7 141.2,142.0 141.2,142.0 143.0,146.7 144.7,151.0 146.4,155.0 148.0,158.7 148.0,158.7 149.3,161.4 150.5,163.9 151.7,166.2 152.9,168.3 154.0,170.2 154.0,170.2 155.4,172.3 156.8,174.2 158.2,175.8 159.6,177.2 159.6,177.2 161.5,178.8 163.4,180.0 165.3,180.7 165.3,180.7 167.2,181.0 169.0,180.9 170.9,180.3 170.9,180.3 172.8,179.3 174.7,177.9 176.6,176.0 176.6,176.0 178.0,174.4 179.4,172.6 180.8,170.5 182.2,168.2 182.2,168.2 183.3,166.2 184.5,164.0 185.7,161.5 186.9,158.9 188.2,156.0 188.2,156.0 190.4,150.7 192.8,144.5 195.4,137.5 195.4,137.5 198.1,129.9 200.8,122.0 203.5,113.9 207.5,101.5" fill-opacity="0" stroke="#00007F" stroke-width="1.0" stroke-linecap="round" stroke-linejoin="round" />
		<polyline points="69.5,101.5 75.2,84.4 78.7,73.8 81.8,65.0 84.4,57.8 84.4,57.8 86.2,53.3 87.9,49.1 89.6,45.2 91.2,41.8 91.2,41.8 92.5,39.2 93.7,36.8 94.9,34.7 96.1,32.7 97.2,31.0 97.2,31.0 98.7,29.1 100.1,27.4 101.5,25.9 102.9,24.6 102.9,24.6 104.8,23.4 106.6,22.5 108.5,22.0 108.5,22.0 110.4,22.0 112.2,22.5 114.1,23.3 114.1,23.3 115.5,24.2 116.9,25.4 118.3,26.7 119.8,28.4 119.8,28.4 120.9,29.8 122.0,31.4 123.2,33.1 124.3,35.0 125.4,37.0 125.4,37.0 126.8,39.7 128.3,42.7 129.8,46.1 131.4,49.8 131.4,49.8 133.6,55.3 136.0,61.6 138.6,68.8 138.6,68.8 141.8,78.1 146.0,90.6 151.1,106.3 151.1,106.3 156.2,121.8 160.3,133.7 163.2,142.0 163.2,142.0 165.0,146.7 166.7,151.0 168.4,155.0 170.0,158.7 170.0,158.7 171.3,161.4 172.5,163.9 173.7,166.2 174.9,168.3 176.0,170.2 176.0,170.2 177.4,172.3 178.8,174.2 180.2,175.8 181.6,177.2 181.6,177.2 183.5,178.8 185.4,180.0 187.3,180.7 187.3,180.7 189.2,181.0 191.0,180.9 192.9,180.3 192.9,180.3 194.8,179.3 196.7,177.9 198.6,176.0 198.6,176.0 200.0,174.4 201.4,172.6 202.8,170.5 204.2,168.2 204.2,168.2 205.3,166.2 206.5,164.0 207.7,161.5 208.9,158.9 210.2,156.0 210.2,156.0 212.4,150.7 214.8,144.5 217.4,137.5 217.4,137.5 220.1,129.9 222.8,122.0 225.5,113.9 229.5,101.5" fill-opacity="0" stroke="#A0A0A4" stroke-width="1.0" stroke-linecap="round" stroke-linejoin="round" />
		<text x="186.5" y="52.4" text-anchor="middle" fill="#A0A0A4" font-size="55.1px" font-family="sans-serif">m=n</text>
		<text x="95.5" y="190.8" text-anchor="middle" fill="#A0A0A4" font-size="67.6px" font-family="sans-serif">n=1</text>
		<g id="u" class="port">
			<polygon points="1.5,81.5 41.5,101.5 1.5,121.5" fill="#00007F" stroke="#00007F" stroke-width="1.0" stroke-linecap="round" stroke-linejoin="round" />
		</g>
		<g id="y" class="port">
			<polygon points="241.5,91.5 261.5,101.5 241.5,111.5" fill="#FFFFFF" stroke="#00007F" stroke-width="1.0" stroke-linecap="round" stroke-linejoin="round" />
		</g>
	</g>
</svg>
