<svg width="223" height="203" xmlns="http://www.w3.org/2000/svg" xmlns:xlink="http://www.w3.org/1999/xlink">
	<g id="Modelica.Electrical.Spice3.Sources.I_exp" class="component">
		<polygon points="201.5,101.5 171.5,91.5 171.5,111.5" fill="#0000FF" stroke="#0000FF" stroke-width="1.0" stroke-linecap="butt" stroke-linejoin="round" />
		<polygon points="161.5,101.5 161.3,97.2 160.8,92.9 159.8,88.7 158.6,84.6 156.9,80.6 155.0,76.8 152.7,73.2 150.1,69.7 147.2,66.5 144.1,63.6 140.7,60.9 137.1,58.6 133.3,56.5 129.4,54.8 125.3,53.4 121.1,52.4 116.9,51.8 112.6,51.5 108.3,51.6 104.0,52.1 99.8,52.9 95.6,54.1 91.6,55.6 87.8,57.5 84.1,59.7 80.6,62.2 77.3,65.0 74.3,68.1 71.6,71.4 69.1,75.0 67.0,78.7 65.2,82.6 63.8,86.7 62.7,90.8 61.9,95.1 61.5,99.3 61.5,103.7 61.9,107.9 62.7,112.2 63.8,116.3 65.2,120.4 67.0,124.3 69.1,128.0 71.6,131.6 74.3,134.9 77.3,138.0 80.6,140.8 84.1,143.3 87.8,145.5 91.6,147.4 95.6,148.9 99.8,150.1 104.0,150.9 108.3,151.4 112.6,151.5 116.9,151.2 121.1,150.6 125.3,149.6 129.4,148.2 133.3,146.5 137.1,144.4 140.7,142.1 144.1,139.4 147.2,136.5 150.1,133.3 152.7,129.8 155.0,126.2 156.9,122.4 158.6,118.4 159.8,114.3 160.8,110.1 161.3,105.8" fill="#FFFFFF" stroke="#0000FF" stroke-width="1.0" stroke-linecap="butt" stroke-linejoin="round" />
		<polyline points="22.5,101.5 61.5,101.5" fill-opacity="0" stroke="#0000FF" stroke-width="1.0" stroke-linecap="butt" stroke-linejoin="round" />
		<polyline points="161.5,101.5 202.5,101.5" fill-opacity="0" stroke="#0000FF" stroke-width="1.0" stroke-linecap="butt" stroke-linejoin="round" />
		<polyline points="111.5,151.5 111.5,51.5" fill-opacity="0" stroke="#0000FF" stroke-width="1.0" stroke-linecap="butt" stroke-linejoin="round" />
		<polyline points="32.5,154.5 35.3,139.8 38.2,126.6 41.7,112.1 45.2,99.5 48.8,88.6 53.0,77.3 57.2,67.8 62.2,58.5 67.9,50.0 74.2,42.4 81.3,35.9 89.8,30.2 100.4,25.3 102.5,24.5 104.6,37.0 107.4,51.8 110.3,64.7 113.1,76.0 116.6,88.2 120.2,98.5 124.4,108.7 128.7,117.1 133.6,125.0 139.3,131.9 145.6,137.8 153.4,143.0 163.3,147.3 172.5,149.9" fill-opacity="0" stroke="#C0C0C0" stroke-width="1.0" stroke-linecap="butt" stroke-linejoin="round" />
		<g id="p" class="port">
			<polygon points="1.5,111.5 21.5,111.5 21.5,91.5 1.5,91.5" fill="#0000FF" stroke="#0000FF" stroke-width="1.0" stroke-linecap="butt" stroke-linejoin="round" />
		</g>
		<g id="n" class="port">
			<polygon points="221.5,111.5 201.5,111.5 201.5,91.5 221.5,91.5" fill="#FFFFFF" stroke="#0000FF" stroke-width="1.0" stroke-linecap="butt" stroke-linejoin="round" />
		</g>
	</g>
</svg>
