<svg width="203" height="203" xmlns="http://www.w3.org/2000/svg" xmlns:xlink="http://www.w3.org/1999/xlink">
	<g id="Modelica.Blocks.Icons" class="component">
		<defs>
			<linearGradient id="cyl2" x1="0" y1="0" x2="0" y2="1">
				<stop offset="0%" stop-color="#C8C8C8" />
				<stop offset="5%" stop-color="#D1D1D1" />
				<stop offset="10%" stop-color="#D9D9D9" />
				<stop offset="15%" stop-color="#E0E0E0" />
				<stop offset="20%" stop-color="#E7E7E7" />
				<stop offset="25%" stop-color="#ECECEC" />
				<stop offset="30%" stop-color="#F0F0F0" />
				<stop offset="35%" stop-color="#F4F4F4" />
				<stop offset="40%" stop-color="#F6F6F6" />
				<stop offset="45%" stop-color="#F8F8F8" />
				<stop offset="50%" stop-color="#F8F8F8" />
				<stop offset="55%" stop-color="#F8F8F8" />
				<stop offset="60%" stop-color="#F6F6F6" />
				<stop offset="65%" stop-color="#F4F4F4" />
				<stop offset="70%" stop-color="#F0F0F0" />
				<stop offset="75%" stop-color="#ECECEC" />
				<stop offset="80%" stop-color="#E7E7E7" />
				<stop offset="85%" stop-color="#E0E0E0" />
				<stop offset="90%" stop-color="#D9D9D9" />
				<stop offset="95%" stop-color="#D1D1D1" />
				<stop offset="100%" stop-color="#C8C8C8" />
			</linearGradient>
		</defs>
		<polygon points="8.8,194.2 11.0,196.1 13.3,197.8 15.7,199.1 18.2,200.2 20.8,200.9 23.6,201.4 26.5,201.5 26.5,201.5 50.4,201.5 101.5,201.5 101.5,201.5 152.6,201.5 176.5,201.5 176.5,201.5 179.4,201.4 182.2,200.9 184.8,200.2 187.3,199.1 189.7,197.8 192.0,196.1 194.2,194.2 194.2,194.2 196.1,192.0 197.8,189.7 199.1,187.3 200.2,184.8 200.9,182.2 201.4,179.4 201.5,176.5 201.5,176.5 201.5,152.6 201.5,101.5 201.5,101.5 201.5,50.4 201.5,26.5 201.5,26.5 201.4,23.6 200.9,20.8 200.2,18.2 199.1,15.7 197.8,13.3 196.1,11.0 194.2,8.8 194.2,8.8 192.0,6.9 189.7,5.2 187.3,3.9 184.8,2.8 182.2,2.1 179.4,1.6 176.5,1.5 176.5,1.5 152.6,1.5 101.5,1.5 101.5,1.5 50.4,1.5 26.5,1.5 26.5,1.5 23.6,1.6 20.8,2.1 18.2,2.8 15.7,3.9 13.3,5.2 11.0,6.9 8.8,8.8 8.8,8.8 6.9,11.0 5.2,13.3 3.9,15.7 2.8,18.2 2.1,20.8 1.6,23.6 1.5,26.5 1.5,26.5 1.5,50.4 1.5,101.5 1.5,101.5 1.5,152.6 1.5,176.5 1.5,176.5 1.6,179.4 2.1,182.2 2.8,184.8 3.9,187.3 5.2,189.7 6.9,192.0" fill="url(#cyl2)" stroke="#C8C8C8" stroke-width="1.0" stroke-linecap="butt" stroke-linejoin="round" />
		<polygon points="8.8,194.2 11.0,196.1 13.3,197.8 15.7,199.1 18.2,200.2 20.8,200.9 23.6,201.4 26.5,201.5 26.5,201.5 50.4,201.5 101.5,201.5 101.5,201.5 152.6,201.5 176.5,201.5 176.5,201.5 179.4,201.4 182.2,200.9 184.8,200.2 187.3,199.1 189.7,197.8 192.0,196.1 194.2,194.2 194.2,194.2 196.1,192.0 197.8,189.7 199.1,187.3 200.2,184.8 200.9,182.2 201.4,179.4 201.5,176.5 201.5,176.5 201.5,152.6 201.5,101.5 201.5,101.5 201.5,50.4 201.5,26.5 201.5,26.5 201.4,23.6 200.9,20.8 200.2,18.2 199.1,15.7 197.8,13.3 196.1,11.0 194.2,8.8 194.2,8.8 192.0,6.9 189.7,5.2 187.3,3.9 184.8,2.8 182.2,2.1 179.4,1.6 176.5,1.5 176.5,1.5 152.6,1.5 101.5,1.5 101.5,1.5 50.4,1.5 26.5,1.5 26.5,1.5 23.6,1.6 20.8,2.1 18.2,2.8 15.7,3.9 13.3,5.2 11.0,6.9 8.8,8.8 8.8,8.8 6.9,11.0 5.2,13.3 3.9,15.7 2.8,18.2 2.1,20.8 1.6,23.6 1.5,26.5 1.5,26.5 1.5,50.4 1.5,101.5 1.5,101.5 1.5,152.6 1.5,176.5 1.5,176.5 1.6,179.4 2.1,182.2 2.8,184.8 3.9,187.3 5.2,189.7 6.9,192.0" fill-opacity="0" stroke="#808080" stroke-width="1.0" stroke-linecap="butt" stroke-linejoin="round" />
		<polygon points="82.5,98.5 80.3,98.2 78.8,97.2 77.8,95.7 77.5,93.5 77.5,93.5 77.8,92.1 78.7,90.6 80.3,89.2 82.4,87.8 85.2,86.4 88.5,84.9 92.5,83.5 92.5,83.5 96.6,82.4 100.3,81.9 103.5,82.0 106.4,82.7 108.8,84.0 110.9,85.9 112.5,88.5 112.5,88.5 113.3,90.4 113.8,92.6 114.1,95.1 114.2,97.8 113.9,100.7 113.5,103.9 112.8,107.3 111.8,111.0 110.6,114.9 109.2,119.1 107.5,123.5 107.5,123.5 105.5,128.7 103.8,133.4 102.5,137.4 101.6,140.8 101.0,143.6 100.8,145.7 101.0,147.3 101.6,148.2 102.5,148.5 102.5,148.5 107.5,148.5 112.5,148.5 112.5,148.5 114.7,148.8 116.2,149.8 117.2,151.3 117.5,153.5 117.5,153.5 117.2,154.9 116.3,156.4 114.7,157.8 112.6,159.2 109.8,160.6 106.5,162.1 102.5,163.5 102.5,163.5 98.4,164.6 94.7,165.1 91.5,165.0 88.6,164.3 86.2,163.0 84.1,161.1 82.5,158.5 82.5,158.5 81.7,156.6 81.2,154.4 80.9,151.9 80.8,149.2 81.1,146.3 81.5,143.1 82.2,139.7 83.2,136.0 84.4,132.1 85.8,127.9 87.5,123.5 87.5,123.5 89.5,118.3 91.2,113.6 92.5,109.6 93.4,106.2 94.0,103.4 94.2,101.3 94.0,99.7 93.4,98.8 92.5,98.5 92.5,98.5 87.5,98.5" fill="#808080" stroke-opacity="0" stroke-width="1.0" stroke-linecap="butt" stroke-linejoin="round" />
		<polygon points="113.5,45.0 113.5,43.9 113.3,42.9 113.1,41.8 112.8,40.8 112.4,39.8 111.9,38.8 111.3,37.9 110.7,37.1 109.9,36.3 109.1,35.5 108.3,34.9 107.4,34.3 106.5,33.8 105.5,33.3 104.5,33.0 103.4,32.7 102.3,32.6 101.3,32.5 100.2,32.5 99.1,32.6 98.1,32.8 97.0,33.1 96.0,33.5 95.1,34.0 94.1,34.6 93.3,35.2 92.5,35.9 91.7,36.6 91.0,37.5 90.4,38.4 89.9,39.3 89.4,40.3 89.1,41.3 88.8,42.3 88.6,43.4 88.5,44.5 88.5,45.5 88.6,46.6 88.8,47.7 89.1,48.7 89.4,49.7 89.9,50.7 90.4,51.6 91.0,52.5 91.7,53.4 92.5,54.1 93.3,54.8 94.1,55.4 95.1,56.0 96.0,56.5 97.0,56.9 98.1,57.2 99.1,57.4 100.2,57.5 101.3,57.5 102.3,57.4 103.4,57.3 104.5,57.0 105.5,56.7 106.5,56.2 107.4,55.7 108.3,55.1 109.1,54.5 109.9,53.7 110.7,52.9 111.3,52.1 111.9,51.2 112.4,50.2 112.8,49.2 113.1,48.2 113.3,47.1 113.5,46.1" fill="#808080" stroke-opacity="0" stroke-width="1.0" stroke-linecap="butt" stroke-linejoin="round" />
	</g>
</svg>
