<svg width="203" height="203" xmlns="http://www.w3.org/2000/svg" xmlns:xlink="http://www.w3.org/1999/xlink">
	<g id="Modelica.Math.cos" class="component">
		<polygon points="1.5,201.5 201.5,201.5 201.5,1.5 1.5,1.5" fill="#FFFFFF" stroke="#000000" stroke-width="1.0" stroke-linecap="round" stroke-linejoin="round" />
		<polyline points="21.5,181.5 21.5,33.5" fill-opacity="0" stroke="#C0C0C0" stroke-width="1.0" stroke-linecap="round" stroke-linejoin="round" />
		<polygon points="21.5,11.5 13.5,33.5 29.5,33.5" fill="#C0C0C0" stroke="#C0C0C0" stroke-width="1.0" stroke-linecap="round" stroke-linejoin="round" />
		<polyline points="11.5,101.5 169.5,101.5" fill-opacity="0" stroke="#C0C0C0" stroke-width="1.0" stroke-linecap="round" stroke-linejoin="round" />
		<polygon points="191.5,101.5 169.5,93.5 169.5,109.5" fill="#C0C0C0" stroke="#C0C0C0" stroke-width="1.0" stroke-linecap="round" stroke-linejoin="round" />
		<polyline points="21.5,21.5 27.1,23.4 32.8,29.2 38.4,38.5 44.8,52.8 52.9,74.9 72.2,134.0 79.4,153.2 85.8,166.8 91.4,175.3 97.1,180.3 102.7,181.4 108.3,178.6 114.0,172.1 119.6,162.1 126.0,147.2 134.1,124.5 151.8,70.2 159.0,50.8 165.4,36.9 171.0,28.1 176.7,22.9 181.5,21.5" fill-opacity="0" stroke="#000000" stroke-width="1.0" stroke-linecap="round" stroke-linejoin="round" />
		<text x="101.5" y="61.8" text-anchor="middle" fill="#C0C0C0" font-size="50.5px" font-family="sans-serif">cos</text>
	</g>
</svg>
