<svg width="233" height="203" xmlns="http://www.w3.org/2000/svg" xmlns:xlink="http://www.w3.org/1999/xlink">
	<g id="Modelica.Blocks.Interaction.Show.BooleanValue" class="component">
		<defs>
			<radialGradient id="sph2">
				<stop offset="0%" stop-color="#C0C0C0" />
				<stop offset="10%" stop-color="#BFBFBF" />
				<stop offset="20%" stop-color="#BBBBBB" />
				<stop offset="30%" stop-color="#B4B4B4" />
				<stop offset="40%" stop-color="#ACACAC" />
				<stop offset="50%" stop-color="#A0A0A0" />
				<stop offset="60%" stop-color="#929292" />
				<stop offset="70%" stop-color="#818181" />
				<stop offset="80%" stop-color="#6E6E6E" />
				<stop offset="90%" stop-color="#585858" />
				<stop offset="100%" stop-color="#404040" />
			</radialGradient>
		</defs>
		<polygon points="111.5,101.5 111.4,98.1 110.9,94.6 110.2,91.3 109.2,88.0 107.9,84.8 106.3,81.7 104.5,78.8 102.4,76.1 100.1,73.5 97.6,71.2 94.9,69.0 92.0,67.1 89.0,65.5 85.8,64.1 82.5,63.1 79.2,62.2 75.8,61.7 72.4,61.5 68.9,61.6 65.5,62.0 62.1,62.6 58.8,63.6 55.6,64.8 52.5,66.3 49.5,68.1 46.8,70.1 44.1,72.3 41.7,74.8 39.5,77.4 37.6,80.3 35.9,83.3 34.5,86.4 33.3,89.6 32.4,93.0 31.8,96.4 31.5,99.8 31.5,103.2 31.8,106.6 32.4,110.0 33.3,113.4 34.5,116.6 35.9,119.7 37.6,122.7 39.5,125.6 41.7,128.2 44.1,130.7 46.8,132.9 49.5,134.9 52.5,136.7 55.6,138.2 58.8,139.4 62.1,140.4 65.5,141.0 68.9,141.4 72.4,141.5 75.8,141.3 79.2,140.8 82.5,139.9 85.8,138.9 89.0,137.5 92.0,135.9 94.9,134.0 97.6,131.8 100.1,129.5 102.4,126.9 104.5,124.2 106.3,121.3 107.9,118.2 109.2,115.0 110.2,111.7 110.9,108.4 111.4,104.9" fill="url(#sph2)" stroke-opacity="0" stroke-width="1.0" stroke-linecap="butt" stroke-linejoin="round" />
		<g id="activePort" class="port">
			<polygon points="1.5,86.5 31.5,101.5 1.5,116.5" fill="#FF00FF" stroke="#FF00FF" stroke-width="1.0" stroke-linecap="butt" stroke-linejoin="round" />
		</g>
	</g>
</svg>
