<svg width="203" height="203" xmlns="http://www.w3.org/2000/svg" xmlns:xlink="http://www.w3.org/1999/xlink">
	<g id="Modelica.Math.Distributions.Normal" class="component">
		<defs>
			<linearGradient id="cyl2" x1="0" y1="0" x2="0" y2="1">
				<stop offset="0%" stop-color="#C8C8C8" />
				<stop offset="5%" stop-color="#D1D1D1" />
				<stop offset="10%" stop-color="#D9D9D9" />
				<stop offset="15%" stop-color="#E0E0E0" />
				<stop offset="20%" stop-color="#E7E7E7" />
				<stop offset="25%" stop-color="#ECECEC" />
				<stop offset="30%" stop-color="#F0F0F0" />
				<stop offset="35%" stop-color="#F4F4F4" />
				<stop offset="40%" stop-color="#F6F6F6" />
				<stop offset="45%" stop-color="#F8F8F8" />
				<stop offset="50%" stop-color="#F8F8F8" />
				<stop offset="55%" stop-color="#F8F8F8" />
				<stop offset="60%" stop-color="#F6F6F6" />
				<stop offset="65%" stop-color="#F4F4F4" />
				<stop offset="70%" stop-color="#F0F0F0" />
				<stop offset="75%" stop-color="#ECECEC" />
				<stop offset="80%" stop-color="#E7E7E7" />
				<stop offset="85%" stop-color="#E0E0E0" />
				<stop offset="90%" stop-color="#D9D9D9" />
				<stop offset="95%" stop-color="#D1D1D1" />
				<stop offset="100%" stop-color="#C8C8C8" />
			</linearGradient>
		</defs>
		<polygon points="8.8,194.2 11.0,196.1 13.3,197.8 15.7,199.1 18.2,200.2 20.8,200.9 23.6,201.4 26.5,201.5 26.5,201.5 50.4,201.5 101.5,201.5 101.5,201.5 152.6,201.5 176.5,201.5 176.5,201.5 179.4,201.4 182.2,200.9 184.8,200.2 187.3,199.1 189.7,197.8 192.0,196.1 194.2,194.2 194.2,194.2 196.1,192.0 197.8,189.7 199.1,187.3 200.2,184.8 200.9,182.2 201.4,179.4 201.5,176.5 201.5,176.5 201.5,152.6 201.5,101.5 201.5,101.5 201.5,50.4 201.5,26.5 201.5,26.5 201.4,23.6 200.9,20.8 200.2,18.2 199.1,15.7 197.8,13.3 196.1,11.0 194.2,8.8 194.2,8.8 192.0,6.9 189.7,5.2 187.3,3.9 184.8,2.8 182.2,2.1 179.4,1.6 176.5,1.5 176.5,1.5 152.6,1.5 101.5,1.5 101.5,1.5 50.4,1.5 26.5,1.5 26.5,1.5 23.6,1.6 20.8,2.1 18.2,2.8 15.7,3.9 13.3,5.2 11.0,6.9 8.8,8.8 8.8,8.8 6.9,11.0 5.2,13.3 3.9,15.7 2.8,18.2 2.1,20.8 1.6,23.6 1.5,26.5 1.5,26.5 1.5,50.4 1.5,101.5 1.5,101.5 1.5,152.6 1.5,176.5 1.5,176.5 1.6,179.4 2.1,182.2 2.8,184.8 3.9,187.3 5.2,189.7 6.9,192.0" fill="url(#cyl2)" stroke="#C8C8C8" stroke-width="1.0" stroke-linecap="butt" stroke-linejoin="round" />
		<polygon points="8.8,194.2 11.0,196.1 13.3,197.8 15.7,199.1 18.2,200.2 20.8,200.9 23.6,201.4 26.5,201.5 26.5,201.5 50.4,201.5 101.5,201.5 101.5,201.5 152.6,201.5 176.5,201.5 176.5,201.5 179.4,201.4 182.2,200.9 184.8,200.2 187.3,199.1 189.7,197.8 192.0,196.1 194.2,194.2 194.2,194.2 196.1,192.0 197.8,189.7 199.1,187.3 200.2,184.8 200.9,182.2 201.4,179.4 201.5,176.5 201.5,176.5 201.5,152.6 201.5,101.5 201.5,101.5 201.5,50.4 201.5,26.5 201.5,26.5 201.4,23.6 200.9,20.8 200.2,18.2 199.1,15.7 197.8,13.3 196.1,11.0 194.2,8.8 194.2,8.8 192.0,6.9 189.7,5.2 187.3,3.9 184.8,2.8 182.2,2.1 179.4,1.6 176.5,1.5 176.5,1.5 152.6,1.5 101.5,1.5 101.5,1.5 50.4,1.5 26.5,1.5 26.5,1.5 23.6,1.6 20.8,2.1 18.2,2.8 15.7,3.9 13.3,5.2 11.0,6.9 8.8,8.8 8.8,8.8 6.9,11.0 5.2,13.3 3.9,15.7 2.8,18.2 2.1,20.8 1.6,23.6 1.5,26.5 1.5,26.5 1.5,50.4 1.5,101.5 1.5,101.5 1.5,152.6 1.5,176.5 1.5,176.5 1.6,179.4 2.1,182.2 2.8,184.8 3.9,187.3 5.2,189.7 6.9,192.0" fill-opacity="0" stroke="#808080" stroke-width="1.0" stroke-linecap="butt" stroke-linejoin="round" />
		<polyline points="31.5,165.5 33.2,165.4 35.0,165.4 36.8,165.3 36.8,165.3 38.5,165.3 40.2,165.2 40.2,165.2 42.0,165.0 43.8,164.9 43.8,164.9 45.5,164.6 47.2,164.3 47.2,164.3 49.0,163.9 50.8,163.3 50.8,163.3 52.5,162.6 54.2,161.7 54.2,161.7 55.4,161.0 56.6,160.2 57.8,159.2 57.8,159.2 58.9,158.1 60.1,156.8 61.2,155.3 61.2,155.3 62.4,153.7 63.6,151.9 64.8,149.8 64.8,149.8 65.6,148.1 66.5,146.3 67.4,144.3 68.2,142.2 68.2,142.2 69.1,139.9 70.0,137.5 70.9,134.9 71.8,132.2 71.8,132.2 72.9,128.3 74.1,124.2 75.2,119.8 75.2,119.8 76.4,115.1 77.6,110.2 78.8,105.1 78.8,105.1 80.5,97.2 82.2,88.9 82.2,88.9 84.0,80.6 85.8,72.2 85.8,72.2 87.5,64.0 89.2,56.2 89.2,56.2 90.4,51.2 91.6,46.6 92.8,42.4 92.8,42.4 93.6,39.4 94.5,36.8 95.4,34.4 96.2,32.2 96.2,32.2 97.4,29.8 98.6,28.1 99.8,26.8 99.8,26.8 101.5,26.1 103.2,26.8 103.2,26.8 104.4,28.1 105.6,29.8 106.8,32.2 106.8,32.2 107.6,34.4 108.5,36.8 109.4,39.4 110.2,42.4 110.2,42.4 111.4,46.6 112.6,51.2 113.8,56.2 113.8,56.2 115.5,64.0 117.2,72.2 117.2,72.2 119.0,80.6 120.8,88.9 120.8,88.9 122.5,97.2 124.2,105.1 124.2,105.1 125.4,110.2 126.6,115.1 127.8,119.8 127.8,119.8 128.9,124.2 130.1,128.3 131.2,132.2 131.2,132.2 132.1,134.9 133.0,137.5 133.9,139.9 134.8,142.2 134.8,142.2 135.6,144.3 136.5,146.3 137.4,148.1 138.2,149.8 138.2,149.8 139.4,151.9 140.6,153.7 141.8,155.3 141.8,155.3 142.9,156.8 144.1,158.1 145.2,159.2 145.2,159.2 146.4,160.2 147.6,161.0 148.8,161.7 148.8,161.7 150.5,162.6 152.2,163.3 152.2,163.3 154.0,163.9 155.8,164.3 155.8,164.3 157.5,164.6 159.2,164.9 159.2,164.9 161.0,165.0 162.8,165.2 162.8,165.2 164.5,165.3 166.2,165.3 166.2,165.3 168.0,165.4 169.8,165.4 171.5,165.5" fill-opacity="0" stroke="#000000" stroke-width="1.0" stroke-linecap="butt" stroke-linejoin="round" />
	</g>
</svg>
