<svg width="223" height="223" xmlns="http://www.w3.org/2000/svg" xmlns:xlink="http://www.w3.org/1999/xlink">
	<g id="Modelica.Magnetic.QuasiStatic.FundamentalWave.Sources.SignalFlux" class="component">
		<polygon points="161.5,121.5 161.3,117.2 160.8,112.9 159.8,108.7 158.6,104.6 156.9,100.6 155.0,96.8 152.7,93.2 150.1,89.7 147.2,86.5 144.1,83.6 140.7,80.9 137.1,78.6 133.3,76.5 129.4,74.8 125.3,73.4 121.1,72.4 116.9,71.8 112.6,71.5 108.3,71.6 104.0,72.1 99.8,72.9 95.6,74.1 91.6,75.6 87.7,77.5 84.0,79.7 80.6,82.2 77.3,85.0 74.3,88.1 71.6,91.4 69.1,95.0 67.0,98.7 65.2,102.6 63.7,106.7 62.6,110.8 61.9,115.1 61.5,119.3 61.5,123.7 61.9,127.9 62.6,132.2 63.7,136.3 65.2,140.4 67.0,144.3 69.1,148.0 71.6,151.6 74.3,154.9 77.3,158.0 80.6,160.8 84.0,163.3 87.7,165.5 91.6,167.4 95.6,168.9 99.8,170.1 104.0,170.9 108.3,171.4 112.6,171.5 116.9,171.2 121.1,170.6 125.3,169.6 129.4,168.2 133.3,166.5 137.1,164.4 140.7,162.1 144.1,159.4 147.2,156.5 150.1,153.3 152.7,149.8 155.0,146.2 156.9,142.4 158.6,138.4 159.8,134.3 160.8,130.1 161.3,125.8" fill="#FFFFFF" stroke="#FFAA55" stroke-width="1.0" stroke-linecap="butt" stroke-linejoin="round" />
		<polyline points="211.5,121.5 161.5,121.5" fill-opacity="0" stroke="#FFAA55" stroke-width="1.0" stroke-linecap="butt" stroke-linejoin="round" />
		<polyline points="61.5,121.5 11.5,121.5" fill-opacity="0" stroke="#FFAA55" stroke-width="1.0" stroke-linecap="butt" stroke-linejoin="round" />
		<polyline points="111.5,71.5 111.5,171.5" fill-opacity="0" stroke="#FFAA55" stroke-width="1.0" stroke-linecap="butt" stroke-linejoin="round" />
		<polygon points="191.5,121.5 171.5,115.5 171.5,127.5" fill="#FFAA55" stroke="#FFAA55" stroke-width="1.0" stroke-linecap="butt" stroke-linejoin="round" />
		<polyline points="111.5,21.5 111.5,71.5" fill-opacity="0" stroke="#FFAA55" stroke-width="1.0" stroke-linecap="butt" stroke-linejoin="round" />
		<g id="port_p" class="port">
			<polygon points="21.5,121.5 21.5,120.6 21.3,119.8 21.2,118.9 20.9,118.1 20.6,117.3 20.2,116.6 19.7,115.8 19.2,115.1 18.6,114.5 18.0,113.9 17.3,113.4 16.6,112.9 15.9,112.5 15.1,112.2 14.3,111.9 13.4,111.7 12.6,111.6 11.7,111.5 10.8,111.5 10.0,111.6 9.1,111.8 8.3,112.0 7.5,112.3 6.7,112.7 6.0,113.1 5.3,113.6 4.7,114.2 4.0,114.8 3.5,115.5 3.0,116.2 2.6,116.9 2.2,117.7 1.9,118.5 1.7,119.4 1.6,120.2 1.5,121.1 1.5,121.9 1.6,122.8 1.7,123.6 1.9,124.5 2.2,125.3 2.6,126.1 3.0,126.8 3.5,127.5 4.0,128.2 4.7,128.8 5.3,129.4 6.0,129.9 6.7,130.3 7.5,130.7 8.3,131.0 9.1,131.2 10.0,131.4 10.8,131.5 11.7,131.5 12.6,131.4 13.4,131.3 14.3,131.1 15.1,130.8 15.9,130.5 16.6,130.1 17.3,129.6 18.0,129.1 18.6,128.5 19.2,127.9 19.7,127.2 20.2,126.4 20.6,125.7 20.9,124.9 21.2,124.1 21.3,123.2 21.5,122.4" fill="#FFAA55" stroke="#FFAA55" stroke-width="1.0" stroke-linecap="butt" stroke-linejoin="round" />
		</g>
		<g id="port_n" class="port">
			<polygon points="221.5,121.5 221.5,120.6 221.3,119.8 221.2,118.9 220.9,118.1 220.6,117.3 220.2,116.6 219.7,115.8 219.2,115.1 218.6,114.5 218.0,113.9 217.3,113.4 216.6,112.9 215.9,112.5 215.1,112.2 214.3,111.9 213.4,111.7 212.6,111.6 211.7,111.5 210.8,111.5 210.0,111.6 209.1,111.8 208.3,112.0 207.5,112.3 206.7,112.7 206.0,113.1 205.3,113.6 204.7,114.2 204.0,114.8 203.5,115.5 203.0,116.2 202.6,116.9 202.2,117.7 201.9,118.5 201.7,119.4 201.6,120.2 201.5,121.1 201.5,121.9 201.6,122.8 201.7,123.6 201.9,124.5 202.2,125.3 202.6,126.1 203.0,126.8 203.5,127.5 204.0,128.2 204.7,128.8 205.3,129.4 206.0,129.9 206.7,130.3 207.5,130.7 208.3,131.0 209.1,131.2 210.0,131.4 210.8,131.5 211.7,131.5 212.6,131.4 213.4,131.3 214.3,131.1 215.1,130.8 215.9,130.5 216.6,130.1 217.3,129.6 218.0,129.1 218.6,128.5 219.2,127.9 219.7,127.2 220.2,126.4 220.6,125.7 220.9,124.9 221.2,124.1 221.3,123.2 221.5,122.4" fill="#FFFFFF" stroke="#FFAA55" stroke-width="1.0" stroke-linecap="butt" stroke-linejoin="round" />
		</g>
		<g id="Phi" class="port">
			<polygon points="93.0,3.0 91.9,4.6 91.5,6.5 91.5,6.5 91.5,11.3 91.5,21.5 91.5,21.5 91.5,31.7 91.5,36.5 91.5,36.5 91.9,38.4 93.0,40.0 93.0,40.0 94.6,41.1 96.5,41.5 96.5,41.5 101.3,41.5 111.5,41.5 111.5,41.5 121.7,41.5 126.5,41.5 126.5,41.5 128.4,41.1 130.0,40.0 130.0,40.0 131.1,38.4 131.5,36.5 131.5,36.5 131.5,31.7 131.5,21.5 131.5,21.5 131.5,11.3 131.5,6.5 131.5,6.5 131.1,4.6 130.0,3.0 130.0,3.0 128.4,1.9 126.5,1.5 126.5,1.5 121.7,1.5 111.5,1.5 111.5,1.5 101.3,1.5 96.5,1.5 96.5,1.5 94.6,1.9" fill="#A0A0A4" stroke="#A0A0A4" stroke-width="1.0" stroke-linecap="butt" stroke-linejoin="round" />
			<g class="transform" transform="rotate(-450.0 121.3 21.5)">
				<text x="121.3" y="21.5" text-anchor="middle" fill="#FFFFFF" font-size="26.6px" font-family="sans-serif">C</text>
			</g>
			<polygon points="131.5,1.5 111.5,41.5 91.5,1.5" fill="#55AAFF" stroke="#55AAFF" stroke-width="1.0" stroke-linecap="butt" stroke-linejoin="round" />
		</g>
	</g>
</svg>
