<svg width="103" height="403" xmlns="http://www.w3.org/2000/svg" xmlns:xlink="http://www.w3.org/1999/xlink">
	<g id="Modelica.Fluid.Interfaces.FluidPorts_a" class="component">
		<polygon points="1.5,401.5 101.5,401.5 101.5,1.5 1.5,1.5" fill="#FFFFFF" stroke="#007FFF" stroke-width="1.0" stroke-linecap="butt" stroke-linejoin="round" />
		<polygon points="101.5,71.5 101.3,67.2 100.8,62.9 99.8,58.7 98.6,54.6 96.9,50.6 95.0,46.8 92.7,43.2 90.1,39.7 87.2,36.5 84.1,33.6 80.7,30.9 77.1,28.6 73.3,26.5 69.4,24.8 65.3,23.4 61.1,22.4 56.9,21.8 52.6,21.5 48.3,21.6 44.0,22.1 39.8,22.9 35.6,24.1 31.6,25.6 27.8,27.5 24.1,29.7 20.6,32.2 17.3,35.0 14.3,38.1 11.6,41.4 9.1,45.0 7.0,48.7 5.2,52.6 3.8,56.7 2.7,60.8 1.9,65.1 1.5,69.3 1.5,73.7 1.9,77.9 2.7,82.2 3.8,86.3 5.2,90.4 7.0,94.3 9.1,98.0 11.6,101.6 14.3,104.9 17.3,108.0 20.6,110.8 24.1,113.3 27.8,115.5 31.6,117.4 35.6,118.9 39.8,120.1 44.0,120.9 48.3,121.4 52.6,121.5 56.9,121.2 61.1,120.6 65.3,119.6 69.4,118.2 73.3,116.5 77.1,114.4 80.7,112.1 84.1,109.4 87.2,106.5 90.1,103.3 92.7,99.8 95.0,96.2 96.9,92.4 98.6,88.4 99.8,84.3 100.8,80.1 101.3,75.8" fill="#007FFF" stroke="#000000" stroke-width="1.0" stroke-linecap="butt" stroke-linejoin="round" />
		<polygon points="101.5,201.5 101.3,197.2 100.8,192.9 99.8,188.7 98.6,184.6 96.9,180.6 95.0,176.8 92.7,173.2 90.1,169.7 87.2,166.5 84.1,163.6 80.7,160.9 77.1,158.6 73.3,156.5 69.4,154.8 65.3,153.4 61.1,152.4 56.9,151.8 52.6,151.5 48.3,151.6 44.0,152.1 39.8,152.9 35.6,154.1 31.6,155.6 27.8,157.5 24.1,159.7 20.6,162.2 17.3,165.0 14.3,168.1 11.6,171.4 9.1,175.0 7.0,178.7 5.2,182.6 3.8,186.7 2.7,190.8 1.9,195.1 1.5,199.3 1.5,203.7 1.9,207.9 2.7,212.2 3.8,216.3 5.2,220.4 7.0,224.3 9.1,228.0 11.6,231.6 14.3,234.9 17.3,238.0 20.6,240.8 24.1,243.3 27.8,245.5 31.6,247.4 35.6,248.9 39.8,250.1 44.0,250.9 48.3,251.4 52.6,251.5 56.9,251.2 61.1,250.6 65.3,249.6 69.4,248.2 73.3,246.5 77.1,244.4 80.7,242.1 84.1,239.4 87.2,236.5 90.1,233.3 92.7,229.8 95.0,226.2 96.9,222.4 98.6,218.4 99.8,214.3 100.8,210.1 101.3,205.8" fill="#007FFF" stroke="#000000" stroke-width="1.0" stroke-linecap="butt" stroke-linejoin="round" />
		<polygon points="101.5,331.5 101.3,327.2 100.8,322.9 99.8,318.7 98.6,314.6 96.9,310.6 95.0,306.8 92.7,303.2 90.1,299.7 87.2,296.5 84.1,293.6 80.7,290.9 77.1,288.6 73.3,286.5 69.4,284.8 65.3,283.4 61.1,282.4 56.9,281.8 52.6,281.5 48.3,281.6 44.0,282.1 39.8,282.9 35.6,284.1 31.6,285.6 27.8,287.5 24.1,289.7 20.6,292.2 17.3,295.0 14.3,298.1 11.6,301.4 9.1,305.0 7.0,308.7 5.2,312.6 3.8,316.7 2.7,320.8 1.9,325.1 1.5,329.3 1.5,333.7 1.9,337.9 2.7,342.2 3.8,346.3 5.2,350.4 7.0,354.3 9.1,358.0 11.6,361.6 14.3,364.9 17.3,368.0 20.6,370.8 24.1,373.3 27.8,375.5 31.6,377.4 35.6,378.9 39.8,380.1 44.0,380.9 48.3,381.4 52.6,381.5 56.9,381.2 61.1,380.6 65.3,379.6 69.4,378.2 73.3,376.5 77.1,374.4 80.7,372.1 84.1,369.4 87.2,366.5 90.1,363.3 92.7,359.8 95.0,356.2 96.9,352.4 98.6,348.4 99.8,344.3 100.8,340.1 101.3,335.8" fill="#007FFF" stroke="#000000" stroke-width="1.0" stroke-linecap="butt" stroke-linejoin="round" />
	</g>
</svg>
