<svg width="213" height="223" xmlns="http://www.w3.org/2000/svg" xmlns:xlink="http://www.w3.org/1999/xlink">
	<g id="Modelica.Mechanics.Rotational.Interfaces.PartialOneFlangeAndSupport" class="component">
		<polyline points="51.5,221.5 71.5,201.5" fill-opacity="0" stroke="#000000" stroke-width="1.0" stroke-linecap="butt" stroke-linejoin="round" />
		<polyline points="71.5,221.5 91.5,201.5" fill-opacity="0" stroke="#000000" stroke-width="1.0" stroke-linecap="butt" stroke-linejoin="round" />
		<polyline points="91.5,221.5 111.5,201.5" fill-opacity="0" stroke="#000000" stroke-width="1.0" stroke-linecap="butt" stroke-linejoin="round" />
		<polyline points="111.5,221.5 131.5,201.5" fill-opacity="0" stroke="#000000" stroke-width="1.0" stroke-linecap="butt" stroke-linejoin="round" />
		<polyline points="71.5,201.5 131.5,201.5" fill-opacity="0" stroke="#000000" stroke-width="1.0" stroke-linecap="butt" stroke-linejoin="round" />
		<g id="flange" class="port">
			<polygon points="211.5,101.5 211.5,100.6 211.4,99.8 211.2,98.9 210.9,98.1 210.6,97.3 210.2,96.6 209.7,95.8 209.2,95.1 208.6,94.5 208.0,93.9 207.3,93.4 206.6,92.9 205.9,92.5 205.1,92.2 204.3,91.9 203.4,91.7 202.6,91.6 201.7,91.5 200.9,91.5 200.0,91.6 199.2,91.8 198.3,92.0 197.5,92.3 196.8,92.7 196.0,93.1 195.3,93.6 194.7,94.2 194.1,94.8 193.5,95.5 193.0,96.2 192.6,96.9 192.2,97.7 192.0,98.5 191.7,99.4 191.6,100.2 191.5,101.1 191.5,101.9 191.6,102.8 191.7,103.6 192.0,104.5 192.2,105.3 192.6,106.1 193.0,106.8 193.5,107.5 194.1,108.2 194.7,108.8 195.3,109.4 196.0,109.9 196.8,110.3 197.5,110.7 198.3,111.0 199.2,111.2 200.0,111.4 200.9,111.5 201.7,111.5 202.6,111.4 203.4,111.3 204.3,111.1 205.1,110.8 205.9,110.5 206.6,110.1 207.3,109.6 208.0,109.1 208.6,108.5 209.2,107.9 209.7,107.2 210.2,106.4 210.6,105.7 210.9,104.9 211.2,104.1 211.4,103.2 211.5,102.4" fill="#FFFFFF" stroke="#000000" stroke-width="1.0" stroke-linecap="butt" stroke-linejoin="round" />
		</g>
		<g id="support" class="port">
			<polygon points="111.5,201.5 111.5,200.6 111.4,199.8 111.2,198.9 110.9,198.1 110.6,197.3 110.2,196.6 109.7,195.8 109.2,195.1 108.6,194.5 108.0,193.9 107.3,193.4 106.6,192.9 105.9,192.5 105.1,192.2 104.3,191.9 103.4,191.7 102.6,191.6 101.7,191.5 100.9,191.5 100.0,191.6 99.2,191.8 98.3,192.0 97.5,192.3 96.8,192.7 96.0,193.1 95.3,193.6 94.7,194.2 94.1,194.8 93.5,195.5 93.0,196.2 92.6,196.9 92.2,197.7 92.0,198.5 91.7,199.4 91.6,200.2 91.5,201.1 91.5,201.9 91.6,202.8 91.7,203.6 92.0,204.5 92.2,205.3 92.6,206.1 93.0,206.8 93.5,207.5 94.1,208.2 94.7,208.8 95.3,209.4 96.0,209.9 96.8,210.3 97.5,210.7 98.3,211.0 99.2,211.2 100.0,211.4 100.9,211.5 101.7,211.5 102.6,211.4 103.4,211.3 104.3,211.1 105.1,210.8 105.9,210.5 106.6,210.1 107.3,209.6 108.0,209.1 108.6,208.5 109.2,207.9 109.7,207.2 110.2,206.4 110.6,205.7 110.9,204.9 111.2,204.1 111.4,203.2 111.5,202.4" fill="#5F5F5F" stroke="#000000" stroke-width="1.0" stroke-linecap="butt" stroke-linejoin="round" />
			<polygon points="86.5,216.5 116.5,216.5 116.5,186.5 86.5,186.5" fill="#C0C0C0" stroke="#C0C0C0" stroke-width="1.0" stroke-linecap="butt" stroke-linejoin="round" />
			<polygon points="111.5,201.5 111.5,200.6 111.4,199.8 111.2,198.9 110.9,198.1 110.6,197.3 110.2,196.6 109.7,195.8 109.2,195.1 108.6,194.5 108.0,193.9 107.3,193.4 106.6,192.9 105.9,192.5 105.1,192.2 104.3,191.9 103.4,191.7 102.6,191.6 101.7,191.5 100.9,191.5 100.0,191.6 99.2,191.8 98.3,192.0 97.5,192.3 96.8,192.7 96.0,193.1 95.3,193.6 94.7,194.2 94.1,194.8 93.5,195.5 93.0,196.2 92.6,196.9 92.2,197.7 92.0,198.5 91.7,199.4 91.6,200.2 91.5,201.1 91.5,201.9 91.6,202.8 91.7,203.6 92.0,204.5 92.2,205.3 92.6,206.1 93.0,206.8 93.5,207.5 94.1,208.2 94.7,208.8 95.3,209.4 96.0,209.9 96.8,210.3 97.5,210.7 98.3,211.0 99.2,211.2 100.0,211.4 100.9,211.5 101.7,211.5 102.6,211.4 103.4,211.3 104.3,211.1 105.1,210.8 105.9,210.5 106.6,210.1 107.3,209.6 108.0,209.1 108.6,208.5 109.2,207.9 109.7,207.2 110.2,206.4 110.6,205.7 110.9,204.9 111.2,204.1 111.4,203.2 111.5,202.4" fill="#5F5F5F" stroke="#000000" stroke-width="1.0" stroke-linecap="butt" stroke-linejoin="round" />
		</g>
	</g>
</svg>
