<svg width="223" height="203" xmlns="http://www.w3.org/2000/svg" xmlns:xlink="http://www.w3.org/1999/xlink">
	<g id="Modelica.Electrical.Analog.Basic.M_Transformer" class="component">
		<polyline points="171.5,141.5 201.5,141.5" fill-opacity="0" stroke="#0000FF" stroke-width="1.0" stroke-linecap="round" stroke-linejoin="round" />
		<polyline points="21.5,141.5 51.5,141.5" fill-opacity="0" stroke="#0000FF" stroke-width="1.0" stroke-linecap="round" stroke-linejoin="round" />
		<polyline points="51.5,141.5 52.0,138.5 52.4,136.9 53.2,135.2 54.4,133.4 56.0,131.5 56.0,131.5 57.5,130.1 59.4,128.9 61.5,128.1 63.8,127.7 66.5,127.5 66.5,127.5 69.2,127.7 71.5,128.1 73.6,128.9 75.5,130.1 77.0,131.5 77.0,131.5 78.6,133.4 79.8,135.2 80.6,136.9 81.0,138.5 81.5,141.5" fill-opacity="0" stroke="#0000FF" stroke-width="1.0" stroke-linecap="round" stroke-linejoin="round" />
		<polyline points="81.5,141.5 82.0,138.5 82.4,136.9 83.2,135.2 84.4,133.4 86.0,131.5 86.0,131.5 87.5,130.1 89.4,128.9 91.5,128.1 93.8,127.7 96.5,127.5 96.5,127.5 99.2,127.7 101.5,128.1 103.6,128.9 105.5,130.1 107.0,131.5 107.0,131.5 108.6,133.4 109.8,135.2 110.6,136.9 111.0,138.5 111.5,141.5" fill-opacity="0" stroke="#0000FF" stroke-width="1.0" stroke-linecap="round" stroke-linejoin="round" />
		<polyline points="111.5,141.5 112.0,138.5 112.4,136.9 113.2,135.2 114.4,133.4 116.0,131.5 116.0,131.5 117.5,130.1 119.4,128.9 121.5,128.1 123.8,127.7 126.5,127.5 126.5,127.5 129.2,127.7 131.5,128.1 133.6,128.9 135.5,130.1 137.0,131.5 137.0,131.5 138.6,133.4 139.8,135.2 140.6,136.9 141.0,138.5 141.5,141.5" fill-opacity="0" stroke="#0000FF" stroke-width="1.0" stroke-linecap="round" stroke-linejoin="round" />
		<polyline points="141.5,141.5 142.0,138.5 142.4,136.9 143.2,135.2 144.4,133.4 146.0,131.5 146.0,131.5 147.5,130.1 149.4,128.9 151.5,128.1 153.8,127.7 156.5,127.5 156.5,127.5 159.2,127.7 161.5,128.1 163.6,128.9 165.5,130.1 167.0,131.5 167.0,131.5 168.6,133.4 169.8,135.2 170.6,136.9 171.0,138.5 171.5,141.5" fill-opacity="0" stroke="#0000FF" stroke-width="1.0" stroke-linecap="round" stroke-linejoin="round" />
		<polyline points="171.5,91.5 201.5,91.5" fill-opacity="0" stroke="#0000FF" stroke-width="1.0" stroke-linecap="round" stroke-linejoin="round" />
		<polyline points="21.5,91.5 51.5,91.5" fill-opacity="0" stroke="#0000FF" stroke-width="1.0" stroke-linecap="round" stroke-linejoin="round" />
		<polyline points="51.5,91.5 52.0,88.5 52.4,86.9 53.2,85.2 54.4,83.4 56.0,81.5 56.0,81.5 57.5,80.1 59.4,78.9 61.5,78.1 63.8,77.7 66.5,77.5 66.5,77.5 69.2,77.7 71.5,78.1 73.6,78.9 75.5,80.1 77.0,81.5 77.0,81.5 78.6,83.4 79.8,85.2 80.6,86.9 81.0,88.5 81.5,91.5" fill-opacity="0" stroke="#0000FF" stroke-width="1.0" stroke-linecap="round" stroke-linejoin="round" />
		<polyline points="81.5,91.5 82.0,88.5 82.4,86.9 83.2,85.2 84.4,83.4 86.0,81.5 86.0,81.5 87.5,80.1 89.4,78.9 91.5,78.1 93.8,77.7 96.5,77.5 96.5,77.5 99.2,77.7 101.5,78.1 103.6,78.9 105.5,80.1 107.0,81.5 107.0,81.5 108.6,83.4 109.8,85.2 110.6,86.9 111.0,88.5 111.5,91.5" fill-opacity="0" stroke="#0000FF" stroke-width="1.0" stroke-linecap="round" stroke-linejoin="round" />
		<polyline points="111.5,91.5 112.0,88.5 112.4,86.9 113.2,85.2 114.4,83.4 116.0,81.5 116.0,81.5 117.5,80.1 119.4,78.9 121.5,78.1 123.8,77.7 126.5,77.5 126.5,77.5 129.2,77.7 131.5,78.1 133.6,78.9 135.5,80.1 137.0,81.5 137.0,81.5 138.6,83.4 139.8,85.2 140.6,86.9 141.0,88.5 141.5,91.5" fill-opacity="0" stroke="#0000FF" stroke-width="1.0" stroke-linecap="round" stroke-linejoin="round" />
		<polyline points="141.5,91.5 142.0,88.5 142.4,86.9 143.2,85.2 144.4,83.4 146.0,81.5 146.0,81.5 147.5,80.1 149.4,78.9 151.5,78.1 153.8,77.7 156.5,77.5 156.5,77.5 159.2,77.7 161.5,78.1 163.6,78.9 165.5,80.1 167.0,81.5 167.0,81.5 168.6,83.4 169.8,85.2 170.6,86.9 171.0,88.5 171.5,91.5" fill-opacity="0" stroke="#0000FF" stroke-width="1.0" stroke-linecap="round" stroke-linejoin="round" />
		<polyline points="171.5,61.5 201.5,61.5" fill-opacity="0" stroke="#0000FF" stroke-width="1.0" stroke-linecap="round" stroke-linejoin="round" />
		<polyline points="21.5,61.5 51.5,61.5" fill-opacity="0" stroke="#0000FF" stroke-width="1.0" stroke-linecap="round" stroke-linejoin="round" />
		<polyline points="51.5,61.5 52.0,58.5 52.4,56.9 53.2,55.2 54.4,53.4 56.0,51.5 56.0,51.5 57.5,50.1 59.4,48.9 61.5,48.1 63.8,47.7 66.5,47.5 66.5,47.5 69.2,47.7 71.5,48.1 73.6,48.9 75.5,50.1 77.0,51.5 77.0,51.5 78.6,53.4 79.8,55.2 80.6,56.9 81.0,58.5 81.5,61.5" fill-opacity="0" stroke="#0000FF" stroke-width="1.0" stroke-linecap="round" stroke-linejoin="round" />
		<polyline points="81.5,61.5 82.0,58.5 82.4,56.9 83.2,55.2 84.4,53.4 86.0,51.5 86.0,51.5 87.5,50.1 89.4,48.9 91.5,48.1 93.8,47.7 96.5,47.5 96.5,47.5 99.2,47.7 101.5,48.1 103.6,48.9 105.5,50.1 107.0,51.5 107.0,51.5 108.6,53.4 109.8,55.2 110.6,56.9 111.0,58.5 111.5,61.5" fill-opacity="0" stroke="#0000FF" stroke-width="1.0" stroke-linecap="round" stroke-linejoin="round" />
		<polyline points="111.5,61.5 112.0,58.5 112.4,56.9 113.2,55.2 114.4,53.4 116.0,51.5 116.0,51.5 117.5,50.1 119.4,48.9 121.5,48.1 123.8,47.7 126.5,47.5 126.5,47.5 129.2,47.7 131.5,48.1 133.6,48.9 135.5,50.1 137.0,51.5 137.0,51.5 138.6,53.4 139.8,55.2 140.6,56.9 141.0,58.5 141.5,61.5" fill-opacity="0" stroke="#0000FF" stroke-width="1.0" stroke-linecap="round" stroke-linejoin="round" />
		<polyline points="141.5,61.5 142.0,58.5 142.4,56.9 143.2,55.2 144.4,53.4 146.0,51.5 146.0,51.5 147.5,50.1 149.4,48.9 151.5,48.1 153.8,47.7 156.5,47.5 156.5,47.5 159.2,47.7 161.5,48.1 163.6,48.9 165.5,50.1 167.0,51.5 167.0,51.5 168.6,53.4 169.8,55.2 170.6,56.9 171.0,58.5 171.5,61.5" fill-opacity="0" stroke="#0000FF" stroke-width="1.0" stroke-linecap="round" stroke-linejoin="round" />
		<g id="p" class="port">
			<polygon points="1.5,161.5 21.5,161.5 21.5,41.5 1.5,41.5" fill="#0000FF" stroke="#0000FF" stroke-width="1.0" stroke-linecap="round" stroke-linejoin="round" />
		</g>
		<g id="n" class="port">
			<polygon points="201.5,161.5 221.5,161.5 221.5,41.5 201.5,41.5" fill="#FFFFFF" stroke="#0000FF" stroke-width="1.0" stroke-linecap="round" stroke-linejoin="round" />
		</g>
	</g>
</svg>
