<svg width="213" height="203" xmlns="http://www.w3.org/2000/svg" xmlns:xlink="http://www.w3.org/1999/xlink">
	<g id="flowPort" class="port">
		<polygon points="1.5,111.5 21.5,111.5 21.5,91.5 1.5,91.5" fill="#FFFFFF" stroke="#FF0000" stroke-width="1.0" stroke-linecap="butt" stroke-linejoin="round" />
		<polygon points="21.3,101.5 21.3,100.7 21.2,99.8 21.0,99.0 20.7,98.2 20.4,97.4 20.0,96.7 19.6,95.9 19.1,95.3 18.5,94.6 17.9,94.1 17.2,93.5 16.5,93.1 15.8,92.7 15.0,92.3 14.2,92.1 13.4,91.9 12.6,91.8 11.7,91.7 10.9,91.7 10.0,91.8 9.2,92.0 8.4,92.2 7.6,92.5 6.8,92.9 6.1,93.3 5.4,93.8 4.8,94.4 4.2,95.0 3.7,95.6 3.2,96.3 2.8,97.0 2.4,97.8 2.1,98.6 1.9,99.4 1.8,100.2 1.7,101.1 1.7,101.9 1.8,102.8 1.9,103.6 2.1,104.4 2.4,105.2 2.8,106.0 3.2,106.7 3.7,107.4 4.2,108.0 4.8,108.6 5.4,109.2 6.1,109.7 6.8,110.1 7.6,110.5 8.4,110.8 9.2,111.0 10.0,111.2 10.9,111.3 11.7,111.3 12.6,111.2 13.4,111.1 14.2,110.9 15.0,110.7 15.8,110.3 16.5,109.9 17.2,109.5 17.9,108.9 18.5,108.4 19.1,107.7 19.6,107.1 20.0,106.3 20.4,105.6 20.7,104.8 21.0,104.0 21.2,103.2 21.3,102.3" fill="#0000FF" stroke="#0000FF" stroke-width="1.0" stroke-linecap="butt" stroke-linejoin="round" />
	</g>
</svg>
