<svg width="213" height="223" xmlns="http://www.w3.org/2000/svg" xmlns:xlink="http://www.w3.org/1999/xlink">
	<g id="Modelica.Mechanics.Rotational.Sources.QuadraticSpeedDependentTorque" class="component">
		<polygon points="5.5,197.5 197.5,197.5 197.5,5.5 5.5,5.5" fill="#FFFFFF" stroke="#FFFFFF" stroke-width="1.0" stroke-linecap="round" stroke-linejoin="round" />
		<polyline points="101.5,163.5 101.5,201.5" fill-opacity="0" stroke="#000000" stroke-width="1.0" stroke-linecap="round" stroke-linejoin="round" />
		<polygon points="195.5,75.5 181.5,17.5 151.5,39.5" fill="#000000" stroke="#000000" stroke-width="1.0" stroke-linecap="round" stroke-linejoin="round" />
		<polygon points="51.5,199.5 71.5,181.5 59.5,173.5" fill="#000000" stroke="#000000" stroke-width="1.0" stroke-linecap="round" stroke-linejoin="round" />
		<polyline points="51.5,221.5 71.5,201.5" fill-opacity="0" stroke="#000000" stroke-width="1.0" stroke-linecap="round" stroke-linejoin="round" />
		<polyline points="71.5,221.5 91.5,201.5" fill-opacity="0" stroke="#000000" stroke-width="1.0" stroke-linecap="round" stroke-linejoin="round" />
		<polyline points="91.5,221.5 111.5,201.5" fill-opacity="0" stroke="#000000" stroke-width="1.0" stroke-linecap="round" stroke-linejoin="round" />
		<polyline points="111.5,221.5 131.5,201.5" fill-opacity="0" stroke="#000000" stroke-width="1.0" stroke-linecap="round" stroke-linejoin="round" />
		<polyline points="71.5,201.5 131.5,201.5" fill-opacity="0" stroke="#000000" stroke-width="1.0" stroke-linecap="round" stroke-linejoin="round" />
		<polyline points="53.5,193.5 58.5,185.5 59.8,183.5 61.3,181.6 63.0,179.8 64.8,178.0 66.7,176.3 68.8,174.6 71.1,173.0 73.5,171.5 73.5,171.5 76.0,170.1 78.4,168.8 80.9,167.6 83.2,166.5 85.6,165.6 87.9,164.8 90.2,164.1 92.5,163.5 92.5,163.5 95.5,162.9 98.5,162.6 101.5,162.5 104.5,162.6 107.5,162.9 110.5,163.5 110.5,163.5 112.8,164.1 115.1,164.8 117.4,165.6 119.8,166.5 122.1,167.6 124.6,168.8 127.0,170.1 129.5,171.5 129.5,171.5 131.9,173.0 134.2,174.6 136.3,176.3 138.2,178.0 140.0,179.8 141.7,181.6 143.2,183.5 144.5,185.5 149.5,193.5" fill-opacity="0" stroke="#000000" stroke-width="1.0" stroke-linecap="round" stroke-linejoin="round" />
		<polyline points="15.5,61.5 21.5,48.5 22.9,45.6 24.3,42.9 25.8,40.2 27.4,37.5 29.1,35.0 30.8,32.5 32.6,30.1 34.5,27.8 36.5,25.5 36.5,25.5 38.1,23.9 39.7,22.3 41.6,20.7 43.5,19.2 45.6,17.7 47.7,16.2 50.1,14.9 52.5,13.5 55.1,12.2 57.7,10.9 60.6,9.7 63.5,8.5 63.5,8.5 66.8,7.3 70.1,6.2 73.5,5.2 76.9,4.3 80.3,3.6 83.7,2.9 87.2,2.4 90.7,2.0 94.3,1.7 97.9,1.6 101.5,1.5 101.5,1.5 104.6,1.6 107.7,1.7 110.7,2.0 113.8,2.4 116.9,3.0 120.0,3.6 123.0,4.4 126.1,5.3 129.2,6.3 132.3,7.4 135.3,8.7 138.4,10.0 141.5,11.5 141.5,11.5 144.3,13.0 147.0,14.5 149.7,16.1 152.2,17.7 154.6,19.4 157.0,21.2 159.2,23.0 161.4,24.9 163.5,26.8 165.5,28.8 167.4,30.9 169.2,33.1 170.9,35.2 172.5,37.5 183.5,53.5" fill-opacity="0" stroke="#000000" stroke-width="1.0" stroke-linecap="round" stroke-linejoin="round" />
		<polyline points="41.5,61.5 41.5,151.5" fill-opacity="0" stroke="#C0C0C0" stroke-width="1.0" stroke-linecap="round" stroke-linejoin="round" />
		<polyline points="26.5,141.5 176.5,141.5" fill-opacity="0" stroke="#C0C0C0" stroke-width="1.0" stroke-linecap="round" stroke-linejoin="round" />
		<polyline points="41.5,141.5 51.5,140.5 54.8,140.1 58.2,139.6 61.5,139.0 64.8,138.3 68.2,137.4 71.5,136.5 71.5,136.5 74.0,135.7 76.5,134.8 79.0,133.8 81.5,132.8 84.0,131.6 86.5,130.3 89.0,129.0 91.5,127.5 91.5,127.5 95.5,125.0 99.5,122.4 103.5,119.6 107.5,116.6 111.5,113.5 111.5,113.5 115.5,110.2 119.5,106.8 123.5,103.2 127.5,99.4 131.5,95.5 131.5,95.5 134.8,92.1 138.1,88.5 141.2,84.8 144.4,80.8 147.5,76.7 150.5,72.5 159.5,59.5" fill-opacity="0" stroke="#00007F" stroke-width="1.0" stroke-linecap="round" stroke-linejoin="round" />
		<g id="flange" class="port">
			<polygon points="211.5,101.5 211.5,100.6 211.4,99.8 211.2,98.9 210.9,98.1 210.6,97.3 210.2,96.6 209.7,95.8 209.2,95.1 208.6,94.5 208.0,93.9 207.3,93.4 206.6,92.9 205.9,92.5 205.1,92.2 204.3,91.9 203.4,91.7 202.6,91.6 201.7,91.5 200.9,91.5 200.0,91.6 199.2,91.8 198.3,92.0 197.5,92.3 196.8,92.7 196.0,93.1 195.3,93.6 194.7,94.2 194.1,94.8 193.5,95.5 193.0,96.2 192.6,96.9 192.2,97.7 192.0,98.5 191.7,99.4 191.6,100.2 191.5,101.1 191.5,101.9 191.6,102.8 191.7,103.6 192.0,104.5 192.2,105.3 192.6,106.1 193.0,106.8 193.5,107.5 194.1,108.2 194.7,108.8 195.3,109.4 196.0,109.9 196.8,110.3 197.5,110.7 198.3,111.0 199.2,111.2 200.0,111.4 200.9,111.5 201.7,111.5 202.6,111.4 203.4,111.3 204.3,111.1 205.1,110.8 205.9,110.5 206.6,110.1 207.3,109.6 208.0,109.1 208.6,108.5 209.2,107.9 209.7,107.2 210.2,106.4 210.6,105.7 210.9,104.9 211.2,104.1 211.4,103.2 211.5,102.4" fill="#FFFFFF" stroke="#000000" stroke-width="1.0" stroke-linecap="round" stroke-linejoin="round" />
		</g>
		<g id="support" class="port">
			<polygon points="111.5,201.5 111.5,200.6 111.4,199.8 111.2,198.9 110.9,198.1 110.6,197.3 110.2,196.6 109.7,195.8 109.2,195.1 108.6,194.5 108.0,193.9 107.3,193.4 106.6,192.9 105.9,192.5 105.1,192.2 104.3,191.9 103.4,191.7 102.6,191.6 101.7,191.5 100.9,191.5 100.0,191.6 99.2,191.8 98.3,192.0 97.5,192.3 96.8,192.7 96.0,193.1 95.3,193.6 94.7,194.2 94.1,194.8 93.5,195.5 93.0,196.2 92.6,196.9 92.2,197.7 92.0,198.5 91.7,199.4 91.6,200.2 91.5,201.1 91.5,201.9 91.6,202.8 91.7,203.6 92.0,204.5 92.2,205.3 92.6,206.1 93.0,206.8 93.5,207.5 94.1,208.2 94.7,208.8 95.3,209.4 96.0,209.9 96.8,210.3 97.5,210.7 98.3,211.0 99.2,211.2 100.0,211.4 100.9,211.5 101.7,211.5 102.6,211.4 103.4,211.3 104.3,211.1 105.1,210.8 105.9,210.5 106.6,210.1 107.3,209.6 108.0,209.1 108.6,208.5 109.2,207.9 109.7,207.2 110.2,206.4 110.6,205.7 110.9,204.9 111.2,204.1 111.4,203.2 111.5,202.4" fill="#5F5F5F" stroke="#000000" stroke-width="1.0" stroke-linecap="round" stroke-linejoin="round" />
			<polygon points="86.5,216.5 116.5,216.5 116.5,186.5 86.5,186.5" fill="#C0C0C0" stroke="#C0C0C0" stroke-width="1.0" stroke-linecap="round" stroke-linejoin="round" />
			<polygon points="111.5,201.5 111.5,200.6 111.4,199.8 111.2,198.9 110.9,198.1 110.6,197.3 110.2,196.6 109.7,195.8 109.2,195.1 108.6,194.5 108.0,193.9 107.3,193.4 106.6,192.9 105.9,192.5 105.1,192.2 104.3,191.9 103.4,191.7 102.6,191.6 101.7,191.5 100.9,191.5 100.0,191.6 99.2,191.8 98.3,192.0 97.5,192.3 96.8,192.7 96.0,193.1 95.3,193.6 94.7,194.2 94.1,194.8 93.5,195.5 93.0,196.2 92.6,196.9 92.2,197.7 92.0,198.5 91.7,199.4 91.6,200.2 91.5,201.1 91.5,201.9 91.6,202.8 91.7,203.6 92.0,204.5 92.2,205.3 92.6,206.1 93.0,206.8 93.5,207.5 94.1,208.2 94.7,208.8 95.3,209.4 96.0,209.9 96.8,210.3 97.5,210.7 98.3,211.0 99.2,211.2 100.0,211.4 100.9,211.5 101.7,211.5 102.6,211.4 103.4,211.3 104.3,211.1 105.1,210.8 105.9,210.5 106.6,210.1 107.3,209.6 108.0,209.1 108.6,208.5 109.2,207.9 109.7,207.2 110.2,206.4 110.6,205.7 110.9,204.9 111.2,204.1 111.4,203.2 111.5,202.4" fill="#5F5F5F" stroke="#000000" stroke-width="1.0" stroke-linecap="round" stroke-linejoin="round" />
		</g>
	</g>
</svg>
