<svg width="243" height="203" xmlns="http://www.w3.org/2000/svg" xmlns:xlink="http://www.w3.org/1999/xlink">
	<g id="Modelica.Blocks.Routing.Multiplex" class="component">
		<polygon points="21.5,201.5 221.5,201.5 221.5,1.5 21.5,1.5" fill="#FFFFFF" stroke="#00007F" stroke-width="1.0" stroke-linecap="round" stroke-linejoin="round" />
		<polyline points="129.5,101.5 223.5,101.5" fill-opacity="0" stroke="#00007F" stroke-width="1.0" stroke-linecap="round" stroke-linejoin="round" />
		<polyline points="21.5,31.5 61.5,31.5 117.5,97.5" fill-opacity="0" stroke="#00007F" stroke-width="1.0" stroke-linecap="round" stroke-linejoin="round" />
		<polyline points="21.5,101.5 109.5,101.5" fill-opacity="0" stroke="#00007F" stroke-width="1.0" stroke-linecap="round" stroke-linejoin="round" />
		<polyline points="21.5,171.5 61.5,171.5 117.5,105.5" fill-opacity="0" stroke="#00007F" stroke-width="1.0" stroke-linecap="round" stroke-linejoin="round" />
		<polygon points="136.5,101.5 136.4,100.2 136.3,98.9 136.0,97.7 135.6,96.4 135.1,95.2 134.5,94.1 133.8,93.0 133.1,92.0 132.2,91.0 131.3,90.1 130.2,89.3 129.2,88.6 128.0,88.0 126.8,87.5 125.6,87.1 124.4,86.8 123.1,86.6 121.8,86.5 120.5,86.5 119.2,86.7 118.0,86.9 116.7,87.3 115.5,87.7 114.4,88.3 113.2,89.0 112.2,89.7 111.2,90.6 110.3,91.5 109.5,92.5 108.8,93.5 108.1,94.7 107.6,95.8 107.2,97.0 106.8,98.3 106.6,99.6 106.5,100.9 106.5,102.1 106.6,103.4 106.8,104.7 107.2,106.0 107.6,107.2 108.1,108.3 108.8,109.5 109.5,110.5 110.3,111.5 111.2,112.4 112.2,113.3 113.2,114.0 114.4,114.7 115.5,115.3 116.7,115.7 118.0,116.1 119.2,116.3 120.5,116.5 121.8,116.5 123.1,116.4 124.4,116.2 125.6,115.9 126.8,115.5 128.0,115.0 129.2,114.4 130.2,113.7 131.3,112.9 132.2,112.0 133.1,111.0 133.8,110.0 134.5,108.9 135.1,107.8 135.6,106.6 136.0,105.3 136.3,104.1 136.4,102.8" fill="#00007F" stroke="#00007F" stroke-width="1.0" stroke-linecap="round" stroke-linejoin="round" />
		<polyline points="21.5,101.5 115.5,101.5" fill-opacity="0" stroke="#00007F" stroke-width="1.0" stroke-linecap="round" stroke-linejoin="round" />
		<g id="u" class="port">
			<polygon points="41.5,101.5 41.4,107.5 41.2,113.5 40.8,119.4 40.3,125.1 39.7,130.7 38.9,136.1 38.0,141.2 36.9,146.0 35.8,150.5 34.5,154.6 33.2,158.3 31.7,161.6 30.2,164.5 28.6,166.9 27.0,168.8 25.3,170.2 23.6,171.1 21.9,171.5 20.2,171.4 18.5,170.7 16.8,169.5 15.1,167.9 13.5,165.7 12.0,163.1 10.5,160.0 9.1,156.5 7.8,152.6 6.6,148.3 5.5,143.6 4.5,138.7 3.7,133.4 3.0,127.9 2.4,122.3 1.9,116.4 1.6,110.5 1.5,104.5 1.5,98.5 1.6,92.5 1.9,86.6 2.4,80.7 3.0,75.1 3.7,69.6 4.5,64.3 5.5,59.4 6.6,54.7 7.8,50.4 9.1,46.5 10.5,43.0 12.0,39.9 13.5,37.3 15.1,35.1 16.8,33.5 18.5,32.3 20.2,31.6 21.9,31.5 23.6,31.9 25.3,32.8 27.0,34.2 28.6,36.1 30.2,38.5 31.7,41.4 33.2,44.7 34.5,48.4 35.8,52.5 36.9,57.0 38.0,61.8 38.9,66.9 39.7,72.3 40.3,77.9 40.8,83.6 41.2,89.5 41.4,95.5" fill="#00007F" stroke="#00007F" stroke-width="1.0" stroke-linecap="round" stroke-linejoin="round" />
		</g>
		<g id="y" class="port">
			<polygon points="221.5,91.5 241.5,101.5 221.5,111.5" fill="#FFFFFF" stroke="#00007F" stroke-width="1.0" stroke-linecap="round" stroke-linejoin="round" />
		</g>
	</g>
</svg>
