<svg width="223" height="223" xmlns="http://www.w3.org/2000/svg" xmlns:xlink="http://www.w3.org/1999/xlink">
	<g id="Modelica.Electrical.Analog.Ideal.IdealGyrator" class="component">
		<polyline points="21.5,11.5 71.5,11.5 71.5,211.5 21.5,211.5" fill-opacity="0" stroke="#0000FF" stroke-width="1.0" stroke-linecap="butt" stroke-linejoin="round" />
		<polyline points="81.5,51.5 131.5,51.5" fill-opacity="0" stroke="#0000FF" stroke-width="1.0" stroke-linecap="butt" stroke-linejoin="round" />
		<polygon points="131.5,48.5 141.5,51.5 131.5,54.5" fill="#0000FF" stroke="#0000FF" stroke-width="1.0" stroke-linecap="butt" stroke-linejoin="round" />
		<polyline points="201.5,11.5 151.5,11.5 151.5,211.5 201.5,211.5" fill-opacity="0" stroke="#0000FF" stroke-width="1.0" stroke-linecap="butt" stroke-linejoin="round" />
		<polyline points="71.5,81.5 79.0,82.5 81.1,82.9 83.3,83.6 85.4,84.6 87.6,85.9 89.7,87.5 91.9,89.4 94.0,91.5 94.0,91.5 95.8,93.6 97.3,95.8 98.6,98.1 99.6,100.5 100.4,103.1 101.0,105.8 101.4,108.6 101.5,111.5 101.5,111.5 101.4,114.4 101.0,117.2 100.4,119.9 99.5,122.5 98.4,124.9 97.0,127.2 95.4,129.4 93.5,131.5 93.5,131.5 91.2,133.6 89.0,135.5 86.8,137.1 84.7,138.4 82.6,139.4 80.5,140.1 78.5,140.5 71.5,141.5" fill-opacity="0" stroke="#0000FF" stroke-width="1.0" stroke-linecap="butt" stroke-linejoin="round" />
		<polyline points="151.5,141.5 144.0,140.5 141.9,140.1 139.7,139.4 137.6,138.4 135.4,137.1 133.3,135.5 131.1,133.6 129.0,131.5 129.0,131.5 127.2,129.4 125.7,127.2 124.4,124.9 123.4,122.5 122.6,119.9 122.0,117.2 121.6,114.4 121.5,111.5 121.5,111.5 121.6,108.6 122.0,105.8 122.6,103.1 123.5,100.5 124.6,98.1 126.0,95.8 127.6,93.6 129.5,91.5 129.5,91.5 131.8,89.4 134.0,87.5 136.2,85.9 138.3,84.6 140.4,83.6 142.5,82.9 144.5,82.5 151.5,81.5" fill-opacity="0" stroke="#0000FF" stroke-width="1.0" stroke-linecap="butt" stroke-linejoin="round" />
		<polygon points="31.5,191.5 191.5,191.5 191.5,31.5 31.5,31.5" fill-opacity="0" stroke="#0000FF" stroke-width="1.0" stroke-linecap="butt" stroke-linejoin="round" />
		<g id="p1" class="port">
			<polygon points="1.5,21.5 21.5,21.5 21.5,1.5 1.5,1.5" fill="#0000FF" stroke="#0000FF" stroke-width="1.0" stroke-linecap="butt" stroke-linejoin="round" />
		</g>
		<g id="n1" class="port">
			<polygon points="21.5,221.5 1.5,221.5 1.5,201.5 21.5,201.5" fill="#FFFFFF" stroke="#0000FF" stroke-width="1.0" stroke-linecap="butt" stroke-linejoin="round" />
		</g>
		<g id="p2" class="port">
			<polygon points="221.5,21.5 201.5,21.5 201.5,1.5 221.5,1.5" fill="#0000FF" stroke="#0000FF" stroke-width="1.0" stroke-linecap="butt" stroke-linejoin="round" />
		</g>
		<g id="n2" class="port">
			<polygon points="201.5,221.5 221.5,221.5 221.5,201.5 201.5,201.5" fill="#FFFFFF" stroke="#0000FF" stroke-width="1.0" stroke-linecap="butt" stroke-linejoin="round" />
		</g>
	</g>
</svg>
