<svg width="226" height="207" xmlns="http://www.w3.org/2000/svg" xmlns:xlink="http://www.w3.org/1999/xlink">
	<g id="Modelica.Media.Examples.Tests.Components.FixedMassFlowRate" class="component">
		<polygon points="1.5,205.5 205.5,205.5 205.5,1.5 1.5,1.5" fill-opacity="0" stroke="#FF0000" stroke-dasharray="3 4" stroke-width="1.0" stroke-linecap="butt" stroke-linejoin="round" />
		<defs>
			<linearGradient id="cyl3" x1="0" y1="0" x2="0" y2="1">
				<stop offset="0%" stop-color="#000000" />
				<stop offset="5%" stop-color="#242424" />
				<stop offset="10%" stop-color="#454545" />
				<stop offset="15%" stop-color="#626262" />
				<stop offset="20%" stop-color="#7B7B7B" />
				<stop offset="25%" stop-color="#909090" />
				<stop offset="30%" stop-color="#A1A1A1" />
				<stop offset="35%" stop-color="#AFAFAF" />
				<stop offset="40%" stop-color="#B8B8B8" />
				<stop offset="45%" stop-color="#BEBEBE" />
				<stop offset="50%" stop-color="#C0C0C0" />
				<stop offset="55%" stop-color="#BEBEBE" />
				<stop offset="60%" stop-color="#B8B8B8" />
				<stop offset="65%" stop-color="#AFAFAF" />
				<stop offset="70%" stop-color="#A1A1A1" />
				<stop offset="75%" stop-color="#909090" />
				<stop offset="80%" stop-color="#7B7B7B" />
				<stop offset="85%" stop-color="#626262" />
				<stop offset="90%" stop-color="#454545" />
				<stop offset="95%" stop-color="#242424" />
				<stop offset="100%" stop-color="#000000" />
			</linearGradient>
		</defs>
		<polygon points="123.5,163.5 203.5,163.5 203.5,43.5 123.5,43.5" fill="url(#cyl3)" stroke="#000000" stroke-width="1.0" stroke-linecap="butt" stroke-linejoin="round" />
		<defs>
			<linearGradient id="cyl4" x1="0" y1="0" x2="0" y2="1">
				<stop offset="0%" stop-color="#000000" />
				<stop offset="5%" stop-color="#001830" />
				<stop offset="10%" stop-color="#002E5C" />
				<stop offset="15%" stop-color="#004182" />
				<stop offset="20%" stop-color="#0051A3" />
				<stop offset="25%" stop-color="#005FBF" />
				<stop offset="30%" stop-color="#006BD6" />
				<stop offset="35%" stop-color="#0074E8" />
				<stop offset="40%" stop-color="#007AF5" />
				<stop offset="45%" stop-color="#007EFC" />
				<stop offset="50%" stop-color="#007FFF" />
				<stop offset="55%" stop-color="#007EFC" />
				<stop offset="60%" stop-color="#007AF5" />
				<stop offset="65%" stop-color="#0074E8" />
				<stop offset="70%" stop-color="#006BD6" />
				<stop offset="75%" stop-color="#005FBF" />
				<stop offset="80%" stop-color="#0051A3" />
				<stop offset="85%" stop-color="#004182" />
				<stop offset="90%" stop-color="#002E5C" />
				<stop offset="95%" stop-color="#001830" />
				<stop offset="100%" stop-color="#000000" />
			</linearGradient>
		</defs>
		<polygon points="141.5,143.5 203.5,143.5 203.5,63.5 141.5,63.5" fill="url(#cyl4)" stroke="#000000" stroke-width="1.0" stroke-linecap="butt" stroke-linejoin="round" />
		<polygon points="163.5,103.5 163.2,96.6 162.3,89.8 160.8,83.1 158.8,76.5 156.2,70.1 153.1,64.0 149.4,58.2 145.3,52.7 140.7,47.5 135.7,42.8 130.2,38.6 124.5,34.8 118.4,31.5 112.1,28.8 105.6,26.6 98.9,25.0 92.1,24.0 85.2,23.5 78.3,23.7 71.5,24.4 64.7,25.7 58.1,27.6 51.7,30.1 45.5,33.1 39.6,36.6 34.0,40.6 28.8,45.1 24.0,50.1 19.6,55.4 15.7,61.0 12.3,67.0 9.4,73.3 7.1,79.8 5.3,86.4 4.2,93.2 3.6,100.1 3.6,106.9 4.2,113.8 5.3,120.6 7.1,127.2 9.4,133.7 12.3,140.0 15.7,146.0 19.6,151.6 24.0,156.9 28.8,161.9 34.0,166.4 39.6,170.4 45.5,173.9 51.7,176.9 58.1,179.4 64.7,181.3 71.5,182.6 78.3,183.3 85.2,183.5 92.1,183.0 98.9,182.0 105.6,180.4 112.1,178.2 118.4,175.5 124.5,172.2 130.2,168.4 135.7,164.2 140.7,159.5 145.3,154.3 149.4,148.8 153.1,143.0 156.2,136.9 158.8,130.5 160.8,123.9 162.3,117.2 163.2,110.4" fill="#FFFFFF" stroke="#0000FF" stroke-width="1.0" stroke-linecap="butt" stroke-linejoin="round" />
		<polygon points="43.5,33.5 163.5,103.5 43.5,171.5" fill="#0000FF" stroke="#0000FF" stroke-width="1.0" stroke-linecap="butt" stroke-linejoin="round" />
		<text x="84.5" y="132.0" text-anchor="middle" fill="#FF0000" font-size="82.4px" font-family="sans-serif">m</text>
		<polygon points="85.5,77.5 85.5,77.2 85.4,76.8 85.4,76.5 85.3,76.1 85.1,75.8 85.0,75.5 84.8,75.2 84.6,75.0 84.4,74.7 84.1,74.5 83.8,74.3 83.5,74.1 83.2,73.9 82.9,73.8 82.6,73.7 82.3,73.6 81.9,73.5 81.6,73.5 81.2,73.5 80.9,73.5 80.6,73.6 80.2,73.7 79.9,73.8 79.6,74.0 79.3,74.2 79.0,74.4 78.8,74.6 78.5,74.8 78.3,75.1 78.1,75.4 77.9,75.7 77.8,76.0 77.7,76.3 77.6,76.6 77.5,77.0 77.5,77.3 77.5,77.7 77.5,78.0 77.6,78.4 77.7,78.7 77.8,79.0 77.9,79.3 78.1,79.6 78.3,79.9 78.5,80.2 78.8,80.4 79.0,80.6 79.3,80.8 79.6,81.0 79.9,81.2 80.2,81.3 80.6,81.4 80.9,81.5 81.2,81.5 81.6,81.5 81.9,81.5 82.3,81.4 82.6,81.3 82.9,81.2 83.2,81.1 83.5,80.9 83.8,80.7 84.1,80.5 84.4,80.3 84.6,80.0 84.8,79.8 85.0,79.5 85.1,79.2 85.3,78.9 85.4,78.5 85.4,78.2 85.5,77.8" fill="#FF0000" stroke="#FF0000" stroke-width="1.0" stroke-linecap="butt" stroke-linejoin="round" />
		<g id="port" class="port">
			<polygon points="203.3,113.7 223.7,113.7 223.7,93.3 203.3,93.3" fill-opacity="0" stroke="#FF0000" stroke-dasharray="3 4" stroke-width="1.0" stroke-linecap="butt" stroke-linejoin="round" />
			<polygon points="223.5,103.5 223.5,102.6 223.4,101.8 223.2,100.9 222.9,100.1 222.6,99.3 222.2,98.6 221.7,97.8 221.2,97.1 220.6,96.5 220.0,95.9 219.3,95.4 218.6,94.9 217.9,94.5 217.1,94.2 216.3,93.9 215.4,93.7 214.6,93.6 213.7,93.5 212.9,93.5 212.0,93.6 211.2,93.8 210.3,94.0 209.5,94.3 208.8,94.7 208.0,95.1 207.3,95.6 206.7,96.2 206.1,96.8 205.5,97.5 205.0,98.2 204.6,98.9 204.2,99.7 204.0,100.5 203.7,101.4 203.6,102.2 203.5,103.1 203.5,103.9 203.6,104.8 203.7,105.6 204.0,106.5 204.2,107.3 204.6,108.1 205.0,108.8 205.5,109.5 206.1,110.2 206.7,110.8 207.3,111.4 208.0,111.9 208.8,112.3 209.5,112.7 210.3,113.0 211.2,113.2 212.0,113.4 212.9,113.5 213.7,113.5 214.6,113.4 215.4,113.3 216.3,113.1 217.1,112.8 217.9,112.5 218.6,112.1 219.3,111.6 220.0,111.1 220.6,110.5 221.2,109.9 221.7,109.2 222.2,108.4 222.6,107.7 222.9,106.9 223.2,106.1 223.4,105.2 223.5,104.4" fill="#007FFF" stroke="#007FFF" stroke-width="1.0" stroke-linecap="butt" stroke-linejoin="round" />
			<polygon points="223.5,103.5 223.5,102.6 223.4,101.8 223.2,100.9 222.9,100.1 222.6,99.3 222.2,98.6 221.7,97.8 221.2,97.1 220.6,96.5 220.0,95.9 219.3,95.4 218.6,94.9 217.9,94.5 217.1,94.2 216.3,93.9 215.4,93.7 214.6,93.6 213.7,93.5 212.9,93.5 212.0,93.6 211.2,93.8 210.3,94.0 209.5,94.3 208.8,94.7 208.0,95.1 207.3,95.6 206.7,96.2 206.1,96.8 205.5,97.5 205.0,98.2 204.6,98.9 204.2,99.7 204.0,100.5 203.7,101.4 203.6,102.2 203.5,103.1 203.5,103.9 203.6,104.8 203.7,105.6 204.0,106.5 204.2,107.3 204.6,108.1 205.0,108.8 205.5,109.5 206.1,110.2 206.7,110.8 207.3,111.4 208.0,111.9 208.8,112.3 209.5,112.7 210.3,113.0 211.2,113.2 212.0,113.4 212.9,113.5 213.7,113.5 214.6,113.4 215.4,113.3 216.3,113.1 217.1,112.8 217.9,112.5 218.6,112.1 219.3,111.6 220.0,111.1 220.6,110.5 221.2,109.9 221.7,109.2 222.2,108.4 222.6,107.7 222.9,106.9 223.2,106.1 223.4,105.2 223.5,104.4" fill="#007FFF" stroke="#000000" stroke-width="1.0" stroke-linecap="butt" stroke-linejoin="round" />
			<polygon points="221.5,103.5 221.5,102.8 221.4,102.1 221.2,101.5 221.0,100.8 220.8,100.2 220.5,99.5 220.1,99.0 219.7,98.4 219.2,97.9 218.7,97.4 218.2,97.0 217.6,96.6 217.0,96.3 216.4,96.0 215.7,95.8 215.0,95.6 214.4,95.5 213.7,95.5 213.0,95.5 212.3,95.6 211.6,95.7 211.0,95.9 210.3,96.2 209.7,96.5 209.1,96.8 208.6,97.2 208.0,97.7 207.5,98.2 207.1,98.7 206.7,99.3 206.4,99.9 206.1,100.5 205.9,101.1 205.7,101.8 205.6,102.5 205.5,103.2 205.5,103.8 205.6,104.5 205.7,105.2 205.9,105.9 206.1,106.5 206.4,107.1 206.7,107.7 207.1,108.3 207.5,108.8 208.0,109.3 208.6,109.8 209.1,110.2 209.7,110.5 210.3,110.8 211.0,111.1 211.6,111.3 212.3,111.4 213.0,111.5 213.7,111.5 214.4,111.5 215.0,111.4 215.7,111.2 216.4,111.0 217.0,110.7 217.6,110.4 218.2,110.0 218.7,109.6 219.2,109.1 219.7,108.6 220.1,108.0 220.5,107.5 220.8,106.8 221.0,106.2 221.2,105.5 221.4,104.9 221.5,104.2" fill="#FFFFFF" stroke="#007FFF" stroke-width="1.0" stroke-linecap="butt" stroke-linejoin="round" />
		</g>
	</g>
</svg>
