<svg width="213" height="263" xmlns="http://www.w3.org/2000/svg" xmlns:xlink="http://www.w3.org/1999/xlink">
	<g id="Modelica.Electrical.PowerConverters.ACDC.Control.VoltageBridge2Pulse" class="component">
		<polygon points="11.5,221.5 211.5,221.5 211.5,21.5 11.5,21.5" fill="#FFFFFF" stroke="#00007F" stroke-width="1.0" stroke-linecap="butt" stroke-linejoin="round" />
		<polyline points="71.5,141.5 71.5,145.5 91.5,145.5 91.5,161.5 71.5,161.5 71.5,181.5" fill-opacity="0" stroke="#FF00FF" stroke-width="1.0" stroke-linecap="butt" stroke-linejoin="round" />
		<polyline points="131.5,141.5 131.5,165.5 151.5,165.5 151.5,181.5 131.5,181.5" fill-opacity="0" stroke="#FF00FF" stroke-width="1.0" stroke-linecap="butt" stroke-linejoin="round" />
		<text x="111.5" y="120.1" text-anchor="middle" fill="#FF00FF" font-size="79.7px" font-family="sans-serif">2</text>
		<g id="firingAngle" class="port">
			<polygon points="91.5,261.5 111.5,221.5 131.5,261.5" fill="#00007F" stroke="#00007F" stroke-width="1.0" stroke-linecap="butt" stroke-linejoin="round" />
		</g>
		<g id="ac_p" class="port">
			<polygon points="1.5,71.5 21.5,71.5 21.5,51.5 1.5,51.5" fill="#0000FF" stroke="#0000FF" stroke-width="1.0" stroke-linecap="butt" stroke-linejoin="round" />
		</g>
		<g id="ac_n" class="port">
			<polygon points="1.5,191.5 21.5,191.5 21.5,171.5 1.5,171.5" fill="#FFFFFF" stroke="#0000FF" stroke-width="1.0" stroke-linecap="butt" stroke-linejoin="round" />
		</g>
		<g id="fire_p" class="port">
			<polygon points="41.5,21.5 51.5,1.5 61.5,21.5" fill="#FFFFFF" stroke="#FF00FF" stroke-width="1.0" stroke-linecap="butt" stroke-linejoin="round" />
		</g>
		<g id="fire_n" class="port">
			<polygon points="161.5,21.5 171.5,1.5 181.5,21.5" fill="#FFFFFF" stroke="#FF00FF" stroke-width="1.0" stroke-linecap="butt" stroke-linejoin="round" />
		</g>
	</g>
</svg>
