<svg width="213" height="243" xmlns="http://www.w3.org/2000/svg" xmlns:xlink="http://www.w3.org/1999/xlink">
	<g id="Modelica.Mechanics.MultiBody.Forces.Force" class="component">
		<polygon points="8.3,239.5 205.3,239.5 205.3,42.5 8.3,42.5" fill="#FFFFFF" stroke="#FFFFFF" stroke-width="1.0" stroke-linecap="butt" stroke-linejoin="round" />
		<text x="103.8" y="106.2" text-anchor="middle" fill="#C0C0C0" font-size="34.5px" font-family="sans-serif">resolve</text>
		<polyline points="146.3,41.5 146.3,141.5" fill-opacity="0" stroke="#5F5F5F" stroke-dasharray="1 2" stroke-width="1.0" stroke-linecap="butt" stroke-linejoin="round" />
		<polygon points="12.3,141.5 42.3,130.5 42.3,151.5" fill="#000000" stroke="#000000" stroke-width="1.0" stroke-linecap="butt" stroke-linejoin="round" />
		<polyline points="46.3,41.5 146.3,41.5" fill-opacity="0" stroke="#5F5F5F" stroke-dasharray="1 2" stroke-width="1.0" stroke-linecap="butt" stroke-linejoin="round" />
		<polygon points="200.3,141.5 171.3,129.5 171.3,152.5" fill="#000000" stroke="#000000" stroke-width="1.0" stroke-linecap="butt" stroke-linejoin="round" />
		<polyline points="42.3,141.5 86.3,141.5" fill-opacity="0" stroke="#000000" stroke-width="1.0" stroke-linecap="butt" stroke-linejoin="round" />
		<polyline points="126.3,141.5 171.3,141.5" fill-opacity="0" stroke="#000000" stroke-width="1.0" stroke-linecap="butt" stroke-linejoin="round" />
		<g id="frame_a" class="port">
			<polygon points="4.7,143.1 7.9,143.1 7.9,139.9 4.7,139.9" fill-opacity="0" stroke="#5F5F5F" stroke-width="1.0" stroke-linecap="butt" stroke-linejoin="round" />
			<polygon points="1.5,157.5 11.1,157.5 11.1,125.5 1.5,125.5" fill="#C0C0C0" stroke="#000000" stroke-width="1.0" stroke-linecap="butt" stroke-linejoin="round" />
		</g>
		<g id="frame_b" class="port">
			<polygon points="204.7,143.1 207.9,143.1 207.9,139.9 204.7,139.9" fill-opacity="0" stroke="#5F5F5F" stroke-width="1.0" stroke-linecap="butt" stroke-linejoin="round" />
			<polygon points="201.5,157.5 211.1,157.5 211.1,125.5 201.5,125.5" fill="#FFFFFF" stroke="#000000" stroke-width="1.0" stroke-linecap="butt" stroke-linejoin="round" />
		</g>
		<g id="frame_resolve" class="port">
			<polygon points="147.9,43.1 147.9,39.9 144.7,39.9 144.7,43.1" fill-opacity="0" stroke="#5F5F5F" stroke-dasharray="1 2" stroke-width="1.0" stroke-linecap="butt" stroke-linejoin="round" />
			<polygon points="162.3,46.3 162.3,36.7 130.3,36.7 130.3,46.3" fill="#FFFFFF" stroke="#5F5F5F" stroke-dasharray="1 2" stroke-width="1.0" stroke-linecap="butt" stroke-linejoin="round" />
		</g>
		<g id="force" class="port">
			<polygon points="66.3,1.5 46.3,41.5 26.3,1.5" fill="#00007F" stroke="#00007F" stroke-width="1.0" stroke-linecap="butt" stroke-linejoin="round" />
		</g>
	</g>
</svg>
