<svg width="263" height="203" xmlns="http://www.w3.org/2000/svg" xmlns:xlink="http://www.w3.org/1999/xlink">
	<g id="Modelica.ComplexBlocks.Routing.ExtractSignal" class="component">
		<polygon points="41.5,201.5 241.5,201.5 241.5,1.5 41.5,1.5" fill="#FFFFFF" stroke="#00007F" stroke-width="1.0" stroke-linecap="round" stroke-linejoin="round" />
		<polygon points="51.5,150.5 91.5,150.5 91.5,50.5 51.5,50.5" fill="#FFFFFF" stroke="#00007F" stroke-width="1.0" stroke-linecap="round" stroke-linejoin="round" />
		<polygon points="191.5,151.5 231.5,151.5 231.5,51.5 191.5,51.5" fill="#FFFFFF" stroke="#00007F" stroke-width="1.0" stroke-linecap="round" stroke-linejoin="round" />
		<polygon points="47.1,99.6 47.1,103.6 51.1,101.6" fill="#00007F" stroke="#00007F" stroke-width="1.0" stroke-linecap="round" stroke-linejoin="round" />
		<polyline points="69.5,99.5 81.4,88.6 92.4,88.6" fill-opacity="0" stroke="#00007F" stroke-width="1.0" stroke-linecap="round" stroke-linejoin="round" />
		<polyline points="68.5,97.5 82.5,61.5 92.5,61.5" fill-opacity="0" stroke="#00007F" stroke-width="1.0" stroke-linecap="round" stroke-linejoin="round" />
		<polyline points="28.5,101.5 65.5,101.5" fill-opacity="0" stroke="#00007F" stroke-width="1.0" stroke-linecap="round" stroke-linejoin="round" />
		<polyline points="68.5,106.5 81.5,141.5 92.5,141.5" fill-opacity="0" stroke="#00007F" stroke-width="1.0" stroke-linecap="round" stroke-linejoin="round" />
		<polyline points="69.5,103.5 81.4,114.4 92.4,114.4" fill-opacity="0" stroke="#00007F" stroke-width="1.0" stroke-linecap="round" stroke-linejoin="round" />
		<polygon points="92.6,112.5 92.6,116.5 96.6,114.5" fill="#FFFFFF" stroke="#00007F" stroke-width="1.0" stroke-linecap="round" stroke-linejoin="round" />
		<polyline points="95.5,88.5 106.5,88.5 176.5,131.5 186.5,131.5" fill-opacity="0" stroke="#00007F" stroke-width="1.0" stroke-linecap="round" stroke-linejoin="round" />
		<polyline points="96.5,61.5 106.5,61.5 176.5,101.5 185.5,101.5" fill-opacity="0" stroke="#00007F" stroke-width="1.0" stroke-linecap="round" stroke-linejoin="round" />
		<polyline points="96.5,141.5 107.5,141.5 176.5,71.5 185.5,71.5" fill-opacity="0" stroke="#00007F" stroke-width="1.0" stroke-linecap="round" stroke-linejoin="round" />
		<polygon points="92.5,59.5 92.5,63.5 96.5,61.5" fill="#FFFFFF" stroke="#00007F" stroke-width="1.0" stroke-linecap="round" stroke-linejoin="round" />
		<polygon points="92.6,139.5 92.6,143.5 96.6,141.5" fill="#FFFFFF" stroke="#00007F" stroke-width="1.0" stroke-linecap="round" stroke-linejoin="round" />
		<polygon points="92.5,86.6 92.5,90.6 96.5,88.6" fill="#FFFFFF" stroke="#00007F" stroke-width="1.0" stroke-linecap="round" stroke-linejoin="round" />
		<polyline points="221.5,101.5 241.5,101.5" fill-opacity="0" stroke="#00007F" stroke-width="1.0" stroke-linecap="round" stroke-linejoin="round" />
		<polygon points="184.7,69.2 184.7,73.2 188.7,71.2" fill="#00007F" stroke="#00007F" stroke-width="1.0" stroke-linecap="round" stroke-linejoin="round" />
		<polygon points="184.8,99.7 184.8,103.7 188.8,101.7" fill="#00007F" stroke="#00007F" stroke-width="1.0" stroke-linecap="round" stroke-linejoin="round" />
		<polygon points="185.4,129.7 185.4,133.7 189.4,131.7" fill="#00007F" stroke="#00007F" stroke-width="1.0" stroke-linecap="round" stroke-linejoin="round" />
		<polyline points="189.5,101.5 211.5,101.5" fill-opacity="0" stroke="#00007F" stroke-width="1.0" stroke-linecap="round" stroke-linejoin="round" />
		<polyline points="188.5,71.5 201.5,71.5 214.5,98.5" fill-opacity="0" stroke="#00007F" stroke-width="1.0" stroke-linecap="round" stroke-linejoin="round" />
		<polyline points="190.5,131.5 201.5,131.5 215.5,105.5" fill-opacity="0" stroke="#00007F" stroke-width="1.0" stroke-linecap="round" stroke-linejoin="round" />
		<polygon points="70.5,101.7 70.4,101.2 70.4,100.8 70.3,100.4 70.2,100.1 70.0,99.7 69.8,99.3 69.6,99.0 69.3,98.6 69.0,98.3 68.7,98.1 68.4,97.8 68.0,97.6 67.6,97.4 67.2,97.2 66.8,97.1 66.4,97.0 66.0,96.9 65.6,96.9 65.1,96.9 64.7,97.0 64.3,97.0 63.9,97.2 63.5,97.3 63.1,97.5 62.7,97.7 62.4,97.9 62.0,98.2 61.7,98.5 61.5,98.8 61.2,99.1 61.0,99.5 60.8,99.9 60.7,100.2 60.6,100.6 60.5,101.0 60.5,101.5 60.5,101.9 60.5,102.3 60.6,102.7 60.7,103.1 60.8,103.5 61.0,103.8 61.2,104.2 61.5,104.5 61.7,104.8 62.0,105.1 62.4,105.4 62.7,105.6 63.1,105.8 63.5,106.0 63.9,106.2 64.3,106.3 64.7,106.4 65.1,106.4 65.6,106.4 66.0,106.4 66.4,106.3 66.8,106.2 67.2,106.1 67.6,105.9 68.0,105.7 68.4,105.5 68.7,105.3 69.0,105.0 69.3,104.7 69.6,104.3 69.8,104.0 70.0,103.6 70.2,103.3 70.3,102.9 70.4,102.5 70.4,102.1" fill="#55AAFF" stroke="#00007F" stroke-width="1.0" stroke-linecap="round" stroke-linejoin="round" />
		<polygon points="220.8,102.1 220.8,101.7 220.7,101.3 220.6,100.9 220.5,100.5 220.3,100.1 220.2,99.8 219.9,99.4 219.7,99.1 219.4,98.8 219.1,98.5 218.7,98.3 218.4,98.0 218.0,97.8 217.6,97.7 217.2,97.6 216.8,97.5 216.3,97.4 215.9,97.4 215.5,97.4 215.1,97.4 214.6,97.5 214.2,97.6 213.8,97.8 213.4,97.9 213.1,98.2 212.7,98.4 212.4,98.7 212.1,98.9 211.8,99.3 211.6,99.6 211.4,100.0 211.2,100.3 211.0,100.7 210.9,101.1 210.8,101.5 210.8,101.9 210.8,102.3 210.8,102.7 210.9,103.1 211.0,103.5 211.2,103.9 211.4,104.3 211.6,104.6 211.8,105.0 212.1,105.3 212.4,105.6 212.7,105.9 213.1,106.1 213.4,106.3 213.8,106.5 214.2,106.6 214.6,106.7 215.1,106.8 215.5,106.9 215.9,106.9 216.3,106.8 216.8,106.8 217.2,106.7 217.6,106.6 218.0,106.4 218.4,106.2 218.7,106.0 219.1,105.7 219.4,105.4 219.7,105.1 219.9,104.8 220.2,104.5 220.3,104.1 220.5,103.7 220.6,103.3 220.7,102.9 220.8,102.5" fill="#55AAFF" stroke="#00007F" stroke-width="1.0" stroke-linecap="round" stroke-linejoin="round" />
		<g id="u" class="port">
			<polygon points="3.0,120.0 4.6,121.1 6.5,121.5 6.5,121.5 11.3,121.5 21.5,121.5 21.5,121.5 31.7,121.5 36.5,121.5 36.5,121.5 38.4,121.1 40.0,120.0 40.0,120.0 41.1,118.4 41.5,116.5 41.5,116.5 41.5,111.7 41.5,101.5 41.5,101.5 41.5,91.3 41.5,86.5 41.5,86.5 41.1,84.6 40.0,83.0 40.0,83.0 38.4,81.9 36.5,81.5 36.5,81.5 31.7,81.5 21.5,81.5 21.5,81.5 11.3,81.5 6.5,81.5 6.5,81.5 4.6,81.9 3.0,83.0 3.0,83.0 1.9,84.6 1.5,86.5 1.5,86.5 1.5,91.3 1.5,101.5 1.5,101.5 1.5,111.7 1.5,116.5 1.5,116.5 1.9,118.4" fill="#A0A0A4" stroke="#A0A0A4" stroke-width="1.0" stroke-linecap="round" stroke-linejoin="round" />
			<text x="21.5" y="111.4" text-anchor="middle" fill="#FFFFFF" font-size="26.6px" font-family="sans-serif">C</text>
			<polygon points="1.5,81.5 41.5,101.5 1.5,121.5" fill="#55AAFF" stroke="#55AAFF" stroke-width="1.0" stroke-linecap="round" stroke-linejoin="round" />
		</g>
		<g id="y" class="port">
			<polygon points="242.2,110.8 243.0,111.3 244.0,111.5 244.0,111.5 246.4,111.5 251.5,111.5 251.5,111.5 256.6,111.5 259.0,111.5 259.0,111.5 260.0,111.3 260.8,110.8 260.8,110.8 261.3,110.0 261.5,109.0 261.5,109.0 261.5,106.6 261.5,101.5 261.5,101.5 261.5,96.4 261.5,94.0 261.5,94.0 261.3,93.0 260.8,92.2 260.8,92.2 260.0,91.7 259.0,91.5 259.0,91.5 256.6,91.5 251.5,91.5 251.5,91.5 246.4,91.5 244.0,91.5 244.0,91.5 243.0,91.7 242.2,92.2 242.2,92.2 241.7,93.0 241.5,94.0 241.5,94.0 241.5,96.4 241.5,101.5 241.5,101.5 241.5,106.6 241.5,109.0 241.5,109.0 241.7,110.0" fill="#A0A0A4" stroke="#A0A0A4" stroke-width="1.0" stroke-linecap="round" stroke-linejoin="round" />
			<text x="251.5" y="106.7" text-anchor="middle" fill="#FFFFFF" font-size="13.3px" font-family="sans-serif">C</text>
			<polygon points="241.5,91.5 261.5,101.5 241.5,111.5" fill="#FFFFFF" stroke="#55AAFF" stroke-width="1.0" stroke-linecap="round" stroke-linejoin="round" />
		</g>
	</g>
</svg>
