<svg width="263" height="203" xmlns="http://www.w3.org/2000/svg" xmlns:xlink="http://www.w3.org/1999/xlink">
	<g id="Modelica.Electrical.Machines.Utilities.VfController" class="component">
		<polygon points="41.5,201.5 241.5,201.5 241.5,1.5 41.5,1.5" fill="#FFFFFF" stroke="#00007F" stroke-width="1.0" stroke-linecap="round" stroke-linejoin="round" />
		<polyline points="41.5,201.5 141.5,41.5 221.5,41.5" fill-opacity="0" stroke="#0000FF" stroke-width="1.0" stroke-linecap="round" stroke-linejoin="round" />
		<polyline points="71.5,101.5 76.4,86.6 79.5,77.3 82.2,69.6 84.5,63.3 84.5,63.3 86.1,59.3 87.6,55.6 89.1,52.3 90.5,49.2 90.5,49.2 91.6,47.0 92.7,44.9 93.7,43.0 94.8,41.4 95.8,39.8 95.8,39.8 97.0,38.2 98.2,36.7 99.5,35.4 100.7,34.3 100.7,34.3 102.4,33.2 104.0,32.4 105.6,32.0 105.6,32.0 107.3,32.0 108.9,32.4 110.6,33.1 110.6,33.1 112.2,34.2 113.8,35.7 115.4,37.5 115.4,37.5 116.7,39.1 117.9,40.9 119.2,42.8 120.4,45.0 120.4,45.0 121.4,46.9 122.4,49.0 123.5,51.2 124.6,53.6 125.7,56.2 125.7,56.2 127.6,61.0 129.7,66.6 132.0,72.9 132.0,72.9 134.8,81.0 138.4,91.9 142.9,105.6 142.9,105.6 147.4,119.2 150.9,129.7 153.4,137.0 153.4,137.0 155.0,141.1 156.5,144.9 158.0,148.4 159.4,151.6 159.4,151.6 160.6,154.0 161.7,156.1 162.7,158.1 163.8,160.0 164.8,161.6 164.8,161.6 166.0,163.4 167.2,165.1 168.4,166.6 169.6,167.8 169.6,167.8 171.3,169.2 172.9,170.2 174.6,170.8 174.6,170.8 177.0,171.1 179.5,170.4 179.5,170.4 181.2,169.6 182.8,168.3 184.4,166.7 184.4,166.7 185.7,165.3 186.9,163.6 188.1,161.8 189.4,159.8 189.4,159.8 190.3,158.0 191.4,156.1 192.4,154.0 193.5,151.7 194.6,149.2 194.6,149.2 196.6,144.6 198.7,139.2 201.0,133.0 201.0,133.0 203.3,126.4 205.7,119.5 208.0,112.4 211.5,101.5" fill-opacity="0" stroke="#C0C0C0" stroke-width="1.0" stroke-linecap="round" stroke-linejoin="round" />
		<polyline points="101.5,101.5 106.4,86.6 109.5,77.3 112.2,69.6 114.5,63.3 114.5,63.3 116.1,59.3 117.6,55.6 119.1,52.3 120.5,49.2 120.5,49.2 121.6,47.0 122.7,44.9 123.7,43.0 124.8,41.4 125.8,39.8 125.8,39.8 127.0,38.2 128.2,36.7 129.5,35.4 130.7,34.3 130.7,34.3 132.4,33.2 134.0,32.4 135.6,32.0 135.6,32.0 137.3,32.0 138.9,32.4 140.6,33.1 140.6,33.1 142.2,34.2 143.8,35.7 145.4,37.5 145.4,37.5 146.7,39.1 147.9,40.9 149.2,42.8 150.4,45.0 150.4,45.0 151.4,46.9 152.4,49.0 153.5,51.2 154.6,53.6 155.7,56.2 155.7,56.2 157.6,61.0 159.7,66.6 162.0,72.9 162.0,72.9 164.8,81.0 168.4,91.9 172.9,105.6 172.9,105.6 177.4,119.2 180.9,129.7 183.4,137.0 183.4,137.0 185.0,141.1 186.5,144.9 188.0,148.4 189.4,151.6 189.4,151.6 190.6,154.0 191.7,156.1 192.7,158.1 193.8,160.0 194.8,161.6 194.8,161.6 196.0,163.4 197.2,165.1 198.4,166.6 199.6,167.8 199.6,167.8 201.3,169.2 202.9,170.2 204.6,170.8 204.6,170.8 207.0,171.1 209.5,170.4 209.5,170.4 211.2,169.6 212.8,168.3 214.4,166.7 214.4,166.7 215.7,165.3 216.9,163.6 218.1,161.8 219.4,159.8 219.4,159.8 220.3,158.0 221.4,156.1 222.4,154.0 223.5,151.7 224.6,149.2 224.6,149.2 226.6,144.6 228.7,139.2 231.0,133.0 231.0,133.0 233.3,126.4 235.7,119.5 238.0,112.4 241.5,101.5" fill-opacity="0" stroke="#C0C0C0" stroke-width="1.0" stroke-linecap="round" stroke-linejoin="round" />
		<polyline points="41.5,101.5 46.4,86.6 49.5,77.3 52.2,69.6 54.5,63.3 54.5,63.3 56.1,59.3 57.6,55.6 59.1,52.3 60.5,49.2 60.5,49.2 61.6,47.0 62.7,44.9 63.7,43.0 64.8,41.4 65.8,39.8 65.8,39.8 67.0,38.2 68.2,36.7 69.5,35.4 70.7,34.3 70.7,34.3 72.4,33.2 74.0,32.4 75.6,32.0 75.6,32.0 77.3,32.0 78.9,32.4 80.6,33.1 80.6,33.1 82.2,34.2 83.8,35.7 85.4,37.5 85.4,37.5 86.7,39.1 87.9,40.9 89.2,42.8 90.4,45.0 90.4,45.0 91.4,46.9 92.4,49.0 93.5,51.2 94.6,53.6 95.7,56.2 95.7,56.2 97.6,61.0 99.7,66.6 102.0,72.9 102.0,72.9 104.8,81.0 108.4,91.9 112.9,105.6 112.9,105.6 117.4,119.2 120.9,129.7 123.4,137.0 123.4,137.0 125.0,141.1 126.5,144.9 128.0,148.4 129.4,151.6 129.4,151.6 130.6,154.0 131.7,156.1 132.7,158.1 133.8,160.0 134.8,161.6 134.8,161.6 136.0,163.4 137.2,165.1 138.4,166.6 139.6,167.8 139.6,167.8 141.3,169.2 142.9,170.2 144.6,170.8 144.6,170.8 147.0,171.1 149.5,170.4 149.5,170.4 151.2,169.6 152.8,168.3 154.4,166.7 154.4,166.7 155.7,165.3 156.9,163.6 158.1,161.8 159.4,159.8 159.4,159.8 160.3,158.0 161.4,156.1 162.4,154.0 163.5,151.7 164.6,149.2 164.6,149.2 166.6,144.6 168.7,139.2 171.0,133.0 171.0,133.0 173.3,126.4 175.7,119.5 178.0,112.4 181.5,101.5" fill-opacity="0" stroke="#C0C0C0" stroke-width="1.0" stroke-linecap="round" stroke-linejoin="round" />
		<g id="u" class="port">
			<polygon points="1.5,81.5 41.5,101.5 1.5,121.5" fill="#00007F" stroke="#00007F" stroke-width="1.0" stroke-linecap="round" stroke-linejoin="round" />
		</g>
		<g id="y" class="port">
			<polygon points="241.5,91.5 261.5,101.5 241.5,111.5" fill="#FFFFFF" stroke="#00007F" stroke-width="1.0" stroke-linecap="round" stroke-linejoin="round" />
		</g>
	</g>
</svg>
