<svg width="223" height="213" xmlns="http://www.w3.org/2000/svg" xmlns:xlink="http://www.w3.org/1999/xlink">
	<g id="Modelica.Mechanics.Rotational.Components.IdealPlanetary" class="component">
		<polygon points="61.5,6.5 161.5,6.5 161.5,1.5 61.5,1.5" fill="#A0A0A4" stroke="#A0A0A4" stroke-width="1.0" stroke-linecap="butt" stroke-linejoin="round" />
		<polygon points="61.5,211.5 161.5,211.5 161.5,206.5 61.5,206.5" fill="#A0A0A4" stroke="#A0A0A4" stroke-width="1.0" stroke-linecap="butt" stroke-linejoin="round" />
		<polyline points="21.5,66.5 41.5,66.5" fill-opacity="0" stroke="#000000" stroke-width="1.0" stroke-linecap="butt" stroke-linejoin="round" />
		<polyline points="31.5,56.5 51.5,56.5" fill-opacity="0" stroke="#000000" stroke-width="1.0" stroke-linecap="butt" stroke-linejoin="round" />
		<polyline points="41.5,56.5 41.5,66.5" fill-opacity="0" stroke="#000000" stroke-width="1.0" stroke-linecap="butt" stroke-linejoin="round" />
		<polyline points="31.5,26.5 52.5,26.5" fill-opacity="0" stroke="#000000" stroke-width="1.0" stroke-linecap="butt" stroke-linejoin="round" />
		<polyline points="41.5,6.5 41.5,26.5" fill-opacity="0" stroke="#000000" stroke-width="1.0" stroke-linecap="butt" stroke-linejoin="round" />
		<defs>
			<linearGradient id="cyl9" x1="0" y1="0" x2="0" y2="1">
				<stop offset="0%" stop-color="#404040" />
				<stop offset="5%" stop-color="#646464" />
				<stop offset="10%" stop-color="#858585" />
				<stop offset="15%" stop-color="#A1A1A1" />
				<stop offset="20%" stop-color="#BABABA" />
				<stop offset="25%" stop-color="#CFCFCF" />
				<stop offset="30%" stop-color="#E0E0E0" />
				<stop offset="35%" stop-color="#EEEEEE" />
				<stop offset="40%" stop-color="#F7F7F7" />
				<stop offset="45%" stop-color="#FDFDFD" />
				<stop offset="50%" stop-color="#FFFFFF" />
				<stop offset="55%" stop-color="#FDFDFD" />
				<stop offset="60%" stop-color="#F7F7F7" />
				<stop offset="65%" stop-color="#EEEEEE" />
				<stop offset="70%" stop-color="#E0E0E0" />
				<stop offset="75%" stop-color="#CFCFCF" />
				<stop offset="80%" stop-color="#BABABA" />
				<stop offset="85%" stop-color="#A1A1A1" />
				<stop offset="90%" stop-color="#858585" />
				<stop offset="95%" stop-color="#646464" />
				<stop offset="100%" stop-color="#404040" />
			</linearGradient>
		</defs>
		<polygon points="121.5,206.5 161.5,206.5 161.5,6.5 121.5,6.5" fill="url(#cyl9)" stroke="#404040" stroke-width="1.0" stroke-linecap="butt" stroke-linejoin="round" />
		<defs>
			<linearGradient id="cyl10" x1="0" y1="0" x2="0" y2="1">
				<stop offset="0%" stop-color="#404040" />
				<stop offset="5%" stop-color="#585858" />
				<stop offset="10%" stop-color="#6E6E6E" />
				<stop offset="15%" stop-color="#818181" />
				<stop offset="20%" stop-color="#929292" />
				<stop offset="25%" stop-color="#A0A0A0" />
				<stop offset="30%" stop-color="#ACACAC" />
				<stop offset="35%" stop-color="#B4B4B4" />
				<stop offset="40%" stop-color="#BBBBBB" />
				<stop offset="45%" stop-color="#BFBFBF" />
				<stop offset="50%" stop-color="#C0C0C0" />
				<stop offset="55%" stop-color="#BFBFBF" />
				<stop offset="60%" stop-color="#BBBBBB" />
				<stop offset="65%" stop-color="#B4B4B4" />
				<stop offset="70%" stop-color="#ACACAC" />
				<stop offset="75%" stop-color="#A0A0A0" />
				<stop offset="80%" stop-color="#929292" />
				<stop offset="85%" stop-color="#818181" />
				<stop offset="90%" stop-color="#6E6E6E" />
				<stop offset="95%" stop-color="#585858" />
				<stop offset="100%" stop-color="#404040" />
			</linearGradient>
		</defs>
		<polygon points="11.5,116.5 61.5,116.5 61.5,96.5 11.5,96.5" fill="url(#cyl10)" stroke="#404040" stroke-width="1.0" stroke-linecap="butt" stroke-linejoin="round" />
		<defs>
			<linearGradient id="cyl11" x1="0" y1="0" x2="0" y2="1">
				<stop offset="0%" stop-color="#404040" />
				<stop offset="5%" stop-color="#585858" />
				<stop offset="10%" stop-color="#6E6E6E" />
				<stop offset="15%" stop-color="#818181" />
				<stop offset="20%" stop-color="#929292" />
				<stop offset="25%" stop-color="#A0A0A0" />
				<stop offset="30%" stop-color="#ACACAC" />
				<stop offset="35%" stop-color="#B4B4B4" />
				<stop offset="40%" stop-color="#BBBBBB" />
				<stop offset="45%" stop-color="#BFBFBF" />
				<stop offset="50%" stop-color="#C0C0C0" />
				<stop offset="55%" stop-color="#BFBFBF" />
				<stop offset="60%" stop-color="#BBBBBB" />
				<stop offset="65%" stop-color="#B4B4B4" />
				<stop offset="70%" stop-color="#ACACAC" />
				<stop offset="75%" stop-color="#A0A0A0" />
				<stop offset="80%" stop-color="#929292" />
				<stop offset="85%" stop-color="#818181" />
				<stop offset="90%" stop-color="#6E6E6E" />
				<stop offset="95%" stop-color="#585858" />
				<stop offset="100%" stop-color="#404040" />
			</linearGradient>
		</defs>
		<polygon points="161.5,116.5 211.5,116.5 211.5,96.5 161.5,96.5" fill="url(#cyl11)" stroke="#404040" stroke-width="1.0" stroke-linecap="butt" stroke-linejoin="round" />
		<defs>
			<linearGradient id="cyl12" x1="0" y1="0" x2="0" y2="1">
				<stop offset="0%" stop-color="#404040" />
				<stop offset="5%" stop-color="#585858" />
				<stop offset="10%" stop-color="#6E6E6E" />
				<stop offset="15%" stop-color="#818181" />
				<stop offset="20%" stop-color="#929292" />
				<stop offset="25%" stop-color="#A0A0A0" />
				<stop offset="30%" stop-color="#ACACAC" />
				<stop offset="35%" stop-color="#B4B4B4" />
				<stop offset="40%" stop-color="#BBBBBB" />
				<stop offset="45%" stop-color="#BFBFBF" />
				<stop offset="50%" stop-color="#C0C0C0" />
				<stop offset="55%" stop-color="#BFBFBF" />
				<stop offset="60%" stop-color="#BBBBBB" />
				<stop offset="65%" stop-color="#B4B4B4" />
				<stop offset="70%" stop-color="#ACACAC" />
				<stop offset="75%" stop-color="#A0A0A0" />
				<stop offset="80%" stop-color="#929292" />
				<stop offset="85%" stop-color="#818181" />
				<stop offset="90%" stop-color="#6E6E6E" />
				<stop offset="95%" stop-color="#585858" />
				<stop offset="100%" stop-color="#404040" />
			</linearGradient>
		</defs>
		<polygon points="31.5,46.5 61.5,46.5 61.5,36.5 31.5,36.5" fill="url(#cyl12)" stroke="#404040" stroke-width="1.0" stroke-linecap="butt" stroke-linejoin="round" />
		<defs>
			<linearGradient id="cyl13" x1="0" y1="0" x2="0" y2="1">
				<stop offset="0%" stop-color="#000000" />
				<stop offset="5%" stop-color="#242424" />
				<stop offset="10%" stop-color="#454545" />
				<stop offset="15%" stop-color="#626262" />
				<stop offset="20%" stop-color="#7B7B7B" />
				<stop offset="25%" stop-color="#909090" />
				<stop offset="30%" stop-color="#A1A1A1" />
				<stop offset="35%" stop-color="#AFAFAF" />
				<stop offset="40%" stop-color="#B8B8B8" />
				<stop offset="45%" stop-color="#BEBEBE" />
				<stop offset="50%" stop-color="#C0C0C0" />
				<stop offset="55%" stop-color="#BEBEBE" />
				<stop offset="60%" stop-color="#B8B8B8" />
				<stop offset="65%" stop-color="#AFAFAF" />
				<stop offset="70%" stop-color="#A1A1A1" />
				<stop offset="75%" stop-color="#909090" />
				<stop offset="80%" stop-color="#7B7B7B" />
				<stop offset="85%" stop-color="#626262" />
				<stop offset="90%" stop-color="#454545" />
				<stop offset="95%" stop-color="#242424" />
				<stop offset="100%" stop-color="#000000" />
			</linearGradient>
		</defs>
		<polygon points="61.5,60.5 101.5,60.5 101.5,22.5 61.5,22.5" fill="url(#cyl13)" stroke="#000000" stroke-width="1.0" stroke-linecap="butt" stroke-linejoin="round" />
		<polygon points="61.5,60.5 101.5,60.5 101.5,56.5 61.5,56.5" fill="#999999" stroke="#000000" stroke-width="1.0" stroke-linecap="butt" stroke-linejoin="round" />
		<polygon points="61.5,26.5 101.5,26.5 101.5,22.5 61.5,22.5" fill="#CCCCCC" stroke="#000000" stroke-width="1.0" stroke-linecap="butt" stroke-linejoin="round" />
		<polygon points="61.5,51.5 101.5,51.5 101.5,43.5 61.5,43.5" fill="#CCCCCC" stroke="#000000" stroke-width="1.0" stroke-linecap="butt" stroke-linejoin="round" />
		<polygon points="61.5,36.5 101.5,36.5 101.5,30.5 61.5,30.5" fill="#FFFFFF" stroke="#000000" stroke-width="1.0" stroke-linecap="butt" stroke-linejoin="round" />
		<defs>
			<linearGradient id="cyl18" x1="0" y1="0" x2="0" y2="1">
				<stop offset="0%" stop-color="#000000" />
				<stop offset="5%" stop-color="#303030" />
				<stop offset="10%" stop-color="#5C5C5C" />
				<stop offset="15%" stop-color="#828282" />
				<stop offset="20%" stop-color="#A3A3A3" />
				<stop offset="25%" stop-color="#BFBFBF" />
				<stop offset="30%" stop-color="#D6D6D6" />
				<stop offset="35%" stop-color="#E8E8E8" />
				<stop offset="40%" stop-color="#F5F5F5" />
				<stop offset="45%" stop-color="#FCFCFC" />
				<stop offset="50%" stop-color="#FFFFFF" />
				<stop offset="55%" stop-color="#FCFCFC" />
				<stop offset="60%" stop-color="#F5F5F5" />
				<stop offset="65%" stop-color="#E8E8E8" />
				<stop offset="70%" stop-color="#D6D6D6" />
				<stop offset="75%" stop-color="#BFBFBF" />
				<stop offset="80%" stop-color="#A3A3A3" />
				<stop offset="85%" stop-color="#828282" />
				<stop offset="90%" stop-color="#5C5C5C" />
				<stop offset="95%" stop-color="#303030" />
				<stop offset="100%" stop-color="#000000" />
			</linearGradient>
		</defs>
		<polygon points="61.5,142.5 101.5,142.5 101.5,72.5 61.5,72.5" fill="url(#cyl18)" stroke="#000000" stroke-width="1.0" stroke-linecap="butt" stroke-linejoin="round" />
		<polygon points="61.5,76.5 101.5,76.5 101.5,72.5 61.5,72.5" fill="#999999" stroke="#000000" stroke-width="1.0" stroke-linecap="butt" stroke-linejoin="round" />
		<polygon points="61.5,86.5 101.5,86.5 101.5,80.5 61.5,80.5" fill="#CCCCCC" stroke="#000000" stroke-width="1.0" stroke-linecap="butt" stroke-linejoin="round" />
		<polygon points="61.5,120.5 101.5,120.5 101.5,112.5 61.5,112.5" fill="#CCCCCC" stroke="#000000" stroke-width="1.0" stroke-linecap="butt" stroke-linejoin="round" />
		<polygon points="61.5,142.5 101.5,142.5 101.5,138.5 61.5,138.5" fill="#666666" stroke="#000000" stroke-width="1.0" stroke-linecap="butt" stroke-linejoin="round" />
		<polygon points="61.5,134.5 101.5,134.5 101.5,128.5 61.5,128.5" fill="#999999" stroke="#000000" stroke-width="1.0" stroke-linecap="butt" stroke-linejoin="round" />
		<polygon points="61.5,102.5 101.5,102.5 101.5,94.5 61.5,94.5" fill="#FFFFFF" stroke="#000000" stroke-width="1.0" stroke-linecap="butt" stroke-linejoin="round" />
		<polygon points="61.5,60.5 101.5,60.5 101.5,22.5 61.5,22.5" fill-opacity="0" stroke="#000000" stroke-width="1.0" stroke-linecap="butt" stroke-linejoin="round" />
		<polygon points="61.5,142.5 101.5,142.5 101.5,72.5 61.5,72.5" fill-opacity="0" stroke="#000000" stroke-width="1.0" stroke-linecap="butt" stroke-linejoin="round" />
		<polygon points="121.5,206.5 161.5,206.5 161.5,6.5 121.5,6.5" fill-opacity="0" stroke="#404040" stroke-width="1.0" stroke-linecap="butt" stroke-linejoin="round" />
		<g id="sun" class="port">
			<polygon points="21.5,106.5 21.5,105.6 21.3,104.8 21.2,103.9 20.9,103.1 20.6,102.3 20.2,101.6 19.7,100.8 19.2,100.1 18.6,99.5 18.0,98.9 17.3,98.4 16.6,97.9 15.9,97.5 15.1,97.2 14.3,96.9 13.4,96.7 12.6,96.6 11.7,96.5 10.8,96.5 10.0,96.6 9.1,96.8 8.3,97.0 7.5,97.3 6.7,97.7 6.0,98.1 5.3,98.6 4.7,99.2 4.0,99.8 3.5,100.5 3.0,101.2 2.6,101.9 2.2,102.7 1.9,103.5 1.7,104.4 1.6,105.2 1.5,106.1 1.5,106.9 1.6,107.8 1.7,108.6 1.9,109.5 2.2,110.3 2.6,111.1 3.0,111.8 3.5,112.5 4.0,113.2 4.7,113.8 5.3,114.4 6.0,114.9 6.7,115.3 7.5,115.7 8.3,116.0 9.1,116.2 10.0,116.4 10.8,116.5 11.7,116.5 12.6,116.4 13.4,116.3 14.3,116.1 15.1,115.8 15.9,115.5 16.6,115.1 17.3,114.6 18.0,114.1 18.6,113.5 19.2,112.9 19.7,112.2 20.2,111.4 20.6,110.7 20.9,109.9 21.2,109.1 21.3,108.2 21.5,107.4" fill="#5F5F5F" stroke="#000000" stroke-width="1.0" stroke-linecap="butt" stroke-linejoin="round" />
		</g>
		<g id="carrier" class="port">
			<polygon points="21.5,66.5 21.5,65.6 21.3,64.8 21.2,63.9 20.9,63.1 20.6,62.3 20.2,61.6 19.7,60.8 19.2,60.1 18.6,59.5 18.0,58.9 17.3,58.4 16.6,57.9 15.9,57.5 15.1,57.2 14.3,56.9 13.4,56.7 12.6,56.6 11.7,56.5 10.8,56.5 10.0,56.6 9.1,56.8 8.3,57.0 7.5,57.3 6.7,57.7 6.0,58.1 5.3,58.6 4.7,59.2 4.0,59.8 3.5,60.5 3.0,61.2 2.6,61.9 2.2,62.7 1.9,63.5 1.7,64.4 1.6,65.2 1.5,66.1 1.5,66.9 1.6,67.8 1.7,68.6 1.9,69.5 2.2,70.3 2.6,71.1 3.0,71.8 3.5,72.5 4.0,73.2 4.7,73.8 5.3,74.4 6.0,74.9 6.7,75.3 7.5,75.7 8.3,76.0 9.1,76.2 10.0,76.4 10.8,76.5 11.7,76.5 12.6,76.4 13.4,76.3 14.3,76.1 15.1,75.8 15.9,75.5 16.6,75.1 17.3,74.6 18.0,74.1 18.6,73.5 19.2,72.9 19.7,72.2 20.2,71.4 20.6,70.7 20.9,69.9 21.2,69.1 21.3,68.2 21.5,67.4" fill="#5F5F5F" stroke="#000000" stroke-width="1.0" stroke-linecap="butt" stroke-linejoin="round" />
		</g>
		<g id="ring" class="port">
			<polygon points="221.5,106.5 221.5,105.6 221.3,104.8 221.2,103.9 220.9,103.1 220.6,102.3 220.2,101.6 219.7,100.8 219.2,100.1 218.6,99.5 218.0,98.9 217.3,98.4 216.6,97.9 215.9,97.5 215.1,97.2 214.3,96.9 213.4,96.7 212.6,96.6 211.7,96.5 210.8,96.5 210.0,96.6 209.1,96.8 208.3,97.0 207.5,97.3 206.7,97.7 206.0,98.1 205.3,98.6 204.7,99.2 204.0,99.8 203.5,100.5 203.0,101.2 202.6,101.9 202.2,102.7 201.9,103.5 201.7,104.4 201.6,105.2 201.5,106.1 201.5,106.9 201.6,107.8 201.7,108.6 201.9,109.5 202.2,110.3 202.6,111.1 203.0,111.8 203.5,112.5 204.0,113.2 204.7,113.8 205.3,114.4 206.0,114.9 206.7,115.3 207.5,115.7 208.3,116.0 209.1,116.2 210.0,116.4 210.8,116.5 211.7,116.5 212.6,116.4 213.4,116.3 214.3,116.1 215.1,115.8 215.9,115.5 216.6,115.1 217.3,114.6 218.0,114.1 218.6,113.5 219.2,112.9 219.7,112.2 220.2,111.4 220.6,110.7 220.9,109.9 221.2,109.1 221.3,108.2 221.5,107.4" fill="#FFFFFF" stroke="#000000" stroke-width="1.0" stroke-linecap="butt" stroke-linejoin="round" />
		</g>
	</g>
</svg>
