<svg width="103" height="403" xmlns="http://www.w3.org/2000/svg" xmlns:xlink="http://www.w3.org/1999/xlink">
	<g id="Modelica.Fluid.Interfaces.FluidPorts_b" class="component">
		<polygon points="1.5,401.5 101.5,401.5 101.5,1.5 1.5,1.5" fill="#FFFFFF" stroke="#007FFF" stroke-width="1.0" stroke-linecap="round" stroke-linejoin="round" />
		<polygon points="101.5,71.5 101.3,67.2 100.8,62.9 99.8,58.7 98.6,54.6 96.9,50.6 95.0,46.8 92.7,43.2 90.1,39.7 87.2,36.5 84.1,33.6 80.7,30.9 77.1,28.6 73.3,26.5 69.4,24.8 65.3,23.4 61.1,22.4 56.9,21.8 52.6,21.5 48.3,21.6 44.0,22.1 39.8,22.9 35.6,24.1 31.6,25.6 27.8,27.5 24.1,29.7 20.6,32.2 17.3,35.0 14.3,38.1 11.6,41.4 9.1,45.0 7.0,48.7 5.2,52.6 3.8,56.7 2.7,60.8 1.9,65.1 1.5,69.3 1.5,73.7 1.9,77.9 2.7,82.2 3.8,86.3 5.2,90.4 7.0,94.3 9.1,98.0 11.6,101.6 14.3,104.9 17.3,108.0 20.6,110.8 24.1,113.3 27.8,115.5 31.6,117.4 35.6,118.9 39.8,120.1 44.0,120.9 48.3,121.4 52.6,121.5 56.9,121.2 61.1,120.6 65.3,119.6 69.4,118.2 73.3,116.5 77.1,114.4 80.7,112.1 84.1,109.4 87.2,106.5 90.1,103.3 92.7,99.8 95.0,96.2 96.9,92.4 98.6,88.4 99.8,84.3 100.8,80.1 101.3,75.8" fill="#007FFF" stroke="#000000" stroke-width="1.0" stroke-linecap="round" stroke-linejoin="round" />
		<polygon points="101.5,201.5 101.3,197.2 100.8,192.9 99.8,188.7 98.6,184.6 96.9,180.6 95.0,176.8 92.7,173.2 90.1,169.7 87.2,166.5 84.1,163.6 80.7,160.9 77.1,158.6 73.3,156.5 69.4,154.8 65.3,153.4 61.1,152.4 56.9,151.8 52.6,151.5 48.3,151.6 44.0,152.1 39.8,152.9 35.6,154.1 31.6,155.6 27.8,157.5 24.1,159.7 20.6,162.2 17.3,165.0 14.3,168.1 11.6,171.4 9.1,175.0 7.0,178.7 5.2,182.6 3.8,186.7 2.7,190.8 1.9,195.1 1.5,199.3 1.5,203.7 1.9,207.9 2.7,212.2 3.8,216.3 5.2,220.4 7.0,224.3 9.1,228.0 11.6,231.6 14.3,234.9 17.3,238.0 20.6,240.8 24.1,243.3 27.8,245.5 31.6,247.4 35.6,248.9 39.8,250.1 44.0,250.9 48.3,251.4 52.6,251.5 56.9,251.2 61.1,250.6 65.3,249.6 69.4,248.2 73.3,246.5 77.1,244.4 80.7,242.1 84.1,239.4 87.2,236.5 90.1,233.3 92.7,229.8 95.0,226.2 96.9,222.4 98.6,218.4 99.8,214.3 100.8,210.1 101.3,205.8" fill="#007FFF" stroke="#000000" stroke-width="1.0" stroke-linecap="round" stroke-linejoin="round" />
		<polygon points="101.5,331.5 101.3,327.2 100.8,322.9 99.8,318.7 98.6,314.6 96.9,310.6 95.0,306.8 92.7,303.2 90.1,299.7 87.2,296.5 84.1,293.6 80.7,290.9 77.1,288.6 73.3,286.5 69.4,284.8 65.3,283.4 61.1,282.4 56.9,281.8 52.6,281.5 48.3,281.6 44.0,282.1 39.8,282.9 35.6,284.1 31.6,285.6 27.8,287.5 24.1,289.7 20.6,292.2 17.3,295.0 14.3,298.1 11.6,301.4 9.1,305.0 7.0,308.7 5.2,312.6 3.8,316.7 2.7,320.8 1.9,325.1 1.5,329.3 1.5,333.7 1.9,337.9 2.7,342.2 3.8,346.3 5.2,350.4 7.0,354.3 9.1,358.0 11.6,361.6 14.3,364.9 17.3,368.0 20.6,370.8 24.1,373.3 27.8,375.5 31.6,377.4 35.6,378.9 39.8,380.1 44.0,380.9 48.3,381.4 52.6,381.5 56.9,381.2 61.1,380.6 65.3,379.6 69.4,378.2 73.3,376.5 77.1,374.4 80.7,372.1 84.1,369.4 87.2,366.5 90.1,363.3 92.7,359.8 95.0,356.2 96.9,352.4 98.6,348.4 99.8,344.3 100.8,340.1 101.3,335.8" fill="#007FFF" stroke="#000000" stroke-width="1.0" stroke-linecap="round" stroke-linejoin="round" />
		<polygon points="81.5,201.5 81.4,198.9 81.1,196.4 80.5,193.8 79.7,191.4 78.8,189.0 77.6,186.7 76.2,184.5 74.7,182.4 72.9,180.5 71.1,178.8 69.0,177.2 66.9,175.7 64.6,174.5 62.2,173.5 59.8,172.7 57.3,172.1 54.7,171.7 52.1,171.5 49.6,171.6 47.0,171.8 44.5,172.3 42.0,173.0 39.6,174.0 37.3,175.1 35.0,176.4 32.9,177.9 31.0,179.6 29.2,181.5 27.5,183.5 26.1,185.6 24.8,187.8 23.7,190.2 22.9,192.6 22.2,195.1 21.7,197.6 21.5,200.2 21.5,202.8 21.7,205.4 22.2,207.9 22.9,210.4 23.7,212.8 24.8,215.2 26.1,217.4 27.5,219.5 29.2,221.5 31.0,223.4 32.9,225.1 35.0,226.6 37.3,227.9 39.6,229.0 42.0,230.0 44.5,230.7 47.0,231.2 49.6,231.4 52.1,231.5 54.7,231.3 57.3,230.9 59.8,230.3 62.2,229.5 64.6,228.5 66.9,227.3 69.0,225.8 71.1,224.2 72.9,222.5 74.7,220.6 76.2,218.5 77.6,216.3 78.8,214.0 79.7,211.6 80.5,209.2 81.1,206.6 81.4,204.1" fill="#FFFFFF" stroke="#007FFF" stroke-width="1.0" stroke-linecap="round" stroke-linejoin="round" />
		<polygon points="81.5,71.5 81.4,68.9 81.1,66.4 80.5,63.8 79.7,61.4 78.8,59.0 77.6,56.7 76.2,54.5 74.7,52.4 72.9,50.5 71.1,48.8 69.0,47.2 66.9,45.7 64.6,44.5 62.2,43.5 59.8,42.7 57.3,42.1 54.7,41.7 52.1,41.5 49.6,41.6 47.0,41.8 44.5,42.3 42.0,43.0 39.6,44.0 37.3,45.1 35.0,46.4 32.9,47.9 31.0,49.6 29.2,51.5 27.5,53.5 26.1,55.6 24.8,57.8 23.7,60.2 22.9,62.6 22.2,65.1 21.7,67.6 21.5,70.2 21.5,72.8 21.7,75.4 22.2,77.9 22.9,80.4 23.7,82.8 24.8,85.2 26.1,87.4 27.5,89.5 29.2,91.5 31.0,93.4 32.9,95.1 35.0,96.6 37.3,97.9 39.6,99.0 42.0,100.0 44.5,100.7 47.0,101.2 49.6,101.4 52.1,101.5 54.7,101.3 57.3,100.9 59.8,100.3 62.2,99.5 64.6,98.5 66.9,97.3 69.0,95.8 71.1,94.2 72.9,92.5 74.7,90.6 76.2,88.5 77.6,86.3 78.8,84.0 79.7,81.6 80.5,79.2 81.1,76.6 81.4,74.1" fill="#FFFFFF" stroke="#007FFF" stroke-width="1.0" stroke-linecap="round" stroke-linejoin="round" />
		<polygon points="81.5,331.5 81.4,328.9 81.1,326.4 80.5,323.8 79.7,321.4 78.8,319.0 77.6,316.7 76.2,314.5 74.7,312.4 72.9,310.5 71.1,308.8 69.0,307.2 66.9,305.7 64.6,304.5 62.2,303.5 59.8,302.7 57.3,302.1 54.7,301.7 52.1,301.5 49.6,301.6 47.0,301.8 44.5,302.3 42.0,303.0 39.6,304.0 37.3,305.1 35.0,306.4 32.9,307.9 31.0,309.6 29.2,311.5 27.5,313.5 26.1,315.6 24.8,317.8 23.7,320.2 22.9,322.6 22.2,325.1 21.7,327.6 21.5,330.2 21.5,332.8 21.7,335.4 22.2,337.9 22.9,340.4 23.7,342.8 24.8,345.2 26.1,347.4 27.5,349.5 29.2,351.5 31.0,353.4 32.9,355.1 35.0,356.6 37.3,357.9 39.6,359.0 42.0,360.0 44.5,360.7 47.0,361.2 49.6,361.4 52.1,361.5 54.7,361.3 57.3,360.9 59.8,360.3 62.2,359.5 64.6,358.5 66.9,357.3 69.0,355.8 71.1,354.2 72.9,352.5 74.7,350.6 76.2,348.5 77.6,346.3 78.8,344.0 79.7,341.6 80.5,339.2 81.1,336.6 81.4,334.1" fill="#FFFFFF" stroke="#007FFF" stroke-width="1.0" stroke-linecap="round" stroke-linejoin="round" />
	</g>
</svg>
