<svg width="213" height="203" xmlns="http://www.w3.org/2000/svg" xmlns:xlink="http://www.w3.org/1999/xlink">
	<g id="Modelica.Mechanics.MultiBody.Joints.Constraints.Universal" class="component">
		<defs>
			<linearGradient id="cyl2" x1="0" y1="0" x2="0" y2="1">
				<stop offset="0%" stop-color="#000000" />
				<stop offset="5%" stop-color="#2D2D2D" />
				<stop offset="10%" stop-color="#555555" />
				<stop offset="15%" stop-color="#787878" />
				<stop offset="20%" stop-color="#969696" />
				<stop offset="25%" stop-color="#B0B0B0" />
				<stop offset="30%" stop-color="#C5C5C5" />
				<stop offset="35%" stop-color="#D6D6D6" />
				<stop offset="40%" stop-color="#E2E2E2" />
				<stop offset="45%" stop-color="#E9E9E9" />
				<stop offset="50%" stop-color="#EBEBEB" />
				<stop offset="55%" stop-color="#E9E9E9" />
				<stop offset="60%" stop-color="#E2E2E2" />
				<stop offset="65%" stop-color="#D6D6D6" />
				<stop offset="70%" stop-color="#C5C5C5" />
				<stop offset="75%" stop-color="#B0B0B0" />
				<stop offset="80%" stop-color="#969696" />
				<stop offset="85%" stop-color="#787878" />
				<stop offset="90%" stop-color="#555555" />
				<stop offset="95%" stop-color="#2D2D2D" />
				<stop offset="100%" stop-color="#000000" />
			</linearGradient>
		</defs>
		<polygon points="10.3,116.5 45.3,116.5 45.3,86.5 10.3,86.5" fill="url(#cyl2)" stroke="#000000" stroke-width="1.0" stroke-linecap="butt" stroke-linejoin="round" />
		<polygon points="190.3,101.5 190.0,94.6 189.1,87.8 187.6,81.1 185.6,74.5 183.0,68.1 179.9,62.0 176.2,56.2 172.1,50.7 167.5,45.5 162.5,40.8 157.0,36.6 151.3,32.8 145.2,29.5 138.9,26.8 132.4,24.6 125.7,23.0 118.9,22.0 112.0,21.5 105.1,21.7 98.3,22.4 91.5,23.7 84.9,25.6 78.5,28.1 72.3,31.1 66.4,34.6 60.8,38.6 55.6,43.1 50.8,48.1 46.4,53.4 42.5,59.0 39.1,65.0 36.2,71.3 33.9,77.8 32.1,84.4 31.0,91.2 30.4,98.1 30.4,104.9 31.0,111.8 32.1,118.6 33.9,125.2 36.2,131.7 39.1,138.0 42.5,144.0 46.4,149.6 50.8,154.9 55.6,159.9 60.8,164.4 66.4,168.4 72.3,171.9 78.5,174.9 84.9,177.4 91.5,179.3 98.3,180.6 105.1,181.3 112.0,181.5 118.9,181.0 125.7,180.0 132.4,178.4 138.9,176.2 145.2,173.5 151.3,170.2 157.0,166.4 162.5,162.2 167.5,157.5 172.1,152.3 176.2,146.8 179.9,141.0 183.0,134.9 185.6,128.5 187.6,121.9 189.1,115.2 190.0,108.4" fill="#C0C0C0" stroke="#A0A0A4" stroke-width="1.0" stroke-linecap="butt" stroke-linejoin="round" />
		<polygon points="170.3,101.5 170.1,96.3 169.4,91.2 168.3,86.2 166.8,81.2 164.8,76.5 162.5,71.9 159.7,67.5 156.6,63.4 153.2,59.5 149.4,56.0 145.4,52.8 141.0,50.0 136.5,47.5 131.8,45.5 126.9,43.8 121.8,42.6 116.7,41.8 111.6,41.5 106.4,41.6 101.3,42.2 96.2,43.2 91.3,44.6 86.4,46.4 81.8,48.7 77.4,51.3 73.2,54.4 69.3,57.7 65.7,61.4 62.4,65.4 59.4,69.7 56.9,74.1 54.7,78.8 53.0,83.7 51.7,88.7 50.8,93.8 50.4,98.9 50.4,104.1 50.8,109.2 51.7,114.3 53.0,119.3 54.7,124.2 56.9,128.9 59.4,133.3 62.4,137.6 65.7,141.6 69.3,145.3 73.2,148.6 77.4,151.7 81.8,154.3 86.4,156.6 91.3,158.4 96.2,159.8 101.3,160.8 106.4,161.4 111.6,161.5 116.7,161.2 121.8,160.4 126.9,159.2 131.8,157.5 136.5,155.5 141.0,153.0 145.4,150.2 149.4,147.0 153.2,143.5 156.6,139.6 159.7,135.5 162.5,131.1 164.8,126.5 166.8,121.8 168.3,116.8 169.4,111.8 170.1,106.7" fill="#FFFFFF" stroke="#A0A0A4" stroke-width="1.0" stroke-linecap="butt" stroke-linejoin="round" />
		<polygon points="122.3,183.5 190.3,183.5 190.3,19.5 122.3,19.5" fill="#FFFFFF" stroke="#FFFFFF" stroke-width="1.0" stroke-linecap="butt" stroke-linejoin="round" />
		<defs>
			<linearGradient id="cyl6" x1="0" y1="0" x2="0" y2="1">
				<stop offset="0%" stop-color="#000000" />
				<stop offset="5%" stop-color="#2D2D2D" />
				<stop offset="10%" stop-color="#555555" />
				<stop offset="15%" stop-color="#787878" />
				<stop offset="20%" stop-color="#969696" />
				<stop offset="25%" stop-color="#B0B0B0" />
				<stop offset="30%" stop-color="#C5C5C5" />
				<stop offset="35%" stop-color="#D6D6D6" />
				<stop offset="40%" stop-color="#E2E2E2" />
				<stop offset="45%" stop-color="#E9E9E9" />
				<stop offset="50%" stop-color="#EBEBEB" />
				<stop offset="55%" stop-color="#E9E9E9" />
				<stop offset="60%" stop-color="#E2E2E2" />
				<stop offset="65%" stop-color="#D6D6D6" />
				<stop offset="70%" stop-color="#C5C5C5" />
				<stop offset="75%" stop-color="#B0B0B0" />
				<stop offset="80%" stop-color="#969696" />
				<stop offset="85%" stop-color="#787878" />
				<stop offset="90%" stop-color="#555555" />
				<stop offset="95%" stop-color="#2D2D2D" />
				<stop offset="100%" stop-color="#000000" />
			</linearGradient>
		</defs>
		<polygon points="166.3,116.5 210.3,116.5 210.3,86.5 166.3,86.5" fill="url(#cyl6)" stroke="#000000" stroke-width="1.0" stroke-linecap="butt" stroke-linejoin="round" />
		<polyline points="122.3,23.5 122.3,179.5" fill-opacity="0" stroke="#000000" stroke-width="1.0" stroke-linecap="butt" stroke-linejoin="round" />
		<polygon points="190.3,101.5 190.1,98.1 189.3,94.6 188.1,91.3 186.4,88.0 184.3,84.8 181.7,81.7 178.7,78.8 175.3,76.1 171.5,73.5 167.3,71.2 162.9,69.0 158.1,67.1 153.1,65.5 147.9,64.1 142.5,63.1 137.0,62.2 131.4,61.7 125.7,61.5 120.0,61.6 114.4,62.0 108.8,62.6 103.4,63.6 98.1,64.8 93.0,66.3 88.1,68.1 83.5,70.1 79.2,72.3 75.2,74.8 71.6,77.4 68.4,80.3 65.6,83.3 63.2,86.4 61.3,89.6 59.8,93.0 58.8,96.4 58.4,99.8 58.4,103.2 58.8,106.6 59.8,110.0 61.3,113.4 63.2,116.6 65.6,119.7 68.4,122.7 71.6,125.6 75.2,128.2 79.2,130.7 83.5,132.9 88.1,134.9 93.0,136.7 98.1,138.2 103.4,139.4 108.8,140.4 114.4,141.0 120.0,141.4 125.7,141.5 131.4,141.3 137.0,140.8 142.5,139.9 147.9,138.9 153.1,137.5 158.1,135.9 162.9,134.0 167.3,131.8 171.5,129.5 175.3,126.9 178.7,124.2 181.7,121.3 184.3,118.2 186.4,115.0 188.1,111.7 189.3,108.4 190.1,104.9" fill="#C0C0C0" stroke="#A0A0A4" stroke-width="1.0" stroke-linecap="butt" stroke-linejoin="round" />
		<polygon points="170.3,98.5 170.1,96.5 169.6,94.6 168.8,92.6 167.6,90.7 166.1,88.9 164.3,87.1 162.2,85.5 159.8,83.9 157.2,82.4 154.3,81.1 151.2,79.8 147.9,78.7 144.4,77.8 140.8,77.0 137.0,76.4 133.2,75.9 129.2,75.6 125.3,75.5 121.3,75.5 117.4,75.8 113.5,76.1 109.7,76.7 106.0,77.4 102.5,78.3 99.1,79.3 95.8,80.4 92.8,81.7 90.1,83.1 87.6,84.7 85.3,86.3 83.4,88.0 81.7,89.8 80.4,91.7 79.4,93.6 78.7,95.5 78.3,97.5 78.3,99.5 78.7,101.5 79.4,103.4 80.4,105.3 81.7,107.2 83.4,109.0 85.3,110.7 87.6,112.3 90.1,113.9 92.8,115.3 95.8,116.6 99.1,117.7 102.5,118.7 106.0,119.6 109.7,120.3 113.5,120.9 117.4,121.2 121.3,121.5 125.3,121.5 129.2,121.4 133.2,121.1 137.0,120.6 140.8,120.0 144.4,119.2 147.9,118.3 151.2,117.2 154.3,115.9 157.2,114.6 159.8,113.1 162.2,111.5 164.3,109.9 166.1,108.1 167.6,106.3 168.8,104.4 169.6,102.4 170.1,100.5" fill="#FFFFFF" stroke="#A0A0A4" stroke-width="1.0" stroke-linecap="butt" stroke-linejoin="round" />
		<polygon points="88.3,155.5 50.3,101.5 88.3,51.5 150.3,49.5" fill="#FFFFFF" stroke-opacity="0" stroke-width="1.0" stroke-linecap="butt" stroke-linejoin="round" />
		<polyline points="122.3,23.5 122.3,121.5" fill-opacity="0" stroke="#000000" stroke-width="1.0" stroke-linecap="butt" stroke-linejoin="round" />
		<polyline points="142.3,63.5 98.3,137.5" fill-opacity="0" stroke="#000000" stroke-width="1.0" stroke-linecap="butt" stroke-linejoin="round" />
		<polyline points="25.3,167.5 83.3,76.5 146.3,140.5 203.3,30.5" fill-opacity="0" stroke="#FF0000" stroke-width="1.0" stroke-linecap="butt" stroke-linejoin="round" />
		<g id="frame_a" class="port">
			<polygon points="4.7,103.1 7.9,103.1 7.9,99.9 4.7,99.9" fill-opacity="0" stroke="#5F5F5F" stroke-width="1.0" stroke-linecap="butt" stroke-linejoin="round" />
			<polygon points="1.5,117.5 11.1,117.5 11.1,85.5 1.5,85.5" fill="#C0C0C0" stroke="#000000" stroke-width="1.0" stroke-linecap="butt" stroke-linejoin="round" />
		</g>
		<g id="frame_b" class="port">
			<polygon points="204.7,103.1 207.9,103.1 207.9,99.9 204.7,99.9" fill-opacity="0" stroke="#5F5F5F" stroke-width="1.0" stroke-linecap="butt" stroke-linejoin="round" />
			<polygon points="201.5,117.5 211.1,117.5 211.1,85.5 201.5,85.5" fill="#FFFFFF" stroke="#000000" stroke-width="1.0" stroke-linecap="butt" stroke-linejoin="round" />
		</g>
	</g>
</svg>
