<svg width="223" height="253" xmlns="http://www.w3.org/2000/svg" xmlns:xlink="http://www.w3.org/1999/xlink">
	<g id="Modelica.Electrical.Machines.SpacePhasors.Components.Rotator" class="component">
		<polyline points="111.5,111.5 191.5,111.5 171.5,101.5 171.5,121.5 191.5,111.5" fill-opacity="0" stroke="#0000FF" stroke-width="1.0" stroke-linecap="round" stroke-linejoin="round" />
		<polyline points="111.5,111.5 111.5,31.5 101.5,51.5 121.5,51.5 111.5,31.5" fill-opacity="0" stroke="#0000FF" stroke-width="1.0" stroke-linecap="round" stroke-linejoin="round" />
		<polygon points="161.5,111.5 153.5,97.5 165.5,95.5" fill="#0000FF" stroke="#0000FF" stroke-width="1.0" stroke-linecap="round" stroke-linejoin="round" />
		<polyline points="111.5,61.5 120.5,62.5 123.4,62.9 126.3,63.5 129.0,64.2 131.6,65.2 134.1,66.2 136.5,67.5 136.5,67.5 138.5,68.7 140.3,69.9 142.1,71.3 143.8,72.7 145.5,74.2 147.0,75.8 148.5,77.5 148.5,77.5 150.1,79.5 151.6,81.5 153.0,83.5 154.3,85.5 155.4,87.5 156.5,89.5 156.5,89.5 157.4,91.6 158.3,93.7 159.0,96.0 159.6,98.4 160.1,100.9 160.5,103.5 161.5,111.5" fill-opacity="0" stroke="#0000FF" stroke-width="1.0" stroke-linecap="round" stroke-linejoin="round" />
		<g id="spacePhasor_a" class="port">
			<polygon points="11.5,1.5 1.5,11.5 11.5,21.5 21.5,11.5" fill="#0000FF" stroke="#0000FF" stroke-width="1.0" stroke-linecap="round" stroke-linejoin="round" />
		</g>
		<g id="spacePhasor_b" class="port">
			<polygon points="211.5,1.5 201.5,11.5 211.5,21.5 221.5,11.5" fill="#0000FF" stroke="#0000FF" stroke-width="1.0" stroke-linecap="round" stroke-linejoin="round" />
		</g>
		<g id="angle" class="port">
			<polygon points="91.5,251.5 111.5,211.5 131.5,251.5" fill="#00007F" stroke="#00007F" stroke-width="1.0" stroke-linecap="round" stroke-linejoin="round" />
		</g>
	</g>
</svg>
