<svg width="213" height="213" xmlns="http://www.w3.org/2000/svg" xmlns:xlink="http://www.w3.org/1999/xlink">
	<g id="Modelica.Mechanics.MultiBody.Examples.Systems.RobotR3.Components.Motor" class="component">
		<defs>
			<linearGradient id="cyl2" x1="0" y1="0" x2="0" y2="1">
				<stop offset="0%" stop-color="#000000" />
				<stop offset="5%" stop-color="#292929" />
				<stop offset="10%" stop-color="#4D4D4D" />
				<stop offset="15%" stop-color="#6E6E6E" />
				<stop offset="20%" stop-color="#8A8A8A" />
				<stop offset="25%" stop-color="#A1A1A1" />
				<stop offset="30%" stop-color="#B5B5B5" />
				<stop offset="35%" stop-color="#C4C4C4" />
				<stop offset="40%" stop-color="#CECECE" />
				<stop offset="45%" stop-color="#D5D5D5" />
				<stop offset="50%" stop-color="#D7D7D7" />
				<stop offset="55%" stop-color="#D5D5D5" />
				<stop offset="60%" stop-color="#CECECE" />
				<stop offset="65%" stop-color="#C4C4C4" />
				<stop offset="70%" stop-color="#B5B5B5" />
				<stop offset="75%" stop-color="#A1A1A1" />
				<stop offset="80%" stop-color="#8A8A8A" />
				<stop offset="85%" stop-color="#6E6E6E" />
				<stop offset="90%" stop-color="#4D4D4D" />
				<stop offset="95%" stop-color="#292929" />
				<stop offset="100%" stop-color="#000000" />
			</linearGradient>
		</defs>
		<polygon points="61.5,161.5 181.5,161.5 181.5,41.5 61.5,41.5" fill="url(#cyl2)" stroke="#000000" stroke-width="1.0" stroke-linecap="butt" stroke-linejoin="round" />
		<defs>
			<linearGradient id="cyl3" x1="0" y1="0" x2="0" y2="1">
				<stop offset="0%" stop-color="#000000" />
				<stop offset="5%" stop-color="#181818" />
				<stop offset="10%" stop-color="#2E2E2E" />
				<stop offset="15%" stop-color="#414141" />
				<stop offset="20%" stop-color="#525252" />
				<stop offset="25%" stop-color="#606060" />
				<stop offset="30%" stop-color="#6C6C6C" />
				<stop offset="35%" stop-color="#747474" />
				<stop offset="40%" stop-color="#7B7B7B" />
				<stop offset="45%" stop-color="#7F7F7F" />
				<stop offset="50%" stop-color="#808080" />
				<stop offset="55%" stop-color="#7F7F7F" />
				<stop offset="60%" stop-color="#7B7B7B" />
				<stop offset="65%" stop-color="#747474" />
				<stop offset="70%" stop-color="#6C6C6C" />
				<stop offset="75%" stop-color="#606060" />
				<stop offset="80%" stop-color="#525252" />
				<stop offset="85%" stop-color="#414141" />
				<stop offset="90%" stop-color="#2E2E2E" />
				<stop offset="95%" stop-color="#181818" />
				<stop offset="100%" stop-color="#000000" />
			</linearGradient>
		</defs>
		<polygon points="41.5,161.5 61.5,161.5 61.5,41.5 41.5,41.5" fill="url(#cyl3)" stroke="#000000" stroke-width="1.0" stroke-linecap="butt" stroke-linejoin="round" />
		<defs>
			<linearGradient id="cyl4" x1="0" y1="0" x2="0" y2="1">
				<stop offset="0%" stop-color="#000000" />
				<stop offset="5%" stop-color="#121212" />
				<stop offset="10%" stop-color="#222222" />
				<stop offset="15%" stop-color="#303030" />
				<stop offset="20%" stop-color="#3D3D3D" />
				<stop offset="25%" stop-color="#474747" />
				<stop offset="30%" stop-color="#505050" />
				<stop offset="35%" stop-color="#565656" />
				<stop offset="40%" stop-color="#5B5B5B" />
				<stop offset="45%" stop-color="#5E5E5E" />
				<stop offset="50%" stop-color="#5F5F5F" />
				<stop offset="55%" stop-color="#5E5E5E" />
				<stop offset="60%" stop-color="#5B5B5B" />
				<stop offset="65%" stop-color="#565656" />
				<stop offset="70%" stop-color="#505050" />
				<stop offset="75%" stop-color="#474747" />
				<stop offset="80%" stop-color="#3D3D3D" />
				<stop offset="85%" stop-color="#303030" />
				<stop offset="90%" stop-color="#222222" />
				<stop offset="95%" stop-color="#121212" />
				<stop offset="100%" stop-color="#000000" />
			</linearGradient>
		</defs>
		<polygon points="181.5,111.5 201.5,111.5 201.5,91.5 181.5,91.5" fill="url(#cyl4)" stroke="#000000" stroke-width="1.0" stroke-linecap="butt" stroke-linejoin="round" />
		<polygon points="61.5,51.5 141.5,51.5 141.5,31.5 61.5,31.5" fill="#5F5F5F" stroke="#5F5F5F" stroke-width="1.0" stroke-linecap="butt" stroke-linejoin="round" />
		<polygon points="51.5,191.5 61.5,191.5 91.5,121.5 141.5,121.5 171.5,191.5 181.5,191.5 181.5,201.5 51.5,201.5" fill="#000000" stroke="#000000" stroke-width="1.0" stroke-linecap="butt" stroke-linejoin="round" />
		<g id="flange_motor" class="port">
			<polygon points="211.5,101.5 211.5,100.6 211.4,99.8 211.2,98.9 210.9,98.1 210.6,97.3 210.2,96.6 209.7,95.8 209.2,95.1 208.6,94.5 208.0,93.9 207.3,93.4 206.6,92.9 205.9,92.5 205.1,92.2 204.3,91.9 203.4,91.7 202.6,91.6 201.7,91.5 200.9,91.5 200.0,91.6 199.2,91.8 198.3,92.0 197.5,92.3 196.8,92.7 196.0,93.1 195.3,93.6 194.7,94.2 194.1,94.8 193.5,95.5 193.0,96.2 192.6,96.9 192.2,97.7 192.0,98.5 191.7,99.4 191.6,100.2 191.5,101.1 191.5,101.9 191.6,102.8 191.7,103.6 192.0,104.5 192.2,105.3 192.6,106.1 193.0,106.8 193.5,107.5 194.1,108.2 194.7,108.8 195.3,109.4 196.0,109.9 196.8,110.3 197.5,110.7 198.3,111.0 199.2,111.2 200.0,111.4 200.9,111.5 201.7,111.5 202.6,111.4 203.4,111.3 204.3,111.1 205.1,110.8 205.9,110.5 206.6,110.1 207.3,109.6 208.0,109.1 208.6,108.5 209.2,107.9 209.7,107.2 210.2,106.4 210.6,105.7 210.9,104.9 211.2,104.1 211.4,103.2 211.5,102.4" fill="#FFFFFF" stroke="#000000" stroke-width="1.0" stroke-linecap="butt" stroke-linejoin="round" />
		</g>
		<g id="axisControlBus" class="port">
			<polyline points="98.3,201.1 104.7,201.1" fill-opacity="0" stroke="#FFCC33" stroke-width="1.0" stroke-linecap="butt" stroke-linejoin="round" />
			<polygon points="99.5,201.5 103.1,201.5 103.1,199.9 99.5,199.9" fill-opacity="0" stroke="#FFCC33" stroke-width="1.0" stroke-linecap="butt" stroke-linejoin="round" />
			<polygon points="83.5,193.5 84.6,192.9 86.4,192.4 89.0,192.0 92.4,191.7 96.6,191.6 101.5,191.5 101.5,191.5 106.4,191.6 110.6,191.7 114.0,192.0 116.6,192.4 118.4,192.9 119.5,193.5 119.5,193.5 120.4,195.4 120.4,198.4 119.5,202.5 119.5,202.5 118.5,205.6 117.5,208.0 116.5,209.6 115.5,210.5 115.5,210.5 114.3,210.9 112.3,211.1 109.5,211.3 105.9,211.5 101.5,211.5 101.5,211.5 97.1,211.5 93.5,211.3 90.7,211.1 88.7,210.9 87.5,210.5 87.5,210.5 86.5,209.6 85.5,208.0 84.5,205.6 83.5,202.5 83.5,202.5 82.6,198.4 82.6,195.4" fill="#FFD788" stroke="#000000" stroke-width="1.0" stroke-linecap="butt" stroke-linejoin="round" />
			<polygon points="92.5,197.5 92.5,197.4 92.5,197.3 92.5,197.2 92.4,197.2 92.4,197.1 92.4,197.0 92.3,196.9 92.3,196.9 92.2,196.8 92.2,196.7 92.1,196.7 92.0,196.6 91.9,196.6 91.9,196.6 91.8,196.5 91.7,196.5 91.6,196.5 91.5,196.5 91.4,196.5 91.3,196.5 91.3,196.5 91.2,196.6 91.1,196.6 91.0,196.6 91.0,196.7 90.9,196.7 90.8,196.8 90.8,196.8 90.7,196.9 90.7,197.0 90.6,197.0 90.6,197.1 90.5,197.2 90.5,197.3 90.5,197.4 90.5,197.5 90.5,197.5 90.5,197.6 90.5,197.7 90.5,197.8 90.6,197.9 90.6,198.0 90.7,198.0 90.7,198.1 90.8,198.2 90.8,198.2 90.9,198.3 91.0,198.3 91.0,198.4 91.1,198.4 91.2,198.4 91.3,198.5 91.3,198.5 91.4,198.5 91.5,198.5 91.6,198.5 91.7,198.5 91.8,198.5 91.9,198.4 91.9,198.4 92.0,198.4 92.1,198.3 92.2,198.3 92.2,198.2 92.3,198.1 92.3,198.1 92.4,198.0 92.4,197.9 92.4,197.8 92.5,197.8 92.5,197.7 92.5,197.6" fill="#000000" stroke="#000000" stroke-width="1.0" stroke-linecap="butt" stroke-linejoin="round" />
			<polygon points="112.5,197.5 112.5,197.4 112.5,197.3 112.5,197.2 112.4,197.2 112.4,197.1 112.4,197.0 112.3,196.9 112.3,196.9 112.2,196.8 112.2,196.7 112.1,196.7 112.0,196.6 111.9,196.6 111.9,196.6 111.8,196.5 111.7,196.5 111.6,196.5 111.5,196.5 111.4,196.5 111.3,196.5 111.3,196.5 111.2,196.6 111.1,196.6 111.0,196.6 111.0,196.7 110.9,196.7 110.8,196.8 110.8,196.8 110.7,196.9 110.7,197.0 110.6,197.0 110.6,197.1 110.5,197.2 110.5,197.3 110.5,197.4 110.5,197.5 110.5,197.5 110.5,197.6 110.5,197.7 110.5,197.8 110.6,197.9 110.6,198.0 110.7,198.0 110.7,198.1 110.8,198.2 110.8,198.2 110.9,198.3 111.0,198.3 111.0,198.4 111.1,198.4 111.2,198.4 111.3,198.5 111.3,198.5 111.4,198.5 111.5,198.5 111.6,198.5 111.7,198.5 111.8,198.5 111.9,198.4 111.9,198.4 112.0,198.4 112.1,198.3 112.2,198.3 112.2,198.2 112.3,198.1 112.3,198.1 112.4,198.0 112.4,197.9 112.4,197.8 112.5,197.8 112.5,197.7 112.5,197.6" fill="#000000" stroke="#000000" stroke-width="1.0" stroke-linecap="butt" stroke-linejoin="round" />
			<polygon points="102.5,205.5 102.5,205.4 102.5,205.3 102.5,205.2 102.4,205.2 102.4,205.1 102.4,205.0 102.3,204.9 102.3,204.9 102.2,204.8 102.2,204.7 102.1,204.7 102.0,204.6 101.9,204.6 101.9,204.6 101.8,204.5 101.7,204.5 101.6,204.5 101.5,204.5 101.4,204.5 101.3,204.5 101.3,204.5 101.2,204.6 101.1,204.6 101.0,204.6 101.0,204.7 100.9,204.7 100.8,204.8 100.8,204.8 100.7,204.9 100.7,205.0 100.6,205.0 100.6,205.1 100.5,205.2 100.5,205.3 100.5,205.4 100.5,205.5 100.5,205.5 100.5,205.6 100.5,205.7 100.5,205.8 100.6,205.9 100.6,206.0 100.7,206.0 100.7,206.1 100.8,206.2 100.8,206.2 100.9,206.3 101.0,206.3 101.0,206.4 101.1,206.4 101.2,206.4 101.3,206.5 101.3,206.5 101.4,206.5 101.5,206.5 101.6,206.5 101.7,206.5 101.8,206.5 101.9,206.4 101.9,206.4 102.0,206.4 102.1,206.3 102.2,206.3 102.2,206.2 102.3,206.1 102.3,206.1 102.4,206.0 102.4,205.9 102.4,205.8 102.5,205.8 102.5,205.7 102.5,205.6" fill="#000000" stroke="#000000" stroke-width="1.0" stroke-linecap="butt" stroke-linejoin="round" />
			<polygon points="97.5,201.5 105.5,201.5 105.5,200.7 97.5,200.7" fill-opacity="0" stroke="#FFD788" stroke-width="1.0" stroke-linecap="butt" stroke-linejoin="round" />
		</g>
	</g>
</svg>
