<svg width="213" height="203" xmlns="http://www.w3.org/2000/svg" xmlns:xlink="http://www.w3.org/1999/xlink">
	<g id="Modelica.Mechanics.MultiBody.Parts.BodyBox" class="component">
		<polygon points="206.3,61.5 206.3,131.5 196.3,141.5 196.3,71.5" fill="#005FBF" stroke="#005FBF" stroke-width="1.0" stroke-linecap="round" stroke-linejoin="round" />
		<polygon points="6.3,141.5 196.3,141.5 196.3,71.5 6.3,71.5" fill="#007FFF" stroke-opacity="0" stroke-width="1.0" stroke-linecap="round" stroke-linejoin="round" />
		<polygon points="6.3,71.5 16.3,61.5 206.3,61.5 196.3,71.5" fill="#005FBF" stroke="#005FBF" stroke-width="1.0" stroke-linecap="round" stroke-linejoin="round" />
		<text x="176.3" y="118.2" text-anchor="middle" fill="#000000" font-size="33.2px" font-family="sans-serif">b</text>
		<text x="37.3" y="114.2" text-anchor="middle" fill="#000000" font-size="33.2px" font-family="sans-serif">a</text>
		<g id="frame_a" class="port">
			<polygon points="4.7,103.1 7.9,103.1 7.9,99.9 4.7,99.9" fill-opacity="0" stroke="#5F5F5F" stroke-width="1.0" stroke-linecap="round" stroke-linejoin="round" />
			<polygon points="1.5,117.5 11.1,117.5 11.1,85.5 1.5,85.5" fill="#C0C0C0" stroke="#000000" stroke-width="1.0" stroke-linecap="round" stroke-linejoin="round" />
		</g>
		<g id="frame_b" class="port">
			<polygon points="204.7,103.1 207.9,103.1 207.9,99.9 204.7,99.9" fill-opacity="0" stroke="#5F5F5F" stroke-width="1.0" stroke-linecap="round" stroke-linejoin="round" />
			<polygon points="201.5,117.5 211.1,117.5 211.1,85.5 201.5,85.5" fill="#FFFFFF" stroke="#000000" stroke-width="1.0" stroke-linecap="round" stroke-linejoin="round" />
		</g>
	</g>
</svg>
