<svg width="223" height="203" xmlns="http://www.w3.org/2000/svg" xmlns:xlink="http://www.w3.org/1999/xlink">
	<g id="Modelica.Blocks.Sources.ExpSine" class="component">
		<polygon points="1.5,201.5 201.5,201.5 201.5,1.5 1.5,1.5" fill="#FFFFFF" stroke="#00007F" stroke-width="1.0" stroke-linecap="butt" stroke-linejoin="round" />
		<polyline points="21.5,33.5 21.5,181.5" fill-opacity="0" stroke="#C0C0C0" stroke-width="1.0" stroke-linecap="butt" stroke-linejoin="round" />
		<polygon points="21.5,11.5 13.5,33.5 29.5,33.5" fill="#C0C0C0" stroke="#C0C0C0" stroke-width="1.0" stroke-linecap="butt" stroke-linejoin="round" />
		<polyline points="11.5,101.5 169.5,101.5" fill-opacity="0" stroke="#C0C0C0" stroke-width="1.0" stroke-linecap="butt" stroke-linejoin="round" />
		<polygon points="191.5,101.5 169.5,93.5 169.5,109.5" fill="#C0C0C0" stroke="#C0C0C0" stroke-width="1.0" stroke-linecap="butt" stroke-linejoin="round" />
		<polyline points="21.5,101.5 23.9,85.4 25.4,75.4 26.7,67.0 27.9,60.2 27.9,60.2 29.0,54.4 30.1,49.0 31.2,44.1 31.2,44.1 32.0,40.7 32.8,37.6 33.6,34.7 34.4,32.2 34.4,32.2 35.2,29.9 36.0,27.9 36.8,26.2 37.6,24.8 37.6,24.8 39.2,22.8 40.8,22.0 40.8,22.0 42.4,22.5 44.0,24.0 44.0,24.0 45.1,25.7 46.1,27.8 47.2,30.3 47.2,30.3 48.0,32.6 48.9,35.2 49.9,38.3 50.8,41.8 50.8,41.8 52.3,47.5 53.9,54.3 55.7,62.5 55.7,62.5 58.8,77.4 62.5,95.6 62.5,95.6 65.0,107.7 67.1,117.6 68.9,125.3 68.9,125.3 70.1,130.0 71.2,134.2 72.3,138.0 73.4,141.3 73.4,141.3 74.4,144.2 75.4,146.8 76.4,149.1 77.4,151.0 77.4,151.0 78.7,153.2 80.1,154.8 81.4,155.8 81.4,155.8 83.4,156.2 85.4,155.4 85.4,155.4 86.7,154.2 88.1,152.6 89.4,150.4 89.4,150.4 90.2,148.8 91.1,147.0 92.0,145.0 92.9,142.7 93.8,140.2 93.8,140.2 95.9,134.0 99.0,124.2 103.1,110.7 103.1,110.7 106.2,100.3 108.8,91.9 110.9,85.7 112.4,81.4 112.4,81.4 113.3,79.0 114.3,76.7 115.3,74.6 116.2,72.7 117.2,70.9 117.2,70.9 118.4,69.0 119.5,67.4 120.6,66.1 121.6,65.1 121.6,65.1 123.7,64.0 126.0,63.9 126.0,63.9 127.6,64.4 129.2,65.5 130.8,67.0 130.8,67.0 131.9,68.2 132.9,69.7 134.1,71.5 135.2,73.6 136.5,75.9 136.5,75.9 138.3,79.5 140.5,84.3 143.1,90.1 146.2,97.0 146.2,97.0 148.6,102.6 150.8,107.5 152.7,111.5 154.4,114.8 155.8,117.4 155.8,117.4 157.4,119.8 158.9,122.0 160.4,123.7 161.8,125.0 161.8,125.0 163.7,126.4 165.5,127.1 167.4,127.4 167.4,127.4 169.3,127.1 171.3,126.2 173.4,124.7 173.4,124.7 175.0,123.3 176.5,121.8 177.8,120.3 179.1,118.6 181.5,115.3" fill-opacity="0" stroke="#000000" stroke-width="1.0" stroke-linecap="butt" stroke-linejoin="round" />
		<g id="y" class="port">
			<polygon points="201.5,91.5 221.5,101.5 201.5,111.5" fill="#FFFFFF" stroke="#00007F" stroke-width="1.0" stroke-linecap="butt" stroke-linejoin="round" />
		</g>
	</g>
</svg>
