<svg width="203" height="213" xmlns="http://www.w3.org/2000/svg" xmlns:xlink="http://www.w3.org/1999/xlink">
	<g id="Modelica.Mechanics.MultiBody.Examples.Systems.RobotR3.Components.Controller" class="component">
		<polygon points="1.5,201.5 201.5,201.5 201.5,1.5 1.5,1.5" fill="#FFFFFF" stroke="#00007F" stroke-width="1.0" stroke-linecap="butt" stroke-linejoin="round" />
		<polygon points="21.5,141.5 181.5,141.5 181.5,61.5 21.5,61.5" fill-opacity="0" stroke="#0000FF" stroke-width="1.0" stroke-linecap="butt" stroke-linejoin="round" />
		<polygon points="71.5,61.5 41.5,51.5 41.5,71.5" fill="#0000FF" stroke="#0000FF" stroke-width="1.0" stroke-linecap="butt" stroke-linejoin="round" />
		<polygon points="161.5,131.5 131.5,141.5 161.5,151.5" fill="#0000FF" stroke="#0000FF" stroke-width="1.0" stroke-linecap="butt" stroke-linejoin="round" />
		<polygon points="71.5,77.5 131.5,77.5 131.5,45.5 71.5,45.5" fill="#FFFFFF" stroke="#0000FF" stroke-width="1.0" stroke-linecap="butt" stroke-linejoin="round" />
		<polygon points="71.5,157.5 131.5,157.5 131.5,125.5 71.5,125.5" fill="#FFFFFF" stroke="#0000FF" stroke-width="1.0" stroke-linecap="butt" stroke-linejoin="round" />
		<g id="axisControlBus" class="port">
			<polyline points="98.3,201.1 104.7,201.1" fill-opacity="0" stroke="#FFCC33" stroke-width="1.0" stroke-linecap="butt" stroke-linejoin="round" />
			<polygon points="99.5,201.5 103.1,201.5 103.1,199.9 99.5,199.9" fill-opacity="0" stroke="#FFCC33" stroke-width="1.0" stroke-linecap="butt" stroke-linejoin="round" />
			<polygon points="83.5,193.5 84.6,192.9 86.4,192.4 89.0,192.0 92.4,191.7 96.6,191.6 101.5,191.5 101.5,191.5 106.4,191.6 110.6,191.7 114.0,192.0 116.6,192.4 118.4,192.9 119.5,193.5 119.5,193.5 120.4,195.4 120.4,198.4 119.5,202.5 119.5,202.5 118.5,205.6 117.5,208.0 116.5,209.6 115.5,210.5 115.5,210.5 114.3,210.9 112.3,211.1 109.5,211.3 105.9,211.5 101.5,211.5 101.5,211.5 97.1,211.5 93.5,211.3 90.7,211.1 88.7,210.9 87.5,210.5 87.5,210.5 86.5,209.6 85.5,208.0 84.5,205.6 83.5,202.5 83.5,202.5 82.6,198.4 82.6,195.4" fill="#FFD788" stroke="#000000" stroke-width="1.0" stroke-linecap="butt" stroke-linejoin="round" />
			<polygon points="92.5,197.5 92.5,197.4 92.5,197.3 92.5,197.2 92.4,197.2 92.4,197.1 92.4,197.0 92.3,196.9 92.3,196.9 92.2,196.8 92.2,196.7 92.1,196.7 92.0,196.6 91.9,196.6 91.9,196.6 91.8,196.5 91.7,196.5 91.6,196.5 91.5,196.5 91.4,196.5 91.3,196.5 91.3,196.5 91.2,196.6 91.1,196.6 91.0,196.6 91.0,196.7 90.9,196.7 90.8,196.8 90.8,196.8 90.7,196.9 90.7,197.0 90.6,197.0 90.6,197.1 90.5,197.2 90.5,197.3 90.5,197.4 90.5,197.5 90.5,197.5 90.5,197.6 90.5,197.7 90.5,197.8 90.6,197.9 90.6,198.0 90.7,198.0 90.7,198.1 90.8,198.2 90.8,198.2 90.9,198.3 91.0,198.3 91.0,198.4 91.1,198.4 91.2,198.4 91.3,198.5 91.3,198.5 91.4,198.5 91.5,198.5 91.6,198.5 91.7,198.5 91.8,198.5 91.9,198.4 91.9,198.4 92.0,198.4 92.1,198.3 92.2,198.3 92.2,198.2 92.3,198.1 92.3,198.1 92.4,198.0 92.4,197.9 92.4,197.8 92.5,197.8 92.5,197.7 92.5,197.6" fill="#000000" stroke="#000000" stroke-width="1.0" stroke-linecap="butt" stroke-linejoin="round" />
			<polygon points="112.5,197.5 112.5,197.4 112.5,197.3 112.5,197.2 112.4,197.2 112.4,197.1 112.4,197.0 112.3,196.9 112.3,196.9 112.2,196.8 112.2,196.7 112.1,196.7 112.0,196.6 111.9,196.6 111.9,196.6 111.8,196.5 111.7,196.5 111.6,196.5 111.5,196.5 111.4,196.5 111.3,196.5 111.3,196.5 111.2,196.6 111.1,196.6 111.0,196.6 111.0,196.7 110.9,196.7 110.8,196.8 110.8,196.8 110.7,196.9 110.7,197.0 110.6,197.0 110.6,197.1 110.5,197.2 110.5,197.3 110.5,197.4 110.5,197.5 110.5,197.5 110.5,197.6 110.5,197.7 110.5,197.8 110.6,197.9 110.6,198.0 110.7,198.0 110.7,198.1 110.8,198.2 110.8,198.2 110.9,198.3 111.0,198.3 111.0,198.4 111.1,198.4 111.2,198.4 111.3,198.5 111.3,198.5 111.4,198.5 111.5,198.5 111.6,198.5 111.7,198.5 111.8,198.5 111.9,198.4 111.9,198.4 112.0,198.4 112.1,198.3 112.2,198.3 112.2,198.2 112.3,198.1 112.3,198.1 112.4,198.0 112.4,197.9 112.4,197.8 112.5,197.8 112.5,197.7 112.5,197.6" fill="#000000" stroke="#000000" stroke-width="1.0" stroke-linecap="butt" stroke-linejoin="round" />
			<polygon points="102.5,205.5 102.5,205.4 102.5,205.3 102.5,205.2 102.4,205.2 102.4,205.1 102.4,205.0 102.3,204.9 102.3,204.9 102.2,204.8 102.2,204.7 102.1,204.7 102.0,204.6 101.9,204.6 101.9,204.6 101.8,204.5 101.7,204.5 101.6,204.5 101.5,204.5 101.4,204.5 101.3,204.5 101.3,204.5 101.2,204.6 101.1,204.6 101.0,204.6 101.0,204.7 100.9,204.7 100.8,204.8 100.8,204.8 100.7,204.9 100.7,205.0 100.6,205.0 100.6,205.1 100.5,205.2 100.5,205.3 100.5,205.4 100.5,205.5 100.5,205.5 100.5,205.6 100.5,205.7 100.5,205.8 100.6,205.9 100.6,206.0 100.7,206.0 100.7,206.1 100.8,206.2 100.8,206.2 100.9,206.3 101.0,206.3 101.0,206.4 101.1,206.4 101.2,206.4 101.3,206.5 101.3,206.5 101.4,206.5 101.5,206.5 101.6,206.5 101.7,206.5 101.8,206.5 101.9,206.4 101.9,206.4 102.0,206.4 102.1,206.3 102.2,206.3 102.2,206.2 102.3,206.1 102.3,206.1 102.4,206.0 102.4,205.9 102.4,205.8 102.5,205.8 102.5,205.7 102.5,205.6" fill="#000000" stroke="#000000" stroke-width="1.0" stroke-linecap="butt" stroke-linejoin="round" />
			<polygon points="97.5,201.5 105.5,201.5 105.5,200.7 97.5,200.7" fill-opacity="0" stroke="#FFD788" stroke-width="1.0" stroke-linecap="butt" stroke-linejoin="round" />
		</g>
	</g>
</svg>
