<svg width="223" height="203" xmlns="http://www.w3.org/2000/svg" xmlns:xlink="http://www.w3.org/1999/xlink">
	<g id="Modelica.Electrical.QuasiStationary.MultiPhase.Basic.Inductor" class="component">
		<polyline points="171.5,101.5 201.5,101.5" fill-opacity="0" stroke="#55AAFF" stroke-width="1.0" stroke-linecap="round" stroke-linejoin="round" />
		<polyline points="21.5,101.5 51.5,101.5" fill-opacity="0" stroke="#55AAFF" stroke-width="1.0" stroke-linecap="round" stroke-linejoin="round" />
		<polyline points="51.5,101.5 52.0,98.5 52.4,96.9 53.2,95.2 54.4,93.4 56.0,91.5 56.0,91.5 57.5,90.1 59.4,88.9 61.5,88.1 63.8,87.7 66.5,87.5 66.5,87.5 69.2,87.7 71.5,88.1 73.6,88.9 75.5,90.1 77.0,91.5 77.0,91.5 78.6,93.4 79.7,95.2 80.6,96.9 81.0,98.5 81.5,101.5" fill-opacity="0" stroke="#0080FF" stroke-width="1.0" stroke-linecap="round" stroke-linejoin="round" />
		<polyline points="81.5,101.5 82.0,98.5 82.4,96.9 83.2,95.2 84.4,93.4 86.0,91.5 86.0,91.5 87.5,90.1 89.4,88.9 91.5,88.1 93.8,87.7 96.5,87.5 96.5,87.5 99.2,87.7 101.5,88.1 103.6,88.9 105.5,90.1 107.0,91.5 107.0,91.5 108.6,93.4 109.7,95.2 110.6,96.9 111.0,98.5 111.5,101.5" fill-opacity="0" stroke="#0080FF" stroke-width="1.0" stroke-linecap="round" stroke-linejoin="round" />
		<polyline points="111.5,101.5 112.0,98.5 112.4,96.9 113.2,95.2 114.4,93.4 116.0,91.5 116.0,91.5 117.5,90.1 119.4,88.9 121.5,88.1 123.8,87.7 126.5,87.5 126.5,87.5 129.2,87.7 131.5,88.1 133.6,88.9 135.5,90.1 137.0,91.5 137.0,91.5 138.6,93.4 139.7,95.2 140.6,96.9 141.0,98.5 141.5,101.5" fill-opacity="0" stroke="#0080FF" stroke-width="1.0" stroke-linecap="round" stroke-linejoin="round" />
		<polyline points="141.5,101.5 142.0,98.5 142.4,96.9 143.2,95.2 144.4,93.4 146.0,91.5 146.0,91.5 147.5,90.1 149.4,88.9 151.5,88.1 153.8,87.7 156.5,87.5 156.5,87.5 159.2,87.7 161.5,88.1 163.6,88.9 165.5,90.1 167.0,91.5 167.0,91.5 168.6,93.4 169.7,95.2 170.6,96.9 171.0,98.5 171.5,101.5" fill-opacity="0" stroke="#0080FF" stroke-width="1.0" stroke-linecap="round" stroke-linejoin="round" />
		<g id="plug_p" class="port">
			<polygon points="21.5,101.5 21.5,100.6 21.3,99.8 21.2,98.9 20.9,98.1 20.6,97.3 20.2,96.6 19.7,95.8 19.2,95.1 18.6,94.5 18.0,93.9 17.3,93.4 16.6,92.9 15.9,92.5 15.1,92.2 14.3,91.9 13.4,91.7 12.6,91.6 11.7,91.5 10.8,91.5 10.0,91.6 9.1,91.8 8.3,92.0 7.5,92.3 6.7,92.7 6.0,93.1 5.3,93.6 4.7,94.2 4.0,94.8 3.5,95.5 3.0,96.2 2.6,96.9 2.2,97.7 1.9,98.5 1.7,99.4 1.6,100.2 1.5,101.1 1.5,101.9 1.6,102.8 1.7,103.6 1.9,104.5 2.2,105.3 2.6,106.1 3.0,106.8 3.5,107.5 4.0,108.2 4.7,108.8 5.3,109.4 6.0,109.9 6.7,110.3 7.5,110.7 8.3,111.0 9.1,111.2 10.0,111.4 10.8,111.5 11.7,111.5 12.6,111.4 13.4,111.3 14.3,111.1 15.1,110.8 15.9,110.5 16.6,110.1 17.3,109.6 18.0,109.1 18.6,108.5 19.2,107.9 19.7,107.2 20.2,106.4 20.6,105.7 20.9,104.9 21.2,104.1 21.3,103.2 21.5,102.4" fill="#55AAFF" stroke="#55AAFF" stroke-width="1.0" stroke-linecap="round" stroke-linejoin="round" />
		</g>
		<g id="plug_n" class="port">
			<polygon points="221.5,101.5 221.5,100.6 221.3,99.8 221.2,98.9 220.9,98.1 220.6,97.3 220.2,96.6 219.7,95.8 219.2,95.1 218.6,94.5 218.0,93.9 217.3,93.4 216.6,92.9 215.9,92.5 215.1,92.2 214.3,91.9 213.4,91.7 212.6,91.6 211.7,91.5 210.8,91.5 210.0,91.6 209.1,91.8 208.3,92.0 207.5,92.3 206.7,92.7 206.0,93.1 205.3,93.6 204.7,94.2 204.0,94.8 203.5,95.5 203.0,96.2 202.6,96.9 202.2,97.7 201.9,98.5 201.7,99.4 201.6,100.2 201.5,101.1 201.5,101.9 201.6,102.8 201.7,103.6 201.9,104.5 202.2,105.3 202.6,106.1 203.0,106.8 203.5,107.5 204.0,108.2 204.7,108.8 205.3,109.4 206.0,109.9 206.7,110.3 207.5,110.7 208.3,111.0 209.1,111.2 210.0,111.4 210.8,111.5 211.7,111.5 212.6,111.4 213.4,111.3 214.3,111.1 215.1,110.8 215.9,110.5 216.6,110.1 217.3,109.6 218.0,109.1 218.6,108.5 219.2,107.9 219.7,107.2 220.2,106.4 220.6,105.7 220.9,104.9 221.2,104.1 221.3,103.2 221.5,102.4" fill="#FFFFFF" stroke="#55AAFF" stroke-width="1.0" stroke-linecap="round" stroke-linejoin="round" />
		</g>
	</g>
</svg>
