<svg width="233" height="213" xmlns="http://www.w3.org/2000/svg" xmlns:xlink="http://www.w3.org/1999/xlink">
	<g id="Modelica.Thermal.FluidHeatFlow.Components.OpenTank" class="component">
		<defs>
			<radialGradient id="sph2">
				<stop offset="0%" stop-color="#AAAAFF" />
				<stop offset="10%" stop-color="#A8A8FC" />
				<stop offset="20%" stop-color="#A3A3F5" />
				<stop offset="30%" stop-color="#9B9BE8" />
				<stop offset="40%" stop-color="#8F8FD6" />
				<stop offset="50%" stop-color="#8080BF" />
				<stop offset="60%" stop-color="#6D6DA3" />
				<stop offset="70%" stop-color="#575782" />
				<stop offset="80%" stop-color="#3D3D5C" />
				<stop offset="90%" stop-color="#202030" />
				<stop offset="100%" stop-color="#000000" />
			</radialGradient>
		</defs>
		<polygon points="191.5,181.5 191.2,179.8 190.3,178.1 188.8,176.4 186.8,174.7 184.2,173.2 181.1,171.6 177.4,170.2 173.3,168.8 168.7,167.5 163.7,166.3 158.2,165.3 152.5,164.3 146.4,163.5 140.1,162.8 133.6,162.3 126.9,161.9 120.1,161.6 113.2,161.5 106.3,161.5 99.5,161.7 92.7,162.1 86.1,162.5 79.7,163.1 73.5,163.9 67.6,164.8 62.0,165.8 56.8,166.9 52.0,168.1 47.6,169.5 43.7,170.9 40.3,172.4 37.4,173.9 35.1,175.6 33.3,177.2 32.2,178.9 31.6,180.6 31.6,182.4 32.2,184.1 33.3,185.8 35.1,187.4 37.4,189.1 40.3,190.6 43.7,192.1 47.6,193.5 52.0,194.9 56.8,196.1 62.0,197.2 67.6,198.2 73.5,199.1 79.7,199.9 86.1,200.5 92.7,200.9 99.5,201.3 106.3,201.5 113.2,201.5 120.1,201.4 126.9,201.1 133.6,200.7 140.1,200.2 146.4,199.5 152.5,198.7 158.2,197.7 163.7,196.7 168.7,195.5 173.3,194.2 177.4,192.8 181.1,191.4 184.2,189.8 186.8,188.3 188.8,186.6 190.3,184.9 191.2,183.2" fill="url(#sph2)" stroke="#000000" stroke-width="1.0" stroke-linecap="butt" stroke-linejoin="round" />
		<defs>
			<linearGradient id="cyl3" x1="0" y1="0" x2="1" y2="0">
				<stop offset="0%" stop-color="#000000" />
				<stop offset="5%" stop-color="#202030" />
				<stop offset="10%" stop-color="#3D3D5C" />
				<stop offset="15%" stop-color="#575782" />
				<stop offset="20%" stop-color="#6D6DA3" />
				<stop offset="25%" stop-color="#8080BF" />
				<stop offset="30%" stop-color="#8F8FD6" />
				<stop offset="35%" stop-color="#9B9BE8" />
				<stop offset="40%" stop-color="#A3A3F5" />
				<stop offset="45%" stop-color="#A8A8FC" />
				<stop offset="50%" stop-color="#AAAAFF" />
				<stop offset="55%" stop-color="#A8A8FC" />
				<stop offset="60%" stop-color="#A3A3F5" />
				<stop offset="65%" stop-color="#9B9BE8" />
				<stop offset="70%" stop-color="#8F8FD6" />
				<stop offset="75%" stop-color="#8080BF" />
				<stop offset="80%" stop-color="#6D6DA3" />
				<stop offset="85%" stop-color="#575782" />
				<stop offset="90%" stop-color="#3D3D5C" />
				<stop offset="95%" stop-color="#202030" />
				<stop offset="100%" stop-color="#000000" />
			</linearGradient>
		</defs>
		<polygon points="31.5,181.5 191.5,181.5 191.5,101.5 31.5,101.5" fill="url(#cyl3)" stroke="#000000" stroke-width="1.0" stroke-linecap="butt" stroke-linejoin="round" />
		<defs>
			<linearGradient id="cyl4" x1="0" y1="0" x2="1" y2="0">
				<stop offset="0%" stop-color="#000000" />
				<stop offset="5%" stop-color="#303030" />
				<stop offset="10%" stop-color="#5C5C5C" />
				<stop offset="15%" stop-color="#828282" />
				<stop offset="20%" stop-color="#A3A3A3" />
				<stop offset="25%" stop-color="#BFBFBF" />
				<stop offset="30%" stop-color="#D6D6D6" />
				<stop offset="35%" stop-color="#E8E8E8" />
				<stop offset="40%" stop-color="#F5F5F5" />
				<stop offset="45%" stop-color="#FCFCFC" />
				<stop offset="50%" stop-color="#FFFFFF" />
				<stop offset="55%" stop-color="#FCFCFC" />
				<stop offset="60%" stop-color="#F5F5F5" />
				<stop offset="65%" stop-color="#E8E8E8" />
				<stop offset="70%" stop-color="#D6D6D6" />
				<stop offset="75%" stop-color="#BFBFBF" />
				<stop offset="80%" stop-color="#A3A3A3" />
				<stop offset="85%" stop-color="#828282" />
				<stop offset="90%" stop-color="#5C5C5C" />
				<stop offset="95%" stop-color="#303030" />
				<stop offset="100%" stop-color="#000000" />
			</linearGradient>
		</defs>
		<polygon points="31.5,101.5 191.5,101.5 191.5,21.5 31.5,21.5" fill="url(#cyl4)" stroke="#000000" stroke-width="1.0" stroke-linecap="butt" stroke-linejoin="round" />
		<defs>
			<radialGradient id="sph5">
				<stop offset="0%" stop-color="#FFFFFF" />
				<stop offset="10%" stop-color="#FCFCFC" />
				<stop offset="20%" stop-color="#F5F5F5" />
				<stop offset="30%" stop-color="#E8E8E8" />
				<stop offset="40%" stop-color="#D6D6D6" />
				<stop offset="50%" stop-color="#BFBFBF" />
				<stop offset="60%" stop-color="#A3A3A3" />
				<stop offset="70%" stop-color="#828282" />
				<stop offset="80%" stop-color="#5C5C5C" />
				<stop offset="90%" stop-color="#303030" />
				<stop offset="100%" stop-color="#000000" />
			</radialGradient>
		</defs>
		<polygon points="191.5,21.5 191.2,19.8 190.3,18.1 188.8,16.4 186.8,14.7 184.2,13.2 181.1,11.6 177.4,10.2 173.3,8.8 168.7,7.5 163.7,6.3 158.2,5.3 152.5,4.3 146.4,3.5 140.1,2.8 133.6,2.3 126.9,1.9 120.1,1.6 113.2,1.5 106.3,1.5 99.5,1.7 92.7,2.1 86.1,2.5 79.7,3.1 73.5,3.9 67.6,4.8 62.0,5.8 56.8,6.9 52.0,8.1 47.6,9.5 43.7,10.9 40.3,12.4 37.4,13.9 35.1,15.6 33.3,17.2 32.2,18.9 31.6,20.6 31.6,22.4 32.2,24.1 33.3,25.8 35.1,27.4 37.4,29.1 40.3,30.6 43.7,32.1 47.6,33.5 52.0,34.9 56.8,36.1 62.0,37.2 67.6,38.2 73.5,39.1 79.7,39.9 86.1,40.5 92.7,40.9 99.5,41.3 106.3,41.5 113.2,41.5 120.1,41.4 126.9,41.1 133.6,40.7 140.1,40.2 146.4,39.5 152.5,38.7 158.2,37.7 163.7,36.7 168.7,35.5 173.3,34.2 177.4,32.8 181.1,31.4 184.2,29.8 186.8,28.3 188.8,26.6 190.3,24.9 191.2,23.2" fill="url(#sph5)" stroke="#000000" stroke-width="1.0" stroke-linecap="butt" stroke-linejoin="round" />
		<defs>
			<radialGradient id="sph6">
				<stop offset="0%" stop-color="#AAAAFF" />
				<stop offset="10%" stop-color="#A8A8FC" />
				<stop offset="20%" stop-color="#A3A3F5" />
				<stop offset="30%" stop-color="#9B9BE8" />
				<stop offset="40%" stop-color="#8F8FD6" />
				<stop offset="50%" stop-color="#8080BF" />
				<stop offset="60%" stop-color="#6D6DA3" />
				<stop offset="70%" stop-color="#575782" />
				<stop offset="80%" stop-color="#3D3D5C" />
				<stop offset="90%" stop-color="#202030" />
				<stop offset="100%" stop-color="#000000" />
			</radialGradient>
		</defs>
		<polygon points="191.5,101.5 191.2,99.8 190.3,98.1 188.8,96.4 186.8,94.7 184.2,93.2 181.1,91.6 177.4,90.2 173.3,88.8 168.7,87.5 163.7,86.3 158.2,85.3 152.5,84.3 146.4,83.5 140.1,82.8 133.6,82.3 126.9,81.9 120.1,81.6 113.2,81.5 106.3,81.5 99.5,81.7 92.7,82.1 86.1,82.5 79.7,83.1 73.5,83.9 67.6,84.8 62.0,85.8 56.8,86.9 52.0,88.1 47.6,89.5 43.7,90.9 40.3,92.4 37.4,93.9 35.1,95.6 33.3,97.2 32.2,98.9 31.6,100.6 31.6,102.4 32.2,104.1 33.3,105.8 35.1,107.4 37.4,109.1 40.3,110.6 43.7,112.1 47.6,113.5 52.0,114.9 56.8,116.1 62.0,117.2 67.6,118.2 73.5,119.1 79.7,119.9 86.1,120.5 92.7,120.9 99.5,121.3 106.3,121.5 113.2,121.5 120.1,121.4 126.9,121.1 133.6,120.7 140.1,120.2 146.4,119.5 152.5,118.7 158.2,117.7 163.7,116.7 168.7,115.5 173.3,114.2 177.4,112.8 181.1,111.4 184.2,109.8 186.8,108.3 188.8,106.6 190.3,104.9 191.2,103.2" fill="url(#sph6)" stroke="#000000" stroke-width="1.0" stroke-linecap="butt" stroke-linejoin="round" />
		<polyline points="211.5,101.5 191.5,101.5" fill-opacity="0" stroke="#000000" stroke-width="1.0" stroke-linecap="butt" stroke-linejoin="round" />
		<polyline points="211.5,161.5 191.5,161.5" fill-opacity="0" stroke="#EE2E2F" stroke-width="1.0" stroke-linecap="butt" stroke-linejoin="round" />
		<polygon points="191.5,161.5 191.5,161.2 191.4,160.8 191.4,160.5 191.3,160.1 191.1,159.8 191.0,159.5 190.8,159.2 190.6,159.0 190.4,158.7 190.1,158.5 189.8,158.3 189.5,158.1 189.2,157.9 188.9,157.8 188.6,157.7 188.3,157.6 187.9,157.5 187.6,157.5 187.2,157.5 186.9,157.5 186.6,157.6 186.2,157.7 185.9,157.8 185.6,158.0 185.3,158.2 185.0,158.4 184.8,158.6 184.5,158.8 184.3,159.1 184.1,159.4 183.9,159.7 183.8,160.0 183.7,160.3 183.6,160.6 183.5,161.0 183.5,161.3 183.5,161.7 183.5,162.0 183.6,162.4 183.7,162.7 183.8,163.0 183.9,163.3 184.1,163.6 184.3,163.9 184.5,164.2 184.8,164.4 185.0,164.6 185.3,164.8 185.6,165.0 185.9,165.2 186.2,165.3 186.6,165.4 186.9,165.5 187.2,165.5 187.6,165.5 187.9,165.5 188.3,165.4 188.6,165.3 188.9,165.2 189.2,165.1 189.5,164.9 189.8,164.7 190.1,164.5 190.4,164.3 190.6,164.0 190.8,163.8 191.0,163.5 191.1,163.2 191.3,162.9 191.4,162.5 191.4,162.2 191.5,161.8" fill="#EE2E2F" stroke="#EE2E2F" stroke-width="1.0" stroke-linecap="butt" stroke-linejoin="round" />
		<g id="flowPort" class="port">
			<polygon points="101.5,211.5 121.5,211.5 121.5,191.5 101.5,191.5" fill="#FFFFFF" stroke="#FF0000" stroke-width="1.0" stroke-linecap="butt" stroke-linejoin="round" />
			<polygon points="121.3,201.5 121.3,200.7 121.2,199.8 121.0,199.0 120.7,198.2 120.4,197.4 120.0,196.7 119.6,195.9 119.1,195.3 118.5,194.6 117.9,194.1 117.2,193.5 116.5,193.1 115.8,192.7 115.0,192.3 114.2,192.1 113.4,191.9 112.6,191.8 111.7,191.7 110.9,191.7 110.0,191.8 109.2,192.0 108.4,192.2 107.6,192.5 106.8,192.9 106.1,193.3 105.4,193.8 104.8,194.4 104.2,195.0 103.7,195.6 103.2,196.3 102.8,197.0 102.4,197.8 102.1,198.6 101.9,199.4 101.8,200.2 101.7,201.1 101.7,201.9 101.8,202.8 101.9,203.6 102.1,204.4 102.4,205.2 102.8,206.0 103.2,206.7 103.7,207.4 104.2,208.0 104.8,208.6 105.4,209.2 106.1,209.7 106.8,210.1 107.6,210.5 108.4,210.8 109.2,211.0 110.0,211.2 110.9,211.3 111.7,211.3 112.6,211.2 113.4,211.1 114.2,210.9 115.0,210.7 115.8,210.3 116.5,209.9 117.2,209.5 117.9,208.9 118.5,208.4 119.1,207.7 119.6,207.1 120.0,206.3 120.4,205.6 120.7,204.8 121.0,204.0 121.2,203.2 121.3,202.3" fill="#0000FF" stroke="#0000FF" stroke-width="1.0" stroke-linecap="butt" stroke-linejoin="round" />
		</g>
		<g id="heatPort" class="port">
			<polygon points="1.5,211.5 21.5,211.5 21.5,191.5 1.5,191.5" fill="#BF0000" stroke="#BF0000" stroke-width="1.0" stroke-linecap="butt" stroke-linejoin="round" />
		</g>
		<g id="level" class="port">
			<polygon points="211.5,111.5 231.5,101.5 211.5,91.5" fill="#FFFFFF" stroke="#00007F" stroke-width="1.0" stroke-linecap="butt" stroke-linejoin="round" />
		</g>
		<g id="TTank" class="port">
			<polygon points="211.5,171.5 231.5,161.5 211.5,151.5" fill="#FFFFFF" stroke="#00007F" stroke-width="1.0" stroke-linecap="butt" stroke-linejoin="round" />
		</g>
	</g>
</svg>
