<svg width="223" height="203" xmlns="http://www.w3.org/2000/svg" xmlns:xlink="http://www.w3.org/1999/xlink">
	<g id="Modelica.Fluid.Examples.IncompressibleFluidNetwork" class="component">
		<polygon points="221.5,101.5 221.1,92.9 219.9,84.4 217.9,76.0 215.0,67.7 211.5,59.8 207.2,52.1 202.1,44.8 196.4,38.0 190.1,31.6 183.2,25.7 175.8,20.3 167.9,15.6 159.5,11.5 150.8,8.1 141.9,5.4 132.7,3.4 123.3,2.1 113.9,1.5 104.4,1.7 95.0,2.6 85.7,4.3 76.6,6.7 67.8,9.7 59.3,13.5 51.1,17.9 43.4,22.9 36.3,28.5 29.6,34.7 23.6,41.3 18.3,48.4 13.6,55.9 9.6,63.7 6.5,71.8 4.0,80.1 2.4,88.6 1.6,97.2 1.6,105.8 2.4,114.4 4.0,122.9 6.5,131.2 9.6,139.3 13.6,147.1 18.3,154.6 23.6,161.7 29.6,168.3 36.3,174.5 43.4,180.1 51.1,185.1 59.3,189.5 67.8,193.3 76.6,196.3 85.7,198.7 95.0,200.4 104.4,201.3 113.9,201.5 123.3,200.9 132.7,199.6 141.9,197.6 150.8,194.9 159.5,191.5 167.9,187.4 175.8,182.7 183.2,177.3 190.1,171.4 196.4,165.0 202.1,158.2 207.2,150.9 211.5,143.2 215.0,135.3 217.9,127.0 219.9,118.6 221.1,110.1" fill="#FFFFFF" stroke="#4B8A49" stroke-width="1.0" stroke-linecap="round" stroke-linejoin="round" />
		<polygon points="71.9,41.5 181.9,101.5 71.9,161.5" fill="#4B8A49" stroke-opacity="0" stroke-width="1.0" stroke-linecap="round" stroke-linejoin="round" />
	</g>
</svg>
