<svg width="203" height="203" xmlns="http://www.w3.org/2000/svg" xmlns:xlink="http://www.w3.org/1999/xlink">
	<g id="Modelica.Mechanics.Translational.Components" class="component">
		<defs>
			<linearGradient id="cyl2" x1="0" y1="0" x2="0" y2="1">
				<stop offset="0%" stop-color="#C8C8C8" />
				<stop offset="5%" stop-color="#D1D1D1" />
				<stop offset="10%" stop-color="#D9D9D9" />
				<stop offset="15%" stop-color="#E0E0E0" />
				<stop offset="20%" stop-color="#E7E7E7" />
				<stop offset="25%" stop-color="#ECECEC" />
				<stop offset="30%" stop-color="#F0F0F0" />
				<stop offset="35%" stop-color="#F4F4F4" />
				<stop offset="40%" stop-color="#F6F6F6" />
				<stop offset="45%" stop-color="#F8F8F8" />
				<stop offset="50%" stop-color="#F8F8F8" />
				<stop offset="55%" stop-color="#F8F8F8" />
				<stop offset="60%" stop-color="#F6F6F6" />
				<stop offset="65%" stop-color="#F4F4F4" />
				<stop offset="70%" stop-color="#F0F0F0" />
				<stop offset="75%" stop-color="#ECECEC" />
				<stop offset="80%" stop-color="#E7E7E7" />
				<stop offset="85%" stop-color="#E0E0E0" />
				<stop offset="90%" stop-color="#D9D9D9" />
				<stop offset="95%" stop-color="#D1D1D1" />
				<stop offset="100%" stop-color="#C8C8C8" />
			</linearGradient>
		</defs>
		<polygon points="8.8,194.2 11.0,196.1 13.3,197.8 15.7,199.1 18.2,200.2 20.8,200.9 23.6,201.4 26.5,201.5 26.5,201.5 50.4,201.5 101.5,201.5 101.5,201.5 152.6,201.5 176.5,201.5 176.5,201.5 179.4,201.4 182.2,200.9 184.8,200.2 187.3,199.1 189.7,197.8 192.0,196.1 194.2,194.2 194.2,194.2 196.1,192.0 197.8,189.7 199.1,187.3 200.2,184.8 200.9,182.2 201.4,179.4 201.5,176.5 201.5,176.5 201.5,152.6 201.5,101.5 201.5,101.5 201.5,50.4 201.5,26.5 201.5,26.5 201.4,23.6 200.9,20.8 200.2,18.2 199.1,15.7 197.8,13.3 196.1,11.0 194.2,8.8 194.2,8.8 192.0,6.9 189.7,5.2 187.3,3.9 184.8,2.8 182.2,2.1 179.4,1.6 176.5,1.5 176.5,1.5 152.6,1.5 101.5,1.5 101.5,1.5 50.4,1.5 26.5,1.5 26.5,1.5 23.6,1.6 20.8,2.1 18.2,2.8 15.7,3.9 13.3,5.2 11.0,6.9 8.8,8.8 8.8,8.8 6.9,11.0 5.2,13.3 3.9,15.7 2.8,18.2 2.1,20.8 1.6,23.6 1.5,26.5 1.5,26.5 1.5,50.4 1.5,101.5 1.5,101.5 1.5,152.6 1.5,176.5 1.5,176.5 1.6,179.4 2.1,182.2 2.8,184.8 3.9,187.3 5.2,189.7 6.9,192.0" fill="url(#cyl2)" stroke="#C8C8C8" stroke-width="1.0" stroke-linecap="round" stroke-linejoin="round" />
		<polygon points="8.8,194.2 11.0,196.1 13.3,197.8 15.7,199.1 18.2,200.2 20.8,200.9 23.6,201.4 26.5,201.5 26.5,201.5 50.4,201.5 101.5,201.5 101.5,201.5 152.6,201.5 176.5,201.5 176.5,201.5 179.4,201.4 182.2,200.9 184.8,200.2 187.3,199.1 189.7,197.8 192.0,196.1 194.2,194.2 194.2,194.2 196.1,192.0 197.8,189.7 199.1,187.3 200.2,184.8 200.9,182.2 201.4,179.4 201.5,176.5 201.5,176.5 201.5,152.6 201.5,101.5 201.5,101.5 201.5,50.4 201.5,26.5 201.5,26.5 201.4,23.6 200.9,20.8 200.2,18.2 199.1,15.7 197.8,13.3 196.1,11.0 194.2,8.8 194.2,8.8 192.0,6.9 189.7,5.2 187.3,3.9 184.8,2.8 182.2,2.1 179.4,1.6 176.5,1.5 176.5,1.5 152.6,1.5 101.5,1.5 101.5,1.5 50.4,1.5 26.5,1.5 26.5,1.5 23.6,1.6 20.8,2.1 18.2,2.8 15.7,3.9 13.3,5.2 11.0,6.9 8.8,8.8 8.8,8.8 6.9,11.0 5.2,13.3 3.9,15.7 2.8,18.2 2.1,20.8 1.6,23.6 1.5,26.5 1.5,26.5 1.5,50.4 1.5,101.5 1.5,101.5 1.5,152.6 1.5,176.5 1.5,176.5 1.6,179.4 2.1,182.2 2.8,184.8 3.9,187.3 5.2,189.7 6.9,192.0" fill-opacity="0" stroke="#808080" stroke-width="1.0" stroke-linecap="round" stroke-linejoin="round" />
		<defs>
			<radialGradient id="sph4">
				<stop offset="0%" stop-color="#FFFFFF" />
				<stop offset="10%" stop-color="#FDFDFD" />
				<stop offset="20%" stop-color="#F7F7F7" />
				<stop offset="30%" stop-color="#EEEEEE" />
				<stop offset="40%" stop-color="#E0E0E0" />
				<stop offset="50%" stop-color="#CFCFCF" />
				<stop offset="60%" stop-color="#BABABA" />
				<stop offset="70%" stop-color="#A1A1A1" />
				<stop offset="80%" stop-color="#858585" />
				<stop offset="90%" stop-color="#646464" />
				<stop offset="100%" stop-color="#404040" />
			</radialGradient>
		</defs>
		<polygon points="46.0,136.3 157.0,136.3 157.0,76.3 46.0,76.3" fill="url(#sph4)" stroke="#404040" stroke-width="1.0" stroke-linecap="round" stroke-linejoin="round" />
	</g>
</svg>
