<svg width="263" height="203" xmlns="http://www.w3.org/2000/svg" xmlns:xlink="http://www.w3.org/1999/xlink">
	<g id="Modelica.Blocks.Routing.DeMultiplex" class="component">
		<polygon points="41.5,201.5 241.5,201.5 241.5,1.5 41.5,1.5" fill="#FFFFFF" stroke="#00007F" stroke-width="1.0" stroke-linecap="butt" stroke-linejoin="round" />
		<polyline points="149.5,101.5 243.5,101.5" fill-opacity="0" stroke="#00007F" stroke-width="1.0" stroke-linecap="butt" stroke-linejoin="round" />
		<polygon points="156.5,101.5 156.4,100.2 156.3,98.9 156.0,97.7 155.6,96.4 155.1,95.2 154.5,94.1 153.9,93.0 153.1,92.0 152.2,91.0 151.3,90.1 150.3,89.3 149.2,88.6 148.0,88.0 146.9,87.5 145.6,87.1 144.4,86.8 143.1,86.6 141.8,86.5 140.5,86.5 139.2,86.7 138.0,86.9 136.7,87.3 135.5,87.7 134.4,88.3 133.3,89.0 132.2,89.7 131.2,90.6 130.3,91.5 129.5,92.5 128.8,93.5 128.1,94.7 127.6,95.8 127.2,97.0 126.8,98.3 126.6,99.6 126.5,100.9 126.5,102.1 126.6,103.4 126.8,104.7 127.2,106.0 127.6,107.2 128.1,108.3 128.8,109.5 129.5,110.5 130.3,111.5 131.2,112.4 132.2,113.3 133.3,114.0 134.4,114.7 135.5,115.3 136.7,115.7 138.0,116.1 139.2,116.3 140.5,116.5 141.8,116.5 143.1,116.4 144.4,116.2 145.6,115.9 146.9,115.5 148.0,115.0 149.2,114.4 150.3,113.7 151.3,112.9 152.2,112.0 153.1,111.0 153.9,110.0 154.5,108.9 155.1,107.8 155.6,106.6 156.0,105.3 156.3,104.1 156.4,102.8" fill="#00007F" stroke="#00007F" stroke-width="1.0" stroke-linecap="butt" stroke-linejoin="round" />
		<polyline points="41.5,101.5 135.5,101.5" fill-opacity="0" stroke="#00007F" stroke-width="1.0" stroke-linecap="butt" stroke-linejoin="round" />
		<polyline points="241.5,31.5 201.5,31.5 145.5,97.5" fill-opacity="0" stroke="#00007F" stroke-width="1.0" stroke-linecap="butt" stroke-linejoin="round" />
		<polyline points="141.5,101.5 241.5,101.5" fill-opacity="0" stroke="#00007F" stroke-width="1.0" stroke-linecap="butt" stroke-linejoin="round" />
		<polyline points="241.5,171.5 201.5,171.5 145.5,105.5" fill-opacity="0" stroke="#00007F" stroke-width="1.0" stroke-linecap="butt" stroke-linejoin="round" />
		<g id="u" class="port">
			<polygon points="1.5,81.5 41.5,101.5 1.5,121.5" fill="#00007F" stroke="#00007F" stroke-width="1.0" stroke-linecap="butt" stroke-linejoin="round" />
		</g>
		<g id="y" class="port">
			<polygon points="261.5,101.5 261.4,107.5 261.2,113.5 260.8,119.4 260.3,125.1 259.7,130.7 258.9,136.1 258.0,141.2 256.9,146.0 255.8,150.5 254.5,154.6 253.2,158.3 251.7,161.6 250.2,164.5 248.7,166.9 247.0,168.8 245.3,170.2 243.6,171.1 241.9,171.5 240.2,171.4 238.5,170.7 236.8,169.5 235.2,167.9 233.5,165.7 232.0,163.1 230.5,160.0 229.1,156.5 227.8,152.6 226.6,148.3 225.5,143.6 224.5,138.7 223.7,133.4 223.0,127.9 222.4,122.3 222.0,116.4 221.7,110.5 221.5,104.5 221.5,98.5 221.7,92.5 222.0,86.6 222.4,80.7 223.0,75.1 223.7,69.6 224.5,64.3 225.5,59.4 226.6,54.7 227.8,50.4 229.1,46.5 230.5,43.0 232.0,39.9 233.5,37.3 235.2,35.1 236.8,33.5 238.5,32.3 240.2,31.6 241.9,31.5 243.6,31.9 245.3,32.8 247.0,34.2 248.7,36.1 250.2,38.5 251.7,41.4 253.2,44.7 254.5,48.4 255.8,52.5 256.9,57.0 258.0,61.8 258.9,66.9 259.7,72.3 260.3,77.9 260.8,83.6 261.2,89.5 261.4,95.5" fill="#00007F" stroke="#00007F" stroke-width="1.0" stroke-linecap="butt" stroke-linejoin="round" />
		</g>
	</g>
</svg>
