<svg width="223" height="215" xmlns="http://www.w3.org/2000/svg" xmlns:xlink="http://www.w3.org/1999/xlink">
	<g id="Modelica.Thermal.FluidHeatFlow.Components.IsolatedPipe" class="component">
		<polygon points="21.5,123.5 201.5,123.5 201.5,83.5 21.5,83.5" fill="#0000FF" stroke="#FF0000" stroke-width="1.0" stroke-linecap="butt" stroke-linejoin="round" />
		<polygon points="9.5,205.5 213.5,205.5 213.5,1.5 9.5,1.5" fill-opacity="0" stroke="#FF0000" stroke-dasharray="3 4" stroke-width="1.0" stroke-linecap="butt" stroke-linejoin="round" />
		<g id="flowPort_a" class="port">
			<polygon points="1.5,113.5 21.5,113.5 21.5,93.5 1.5,93.5" fill="#FFFFFF" stroke="#FF0000" stroke-width="1.0" stroke-linecap="butt" stroke-linejoin="round" />
			<polygon points="21.3,103.5 21.3,102.7 21.2,101.8 21.0,101.0 20.7,100.2 20.4,99.4 20.0,98.7 19.6,97.9 19.1,97.3 18.5,96.6 17.9,96.1 17.2,95.5 16.5,95.1 15.8,94.7 15.0,94.3 14.2,94.1 13.4,93.9 12.6,93.8 11.7,93.7 10.9,93.7 10.0,93.8 9.2,94.0 8.4,94.2 7.6,94.5 6.8,94.9 6.1,95.3 5.4,95.8 4.8,96.4 4.2,97.0 3.7,97.6 3.2,98.3 2.8,99.0 2.4,99.8 2.1,100.6 1.9,101.4 1.8,102.2 1.7,103.1 1.7,103.9 1.8,104.8 1.9,105.6 2.1,106.4 2.4,107.2 2.8,108.0 3.2,108.7 3.7,109.4 4.2,110.0 4.8,110.6 5.4,111.2 6.1,111.7 6.8,112.1 7.6,112.5 8.4,112.8 9.2,113.0 10.0,113.2 10.9,113.3 11.7,113.3 12.6,113.2 13.4,113.1 14.2,112.9 15.0,112.7 15.8,112.3 16.5,111.9 17.2,111.5 17.9,110.9 18.5,110.4 19.1,109.7 19.6,109.1 20.0,108.3 20.4,107.6 20.7,106.8 21.0,106.0 21.2,105.2 21.3,104.3" fill="#0000FF" stroke="#0000FF" stroke-width="1.0" stroke-linecap="butt" stroke-linejoin="round" />
		</g>
		<g id="flowPort_b" class="port">
			<polygon points="201.5,113.5 221.5,113.5 221.5,93.5 201.5,93.5" fill="#FFFFFF" stroke="#FF0000" stroke-width="1.0" stroke-linecap="butt" stroke-linejoin="round" />
			<polygon points="221.3,103.5 221.3,102.7 221.2,101.8 221.0,101.0 220.7,100.2 220.4,99.4 220.0,98.7 219.6,97.9 219.1,97.3 218.5,96.6 217.9,96.1 217.2,95.5 216.5,95.1 215.8,94.7 215.0,94.3 214.2,94.1 213.4,93.9 212.6,93.8 211.7,93.7 210.9,93.7 210.0,93.8 209.2,94.0 208.4,94.2 207.6,94.5 206.8,94.9 206.1,95.3 205.4,95.8 204.8,96.4 204.2,97.0 203.7,97.6 203.2,98.3 202.8,99.0 202.4,99.8 202.1,100.6 201.9,101.4 201.8,102.2 201.7,103.1 201.7,103.9 201.8,104.8 201.9,105.6 202.1,106.4 202.4,107.2 202.8,108.0 203.2,108.7 203.7,109.4 204.2,110.0 204.8,110.6 205.4,111.2 206.1,111.7 206.8,112.1 207.6,112.5 208.4,112.8 209.2,113.0 210.0,113.2 210.9,113.3 211.7,113.3 212.6,113.2 213.4,113.1 214.2,112.9 215.0,112.7 215.8,112.3 216.5,111.9 217.2,111.5 217.9,110.9 218.5,110.4 219.1,109.7 219.6,109.1 220.0,108.3 220.4,107.6 220.7,106.8 221.0,106.0 221.2,105.2 221.3,104.3" fill-opacity="0" stroke="#0000FF" stroke-width="1.0" stroke-linecap="butt" stroke-linejoin="round" />
		</g>
		<g id="heatPort" class="port">
			<polygon points="101.5,213.5 121.5,213.5 121.5,193.5 101.5,193.5" fill="#BF0000" stroke="#BF0000" stroke-width="1.0" stroke-linecap="butt" stroke-linejoin="round" />
		</g>
	</g>
</svg>
