<svg width="208" height="208" xmlns="http://www.w3.org/2000/svg" xmlns:xlink="http://www.w3.org/1999/xlink">
	<g id="Modelica.Mechanics.MultiBody.Joints.Assemblies.JointUPS" class="component">
		<defs>
			<radialGradient id="sph2">
				<stop offset="0%" stop-color="#C0C0C0" />
				<stop offset="10%" stop-color="#BEBEBE" />
				<stop offset="20%" stop-color="#B8B8B8" />
				<stop offset="30%" stop-color="#AFAFAF" />
				<stop offset="40%" stop-color="#A1A1A1" />
				<stop offset="50%" stop-color="#909090" />
				<stop offset="60%" stop-color="#7B7B7B" />
				<stop offset="70%" stop-color="#626262" />
				<stop offset="80%" stop-color="#454545" />
				<stop offset="90%" stop-color="#242424" />
				<stop offset="100%" stop-color="#000000" />
			</radialGradient>
		</defs>
		<polygon points="84.9,106.5 84.8,103.1 84.3,99.6 83.6,96.3 82.5,93.0 81.2,89.8 79.6,86.7 77.8,83.8 75.7,81.1 73.3,78.5 70.8,76.2 68.1,74.0 65.2,72.1 62.1,70.5 58.9,69.1 55.6,68.1 52.2,67.2 48.7,66.7 45.3,66.5 41.8,66.6 38.3,67.0 34.9,67.6 31.6,68.6 28.3,69.8 25.2,71.3 22.2,73.1 19.3,75.1 16.7,77.3 14.3,79.8 12.0,82.4 10.1,85.3 8.4,88.3 6.9,91.4 5.7,94.6 4.8,98.0 4.2,101.4 3.9,104.8 3.9,108.2 4.2,111.6 4.8,115.0 5.7,118.4 6.9,121.6 8.4,124.7 10.1,127.7 12.0,130.6 14.3,133.2 16.7,135.7 19.3,137.9 22.2,139.9 25.2,141.7 28.3,143.2 31.6,144.4 34.9,145.4 38.3,146.0 41.8,146.4 45.3,146.5 48.7,146.3 52.2,145.8 55.6,144.9 58.9,143.9 62.1,142.5 65.2,140.9 68.1,139.0 70.8,136.8 73.3,134.5 75.7,131.9 77.8,129.2 79.6,126.3 81.2,123.2 82.5,120.0 83.6,116.7 84.3,113.4 84.8,109.9" fill="url(#sph2)" stroke="#000000" stroke-width="1.0" stroke-linecap="round" stroke-linejoin="round" />
		<polygon points="74.9,107.0 74.8,104.5 74.4,101.9 73.9,99.5 73.1,97.0 72.1,94.7 70.9,92.4 69.5,90.3 68.0,88.3 66.2,86.4 64.3,84.6 62.2,83.1 60.0,81.7 57.7,80.5 55.3,79.5 52.8,78.6 50.3,78.1 47.7,77.7 45.1,77.5 42.4,77.6 39.8,77.8 37.2,78.3 34.7,79.0 32.3,79.9 29.9,81.0 27.7,82.3 25.5,83.8 23.5,85.5 21.7,87.3 20.0,89.3 18.6,91.3 17.3,93.6 16.2,95.9 15.3,98.2 14.6,100.7 14.2,103.2 13.9,105.7 13.9,108.3 14.2,110.8 14.6,113.3 15.3,115.8 16.2,118.1 17.3,120.4 18.6,122.7 20.0,124.7 21.7,126.7 23.5,128.5 25.5,130.2 27.7,131.7 29.9,133.0 32.3,134.1 34.7,135.0 37.2,135.7 39.8,136.2 42.4,136.4 45.1,136.5 47.7,136.3 50.3,135.9 52.8,135.4 55.3,134.5 57.7,133.5 60.0,132.3 62.2,130.9 64.3,129.4 66.2,127.6 68.0,125.7 69.5,123.7 70.9,121.6 72.1,119.3 73.1,117.0 73.9,114.5 74.4,112.1 74.8,109.5" fill="#FFFFFF" stroke="#A0A0A4" stroke-width="1.0" stroke-linecap="round" stroke-linejoin="round" />
		<polygon points="43.9,150.5 94.9,150.5 94.9,65.5 43.9,65.5" fill="#FFFFFF" stroke="#FFFFFF" stroke-width="1.0" stroke-linecap="round" stroke-linejoin="round" />
		<polyline points="43.9,66.5 43.9,146.5" fill-opacity="0" stroke="#000000" stroke-width="1.0" stroke-linecap="round" stroke-linejoin="round" />
		<defs>
			<radialGradient id="sph6">
				<stop offset="0%" stop-color="#C0C0C0" />
				<stop offset="10%" stop-color="#BEBEBE" />
				<stop offset="20%" stop-color="#B8B8B8" />
				<stop offset="30%" stop-color="#AFAFAF" />
				<stop offset="40%" stop-color="#A1A1A1" />
				<stop offset="50%" stop-color="#909090" />
				<stop offset="60%" stop-color="#7B7B7B" />
				<stop offset="70%" stop-color="#626262" />
				<stop offset="80%" stop-color="#454545" />
				<stop offset="90%" stop-color="#242424" />
				<stop offset="100%" stop-color="#000000" />
			</radialGradient>
		</defs>
		<polygon points="69.9,104.5 69.8,102.9 69.5,101.2 69.1,99.6 68.5,98.1 67.7,96.6 66.7,95.1 65.6,93.7 64.3,92.4 62.9,91.2 61.4,90.1 59.7,89.1 58.0,88.2 56.1,87.4 54.2,86.8 52.2,86.2 50.1,85.9 48.0,85.6 45.9,85.5 43.8,85.5 41.7,85.7 39.7,86.0 37.6,86.5 35.7,87.1 33.8,87.8 32.0,88.6 30.2,89.6 28.6,90.6 27.2,91.8 25.8,93.1 24.6,94.4 23.6,95.8 22.7,97.3 22.0,98.9 21.5,100.4 21.1,102.1 20.9,103.7 20.9,105.3 21.1,106.9 21.5,108.6 22.0,110.1 22.7,111.7 23.6,113.2 24.6,114.6 25.8,115.9 27.2,117.2 28.6,118.4 30.2,119.4 32.0,120.4 33.8,121.2 35.7,121.9 37.6,122.5 39.7,123.0 41.7,123.3 43.8,123.5 45.9,123.5 48.0,123.4 50.1,123.1 52.2,122.8 54.2,122.2 56.1,121.6 58.0,120.8 59.7,119.9 61.4,118.9 62.9,117.8 64.3,116.6 65.6,115.3 66.7,113.9 67.7,112.4 68.5,110.9 69.1,109.4 69.5,107.8 69.8,106.1" fill="url(#sph6)" stroke="#000000" stroke-width="1.0" stroke-linecap="round" stroke-linejoin="round" />
		<polygon points="63.9,105.0 63.8,103.8 63.6,102.7 63.3,101.6 62.9,100.4 62.3,99.4 61.7,98.3 60.9,97.3 60.0,96.4 59.0,95.6 58.0,94.8 56.8,94.0 55.6,93.4 54.3,92.9 53.0,92.4 51.6,92.0 50.2,91.8 48.7,91.6 47.3,91.5 45.8,91.5 44.3,91.7 42.9,91.9 41.5,92.2 40.1,92.6 38.8,93.1 37.6,93.7 36.4,94.4 35.3,95.2 34.3,96.0 33.3,96.9 32.5,97.8 31.8,98.8 31.2,99.9 30.7,101.0 30.3,102.1 30.0,103.3 29.9,104.4 29.9,105.6 30.0,106.7 30.3,107.9 30.7,109.0 31.2,110.1 31.8,111.2 32.5,112.2 33.3,113.1 34.3,114.0 35.3,114.8 36.4,115.6 37.6,116.3 38.8,116.9 40.1,117.4 41.5,117.8 42.9,118.1 44.3,118.3 45.8,118.5 47.3,118.5 48.7,118.4 50.2,118.2 51.6,118.0 53.0,117.6 54.3,117.1 55.6,116.6 56.8,116.0 58.0,115.2 59.0,114.4 60.0,113.6 60.9,112.7 61.7,111.7 62.3,110.6 62.9,109.6 63.3,108.4 63.6,107.3 63.8,106.2" fill="#FFFFFF" stroke="#A0A0A4" stroke-width="1.0" stroke-linecap="round" stroke-linejoin="round" />
		<polygon points="31.9,126.5 14.9,103.5 34.9,81.5 58.9,79.5" fill="#FFFFFF" stroke-opacity="0" stroke-width="1.0" stroke-linecap="round" stroke-linejoin="round" />
		<polyline points="43.9,66.5 43.9,116.5" fill-opacity="0" stroke="#000000" stroke-width="1.0" stroke-linecap="round" stroke-linejoin="round" />
		<polyline points="54.9,86.5 34.9,121.5" fill-opacity="0" stroke="#000000" stroke-width="1.0" stroke-linecap="round" stroke-linejoin="round" />
		<polygon points="176.9,106.5 176.8,105.3 176.7,104.1 176.4,102.9 176.0,101.8 175.6,100.7 175.0,99.6 174.3,98.6 173.6,97.6 172.8,96.7 171.9,95.9 170.9,95.1 169.8,94.5 168.7,93.9 167.6,93.4 166.4,93.0 165.2,92.8 164.0,92.6 162.7,92.5 161.5,92.5 160.2,92.7 159.0,92.9 157.8,93.2 156.6,93.7 155.5,94.2 154.4,94.8 153.4,95.5 152.5,96.3 151.6,97.1 150.8,98.1 150.1,99.1 149.5,100.1 149.0,101.2 148.6,102.3 148.2,103.5 148.0,104.7 147.9,105.9 147.9,107.1 148.0,108.3 148.2,109.5 148.6,110.7 149.0,111.8 149.5,112.9 150.1,113.9 150.8,114.9 151.6,115.9 152.5,116.7 153.4,117.5 154.4,118.2 155.5,118.8 156.6,119.3 157.8,119.8 159.0,120.1 160.2,120.3 161.5,120.5 162.7,120.5 164.0,120.4 165.2,120.2 166.4,120.0 167.6,119.6 168.7,119.1 169.8,118.5 170.9,117.9 171.9,117.1 172.8,116.3 173.6,115.4 174.3,114.4 175.0,113.4 175.6,112.3 176.0,111.2 176.4,110.1 176.7,108.9 176.8,107.7" fill="#000000" stroke="#000000" stroke-width="1.0" stroke-linecap="round" stroke-linejoin="round" />
		<defs>
			<radialGradient id="sph12">
				<stop offset="0%" stop-color="#C0C0C0" />
				<stop offset="10%" stop-color="#BEBEBE" />
				<stop offset="20%" stop-color="#B8B8B8" />
				<stop offset="30%" stop-color="#AFAFAF" />
				<stop offset="40%" stop-color="#A1A1A1" />
				<stop offset="50%" stop-color="#909090" />
				<stop offset="60%" stop-color="#7B7B7B" />
				<stop offset="70%" stop-color="#626262" />
				<stop offset="80%" stop-color="#454545" />
				<stop offset="90%" stop-color="#242424" />
				<stop offset="100%" stop-color="#000000" />
			</radialGradient>
		</defs>
		<polygon points="203.9,106.5 203.8,103.1 203.3,99.6 202.6,96.3 201.6,93.0 200.3,89.8 198.7,86.7 196.9,83.8 194.8,81.1 192.5,78.5 190.0,76.2 187.3,74.0 184.4,72.1 181.4,70.5 178.2,69.1 174.9,68.1 171.6,67.2 168.2,66.7 164.8,66.5 161.3,66.6 157.9,67.0 154.5,67.6 151.2,68.6 148.0,69.8 144.9,71.3 141.9,73.1 139.2,75.1 136.5,77.3 134.1,79.8 131.9,82.4 130.0,85.3 128.3,88.3 126.9,91.4 125.7,94.6 124.8,98.0 124.2,101.4 123.9,104.8 123.9,108.2 124.2,111.6 124.8,115.0 125.7,118.4 126.9,121.6 128.3,124.7 130.0,127.7 131.9,130.6 134.1,133.2 136.5,135.7 139.2,137.9 141.9,139.9 144.9,141.7 148.0,143.2 151.2,144.4 154.5,145.4 157.9,146.0 161.3,146.4 164.8,146.5 168.2,146.3 171.6,145.8 174.9,144.9 178.2,143.9 181.4,142.5 184.4,140.9 187.3,139.0 190.0,136.8 192.5,134.5 194.8,131.9 196.9,129.2 198.7,126.3 200.3,123.2 201.6,120.0 202.6,116.7 203.3,113.4 203.8,109.9" fill="url(#sph12)" stroke="#000000" stroke-width="1.0" stroke-linecap="round" stroke-linejoin="round" />
		<polygon points="193.9,106.5 193.8,103.9 193.5,101.4 192.9,98.8 192.1,96.4 191.2,94.0 190.0,91.7 188.6,89.5 187.1,87.4 185.3,85.5 183.5,83.8 181.4,82.2 179.3,80.7 177.0,79.5 174.6,78.5 172.2,77.7 169.7,77.1 167.1,76.7 164.5,76.5 162.0,76.6 159.4,76.8 156.9,77.3 154.4,78.0 152.0,79.0 149.7,80.1 147.4,81.4 145.3,82.9 143.4,84.6 141.6,86.5 139.9,88.5 138.5,90.6 137.2,92.8 136.1,95.2 135.3,97.6 134.6,100.1 134.1,102.6 133.9,105.2 133.9,107.8 134.1,110.4 134.6,112.9 135.3,115.4 136.1,117.8 137.2,120.2 138.5,122.4 139.9,124.5 141.6,126.5 143.4,128.4 145.3,130.1 147.4,131.6 149.7,132.9 152.0,134.0 154.4,135.0 156.9,135.7 159.4,136.2 162.0,136.4 164.5,136.5 167.1,136.3 169.7,135.9 172.2,135.3 174.6,134.5 177.0,133.5 179.3,132.3 181.4,130.8 183.5,129.2 185.3,127.5 187.1,125.6 188.6,123.5 190.0,121.3 191.2,119.0 192.1,116.6 192.9,114.2 193.5,111.6 193.8,109.1" fill="#FFFFFF" stroke="#C0C0C0" stroke-width="1.0" stroke-linecap="round" stroke-linejoin="round" />
		<polygon points="81.9,149.5 143.9,149.5 143.9,61.5 81.9,61.5" fill="#FFFFFF" stroke="#FFFFFF" stroke-width="1.0" stroke-linecap="round" stroke-linejoin="round" />
		<defs>
			<radialGradient id="sph15">
				<stop offset="0%" stop-color="#C0C0C0" />
				<stop offset="10%" stop-color="#BEBEBE" />
				<stop offset="20%" stop-color="#B8B8B8" />
				<stop offset="30%" stop-color="#AFAFAF" />
				<stop offset="40%" stop-color="#A1A1A1" />
				<stop offset="50%" stop-color="#909090" />
				<stop offset="60%" stop-color="#7B7B7B" />
				<stop offset="70%" stop-color="#626262" />
				<stop offset="80%" stop-color="#454545" />
				<stop offset="90%" stop-color="#242424" />
				<stop offset="100%" stop-color="#000000" />
			</radialGradient>
		</defs>
		<polygon points="177.9,106.5 177.8,105.3 177.7,104.1 177.4,102.9 177.0,101.8 176.6,100.7 176.0,99.6 175.3,98.6 174.6,97.6 173.8,96.7 172.9,95.9 171.9,95.1 170.8,94.5 169.7,93.9 168.6,93.4 167.4,93.0 166.2,92.8 165.0,92.6 163.7,92.5 162.5,92.5 161.2,92.7 160.0,92.9 158.8,93.2 157.6,93.7 156.5,94.2 155.4,94.8 154.4,95.5 153.5,96.3 152.6,97.1 151.8,98.1 151.1,99.1 150.5,100.1 150.0,101.2 149.6,102.3 149.2,103.5 149.0,104.7 148.9,105.9 148.9,107.1 149.0,108.3 149.2,109.5 149.6,110.7 150.0,111.8 150.5,112.9 151.1,113.9 151.8,114.9 152.6,115.9 153.5,116.7 154.4,117.5 155.4,118.2 156.5,118.8 157.6,119.3 158.8,119.8 160.0,120.1 161.2,120.3 162.5,120.5 163.7,120.5 165.0,120.4 166.2,120.2 167.4,120.0 168.6,119.6 169.7,119.1 170.8,118.5 171.9,117.9 172.9,117.1 173.8,116.3 174.6,115.4 175.3,114.4 176.0,113.4 176.6,112.3 177.0,111.2 177.4,110.1 177.7,108.9 177.8,107.7" fill="url(#sph15)" stroke="#000000" stroke-width="1.0" stroke-linecap="round" stroke-linejoin="round" />
		<text x="24.9" y="41.4" text-anchor="middle" fill="#808080" font-size="25.2px" font-family="sans-serif">ia</text>
		<polyline points="63.9,106.5 63.9,16.5 23.9,16.5 23.9,9.5" fill-opacity="0" stroke="#5F5F5F" stroke-width="1.0" stroke-linecap="round" stroke-linejoin="round" />
		<polygon points="68.9,119.5 97.9,119.5 97.9,92.5 68.9,92.5" fill="#C0C0C0" stroke-opacity="0" stroke-width="1.0" stroke-linecap="round" stroke-linejoin="round" />
		<polygon points="68.9,92.5 97.9,92.5 97.9,88.5 68.9,88.5" fill="#000000" stroke-opacity="0" stroke-width="1.0" stroke-linecap="round" stroke-linejoin="round" />
		<polygon points="97.9,113.5 149.9,113.5 149.9,100.5 97.9,100.5" fill="#C0C0C0" stroke-opacity="0" stroke-width="1.0" stroke-linecap="round" stroke-linejoin="round" />
		<polygon points="97.9,100.5 149.9,100.5 149.9,96.5 97.9,96.5" fill="#000000" stroke-opacity="0" stroke-width="1.0" stroke-linecap="round" stroke-linejoin="round" />
		<polyline points="97.9,119.5 97.9,88.5" fill-opacity="0" stroke="#000000" stroke-width="1.0" stroke-linecap="round" stroke-linejoin="round" />
		<polyline points="163.9,107.5 163.9,16.5 183.9,16.5 183.9,9.5" fill-opacity="0" stroke="#5F5F5F" stroke-width="1.0" stroke-linecap="round" stroke-linejoin="round" />
		<polyline points="163.9,16.5 143.9,16.5 143.9,11.5" fill-opacity="0" stroke="#5F5F5F" stroke-width="1.0" stroke-linecap="round" stroke-linejoin="round" />
		<polyline points="73.9,36.5 113.9,36.5" fill-opacity="0" stroke="#000000" stroke-width="1.0" stroke-linecap="round" stroke-linejoin="round" />
		<polygon points="133.9,36.5 113.9,30.5 113.9,43.5" fill="#808080" stroke="#808080" stroke-width="1.0" stroke-linecap="round" stroke-linejoin="round" />
		<polyline points="63.9,16.5 63.9,11.5" fill-opacity="0" stroke="#5F5F5F" stroke-width="1.0" stroke-linecap="round" stroke-linejoin="round" />
		<g id="frame_a" class="port">
			<polygon points="3.1,107.3 4.7,107.3 4.7,105.7 3.1,105.7" fill-opacity="0" stroke="#5F5F5F" stroke-width="1.0" stroke-linecap="round" stroke-linejoin="round" />
			<polygon points="1.5,114.5 6.3,114.5 6.3,98.5 1.5,98.5" fill="#C0C0C0" stroke="#000000" stroke-width="1.0" stroke-linecap="round" stroke-linejoin="round" />
		</g>
		<g id="frame_b" class="port">
			<polygon points="203.1,107.3 204.7,107.3 204.7,105.7 203.1,105.7" fill-opacity="0" stroke="#5F5F5F" stroke-width="1.0" stroke-linecap="round" stroke-linejoin="round" />
			<polygon points="201.5,114.5 206.3,114.5 206.3,98.5 201.5,98.5" fill="#FFFFFF" stroke="#000000" stroke-width="1.0" stroke-linecap="round" stroke-linejoin="round" />
		</g>
		<g id="frame_ia" class="port">
			<polygon points="23.1,5.7 23.1,7.3 24.7,7.3 24.7,5.7" fill-opacity="0" stroke="#5F5F5F" stroke-width="1.0" stroke-linecap="round" stroke-linejoin="round" />
			<polygon points="15.9,4.1 15.9,8.9 31.9,8.9 31.9,4.1" fill="#C0C0C0" stroke="#000000" stroke-width="1.0" stroke-linecap="round" stroke-linejoin="round" />
		</g>
		<g id="frame_ib" class="port">
			<polygon points="184.7,5.7 184.7,7.3 183.1,7.3 183.1,5.7" fill-opacity="0" stroke="#5F5F5F" stroke-width="1.0" stroke-linecap="round" stroke-linejoin="round" />
			<polygon points="191.9,4.1 191.9,8.9 175.9,8.9 175.9,4.1" fill="#FFFFFF" stroke="#000000" stroke-width="1.0" stroke-linecap="round" stroke-linejoin="round" />
		</g>
		<g id="axis" class="port">
			<polygon points="148.9,11.5 138.9,11.5 138.9,1.5 148.9,1.5" fill="#007F00" stroke="#007F00" stroke-width="1.0" stroke-linecap="round" stroke-linejoin="round" />
		</g>
		<g id="bearing" class="port">
			<polygon points="68.9,11.5 58.9,11.5 58.9,1.5 68.9,1.5" fill="#FFFFFF" stroke="#007F00" stroke-width="1.0" stroke-linecap="round" stroke-linejoin="round" />
		</g>
	</g>
</svg>
