<svg width="215" height="225" xmlns="http://www.w3.org/2000/svg" xmlns:xlink="http://www.w3.org/1999/xlink">
	<g id="Modelica.Mechanics.Translational.Interfaces.PartialElementaryOneFlangeAndSupport" class="component">
		<polygon points="1.5,205.5 205.5,205.5 205.5,1.5 1.5,1.5" fill-opacity="0" stroke="#FF0000" stroke-dasharray="3 4" stroke-width="1.0" stroke-linecap="butt" stroke-linejoin="round" />
		<polyline points="53.5,223.5 73.5,203.5" fill-opacity="0" stroke="#000000" stroke-width="1.0" stroke-linecap="butt" stroke-linejoin="round" />
		<polyline points="73.5,223.5 93.5,203.5" fill-opacity="0" stroke="#000000" stroke-width="1.0" stroke-linecap="butt" stroke-linejoin="round" />
		<polyline points="93.5,223.5 113.5,203.5" fill-opacity="0" stroke="#000000" stroke-width="1.0" stroke-linecap="butt" stroke-linejoin="round" />
		<polyline points="113.5,223.5 133.5,203.5" fill-opacity="0" stroke="#000000" stroke-width="1.0" stroke-linecap="butt" stroke-linejoin="round" />
		<polyline points="73.5,203.5 133.5,203.5" fill-opacity="0" stroke="#000000" stroke-width="1.0" stroke-linecap="butt" stroke-linejoin="round" />
		<g id="flange" class="port">
			<polygon points="193.5,113.5 213.5,113.5 213.5,93.5 193.5,93.5" fill="#FFFFFF" stroke="#007F00" stroke-width="1.0" stroke-linecap="butt" stroke-linejoin="round" />
		</g>
		<g id="support" class="port">
			<polygon points="94.5,212.5 112.5,212.5 112.5,194.5 94.5,194.5" fill="#AFAFAF" stroke="#007F00" stroke-width="1.0" stroke-linecap="butt" stroke-linejoin="round" />
			<polygon points="88.5,218.5 118.5,218.5 118.5,188.5 88.5,188.5" fill="#AFBEAF" stroke-opacity="0" stroke-width="1.0" stroke-linecap="butt" stroke-linejoin="round" />
			<polygon points="94.5,212.5 112.5,212.5 112.5,194.5 94.5,194.5" fill="#007F00" stroke="#007F00" stroke-width="1.0" stroke-linecap="butt" stroke-linejoin="round" />
		</g>
	</g>
</svg>
