<svg width="223" height="203" xmlns="http://www.w3.org/2000/svg" xmlns:xlink="http://www.w3.org/1999/xlink">
	<g id="Modelica.Magnetic.FluxTubes.Shapes.HysteresisAndMagnets.GenericLinearPermanentMagnet" class="component">
		<polyline points="41.5,101.5 11.5,101.5" fill-opacity="0" stroke="#FF8000" stroke-width="1.0" stroke-linecap="butt" stroke-linejoin="round" />
		<polygon points="41.5,131.5 181.5,131.5 181.5,71.5 41.5,71.5" fill="#FFFFFF" stroke="#FF8000" stroke-width="1.0" stroke-linecap="butt" stroke-linejoin="round" />
		<polyline points="11.5,101.5 41.5,101.5" fill-opacity="0" stroke="#FF8000" stroke-width="1.0" stroke-linecap="butt" stroke-linejoin="round" />
		<polyline points="181.5,101.5 211.5,101.5" fill-opacity="0" stroke="#FF8000" stroke-width="1.0" stroke-linecap="butt" stroke-linejoin="round" />
		<polygon points="51.5,121.5 77.5,121.5 77.5,81.5 51.5,81.5" fill="#FF0000" stroke="#FF0000" stroke-width="1.0" stroke-linecap="butt" stroke-linejoin="round" />
		<g class="transform" transform="rotate(-90.0 77.2 101.5)">
			<text x="77.2" y="101.5" text-anchor="middle" fill="#000000" font-size="33.2px" font-family="sans-serif" font-weight="bold">N</text>
		</g>
		<polygon points="145.5,121.5 171.5,121.5 171.5,81.5 145.5,81.5" fill="#007F00" stroke="#007F00" stroke-width="1.0" stroke-linecap="butt" stroke-linejoin="round" />
		<g class="transform" transform="rotate(-90.0 171.2 101.5)">
			<text x="171.2" y="101.5" text-anchor="middle" fill="#000000" font-size="33.2px" font-family="sans-serif" font-weight="bold">S</text>
		</g>
		<g id="port_p" class="port">
			<polygon points="1.5,111.5 21.5,111.5 21.5,91.5 1.5,91.5" fill="#FF7F00" stroke="#FF7F00" stroke-width="1.0" stroke-linecap="butt" stroke-linejoin="round" />
		</g>
		<g id="port_n" class="port">
			<polygon points="201.5,111.5 221.5,111.5 221.5,91.5 201.5,91.5" fill="#FFFFFF" stroke="#FF7F00" stroke-width="1.0" stroke-linecap="butt" stroke-linejoin="round" />
		</g>
	</g>
</svg>
