<svg width="203" height="203" xmlns="http://www.w3.org/2000/svg" xmlns:xlink="http://www.w3.org/1999/xlink">
	<g id="Modelica.Media" class="component">
		<defs>
			<linearGradient id="cyl2" x1="0" y1="0" x2="0" y2="1">
				<stop offset="0%" stop-color="#C8C8C8" />
				<stop offset="5%" stop-color="#D1D1D1" />
				<stop offset="10%" stop-color="#D9D9D9" />
				<stop offset="15%" stop-color="#E0E0E0" />
				<stop offset="20%" stop-color="#E7E7E7" />
				<stop offset="25%" stop-color="#ECECEC" />
				<stop offset="30%" stop-color="#F0F0F0" />
				<stop offset="35%" stop-color="#F4F4F4" />
				<stop offset="40%" stop-color="#F6F6F6" />
				<stop offset="45%" stop-color="#F8F8F8" />
				<stop offset="50%" stop-color="#F8F8F8" />
				<stop offset="55%" stop-color="#F8F8F8" />
				<stop offset="60%" stop-color="#F6F6F6" />
				<stop offset="65%" stop-color="#F4F4F4" />
				<stop offset="70%" stop-color="#F0F0F0" />
				<stop offset="75%" stop-color="#ECECEC" />
				<stop offset="80%" stop-color="#E7E7E7" />
				<stop offset="85%" stop-color="#E0E0E0" />
				<stop offset="90%" stop-color="#D9D9D9" />
				<stop offset="95%" stop-color="#D1D1D1" />
				<stop offset="100%" stop-color="#C8C8C8" />
			</linearGradient>
		</defs>
		<polygon points="8.8,194.2 11.0,196.1 13.3,197.8 15.7,199.1 18.2,200.2 20.8,200.9 23.6,201.4 26.5,201.5 26.5,201.5 50.4,201.5 101.5,201.5 101.5,201.5 152.6,201.5 176.5,201.5 176.5,201.5 179.4,201.4 182.2,200.9 184.8,200.2 187.3,199.1 189.7,197.8 192.0,196.1 194.2,194.2 194.2,194.2 196.1,192.0 197.8,189.7 199.1,187.3 200.2,184.8 200.9,182.2 201.4,179.4 201.5,176.5 201.5,176.5 201.5,152.6 201.5,101.5 201.5,101.5 201.5,50.4 201.5,26.5 201.5,26.5 201.4,23.6 200.9,20.8 200.2,18.2 199.1,15.7 197.8,13.3 196.1,11.0 194.2,8.8 194.2,8.8 192.0,6.9 189.7,5.2 187.3,3.9 184.8,2.8 182.2,2.1 179.4,1.6 176.5,1.5 176.5,1.5 152.6,1.5 101.5,1.5 101.5,1.5 50.4,1.5 26.5,1.5 26.5,1.5 23.6,1.6 20.8,2.1 18.2,2.8 15.7,3.9 13.3,5.2 11.0,6.9 8.8,8.8 8.8,8.8 6.9,11.0 5.2,13.3 3.9,15.7 2.8,18.2 2.1,20.8 1.6,23.6 1.5,26.5 1.5,26.5 1.5,50.4 1.5,101.5 1.5,101.5 1.5,152.6 1.5,176.5 1.5,176.5 1.6,179.4 2.1,182.2 2.8,184.8 3.9,187.3 5.2,189.7 6.9,192.0" fill="url(#cyl2)" stroke="#C8C8C8" stroke-width="1.0" stroke-linecap="round" stroke-linejoin="round" />
		<polygon points="8.8,194.2 11.0,196.1 13.3,197.8 15.7,199.1 18.2,200.2 20.8,200.9 23.6,201.4 26.5,201.5 26.5,201.5 50.4,201.5 101.5,201.5 101.5,201.5 152.6,201.5 176.5,201.5 176.5,201.5 179.4,201.4 182.2,200.9 184.8,200.2 187.3,199.1 189.7,197.8 192.0,196.1 194.2,194.2 194.2,194.2 196.1,192.0 197.8,189.7 199.1,187.3 200.2,184.8 200.9,182.2 201.4,179.4 201.5,176.5 201.5,176.5 201.5,152.6 201.5,101.5 201.5,101.5 201.5,50.4 201.5,26.5 201.5,26.5 201.4,23.6 200.9,20.8 200.2,18.2 199.1,15.7 197.8,13.3 196.1,11.0 194.2,8.8 194.2,8.8 192.0,6.9 189.7,5.2 187.3,3.9 184.8,2.8 182.2,2.1 179.4,1.6 176.5,1.5 176.5,1.5 152.6,1.5 101.5,1.5 101.5,1.5 50.4,1.5 26.5,1.5 26.5,1.5 23.6,1.6 20.8,2.1 18.2,2.8 15.7,3.9 13.3,5.2 11.0,6.9 8.8,8.8 8.8,8.8 6.9,11.0 5.2,13.3 3.9,15.7 2.8,18.2 2.1,20.8 1.6,23.6 1.5,26.5 1.5,26.5 1.5,50.4 1.5,101.5 1.5,101.5 1.5,152.6 1.5,176.5 1.5,176.5 1.6,179.4 2.1,182.2 2.8,184.8 3.9,187.3 5.2,189.7 6.9,192.0" fill-opacity="0" stroke="#808080" stroke-width="1.0" stroke-linecap="round" stroke-linejoin="round" />
		<polyline points="25.5,181.5 32.5,156.5 35.6,146.1 39.4,134.9 43.8,122.9 48.8,110.1 54.5,96.5 54.5,96.5 56.7,91.6 58.8,86.9 61.1,82.5 63.3,78.3 65.6,74.3 67.9,70.5 70.2,67.0 72.6,63.7 75.0,60.6 77.5,57.7 79.9,55.1 82.4,52.7 84.9,50.5 87.5,48.5 87.5,48.5 90.1,46.7 92.7,45.1 95.4,43.5 98.1,42.1 100.9,40.9 103.7,39.7 106.5,38.8 109.4,37.9 112.3,37.2 115.3,36.6 118.3,36.1 121.3,35.8 124.4,35.6 127.5,35.5 127.5,35.5 131.1,35.6 134.6,35.8 137.9,36.2 141.1,36.7 144.2,37.3 147.1,38.1 149.9,39.1 152.6,40.2 155.2,41.4 157.6,42.8 159.9,44.3 162.0,46.0 162.0,46.0 164.0,47.9 165.7,49.9 167.1,52.2 168.3,54.8 169.3,57.5 170.0,60.5 170.5,63.7 170.7,67.1 170.6,70.7 170.3,74.6 169.8,78.7 169.0,83.0 169.0,83.0 166.7,93.4 164.4,103.3 161.9,112.8 159.2,121.9 156.5,130.5 156.5,130.5 150.0,150.0 144.5,166.5 139.5,181.5" fill-opacity="0" stroke="#404040" stroke-width="1.0" stroke-linecap="round" stroke-linejoin="round" />
		<polyline points="61.5,81.5 169.5,81.5" fill-opacity="0" stroke="#AFAFAF" stroke-width="1.0" stroke-linecap="round" stroke-linejoin="round" />
		<polyline points="61.5,81.5 57.5,13.5" fill-opacity="0" stroke="#AFAFAF" stroke-width="1.0" stroke-linecap="round" stroke-linejoin="round" />
		<polyline points="169.5,81.5 187.5,159.5" fill-opacity="0" stroke="#AFAFAF" stroke-width="1.0" stroke-linecap="round" stroke-linejoin="round" />
		<polyline points="41.5,129.5 157.5,129.5" fill-opacity="0" stroke="#AFAFAF" stroke-width="1.0" stroke-linecap="round" stroke-linejoin="round" />
		<polyline points="41.5,129.5 27.5,17.5" fill-opacity="0" stroke="#AFAFAF" stroke-width="1.0" stroke-linecap="round" stroke-linejoin="round" />
		<polyline points="157.5,129.5 171.5,181.5" fill-opacity="0" stroke="#AFAFAF" stroke-width="1.0" stroke-linecap="round" stroke-linejoin="round" />
		<polyline points="25.5,181.5 139.5,181.5" fill-opacity="0" stroke="#AFAFAF" stroke-width="1.0" stroke-linecap="round" stroke-linejoin="round" />
		<polyline points="25.5,181.5 7.5,117.5" fill-opacity="0" stroke="#AFAFAF" stroke-width="1.0" stroke-linecap="round" stroke-linejoin="round" />
	</g>
</svg>
