<svg width="253" height="203" xmlns="http://www.w3.org/2000/svg" xmlns:xlink="http://www.w3.org/1999/xlink">
	<g id="Modelica.Blocks.MathInteger.Product" class="component">
		<polygon points="21.5,201.5 221.5,201.5 221.5,1.5 21.5,1.5" fill="#FFD5AA" stroke="#FF8900" stroke-width="1.5" stroke-linecap="round" stroke-linejoin="round" />
		<polyline points="24.5,200.0 220.0,200.0 220.0,4.5" fill-opacity="0" stroke="#806B55" stroke-width="3.0" stroke-linecap="round" stroke-linejoin="round" />
		<polyline points="23.0,198.5 23.0,3.0 218.5,3.0" fill-opacity="0" stroke="#FFEAD5" stroke-width="3.0" stroke-linecap="round" stroke-linejoin="round" />
		<text x="131.5" y="191.4" text-anchor="middle" fill="#000000" font-size="191.3px" font-family="sans-serif">*</text>
		<g id="u" class="port">
			<polygon points="41.5,101.5 41.4,107.5 41.2,113.5 40.8,119.4 40.3,125.1 39.7,130.7 38.9,136.1 38.0,141.2 36.9,146.0 35.8,150.5 34.5,154.6 33.2,158.3 31.7,161.6 30.2,164.5 28.6,166.9 27.0,168.8 25.3,170.2 23.6,171.1 21.9,171.5 20.2,171.4 18.5,170.7 16.8,169.5 15.1,167.9 13.5,165.7 12.0,163.1 10.5,160.0 9.1,156.5 7.8,152.6 6.6,148.3 5.5,143.6 4.5,138.7 3.7,133.4 3.0,127.9 2.4,122.3 1.9,116.4 1.6,110.5 1.5,104.5 1.5,98.5 1.6,92.5 1.9,86.6 2.4,80.7 3.0,75.1 3.7,69.6 4.5,64.3 5.5,59.4 6.6,54.7 7.8,50.4 9.1,46.5 10.5,43.0 12.0,39.9 13.5,37.3 15.1,35.1 16.8,33.5 18.5,32.3 20.2,31.6 21.9,31.5 23.6,31.9 25.3,32.8 27.0,34.2 28.6,36.1 30.2,38.5 31.7,41.4 33.2,44.7 34.5,48.4 35.8,52.5 36.9,57.0 38.0,61.8 38.9,66.9 39.7,72.3 40.3,77.9 40.8,83.6 41.2,89.5 41.4,95.5" fill="#FF8000" stroke="#FF8000" stroke-width="1.0" stroke-linecap="round" stroke-linejoin="round" />
		</g>
		<g id="y" class="port">
			<polygon points="221.5,86.5 251.5,101.5 221.5,116.5" fill="#FFFFFF" stroke="#FF7F00" stroke-width="1.0" stroke-linecap="round" stroke-linejoin="round" />
		</g>
	</g>
</svg>
