<svg width="223" height="213" xmlns="http://www.w3.org/2000/svg" xmlns:xlink="http://www.w3.org/1999/xlink">
	<g id="Modelica.Electrical.Machines.Losses.DCMachines.Brush" class="component">
		<polyline points="11.5,201.5 19.5,181.5 31.5,161.5 51.5,141.5 71.5,129.5 91.5,123.5 111.5,121.5 131.5,123.5 151.5,129.5 171.5,141.5 191.5,161.5 203.5,181.5 211.5,201.5" fill-opacity="0" stroke="#0000FF" stroke-width="1.0" stroke-linecap="round" stroke-linejoin="round" />
		<polygon points="91.5,123.5 71.5,129.5 71.5,81.5 151.5,81.5 151.5,129.5 131.5,123.5 111.5,121.5" fill="#0000FF" stroke="#0000FF" stroke-width="1.0" stroke-linecap="round" stroke-linejoin="round" />
		<polyline points="21.5,101.5 71.5,101.5" fill-opacity="0" stroke="#0000FF" stroke-width="1.0" stroke-linecap="round" stroke-linejoin="round" />
		<polyline points="151.5,101.5 201.5,101.5" fill-opacity="0" stroke="#0000FF" stroke-width="1.0" stroke-linecap="round" stroke-linejoin="round" />
		<g id="p" class="port">
			<polygon points="1.5,111.5 21.5,111.5 21.5,91.5 1.5,91.5" fill="#0000FF" stroke="#0000FF" stroke-width="1.0" stroke-linecap="round" stroke-linejoin="round" />
		</g>
		<g id="n" class="port">
			<polygon points="221.5,111.5 201.5,111.5 201.5,91.5 221.5,91.5" fill="#FFFFFF" stroke="#0000FF" stroke-width="1.0" stroke-linecap="round" stroke-linejoin="round" />
		</g>
		<g id="heatPort" class="port">
			<polygon points="1.5,211.5 21.5,211.5 21.5,191.5 1.5,191.5" fill="#BF0000" stroke="#BF0000" stroke-width="1.0" stroke-linecap="round" stroke-linejoin="round" />
		</g>
	</g>
</svg>
