<svg width="223" height="203" xmlns="http://www.w3.org/2000/svg" xmlns:xlink="http://www.w3.org/1999/xlink">
	<g id="Modelica.ComplexBlocks.Sources.LogFrequencySweep" class="component">
		<polygon points="1.5,201.5 201.5,201.5 201.5,1.5 1.5,1.5" fill="#FFFFFF" stroke="#00007F" stroke-width="1.0" stroke-linecap="butt" stroke-linejoin="round" />
		<polyline points="23.5,57.5 181.5,57.5" fill-opacity="0" stroke="#878787" stroke-width="1.0" stroke-linecap="butt" stroke-linejoin="round" />
		<polyline points="23.5,67.5 181.5,67.5" fill-opacity="0" stroke="#878787" stroke-width="1.0" stroke-linecap="butt" stroke-linejoin="round" />
		<polyline points="23.5,81.5 181.5,81.5" fill-opacity="0" stroke="#878787" stroke-width="1.0" stroke-linecap="butt" stroke-linejoin="round" />
		<polyline points="23.5,103.5 181.5,103.5" fill-opacity="0" stroke="#878787" stroke-width="1.0" stroke-linecap="butt" stroke-linejoin="round" />
		<polyline points="23.5,149.5 181.5,149.5" fill-opacity="0" stroke="#878787" stroke-width="1.0" stroke-linecap="butt" stroke-linejoin="round" />
		<polyline points="31.5,149.5 51.5,149.5 151.5,57.5 171.5,57.5" fill-opacity="0" stroke="#000000" stroke-width="1.0" stroke-linecap="butt" stroke-linejoin="round" />
		<polyline points="51.5,149.5 51.5,57.5" fill-opacity="0" stroke="#878787" stroke-width="1.0" stroke-linecap="butt" stroke-linejoin="round" />
		<polyline points="151.5,149.5 151.5,57.5" fill-opacity="0" stroke="#878787" stroke-width="1.0" stroke-linecap="butt" stroke-linejoin="round" />
		<polyline points="23.5,61.5 181.5,61.5" fill-opacity="0" stroke="#878787" stroke-width="1.0" stroke-linecap="butt" stroke-linejoin="round" />
		<polygon points="191.5,149.5 169.5,141.5 169.5,157.5" fill="#C0C0C0" stroke="#C0C0C0" stroke-width="1.0" stroke-linecap="butt" stroke-linejoin="round" />
		<polygon points="31.5,11.5 23.5,33.5 39.5,33.5" fill="#C0C0C0" stroke="#C0C0C0" stroke-width="1.0" stroke-linecap="butt" stroke-linejoin="round" />
		<polyline points="31.5,157.5 31.5,33.5" fill-opacity="0" stroke="#878787" stroke-width="1.0" stroke-linecap="butt" stroke-linejoin="round" />
		<g id="y" class="port">
			<polygon points="201.5,91.5 221.5,101.5 201.5,111.5" fill="#FFFFFF" stroke="#00007F" stroke-width="1.0" stroke-linecap="butt" stroke-linejoin="round" />
		</g>
	</g>
</svg>
