<svg width="203" height="203" xmlns="http://www.w3.org/2000/svg" xmlns:xlink="http://www.w3.org/1999/xlink">
	<g id="Modelica.Math.sin" class="component">
		<polygon points="1.5,201.5 201.5,201.5 201.5,1.5 1.5,1.5" fill="#FFFFFF" stroke="#000000" stroke-width="1.0" stroke-linecap="butt" stroke-linejoin="round" />
		<polyline points="21.5,181.5 21.5,33.5" fill-opacity="0" stroke="#C0C0C0" stroke-width="1.0" stroke-linecap="butt" stroke-linejoin="round" />
		<polygon points="21.5,11.5 13.5,33.5 29.5,33.5" fill="#C0C0C0" stroke="#C0C0C0" stroke-width="1.0" stroke-linecap="butt" stroke-linejoin="round" />
		<polyline points="11.5,101.5 169.5,101.5" fill-opacity="0" stroke="#C0C0C0" stroke-width="1.0" stroke-linecap="butt" stroke-linejoin="round" />
		<polygon points="191.5,101.5 169.5,93.5 169.5,109.5" fill="#C0C0C0" stroke="#C0C0C0" stroke-width="1.0" stroke-linecap="butt" stroke-linejoin="round" />
		<polyline points="21.5,101.5 32.8,67.3 40.0,48.4 46.4,35.1 52.1,26.9 57.7,22.4 63.3,21.7 68.9,24.9 74.6,31.8 80.2,42.1 86.6,57.4 94.7,80.3 111.6,132.3 118.8,151.7 125.2,165.7 130.8,174.6 136.5,179.9 142.1,181.5 147.7,179.1 153.4,173.0 159.0,163.4 165.4,148.7 173.5,126.3 181.5,101.5" fill-opacity="0" stroke="#000000" stroke-width="1.0" stroke-linecap="butt" stroke-linejoin="round" />
		<text x="149.5" y="63.7" text-anchor="middle" fill="#C0C0C0" font-size="61.6px" font-family="sans-serif">sin</text>
	</g>
</svg>
