<svg width="208" height="203" xmlns="http://www.w3.org/2000/svg" xmlns:xlink="http://www.w3.org/1999/xlink">
	<g id="Modelica.Mechanics.MultiBody.Visualizers.Rectangle" class="component">
		<polygon points="56.3,81.5 16.3,161.5 176.3,161.5 196.3,81.5" fill="#AFAFAF" stroke="#5F5F5F" stroke-width="1.0" stroke-linecap="butt" stroke-linejoin="round" />
		<polygon points="108.3,121.5 108.3,121.3 108.3,121.2 108.2,121.0 108.2,120.8 108.1,120.7 108.0,120.5 107.9,120.4 107.8,120.2 107.7,120.1 107.6,120.0 107.5,119.9 107.3,119.8 107.2,119.7 107.0,119.6 106.9,119.6 106.7,119.5 106.5,119.5 106.3,119.5 106.2,119.5 106.0,119.5 105.8,119.6 105.7,119.6 105.5,119.7 105.4,119.7 105.2,119.8 105.1,119.9 104.9,120.0 104.8,120.2 104.7,120.3 104.6,120.4 104.5,120.6 104.4,120.7 104.4,120.9 104.3,121.1 104.3,121.2 104.3,121.4 104.3,121.6 104.3,121.8 104.3,121.9 104.4,122.1 104.4,122.3 104.5,122.4 104.6,122.6 104.7,122.7 104.8,122.8 104.9,123.0 105.1,123.1 105.2,123.2 105.4,123.3 105.5,123.3 105.7,123.4 105.8,123.4 106.0,123.5 106.2,123.5 106.3,123.5 106.5,123.5 106.7,123.5 106.9,123.4 107.0,123.4 107.2,123.3 107.3,123.2 107.5,123.1 107.6,123.0 107.7,122.9 107.8,122.8 107.9,122.6 108.0,122.5 108.1,122.3 108.2,122.2 108.2,122.0 108.3,121.8 108.3,121.7" fill="#5F5F5F" stroke="#5F5F5F" stroke-width="1.0" stroke-linecap="butt" stroke-linejoin="round" />
		<polyline points="6.3,101.5 106.3,101.5 106.3,121.5" fill-opacity="0" stroke="#5F5F5F" stroke-width="1.0" stroke-linecap="butt" stroke-linejoin="round" />
		<g id="frame_a" class="port">
			<polygon points="4.7,103.1 7.9,103.1 7.9,99.9 4.7,99.9" fill-opacity="0" stroke="#5F5F5F" stroke-width="1.0" stroke-linecap="butt" stroke-linejoin="round" />
			<polygon points="1.5,117.5 11.1,117.5 11.1,85.5 1.5,85.5" fill="#C0C0C0" stroke="#000000" stroke-width="1.0" stroke-linecap="butt" stroke-linejoin="round" />
		</g>
	</g>
</svg>
