<svg width="223" height="213" xmlns="http://www.w3.org/2000/svg" xmlns:xlink="http://www.w3.org/1999/xlink">
	<g id="Modelica.Thermal.FluidHeatFlow.Sources.IdealPump" class="component">
		<polygon points="201.5,101.5 201.2,93.8 200.2,86.1 198.5,78.5 196.2,71.1 193.3,64.0 189.8,57.1 185.7,50.5 181.0,44.3 175.8,38.5 170.2,33.3 164.1,28.5 157.6,24.2 150.8,20.5 143.7,17.5 136.3,15.0 128.8,13.2 121.2,12.0 113.4,11.5 105.7,11.7 98.0,12.5 90.4,14.0 83.0,16.1 75.7,18.9 68.8,22.3 62.1,26.3 55.8,30.8 49.9,35.8 44.5,41.4 39.6,47.4 35.2,53.7 31.4,60.5 28.2,67.5 25.6,74.8 23.6,82.3 22.2,89.9 21.6,97.6 21.6,105.4 22.2,113.1 23.6,120.7 25.6,128.2 28.2,135.5 31.4,142.5 35.2,149.3 39.6,155.6 44.5,161.6 49.9,167.2 55.8,172.2 62.1,176.7 68.8,180.7 75.7,184.1 83.0,186.9 90.4,189.0 98.0,190.5 105.7,191.3 113.4,191.5 121.2,191.0 128.8,189.8 136.3,188.0 143.7,185.5 150.8,182.5 157.6,178.8 164.1,174.5 170.2,169.7 175.8,164.5 181.0,158.7 185.7,152.5 189.8,145.9 193.3,139.0 196.2,131.9 198.5,124.5 200.2,116.9 201.2,109.2" fill="#FFFFFF" stroke="#FF0000" stroke-width="1.0" stroke-linecap="round" stroke-linejoin="round" />
		<defs>
			<linearGradient id="cyl3" x1="0" y1="0" x2="1" y2="0">
				<stop offset="0%" stop-color="#000000" />
				<stop offset="5%" stop-color="#212121" />
				<stop offset="10%" stop-color="#3F3F3F" />
				<stop offset="15%" stop-color="#595959" />
				<stop offset="20%" stop-color="#707070" />
				<stop offset="25%" stop-color="#838383" />
				<stop offset="30%" stop-color="#939393" />
				<stop offset="35%" stop-color="#9F9F9F" />
				<stop offset="40%" stop-color="#A8A8A8" />
				<stop offset="45%" stop-color="#ADADAD" />
				<stop offset="50%" stop-color="#AFAFAF" />
				<stop offset="55%" stop-color="#ADADAD" />
				<stop offset="60%" stop-color="#A8A8A8" />
				<stop offset="65%" stop-color="#9F9F9F" />
				<stop offset="70%" stop-color="#939393" />
				<stop offset="75%" stop-color="#838383" />
				<stop offset="80%" stop-color="#707070" />
				<stop offset="85%" stop-color="#595959" />
				<stop offset="90%" stop-color="#3F3F3F" />
				<stop offset="95%" stop-color="#212121" />
				<stop offset="100%" stop-color="#000000" />
			</linearGradient>
		</defs>
		<polygon points="101.5,201.5 121.5,201.5 121.5,141.5 101.5,141.5" fill="url(#cyl3)" stroke="#000000" stroke-width="1.0" stroke-linecap="round" stroke-linejoin="round" />
		<defs>
			<linearGradient id="cyl4" x1="0" y1="0" x2="0" y2="1">
				<stop offset="0%" stop-color="#000000" />
				<stop offset="5%" stop-color="#000030" />
				<stop offset="10%" stop-color="#00005C" />
				<stop offset="15%" stop-color="#000082" />
				<stop offset="20%" stop-color="#0000A3" />
				<stop offset="25%" stop-color="#0000BF" />
				<stop offset="30%" stop-color="#0000D6" />
				<stop offset="35%" stop-color="#0000E8" />
				<stop offset="40%" stop-color="#0000F5" />
				<stop offset="45%" stop-color="#0000FC" />
				<stop offset="50%" stop-color="#0000FF" />
				<stop offset="55%" stop-color="#0000FC" />
				<stop offset="60%" stop-color="#0000F5" />
				<stop offset="65%" stop-color="#0000E8" />
				<stop offset="70%" stop-color="#0000D6" />
				<stop offset="75%" stop-color="#0000BF" />
				<stop offset="80%" stop-color="#0000A3" />
				<stop offset="85%" stop-color="#000082" />
				<stop offset="90%" stop-color="#00005C" />
				<stop offset="95%" stop-color="#000030" />
				<stop offset="100%" stop-color="#000000" />
			</linearGradient>
		</defs>
		<polygon points="51.5,33.5 201.5,91.5 201.5,111.5 51.5,169.5" fill="url(#cyl4)" stroke="#000000" stroke-width="1.0" stroke-linecap="round" stroke-linejoin="round" />
		<g id="flowPort_a" class="port">
			<polygon points="1.5,111.5 21.5,111.5 21.5,91.5 1.5,91.5" fill="#FFFFFF" stroke="#FF0000" stroke-width="1.0" stroke-linecap="round" stroke-linejoin="round" />
			<polygon points="21.3,101.5 21.3,100.7 21.2,99.8 21.0,99.0 20.7,98.2 20.4,97.4 20.0,96.7 19.6,95.9 19.1,95.3 18.5,94.6 17.9,94.1 17.2,93.5 16.5,93.1 15.8,92.7 15.0,92.3 14.2,92.1 13.4,91.9 12.6,91.8 11.7,91.7 10.9,91.7 10.0,91.8 9.2,92.0 8.4,92.2 7.6,92.5 6.8,92.9 6.1,93.3 5.4,93.8 4.8,94.4 4.2,95.0 3.7,95.6 3.2,96.3 2.8,97.0 2.4,97.8 2.1,98.6 1.9,99.4 1.8,100.2 1.7,101.1 1.7,101.9 1.8,102.8 1.9,103.6 2.1,104.4 2.4,105.2 2.8,106.0 3.2,106.7 3.7,107.4 4.2,108.0 4.8,108.6 5.4,109.2 6.1,109.7 6.8,110.1 7.6,110.5 8.4,110.8 9.2,111.0 10.0,111.2 10.9,111.3 11.7,111.3 12.6,111.2 13.4,111.1 14.2,110.9 15.0,110.7 15.8,110.3 16.5,109.9 17.2,109.5 17.9,108.9 18.5,108.4 19.1,107.7 19.6,107.1 20.0,106.3 20.4,105.6 20.7,104.8 21.0,104.0 21.2,103.2 21.3,102.3" fill="#0000FF" stroke="#0000FF" stroke-width="1.0" stroke-linecap="round" stroke-linejoin="round" />
		</g>
		<g id="flowPort_b" class="port">
			<polygon points="201.5,111.5 221.5,111.5 221.5,91.5 201.5,91.5" fill="#FFFFFF" stroke="#FF0000" stroke-width="1.0" stroke-linecap="round" stroke-linejoin="round" />
			<polygon points="221.3,101.5 221.3,100.7 221.2,99.8 221.0,99.0 220.7,98.2 220.4,97.4 220.0,96.7 219.6,95.9 219.1,95.3 218.5,94.6 217.9,94.1 217.2,93.5 216.5,93.1 215.8,92.7 215.0,92.3 214.2,92.1 213.4,91.9 212.6,91.8 211.7,91.7 210.9,91.7 210.0,91.8 209.2,92.0 208.4,92.2 207.6,92.5 206.8,92.9 206.1,93.3 205.4,93.8 204.8,94.4 204.2,95.0 203.7,95.6 203.2,96.3 202.8,97.0 202.4,97.8 202.1,98.6 201.9,99.4 201.8,100.2 201.7,101.1 201.7,101.9 201.8,102.8 201.9,103.6 202.1,104.4 202.4,105.2 202.8,106.0 203.2,106.7 203.7,107.4 204.2,108.0 204.8,108.6 205.4,109.2 206.1,109.7 206.8,110.1 207.6,110.5 208.4,110.8 209.2,111.0 210.0,111.2 210.9,111.3 211.7,111.3 212.6,111.2 213.4,111.1 214.2,110.9 215.0,110.7 215.8,110.3 216.5,109.9 217.2,109.5 217.9,108.9 218.5,108.4 219.1,107.7 219.6,107.1 220.0,106.3 220.4,105.6 220.7,104.8 221.0,104.0 221.2,103.2 221.3,102.3" fill-opacity="0" stroke="#0000FF" stroke-width="1.0" stroke-linecap="round" stroke-linejoin="round" />
		</g>
		<g id="flange_a" class="port">
			<polygon points="121.5,201.5 121.5,200.6 121.4,199.8 121.2,198.9 120.9,198.1 120.6,197.3 120.2,196.6 119.7,195.8 119.2,195.1 118.6,194.5 118.0,193.9 117.3,193.4 116.6,192.9 115.9,192.5 115.1,192.2 114.3,191.9 113.4,191.7 112.6,191.6 111.7,191.5 110.9,191.5 110.0,191.6 109.2,191.8 108.3,192.0 107.5,192.3 106.8,192.7 106.0,193.1 105.3,193.6 104.7,194.2 104.1,194.8 103.5,195.5 103.0,196.2 102.6,196.9 102.2,197.7 102.0,198.5 101.7,199.4 101.6,200.2 101.5,201.1 101.5,201.9 101.6,202.8 101.7,203.6 102.0,204.5 102.2,205.3 102.6,206.1 103.0,206.8 103.5,207.5 104.1,208.2 104.7,208.8 105.3,209.4 106.0,209.9 106.8,210.3 107.5,210.7 108.3,211.0 109.2,211.2 110.0,211.4 110.9,211.5 111.7,211.5 112.6,211.4 113.4,211.3 114.3,211.1 115.1,210.8 115.9,210.5 116.6,210.1 117.3,209.6 118.0,209.1 118.6,208.5 119.2,207.9 119.7,207.2 120.2,206.4 120.6,205.7 120.9,204.9 121.2,204.1 121.4,203.2 121.5,202.4" fill="#5F5F5F" stroke="#000000" stroke-width="1.0" stroke-linecap="round" stroke-linejoin="round" />
		</g>
	</g>
</svg>
