<svg width="203" height="203" xmlns="http://www.w3.org/2000/svg" xmlns:xlink="http://www.w3.org/1999/xlink">
	<g id="Modelica.Math.tanh" class="component">
		<polygon points="1.5,201.5 201.5,201.5 201.5,1.5 1.5,1.5" fill="#FFFFFF" stroke="#000000" stroke-width="1.0" stroke-linecap="butt" stroke-linejoin="round" />
		<polyline points="101.5,181.5 101.5,33.5" fill-opacity="0" stroke="#C0C0C0" stroke-width="1.0" stroke-linecap="butt" stroke-linejoin="round" />
		<polygon points="101.5,11.5 93.5,33.5 109.5,33.5" fill="#C0C0C0" stroke="#C0C0C0" stroke-width="1.0" stroke-linecap="butt" stroke-linejoin="round" />
		<polyline points="11.5,101.5 169.5,101.5" fill-opacity="0" stroke="#C0C0C0" stroke-width="1.0" stroke-linecap="butt" stroke-linejoin="round" />
		<polygon points="191.5,101.5 169.5,93.5 169.5,109.5" fill="#C0C0C0" stroke="#C0C0C0" stroke-width="1.0" stroke-linecap="butt" stroke-linejoin="round" />
		<polyline points="21.5,181.5 53.7,180.2 65.7,177.2 73.8,172.1 79.4,165.7 84.2,157.4 89.0,145.8 93.9,130.7 100.3,106.3 108.3,75.2 113.2,59.5 118.0,47.3 122.8,38.4 128.4,31.6 135.7,26.5 146.9,23.1 173.5,21.6 181.5,21.5" fill-opacity="0" stroke="#000000" stroke-width="1.0" stroke-linecap="butt" stroke-linejoin="round" />
		<text x="49.5" y="67.3" text-anchor="middle" fill="#C0C0C0" font-size="37.7px" font-family="sans-serif">tanh</text>
	</g>
</svg>
