<svg width="207" height="209" xmlns="http://www.w3.org/2000/svg" xmlns:xlink="http://www.w3.org/1999/xlink">
	<g id="Modelica.Mechanics.MultiBody.Visualizers.Ground" class="component">
		<polygon points="1.5,205.5 205.5,205.5 205.5,1.5 1.5,1.5" fill-opacity="0" stroke="#FF0000" stroke-dasharray="3 4" stroke-width="1.0" stroke-linecap="round" stroke-linejoin="round" />
		<polygon points="83.5,43.5 3.5,135.5 123.5,195.5 203.5,95.5" fill="#00FF00" stroke="#000000" stroke-width="1.0" stroke-linecap="round" stroke-linejoin="round" />
		<text x="126.5" y="49.1" text-anchor="middle" fill="#000000" font-size="37.2px" font-family="sans-serif">z</text>
		<polygon points="203.5,95.5 203.5,107.5 123.5,207.5 123.5,195.5" fill="#00FF00" stroke="#000000" stroke-width="1.0" stroke-linecap="round" stroke-linejoin="round" />
		<polygon points="3.5,135.5 3.5,147.5 123.5,207.5 123.5,195.5" fill="#00FF00" stroke="#000000" stroke-width="1.0" stroke-linecap="round" stroke-linejoin="round" />
		<polygon points="102.5,113.0 102.5,112.8 102.4,112.6 102.3,112.4 102.2,112.2 102.0,112.0 101.8,111.8 101.6,111.6 101.4,111.4 101.1,111.3 100.8,111.1 100.4,111.0 100.1,110.9 99.7,110.8 99.3,110.7 98.9,110.6 98.5,110.5 98.0,110.5 97.6,110.5 97.2,110.5 96.7,110.5 96.3,110.6 95.9,110.6 95.5,110.7 95.1,110.8 94.8,110.9 94.4,111.0 94.1,111.2 93.8,111.3 93.5,111.5 93.3,111.7 93.0,111.9 92.9,112.1 92.7,112.3 92.6,112.5 92.5,112.7 92.5,112.9 92.5,113.1 92.5,113.3 92.6,113.5 92.7,113.7 92.9,113.9 93.0,114.1 93.3,114.3 93.5,114.5 93.8,114.7 94.1,114.8 94.4,115.0 94.8,115.1 95.1,115.2 95.5,115.3 95.9,115.4 96.3,115.4 96.7,115.5 97.2,115.5 97.6,115.5 98.0,115.5 98.5,115.5 98.9,115.4 99.3,115.3 99.7,115.2 100.1,115.1 100.4,115.0 100.8,114.9 101.1,114.7 101.4,114.6 101.6,114.4 101.8,114.2 102.0,114.0 102.2,113.8 102.3,113.6 102.4,113.4 102.5,113.2" fill="#FFFFFF" stroke="#000000" stroke-width="1.0" stroke-linecap="round" stroke-linejoin="round" />
		<polyline points="97.5,113.5 97.5,15.5" fill-opacity="0" stroke="#000000" stroke-width="1.0" stroke-linecap="round" stroke-linejoin="round" />
		<polygon points="97.5,1.5 89.5,31.5 105.5,31.5" fill="#000000" stroke="#000000" stroke-width="1.0" stroke-linecap="round" stroke-linejoin="round" />
	</g>
</svg>
