<svg width="203" height="203" xmlns="http://www.w3.org/2000/svg" xmlns:xlink="http://www.w3.org/1999/xlink">
	<g id="Modelica.Electrical.Machines.Thermal.Constants" class="component">
		<defs>
			<linearGradient id="cyl2" x1="0" y1="0" x2="0" y2="1">
				<stop offset="0%" stop-color="#C8C8C8" />
				<stop offset="5%" stop-color="#D1D1D1" />
				<stop offset="10%" stop-color="#D9D9D9" />
				<stop offset="15%" stop-color="#E0E0E0" />
				<stop offset="20%" stop-color="#E7E7E7" />
				<stop offset="25%" stop-color="#ECECEC" />
				<stop offset="30%" stop-color="#F0F0F0" />
				<stop offset="35%" stop-color="#F4F4F4" />
				<stop offset="40%" stop-color="#F6F6F6" />
				<stop offset="45%" stop-color="#F8F8F8" />
				<stop offset="50%" stop-color="#F8F8F8" />
				<stop offset="55%" stop-color="#F8F8F8" />
				<stop offset="60%" stop-color="#F6F6F6" />
				<stop offset="65%" stop-color="#F4F4F4" />
				<stop offset="70%" stop-color="#F0F0F0" />
				<stop offset="75%" stop-color="#ECECEC" />
				<stop offset="80%" stop-color="#E7E7E7" />
				<stop offset="85%" stop-color="#E0E0E0" />
				<stop offset="90%" stop-color="#D9D9D9" />
				<stop offset="95%" stop-color="#D1D1D1" />
				<stop offset="100%" stop-color="#C8C8C8" />
			</linearGradient>
		</defs>
		<polygon points="8.8,194.2 11.0,196.1 13.3,197.8 15.7,199.1 18.2,200.2 20.8,200.9 23.6,201.4 26.5,201.5 26.5,201.5 50.4,201.5 101.5,201.5 101.5,201.5 152.6,201.5 176.5,201.5 176.5,201.5 179.4,201.4 182.2,200.9 184.8,200.2 187.3,199.1 189.7,197.8 192.0,196.1 194.2,194.2 194.2,194.2 196.1,192.0 197.8,189.7 199.1,187.3 200.2,184.8 200.9,182.2 201.4,179.4 201.5,176.5 201.5,176.5 201.5,152.6 201.5,101.5 201.5,101.5 201.5,50.4 201.5,26.5 201.5,26.5 201.4,23.6 200.9,20.8 200.2,18.2 199.1,15.7 197.8,13.3 196.1,11.0 194.2,8.8 194.2,8.8 192.0,6.9 189.7,5.2 187.3,3.9 184.8,2.8 182.2,2.1 179.4,1.6 176.5,1.5 176.5,1.5 152.6,1.5 101.5,1.5 101.5,1.5 50.4,1.5 26.5,1.5 26.5,1.5 23.6,1.6 20.8,2.1 18.2,2.8 15.7,3.9 13.3,5.2 11.0,6.9 8.8,8.8 8.8,8.8 6.9,11.0 5.2,13.3 3.9,15.7 2.8,18.2 2.1,20.8 1.6,23.6 1.5,26.5 1.5,26.5 1.5,50.4 1.5,101.5 1.5,101.5 1.5,152.6 1.5,176.5 1.5,176.5 1.6,179.4 2.1,182.2 2.8,184.8 3.9,187.3 5.2,189.7 6.9,192.0" fill="url(#cyl2)" stroke="#C8C8C8" stroke-width="1.0" stroke-linecap="round" stroke-linejoin="round" />
		<polygon points="8.8,194.2 11.0,196.1 13.3,197.8 15.7,199.1 18.2,200.2 20.8,200.9 23.6,201.4 26.5,201.5 26.5,201.5 50.4,201.5 101.5,201.5 101.5,201.5 152.6,201.5 176.5,201.5 176.5,201.5 179.4,201.4 182.2,200.9 184.8,200.2 187.3,199.1 189.7,197.8 192.0,196.1 194.2,194.2 194.2,194.2 196.1,192.0 197.8,189.7 199.1,187.3 200.2,184.8 200.9,182.2 201.4,179.4 201.5,176.5 201.5,176.5 201.5,152.6 201.5,101.5 201.5,101.5 201.5,50.4 201.5,26.5 201.5,26.5 201.4,23.6 200.9,20.8 200.2,18.2 199.1,15.7 197.8,13.3 196.1,11.0 194.2,8.8 194.2,8.8 192.0,6.9 189.7,5.2 187.3,3.9 184.8,2.8 182.2,2.1 179.4,1.6 176.5,1.5 176.5,1.5 152.6,1.5 101.5,1.5 101.5,1.5 50.4,1.5 26.5,1.5 26.5,1.5 23.6,1.6 20.8,2.1 18.2,2.8 15.7,3.9 13.3,5.2 11.0,6.9 8.8,8.8 8.8,8.8 6.9,11.0 5.2,13.3 3.9,15.7 2.8,18.2 2.1,20.8 1.6,23.6 1.5,26.5 1.5,26.5 1.5,50.4 1.5,101.5 1.5,101.5 1.5,152.6 1.5,176.5 1.5,176.5 1.6,179.4 2.1,182.2 2.8,184.8 3.9,187.3 5.2,189.7 6.9,192.0" fill-opacity="0" stroke="#808080" stroke-width="1.0" stroke-linecap="round" stroke-linejoin="round" />
		<polygon points="140.4,70.2 140.0,68.7 138.8,67.4 136.9,66.4 134.2,65.5 130.8,65.0 126.6,64.6 121.6,64.5 121.6,64.5 103.1,64.5 84.8,64.7 84.8,64.7 81.3,64.9 78.0,65.3 75.1,66.0 72.4,66.9 70.0,68.1 67.8,69.5 65.9,71.3 64.3,73.2 63.0,75.4 61.9,77.9 61.9,77.9 60.3,82.6 59.0,86.3 58.0,88.9 57.5,90.4 57.3,90.9 57.3,90.9 58.6,91.0 58.6,91.0 59.9,91.1 59.9,91.1 60.3,90.6 61.2,89.1 62.8,86.7 65.0,83.4 65.0,83.4 66.5,81.6 68.3,80.0 70.5,78.7 73.0,77.6 75.9,76.7 79.2,76.1 82.8,75.8 86.8,75.6 86.8,75.6 104.0,75.6 122.0,75.8 122.0,75.8 127.7,75.8 132.3,75.9 135.9,75.9 138.5,75.9 140.0,75.9 140.5,75.9 140.5,75.9 140.5,74.5" fill="#666666" stroke-opacity="0" stroke-width="1.0" stroke-linecap="round" stroke-linejoin="round" />
		<polygon points="88.1,72.7 85.6,72.6 84.8,72.6 84.8,72.6 84.7,73.0 84.6,74.5 84.3,76.9 84.0,80.3 83.5,84.6 83.0,89.9 83.0,89.9 82.6,93.0 82.1,96.0 81.5,98.9 80.8,101.7 80.0,104.4 79.0,107.0 78.0,109.5 76.9,111.9 75.6,114.3 74.3,116.5 72.8,118.6 72.8,118.6 70.4,122.2 68.8,125.4 67.8,128.2 67.5,130.6 68.0,132.6 69.1,134.2 69.1,134.2 71.6,135.9 74.4,136.7 77.5,136.5 81.0,135.5 81.0,135.5 82.3,134.7 83.5,133.5 84.6,131.8 85.6,129.7 86.5,127.2 87.3,124.2 88.0,120.7 88.6,116.9 89.1,112.5 89.6,107.8 89.9,102.6 89.9,102.6 90.2,96.3 90.5,90.8 90.8,86.0 91.0,82.0 91.2,78.6 91.3,76.1 91.4,74.2 91.5,73.1 91.5,72.7 91.5,72.7 90.7,72.7" fill="#666666" stroke-opacity="0" stroke-width="1.0" stroke-linecap="round" stroke-linejoin="round" />
		<polygon points="118.5,71.7 117.5,72.0 116.6,73.1 115.8,74.8 115.0,77.3 114.3,80.5 113.7,84.4 113.2,89.0 112.8,94.4 112.8,94.4 112.5,99.3 112.3,103.9 112.2,108.2 112.2,112.2 112.2,115.9 112.4,119.3 112.7,122.3 113.1,125.1 113.6,127.5 113.6,127.5 114.5,130.7 115.8,133.2 117.5,135.2 119.5,136.6 121.8,137.4 124.5,137.7 124.5,137.7 126.9,137.4 129.1,136.6 131.1,135.3 132.9,133.5 134.6,131.2 136.1,128.4 137.3,125.1 137.3,125.1 138.8,120.7 140.0,117.2 140.8,114.7 141.3,113.3 141.5,112.8 141.5,112.8 140.0,112.9 140.0,112.9 138.6,113.0 138.6,113.0 138.3,113.5 137.3,115.2 135.7,118.0 135.7,118.0 134.1,120.1 132.2,121.4 130.0,121.9 127.4,121.7 127.4,121.7 126.3,121.1 125.4,119.9 124.5,118.2 123.8,115.9 123.2,113.1 122.8,109.7 122.5,105.7 122.4,101.2 122.4,96.1 122.4,96.1 122.4,89.6 122.5,84.2 122.5,79.7 122.5,76.3 122.6,73.8 122.6,72.3 122.6,71.8 122.6,71.8 121.6,71.8" fill="#666666" stroke-opacity="0" stroke-width="1.0" stroke-linecap="round" stroke-linejoin="round" />
	</g>
</svg>
