<svg width="223" height="243" xmlns="http://www.w3.org/2000/svg" xmlns:xlink="http://www.w3.org/1999/xlink">
	<g id="Modelica.Electrical.MultiPhase.Basic.VariableInductor" class="component">
		<polyline points="21.5,141.5 51.5,141.5" fill-opacity="0" stroke="#0000FF" stroke-width="1.0" stroke-linecap="butt" stroke-linejoin="round" />
		<polyline points="171.5,141.5 201.5,141.5" fill-opacity="0" stroke="#0000FF" stroke-width="1.0" stroke-linecap="butt" stroke-linejoin="round" />
		<polyline points="51.5,141.5 52.0,138.5 52.4,136.9 53.2,135.2 54.4,133.4 56.0,131.5 56.0,131.5 57.5,130.1 59.4,128.9 61.5,128.1 63.8,127.7 66.5,127.5 66.5,127.5 69.2,127.7 71.5,128.1 73.6,128.9 75.5,130.1 77.0,131.5 77.0,131.5 78.6,133.4 79.7,135.2 80.6,136.9 81.0,138.5 81.5,141.5" fill-opacity="0" stroke="#0000FF" stroke-width="1.0" stroke-linecap="butt" stroke-linejoin="round" />
		<polyline points="81.5,141.5 82.0,138.5 82.4,136.9 83.2,135.2 84.4,133.4 86.0,131.5 86.0,131.5 87.5,130.1 89.4,128.9 91.5,128.1 93.8,127.7 96.5,127.5 96.5,127.5 99.2,127.7 101.5,128.1 103.6,128.9 105.5,130.1 107.0,131.5 107.0,131.5 108.6,133.4 109.7,135.2 110.6,136.9 111.0,138.5 111.5,141.5" fill-opacity="0" stroke="#0000FF" stroke-width="1.0" stroke-linecap="butt" stroke-linejoin="round" />
		<polyline points="111.5,141.5 112.0,138.5 112.4,136.9 113.2,135.2 114.4,133.4 116.0,131.5 116.0,131.5 117.5,130.1 119.4,128.9 121.5,128.1 123.8,127.7 126.5,127.5 126.5,127.5 129.2,127.7 131.5,128.1 133.6,128.9 135.5,130.1 137.0,131.5 137.0,131.5 138.6,133.4 139.7,135.2 140.6,136.9 141.0,138.5 141.5,141.5" fill-opacity="0" stroke="#0000FF" stroke-width="1.0" stroke-linecap="butt" stroke-linejoin="round" />
		<polyline points="141.5,141.5 142.0,138.5 142.4,136.9 143.2,135.2 144.4,133.4 146.0,131.5 146.0,131.5 147.5,130.1 149.4,128.9 151.5,128.1 153.8,127.7 156.5,127.5 156.5,127.5 159.2,127.7 161.5,128.1 163.6,128.9 165.5,130.1 167.0,131.5 167.0,131.5 168.6,133.4 169.7,135.2 170.6,136.9 171.0,138.5 171.5,141.5" fill-opacity="0" stroke="#0000FF" stroke-width="1.0" stroke-linecap="butt" stroke-linejoin="round" />
		<g id="plug_p" class="port">
			<polygon points="21.5,141.5 21.5,140.6 21.3,139.8 21.2,138.9 20.9,138.1 20.6,137.3 20.2,136.6 19.7,135.8 19.2,135.1 18.6,134.5 18.0,133.9 17.3,133.4 16.6,132.9 15.9,132.5 15.1,132.2 14.3,131.9 13.4,131.7 12.6,131.6 11.7,131.5 10.8,131.5 10.0,131.6 9.1,131.8 8.3,132.0 7.5,132.3 6.7,132.7 6.0,133.1 5.3,133.6 4.7,134.2 4.0,134.8 3.5,135.5 3.0,136.2 2.6,136.9 2.2,137.7 1.9,138.5 1.7,139.4 1.6,140.2 1.5,141.1 1.5,141.9 1.6,142.8 1.7,143.6 1.9,144.5 2.2,145.3 2.6,146.1 3.0,146.8 3.5,147.5 4.0,148.2 4.7,148.8 5.3,149.4 6.0,149.9 6.7,150.3 7.5,150.7 8.3,151.0 9.1,151.2 10.0,151.4 10.8,151.5 11.7,151.5 12.6,151.4 13.4,151.3 14.3,151.1 15.1,150.8 15.9,150.5 16.6,150.1 17.3,149.6 18.0,149.1 18.6,148.5 19.2,147.9 19.7,147.2 20.2,146.4 20.6,145.7 20.9,144.9 21.2,144.1 21.3,143.2 21.5,142.4" fill="#0000FF" stroke="#0000FF" stroke-width="1.0" stroke-linecap="butt" stroke-linejoin="round" />
		</g>
		<g id="plug_n" class="port">
			<polygon points="221.5,141.5 221.5,140.6 221.3,139.8 221.2,138.9 220.9,138.1 220.6,137.3 220.2,136.6 219.7,135.8 219.2,135.1 218.6,134.5 218.0,133.9 217.3,133.4 216.6,132.9 215.9,132.5 215.1,132.2 214.3,131.9 213.4,131.7 212.6,131.6 211.7,131.5 210.8,131.5 210.0,131.6 209.1,131.8 208.3,132.0 207.5,132.3 206.7,132.7 206.0,133.1 205.3,133.6 204.7,134.2 204.0,134.8 203.5,135.5 203.0,136.2 202.6,136.9 202.2,137.7 201.9,138.5 201.7,139.4 201.6,140.2 201.5,141.1 201.5,141.9 201.6,142.8 201.7,143.6 201.9,144.5 202.2,145.3 202.6,146.1 203.0,146.8 203.5,147.5 204.0,148.2 204.7,148.8 205.3,149.4 206.0,149.9 206.7,150.3 207.5,150.7 208.3,151.0 209.1,151.2 210.0,151.4 210.8,151.5 211.7,151.5 212.6,151.4 213.4,151.3 214.3,151.1 215.1,150.8 215.9,150.5 216.6,150.1 217.3,149.6 218.0,149.1 218.6,148.5 219.2,147.9 219.7,147.2 220.2,146.4 220.6,145.7 220.9,144.9 221.2,144.1 221.3,143.2 221.5,142.4" fill="#FFFFFF" stroke="#0000FF" stroke-width="1.0" stroke-linecap="butt" stroke-linejoin="round" />
		</g>
		<g id="L" class="port">
			<polygon points="131.5,1.5 111.5,41.5 91.5,1.5" fill="#00007F" stroke="#00007F" stroke-width="1.0" stroke-linecap="butt" stroke-linejoin="round" />
		</g>
	</g>
</svg>
