<svg width="213" height="203" xmlns="http://www.w3.org/2000/svg" xmlns:xlink="http://www.w3.org/1999/xlink">
	<g id="Modelica.Electrical.Machines.Utilities.SwitchedRheostat" class="component">
		<polygon points="127.5,141.5 155.5,141.5 155.5,61.5 127.5,61.5" fill="#FFFFFF" stroke="#0000FF" stroke-width="1.0" stroke-linecap="butt" stroke-linejoin="round" />
		<polyline points="201.5,41.5 61.5,41.5 61.5,61.5" fill-opacity="0" stroke="#0000FF" stroke-width="1.0" stroke-linecap="butt" stroke-linejoin="round" />
		<polyline points="201.5,161.5 61.5,161.5 61.5,141.5" fill-opacity="0" stroke="#0000FF" stroke-width="1.0" stroke-linecap="butt" stroke-linejoin="round" />
		<polygon points="65.5,65.5 65.5,65.2 65.4,64.8 65.4,64.5 65.3,64.1 65.1,63.8 65.0,63.5 64.8,63.2 64.6,63.0 64.4,62.7 64.1,62.5 63.8,62.3 63.5,62.1 63.2,61.9 62.9,61.8 62.6,61.7 62.3,61.6 61.9,61.5 61.6,61.5 61.2,61.5 60.9,61.5 60.6,61.6 60.2,61.7 59.9,61.8 59.6,62.0 59.3,62.2 59.0,62.4 58.8,62.6 58.5,62.8 58.3,63.1 58.1,63.4 57.9,63.7 57.8,64.0 57.7,64.3 57.6,64.6 57.5,65.0 57.5,65.3 57.5,65.7 57.5,66.0 57.6,66.4 57.7,66.7 57.8,67.0 57.9,67.3 58.1,67.6 58.3,67.9 58.5,68.2 58.8,68.4 59.0,68.6 59.3,68.8 59.6,69.0 59.9,69.2 60.2,69.3 60.6,69.4 60.9,69.5 61.2,69.5 61.6,69.5 61.9,69.5 62.3,69.4 62.6,69.3 62.9,69.2 63.2,69.1 63.5,68.9 63.8,68.7 64.1,68.5 64.4,68.3 64.6,68.0 64.8,67.8 65.0,67.5 65.1,67.2 65.3,66.9 65.4,66.5 65.4,66.2 65.5,65.8" fill-opacity="0" stroke="#0000FF" stroke-width="1.0" stroke-linecap="butt" stroke-linejoin="round" />
		<polygon points="65.5,137.5 65.5,137.2 65.4,136.8 65.4,136.5 65.3,136.1 65.1,135.8 65.0,135.5 64.8,135.2 64.6,135.0 64.4,134.7 64.1,134.5 63.8,134.3 63.5,134.1 63.2,133.9 62.9,133.8 62.6,133.7 62.3,133.6 61.9,133.5 61.6,133.5 61.2,133.5 60.9,133.5 60.6,133.6 60.2,133.7 59.9,133.8 59.6,134.0 59.3,134.2 59.0,134.4 58.8,134.6 58.5,134.8 58.3,135.1 58.1,135.4 57.9,135.7 57.8,136.0 57.7,136.3 57.6,136.6 57.5,137.0 57.5,137.3 57.5,137.7 57.5,138.0 57.6,138.4 57.7,138.7 57.8,139.0 57.9,139.3 58.1,139.6 58.3,139.9 58.5,140.2 58.8,140.4 59.0,140.6 59.3,140.8 59.6,141.0 59.9,141.2 60.2,141.3 60.6,141.4 60.9,141.5 61.2,141.5 61.6,141.5 61.9,141.5 62.3,141.4 62.6,141.3 62.9,141.2 63.2,141.1 63.5,140.9 63.8,140.7 64.1,140.5 64.4,140.3 64.6,140.0 64.8,139.8 65.0,139.5 65.1,139.2 65.3,138.9 65.4,138.5 65.4,138.2 65.5,137.8" fill-opacity="0" stroke="#0000FF" stroke-width="1.0" stroke-linecap="butt" stroke-linejoin="round" />
		<polyline points="21.5,61.5 59.5,135.5" fill-opacity="0" stroke="#0000FF" stroke-width="1.0" stroke-linecap="butt" stroke-linejoin="round" />
		<polyline points="141.5,61.5 141.5,59.5 141.5,41.5" fill-opacity="0" stroke="#0000FF" stroke-width="1.0" stroke-linecap="butt" stroke-linejoin="round" />
		<polyline points="141.5,141.5 141.5,161.5" fill-opacity="0" stroke="#0000FF" stroke-width="1.0" stroke-linecap="butt" stroke-linejoin="round" />
		<polyline points="111.5,181.5 171.5,181.5" fill-opacity="0" stroke="#0000FF" stroke-width="1.0" stroke-linecap="butt" stroke-linejoin="round" />
		<polyline points="141.5,161.5 141.5,181.5" fill-opacity="0" stroke="#0000FF" stroke-width="1.0" stroke-linecap="butt" stroke-linejoin="round" />
		<polyline points="121.5,191.5 161.5,191.5" fill-opacity="0" stroke="#0000FF" stroke-width="1.0" stroke-linecap="butt" stroke-linejoin="round" />
		<polyline points="131.5,201.5 151.5,201.5" fill-opacity="0" stroke="#0000FF" stroke-width="1.0" stroke-linecap="butt" stroke-linejoin="round" />
		<g id="plug_p" class="port">
			<polygon points="211.5,41.5 211.5,42.4 211.4,43.2 211.2,44.1 210.9,44.9 210.6,45.7 210.2,46.4 209.7,47.2 209.2,47.9 208.6,48.5 208.0,49.1 207.3,49.6 206.6,50.1 205.9,50.5 205.1,50.8 204.3,51.1 203.4,51.3 202.6,51.4 201.7,51.5 200.9,51.5 200.0,51.4 199.2,51.2 198.3,51.0 197.5,50.7 196.8,50.3 196.0,49.9 195.3,49.4 194.7,48.8 194.1,48.2 193.5,47.5 193.0,46.8 192.6,46.1 192.2,45.3 192.0,44.5 191.7,43.6 191.6,42.8 191.5,41.9 191.5,41.1 191.6,40.2 191.7,39.4 192.0,38.5 192.2,37.7 192.6,36.9 193.0,36.2 193.5,35.5 194.1,34.8 194.7,34.2 195.3,33.6 196.0,33.1 196.8,32.7 197.5,32.3 198.3,32.0 199.2,31.8 200.0,31.6 200.9,31.5 201.7,31.5 202.6,31.6 203.4,31.7 204.3,31.9 205.1,32.2 205.9,32.5 206.6,32.9 207.3,33.4 208.0,33.9 208.6,34.5 209.2,35.1 209.7,35.8 210.2,36.6 210.6,37.3 210.9,38.1 211.2,38.9 211.4,39.8 211.5,40.6" fill="#0000FF" stroke="#0000FF" stroke-width="1.0" stroke-linecap="butt" stroke-linejoin="round" />
		</g>
		<g id="plug_n" class="port">
			<polygon points="211.5,161.5 211.5,162.4 211.4,163.2 211.2,164.1 210.9,164.9 210.6,165.7 210.2,166.4 209.7,167.2 209.2,167.9 208.6,168.5 208.0,169.1 207.3,169.6 206.6,170.1 205.9,170.5 205.1,170.8 204.3,171.1 203.4,171.3 202.6,171.4 201.7,171.5 200.9,171.5 200.0,171.4 199.2,171.2 198.3,171.0 197.5,170.7 196.8,170.3 196.0,169.9 195.3,169.4 194.7,168.8 194.1,168.2 193.5,167.5 193.0,166.8 192.6,166.1 192.2,165.3 192.0,164.5 191.7,163.6 191.6,162.8 191.5,161.9 191.5,161.1 191.6,160.2 191.7,159.4 192.0,158.5 192.2,157.7 192.6,156.9 193.0,156.2 193.5,155.5 194.1,154.8 194.7,154.2 195.3,153.6 196.0,153.1 196.8,152.7 197.5,152.3 198.3,152.0 199.2,151.8 200.0,151.6 200.9,151.5 201.7,151.5 202.6,151.6 203.4,151.7 204.3,151.9 205.1,152.2 205.9,152.5 206.6,152.9 207.3,153.4 208.0,153.9 208.6,154.5 209.2,155.1 209.7,155.8 210.2,156.6 210.6,157.3 210.9,158.1 211.2,158.9 211.4,159.8 211.5,160.6" fill="#FFFFFF" stroke="#0000FF" stroke-width="1.0" stroke-linecap="butt" stroke-linejoin="round" />
		</g>
	</g>
</svg>
