<svg width="103" height="203" xmlns="http://www.w3.org/2000/svg" xmlns:xlink="http://www.w3.org/1999/xlink">
	<g id="Modelica.Fluid.Fittings.MultiPort" class="component">
		<polyline points="11.5,101.5 91.5,101.5" fill-opacity="0" stroke="#0080FF" stroke-width="1.0" stroke-linecap="butt" stroke-linejoin="round" />
		<polyline points="11.5,101.5 91.5,75.5" fill-opacity="0" stroke="#0080FF" stroke-width="1.0" stroke-linecap="butt" stroke-linejoin="round" />
		<polyline points="11.5,101.5 91.5,127.5" fill-opacity="0" stroke="#0080FF" stroke-width="1.0" stroke-linecap="butt" stroke-linejoin="round" />
		<g id="port_a" class="port">
			<polygon points="21.5,101.5 21.5,100.6 21.3,99.8 21.2,98.9 20.9,98.1 20.6,97.3 20.2,96.6 19.7,95.8 19.2,95.1 18.6,94.5 18.0,93.9 17.3,93.4 16.6,92.9 15.9,92.5 15.1,92.2 14.3,91.9 13.4,91.7 12.6,91.6 11.7,91.5 10.8,91.5 10.0,91.6 9.1,91.8 8.3,92.0 7.5,92.3 6.7,92.7 6.0,93.1 5.3,93.6 4.7,94.2 4.0,94.8 3.5,95.5 3.0,96.2 2.6,96.9 2.2,97.7 1.9,98.5 1.7,99.4 1.6,100.2 1.5,101.1 1.5,101.9 1.6,102.8 1.7,103.6 1.9,104.5 2.2,105.3 2.6,106.1 3.0,106.8 3.5,107.5 4.0,108.2 4.7,108.8 5.3,109.4 6.0,109.9 6.7,110.3 7.5,110.7 8.3,111.0 9.1,111.2 10.0,111.4 10.8,111.5 11.7,111.5 12.6,111.4 13.4,111.3 14.3,111.1 15.1,110.8 15.9,110.5 16.6,110.1 17.3,109.6 18.0,109.1 18.6,108.5 19.2,107.9 19.7,107.2 20.2,106.4 20.6,105.7 20.9,104.9 21.2,104.1 21.3,103.2 21.5,102.4" fill="#007FFF" stroke="#007FFF" stroke-width="1.0" stroke-linecap="butt" stroke-linejoin="round" />
			<polygon points="21.5,101.5 21.5,100.6 21.3,99.8 21.2,98.9 20.9,98.1 20.6,97.3 20.2,96.6 19.7,95.8 19.2,95.1 18.6,94.5 18.0,93.9 17.3,93.4 16.6,92.9 15.9,92.5 15.1,92.2 14.3,91.9 13.4,91.7 12.6,91.6 11.7,91.5 10.8,91.5 10.0,91.6 9.1,91.8 8.3,92.0 7.5,92.3 6.7,92.7 6.0,93.1 5.3,93.6 4.7,94.2 4.0,94.8 3.5,95.5 3.0,96.2 2.6,96.9 2.2,97.7 1.9,98.5 1.7,99.4 1.6,100.2 1.5,101.1 1.5,101.9 1.6,102.8 1.7,103.6 1.9,104.5 2.2,105.3 2.6,106.1 3.0,106.8 3.5,107.5 4.0,108.2 4.7,108.8 5.3,109.4 6.0,109.9 6.7,110.3 7.5,110.7 8.3,111.0 9.1,111.2 10.0,111.4 10.8,111.5 11.7,111.5 12.6,111.4 13.4,111.3 14.3,111.1 15.1,110.8 15.9,110.5 16.6,110.1 17.3,109.6 18.0,109.1 18.6,108.5 19.2,107.9 19.7,107.2 20.2,106.4 20.6,105.7 20.9,104.9 21.2,104.1 21.3,103.2 21.5,102.4" fill="#007FFF" stroke="#000000" stroke-width="1.0" stroke-linecap="butt" stroke-linejoin="round" />
		</g>
		<g id="ports_b" class="port">
			<polygon points="81.5,61.5 101.5,61.5 101.5,141.5 81.5,141.5" fill="#FFFFFF" stroke="#007FFF" stroke-width="1.0" stroke-linecap="butt" stroke-linejoin="round" />
			<polygon points="101.5,127.5 101.5,128.4 101.3,129.2 101.2,130.1 100.9,130.9 100.6,131.7 100.2,132.4 99.7,133.2 99.2,133.9 98.6,134.5 98.0,135.1 97.3,135.6 96.6,136.1 95.9,136.5 95.1,136.8 94.3,137.1 93.4,137.3 92.6,137.4 91.7,137.5 90.8,137.5 90.0,137.4 89.1,137.2 88.3,137.0 87.5,136.7 86.7,136.3 86.0,135.9 85.3,135.4 84.7,134.8 84.0,134.2 83.5,133.5 83.0,132.8 82.6,132.1 82.2,131.3 81.9,130.5 81.7,129.6 81.6,128.8 81.5,127.9 81.5,127.1 81.6,126.2 81.7,125.4 81.9,124.5 82.2,123.7 82.6,122.9 83.0,122.2 83.5,121.5 84.0,120.8 84.7,120.2 85.3,119.6 86.0,119.1 86.7,118.7 87.5,118.3 88.3,118.0 89.1,117.8 90.0,117.6 90.8,117.5 91.7,117.5 92.6,117.6 93.4,117.7 94.3,117.9 95.1,118.2 95.9,118.5 96.6,118.9 97.3,119.4 98.0,119.9 98.6,120.5 99.2,121.1 99.7,121.8 100.2,122.6 100.6,123.3 100.9,124.1 101.2,124.9 101.3,125.8 101.5,126.6" fill="#007FFF" stroke="#000000" stroke-width="1.0" stroke-linecap="butt" stroke-linejoin="round" />
			<polygon points="101.5,101.5 101.5,102.4 101.3,103.2 101.2,104.1 100.9,104.9 100.6,105.7 100.2,106.4 99.7,107.2 99.2,107.9 98.6,108.5 98.0,109.1 97.3,109.6 96.6,110.1 95.9,110.5 95.1,110.8 94.3,111.1 93.4,111.3 92.6,111.4 91.7,111.5 90.8,111.5 90.0,111.4 89.1,111.2 88.3,111.0 87.5,110.7 86.7,110.3 86.0,109.9 85.3,109.4 84.7,108.8 84.0,108.2 83.5,107.5 83.0,106.8 82.6,106.1 82.2,105.3 81.9,104.5 81.7,103.6 81.6,102.8 81.5,101.9 81.5,101.1 81.6,100.2 81.7,99.4 81.9,98.5 82.2,97.7 82.6,96.9 83.0,96.2 83.5,95.5 84.0,94.8 84.7,94.2 85.3,93.6 86.0,93.1 86.7,92.7 87.5,92.3 88.3,92.0 89.1,91.8 90.0,91.6 90.8,91.5 91.7,91.5 92.6,91.6 93.4,91.7 94.3,91.9 95.1,92.2 95.9,92.5 96.6,92.9 97.3,93.4 98.0,93.9 98.6,94.5 99.2,95.1 99.7,95.8 100.2,96.6 100.6,97.3 100.9,98.1 101.2,98.9 101.3,99.8 101.5,100.6" fill="#007FFF" stroke="#000000" stroke-width="1.0" stroke-linecap="butt" stroke-linejoin="round" />
			<polygon points="101.5,75.5 101.5,76.4 101.3,77.2 101.2,78.1 100.9,78.9 100.6,79.7 100.2,80.4 99.7,81.2 99.2,81.9 98.6,82.5 98.0,83.1 97.3,83.6 96.6,84.1 95.9,84.5 95.1,84.8 94.3,85.1 93.4,85.3 92.6,85.4 91.7,85.5 90.8,85.5 90.0,85.4 89.1,85.2 88.3,85.0 87.5,84.7 86.7,84.3 86.0,83.9 85.3,83.4 84.7,82.8 84.0,82.2 83.5,81.5 83.0,80.8 82.6,80.1 82.2,79.3 81.9,78.5 81.7,77.6 81.6,76.8 81.5,75.9 81.5,75.1 81.6,74.2 81.7,73.4 81.9,72.5 82.2,71.7 82.6,70.9 83.0,70.2 83.5,69.5 84.0,68.8 84.7,68.2 85.3,67.6 86.0,67.1 86.7,66.7 87.5,66.3 88.3,66.0 89.1,65.8 90.0,65.6 90.8,65.5 91.7,65.5 92.6,65.6 93.4,65.7 94.3,65.9 95.1,66.2 95.9,66.5 96.6,66.9 97.3,67.4 98.0,67.9 98.6,68.5 99.2,69.1 99.7,69.8 100.2,70.6 100.6,71.3 100.9,72.1 101.2,72.9 101.3,73.8 101.5,74.6" fill="#007FFF" stroke="#000000" stroke-width="1.0" stroke-linecap="butt" stroke-linejoin="round" />
			<polygon points="97.5,101.5 97.5,102.0 97.4,102.5 97.3,103.0 97.1,103.5 96.9,104.0 96.7,104.5 96.4,104.9 96.1,105.3 95.8,105.7 95.4,106.0 95.0,106.4 94.6,106.7 94.1,106.9 93.6,107.1 93.1,107.3 92.6,107.4 92.1,107.5 91.6,107.5 91.1,107.5 90.6,107.4 90.1,107.3 89.6,107.2 89.1,107.0 88.6,106.8 88.2,106.5 87.8,106.2 87.4,105.9 87.0,105.5 86.7,105.1 86.4,104.7 86.2,104.2 85.9,103.8 85.8,103.3 85.6,102.8 85.5,102.3 85.5,101.8 85.5,101.2 85.5,100.7 85.6,100.2 85.8,99.7 85.9,99.2 86.2,98.8 86.4,98.3 86.7,97.9 87.0,97.5 87.4,97.1 87.8,96.8 88.2,96.5 88.6,96.2 89.1,96.0 89.6,95.8 90.1,95.7 90.6,95.6 91.1,95.5 91.6,95.5 92.1,95.5 92.6,95.6 93.1,95.7 93.6,95.9 94.1,96.1 94.6,96.3 95.0,96.6 95.4,97.0 95.8,97.3 96.1,97.7 96.4,98.1 96.7,98.5 96.9,99.0 97.1,99.5 97.3,100.0 97.4,100.5 97.5,101.0" fill="#FFFFFF" stroke="#007FFF" stroke-width="1.0" stroke-linecap="butt" stroke-linejoin="round" />
			<polygon points="97.5,127.5 97.5,128.0 97.4,128.5 97.3,129.0 97.1,129.5 96.9,130.0 96.7,130.5 96.4,130.9 96.1,131.3 95.8,131.7 95.4,132.0 95.0,132.4 94.6,132.7 94.1,132.9 93.6,133.1 93.1,133.3 92.6,133.4 92.1,133.5 91.6,133.5 91.1,133.5 90.6,133.4 90.1,133.3 89.6,133.2 89.1,133.0 88.6,132.8 88.2,132.5 87.8,132.2 87.4,131.9 87.0,131.5 86.7,131.1 86.4,130.7 86.2,130.2 85.9,129.8 85.8,129.3 85.6,128.8 85.5,128.3 85.5,127.8 85.5,127.2 85.5,126.7 85.6,126.2 85.8,125.7 85.9,125.2 86.2,124.8 86.4,124.3 86.7,123.9 87.0,123.5 87.4,123.1 87.8,122.8 88.2,122.5 88.6,122.2 89.1,122.0 89.6,121.8 90.1,121.7 90.6,121.6 91.1,121.5 91.6,121.5 92.1,121.5 92.6,121.6 93.1,121.7 93.6,121.9 94.1,122.1 94.6,122.3 95.0,122.6 95.4,123.0 95.8,123.3 96.1,123.7 96.4,124.1 96.7,124.5 96.9,125.0 97.1,125.5 97.3,126.0 97.4,126.5 97.5,127.0" fill="#FFFFFF" stroke="#007FFF" stroke-width="1.0" stroke-linecap="butt" stroke-linejoin="round" />
			<polygon points="97.5,75.5 97.5,76.0 97.4,76.5 97.3,77.0 97.1,77.5 96.9,78.0 96.7,78.5 96.4,78.9 96.1,79.3 95.8,79.7 95.4,80.0 95.0,80.4 94.6,80.7 94.1,80.9 93.6,81.1 93.1,81.3 92.6,81.4 92.1,81.5 91.6,81.5 91.1,81.5 90.6,81.4 90.1,81.3 89.6,81.2 89.1,81.0 88.6,80.8 88.2,80.5 87.8,80.2 87.4,79.9 87.0,79.5 86.7,79.1 86.4,78.7 86.2,78.2 85.9,77.8 85.8,77.3 85.6,76.8 85.5,76.3 85.5,75.8 85.5,75.2 85.5,74.7 85.6,74.2 85.8,73.7 85.9,73.2 86.2,72.8 86.4,72.3 86.7,71.9 87.0,71.5 87.4,71.1 87.8,70.8 88.2,70.5 88.6,70.2 89.1,70.0 89.6,69.8 90.1,69.7 90.6,69.6 91.1,69.5 91.6,69.5 92.1,69.5 92.6,69.6 93.1,69.7 93.6,69.9 94.1,70.1 94.6,70.3 95.0,70.6 95.4,71.0 95.8,71.3 96.1,71.7 96.4,72.1 96.7,72.5 96.9,73.0 97.1,73.5 97.3,74.0 97.4,74.5 97.5,75.0" fill="#FFFFFF" stroke="#007FFF" stroke-width="1.0" stroke-linecap="butt" stroke-linejoin="round" />
		</g>
	</g>
</svg>
