<svg width="226" height="207" xmlns="http://www.w3.org/2000/svg" xmlns:xlink="http://www.w3.org/1999/xlink">
	<g id="Modelica.Media.Examples.Tests.Components.FixedAmbient" class="component">
		<polygon points="1.5,205.5 205.5,205.5 205.5,1.5 1.5,1.5" fill-opacity="0" stroke="#FF0000" stroke-dasharray="3 4" stroke-width="1.0" stroke-linecap="round" stroke-linejoin="round" />
		<defs>
			<radialGradient id="sph3">
				<stop offset="0%" stop-color="#007FFF" />
				<stop offset="10%" stop-color="#007EFC" />
				<stop offset="20%" stop-color="#007AF5" />
				<stop offset="30%" stop-color="#0074E8" />
				<stop offset="40%" stop-color="#006BD6" />
				<stop offset="50%" stop-color="#005FBF" />
				<stop offset="60%" stop-color="#0051A3" />
				<stop offset="70%" stop-color="#004182" />
				<stop offset="80%" stop-color="#002E5C" />
				<stop offset="90%" stop-color="#001830" />
				<stop offset="100%" stop-color="#000000" />
			</radialGradient>
		</defs>
		<polygon points="203.5,103.5 203.1,96.6 202.0,89.8 200.2,83.1 197.6,76.5 194.4,70.1 190.5,64.0 185.9,58.2 180.7,52.7 175.0,47.5 168.7,42.8 161.9,38.6 154.7,34.8 147.2,31.5 139.3,28.8 131.1,26.6 122.7,25.0 114.2,24.0 105.7,23.5 97.0,23.7 88.5,24.4 80.1,25.7 71.8,27.6 63.7,30.1 56.0,33.1 48.6,36.6 41.6,40.6 35.1,45.1 29.1,50.1 23.6,55.4 18.7,61.0 14.5,67.0 10.9,73.3 8.0,79.8 5.8,86.4 4.3,93.2 3.6,100.1 3.6,106.9 4.3,113.8 5.8,120.6 8.0,127.2 10.9,133.7 14.5,140.0 18.7,146.0 23.6,151.6 29.1,156.9 35.1,161.9 41.6,166.4 48.6,170.4 56.0,173.9 63.7,176.9 71.8,179.4 80.1,181.3 88.5,182.6 97.0,183.3 105.7,183.5 114.2,183.0 122.7,182.0 131.1,180.4 139.3,178.2 147.2,175.5 154.7,172.2 161.9,168.4 168.7,164.2 175.0,159.5 180.7,154.3 185.9,148.8 190.5,143.0 194.4,136.9 197.6,130.5 200.2,123.9 202.0,117.2 203.1,110.4" fill="url(#sph3)" stroke="#000000" stroke-width="1.0" stroke-linecap="round" stroke-linejoin="round" />
		<g id="port" class="port">
			<polygon points="203.3,113.7 223.7,113.7 223.7,93.3 203.3,93.3" fill-opacity="0" stroke="#FF0000" stroke-dasharray="3 4" stroke-width="1.0" stroke-linecap="round" stroke-linejoin="round" />
			<polygon points="223.5,103.5 223.5,102.6 223.4,101.8 223.2,100.9 222.9,100.1 222.6,99.3 222.2,98.6 221.7,97.8 221.2,97.1 220.6,96.5 220.0,95.9 219.3,95.4 218.6,94.9 217.9,94.5 217.1,94.2 216.3,93.9 215.4,93.7 214.6,93.6 213.7,93.5 212.9,93.5 212.0,93.6 211.2,93.8 210.3,94.0 209.5,94.3 208.8,94.7 208.0,95.1 207.3,95.6 206.7,96.2 206.1,96.8 205.5,97.5 205.0,98.2 204.6,98.9 204.2,99.7 204.0,100.5 203.7,101.4 203.6,102.2 203.5,103.1 203.5,103.9 203.6,104.8 203.7,105.6 204.0,106.5 204.2,107.3 204.6,108.1 205.0,108.8 205.5,109.5 206.1,110.2 206.7,110.8 207.3,111.4 208.0,111.9 208.8,112.3 209.5,112.7 210.3,113.0 211.2,113.2 212.0,113.4 212.9,113.5 213.7,113.5 214.6,113.4 215.4,113.3 216.3,113.1 217.1,112.8 217.9,112.5 218.6,112.1 219.3,111.6 220.0,111.1 220.6,110.5 221.2,109.9 221.7,109.2 222.2,108.4 222.6,107.7 222.9,106.9 223.2,106.1 223.4,105.2 223.5,104.4" fill="#007FFF" stroke="#007FFF" stroke-width="1.0" stroke-linecap="round" stroke-linejoin="round" />
			<polygon points="223.5,103.5 223.5,102.6 223.4,101.8 223.2,100.9 222.9,100.1 222.6,99.3 222.2,98.6 221.7,97.8 221.2,97.1 220.6,96.5 220.0,95.9 219.3,95.4 218.6,94.9 217.9,94.5 217.1,94.2 216.3,93.9 215.4,93.7 214.6,93.6 213.7,93.5 212.9,93.5 212.0,93.6 211.2,93.8 210.3,94.0 209.5,94.3 208.8,94.7 208.0,95.1 207.3,95.6 206.7,96.2 206.1,96.8 205.5,97.5 205.0,98.2 204.6,98.9 204.2,99.7 204.0,100.5 203.7,101.4 203.6,102.2 203.5,103.1 203.5,103.9 203.6,104.8 203.7,105.6 204.0,106.5 204.2,107.3 204.6,108.1 205.0,108.8 205.5,109.5 206.1,110.2 206.7,110.8 207.3,111.4 208.0,111.9 208.8,112.3 209.5,112.7 210.3,113.0 211.2,113.2 212.0,113.4 212.9,113.5 213.7,113.5 214.6,113.4 215.4,113.3 216.3,113.1 217.1,112.8 217.9,112.5 218.6,112.1 219.3,111.6 220.0,111.1 220.6,110.5 221.2,109.9 221.7,109.2 222.2,108.4 222.6,107.7 222.9,106.9 223.2,106.1 223.4,105.2 223.5,104.4" fill="#007FFF" stroke="#000000" stroke-width="1.0" stroke-linecap="round" stroke-linejoin="round" />
			<polygon points="221.5,103.5 221.5,102.8 221.4,102.1 221.2,101.5 221.0,100.8 220.8,100.2 220.5,99.5 220.1,99.0 219.7,98.4 219.2,97.9 218.7,97.4 218.2,97.0 217.6,96.6 217.0,96.3 216.4,96.0 215.7,95.8 215.0,95.6 214.4,95.5 213.7,95.5 213.0,95.5 212.3,95.6 211.6,95.7 211.0,95.9 210.3,96.2 209.7,96.5 209.1,96.8 208.6,97.2 208.0,97.7 207.5,98.2 207.1,98.7 206.7,99.3 206.4,99.9 206.1,100.5 205.9,101.1 205.7,101.8 205.6,102.5 205.5,103.2 205.5,103.8 205.6,104.5 205.7,105.2 205.9,105.9 206.1,106.5 206.4,107.1 206.7,107.7 207.1,108.3 207.5,108.8 208.0,109.3 208.6,109.8 209.1,110.2 209.7,110.5 210.3,110.8 211.0,111.1 211.6,111.3 212.3,111.4 213.0,111.5 213.7,111.5 214.4,111.5 215.0,111.4 215.7,111.2 216.4,111.0 217.0,110.7 217.6,110.4 218.2,110.0 218.7,109.6 219.2,109.1 219.7,108.6 220.1,108.0 220.5,107.5 220.8,106.8 221.0,106.2 221.2,105.5 221.4,104.9 221.5,104.2" fill="#FFFFFF" stroke="#007FFF" stroke-width="1.0" stroke-linecap="round" stroke-linejoin="round" />
		</g>
	</g>
</svg>
