<svg width="203" height="203" xmlns="http://www.w3.org/2000/svg" xmlns:xlink="http://www.w3.org/1999/xlink">
	<g id="Modelica.Math.Random" class="component">
		<defs>
			<linearGradient id="cyl2" x1="0" y1="0" x2="0" y2="1">
				<stop offset="0%" stop-color="#C8C8C8" />
				<stop offset="5%" stop-color="#D1D1D1" />
				<stop offset="10%" stop-color="#D9D9D9" />
				<stop offset="15%" stop-color="#E0E0E0" />
				<stop offset="20%" stop-color="#E7E7E7" />
				<stop offset="25%" stop-color="#ECECEC" />
				<stop offset="30%" stop-color="#F0F0F0" />
				<stop offset="35%" stop-color="#F4F4F4" />
				<stop offset="40%" stop-color="#F6F6F6" />
				<stop offset="45%" stop-color="#F8F8F8" />
				<stop offset="50%" stop-color="#F8F8F8" />
				<stop offset="55%" stop-color="#F8F8F8" />
				<stop offset="60%" stop-color="#F6F6F6" />
				<stop offset="65%" stop-color="#F4F4F4" />
				<stop offset="70%" stop-color="#F0F0F0" />
				<stop offset="75%" stop-color="#ECECEC" />
				<stop offset="80%" stop-color="#E7E7E7" />
				<stop offset="85%" stop-color="#E0E0E0" />
				<stop offset="90%" stop-color="#D9D9D9" />
				<stop offset="95%" stop-color="#D1D1D1" />
				<stop offset="100%" stop-color="#C8C8C8" />
			</linearGradient>
		</defs>
		<polygon points="8.8,194.2 11.0,196.1 13.3,197.8 15.7,199.1 18.2,200.2 20.8,200.9 23.6,201.4 26.5,201.5 26.5,201.5 50.4,201.5 101.5,201.5 101.5,201.5 152.6,201.5 176.5,201.5 176.5,201.5 179.4,201.4 182.2,200.9 184.8,200.2 187.3,199.1 189.7,197.8 192.0,196.1 194.2,194.2 194.2,194.2 196.1,192.0 197.8,189.7 199.1,187.3 200.2,184.8 200.9,182.2 201.4,179.4 201.5,176.5 201.5,176.5 201.5,152.6 201.5,101.5 201.5,101.5 201.5,50.4 201.5,26.5 201.5,26.5 201.4,23.6 200.9,20.8 200.2,18.2 199.1,15.7 197.8,13.3 196.1,11.0 194.2,8.8 194.2,8.8 192.0,6.9 189.7,5.2 187.3,3.9 184.8,2.8 182.2,2.1 179.4,1.6 176.5,1.5 176.5,1.5 152.6,1.5 101.5,1.5 101.5,1.5 50.4,1.5 26.5,1.5 26.5,1.5 23.6,1.6 20.8,2.1 18.2,2.8 15.7,3.9 13.3,5.2 11.0,6.9 8.8,8.8 8.8,8.8 6.9,11.0 5.2,13.3 3.9,15.7 2.8,18.2 2.1,20.8 1.6,23.6 1.5,26.5 1.5,26.5 1.5,50.4 1.5,101.5 1.5,101.5 1.5,152.6 1.5,176.5 1.5,176.5 1.6,179.4 2.1,182.2 2.8,184.8 3.9,187.3 5.2,189.7 6.9,192.0" fill="url(#cyl2)" stroke="#C8C8C8" stroke-width="1.0" stroke-linecap="round" stroke-linejoin="round" />
		<polygon points="8.8,194.2 11.0,196.1 13.3,197.8 15.7,199.1 18.2,200.2 20.8,200.9 23.6,201.4 26.5,201.5 26.5,201.5 50.4,201.5 101.5,201.5 101.5,201.5 152.6,201.5 176.5,201.5 176.5,201.5 179.4,201.4 182.2,200.9 184.8,200.2 187.3,199.1 189.7,197.8 192.0,196.1 194.2,194.2 194.2,194.2 196.1,192.0 197.8,189.7 199.1,187.3 200.2,184.8 200.9,182.2 201.4,179.4 201.5,176.5 201.5,176.5 201.5,152.6 201.5,101.5 201.5,101.5 201.5,50.4 201.5,26.5 201.5,26.5 201.4,23.6 200.9,20.8 200.2,18.2 199.1,15.7 197.8,13.3 196.1,11.0 194.2,8.8 194.2,8.8 192.0,6.9 189.7,5.2 187.3,3.9 184.8,2.8 182.2,2.1 179.4,1.6 176.5,1.5 176.5,1.5 152.6,1.5 101.5,1.5 101.5,1.5 50.4,1.5 26.5,1.5 26.5,1.5 23.6,1.6 20.8,2.1 18.2,2.8 15.7,3.9 13.3,5.2 11.0,6.9 8.8,8.8 8.8,8.8 6.9,11.0 5.2,13.3 3.9,15.7 2.8,18.2 2.1,20.8 1.6,23.6 1.5,26.5 1.5,26.5 1.5,50.4 1.5,101.5 1.5,101.5 1.5,152.6 1.5,176.5 1.5,176.5 1.6,179.4 2.1,182.2 2.8,184.8 3.9,187.3 5.2,189.7 6.9,192.0" fill-opacity="0" stroke="#808080" stroke-width="1.0" stroke-linecap="round" stroke-linejoin="round" />
		<polygon points="77.5,47.5 77.4,44.9 77.1,42.4 76.5,39.8 75.7,37.4 74.8,35.0 73.6,32.7 72.2,30.5 70.7,28.4 68.9,26.5 67.1,24.8 65.0,23.2 62.9,21.7 60.6,20.5 58.2,19.5 55.8,18.7 53.3,18.1 50.7,17.7 48.1,17.5 45.6,17.6 43.0,17.8 40.5,18.3 38.0,19.0 35.6,20.0 33.3,21.1 31.0,22.4 28.9,23.9 27.0,25.6 25.2,27.5 23.5,29.5 22.1,31.6 20.8,33.8 19.7,36.2 18.9,38.6 18.2,41.1 17.7,43.6 17.5,46.2 17.5,48.8 17.7,51.4 18.2,53.9 18.9,56.4 19.7,58.8 20.8,61.2 22.1,63.4 23.5,65.5 25.2,67.5 27.0,69.4 28.9,71.1 31.0,72.6 33.3,73.9 35.6,75.0 38.0,76.0 40.5,76.7 43.0,77.2 45.6,77.4 48.1,77.5 50.7,77.3 53.3,76.9 55.8,76.3 58.2,75.5 60.6,74.5 62.9,73.3 65.0,71.8 67.1,70.2 68.9,68.5 70.7,66.6 72.2,64.5 73.6,62.3 74.8,60.0 75.7,57.6 76.5,55.2 77.1,52.6 77.4,50.1" fill="#D7D7D7" stroke="#000000" stroke-width="1.0" stroke-linecap="round" stroke-linejoin="round" />
		<polygon points="183.5,69.5 183.4,66.9 183.1,64.4 182.5,61.8 181.7,59.4 180.8,57.0 179.6,54.7 178.2,52.5 176.7,50.4 174.9,48.5 173.1,46.8 171.0,45.2 168.9,43.7 166.6,42.5 164.2,41.5 161.8,40.7 159.3,40.1 156.7,39.7 154.1,39.5 151.6,39.6 149.0,39.8 146.5,40.3 144.0,41.0 141.6,42.0 139.3,43.1 137.0,44.4 134.9,45.9 133.0,47.6 131.2,49.5 129.5,51.5 128.1,53.6 126.8,55.8 125.7,58.2 124.9,60.6 124.2,63.1 123.7,65.6 123.5,68.2 123.5,70.8 123.7,73.4 124.2,75.9 124.9,78.4 125.7,80.8 126.8,83.2 128.1,85.4 129.5,87.5 131.2,89.5 133.0,91.4 134.9,93.1 137.0,94.6 139.3,95.9 141.6,97.0 144.0,98.0 146.5,98.7 149.0,99.2 151.6,99.4 154.1,99.5 156.7,99.3 159.3,98.9 161.8,98.3 164.2,97.5 166.6,96.5 168.9,95.3 171.0,93.8 173.1,92.2 174.9,90.5 176.7,88.6 178.2,86.5 179.6,84.3 180.8,82.0 181.7,79.6 182.5,77.2 183.1,74.6 183.4,72.1" fill="#D7D7D7" stroke="#000000" stroke-width="1.0" stroke-linecap="round" stroke-linejoin="round" />
		<polygon points="103.5,125.5 103.4,122.9 103.1,120.4 102.5,117.8 101.7,115.4 100.8,113.0 99.6,110.7 98.2,108.5 96.7,106.4 94.9,104.5 93.1,102.8 91.0,101.2 88.9,99.7 86.6,98.5 84.2,97.5 81.8,96.7 79.3,96.1 76.7,95.7 74.1,95.5 71.6,95.6 69.0,95.8 66.5,96.3 64.0,97.0 61.6,98.0 59.3,99.1 57.0,100.4 54.9,101.9 53.0,103.6 51.2,105.5 49.5,107.5 48.1,109.6 46.8,111.8 45.7,114.2 44.9,116.6 44.2,119.1 43.7,121.6 43.5,124.2 43.5,126.8 43.7,129.4 44.2,131.9 44.9,134.4 45.7,136.8 46.8,139.2 48.1,141.4 49.5,143.5 51.2,145.5 53.0,147.4 54.9,149.1 57.0,150.6 59.3,151.9 61.6,153.0 64.0,154.0 66.5,154.7 69.0,155.2 71.6,155.4 74.1,155.5 76.7,155.3 79.3,154.9 81.8,154.3 84.2,153.5 86.6,152.5 88.9,151.3 91.0,149.8 93.1,148.2 94.9,146.5 96.7,144.6 98.2,142.5 99.6,140.3 100.8,138.0 101.7,135.6 102.5,133.2 103.1,130.6 103.4,128.1" fill="#D7D7D7" stroke="#000000" stroke-width="1.0" stroke-linecap="round" stroke-linejoin="round" />
		<polygon points="187.5,161.5 187.4,158.9 187.1,156.4 186.5,153.8 185.7,151.4 184.8,149.0 183.6,146.7 182.2,144.5 180.7,142.4 178.9,140.5 177.1,138.8 175.0,137.2 172.9,135.7 170.6,134.5 168.2,133.5 165.8,132.7 163.3,132.1 160.7,131.7 158.1,131.5 155.6,131.6 153.0,131.8 150.5,132.3 148.0,133.0 145.6,134.0 143.3,135.1 141.0,136.4 138.9,137.9 137.0,139.6 135.2,141.5 133.5,143.5 132.1,145.6 130.8,147.8 129.7,150.2 128.9,152.6 128.2,155.1 127.7,157.6 127.5,160.2 127.5,162.8 127.7,165.4 128.2,167.9 128.9,170.4 129.7,172.8 130.8,175.2 132.1,177.4 133.5,179.5 135.2,181.5 137.0,183.4 138.9,185.1 141.0,186.6 143.3,187.9 145.6,189.0 148.0,190.0 150.5,190.7 153.0,191.2 155.6,191.4 158.1,191.5 160.7,191.3 163.3,190.9 165.8,190.3 168.2,189.5 170.6,188.5 172.9,187.3 175.0,185.8 177.1,184.2 178.9,182.5 180.7,180.6 182.2,178.5 183.6,176.3 184.8,174.0 185.7,171.6 186.5,169.2 187.1,166.6 187.4,164.1" fill="#D7D7D7" stroke="#000000" stroke-width="1.0" stroke-linecap="round" stroke-linejoin="round" />
	</g>
</svg>
