<svg width="263" height="203" xmlns="http://www.w3.org/2000/svg" xmlns:xlink="http://www.w3.org/1999/xlink">
	<g id="Modelica.Blocks.Continuous.LowpassButterworth" class="component">
		<polygon points="41.5,201.5 241.5,201.5 241.5,1.5 41.5,1.5" fill="#FFFFFF" stroke="#00007F" stroke-width="1.0" stroke-linecap="butt" stroke-linejoin="round" />
		<polyline points="61.5,23.5 61.5,191.5" fill-opacity="0" stroke="#C0C0C0" stroke-width="1.0" stroke-linecap="butt" stroke-linejoin="round" />
		<polygon points="61.9,9.7 53.9,31.7 69.9,31.7" fill="#C0C0C0" stroke="#C0C0C0" stroke-width="1.0" stroke-linecap="butt" stroke-linejoin="round" />
		<polyline points="221.5,67.3 213.2,67.3 212.2,67.4 211.0,67.7 209.8,68.2 208.4,69.0 206.8,70.0 205.2,71.1 203.5,72.5 201.6,74.2 199.6,76.0 197.5,78.0 195.3,80.3 192.9,82.8 190.5,85.5 187.9,88.4 185.2,91.5 182.4,94.8 179.4,98.4 179.4,98.4 177.2,100.9 175.0,103.0 172.8,104.8 170.7,106.2 168.5,107.1 166.4,107.8 164.2,108.0 162.1,107.8 160.0,107.3 157.9,106.4 155.8,105.1 153.7,103.4 151.7,101.3 149.6,98.9 147.6,96.0 145.6,92.8 143.6,89.2 141.6,85.3 139.6,80.9 137.6,76.2 135.7,71.1 133.7,65.6 131.8,59.7 131.8,59.7 128.8,51.1 125.9,43.8 123.1,38.0 120.3,33.6 117.5,30.6 114.7,29.0 112.0,28.7 109.4,29.9 106.8,32.5 104.2,36.4 101.7,41.8 99.2,48.5 96.7,56.7 94.3,66.2 91.9,77.2 91.9,77.2 89.0,91.2 86.3,104.1 83.7,115.9 81.4,126.7 79.1,136.3 77.0,144.8 75.1,152.3 73.3,158.6 71.7,163.8 70.3,168.0 69.0,171.1 67.8,173.0 61.5,181.5" fill-opacity="0" stroke="#00007F" stroke-width="1.0" stroke-linecap="butt" stroke-linejoin="round" />
		<polyline points="50.5,182.3 222.5,182.3" fill-opacity="0" stroke="#C0C0C0" stroke-width="1.0" stroke-linecap="butt" stroke-linejoin="round" />
		<polygon points="232.8,181.3 210.8,173.3 210.8,189.3" fill="#C0C0C0" stroke="#C0C0C0" stroke-width="1.0" stroke-linecap="butt" stroke-linejoin="round" />
		<text x="164.9" y="144.6" text-anchor="middle" fill="#C0C0C0" font-size="12.3px" font-family="sans-serif">LowpassButterworthFilter</text>
		<text x="187.5" y="52.5" text-anchor="middle" fill="#C0C0C0" font-size="61.1px" font-family="sans-serif">2</text>
		<g id="u" class="port">
			<polygon points="1.5,81.5 41.5,101.5 1.5,121.5" fill="#00007F" stroke="#00007F" stroke-width="1.0" stroke-linecap="butt" stroke-linejoin="round" />
		</g>
		<g id="y" class="port">
			<polygon points="241.5,91.5 261.5,101.5 241.5,111.5" fill="#FFFFFF" stroke="#00007F" stroke-width="1.0" stroke-linecap="butt" stroke-linejoin="round" />
		</g>
	</g>
</svg>
