<svg width="253" height="203" xmlns="http://www.w3.org/2000/svg" xmlns:xlink="http://www.w3.org/1999/xlink">
	<g id="Modelica.Fluid.Sources.MassFlowSource_T" class="component">
		<defs>
			<linearGradient id="cyl2" x1="0" y1="0" x2="0" y2="1">
				<stop offset="0%" stop-color="#000000" />
				<stop offset="5%" stop-color="#001830" />
				<stop offset="10%" stop-color="#002E5C" />
				<stop offset="15%" stop-color="#004182" />
				<stop offset="20%" stop-color="#0051A3" />
				<stop offset="25%" stop-color="#005FBF" />
				<stop offset="30%" stop-color="#006BD6" />
				<stop offset="35%" stop-color="#0074E8" />
				<stop offset="40%" stop-color="#007AF5" />
				<stop offset="45%" stop-color="#007EFC" />
				<stop offset="50%" stop-color="#007FFF" />
				<stop offset="55%" stop-color="#007EFC" />
				<stop offset="60%" stop-color="#007AF5" />
				<stop offset="65%" stop-color="#0074E8" />
				<stop offset="70%" stop-color="#006BD6" />
				<stop offset="75%" stop-color="#005FBF" />
				<stop offset="80%" stop-color="#0051A3" />
				<stop offset="85%" stop-color="#004182" />
				<stop offset="90%" stop-color="#002E5C" />
				<stop offset="95%" stop-color="#001830" />
				<stop offset="100%" stop-color="#000000" />
			</linearGradient>
		</defs>
		<polygon points="176.5,146.5 241.5,146.5 241.5,56.5 176.5,56.5" fill="url(#cyl2)" stroke="#000000" stroke-width="1.0" stroke-linecap="butt" stroke-linejoin="round" />
		<polygon points="201.5,101.5 201.2,94.6 200.3,87.8 198.8,81.1 196.8,74.5 194.2,68.1 191.1,62.0 187.4,56.2 183.3,50.7 178.7,45.5 173.7,40.8 168.2,36.6 162.5,32.8 156.4,29.5 150.1,26.8 143.6,24.6 136.9,23.0 130.1,22.0 123.2,21.5 116.3,21.7 109.5,22.4 102.7,23.7 96.1,25.6 89.7,28.1 83.5,31.1 77.6,34.6 72.0,38.6 66.8,43.1 62.0,48.1 57.6,53.4 53.7,59.0 50.3,65.0 47.4,71.3 45.1,77.8 43.3,84.4 42.2,91.2 41.6,98.1 41.6,104.9 42.2,111.8 43.3,118.6 45.1,125.2 47.4,131.7 50.3,138.0 53.7,144.0 57.6,149.6 62.0,154.9 66.8,159.9 72.0,164.4 77.6,168.4 83.5,171.9 89.7,174.9 96.1,177.4 102.7,179.3 109.5,180.6 116.3,181.3 123.2,181.5 130.1,181.0 136.9,180.0 143.6,178.4 150.1,176.2 156.4,173.5 162.5,170.2 168.2,166.4 173.7,162.2 178.7,157.5 183.3,152.3 187.4,146.8 191.1,141.0 194.2,134.9 196.8,128.5 198.8,121.9 200.3,115.2 201.2,108.4" fill="#FFFFFF" stroke="#0000FF" stroke-width="1.0" stroke-linecap="butt" stroke-linejoin="round" />
		<polygon points="81.5,31.5 201.5,101.5 81.5,169.5" fill="#0000FF" stroke="#0000FF" stroke-width="1.0" stroke-linecap="butt" stroke-linejoin="round" />
		<text x="122.5" y="130.0" text-anchor="middle" fill="#FF0000" font-size="82.4px" font-family="sans-serif">m</text>
		<polygon points="123.5,75.5 123.5,75.2 123.4,74.8 123.4,74.5 123.3,74.1 123.1,73.8 123.0,73.5 122.8,73.2 122.6,73.0 122.4,72.7 122.1,72.5 121.8,72.3 121.5,72.1 121.2,71.9 120.9,71.8 120.6,71.7 120.3,71.6 119.9,71.5 119.6,71.5 119.2,71.5 118.9,71.5 118.6,71.6 118.2,71.7 117.9,71.8 117.6,72.0 117.3,72.2 117.0,72.4 116.8,72.6 116.5,72.8 116.3,73.1 116.1,73.4 115.9,73.7 115.8,74.0 115.7,74.3 115.6,74.6 115.5,75.0 115.5,75.3 115.5,75.7 115.5,76.0 115.6,76.4 115.7,76.7 115.8,77.0 115.9,77.3 116.1,77.6 116.3,77.9 116.5,78.2 116.8,78.4 117.0,78.6 117.3,78.8 117.6,79.0 117.9,79.2 118.2,79.3 118.6,79.4 118.9,79.5 119.2,79.5 119.6,79.5 119.9,79.5 120.3,79.4 120.6,79.3 120.9,79.2 121.2,79.1 121.5,78.9 121.8,78.7 122.1,78.5 122.4,78.3 122.6,78.0 122.8,77.8 123.0,77.5 123.1,77.2 123.3,76.9 123.4,76.5 123.4,76.2 123.5,75.8" fill="#FF0000" stroke="#FF0000" stroke-width="1.0" stroke-linecap="butt" stroke-linejoin="round" />
		<g id="ports" class="port">
			<polygon points="251.5,101.5 251.5,102.4 251.4,103.2 251.2,104.1 250.9,104.9 250.6,105.7 250.2,106.4 249.7,107.2 249.2,107.9 248.6,108.5 248.0,109.1 247.3,109.6 246.6,110.1 245.9,110.5 245.1,110.8 244.3,111.1 243.4,111.3 242.6,111.4 241.7,111.5 240.9,111.5 240.0,111.4 239.2,111.2 238.3,111.0 237.5,110.7 236.8,110.3 236.0,109.9 235.3,109.4 234.7,108.8 234.1,108.2 233.5,107.5 233.0,106.8 232.6,106.1 232.2,105.3 232.0,104.5 231.7,103.6 231.6,102.8 231.5,101.9 231.5,101.1 231.6,100.2 231.7,99.4 232.0,98.5 232.2,97.7 232.6,96.9 233.0,96.2 233.5,95.5 234.1,94.8 234.7,94.2 235.3,93.6 236.0,93.1 236.8,92.7 237.5,92.3 238.3,92.0 239.2,91.8 240.0,91.6 240.9,91.5 241.7,91.5 242.6,91.6 243.4,91.7 244.3,91.9 245.1,92.2 245.9,92.5 246.6,92.9 247.3,93.4 248.0,93.9 248.6,94.5 249.2,95.1 249.7,95.8 250.2,96.6 250.6,97.3 250.9,98.1 251.2,98.9 251.4,99.8 251.5,100.6" fill="#007FFF" stroke="#007FFF" stroke-width="1.0" stroke-linecap="butt" stroke-linejoin="round" />
			<polygon points="251.5,101.5 251.5,102.4 251.4,103.2 251.2,104.1 250.9,104.9 250.6,105.7 250.2,106.4 249.7,107.2 249.2,107.9 248.6,108.5 248.0,109.1 247.3,109.6 246.6,110.1 245.9,110.5 245.1,110.8 244.3,111.1 243.4,111.3 242.6,111.4 241.7,111.5 240.9,111.5 240.0,111.4 239.2,111.2 238.3,111.0 237.5,110.7 236.8,110.3 236.0,109.9 235.3,109.4 234.7,108.8 234.1,108.2 233.5,107.5 233.0,106.8 232.6,106.1 232.2,105.3 232.0,104.5 231.7,103.6 231.6,102.8 231.5,101.9 231.5,101.1 231.6,100.2 231.7,99.4 232.0,98.5 232.2,97.7 232.6,96.9 233.0,96.2 233.5,95.5 234.1,94.8 234.7,94.2 235.3,93.6 236.0,93.1 236.8,92.7 237.5,92.3 238.3,92.0 239.2,91.8 240.0,91.6 240.9,91.5 241.7,91.5 242.6,91.6 243.4,91.7 244.3,91.9 245.1,92.2 245.9,92.5 246.6,92.9 247.3,93.4 248.0,93.9 248.6,94.5 249.2,95.1 249.7,95.8 250.2,96.6 250.6,97.3 250.9,98.1 251.2,98.9 251.4,99.8 251.5,100.6" fill="#007FFF" stroke="#000000" stroke-width="1.0" stroke-linecap="butt" stroke-linejoin="round" />
			<polygon points="249.5,101.5 249.5,102.2 249.4,102.9 249.2,103.5 249.0,104.2 248.8,104.8 248.5,105.5 248.1,106.0 247.7,106.6 247.2,107.1 246.7,107.6 246.2,108.0 245.6,108.4 245.0,108.7 244.4,109.0 243.7,109.2 243.0,109.4 242.4,109.5 241.7,109.5 241.0,109.5 240.3,109.4 239.6,109.3 239.0,109.1 238.3,108.8 237.7,108.5 237.1,108.2 236.6,107.8 236.0,107.3 235.5,106.8 235.1,106.3 234.7,105.7 234.4,105.1 234.1,104.5 233.9,103.9 233.7,103.2 233.6,102.5 233.5,101.8 233.5,101.2 233.6,100.5 233.7,99.8 233.9,99.1 234.1,98.5 234.4,97.9 234.7,97.3 235.1,96.7 235.5,96.2 236.0,95.7 236.6,95.2 237.1,94.8 237.7,94.5 238.3,94.2 239.0,93.9 239.6,93.7 240.3,93.6 241.0,93.5 241.7,93.5 242.4,93.5 243.0,93.6 243.7,93.8 244.4,94.0 245.0,94.3 245.6,94.6 246.2,95.0 246.7,95.4 247.2,95.9 247.7,96.4 248.1,97.0 248.5,97.5 248.8,98.2 249.0,98.8 249.2,99.5 249.4,100.1 249.5,100.8" fill="#FFFFFF" stroke="#007FFF" stroke-width="1.0" stroke-linecap="butt" stroke-linejoin="round" />
		</g>
		<g id="m_flow_in" class="port">
			<polygon points="21.5,1.5 61.5,21.5 21.5,41.5" fill="#00007F" stroke="#00007F" stroke-width="1.0" stroke-linecap="butt" stroke-linejoin="round" />
		</g>
		<g id="T_in" class="port">
			<polygon points="1.5,41.5 41.5,61.5 1.5,81.5" fill="#00007F" stroke="#00007F" stroke-width="1.0" stroke-linecap="butt" stroke-linejoin="round" />
		</g>
		<g id="X_in" class="port">
			<polygon points="1.5,121.5 41.5,141.5 1.5,161.5" fill="#00007F" stroke="#00007F" stroke-width="1.0" stroke-linecap="butt" stroke-linejoin="round" />
		</g>
		<g id="C_in" class="port">
			<polygon points="21.5,161.5 61.5,181.5 21.5,201.5" fill="#00007F" stroke="#00007F" stroke-width="1.0" stroke-linecap="butt" stroke-linejoin="round" />
		</g>
	</g>
</svg>
