<svg width="203" height="203" xmlns="http://www.w3.org/2000/svg" xmlns:xlink="http://www.w3.org/1999/xlink">
	<g id="Modelica.Blocks.Continuous.Internal" class="component">
		<defs>
			<linearGradient id="cyl2" x1="0" y1="0" x2="0" y2="1">
				<stop offset="0%" stop-color="#D7D7D7" />
				<stop offset="5%" stop-color="#DFDFDF" />
				<stop offset="10%" stop-color="#E5E5E5" />
				<stop offset="15%" stop-color="#EBEBEB" />
				<stop offset="20%" stop-color="#F1F1F1" />
				<stop offset="25%" stop-color="#F5F5F5" />
				<stop offset="30%" stop-color="#F9F9F9" />
				<stop offset="35%" stop-color="#FBFBFB" />
				<stop offset="40%" stop-color="#FDFDFD" />
				<stop offset="45%" stop-color="#FFFFFF" />
				<stop offset="50%" stop-color="#FFFFFF" />
				<stop offset="55%" stop-color="#FFFFFF" />
				<stop offset="60%" stop-color="#FDFDFD" />
				<stop offset="65%" stop-color="#FBFBFB" />
				<stop offset="70%" stop-color="#F9F9F9" />
				<stop offset="75%" stop-color="#F5F5F5" />
				<stop offset="80%" stop-color="#F1F1F1" />
				<stop offset="85%" stop-color="#EBEBEB" />
				<stop offset="90%" stop-color="#E5E5E5" />
				<stop offset="95%" stop-color="#DFDFDF" />
				<stop offset="100%" stop-color="#D7D7D7" />
			</linearGradient>
		</defs>
		<polygon points="8.8,194.2 11.0,196.1 13.3,197.8 15.7,199.1 18.2,200.2 20.8,200.9 23.6,201.4 26.5,201.5 26.5,201.5 50.4,201.5 101.5,201.5 101.5,201.5 152.6,201.5 176.5,201.5 176.5,201.5 179.4,201.4 182.2,200.9 184.8,200.2 187.3,199.1 189.7,197.8 192.0,196.1 194.2,194.2 194.2,194.2 196.1,192.0 197.8,189.7 199.1,187.3 200.2,184.8 200.9,182.2 201.4,179.4 201.5,176.5 201.5,176.5 201.5,152.6 201.5,101.5 201.5,101.5 201.5,50.4 201.5,26.5 201.5,26.5 201.4,23.6 200.9,20.8 200.2,18.2 199.1,15.7 197.8,13.3 196.1,11.0 194.2,8.8 194.2,8.8 192.0,6.9 189.7,5.2 187.3,3.9 184.8,2.8 182.2,2.1 179.4,1.6 176.5,1.5 176.5,1.5 152.6,1.5 101.5,1.5 101.5,1.5 50.4,1.5 26.5,1.5 26.5,1.5 23.6,1.6 20.8,2.1 18.2,2.8 15.7,3.9 13.3,5.2 11.0,6.9 8.8,8.8 8.8,8.8 6.9,11.0 5.2,13.3 3.9,15.7 2.8,18.2 2.1,20.8 1.6,23.6 1.5,26.5 1.5,26.5 1.5,50.4 1.5,101.5 1.5,101.5 1.5,152.6 1.5,176.5 1.5,176.5 1.6,179.4 2.1,182.2 2.8,184.8 3.9,187.3 5.2,189.7 6.9,192.0" fill="url(#cyl2)" stroke="#D7D7D7" stroke-width="1.0" stroke-linecap="butt" stroke-linejoin="round" />
		<polygon points="8.8,194.2 11.0,196.1 13.3,197.8 15.7,199.1 18.2,200.2 20.8,200.9 23.6,201.4 26.5,201.5 26.5,201.5 50.4,201.5 101.5,201.5 101.5,201.5 152.6,201.5 176.5,201.5 176.5,201.5 179.4,201.4 182.2,200.9 184.8,200.2 187.3,199.1 189.7,197.8 192.0,196.1 194.2,194.2 194.2,194.2 196.1,192.0 197.8,189.7 199.1,187.3 200.2,184.8 200.9,182.2 201.4,179.4 201.5,176.5 201.5,176.5 201.5,152.6 201.5,101.5 201.5,101.5 201.5,50.4 201.5,26.5 201.5,26.5 201.4,23.6 200.9,20.8 200.2,18.2 199.1,15.7 197.8,13.3 196.1,11.0 194.2,8.8 194.2,8.8 192.0,6.9 189.7,5.2 187.3,3.9 184.8,2.8 182.2,2.1 179.4,1.6 176.5,1.5 176.5,1.5 152.6,1.5 101.5,1.5 101.5,1.5 50.4,1.5 26.5,1.5 26.5,1.5 23.6,1.6 20.8,2.1 18.2,2.8 15.7,3.9 13.3,5.2 11.0,6.9 8.8,8.8 8.8,8.8 6.9,11.0 5.2,13.3 3.9,15.7 2.8,18.2 2.1,20.8 1.6,23.6 1.5,26.5 1.5,26.5 1.5,50.4 1.5,101.5 1.5,101.5 1.5,152.6 1.5,176.5 1.5,176.5 1.6,179.4 2.1,182.2 2.8,184.8 3.9,187.3 5.2,189.7 6.9,192.0" fill-opacity="0" stroke="#D7D7D7" stroke-width="1.0" stroke-linecap="butt" stroke-linejoin="round" />
		<polygon points="181.5,101.5 181.2,94.6 180.3,87.8 178.8,81.1 176.8,74.5 174.2,68.1 171.1,62.0 167.4,56.2 163.3,50.7 158.7,45.5 153.7,40.8 148.2,36.6 142.5,32.8 136.4,29.5 130.1,26.8 123.6,24.6 116.9,23.0 110.1,22.0 103.2,21.5 96.3,21.7 89.5,22.4 82.7,23.7 76.1,25.6 69.7,28.1 63.5,31.1 57.6,34.6 52.0,38.6 46.8,43.1 42.0,48.1 37.6,53.4 33.7,59.0 30.3,65.0 27.4,71.3 25.1,77.8 23.3,84.4 22.2,91.2 21.6,98.1 21.6,104.9 22.2,111.8 23.3,118.6 25.1,125.2 27.4,131.7 30.3,138.0 33.7,144.0 37.6,149.6 42.0,154.9 46.8,159.9 52.0,164.4 57.6,168.4 63.5,171.9 69.7,174.9 76.1,177.4 82.7,179.3 89.5,180.6 96.3,181.3 103.2,181.5 110.1,181.0 116.9,180.0 123.6,178.4 130.1,176.2 136.4,173.5 142.5,170.2 148.2,166.4 153.7,162.2 158.7,157.5 163.3,152.3 167.4,146.8 171.1,141.0 174.2,134.9 176.8,128.5 178.8,121.9 180.3,115.2 181.2,108.4" fill="#D7D7D7" stroke="#D7D7D7" stroke-width="1.0" stroke-linecap="butt" stroke-linejoin="round" />
		<polygon points="156.5,101.5 156.3,96.8 155.7,92.1 154.7,87.5 153.3,82.9 151.5,78.6 149.3,74.3 146.8,70.3 144.0,66.6 140.8,63.0 137.4,59.8 133.6,56.9 129.7,54.3 125.5,52.0 121.2,50.1 116.7,48.6 112.1,47.5 107.4,46.8 102.7,46.5 98.0,46.6 93.2,47.1 88.6,48.0 84.1,49.3 79.6,51.0 75.4,53.1 71.3,55.5 67.5,58.3 63.9,61.4 60.6,64.8 57.6,68.4 54.9,72.3 52.5,76.4 50.6,80.7 49.0,85.2 47.8,89.8 47.0,94.4 46.6,99.1 46.6,103.9 47.0,108.6 47.8,113.2 49.0,117.8 50.6,122.3 52.5,126.6 54.9,130.7 57.6,134.6 60.6,138.2 63.9,141.6 67.5,144.7 71.3,147.5 75.4,149.9 79.6,152.0 84.1,153.7 88.6,155.0 93.2,155.9 98.0,156.4 102.7,156.5 107.4,156.2 112.1,155.5 116.7,154.4 121.2,152.9 125.5,151.0 129.7,148.7 133.6,146.1 137.4,143.2 140.8,140.0 144.0,136.4 146.8,132.7 149.3,128.7 151.5,124.4 153.3,120.1 154.7,115.5 155.7,110.9 156.3,106.2" fill="#FFFFFF" stroke="#FFFFFF" stroke-width="1.0" stroke-linecap="butt" stroke-linejoin="round" />
		<polygon points="69.0,153.8 153.8,69.0 134.0,49.2 49.2,134.0" fill="#D7D7D7" stroke="#D7D7D7" stroke-width="1.0" stroke-linecap="butt" stroke-linejoin="round" />
	</g>
</svg>
