<svg width="243" height="203" xmlns="http://www.w3.org/2000/svg" xmlns:xlink="http://www.w3.org/1999/xlink">
	<g id="Modelica.Mechanics.MultiBody.Examples.Loops.PlanarLoops_analytic" class="component">
		<polygon points="241.5,101.5 241.1,92.9 239.7,84.4 237.5,76.0 234.5,67.7 230.6,59.8 225.9,52.1 220.4,44.8 214.2,38.0 207.3,31.6 199.7,25.7 191.6,20.3 183.0,15.6 173.9,11.5 164.4,8.1 154.6,5.4 144.6,3.4 134.4,2.1 124.1,1.5 113.8,1.7 103.5,2.6 93.4,4.3 83.4,6.7 73.8,9.7 64.5,13.5 55.6,17.9 47.3,22.9 39.4,28.5 32.2,34.7 25.6,41.3 19.8,48.4 14.7,55.9 10.4,63.7 6.9,71.8 4.3,80.1 2.5,88.6 1.6,97.2 1.6,105.8 2.5,114.4 4.3,122.9 6.9,131.2 10.4,139.3 14.7,147.1 19.8,154.6 25.6,161.7 32.2,168.3 39.4,174.5 47.3,180.1 55.6,185.1 64.5,189.5 73.8,193.3 83.4,196.3 93.4,198.7 103.5,200.4 113.8,201.3 124.1,201.5 134.4,200.9 144.6,199.6 154.6,197.6 164.4,194.9 173.9,191.5 183.0,187.4 191.6,182.7 199.7,177.3 207.3,171.4 214.2,165.0 220.4,158.2 225.9,150.9 230.6,143.2 234.5,135.3 237.5,127.0 239.7,118.6 241.1,110.1" fill="#FFFFFF" stroke="#4B8A49" stroke-width="1.0" stroke-linecap="round" stroke-linejoin="round" />
		<polygon points="78.3,41.5 198.3,101.5 78.3,161.5" fill="#4B8A49" stroke-opacity="0" stroke-width="1.0" stroke-linecap="round" stroke-linejoin="round" />
	</g>
</svg>
