<svg width="248" height="208" xmlns="http://www.w3.org/2000/svg" xmlns:xlink="http://www.w3.org/1999/xlink">
	<g id="Modelica.Mechanics.MultiBody.Forces.WorldTorque" class="component">
		<text x="134.0" y="73.8" text-anchor="middle" fill="#C0C0C0" font-size="35.4px" font-family="sans-serif">resolve</text>
		<polyline points="141.5,11.3 141.5,24.3" fill-opacity="0" stroke="#5F5F5F" stroke-dasharray="1 2" stroke-width="1.0" stroke-linecap="butt" stroke-linejoin="round" />
		<polyline points="41.5,106.3 47.5,93.3 55.5,78.3 67.5,58.3 76.5,46.3 89.5,34.3 106.5,25.3 119.5,22.3 133.5,22.3 148.5,26.3 160.5,33.3 173.5,41.3 185.5,51.3 193.5,59.3 199.5,66.3" fill-opacity="0" stroke="#000000" stroke-width="1.0" stroke-linecap="butt" stroke-linejoin="round" />
		<polygon points="235.5,96.3 216.5,47.3 182.5,82.3" fill="#000000" stroke="#000000" stroke-width="1.0" stroke-linecap="butt" stroke-linejoin="round" />
		<g id="frame_b" class="port">
			<polygon points="239.9,107.9 243.1,107.9 243.1,104.7 239.9,104.7" fill-opacity="0" stroke="#5F5F5F" stroke-width="1.0" stroke-linecap="butt" stroke-linejoin="round" />
			<polygon points="236.7,122.3 246.3,122.3 246.3,90.3 236.7,90.3" fill="#FFFFFF" stroke="#000000" stroke-width="1.0" stroke-linecap="butt" stroke-linejoin="round" />
		</g>
		<g id="frame_resolve" class="port">
			<polygon points="139.9,7.9 139.9,4.7 143.1,4.7 143.1,7.9" fill-opacity="0" stroke="#5F5F5F" stroke-dasharray="1 2" stroke-width="1.0" stroke-linecap="butt" stroke-linejoin="round" />
			<polygon points="125.5,11.1 125.5,1.5 157.5,1.5 157.5,11.1" fill="#FFFFFF" stroke="#5F5F5F" stroke-dasharray="1 2" stroke-width="1.0" stroke-linecap="butt" stroke-linejoin="round" />
		</g>
		<g id="torque" class="port">
			<polygon points="1.5,86.3 41.5,106.3 1.5,126.3" fill="#00007F" stroke="#00007F" stroke-width="1.0" stroke-linecap="butt" stroke-linejoin="round" />
		</g>
	</g>
</svg>
