<svg width="203" height="203" xmlns="http://www.w3.org/2000/svg" xmlns:xlink="http://www.w3.org/1999/xlink">
	<g id="Modelica.Electrical.Digital.Registers.DFFR" class="component">
		<polygon points="51.5,161.5 151.5,161.5 151.5,41.5 51.5,41.5" fill="#FFFFFF" stroke="#7F216B" stroke-width="1.0" stroke-linecap="butt" stroke-linejoin="round" />
		<polyline points="31.5,71.5 51.5,71.5" fill-opacity="0" stroke="#7F216B" stroke-width="1.0" stroke-linecap="butt" stroke-linejoin="round" />
		<polyline points="151.5,71.5 177.5,71.5" fill-opacity="0" stroke="#7F216B" stroke-width="1.0" stroke-linecap="butt" stroke-linejoin="round" />
		<polyline points="21.5,121.5 51.5,121.5" fill-opacity="0" stroke="#7F216B" stroke-width="1.0" stroke-linecap="butt" stroke-linejoin="round" />
		<polyline points="101.5,185.5 101.5,161.5" fill-opacity="0" stroke="#7F216B" stroke-width="1.0" stroke-linecap="butt" stroke-linejoin="round" />
		<polyline points="51.5,109.5 67.5,121.5 51.5,133.5" fill-opacity="0" stroke="#7F216B" stroke-width="1.0" stroke-linecap="butt" stroke-linejoin="round" />
		<text x="96.5" y="79.6" text-anchor="middle" fill="#7F216B" font-size="24.3px" font-family="sans-serif">DFFR</text>
		<text x="82.5" y="126.1" text-anchor="middle" fill="#7F216B" font-size="11.5px" font-family="sans-serif">clock</text>
		<text x="100.5" y="156.3" text-anchor="middle" fill="#7F216B" font-size="12.3px" font-family="sans-serif">reset</text>
		<g id="reset" class="port">
			<polygon points="91.5,201.5 111.5,201.5 111.5,181.5 91.5,181.5" fill="#7F007F" stroke="#7F007F" stroke-width="1.0" stroke-linecap="butt" stroke-linejoin="round" />
		</g>
		<g id="clock" class="port">
			<polygon points="11.5,131.5 31.5,131.5 31.5,111.5 11.5,111.5" fill="#7F007F" stroke="#7F007F" stroke-width="1.0" stroke-linecap="butt" stroke-linejoin="round" />
		</g>
		<g id="dataIn" class="port">
			<polygon points="11.5,81.5 31.5,81.5 31.5,61.5 11.5,61.5" fill="#7F007F" stroke="#7F007F" stroke-width="1.0" stroke-linecap="butt" stroke-linejoin="round" />
		</g>
		<g id="dataOut" class="port">
			<polygon points="170.5,61.5 190.5,71.5 170.5,81.5" fill="#FFFFFF" stroke="#7F007F" stroke-width="1.0" stroke-linecap="butt" stroke-linejoin="round" />
		</g>
	</g>
</svg>
