<svg width="263" height="203" xmlns="http://www.w3.org/2000/svg" xmlns:xlink="http://www.w3.org/1999/xlink">
	<g id="Modelica.Electrical.PowerConverters.DCAC.Control.IntersectivePWM" class="component">
		<polygon points="41.5,201.5 241.5,201.5 241.5,1.5 41.5,1.5" fill="#FFFFFF" stroke="#00007F" stroke-width="1.0" stroke-linecap="round" stroke-linejoin="round" />
		<polyline points="81.5,101.5 85.7,84.4 88.3,73.8 90.7,65.0 92.6,57.8 92.6,57.8 94.4,51.9 96.2,46.5 97.8,41.8 97.8,41.8 98.7,39.2 99.7,36.8 100.6,34.7 101.4,32.7 102.3,31.0 102.3,31.0 103.4,29.1 104.4,27.4 105.4,25.9 106.5,24.6 106.5,24.6 107.9,23.4 109.3,22.5 110.7,22.0 110.7,22.0 112.9,22.2 115.0,23.3 115.0,23.3 116.4,24.6 117.8,26.3 119.2,28.3 119.2,28.4 120.2,30.2 121.3,32.2 122.4,34.5 123.4,37.0 123.4,37.0 124.5,39.7 125.6,42.7 126.7,46.1 127.9,49.8 127.9,49.8 129.6,55.3 131.4,61.6 133.4,68.8 133.4,68.8 135.8,78.1 138.9,90.6 142.7,106.3 142.7,106.3 146.5,121.8 149.5,133.7 151.8,142.0 151.8,142.0 153.5,148.2 155.3,153.7 156.9,158.7 156.9,158.7 157.8,161.4 158.8,163.9 159.7,166.2 160.5,168.3 161.4,170.2 161.4,170.2 162.4,172.3 163.5,174.2 164.6,175.8 165.6,177.2 165.6,177.2 167.0,178.8 168.4,180.0 169.8,180.7 169.8,180.7 172.0,181.0 174.1,180.3 174.1,180.3 175.5,179.3 176.9,177.9 178.3,176.0 178.3,176.0 179.4,174.4 180.4,172.6 181.4,170.5 182.5,168.2 182.5,168.2 183.6,165.6 184.7,162.8 185.8,159.6 187.0,156.0 187.0,156.0 188.7,150.7 190.5,144.5 192.4,137.5 192.4,137.5 194.5,129.9 196.5,122.0 198.5,113.9 201.5,101.5" fill-opacity="0" stroke="#0000FF" stroke-width="1.0" stroke-linecap="round" stroke-linejoin="round" />
		<polyline points="81.5,181.5 93.5,21.5 101.5,181.5 111.5,21.5 121.5,181.5 131.5,21.5 141.5,181.5 151.5,21.5 161.5,179.5 171.5,21.5 181.5,181.5 191.5,21.5 201.5,181.5" fill-opacity="0" stroke="#EE2E2F" stroke-width="1.0" stroke-linecap="round" stroke-linejoin="round" />
		<g id="u" class="port">
			<polygon points="1.5,81.5 41.5,101.5 1.5,121.5" fill="#00007F" stroke="#00007F" stroke-width="1.0" stroke-linecap="round" stroke-linejoin="round" />
		</g>
		<g id="fire_p" class="port">
			<polygon points="241.5,31.5 261.5,41.5 241.5,51.5" fill="#FFFFFF" stroke="#FF00FF" stroke-width="1.0" stroke-linecap="round" stroke-linejoin="round" />
		</g>
		<g id="fire_n" class="port">
			<polygon points="241.5,151.5 261.5,161.5 241.5,171.5" fill="#FFFFFF" stroke="#FF00FF" stroke-width="1.0" stroke-linecap="round" stroke-linejoin="round" />
		</g>
	</g>
</svg>
