<svg width="203" height="203" xmlns="http://www.w3.org/2000/svg" xmlns:xlink="http://www.w3.org/1999/xlink">
	<g id="Modelica.Fluid.Interfaces.FluidPort_b" class="component">
		<polygon points="201.5,101.5 201.1,92.9 200.0,84.4 198.2,76.0 195.6,67.7 192.4,59.8 188.5,52.1 183.9,44.8 178.7,38.0 173.0,31.6 166.7,25.7 159.9,20.3 152.7,15.6 145.2,11.5 137.3,8.1 129.1,5.4 120.7,3.4 112.2,2.1 103.7,1.5 95.0,1.7 86.5,2.6 78.1,4.3 69.8,6.7 61.7,9.7 54.0,13.5 46.6,17.9 39.6,22.9 33.1,28.5 27.1,34.7 21.6,41.3 16.7,48.4 12.5,55.9 8.9,63.7 6.0,71.8 3.8,80.1 2.3,88.6 1.6,97.2 1.6,105.8 2.3,114.4 3.8,122.9 6.0,131.2 8.9,139.3 12.5,147.1 16.7,154.6 21.6,161.7 27.1,168.3 33.1,174.5 39.6,180.1 46.6,185.1 54.0,189.5 61.7,193.3 69.8,196.3 78.1,198.7 86.5,200.4 95.0,201.3 103.7,201.5 112.2,200.9 120.7,199.6 129.1,197.6 137.3,194.9 145.2,191.5 152.7,187.4 159.9,182.7 166.7,177.3 173.0,171.4 178.7,165.0 183.9,158.2 188.5,150.9 192.4,143.2 195.6,135.3 198.2,127.0 200.0,118.6 201.1,110.1" fill="#007FFF" stroke="#007FFF" stroke-width="1.0" stroke-linecap="butt" stroke-linejoin="round" />
		<polygon points="201.5,101.5 201.1,92.9 200.0,84.4 198.2,76.0 195.6,67.7 192.4,59.8 188.5,52.1 183.9,44.8 178.7,38.0 173.0,31.6 166.7,25.7 159.9,20.3 152.7,15.6 145.2,11.5 137.3,8.1 129.1,5.4 120.7,3.4 112.2,2.1 103.7,1.5 95.0,1.7 86.5,2.6 78.1,4.3 69.8,6.7 61.7,9.7 54.0,13.5 46.6,17.9 39.6,22.9 33.1,28.5 27.1,34.7 21.6,41.3 16.7,48.4 12.5,55.9 8.9,63.7 6.0,71.8 3.8,80.1 2.3,88.6 1.6,97.2 1.6,105.8 2.3,114.4 3.8,122.9 6.0,131.2 8.9,139.3 12.5,147.1 16.7,154.6 21.6,161.7 27.1,168.3 33.1,174.5 39.6,180.1 46.6,185.1 54.0,189.5 61.7,193.3 69.8,196.3 78.1,198.7 86.5,200.4 95.0,201.3 103.7,201.5 112.2,200.9 120.7,199.6 129.1,197.6 137.3,194.9 145.2,191.5 152.7,187.4 159.9,182.7 166.7,177.3 173.0,171.4 178.7,165.0 183.9,158.2 188.5,150.9 192.4,143.2 195.6,135.3 198.2,127.0 200.0,118.6 201.1,110.1" fill="#007FFF" stroke="#000000" stroke-width="1.0" stroke-linecap="butt" stroke-linejoin="round" />
		<polygon points="181.5,101.5 181.2,94.6 180.3,87.8 178.8,81.1 176.8,74.5 174.2,68.1 171.1,62.0 167.4,56.2 163.3,50.7 158.7,45.5 153.7,40.8 148.2,36.6 142.5,32.8 136.4,29.5 130.1,26.8 123.6,24.6 116.9,23.0 110.1,22.0 103.2,21.5 96.3,21.7 89.5,22.4 82.7,23.7 76.1,25.6 69.7,28.1 63.5,31.1 57.6,34.6 52.0,38.6 46.8,43.1 42.0,48.1 37.6,53.4 33.7,59.0 30.3,65.0 27.4,71.3 25.1,77.8 23.3,84.4 22.2,91.2 21.6,98.1 21.6,104.9 22.2,111.8 23.3,118.6 25.1,125.2 27.4,131.7 30.3,138.0 33.7,144.0 37.6,149.6 42.0,154.9 46.8,159.9 52.0,164.4 57.6,168.4 63.5,171.9 69.7,174.9 76.1,177.4 82.7,179.3 89.5,180.6 96.3,181.3 103.2,181.5 110.1,181.0 116.9,180.0 123.6,178.4 130.1,176.2 136.4,173.5 142.5,170.2 148.2,166.4 153.7,162.2 158.7,157.5 163.3,152.3 167.4,146.8 171.1,141.0 174.2,134.9 176.8,128.5 178.8,121.9 180.3,115.2 181.2,108.4" fill="#FFFFFF" stroke="#007FFF" stroke-width="1.0" stroke-linecap="butt" stroke-linejoin="round" />
	</g>
</svg>
