<svg width="223" height="243" xmlns="http://www.w3.org/2000/svg" xmlns:xlink="http://www.w3.org/1999/xlink">
	<g id="Modelica.Electrical.Analog.Basic.VariableInductor" class="component">
		<polyline points="21.5,141.5 51.5,141.5" fill-opacity="0" stroke="#0000FF" stroke-width="1.0" stroke-linecap="round" stroke-linejoin="round" />
		<polyline points="171.5,141.5 201.5,141.5" fill-opacity="0" stroke="#0000FF" stroke-width="1.0" stroke-linecap="round" stroke-linejoin="round" />
		<polyline points="51.5,141.5 52.0,138.5 52.4,136.9 53.2,135.2 54.4,133.4 56.0,131.5 56.0,131.5 57.5,130.1 59.4,128.9 61.5,128.1 63.8,127.7 66.5,127.5 66.5,127.5 69.2,127.7 71.5,128.1 73.6,128.9 75.5,130.1 77.0,131.5 77.0,131.5 78.6,133.4 79.8,135.2 80.6,136.9 81.0,138.5 81.5,141.5" fill-opacity="0" stroke="#0000FF" stroke-width="1.0" stroke-linecap="round" stroke-linejoin="round" />
		<polyline points="81.5,141.5 82.0,138.5 82.4,136.9 83.2,135.2 84.4,133.4 86.0,131.5 86.0,131.5 87.5,130.1 89.4,128.9 91.5,128.1 93.8,127.7 96.5,127.5 96.5,127.5 99.2,127.7 101.5,128.1 103.6,128.9 105.5,130.1 107.0,131.5 107.0,131.5 108.6,133.4 109.8,135.2 110.6,136.9 111.0,138.5 111.5,141.5" fill-opacity="0" stroke="#0000FF" stroke-width="1.0" stroke-linecap="round" stroke-linejoin="round" />
		<polyline points="111.5,141.5 112.0,138.5 112.4,136.9 113.2,135.2 114.4,133.4 116.0,131.5 116.0,131.5 117.5,130.1 119.4,128.9 121.5,128.1 123.8,127.7 126.5,127.5 126.5,127.5 129.2,127.7 131.5,128.1 133.6,128.9 135.5,130.1 137.0,131.5 137.0,131.5 138.6,133.4 139.8,135.2 140.6,136.9 141.0,138.5 141.5,141.5" fill-opacity="0" stroke="#0000FF" stroke-width="1.0" stroke-linecap="round" stroke-linejoin="round" />
		<polyline points="141.5,141.5 142.0,138.5 142.4,136.9 143.2,135.2 144.4,133.4 146.0,131.5 146.0,131.5 147.5,130.1 149.4,128.9 151.5,128.1 153.8,127.7 156.5,127.5 156.5,127.5 159.2,127.7 161.5,128.1 163.6,128.9 165.5,130.1 167.0,131.5 167.0,131.5 168.6,133.4 169.8,135.2 170.6,136.9 171.0,138.5 171.5,141.5" fill-opacity="0" stroke="#0000FF" stroke-width="1.0" stroke-linecap="round" stroke-linejoin="round" />
		<g id="p" class="port">
			<polygon points="1.5,151.5 21.5,151.5 21.5,131.5 1.5,131.5" fill="#0000FF" stroke="#0000FF" stroke-width="1.0" stroke-linecap="round" stroke-linejoin="round" />
		</g>
		<g id="n" class="port">
			<polygon points="221.5,151.5 201.5,151.5 201.5,131.5 221.5,131.5" fill="#FFFFFF" stroke="#0000FF" stroke-width="1.0" stroke-linecap="round" stroke-linejoin="round" />
		</g>
		<g id="L" class="port">
			<polygon points="131.5,1.5 111.5,41.5 91.5,1.5" fill="#00007F" stroke="#00007F" stroke-width="1.0" stroke-linecap="round" stroke-linejoin="round" />
		</g>
	</g>
</svg>
