<svg width="203" height="203" xmlns="http://www.w3.org/2000/svg" xmlns:xlink="http://www.w3.org/1999/xlink">
	<g id="Modelica.Fluid.Interfaces.FluidPort_a" class="component">
		<polygon points="201.5,101.5 201.1,92.9 200.0,84.4 198.2,76.0 195.6,67.7 192.4,59.8 188.5,52.1 183.9,44.8 178.7,38.0 173.0,31.6 166.7,25.7 159.9,20.3 152.7,15.6 145.2,11.5 137.3,8.1 129.1,5.4 120.7,3.4 112.2,2.1 103.7,1.5 95.0,1.7 86.5,2.6 78.1,4.3 69.8,6.7 61.7,9.7 54.0,13.5 46.6,17.9 39.6,22.9 33.1,28.5 27.1,34.7 21.6,41.3 16.7,48.4 12.5,55.9 8.9,63.7 6.0,71.8 3.8,80.1 2.3,88.6 1.6,97.2 1.6,105.8 2.3,114.4 3.8,122.9 6.0,131.2 8.9,139.3 12.5,147.1 16.7,154.6 21.6,161.7 27.1,168.3 33.1,174.5 39.6,180.1 46.6,185.1 54.0,189.5 61.7,193.3 69.8,196.3 78.1,198.7 86.5,200.4 95.0,201.3 103.7,201.5 112.2,200.9 120.7,199.6 129.1,197.6 137.3,194.9 145.2,191.5 152.7,187.4 159.9,182.7 166.7,177.3 173.0,171.4 178.7,165.0 183.9,158.2 188.5,150.9 192.4,143.2 195.6,135.3 198.2,127.0 200.0,118.6 201.1,110.1" fill="#007FFF" stroke="#007FFF" stroke-width="1.0" stroke-linecap="butt" stroke-linejoin="round" />
		<polygon points="201.5,101.5 201.1,92.9 200.0,84.4 198.2,76.0 195.6,67.7 192.4,59.8 188.5,52.1 183.9,44.8 178.7,38.0 173.0,31.6 166.7,25.7 159.9,20.3 152.7,15.6 145.2,11.5 137.3,8.1 129.1,5.4 120.7,3.4 112.2,2.1 103.7,1.5 95.0,1.7 86.5,2.6 78.1,4.3 69.8,6.7 61.7,9.7 54.0,13.5 46.6,17.9 39.6,22.9 33.1,28.5 27.1,34.7 21.6,41.3 16.7,48.4 12.5,55.9 8.9,63.7 6.0,71.8 3.8,80.1 2.3,88.6 1.6,97.2 1.6,105.8 2.3,114.4 3.8,122.9 6.0,131.2 8.9,139.3 12.5,147.1 16.7,154.6 21.6,161.7 27.1,168.3 33.1,174.5 39.6,180.1 46.6,185.1 54.0,189.5 61.7,193.3 69.8,196.3 78.1,198.7 86.5,200.4 95.0,201.3 103.7,201.5 112.2,200.9 120.7,199.6 129.1,197.6 137.3,194.9 145.2,191.5 152.7,187.4 159.9,182.7 166.7,177.3 173.0,171.4 178.7,165.0 183.9,158.2 188.5,150.9 192.4,143.2 195.6,135.3 198.2,127.0 200.0,118.6 201.1,110.1" fill="#007FFF" stroke="#000000" stroke-width="1.0" stroke-linecap="butt" stroke-linejoin="round" />
	</g>
</svg>
