<svg width="223" height="213" xmlns="http://www.w3.org/2000/svg" xmlns:xlink="http://www.w3.org/1999/xlink">
	<g id="Modelica.Fluid.Fittings.TeeJunctionVolume" class="component">
		<defs>
			<linearGradient id="cyl2" x1="0" y1="0" x2="0" y2="1">
				<stop offset="0%" stop-color="#000000" />
				<stop offset="5%" stop-color="#001830" />
				<stop offset="10%" stop-color="#002E5C" />
				<stop offset="15%" stop-color="#004182" />
				<stop offset="20%" stop-color="#0051A3" />
				<stop offset="25%" stop-color="#005FBF" />
				<stop offset="30%" stop-color="#006BD6" />
				<stop offset="35%" stop-color="#0074E8" />
				<stop offset="40%" stop-color="#007AF5" />
				<stop offset="45%" stop-color="#007EFC" />
				<stop offset="50%" stop-color="#007FFF" />
				<stop offset="55%" stop-color="#007EFC" />
				<stop offset="60%" stop-color="#007AF5" />
				<stop offset="65%" stop-color="#0074E8" />
				<stop offset="70%" stop-color="#006BD6" />
				<stop offset="75%" stop-color="#005FBF" />
				<stop offset="80%" stop-color="#0051A3" />
				<stop offset="85%" stop-color="#004182" />
				<stop offset="90%" stop-color="#002E5C" />
				<stop offset="95%" stop-color="#001830" />
				<stop offset="100%" stop-color="#000000" />
			</linearGradient>
		</defs>
		<polygon points="11.5,155.5 211.5,155.5 211.5,67.5 11.5,67.5" fill="url(#cyl2)" stroke="#000000" stroke-width="1.0" stroke-linecap="round" stroke-linejoin="round" />
		<defs>
			<linearGradient id="cyl3" x1="0" y1="0" x2="1" y2="0">
				<stop offset="0%" stop-color="#000000" />
				<stop offset="5%" stop-color="#001830" />
				<stop offset="10%" stop-color="#002E5C" />
				<stop offset="15%" stop-color="#004182" />
				<stop offset="20%" stop-color="#0051A3" />
				<stop offset="25%" stop-color="#005FBF" />
				<stop offset="30%" stop-color="#006BD6" />
				<stop offset="35%" stop-color="#0074E8" />
				<stop offset="40%" stop-color="#007AF5" />
				<stop offset="45%" stop-color="#007EFC" />
				<stop offset="50%" stop-color="#007FFF" />
				<stop offset="55%" stop-color="#007EFC" />
				<stop offset="60%" stop-color="#007AF5" />
				<stop offset="65%" stop-color="#0074E8" />
				<stop offset="70%" stop-color="#006BD6" />
				<stop offset="75%" stop-color="#005FBF" />
				<stop offset="80%" stop-color="#0051A3" />
				<stop offset="85%" stop-color="#004182" />
				<stop offset="90%" stop-color="#002E5C" />
				<stop offset="95%" stop-color="#001830" />
				<stop offset="100%" stop-color="#000000" />
			</linearGradient>
		</defs>
		<polygon points="67.5,67.5 155.5,67.5 155.5,11.5 67.5,11.5" fill="url(#cyl3)" stroke="#000000" stroke-width="1.0" stroke-linecap="round" stroke-linejoin="round" />
		<polygon points="89.5,115.5 132.5,115.5 132.5,29.5 89.5,29.5" fill="#0080FF" stroke-opacity="0" stroke-width="1.0" stroke-linecap="round" stroke-linejoin="round" />
		<polygon points="122.5,111.5 122.5,110.6 122.3,109.8 122.2,108.9 121.9,108.1 121.6,107.3 121.2,106.6 120.7,105.8 120.2,105.1 119.6,104.5 119.0,103.9 118.3,103.4 117.6,102.9 116.9,102.5 116.1,102.2 115.3,101.9 114.4,101.7 113.6,101.6 112.7,101.5 111.8,101.5 111.0,101.6 110.1,101.8 109.3,102.0 108.5,102.3 107.7,102.7 107.0,103.1 106.3,103.6 105.7,104.2 105.0,104.8 104.5,105.5 104.0,106.2 103.6,106.9 103.2,107.7 102.9,108.5 102.7,109.4 102.6,110.2 102.5,111.1 102.5,111.9 102.6,112.8 102.7,113.6 102.9,114.5 103.2,115.3 103.6,116.1 104.0,116.8 104.5,117.5 105.0,118.2 105.7,118.8 106.3,119.4 107.0,119.9 107.7,120.3 108.5,120.7 109.3,121.0 110.1,121.2 111.0,121.4 111.8,121.5 112.7,121.5 113.6,121.4 114.4,121.3 115.3,121.1 116.1,120.8 116.9,120.5 117.6,120.1 118.3,119.6 119.0,119.1 119.6,118.5 120.2,117.9 120.7,117.2 121.2,116.4 121.6,115.7 121.9,114.9 122.2,114.1 122.3,113.2 122.5,112.4" fill="#000000" stroke="#000000" stroke-width="1.0" stroke-linecap="round" stroke-linejoin="round" />
		<g id="port_1" class="port">
			<polygon points="21.5,111.5 21.5,110.6 21.3,109.8 21.2,108.9 20.9,108.1 20.6,107.3 20.2,106.6 19.7,105.8 19.2,105.1 18.6,104.5 18.0,103.9 17.3,103.4 16.6,102.9 15.9,102.5 15.1,102.2 14.3,101.9 13.4,101.7 12.6,101.6 11.7,101.5 10.8,101.5 10.0,101.6 9.1,101.8 8.3,102.0 7.5,102.3 6.7,102.7 6.0,103.1 5.3,103.6 4.7,104.2 4.0,104.8 3.5,105.5 3.0,106.2 2.6,106.9 2.2,107.7 1.9,108.5 1.7,109.4 1.6,110.2 1.5,111.1 1.5,111.9 1.6,112.8 1.7,113.6 1.9,114.5 2.2,115.3 2.6,116.1 3.0,116.8 3.5,117.5 4.0,118.2 4.7,118.8 5.3,119.4 6.0,119.9 6.7,120.3 7.5,120.7 8.3,121.0 9.1,121.2 10.0,121.4 10.8,121.5 11.7,121.5 12.6,121.4 13.4,121.3 14.3,121.1 15.1,120.8 15.9,120.5 16.6,120.1 17.3,119.6 18.0,119.1 18.6,118.5 19.2,117.9 19.7,117.2 20.2,116.4 20.6,115.7 20.9,114.9 21.2,114.1 21.3,113.2 21.5,112.4" fill="#007FFF" stroke="#007FFF" stroke-width="1.0" stroke-linecap="round" stroke-linejoin="round" />
			<polygon points="21.5,111.5 21.5,110.6 21.3,109.8 21.2,108.9 20.9,108.1 20.6,107.3 20.2,106.6 19.7,105.8 19.2,105.1 18.6,104.5 18.0,103.9 17.3,103.4 16.6,102.9 15.9,102.5 15.1,102.2 14.3,101.9 13.4,101.7 12.6,101.6 11.7,101.5 10.8,101.5 10.0,101.6 9.1,101.8 8.3,102.0 7.5,102.3 6.7,102.7 6.0,103.1 5.3,103.6 4.7,104.2 4.0,104.8 3.5,105.5 3.0,106.2 2.6,106.9 2.2,107.7 1.9,108.5 1.7,109.4 1.6,110.2 1.5,111.1 1.5,111.9 1.6,112.8 1.7,113.6 1.9,114.5 2.2,115.3 2.6,116.1 3.0,116.8 3.5,117.5 4.0,118.2 4.7,118.8 5.3,119.4 6.0,119.9 6.7,120.3 7.5,120.7 8.3,121.0 9.1,121.2 10.0,121.4 10.8,121.5 11.7,121.5 12.6,121.4 13.4,121.3 14.3,121.1 15.1,120.8 15.9,120.5 16.6,120.1 17.3,119.6 18.0,119.1 18.6,118.5 19.2,117.9 19.7,117.2 20.2,116.4 20.6,115.7 20.9,114.9 21.2,114.1 21.3,113.2 21.5,112.4" fill="#007FFF" stroke="#000000" stroke-width="1.0" stroke-linecap="round" stroke-linejoin="round" />
		</g>
		<g id="port_2" class="port">
			<polygon points="221.5,111.5 221.5,110.6 221.3,109.8 221.2,108.9 220.9,108.1 220.6,107.3 220.2,106.6 219.7,105.8 219.2,105.1 218.6,104.5 218.0,103.9 217.3,103.4 216.6,102.9 215.9,102.5 215.1,102.2 214.3,101.9 213.4,101.7 212.6,101.6 211.7,101.5 210.8,101.5 210.0,101.6 209.1,101.8 208.3,102.0 207.5,102.3 206.7,102.7 206.0,103.1 205.3,103.6 204.7,104.2 204.0,104.8 203.5,105.5 203.0,106.2 202.6,106.9 202.2,107.7 201.9,108.5 201.7,109.4 201.6,110.2 201.5,111.1 201.5,111.9 201.6,112.8 201.7,113.6 201.9,114.5 202.2,115.3 202.6,116.1 203.0,116.8 203.5,117.5 204.0,118.2 204.7,118.8 205.3,119.4 206.0,119.9 206.7,120.3 207.5,120.7 208.3,121.0 209.1,121.2 210.0,121.4 210.8,121.5 211.7,121.5 212.6,121.4 213.4,121.3 214.3,121.1 215.1,120.8 215.9,120.5 216.6,120.1 217.3,119.6 218.0,119.1 218.6,118.5 219.2,117.9 219.7,117.2 220.2,116.4 220.6,115.7 220.9,114.9 221.2,114.1 221.3,113.2 221.5,112.4" fill="#007FFF" stroke="#007FFF" stroke-width="1.0" stroke-linecap="round" stroke-linejoin="round" />
			<polygon points="221.5,111.5 221.5,110.6 221.3,109.8 221.2,108.9 220.9,108.1 220.6,107.3 220.2,106.6 219.7,105.8 219.2,105.1 218.6,104.5 218.0,103.9 217.3,103.4 216.6,102.9 215.9,102.5 215.1,102.2 214.3,101.9 213.4,101.7 212.6,101.6 211.7,101.5 210.8,101.5 210.0,101.6 209.1,101.8 208.3,102.0 207.5,102.3 206.7,102.7 206.0,103.1 205.3,103.6 204.7,104.2 204.0,104.8 203.5,105.5 203.0,106.2 202.6,106.9 202.2,107.7 201.9,108.5 201.7,109.4 201.6,110.2 201.5,111.1 201.5,111.9 201.6,112.8 201.7,113.6 201.9,114.5 202.2,115.3 202.6,116.1 203.0,116.8 203.5,117.5 204.0,118.2 204.7,118.8 205.3,119.4 206.0,119.9 206.7,120.3 207.5,120.7 208.3,121.0 209.1,121.2 210.0,121.4 210.8,121.5 211.7,121.5 212.6,121.4 213.4,121.3 214.3,121.1 215.1,120.8 215.9,120.5 216.6,120.1 217.3,119.6 218.0,119.1 218.6,118.5 219.2,117.9 219.7,117.2 220.2,116.4 220.6,115.7 220.9,114.9 221.2,114.1 221.3,113.2 221.5,112.4" fill="#007FFF" stroke="#000000" stroke-width="1.0" stroke-linecap="round" stroke-linejoin="round" />
			<polygon points="219.5,111.5 219.5,110.8 219.4,110.1 219.2,109.5 219.0,108.8 218.8,108.2 218.4,107.5 218.1,107.0 217.7,106.4 217.2,105.9 216.7,105.4 216.2,105.0 215.6,104.6 215.0,104.3 214.4,104.0 213.7,103.8 213.0,103.6 212.3,103.5 211.7,103.5 211.0,103.5 210.3,103.6 209.6,103.7 209.0,103.9 208.3,104.2 207.7,104.5 207.1,104.8 206.5,105.2 206.0,105.7 205.5,106.2 205.1,106.7 204.7,107.3 204.4,107.9 204.1,108.5 203.9,109.1 203.7,109.8 203.6,110.5 203.5,111.2 203.5,111.8 203.6,112.5 203.7,113.2 203.9,113.9 204.1,114.5 204.4,115.1 204.7,115.7 205.1,116.3 205.5,116.8 206.0,117.3 206.5,117.8 207.1,118.2 207.7,118.5 208.3,118.8 209.0,119.1 209.6,119.3 210.3,119.4 211.0,119.5 211.7,119.5 212.3,119.5 213.0,119.3 213.7,119.2 214.4,119.0 215.0,118.7 215.6,118.4 216.2,118.0 216.7,117.6 217.2,117.1 217.7,116.6 218.1,116.0 218.4,115.4 218.8,114.8 219.0,114.2 219.2,113.5 219.4,112.9 219.5,112.2" fill="#FFFFFF" stroke="#007FFF" stroke-width="1.0" stroke-linecap="round" stroke-linejoin="round" />
		</g>
		<g id="port_3" class="port">
			<polygon points="121.5,11.5 121.5,10.6 121.3,9.8 121.2,8.9 120.9,8.1 120.6,7.3 120.2,6.6 119.7,5.8 119.2,5.1 118.6,4.5 118.0,3.9 117.3,3.4 116.6,2.9 115.9,2.5 115.1,2.2 114.3,1.9 113.4,1.7 112.6,1.6 111.7,1.5 110.8,1.5 110.0,1.6 109.1,1.8 108.3,2.0 107.5,2.3 106.7,2.7 106.0,3.1 105.3,3.6 104.7,4.2 104.0,4.8 103.5,5.5 103.0,6.2 102.6,6.9 102.2,7.7 101.9,8.5 101.7,9.4 101.6,10.2 101.5,11.1 101.5,11.9 101.6,12.8 101.7,13.6 101.9,14.5 102.2,15.3 102.6,16.1 103.0,16.8 103.5,17.5 104.0,18.2 104.7,18.8 105.3,19.4 106.0,19.9 106.7,20.3 107.5,20.7 108.3,21.0 109.1,21.2 110.0,21.4 110.8,21.5 111.7,21.5 112.6,21.4 113.4,21.3 114.3,21.1 115.1,20.8 115.9,20.5 116.6,20.1 117.3,19.6 118.0,19.1 118.6,18.5 119.2,17.9 119.7,17.2 120.2,16.4 120.6,15.7 120.9,14.9 121.2,14.1 121.3,13.2 121.5,12.4" fill="#007FFF" stroke="#007FFF" stroke-width="1.0" stroke-linecap="round" stroke-linejoin="round" />
			<polygon points="121.5,11.5 121.5,10.6 121.3,9.8 121.2,8.9 120.9,8.1 120.6,7.3 120.2,6.6 119.7,5.8 119.2,5.1 118.6,4.5 118.0,3.9 117.3,3.4 116.6,2.9 115.9,2.5 115.1,2.2 114.3,1.9 113.4,1.7 112.6,1.6 111.7,1.5 110.8,1.5 110.0,1.6 109.1,1.8 108.3,2.0 107.5,2.3 106.7,2.7 106.0,3.1 105.3,3.6 104.7,4.2 104.0,4.8 103.5,5.5 103.0,6.2 102.6,6.9 102.2,7.7 101.9,8.5 101.7,9.4 101.6,10.2 101.5,11.1 101.5,11.9 101.6,12.8 101.7,13.6 101.9,14.5 102.2,15.3 102.6,16.1 103.0,16.8 103.5,17.5 104.0,18.2 104.7,18.8 105.3,19.4 106.0,19.9 106.7,20.3 107.5,20.7 108.3,21.0 109.1,21.2 110.0,21.4 110.8,21.5 111.7,21.5 112.6,21.4 113.4,21.3 114.3,21.1 115.1,20.8 115.9,20.5 116.6,20.1 117.3,19.6 118.0,19.1 118.6,18.5 119.2,17.9 119.7,17.2 120.2,16.4 120.6,15.7 120.9,14.9 121.2,14.1 121.3,13.2 121.5,12.4" fill="#007FFF" stroke="#000000" stroke-width="1.0" stroke-linecap="round" stroke-linejoin="round" />
		</g>
	</g>
</svg>
