<svg width="243" height="223" xmlns="http://www.w3.org/2000/svg" xmlns:xlink="http://www.w3.org/1999/xlink">
	<g id="Modelica.Electrical.Machines.Utilities.SwitchYD" class="component">
		<polyline points="161.5,89.5 181.5,99.5 201.5,89.5 181.5,99.5 181.5,121.5" fill-opacity="0" stroke="#0000FF" stroke-width="1.0" stroke-linecap="butt" stroke-linejoin="round" />
		<polygon points="85.5,131.5 85.5,131.2 85.4,130.8 85.4,130.5 85.3,130.1 85.1,129.8 85.0,129.5 84.8,129.2 84.6,129.0 84.4,128.7 84.1,128.5 83.8,128.3 83.5,128.1 83.2,127.9 82.9,127.8 82.6,127.7 82.3,127.6 81.9,127.5 81.6,127.5 81.2,127.5 80.9,127.5 80.6,127.6 80.2,127.7 79.9,127.8 79.6,128.0 79.3,128.2 79.0,128.4 78.8,128.6 78.5,128.8 78.3,129.1 78.1,129.4 77.9,129.7 77.8,130.0 77.7,130.3 77.6,130.6 77.5,131.0 77.5,131.3 77.5,131.7 77.5,132.0 77.6,132.4 77.7,132.7 77.8,133.0 77.9,133.3 78.1,133.6 78.3,133.9 78.5,134.2 78.8,134.4 79.0,134.6 79.3,134.8 79.6,135.0 79.9,135.2 80.2,135.3 80.6,135.4 80.9,135.5 81.2,135.5 81.6,135.5 81.9,135.5 82.3,135.4 82.6,135.3 82.9,135.2 83.2,135.1 83.5,134.9 83.8,134.7 84.1,134.5 84.4,134.3 84.6,134.0 84.8,133.8 85.0,133.5 85.1,133.2 85.3,132.8 85.4,132.5 85.4,132.2 85.5,131.8" fill="#FFFFFF" stroke="#0000FF" stroke-width="1.0" stroke-linecap="butt" stroke-linejoin="round" />
		<polygon points="145.5,111.5 145.5,111.2 145.4,110.8 145.4,110.5 145.3,110.1 145.1,109.8 145.0,109.5 144.8,109.2 144.6,109.0 144.4,108.7 144.1,108.5 143.8,108.3 143.5,108.1 143.2,107.9 142.9,107.8 142.6,107.7 142.3,107.6 141.9,107.5 141.6,107.5 141.2,107.5 140.9,107.5 140.6,107.6 140.2,107.7 139.9,107.8 139.6,108.0 139.3,108.2 139.0,108.4 138.8,108.6 138.5,108.8 138.3,109.1 138.1,109.4 137.9,109.7 137.8,110.0 137.7,110.3 137.6,110.6 137.5,111.0 137.5,111.3 137.5,111.7 137.5,112.0 137.6,112.4 137.7,112.7 137.8,113.0 137.9,113.3 138.1,113.6 138.3,113.9 138.5,114.2 138.8,114.4 139.0,114.6 139.3,114.8 139.6,115.0 139.9,115.2 140.2,115.3 140.6,115.4 140.9,115.5 141.2,115.5 141.6,115.5 141.9,115.5 142.3,115.4 142.6,115.3 142.9,115.2 143.2,115.1 143.5,114.9 143.8,114.7 144.1,114.5 144.4,114.3 144.6,114.0 144.8,113.8 145.0,113.5 145.1,113.2 145.3,112.8 145.4,112.5 145.4,112.2 145.5,111.8" fill="#FFFFFF" stroke="#0000FF" stroke-width="1.0" stroke-linecap="butt" stroke-linejoin="round" />
		<polygon points="145.5,151.5 145.5,151.2 145.4,150.8 145.4,150.5 145.3,150.1 145.1,149.8 145.0,149.5 144.8,149.2 144.6,149.0 144.4,148.7 144.1,148.5 143.8,148.3 143.5,148.1 143.2,147.9 142.9,147.8 142.6,147.7 142.3,147.6 141.9,147.5 141.6,147.5 141.2,147.5 140.9,147.5 140.6,147.6 140.2,147.7 139.9,147.8 139.6,148.0 139.3,148.2 139.0,148.4 138.8,148.6 138.5,148.8 138.3,149.1 138.1,149.4 137.9,149.7 137.8,150.0 137.7,150.3 137.6,150.6 137.5,151.0 137.5,151.3 137.5,151.7 137.5,152.0 137.6,152.4 137.7,152.7 137.8,153.0 137.9,153.3 138.1,153.6 138.3,153.9 138.5,154.2 138.8,154.4 139.0,154.6 139.3,154.8 139.6,155.0 139.9,155.2 140.2,155.3 140.6,155.4 140.9,155.5 141.2,155.5 141.6,155.5 141.9,155.5 142.3,155.4 142.6,155.3 142.9,155.2 143.2,155.1 143.5,154.9 143.8,154.7 144.1,154.5 144.4,154.3 144.6,154.0 144.8,153.8 145.0,153.5 145.1,153.2 145.3,152.8 145.4,152.5 145.4,152.2 145.5,151.8" fill="#FFFFFF" stroke="#0000FF" stroke-width="1.0" stroke-linecap="butt" stroke-linejoin="round" />
		<polyline points="139.5,131.5 85.5,131.5" fill-opacity="0" stroke="#0000FF" stroke-width="1.0" stroke-linecap="butt" stroke-linejoin="round" />
		<polygon points="181.5,173.5 161.5,141.5 201.5,141.5" fill-opacity="0" stroke="#0000FF" stroke-width="1.0" stroke-linecap="butt" stroke-linejoin="round" />
		<polyline points="141.5,21.5 141.5,23.5 141.5,31.5 221.5,31.5 221.5,33.5 221.5,151.5 201.5,151.5" fill-opacity="0" stroke="#0000FF" stroke-width="1.0" stroke-linecap="butt" stroke-linejoin="round" />
		<polyline points="145.5,111.5 161.5,111.5" fill-opacity="0" stroke="#0000FF" stroke-width="1.0" stroke-linecap="butt" stroke-linejoin="round" />
		<polyline points="145.5,151.5 161.5,151.5" fill-opacity="0" stroke="#0000FF" stroke-width="1.0" stroke-linecap="butt" stroke-linejoin="round" />
		<polyline points="81.5,135.5 81.5,201.5" fill-opacity="0" stroke="#0000FF" stroke-width="1.0" stroke-linecap="butt" stroke-linejoin="round" />
		<polyline points="41.5,111.5 111.5,111.5 111.5,131.5" fill-opacity="0" stroke="#FF00FF" stroke-dasharray="3 4" stroke-width="1.0" stroke-linecap="butt" stroke-linejoin="round" />
		<polyline points="201.5,201.5 201.5,151.5" fill-opacity="0" stroke="#0000FF" stroke-width="1.0" stroke-linecap="butt" stroke-linejoin="round" />
		<g id="plugSupply" class="port">
			<polygon points="151.5,11.5 151.5,10.6 151.4,9.8 151.2,8.9 150.9,8.1 150.6,7.3 150.2,6.6 149.7,5.8 149.2,5.1 148.6,4.5 148.0,3.9 147.3,3.4 146.6,2.9 145.9,2.5 145.1,2.2 144.3,1.9 143.4,1.7 142.6,1.6 141.7,1.5 140.9,1.5 140.0,1.6 139.2,1.8 138.3,2.0 137.5,2.3 136.8,2.7 136.0,3.1 135.3,3.6 134.7,4.2 134.1,4.8 133.5,5.5 133.0,6.2 132.6,6.9 132.2,7.7 132.0,8.5 131.7,9.4 131.6,10.2 131.5,11.1 131.5,11.9 131.6,12.8 131.7,13.6 132.0,14.5 132.2,15.3 132.6,16.1 133.0,16.8 133.5,17.5 134.1,18.2 134.7,18.8 135.3,19.4 136.0,19.9 136.8,20.3 137.5,20.7 138.3,21.0 139.2,21.2 140.0,21.4 140.9,21.5 141.7,21.5 142.6,21.4 143.4,21.3 144.3,21.1 145.1,20.8 145.9,20.5 146.6,20.1 147.3,19.6 148.0,19.1 148.6,18.5 149.2,17.9 149.7,17.2 150.2,16.4 150.6,15.7 150.9,14.9 151.2,14.1 151.4,13.2 151.5,12.4" fill="#0000FF" stroke="#0000FF" stroke-width="1.0" stroke-linecap="butt" stroke-linejoin="round" />
		</g>
		<g id="plug_sp" class="port">
			<polygon points="211.5,211.5 211.5,212.4 211.4,213.2 211.2,214.1 210.9,214.9 210.6,215.7 210.2,216.4 209.7,217.2 209.2,217.9 208.6,218.5 208.0,219.1 207.3,219.6 206.6,220.1 205.9,220.5 205.1,220.8 204.3,221.1 203.4,221.3 202.6,221.4 201.7,221.5 200.9,221.5 200.0,221.4 199.2,221.2 198.3,221.0 197.5,220.7 196.8,220.3 196.0,219.9 195.3,219.4 194.7,218.8 194.1,218.2 193.5,217.5 193.0,216.8 192.6,216.1 192.2,215.3 192.0,214.5 191.7,213.6 191.6,212.8 191.5,211.9 191.5,211.1 191.6,210.2 191.7,209.4 192.0,208.5 192.2,207.7 192.6,206.9 193.0,206.2 193.5,205.5 194.1,204.8 194.7,204.2 195.3,203.6 196.0,203.1 196.8,202.7 197.5,202.3 198.3,202.0 199.2,201.8 200.0,201.6 200.9,201.5 201.7,201.5 202.6,201.6 203.4,201.7 204.3,201.9 205.1,202.2 205.9,202.5 206.6,202.9 207.3,203.4 208.0,203.9 208.6,204.5 209.2,205.1 209.7,205.8 210.2,206.6 210.6,207.3 210.9,208.1 211.2,208.9 211.4,209.8 211.5,210.6" fill="#0000FF" stroke="#0000FF" stroke-width="1.0" stroke-linecap="butt" stroke-linejoin="round" />
		</g>
		<g id="plug_sn" class="port">
			<polygon points="91.5,211.5 91.5,212.4 91.4,213.2 91.2,214.1 90.9,214.9 90.6,215.7 90.2,216.4 89.7,217.2 89.2,217.9 88.6,218.5 88.0,219.1 87.3,219.6 86.6,220.1 85.9,220.5 85.1,220.8 84.3,221.1 83.4,221.3 82.6,221.4 81.7,221.5 80.9,221.5 80.0,221.4 79.2,221.2 78.3,221.0 77.5,220.7 76.8,220.3 76.0,219.9 75.3,219.4 74.7,218.8 74.1,218.2 73.5,217.5 73.0,216.8 72.6,216.1 72.2,215.3 72.0,214.5 71.7,213.6 71.6,212.8 71.5,211.9 71.5,211.1 71.6,210.2 71.7,209.4 72.0,208.5 72.2,207.7 72.6,206.9 73.0,206.2 73.5,205.5 74.1,204.8 74.7,204.2 75.3,203.6 76.0,203.1 76.8,202.7 77.5,202.3 78.3,202.0 79.2,201.8 80.0,201.6 80.9,201.5 81.7,201.5 82.6,201.6 83.4,201.7 84.3,201.9 85.1,202.2 85.9,202.5 86.6,202.9 87.3,203.4 88.0,203.9 88.6,204.5 89.2,205.1 89.7,205.8 90.2,206.6 90.6,207.3 90.9,208.1 91.2,208.9 91.4,209.8 91.5,210.6" fill="#FFFFFF" stroke="#0000FF" stroke-width="1.0" stroke-linecap="butt" stroke-linejoin="round" />
		</g>
		<g id="control" class="port">
			<polygon points="1.5,91.5 41.5,111.5 1.5,131.5" fill="#FF00FF" stroke="#FF00FF" stroke-width="1.0" stroke-linecap="butt" stroke-linejoin="round" />
		</g>
	</g>
</svg>
