<svg width="213" height="203" xmlns="http://www.w3.org/2000/svg" xmlns:xlink="http://www.w3.org/1999/xlink">
	<g id="ports" class="port">
		<polygon points="211.5,101.5 211.5,102.4 211.4,103.2 211.2,104.1 210.9,104.9 210.6,105.7 210.2,106.4 209.7,107.2 209.2,107.9 208.6,108.5 208.0,109.1 207.3,109.6 206.6,110.1 205.9,110.5 205.1,110.8 204.3,111.1 203.4,111.3 202.6,111.4 201.7,111.5 200.9,111.5 200.0,111.4 199.2,111.2 198.3,111.0 197.5,110.7 196.8,110.3 196.0,109.9 195.3,109.4 194.7,108.8 194.1,108.2 193.5,107.5 193.0,106.8 192.6,106.1 192.2,105.3 192.0,104.5 191.7,103.6 191.6,102.8 191.5,101.9 191.5,101.1 191.6,100.2 191.7,99.4 192.0,98.5 192.2,97.7 192.6,96.9 193.0,96.2 193.5,95.5 194.1,94.8 194.7,94.2 195.3,93.6 196.0,93.1 196.8,92.7 197.5,92.3 198.3,92.0 199.2,91.8 200.0,91.6 200.9,91.5 201.7,91.5 202.6,91.6 203.4,91.7 204.3,91.9 205.1,92.2 205.9,92.5 206.6,92.9 207.3,93.4 208.0,93.9 208.6,94.5 209.2,95.1 209.7,95.8 210.2,96.6 210.6,97.3 210.9,98.1 211.2,98.9 211.4,99.8 211.5,100.6" fill="#007FFF" stroke="#007FFF" stroke-width="1.0" stroke-linecap="butt" stroke-linejoin="round" />
		<polygon points="211.5,101.5 211.5,102.4 211.4,103.2 211.2,104.1 210.9,104.9 210.6,105.7 210.2,106.4 209.7,107.2 209.2,107.9 208.6,108.5 208.0,109.1 207.3,109.6 206.6,110.1 205.9,110.5 205.1,110.8 204.3,111.1 203.4,111.3 202.6,111.4 201.7,111.5 200.9,111.5 200.0,111.4 199.2,111.2 198.3,111.0 197.5,110.7 196.8,110.3 196.0,109.9 195.3,109.4 194.7,108.8 194.1,108.2 193.5,107.5 193.0,106.8 192.6,106.1 192.2,105.3 192.0,104.5 191.7,103.6 191.6,102.8 191.5,101.9 191.5,101.1 191.6,100.2 191.7,99.4 192.0,98.5 192.2,97.7 192.6,96.9 193.0,96.2 193.5,95.5 194.1,94.8 194.7,94.2 195.3,93.6 196.0,93.1 196.8,92.7 197.5,92.3 198.3,92.0 199.2,91.8 200.0,91.6 200.9,91.5 201.7,91.5 202.6,91.6 203.4,91.7 204.3,91.9 205.1,92.2 205.9,92.5 206.6,92.9 207.3,93.4 208.0,93.9 208.6,94.5 209.2,95.1 209.7,95.8 210.2,96.6 210.6,97.3 210.9,98.1 211.2,98.9 211.4,99.8 211.5,100.6" fill="#007FFF" stroke="#000000" stroke-width="1.0" stroke-linecap="butt" stroke-linejoin="round" />
		<polygon points="209.5,101.5 209.5,102.2 209.4,102.9 209.2,103.5 209.0,104.2 208.8,104.8 208.5,105.5 208.1,106.0 207.7,106.6 207.2,107.1 206.7,107.6 206.2,108.0 205.6,108.4 205.0,108.7 204.4,109.0 203.7,109.2 203.0,109.4 202.4,109.5 201.7,109.5 201.0,109.5 200.3,109.4 199.6,109.3 199.0,109.1 198.3,108.8 197.7,108.5 197.1,108.2 196.6,107.8 196.0,107.3 195.5,106.8 195.1,106.3 194.7,105.7 194.4,105.1 194.1,104.5 193.9,103.9 193.7,103.2 193.6,102.5 193.5,101.8 193.5,101.2 193.6,100.5 193.7,99.8 193.9,99.1 194.1,98.5 194.4,97.9 194.7,97.3 195.1,96.7 195.5,96.2 196.0,95.7 196.6,95.2 197.1,94.8 197.7,94.5 198.3,94.2 199.0,93.9 199.6,93.7 200.3,93.6 201.0,93.5 201.7,93.5 202.4,93.5 203.0,93.6 203.7,93.8 204.4,94.0 205.0,94.3 205.6,94.6 206.2,95.0 206.7,95.4 207.2,95.9 207.7,96.4 208.1,97.0 208.5,97.5 208.8,98.2 209.0,98.8 209.2,99.5 209.4,100.1 209.5,100.8" fill="#FFFFFF" stroke="#007FFF" stroke-width="1.0" stroke-linecap="butt" stroke-linejoin="round" />
	</g>
</svg>
