<svg width="213" height="203" xmlns="http://www.w3.org/2000/svg" xmlns:xlink="http://www.w3.org/1999/xlink">
	<g id="Modelica.Mechanics.MultiBody.Joints.SphericalSpherical" class="component">
		<defs>
			<radialGradient id="sph2">
				<stop offset="0%" stop-color="#C0C0C0" />
				<stop offset="10%" stop-color="#BEBEBE" />
				<stop offset="20%" stop-color="#B8B8B8" />
				<stop offset="30%" stop-color="#AFAFAF" />
				<stop offset="40%" stop-color="#A1A1A1" />
				<stop offset="50%" stop-color="#909090" />
				<stop offset="60%" stop-color="#7B7B7B" />
				<stop offset="70%" stop-color="#626262" />
				<stop offset="80%" stop-color="#454545" />
				<stop offset="90%" stop-color="#242424" />
				<stop offset="100%" stop-color="#000000" />
			</radialGradient>
		</defs>
		<polygon points="91.3,101.5 91.2,98.1 90.7,94.6 90.0,91.3 89.0,88.0 87.7,84.8 86.1,81.7 84.3,78.8 82.2,76.1 79.9,73.5 77.4,71.2 74.7,69.0 71.8,67.1 68.8,65.5 65.6,64.1 62.3,63.1 59.0,62.2 55.6,61.7 52.2,61.5 48.7,61.6 45.3,62.0 41.9,62.6 38.6,63.6 35.4,64.8 32.3,66.3 29.3,68.1 26.6,70.1 23.9,72.3 21.5,74.8 19.3,77.4 17.4,80.3 15.7,83.3 14.3,86.4 13.1,89.6 12.2,93.0 11.6,96.4 11.3,99.8 11.3,103.2 11.6,106.6 12.2,110.0 13.1,113.4 14.3,116.6 15.7,119.7 17.4,122.7 19.3,125.6 21.5,128.2 23.9,130.7 26.6,132.9 29.3,134.9 32.3,136.7 35.4,138.2 38.6,139.4 41.9,140.4 45.3,141.0 48.7,141.4 52.2,141.5 55.6,141.3 59.0,140.8 62.3,139.9 65.6,138.9 68.8,137.5 71.8,135.9 74.7,134.0 77.4,131.8 79.9,129.5 82.2,126.9 84.3,124.2 86.1,121.3 87.7,118.2 89.0,115.0 90.0,111.7 90.7,108.4 91.2,104.9" fill="url(#sph2)" stroke="#000000" stroke-width="1.0" stroke-linecap="butt" stroke-linejoin="round" />
		<polygon points="82.3,101.5 82.2,98.9 81.9,96.4 81.3,93.8 80.5,91.4 79.6,89.0 78.4,86.7 77.0,84.5 75.5,82.4 73.7,80.5 71.9,78.8 69.8,77.2 67.7,75.7 65.4,74.5 63.0,73.5 60.6,72.7 58.1,72.1 55.5,71.7 52.9,71.5 50.4,71.6 47.8,71.8 45.3,72.3 42.8,73.0 40.4,74.0 38.1,75.1 35.8,76.4 33.7,77.9 31.8,79.6 30.0,81.5 28.3,83.5 26.9,85.6 25.6,87.8 24.5,90.2 23.7,92.6 23.0,95.1 22.5,97.6 22.3,100.2 22.3,102.8 22.5,105.4 23.0,107.9 23.7,110.4 24.5,112.8 25.6,115.2 26.9,117.4 28.3,119.5 30.0,121.5 31.8,123.4 33.7,125.1 35.8,126.6 38.1,127.9 40.4,129.0 42.8,130.0 45.3,130.7 47.8,131.2 50.4,131.4 52.9,131.5 55.5,131.3 58.1,130.9 60.6,130.3 63.0,129.5 65.4,128.5 67.7,127.3 69.8,125.8 71.9,124.2 73.7,122.5 75.5,120.6 77.0,118.5 78.4,116.3 79.6,114.0 80.5,111.6 81.3,109.2 81.9,106.6 82.2,104.1" fill="#FFFFFF" stroke="#000000" stroke-width="1.0" stroke-linecap="butt" stroke-linejoin="round" />
		<defs>
			<radialGradient id="sph4">
				<stop offset="0%" stop-color="#C0C0C0" />
				<stop offset="10%" stop-color="#BEBEBE" />
				<stop offset="20%" stop-color="#B8B8B8" />
				<stop offset="30%" stop-color="#AFAFAF" />
				<stop offset="40%" stop-color="#A1A1A1" />
				<stop offset="50%" stop-color="#909090" />
				<stop offset="60%" stop-color="#7B7B7B" />
				<stop offset="70%" stop-color="#626262" />
				<stop offset="80%" stop-color="#454545" />
				<stop offset="90%" stop-color="#242424" />
				<stop offset="100%" stop-color="#000000" />
			</radialGradient>
		</defs>
		<polygon points="201.3,101.5 201.2,98.1 200.7,94.6 200.0,91.3 199.0,88.0 197.7,84.8 196.1,81.7 194.3,78.8 192.2,76.1 189.9,73.5 187.4,71.2 184.7,69.0 181.8,67.1 178.8,65.5 175.6,64.1 172.3,63.1 169.0,62.2 165.6,61.7 162.2,61.5 158.7,61.6 155.3,62.0 151.9,62.6 148.6,63.6 145.4,64.8 142.3,66.3 139.3,68.1 136.6,70.1 133.9,72.3 131.5,74.8 129.3,77.4 127.4,80.3 125.7,83.3 124.3,86.4 123.1,89.6 122.2,93.0 121.6,96.4 121.3,99.8 121.3,103.2 121.6,106.6 122.2,110.0 123.1,113.4 124.3,116.6 125.7,119.7 127.4,122.7 129.3,125.6 131.5,128.2 133.9,130.7 136.6,132.9 139.3,134.9 142.3,136.7 145.4,138.2 148.6,139.4 151.9,140.4 155.3,141.0 158.7,141.4 162.2,141.5 165.6,141.3 169.0,140.8 172.3,139.9 175.6,138.9 178.8,137.5 181.8,135.9 184.7,134.0 187.4,131.8 189.9,129.5 192.2,126.9 194.3,124.2 196.1,121.3 197.7,118.2 199.0,115.0 200.0,111.7 200.7,108.4 201.2,104.9" fill="url(#sph4)" stroke="#000000" stroke-width="1.0" stroke-linecap="butt" stroke-linejoin="round" />
		<polygon points="191.3,101.0 191.2,98.5 190.9,95.9 190.3,93.5 189.5,91.0 188.6,88.7 187.4,86.4 186.0,84.3 184.5,82.3 182.7,80.4 180.9,78.6 178.8,77.1 176.7,75.7 174.4,74.5 172.0,73.5 169.6,72.6 167.1,72.1 164.5,71.7 161.9,71.5 159.4,71.6 156.8,71.8 154.3,72.3 151.8,73.0 149.4,73.9 147.1,75.0 144.8,76.3 142.7,77.8 140.8,79.5 139.0,81.3 137.3,83.3 135.9,85.3 134.6,87.6 133.5,89.9 132.7,92.2 132.0,94.7 131.5,97.2 131.3,99.7 131.3,102.3 131.5,104.8 132.0,107.3 132.7,109.8 133.5,112.1 134.6,114.4 135.9,116.7 137.3,118.7 139.0,120.7 140.8,122.5 142.7,124.2 144.8,125.7 147.1,127.0 149.4,128.1 151.8,129.0 154.3,129.7 156.8,130.2 159.4,130.4 161.9,130.5 164.5,130.3 167.1,129.9 169.6,129.4 172.0,128.5 174.4,127.5 176.7,126.3 178.8,124.9 180.9,123.4 182.7,121.6 184.5,119.7 186.0,117.7 187.4,115.6 188.6,113.3 189.5,111.0 190.3,108.5 190.9,106.1 191.2,103.5" fill="#FFFFFF" stroke="#808080" stroke-width="1.0" stroke-linecap="butt" stroke-linejoin="round" />
		<polygon points="66.3,142.5 147.3,142.5 147.3,61.5 66.3,61.5" fill="#FFFFFF" stroke="#FFFFFF" stroke-width="1.0" stroke-linecap="butt" stroke-linejoin="round" />
		<defs>
			<linearGradient id="cyl7" x1="0" y1="0" x2="0" y2="1">
				<stop offset="0%" stop-color="#000000" />
				<stop offset="5%" stop-color="#242424" />
				<stop offset="10%" stop-color="#454545" />
				<stop offset="15%" stop-color="#626262" />
				<stop offset="20%" stop-color="#7B7B7B" />
				<stop offset="25%" stop-color="#909090" />
				<stop offset="30%" stop-color="#A1A1A1" />
				<stop offset="35%" stop-color="#AFAFAF" />
				<stop offset="40%" stop-color="#B8B8B8" />
				<stop offset="45%" stop-color="#BEBEBE" />
				<stop offset="50%" stop-color="#C0C0C0" />
				<stop offset="55%" stop-color="#BEBEBE" />
				<stop offset="60%" stop-color="#B8B8B8" />
				<stop offset="65%" stop-color="#AFAFAF" />
				<stop offset="70%" stop-color="#A1A1A1" />
				<stop offset="75%" stop-color="#909090" />
				<stop offset="80%" stop-color="#7B7B7B" />
				<stop offset="85%" stop-color="#626262" />
				<stop offset="90%" stop-color="#454545" />
				<stop offset="95%" stop-color="#242424" />
				<stop offset="100%" stop-color="#000000" />
			</linearGradient>
		</defs>
		<polygon points="55.3,105.5 154.3,105.5 154.3,95.5 55.3,95.5" fill="url(#cyl7)" stroke="#000000" stroke-width="1.0" stroke-linecap="butt" stroke-linejoin="round" />
		<defs>
			<radialGradient id="sph8">
				<stop offset="0%" stop-color="#C0C0C0" />
				<stop offset="10%" stop-color="#BEBEBE" />
				<stop offset="20%" stop-color="#B8B8B8" />
				<stop offset="30%" stop-color="#AFAFAF" />
				<stop offset="40%" stop-color="#A1A1A1" />
				<stop offset="50%" stop-color="#909090" />
				<stop offset="60%" stop-color="#7B7B7B" />
				<stop offset="70%" stop-color="#626262" />
				<stop offset="80%" stop-color="#454545" />
				<stop offset="90%" stop-color="#242424" />
				<stop offset="100%" stop-color="#000000" />
			</radialGradient>
		</defs>
		<polygon points="67.3,100.5 67.2,99.3 67.1,98.1 66.8,96.9 66.4,95.8 66.0,94.7 65.4,93.6 64.7,92.6 64.0,91.6 63.2,90.7 62.3,89.9 61.3,89.1 60.2,88.5 59.1,87.9 58.0,87.4 56.8,87.0 55.6,86.8 54.4,86.6 53.1,86.5 51.9,86.5 50.6,86.7 49.4,86.9 48.2,87.2 47.0,87.7 45.9,88.2 44.8,88.8 43.8,89.5 42.9,90.3 42.0,91.1 41.2,92.1 40.5,93.1 39.9,94.1 39.4,95.2 39.0,96.3 38.6,97.5 38.4,98.7 38.3,99.9 38.3,101.1 38.4,102.3 38.6,103.5 39.0,104.7 39.4,105.8 39.9,106.9 40.5,107.9 41.2,108.9 42.0,109.9 42.9,110.7 43.8,111.5 44.8,112.2 45.9,112.8 47.0,113.3 48.2,113.8 49.4,114.1 50.6,114.3 51.9,114.5 53.1,114.5 54.4,114.4 55.6,114.2 56.8,114.0 58.0,113.6 59.1,113.1 60.2,112.5 61.3,111.9 62.3,111.1 63.2,110.3 64.0,109.4 64.7,108.4 65.4,107.4 66.0,106.3 66.4,105.2 66.8,104.1 67.1,102.9 67.2,101.7" fill="url(#sph8)" stroke="#000000" stroke-width="1.0" stroke-linecap="butt" stroke-linejoin="round" />
		<defs>
			<radialGradient id="sph9">
				<stop offset="0%" stop-color="#C0C0C0" />
				<stop offset="10%" stop-color="#BEBEBE" />
				<stop offset="20%" stop-color="#B8B8B8" />
				<stop offset="30%" stop-color="#AFAFAF" />
				<stop offset="40%" stop-color="#A1A1A1" />
				<stop offset="50%" stop-color="#909090" />
				<stop offset="60%" stop-color="#7B7B7B" />
				<stop offset="70%" stop-color="#626262" />
				<stop offset="80%" stop-color="#454545" />
				<stop offset="90%" stop-color="#242424" />
				<stop offset="100%" stop-color="#000000" />
			</radialGradient>
		</defs>
		<polygon points="174.3,101.5 174.2,100.3 174.1,99.1 173.8,97.9 173.4,96.8 173.0,95.7 172.4,94.6 171.7,93.6 171.0,92.6 170.2,91.7 169.3,90.9 168.3,90.1 167.2,89.5 166.1,88.9 165.0,88.4 163.8,88.0 162.6,87.8 161.4,87.6 160.1,87.5 158.9,87.5 157.6,87.7 156.4,87.9 155.2,88.2 154.0,88.7 152.9,89.2 151.8,89.8 150.8,90.5 149.9,91.3 149.0,92.1 148.2,93.1 147.5,94.1 146.9,95.1 146.4,96.2 146.0,97.3 145.6,98.5 145.4,99.7 145.3,100.9 145.3,102.1 145.4,103.3 145.6,104.5 146.0,105.7 146.4,106.8 146.9,107.9 147.5,108.9 148.2,109.9 149.0,110.9 149.9,111.7 150.8,112.5 151.8,113.2 152.9,113.8 154.0,114.3 155.2,114.8 156.4,115.1 157.6,115.3 158.9,115.5 160.1,115.5 161.4,115.4 162.6,115.2 163.8,115.0 165.0,114.6 166.1,114.1 167.2,113.5 168.3,112.9 169.3,112.1 170.2,111.3 171.0,110.4 171.7,109.4 172.4,108.4 173.0,107.3 173.4,106.2 173.8,105.1 174.1,103.9 174.2,102.7" fill="url(#sph9)" stroke="#000000" stroke-width="1.0" stroke-linecap="butt" stroke-linejoin="round" />
		<g id="frame_a" class="port">
			<polygon points="4.7,103.1 7.9,103.1 7.9,99.9 4.7,99.9" fill-opacity="0" stroke="#5F5F5F" stroke-width="1.0" stroke-linecap="butt" stroke-linejoin="round" />
			<polygon points="1.5,117.5 11.1,117.5 11.1,85.5 1.5,85.5" fill="#C0C0C0" stroke="#000000" stroke-width="1.0" stroke-linecap="butt" stroke-linejoin="round" />
		</g>
		<g id="frame_b" class="port">
			<polygon points="204.7,103.1 207.9,103.1 207.9,99.9 204.7,99.9" fill-opacity="0" stroke="#5F5F5F" stroke-width="1.0" stroke-linecap="butt" stroke-linejoin="round" />
			<polygon points="201.5,117.5 211.1,117.5 211.1,85.5 201.5,85.5" fill="#FFFFFF" stroke="#000000" stroke-width="1.0" stroke-linecap="butt" stroke-linejoin="round" />
		</g>
	</g>
</svg>
