<svg width="247" height="203" xmlns="http://www.w3.org/2000/svg" xmlns:xlink="http://www.w3.org/1999/xlink">
	<g id="Modelica.Blocks.Routing.Multiplex6" class="component">
		<polygon points="25.5,201.5 225.5,201.5 225.5,1.5 25.5,1.5" fill="#FFFFFF" stroke="#00007F" stroke-width="1.0" stroke-linecap="butt" stroke-linejoin="round" />
		<polyline points="133.5,101.5 227.5,101.5" fill-opacity="0" stroke="#00007F" stroke-width="1.0" stroke-linecap="butt" stroke-linejoin="round" />
		<polygon points="140.5,101.5 140.4,100.2 140.3,98.9 140.0,97.7 139.6,96.4 139.1,95.2 138.5,94.1 137.9,93.0 137.1,92.0 136.2,91.0 135.3,90.1 134.3,89.3 133.2,88.6 132.0,88.0 130.9,87.5 129.6,87.1 128.4,86.8 127.1,86.6 125.8,86.5 124.5,86.5 123.2,86.7 122.0,86.9 120.7,87.3 119.5,87.7 118.4,88.3 117.3,89.0 116.2,89.7 115.2,90.6 114.3,91.5 113.5,92.5 112.8,93.5 112.1,94.7 111.6,95.8 111.2,97.0 110.8,98.3 110.6,99.6 110.5,100.9 110.5,102.1 110.6,103.4 110.8,104.7 111.2,106.0 111.6,107.2 112.1,108.3 112.8,109.5 113.5,110.5 114.3,111.5 115.2,112.4 116.2,113.3 117.3,114.0 118.4,114.7 119.5,115.3 120.7,115.7 122.0,116.1 123.2,116.3 124.5,116.5 125.8,116.5 127.1,116.4 128.4,116.2 129.6,115.9 130.9,115.5 132.0,115.0 133.2,114.4 134.3,113.7 135.3,112.9 136.2,112.0 137.1,111.0 137.9,110.0 138.5,108.9 139.1,107.8 139.6,106.6 140.0,105.3 140.3,104.1 140.4,102.8" fill="#00007F" stroke="#00007F" stroke-width="1.0" stroke-linecap="butt" stroke-linejoin="round" />
		<polyline points="25.5,16.5 65.5,16.5 122.5,91.5" fill-opacity="0" stroke="#00007F" stroke-width="1.0" stroke-linecap="butt" stroke-linejoin="round" />
		<polyline points="25.5,50.5 65.5,50.5 118.5,95.5" fill-opacity="0" stroke="#00007F" stroke-width="1.0" stroke-linecap="butt" stroke-linejoin="round" />
		<polyline points="25.5,118.5 65.5,118.5 115.5,103.5" fill-opacity="0" stroke="#00007F" stroke-width="1.0" stroke-linecap="butt" stroke-linejoin="round" />
		<polyline points="25.5,84.5 65.5,84.5 115.5,99.5" fill-opacity="0" stroke="#00007F" stroke-width="1.0" stroke-linecap="butt" stroke-linejoin="round" />
		<polyline points="25.5,152.5 65.5,152.5 118.5,107.5" fill-opacity="0" stroke="#00007F" stroke-width="1.0" stroke-linecap="butt" stroke-linejoin="round" />
		<polyline points="25.5,186.5 65.5,186.5 122.5,111.5" fill-opacity="0" stroke="#00007F" stroke-width="1.0" stroke-linecap="butt" stroke-linejoin="round" />
		<g id="u1" class="port">
			<polygon points="1.5,4.5 25.5,16.5 1.5,28.5" fill="#00007F" stroke="#00007F" stroke-width="1.0" stroke-linecap="butt" stroke-linejoin="round" />
		</g>
		<g id="u2" class="port">
			<polygon points="1.5,38.5 25.5,50.5 1.5,62.5" fill="#00007F" stroke="#00007F" stroke-width="1.0" stroke-linecap="butt" stroke-linejoin="round" />
		</g>
		<g id="u3" class="port">
			<polygon points="1.5,72.5 25.5,84.5 1.5,96.5" fill="#00007F" stroke="#00007F" stroke-width="1.0" stroke-linecap="butt" stroke-linejoin="round" />
		</g>
		<g id="u4" class="port">
			<polygon points="1.5,106.5 25.5,118.5 1.5,130.5" fill="#00007F" stroke="#00007F" stroke-width="1.0" stroke-linecap="butt" stroke-linejoin="round" />
		</g>
		<g id="u5" class="port">
			<polygon points="1.5,140.5 25.5,152.5 1.5,164.5" fill="#00007F" stroke="#00007F" stroke-width="1.0" stroke-linecap="butt" stroke-linejoin="round" />
		</g>
		<g id="u6" class="port">
			<polygon points="1.5,174.5 25.5,186.5 1.5,198.5" fill="#00007F" stroke="#00007F" stroke-width="1.0" stroke-linecap="butt" stroke-linejoin="round" />
		</g>
		<g id="y" class="port">
			<polygon points="225.5,91.5 245.5,101.5 225.5,111.5" fill="#FFFFFF" stroke="#00007F" stroke-width="1.0" stroke-linecap="butt" stroke-linejoin="round" />
		</g>
	</g>
</svg>
