<svg width="203" height="203" xmlns="http://www.w3.org/2000/svg" xmlns:xlink="http://www.w3.org/1999/xlink">
	<g id="Modelica.Math.Random.Generators.Xorshift1024star" class="component">
		<defs>
			<linearGradient id="cyl2" x1="0" y1="0" x2="0" y2="1">
				<stop offset="0%" stop-color="#C8C8C8" />
				<stop offset="5%" stop-color="#D1D1D1" />
				<stop offset="10%" stop-color="#D9D9D9" />
				<stop offset="15%" stop-color="#E0E0E0" />
				<stop offset="20%" stop-color="#E7E7E7" />
				<stop offset="25%" stop-color="#ECECEC" />
				<stop offset="30%" stop-color="#F0F0F0" />
				<stop offset="35%" stop-color="#F4F4F4" />
				<stop offset="40%" stop-color="#F6F6F6" />
				<stop offset="45%" stop-color="#F8F8F8" />
				<stop offset="50%" stop-color="#F8F8F8" />
				<stop offset="55%" stop-color="#F8F8F8" />
				<stop offset="60%" stop-color="#F6F6F6" />
				<stop offset="65%" stop-color="#F4F4F4" />
				<stop offset="70%" stop-color="#F0F0F0" />
				<stop offset="75%" stop-color="#ECECEC" />
				<stop offset="80%" stop-color="#E7E7E7" />
				<stop offset="85%" stop-color="#E0E0E0" />
				<stop offset="90%" stop-color="#D9D9D9" />
				<stop offset="95%" stop-color="#D1D1D1" />
				<stop offset="100%" stop-color="#C8C8C8" />
			</linearGradient>
		</defs>
		<polygon points="8.8,194.2 11.0,196.1 13.3,197.8 15.7,199.1 18.2,200.2 20.8,200.9 23.6,201.4 26.5,201.5 26.5,201.5 50.4,201.5 101.5,201.5 101.5,201.5 152.6,201.5 176.5,201.5 176.5,201.5 179.4,201.4 182.2,200.9 184.8,200.2 187.3,199.1 189.7,197.8 192.0,196.1 194.2,194.2 194.2,194.2 196.1,192.0 197.8,189.7 199.1,187.3 200.2,184.8 200.9,182.2 201.4,179.4 201.5,176.5 201.5,176.5 201.5,152.6 201.5,101.5 201.5,101.5 201.5,50.4 201.5,26.5 201.5,26.5 201.4,23.6 200.9,20.8 200.2,18.2 199.1,15.7 197.8,13.3 196.1,11.0 194.2,8.8 194.2,8.8 192.0,6.9 189.7,5.2 187.3,3.9 184.8,2.8 182.2,2.1 179.4,1.6 176.5,1.5 176.5,1.5 152.6,1.5 101.5,1.5 101.5,1.5 50.4,1.5 26.5,1.5 26.5,1.5 23.6,1.6 20.8,2.1 18.2,2.8 15.7,3.9 13.3,5.2 11.0,6.9 8.8,8.8 8.8,8.8 6.9,11.0 5.2,13.3 3.9,15.7 2.8,18.2 2.1,20.8 1.6,23.6 1.5,26.5 1.5,26.5 1.5,50.4 1.5,101.5 1.5,101.5 1.5,152.6 1.5,176.5 1.5,176.5 1.6,179.4 2.1,182.2 2.8,184.8 3.9,187.3 5.2,189.7 6.9,192.0" fill="url(#cyl2)" stroke="#C8C8C8" stroke-width="1.0" stroke-linecap="butt" stroke-linejoin="round" />
		<polygon points="8.8,194.2 11.0,196.1 13.3,197.8 15.7,199.1 18.2,200.2 20.8,200.9 23.6,201.4 26.5,201.5 26.5,201.5 50.4,201.5 101.5,201.5 101.5,201.5 152.6,201.5 176.5,201.5 176.5,201.5 179.4,201.4 182.2,200.9 184.8,200.2 187.3,199.1 189.7,197.8 192.0,196.1 194.2,194.2 194.2,194.2 196.1,192.0 197.8,189.7 199.1,187.3 200.2,184.8 200.9,182.2 201.4,179.4 201.5,176.5 201.5,176.5 201.5,152.6 201.5,101.5 201.5,101.5 201.5,50.4 201.5,26.5 201.5,26.5 201.4,23.6 200.9,20.8 200.2,18.2 199.1,15.7 197.8,13.3 196.1,11.0 194.2,8.8 194.2,8.8 192.0,6.9 189.7,5.2 187.3,3.9 184.8,2.8 182.2,2.1 179.4,1.6 176.5,1.5 176.5,1.5 152.6,1.5 101.5,1.5 101.5,1.5 50.4,1.5 26.5,1.5 26.5,1.5 23.6,1.6 20.8,2.1 18.2,2.8 15.7,3.9 13.3,5.2 11.0,6.9 8.8,8.8 8.8,8.8 6.9,11.0 5.2,13.3 3.9,15.7 2.8,18.2 2.1,20.8 1.6,23.6 1.5,26.5 1.5,26.5 1.5,50.4 1.5,101.5 1.5,101.5 1.5,152.6 1.5,176.5 1.5,176.5 1.6,179.4 2.1,182.2 2.8,184.8 3.9,187.3 5.2,189.7 6.9,192.0" fill-opacity="0" stroke="#808080" stroke-width="1.0" stroke-linecap="butt" stroke-linejoin="round" />
		<polygon points="81.5,48.5 81.4,46.4 81.1,44.2 80.7,42.1 80.0,40.1 79.2,38.1 78.2,36.2 77.1,34.3 75.8,32.6 74.4,31.0 72.8,29.5 71.1,28.2 69.3,27.0 67.4,26.0 65.4,25.2 63.4,24.5 61.3,24.0 59.2,23.6 57.0,23.5 54.9,23.6 52.7,23.8 50.6,24.2 48.6,24.8 46.6,25.6 44.6,26.5 42.8,27.6 41.0,28.9 39.4,30.3 37.9,31.8 36.5,33.5 35.3,35.2 34.2,37.1 33.4,39.1 32.6,41.1 32.1,43.2 31.7,45.3 31.5,47.4 31.5,49.6 31.7,51.7 32.1,53.8 32.6,55.9 33.4,57.9 34.2,59.9 35.3,61.8 36.5,63.5 37.9,65.2 39.4,66.7 41.0,68.1 42.8,69.4 44.6,70.5 46.6,71.4 48.6,72.2 50.6,72.8 52.7,73.2 54.9,73.4 57.0,73.5 59.2,73.4 61.3,73.0 63.4,72.5 65.4,71.8 67.4,71.0 69.3,70.0 71.1,68.8 72.8,67.5 74.4,66.0 75.8,64.4 77.1,62.7 78.2,60.8 79.2,58.9 80.0,56.9 80.7,54.9 81.1,52.8 81.4,50.6" fill="#D7D7D7" stroke="#000000" stroke-width="1.0" stroke-linecap="butt" stroke-linejoin="round" />
		<polygon points="171.5,68.5 171.4,66.4 171.1,64.2 170.7,62.1 170.0,60.1 169.2,58.1 168.2,56.2 167.1,54.3 165.8,52.6 164.4,51.0 162.8,49.5 161.1,48.2 159.3,47.0 157.4,46.0 155.4,45.2 153.4,44.5 151.3,44.0 149.2,43.6 147.0,43.5 144.9,43.6 142.7,43.8 140.6,44.2 138.6,44.8 136.6,45.6 134.6,46.5 132.8,47.6 131.0,48.9 129.4,50.3 127.9,51.8 126.5,53.5 125.3,55.2 124.2,57.1 123.4,59.1 122.6,61.1 122.1,63.2 121.7,65.3 121.5,67.4 121.5,69.6 121.7,71.7 122.1,73.8 122.6,75.9 123.4,77.9 124.2,79.9 125.3,81.8 126.5,83.5 127.9,85.2 129.4,86.7 131.0,88.1 132.8,89.4 134.6,90.5 136.6,91.4 138.6,92.2 140.6,92.8 142.7,93.2 144.9,93.4 147.0,93.5 149.2,93.4 151.3,93.0 153.4,92.5 155.4,91.8 157.4,91.0 159.3,90.0 161.1,88.8 162.8,87.5 164.4,86.0 165.8,84.4 167.1,82.7 168.2,80.8 169.2,78.9 170.0,76.9 170.7,74.9 171.1,72.8 171.4,70.6" fill="#D7D7D7" stroke="#000000" stroke-width="1.0" stroke-linecap="butt" stroke-linejoin="round" />
		<polygon points="87.5,120.5 87.4,118.4 87.1,116.2 86.7,114.1 86.0,112.1 85.2,110.1 84.2,108.2 83.1,106.3 81.8,104.6 80.4,103.0 78.8,101.5 77.1,100.2 75.3,99.0 73.4,98.0 71.4,97.2 69.4,96.5 67.3,96.0 65.2,95.6 63.0,95.5 60.9,95.6 58.7,95.8 56.6,96.2 54.6,96.8 52.6,97.6 50.6,98.5 48.8,99.6 47.0,100.9 45.4,102.3 43.9,103.8 42.5,105.5 41.3,107.2 40.2,109.1 39.4,111.1 38.6,113.1 38.1,115.2 37.7,117.3 37.5,119.4 37.5,121.6 37.7,123.7 38.1,125.8 38.6,127.9 39.4,129.9 40.2,131.9 41.3,133.8 42.5,135.5 43.9,137.2 45.4,138.7 47.0,140.1 48.8,141.4 50.6,142.5 52.6,143.4 54.6,144.2 56.6,144.8 58.7,145.2 60.9,145.4 63.0,145.5 65.2,145.4 67.3,145.0 69.4,144.5 71.4,143.8 73.4,143.0 75.3,142.0 77.1,140.8 78.8,139.5 80.4,138.0 81.8,136.4 83.1,134.7 84.2,132.8 85.2,130.9 86.0,128.9 86.7,126.9 87.1,124.8 87.4,122.6" fill="#D7D7D7" stroke="#000000" stroke-width="1.0" stroke-linecap="butt" stroke-linejoin="round" />
		<polygon points="167.5,146.5 167.4,144.4 167.1,142.2 166.7,140.1 166.0,138.1 165.2,136.1 164.2,134.2 163.1,132.3 161.8,130.6 160.4,129.0 158.8,127.5 157.1,126.2 155.3,125.0 153.4,124.0 151.4,123.2 149.4,122.5 147.3,122.0 145.2,121.6 143.0,121.5 140.9,121.6 138.7,121.8 136.6,122.2 134.6,122.8 132.6,123.6 130.6,124.5 128.8,125.6 127.0,126.9 125.4,128.3 123.9,129.8 122.5,131.5 121.3,133.2 120.2,135.1 119.4,137.1 118.6,139.1 118.1,141.2 117.7,143.3 117.5,145.4 117.5,147.6 117.7,149.7 118.1,151.8 118.6,153.9 119.4,155.9 120.2,157.9 121.3,159.8 122.5,161.5 123.9,163.2 125.4,164.7 127.0,166.1 128.8,167.4 130.6,168.5 132.6,169.4 134.6,170.2 136.6,170.8 138.7,171.2 140.9,171.4 143.0,171.5 145.2,171.4 147.3,171.0 149.4,170.5 151.4,169.8 153.4,169.0 155.3,168.0 157.1,166.8 158.8,165.5 160.4,164.0 161.8,162.4 163.1,160.7 164.2,158.8 165.2,156.9 166.0,154.9 166.7,152.9 167.1,150.8 167.4,148.6" fill="#D7D7D7" stroke="#000000" stroke-width="1.0" stroke-linecap="butt" stroke-linejoin="round" />
	</g>
</svg>
