<svg width="257" height="233" xmlns="http://www.w3.org/2000/svg" xmlns:xlink="http://www.w3.org/1999/xlink">
	<g id="Modelica.Electrical.Machines.BasicMachines.SynchronousInductionMachines.SM_ReluctanceRotor" class="component">
		<defs>
			<linearGradient id="cyl2" x1="0" y1="0" x2="0" y2="1">
				<stop offset="0%" stop-color="#000000" />
				<stop offset="5%" stop-color="#001830" />
				<stop offset="10%" stop-color="#002E5C" />
				<stop offset="15%" stop-color="#004182" />
				<stop offset="20%" stop-color="#0052A3" />
				<stop offset="25%" stop-color="#0060BF" />
				<stop offset="30%" stop-color="#006CD6" />
				<stop offset="35%" stop-color="#0074E8" />
				<stop offset="40%" stop-color="#007BF5" />
				<stop offset="45%" stop-color="#007FFC" />
				<stop offset="50%" stop-color="#0080FF" />
				<stop offset="55%" stop-color="#007FFC" />
				<stop offset="60%" stop-color="#007BF5" />
				<stop offset="65%" stop-color="#0074E8" />
				<stop offset="70%" stop-color="#006CD6" />
				<stop offset="75%" stop-color="#0060BF" />
				<stop offset="80%" stop-color="#0052A3" />
				<stop offset="85%" stop-color="#004182" />
				<stop offset="90%" stop-color="#002E5C" />
				<stop offset="95%" stop-color="#001830" />
				<stop offset="100%" stop-color="#000000" />
			</linearGradient>
		</defs>
		<polygon points="95.5,171.5 215.5,171.5 215.5,51.5 95.5,51.5" fill="url(#cyl2)" stroke="#000000" stroke-width="1.0" stroke-linecap="butt" stroke-linejoin="round" />
		<defs>
			<linearGradient id="cyl3" x1="0" y1="0" x2="0" y2="1">
				<stop offset="0%" stop-color="#000000" />
				<stop offset="5%" stop-color="#181818" />
				<stop offset="10%" stop-color="#2E2E2E" />
				<stop offset="15%" stop-color="#414141" />
				<stop offset="20%" stop-color="#525252" />
				<stop offset="25%" stop-color="#606060" />
				<stop offset="30%" stop-color="#6C6C6C" />
				<stop offset="35%" stop-color="#747474" />
				<stop offset="40%" stop-color="#7B7B7B" />
				<stop offset="45%" stop-color="#7F7F7F" />
				<stop offset="50%" stop-color="#808080" />
				<stop offset="55%" stop-color="#7F7F7F" />
				<stop offset="60%" stop-color="#7B7B7B" />
				<stop offset="65%" stop-color="#747474" />
				<stop offset="70%" stop-color="#6C6C6C" />
				<stop offset="75%" stop-color="#606060" />
				<stop offset="80%" stop-color="#525252" />
				<stop offset="85%" stop-color="#414141" />
				<stop offset="90%" stop-color="#2E2E2E" />
				<stop offset="95%" stop-color="#181818" />
				<stop offset="100%" stop-color="#000000" />
			</linearGradient>
		</defs>
		<polygon points="75.5,171.5 95.5,171.5 95.5,51.5 75.5,51.5" fill="url(#cyl3)" stroke="#000000" stroke-width="1.0" stroke-linecap="butt" stroke-linejoin="round" />
		<defs>
			<linearGradient id="cyl4" x1="0" y1="0" x2="0" y2="1">
				<stop offset="0%" stop-color="#000000" />
				<stop offset="5%" stop-color="#121212" />
				<stop offset="10%" stop-color="#222222" />
				<stop offset="15%" stop-color="#303030" />
				<stop offset="20%" stop-color="#3D3D3D" />
				<stop offset="25%" stop-color="#474747" />
				<stop offset="30%" stop-color="#505050" />
				<stop offset="35%" stop-color="#565656" />
				<stop offset="40%" stop-color="#5B5B5B" />
				<stop offset="45%" stop-color="#5E5E5E" />
				<stop offset="50%" stop-color="#5F5F5F" />
				<stop offset="55%" stop-color="#5E5E5E" />
				<stop offset="60%" stop-color="#5B5B5B" />
				<stop offset="65%" stop-color="#565656" />
				<stop offset="70%" stop-color="#505050" />
				<stop offset="75%" stop-color="#474747" />
				<stop offset="80%" stop-color="#3D3D3D" />
				<stop offset="85%" stop-color="#303030" />
				<stop offset="90%" stop-color="#222222" />
				<stop offset="95%" stop-color="#121212" />
				<stop offset="100%" stop-color="#000000" />
			</linearGradient>
		</defs>
		<polygon points="215.5,121.5 235.5,121.5 235.5,101.5 215.5,101.5" fill="url(#cyl4)" stroke="#000000" stroke-width="1.0" stroke-linecap="butt" stroke-linejoin="round" />
		<polygon points="95.5,61.5 175.5,61.5 175.5,41.5 95.5,41.5" fill="#5F5F5F" stroke="#5F5F5F" stroke-width="1.0" stroke-linecap="butt" stroke-linejoin="round" />
		<polygon points="85.5,201.5 95.5,201.5 125.5,131.5 175.5,131.5 205.5,201.5 215.5,201.5 215.5,211.5 85.5,211.5" fill="#000000" stroke="#000000" stroke-width="1.0" stroke-linecap="butt" stroke-linejoin="round" />
		<polygon points="215.5,231.5 255.5,231.5 255.5,191.5 215.5,191.5" fill="#C0C0C0" stroke="#C0C0C0" stroke-width="1.0" stroke-linecap="butt" stroke-linejoin="round" />
		<polyline points="215.5,211.5 255.5,211.5" fill-opacity="0" stroke="#000000" stroke-width="1.0" stroke-linecap="butt" stroke-linejoin="round" />
		<polyline points="225.5,211.5 215.5,231.5" fill-opacity="0" stroke="#000000" stroke-width="1.0" stroke-linecap="butt" stroke-linejoin="round" />
		<polyline points="235.5,211.5 225.5,231.5" fill-opacity="0" stroke="#000000" stroke-width="1.0" stroke-linecap="butt" stroke-linejoin="round" />
		<polyline points="245.5,211.5 235.5,231.5" fill-opacity="0" stroke="#000000" stroke-width="1.0" stroke-linecap="butt" stroke-linejoin="round" />
		<polyline points="255.5,211.5 245.5,231.5" fill-opacity="0" stroke="#000000" stroke-width="1.0" stroke-linecap="butt" stroke-linejoin="round" />
		<polyline points="85.5,11.5 115.5,11.5 115.5,41.5" fill-opacity="0" stroke="#0000FF" stroke-width="1.0" stroke-linecap="butt" stroke-linejoin="round" />
		<polyline points="185.5,11.5 155.5,11.5 155.5,41.5" fill-opacity="0" stroke="#0000FF" stroke-width="1.0" stroke-linecap="butt" stroke-linejoin="round" />
		<polygon points="5.5,121.5 35.5,121.5 35.5,101.5 5.5,101.5" fill="#FFFFFF" stroke="#000000" stroke-width="1.0" stroke-linecap="butt" stroke-linejoin="round" />
		<polygon points="35.5,121.5 65.5,121.5 65.5,101.5 35.5,101.5" fill="#FFFFFF" stroke="#000000" stroke-width="1.0" stroke-linecap="butt" stroke-linejoin="round" />
		<polygon points="69.5,111.5 69.3,108.6 69.0,105.7 68.3,102.8 67.5,100.0 66.4,97.3 65.0,94.7 63.5,92.2 61.7,89.9 59.8,87.7 57.6,85.7 55.3,83.9 52.9,82.3 50.3,80.9 47.6,79.7 44.9,78.8 42.0,78.1 39.1,77.7 36.2,77.5 33.3,77.6 30.4,77.9 27.5,78.4 24.7,79.3 22.0,80.3 19.3,81.6 16.8,83.1 14.4,84.8 12.2,86.7 10.2,88.8 8.3,91.0 6.7,93.5 5.2,96.0 4.0,98.7 3.0,101.4 2.3,104.2 1.8,107.1 1.5,110.0 1.5,113.0 1.8,115.9 2.3,118.8 3.0,121.6 4.0,124.3 5.2,127.0 6.7,129.5 8.3,132.0 10.2,134.2 12.2,136.3 14.4,138.2 16.8,139.9 19.3,141.4 22.0,142.7 24.7,143.7 27.5,144.5 30.4,145.1 33.3,145.4 36.2,145.5 39.1,145.3 42.0,144.9 44.9,144.2 47.6,143.2 50.3,142.1 52.9,140.7 55.3,139.1 57.6,137.3 59.8,135.3 61.7,133.1 63.5,130.8 65.0,128.3 66.4,125.7 67.5,123.0 68.3,120.2 69.0,117.3 69.3,114.4" fill-opacity="0" stroke="#0000FF" stroke-width="1.0" stroke-linecap="butt" stroke-linejoin="round" />
		<g id="flange" class="port">
			<polygon points="245.5,111.5 245.4,110.6 245.3,109.8 245.1,108.9 244.9,108.1 244.6,107.3 244.2,106.6 243.7,105.8 243.2,105.1 242.6,104.5 242.0,103.9 241.3,103.4 240.6,102.9 239.8,102.5 239.0,102.2 238.2,101.9 237.4,101.7 236.5,101.6 235.7,101.5 234.8,101.5 234.0,101.6 233.1,101.8 232.3,102.0 231.5,102.3 230.7,102.7 230.0,103.1 229.3,103.6 228.6,104.2 228.0,104.8 227.5,105.5 227.0,106.2 226.6,106.9 226.2,107.7 225.9,108.5 225.7,109.4 225.6,110.2 225.5,111.1 225.5,111.9 225.6,112.8 225.7,113.6 225.9,114.5 226.2,115.3 226.6,116.1 227.0,116.8 227.5,117.5 228.0,118.2 228.6,118.8 229.3,119.4 230.0,119.9 230.7,120.3 231.5,120.7 232.3,121.0 233.1,121.2 234.0,121.4 234.8,121.5 235.7,121.5 236.5,121.4 237.4,121.3 238.2,121.1 239.0,120.8 239.8,120.5 240.6,120.1 241.3,119.6 242.0,119.1 242.6,118.5 243.2,117.9 243.7,117.2 244.2,116.4 244.6,115.7 244.9,114.9 245.1,114.1 245.3,113.2 245.4,112.4" fill="#5F5F5F" stroke="#000000" stroke-width="1.0" stroke-linecap="butt" stroke-linejoin="round" />
		</g>
		<g id="support" class="port">
			<polygon points="245.5,211.5 245.4,210.6 245.3,209.8 245.1,208.9 244.9,208.1 244.6,207.3 244.2,206.6 243.7,205.8 243.2,205.1 242.6,204.5 242.0,203.9 241.3,203.4 240.6,202.9 239.8,202.5 239.0,202.2 238.2,201.9 237.4,201.7 236.5,201.6 235.7,201.5 234.8,201.5 234.0,201.6 233.1,201.8 232.3,202.0 231.5,202.3 230.7,202.7 230.0,203.1 229.3,203.6 228.6,204.2 228.0,204.8 227.5,205.5 227.0,206.2 226.6,206.9 226.2,207.7 225.9,208.5 225.7,209.4 225.6,210.2 225.5,211.1 225.5,211.9 225.6,212.8 225.7,213.6 225.9,214.5 226.2,215.3 226.6,216.1 227.0,216.8 227.5,217.5 228.0,218.2 228.6,218.8 229.3,219.4 230.0,219.9 230.7,220.3 231.5,220.7 232.3,221.0 233.1,221.2 234.0,221.4 234.8,221.5 235.7,221.5 236.5,221.4 237.4,221.3 238.2,221.1 239.0,220.8 239.8,220.5 240.6,220.1 241.3,219.6 242.0,219.1 242.6,218.5 243.2,217.9 243.7,217.2 244.2,216.4 244.6,215.7 244.9,214.9 245.1,214.1 245.3,213.2 245.4,212.4" fill="#5F5F5F" stroke="#000000" stroke-width="1.0" stroke-linecap="butt" stroke-linejoin="round" />
		</g>
		<g id="plug_sp" class="port">
			<polygon points="205.5,11.5 205.4,10.6 205.3,9.8 205.1,8.9 204.9,8.1 204.6,7.3 204.2,6.6 203.7,5.8 203.2,5.1 202.6,4.5 202.0,3.9 201.3,3.4 200.6,2.9 199.8,2.5 199.0,2.2 198.2,1.9 197.4,1.7 196.5,1.6 195.7,1.5 194.8,1.5 194.0,1.6 193.1,1.8 192.3,2.0 191.5,2.3 190.7,2.7 190.0,3.1 189.3,3.6 188.6,4.2 188.0,4.8 187.5,5.5 187.0,6.2 186.6,6.9 186.2,7.7 185.9,8.5 185.7,9.4 185.6,10.2 185.5,11.1 185.5,11.9 185.6,12.8 185.7,13.6 185.9,14.5 186.2,15.3 186.6,16.1 187.0,16.8 187.5,17.5 188.0,18.2 188.6,18.8 189.3,19.4 190.0,19.9 190.7,20.3 191.5,20.7 192.3,21.0 193.1,21.2 194.0,21.4 194.8,21.5 195.7,21.5 196.5,21.4 197.4,21.3 198.2,21.1 199.0,20.8 199.8,20.5 200.6,20.1 201.3,19.6 202.0,19.1 202.6,18.5 203.2,17.9 203.7,17.2 204.2,16.4 204.6,15.7 204.9,14.9 205.1,14.1 205.3,13.2 205.4,12.4" fill="#0000FF" stroke="#0000FF" stroke-width="1.0" stroke-linecap="butt" stroke-linejoin="round" />
		</g>
		<g id="plug_sn" class="port">
			<polygon points="85.5,11.5 85.4,10.6 85.3,9.8 85.1,8.9 84.9,8.1 84.6,7.3 84.2,6.6 83.7,5.8 83.2,5.1 82.6,4.5 82.0,3.9 81.3,3.4 80.6,2.9 79.8,2.5 79.0,2.2 78.2,1.9 77.4,1.7 76.5,1.6 75.7,1.5 74.8,1.5 74.0,1.6 73.1,1.8 72.3,2.0 71.5,2.3 70.7,2.7 70.0,3.1 69.3,3.6 68.6,4.2 68.0,4.8 67.5,5.5 67.0,6.2 66.6,6.9 66.2,7.7 65.9,8.5 65.7,9.4 65.6,10.2 65.5,11.1 65.5,11.9 65.6,12.8 65.7,13.6 65.9,14.5 66.2,15.3 66.6,16.1 67.0,16.8 67.5,17.5 68.0,18.2 68.6,18.8 69.3,19.4 70.0,19.9 70.7,20.3 71.5,20.7 72.3,21.0 73.1,21.2 74.0,21.4 74.8,21.5 75.7,21.5 76.5,21.4 77.4,21.3 78.2,21.1 79.0,20.8 79.8,20.5 80.6,20.1 81.3,19.6 82.0,19.1 82.6,18.5 83.2,17.9 83.7,17.2 84.2,16.4 84.6,15.7 84.9,14.9 85.1,14.1 85.3,13.2 85.4,12.4" fill="#FFFFFF" stroke="#0000FF" stroke-width="1.0" stroke-linecap="butt" stroke-linejoin="round" />
		</g>
		<g id="thermalPort" class="port">
			<polygon points="124.5,222.5 146.5,222.5 146.5,200.5 124.5,200.5" fill="#5F5F5F" stroke="#BF0000" stroke-width="1.0" stroke-linecap="butt" stroke-linejoin="round" />
			<polygon points="143.5,211.5 143.4,210.8 143.4,210.1 143.2,209.5 143.0,208.8 142.7,208.2 142.4,207.5 142.1,207.0 141.6,206.4 141.2,205.9 140.7,205.4 140.1,205.0 139.6,204.6 139.0,204.3 138.3,204.0 137.7,203.8 137.0,203.6 136.3,203.5 135.6,203.5 135.0,203.5 134.3,203.6 133.6,203.7 132.9,203.9 132.3,204.2 131.7,204.5 131.1,204.8 130.5,205.2 130.0,205.7 129.5,206.2 129.1,206.7 128.7,207.3 128.3,207.9 128.1,208.5 127.8,209.1 127.7,209.8 127.5,210.5 127.5,211.2 127.5,211.8 127.5,212.5 127.7,213.2 127.8,213.9 128.1,214.5 128.3,215.1 128.7,215.7 129.1,216.3 129.5,216.8 130.0,217.3 130.5,217.8 131.1,218.2 131.7,218.5 132.3,218.8 132.9,219.1 133.6,219.3 134.3,219.4 135.0,219.5 135.6,219.5 136.3,219.5 137.0,219.3 137.7,219.2 138.3,219.0 139.0,218.7 139.6,218.4 140.1,218.0 140.7,217.6 141.2,217.1 141.6,216.6 142.1,216.0 142.4,215.4 142.7,214.8 143.0,214.2 143.2,213.5 143.4,212.9 143.4,212.2" fill="#BF0000" stroke="#BF0000" stroke-width="1.0" stroke-linecap="butt" stroke-linejoin="round" />
		</g>
	</g>
</svg>
