<svg width="223" height="203" xmlns="http://www.w3.org/2000/svg" xmlns:xlink="http://www.w3.org/1999/xlink">
	<g id="Modelica.Fluid.Machines.BaseClasses.PartialPump" class="component">
		<defs>
			<linearGradient id="cyl2" x1="0" y1="0" x2="0" y2="1">
				<stop offset="0%" stop-color="#000000" />
				<stop offset="5%" stop-color="#001830" />
				<stop offset="10%" stop-color="#002E5C" />
				<stop offset="15%" stop-color="#004182" />
				<stop offset="20%" stop-color="#0051A3" />
				<stop offset="25%" stop-color="#005FBF" />
				<stop offset="30%" stop-color="#006BD6" />
				<stop offset="35%" stop-color="#0074E8" />
				<stop offset="40%" stop-color="#007AF5" />
				<stop offset="45%" stop-color="#007EFC" />
				<stop offset="50%" stop-color="#007FFF" />
				<stop offset="55%" stop-color="#007EFC" />
				<stop offset="60%" stop-color="#007AF5" />
				<stop offset="65%" stop-color="#0074E8" />
				<stop offset="70%" stop-color="#006BD6" />
				<stop offset="75%" stop-color="#005FBF" />
				<stop offset="80%" stop-color="#0051A3" />
				<stop offset="85%" stop-color="#004182" />
				<stop offset="90%" stop-color="#002E5C" />
				<stop offset="95%" stop-color="#001830" />
				<stop offset="100%" stop-color="#000000" />
			</linearGradient>
		</defs>
		<polygon points="11.5,147.5 211.5,147.5 211.5,55.5 11.5,55.5" fill="url(#cyl2)" stroke="#000000" stroke-width="1.0" stroke-linecap="round" stroke-linejoin="round" />
		<defs>
			<linearGradient id="cyl3" x1="0" y1="0" x2="1" y2="0">
				<stop offset="0%" stop-color="#0000FF" />
				<stop offset="5%" stop-color="#0000CF" />
				<stop offset="10%" stop-color="#0000A3" />
				<stop offset="15%" stop-color="#00007D" />
				<stop offset="20%" stop-color="#00005C" />
				<stop offset="25%" stop-color="#000040" />
				<stop offset="30%" stop-color="#000029" />
				<stop offset="35%" stop-color="#000017" />
				<stop offset="40%" stop-color="#00000A" />
				<stop offset="45%" stop-color="#000003" />
				<stop offset="50%" stop-color="#000000" />
				<stop offset="55%" stop-color="#000003" />
				<stop offset="60%" stop-color="#00000A" />
				<stop offset="65%" stop-color="#000017" />
				<stop offset="70%" stop-color="#000029" />
				<stop offset="75%" stop-color="#000040" />
				<stop offset="80%" stop-color="#00005C" />
				<stop offset="85%" stop-color="#00007D" />
				<stop offset="90%" stop-color="#0000A3" />
				<stop offset="95%" stop-color="#0000CF" />
				<stop offset="100%" stop-color="#0000FF" />
			</linearGradient>
		</defs>
		<polygon points="63.5,161.5 39.5,201.5 183.5,201.5 159.5,161.5" fill="url(#cyl3)" stroke-opacity="0" stroke-width="1.0" stroke-linecap="round" stroke-linejoin="round" />
		<defs>
			<radialGradient id="sph4">
				<stop offset="0%" stop-color="#0064C7" />
				<stop offset="10%" stop-color="#0063C5" />
				<stop offset="20%" stop-color="#0060BF" />
				<stop offset="30%" stop-color="#005BB5" />
				<stop offset="40%" stop-color="#0054A7" />
				<stop offset="50%" stop-color="#004B95" />
				<stop offset="60%" stop-color="#00407F" />
				<stop offset="70%" stop-color="#003365" />
				<stop offset="80%" stop-color="#002448" />
				<stop offset="90%" stop-color="#001326" />
				<stop offset="100%" stop-color="#000000" />
			</radialGradient>
		</defs>
		<polygon points="191.5,101.5 191.2,94.6 190.3,87.8 188.8,81.1 186.8,74.5 184.2,68.1 181.1,62.0 177.4,56.2 173.3,50.7 168.7,45.5 163.6,40.8 158.2,36.6 152.5,32.8 146.4,29.5 140.1,26.8 133.6,24.6 126.9,23.0 120.1,22.0 113.2,21.5 106.3,21.7 99.5,22.4 92.7,23.7 86.1,25.6 79.7,28.1 73.5,31.1 67.6,34.6 62.0,38.6 56.8,43.1 52.0,48.1 47.6,53.4 43.7,59.0 40.3,65.0 37.4,71.3 35.1,77.8 33.3,84.4 32.2,91.2 31.6,98.1 31.6,104.9 32.2,111.8 33.3,118.6 35.1,125.2 37.4,131.7 40.3,138.0 43.7,144.0 47.6,149.6 52.0,154.9 56.8,159.9 62.0,164.4 67.6,168.4 73.5,171.9 79.7,174.9 86.1,177.4 92.7,179.3 99.5,180.6 106.3,181.3 113.2,181.5 120.1,181.0 126.9,180.0 133.6,178.4 140.1,176.2 146.4,173.5 152.5,170.2 158.2,166.4 163.6,162.2 168.7,157.5 173.3,152.3 177.4,146.8 181.1,141.0 184.2,134.9 186.8,128.5 188.8,121.9 190.3,115.2 191.2,108.4" fill="url(#sph4)" stroke="#000000" stroke-width="1.0" stroke-linecap="round" stroke-linejoin="round" />
		<defs>
			<linearGradient id="cyl5" x1="0" y1="0" x2="0" y2="1">
				<stop offset="0%" stop-color="#000000" />
				<stop offset="5%" stop-color="#303030" />
				<stop offset="10%" stop-color="#5C5C5C" />
				<stop offset="15%" stop-color="#828282" />
				<stop offset="20%" stop-color="#A3A3A3" />
				<stop offset="25%" stop-color="#BFBFBF" />
				<stop offset="30%" stop-color="#D6D6D6" />
				<stop offset="35%" stop-color="#E8E8E8" />
				<stop offset="40%" stop-color="#F5F5F5" />
				<stop offset="45%" stop-color="#FCFCFC" />
				<stop offset="50%" stop-color="#FFFFFF" />
				<stop offset="55%" stop-color="#FCFCFC" />
				<stop offset="60%" stop-color="#F5F5F5" />
				<stop offset="65%" stop-color="#E8E8E8" />
				<stop offset="70%" stop-color="#D6D6D6" />
				<stop offset="75%" stop-color="#BFBFBF" />
				<stop offset="80%" stop-color="#A3A3A3" />
				<stop offset="85%" stop-color="#828282" />
				<stop offset="90%" stop-color="#5C5C5C" />
				<stop offset="95%" stop-color="#303030" />
				<stop offset="100%" stop-color="#000000" />
			</linearGradient>
		</defs>
		<polygon points="83.5,71.5 83.5,131.5 161.5,103.5" fill="url(#cyl5)" stroke-opacity="0" stroke-width="1.0" stroke-linecap="round" stroke-linejoin="round" />
		<g id="port_a" class="port">
			<polygon points="21.5,101.5 21.5,100.6 21.3,99.8 21.2,98.9 20.9,98.1 20.6,97.3 20.2,96.6 19.7,95.8 19.2,95.1 18.6,94.5 18.0,93.9 17.3,93.4 16.6,92.9 15.9,92.5 15.1,92.2 14.3,91.9 13.4,91.7 12.6,91.6 11.7,91.5 10.8,91.5 10.0,91.6 9.1,91.8 8.3,92.0 7.5,92.3 6.7,92.7 6.0,93.1 5.3,93.6 4.7,94.2 4.0,94.8 3.5,95.5 3.0,96.2 2.6,96.9 2.2,97.7 1.9,98.5 1.7,99.4 1.6,100.2 1.5,101.1 1.5,101.9 1.6,102.8 1.7,103.6 1.9,104.5 2.2,105.3 2.6,106.1 3.0,106.8 3.5,107.5 4.0,108.2 4.7,108.8 5.3,109.4 6.0,109.9 6.7,110.3 7.5,110.7 8.3,111.0 9.1,111.2 10.0,111.4 10.8,111.5 11.7,111.5 12.6,111.4 13.4,111.3 14.3,111.1 15.1,110.8 15.9,110.5 16.6,110.1 17.3,109.6 18.0,109.1 18.6,108.5 19.2,107.9 19.7,107.2 20.2,106.4 20.6,105.7 20.9,104.9 21.2,104.1 21.3,103.2 21.5,102.4" fill="#007FFF" stroke="#007FFF" stroke-width="1.0" stroke-linecap="round" stroke-linejoin="round" />
			<polygon points="21.5,101.5 21.5,100.6 21.3,99.8 21.2,98.9 20.9,98.1 20.6,97.3 20.2,96.6 19.7,95.8 19.2,95.1 18.6,94.5 18.0,93.9 17.3,93.4 16.6,92.9 15.9,92.5 15.1,92.2 14.3,91.9 13.4,91.7 12.6,91.6 11.7,91.5 10.8,91.5 10.0,91.6 9.1,91.8 8.3,92.0 7.5,92.3 6.7,92.7 6.0,93.1 5.3,93.6 4.7,94.2 4.0,94.8 3.5,95.5 3.0,96.2 2.6,96.9 2.2,97.7 1.9,98.5 1.7,99.4 1.6,100.2 1.5,101.1 1.5,101.9 1.6,102.8 1.7,103.6 1.9,104.5 2.2,105.3 2.6,106.1 3.0,106.8 3.5,107.5 4.0,108.2 4.7,108.8 5.3,109.4 6.0,109.9 6.7,110.3 7.5,110.7 8.3,111.0 9.1,111.2 10.0,111.4 10.8,111.5 11.7,111.5 12.6,111.4 13.4,111.3 14.3,111.1 15.1,110.8 15.9,110.5 16.6,110.1 17.3,109.6 18.0,109.1 18.6,108.5 19.2,107.9 19.7,107.2 20.2,106.4 20.6,105.7 20.9,104.9 21.2,104.1 21.3,103.2 21.5,102.4" fill="#007FFF" stroke="#000000" stroke-width="1.0" stroke-linecap="round" stroke-linejoin="round" />
		</g>
		<g id="port_b" class="port">
			<polygon points="201.5,101.5 201.5,100.6 201.6,99.8 201.8,98.9 202.1,98.1 202.4,97.3 202.8,96.6 203.3,95.8 203.8,95.1 204.3,94.5 205.0,93.9 205.6,93.4 206.4,92.9 207.1,92.5 207.9,92.2 208.7,91.9 209.6,91.7 210.4,91.6 211.3,91.5 212.1,91.5 213.0,91.6 213.8,91.8 214.7,92.0 215.5,92.3 216.2,92.7 217.0,93.1 217.7,93.6 218.3,94.2 218.9,94.8 219.5,95.5 220.0,96.2 220.4,96.9 220.7,97.7 221.0,98.5 221.3,99.4 221.4,100.2 221.5,101.1 221.5,101.9 221.4,102.8 221.3,103.6 221.0,104.5 220.7,105.3 220.4,106.1 220.0,106.8 219.5,107.5 218.9,108.2 218.3,108.8 217.7,109.4 217.0,109.9 216.2,110.3 215.5,110.7 214.7,111.0 213.8,111.2 213.0,111.4 212.1,111.5 211.3,111.5 210.4,111.4 209.6,111.3 208.7,111.1 207.9,110.8 207.1,110.5 206.4,110.1 205.6,109.6 205.0,109.1 204.3,108.5 203.8,107.9 203.3,107.2 202.8,106.4 202.4,105.7 202.1,104.9 201.8,104.1 201.6,103.2 201.5,102.4" fill="#007FFF" stroke="#007FFF" stroke-width="1.0" stroke-linecap="round" stroke-linejoin="round" />
			<polygon points="201.5,101.5 201.5,100.6 201.6,99.8 201.8,98.9 202.1,98.1 202.4,97.3 202.8,96.6 203.3,95.8 203.8,95.1 204.3,94.5 205.0,93.9 205.6,93.4 206.4,92.9 207.1,92.5 207.9,92.2 208.7,91.9 209.6,91.7 210.4,91.6 211.3,91.5 212.1,91.5 213.0,91.6 213.8,91.8 214.7,92.0 215.5,92.3 216.2,92.7 217.0,93.1 217.7,93.6 218.3,94.2 218.9,94.8 219.5,95.5 220.0,96.2 220.4,96.9 220.7,97.7 221.0,98.5 221.3,99.4 221.4,100.2 221.5,101.1 221.5,101.9 221.4,102.8 221.3,103.6 221.0,104.5 220.7,105.3 220.4,106.1 220.0,106.8 219.5,107.5 218.9,108.2 218.3,108.8 217.7,109.4 217.0,109.9 216.2,110.3 215.5,110.7 214.7,111.0 213.8,111.2 213.0,111.4 212.1,111.5 211.3,111.5 210.4,111.4 209.6,111.3 208.7,111.1 207.9,110.8 207.1,110.5 206.4,110.1 205.6,109.6 205.0,109.1 204.3,108.5 203.8,107.9 203.3,107.2 202.8,106.4 202.4,105.7 202.1,104.9 201.8,104.1 201.6,103.2 201.5,102.4" fill="#007FFF" stroke="#000000" stroke-width="1.0" stroke-linecap="round" stroke-linejoin="round" />
			<polygon points="203.5,101.5 203.5,100.8 203.6,100.1 203.8,99.5 204.0,98.8 204.2,98.2 204.5,97.5 204.9,97.0 205.3,96.4 205.8,95.9 206.3,95.4 206.8,95.0 207.4,94.6 208.0,94.3 208.6,94.0 209.3,93.8 210.0,93.6 210.6,93.5 211.3,93.5 212.0,93.5 212.7,93.6 213.4,93.7 214.0,93.9 214.7,94.2 215.3,94.5 215.9,94.8 216.4,95.2 217.0,95.7 217.4,96.2 217.9,96.7 218.3,97.3 218.6,97.9 218.9,98.5 219.1,99.1 219.3,99.8 219.4,100.5 219.5,101.2 219.5,101.8 219.4,102.5 219.3,103.2 219.1,103.9 218.9,104.5 218.6,105.1 218.3,105.7 217.9,106.3 217.4,106.8 217.0,107.3 216.4,107.8 215.9,108.2 215.3,108.5 214.7,108.8 214.0,109.1 213.4,109.3 212.7,109.4 212.0,109.5 211.3,109.5 210.6,109.5 210.0,109.4 209.3,109.2 208.6,109.0 208.0,108.7 207.4,108.4 206.8,108.0 206.3,107.6 205.8,107.1 205.3,106.6 204.9,106.0 204.5,105.5 204.2,104.8 204.0,104.2 203.8,103.5 203.6,102.9 203.5,102.2" fill="#FFFFFF" stroke="#007FFF" stroke-width="1.0" stroke-linecap="round" stroke-linejoin="round" />
		</g>
		<g id="heatPort" class="port">
			<polygon points="141.5,171.5 161.5,171.5 161.5,151.5 141.5,151.5" fill="#BF0000" stroke="#BF0000" stroke-width="1.0" stroke-linecap="round" stroke-linejoin="round" />
		</g>
	</g>
</svg>
