<svg width="223" height="233" xmlns="http://www.w3.org/2000/svg" xmlns:xlink="http://www.w3.org/1999/xlink">
	<g id="Modelica.Fluid.Examples.DrumBoiler.BaseClasses.EquilibriumDrumBoiler" class="component">
		<defs>
			<pattern id="pat2" patternUnits="userSpaceOnUse" width="14" height="14">
				<rect width="14" height="14" fill="#878787" />
				<path d="M-1,13 l2,2 M0,0 l14,14 M13,-1 l2,2" stroke="#000000" stroke-width="1" />
			</pattern>
		</defs>
		<polygon points="11.5,185.5 211.5,185.5 211.5,57.5 11.5,57.5" fill="url(#pat2)" stroke="#000000" stroke-width="1.0" stroke-linecap="butt" stroke-linejoin="round" />
		<defs>
			<linearGradient id="cyl3" x1="0" y1="0" x2="0" y2="1">
				<stop offset="0%" stop-color="#000000" />
				<stop offset="5%" stop-color="#303030" />
				<stop offset="10%" stop-color="#5C5C5C" />
				<stop offset="15%" stop-color="#828282" />
				<stop offset="20%" stop-color="#A3A3A3" />
				<stop offset="25%" stop-color="#BFBFBF" />
				<stop offset="30%" stop-color="#D6D6D6" />
				<stop offset="35%" stop-color="#E8E8E8" />
				<stop offset="40%" stop-color="#F5F5F5" />
				<stop offset="45%" stop-color="#FCFCFC" />
				<stop offset="50%" stop-color="#FFFFFF" />
				<stop offset="55%" stop-color="#FCFCFC" />
				<stop offset="60%" stop-color="#F5F5F5" />
				<stop offset="65%" stop-color="#E8E8E8" />
				<stop offset="70%" stop-color="#D6D6D6" />
				<stop offset="75%" stop-color="#BFBFBF" />
				<stop offset="80%" stop-color="#A3A3A3" />
				<stop offset="85%" stop-color="#828282" />
				<stop offset="90%" stop-color="#5C5C5C" />
				<stop offset="95%" stop-color="#303030" />
				<stop offset="100%" stop-color="#000000" />
			</linearGradient>
		</defs>
		<polygon points="11.5,165.5 211.5,165.5 211.5,77.5 11.5,77.5" fill="url(#cyl3)" stroke="#000000" stroke-width="1.0" stroke-linecap="butt" stroke-linejoin="round" />
		<defs>
			<linearGradient id="cyl4" x1="0" y1="0" x2="0" y2="1">
				<stop offset="0%" stop-color="#000000" />
				<stop offset="5%" stop-color="#001830" />
				<stop offset="10%" stop-color="#002E5C" />
				<stop offset="15%" stop-color="#004182" />
				<stop offset="20%" stop-color="#0051A3" />
				<stop offset="25%" stop-color="#005FBF" />
				<stop offset="30%" stop-color="#006BD6" />
				<stop offset="35%" stop-color="#0074E8" />
				<stop offset="40%" stop-color="#007AF5" />
				<stop offset="45%" stop-color="#007EFC" />
				<stop offset="50%" stop-color="#007FFF" />
				<stop offset="55%" stop-color="#007EFC" />
				<stop offset="60%" stop-color="#007AF5" />
				<stop offset="65%" stop-color="#0074E8" />
				<stop offset="70%" stop-color="#006BD6" />
				<stop offset="75%" stop-color="#005FBF" />
				<stop offset="80%" stop-color="#0051A3" />
				<stop offset="85%" stop-color="#004182" />
				<stop offset="90%" stop-color="#002E5C" />
				<stop offset="95%" stop-color="#001830" />
				<stop offset="100%" stop-color="#000000" />
			</linearGradient>
		</defs>
		<polygon points="11.5,165.5 211.5,165.5 211.5,77.5 11.5,77.5" fill="url(#cyl4)" stroke="#000000" stroke-width="1.0" stroke-linecap="butt" stroke-linejoin="round" />
		<polygon points="159.5,136.0 159.4,134.8 159.3,133.5 159.0,132.3 158.6,131.1 158.1,130.0 157.5,128.8 156.8,127.8 156.1,126.8 155.2,125.9 154.3,125.0 153.3,124.2 152.2,123.5 151.0,123.0 149.9,122.5 148.6,122.1 147.4,121.8 146.1,121.6 144.8,121.5 143.5,121.5 142.2,121.7 141.0,121.9 139.7,122.2 138.5,122.7 137.4,123.2 136.3,123.9 135.2,124.6 134.2,125.4 133.3,126.3 132.5,127.3 131.8,128.3 131.1,129.4 130.6,130.5 130.2,131.7 129.8,132.9 129.6,134.1 129.5,135.4 129.5,136.6 129.6,137.9 129.8,139.1 130.2,140.3 130.6,141.5 131.1,142.6 131.8,143.7 132.5,144.7 133.3,145.7 134.2,146.6 135.2,147.4 136.3,148.1 137.4,148.8 138.5,149.3 139.7,149.8 141.0,150.1 142.2,150.3 143.5,150.5 144.8,150.5 146.1,150.4 147.4,150.2 148.6,149.9 149.9,149.5 151.0,149.0 152.2,148.5 153.3,147.8 154.3,147.0 155.2,146.1 156.1,145.2 156.8,144.2 157.5,143.2 158.1,142.0 158.6,140.9 159.0,139.7 159.3,138.5 159.4,137.2" fill="#FFFFFF" stroke-opacity="0" stroke-width="1.0" stroke-linecap="butt" stroke-linejoin="round" />
		<polygon points="140.5,107.0 140.4,105.8 140.3,104.5 140.0,103.3 139.6,102.1 139.1,101.0 138.5,99.8 137.8,98.8 137.1,97.8 136.2,96.9 135.3,96.0 134.3,95.2 133.2,94.5 132.0,94.0 130.9,93.5 129.6,93.1 128.4,92.8 127.1,92.6 125.8,92.5 124.5,92.5 123.2,92.7 122.0,92.9 120.7,93.2 119.5,93.7 118.4,94.2 117.3,94.9 116.2,95.6 115.2,96.4 114.3,97.3 113.5,98.3 112.8,99.3 112.1,100.4 111.6,101.5 111.2,102.7 110.8,103.9 110.6,105.1 110.5,106.4 110.5,107.6 110.6,108.9 110.8,110.1 111.2,111.3 111.6,112.5 112.1,113.6 112.8,114.7 113.5,115.7 114.3,116.7 115.2,117.6 116.2,118.4 117.3,119.1 118.4,119.8 119.5,120.3 120.7,120.8 122.0,121.1 123.2,121.3 124.5,121.5 125.8,121.5 127.1,121.4 128.4,121.2 129.6,120.9 130.9,120.5 132.0,120.0 133.2,119.5 134.3,118.8 135.3,118.0 136.2,117.1 137.1,116.2 137.8,115.2 138.5,114.2 139.1,113.0 139.6,111.9 140.0,110.7 140.3,109.5 140.4,108.2" fill="#FFFFFF" stroke-opacity="0" stroke-width="1.0" stroke-linecap="butt" stroke-linejoin="round" />
		<polygon points="184.5,105.0 184.4,103.8 184.3,102.5 184.0,101.3 183.6,100.1 183.1,99.0 182.5,97.8 181.8,96.8 181.1,95.8 180.2,94.9 179.3,94.0 178.3,93.2 177.2,92.5 176.0,92.0 174.9,91.5 173.6,91.1 172.4,90.8 171.1,90.6 169.8,90.5 168.5,90.5 167.2,90.7 166.0,90.9 164.7,91.2 163.5,91.7 162.4,92.2 161.3,92.9 160.2,93.6 159.2,94.4 158.3,95.3 157.5,96.3 156.8,97.3 156.1,98.4 155.6,99.5 155.2,100.7 154.8,101.9 154.6,103.1 154.5,104.4 154.5,105.6 154.6,106.9 154.8,108.1 155.2,109.3 155.6,110.5 156.1,111.6 156.8,112.7 157.5,113.7 158.3,114.7 159.2,115.6 160.2,116.4 161.3,117.1 162.4,117.8 163.5,118.3 164.7,118.8 166.0,119.1 167.2,119.3 168.5,119.5 169.8,119.5 171.1,119.4 172.4,119.2 173.6,118.9 174.9,118.5 176.0,118.0 177.2,117.5 178.3,116.8 179.3,116.0 180.2,115.1 181.1,114.2 181.8,113.2 182.5,112.2 183.1,111.0 183.6,109.9 184.0,108.7 184.3,107.5 184.4,106.2" fill="#FFFFFF" stroke-opacity="0" stroke-width="1.0" stroke-linecap="butt" stroke-linejoin="round" />
		<polygon points="110.5,135.0 110.4,133.8 110.3,132.5 110.0,131.3 109.6,130.1 109.1,129.0 108.5,127.8 107.8,126.8 107.1,125.8 106.2,124.9 105.3,124.0 104.3,123.2 103.2,122.5 102.0,122.0 100.9,121.5 99.6,121.1 98.4,120.8 97.1,120.6 95.8,120.5 94.5,120.5 93.2,120.7 92.0,120.9 90.7,121.2 89.5,121.7 88.4,122.2 87.3,122.9 86.2,123.6 85.2,124.4 84.3,125.3 83.5,126.3 82.8,127.3 82.1,128.4 81.6,129.5 81.2,130.7 80.8,131.9 80.6,133.1 80.5,134.4 80.5,135.6 80.6,136.9 80.8,138.1 81.2,139.3 81.6,140.5 82.1,141.6 82.8,142.7 83.5,143.7 84.3,144.7 85.2,145.6 86.2,146.4 87.3,147.1 88.4,147.8 89.5,148.3 90.7,148.8 92.0,149.1 93.2,149.3 94.5,149.5 95.8,149.5 97.1,149.4 98.4,149.2 99.6,148.9 100.9,148.5 102.0,148.0 103.2,147.5 104.3,146.8 105.3,146.0 106.2,145.1 107.1,144.2 107.8,143.2 108.5,142.2 109.1,141.0 109.6,139.9 110.0,138.7 110.3,137.5 110.4,136.2" fill="#FFFFFF" stroke-opacity="0" stroke-width="1.0" stroke-linecap="butt" stroke-linejoin="round" />
		<polygon points="191.5,121.0 191.4,119.8 191.3,118.5 191.0,117.3 190.6,116.1 190.1,115.0 189.5,113.8 188.8,112.8 188.1,111.8 187.2,110.9 186.3,110.0 185.3,109.2 184.2,108.5 183.0,108.0 181.9,107.5 180.6,107.1 179.4,106.8 178.1,106.6 176.8,106.5 175.5,106.5 174.2,106.7 173.0,106.9 171.7,107.2 170.5,107.7 169.4,108.2 168.3,108.9 167.2,109.6 166.2,110.4 165.3,111.3 164.5,112.3 163.8,113.3 163.1,114.4 162.6,115.5 162.2,116.7 161.8,117.9 161.6,119.1 161.5,120.4 161.5,121.6 161.6,122.9 161.8,124.1 162.2,125.3 162.6,126.5 163.1,127.6 163.8,128.7 164.5,129.7 165.3,130.7 166.2,131.6 167.2,132.4 168.3,133.1 169.4,133.8 170.5,134.3 171.7,134.8 173.0,135.1 174.2,135.3 175.5,135.5 176.8,135.5 178.1,135.4 179.4,135.2 180.6,134.9 181.9,134.5 183.0,134.0 184.2,133.5 185.3,132.8 186.3,132.0 187.2,131.1 188.1,130.2 188.8,129.2 189.5,128.2 190.1,127.0 190.6,125.9 191.0,124.7 191.3,123.5 191.4,122.2" fill="#FFFFFF" stroke-opacity="0" stroke-width="1.0" stroke-linecap="butt" stroke-linejoin="round" />
		<polygon points="69.5,111.0 69.4,109.8 69.3,108.5 69.0,107.3 68.6,106.1 68.1,105.0 67.5,103.8 66.8,102.8 66.1,101.8 65.2,100.9 64.3,100.0 63.3,99.2 62.2,98.5 61.0,98.0 59.9,97.5 58.6,97.1 57.4,96.8 56.1,96.6 54.8,96.5 53.5,96.5 52.2,96.7 51.0,96.9 49.7,97.2 48.5,97.7 47.4,98.2 46.3,98.9 45.2,99.6 44.2,100.4 43.3,101.3 42.5,102.3 41.8,103.3 41.1,104.4 40.6,105.5 40.2,106.7 39.8,107.9 39.6,109.1 39.5,110.4 39.5,111.6 39.6,112.9 39.8,114.1 40.2,115.3 40.6,116.5 41.1,117.6 41.8,118.7 42.5,119.7 43.3,120.7 44.2,121.6 45.2,122.4 46.3,123.1 47.4,123.8 48.5,124.3 49.7,124.8 51.0,125.1 52.2,125.3 53.5,125.5 54.8,125.5 56.1,125.4 57.4,125.2 58.6,124.9 59.9,124.5 61.0,124.0 62.2,123.5 63.3,122.8 64.3,122.0 65.2,121.1 66.1,120.2 66.8,119.2 67.5,118.2 68.1,117.0 68.6,115.9 69.0,114.7 69.3,113.5 69.4,112.2" fill="#FFFFFF" stroke-opacity="0" stroke-width="1.0" stroke-linecap="butt" stroke-linejoin="round" />
		<polygon points="212.5,147.0 212.4,145.8 212.3,144.5 212.0,143.3 211.6,142.1 211.1,141.0 210.5,139.8 209.8,138.8 209.1,137.8 208.2,136.9 207.3,136.0 206.3,135.2 205.2,134.5 204.0,134.0 202.9,133.5 201.6,133.1 200.4,132.8 199.1,132.6 197.8,132.5 196.5,132.5 195.2,132.7 194.0,132.9 192.7,133.2 191.5,133.7 190.4,134.2 189.3,134.9 188.2,135.6 187.2,136.4 186.3,137.3 185.5,138.3 184.8,139.3 184.1,140.4 183.6,141.5 183.2,142.7 182.8,143.9 182.6,145.1 182.5,146.4 182.5,147.6 182.6,148.9 182.8,150.1 183.2,151.3 183.6,152.5 184.1,153.6 184.8,154.7 185.5,155.7 186.3,156.7 187.2,157.6 188.2,158.4 189.3,159.1 190.4,159.8 191.5,160.3 192.7,160.8 194.0,161.1 195.2,161.3 196.5,161.5 197.8,161.5 199.1,161.4 200.4,161.2 201.6,160.9 202.9,160.5 204.0,160.0 205.2,159.5 206.3,158.8 207.3,158.0 208.2,157.1 209.1,156.2 209.8,155.2 210.5,154.2 211.1,153.0 211.6,151.9 212.0,150.7 212.3,149.5 212.4,148.2" fill="#FFFFFF" stroke-opacity="0" stroke-width="1.0" stroke-linecap="butt" stroke-linejoin="round" />
		<polygon points="213.5,108.0 213.4,106.8 213.3,105.5 213.0,104.3 212.6,103.1 212.1,102.0 211.5,100.8 210.8,99.8 210.1,98.8 209.2,97.9 208.3,97.0 207.3,96.2 206.2,95.5 205.0,95.0 203.9,94.5 202.6,94.1 201.4,93.8 200.1,93.6 198.8,93.5 197.5,93.5 196.2,93.7 195.0,93.9 193.7,94.2 192.5,94.7 191.4,95.2 190.3,95.9 189.2,96.6 188.2,97.4 187.3,98.3 186.5,99.3 185.8,100.3 185.1,101.4 184.6,102.5 184.2,103.7 183.8,104.9 183.6,106.1 183.5,107.4 183.5,108.6 183.6,109.9 183.8,111.1 184.2,112.3 184.6,113.5 185.1,114.6 185.8,115.7 186.5,116.7 187.3,117.7 188.2,118.6 189.2,119.4 190.3,120.1 191.4,120.8 192.5,121.3 193.7,121.8 195.0,122.1 196.2,122.3 197.5,122.5 198.8,122.5 200.1,122.4 201.4,122.2 202.6,121.9 203.9,121.5 205.0,121.0 206.2,120.5 207.3,119.8 208.3,119.0 209.2,118.1 210.1,117.2 210.8,116.2 211.5,115.2 212.1,114.0 212.6,112.9 213.0,111.7 213.3,110.5 213.4,109.2" fill="#FFFFFF" stroke-opacity="0" stroke-width="1.0" stroke-linecap="butt" stroke-linejoin="round" />
		<polygon points="212.5,96.0 212.4,94.8 212.3,93.5 212.0,92.3 211.6,91.1 211.1,90.0 210.5,88.8 209.8,87.8 209.1,86.8 208.2,85.9 207.3,85.0 206.3,84.2 205.2,83.5 204.0,83.0 202.9,82.5 201.6,82.1 200.4,81.8 199.1,81.6 197.8,81.5 196.5,81.5 195.2,81.7 194.0,81.9 192.7,82.2 191.5,82.7 190.4,83.2 189.3,83.9 188.2,84.6 187.2,85.4 186.3,86.3 185.5,87.3 184.8,88.3 184.1,89.4 183.6,90.5 183.2,91.7 182.8,92.9 182.6,94.1 182.5,95.4 182.5,96.6 182.6,97.9 182.8,99.1 183.2,100.3 183.6,101.5 184.1,102.6 184.8,103.7 185.5,104.7 186.3,105.7 187.2,106.6 188.2,107.4 189.3,108.1 190.4,108.8 191.5,109.3 192.7,109.8 194.0,110.1 195.2,110.3 196.5,110.5 197.8,110.5 199.1,110.4 200.4,110.2 201.6,109.9 202.9,109.5 204.0,109.0 205.2,108.5 206.3,107.8 207.3,107.0 208.2,106.1 209.1,105.2 209.8,104.2 210.5,103.2 211.1,102.0 211.6,100.9 212.0,99.7 212.3,98.5 212.4,97.2" fill="#FFFFFF" stroke-opacity="0" stroke-width="1.0" stroke-linecap="butt" stroke-linejoin="round" />
		<polyline points="111.5,185.5 111.5,221.5" fill-opacity="0" stroke="#BF0000" stroke-width="1.0" stroke-linecap="butt" stroke-linejoin="round" />
		<polyline points="151.5,21.5 151.5,57.5" fill-opacity="0" stroke="#00007F" stroke-width="1.0" stroke-linecap="butt" stroke-linejoin="round" />
		<polygon points="199.5,147.0 199.4,145.8 199.3,144.5 199.0,143.3 198.6,142.1 198.1,141.0 197.5,139.8 196.8,138.8 196.1,137.8 195.2,136.9 194.3,136.0 193.3,135.2 192.2,134.5 191.0,134.0 189.9,133.5 188.6,133.1 187.4,132.8 186.1,132.6 184.8,132.5 183.5,132.5 182.2,132.7 181.0,132.9 179.7,133.2 178.5,133.7 177.4,134.2 176.3,134.9 175.2,135.6 174.2,136.4 173.3,137.3 172.5,138.3 171.8,139.3 171.1,140.4 170.6,141.5 170.2,142.7 169.8,143.9 169.6,145.1 169.5,146.4 169.5,147.6 169.6,148.9 169.8,150.1 170.2,151.3 170.6,152.5 171.1,153.6 171.8,154.7 172.5,155.7 173.3,156.7 174.2,157.6 175.2,158.4 176.3,159.1 177.4,159.8 178.5,160.3 179.7,160.8 181.0,161.1 182.2,161.3 183.5,161.5 184.8,161.5 186.1,161.4 187.4,161.2 188.6,160.9 189.9,160.5 191.0,160.0 192.2,159.5 193.3,158.8 194.3,158.0 195.2,157.1 196.1,156.2 196.8,155.2 197.5,154.2 198.1,153.0 198.6,151.9 199.0,150.7 199.3,149.5 199.4,148.2" fill="#FFFFFF" stroke-opacity="0" stroke-width="1.0" stroke-linecap="butt" stroke-linejoin="round" />
		<polygon points="212.5,135.0 212.4,133.8 212.3,132.5 212.0,131.3 211.6,130.1 211.1,129.0 210.5,127.8 209.8,126.8 209.1,125.8 208.2,124.9 207.3,124.0 206.3,123.2 205.2,122.5 204.0,122.0 202.9,121.5 201.6,121.1 200.4,120.8 199.1,120.6 197.8,120.5 196.5,120.5 195.2,120.7 194.0,120.9 192.7,121.2 191.5,121.7 190.4,122.2 189.3,122.9 188.2,123.6 187.2,124.4 186.3,125.3 185.5,126.3 184.8,127.3 184.1,128.4 183.6,129.5 183.2,130.7 182.8,131.9 182.6,133.1 182.5,134.4 182.5,135.6 182.6,136.9 182.8,138.1 183.2,139.3 183.6,140.5 184.1,141.6 184.8,142.7 185.5,143.7 186.3,144.7 187.2,145.6 188.2,146.4 189.3,147.1 190.4,147.8 191.5,148.3 192.7,148.8 194.0,149.1 195.2,149.3 196.5,149.5 197.8,149.5 199.1,149.4 200.4,149.2 201.6,148.9 202.9,148.5 204.0,148.0 205.2,147.5 206.3,146.8 207.3,146.0 208.2,145.1 209.1,144.2 209.8,143.2 210.5,142.2 211.1,141.0 211.6,139.9 212.0,138.7 212.3,137.5 212.4,136.2" fill="#FFFFFF" stroke-opacity="0" stroke-width="1.0" stroke-linecap="butt" stroke-linejoin="round" />
		<g id="port_a" class="port">
			<polygon points="21.5,121.5 21.5,120.6 21.3,119.8 21.2,118.9 20.9,118.1 20.6,117.3 20.2,116.6 19.7,115.8 19.2,115.1 18.6,114.5 18.0,113.9 17.3,113.4 16.6,112.9 15.9,112.5 15.1,112.2 14.3,111.9 13.4,111.7 12.6,111.6 11.7,111.5 10.8,111.5 10.0,111.6 9.1,111.8 8.3,112.0 7.5,112.3 6.7,112.7 6.0,113.1 5.3,113.6 4.7,114.2 4.0,114.8 3.5,115.5 3.0,116.2 2.6,116.9 2.2,117.7 1.9,118.5 1.7,119.4 1.6,120.2 1.5,121.1 1.5,121.9 1.6,122.8 1.7,123.6 1.9,124.5 2.2,125.3 2.6,126.1 3.0,126.8 3.5,127.5 4.0,128.2 4.7,128.8 5.3,129.4 6.0,129.9 6.7,130.3 7.5,130.7 8.3,131.0 9.1,131.2 10.0,131.4 10.8,131.5 11.7,131.5 12.6,131.4 13.4,131.3 14.3,131.1 15.1,130.8 15.9,130.5 16.6,130.1 17.3,129.6 18.0,129.1 18.6,128.5 19.2,127.9 19.7,127.2 20.2,126.4 20.6,125.7 20.9,124.9 21.2,124.1 21.3,123.2 21.5,122.4" fill="#007FFF" stroke="#007FFF" stroke-width="1.0" stroke-linecap="butt" stroke-linejoin="round" />
			<polygon points="21.5,121.5 21.5,120.6 21.3,119.8 21.2,118.9 20.9,118.1 20.6,117.3 20.2,116.6 19.7,115.8 19.2,115.1 18.6,114.5 18.0,113.9 17.3,113.4 16.6,112.9 15.9,112.5 15.1,112.2 14.3,111.9 13.4,111.7 12.6,111.6 11.7,111.5 10.8,111.5 10.0,111.6 9.1,111.8 8.3,112.0 7.5,112.3 6.7,112.7 6.0,113.1 5.3,113.6 4.7,114.2 4.0,114.8 3.5,115.5 3.0,116.2 2.6,116.9 2.2,117.7 1.9,118.5 1.7,119.4 1.6,120.2 1.5,121.1 1.5,121.9 1.6,122.8 1.7,123.6 1.9,124.5 2.2,125.3 2.6,126.1 3.0,126.8 3.5,127.5 4.0,128.2 4.7,128.8 5.3,129.4 6.0,129.9 6.7,130.3 7.5,130.7 8.3,131.0 9.1,131.2 10.0,131.4 10.8,131.5 11.7,131.5 12.6,131.4 13.4,131.3 14.3,131.1 15.1,130.8 15.9,130.5 16.6,130.1 17.3,129.6 18.0,129.1 18.6,128.5 19.2,127.9 19.7,127.2 20.2,126.4 20.6,125.7 20.9,124.9 21.2,124.1 21.3,123.2 21.5,122.4" fill="#007FFF" stroke="#000000" stroke-width="1.0" stroke-linecap="butt" stroke-linejoin="round" />
		</g>
		<g id="port_b" class="port">
			<polygon points="201.5,121.5 201.5,120.6 201.6,119.8 201.8,118.9 202.1,118.1 202.4,117.3 202.8,116.6 203.3,115.8 203.8,115.1 204.3,114.5 205.0,113.9 205.6,113.4 206.4,112.9 207.1,112.5 207.9,112.2 208.7,111.9 209.6,111.7 210.4,111.6 211.3,111.5 212.1,111.5 213.0,111.6 213.8,111.8 214.7,112.0 215.5,112.3 216.2,112.7 217.0,113.1 217.7,113.6 218.3,114.2 218.9,114.8 219.5,115.5 220.0,116.2 220.4,116.9 220.7,117.7 221.0,118.5 221.3,119.4 221.4,120.2 221.5,121.1 221.5,121.9 221.4,122.8 221.3,123.6 221.0,124.5 220.7,125.3 220.4,126.1 220.0,126.8 219.5,127.5 218.9,128.2 218.3,128.8 217.7,129.4 217.0,129.9 216.2,130.3 215.5,130.7 214.7,131.0 213.8,131.2 213.0,131.4 212.1,131.5 211.3,131.5 210.4,131.4 209.6,131.3 208.7,131.1 207.9,130.8 207.1,130.5 206.4,130.1 205.6,129.6 205.0,129.1 204.3,128.5 203.8,127.9 203.3,127.2 202.8,126.4 202.4,125.7 202.1,124.9 201.8,124.1 201.6,123.2 201.5,122.4" fill="#007FFF" stroke="#007FFF" stroke-width="1.0" stroke-linecap="butt" stroke-linejoin="round" />
			<polygon points="201.5,121.5 201.5,120.6 201.6,119.8 201.8,118.9 202.1,118.1 202.4,117.3 202.8,116.6 203.3,115.8 203.8,115.1 204.3,114.5 205.0,113.9 205.6,113.4 206.4,112.9 207.1,112.5 207.9,112.2 208.7,111.9 209.6,111.7 210.4,111.6 211.3,111.5 212.1,111.5 213.0,111.6 213.8,111.8 214.7,112.0 215.5,112.3 216.2,112.7 217.0,113.1 217.7,113.6 218.3,114.2 218.9,114.8 219.5,115.5 220.0,116.2 220.4,116.9 220.7,117.7 221.0,118.5 221.3,119.4 221.4,120.2 221.5,121.1 221.5,121.9 221.4,122.8 221.3,123.6 221.0,124.5 220.7,125.3 220.4,126.1 220.0,126.8 219.5,127.5 218.9,128.2 218.3,128.8 217.7,129.4 217.0,129.9 216.2,130.3 215.5,130.7 214.7,131.0 213.8,131.2 213.0,131.4 212.1,131.5 211.3,131.5 210.4,131.4 209.6,131.3 208.7,131.1 207.9,130.8 207.1,130.5 206.4,130.1 205.6,129.6 205.0,129.1 204.3,128.5 203.8,127.9 203.3,127.2 202.8,126.4 202.4,125.7 202.1,124.9 201.8,124.1 201.6,123.2 201.5,122.4" fill="#007FFF" stroke="#000000" stroke-width="1.0" stroke-linecap="butt" stroke-linejoin="round" />
			<polygon points="203.5,121.5 203.5,120.8 203.6,120.1 203.8,119.5 204.0,118.8 204.2,118.2 204.5,117.5 204.9,117.0 205.3,116.4 205.8,115.9 206.3,115.4 206.8,115.0 207.4,114.6 208.0,114.3 208.6,114.0 209.3,113.8 210.0,113.6 210.6,113.5 211.3,113.5 212.0,113.5 212.7,113.6 213.4,113.7 214.0,113.9 214.7,114.2 215.3,114.5 215.9,114.8 216.4,115.2 217.0,115.7 217.4,116.2 217.9,116.7 218.3,117.3 218.6,117.9 218.9,118.5 219.1,119.1 219.3,119.8 219.4,120.5 219.5,121.2 219.5,121.8 219.4,122.5 219.3,123.2 219.1,123.9 218.9,124.5 218.6,125.1 218.3,125.7 217.9,126.3 217.4,126.8 217.0,127.3 216.4,127.8 215.9,128.2 215.3,128.5 214.7,128.8 214.0,129.1 213.4,129.3 212.7,129.4 212.0,129.5 211.3,129.5 210.6,129.5 210.0,129.4 209.3,129.2 208.6,129.0 208.0,128.7 207.4,128.4 206.8,128.0 206.3,127.6 205.8,127.1 205.3,126.6 204.9,126.0 204.5,125.5 204.2,124.8 204.0,124.2 203.8,123.5 203.6,122.9 203.5,122.2" fill="#FFFFFF" stroke="#007FFF" stroke-width="1.0" stroke-linecap="butt" stroke-linejoin="round" />
		</g>
		<g id="heatPort" class="port">
			<polygon points="101.5,231.5 121.5,231.5 121.5,211.5 101.5,211.5" fill="#BF0000" stroke="#BF0000" stroke-width="1.0" stroke-linecap="butt" stroke-linejoin="round" />
		</g>
		<g id="V" class="port">
			<polygon points="141.5,21.5 151.5,1.5 161.5,21.5" fill="#FFFFFF" stroke="#00007F" stroke-width="1.0" stroke-linecap="butt" stroke-linejoin="round" />
		</g>
	</g>
</svg>
