<svg width="223" height="243" xmlns="http://www.w3.org/2000/svg" xmlns:xlink="http://www.w3.org/1999/xlink">
	<g id="Modelica.Electrical.QuasiStationary.MultiPhase.Sources.ReferenceCurrentSource" class="component">
		<polygon points="161.5,141.5 161.3,137.2 160.8,132.9 159.8,128.7 158.6,124.6 156.9,120.6 155.0,116.8 152.7,113.2 150.1,109.7 147.2,106.5 144.1,103.6 140.7,100.9 137.1,98.6 133.3,96.5 129.4,94.8 125.3,93.4 121.1,92.4 116.9,91.8 112.6,91.5 108.3,91.6 104.0,92.1 99.8,92.9 95.6,94.1 91.6,95.6 87.7,97.5 84.0,99.7 80.6,102.2 77.3,105.0 74.3,108.1 71.6,111.4 69.1,115.0 67.0,118.7 65.2,122.6 63.7,126.7 62.6,130.8 61.9,135.1 61.5,139.3 61.5,143.7 61.9,147.9 62.6,152.2 63.7,156.3 65.2,160.4 67.0,164.3 69.1,168.0 71.6,171.6 74.3,174.9 77.3,178.0 80.6,180.8 84.0,183.3 87.7,185.5 91.6,187.4 95.6,188.9 99.8,190.1 104.0,190.9 108.3,191.4 112.6,191.5 116.9,191.2 121.1,190.6 125.3,189.6 129.4,188.2 133.3,186.5 137.1,184.4 140.7,182.1 144.1,179.4 147.2,176.5 150.1,173.3 152.7,169.8 155.0,166.2 156.9,162.4 158.6,158.4 159.8,154.3 160.8,150.1 161.3,145.8" fill="#FFFFFF" stroke="#55AAFF" stroke-width="1.0" stroke-linecap="round" stroke-linejoin="round" />
		<polyline points="21.5,141.5 61.5,141.5" fill-opacity="0" stroke="#55AAFF" stroke-width="1.0" stroke-linecap="round" stroke-linejoin="round" />
		<polyline points="161.5,141.5 201.5,141.5" fill-opacity="0" stroke="#55AAFF" stroke-width="1.0" stroke-linecap="round" stroke-linejoin="round" />
		<polyline points="111.5,191.5 111.5,91.5" fill-opacity="0" stroke="#55AAFF" stroke-width="1.0" stroke-linecap="round" stroke-linejoin="round" />
		<polygon points="201.5,141.5 171.5,131.5 171.5,151.5" fill="#55AAFF" stroke="#55AAFF" stroke-width="1.0" stroke-linecap="round" stroke-linejoin="round" />
		<g id="plug_p" class="port">
			<polygon points="21.5,141.5 21.5,140.6 21.3,139.8 21.2,138.9 20.9,138.1 20.6,137.3 20.2,136.6 19.7,135.8 19.2,135.1 18.6,134.5 18.0,133.9 17.3,133.4 16.6,132.9 15.9,132.5 15.1,132.2 14.3,131.9 13.4,131.7 12.6,131.6 11.7,131.5 10.8,131.5 10.0,131.6 9.1,131.8 8.3,132.0 7.5,132.3 6.7,132.7 6.0,133.1 5.3,133.6 4.7,134.2 4.0,134.8 3.5,135.5 3.0,136.2 2.6,136.9 2.2,137.7 1.9,138.5 1.7,139.4 1.6,140.2 1.5,141.1 1.5,141.9 1.6,142.8 1.7,143.6 1.9,144.5 2.2,145.3 2.6,146.1 3.0,146.8 3.5,147.5 4.0,148.2 4.7,148.8 5.3,149.4 6.0,149.9 6.7,150.3 7.5,150.7 8.3,151.0 9.1,151.2 10.0,151.4 10.8,151.5 11.7,151.5 12.6,151.4 13.4,151.3 14.3,151.1 15.1,150.8 15.9,150.5 16.6,150.1 17.3,149.6 18.0,149.1 18.6,148.5 19.2,147.9 19.7,147.2 20.2,146.4 20.6,145.7 20.9,144.9 21.2,144.1 21.3,143.2 21.5,142.4" fill="#55AAFF" stroke="#55AAFF" stroke-width="1.0" stroke-linecap="round" stroke-linejoin="round" />
		</g>
		<g id="plug_n" class="port">
			<polygon points="221.5,141.5 221.5,140.6 221.3,139.8 221.2,138.9 220.9,138.1 220.6,137.3 220.2,136.6 219.7,135.8 219.2,135.1 218.6,134.5 218.0,133.9 217.3,133.4 216.6,132.9 215.9,132.5 215.1,132.2 214.3,131.9 213.4,131.7 212.6,131.6 211.7,131.5 210.8,131.5 210.0,131.6 209.1,131.8 208.3,132.0 207.5,132.3 206.7,132.7 206.0,133.1 205.3,133.6 204.7,134.2 204.0,134.8 203.5,135.5 203.0,136.2 202.6,136.9 202.2,137.7 201.9,138.5 201.7,139.4 201.6,140.2 201.5,141.1 201.5,141.9 201.6,142.8 201.7,143.6 201.9,144.5 202.2,145.3 202.6,146.1 203.0,146.8 203.5,147.5 204.0,148.2 204.7,148.8 205.3,149.4 206.0,149.9 206.7,150.3 207.5,150.7 208.3,151.0 209.1,151.2 210.0,151.4 210.8,151.5 211.7,151.5 212.6,151.4 213.4,151.3 214.3,151.1 215.1,150.8 215.9,150.5 216.6,150.1 217.3,149.6 218.0,149.1 218.6,148.5 219.2,147.9 219.7,147.2 220.2,146.4 220.6,145.7 220.9,144.9 221.2,144.1 221.3,143.2 221.5,142.4" fill="#FFFFFF" stroke="#55AAFF" stroke-width="1.0" stroke-linecap="round" stroke-linejoin="round" />
		</g>
		<g id="gamma" class="port">
			<polygon points="191.5,1.5 171.5,41.5 151.5,1.5" fill="#00007F" stroke="#00007F" stroke-width="1.0" stroke-linecap="round" stroke-linejoin="round" />
		</g>
		<g id="I" class="port">
			<polygon points="33.0,3.0 31.9,4.6 31.5,6.5 31.5,6.5 31.5,11.3 31.5,21.5 31.5,21.5 31.5,31.7 31.5,36.5 31.5,36.5 31.9,38.4 33.0,40.0 33.0,40.0 34.6,41.1 36.5,41.5 36.5,41.5 41.3,41.5 51.5,41.5 51.5,41.5 61.7,41.5 66.5,41.5 66.5,41.5 68.4,41.1 70.0,40.0 70.0,40.0 71.1,38.4 71.5,36.5 71.5,36.5 71.5,31.7 71.5,21.5 71.5,21.5 71.5,11.3 71.5,6.5 71.5,6.5 71.1,4.6 70.0,3.0 70.0,3.0 68.4,1.9 66.5,1.5 66.5,1.5 61.7,1.5 51.5,1.5 51.5,1.5 41.3,1.5 36.5,1.5 36.5,1.5 34.6,1.9" fill="#A0A0A4" stroke="#A0A0A4" stroke-width="1.0" stroke-linecap="round" stroke-linejoin="round" />
			<g class="transform" transform="rotate(-450.0 61.3 21.5)">
				<text x="61.3" y="21.5" text-anchor="middle" fill="#FFFFFF" font-size="26.6px" font-family="sans-serif">C</text>
			</g>
			<polygon points="71.5,1.5 51.5,41.5 31.5,1.5" fill="#55AAFF" stroke="#55AAFF" stroke-width="1.0" stroke-linecap="round" stroke-linejoin="round" />
		</g>
	</g>
</svg>
