<svg width="263" height="203" xmlns="http://www.w3.org/2000/svg" xmlns:xlink="http://www.w3.org/1999/xlink">
	<g id="Modelica.Blocks.Math.Variance" class="component">
		<polygon points="41.5,201.5 241.5,201.5 241.5,1.5 41.5,1.5" fill="#FFFFFF" stroke="#00007F" stroke-width="1.0" stroke-linecap="round" stroke-linejoin="round" />
		<polyline points="65.5,33.5 65.5,181.5" fill-opacity="0" stroke="#C0C0C0" stroke-width="1.0" stroke-linecap="round" stroke-linejoin="round" />
		<polyline points="55.5,101.5 213.5,101.5" fill-opacity="0" stroke="#C0C0C0" stroke-width="1.0" stroke-linecap="round" stroke-linejoin="round" />
		<polyline points="65.5,114.5 79.5,114.5 79.5,98.5 87.5,98.5 87.5,146.5 95.5,146.5 95.5,124.5 103.5,124.5 103.5,40.5 111.5,40.5 111.5,72.5 111.5,72.5 111.5,132.5 121.5,132.5 121.5,114.5 131.5,114.5 131.5,142.5 141.5,142.5 141.5,60.5 147.5,60.5 147.5,46.5 153.5,46.5 153.5,102.5 163.5,102.5 163.5,90.5 169.5,90.5 169.5,120.5 179.5,120.5 179.5,48.5 189.5,48.5 189.5,82.5 197.5,82.5 197.5,148.5 207.5,148.5" fill-opacity="0" stroke="#D7D7D7" stroke-width="1.0" stroke-linecap="round" stroke-linejoin="round" />
		<polygon points="235.5,101.5 213.5,93.5 213.5,109.5" fill="#C0C0C0" stroke="#C0C0C0" stroke-width="1.0" stroke-linecap="round" stroke-linejoin="round" />
		<polyline points="65.5,35.5 211.5,35.5" fill-opacity="0" stroke="#D7D7D7" stroke-width="1.0" stroke-linecap="round" stroke-linejoin="round" />
		<polyline points="125.5,101.5 125.5,53.5" fill-opacity="0" stroke="#000000" stroke-width="1.0" stroke-linecap="round" stroke-linejoin="round" />
		<polygon points="65.5,11.5 57.5,33.5 73.5,33.5" fill="#C0C0C0" stroke="#C0C0C0" stroke-width="1.0" stroke-linecap="round" stroke-linejoin="round" />
		<polygon points="125.5,35.5 117.5,57.5 133.5,57.5" fill="#000000" stroke="#000000" stroke-width="1.0" stroke-linecap="round" stroke-linejoin="round" />
		<g id="u" class="port">
			<polygon points="1.5,81.5 41.5,101.5 1.5,121.5" fill="#00007F" stroke="#00007F" stroke-width="1.0" stroke-linecap="round" stroke-linejoin="round" />
		</g>
		<g id="y" class="port">
			<polygon points="241.5,91.5 261.5,101.5 241.5,111.5" fill="#FFFFFF" stroke="#00007F" stroke-width="1.0" stroke-linecap="round" stroke-linejoin="round" />
		</g>
	</g>
</svg>
