<svg width="263" height="203" xmlns="http://www.w3.org/2000/svg" xmlns:xlink="http://www.w3.org/1999/xlink">
	<g id="Modelica.Blocks.Nonlinear.VariableDelay" class="component">
		<polygon points="41.5,201.5 241.5,201.5 241.5,1.5 41.5,1.5" fill="#FFFFFF" stroke="#00007F" stroke-width="1.0" stroke-linecap="butt" stroke-linejoin="round" />
		<polyline points="49.5,101.5 55.2,84.4 58.7,73.8 61.8,65.0 64.4,57.8 64.4,57.8 66.2,53.3 67.9,49.1 69.6,45.2 71.2,41.8 71.2,41.8 72.5,39.2 73.7,36.8 74.9,34.7 76.1,32.7 77.2,31.0 77.2,31.0 78.7,29.1 80.1,27.4 81.5,25.9 82.9,24.6 82.9,24.6 84.8,23.4 86.6,22.5 88.5,22.0 88.5,22.0 90.4,22.0 92.2,22.5 94.1,23.3 94.1,23.3 95.5,24.2 96.9,25.4 98.3,26.7 99.8,28.4 99.8,28.4 100.9,29.8 102.0,31.4 103.2,33.1 104.3,35.0 105.4,37.0 105.4,37.0 106.8,39.7 108.3,42.7 109.8,46.1 111.4,49.8 111.4,49.8 113.6,55.3 116.0,61.6 118.6,68.8 118.6,68.8 121.8,78.1 126.0,90.6 131.1,106.3 131.1,106.3 136.2,121.8 140.3,133.7 143.2,142.0 143.2,142.0 145.0,146.7 146.7,151.0 148.4,155.0 150.0,158.7 150.0,158.7 151.3,161.4 152.5,163.9 153.7,166.2 154.9,168.3 156.0,170.2 156.0,170.2 157.4,172.3 158.8,174.2 160.2,175.8 161.6,177.2 161.6,177.2 163.5,178.8 165.4,180.0 167.3,180.7 167.3,180.7 169.2,181.0 171.0,180.9 172.9,180.3 172.9,180.3 174.8,179.3 176.7,177.9 178.6,176.0 178.6,176.0 180.0,174.4 181.4,172.6 182.8,170.5 184.2,168.2 184.2,168.2 185.3,166.2 186.5,164.0 187.7,161.5 188.9,158.9 190.2,156.0 190.2,156.0 192.4,150.7 194.8,144.5 197.4,137.5 197.4,137.5 200.1,129.9 202.8,122.0 205.5,113.9 209.5,101.5" fill-opacity="0" stroke="#00007F" stroke-width="1.0" stroke-linecap="butt" stroke-linejoin="round" />
		<polyline points="77.5,101.5 83.2,84.4 86.7,73.8 89.8,65.0 92.4,57.8 92.4,57.8 94.2,53.3 95.9,49.1 97.6,45.2 99.2,41.8 99.2,41.8 100.5,39.2 101.7,36.8 102.9,34.7 104.1,32.7 105.2,31.0 105.2,31.0 106.7,29.1 108.1,27.4 109.5,25.9 110.9,24.6 110.9,24.6 112.8,23.4 114.6,22.5 116.5,22.0 116.5,22.0 118.4,22.0 120.2,22.5 122.1,23.3 122.1,23.3 123.5,24.2 124.9,25.4 126.3,26.7 127.8,28.4 127.8,28.4 128.9,29.8 130.0,31.4 131.2,33.1 132.3,35.0 133.4,37.0 133.4,37.0 134.8,39.7 136.3,42.7 137.8,46.1 139.4,49.8 139.4,49.8 141.6,55.3 144.0,61.6 146.6,68.8 146.6,68.8 149.8,78.1 154.0,90.6 159.1,106.3 159.1,106.3 164.2,121.8 168.3,133.7 171.2,142.0 171.2,142.0 173.0,146.7 174.7,151.0 176.4,155.0 178.0,158.7 178.0,158.7 179.3,161.4 180.5,163.9 181.7,166.2 182.9,168.3 184.0,170.2 184.0,170.2 185.4,172.3 186.8,174.2 188.2,175.8 189.6,177.2 189.6,177.2 191.5,178.8 193.4,180.0 195.3,180.7 195.3,180.7 197.2,181.0 199.0,180.9 200.9,180.3 200.9,180.3 202.8,179.3 204.7,177.9 206.6,176.0 206.6,176.0 208.0,174.4 209.4,172.6 210.8,170.5 212.2,168.2 212.2,168.2 213.3,166.2 214.5,164.0 215.7,161.5 216.9,158.9 218.2,156.0 218.2,156.0 220.4,150.7 222.8,144.5 225.4,137.5 225.4,137.5 228.1,129.9 230.8,122.0 233.5,113.9 237.5,101.5" fill-opacity="0" stroke="#000000" stroke-width="1.0" stroke-linecap="butt" stroke-linejoin="round" />
		<polygon points="147.5,97.5 127.5,103.5 135.5,113.5" fill="#00007F" stroke="#00007F" stroke-width="1.0" stroke-linecap="butt" stroke-linejoin="round" />
		<polyline points="41.5,161.5 65.5,161.5 133.5,107.5" fill-opacity="0" stroke="#00007F" stroke-width="1.0" stroke-linecap="butt" stroke-linejoin="round" />
		<g id="u" class="port">
			<polygon points="1.5,81.5 41.5,101.5 1.5,121.5" fill="#00007F" stroke="#00007F" stroke-width="1.0" stroke-linecap="butt" stroke-linejoin="round" />
		</g>
		<g id="y" class="port">
			<polygon points="241.5,91.5 261.5,101.5 241.5,111.5" fill="#FFFFFF" stroke="#00007F" stroke-width="1.0" stroke-linecap="butt" stroke-linejoin="round" />
		</g>
		<g id="delayTime" class="port">
			<polygon points="1.5,141.5 41.5,161.5 1.5,181.5" fill="#00007F" stroke="#00007F" stroke-width="1.0" stroke-linecap="butt" stroke-linejoin="round" />
		</g>
	</g>
</svg>
