<svg width="263" height="203" xmlns="http://www.w3.org/2000/svg" xmlns:xlink="http://www.w3.org/1999/xlink">
	<g id="Modelica.Blocks.Continuous.FirstOrder" class="component">
		<polygon points="41.5,201.5 241.5,201.5 241.5,1.5 41.5,1.5" fill="#FFFFFF" stroke="#00007F" stroke-width="1.0" stroke-linecap="round" stroke-linejoin="round" />
		<polyline points="61.5,23.5 61.5,191.5" fill-opacity="0" stroke="#C0C0C0" stroke-width="1.0" stroke-linecap="round" stroke-linejoin="round" />
		<polygon points="61.5,11.5 53.5,33.5 69.5,33.5" fill="#C0C0C0" stroke="#C0C0C0" stroke-width="1.0" stroke-linecap="round" stroke-linejoin="round" />
		<polyline points="51.5,181.5 223.5,181.5" fill-opacity="0" stroke="#C0C0C0" stroke-width="1.0" stroke-linecap="round" stroke-linejoin="round" />
		<polygon points="231.5,181.5 209.5,173.5 209.5,189.5" fill="#C0C0C0" stroke="#C0C0C0" stroke-width="1.0" stroke-linecap="round" stroke-linejoin="round" />
		<polyline points="221.5,51.5 161.5,58.5 157.3,59.1 153.1,59.8 149.1,60.6 145.2,61.5 141.3,62.6 137.6,63.8 134.0,65.2 130.5,66.7 127.1,68.3 123.7,70.0 120.5,71.9 117.4,73.9 114.4,76.0 111.5,78.2 108.7,80.6 106.0,83.2 103.4,85.8 100.9,88.6 98.5,91.5 96.2,94.5 94.0,97.7 91.9,101.0 89.9,104.4 88.0,108.0 86.2,111.7 84.6,115.5 83.0,119.4 81.5,123.5 61.5,181.5" fill-opacity="0" stroke="#00007F" stroke-width="1.0" stroke-linecap="round" stroke-linejoin="round" />
		<text x="171.5" y="148.1" text-anchor="middle" fill="#C0C0C0" font-size="45.8px" font-family="sans-serif">PT1</text>
		<g id="u" class="port">
			<polygon points="1.5,81.5 41.5,101.5 1.5,121.5" fill="#00007F" stroke="#00007F" stroke-width="1.0" stroke-linecap="round" stroke-linejoin="round" />
		</g>
		<g id="y" class="port">
			<polygon points="241.5,91.5 261.5,101.5 241.5,111.5" fill="#FFFFFF" stroke="#00007F" stroke-width="1.0" stroke-linecap="round" stroke-linejoin="round" />
		</g>
	</g>
</svg>
