<svg width="223" height="203" xmlns="http://www.w3.org/2000/svg" xmlns:xlink="http://www.w3.org/1999/xlink">
	<g id="Modelica.Electrical.QuasiStationary.SinglePhase.Sources.FrequencySweepVoltageSource" class="component">
		<polygon points="161.5,101.5 161.3,97.2 160.8,92.9 159.8,88.7 158.6,84.6 156.9,80.6 155.0,76.8 152.7,73.2 150.1,69.7 147.2,66.5 144.1,63.6 140.7,60.9 137.1,58.6 133.3,56.5 129.4,54.8 125.3,53.4 121.1,52.4 116.9,51.8 112.6,51.5 108.3,51.6 104.0,52.1 99.8,52.9 95.6,54.1 91.6,55.6 87.8,57.5 84.1,59.7 80.6,62.2 77.3,65.0 74.3,68.1 71.6,71.4 69.1,75.0 67.0,78.7 65.2,82.6 63.8,86.7 62.7,90.8 61.9,95.1 61.5,99.3 61.5,103.7 61.9,107.9 62.7,112.2 63.8,116.3 65.2,120.4 67.0,124.3 69.1,128.0 71.6,131.6 74.3,134.9 77.3,138.0 80.6,140.8 84.1,143.3 87.8,145.5 91.6,147.4 95.6,148.9 99.8,150.1 104.0,150.9 108.3,151.4 112.6,151.5 116.9,151.2 121.1,150.6 125.3,149.6 129.4,148.2 133.3,146.5 137.1,144.4 140.7,142.1 144.1,139.4 147.2,136.5 150.1,133.3 152.7,129.8 155.0,126.2 156.9,122.4 158.6,118.4 159.8,114.3 160.8,110.1 161.3,105.8" fill="#FFFFFF" stroke="#55AAFF" stroke-width="1.0" stroke-linecap="butt" stroke-linejoin="round" />
		<polyline points="21.5,101.5 61.5,101.5" fill-opacity="0" stroke="#55AAFF" stroke-width="1.0" stroke-linecap="butt" stroke-linejoin="round" />
		<polyline points="161.5,101.5 201.5,101.5" fill-opacity="0" stroke="#55AAFF" stroke-width="1.0" stroke-linecap="butt" stroke-linejoin="round" />
		<polyline points="61.5,101.5 161.5,101.5" fill-opacity="0" stroke="#55AAFF" stroke-width="1.0" stroke-linecap="butt" stroke-linejoin="round" />
		<polyline points="41.5,71.5 41.5,91.5" fill-opacity="0" stroke="#55AAFF" stroke-width="1.0" stroke-linecap="butt" stroke-linejoin="round" />
		<polyline points="31.5,81.5 51.5,81.5" fill-opacity="0" stroke="#55AAFF" stroke-width="1.0" stroke-linecap="butt" stroke-linejoin="round" />
		<polyline points="171.5,81.5 191.5,81.5" fill-opacity="0" stroke="#55AAFF" stroke-width="1.0" stroke-linecap="butt" stroke-linejoin="round" />
		<polyline points="67.5,101.5 73.5,94.5 75.9,91.6 78.3,88.6 80.7,85.4 83.1,82.0 85.5,78.5 85.5,78.5 88.4,74.2 91.0,70.5 93.4,67.2 95.5,64.5 95.5,64.5 98.1,62.4 100.4,62.7 102.5,65.5 102.5,65.5 103.2,67.1 104.0,69.1 104.8,71.3 105.5,73.8 106.2,76.5 107.0,79.6 107.8,82.9 108.5,86.5 108.5,86.5 110.4,96.4 112.1,106.1 113.5,115.5 113.5,115.5 114.2,119.9 114.8,123.9 115.5,127.5 116.2,130.6 116.8,133.3 117.5,135.5 117.5,135.5 118.8,137.7 120.2,136.4 121.5,131.5 121.5,131.5 122.4,126.4 123.2,121.2 123.9,115.9 124.5,110.5 124.5,110.5 125.5,98.8 126.5,85.5 126.5,85.5 127.0,79.0 127.5,73.5 128.0,69.0 128.5,65.5 128.5,65.5 129.5,62.8 130.5,66.5 130.5,66.5 131.1,71.4 131.8,79.2 132.6,89.9 133.5,103.5 133.5,103.5 134.1,112.8 134.7,120.6 135.2,127.0 135.7,131.9 136.1,135.4 136.5,137.5 136.5,137.5 136.8,138.2 137.2,137.5 137.5,135.5 137.8,132.2 138.2,127.5 138.5,121.5 139.5,101.5" fill-opacity="0" stroke="#C0C0C0" stroke-width="1.0" stroke-linecap="butt" stroke-linejoin="round" />
		<g id="pin_p" class="port">
			<polygon points="1.5,111.5 21.5,111.5 21.5,91.5 1.5,91.5" fill="#55AAFF" stroke="#55AAFF" stroke-width="1.0" stroke-linecap="butt" stroke-linejoin="round" />
		</g>
		<g id="pin_n" class="port">
			<polygon points="201.5,111.5 221.5,111.5 221.5,91.5 201.5,91.5" fill="#FFFFFF" stroke="#55AAFF" stroke-width="1.0" stroke-linecap="butt" stroke-linejoin="round" />
		</g>
	</g>
</svg>
