<svg width="223" height="203" xmlns="http://www.w3.org/2000/svg" xmlns:xlink="http://www.w3.org/1999/xlink">
	<g id="Modelica.ComplexBlocks.Sources.ComplexRotatingPhasor" class="component">
		<polygon points="1.5,201.5 201.5,201.5 201.5,1.5 1.5,1.5" fill="#FFFFFF" stroke="#00007F" stroke-width="1.0" stroke-linecap="butt" stroke-linejoin="round" />
		<polygon points="91.5,11.5 85.5,33.5 97.5,33.5" fill="#5F5F5F" stroke="#5F5F5F" stroke-width="1.0" stroke-linecap="butt" stroke-linejoin="round" />
		<polyline points="91.5,33.5 91.5,191.5" fill-opacity="0" stroke="#5F5F5F" stroke-width="1.0" stroke-linecap="butt" stroke-linejoin="round" />
		<polyline points="11.5,101.5 183.5,101.5" fill-opacity="0" stroke="#5F5F5F" stroke-width="1.0" stroke-linecap="butt" stroke-linejoin="round" />
		<polygon points="191.5,101.5 169.5,95.5 169.5,107.5" fill="#5F5F5F" stroke="#5F5F5F" stroke-width="1.0" stroke-linecap="butt" stroke-linejoin="round" />
		<polyline points="91.5,101.5 151.5,51.5" fill-opacity="0" stroke="#0000FF" stroke-width="1.0" stroke-linecap="butt" stroke-linejoin="round" />
		<polygon points="151.5,51.5 130.5,60.5 139.5,71.5" fill="#0000FF" stroke="#5F5F5F" stroke-width="1.0" stroke-linecap="butt" stroke-linejoin="round" />
		<polyline points="54.5,66.5 58.0,64.0 59.8,62.8 61.6,61.6 63.5,60.5 65.5,59.5 65.5,59.5 67.6,58.5 70.0,57.6 72.6,56.8 75.5,56.0 75.5,56.0 78.5,55.4 81.6,55.0 84.8,54.9 88.0,55.0 88.0,55.0 90.6,55.3 93.1,55.6 95.6,56.1 98.1,56.8 100.5,57.5 100.5,57.5 102.5,58.2 104.6,59.1 106.6,60.0 108.7,61.1 110.8,62.2 113.0,63.5 113.0,63.5 115.1,64.9 117.1,66.3 118.9,67.9 120.6,69.5 122.1,71.2 123.5,73.0 123.5,73.0 124.8,74.9 126.0,76.8 127.1,78.8 128.2,80.8 129.1,82.9 130.0,85.0 132.5,91.5" fill-opacity="0" stroke="#C0C0C0" stroke-width="1.0" stroke-linecap="butt" stroke-linejoin="round" />
		<polygon points="49.5,72.5 69.5,65.5 59.5,54.5" fill="#C0C0C0" stroke="#C0C0C0" stroke-width="1.0" stroke-linecap="butt" stroke-linejoin="round" />
		<g id="y" class="port">
			<polygon points="202.2,110.8 203.0,111.3 204.0,111.5 204.0,111.5 206.4,111.5 211.5,111.5 211.5,111.5 216.6,111.5 219.0,111.5 219.0,111.5 220.0,111.3 220.8,110.8 220.8,110.8 221.3,110.0 221.5,109.0 221.5,109.0 221.5,106.6 221.5,101.5 221.5,101.5 221.5,96.4 221.5,94.0 221.5,94.0 221.3,93.0 220.8,92.2 220.8,92.2 220.0,91.7 219.0,91.5 219.0,91.5 216.6,91.5 211.5,91.5 211.5,91.5 206.4,91.5 204.0,91.5 204.0,91.5 203.0,91.7 202.2,92.2 202.2,92.2 201.7,93.0 201.5,94.0 201.5,94.0 201.5,96.4 201.5,101.5 201.5,101.5 201.5,106.6 201.5,109.0 201.5,109.0 201.7,110.0" fill="#A0A0A4" stroke="#A0A0A4" stroke-width="1.0" stroke-linecap="butt" stroke-linejoin="round" />
			<text x="211.5" y="106.7" text-anchor="middle" fill="#FFFFFF" font-size="13.3px" font-family="sans-serif">C</text>
			<polygon points="201.5,91.5 221.5,101.5 201.5,111.5" fill="#FFFFFF" stroke="#55AAFF" stroke-width="1.0" stroke-linecap="butt" stroke-linejoin="round" />
		</g>
	</g>
</svg>
