<svg width="203" height="203" xmlns="http://www.w3.org/2000/svg" xmlns:xlink="http://www.w3.org/1999/xlink">
	<g id="Modelica.Thermal.FluidHeatFlow.Interfaces.FlowPort_b" class="component">
		<polygon points="1.5,201.5 201.5,201.5 201.5,1.5 1.5,1.5" fill="#FFFFFF" stroke="#FF0000" stroke-width="1.0" stroke-linecap="round" stroke-linejoin="round" />
		<polygon points="199.5,101.5 199.1,93.1 198.1,84.7 196.3,76.5 193.7,68.4 190.6,60.6 186.7,53.1 182.2,46.0 177.2,39.2 171.5,33.0 165.4,27.2 158.8,22.0 151.7,17.3 144.3,13.3 136.6,10.0 128.6,7.3 120.4,5.3 112.0,4.1 103.6,3.5 95.2,3.7 86.8,4.6 78.5,6.2 70.4,8.6 62.5,11.6 55.0,15.3 47.7,19.6 40.9,24.5 34.5,30.0 28.6,36.0 23.2,42.5 18.4,49.5 14.3,56.8 10.8,64.5 7.9,72.4 5.8,80.6 4.3,88.9 3.6,97.3 3.6,105.7 4.3,114.1 5.8,122.4 7.9,130.6 10.8,138.5 14.3,146.2 18.4,153.5 23.2,160.5 28.6,167.0 34.5,173.0 40.9,178.5 47.7,183.4 55.0,187.7 62.5,191.4 70.4,194.4 78.5,196.8 86.8,198.4 95.2,199.3 103.6,199.5 112.0,198.9 120.4,197.7 128.6,195.7 136.6,193.0 144.3,189.7 151.7,185.7 158.8,181.0 165.4,175.8 171.5,170.0 177.2,163.8 182.2,157.0 186.7,149.9 190.6,142.4 193.7,134.6 196.3,126.5 198.1,118.3 199.1,109.9" fill-opacity="0" stroke="#0000FF" stroke-width="1.0" stroke-linecap="round" stroke-linejoin="round" />
	</g>
</svg>
