<svg width="223" height="225" xmlns="http://www.w3.org/2000/svg" xmlns:xlink="http://www.w3.org/1999/xlink">
	<g id="Modelica.Mechanics.Translational.Interfaces.PartialElementaryTwoFlangesAndSupport" class="component">
		<polygon points="9.5,205.5 213.5,205.5 213.5,1.5 9.5,1.5" fill-opacity="0" stroke="#FF0000" stroke-dasharray="3 4" stroke-width="1.0" stroke-linecap="round" stroke-linejoin="round" />
		<polyline points="61.5,223.5 81.5,203.5" fill-opacity="0" stroke="#000000" stroke-width="1.0" stroke-linecap="round" stroke-linejoin="round" />
		<polyline points="81.5,223.5 101.5,203.5" fill-opacity="0" stroke="#000000" stroke-width="1.0" stroke-linecap="round" stroke-linejoin="round" />
		<polyline points="101.5,223.5 121.5,203.5" fill-opacity="0" stroke="#000000" stroke-width="1.0" stroke-linecap="round" stroke-linejoin="round" />
		<polyline points="121.5,223.5 141.5,203.5" fill-opacity="0" stroke="#000000" stroke-width="1.0" stroke-linecap="round" stroke-linejoin="round" />
		<polyline points="81.5,203.5 141.5,203.5" fill-opacity="0" stroke="#000000" stroke-width="1.0" stroke-linecap="round" stroke-linejoin="round" />
		<g id="flange_a" class="port">
			<polygon points="1.5,113.5 21.5,113.5 21.5,93.5 1.5,93.5" fill="#007F00" stroke="#007F00" stroke-width="1.0" stroke-linecap="round" stroke-linejoin="round" />
		</g>
		<g id="flange_b" class="port">
			<polygon points="201.5,113.5 221.5,113.5 221.5,93.5 201.5,93.5" fill="#FFFFFF" stroke="#007F00" stroke-width="1.0" stroke-linecap="round" stroke-linejoin="round" />
		</g>
		<g id="support" class="port">
			<polygon points="102.5,212.5 120.5,212.5 120.5,194.5 102.5,194.5" fill="#AFAFAF" stroke="#007F00" stroke-width="1.0" stroke-linecap="round" stroke-linejoin="round" />
			<polygon points="96.5,218.5 126.5,218.5 126.5,188.5 96.5,188.5" fill="#AFBEAF" stroke-opacity="0" stroke-width="1.0" stroke-linecap="round" stroke-linejoin="round" />
			<polygon points="102.5,212.5 120.5,212.5 120.5,194.5 102.5,194.5" fill="#007F00" stroke="#007F00" stroke-width="1.0" stroke-linecap="round" stroke-linejoin="round" />
		</g>
	</g>
</svg>
