<svg width="223" height="213" xmlns="http://www.w3.org/2000/svg" xmlns:xlink="http://www.w3.org/1999/xlink">
	<g id="Modelica.Thermal.FluidHeatFlow.Components.Pipe" class="component">
		<polygon points="21.5,121.5 201.5,121.5 201.5,81.5 21.5,81.5" fill="#0000FF" stroke="#FF0000" stroke-width="1.0" stroke-linecap="butt" stroke-linejoin="round" />
		<g id="flowPort_a" class="port">
			<polygon points="1.5,111.5 21.5,111.5 21.5,91.5 1.5,91.5" fill="#FFFFFF" stroke="#FF0000" stroke-width="1.0" stroke-linecap="butt" stroke-linejoin="round" />
			<polygon points="21.3,101.5 21.3,100.7 21.2,99.8 21.0,99.0 20.7,98.2 20.4,97.4 20.0,96.7 19.6,95.9 19.1,95.3 18.5,94.6 17.9,94.1 17.2,93.5 16.5,93.1 15.8,92.7 15.0,92.3 14.2,92.1 13.4,91.9 12.6,91.8 11.7,91.7 10.9,91.7 10.0,91.8 9.2,92.0 8.4,92.2 7.6,92.5 6.8,92.9 6.1,93.3 5.4,93.8 4.8,94.4 4.2,95.0 3.7,95.6 3.2,96.3 2.8,97.0 2.4,97.8 2.1,98.6 1.9,99.4 1.8,100.2 1.7,101.1 1.7,101.9 1.8,102.8 1.9,103.6 2.1,104.4 2.4,105.2 2.8,106.0 3.2,106.7 3.7,107.4 4.2,108.0 4.8,108.6 5.4,109.2 6.1,109.7 6.8,110.1 7.6,110.5 8.4,110.8 9.2,111.0 10.0,111.2 10.9,111.3 11.7,111.3 12.6,111.2 13.4,111.1 14.2,110.9 15.0,110.7 15.8,110.3 16.5,109.9 17.2,109.5 17.9,108.9 18.5,108.4 19.1,107.7 19.6,107.1 20.0,106.3 20.4,105.6 20.7,104.8 21.0,104.0 21.2,103.2 21.3,102.3" fill="#0000FF" stroke="#0000FF" stroke-width="1.0" stroke-linecap="butt" stroke-linejoin="round" />
		</g>
		<g id="flowPort_b" class="port">
			<polygon points="201.5,111.5 221.5,111.5 221.5,91.5 201.5,91.5" fill="#FFFFFF" stroke="#FF0000" stroke-width="1.0" stroke-linecap="butt" stroke-linejoin="round" />
			<polygon points="221.3,101.5 221.3,100.7 221.2,99.8 221.0,99.0 220.7,98.2 220.4,97.4 220.0,96.7 219.6,95.9 219.1,95.3 218.5,94.6 217.9,94.1 217.2,93.5 216.5,93.1 215.8,92.7 215.0,92.3 214.2,92.1 213.4,91.9 212.6,91.8 211.7,91.7 210.9,91.7 210.0,91.8 209.2,92.0 208.4,92.2 207.6,92.5 206.8,92.9 206.1,93.3 205.4,93.8 204.8,94.4 204.2,95.0 203.7,95.6 203.2,96.3 202.8,97.0 202.4,97.8 202.1,98.6 201.9,99.4 201.8,100.2 201.7,101.1 201.7,101.9 201.8,102.8 201.9,103.6 202.1,104.4 202.4,105.2 202.8,106.0 203.2,106.7 203.7,107.4 204.2,108.0 204.8,108.6 205.4,109.2 206.1,109.7 206.8,110.1 207.6,110.5 208.4,110.8 209.2,111.0 210.0,111.2 210.9,111.3 211.7,111.3 212.6,111.2 213.4,111.1 214.2,110.9 215.0,110.7 215.8,110.3 216.5,109.9 217.2,109.5 217.9,108.9 218.5,108.4 219.1,107.7 219.6,107.1 220.0,106.3 220.4,105.6 220.7,104.8 221.0,104.0 221.2,103.2 221.3,102.3" fill-opacity="0" stroke="#0000FF" stroke-width="1.0" stroke-linecap="butt" stroke-linejoin="round" />
		</g>
		<g id="heatPort" class="port">
			<polygon points="101.5,211.5 121.5,211.5 121.5,191.5 101.5,191.5" fill="#BF0000" stroke="#BF0000" stroke-width="1.0" stroke-linecap="butt" stroke-linejoin="round" />
		</g>
	</g>
</svg>
