<svg width="213" height="203" xmlns="http://www.w3.org/2000/svg" xmlns:xlink="http://www.w3.org/1999/xlink">
	<g id="Modelica.Mechanics.MultiBody.Joints.FreeMotionScalarInit" class="component">
		<polyline points="20.3,70.5 26.3,55.5 27.3,53.0 28.5,50.6 29.7,48.2 31.0,45.9 32.4,43.7 33.9,41.5 35.5,39.4 37.2,37.3 39.0,35.2 40.8,33.3 42.8,31.4 44.8,29.5 44.8,29.5 46.9,27.7 49.1,26.0 51.3,24.4 53.5,22.9 55.8,21.5 58.2,20.1 60.6,18.9 63.0,17.7 65.5,16.7 68.1,15.7 70.7,14.8 73.3,14.0 73.3,14.0 76.5,13.2 79.8,12.5 83.1,11.9 86.4,11.4 89.8,11.1 93.2,10.9 96.7,10.9 100.2,11.0 103.7,11.2 107.3,11.5 107.3,11.5 110.5,11.9 113.6,12.5 116.6,13.1 119.4,13.9 122.1,14.9 124.7,15.9 127.2,17.1 129.5,18.4 131.7,19.8 133.8,21.3 135.8,23.0 135.8,23.0 141.0,27.8 146.0,32.8 151.0,37.8 155.8,43.0 165.3,53.5" fill-opacity="0" stroke="#A0A0A4" stroke-width="1.0" stroke-linecap="round" stroke-linejoin="round" />
		<polygon points="196.3,101.5 156.3,81.5 156.3,121.5" fill="#C0C0C0" stroke="#000000" stroke-width="1.0" stroke-linecap="round" stroke-linejoin="round" />
		<polygon points="175.3,43.5 155.3,61.5 183.3,73.5" fill="#C0C0C0" stroke="#000000" stroke-width="1.0" stroke-linecap="round" stroke-linejoin="round" />
		<polygon points="16.3,106.5 36.3,106.5 36.3,96.5 16.3,96.5" fill="#C0C0C0" stroke="#000000" stroke-width="1.0" stroke-linecap="round" stroke-linejoin="round" />
		<polygon points="136.3,106.5 156.3,106.5 156.3,96.5 136.3,96.5" fill="#C0C0C0" stroke="#000000" stroke-width="1.0" stroke-linecap="round" stroke-linejoin="round" />
		<polygon points="97.3,106.5 117.3,106.5 117.3,96.5 97.3,96.5" fill="#C0C0C0" stroke="#000000" stroke-width="1.0" stroke-linecap="round" stroke-linejoin="round" />
		<polygon points="56.3,106.5 76.3,106.5 76.3,96.5 56.3,96.5" fill="#C0C0C0" stroke="#000000" stroke-width="1.0" stroke-linecap="round" stroke-linejoin="round" />
		<g id="frame_a" class="port">
			<polygon points="4.7,103.1 7.9,103.1 7.9,99.9 4.7,99.9" fill-opacity="0" stroke="#5F5F5F" stroke-width="1.0" stroke-linecap="round" stroke-linejoin="round" />
			<polygon points="1.5,117.5 11.1,117.5 11.1,85.5 1.5,85.5" fill="#C0C0C0" stroke="#000000" stroke-width="1.0" stroke-linecap="round" stroke-linejoin="round" />
		</g>
		<g id="frame_b" class="port">
			<polygon points="204.7,103.1 207.9,103.1 207.9,99.9 204.7,99.9" fill-opacity="0" stroke="#5F5F5F" stroke-width="1.0" stroke-linecap="round" stroke-linejoin="round" />
			<polygon points="201.5,117.5 211.1,117.5 211.1,85.5 201.5,85.5" fill="#FFFFFF" stroke="#000000" stroke-width="1.0" stroke-linecap="round" stroke-linejoin="round" />
		</g>
	</g>
</svg>
