<svg width="203" height="203" xmlns="http://www.w3.org/2000/svg" xmlns:xlink="http://www.w3.org/1999/xlink">
	<g id="Modelica.Mechanics.Rotational.Components.GeneralTorqueToAngleAdaptor" class="component">
		<polygon points="84.4,198.6 86.0,199.9 87.7,200.8 89.5,201.3 91.5,201.5 91.5,201.5 96.1,201.5 101.5,201.5 101.5,201.5 106.9,201.5 111.5,201.5 111.5,201.5 113.5,201.3 115.3,200.8 117.0,199.9 118.6,198.6 118.6,198.6 120.2,196.5 121.2,194.1 121.5,191.5 121.5,191.5 121.5,166.9 121.5,101.5 121.5,101.5 121.5,36.1 121.5,11.5 121.5,11.5 121.2,8.9 120.2,6.5 118.6,4.4 118.6,4.4 117.0,3.1 115.3,2.2 113.5,1.7 111.5,1.5 111.5,1.5 106.9,1.5 101.5,1.5 101.5,1.5 96.1,1.5 91.5,1.5 91.5,1.5 89.5,1.7 87.7,2.2 86.0,3.1 84.4,4.4 84.4,4.4 82.8,6.5 81.8,8.9 81.5,11.5 81.5,11.5 81.5,36.1 81.5,101.5 81.5,101.5 81.5,166.9 81.5,191.5 81.5,191.5 81.8,194.1 82.8,196.5" fill-opacity="0" stroke="#00007F" stroke-width="1.0" stroke-linecap="round" stroke-linejoin="round" />
		<text x="101.5" y="25.7" text-anchor="middle" fill="#000000" font-size="15.8px" font-family="sans-serif">"phi"</text>
		<text x="101.5" y="187.4" text-anchor="middle" fill="#000000" font-size="15.4px" font-family="sans-serif">"tau"</text>
		<polygon points="84.4,198.6 86.0,199.9 87.7,200.8 89.5,201.3 91.5,201.5 91.5,201.5 96.1,201.5 101.5,201.5 101.5,201.5 106.9,201.5 111.5,201.5 111.5,201.5 113.5,201.3 115.3,200.8 117.0,199.9 118.6,198.6 118.6,198.6 120.2,196.5 121.2,194.1 121.5,191.5 121.5,191.5 121.5,166.9 121.5,101.5 121.5,101.5 121.5,36.1 121.5,11.5 121.5,11.5 121.2,8.9 120.2,6.5 118.6,4.4 118.6,4.4 117.0,3.1 115.3,2.2 113.5,1.7 111.5,1.5 111.5,1.5 106.9,1.5 101.5,1.5 101.5,1.5 96.1,1.5 91.5,1.5 91.5,1.5 89.5,1.7 87.7,2.2 86.0,3.1 84.4,4.4 84.4,4.4 82.8,6.5 81.8,8.9 81.5,11.5 81.5,11.5 81.5,36.1 81.5,101.5 81.5,101.5 81.5,166.9 81.5,191.5 81.5,191.5 81.8,194.1 82.8,196.5" fill-opacity="0" stroke="#5F5F5F" stroke-width="1.0" stroke-linecap="round" stroke-linejoin="round" />
		<g id="p" class="port">
			<polygon points="121.5,11.5 141.5,21.5 121.5,31.5" fill="#FFFFFF" stroke="#00007F" stroke-width="1.0" stroke-linecap="round" stroke-linejoin="round" />
		</g>
		<g id="pder" class="port">
			<polygon points="121.5,41.5 141.5,51.5 121.5,61.5" fill="#FFFFFF" stroke="#00007F" stroke-width="1.0" stroke-linecap="round" stroke-linejoin="round" />
		</g>
		<g id="pder2" class="port">
			<polygon points="121.5,71.5 141.5,81.5 121.5,91.5" fill="#FFFFFF" stroke="#00007F" stroke-width="1.0" stroke-linecap="round" stroke-linejoin="round" />
		</g>
		<g id="f" class="port">
			<polygon points="141.5,171.5 121.5,181.5 141.5,191.5" fill="#00007F" stroke="#00007F" stroke-width="1.0" stroke-linecap="round" stroke-linejoin="round" />
		</g>
		<g id="fder" class="port">
			<polygon points="141.5,141.5 121.5,151.5 141.5,161.5" fill="#00007F" stroke="#00007F" stroke-width="1.0" stroke-linecap="round" stroke-linejoin="round" />
		</g>
		<g id="fder2" class="port">
			<polygon points="141.5,111.5 121.5,121.5 141.5,131.5" fill="#00007F" stroke="#00007F" stroke-width="1.0" stroke-linecap="round" stroke-linejoin="round" />
		</g>
		<g id="flange" class="port">
			<polygon points="91.5,101.5 91.5,100.6 91.4,99.8 91.2,98.9 90.9,98.1 90.6,97.3 90.2,96.6 89.7,95.8 89.2,95.1 88.6,94.5 88.0,93.9 87.3,93.4 86.6,92.9 85.9,92.5 85.1,92.2 84.3,91.9 83.4,91.7 82.6,91.6 81.7,91.5 80.9,91.5 80.0,91.6 79.2,91.8 78.3,92.0 77.5,92.3 76.8,92.7 76.0,93.1 75.3,93.6 74.7,94.2 74.1,94.8 73.5,95.5 73.0,96.2 72.6,96.9 72.2,97.7 72.0,98.5 71.7,99.4 71.6,100.2 71.5,101.1 71.5,101.9 71.6,102.8 71.7,103.6 72.0,104.5 72.2,105.3 72.6,106.1 73.0,106.8 73.5,107.5 74.1,108.2 74.7,108.8 75.3,109.4 76.0,109.9 76.8,110.3 77.5,110.7 78.3,111.0 79.2,111.2 80.0,111.4 80.9,111.5 81.7,111.5 82.6,111.4 83.4,111.3 84.3,111.1 85.1,110.8 85.9,110.5 86.6,110.1 87.3,109.6 88.0,109.1 88.6,108.5 89.2,107.9 89.7,107.2 90.2,106.4 90.6,105.7 90.9,104.9 91.2,104.1 91.4,103.2 91.5,102.4" fill="#5F5F5F" stroke="#000000" stroke-width="1.0" stroke-linecap="round" stroke-linejoin="round" />
		</g>
	</g>
</svg>
