<svg width="203" height="203" xmlns="http://www.w3.org/2000/svg" xmlns:xlink="http://www.w3.org/1999/xlink">
	<g id="Modelica.Blocks.Examples.BusUsage_Utilities.Interfaces.ControlBus" class="component">
		<polygon points="81.5,103.5 121.5,103.5 121.5,99.5 81.5,99.5" fill-opacity="0" stroke="#FFCC33" stroke-width="1.0" stroke-linecap="round" stroke-linejoin="round" />
		<polygon points="11.5,61.5 12.7,60.5 14.2,59.6 16.1,58.7 18.3,57.9 20.9,57.1 23.8,56.4 27.1,55.7 30.7,55.1 34.7,54.5 39.0,54.0 43.7,53.5 48.7,53.1 54.1,52.7 59.8,52.4 65.9,52.1 72.3,51.9 79.1,51.7 86.2,51.6 93.7,51.5 101.5,51.5 101.5,51.5 109.3,51.5 116.8,51.6 123.9,51.7 130.7,51.9 137.1,52.1 143.2,52.4 148.9,52.7 154.3,53.1 159.3,53.5 164.0,54.0 168.3,54.5 172.3,55.1 175.9,55.7 179.2,56.4 182.1,57.1 184.7,57.9 186.9,58.7 188.8,59.6 190.3,60.5 191.5,61.5 191.5,61.5 193.0,63.3 194.3,65.5 195.2,68.1 195.9,70.9 196.4,74.2 196.5,77.8 196.4,81.7 195.9,85.9 195.2,90.6 194.3,95.5 193.0,100.8 191.5,106.5 191.5,106.5 190.2,110.8 189.0,114.8 187.8,118.6 186.5,122.1 185.2,125.4 184.0,128.5 182.8,131.4 181.5,134.0 180.2,136.4 179.0,138.5 177.8,140.4 176.5,142.1 175.2,143.6 174.0,144.8 172.8,145.8 171.5,146.5 171.5,146.5 169.7,147.2 167.2,147.9 164.2,148.5 160.6,149.1 156.4,149.6 151.6,150.1 146.2,150.4 140.3,150.8 133.7,151.0 126.5,151.2 118.8,151.4 110.4,151.5 101.5,151.5 101.5,151.5 92.6,151.5 84.2,151.4 76.5,151.2 69.3,151.0 62.7,150.8 56.8,150.4 51.4,150.1 46.6,149.6 42.4,149.1 38.8,148.5 35.8,147.9 33.3,147.2 31.5,146.5 31.5,146.5 30.2,145.8 29.0,144.8 27.8,143.6 26.5,142.1 25.2,140.4 24.0,138.5 22.8,136.4 21.5,134.0 20.2,131.4 19.0,128.5 17.8,125.4 16.5,122.1 15.2,118.6 14.0,114.8 12.8,110.8 11.5,106.5 11.5,106.5 10.0,100.8 8.7,95.5 7.8,90.6 7.1,85.9 6.6,81.7 6.5,77.8 6.6,74.2 7.1,70.9 7.8,68.1 8.7,65.5 10.0,63.3" fill="#FFD788" stroke="#000000" stroke-width="1.0" stroke-linecap="round" stroke-linejoin="round" />
		<polygon points="46.5,81.5 46.5,81.1 46.4,80.6 46.3,80.2 46.2,79.8 46.0,79.4 45.8,79.0 45.6,78.7 45.4,78.3 45.1,78.0 44.8,77.7 44.4,77.4 44.1,77.2 43.7,77.0 43.3,76.8 42.9,76.7 42.5,76.6 42.0,76.5 41.6,76.5 41.2,76.5 40.7,76.6 40.3,76.6 39.9,76.8 39.5,76.9 39.1,77.1 38.8,77.3 38.4,77.6 38.1,77.9 37.8,78.2 37.5,78.5 37.3,78.8 37.0,79.2 36.9,79.6 36.7,80.0 36.6,80.4 36.5,80.9 36.5,81.3 36.5,81.7 36.5,82.1 36.6,82.6 36.7,83.0 36.9,83.4 37.0,83.8 37.3,84.2 37.5,84.5 37.8,84.8 38.1,85.1 38.4,85.4 38.8,85.7 39.1,85.9 39.5,86.1 39.9,86.2 40.3,86.4 40.7,86.4 41.2,86.5 41.6,86.5 42.0,86.5 42.5,86.4 42.9,86.3 43.3,86.2 43.7,86.0 44.1,85.8 44.4,85.6 44.8,85.3 45.1,85.0 45.4,84.7 45.6,84.3 45.8,84.0 46.0,83.6 46.2,83.2 46.3,82.8 46.4,82.4 46.5,81.9" fill="#000000" stroke="#000000" stroke-width="1.0" stroke-linecap="round" stroke-linejoin="round" />
		<polygon points="106.5,81.5 106.5,81.1 106.4,80.6 106.3,80.2 106.2,79.8 106.0,79.4 105.8,79.0 105.6,78.7 105.4,78.3 105.1,78.0 104.8,77.7 104.4,77.4 104.1,77.2 103.7,77.0 103.3,76.8 102.9,76.7 102.5,76.6 102.0,76.5 101.6,76.5 101.2,76.5 100.7,76.6 100.3,76.6 99.9,76.8 99.5,76.9 99.1,77.1 98.8,77.3 98.4,77.6 98.1,77.9 97.8,78.2 97.5,78.5 97.3,78.8 97.0,79.2 96.9,79.6 96.7,80.0 96.6,80.4 96.5,80.9 96.5,81.3 96.5,81.7 96.5,82.1 96.6,82.6 96.7,83.0 96.9,83.4 97.0,83.8 97.3,84.2 97.5,84.5 97.8,84.8 98.1,85.1 98.4,85.4 98.8,85.7 99.1,85.9 99.5,86.1 99.9,86.2 100.3,86.4 100.7,86.4 101.2,86.5 101.6,86.5 102.0,86.5 102.5,86.4 102.9,86.3 103.3,86.2 103.7,86.0 104.1,85.8 104.4,85.6 104.8,85.3 105.1,85.0 105.4,84.7 105.6,84.3 105.8,84.0 106.0,83.6 106.2,83.2 106.3,82.8 106.4,82.4 106.5,81.9" fill="#000000" stroke="#000000" stroke-width="1.0" stroke-linecap="round" stroke-linejoin="round" />
		<polygon points="166.5,81.5 166.5,81.1 166.4,80.6 166.3,80.2 166.2,79.8 166.0,79.4 165.8,79.0 165.6,78.7 165.4,78.3 165.1,78.0 164.8,77.7 164.4,77.4 164.1,77.2 163.7,77.0 163.3,76.8 162.9,76.7 162.5,76.6 162.0,76.5 161.6,76.5 161.2,76.5 160.7,76.6 160.3,76.6 159.9,76.8 159.5,76.9 159.1,77.1 158.8,77.3 158.4,77.6 158.1,77.9 157.8,78.2 157.5,78.5 157.3,78.8 157.0,79.2 156.9,79.6 156.7,80.0 156.6,80.4 156.5,80.9 156.5,81.3 156.5,81.7 156.5,82.1 156.6,82.6 156.7,83.0 156.9,83.4 157.0,83.8 157.3,84.2 157.5,84.5 157.8,84.8 158.1,85.1 158.4,85.4 158.8,85.7 159.1,85.9 159.5,86.1 159.9,86.2 160.3,86.4 160.7,86.4 161.2,86.5 161.6,86.5 162.0,86.5 162.5,86.4 162.9,86.3 163.3,86.2 163.7,86.0 164.1,85.8 164.4,85.6 164.8,85.3 165.1,85.0 165.4,84.7 165.6,84.3 165.8,84.0 166.0,83.6 166.2,83.2 166.3,82.8 166.4,82.4 166.5,81.9" fill="#000000" stroke="#000000" stroke-width="1.0" stroke-linecap="round" stroke-linejoin="round" />
		<polygon points="76.5,121.5 76.5,121.1 76.4,120.6 76.3,120.2 76.2,119.8 76.0,119.4 75.8,119.0 75.6,118.7 75.4,118.3 75.1,118.0 74.8,117.7 74.4,117.4 74.1,117.2 73.7,117.0 73.3,116.8 72.9,116.7 72.5,116.6 72.0,116.5 71.6,116.5 71.2,116.5 70.7,116.6 70.3,116.6 69.9,116.8 69.5,116.9 69.1,117.1 68.8,117.3 68.4,117.6 68.1,117.9 67.8,118.2 67.5,118.5 67.3,118.8 67.0,119.2 66.9,119.6 66.7,120.0 66.6,120.4 66.5,120.9 66.5,121.3 66.5,121.7 66.5,122.1 66.6,122.6 66.7,123.0 66.9,123.4 67.0,123.8 67.3,124.2 67.5,124.5 67.8,124.8 68.1,125.1 68.4,125.4 68.8,125.7 69.1,125.9 69.5,126.1 69.9,126.2 70.3,126.4 70.7,126.4 71.2,126.5 71.6,126.5 72.0,126.5 72.5,126.4 72.9,126.3 73.3,126.2 73.7,126.0 74.1,125.8 74.4,125.6 74.8,125.3 75.1,125.0 75.4,124.7 75.6,124.3 75.8,124.0 76.0,123.6 76.2,123.2 76.3,122.8 76.4,122.4 76.5,121.9" fill="#000000" stroke="#000000" stroke-width="1.0" stroke-linecap="round" stroke-linejoin="round" />
		<polygon points="136.5,121.5 136.5,121.1 136.4,120.6 136.3,120.2 136.2,119.8 136.0,119.4 135.8,119.0 135.6,118.7 135.4,118.3 135.1,118.0 134.8,117.7 134.4,117.4 134.1,117.2 133.7,117.0 133.3,116.8 132.9,116.7 132.5,116.6 132.0,116.5 131.6,116.5 131.2,116.5 130.7,116.6 130.3,116.6 129.9,116.8 129.5,116.9 129.1,117.1 128.8,117.3 128.4,117.6 128.1,117.9 127.8,118.2 127.5,118.5 127.3,118.8 127.0,119.2 126.9,119.6 126.7,120.0 126.6,120.4 126.5,120.9 126.5,121.3 126.5,121.7 126.5,122.1 126.6,122.6 126.7,123.0 126.9,123.4 127.0,123.8 127.3,124.2 127.5,124.5 127.8,124.8 128.1,125.1 128.4,125.4 128.8,125.7 129.1,125.9 129.5,126.1 129.9,126.2 130.3,126.4 130.7,126.4 131.2,126.5 131.6,126.5 132.0,126.5 132.5,126.4 132.9,126.3 133.3,126.2 133.7,126.0 134.1,125.8 134.4,125.6 134.8,125.3 135.1,125.0 135.4,124.7 135.6,124.3 135.8,124.0 136.0,123.6 136.2,123.2 136.3,122.8 136.4,122.4 136.5,121.9" fill="#000000" stroke="#000000" stroke-width="1.0" stroke-linecap="round" stroke-linejoin="round" />
		<polygon points="81.5,103.5 123.5,103.5 123.5,99.5 81.5,99.5" fill-opacity="0" stroke="#FFCC33" stroke-width="1.0" stroke-linecap="round" stroke-linejoin="round" />
	</g>
</svg>
