<svg width="223" height="223" xmlns="http://www.w3.org/2000/svg" xmlns:xlink="http://www.w3.org/1999/xlink">
	<g id="Modelica.Mechanics.Rotational.Sources.EddyCurrentTorque" class="component">
		<polygon points="15.5,197.5 207.5,197.5 207.5,5.5 15.5,5.5" fill="#FFFFFF" stroke="#FFFFFF" stroke-width="1.0" stroke-linecap="butt" stroke-linejoin="round" />
		<polyline points="111.5,163.5 111.5,201.5" fill-opacity="0" stroke="#000000" stroke-width="1.0" stroke-linecap="butt" stroke-linejoin="round" />
		<polygon points="205.5,75.5 191.5,17.5 161.5,39.5" fill="#000000" stroke="#000000" stroke-width="1.0" stroke-linecap="butt" stroke-linejoin="round" />
		<polygon points="61.5,199.5 81.5,181.5 69.5,173.5" fill="#000000" stroke="#000000" stroke-width="1.0" stroke-linecap="butt" stroke-linejoin="round" />
		<polyline points="61.5,221.5 81.5,201.5" fill-opacity="0" stroke="#000000" stroke-width="1.0" stroke-linecap="butt" stroke-linejoin="round" />
		<polyline points="81.5,221.5 101.5,201.5" fill-opacity="0" stroke="#000000" stroke-width="1.0" stroke-linecap="butt" stroke-linejoin="round" />
		<polyline points="101.5,221.5 121.5,201.5" fill-opacity="0" stroke="#000000" stroke-width="1.0" stroke-linecap="butt" stroke-linejoin="round" />
		<polyline points="121.5,221.5 141.5,201.5" fill-opacity="0" stroke="#000000" stroke-width="1.0" stroke-linecap="butt" stroke-linejoin="round" />
		<polyline points="81.5,201.5 141.5,201.5" fill-opacity="0" stroke="#000000" stroke-width="1.0" stroke-linecap="butt" stroke-linejoin="round" />
		<polyline points="63.5,193.5 68.5,185.5 69.8,183.5 71.3,181.6 73.0,179.8 74.8,178.0 76.7,176.3 78.8,174.6 81.1,173.0 83.5,171.5 83.5,171.5 86.0,170.1 88.4,168.8 90.9,167.6 93.2,166.5 95.6,165.6 97.9,164.8 100.2,164.1 102.5,163.5 102.5,163.5 105.5,162.9 108.5,162.6 111.5,162.5 114.5,162.6 117.5,162.9 120.5,163.5 120.5,163.5 122.8,164.1 125.1,164.8 127.4,165.6 129.8,166.5 132.1,167.6 134.6,168.8 137.0,170.1 139.5,171.5 139.5,171.5 141.9,173.0 144.2,174.6 146.3,176.3 148.2,178.0 150.0,179.8 151.7,181.6 153.2,183.5 154.5,185.5 159.5,193.5" fill-opacity="0" stroke="#000000" stroke-width="1.0" stroke-linecap="butt" stroke-linejoin="round" />
		<polyline points="25.5,61.5 31.5,48.5 32.9,45.6 34.3,42.9 35.8,40.2 37.4,37.5 39.1,35.0 40.8,32.5 42.6,30.1 44.5,27.8 46.5,25.5 46.5,25.5 48.1,23.9 49.7,22.3 51.6,20.7 53.5,19.2 55.6,17.7 57.7,16.2 60.1,14.9 62.5,13.5 65.1,12.2 67.7,10.9 70.6,9.7 73.5,8.5 73.5,8.5 76.8,7.3 80.1,6.2 83.5,5.2 86.9,4.3 90.3,3.6 93.7,2.9 97.2,2.4 100.7,2.0 104.3,1.7 107.9,1.6 111.5,1.5 111.5,1.5 114.6,1.6 117.7,1.7 120.7,2.0 123.8,2.4 126.9,3.0 130.0,3.6 133.0,4.4 136.1,5.3 139.2,6.3 142.3,7.4 145.3,8.7 148.4,10.0 151.5,11.5 151.5,11.5 154.3,13.0 157.0,14.5 159.7,16.1 162.2,17.7 164.6,19.4 167.0,21.2 169.2,23.0 171.4,24.9 173.5,26.8 175.5,28.8 177.4,30.9 179.2,33.1 180.9,35.2 182.5,37.5 193.5,53.5" fill-opacity="0" stroke="#000000" stroke-width="1.0" stroke-linecap="butt" stroke-linejoin="round" />
		<polyline points="36.5,101.5 186.5,101.5" fill-opacity="0" stroke="#C0C0C0" stroke-width="1.0" stroke-linecap="butt" stroke-linejoin="round" />
		<polyline points="111.5,41.5 111.5,151.5" fill-opacity="0" stroke="#C0C0C0" stroke-width="1.0" stroke-linecap="butt" stroke-linejoin="round" />
		<polyline points="111.5,101.5 113.5,89.0 114.5,83.0 115.5,77.6 116.5,72.8 117.5,68.5 117.5,68.5 118.3,65.5 119.1,62.8 119.9,60.5 120.7,58.6 121.5,57.0 121.5,57.0 122.8,54.9 124.2,53.4 125.5,52.5 125.5,52.5 127.5,51.9 129.5,52.0 129.5,52.0 130.8,52.4 132.2,53.1 133.5,54.0 133.5,54.0 134.8,55.1 136.2,56.2 137.5,57.5 137.5,57.5 139.5,59.5 141.5,61.5 141.5,61.5 143.5,63.5 145.5,65.5 145.5,65.5 147.2,67.1 149.5,69.3 152.5,72.0 152.5,72.0 154.5,73.8 156.5,75.4 158.5,77.0 160.5,78.6 162.5,80.0 162.5,80.0 165.0,81.7 167.5,83.4 170.0,85.0 172.5,86.5 172.5,86.5 174.5,87.7 176.5,88.7 178.5,89.7 180.5,90.7 182.5,91.5 187.5,93.5" fill-opacity="0" stroke="#00007F" stroke-width="1.0" stroke-linecap="butt" stroke-linejoin="round" />
		<polyline points="111.5,101.5 109.5,114.0 108.5,120.0 107.5,125.4 106.5,130.2 105.5,134.5 105.5,134.5 104.7,137.5 103.9,140.2 103.1,142.5 102.3,144.4 101.5,146.0 101.5,146.0 100.2,148.1 98.8,149.6 97.5,150.5 97.5,150.5 95.5,151.1 93.5,151.0 93.5,151.0 92.2,150.6 90.8,149.9 89.5,149.0 89.5,149.0 88.2,147.9 86.8,146.8 85.5,145.5 85.5,145.5 83.5,143.5 81.5,141.5 81.5,141.5 79.5,139.5 77.5,137.5 77.5,137.5 75.8,135.9 73.5,133.7 70.5,131.0 70.5,131.0 68.5,129.2 66.5,127.6 64.5,126.0 62.5,124.4 60.5,123.0 60.5,123.0 58.0,121.3 55.5,119.6 53.0,118.0 50.5,116.5 50.5,116.5 48.5,115.3 46.5,114.3 44.5,113.3 42.5,112.3 40.5,111.5 35.5,109.5" fill-opacity="0" stroke="#00007F" stroke-width="1.0" stroke-linecap="butt" stroke-linejoin="round" />
		<g id="flange" class="port">
			<polygon points="221.5,101.5 221.5,100.6 221.4,99.8 221.2,98.9 220.9,98.1 220.6,97.3 220.2,96.6 219.7,95.8 219.2,95.1 218.6,94.5 218.0,93.9 217.3,93.4 216.6,92.9 215.9,92.5 215.1,92.2 214.3,91.9 213.4,91.7 212.6,91.6 211.7,91.5 210.9,91.5 210.0,91.6 209.2,91.8 208.3,92.0 207.5,92.3 206.8,92.7 206.0,93.1 205.3,93.6 204.7,94.2 204.1,94.8 203.5,95.5 203.0,96.2 202.6,96.9 202.2,97.7 202.0,98.5 201.7,99.4 201.6,100.2 201.5,101.1 201.5,101.9 201.6,102.8 201.7,103.6 202.0,104.5 202.2,105.3 202.6,106.1 203.0,106.8 203.5,107.5 204.1,108.2 204.7,108.8 205.3,109.4 206.0,109.9 206.8,110.3 207.5,110.7 208.3,111.0 209.2,111.2 210.0,111.4 210.9,111.5 211.7,111.5 212.6,111.4 213.4,111.3 214.3,111.1 215.1,110.8 215.9,110.5 216.6,110.1 217.3,109.6 218.0,109.1 218.6,108.5 219.2,107.9 219.7,107.2 220.2,106.4 220.6,105.7 220.9,104.9 221.2,104.1 221.4,103.2 221.5,102.4" fill="#FFFFFF" stroke="#000000" stroke-width="1.0" stroke-linecap="butt" stroke-linejoin="round" />
		</g>
		<g id="support" class="port">
			<polygon points="121.5,201.5 121.5,200.6 121.4,199.8 121.2,198.9 120.9,198.1 120.6,197.3 120.2,196.6 119.7,195.8 119.2,195.1 118.6,194.5 118.0,193.9 117.3,193.4 116.6,192.9 115.9,192.5 115.1,192.2 114.3,191.9 113.4,191.7 112.6,191.6 111.7,191.5 110.9,191.5 110.0,191.6 109.2,191.8 108.3,192.0 107.5,192.3 106.8,192.7 106.0,193.1 105.3,193.6 104.7,194.2 104.1,194.8 103.5,195.5 103.0,196.2 102.6,196.9 102.2,197.7 102.0,198.5 101.7,199.4 101.6,200.2 101.5,201.1 101.5,201.9 101.6,202.8 101.7,203.6 102.0,204.5 102.2,205.3 102.6,206.1 103.0,206.8 103.5,207.5 104.1,208.2 104.7,208.8 105.3,209.4 106.0,209.9 106.8,210.3 107.5,210.7 108.3,211.0 109.2,211.2 110.0,211.4 110.9,211.5 111.7,211.5 112.6,211.4 113.4,211.3 114.3,211.1 115.1,210.8 115.9,210.5 116.6,210.1 117.3,209.6 118.0,209.1 118.6,208.5 119.2,207.9 119.7,207.2 120.2,206.4 120.6,205.7 120.9,204.9 121.2,204.1 121.4,203.2 121.5,202.4" fill="#5F5F5F" stroke="#000000" stroke-width="1.0" stroke-linecap="butt" stroke-linejoin="round" />
			<polygon points="96.5,216.5 126.5,216.5 126.5,186.5 96.5,186.5" fill="#C0C0C0" stroke="#C0C0C0" stroke-width="1.0" stroke-linecap="butt" stroke-linejoin="round" />
			<polygon points="121.5,201.5 121.5,200.6 121.4,199.8 121.2,198.9 120.9,198.1 120.6,197.3 120.2,196.6 119.7,195.8 119.2,195.1 118.6,194.5 118.0,193.9 117.3,193.4 116.6,192.9 115.9,192.5 115.1,192.2 114.3,191.9 113.4,191.7 112.6,191.6 111.7,191.5 110.9,191.5 110.0,191.6 109.2,191.8 108.3,192.0 107.5,192.3 106.8,192.7 106.0,193.1 105.3,193.6 104.7,194.2 104.1,194.8 103.5,195.5 103.0,196.2 102.6,196.9 102.2,197.7 102.0,198.5 101.7,199.4 101.6,200.2 101.5,201.1 101.5,201.9 101.6,202.8 101.7,203.6 102.0,204.5 102.2,205.3 102.6,206.1 103.0,206.8 103.5,207.5 104.1,208.2 104.7,208.8 105.3,209.4 106.0,209.9 106.8,210.3 107.5,210.7 108.3,211.0 109.2,211.2 110.0,211.4 110.9,211.5 111.7,211.5 112.6,211.4 113.4,211.3 114.3,211.1 115.1,210.8 115.9,210.5 116.6,210.1 117.3,209.6 118.0,209.1 118.6,208.5 119.2,207.9 119.7,207.2 120.2,206.4 120.6,205.7 120.9,204.9 121.2,204.1 121.4,203.2 121.5,202.4" fill="#5F5F5F" stroke="#000000" stroke-width="1.0" stroke-linecap="butt" stroke-linejoin="round" />
		</g>
		<g id="heatPort" class="port">
			<polygon points="1.5,211.5 21.5,211.5 21.5,191.5 1.5,191.5" fill="#BF0000" stroke="#BF0000" stroke-width="1.0" stroke-linecap="butt" stroke-linejoin="round" />
		</g>
	</g>
</svg>
