<svg width="203" height="203" xmlns="http://www.w3.org/2000/svg" xmlns:xlink="http://www.w3.org/1999/xlink">
	<g id="Modelica.Math.Random.Generators.Xorshift128plus" class="component">
		<defs>
			<linearGradient id="cyl2" x1="0" y1="0" x2="0" y2="1">
				<stop offset="0%" stop-color="#C8C8C8" />
				<stop offset="5%" stop-color="#D1D1D1" />
				<stop offset="10%" stop-color="#D9D9D9" />
				<stop offset="15%" stop-color="#E0E0E0" />
				<stop offset="20%" stop-color="#E7E7E7" />
				<stop offset="25%" stop-color="#ECECEC" />
				<stop offset="30%" stop-color="#F0F0F0" />
				<stop offset="35%" stop-color="#F4F4F4" />
				<stop offset="40%" stop-color="#F6F6F6" />
				<stop offset="45%" stop-color="#F8F8F8" />
				<stop offset="50%" stop-color="#F8F8F8" />
				<stop offset="55%" stop-color="#F8F8F8" />
				<stop offset="60%" stop-color="#F6F6F6" />
				<stop offset="65%" stop-color="#F4F4F4" />
				<stop offset="70%" stop-color="#F0F0F0" />
				<stop offset="75%" stop-color="#ECECEC" />
				<stop offset="80%" stop-color="#E7E7E7" />
				<stop offset="85%" stop-color="#E0E0E0" />
				<stop offset="90%" stop-color="#D9D9D9" />
				<stop offset="95%" stop-color="#D1D1D1" />
				<stop offset="100%" stop-color="#C8C8C8" />
			</linearGradient>
		</defs>
		<polygon points="8.8,194.2 11.0,196.1 13.3,197.8 15.7,199.1 18.2,200.2 20.8,200.9 23.6,201.4 26.5,201.5 26.5,201.5 50.4,201.5 101.5,201.5 101.5,201.5 152.6,201.5 176.5,201.5 176.5,201.5 179.4,201.4 182.2,200.9 184.8,200.2 187.3,199.1 189.7,197.8 192.0,196.1 194.2,194.2 194.2,194.2 196.1,192.0 197.8,189.7 199.1,187.3 200.2,184.8 200.9,182.2 201.4,179.4 201.5,176.5 201.5,176.5 201.5,152.6 201.5,101.5 201.5,101.5 201.5,50.4 201.5,26.5 201.5,26.5 201.4,23.6 200.9,20.8 200.2,18.2 199.1,15.7 197.8,13.3 196.1,11.0 194.2,8.8 194.2,8.8 192.0,6.9 189.7,5.2 187.3,3.9 184.8,2.8 182.2,2.1 179.4,1.6 176.5,1.5 176.5,1.5 152.6,1.5 101.5,1.5 101.5,1.5 50.4,1.5 26.5,1.5 26.5,1.5 23.6,1.6 20.8,2.1 18.2,2.8 15.7,3.9 13.3,5.2 11.0,6.9 8.8,8.8 8.8,8.8 6.9,11.0 5.2,13.3 3.9,15.7 2.8,18.2 2.1,20.8 1.6,23.6 1.5,26.5 1.5,26.5 1.5,50.4 1.5,101.5 1.5,101.5 1.5,152.6 1.5,176.5 1.5,176.5 1.6,179.4 2.1,182.2 2.8,184.8 3.9,187.3 5.2,189.7 6.9,192.0" fill="url(#cyl2)" stroke="#C8C8C8" stroke-width="1.0" stroke-linecap="round" stroke-linejoin="round" />
		<polygon points="8.8,194.2 11.0,196.1 13.3,197.8 15.7,199.1 18.2,200.2 20.8,200.9 23.6,201.4 26.5,201.5 26.5,201.5 50.4,201.5 101.5,201.5 101.5,201.5 152.6,201.5 176.5,201.5 176.5,201.5 179.4,201.4 182.2,200.9 184.8,200.2 187.3,199.1 189.7,197.8 192.0,196.1 194.2,194.2 194.2,194.2 196.1,192.0 197.8,189.7 199.1,187.3 200.2,184.8 200.9,182.2 201.4,179.4 201.5,176.5 201.5,176.5 201.5,152.6 201.5,101.5 201.5,101.5 201.5,50.4 201.5,26.5 201.5,26.5 201.4,23.6 200.9,20.8 200.2,18.2 199.1,15.7 197.8,13.3 196.1,11.0 194.2,8.8 194.2,8.8 192.0,6.9 189.7,5.2 187.3,3.9 184.8,2.8 182.2,2.1 179.4,1.6 176.5,1.5 176.5,1.5 152.6,1.5 101.5,1.5 101.5,1.5 50.4,1.5 26.5,1.5 26.5,1.5 23.6,1.6 20.8,2.1 18.2,2.8 15.7,3.9 13.3,5.2 11.0,6.9 8.8,8.8 8.8,8.8 6.9,11.0 5.2,13.3 3.9,15.7 2.8,18.2 2.1,20.8 1.6,23.6 1.5,26.5 1.5,26.5 1.5,50.4 1.5,101.5 1.5,101.5 1.5,152.6 1.5,176.5 1.5,176.5 1.6,179.4 2.1,182.2 2.8,184.8 3.9,187.3 5.2,189.7 6.9,192.0" fill-opacity="0" stroke="#808080" stroke-width="1.0" stroke-linecap="round" stroke-linejoin="round" />
		<polygon points="81.5,66.5 81.4,64.4 81.1,62.2 80.7,60.1 80.0,58.1 79.2,56.1 78.2,54.2 77.1,52.3 75.8,50.6 74.4,49.0 72.8,47.5 71.1,46.2 69.3,45.0 67.4,44.0 65.4,43.2 63.4,42.5 61.3,42.0 59.2,41.6 57.0,41.5 54.9,41.6 52.7,41.8 50.6,42.2 48.6,42.8 46.6,43.6 44.6,44.5 42.8,45.6 41.0,46.9 39.4,48.3 37.9,49.8 36.5,51.5 35.3,53.2 34.2,55.1 33.4,57.1 32.6,59.1 32.1,61.2 31.7,63.3 31.5,65.4 31.5,67.6 31.7,69.7 32.1,71.8 32.6,73.9 33.4,75.9 34.2,77.9 35.3,79.8 36.5,81.5 37.9,83.2 39.4,84.7 41.0,86.1 42.8,87.4 44.6,88.5 46.6,89.4 48.6,90.2 50.6,90.8 52.7,91.2 54.9,91.4 57.0,91.5 59.2,91.4 61.3,91.0 63.4,90.5 65.4,89.8 67.4,89.0 69.3,88.0 71.1,86.8 72.8,85.5 74.4,84.0 75.8,82.4 77.1,80.7 78.2,78.8 79.2,76.9 80.0,74.9 80.7,72.9 81.1,70.8 81.4,68.6" fill="#D7D7D7" stroke="#000000" stroke-width="1.0" stroke-linecap="round" stroke-linejoin="round" />
		<polygon points="183.5,68.5 183.4,66.4 183.1,64.2 182.7,62.1 182.0,60.1 181.2,58.1 180.2,56.2 179.1,54.3 177.8,52.6 176.4,51.0 174.8,49.5 173.1,48.2 171.3,47.0 169.4,46.0 167.4,45.2 165.4,44.5 163.3,44.0 161.2,43.6 159.0,43.5 156.9,43.6 154.7,43.8 152.6,44.2 150.6,44.8 148.6,45.6 146.6,46.5 144.8,47.6 143.0,48.9 141.4,50.3 139.9,51.8 138.5,53.5 137.3,55.2 136.2,57.1 135.4,59.1 134.6,61.1 134.1,63.2 133.7,65.3 133.5,67.4 133.5,69.6 133.7,71.7 134.1,73.8 134.6,75.9 135.4,77.9 136.2,79.9 137.3,81.8 138.5,83.5 139.9,85.2 141.4,86.7 143.0,88.1 144.8,89.4 146.6,90.5 148.6,91.4 150.6,92.2 152.6,92.8 154.7,93.2 156.9,93.4 159.0,93.5 161.2,93.4 163.3,93.0 165.4,92.5 167.4,91.8 169.4,91.0 171.3,90.0 173.1,88.8 174.8,87.5 176.4,86.0 177.8,84.4 179.1,82.7 180.2,80.8 181.2,78.9 182.0,76.9 182.7,74.9 183.1,72.8 183.4,70.6" fill="#D7D7D7" stroke="#000000" stroke-width="1.0" stroke-linecap="round" stroke-linejoin="round" />
		<polygon points="131.5,138.5 131.4,136.4 131.1,134.2 130.7,132.1 130.0,130.1 129.2,128.1 128.2,126.2 127.1,124.3 125.8,122.6 124.4,121.0 122.8,119.5 121.1,118.2 119.3,117.0 117.4,116.0 115.4,115.2 113.4,114.5 111.3,114.0 109.2,113.6 107.0,113.5 104.9,113.6 102.7,113.8 100.6,114.2 98.6,114.8 96.6,115.6 94.6,116.5 92.8,117.6 91.0,118.9 89.4,120.3 87.9,121.8 86.5,123.5 85.3,125.2 84.2,127.1 83.4,129.1 82.6,131.1 82.1,133.2 81.7,135.3 81.5,137.4 81.5,139.6 81.7,141.7 82.1,143.8 82.6,145.9 83.4,147.9 84.2,149.9 85.3,151.8 86.5,153.5 87.9,155.2 89.4,156.7 91.0,158.1 92.8,159.4 94.6,160.5 96.6,161.4 98.6,162.2 100.6,162.8 102.7,163.2 104.9,163.4 107.0,163.5 109.2,163.4 111.3,163.0 113.4,162.5 115.4,161.8 117.4,161.0 119.3,160.0 121.1,158.8 122.8,157.5 124.4,156.0 125.8,154.4 127.1,152.7 128.2,150.8 129.2,148.9 130.0,146.9 130.7,144.9 131.1,142.8 131.4,140.6" fill="#D7D7D7" stroke="#000000" stroke-width="1.0" stroke-linecap="round" stroke-linejoin="round" />
	</g>
</svg>
