<svg width="223" height="223" xmlns="http://www.w3.org/2000/svg" xmlns:xlink="http://www.w3.org/1999/xlink">
	<g id="Modelica.Electrical.Machines.BasicMachines.Components.ElectricalExcitation" class="component">
		<polygon points="21.5,11.5 41.5,5.5 41.5,17.5" fill="#0000FF" stroke="#0000FF" stroke-width="1.0" stroke-linecap="round" stroke-linejoin="round" />
		<polygon points="121.5,111.5 121.4,108.1 120.9,104.6 120.2,101.3 119.2,98.0 117.9,94.8 116.3,91.7 114.5,88.8 112.4,86.1 110.1,83.5 107.6,81.2 104.9,79.0 102.0,77.1 99.0,75.5 95.8,74.1 92.5,73.1 89.2,72.2 85.8,71.7 82.4,71.5 78.9,71.6 75.5,72.0 72.1,72.6 68.8,73.6 65.6,74.8 62.5,76.3 59.5,78.1 56.8,80.1 54.1,82.3 51.7,84.8 49.5,87.4 47.6,90.3 45.9,93.3 44.5,96.4 43.3,99.6 42.4,103.0 41.8,106.4 41.5,109.8 41.5,113.2 41.8,116.6 42.4,120.0 43.3,123.4 44.5,126.6 45.9,129.7 47.6,132.7 49.5,135.6 51.7,138.2 54.1,140.7 56.8,142.9 59.5,144.9 62.5,146.7 65.6,148.2 68.8,149.4 72.1,150.4 75.5,151.0 78.9,151.4 82.4,151.5 85.8,151.3 89.2,150.8 92.5,149.9 95.8,148.9 99.0,147.5 102.0,145.9 104.9,144.0 107.6,141.8 110.1,139.5 112.4,136.9 114.5,134.2 116.3,131.3 117.9,128.2 119.2,125.0 120.2,121.7 120.9,118.4 121.4,114.9" fill-opacity="0" stroke="#0000FF" stroke-width="1.0" stroke-linecap="round" stroke-linejoin="round" />
		<polygon points="181.5,111.5 181.4,108.1 180.9,104.6 180.2,101.3 179.2,98.0 177.9,94.8 176.3,91.7 174.5,88.8 172.4,86.1 170.1,83.5 167.6,81.2 164.9,79.0 162.0,77.1 159.0,75.5 155.8,74.1 152.5,73.1 149.2,72.2 145.8,71.7 142.4,71.5 138.9,71.6 135.5,72.0 132.1,72.6 128.8,73.6 125.6,74.8 122.5,76.3 119.5,78.1 116.8,80.1 114.1,82.3 111.7,84.8 109.5,87.4 107.6,90.3 105.9,93.3 104.5,96.4 103.3,99.6 102.4,103.0 101.8,106.4 101.5,109.8 101.5,113.2 101.8,116.6 102.4,120.0 103.3,123.4 104.5,126.6 105.9,129.7 107.6,132.7 109.5,135.6 111.7,138.2 114.1,140.7 116.8,142.9 119.5,144.9 122.5,146.7 125.6,148.2 128.8,149.4 132.1,150.4 135.5,151.0 138.9,151.4 142.4,151.5 145.8,151.3 149.2,150.8 152.5,149.9 155.8,148.9 159.0,147.5 162.0,145.9 164.9,144.0 167.6,141.8 170.1,139.5 172.4,136.9 174.5,134.2 176.3,131.3 177.9,128.2 179.2,125.0 180.2,121.7 180.9,118.4 181.4,114.9" fill-opacity="0" stroke="#0000FF" stroke-width="1.0" stroke-linecap="round" stroke-linejoin="round" />
		<polyline points="81.5,111.5 57.5,79.5 61.5,91.5 67.5,85.5 57.5,79.5" fill-opacity="0" stroke="#0000FF" stroke-width="1.0" stroke-linecap="round" stroke-linejoin="round" />
		<polyline points="81.5,111.5 57.5,143.5 61.5,131.5 67.5,137.5 57.5,143.5" fill-opacity="0" stroke="#0000FF" stroke-width="1.0" stroke-linecap="round" stroke-linejoin="round" />
		<polyline points="57.5,79.5 57.5,11.5 41.5,11.5" fill-opacity="0" stroke="#0000FF" stroke-width="1.0" stroke-linecap="round" stroke-linejoin="round" />
		<polyline points="201.5,11.5 141.5,11.5 141.5,71.5" fill-opacity="0" stroke="#0000FF" stroke-width="1.0" stroke-linecap="round" stroke-linejoin="round" />
		<polyline points="141.5,151.5 141.5,211.5 201.5,211.5" fill-opacity="0" stroke="#0000FF" stroke-width="1.0" stroke-linecap="round" stroke-linejoin="round" />
		<g id="spacePhasor_r" class="port">
			<polygon points="11.5,1.5 1.5,11.5 11.5,21.5 21.5,11.5" fill="#0000FF" stroke="#0000FF" stroke-width="1.0" stroke-linecap="round" stroke-linejoin="round" />
		</g>
		<g id="pin_ep" class="port">
			<polygon points="201.5,1.5 221.5,1.5 221.5,21.5 201.5,21.5" fill="#0000FF" stroke="#0000FF" stroke-width="1.0" stroke-linecap="round" stroke-linejoin="round" />
		</g>
		<g id="pin_en" class="port">
			<polygon points="221.5,221.5 201.5,221.5 201.5,201.5 221.5,201.5" fill="#FFFFFF" stroke="#0000FF" stroke-width="1.0" stroke-linecap="round" stroke-linejoin="round" />
		</g>
	</g>
</svg>
