<svg width="263" height="203" xmlns="http://www.w3.org/2000/svg" xmlns:xlink="http://www.w3.org/1999/xlink">
	<g id="Modelica.Blocks.Math.TotalHarmonicDistortion" class="component">
		<polygon points="41.5,201.5 241.5,201.5 241.5,1.5 41.5,1.5" fill="#FFFFFF" stroke="#00007F" stroke-width="1.0" stroke-linecap="butt" stroke-linejoin="round" />
		<polyline points="61.5,181.5 61.5,33.5" fill-opacity="0" stroke="#C0C0C0" stroke-width="1.0" stroke-linecap="butt" stroke-linejoin="round" />
		<polygon points="61.5,11.5 53.5,33.5 69.5,33.5" fill="#C0C0C0" stroke="#C0C0C0" stroke-width="1.0" stroke-linecap="butt" stroke-linejoin="round" />
		<polyline points="51.5,101.5 209.5,101.5" fill-opacity="0" stroke="#C0C0C0" stroke-width="1.0" stroke-linecap="butt" stroke-linejoin="round" />
		<polygon points="231.5,101.5 209.5,93.5 209.5,109.5" fill="#C0C0C0" stroke="#C0C0C0" stroke-width="1.0" stroke-linecap="butt" stroke-linejoin="round" />
		<polygon points="61.5,101.5 72.5,67.5 79.5,48.5 86.5,33.5 91.5,26.5 97.5,22.5 103.5,21.5 109.5,25.5 114.5,31.5 120.5,42.5 126.5,57.5 134.5,80.5 151.5,132.5 158.5,151.5 165.5,165.5 170.5,174.5 176.5,179.5 182.5,182.5 187.5,179.5 193.5,172.5 198.5,163.5 205.5,148.5 213.5,126.5 221.5,101.5 213.5,154.5 200.5,138.5 187.5,196.5 175.5,154.5 163.5,182.5 151.5,111.5 138.5,128.5 128.5,38.5 115.5,55.5 115.5,53.5 103.5,7.5 90.5,52.5 82.5,21.5 76.5,83.5 66.5,63.5" fill="#C0C0C0" stroke="#000000" stroke-width="1.0" stroke-linecap="butt" stroke-linejoin="round" />
		<text x="183.5" y="69.3" text-anchor="middle" fill="#000000" font-size="49.2px" font-family="sans-serif">rms</text>
		<g id="u" class="port">
			<polygon points="1.5,81.5 41.5,101.5 1.5,121.5" fill="#00007F" stroke="#00007F" stroke-width="1.0" stroke-linecap="butt" stroke-linejoin="round" />
		</g>
		<g id="y" class="port">
			<polygon points="241.5,91.5 261.5,101.5 241.5,111.5" fill="#FFFFFF" stroke="#00007F" stroke-width="1.0" stroke-linecap="butt" stroke-linejoin="round" />
		</g>
		<g id="valid" class="port">
			<polygon points="241.5,151.5 261.5,161.5 241.5,171.5" fill="#FFFFFF" stroke="#FF00FF" stroke-width="1.0" stroke-linecap="butt" stroke-linejoin="round" />
		</g>
	</g>
</svg>
