<svg width="203" height="203" xmlns="http://www.w3.org/2000/svg" xmlns:xlink="http://www.w3.org/1999/xlink">
	<g id="Modelica.Math.Distributions.TruncatedWeibull" class="component">
		<defs>
			<linearGradient id="cyl2" x1="0" y1="0" x2="0" y2="1">
				<stop offset="0%" stop-color="#C8C8C8" />
				<stop offset="5%" stop-color="#D1D1D1" />
				<stop offset="10%" stop-color="#D9D9D9" />
				<stop offset="15%" stop-color="#E0E0E0" />
				<stop offset="20%" stop-color="#E7E7E7" />
				<stop offset="25%" stop-color="#ECECEC" />
				<stop offset="30%" stop-color="#F0F0F0" />
				<stop offset="35%" stop-color="#F4F4F4" />
				<stop offset="40%" stop-color="#F6F6F6" />
				<stop offset="45%" stop-color="#F8F8F8" />
				<stop offset="50%" stop-color="#F8F8F8" />
				<stop offset="55%" stop-color="#F8F8F8" />
				<stop offset="60%" stop-color="#F6F6F6" />
				<stop offset="65%" stop-color="#F4F4F4" />
				<stop offset="70%" stop-color="#F0F0F0" />
				<stop offset="75%" stop-color="#ECECEC" />
				<stop offset="80%" stop-color="#E7E7E7" />
				<stop offset="85%" stop-color="#E0E0E0" />
				<stop offset="90%" stop-color="#D9D9D9" />
				<stop offset="95%" stop-color="#D1D1D1" />
				<stop offset="100%" stop-color="#C8C8C8" />
			</linearGradient>
		</defs>
		<polygon points="8.8,194.2 11.0,196.1 13.3,197.8 15.7,199.1 18.2,200.2 20.8,200.9 23.6,201.4 26.5,201.5 26.5,201.5 50.4,201.5 101.5,201.5 101.5,201.5 152.6,201.5 176.5,201.5 176.5,201.5 179.4,201.4 182.2,200.9 184.8,200.2 187.3,199.1 189.7,197.8 192.0,196.1 194.2,194.2 194.2,194.2 196.1,192.0 197.8,189.7 199.1,187.3 200.2,184.8 200.9,182.2 201.4,179.4 201.5,176.5 201.5,176.5 201.5,152.6 201.5,101.5 201.5,101.5 201.5,50.4 201.5,26.5 201.5,26.5 201.4,23.6 200.9,20.8 200.2,18.2 199.1,15.7 197.8,13.3 196.1,11.0 194.2,8.8 194.2,8.8 192.0,6.9 189.7,5.2 187.3,3.9 184.8,2.8 182.2,2.1 179.4,1.6 176.5,1.5 176.5,1.5 152.6,1.5 101.5,1.5 101.5,1.5 50.4,1.5 26.5,1.5 26.5,1.5 23.6,1.6 20.8,2.1 18.2,2.8 15.7,3.9 13.3,5.2 11.0,6.9 8.8,8.8 8.8,8.8 6.9,11.0 5.2,13.3 3.9,15.7 2.8,18.2 2.1,20.8 1.6,23.6 1.5,26.5 1.5,26.5 1.5,50.4 1.5,101.5 1.5,101.5 1.5,152.6 1.5,176.5 1.5,176.5 1.6,179.4 2.1,182.2 2.8,184.8 3.9,187.3 5.2,189.7 6.9,192.0" fill="url(#cyl2)" stroke="#C8C8C8" stroke-width="1.0" stroke-linecap="butt" stroke-linejoin="round" />
		<polygon points="8.8,194.2 11.0,196.1 13.3,197.8 15.7,199.1 18.2,200.2 20.8,200.9 23.6,201.4 26.5,201.5 26.5,201.5 50.4,201.5 101.5,201.5 101.5,201.5 152.6,201.5 176.5,201.5 176.5,201.5 179.4,201.4 182.2,200.9 184.8,200.2 187.3,199.1 189.7,197.8 192.0,196.1 194.2,194.2 194.2,194.2 196.1,192.0 197.8,189.7 199.1,187.3 200.2,184.8 200.9,182.2 201.4,179.4 201.5,176.5 201.5,176.5 201.5,152.6 201.5,101.5 201.5,101.5 201.5,50.4 201.5,26.5 201.5,26.5 201.4,23.6 200.9,20.8 200.2,18.2 199.1,15.7 197.8,13.3 196.1,11.0 194.2,8.8 194.2,8.8 192.0,6.9 189.7,5.2 187.3,3.9 184.8,2.8 182.2,2.1 179.4,1.6 176.5,1.5 176.5,1.5 152.6,1.5 101.5,1.5 101.5,1.5 50.4,1.5 26.5,1.5 26.5,1.5 23.6,1.6 20.8,2.1 18.2,2.8 15.7,3.9 13.3,5.2 11.0,6.9 8.8,8.8 8.8,8.8 6.9,11.0 5.2,13.3 3.9,15.7 2.8,18.2 2.1,20.8 1.6,23.6 1.5,26.5 1.5,26.5 1.5,50.4 1.5,101.5 1.5,101.5 1.5,152.6 1.5,176.5 1.5,176.5 1.6,179.4 2.1,182.2 2.8,184.8 3.9,187.3 5.2,189.7 6.9,192.0" fill-opacity="0" stroke="#808080" stroke-width="1.0" stroke-linecap="butt" stroke-linejoin="round" />
		<polyline points="29.5,163.5 31.2,163.5 33.0,163.5 34.8,163.5 34.8,163.5 36.5,163.5 38.2,163.5 38.2,163.5 40.0,163.5 41.8,163.5 41.8,163.5 43.5,163.5 45.2,163.5 45.2,163.5 47.0,163.5 48.8,163.5 48.8,163.5 50.5,163.5 52.2,163.5 52.2,163.5 54.0,163.5 55.8,163.5 55.8,163.5 57.5,163.5 59.2,163.5 59.2,163.5 61.0,163.5 62.8,163.5 62.8,163.5 64.5,163.5 66.2,163.5 66.2,163.5 68.0,163.5 69.8,163.5 69.8,163.5 71.5,163.5 73.2,163.5 73.2,163.5 75.0,163.5 76.8,163.5 76.8,163.5 78.5,163.5 80.2,163.5 80.2,163.5 82.0,163.5 83.8,163.5 83.8,163.5 85.5,163.5 87.2,163.5 87.2,163.5 89.0,163.5 90.8,163.5 90.8,163.5 92.5,163.5 94.2,163.5 94.2,163.5 96.0,163.5 97.8,163.5 97.8,163.5 98.0,163.3 98.2,162.6 98.4,161.4 98.7,159.8 98.9,157.8 99.2,155.2 99.4,152.3 99.6,148.8 99.8,144.9 100.1,140.6 100.3,135.8 100.6,130.5 100.8,124.8 101.0,118.6 101.2,111.9 101.2,111.9 102.1,88.5 103.0,69.7 103.9,55.7 104.8,46.3 104.8,46.3 105.3,41.9 105.9,38.1 106.5,34.7 107.1,31.9 107.7,29.7 108.2,27.9 108.2,27.9 109.4,25.6 110.6,24.6 111.8,24.8 111.8,24.8 112.9,26.1 114.1,28.1 115.2,31.0 115.2,31.0 116.1,33.5 117.0,36.3 117.9,39.4 118.8,42.7 118.8,42.7 119.9,47.3 121.1,52.2 122.2,57.2 122.2,57.2 124.0,64.9 125.8,72.7 125.8,72.7 127.5,80.3 129.2,87.8 129.2,87.8 130.4,92.6 131.6,97.3 132.8,101.8 132.8,101.8 133.9,106.1 135.1,110.3 136.2,114.2 136.2,114.2 137.4,117.9 138.6,121.5 139.8,124.8 139.8,124.8 140.6,127.2 141.5,129.4 142.4,131.6 143.2,133.6 145.0,137.6" fill-opacity="0" stroke="#000000" stroke-width="1.0" stroke-linecap="butt" stroke-linejoin="round" />
		<polyline points="145.0,137.5 145.0,164.5" fill-opacity="0" stroke="#000000" stroke-width="1.0" stroke-linecap="butt" stroke-linejoin="round" />
		<polyline points="145.0,164.5 181.0,164.5" fill-opacity="0" stroke="#000000" stroke-width="1.0" stroke-linecap="butt" stroke-linejoin="round" />
	</g>
</svg>
