<svg width="213" height="233" xmlns="http://www.w3.org/2000/svg" xmlns:xlink="http://www.w3.org/1999/xlink">
	<g id="Modelica.Electrical.Machines.Losses.Friction" class="component">
		<polygon points="91.5,231.5 131.5,231.5 131.5,191.5 91.5,191.5" fill="#C0C0C0" stroke="#C0C0C0" stroke-width="1.0" stroke-linecap="round" stroke-linejoin="round" />
		<polygon points="171.5,111.5 171.3,106.3 170.6,101.2 169.5,96.2 168.0,91.2 166.0,86.5 163.7,81.9 160.9,77.5 157.8,73.4 154.4,69.5 150.6,66.0 146.6,62.8 142.2,60.0 137.7,57.5 133.0,55.5 128.1,53.8 123.0,52.6 117.9,51.8 112.8,51.5 107.6,51.6 102.5,52.2 97.4,53.2 92.5,54.6 87.6,56.4 83.0,58.7 78.6,61.3 74.4,64.4 70.5,67.7 66.9,71.4 63.6,75.4 60.6,79.7 58.1,84.1 55.9,88.8 54.2,93.7 52.9,98.7 52.0,103.8 51.6,108.9 51.6,114.1 52.0,119.2 52.9,124.3 54.2,129.3 55.9,134.2 58.1,138.9 60.6,143.3 63.6,147.6 66.9,151.6 70.5,155.3 74.4,158.6 78.6,161.7 83.0,164.3 87.6,166.6 92.5,168.4 97.4,169.8 102.5,170.8 107.6,171.4 112.8,171.5 117.9,171.2 123.0,170.4 128.1,169.2 133.0,167.5 137.7,165.5 142.2,163.0 146.6,160.2 150.6,157.0 154.4,153.5 157.8,149.6 160.9,145.5 163.7,141.1 166.0,136.5 168.0,131.7 169.5,126.8 170.6,121.8 171.3,116.7" fill="#AFAFAF" stroke="#000000" stroke-width="1.0" stroke-linecap="round" stroke-linejoin="round" />
		<polygon points="161.5,111.5 161.3,107.2 160.8,102.9 159.8,98.7 158.6,94.6 156.9,90.6 155.0,86.8 152.7,83.2 150.1,79.7 147.2,76.5 144.1,73.6 140.7,70.9 137.1,68.6 133.3,66.5 129.4,64.8 125.3,63.4 121.1,62.4 116.9,61.8 112.6,61.5 108.3,61.6 104.0,62.1 99.8,62.9 95.6,64.1 91.6,65.6 87.8,67.5 84.1,69.7 80.6,72.2 77.3,75.0 74.3,78.1 71.6,81.4 69.1,85.0 67.0,88.7 65.2,92.6 63.8,96.7 62.7,100.8 61.9,105.1 61.5,109.3 61.5,113.6 61.9,117.9 62.7,122.2 63.8,126.3 65.2,130.4 67.0,134.3 69.1,138.0 71.6,141.6 74.3,144.9 77.3,148.0 80.6,150.8 84.1,153.3 87.8,155.5 91.6,157.4 95.6,158.9 99.8,160.1 104.0,160.9 108.3,161.4 112.6,161.5 116.9,161.2 121.1,160.6 125.3,159.6 129.4,158.2 133.3,156.5 137.1,154.4 140.7,152.1 144.1,149.4 147.2,146.5 150.1,143.3 152.7,139.8 155.0,136.2 156.9,132.4 158.6,128.4 159.8,124.3 160.8,120.1 161.3,115.8" fill="#FFFFFF" stroke="#000000" stroke-width="1.0" stroke-linecap="round" stroke-linejoin="round" />
		<defs>
			<radialGradient id="sph5">
				<stop offset="0%" stop-color="#878787" />
				<stop offset="10%" stop-color="#868686" />
				<stop offset="20%" stop-color="#828282" />
				<stop offset="30%" stop-color="#7B7B7B" />
				<stop offset="40%" stop-color="#717171" />
				<stop offset="50%" stop-color="#656565" />
				<stop offset="60%" stop-color="#565656" />
				<stop offset="70%" stop-color="#454545" />
				<stop offset="80%" stop-color="#313131" />
				<stop offset="90%" stop-color="#1A1A1A" />
				<stop offset="100%" stop-color="#000000" />
			</radialGradient>
		</defs>
		<polygon points="119.5,71.5 119.5,70.6 119.4,69.8 119.2,68.9 118.9,68.1 118.6,67.3 118.2,66.6 117.7,65.8 117.2,65.1 116.6,64.5 116.0,63.9 115.3,63.4 114.6,62.9 113.9,62.5 113.1,62.2 112.3,61.9 111.4,61.7 110.6,61.6 109.7,61.5 108.9,61.5 108.0,61.6 107.2,61.8 106.3,62.0 105.5,62.3 104.8,62.7 104.0,63.1 103.3,63.6 102.7,64.2 102.1,64.8 101.5,65.5 101.0,66.2 100.6,66.9 100.2,67.7 100.0,68.5 99.7,69.4 99.6,70.2 99.5,71.1 99.5,71.9 99.6,72.8 99.7,73.6 100.0,74.5 100.2,75.3 100.6,76.1 101.0,76.8 101.5,77.5 102.1,78.2 102.7,78.8 103.3,79.4 104.0,79.9 104.8,80.3 105.5,80.7 106.3,81.0 107.2,81.2 108.0,81.4 108.9,81.5 109.7,81.5 110.6,81.4 111.4,81.3 112.3,81.1 113.1,80.8 113.9,80.5 114.6,80.1 115.3,79.6 116.0,79.1 116.6,78.5 117.2,77.9 117.7,77.2 118.2,76.4 118.6,75.7 118.9,74.9 119.2,74.1 119.4,73.2 119.5,72.4" fill="url(#sph5)" stroke="#000000" stroke-width="1.0" stroke-linecap="round" stroke-linejoin="round" />
		<defs>
			<radialGradient id="sph6">
				<stop offset="0%" stop-color="#878787" />
				<stop offset="10%" stop-color="#868686" />
				<stop offset="20%" stop-color="#828282" />
				<stop offset="30%" stop-color="#7B7B7B" />
				<stop offset="40%" stop-color="#717171" />
				<stop offset="50%" stop-color="#656565" />
				<stop offset="60%" stop-color="#565656" />
				<stop offset="70%" stop-color="#454545" />
				<stop offset="80%" stop-color="#313131" />
				<stop offset="90%" stop-color="#1A1A1A" />
				<stop offset="100%" stop-color="#000000" />
			</radialGradient>
		</defs>
		<polygon points="121.5,151.5 121.5,150.6 121.4,149.8 121.2,148.9 120.9,148.1 120.6,147.3 120.2,146.6 119.7,145.8 119.2,145.1 118.6,144.5 118.0,143.9 117.3,143.4 116.6,142.9 115.9,142.5 115.1,142.2 114.3,141.9 113.4,141.7 112.6,141.6 111.7,141.5 110.9,141.5 110.0,141.6 109.2,141.8 108.3,142.0 107.5,142.3 106.8,142.7 106.0,143.1 105.3,143.6 104.7,144.2 104.1,144.8 103.5,145.5 103.0,146.2 102.6,146.9 102.2,147.7 102.0,148.5 101.7,149.4 101.6,150.2 101.5,151.1 101.5,151.9 101.6,152.8 101.7,153.6 102.0,154.5 102.2,155.3 102.6,156.1 103.0,156.8 103.5,157.5 104.1,158.2 104.7,158.8 105.3,159.4 106.0,159.9 106.8,160.3 107.5,160.7 108.3,161.0 109.2,161.2 110.0,161.4 110.9,161.5 111.7,161.5 112.6,161.4 113.4,161.3 114.3,161.1 115.1,160.8 115.9,160.5 116.6,160.1 117.3,159.6 118.0,159.1 118.6,158.5 119.2,157.9 119.7,157.2 120.2,156.4 120.6,155.7 120.9,154.9 121.2,154.1 121.4,153.2 121.5,152.4" fill="url(#sph6)" stroke="#000000" stroke-width="1.0" stroke-linecap="round" stroke-linejoin="round" />
		<defs>
			<radialGradient id="sph7">
				<stop offset="0%" stop-color="#878787" />
				<stop offset="10%" stop-color="#868686" />
				<stop offset="20%" stop-color="#828282" />
				<stop offset="30%" stop-color="#7B7B7B" />
				<stop offset="40%" stop-color="#717171" />
				<stop offset="50%" stop-color="#656565" />
				<stop offset="60%" stop-color="#565656" />
				<stop offset="70%" stop-color="#454545" />
				<stop offset="80%" stop-color="#313131" />
				<stop offset="90%" stop-color="#1A1A1A" />
				<stop offset="100%" stop-color="#000000" />
			</radialGradient>
		</defs>
		<polygon points="155.5,131.5 155.5,130.6 155.4,129.8 155.2,128.9 154.9,128.1 154.6,127.3 154.2,126.6 153.7,125.8 153.2,125.1 152.6,124.5 152.0,123.9 151.3,123.4 150.6,122.9 149.9,122.5 149.1,122.2 148.3,121.9 147.4,121.7 146.6,121.6 145.7,121.5 144.9,121.5 144.0,121.6 143.2,121.8 142.3,122.0 141.5,122.3 140.8,122.7 140.0,123.1 139.3,123.6 138.7,124.2 138.1,124.8 137.5,125.5 137.0,126.2 136.6,126.9 136.2,127.7 136.0,128.5 135.7,129.4 135.6,130.2 135.5,131.1 135.5,131.9 135.6,132.8 135.7,133.6 136.0,134.5 136.2,135.3 136.6,136.1 137.0,136.8 137.5,137.5 138.1,138.2 138.7,138.8 139.3,139.4 140.0,139.9 140.8,140.3 141.5,140.7 142.3,141.0 143.2,141.2 144.0,141.4 144.9,141.5 145.7,141.5 146.6,141.4 147.4,141.3 148.3,141.1 149.1,140.8 149.9,140.5 150.6,140.1 151.3,139.6 152.0,139.1 152.6,138.5 153.2,137.9 153.7,137.2 154.2,136.4 154.6,135.7 154.9,134.9 155.2,134.1 155.4,133.2 155.5,132.4" fill="url(#sph7)" stroke="#000000" stroke-width="1.0" stroke-linecap="round" stroke-linejoin="round" />
		<defs>
			<radialGradient id="sph8">
				<stop offset="0%" stop-color="#878787" />
				<stop offset="10%" stop-color="#868686" />
				<stop offset="20%" stop-color="#828282" />
				<stop offset="30%" stop-color="#7B7B7B" />
				<stop offset="40%" stop-color="#717171" />
				<stop offset="50%" stop-color="#656565" />
				<stop offset="60%" stop-color="#565656" />
				<stop offset="70%" stop-color="#454545" />
				<stop offset="80%" stop-color="#313131" />
				<stop offset="90%" stop-color="#1A1A1A" />
				<stop offset="100%" stop-color="#000000" />
			</radialGradient>
		</defs>
		<polygon points="153.5,87.5 153.5,86.6 153.4,85.8 153.2,84.9 152.9,84.1 152.6,83.3 152.2,82.6 151.7,81.8 151.2,81.1 150.6,80.5 150.0,79.9 149.3,79.4 148.6,78.9 147.9,78.5 147.1,78.2 146.3,77.9 145.4,77.7 144.6,77.6 143.7,77.5 142.9,77.5 142.0,77.6 141.2,77.8 140.3,78.0 139.5,78.3 138.8,78.7 138.0,79.1 137.3,79.6 136.7,80.2 136.1,80.8 135.5,81.5 135.0,82.2 134.6,82.9 134.2,83.7 134.0,84.5 133.7,85.4 133.6,86.2 133.5,87.1 133.5,87.9 133.6,88.8 133.7,89.6 134.0,90.5 134.2,91.3 134.6,92.1 135.0,92.8 135.5,93.5 136.1,94.2 136.7,94.8 137.3,95.4 138.0,95.9 138.8,96.3 139.5,96.7 140.3,97.0 141.2,97.2 142.0,97.4 142.9,97.5 143.7,97.5 144.6,97.4 145.4,97.3 146.3,97.1 147.1,96.8 147.9,96.5 148.6,96.1 149.3,95.6 150.0,95.1 150.6,94.5 151.2,93.9 151.7,93.2 152.2,92.4 152.6,91.7 152.9,90.9 153.2,90.1 153.4,89.2 153.5,88.4" fill="url(#sph8)" stroke="#000000" stroke-width="1.0" stroke-linecap="round" stroke-linejoin="round" />
		<defs>
			<radialGradient id="sph9">
				<stop offset="0%" stop-color="#878787" />
				<stop offset="10%" stop-color="#868686" />
				<stop offset="20%" stop-color="#828282" />
				<stop offset="30%" stop-color="#7B7B7B" />
				<stop offset="40%" stop-color="#717171" />
				<stop offset="50%" stop-color="#656565" />
				<stop offset="60%" stop-color="#565656" />
				<stop offset="70%" stop-color="#454545" />
				<stop offset="80%" stop-color="#313131" />
				<stop offset="90%" stop-color="#1A1A1A" />
				<stop offset="100%" stop-color="#000000" />
			</radialGradient>
		</defs>
		<polygon points="87.5,91.5 87.5,90.6 87.4,89.8 87.2,88.9 86.9,88.1 86.6,87.3 86.2,86.6 85.7,85.8 85.2,85.1 84.6,84.5 84.0,83.9 83.3,83.4 82.6,82.9 81.9,82.5 81.1,82.2 80.3,81.9 79.4,81.7 78.6,81.6 77.7,81.5 76.9,81.5 76.0,81.6 75.2,81.8 74.3,82.0 73.5,82.3 72.8,82.7 72.0,83.1 71.3,83.6 70.7,84.2 70.1,84.8 69.5,85.5 69.0,86.2 68.6,86.9 68.2,87.7 68.0,88.5 67.7,89.4 67.6,90.2 67.5,91.1 67.5,91.9 67.6,92.8 67.7,93.6 68.0,94.5 68.2,95.3 68.6,96.1 69.0,96.8 69.5,97.5 70.1,98.2 70.7,98.8 71.3,99.4 72.0,99.9 72.8,100.3 73.5,100.7 74.3,101.0 75.2,101.2 76.0,101.4 76.9,101.5 77.7,101.5 78.6,101.4 79.4,101.3 80.3,101.1 81.1,100.8 81.9,100.5 82.6,100.1 83.3,99.6 84.0,99.1 84.6,98.5 85.2,97.9 85.7,97.2 86.2,96.4 86.6,95.7 86.9,94.9 87.2,94.1 87.4,93.2 87.5,92.4" fill="url(#sph9)" stroke="#000000" stroke-width="1.0" stroke-linecap="round" stroke-linejoin="round" />
		<defs>
			<radialGradient id="sph10">
				<stop offset="0%" stop-color="#878787" />
				<stop offset="10%" stop-color="#868686" />
				<stop offset="20%" stop-color="#828282" />
				<stop offset="30%" stop-color="#7B7B7B" />
				<stop offset="40%" stop-color="#717171" />
				<stop offset="50%" stop-color="#656565" />
				<stop offset="60%" stop-color="#565656" />
				<stop offset="70%" stop-color="#454545" />
				<stop offset="80%" stop-color="#313131" />
				<stop offset="90%" stop-color="#1A1A1A" />
				<stop offset="100%" stop-color="#000000" />
			</radialGradient>
		</defs>
		<polygon points="87.5,133.5 87.5,132.6 87.4,131.8 87.2,130.9 86.9,130.1 86.6,129.3 86.2,128.6 85.7,127.8 85.2,127.1 84.6,126.5 84.0,125.9 83.3,125.4 82.6,124.9 81.9,124.5 81.1,124.2 80.3,123.9 79.4,123.7 78.6,123.6 77.7,123.5 76.9,123.5 76.0,123.6 75.2,123.8 74.3,124.0 73.5,124.3 72.8,124.7 72.0,125.1 71.3,125.6 70.7,126.2 70.1,126.8 69.5,127.5 69.0,128.2 68.6,128.9 68.2,129.7 68.0,130.5 67.7,131.4 67.6,132.2 67.5,133.1 67.5,133.9 67.6,134.8 67.7,135.6 68.0,136.5 68.2,137.3 68.6,138.1 69.0,138.8 69.5,139.5 70.1,140.2 70.7,140.8 71.3,141.4 72.0,141.9 72.8,142.3 73.5,142.7 74.3,143.0 75.2,143.2 76.0,143.4 76.9,143.5 77.7,143.5 78.6,143.4 79.4,143.3 80.3,143.1 81.1,142.8 81.9,142.5 82.6,142.1 83.3,141.6 84.0,141.1 84.6,140.5 85.2,139.9 85.7,139.2 86.2,138.4 86.6,137.7 86.9,136.9 87.2,136.1 87.4,135.2 87.5,134.4" fill="url(#sph10)" stroke="#000000" stroke-width="1.0" stroke-linecap="round" stroke-linejoin="round" />
		<polygon points="141.5,111.5 141.4,108.9 141.1,106.4 140.5,103.8 139.7,101.4 138.8,99.0 137.6,96.7 136.2,94.5 134.7,92.4 132.9,90.5 131.1,88.7 129.0,87.2 126.9,85.7 124.6,84.5 122.2,83.5 119.8,82.7 117.3,82.1 114.7,81.7 112.1,81.5 109.6,81.6 107.0,81.8 104.5,82.3 102.0,83.0 99.6,84.0 97.3,85.1 95.0,86.4 92.9,87.9 91.0,89.6 89.2,91.5 87.5,93.4 86.1,95.6 84.8,97.8 83.7,100.2 82.9,102.6 82.2,105.1 81.7,107.6 81.5,110.2 81.5,112.8 81.7,115.4 82.2,117.9 82.9,120.4 83.7,122.8 84.8,125.2 86.1,127.4 87.5,129.5 89.2,131.5 91.0,133.4 92.9,135.1 95.0,136.6 97.3,137.9 99.6,139.0 102.0,139.9 104.5,140.7 107.0,141.2 109.6,141.4 112.1,141.5 114.7,141.3 117.3,140.9 119.8,140.3 122.2,139.5 124.6,138.5 126.9,137.3 129.0,135.8 131.1,134.2 132.9,132.5 134.7,130.6 136.2,128.5 137.6,126.3 138.8,124.0 139.7,121.6 140.5,119.2 141.1,116.6 141.4,114.1" fill="#AFAFAF" stroke="#000000" stroke-width="1.0" stroke-linecap="round" stroke-linejoin="round" />
		<polygon points="131.5,111.5 131.4,109.8 131.2,108.1 130.8,106.4 130.3,104.7 129.7,103.2 128.9,101.6 128.0,100.2 126.9,98.8 125.8,97.5 124.5,96.3 123.2,95.3 121.7,94.3 120.2,93.5 118.7,92.8 117.0,92.3 115.3,91.9 113.6,91.6 111.9,91.5 110.2,91.5 108.5,91.7 106.8,92.1 105.2,92.5 103.5,93.1 102.0,93.9 100.5,94.8 99.1,95.8 97.8,96.9 96.6,98.1 95.5,99.5 94.5,100.9 93.7,102.4 93.0,103.9 92.4,105.6 92.0,107.2 91.7,108.9 91.5,110.6 91.5,112.4 91.7,114.1 92.0,115.8 92.4,117.4 93.0,119.1 93.7,120.6 94.5,122.1 95.5,123.5 96.6,124.9 97.8,126.1 99.1,127.2 100.5,128.2 102.0,129.1 103.5,129.8 105.2,130.5 106.8,130.9 108.5,131.3 110.2,131.5 111.9,131.5 113.6,131.4 115.3,131.1 117.0,130.7 118.7,130.2 120.2,129.5 121.7,128.7 123.2,127.7 124.5,126.7 125.8,125.5 126.9,124.2 128.0,122.8 128.9,121.4 129.7,119.8 130.3,118.2 130.8,116.6 131.2,114.9 131.4,113.2" fill="#FFFFFF" stroke="#000000" stroke-width="1.0" stroke-linecap="round" stroke-linejoin="round" />
		<polyline points="111.5,21.5 111.5,111.5" fill-opacity="0" stroke="#5F5F5F" stroke-width="1.0" stroke-linecap="round" stroke-linejoin="round" />
		<polyline points="111.5,171.5 111.5,201.5" fill-opacity="0" stroke="#5F5F5F" stroke-width="1.0" stroke-linecap="round" stroke-linejoin="round" />
		<g id="flange" class="port">
			<polygon points="121.5,11.5 121.5,12.4 121.4,13.2 121.2,14.1 120.9,14.9 120.6,15.7 120.2,16.4 119.7,17.2 119.2,17.9 118.6,18.5 118.0,19.1 117.3,19.6 116.6,20.1 115.9,20.5 115.1,20.8 114.3,21.1 113.4,21.3 112.6,21.4 111.7,21.5 110.9,21.5 110.0,21.4 109.2,21.2 108.3,21.0 107.5,20.7 106.8,20.3 106.0,19.9 105.3,19.4 104.7,18.8 104.1,18.2 103.5,17.5 103.0,16.8 102.6,16.1 102.2,15.3 102.0,14.5 101.7,13.6 101.6,12.8 101.5,11.9 101.5,11.1 101.6,10.2 101.7,9.4 102.0,8.5 102.2,7.7 102.6,6.9 103.0,6.2 103.5,5.5 104.1,4.8 104.7,4.2 105.3,3.6 106.0,3.1 106.8,2.7 107.5,2.3 108.3,2.0 109.2,1.8 110.0,1.6 110.9,1.5 111.7,1.5 112.6,1.6 113.4,1.7 114.3,1.9 115.1,2.2 115.9,2.5 116.6,2.9 117.3,3.4 118.0,3.9 118.6,4.5 119.2,5.1 119.7,5.8 120.2,6.6 120.6,7.3 120.9,8.1 121.2,8.9 121.4,9.8 121.5,10.6" fill="#5F5F5F" stroke="#000000" stroke-width="1.0" stroke-linecap="round" stroke-linejoin="round" />
		</g>
		<g id="support" class="port">
			<polygon points="121.5,211.5 121.5,210.6 121.4,209.8 121.2,208.9 120.9,208.1 120.6,207.3 120.2,206.6 119.7,205.8 119.2,205.1 118.6,204.5 118.0,203.9 117.3,203.4 116.6,202.9 115.9,202.5 115.1,202.2 114.3,201.9 113.4,201.7 112.6,201.6 111.7,201.5 110.9,201.5 110.0,201.6 109.2,201.8 108.3,202.0 107.5,202.3 106.8,202.7 106.0,203.1 105.3,203.6 104.7,204.2 104.1,204.8 103.5,205.5 103.0,206.2 102.6,206.9 102.2,207.7 102.0,208.5 101.7,209.4 101.6,210.2 101.5,211.1 101.5,211.9 101.6,212.8 101.7,213.6 102.0,214.5 102.2,215.3 102.6,216.1 103.0,216.8 103.5,217.5 104.1,218.2 104.7,218.8 105.3,219.4 106.0,219.9 106.8,220.3 107.5,220.7 108.3,221.0 109.2,221.2 110.0,221.4 110.9,221.5 111.7,221.5 112.6,221.4 113.4,221.3 114.3,221.1 115.1,220.8 115.9,220.5 116.6,220.1 117.3,219.6 118.0,219.1 118.6,218.5 119.2,217.9 119.7,217.2 120.2,216.4 120.6,215.7 120.9,214.9 121.2,214.1 121.4,213.2 121.5,212.4" fill="#5F5F5F" stroke="#000000" stroke-width="1.0" stroke-linecap="round" stroke-linejoin="round" />
		</g>
		<g id="heatPort" class="port">
			<polygon points="1.5,221.5 21.5,221.5 21.5,201.5 1.5,201.5" fill="#BF0000" stroke="#BF0000" stroke-width="1.0" stroke-linecap="round" stroke-linejoin="round" />
		</g>
	</g>
</svg>
