<svg width="223" height="203" xmlns="http://www.w3.org/2000/svg" xmlns:xlink="http://www.w3.org/1999/xlink">
	<g id="Modelica.Media.Examples.Utilities.FixedMassFlowRate" class="component">
		<defs>
			<linearGradient id="cyl2" x1="0" y1="0" x2="0" y2="1">
				<stop offset="0%" stop-color="#000000" />
				<stop offset="5%" stop-color="#242424" />
				<stop offset="10%" stop-color="#454545" />
				<stop offset="15%" stop-color="#626262" />
				<stop offset="20%" stop-color="#7B7B7B" />
				<stop offset="25%" stop-color="#909090" />
				<stop offset="30%" stop-color="#A1A1A1" />
				<stop offset="35%" stop-color="#AFAFAF" />
				<stop offset="40%" stop-color="#B8B8B8" />
				<stop offset="45%" stop-color="#BEBEBE" />
				<stop offset="50%" stop-color="#C0C0C0" />
				<stop offset="55%" stop-color="#BEBEBE" />
				<stop offset="60%" stop-color="#B8B8B8" />
				<stop offset="65%" stop-color="#AFAFAF" />
				<stop offset="70%" stop-color="#A1A1A1" />
				<stop offset="75%" stop-color="#909090" />
				<stop offset="80%" stop-color="#7B7B7B" />
				<stop offset="85%" stop-color="#626262" />
				<stop offset="90%" stop-color="#454545" />
				<stop offset="95%" stop-color="#242424" />
				<stop offset="100%" stop-color="#000000" />
			</linearGradient>
		</defs>
		<polygon points="121.5,161.5 201.5,161.5 201.5,41.5 121.5,41.5" fill="url(#cyl2)" stroke="#000000" stroke-width="1.0" stroke-linecap="round" stroke-linejoin="round" />
		<defs>
			<linearGradient id="cyl3" x1="0" y1="0" x2="0" y2="1">
				<stop offset="0%" stop-color="#000000" />
				<stop offset="5%" stop-color="#001830" />
				<stop offset="10%" stop-color="#002E5C" />
				<stop offset="15%" stop-color="#004182" />
				<stop offset="20%" stop-color="#0051A3" />
				<stop offset="25%" stop-color="#005FBF" />
				<stop offset="30%" stop-color="#006BD6" />
				<stop offset="35%" stop-color="#0074E8" />
				<stop offset="40%" stop-color="#007AF5" />
				<stop offset="45%" stop-color="#007EFC" />
				<stop offset="50%" stop-color="#007FFF" />
				<stop offset="55%" stop-color="#007EFC" />
				<stop offset="60%" stop-color="#007AF5" />
				<stop offset="65%" stop-color="#0074E8" />
				<stop offset="70%" stop-color="#006BD6" />
				<stop offset="75%" stop-color="#005FBF" />
				<stop offset="80%" stop-color="#0051A3" />
				<stop offset="85%" stop-color="#004182" />
				<stop offset="90%" stop-color="#002E5C" />
				<stop offset="95%" stop-color="#001830" />
				<stop offset="100%" stop-color="#000000" />
			</linearGradient>
		</defs>
		<polygon points="139.5,141.5 201.5,141.5 201.5,61.5 139.5,61.5" fill="url(#cyl3)" stroke="#000000" stroke-width="1.0" stroke-linecap="round" stroke-linejoin="round" />
		<polygon points="161.5,101.5 161.2,94.6 160.3,87.8 158.8,81.1 156.8,74.5 154.2,68.1 151.1,62.0 147.4,56.2 143.3,50.7 138.7,45.5 133.7,40.8 128.2,36.6 122.5,32.8 116.4,29.5 110.1,26.8 103.6,24.6 96.9,23.0 90.1,22.0 83.2,21.5 76.3,21.7 69.5,22.4 62.7,23.7 56.1,25.6 49.7,28.1 43.5,31.1 37.6,34.6 32.0,38.6 26.8,43.1 22.0,48.1 17.6,53.4 13.7,59.0 10.3,65.0 7.4,71.3 5.1,77.8 3.3,84.4 2.2,91.2 1.6,98.1 1.6,104.9 2.2,111.8 3.3,118.6 5.1,125.2 7.4,131.7 10.3,138.0 13.7,144.0 17.6,149.6 22.0,154.9 26.8,159.9 32.0,164.4 37.6,168.4 43.5,171.9 49.7,174.9 56.1,177.4 62.7,179.3 69.5,180.6 76.3,181.3 83.2,181.5 90.1,181.0 96.9,180.0 103.6,178.4 110.1,176.2 116.4,173.5 122.5,170.2 128.2,166.4 133.7,162.2 138.7,157.5 143.3,152.3 147.4,146.8 151.1,141.0 154.2,134.9 156.8,128.5 158.8,121.9 160.3,115.2 161.2,108.4" fill="#FFFFFF" stroke="#0000FF" stroke-width="1.0" stroke-linecap="round" stroke-linejoin="round" />
		<polygon points="41.5,31.5 161.5,101.5 41.5,169.5" fill="#0000FF" stroke="#0000FF" stroke-width="1.0" stroke-linecap="round" stroke-linejoin="round" />
		<text x="82.5" y="130.0" text-anchor="middle" fill="#FF0000" font-size="82.4px" font-family="sans-serif">m</text>
		<polygon points="83.5,75.5 83.5,75.2 83.4,74.8 83.4,74.5 83.3,74.1 83.1,73.8 83.0,73.5 82.8,73.2 82.6,73.0 82.4,72.7 82.1,72.5 81.8,72.3 81.5,72.1 81.2,71.9 80.9,71.8 80.6,71.7 80.3,71.6 79.9,71.5 79.6,71.5 79.2,71.5 78.9,71.5 78.6,71.6 78.2,71.7 77.9,71.8 77.6,72.0 77.3,72.2 77.0,72.4 76.8,72.6 76.5,72.8 76.3,73.1 76.1,73.4 75.9,73.7 75.8,74.0 75.7,74.3 75.6,74.6 75.5,75.0 75.5,75.3 75.5,75.7 75.5,76.0 75.6,76.4 75.7,76.7 75.8,77.0 75.9,77.3 76.1,77.6 76.3,77.9 76.5,78.2 76.8,78.4 77.0,78.6 77.3,78.8 77.6,79.0 77.9,79.2 78.2,79.3 78.6,79.4 78.9,79.5 79.2,79.5 79.6,79.5 79.9,79.5 80.3,79.4 80.6,79.3 80.9,79.2 81.2,79.1 81.5,78.9 81.8,78.7 82.1,78.5 82.4,78.3 82.6,78.0 82.8,77.8 83.0,77.5 83.1,77.2 83.3,76.9 83.4,76.5 83.4,76.2 83.5,75.8" fill="#FF0000" stroke="#FF0000" stroke-width="1.0" stroke-linecap="round" stroke-linejoin="round" />
		<g id="port" class="port">
			<polygon points="221.5,101.5 221.5,100.6 221.4,99.8 221.2,98.9 220.9,98.1 220.6,97.3 220.2,96.6 219.7,95.8 219.2,95.1 218.6,94.5 218.0,93.9 217.3,93.4 216.6,92.9 215.9,92.5 215.1,92.2 214.3,91.9 213.4,91.7 212.6,91.6 211.7,91.5 210.9,91.5 210.0,91.6 209.2,91.8 208.3,92.0 207.5,92.3 206.8,92.7 206.0,93.1 205.3,93.6 204.7,94.2 204.1,94.8 203.5,95.5 203.0,96.2 202.6,96.9 202.2,97.7 202.0,98.5 201.7,99.4 201.6,100.2 201.5,101.1 201.5,101.9 201.6,102.8 201.7,103.6 202.0,104.5 202.2,105.3 202.6,106.1 203.0,106.8 203.5,107.5 204.1,108.2 204.7,108.8 205.3,109.4 206.0,109.9 206.8,110.3 207.5,110.7 208.3,111.0 209.2,111.2 210.0,111.4 210.9,111.5 211.7,111.5 212.6,111.4 213.4,111.3 214.3,111.1 215.1,110.8 215.9,110.5 216.6,110.1 217.3,109.6 218.0,109.1 218.6,108.5 219.2,107.9 219.7,107.2 220.2,106.4 220.6,105.7 220.9,104.9 221.2,104.1 221.4,103.2 221.5,102.4" fill="#007FFF" stroke="#007FFF" stroke-width="1.0" stroke-linecap="round" stroke-linejoin="round" />
			<polygon points="221.5,101.5 221.5,100.6 221.4,99.8 221.2,98.9 220.9,98.1 220.6,97.3 220.2,96.6 219.7,95.8 219.2,95.1 218.6,94.5 218.0,93.9 217.3,93.4 216.6,92.9 215.9,92.5 215.1,92.2 214.3,91.9 213.4,91.7 212.6,91.6 211.7,91.5 210.9,91.5 210.0,91.6 209.2,91.8 208.3,92.0 207.5,92.3 206.8,92.7 206.0,93.1 205.3,93.6 204.7,94.2 204.1,94.8 203.5,95.5 203.0,96.2 202.6,96.9 202.2,97.7 202.0,98.5 201.7,99.4 201.6,100.2 201.5,101.1 201.5,101.9 201.6,102.8 201.7,103.6 202.0,104.5 202.2,105.3 202.6,106.1 203.0,106.8 203.5,107.5 204.1,108.2 204.7,108.8 205.3,109.4 206.0,109.9 206.8,110.3 207.5,110.7 208.3,111.0 209.2,111.2 210.0,111.4 210.9,111.5 211.7,111.5 212.6,111.4 213.4,111.3 214.3,111.1 215.1,110.8 215.9,110.5 216.6,110.1 217.3,109.6 218.0,109.1 218.6,108.5 219.2,107.9 219.7,107.2 220.2,106.4 220.6,105.7 220.9,104.9 221.2,104.1 221.4,103.2 221.5,102.4" fill="#007FFF" stroke="#000000" stroke-width="1.0" stroke-linecap="round" stroke-linejoin="round" />
			<polygon points="219.5,101.5 219.5,100.8 219.4,100.1 219.2,99.5 219.0,98.8 218.8,98.2 218.5,97.5 218.1,97.0 217.7,96.4 217.2,95.9 216.7,95.4 216.2,95.0 215.6,94.6 215.0,94.3 214.4,94.0 213.7,93.8 213.0,93.6 212.4,93.5 211.7,93.5 211.0,93.5 210.3,93.6 209.6,93.7 209.0,93.9 208.3,94.2 207.7,94.5 207.1,94.8 206.6,95.2 206.0,95.7 205.5,96.2 205.1,96.7 204.7,97.3 204.4,97.9 204.1,98.5 203.9,99.1 203.7,99.8 203.6,100.5 203.5,101.2 203.5,101.8 203.6,102.5 203.7,103.2 203.9,103.9 204.1,104.5 204.4,105.1 204.7,105.7 205.1,106.3 205.5,106.8 206.0,107.3 206.6,107.8 207.1,108.2 207.7,108.5 208.3,108.8 209.0,109.1 209.6,109.3 210.3,109.4 211.0,109.5 211.7,109.5 212.4,109.5 213.0,109.4 213.7,109.2 214.4,109.0 215.0,108.7 215.6,108.4 216.2,108.0 216.7,107.6 217.2,107.1 217.7,106.6 218.1,106.0 218.5,105.5 218.8,104.8 219.0,104.2 219.2,103.5 219.4,102.9 219.5,102.2" fill="#FFFFFF" stroke="#007FFF" stroke-width="1.0" stroke-linecap="round" stroke-linejoin="round" />
		</g>
	</g>
</svg>
