<svg width="223" height="243" xmlns="http://www.w3.org/2000/svg" xmlns:xlink="http://www.w3.org/1999/xlink">
	<g id="Modelica.Mechanics.Rotational.Components.Clutch" class="component">
		<defs>
			<linearGradient id="cyl2" x1="0" y1="0" x2="0" y2="1">
				<stop offset="0%" stop-color="#404040" />
				<stop offset="5%" stop-color="#585858" />
				<stop offset="10%" stop-color="#6E6E6E" />
				<stop offset="15%" stop-color="#818181" />
				<stop offset="20%" stop-color="#929292" />
				<stop offset="25%" stop-color="#A0A0A0" />
				<stop offset="30%" stop-color="#ACACAC" />
				<stop offset="35%" stop-color="#B4B4B4" />
				<stop offset="40%" stop-color="#BBBBBB" />
				<stop offset="45%" stop-color="#BFBFBF" />
				<stop offset="50%" stop-color="#C0C0C0" />
				<stop offset="55%" stop-color="#BFBFBF" />
				<stop offset="60%" stop-color="#BBBBBB" />
				<stop offset="65%" stop-color="#B4B4B4" />
				<stop offset="70%" stop-color="#ACACAC" />
				<stop offset="75%" stop-color="#A0A0A0" />
				<stop offset="80%" stop-color="#929292" />
				<stop offset="85%" stop-color="#818181" />
				<stop offset="90%" stop-color="#6E6E6E" />
				<stop offset="95%" stop-color="#585858" />
				<stop offset="100%" stop-color="#404040" />
			</linearGradient>
		</defs>
		<polygon points="11.5,141.5 81.5,141.5 81.5,121.5 11.5,121.5" fill="url(#cyl2)" stroke="#404040" stroke-width="1.0" stroke-linecap="butt" stroke-linejoin="round" />
		<defs>
			<linearGradient id="cyl3" x1="0" y1="0" x2="0" y2="1">
				<stop offset="0%" stop-color="#404040" />
				<stop offset="5%" stop-color="#646464" />
				<stop offset="10%" stop-color="#858585" />
				<stop offset="15%" stop-color="#A1A1A1" />
				<stop offset="20%" stop-color="#BABABA" />
				<stop offset="25%" stop-color="#CFCFCF" />
				<stop offset="30%" stop-color="#E0E0E0" />
				<stop offset="35%" stop-color="#EEEEEE" />
				<stop offset="40%" stop-color="#F7F7F7" />
				<stop offset="45%" stop-color="#FDFDFD" />
				<stop offset="50%" stop-color="#FFFFFF" />
				<stop offset="55%" stop-color="#FDFDFD" />
				<stop offset="60%" stop-color="#F7F7F7" />
				<stop offset="65%" stop-color="#EEEEEE" />
				<stop offset="70%" stop-color="#E0E0E0" />
				<stop offset="75%" stop-color="#CFCFCF" />
				<stop offset="80%" stop-color="#BABABA" />
				<stop offset="85%" stop-color="#A1A1A1" />
				<stop offset="90%" stop-color="#858585" />
				<stop offset="95%" stop-color="#646464" />
				<stop offset="100%" stop-color="#404040" />
			</linearGradient>
		</defs>
		<polygon points="81.5,191.5 101.5,191.5 101.5,71.5 81.5,71.5" fill="url(#cyl3)" stroke="#404040" stroke-width="1.0" stroke-linecap="butt" stroke-linejoin="round" />
		<polygon points="81.5,191.5 101.5,191.5 101.5,71.5 81.5,71.5" fill-opacity="0" stroke="#404040" stroke-width="1.0" stroke-linecap="butt" stroke-linejoin="round" />
		<defs>
			<linearGradient id="cyl5" x1="0" y1="0" x2="0" y2="1">
				<stop offset="0%" stop-color="#404040" />
				<stop offset="5%" stop-color="#646464" />
				<stop offset="10%" stop-color="#858585" />
				<stop offset="15%" stop-color="#A1A1A1" />
				<stop offset="20%" stop-color="#BABABA" />
				<stop offset="25%" stop-color="#CFCFCF" />
				<stop offset="30%" stop-color="#E0E0E0" />
				<stop offset="35%" stop-color="#EEEEEE" />
				<stop offset="40%" stop-color="#F7F7F7" />
				<stop offset="45%" stop-color="#FDFDFD" />
				<stop offset="50%" stop-color="#FFFFFF" />
				<stop offset="55%" stop-color="#FDFDFD" />
				<stop offset="60%" stop-color="#F7F7F7" />
				<stop offset="65%" stop-color="#EEEEEE" />
				<stop offset="70%" stop-color="#E0E0E0" />
				<stop offset="75%" stop-color="#CFCFCF" />
				<stop offset="80%" stop-color="#BABABA" />
				<stop offset="85%" stop-color="#A1A1A1" />
				<stop offset="90%" stop-color="#858585" />
				<stop offset="95%" stop-color="#646464" />
				<stop offset="100%" stop-color="#404040" />
			</linearGradient>
		</defs>
		<polygon points="121.5,191.5 141.5,191.5 141.5,71.5 121.5,71.5" fill="url(#cyl5)" stroke="#404040" stroke-width="1.0" stroke-linecap="butt" stroke-linejoin="round" />
		<polygon points="121.5,191.5 141.5,191.5 141.5,71.5 121.5,71.5" fill-opacity="0" stroke="#404040" stroke-width="1.0" stroke-linecap="butt" stroke-linejoin="round" />
		<defs>
			<linearGradient id="cyl7" x1="0" y1="0" x2="0" y2="1">
				<stop offset="0%" stop-color="#404040" />
				<stop offset="5%" stop-color="#585858" />
				<stop offset="10%" stop-color="#6E6E6E" />
				<stop offset="15%" stop-color="#818181" />
				<stop offset="20%" stop-color="#929292" />
				<stop offset="25%" stop-color="#A0A0A0" />
				<stop offset="30%" stop-color="#ACACAC" />
				<stop offset="35%" stop-color="#B4B4B4" />
				<stop offset="40%" stop-color="#BBBBBB" />
				<stop offset="45%" stop-color="#BFBFBF" />
				<stop offset="50%" stop-color="#C0C0C0" />
				<stop offset="55%" stop-color="#BFBFBF" />
				<stop offset="60%" stop-color="#BBBBBB" />
				<stop offset="65%" stop-color="#B4B4B4" />
				<stop offset="70%" stop-color="#ACACAC" />
				<stop offset="75%" stop-color="#A0A0A0" />
				<stop offset="80%" stop-color="#929292" />
				<stop offset="85%" stop-color="#818181" />
				<stop offset="90%" stop-color="#6E6E6E" />
				<stop offset="95%" stop-color="#585858" />
				<stop offset="100%" stop-color="#404040" />
			</linearGradient>
		</defs>
		<polygon points="141.5,141.5 211.5,141.5 211.5,121.5 141.5,121.5" fill="url(#cyl7)" stroke="#404040" stroke-width="1.0" stroke-linecap="butt" stroke-linejoin="round" />
		<polygon points="81.5,91.5 51.5,81.5 51.5,101.5" fill="#00007F" stroke="#00007F" stroke-width="1.0" stroke-linecap="butt" stroke-linejoin="round" />
		<polygon points="141.5,91.5 171.5,81.5 171.5,101.5" fill="#00007F" stroke="#00007F" stroke-width="1.0" stroke-linecap="butt" stroke-linejoin="round" />
		<polyline points="111.5,41.5 201.5,61.5 201.5,91.5 141.5,91.5" fill-opacity="0" stroke="#00007F" stroke-width="1.0" stroke-linecap="butt" stroke-linejoin="round" />
		<polyline points="111.5,41.5 21.5,61.5 21.5,91.5 81.5,91.5" fill-opacity="0" stroke="#00007F" stroke-width="1.0" stroke-linecap="butt" stroke-linejoin="round" />
		<g id="flange_a" class="port">
			<polygon points="21.5,131.5 21.5,130.6 21.4,129.8 21.2,128.9 20.9,128.1 20.6,127.3 20.2,126.6 19.7,125.8 19.2,125.1 18.6,124.5 18.0,123.9 17.3,123.4 16.6,122.9 15.9,122.5 15.1,122.2 14.3,121.9 13.4,121.7 12.6,121.6 11.7,121.5 10.9,121.5 10.0,121.6 9.2,121.8 8.3,122.0 7.5,122.3 6.8,122.7 6.0,123.1 5.3,123.6 4.7,124.2 4.1,124.8 3.5,125.5 3.0,126.2 2.6,126.9 2.2,127.7 2.0,128.5 1.7,129.4 1.6,130.2 1.5,131.1 1.5,131.9 1.6,132.8 1.7,133.6 2.0,134.5 2.2,135.3 2.6,136.1 3.0,136.8 3.5,137.5 4.1,138.2 4.7,138.8 5.3,139.4 6.0,139.9 6.8,140.3 7.5,140.7 8.3,141.0 9.2,141.2 10.0,141.4 10.9,141.5 11.7,141.5 12.6,141.4 13.4,141.3 14.3,141.1 15.1,140.8 15.9,140.5 16.6,140.1 17.3,139.6 18.0,139.1 18.6,138.5 19.2,137.9 19.7,137.2 20.2,136.4 20.6,135.7 20.9,134.9 21.2,134.1 21.4,133.2 21.5,132.4" fill="#5F5F5F" stroke="#000000" stroke-width="1.0" stroke-linecap="butt" stroke-linejoin="round" />
		</g>
		<g id="flange_b" class="port">
			<polygon points="221.5,131.5 221.5,130.6 221.4,129.8 221.2,128.9 220.9,128.1 220.6,127.3 220.2,126.6 219.7,125.8 219.2,125.1 218.6,124.5 218.0,123.9 217.3,123.4 216.6,122.9 215.9,122.5 215.1,122.2 214.3,121.9 213.4,121.7 212.6,121.6 211.7,121.5 210.9,121.5 210.0,121.6 209.2,121.8 208.3,122.0 207.5,122.3 206.8,122.7 206.0,123.1 205.3,123.6 204.7,124.2 204.1,124.8 203.5,125.5 203.0,126.2 202.6,126.9 202.2,127.7 202.0,128.5 201.7,129.4 201.6,130.2 201.5,131.1 201.5,131.9 201.6,132.8 201.7,133.6 202.0,134.5 202.2,135.3 202.6,136.1 203.0,136.8 203.5,137.5 204.1,138.2 204.7,138.8 205.3,139.4 206.0,139.9 206.8,140.3 207.5,140.7 208.3,141.0 209.2,141.2 210.0,141.4 210.9,141.5 211.7,141.5 212.6,141.4 213.4,141.3 214.3,141.1 215.1,140.8 215.9,140.5 216.6,140.1 217.3,139.6 218.0,139.1 218.6,138.5 219.2,137.9 219.7,137.2 220.2,136.4 220.6,135.7 220.9,134.9 221.2,134.1 221.4,133.2 221.5,132.4" fill="#FFFFFF" stroke="#000000" stroke-width="1.0" stroke-linecap="butt" stroke-linejoin="round" />
		</g>
		<g id="heatPort" class="port">
			<polygon points="1.5,241.5 21.5,241.5 21.5,221.5 1.5,221.5" fill="#BF0000" stroke="#BF0000" stroke-width="1.0" stroke-linecap="butt" stroke-linejoin="round" />
		</g>
		<g id="f_normalized" class="port">
			<polygon points="91.5,1.5 111.5,41.5 131.5,1.5" fill="#00007F" stroke="#00007F" stroke-width="1.0" stroke-linecap="butt" stroke-linejoin="round" />
		</g>
	</g>
</svg>
