<svg width="213" height="203" xmlns="http://www.w3.org/2000/svg" xmlns:xlink="http://www.w3.org/1999/xlink">
	<g id="Modelica.Mechanics.MultiBody.Examples.Systems.RobotR3.Components.PathPlanning6" class="component">
		<polygon points="1.5,201.5 201.5,201.5 201.5,1.5 1.5,1.5" fill="#FFFFFF" stroke="#00007F" stroke-width="1.0" stroke-linecap="round" stroke-linejoin="round" />
		<polygon points="21.5,11.5 13.5,33.5 29.5,33.5" fill="#C0C0C0" stroke="#C0C0C0" stroke-width="1.0" stroke-linecap="round" stroke-linejoin="round" />
		<polyline points="21.5,23.5 21.5,183.5" fill-opacity="0" stroke="#C0C0C0" stroke-width="1.0" stroke-linecap="round" stroke-linejoin="round" />
		<polyline points="11.5,101.5 183.5,101.5" fill-opacity="0" stroke="#C0C0C0" stroke-width="1.0" stroke-linecap="round" stroke-linejoin="round" />
		<polygon points="191.5,101.5 169.5,93.5 169.5,109.5" fill="#C0C0C0" stroke="#C0C0C0" stroke-width="1.0" stroke-linecap="round" stroke-linejoin="round" />
		<text x="95.0" y="88.6" text-anchor="middle" fill="#C0C0C0" font-size="57.1px" font-family="sans-serif">w</text>
		<polyline points="21.5,101.5 60.5,32.5 127.5,32.5 159.5,101.5" fill-opacity="0" stroke="#000000" stroke-width="1.0" stroke-linecap="round" stroke-linejoin="round" />
		<text x="109.0" y="169.2" text-anchor="middle" fill="#000000" font-size="33.2px" font-family="sans-serif">6 axes</text>
		<g id="controlBus" class="port">
			<polygon points="201.1,97.5 201.1,105.5 201.9,105.5 201.9,97.5" fill-opacity="0" stroke="#FFCC33" stroke-width="1.0" stroke-linecap="round" stroke-linejoin="round" />
			<polygon points="209.5,83.5 210.1,84.6 210.6,86.4 211.0,89.0 211.3,92.4 211.4,96.6 211.5,101.5 211.5,101.5 211.4,106.4 211.3,110.6 211.0,114.0 210.6,116.6 210.1,118.4 209.5,119.5 209.5,119.5 207.6,120.4 204.6,120.4 200.5,119.5 200.5,119.5 197.4,118.5 195.0,117.5 193.4,116.5 192.5,115.5 192.5,115.5 192.1,114.3 191.9,112.3 191.7,109.5 191.5,105.9 191.5,101.5 191.5,101.5 191.5,97.1 191.7,93.5 191.9,90.7 192.1,88.7 192.5,87.5 192.5,87.5 193.4,86.5 195.0,85.5 197.4,84.5 200.5,83.5 200.5,83.5 204.6,82.6 207.6,82.6" fill="#FFD788" stroke="#000000" stroke-width="1.0" stroke-linecap="round" stroke-linejoin="round" />
			<polygon points="205.5,90.5 205.6,90.5 205.7,90.5 205.8,90.5 205.8,90.4 205.9,90.4 206.0,90.4 206.1,90.3 206.1,90.3 206.2,90.2 206.3,90.2 206.3,90.1 206.4,90.0 206.4,89.9 206.4,89.9 206.5,89.8 206.5,89.7 206.5,89.6 206.5,89.5 206.5,89.4 206.5,89.3 206.5,89.3 206.4,89.2 206.4,89.1 206.4,89.0 206.3,89.0 206.3,88.9 206.2,88.8 206.2,88.8 206.1,88.7 206.0,88.7 206.0,88.6 205.9,88.6 205.8,88.5 205.7,88.5 205.6,88.5 205.5,88.5 205.5,88.5 205.4,88.5 205.3,88.5 205.2,88.5 205.1,88.6 205.0,88.6 205.0,88.7 204.9,88.7 204.8,88.8 204.8,88.8 204.7,88.9 204.7,89.0 204.6,89.0 204.6,89.1 204.6,89.2 204.5,89.3 204.5,89.3 204.5,89.4 204.5,89.5 204.5,89.6 204.5,89.7 204.5,89.8 204.6,89.9 204.6,89.9 204.6,90.0 204.7,90.1 204.7,90.2 204.8,90.2 204.9,90.3 204.9,90.3 205.0,90.4 205.1,90.4 205.2,90.4 205.2,90.5 205.3,90.5 205.4,90.5" fill="#000000" stroke="#000000" stroke-width="1.0" stroke-linecap="round" stroke-linejoin="round" />
			<polygon points="205.5,102.5 205.6,102.5 205.7,102.5 205.8,102.5 205.8,102.4 205.9,102.4 206.0,102.4 206.1,102.3 206.1,102.3 206.2,102.2 206.3,102.2 206.3,102.1 206.4,102.0 206.4,101.9 206.4,101.9 206.5,101.8 206.5,101.7 206.5,101.6 206.5,101.5 206.5,101.4 206.5,101.3 206.5,101.3 206.4,101.2 206.4,101.1 206.4,101.0 206.3,101.0 206.3,100.9 206.2,100.8 206.2,100.8 206.1,100.7 206.0,100.7 206.0,100.6 205.9,100.6 205.8,100.5 205.7,100.5 205.6,100.5 205.5,100.5 205.5,100.5 205.4,100.5 205.3,100.5 205.2,100.5 205.1,100.6 205.0,100.6 205.0,100.7 204.9,100.7 204.8,100.8 204.8,100.8 204.7,100.9 204.7,101.0 204.6,101.0 204.6,101.1 204.6,101.2 204.5,101.3 204.5,101.3 204.5,101.4 204.5,101.5 204.5,101.6 204.5,101.7 204.5,101.8 204.6,101.9 204.6,101.9 204.6,102.0 204.7,102.1 204.7,102.2 204.8,102.2 204.9,102.3 204.9,102.3 205.0,102.4 205.1,102.4 205.2,102.4 205.2,102.5 205.3,102.5 205.4,102.5" fill="#000000" stroke="#000000" stroke-width="1.0" stroke-linecap="round" stroke-linejoin="round" />
			<polygon points="205.5,114.5 205.6,114.5 205.7,114.5 205.8,114.5 205.8,114.4 205.9,114.4 206.0,114.4 206.1,114.3 206.1,114.3 206.2,114.2 206.3,114.2 206.3,114.1 206.4,114.0 206.4,113.9 206.4,113.9 206.5,113.8 206.5,113.7 206.5,113.6 206.5,113.5 206.5,113.4 206.5,113.3 206.5,113.3 206.4,113.2 206.4,113.1 206.4,113.0 206.3,113.0 206.3,112.9 206.2,112.8 206.2,112.8 206.1,112.7 206.0,112.7 206.0,112.6 205.9,112.6 205.8,112.5 205.7,112.5 205.6,112.5 205.5,112.5 205.5,112.5 205.4,112.5 205.3,112.5 205.2,112.5 205.1,112.6 205.0,112.6 205.0,112.7 204.9,112.7 204.8,112.8 204.8,112.8 204.7,112.9 204.7,113.0 204.6,113.0 204.6,113.1 204.6,113.2 204.5,113.3 204.5,113.3 204.5,113.4 204.5,113.5 204.5,113.6 204.5,113.7 204.5,113.8 204.6,113.9 204.6,113.9 204.6,114.0 204.7,114.1 204.7,114.2 204.8,114.2 204.9,114.3 204.9,114.3 205.0,114.4 205.1,114.4 205.2,114.4 205.2,114.5 205.3,114.5 205.4,114.5" fill="#000000" stroke="#000000" stroke-width="1.0" stroke-linecap="round" stroke-linejoin="round" />
			<polygon points="197.5,96.5 197.6,96.5 197.7,96.5 197.8,96.5 197.8,96.4 197.9,96.4 198.0,96.4 198.1,96.3 198.1,96.3 198.2,96.2 198.3,96.2 198.3,96.1 198.4,96.0 198.4,95.9 198.4,95.9 198.5,95.8 198.5,95.7 198.5,95.6 198.5,95.5 198.5,95.4 198.5,95.3 198.5,95.3 198.4,95.2 198.4,95.1 198.4,95.0 198.3,95.0 198.3,94.9 198.2,94.8 198.2,94.8 198.1,94.7 198.0,94.7 198.0,94.6 197.9,94.6 197.8,94.5 197.7,94.5 197.6,94.5 197.5,94.5 197.5,94.5 197.4,94.5 197.3,94.5 197.2,94.5 197.1,94.6 197.0,94.6 197.0,94.7 196.9,94.7 196.8,94.8 196.8,94.8 196.7,94.9 196.7,95.0 196.6,95.0 196.6,95.1 196.6,95.2 196.5,95.3 196.5,95.3 196.5,95.4 196.5,95.5 196.5,95.6 196.5,95.7 196.5,95.8 196.6,95.9 196.6,95.9 196.6,96.0 196.7,96.1 196.7,96.2 196.8,96.2 196.9,96.3 196.9,96.3 197.0,96.4 197.1,96.4 197.2,96.4 197.2,96.5 197.3,96.5 197.4,96.5" fill="#000000" stroke="#000000" stroke-width="1.0" stroke-linecap="round" stroke-linejoin="round" />
			<polygon points="197.5,108.5 197.6,108.5 197.7,108.5 197.8,108.5 197.8,108.4 197.9,108.4 198.0,108.4 198.1,108.3 198.1,108.3 198.2,108.2 198.3,108.2 198.3,108.1 198.4,108.0 198.4,107.9 198.4,107.9 198.5,107.8 198.5,107.7 198.5,107.6 198.5,107.5 198.5,107.4 198.5,107.3 198.5,107.3 198.4,107.2 198.4,107.1 198.4,107.0 198.3,107.0 198.3,106.9 198.2,106.8 198.2,106.8 198.1,106.7 198.0,106.7 198.0,106.6 197.9,106.6 197.8,106.5 197.7,106.5 197.6,106.5 197.5,106.5 197.5,106.5 197.4,106.5 197.3,106.5 197.2,106.5 197.1,106.6 197.0,106.6 197.0,106.7 196.9,106.7 196.8,106.8 196.8,106.8 196.7,106.9 196.7,107.0 196.6,107.0 196.6,107.1 196.6,107.2 196.5,107.3 196.5,107.3 196.5,107.4 196.5,107.5 196.5,107.6 196.5,107.7 196.5,107.8 196.6,107.9 196.6,107.9 196.6,108.0 196.7,108.1 196.7,108.2 196.8,108.2 196.9,108.3 196.9,108.3 197.0,108.4 197.1,108.4 197.2,108.4 197.2,108.5 197.3,108.5 197.4,108.5" fill="#000000" stroke="#000000" stroke-width="1.0" stroke-linecap="round" stroke-linejoin="round" />
		</g>
	</g>
</svg>
