<svg width="213" height="223" xmlns="http://www.w3.org/2000/svg" xmlns:xlink="http://www.w3.org/1999/xlink">
	<g id="Modelica.Fluid.Examples.AST_BatchPlant.BaseClasses.TankWithTopPorts" class="component">
		<defs>
			<linearGradient id="cyl2" x1="0" y1="0" x2="1" y2="0">
				<stop offset="0%" stop-color="#FFFFFF" />
				<stop offset="5%" stop-color="#FFFFFF" />
				<stop offset="10%" stop-color="#FFFFFF" />
				<stop offset="15%" stop-color="#FFFFFF" />
				<stop offset="20%" stop-color="#FFFFFF" />
				<stop offset="25%" stop-color="#FFFFFF" />
				<stop offset="30%" stop-color="#FFFFFF" />
				<stop offset="35%" stop-color="#FFFFFF" />
				<stop offset="40%" stop-color="#FFFFFF" />
				<stop offset="45%" stop-color="#FFFFFF" />
				<stop offset="50%" stop-color="#FFFFFF" />
				<stop offset="55%" stop-color="#FFFFFF" />
				<stop offset="60%" stop-color="#FFFFFF" />
				<stop offset="65%" stop-color="#FFFFFF" />
				<stop offset="70%" stop-color="#FFFFFF" />
				<stop offset="75%" stop-color="#FFFFFF" />
				<stop offset="80%" stop-color="#FFFFFF" />
				<stop offset="85%" stop-color="#FFFFFF" />
				<stop offset="90%" stop-color="#FFFFFF" />
				<stop offset="95%" stop-color="#FFFFFF" />
				<stop offset="100%" stop-color="#FFFFFF" />
			</linearGradient>
		</defs>
		<polygon points="11.5,211.5 211.5,211.5 211.5,11.5 11.5,11.5" fill="url(#cyl2)" stroke="#FFFFFF" stroke-width="1.0" stroke-linecap="round" stroke-linejoin="round" />
		<defs>
			<linearGradient id="cyl3" x1="0" y1="0" x2="1" y2="0">
				<stop offset="0%" stop-color="#000000" />
				<stop offset="5%" stop-color="#102030" />
				<stop offset="10%" stop-color="#1F3D5C" />
				<stop offset="15%" stop-color="#2B5782" />
				<stop offset="20%" stop-color="#366DA3" />
				<stop offset="25%" stop-color="#4080BF" />
				<stop offset="30%" stop-color="#478FD6" />
				<stop offset="35%" stop-color="#4D9BE8" />
				<stop offset="40%" stop-color="#52A3F5" />
				<stop offset="45%" stop-color="#54A8FC" />
				<stop offset="50%" stop-color="#55AAFF" />
				<stop offset="55%" stop-color="#54A8FC" />
				<stop offset="60%" stop-color="#52A3F5" />
				<stop offset="65%" stop-color="#4D9BE8" />
				<stop offset="70%" stop-color="#478FD6" />
				<stop offset="75%" stop-color="#4080BF" />
				<stop offset="80%" stop-color="#366DA3" />
				<stop offset="85%" stop-color="#2B5782" />
				<stop offset="90%" stop-color="#1F3D5C" />
				<stop offset="95%" stop-color="#102030" />
				<stop offset="100%" stop-color="#000000" />
			</linearGradient>
		</defs>
		<polygon points="11.5,211.5 211.5,211.5 211.5,111.5 11.5,111.5" fill="url(#cyl3)" stroke="#000000" stroke-width="1.0" stroke-linecap="round" stroke-linejoin="round" />
		<text x="112.0" y="42.7" text-anchor="middle" fill="#0000FF" font-size="24.0px" font-family="sans-serif">TankWithTopPorts</text>
		<text x="111.5" y="90.4" text-anchor="middle" fill="#000000" font-size="26.6px" font-family="sans-serif">level =</text>
		<polyline points="11.5,11.5 11.5,211.5 211.5,211.5 211.5,11.5" fill-opacity="0" stroke="#000000" stroke-width="1.0" stroke-linecap="round" stroke-linejoin="round" />
		<text x="111.5" y="165.8" text-anchor="middle" fill="#000000" font-size="20.3px" font-family="sans-serif">0.5 * height</text>
		<g id="topPorts" class="port">
			<polygon points="91.5,11.5 131.5,11.5 131.5,1.5 91.5,1.5" fill="#FFFFFF" stroke="#007FFF" stroke-width="1.0" stroke-linecap="round" stroke-linejoin="round" />
			<polygon points="103.5,6.5 103.5,6.1 103.4,5.6 103.3,5.2 103.2,4.8 103.1,4.4 102.9,4.0 102.7,3.7 102.4,3.3 102.1,3.0 101.8,2.7 101.5,2.4 101.2,2.2 100.8,2.0 100.4,1.8 100.0,1.7 99.6,1.6 99.2,1.5 98.8,1.5 98.4,1.5 98.0,1.6 97.6,1.6 97.2,1.8 96.8,1.9 96.4,2.1 96.1,2.3 95.7,2.6 95.4,2.9 95.1,3.2 94.9,3.5 94.6,3.8 94.4,4.2 94.3,4.6 94.1,5.0 94.0,5.4 93.9,5.9 93.9,6.3 93.9,6.7 93.9,7.1 94.0,7.6 94.1,8.0 94.3,8.4 94.4,8.8 94.6,9.2 94.9,9.5 95.1,9.8 95.4,10.1 95.7,10.4 96.1,10.7 96.4,10.9 96.8,11.1 97.2,11.2 97.6,11.4 98.0,11.4 98.4,11.5 98.8,11.5 99.2,11.5 99.6,11.4 100.0,11.3 100.4,11.2 100.8,11.0 101.2,10.8 101.5,10.6 101.8,10.3 102.1,10.0 102.4,9.7 102.7,9.3 102.9,9.0 103.1,8.6 103.2,8.2 103.3,7.8 103.4,7.4 103.5,6.9" fill="#007FFF" stroke="#000000" stroke-width="1.0" stroke-linecap="round" stroke-linejoin="round" />
			<polygon points="116.3,6.5 116.3,6.1 116.2,5.6 116.1,5.2 116.0,4.8 115.9,4.4 115.7,4.0 115.5,3.7 115.2,3.3 114.9,3.0 114.6,2.7 114.3,2.4 114.0,2.2 113.6,2.0 113.2,1.8 112.8,1.7 112.4,1.6 112.0,1.5 111.6,1.5 111.2,1.5 110.8,1.6 110.4,1.6 110.0,1.8 109.6,1.9 109.2,2.1 108.9,2.3 108.5,2.6 108.2,2.9 107.9,3.2 107.7,3.5 107.4,3.8 107.2,4.2 107.1,4.6 106.9,5.0 106.8,5.4 106.7,5.9 106.7,6.3 106.7,6.7 106.7,7.1 106.8,7.6 106.9,8.0 107.1,8.4 107.2,8.8 107.4,9.2 107.7,9.5 107.9,9.8 108.2,10.1 108.5,10.4 108.9,10.7 109.2,10.9 109.6,11.1 110.0,11.2 110.4,11.4 110.8,11.4 111.2,11.5 111.6,11.5 112.0,11.5 112.4,11.4 112.8,11.3 113.2,11.2 113.6,11.0 114.0,10.8 114.3,10.6 114.6,10.3 114.9,10.0 115.2,9.7 115.5,9.3 115.7,9.0 115.9,8.6 116.0,8.2 116.1,7.8 116.2,7.4 116.3,6.9" fill="#007FFF" stroke="#000000" stroke-width="1.0" stroke-linecap="round" stroke-linejoin="round" />
			<polygon points="129.1,6.5 129.1,6.1 129.0,5.6 128.9,5.2 128.8,4.8 128.7,4.4 128.5,4.0 128.3,3.7 128.0,3.3 127.7,3.0 127.4,2.7 127.1,2.4 126.8,2.2 126.4,2.0 126.0,1.8 125.6,1.7 125.2,1.6 124.8,1.5 124.4,1.5 124.0,1.5 123.6,1.6 123.2,1.6 122.8,1.8 122.4,1.9 122.0,2.1 121.7,2.3 121.3,2.6 121.0,2.9 120.7,3.2 120.5,3.5 120.2,3.8 120.0,4.2 119.9,4.6 119.7,5.0 119.6,5.4 119.5,5.9 119.5,6.3 119.5,6.7 119.5,7.1 119.6,7.6 119.7,8.0 119.9,8.4 120.0,8.8 120.2,9.2 120.5,9.5 120.7,9.8 121.0,10.1 121.3,10.4 121.7,10.7 122.0,10.9 122.4,11.1 122.8,11.2 123.2,11.4 123.6,11.4 124.0,11.5 124.4,11.5 124.8,11.5 125.2,11.4 125.6,11.3 126.0,11.2 126.4,11.0 126.8,10.8 127.1,10.6 127.4,10.3 127.7,10.0 128.0,9.7 128.3,9.3 128.5,9.0 128.7,8.6 128.8,8.2 128.9,7.8 129.0,7.4 129.1,6.9" fill="#007FFF" stroke="#000000" stroke-width="1.0" stroke-linecap="round" stroke-linejoin="round" />
		</g>
		<g id="ports" class="port">
			<polygon points="91.5,211.5 131.5,211.5 131.5,221.5 91.5,221.5" fill="#FFFFFF" stroke="#007FFF" stroke-width="1.0" stroke-linecap="round" stroke-linejoin="round" />
			<polygon points="103.5,216.5 103.5,216.9 103.4,217.4 103.3,217.8 103.2,218.2 103.1,218.6 102.9,219.0 102.7,219.3 102.4,219.7 102.1,220.0 101.8,220.3 101.5,220.6 101.2,220.8 100.8,221.0 100.4,221.2 100.0,221.3 99.6,221.4 99.2,221.5 98.8,221.5 98.4,221.5 98.0,221.4 97.6,221.4 97.2,221.2 96.8,221.1 96.4,220.9 96.1,220.7 95.7,220.4 95.4,220.1 95.1,219.8 94.9,219.5 94.6,219.2 94.4,218.8 94.3,218.4 94.1,218.0 94.0,217.6 93.9,217.1 93.9,216.7 93.9,216.3 93.9,215.9 94.0,215.4 94.1,215.0 94.3,214.6 94.4,214.2 94.6,213.8 94.9,213.5 95.1,213.2 95.4,212.9 95.7,212.6 96.1,212.3 96.4,212.1 96.8,211.9 97.2,211.8 97.6,211.6 98.0,211.6 98.4,211.5 98.8,211.5 99.2,211.5 99.6,211.6 100.0,211.7 100.4,211.8 100.8,212.0 101.2,212.2 101.5,212.4 101.8,212.7 102.1,213.0 102.4,213.3 102.7,213.7 102.9,214.0 103.1,214.4 103.2,214.8 103.3,215.2 103.4,215.6 103.5,216.1" fill="#007FFF" stroke="#000000" stroke-width="1.0" stroke-linecap="round" stroke-linejoin="round" />
			<polygon points="116.3,216.5 116.3,216.9 116.2,217.4 116.1,217.8 116.0,218.2 115.9,218.6 115.7,219.0 115.5,219.3 115.2,219.7 114.9,220.0 114.6,220.3 114.3,220.6 114.0,220.8 113.6,221.0 113.2,221.2 112.8,221.3 112.4,221.4 112.0,221.5 111.6,221.5 111.2,221.5 110.8,221.4 110.4,221.4 110.0,221.2 109.6,221.1 109.2,220.9 108.9,220.7 108.5,220.4 108.2,220.1 107.9,219.8 107.7,219.5 107.4,219.2 107.2,218.8 107.1,218.4 106.9,218.0 106.8,217.6 106.7,217.1 106.7,216.7 106.7,216.3 106.7,215.9 106.8,215.4 106.9,215.0 107.1,214.6 107.2,214.2 107.4,213.8 107.7,213.5 107.9,213.2 108.2,212.9 108.5,212.6 108.9,212.3 109.2,212.1 109.6,211.9 110.0,211.8 110.4,211.6 110.8,211.6 111.2,211.5 111.6,211.5 112.0,211.5 112.4,211.6 112.8,211.7 113.2,211.8 113.6,212.0 114.0,212.2 114.3,212.4 114.6,212.7 114.9,213.0 115.2,213.3 115.5,213.7 115.7,214.0 115.9,214.4 116.0,214.8 116.1,215.2 116.2,215.6 116.3,216.1" fill="#007FFF" stroke="#000000" stroke-width="1.0" stroke-linecap="round" stroke-linejoin="round" />
			<polygon points="129.1,216.5 129.1,216.9 129.0,217.4 128.9,217.8 128.8,218.2 128.7,218.6 128.5,219.0 128.3,219.3 128.0,219.7 127.7,220.0 127.4,220.3 127.1,220.6 126.8,220.8 126.4,221.0 126.0,221.2 125.6,221.3 125.2,221.4 124.8,221.5 124.4,221.5 124.0,221.5 123.6,221.4 123.2,221.4 122.8,221.2 122.4,221.1 122.0,220.9 121.7,220.7 121.3,220.4 121.0,220.1 120.7,219.8 120.5,219.5 120.2,219.2 120.0,218.8 119.9,218.4 119.7,218.0 119.6,217.6 119.5,217.1 119.5,216.7 119.5,216.3 119.5,215.9 119.6,215.4 119.7,215.0 119.9,214.6 120.0,214.2 120.2,213.8 120.5,213.5 120.7,213.2 121.0,212.9 121.3,212.6 121.7,212.3 122.0,212.1 122.4,211.9 122.8,211.8 123.2,211.6 123.6,211.6 124.0,211.5 124.4,211.5 124.8,211.5 125.2,211.6 125.6,211.7 126.0,211.8 126.4,212.0 126.8,212.2 127.1,212.4 127.4,212.7 127.7,213.0 128.0,213.3 128.3,213.7 128.5,214.0 128.7,214.4 128.8,214.8 128.9,215.2 129.0,215.6 129.1,216.1" fill="#007FFF" stroke="#000000" stroke-width="1.0" stroke-linecap="round" stroke-linejoin="round" />
			<polygon points="101.5,216.4 101.5,216.7 101.5,216.9 101.4,217.2 101.3,217.4 101.2,217.6 101.1,217.9 101.0,218.1 100.9,218.3 100.7,218.5 100.5,218.6 100.3,218.8 100.1,218.9 99.9,219.0 99.7,219.1 99.5,219.2 99.2,219.3 99.0,219.3 98.8,219.3 98.5,219.3 98.3,219.3 98.0,219.2 97.8,219.2 97.6,219.1 97.4,219.0 97.2,218.9 97.0,218.7 96.8,218.5 96.6,218.4 96.5,218.2 96.3,218.0 96.2,217.8 96.1,217.5 96.0,217.3 96.0,217.0 95.9,216.8 95.9,216.6 95.9,216.3 95.9,216.1 96.0,215.8 96.0,215.6 96.1,215.3 96.2,215.1 96.3,214.9 96.5,214.7 96.6,214.5 96.8,214.3 97.0,214.2 97.2,214.0 97.4,213.9 97.6,213.8 97.8,213.7 98.0,213.6 98.3,213.6 98.5,213.5 98.8,213.5 99.0,213.6 99.2,213.6 99.5,213.6 99.7,213.7 99.9,213.8 100.1,213.9 100.3,214.1 100.5,214.2 100.7,214.4 100.9,214.6 101.0,214.8 101.1,215.0 101.2,215.2 101.3,215.5 101.4,215.7 101.5,215.9 101.5,216.2" fill="#FFFFFF" stroke="#007FFF" stroke-width="1.0" stroke-linecap="round" stroke-linejoin="round" />
			<polygon points="114.3,216.4 114.3,216.7 114.3,216.9 114.2,217.2 114.1,217.4 114.0,217.6 113.9,217.9 113.8,218.1 113.7,218.3 113.5,218.5 113.3,218.6 113.1,218.8 112.9,218.9 112.7,219.0 112.5,219.1 112.3,219.2 112.0,219.3 111.8,219.3 111.6,219.3 111.3,219.3 111.1,219.3 110.8,219.2 110.6,219.2 110.4,219.1 110.2,219.0 110.0,218.9 109.8,218.7 109.6,218.5 109.4,218.4 109.3,218.2 109.1,218.0 109.0,217.8 108.9,217.5 108.8,217.3 108.8,217.0 108.7,216.8 108.7,216.6 108.7,216.3 108.7,216.1 108.8,215.8 108.8,215.6 108.9,215.3 109.0,215.1 109.1,214.9 109.3,214.7 109.4,214.5 109.6,214.3 109.8,214.2 110.0,214.0 110.2,213.9 110.4,213.8 110.6,213.7 110.8,213.6 111.1,213.6 111.3,213.5 111.6,213.5 111.8,213.6 112.0,213.6 112.3,213.6 112.5,213.7 112.7,213.8 112.9,213.9 113.1,214.1 113.3,214.2 113.5,214.4 113.7,214.6 113.8,214.8 113.9,215.0 114.0,215.2 114.1,215.5 114.2,215.7 114.3,215.9 114.3,216.2" fill="#FFFFFF" stroke="#007FFF" stroke-width="1.0" stroke-linecap="round" stroke-linejoin="round" />
			<polygon points="127.1,216.5 127.1,216.7 127.1,217.0 127.0,217.2 126.9,217.4 126.8,217.7 126.7,217.9 126.6,218.1 126.5,218.3 126.3,218.5 126.1,218.7 125.9,218.8 125.7,218.9 125.5,219.1 125.3,219.2 125.1,219.2 124.8,219.3 124.6,219.3 124.4,219.3 124.1,219.3 123.9,219.3 123.6,219.3 123.4,219.2 123.2,219.1 123.0,219.0 122.8,218.9 122.6,218.7 122.4,218.6 122.2,218.4 122.1,218.2 121.9,218.0 121.8,217.8 121.7,217.5 121.6,217.3 121.6,217.1 121.5,216.8 121.5,216.6 121.5,216.3 121.5,216.1 121.6,215.8 121.6,215.6 121.7,215.4 121.8,215.1 121.9,214.9 122.1,214.7 122.2,214.5 122.4,214.3 122.6,214.2 122.8,214.0 123.0,213.9 123.2,213.8 123.4,213.7 123.6,213.6 123.9,213.6 124.1,213.6 124.4,213.6 124.6,213.6 124.8,213.6 125.1,213.7 125.3,213.8 125.5,213.9 125.7,214.0 125.9,214.1 126.1,214.3 126.3,214.4 126.5,214.6 126.6,214.8 126.7,215.0 126.8,215.2 126.9,215.5 127.0,215.7 127.1,216.0 127.1,216.2" fill="#FFFFFF" stroke="#007FFF" stroke-width="1.0" stroke-linecap="round" stroke-linejoin="round" />
		</g>
		<g id="heatPort" class="port">
			<polygon points="1.5,121.5 21.5,121.5 21.5,101.5 1.5,101.5" fill="#BF0000" stroke="#BF0000" stroke-width="1.0" stroke-linecap="round" stroke-linejoin="round" />
		</g>
	</g>
</svg>
