<svg width="323" height="203" xmlns="http://www.w3.org/2000/svg" xmlns:xlink="http://www.w3.org/1999/xlink">
	<g id="Modelica.Blocks.MathBoolean.FallingEdge" class="component">
		<polygon points="81.5,201.5 281.5,201.5 281.5,1.5 81.5,1.5" fill="#D7D7D7" stroke="#000000" stroke-width="1.5" stroke-linecap="butt" stroke-linejoin="round" />
		<polyline points="84.5,200.0 280.0,200.0 280.0,4.5" fill-opacity="0" stroke="#6C6C6C" stroke-width="3.0" stroke-linecap="butt" stroke-linejoin="round" />
		<polyline points="83.0,198.5 83.0,3.0 278.5,3.0" fill-opacity="0" stroke="#EBEBEB" stroke-width="3.0" stroke-linecap="butt" stroke-linejoin="round" />
		<polygon points="261.5,101.5 261.5,100.6 261.4,99.8 261.2,98.9 260.9,98.1 260.6,97.3 260.2,96.6 259.7,95.8 259.2,95.1 258.6,94.5 258.0,93.9 257.3,93.4 256.6,92.9 255.9,92.5 255.1,92.2 254.3,91.9 253.4,91.7 252.6,91.6 251.7,91.5 250.9,91.5 250.0,91.6 249.2,91.8 248.3,92.0 247.5,92.3 246.8,92.7 246.0,93.1 245.3,93.6 244.7,94.2 244.1,94.8 243.5,95.5 243.0,96.2 242.6,96.9 242.2,97.7 242.0,98.5 241.7,99.4 241.6,100.2 241.5,101.1 241.5,101.9 241.6,102.8 241.7,103.6 242.0,104.5 242.2,105.3 242.6,106.1 243.0,106.8 243.5,107.5 244.1,108.2 244.7,108.8 245.3,109.4 246.0,109.9 246.8,110.3 247.5,110.7 248.3,111.0 249.2,111.2 250.0,111.4 250.9,111.5 251.7,111.5 252.6,111.4 253.4,111.3 254.3,111.1 255.1,110.8 255.9,110.5 256.6,110.1 257.3,109.6 258.0,109.1 258.6,108.5 259.2,107.9 259.7,107.2 260.2,106.4 260.6,105.7 260.9,104.9 261.2,104.1 261.4,103.2 261.5,102.4" fill="#EBEBEB" stroke="#EBEBEB" stroke-width="1.0" stroke-linecap="butt" stroke-linejoin="round" />
		<polyline points="101.5,169.5 145.5,169.5 145.5,125.5 203.5,125.5 203.5,169.5 247.5,169.5" fill-opacity="0" stroke="#000000" stroke-width="1.0" stroke-linecap="butt" stroke-linejoin="round" />
		<polyline points="101.5,69.5 205.5,69.5 205.5,25.5 205.5,25.5 205.5,69.5 247.5,69.5" fill-opacity="0" stroke="#FF00FF" stroke-width="1.0" stroke-linecap="butt" stroke-linejoin="round" />
		<g id="u" class="port">
			<polygon points="1.5,61.5 81.5,101.5 1.5,141.5" fill="#FF00FF" stroke="#FF00FF" stroke-width="1.0" stroke-linecap="butt" stroke-linejoin="round" />
		</g>
		<g id="y" class="port">
			<polygon points="281.5,81.5 321.5,101.5 281.5,121.5" fill="#FFFFFF" stroke="#FF00FF" stroke-width="1.0" stroke-linecap="butt" stroke-linejoin="round" />
		</g>
	</g>
</svg>
