<svg width="213" height="208" xmlns="http://www.w3.org/2000/svg" xmlns:xlink="http://www.w3.org/1999/xlink">
	<g id="Modelica.Mechanics.MultiBody.Joints.UniversalSpherical" class="component">
		<defs>
			<radialGradient id="sph2">
				<stop offset="0%" stop-color="#C0C0C0" />
				<stop offset="10%" stop-color="#BEBEBE" />
				<stop offset="20%" stop-color="#B8B8B8" />
				<stop offset="30%" stop-color="#AFAFAF" />
				<stop offset="40%" stop-color="#A1A1A1" />
				<stop offset="50%" stop-color="#909090" />
				<stop offset="60%" stop-color="#7B7B7B" />
				<stop offset="70%" stop-color="#626262" />
				<stop offset="80%" stop-color="#454545" />
				<stop offset="90%" stop-color="#242424" />
				<stop offset="100%" stop-color="#000000" />
			</radialGradient>
		</defs>
		<polygon points="87.3,106.3 87.2,102.9 86.7,99.4 86.0,96.1 84.9,92.8 83.6,89.6 82.0,86.5 80.2,83.6 78.1,80.9 75.7,78.3 73.2,76.0 70.5,73.8 67.6,71.9 64.5,70.3 61.3,68.9 58.0,67.9 54.6,67.0 51.1,66.5 47.7,66.3 44.2,66.4 40.7,66.8 37.3,67.4 34.0,68.4 30.7,69.6 27.6,71.1 24.6,72.9 21.7,74.9 19.1,77.1 16.7,79.6 14.4,82.2 12.5,85.1 10.8,88.1 9.3,91.2 8.1,94.4 7.2,97.8 6.6,101.2 6.3,104.6 6.3,108.0 6.6,111.4 7.2,114.8 8.1,118.2 9.3,121.4 10.8,124.5 12.5,127.5 14.4,130.4 16.7,133.0 19.1,135.5 21.7,137.7 24.6,139.7 27.6,141.5 30.7,143.0 34.0,144.2 37.3,145.2 40.7,145.8 44.2,146.2 47.7,146.3 51.1,146.1 54.6,145.6 58.0,144.7 61.3,143.7 64.5,142.3 67.6,140.7 70.5,138.8 73.2,136.6 75.7,134.3 78.1,131.7 80.2,129.0 82.0,126.1 83.6,123.0 84.9,119.8 86.0,116.5 86.7,113.2 87.2,109.7" fill="url(#sph2)" stroke="#000000" stroke-width="1.0" stroke-linecap="round" stroke-linejoin="round" />
		<polygon points="77.3,106.8 77.2,104.3 76.8,101.7 76.3,99.3 75.5,96.8 74.5,94.5 73.3,92.2 71.9,90.1 70.4,88.1 68.6,86.2 66.7,84.4 64.6,82.9 62.4,81.5 60.1,80.3 57.7,79.3 55.2,78.4 52.7,77.9 50.1,77.5 47.5,77.3 44.8,77.4 42.2,77.6 39.6,78.1 37.1,78.8 34.7,79.7 32.3,80.8 30.1,82.1 27.9,83.6 25.9,85.3 24.1,87.1 22.4,89.1 21.0,91.1 19.7,93.4 18.6,95.7 17.7,98.0 17.0,100.5 16.6,103.0 16.3,105.5 16.3,108.1 16.6,110.6 17.0,113.1 17.7,115.6 18.6,117.9 19.7,120.2 21.0,122.5 22.4,124.5 24.1,126.5 25.9,128.3 27.9,130.0 30.1,131.5 32.3,132.8 34.7,133.9 37.1,134.8 39.6,135.5 42.2,136.0 44.8,136.2 47.5,136.3 50.1,136.1 52.7,135.7 55.2,135.2 57.7,134.3 60.1,133.3 62.4,132.1 64.6,130.7 66.7,129.2 68.6,127.4 70.4,125.5 71.9,123.5 73.3,121.4 74.5,119.1 75.5,116.8 76.3,114.3 76.8,111.9 77.2,109.3" fill="#FFFFFF" stroke="#A0A0A4" stroke-width="1.0" stroke-linecap="round" stroke-linejoin="round" />
		<polygon points="46.3,150.3 97.3,150.3 97.3,65.3 46.3,65.3" fill="#FFFFFF" stroke="#FFFFFF" stroke-width="1.0" stroke-linecap="round" stroke-linejoin="round" />
		<polyline points="46.3,66.3 46.3,146.3" fill-opacity="0" stroke="#000000" stroke-width="1.0" stroke-linecap="round" stroke-linejoin="round" />
		<defs>
			<radialGradient id="sph6">
				<stop offset="0%" stop-color="#C0C0C0" />
				<stop offset="10%" stop-color="#BEBEBE" />
				<stop offset="20%" stop-color="#B8B8B8" />
				<stop offset="30%" stop-color="#AFAFAF" />
				<stop offset="40%" stop-color="#A1A1A1" />
				<stop offset="50%" stop-color="#909090" />
				<stop offset="60%" stop-color="#7B7B7B" />
				<stop offset="70%" stop-color="#626262" />
				<stop offset="80%" stop-color="#454545" />
				<stop offset="90%" stop-color="#242424" />
				<stop offset="100%" stop-color="#000000" />
			</radialGradient>
		</defs>
		<polygon points="72.3,104.3 72.2,102.7 71.9,101.0 71.5,99.4 70.9,97.9 70.1,96.4 69.1,94.9 68.0,93.5 66.7,92.2 65.3,91.0 63.8,89.9 62.1,88.9 60.4,88.0 58.5,87.2 56.6,86.6 54.6,86.0 52.5,85.7 50.4,85.4 48.3,85.3 46.2,85.3 44.1,85.5 42.1,85.8 40.0,86.3 38.1,86.9 36.2,87.6 34.4,88.4 32.6,89.4 31.0,90.4 29.6,91.6 28.2,92.9 27.0,94.2 26.0,95.6 25.1,97.1 24.4,98.7 23.9,100.2 23.5,101.9 23.3,103.5 23.3,105.1 23.5,106.7 23.9,108.4 24.4,109.9 25.1,111.5 26.0,113.0 27.0,114.4 28.2,115.7 29.6,117.0 31.0,118.2 32.6,119.2 34.4,120.2 36.2,121.0 38.1,121.7 40.0,122.3 42.1,122.8 44.1,123.1 46.2,123.3 48.3,123.3 50.4,123.2 52.5,122.9 54.6,122.6 56.6,122.0 58.5,121.4 60.4,120.6 62.1,119.7 63.8,118.7 65.3,117.6 66.7,116.4 68.0,115.1 69.1,113.7 70.1,112.2 70.9,110.7 71.5,109.2 71.9,107.6 72.2,105.9" fill="url(#sph6)" stroke="#000000" stroke-width="1.0" stroke-linecap="round" stroke-linejoin="round" />
		<polygon points="66.3,104.8 66.2,103.6 66.0,102.5 65.7,101.4 65.3,100.2 64.7,99.2 64.1,98.1 63.3,97.1 62.4,96.2 61.4,95.4 60.4,94.6 59.2,93.8 58.0,93.2 56.7,92.7 55.4,92.2 54.0,91.8 52.6,91.6 51.1,91.4 49.7,91.3 48.2,91.3 46.7,91.5 45.3,91.7 43.9,92.0 42.5,92.4 41.2,92.9 40.0,93.5 38.8,94.2 37.7,95.0 36.7,95.8 35.7,96.7 34.9,97.6 34.2,98.6 33.6,99.7 33.1,100.8 32.7,101.9 32.4,103.1 32.3,104.2 32.3,105.4 32.4,106.5 32.7,107.7 33.1,108.8 33.6,109.9 34.2,111.0 34.9,112.0 35.7,112.9 36.7,113.8 37.7,114.6 38.8,115.4 40.0,116.1 41.2,116.7 42.5,117.2 43.9,117.6 45.3,117.9 46.7,118.1 48.2,118.3 49.7,118.3 51.1,118.2 52.6,118.0 54.0,117.8 55.4,117.4 56.7,116.9 58.0,116.4 59.2,115.8 60.4,115.0 61.4,114.2 62.4,113.4 63.3,112.5 64.1,111.5 64.7,110.4 65.3,109.4 65.7,108.2 66.0,107.1 66.2,106.0" fill="#FFFFFF" stroke="#A0A0A4" stroke-width="1.0" stroke-linecap="round" stroke-linejoin="round" />
		<polygon points="34.3,126.3 17.3,103.3 37.3,81.3 61.3,79.3" fill="#FFFFFF" stroke-opacity="0" stroke-width="1.0" stroke-linecap="round" stroke-linejoin="round" />
		<polyline points="46.3,66.3 46.3,116.3" fill-opacity="0" stroke="#000000" stroke-width="1.0" stroke-linecap="round" stroke-linejoin="round" />
		<polyline points="57.3,86.3 37.3,121.3" fill-opacity="0" stroke="#000000" stroke-width="1.0" stroke-linecap="round" stroke-linejoin="round" />
		<polygon points="179.3,106.3 179.2,105.1 179.1,103.9 178.8,102.7 178.4,101.6 178.0,100.5 177.4,99.4 176.7,98.4 176.0,97.4 175.2,96.5 174.3,95.7 173.3,94.9 172.2,94.3 171.1,93.7 170.0,93.2 168.8,92.8 167.6,92.6 166.4,92.4 165.1,92.3 163.9,92.3 162.6,92.5 161.4,92.7 160.2,93.0 159.0,93.5 157.9,94.0 156.8,94.6 155.8,95.3 154.9,96.1 154.0,96.9 153.2,97.9 152.5,98.9 151.9,99.9 151.4,101.0 151.0,102.1 150.6,103.3 150.4,104.5 150.3,105.7 150.3,106.9 150.4,108.1 150.6,109.3 151.0,110.5 151.4,111.6 151.9,112.7 152.5,113.7 153.2,114.7 154.0,115.7 154.9,116.5 155.8,117.3 156.8,118.0 157.9,118.6 159.0,119.1 160.2,119.6 161.4,119.9 162.6,120.1 163.9,120.3 165.1,120.3 166.4,120.2 167.6,120.0 168.8,119.8 170.0,119.4 171.1,118.9 172.2,118.3 173.3,117.7 174.3,116.9 175.2,116.1 176.0,115.2 176.7,114.2 177.4,113.2 178.0,112.1 178.4,111.0 178.8,109.9 179.1,108.7 179.2,107.5" fill="#000000" stroke="#000000" stroke-width="1.0" stroke-linecap="round" stroke-linejoin="round" />
		<defs>
			<radialGradient id="sph12">
				<stop offset="0%" stop-color="#C0C0C0" />
				<stop offset="10%" stop-color="#BEBEBE" />
				<stop offset="20%" stop-color="#B8B8B8" />
				<stop offset="30%" stop-color="#AFAFAF" />
				<stop offset="40%" stop-color="#A1A1A1" />
				<stop offset="50%" stop-color="#909090" />
				<stop offset="60%" stop-color="#7B7B7B" />
				<stop offset="70%" stop-color="#626262" />
				<stop offset="80%" stop-color="#454545" />
				<stop offset="90%" stop-color="#242424" />
				<stop offset="100%" stop-color="#000000" />
			</radialGradient>
		</defs>
		<polygon points="206.3,106.3 206.2,102.9 205.7,99.4 205.0,96.1 204.0,92.8 202.7,89.6 201.1,86.5 199.3,83.6 197.2,80.9 194.9,78.3 192.4,76.0 189.7,73.8 186.8,71.9 183.8,70.3 180.6,68.9 177.3,67.9 174.0,67.0 170.6,66.5 167.2,66.3 163.7,66.4 160.3,66.8 156.9,67.4 153.6,68.4 150.4,69.6 147.3,71.1 144.3,72.9 141.6,74.9 138.9,77.1 136.5,79.6 134.3,82.2 132.4,85.1 130.7,88.1 129.3,91.2 128.1,94.4 127.2,97.8 126.6,101.2 126.3,104.6 126.3,108.0 126.6,111.4 127.2,114.8 128.1,118.2 129.3,121.4 130.7,124.5 132.4,127.5 134.3,130.4 136.5,133.0 138.9,135.5 141.6,137.7 144.3,139.7 147.3,141.5 150.4,143.0 153.6,144.2 156.9,145.2 160.3,145.8 163.7,146.2 167.2,146.3 170.6,146.1 174.0,145.6 177.3,144.7 180.6,143.7 183.8,142.3 186.8,140.7 189.7,138.8 192.4,136.6 194.9,134.3 197.2,131.7 199.3,129.0 201.1,126.1 202.7,123.0 204.0,119.8 205.0,116.5 205.7,113.2 206.2,109.7" fill="url(#sph12)" stroke="#000000" stroke-width="1.0" stroke-linecap="round" stroke-linejoin="round" />
		<polygon points="196.3,106.3 196.2,103.7 195.9,101.2 195.3,98.6 194.5,96.2 193.6,93.8 192.4,91.5 191.0,89.3 189.5,87.2 187.7,85.3 185.9,83.6 183.8,82.0 181.7,80.5 179.4,79.3 177.0,78.3 174.6,77.5 172.1,76.9 169.5,76.5 166.9,76.3 164.4,76.4 161.8,76.6 159.3,77.1 156.8,77.8 154.4,78.8 152.1,79.9 149.8,81.2 147.7,82.7 145.8,84.4 144.0,86.3 142.3,88.3 140.9,90.4 139.6,92.6 138.5,95.0 137.7,97.4 137.0,99.9 136.5,102.4 136.3,105.0 136.3,107.6 136.5,110.2 137.0,112.7 137.7,115.2 138.5,117.6 139.6,120.0 140.9,122.2 142.3,124.3 144.0,126.3 145.8,128.2 147.7,129.9 149.8,131.4 152.1,132.7 154.4,133.8 156.8,134.8 159.3,135.5 161.8,136.0 164.4,136.2 166.9,136.3 169.5,136.1 172.1,135.7 174.6,135.1 177.0,134.3 179.4,133.3 181.7,132.1 183.8,130.6 185.9,129.0 187.7,127.3 189.5,125.4 191.0,123.3 192.4,121.1 193.6,118.8 194.5,116.4 195.3,114.0 195.9,111.4 196.2,108.9" fill="#FFFFFF" stroke="#C0C0C0" stroke-width="1.0" stroke-linecap="round" stroke-linejoin="round" />
		<polygon points="84.3,149.3 146.3,149.3 146.3,61.3 84.3,61.3" fill="#FFFFFF" stroke="#FFFFFF" stroke-width="1.0" stroke-linecap="round" stroke-linejoin="round" />
		<defs>
			<radialGradient id="sph15">
				<stop offset="0%" stop-color="#C0C0C0" />
				<stop offset="10%" stop-color="#BEBEBE" />
				<stop offset="20%" stop-color="#B8B8B8" />
				<stop offset="30%" stop-color="#AFAFAF" />
				<stop offset="40%" stop-color="#A1A1A1" />
				<stop offset="50%" stop-color="#909090" />
				<stop offset="60%" stop-color="#7B7B7B" />
				<stop offset="70%" stop-color="#626262" />
				<stop offset="80%" stop-color="#454545" />
				<stop offset="90%" stop-color="#242424" />
				<stop offset="100%" stop-color="#000000" />
			</radialGradient>
		</defs>
		<polygon points="181.3,106.3 181.2,105.1 181.1,103.9 180.8,102.7 180.4,101.6 180.0,100.5 179.4,99.4 178.7,98.4 178.0,97.4 177.2,96.5 176.3,95.7 175.3,94.9 174.2,94.3 173.1,93.7 172.0,93.2 170.8,92.8 169.6,92.6 168.4,92.4 167.1,92.3 165.9,92.3 164.6,92.5 163.4,92.7 162.2,93.0 161.0,93.5 159.9,94.0 158.8,94.6 157.8,95.3 156.9,96.1 156.0,96.9 155.2,97.9 154.5,98.9 153.9,99.9 153.4,101.0 153.0,102.1 152.6,103.3 152.4,104.5 152.3,105.7 152.3,106.9 152.4,108.1 152.6,109.3 153.0,110.5 153.4,111.6 153.9,112.7 154.5,113.7 155.2,114.7 156.0,115.7 156.9,116.5 157.8,117.3 158.8,118.0 159.9,118.6 161.0,119.1 162.2,119.6 163.4,119.9 164.6,120.1 165.9,120.3 167.1,120.3 168.4,120.2 169.6,120.0 170.8,119.8 172.0,119.4 173.1,118.9 174.2,118.3 175.3,117.7 176.3,116.9 177.2,116.1 178.0,115.2 178.7,114.2 179.4,113.2 180.0,112.1 180.4,111.0 180.8,109.9 181.1,108.7 181.2,107.5" fill="url(#sph15)" stroke="#000000" stroke-width="1.0" stroke-linecap="round" stroke-linejoin="round" />
		<defs>
			<linearGradient id="cyl16" x1="0" y1="0" x2="0" y2="1">
				<stop offset="0%" stop-color="#000000" />
				<stop offset="5%" stop-color="#242424" />
				<stop offset="10%" stop-color="#454545" />
				<stop offset="15%" stop-color="#626262" />
				<stop offset="20%" stop-color="#7B7B7B" />
				<stop offset="25%" stop-color="#909090" />
				<stop offset="30%" stop-color="#A1A1A1" />
				<stop offset="35%" stop-color="#AFAFAF" />
				<stop offset="40%" stop-color="#B8B8B8" />
				<stop offset="45%" stop-color="#BEBEBE" />
				<stop offset="50%" stop-color="#C0C0C0" />
				<stop offset="55%" stop-color="#BEBEBE" />
				<stop offset="60%" stop-color="#B8B8B8" />
				<stop offset="65%" stop-color="#AFAFAF" />
				<stop offset="70%" stop-color="#A1A1A1" />
				<stop offset="75%" stop-color="#909090" />
				<stop offset="80%" stop-color="#7B7B7B" />
				<stop offset="85%" stop-color="#626262" />
				<stop offset="90%" stop-color="#454545" />
				<stop offset="95%" stop-color="#242424" />
				<stop offset="100%" stop-color="#000000" />
			</linearGradient>
		</defs>
		<polygon points="70.3,114.3 154.3,114.3 154.3,98.3 70.3,98.3" fill="url(#cyl16)" stroke-opacity="0" stroke-width="1.0" stroke-linecap="round" stroke-linejoin="round" />
		<polyline points="66.3,5.3 66.3,46.3 46.3,105.3" fill-opacity="0" stroke="#808080" stroke-width="1.0" stroke-linecap="round" stroke-linejoin="round" />
		<g id="frame_a" class="port">
			<polygon points="4.7,107.9 7.9,107.9 7.9,104.7 4.7,104.7" fill-opacity="0" stroke="#5F5F5F" stroke-width="1.0" stroke-linecap="round" stroke-linejoin="round" />
			<polygon points="1.5,122.3 11.1,122.3 11.1,90.3 1.5,90.3" fill="#C0C0C0" stroke="#000000" stroke-width="1.0" stroke-linecap="round" stroke-linejoin="round" />
		</g>
		<g id="frame_b" class="port">
			<polygon points="204.7,107.9 207.9,107.9 207.9,104.7 204.7,104.7" fill-opacity="0" stroke="#5F5F5F" stroke-width="1.0" stroke-linecap="round" stroke-linejoin="round" />
			<polygon points="201.5,122.3 211.1,122.3 211.1,90.3 201.5,90.3" fill="#FFFFFF" stroke="#000000" stroke-width="1.0" stroke-linecap="round" stroke-linejoin="round" />
		</g>
		<g id="frame_ia" class="port">
			<polygon points="64.7,4.7 64.7,7.9 67.9,7.9 67.9,4.7" fill-opacity="0" stroke="#5F5F5F" stroke-width="1.0" stroke-linecap="round" stroke-linejoin="round" />
			<polygon points="50.3,1.5 50.3,11.1 82.3,11.1 82.3,1.5" fill="#C0C0C0" stroke="#000000" stroke-width="1.0" stroke-linecap="round" stroke-linejoin="round" />
		</g>
	</g>
</svg>
