<svg width="213" height="203" xmlns="http://www.w3.org/2000/svg" xmlns:xlink="http://www.w3.org/1999/xlink">
	<g id="Modelica.Mechanics.MultiBody.Parts.BodyShape" class="component">
		<defs>
			<linearGradient id="cyl2" x1="0" y1="0" x2="0" y2="1">
				<stop offset="0%" stop-color="#001830" />
				<stop offset="5%" stop-color="#002C57" />
				<stop offset="10%" stop-color="#003D7B" />
				<stop offset="15%" stop-color="#004D9A" />
				<stop offset="20%" stop-color="#005AB4" />
				<stop offset="25%" stop-color="#0065CB" />
				<stop offset="30%" stop-color="#006FDE" />
				<stop offset="35%" stop-color="#0076EC" />
				<stop offset="40%" stop-color="#007BF7" />
				<stop offset="45%" stop-color="#007EFD" />
				<stop offset="50%" stop-color="#007FFF" />
				<stop offset="55%" stop-color="#007EFD" />
				<stop offset="60%" stop-color="#007BF7" />
				<stop offset="65%" stop-color="#0076EC" />
				<stop offset="70%" stop-color="#006FDE" />
				<stop offset="75%" stop-color="#0065CB" />
				<stop offset="80%" stop-color="#005AB4" />
				<stop offset="85%" stop-color="#004D9A" />
				<stop offset="90%" stop-color="#003D7B" />
				<stop offset="95%" stop-color="#002C57" />
				<stop offset="100%" stop-color="#001830" />
			</linearGradient>
		</defs>
		<polygon points="9.2,128.6 11.3,130.2 13.7,131.2 16.3,131.5 16.3,131.5 41.0,131.5 106.8,131.5 106.8,131.5 172.6,131.5 197.3,131.5 197.3,131.5 199.9,131.2 202.3,130.2 204.4,128.6 204.4,128.6 205.7,127.0 206.6,125.3 207.1,123.5 207.3,121.5 207.3,121.5 207.3,114.4 207.3,101.5 207.3,101.5 207.3,88.6 207.3,81.5 207.3,81.5 207.1,79.5 206.6,77.7 205.7,76.0 204.4,74.4 204.4,74.4 202.3,72.8 199.9,71.8 197.3,71.5 197.3,71.5 172.6,71.5 106.8,71.5 106.8,71.5 41.0,71.5 16.3,71.5 16.3,71.5 13.7,71.8 11.3,72.8 9.2,74.4 9.2,74.4 7.9,76.0 7.0,77.7 6.5,79.5 6.3,81.5 6.3,81.5 6.3,88.6 6.3,101.5 6.3,101.5 6.3,114.4 6.3,121.5 6.3,121.5 6.5,123.5 7.0,125.3 7.9,127.0" fill="url(#cyl2)" stroke="#001830" stroke-width="1.0" stroke-linecap="butt" stroke-linejoin="round" />
		<defs>
			<radialGradient id="sph3">
				<stop offset="0%" stop-color="#007FFF" />
				<stop offset="10%" stop-color="#007EFD" />
				<stop offset="20%" stop-color="#007BF7" />
				<stop offset="30%" stop-color="#0076EC" />
				<stop offset="40%" stop-color="#006FDE" />
				<stop offset="50%" stop-color="#0065CB" />
				<stop offset="60%" stop-color="#005AB4" />
				<stop offset="70%" stop-color="#004D9A" />
				<stop offset="80%" stop-color="#003D7B" />
				<stop offset="90%" stop-color="#002C57" />
				<stop offset="100%" stop-color="#001830" />
			</radialGradient>
		</defs>
		<polygon points="166.3,101.5 166.1,96.3 165.4,91.2 164.3,86.2 162.8,81.2 160.8,76.5 158.5,71.9 155.7,67.5 152.6,63.4 149.2,59.5 145.4,56.0 141.4,52.8 137.0,50.0 132.5,47.5 127.8,45.5 122.9,43.8 117.8,42.6 112.7,41.8 107.6,41.5 102.4,41.6 97.3,42.2 92.2,43.2 87.3,44.6 82.4,46.4 77.8,48.7 73.4,51.3 69.2,54.4 65.3,57.7 61.7,61.4 58.4,65.4 55.4,69.7 52.9,74.1 50.7,78.8 49.0,83.7 47.7,88.7 46.8,93.8 46.4,98.9 46.4,104.1 46.8,109.2 47.7,114.3 49.0,119.3 50.7,124.2 52.9,128.9 55.4,133.3 58.4,137.6 61.7,141.6 65.3,145.3 69.2,148.6 73.4,151.7 77.8,154.3 82.4,156.6 87.3,158.4 92.2,159.8 97.3,160.8 102.4,161.4 107.6,161.5 112.7,161.2 117.8,160.4 122.9,159.2 127.8,157.5 132.5,155.5 137.0,153.0 141.4,150.2 145.4,147.0 149.2,143.5 152.6,139.6 155.7,135.5 158.5,131.1 160.8,126.5 162.8,121.8 164.3,116.8 165.4,111.8 166.1,106.7" fill="url(#sph3)" stroke="#001830" stroke-width="1.0" stroke-linecap="butt" stroke-linejoin="round" />
		<text x="108.8" y="127.4" text-anchor="middle" fill="#000000" font-size="67.8px" font-family="sans-serif">m</text>
		<text x="179.3" y="114.2" text-anchor="middle" fill="#000000" font-size="33.2px" font-family="sans-serif">b</text>
		<text x="32.3" y="113.2" text-anchor="middle" fill="#000000" font-size="33.2px" font-family="sans-serif">a</text>
		<g id="frame_a" class="port">
			<polygon points="4.7,103.1 7.9,103.1 7.9,99.9 4.7,99.9" fill-opacity="0" stroke="#5F5F5F" stroke-width="1.0" stroke-linecap="butt" stroke-linejoin="round" />
			<polygon points="1.5,117.5 11.1,117.5 11.1,85.5 1.5,85.5" fill="#C0C0C0" stroke="#000000" stroke-width="1.0" stroke-linecap="butt" stroke-linejoin="round" />
		</g>
		<g id="frame_b" class="port">
			<polygon points="204.7,103.1 207.9,103.1 207.9,99.9 204.7,99.9" fill-opacity="0" stroke="#5F5F5F" stroke-width="1.0" stroke-linecap="butt" stroke-linejoin="round" />
			<polygon points="201.5,117.5 211.1,117.5 211.1,85.5 201.5,85.5" fill="#FFFFFF" stroke="#000000" stroke-width="1.0" stroke-linecap="butt" stroke-linejoin="round" />
		</g>
	</g>
</svg>
