<svg width="223" height="207" xmlns="http://www.w3.org/2000/svg" xmlns:xlink="http://www.w3.org/1999/xlink">
	<g id="Modelica.Mechanics.MultiBody.Examples.Loops.Utilities.GasForce" class="component">
		<polygon points="9.5,205.5 213.5,205.5 213.5,1.5 9.5,1.5" fill-opacity="0" stroke="#FF0000" stroke-dasharray="3 4" stroke-width="1.0" stroke-linecap="butt" stroke-linejoin="round" />
		<polygon points="21.5,153.5 201.5,153.5 201.5,53.5 21.5,53.5" fill="#C0C0C0" stroke="#000000" stroke-width="1.0" stroke-linecap="butt" stroke-linejoin="round" />
		<polygon points="71.5,153.5 91.5,153.5 91.5,53.5 71.5,53.5" fill="#0000FF" stroke="#0000FF" stroke-width="1.0" stroke-linecap="butt" stroke-linejoin="round" />
		<polygon points="21.5,113.5 71.5,113.5 71.5,93.5 21.5,93.5" fill="#0000FF" stroke="#0000FF" stroke-width="1.0" stroke-linecap="butt" stroke-linejoin="round" />
		<polygon points="171.5,101.5 165.5,101.5 111.5,101.5 111.5,93.5 91.5,103.5 111.5,113.5 111.5,107.5 171.5,107.5" fill="#FF0000" stroke="#FF0000" stroke-width="1.0" stroke-linecap="butt" stroke-linejoin="round" />
		<g id="flange_a" class="port">
			<polygon points="1.5,113.5 21.5,113.5 21.5,93.5 1.5,93.5" fill="#007F00" stroke="#007F00" stroke-width="1.0" stroke-linecap="butt" stroke-linejoin="round" />
		</g>
		<g id="flange_b" class="port">
			<polygon points="201.5,113.5 221.5,113.5 221.5,93.5 201.5,93.5" fill="#FFFFFF" stroke="#007F00" stroke-width="1.0" stroke-linecap="butt" stroke-linejoin="round" />
		</g>
	</g>
</svg>
