<svg width="223" height="203" xmlns="http://www.w3.org/2000/svg" xmlns:xlink="http://www.w3.org/1999/xlink">
	<g id="Modelica.Electrical.Spice3.Basic.G_VCC" class="component">
		<polygon points="40.5,171.5 180.5,171.5 180.5,31.5 40.5,31.5" fill="#FFFFFF" stroke="#0000FF" stroke-width="1.0" stroke-linecap="round" stroke-linejoin="round" />
		<polyline points="20.5,51.5 80.5,51.5" fill-opacity="0" stroke="#000000" stroke-width="1.0" stroke-linecap="round" stroke-linejoin="round" />
		<polyline points="80.5,151.5 20.5,151.5" fill-opacity="0" stroke="#000000" stroke-width="1.0" stroke-linecap="round" stroke-linejoin="round" />
		<polygon points="160.5,101.5 160.4,99.8 160.2,98.1 159.8,96.4 159.3,94.7 158.7,93.2 157.9,91.6 157.0,90.2 155.9,88.8 154.8,87.5 153.5,86.3 152.2,85.3 150.7,84.3 149.2,83.5 147.7,82.8 146.0,82.3 144.3,81.9 142.6,81.6 140.9,81.5 139.2,81.5 137.5,81.7 135.8,82.1 134.2,82.5 132.5,83.1 131.0,83.9 129.5,84.8 128.1,85.8 126.8,86.9 125.6,88.1 124.5,89.5 123.5,90.9 122.7,92.4 122.0,93.9 121.4,95.6 121.0,97.2 120.7,98.9 120.5,100.6 120.5,102.4 120.7,104.1 121.0,105.8 121.4,107.4 122.0,109.1 122.7,110.6 123.5,112.1 124.5,113.5 125.6,114.9 126.8,116.1 128.1,117.2 129.5,118.2 131.0,119.1 132.5,119.9 134.2,120.5 135.8,120.9 137.5,121.3 139.2,121.5 140.9,121.5 142.6,121.4 144.3,121.1 146.0,120.7 147.7,120.2 149.2,119.5 150.7,118.7 152.2,117.7 153.5,116.7 154.8,115.5 155.9,114.2 157.0,112.8 157.9,111.4 158.7,109.8 159.3,108.3 159.8,106.6 160.2,104.9 160.4,103.2" fill-opacity="0" stroke="#000000" stroke-width="1.0" stroke-linecap="round" stroke-linejoin="round" />
		<polyline points="90.5,41.5 130.5,41.5" fill-opacity="0" stroke="#000000" stroke-width="1.0" stroke-linecap="round" stroke-linejoin="round" />
		<polygon points="130.5,41.5 120.5,38.5 120.5,44.5" fill="#0000FF" stroke="#0000FF" stroke-width="1.0" stroke-linecap="round" stroke-linejoin="round" />
		<polyline points="200.5,51.5 140.5,51.5 140.5,81.5" fill-opacity="0" stroke="#000000" stroke-width="1.0" stroke-linecap="round" stroke-linejoin="round" />
		<polyline points="201.5,151.5 140.5,151.5 140.5,121.5" fill-opacity="0" stroke="#000000" stroke-width="1.0" stroke-linecap="round" stroke-linejoin="round" />
		<polyline points="120.5,101.5 160.5,101.5" fill-opacity="0" stroke="#000000" stroke-width="1.0" stroke-linecap="round" stroke-linejoin="round" />
		<g id="p1" class="port">
			<polygon points="1.5,61.5 21.5,61.5 21.5,41.5 1.5,41.5" fill="#0000FF" stroke="#0000FF" stroke-width="1.0" stroke-linecap="round" stroke-linejoin="round" />
		</g>
		<g id="n1" class="port">
			<polygon points="21.5,161.5 1.5,161.5 1.5,141.5 21.5,141.5" fill="#FFFFFF" stroke="#0000FF" stroke-width="1.0" stroke-linecap="round" stroke-linejoin="round" />
		</g>
		<g id="p2" class="port">
			<polygon points="221.5,61.5 201.5,61.5 201.5,41.5 221.5,41.5" fill="#0000FF" stroke="#0000FF" stroke-width="1.0" stroke-linecap="round" stroke-linejoin="round" />
		</g>
		<g id="n2" class="port">
			<polygon points="201.5,161.5 221.5,161.5 221.5,141.5 201.5,141.5" fill="#FFFFFF" stroke="#0000FF" stroke-width="1.0" stroke-linecap="round" stroke-linejoin="round" />
		</g>
	</g>
</svg>
