<svg width="223" height="233" xmlns="http://www.w3.org/2000/svg" xmlns:xlink="http://www.w3.org/1999/xlink">
	<g id="Modelica.Electrical.Machines.Interfaces.PartialBasicDCMachine" class="component">
		<defs>
			<linearGradient id="cyl2" x1="0" y1="0" x2="0" y2="1">
				<stop offset="0%" stop-color="#000000" />
				<stop offset="5%" stop-color="#001830" />
				<stop offset="10%" stop-color="#002E5C" />
				<stop offset="15%" stop-color="#004182" />
				<stop offset="20%" stop-color="#0052A3" />
				<stop offset="25%" stop-color="#0060BF" />
				<stop offset="30%" stop-color="#006CD6" />
				<stop offset="35%" stop-color="#0074E8" />
				<stop offset="40%" stop-color="#007BF5" />
				<stop offset="45%" stop-color="#007FFC" />
				<stop offset="50%" stop-color="#0080FF" />
				<stop offset="55%" stop-color="#007FFC" />
				<stop offset="60%" stop-color="#007BF5" />
				<stop offset="65%" stop-color="#0074E8" />
				<stop offset="70%" stop-color="#006CD6" />
				<stop offset="75%" stop-color="#0060BF" />
				<stop offset="80%" stop-color="#0052A3" />
				<stop offset="85%" stop-color="#004182" />
				<stop offset="90%" stop-color="#002E5C" />
				<stop offset="95%" stop-color="#001830" />
				<stop offset="100%" stop-color="#000000" />
			</linearGradient>
		</defs>
		<polygon points="61.5,171.5 181.5,171.5 181.5,51.5 61.5,51.5" fill="url(#cyl2)" stroke="#000000" stroke-width="1.0" stroke-linecap="butt" stroke-linejoin="round" />
		<defs>
			<linearGradient id="cyl3" x1="0" y1="0" x2="0" y2="1">
				<stop offset="0%" stop-color="#000000" />
				<stop offset="5%" stop-color="#181818" />
				<stop offset="10%" stop-color="#2E2E2E" />
				<stop offset="15%" stop-color="#414141" />
				<stop offset="20%" stop-color="#525252" />
				<stop offset="25%" stop-color="#606060" />
				<stop offset="30%" stop-color="#6C6C6C" />
				<stop offset="35%" stop-color="#747474" />
				<stop offset="40%" stop-color="#7B7B7B" />
				<stop offset="45%" stop-color="#7F7F7F" />
				<stop offset="50%" stop-color="#808080" />
				<stop offset="55%" stop-color="#7F7F7F" />
				<stop offset="60%" stop-color="#7B7B7B" />
				<stop offset="65%" stop-color="#747474" />
				<stop offset="70%" stop-color="#6C6C6C" />
				<stop offset="75%" stop-color="#606060" />
				<stop offset="80%" stop-color="#525252" />
				<stop offset="85%" stop-color="#414141" />
				<stop offset="90%" stop-color="#2E2E2E" />
				<stop offset="95%" stop-color="#181818" />
				<stop offset="100%" stop-color="#000000" />
			</linearGradient>
		</defs>
		<polygon points="41.5,171.5 61.5,171.5 61.5,51.5 41.5,51.5" fill="url(#cyl3)" stroke="#000000" stroke-width="1.0" stroke-linecap="butt" stroke-linejoin="round" />
		<defs>
			<linearGradient id="cyl4" x1="0" y1="0" x2="0" y2="1">
				<stop offset="0%" stop-color="#000000" />
				<stop offset="5%" stop-color="#121212" />
				<stop offset="10%" stop-color="#222222" />
				<stop offset="15%" stop-color="#303030" />
				<stop offset="20%" stop-color="#3D3D3D" />
				<stop offset="25%" stop-color="#474747" />
				<stop offset="30%" stop-color="#505050" />
				<stop offset="35%" stop-color="#565656" />
				<stop offset="40%" stop-color="#5B5B5B" />
				<stop offset="45%" stop-color="#5E5E5E" />
				<stop offset="50%" stop-color="#5F5F5F" />
				<stop offset="55%" stop-color="#5E5E5E" />
				<stop offset="60%" stop-color="#5B5B5B" />
				<stop offset="65%" stop-color="#565656" />
				<stop offset="70%" stop-color="#505050" />
				<stop offset="75%" stop-color="#474747" />
				<stop offset="80%" stop-color="#3D3D3D" />
				<stop offset="85%" stop-color="#303030" />
				<stop offset="90%" stop-color="#222222" />
				<stop offset="95%" stop-color="#121212" />
				<stop offset="100%" stop-color="#000000" />
			</linearGradient>
		</defs>
		<polygon points="181.5,121.5 201.5,121.5 201.5,101.5 181.5,101.5" fill="url(#cyl4)" stroke="#000000" stroke-width="1.0" stroke-linecap="butt" stroke-linejoin="round" />
		<polygon points="61.5,61.5 141.5,61.5 141.5,41.5 61.5,41.5" fill="#5F5F5F" stroke="#5F5F5F" stroke-width="1.0" stroke-linecap="butt" stroke-linejoin="round" />
		<polygon points="51.5,201.5 61.5,201.5 91.5,131.5 141.5,131.5 171.5,201.5 181.5,201.5 181.5,211.5 51.5,211.5" fill="#000000" stroke="#000000" stroke-width="1.0" stroke-linecap="butt" stroke-linejoin="round" />
		<polygon points="181.5,231.5 221.5,231.5 221.5,191.5 181.5,191.5" fill="#C0C0C0" stroke="#C0C0C0" stroke-width="1.0" stroke-linecap="butt" stroke-linejoin="round" />
		<polyline points="181.5,211.5 221.5,211.5" fill-opacity="0" stroke="#000000" stroke-width="1.0" stroke-linecap="butt" stroke-linejoin="round" />
		<polyline points="191.5,211.5 181.5,231.5" fill-opacity="0" stroke="#000000" stroke-width="1.0" stroke-linecap="butt" stroke-linejoin="round" />
		<polyline points="201.5,211.5 191.5,231.5" fill-opacity="0" stroke="#000000" stroke-width="1.0" stroke-linecap="butt" stroke-linejoin="round" />
		<polyline points="211.5,211.5 201.5,231.5" fill-opacity="0" stroke="#000000" stroke-width="1.0" stroke-linecap="butt" stroke-linejoin="round" />
		<polyline points="221.5,211.5 211.5,231.5" fill-opacity="0" stroke="#000000" stroke-width="1.0" stroke-linecap="butt" stroke-linejoin="round" />
		<polyline points="61.5,41.5 41.5,41.5 41.5,21.5" fill-opacity="0" stroke="#0000FF" stroke-width="1.0" stroke-linecap="butt" stroke-linejoin="round" />
		<polyline points="141.5,41.5 161.5,41.5 161.5,21.5" fill-opacity="0" stroke="#0000FF" stroke-width="1.0" stroke-linecap="butt" stroke-linejoin="round" />
		<g id="flange" class="port">
			<polygon points="211.5,111.5 211.5,110.6 211.4,109.8 211.2,108.9 210.9,108.1 210.6,107.3 210.2,106.6 209.7,105.8 209.2,105.1 208.6,104.5 208.0,103.9 207.3,103.4 206.6,102.9 205.9,102.5 205.1,102.2 204.3,101.9 203.4,101.7 202.6,101.6 201.7,101.5 200.9,101.5 200.0,101.6 199.2,101.8 198.3,102.0 197.5,102.3 196.8,102.7 196.0,103.1 195.3,103.6 194.7,104.2 194.1,104.8 193.5,105.5 193.0,106.2 192.6,106.9 192.2,107.7 192.0,108.5 191.7,109.4 191.6,110.2 191.5,111.1 191.5,111.9 191.6,112.8 191.7,113.6 192.0,114.5 192.2,115.3 192.6,116.1 193.0,116.8 193.5,117.5 194.1,118.2 194.7,118.8 195.3,119.4 196.0,119.9 196.8,120.3 197.5,120.7 198.3,121.0 199.2,121.2 200.0,121.4 200.9,121.5 201.7,121.5 202.6,121.4 203.4,121.3 204.3,121.1 205.1,120.8 205.9,120.5 206.6,120.1 207.3,119.6 208.0,119.1 208.6,118.5 209.2,117.9 209.7,117.2 210.2,116.4 210.6,115.7 210.9,114.9 211.2,114.1 211.4,113.2 211.5,112.4" fill="#5F5F5F" stroke="#000000" stroke-width="1.0" stroke-linecap="butt" stroke-linejoin="round" />
		</g>
		<g id="support" class="port">
			<polygon points="211.5,211.5 211.5,210.6 211.4,209.8 211.2,208.9 210.9,208.1 210.6,207.3 210.2,206.6 209.7,205.8 209.2,205.1 208.6,204.5 208.0,203.9 207.3,203.4 206.6,202.9 205.9,202.5 205.1,202.2 204.3,201.9 203.4,201.7 202.6,201.6 201.7,201.5 200.9,201.5 200.0,201.6 199.2,201.8 198.3,202.0 197.5,202.3 196.8,202.7 196.0,203.1 195.3,203.6 194.7,204.2 194.1,204.8 193.5,205.5 193.0,206.2 192.6,206.9 192.2,207.7 192.0,208.5 191.7,209.4 191.6,210.2 191.5,211.1 191.5,211.9 191.6,212.8 191.7,213.6 192.0,214.5 192.2,215.3 192.6,216.1 193.0,216.8 193.5,217.5 194.1,218.2 194.7,218.8 195.3,219.4 196.0,219.9 196.8,220.3 197.5,220.7 198.3,221.0 199.2,221.2 200.0,221.4 200.9,221.5 201.7,221.5 202.6,221.4 203.4,221.3 204.3,221.1 205.1,220.8 205.9,220.5 206.6,220.1 207.3,219.6 208.0,219.1 208.6,218.5 209.2,217.9 209.7,217.2 210.2,216.4 210.6,215.7 210.9,214.9 211.2,214.1 211.4,213.2 211.5,212.4" fill="#5F5F5F" stroke="#000000" stroke-width="1.0" stroke-linecap="butt" stroke-linejoin="round" />
		</g>
		<g id="pin_ap" class="port">
			<polygon points="151.5,1.5 171.5,1.5 171.5,21.5 151.5,21.5" fill="#0000FF" stroke="#0000FF" stroke-width="1.0" stroke-linecap="butt" stroke-linejoin="round" />
		</g>
		<g id="pin_an" class="port">
			<polygon points="31.5,1.5 51.5,1.5 51.5,21.5 31.5,21.5" fill="#FFFFFF" stroke="#0000FF" stroke-width="1.0" stroke-linecap="butt" stroke-linejoin="round" />
		</g>
		<g id="thermalPort" class="port">
			<polygon points="90.5,222.5 112.5,222.5 112.5,200.5 90.5,200.5" fill="#5F5F5F" stroke="#BF0000" stroke-width="1.0" stroke-linecap="butt" stroke-linejoin="round" />
			<polygon points="109.5,211.5 109.5,210.8 109.4,210.1 109.2,209.5 109.0,208.8 108.8,208.2 108.5,207.5 108.1,207.0 107.7,206.4 107.2,205.9 106.7,205.4 106.2,205.0 105.6,204.6 105.0,204.3 104.4,204.0 103.7,203.8 103.0,203.6 102.4,203.5 101.7,203.5 101.0,203.5 100.3,203.6 99.6,203.7 99.0,203.9 98.3,204.2 97.7,204.5 97.1,204.8 96.6,205.2 96.0,205.7 95.5,206.2 95.1,206.7 94.7,207.3 94.4,207.9 94.1,208.5 93.9,209.1 93.7,209.8 93.6,210.5 93.5,211.2 93.5,211.8 93.6,212.5 93.7,213.2 93.9,213.9 94.1,214.5 94.4,215.1 94.7,215.7 95.1,216.3 95.5,216.8 96.0,217.3 96.6,217.8 97.1,218.2 97.7,218.5 98.3,218.8 99.0,219.1 99.6,219.3 100.3,219.4 101.0,219.5 101.7,219.5 102.4,219.5 103.0,219.4 103.7,219.2 104.4,219.0 105.0,218.7 105.6,218.4 106.2,218.0 106.7,217.6 107.2,217.1 107.7,216.6 108.1,216.0 108.5,215.5 108.8,214.8 109.0,214.2 109.2,213.5 109.4,212.9 109.5,212.2" fill="#BF0000" stroke="#BF0000" stroke-width="1.0" stroke-linecap="butt" stroke-linejoin="round" />
		</g>
	</g>
</svg>
