<svg width="203" height="203" xmlns="http://www.w3.org/2000/svg" xmlns:xlink="http://www.w3.org/1999/xlink">
	<g id="Modelica.Magnetic.FundamentalWave.Interfaces.StateSelector" class="component">
		<polygon points="161.5,101.5 161.3,96.3 160.6,91.2 159.5,86.2 158.0,81.2 156.0,76.5 153.7,71.9 150.9,67.5 147.8,63.4 144.4,59.5 140.6,56.0 136.6,52.8 132.2,50.0 127.7,47.5 123.0,45.5 118.1,43.8 113.0,42.6 107.9,41.8 102.8,41.5 97.6,41.6 92.5,42.2 87.4,43.2 82.5,44.6 77.6,46.4 73.0,48.7 68.6,51.3 64.4,54.4 60.5,57.7 56.9,61.4 53.6,65.4 50.6,69.7 48.1,74.1 45.9,78.8 44.2,83.7 42.9,88.7 42.0,93.8 41.6,98.9 41.6,104.1 42.0,109.2 42.9,114.3 44.2,119.3 45.9,124.2 48.1,128.9 50.6,133.3 53.6,137.6 56.9,141.6 60.5,145.3 64.4,148.6 68.6,151.7 73.0,154.3 77.6,156.6 82.5,158.4 87.4,159.8 92.5,160.8 97.6,161.4 102.8,161.5 107.9,161.2 113.0,160.4 118.1,159.2 123.0,157.5 127.7,155.5 132.2,153.0 136.6,150.2 140.6,147.0 144.4,143.5 147.8,139.6 150.9,135.5 153.7,131.1 156.0,126.5 158.0,121.8 159.5,116.8 160.6,111.8 161.3,106.7" fill="#AAD5FF" stroke="#AAD5FF" stroke-width="1.0" stroke-linecap="round" stroke-linejoin="round" />
		<text x="101.5" y="158.1" text-anchor="middle" fill="#0000FF" font-size="159.4px" font-family="sans-serif">S</text>
		<text x="101.5" y="200.7" text-anchor="middle" fill="#0000FF" font-size="53.1px" font-family="sans-serif">StateSelector</text>
	</g>
</svg>
