<svg width="223" height="203" xmlns="http://www.w3.org/2000/svg" xmlns:xlink="http://www.w3.org/1999/xlink">
	<g id="Modelica.Fluid.Pipes.BaseClasses.WallFriction.TestWallFrictionAndGravity" class="component">
		<defs>
			<linearGradient id="cyl2" x1="0" y1="0" x2="0" y2="1">
				<stop offset="0%" stop-color="#000000" />
				<stop offset="5%" stop-color="#242424" />
				<stop offset="10%" stop-color="#454545" />
				<stop offset="15%" stop-color="#626262" />
				<stop offset="20%" stop-color="#7B7B7B" />
				<stop offset="25%" stop-color="#909090" />
				<stop offset="30%" stop-color="#A1A1A1" />
				<stop offset="35%" stop-color="#AFAFAF" />
				<stop offset="40%" stop-color="#B8B8B8" />
				<stop offset="45%" stop-color="#BEBEBE" />
				<stop offset="50%" stop-color="#C0C0C0" />
				<stop offset="55%" stop-color="#BEBEBE" />
				<stop offset="60%" stop-color="#B8B8B8" />
				<stop offset="65%" stop-color="#AFAFAF" />
				<stop offset="70%" stop-color="#A1A1A1" />
				<stop offset="75%" stop-color="#909090" />
				<stop offset="80%" stop-color="#7B7B7B" />
				<stop offset="85%" stop-color="#626262" />
				<stop offset="90%" stop-color="#454545" />
				<stop offset="95%" stop-color="#242424" />
				<stop offset="100%" stop-color="#000000" />
			</linearGradient>
		</defs>
		<polygon points="11.5,161.5 211.5,161.5 211.5,41.5 11.5,41.5" fill="url(#cyl2)" stroke="#000000" stroke-width="1.0" stroke-linecap="round" stroke-linejoin="round" />
		<defs>
			<linearGradient id="cyl3" x1="0" y1="0" x2="0" y2="1">
				<stop offset="0%" stop-color="#000000" />
				<stop offset="5%" stop-color="#001830" />
				<stop offset="10%" stop-color="#002E5C" />
				<stop offset="15%" stop-color="#004182" />
				<stop offset="20%" stop-color="#0051A3" />
				<stop offset="25%" stop-color="#005FBF" />
				<stop offset="30%" stop-color="#006BD6" />
				<stop offset="35%" stop-color="#0074E8" />
				<stop offset="40%" stop-color="#007AF5" />
				<stop offset="45%" stop-color="#007EFC" />
				<stop offset="50%" stop-color="#007FFF" />
				<stop offset="55%" stop-color="#007EFC" />
				<stop offset="60%" stop-color="#007AF5" />
				<stop offset="65%" stop-color="#0074E8" />
				<stop offset="70%" stop-color="#006BD6" />
				<stop offset="75%" stop-color="#005FBF" />
				<stop offset="80%" stop-color="#0051A3" />
				<stop offset="85%" stop-color="#004182" />
				<stop offset="90%" stop-color="#002E5C" />
				<stop offset="95%" stop-color="#001830" />
				<stop offset="100%" stop-color="#000000" />
			</linearGradient>
		</defs>
		<polygon points="11.5,146.5 211.5,146.5 211.5,57.5 11.5,57.5" fill="url(#cyl3)" stroke="#000000" stroke-width="1.0" stroke-linecap="round" stroke-linejoin="round" />
		<g id="port_a" class="port">
			<polygon points="21.5,101.5 21.5,100.6 21.3,99.8 21.2,98.9 20.9,98.1 20.6,97.3 20.2,96.6 19.7,95.8 19.2,95.1 18.6,94.5 18.0,93.9 17.3,93.4 16.6,92.9 15.9,92.5 15.1,92.2 14.3,91.9 13.4,91.7 12.6,91.6 11.7,91.5 10.8,91.5 10.0,91.6 9.1,91.8 8.3,92.0 7.5,92.3 6.7,92.7 6.0,93.1 5.3,93.6 4.7,94.2 4.0,94.8 3.5,95.5 3.0,96.2 2.6,96.9 2.2,97.7 1.9,98.5 1.7,99.4 1.6,100.2 1.5,101.1 1.5,101.9 1.6,102.8 1.7,103.6 1.9,104.5 2.2,105.3 2.6,106.1 3.0,106.8 3.5,107.5 4.0,108.2 4.7,108.8 5.3,109.4 6.0,109.9 6.7,110.3 7.5,110.7 8.3,111.0 9.1,111.2 10.0,111.4 10.8,111.5 11.7,111.5 12.6,111.4 13.4,111.3 14.3,111.1 15.1,110.8 15.9,110.5 16.6,110.1 17.3,109.6 18.0,109.1 18.6,108.5 19.2,107.9 19.7,107.2 20.2,106.4 20.6,105.7 20.9,104.9 21.2,104.1 21.3,103.2 21.5,102.4" fill="#007FFF" stroke="#007FFF" stroke-width="1.0" stroke-linecap="round" stroke-linejoin="round" />
			<polygon points="21.5,101.5 21.5,100.6 21.3,99.8 21.2,98.9 20.9,98.1 20.6,97.3 20.2,96.6 19.7,95.8 19.2,95.1 18.6,94.5 18.0,93.9 17.3,93.4 16.6,92.9 15.9,92.5 15.1,92.2 14.3,91.9 13.4,91.7 12.6,91.6 11.7,91.5 10.8,91.5 10.0,91.6 9.1,91.8 8.3,92.0 7.5,92.3 6.7,92.7 6.0,93.1 5.3,93.6 4.7,94.2 4.0,94.8 3.5,95.5 3.0,96.2 2.6,96.9 2.2,97.7 1.9,98.5 1.7,99.4 1.6,100.2 1.5,101.1 1.5,101.9 1.6,102.8 1.7,103.6 1.9,104.5 2.2,105.3 2.6,106.1 3.0,106.8 3.5,107.5 4.0,108.2 4.7,108.8 5.3,109.4 6.0,109.9 6.7,110.3 7.5,110.7 8.3,111.0 9.1,111.2 10.0,111.4 10.8,111.5 11.7,111.5 12.6,111.4 13.4,111.3 14.3,111.1 15.1,110.8 15.9,110.5 16.6,110.1 17.3,109.6 18.0,109.1 18.6,108.5 19.2,107.9 19.7,107.2 20.2,106.4 20.6,105.7 20.9,104.9 21.2,104.1 21.3,103.2 21.5,102.4" fill="#007FFF" stroke="#000000" stroke-width="1.0" stroke-linecap="round" stroke-linejoin="round" />
		</g>
		<g id="port_b" class="port">
			<polygon points="201.5,101.5 201.5,100.6 201.6,99.8 201.8,98.9 202.1,98.1 202.4,97.3 202.8,96.6 203.3,95.8 203.8,95.1 204.3,94.5 205.0,93.9 205.6,93.4 206.4,92.9 207.1,92.5 207.9,92.2 208.7,91.9 209.6,91.7 210.4,91.6 211.3,91.5 212.1,91.5 213.0,91.6 213.8,91.8 214.7,92.0 215.5,92.3 216.2,92.7 217.0,93.1 217.7,93.6 218.3,94.2 218.9,94.8 219.5,95.5 220.0,96.2 220.4,96.9 220.7,97.7 221.0,98.5 221.3,99.4 221.4,100.2 221.5,101.1 221.5,101.9 221.4,102.8 221.3,103.6 221.0,104.5 220.7,105.3 220.4,106.1 220.0,106.8 219.5,107.5 218.9,108.2 218.3,108.8 217.7,109.4 217.0,109.9 216.2,110.3 215.5,110.7 214.7,111.0 213.8,111.2 213.0,111.4 212.1,111.5 211.3,111.5 210.4,111.4 209.6,111.3 208.7,111.1 207.9,110.8 207.1,110.5 206.4,110.1 205.6,109.6 205.0,109.1 204.3,108.5 203.8,107.9 203.3,107.2 202.8,106.4 202.4,105.7 202.1,104.9 201.8,104.1 201.6,103.2 201.5,102.4" fill="#007FFF" stroke="#007FFF" stroke-width="1.0" stroke-linecap="round" stroke-linejoin="round" />
			<polygon points="201.5,101.5 201.5,100.6 201.6,99.8 201.8,98.9 202.1,98.1 202.4,97.3 202.8,96.6 203.3,95.8 203.8,95.1 204.3,94.5 205.0,93.9 205.6,93.4 206.4,92.9 207.1,92.5 207.9,92.2 208.7,91.9 209.6,91.7 210.4,91.6 211.3,91.5 212.1,91.5 213.0,91.6 213.8,91.8 214.7,92.0 215.5,92.3 216.2,92.7 217.0,93.1 217.7,93.6 218.3,94.2 218.9,94.8 219.5,95.5 220.0,96.2 220.4,96.9 220.7,97.7 221.0,98.5 221.3,99.4 221.4,100.2 221.5,101.1 221.5,101.9 221.4,102.8 221.3,103.6 221.0,104.5 220.7,105.3 220.4,106.1 220.0,106.8 219.5,107.5 218.9,108.2 218.3,108.8 217.7,109.4 217.0,109.9 216.2,110.3 215.5,110.7 214.7,111.0 213.8,111.2 213.0,111.4 212.1,111.5 211.3,111.5 210.4,111.4 209.6,111.3 208.7,111.1 207.9,110.8 207.1,110.5 206.4,110.1 205.6,109.6 205.0,109.1 204.3,108.5 203.8,107.9 203.3,107.2 202.8,106.4 202.4,105.7 202.1,104.9 201.8,104.1 201.6,103.2 201.5,102.4" fill="#007FFF" stroke="#000000" stroke-width="1.0" stroke-linecap="round" stroke-linejoin="round" />
			<polygon points="203.5,101.5 203.5,100.8 203.6,100.1 203.8,99.5 204.0,98.8 204.2,98.2 204.5,97.5 204.9,97.0 205.3,96.4 205.8,95.9 206.3,95.4 206.8,95.0 207.4,94.6 208.0,94.3 208.6,94.0 209.3,93.8 210.0,93.6 210.6,93.5 211.3,93.5 212.0,93.5 212.7,93.6 213.4,93.7 214.0,93.9 214.7,94.2 215.3,94.5 215.9,94.8 216.4,95.2 217.0,95.7 217.4,96.2 217.9,96.7 218.3,97.3 218.6,97.9 218.9,98.5 219.1,99.1 219.3,99.8 219.4,100.5 219.5,101.2 219.5,101.8 219.4,102.5 219.3,103.2 219.1,103.9 218.9,104.5 218.6,105.1 218.3,105.7 217.9,106.3 217.4,106.8 217.0,107.3 216.4,107.8 215.9,108.2 215.3,108.5 214.7,108.8 214.0,109.1 213.4,109.3 212.7,109.4 212.0,109.5 211.3,109.5 210.6,109.5 210.0,109.4 209.3,109.2 208.6,109.0 208.0,108.7 207.4,108.4 206.8,108.0 206.3,107.6 205.8,107.1 205.3,106.6 204.9,106.0 204.5,105.5 204.2,104.8 204.0,104.2 203.8,103.5 203.6,102.9 203.5,102.2" fill="#FFFFFF" stroke="#007FFF" stroke-width="1.0" stroke-linecap="round" stroke-linejoin="round" />
		</g>
	</g>
</svg>
