<svg width="425" height="227" xmlns="http://www.w3.org/2000/svg" xmlns:xlink="http://www.w3.org/1999/xlink">
	<g id="Modelica.Fluid.Examples.AST_BatchPlant.BaseClasses.TankWith3InletOutletArraysWithEvaporatorCondensor" class="component">
		<defs>
			<linearGradient id="cyl2" x1="0" y1="0" x2="1" y2="0">
				<stop offset="0%" stop-color="#FFFFFF" />
				<stop offset="5%" stop-color="#FFFFFF" />
				<stop offset="10%" stop-color="#FFFFFF" />
				<stop offset="15%" stop-color="#FFFFFF" />
				<stop offset="20%" stop-color="#FFFFFF" />
				<stop offset="25%" stop-color="#FFFFFF" />
				<stop offset="30%" stop-color="#FFFFFF" />
				<stop offset="35%" stop-color="#FFFFFF" />
				<stop offset="40%" stop-color="#FFFFFF" />
				<stop offset="45%" stop-color="#FFFFFF" />
				<stop offset="50%" stop-color="#FFFFFF" />
				<stop offset="55%" stop-color="#FFFFFF" />
				<stop offset="60%" stop-color="#FFFFFF" />
				<stop offset="65%" stop-color="#FFFFFF" />
				<stop offset="70%" stop-color="#FFFFFF" />
				<stop offset="75%" stop-color="#FFFFFF" />
				<stop offset="80%" stop-color="#FFFFFF" />
				<stop offset="85%" stop-color="#FFFFFF" />
				<stop offset="90%" stop-color="#FFFFFF" />
				<stop offset="95%" stop-color="#FFFFFF" />
				<stop offset="100%" stop-color="#FFFFFF" />
			</linearGradient>
		</defs>
		<polygon points="11.5,213.5 211.5,213.5 211.5,13.5 11.5,13.5" fill="url(#cyl2)" stroke="#FFFFFF" stroke-width="1.0" stroke-linecap="round" stroke-linejoin="round" />
		<defs>
			<linearGradient id="cyl3" x1="0" y1="0" x2="1" y2="0">
				<stop offset="0%" stop-color="#000000" />
				<stop offset="5%" stop-color="#102030" />
				<stop offset="10%" stop-color="#1F3D5C" />
				<stop offset="15%" stop-color="#2B5782" />
				<stop offset="20%" stop-color="#366DA3" />
				<stop offset="25%" stop-color="#4080BF" />
				<stop offset="30%" stop-color="#478FD6" />
				<stop offset="35%" stop-color="#4D9BE8" />
				<stop offset="40%" stop-color="#52A3F5" />
				<stop offset="45%" stop-color="#54A8FC" />
				<stop offset="50%" stop-color="#55AAFF" />
				<stop offset="55%" stop-color="#54A8FC" />
				<stop offset="60%" stop-color="#52A3F5" />
				<stop offset="65%" stop-color="#4D9BE8" />
				<stop offset="70%" stop-color="#478FD6" />
				<stop offset="75%" stop-color="#4080BF" />
				<stop offset="80%" stop-color="#366DA3" />
				<stop offset="85%" stop-color="#2B5782" />
				<stop offset="90%" stop-color="#1F3D5C" />
				<stop offset="95%" stop-color="#102030" />
				<stop offset="100%" stop-color="#000000" />
			</linearGradient>
		</defs>
		<polygon points="11.5,213.5 211.5,213.5 211.5,113.5 11.5,113.5" fill="url(#cyl3)" stroke="#000000" stroke-width="1.0" stroke-linecap="round" stroke-linejoin="round" />
		<polyline points="11.5,13.5 11.5,213.5 211.5,213.5 211.5,13.5" fill-opacity="0" stroke="#000000" stroke-width="1.0" stroke-linecap="round" stroke-linejoin="round" />
		<text x="111.5" y="50.0" text-anchor="middle" fill="#0000FF" font-size="9.0px" font-family="sans-serif">TankWith3InletOutletArraysWithEvaporatorCondensor</text>
		<defs>
			<linearGradient id="cyl6" x1="0" y1="0" x2="0" y2="1">
				<stop offset="0%" stop-color="#000000" />
				<stop offset="5%" stop-color="#000030" />
				<stop offset="10%" stop-color="#00005C" />
				<stop offset="15%" stop-color="#000082" />
				<stop offset="20%" stop-color="#0000A3" />
				<stop offset="25%" stop-color="#0000BF" />
				<stop offset="30%" stop-color="#0000D6" />
				<stop offset="35%" stop-color="#0000E8" />
				<stop offset="40%" stop-color="#0000F5" />
				<stop offset="45%" stop-color="#0000FC" />
				<stop offset="50%" stop-color="#0000FF" />
				<stop offset="55%" stop-color="#0000FC" />
				<stop offset="60%" stop-color="#0000F5" />
				<stop offset="65%" stop-color="#0000E8" />
				<stop offset="70%" stop-color="#0000D6" />
				<stop offset="75%" stop-color="#0000BF" />
				<stop offset="80%" stop-color="#0000A3" />
				<stop offset="85%" stop-color="#000082" />
				<stop offset="90%" stop-color="#00005C" />
				<stop offset="95%" stop-color="#000030" />
				<stop offset="100%" stop-color="#000000" />
			</linearGradient>
		</defs>
		<polygon points="211.5,13.5 411.5,43.5 411.5,63.5 411.5,63.5 211.5,33.5" fill="url(#cyl6)" stroke="#000000" stroke-width="1.0" stroke-linecap="round" stroke-linejoin="round" />
		<defs>
			<linearGradient id="cyl7" x1="0" y1="0" x2="0" y2="1">
				<stop offset="0%" stop-color="#000000" />
				<stop offset="5%" stop-color="#203030" />
				<stop offset="10%" stop-color="#3D5C5C" />
				<stop offset="15%" stop-color="#578282" />
				<stop offset="20%" stop-color="#6DA3A3" />
				<stop offset="25%" stop-color="#80BFBF" />
				<stop offset="30%" stop-color="#8FD6D6" />
				<stop offset="35%" stop-color="#9BE8E8" />
				<stop offset="40%" stop-color="#A3F5F5" />
				<stop offset="45%" stop-color="#A8FCFC" />
				<stop offset="50%" stop-color="#AAFFFF" />
				<stop offset="55%" stop-color="#A8FCFC" />
				<stop offset="60%" stop-color="#A3F5F5" />
				<stop offset="65%" stop-color="#9BE8E8" />
				<stop offset="70%" stop-color="#8FD6D6" />
				<stop offset="75%" stop-color="#80BFBF" />
				<stop offset="80%" stop-color="#6DA3A3" />
				<stop offset="85%" stop-color="#578282" />
				<stop offset="90%" stop-color="#3D5C5C" />
				<stop offset="95%" stop-color="#203030" />
				<stop offset="100%" stop-color="#000000" />
			</linearGradient>
		</defs>
		<polygon points="231.5,15.5 241.5,39.5 263.5,29.5 277.5,41.5 297.5,35.5 309.5,47.5 329.5,39.5 341.5,53.5 355.5,43.5 363.5,53.5 379.5,47.5 391.5,59.5 407.5,39.5 401.5,37.5 391.5,49.5 381.5,43.5 367.5,47.5 359.5,37.5 343.5,45.5 331.5,33.5 311.5,39.5 299.5,25.5 281.5,35.5 261.5,21.5 243.5,31.5 239.5,13.5" fill="url(#cyl7)" stroke="#000000" stroke-width="1.0" stroke-linecap="round" stroke-linejoin="round" />
		<text x="113.5" y="103.4" text-anchor="middle" fill="#000000" font-size="26.6px" font-family="sans-serif">level =</text>
		<text x="111.5" y="171.4" text-anchor="middle" fill="#000000" font-size="26.6px" font-family="sans-serif">level_start</text>
		<g id="BottomFluidPort" class="port">
			<polygon points="111.5,205.5 110.6,205.5 109.8,205.6 108.9,205.8 108.1,206.1 107.3,206.4 106.6,206.8 105.8,207.3 105.1,207.8 104.5,208.4 103.9,209.0 103.4,209.7 102.9,210.4 102.5,211.1 102.2,211.9 101.9,212.7 101.7,213.6 101.6,214.4 101.5,215.3 101.5,216.1 101.6,217.0 101.8,217.8 102.0,218.7 102.3,219.5 102.7,220.2 103.1,221.0 103.6,221.7 104.2,222.3 104.8,222.9 105.5,223.5 106.2,224.0 106.9,224.4 107.7,224.8 108.5,225.0 109.4,225.3 110.2,225.4 111.1,225.5 111.9,225.5 112.8,225.4 113.6,225.3 114.5,225.0 115.3,224.8 116.1,224.4 116.8,224.0 117.5,223.5 118.2,222.9 118.8,222.3 119.4,221.7 119.9,221.0 120.3,220.2 120.7,219.5 121.0,218.7 121.2,217.8 121.4,217.0 121.5,216.1 121.5,215.3 121.4,214.4 121.3,213.6 121.1,212.7 120.8,211.9 120.5,211.1 120.1,210.4 119.6,209.7 119.1,209.0 118.5,208.4 117.9,207.8 117.2,207.3 116.4,206.8 115.7,206.4 114.9,206.1 114.1,205.8 113.2,205.6 112.4,205.5" fill="#007FFF" stroke="#007FFF" stroke-width="1.0" stroke-linecap="round" stroke-linejoin="round" />
			<polygon points="111.5,205.5 110.6,205.5 109.8,205.6 108.9,205.8 108.1,206.1 107.3,206.4 106.6,206.8 105.8,207.3 105.1,207.8 104.5,208.4 103.9,209.0 103.4,209.7 102.9,210.4 102.5,211.1 102.2,211.9 101.9,212.7 101.7,213.6 101.6,214.4 101.5,215.3 101.5,216.1 101.6,217.0 101.8,217.8 102.0,218.7 102.3,219.5 102.7,220.2 103.1,221.0 103.6,221.7 104.2,222.3 104.8,222.9 105.5,223.5 106.2,224.0 106.9,224.4 107.7,224.8 108.5,225.0 109.4,225.3 110.2,225.4 111.1,225.5 111.9,225.5 112.8,225.4 113.6,225.3 114.5,225.0 115.3,224.8 116.1,224.4 116.8,224.0 117.5,223.5 118.2,222.9 118.8,222.3 119.4,221.7 119.9,221.0 120.3,220.2 120.7,219.5 121.0,218.7 121.2,217.8 121.4,217.0 121.5,216.1 121.5,215.3 121.4,214.4 121.3,213.6 121.1,212.7 120.8,211.9 120.5,211.1 120.1,210.4 119.6,209.7 119.1,209.0 118.5,208.4 117.9,207.8 117.2,207.3 116.4,206.8 115.7,206.4 114.9,206.1 114.1,205.8 113.2,205.6 112.4,205.5" fill="#007FFF" stroke="#000000" stroke-width="1.0" stroke-linecap="round" stroke-linejoin="round" />
			<polygon points="111.5,207.5 110.8,207.5 110.1,207.6 109.5,207.8 108.8,208.0 108.2,208.2 107.5,208.5 107.0,208.9 106.4,209.3 105.9,209.8 105.4,210.3 105.0,210.8 104.6,211.4 104.3,212.0 104.0,212.6 103.8,213.3 103.6,214.0 103.5,214.6 103.5,215.3 103.5,216.0 103.6,216.7 103.7,217.4 103.9,218.0 104.2,218.7 104.5,219.3 104.8,219.9 105.2,220.4 105.7,221.0 106.2,221.5 106.7,221.9 107.3,222.3 107.9,222.6 108.5,222.9 109.1,223.1 109.8,223.3 110.5,223.4 111.2,223.5 111.8,223.5 112.5,223.4 113.2,223.3 113.9,223.1 114.5,222.9 115.1,222.6 115.7,222.3 116.3,221.9 116.8,221.5 117.3,221.0 117.8,220.4 118.2,219.9 118.5,219.3 118.8,218.7 119.1,218.0 119.3,217.4 119.4,216.7 119.5,216.0 119.5,215.3 119.5,214.6 119.4,214.0 119.2,213.3 119.0,212.6 118.7,212.0 118.4,211.4 118.0,210.8 117.6,210.3 117.1,209.8 116.6,209.3 116.0,208.9 115.5,208.5 114.8,208.2 114.2,208.0 113.5,207.8 112.9,207.6 112.2,207.5" fill="#FFFFFF" stroke="#007FFF" stroke-width="1.0" stroke-linecap="round" stroke-linejoin="round" />
		</g>
		<g id="TopFluidPort" class="port">
			<polygon points="121.5,11.5 121.5,10.6 121.4,9.8 121.2,8.9 120.9,8.1 120.6,7.3 120.2,6.6 119.7,5.8 119.2,5.1 118.6,4.5 118.0,3.9 117.3,3.4 116.6,2.9 115.9,2.5 115.1,2.2 114.3,1.9 113.4,1.7 112.6,1.6 111.7,1.5 110.9,1.5 110.0,1.6 109.2,1.8 108.3,2.0 107.5,2.3 106.8,2.7 106.0,3.1 105.3,3.6 104.7,4.2 104.1,4.8 103.5,5.5 103.0,6.2 102.6,6.9 102.2,7.7 102.0,8.5 101.7,9.4 101.6,10.2 101.5,11.1 101.5,11.9 101.6,12.8 101.7,13.6 102.0,14.5 102.2,15.3 102.6,16.1 103.0,16.8 103.5,17.5 104.1,18.2 104.7,18.8 105.3,19.4 106.0,19.9 106.8,20.3 107.5,20.7 108.3,21.0 109.2,21.2 110.0,21.4 110.9,21.5 111.7,21.5 112.6,21.4 113.4,21.3 114.3,21.1 115.1,20.8 115.9,20.5 116.6,20.1 117.3,19.6 118.0,19.1 118.6,18.5 119.2,17.9 119.7,17.2 120.2,16.4 120.6,15.7 120.9,14.9 121.2,14.1 121.4,13.2 121.5,12.4" fill="#007FFF" stroke="#007FFF" stroke-width="1.0" stroke-linecap="round" stroke-linejoin="round" />
			<polygon points="121.5,11.5 121.5,10.6 121.4,9.8 121.2,8.9 120.9,8.1 120.6,7.3 120.2,6.6 119.7,5.8 119.2,5.1 118.6,4.5 118.0,3.9 117.3,3.4 116.6,2.9 115.9,2.5 115.1,2.2 114.3,1.9 113.4,1.7 112.6,1.6 111.7,1.5 110.9,1.5 110.0,1.6 109.2,1.8 108.3,2.0 107.5,2.3 106.8,2.7 106.0,3.1 105.3,3.6 104.7,4.2 104.1,4.8 103.5,5.5 103.0,6.2 102.6,6.9 102.2,7.7 102.0,8.5 101.7,9.4 101.6,10.2 101.5,11.1 101.5,11.9 101.6,12.8 101.7,13.6 102.0,14.5 102.2,15.3 102.6,16.1 103.0,16.8 103.5,17.5 104.1,18.2 104.7,18.8 105.3,19.4 106.0,19.9 106.8,20.3 107.5,20.7 108.3,21.0 109.2,21.2 110.0,21.4 110.9,21.5 111.7,21.5 112.6,21.4 113.4,21.3 114.3,21.1 115.1,20.8 115.9,20.5 116.6,20.1 117.3,19.6 118.0,19.1 118.6,18.5 119.2,17.9 119.7,17.2 120.2,16.4 120.6,15.7 120.9,14.9 121.2,14.1 121.4,13.2 121.5,12.4" fill="#007FFF" stroke="#000000" stroke-width="1.0" stroke-linecap="round" stroke-linejoin="round" />
		</g>
		<g id="SideFluidPort" class="port">
			<polygon points="231.5,113.5 231.5,112.6 231.4,111.8 231.2,110.9 230.9,110.1 230.6,109.3 230.2,108.6 229.7,107.8 229.2,107.1 228.6,106.5 228.0,105.9 227.3,105.4 226.6,104.9 225.9,104.5 225.1,104.2 224.3,103.9 223.4,103.7 222.6,103.6 221.7,103.5 220.9,103.5 220.0,103.6 219.2,103.8 218.3,104.0 217.5,104.3 216.8,104.7 216.0,105.1 215.3,105.6 214.7,106.2 214.1,106.8 213.5,107.5 213.0,108.2 212.6,108.9 212.2,109.7 212.0,110.5 211.7,111.4 211.6,112.2 211.5,113.1 211.5,113.9 211.6,114.8 211.7,115.6 212.0,116.5 212.2,117.3 212.6,118.1 213.0,118.8 213.5,119.5 214.1,120.2 214.7,120.8 215.3,121.4 216.0,121.9 216.8,122.3 217.5,122.7 218.3,123.0 219.2,123.2 220.0,123.4 220.9,123.5 221.7,123.5 222.6,123.4 223.4,123.3 224.3,123.1 225.1,122.8 225.9,122.5 226.6,122.1 227.3,121.6 228.0,121.1 228.6,120.5 229.2,119.9 229.7,119.2 230.2,118.4 230.6,117.7 230.9,116.9 231.2,116.1 231.4,115.2 231.5,114.4" fill="#007FFF" stroke="#007FFF" stroke-width="1.0" stroke-linecap="round" stroke-linejoin="round" />
			<polygon points="231.5,113.5 231.5,112.6 231.4,111.8 231.2,110.9 230.9,110.1 230.6,109.3 230.2,108.6 229.7,107.8 229.2,107.1 228.6,106.5 228.0,105.9 227.3,105.4 226.6,104.9 225.9,104.5 225.1,104.2 224.3,103.9 223.4,103.7 222.6,103.6 221.7,103.5 220.9,103.5 220.0,103.6 219.2,103.8 218.3,104.0 217.5,104.3 216.8,104.7 216.0,105.1 215.3,105.6 214.7,106.2 214.1,106.8 213.5,107.5 213.0,108.2 212.6,108.9 212.2,109.7 212.0,110.5 211.7,111.4 211.6,112.2 211.5,113.1 211.5,113.9 211.6,114.8 211.7,115.6 212.0,116.5 212.2,117.3 212.6,118.1 213.0,118.8 213.5,119.5 214.1,120.2 214.7,120.8 215.3,121.4 216.0,121.9 216.8,122.3 217.5,122.7 218.3,123.0 219.2,123.2 220.0,123.4 220.9,123.5 221.7,123.5 222.6,123.4 223.4,123.3 224.3,123.1 225.1,122.8 225.9,122.5 226.6,122.1 227.3,121.6 228.0,121.1 228.6,120.5 229.2,119.9 229.7,119.2 230.2,118.4 230.6,117.7 230.9,116.9 231.2,116.1 231.4,115.2 231.5,114.4" fill="#007FFF" stroke="#000000" stroke-width="1.0" stroke-linecap="round" stroke-linejoin="round" />
			<polygon points="229.5,113.5 229.5,112.8 229.4,112.1 229.2,111.5 229.0,110.8 228.8,110.2 228.5,109.5 228.1,109.0 227.7,108.4 227.2,107.9 226.7,107.4 226.2,107.0 225.6,106.6 225.0,106.3 224.4,106.0 223.7,105.8 223.0,105.6 222.4,105.5 221.7,105.5 221.0,105.5 220.3,105.6 219.6,105.7 219.0,105.9 218.3,106.2 217.7,106.5 217.1,106.8 216.6,107.2 216.0,107.7 215.5,108.2 215.1,108.7 214.7,109.3 214.4,109.9 214.1,110.5 213.9,111.1 213.7,111.8 213.6,112.5 213.5,113.2 213.5,113.8 213.6,114.5 213.7,115.2 213.9,115.9 214.1,116.5 214.4,117.1 214.7,117.7 215.1,118.3 215.5,118.8 216.0,119.3 216.6,119.8 217.1,120.2 217.7,120.5 218.3,120.8 219.0,121.1 219.6,121.3 220.3,121.4 221.0,121.5 221.7,121.5 222.4,121.5 223.0,121.3 223.7,121.2 224.4,121.0 225.0,120.7 225.6,120.4 226.2,120.0 226.7,119.6 227.2,119.1 227.7,118.6 228.1,118.0 228.5,117.4 228.8,116.8 229.0,116.2 229.2,115.5 229.4,114.9 229.5,114.2" fill="#FFFFFF" stroke="#007FFF" stroke-width="1.0" stroke-linecap="round" stroke-linejoin="round" />
		</g>
		<g id="Condensed" class="port">
			<polygon points="423.5,53.5 423.5,52.6 423.4,51.8 423.2,50.9 422.9,50.1 422.6,49.3 422.2,48.6 421.7,47.8 421.2,47.1 420.6,46.5 420.0,45.9 419.3,45.4 418.6,44.9 417.9,44.5 417.1,44.2 416.3,43.9 415.4,43.7 414.6,43.6 413.7,43.5 412.9,43.5 412.0,43.6 411.2,43.8 410.3,44.0 409.5,44.3 408.8,44.7 408.0,45.1 407.3,45.6 406.7,46.2 406.1,46.8 405.5,47.5 405.0,48.2 404.6,48.9 404.2,49.7 404.0,50.5 403.7,51.4 403.6,52.2 403.5,53.1 403.5,53.9 403.6,54.8 403.7,55.6 404.0,56.5 404.2,57.3 404.6,58.1 405.0,58.8 405.5,59.5 406.1,60.2 406.7,60.8 407.3,61.4 408.0,61.9 408.8,62.3 409.5,62.7 410.3,63.0 411.2,63.2 412.0,63.4 412.9,63.5 413.7,63.5 414.6,63.4 415.4,63.3 416.3,63.1 417.1,62.8 417.9,62.5 418.6,62.1 419.3,61.6 420.0,61.1 420.6,60.5 421.2,59.9 421.7,59.2 422.2,58.4 422.6,57.7 422.9,56.9 423.2,56.1 423.4,55.2 423.5,54.4" fill="#007FFF" stroke="#007FFF" stroke-width="1.0" stroke-linecap="round" stroke-linejoin="round" />
			<polygon points="423.5,53.5 423.5,52.6 423.4,51.8 423.2,50.9 422.9,50.1 422.6,49.3 422.2,48.6 421.7,47.8 421.2,47.1 420.6,46.5 420.0,45.9 419.3,45.4 418.6,44.9 417.9,44.5 417.1,44.2 416.3,43.9 415.4,43.7 414.6,43.6 413.7,43.5 412.9,43.5 412.0,43.6 411.2,43.8 410.3,44.0 409.5,44.3 408.8,44.7 408.0,45.1 407.3,45.6 406.7,46.2 406.1,46.8 405.5,47.5 405.0,48.2 404.6,48.9 404.2,49.7 404.0,50.5 403.7,51.4 403.6,52.2 403.5,53.1 403.5,53.9 403.6,54.8 403.7,55.6 404.0,56.5 404.2,57.3 404.6,58.1 405.0,58.8 405.5,59.5 406.1,60.2 406.7,60.8 407.3,61.4 408.0,61.9 408.8,62.3 409.5,62.7 410.3,63.0 411.2,63.2 412.0,63.4 412.9,63.5 413.7,63.5 414.6,63.4 415.4,63.3 416.3,63.1 417.1,62.8 417.9,62.5 418.6,62.1 419.3,61.6 420.0,61.1 420.6,60.5 421.2,59.9 421.7,59.2 422.2,58.4 422.6,57.7 422.9,56.9 423.2,56.1 423.4,55.2 423.5,54.4" fill="#007FFF" stroke="#000000" stroke-width="1.0" stroke-linecap="round" stroke-linejoin="round" />
			<polygon points="421.5,53.5 421.5,52.8 421.4,52.1 421.2,51.5 421.0,50.8 420.8,50.2 420.5,49.5 420.1,49.0 419.7,48.4 419.2,47.9 418.7,47.4 418.2,47.0 417.6,46.6 417.0,46.3 416.4,46.0 415.7,45.8 415.0,45.6 414.4,45.5 413.7,45.5 413.0,45.5 412.3,45.6 411.6,45.7 411.0,45.9 410.3,46.2 409.7,46.5 409.1,46.8 408.6,47.2 408.0,47.7 407.5,48.2 407.1,48.7 406.7,49.3 406.4,49.9 406.1,50.5 405.9,51.1 405.7,51.8 405.6,52.5 405.5,53.2 405.5,53.8 405.6,54.5 405.7,55.2 405.9,55.9 406.1,56.5 406.4,57.1 406.7,57.7 407.1,58.3 407.5,58.8 408.0,59.3 408.6,59.8 409.1,60.2 409.7,60.5 410.3,60.8 411.0,61.1 411.6,61.3 412.3,61.4 413.0,61.5 413.7,61.5 414.4,61.5 415.0,61.3 415.7,61.2 416.4,61.0 417.0,60.7 417.6,60.4 418.2,60.0 418.7,59.6 419.2,59.1 419.7,58.6 420.1,58.0 420.5,57.4 420.8,56.8 421.0,56.2 421.2,55.5 421.4,54.9 421.5,54.2" fill="#FFFFFF" stroke="#007FFF" stroke-width="1.0" stroke-linecap="round" stroke-linejoin="round" />
		</g>
		<g id="heatPort" class="port">
			<polygon points="1.5,123.5 21.5,123.5 21.5,103.5 1.5,103.5" fill="#BF0000" stroke="#BF0000" stroke-width="1.0" stroke-linecap="round" stroke-linejoin="round" />
		</g>
	</g>
</svg>
