<svg width="213" height="263" xmlns="http://www.w3.org/2000/svg" xmlns:xlink="http://www.w3.org/1999/xlink">
	<g id="Modelica.Electrical.PowerConverters.ACDC.Control.VoltageBridge2mPulse" class="component">
		<polygon points="11.5,221.5 211.5,221.5 211.5,21.5 11.5,21.5" fill="#FFFFFF" stroke="#00007F" stroke-width="1.0" stroke-linecap="butt" stroke-linejoin="round" />
		<polyline points="71.5,141.5 71.5,145.5 91.5,145.5 91.5,161.5 71.5,161.5 71.5,181.5" fill-opacity="0" stroke="#FF00FF" stroke-width="1.0" stroke-linecap="butt" stroke-linejoin="round" />
		<polyline points="131.5,141.5 131.5,165.5 151.5,165.5 151.5,181.5 131.5,181.5" fill-opacity="0" stroke="#FF00FF" stroke-width="1.0" stroke-linecap="butt" stroke-linejoin="round" />
		<text x="111.5" y="105.0" text-anchor="middle" fill="#FF00FF" font-size="36.9px" font-family="sans-serif">2*3%</text>
		<g id="firingAngle" class="port">
			<polygon points="91.5,261.5 111.5,221.5 131.5,261.5" fill="#00007F" stroke="#00007F" stroke-width="1.0" stroke-linecap="butt" stroke-linejoin="round" />
		</g>
		<g id="ac" class="port">
			<polygon points="21.5,121.5 21.5,120.6 21.3,119.8 21.2,118.9 20.9,118.1 20.6,117.3 20.2,116.6 19.7,115.8 19.2,115.1 18.6,114.5 18.0,113.9 17.3,113.4 16.6,112.9 15.9,112.5 15.1,112.2 14.3,111.9 13.4,111.7 12.6,111.6 11.7,111.5 10.8,111.5 10.0,111.6 9.1,111.8 8.3,112.0 7.5,112.3 6.7,112.7 6.0,113.1 5.3,113.6 4.7,114.2 4.0,114.8 3.5,115.5 3.0,116.2 2.6,116.9 2.2,117.7 1.9,118.5 1.7,119.4 1.6,120.2 1.5,121.1 1.5,121.9 1.6,122.8 1.7,123.6 1.9,124.5 2.2,125.3 2.6,126.1 3.0,126.8 3.5,127.5 4.0,128.2 4.7,128.8 5.3,129.4 6.0,129.9 6.7,130.3 7.5,130.7 8.3,131.0 9.1,131.2 10.0,131.4 10.8,131.5 11.7,131.5 12.6,131.4 13.4,131.3 14.3,131.1 15.1,130.8 15.9,130.5 16.6,130.1 17.3,129.6 18.0,129.1 18.6,128.5 19.2,127.9 19.7,127.2 20.2,126.4 20.6,125.7 20.9,124.9 21.2,124.1 21.3,123.2 21.5,122.4" fill="#0000FF" stroke="#0000FF" stroke-width="1.0" stroke-linecap="butt" stroke-linejoin="round" />
		</g>
		<g id="fire_p" class="port">
			<polygon points="41.5,21.5 51.5,1.5 61.5,21.5" fill="#FFFFFF" stroke="#FF00FF" stroke-width="1.0" stroke-linecap="butt" stroke-linejoin="round" />
		</g>
		<g id="fire_n" class="port">
			<polygon points="161.5,21.5 171.5,1.5 181.5,21.5" fill="#FFFFFF" stroke="#FF00FF" stroke-width="1.0" stroke-linecap="butt" stroke-linejoin="round" />
		</g>
	</g>
</svg>
