<svg width="263" height="203" xmlns="http://www.w3.org/2000/svg" xmlns:xlink="http://www.w3.org/1999/xlink">
	<g id="Modelica.Blocks.Math.Acos" class="component">
		<polygon points="41.5,201.5 241.5,201.5 241.5,1.5 41.5,1.5" fill="#FFFFFF" stroke="#00007F" stroke-width="1.0" stroke-linecap="butt" stroke-linejoin="round" />
		<polygon points="141.5,11.5 133.5,33.5 149.5,33.5" fill="#C0C0C0" stroke="#C0C0C0" stroke-width="1.0" stroke-linecap="butt" stroke-linejoin="round" />
		<polyline points="61.5,21.5 61.9,25.1 62.2,27.4 62.6,29.5 63.1,31.4 63.1,31.4 63.8,33.3 64.7,35.5 65.9,38.0 65.9,38.0 66.8,39.7 67.8,41.4 68.9,43.2 70.2,45.0 71.6,46.9 71.6,46.9 73.1,48.9 74.9,51.0 76.9,53.2 79.2,55.5 81.6,58.0 81.6,58.0 84.4,60.6 87.6,63.4 91.2,66.4 95.2,69.6 99.6,73.0 99.6,73.0 109.9,80.4 125.0,90.7 145.1,104.0 145.1,104.0 160.5,114.3 173.0,122.7 182.4,129.4 189.0,134.3 189.0,134.3 192.8,137.4 196.3,140.4 199.4,143.2 202.2,145.8 204.6,148.2 204.6,148.2 206.4,150.2 208.1,152.1 209.6,153.9 211.0,155.6 212.3,157.3 213.4,159.0 213.4,159.0 214.9,161.2 216.2,163.2 217.2,164.9 217.9,166.4 217.9,166.4 218.5,167.9 219.1,169.9 219.7,172.4 220.3,175.2 221.5,181.5" fill-opacity="0" stroke="#000000" stroke-width="1.0" stroke-linecap="butt" stroke-linejoin="round" />
		<polyline points="141.5,189.5 141.5,33.5" fill-opacity="0" stroke="#C0C0C0" stroke-width="1.0" stroke-linecap="butt" stroke-linejoin="round" />
		<polyline points="51.5,181.5 209.5,181.5" fill-opacity="0" stroke="#C0C0C0" stroke-width="1.0" stroke-linecap="butt" stroke-linejoin="round" />
		<polygon points="231.5,181.5 209.5,173.5 209.5,189.5" fill="#C0C0C0" stroke="#C0C0C0" stroke-width="1.0" stroke-linecap="butt" stroke-linejoin="round" />
		<text x="91.5" y="152.7" text-anchor="middle" fill="#C0C0C0" font-size="36.1px" font-family="sans-serif">acos</text>
		<g id="u" class="port">
			<polygon points="1.5,81.5 41.5,101.5 1.5,121.5" fill="#00007F" stroke="#00007F" stroke-width="1.0" stroke-linecap="butt" stroke-linejoin="round" />
		</g>
		<g id="y" class="port">
			<polygon points="241.5,91.5 261.5,101.5 241.5,111.5" fill="#FFFFFF" stroke="#00007F" stroke-width="1.0" stroke-linecap="butt" stroke-linejoin="round" />
		</g>
	</g>
</svg>
