<svg width="243" height="203" xmlns="http://www.w3.org/2000/svg" xmlns:xlink="http://www.w3.org/1999/xlink">
	<g id="Modelica.Blocks.Math.RealFFT" class="component">
		<polygon points="41.5,201.5 241.5,201.5 241.5,1.5 41.5,1.5" fill="#DFD3A9" stroke="#00007F" stroke-width="1.5" stroke-linecap="round" stroke-linejoin="round" />
		<polyline points="44.5,200.0 240.0,200.0 240.0,4.5" fill-opacity="0" stroke="#706A55" stroke-width="3.0" stroke-linecap="round" stroke-linejoin="round" />
		<polyline points="43.0,198.5 43.0,3.0 238.5,3.0" fill-opacity="0" stroke="#EFE9D4" stroke-width="3.0" stroke-linecap="round" stroke-linejoin="round" />
		<polygon points="61.5,5.5 55.5,21.5 67.5,21.5" fill="#C0C0C0" stroke="#878787" stroke-width="1.0" stroke-linecap="round" stroke-linejoin="round" />
		<polyline points="61.5,193.5 61.5,21.5" fill-opacity="0" stroke="#878787" stroke-width="1.0" stroke-linecap="round" stroke-linejoin="round" />
		<polyline points="49.5,181.5 221.5,181.9" fill-opacity="0" stroke="#878787" stroke-width="1.0" stroke-linecap="round" stroke-linejoin="round" />
		<polygon points="237.5,181.9 221.5,175.9 221.5,187.9" fill="#C0C0C0" stroke="#878787" stroke-width="1.0" stroke-linecap="round" stroke-linejoin="round" />
		<polyline points="71.5,41.5 71.5,181.5" fill-opacity="0" stroke="#000000" stroke-width="1.0" stroke-linecap="round" stroke-linejoin="round" />
		<polyline points="111.5,153.5 111.5,181.5" fill-opacity="0" stroke="#000000" stroke-width="1.0" stroke-linecap="round" stroke-linejoin="round" />
		<polyline points="131.5,161.5 131.5,181.5" fill-opacity="0" stroke="#000000" stroke-width="1.0" stroke-linecap="round" stroke-linejoin="round" />
		<polyline points="171.5,169.5 171.5,181.5" fill-opacity="0" stroke="#000000" stroke-width="1.0" stroke-linecap="round" stroke-linejoin="round" />
		<polyline points="191.5,171.5 191.5,181.5" fill-opacity="0" stroke="#000000" stroke-width="1.0" stroke-linecap="round" stroke-linejoin="round" />
		<g id="u" class="port">
			<polygon points="1.5,81.5 41.5,101.5 1.5,121.5" fill="#00007F" stroke="#00007F" stroke-width="1.0" stroke-linecap="round" stroke-linejoin="round" />
		</g>
	</g>
</svg>
