<svg width="223" height="223" xmlns="http://www.w3.org/2000/svg" xmlns:xlink="http://www.w3.org/1999/xlink">
	<g id="Modelica.Fluid.Sensors.DensityTwoPort" class="component">
		<polygon points="181.5,121.5 181.2,115.5 180.5,109.5 179.2,103.6 177.4,97.9 175.1,92.3 172.4,86.9 169.2,81.8 165.5,77.0 161.5,72.5 157.1,68.4 152.4,64.7 147.4,61.4 142.1,58.5 136.5,56.1 130.8,54.2 125.0,52.8 119.0,51.9 113.0,51.5 107.0,51.6 101.0,52.3 95.1,53.5 89.3,55.1 83.7,57.3 78.2,59.9 73.1,63.0 68.2,66.5 63.6,70.4 59.4,74.7 55.6,79.4 52.2,84.3 49.2,89.6 46.7,95.1 44.6,100.7 43.1,106.6 42.1,112.5 41.6,118.5 41.6,124.5 42.1,130.5 43.1,136.4 44.6,142.3 46.7,147.9 49.2,153.4 52.2,158.7 55.6,163.6 59.4,168.3 63.6,172.6 68.2,176.5 73.1,180.0 78.2,183.1 83.7,185.7 89.3,187.9 95.1,189.5 101.0,190.7 107.0,191.4 113.0,191.5 119.0,191.1 125.0,190.2 130.8,188.8 136.5,186.9 142.1,184.5 147.4,181.6 152.4,178.3 157.1,174.6 161.5,170.5 165.5,166.0 169.2,161.2 172.4,156.1 175.1,150.7 177.4,145.1 179.2,139.4 180.5,133.5 181.2,127.5" fill="#F5F5F5" stroke="#000000" stroke-width="1.0" stroke-linecap="butt" stroke-linejoin="round" />
		<polyline points="111.5,51.5 111.5,81.5" fill-opacity="0" stroke="#000000" stroke-width="1.0" stroke-linecap="butt" stroke-linejoin="round" />
		<polyline points="134.4,88.7 151.7,64.2" fill-opacity="0" stroke="#000000" stroke-width="1.0" stroke-linecap="butt" stroke-linejoin="round" />
		<polyline points="88.6,88.7 71.3,64.2" fill-opacity="0" stroke="#000000" stroke-width="1.0" stroke-linecap="butt" stroke-linejoin="round" />
		<polyline points="149.1,107.8 177.3,97.6" fill-opacity="0" stroke="#000000" stroke-width="1.0" stroke-linecap="butt" stroke-linejoin="round" />
		<polyline points="73.9,107.8 45.7,97.6" fill-opacity="0" stroke="#000000" stroke-width="1.0" stroke-linecap="butt" stroke-linejoin="round" />
		<polygon points="123.5,121.5 123.4,120.5 123.3,119.4 123.1,118.4 122.8,117.4 122.4,116.5 121.9,115.6 121.4,114.7 120.8,113.9 120.1,113.1 119.3,112.4 118.5,111.8 117.6,111.2 116.7,110.7 115.8,110.3 114.8,110.0 113.8,109.7 112.8,109.6 111.7,109.5 110.7,109.5 109.7,109.6 108.7,109.8 107.7,110.1 106.7,110.5 105.8,110.9 104.9,111.5 104.1,112.1 103.3,112.7 102.6,113.5 101.9,114.3 101.3,115.1 100.8,116.0 100.4,117.0 100.0,117.9 99.8,118.9 99.6,120.0 99.5,121.0 99.5,122.0 99.6,123.0 99.8,124.1 100.0,125.1 100.4,126.0 100.8,127.0 101.3,127.9 101.9,128.7 102.6,129.5 103.3,130.3 104.1,130.9 104.9,131.5 105.8,132.1 106.7,132.5 107.7,132.9 108.7,133.2 109.7,133.4 110.7,133.5 111.7,133.5 112.8,133.4 113.8,133.3 114.8,133.0 115.8,132.7 116.7,132.3 117.6,131.8 118.5,131.2 119.3,130.6 120.1,129.9 120.8,129.1 121.4,128.3 121.9,127.4 122.4,126.5 122.8,125.6 123.1,124.6 123.3,123.6 123.4,122.5" fill-opacity="0" stroke="#404040" stroke-width="1.0" stroke-linecap="butt" stroke-linejoin="round" />
		<polygon points="106.7,120.0 127.6,63.7 131.0,59.5 131.4,64.9 116.3,123.0" fill="#404040" stroke-opacity="0" stroke-width="1.0" stroke-linecap="butt" stroke-linejoin="round" />
		<polygon points="118.5,121.5 118.5,120.9 118.4,120.3 118.3,119.7 118.1,119.1 117.9,118.6 117.6,118.0 117.3,117.5 116.9,117.1 116.5,116.6 116.1,116.2 115.6,115.8 115.1,115.5 114.5,115.2 114.0,115.0 113.4,114.8 112.8,114.6 112.2,114.5 111.6,114.5 111.0,114.5 110.4,114.6 109.8,114.7 109.3,114.9 108.7,115.1 108.2,115.3 107.6,115.6 107.2,116.0 106.7,116.4 106.3,116.8 105.9,117.3 105.6,117.8 105.3,118.3 105.0,118.9 104.8,119.4 104.7,120.0 104.5,120.6 104.5,121.2 104.5,121.8 104.5,122.4 104.7,123.0 104.8,123.6 105.0,124.1 105.3,124.7 105.6,125.2 105.9,125.7 106.3,126.2 106.7,126.6 107.2,127.0 107.6,127.4 108.2,127.7 108.7,127.9 109.3,128.1 109.8,128.3 110.4,128.4 111.0,128.5 111.6,128.5 112.2,128.5 112.8,128.4 113.4,128.2 114.0,128.0 114.5,127.8 115.1,127.5 115.6,127.2 116.1,126.8 116.5,126.4 116.9,125.9 117.3,125.5 117.6,125.0 117.9,124.4 118.1,123.9 118.3,123.3 118.4,122.7 118.5,122.1" fill="#404040" stroke-opacity="0" stroke-width="1.0" stroke-linecap="butt" stroke-linejoin="round" />
		<polyline points="111.5,21.5 111.5,51.5" fill-opacity="0" stroke="#00007F" stroke-width="1.0" stroke-linecap="butt" stroke-linejoin="round" />
		<polyline points="11.5,121.5 41.5,121.5" fill-opacity="0" stroke="#0080FF" stroke-width="1.0" stroke-linecap="butt" stroke-linejoin="round" />
		<polyline points="181.5,121.5 211.5,121.5" fill-opacity="0" stroke="#0080FF" stroke-width="1.0" stroke-linecap="butt" stroke-linejoin="round" />
		<g id="port_a" class="port">
			<polygon points="21.5,121.5 21.5,120.6 21.3,119.8 21.2,118.9 20.9,118.1 20.6,117.3 20.2,116.6 19.7,115.8 19.2,115.1 18.6,114.5 18.0,113.9 17.3,113.4 16.6,112.9 15.9,112.5 15.1,112.2 14.3,111.9 13.4,111.7 12.6,111.6 11.7,111.5 10.8,111.5 10.0,111.6 9.1,111.8 8.3,112.0 7.5,112.3 6.7,112.7 6.0,113.1 5.3,113.6 4.7,114.2 4.0,114.8 3.5,115.5 3.0,116.2 2.6,116.9 2.2,117.7 1.9,118.5 1.7,119.4 1.6,120.2 1.5,121.1 1.5,121.9 1.6,122.8 1.7,123.6 1.9,124.5 2.2,125.3 2.6,126.1 3.0,126.8 3.5,127.5 4.0,128.2 4.7,128.8 5.3,129.4 6.0,129.9 6.7,130.3 7.5,130.7 8.3,131.0 9.1,131.2 10.0,131.4 10.8,131.5 11.7,131.5 12.6,131.4 13.4,131.3 14.3,131.1 15.1,130.8 15.9,130.5 16.6,130.1 17.3,129.6 18.0,129.1 18.6,128.5 19.2,127.9 19.7,127.2 20.2,126.4 20.6,125.7 20.9,124.9 21.2,124.1 21.3,123.2 21.5,122.4" fill="#007FFF" stroke="#007FFF" stroke-width="1.0" stroke-linecap="butt" stroke-linejoin="round" />
			<polygon points="21.5,121.5 21.5,120.6 21.3,119.8 21.2,118.9 20.9,118.1 20.6,117.3 20.2,116.6 19.7,115.8 19.2,115.1 18.6,114.5 18.0,113.9 17.3,113.4 16.6,112.9 15.9,112.5 15.1,112.2 14.3,111.9 13.4,111.7 12.6,111.6 11.7,111.5 10.8,111.5 10.0,111.6 9.1,111.8 8.3,112.0 7.5,112.3 6.7,112.7 6.0,113.1 5.3,113.6 4.7,114.2 4.0,114.8 3.5,115.5 3.0,116.2 2.6,116.9 2.2,117.7 1.9,118.5 1.7,119.4 1.6,120.2 1.5,121.1 1.5,121.9 1.6,122.8 1.7,123.6 1.9,124.5 2.2,125.3 2.6,126.1 3.0,126.8 3.5,127.5 4.0,128.2 4.7,128.8 5.3,129.4 6.0,129.9 6.7,130.3 7.5,130.7 8.3,131.0 9.1,131.2 10.0,131.4 10.8,131.5 11.7,131.5 12.6,131.4 13.4,131.3 14.3,131.1 15.1,130.8 15.9,130.5 16.6,130.1 17.3,129.6 18.0,129.1 18.6,128.5 19.2,127.9 19.7,127.2 20.2,126.4 20.6,125.7 20.9,124.9 21.2,124.1 21.3,123.2 21.5,122.4" fill="#007FFF" stroke="#000000" stroke-width="1.0" stroke-linecap="butt" stroke-linejoin="round" />
		</g>
		<g id="port_b" class="port">
			<polygon points="201.5,121.5 201.5,120.6 201.6,119.8 201.8,118.9 202.1,118.1 202.4,117.3 202.8,116.6 203.3,115.8 203.8,115.1 204.3,114.5 205.0,113.9 205.6,113.4 206.4,112.9 207.1,112.5 207.9,112.2 208.7,111.9 209.6,111.7 210.4,111.6 211.3,111.5 212.1,111.5 213.0,111.6 213.8,111.8 214.7,112.0 215.5,112.3 216.2,112.7 217.0,113.1 217.7,113.6 218.3,114.2 218.9,114.8 219.5,115.5 220.0,116.2 220.4,116.9 220.7,117.7 221.0,118.5 221.3,119.4 221.4,120.2 221.5,121.1 221.5,121.9 221.4,122.8 221.3,123.6 221.0,124.5 220.7,125.3 220.4,126.1 220.0,126.8 219.5,127.5 218.9,128.2 218.3,128.8 217.7,129.4 217.0,129.9 216.2,130.3 215.5,130.7 214.7,131.0 213.8,131.2 213.0,131.4 212.1,131.5 211.3,131.5 210.4,131.4 209.6,131.3 208.7,131.1 207.9,130.8 207.1,130.5 206.4,130.1 205.6,129.6 205.0,129.1 204.3,128.5 203.8,127.9 203.3,127.2 202.8,126.4 202.4,125.7 202.1,124.9 201.8,124.1 201.6,123.2 201.5,122.4" fill="#007FFF" stroke="#007FFF" stroke-width="1.0" stroke-linecap="butt" stroke-linejoin="round" />
			<polygon points="201.5,121.5 201.5,120.6 201.6,119.8 201.8,118.9 202.1,118.1 202.4,117.3 202.8,116.6 203.3,115.8 203.8,115.1 204.3,114.5 205.0,113.9 205.6,113.4 206.4,112.9 207.1,112.5 207.9,112.2 208.7,111.9 209.6,111.7 210.4,111.6 211.3,111.5 212.1,111.5 213.0,111.6 213.8,111.8 214.7,112.0 215.5,112.3 216.2,112.7 217.0,113.1 217.7,113.6 218.3,114.2 218.9,114.8 219.5,115.5 220.0,116.2 220.4,116.9 220.7,117.7 221.0,118.5 221.3,119.4 221.4,120.2 221.5,121.1 221.5,121.9 221.4,122.8 221.3,123.6 221.0,124.5 220.7,125.3 220.4,126.1 220.0,126.8 219.5,127.5 218.9,128.2 218.3,128.8 217.7,129.4 217.0,129.9 216.2,130.3 215.5,130.7 214.7,131.0 213.8,131.2 213.0,131.4 212.1,131.5 211.3,131.5 210.4,131.4 209.6,131.3 208.7,131.1 207.9,130.8 207.1,130.5 206.4,130.1 205.6,129.6 205.0,129.1 204.3,128.5 203.8,127.9 203.3,127.2 202.8,126.4 202.4,125.7 202.1,124.9 201.8,124.1 201.6,123.2 201.5,122.4" fill="#007FFF" stroke="#000000" stroke-width="1.0" stroke-linecap="butt" stroke-linejoin="round" />
			<polygon points="203.5,121.5 203.5,120.8 203.6,120.1 203.8,119.5 204.0,118.8 204.2,118.2 204.5,117.5 204.9,117.0 205.3,116.4 205.8,115.9 206.3,115.4 206.8,115.0 207.4,114.6 208.0,114.3 208.6,114.0 209.3,113.8 210.0,113.6 210.6,113.5 211.3,113.5 212.0,113.5 212.7,113.6 213.4,113.7 214.0,113.9 214.7,114.2 215.3,114.5 215.9,114.8 216.4,115.2 217.0,115.7 217.4,116.2 217.9,116.7 218.3,117.3 218.6,117.9 218.9,118.5 219.1,119.1 219.3,119.8 219.4,120.5 219.5,121.2 219.5,121.8 219.4,122.5 219.3,123.2 219.1,123.9 218.9,124.5 218.6,125.1 218.3,125.7 217.9,126.3 217.4,126.8 217.0,127.3 216.4,127.8 215.9,128.2 215.3,128.5 214.7,128.8 214.0,129.1 213.4,129.3 212.7,129.4 212.0,129.5 211.3,129.5 210.6,129.5 210.0,129.4 209.3,129.2 208.6,129.0 208.0,128.7 207.4,128.4 206.8,128.0 206.3,127.6 205.8,127.1 205.3,126.6 204.9,126.0 204.5,125.5 204.2,124.8 204.0,124.2 203.8,123.5 203.6,122.9 203.5,122.2" fill="#FFFFFF" stroke="#007FFF" stroke-width="1.0" stroke-linecap="butt" stroke-linejoin="round" />
		</g>
		<g id="d" class="port">
			<polygon points="121.5,21.5 111.5,1.5 101.5,21.5" fill="#FFFFFF" stroke="#00007F" stroke-width="1.0" stroke-linecap="butt" stroke-linejoin="round" />
		</g>
	</g>
</svg>
