<svg width="223" height="203" xmlns="http://www.w3.org/2000/svg" xmlns:xlink="http://www.w3.org/1999/xlink">
	<g id="Modelica.Electrical.Analog.Sources.CosineVoltage" class="component">
		<polygon points="161.5,101.5 161.3,97.2 160.8,92.9 159.8,88.7 158.6,84.6 156.9,80.6 155.0,76.8 152.7,73.2 150.1,69.7 147.2,66.5 144.1,63.6 140.7,60.9 137.1,58.6 133.3,56.5 129.4,54.8 125.3,53.4 121.1,52.4 116.9,51.8 112.6,51.5 108.3,51.6 104.0,52.1 99.8,52.9 95.6,54.1 91.6,55.6 87.8,57.5 84.1,59.7 80.6,62.2 77.3,65.0 74.3,68.1 71.6,71.4 69.1,75.0 67.0,78.7 65.2,82.6 63.8,86.7 62.7,90.8 61.9,95.1 61.5,99.3 61.5,103.7 61.9,107.9 62.7,112.2 63.8,116.3 65.2,120.4 67.0,124.3 69.1,128.0 71.6,131.6 74.3,134.9 77.3,138.0 80.6,140.8 84.1,143.3 87.8,145.5 91.6,147.4 95.6,148.9 99.8,150.1 104.0,150.9 108.3,151.4 112.6,151.5 116.9,151.2 121.1,150.6 125.3,149.6 129.4,148.2 133.3,146.5 137.1,144.4 140.7,142.1 144.1,139.4 147.2,136.5 150.1,133.3 152.7,129.8 155.0,126.2 156.9,122.4 158.6,118.4 159.8,114.3 160.8,110.1 161.3,105.8" fill="#FFFFFF" stroke="#0000FF" stroke-width="1.0" stroke-linecap="butt" stroke-linejoin="round" />
		<polyline points="21.5,101.5 201.5,101.5" fill-opacity="0" stroke="#0000FF" stroke-width="1.0" stroke-linecap="butt" stroke-linejoin="round" />
		<polyline points="31.5,81.5 51.5,81.5" fill-opacity="0" stroke="#0000FF" stroke-width="1.0" stroke-linecap="butt" stroke-linejoin="round" />
		<polyline points="41.5,71.5 41.5,91.5" fill-opacity="0" stroke="#0000FF" stroke-width="1.0" stroke-linecap="butt" stroke-linejoin="round" />
		<polyline points="171.5,81.5 191.5,81.5" fill-opacity="0" stroke="#0000FF" stroke-width="1.0" stroke-linecap="butt" stroke-linejoin="round" />
		<polyline points="40.5,31.5 41.8,31.6 43.4,32.0 45.6,33.1 45.6,33.1 47.2,34.2 48.8,35.7 50.4,37.5 50.4,37.5 51.7,39.1 52.9,40.9 54.2,42.8 55.4,45.0 55.4,45.0 56.4,46.9 57.4,49.0 58.5,51.2 59.6,53.6 60.7,56.2 60.7,56.2 62.6,61.0 64.7,66.6 67.0,72.9 67.0,72.9 69.8,81.0 73.4,91.9 77.9,105.6 77.9,105.6 82.4,119.2 85.9,129.7 88.4,137.0 88.4,137.0 90.0,141.1 91.5,144.9 93.0,148.4 94.4,151.6 94.4,151.6 95.6,154.0 96.7,156.1 97.7,158.1 98.8,160.0 99.8,161.6 99.8,161.6 101.0,163.4 102.2,165.1 103.4,166.6 104.6,167.8 104.6,167.8 106.3,169.2 107.9,170.2 109.6,170.8 109.6,170.8 112.0,171.1 114.5,170.4 114.5,170.4 116.2,169.6 117.8,168.3 119.4,166.7 119.4,166.7 120.7,165.3 121.9,163.6 123.1,161.8 124.4,159.8 124.4,159.8 125.3,158.0 126.4,156.1 127.4,154.0 128.5,151.7 129.6,149.2 129.6,149.2 131.6,144.6 133.7,139.2 136.0,133.0 136.0,133.0 138.3,126.4 140.7,119.5 143.0,112.4 146.5,101.5" fill-opacity="0" stroke="#C0C0C0" stroke-width="1.0" stroke-linecap="butt" stroke-linejoin="round" />
		<polyline points="146.5,101.5 156.3,71.6 162.7,55.0 168.3,43.4 173.2,36.3 178.2,32.3 183.1,31.7" fill-opacity="0" stroke="#C0C0C0" stroke-width="1.0" stroke-linecap="butt" stroke-linejoin="round" />
		<g id="p" class="port">
			<polygon points="1.5,111.5 21.5,111.5 21.5,91.5 1.5,91.5" fill="#0000FF" stroke="#0000FF" stroke-width="1.0" stroke-linecap="butt" stroke-linejoin="round" />
		</g>
		<g id="n" class="port">
			<polygon points="221.5,111.5 201.5,111.5 201.5,91.5 221.5,91.5" fill="#FFFFFF" stroke="#0000FF" stroke-width="1.0" stroke-linecap="butt" stroke-linejoin="round" />
		</g>
	</g>
</svg>
