<svg width="223" height="203" xmlns="http://www.w3.org/2000/svg" xmlns:xlink="http://www.w3.org/1999/xlink">
	<g id="Modelica.Blocks.Sources.Cosine" class="component">
		<polygon points="1.5,201.5 201.5,201.5 201.5,1.5 1.5,1.5" fill="#FFFFFF" stroke="#00007F" stroke-width="1.0" stroke-linecap="butt" stroke-linejoin="round" />
		<polyline points="21.5,33.5 21.5,181.5" fill-opacity="0" stroke="#C0C0C0" stroke-width="1.0" stroke-linecap="butt" stroke-linejoin="round" />
		<polygon points="21.5,11.5 13.5,33.5 29.5,33.5" fill="#C0C0C0" stroke="#C0C0C0" stroke-width="1.0" stroke-linecap="butt" stroke-linejoin="round" />
		<polyline points="11.5,101.5 169.5,101.5" fill-opacity="0" stroke="#C0C0C0" stroke-width="1.0" stroke-linecap="butt" stroke-linejoin="round" />
		<polygon points="191.5,101.5 169.5,93.5 169.5,109.5" fill="#C0C0C0" stroke="#C0C0C0" stroke-width="1.0" stroke-linecap="butt" stroke-linejoin="round" />
		<polyline points="21.5,21.5 23.4,21.6 24.8,21.8 26.3,22.4 28.1,23.3 28.1,23.3 29.5,24.2 30.9,25.4 32.3,26.7 33.8,28.4 33.8,28.4 34.9,29.8 36.0,31.4 37.2,33.1 38.3,35.0 39.4,37.0 39.4,37.0 40.8,39.7 42.3,42.7 43.8,46.1 45.4,49.8 45.4,49.8 47.6,55.3 50.0,61.6 52.6,68.8 52.6,68.8 55.8,78.1 60.0,90.6 65.1,106.3 65.1,106.3 70.2,121.8 74.3,133.7 77.2,142.0 77.2,142.0 79.0,146.7 80.7,151.0 82.4,155.0 84.0,158.7 84.0,158.7 85.3,161.4 86.5,163.9 87.7,166.2 88.9,168.3 90.0,170.2 90.0,170.2 91.4,172.3 92.8,174.2 94.2,175.8 95.6,177.2 95.6,177.2 97.5,178.8 99.4,180.0 101.3,180.7 101.3,180.7 103.2,181.0 105.0,180.9 106.9,180.3 106.9,180.3 108.8,179.3 110.7,177.9 112.6,176.0 112.6,176.0 114.0,174.4 115.4,172.6 116.8,170.5 118.2,168.2 118.2,168.2 119.3,166.2 120.5,164.0 121.7,161.5 122.9,158.9 124.2,156.0 124.2,156.0 126.4,150.7 128.8,144.5 131.4,137.5 131.4,137.5 134.1,129.9 136.8,122.0 139.5,113.9 143.5,101.5" fill-opacity="0" stroke="#000000" stroke-width="1.0" stroke-linecap="butt" stroke-linejoin="round" />
		<polyline points="143.5,100.5 154.8,66.3 162.0,47.4 168.4,34.1 174.1,25.9 179.7,21.4 185.3,20.7" fill-opacity="0" stroke="#000000" stroke-width="1.0" stroke-linecap="butt" stroke-linejoin="round" />
		<g id="y" class="port">
			<polygon points="201.5,91.5 221.5,101.5 201.5,111.5" fill="#FFFFFF" stroke="#00007F" stroke-width="1.0" stroke-linecap="butt" stroke-linejoin="round" />
		</g>
	</g>
</svg>
