<svg width="203" height="203" xmlns="http://www.w3.org/2000/svg" xmlns:xlink="http://www.w3.org/1999/xlink">
	<g id="Modelica.Blocks.Math.Feedback" class="component">
		<polygon points="121.5,101.5 121.4,99.8 121.2,98.1 120.8,96.4 120.3,94.7 119.7,93.2 118.9,91.6 118.0,90.2 116.9,88.8 115.8,87.5 114.5,86.3 113.2,85.3 111.7,84.3 110.2,83.5 108.7,82.8 107.0,82.3 105.3,81.9 103.6,81.6 101.9,81.5 100.2,81.5 98.5,81.7 96.8,82.1 95.2,82.5 93.5,83.1 92.0,83.9 90.5,84.8 89.1,85.8 87.8,86.9 86.6,88.1 85.5,89.5 84.5,90.9 83.7,92.4 83.0,93.9 82.4,95.6 82.0,97.2 81.7,98.9 81.5,100.6 81.5,102.4 81.7,104.1 82.0,105.8 82.4,107.4 83.0,109.1 83.7,110.6 84.5,112.1 85.5,113.5 86.6,114.9 87.8,116.1 89.1,117.2 90.5,118.2 92.0,119.1 93.5,119.9 95.2,120.5 96.8,120.9 98.5,121.3 100.2,121.5 101.9,121.5 103.6,121.4 105.3,121.1 107.0,120.7 108.7,120.2 110.2,119.5 111.7,118.7 113.2,117.7 114.5,116.7 115.8,115.5 116.9,114.2 118.0,112.8 118.9,111.4 119.7,109.8 120.3,108.3 120.8,106.6 121.2,104.9 121.4,103.2" fill="#EBEBEB" stroke="#00007F" stroke-width="1.0" stroke-linecap="butt" stroke-linejoin="round" />
		<polyline points="41.5,101.5 81.5,101.5" fill-opacity="0" stroke="#00007F" stroke-width="1.0" stroke-linecap="butt" stroke-linejoin="round" />
		<polyline points="121.5,101.5 181.5,101.5" fill-opacity="0" stroke="#00007F" stroke-width="1.0" stroke-linecap="butt" stroke-linejoin="round" />
		<polyline points="101.5,121.5 101.5,161.5" fill-opacity="0" stroke="#00007F" stroke-width="1.0" stroke-linecap="butt" stroke-linejoin="round" />
		<text x="135.5" y="193.0" text-anchor="middle" fill="#000000" font-size="124.9px" font-family="sans-serif">-</text>
		<g id="u1" class="port">
			<polygon points="1.5,81.5 41.5,101.5 1.5,121.5" fill="#00007F" stroke="#00007F" stroke-width="1.0" stroke-linecap="butt" stroke-linejoin="round" />
		</g>
		<g id="u2" class="port">
			<polygon points="81.5,201.5 101.5,161.5 121.5,201.5" fill="#00007F" stroke="#00007F" stroke-width="1.0" stroke-linecap="butt" stroke-linejoin="round" />
		</g>
		<g id="y" class="port">
			<polygon points="181.5,91.5 201.5,101.5 181.5,111.5" fill="#FFFFFF" stroke="#00007F" stroke-width="1.0" stroke-linecap="butt" stroke-linejoin="round" />
		</g>
	</g>
</svg>
