<svg width="223" height="203" xmlns="http://www.w3.org/2000/svg" xmlns:xlink="http://www.w3.org/1999/xlink">
	<g id="Modelica.Thermal.HeatTransfer.Components.BodyRadiation" class="component">
		<defs>
			<pattern id="pat2" patternUnits="userSpaceOnUse" width="14" height="14">
				<rect width="14" height="14" fill="#C0C0C0" />
				<path d="M-1,13 l2,2 M0,0 l14,14 M13,-1 l2,2" stroke="#000000" stroke-width="1" />
			</pattern>
		</defs>
		<polygon points="161.5,181.5 201.5,181.5 201.5,21.5 161.5,21.5" fill="url(#pat2)" stroke="#000000" stroke-width="1.0" stroke-linecap="round" stroke-linejoin="round" />
		<defs>
			<pattern id="pat3" patternUnits="userSpaceOnUse" width="14" height="14">
				<rect width="14" height="14" fill="#C0C0C0" />
				<path d="M-1,13 l2,2 M0,0 l14,14 M13,-1 l2,2" stroke="#000000" stroke-width="1" />
			</pattern>
		</defs>
		<polygon points="21.5,181.5 61.5,181.5 61.5,21.5 21.5,21.5" fill="url(#pat3)" stroke="#000000" stroke-width="1.0" stroke-linecap="round" stroke-linejoin="round" />
		<polyline points="75.5,91.5 147.5,91.5" fill-opacity="0" stroke="#BF0000" stroke-width="1.0" stroke-linecap="round" stroke-linejoin="round" />
		<polyline points="75.5,91.5 85.5,85.5" fill-opacity="0" stroke="#BF0000" stroke-width="1.0" stroke-linecap="round" stroke-linejoin="round" />
		<polyline points="75.5,91.5 85.5,97.5" fill-opacity="0" stroke="#BF0000" stroke-width="1.0" stroke-linecap="round" stroke-linejoin="round" />
		<polyline points="75.5,111.5 147.5,111.5" fill-opacity="0" stroke="#BF0000" stroke-width="1.0" stroke-linecap="round" stroke-linejoin="round" />
		<polyline points="137.5,117.5 147.5,111.5" fill-opacity="0" stroke="#BF0000" stroke-width="1.0" stroke-linecap="round" stroke-linejoin="round" />
		<polyline points="137.5,105.5 147.5,111.5" fill-opacity="0" stroke="#BF0000" stroke-width="1.0" stroke-linecap="round" stroke-linejoin="round" />
		<polyline points="75.5,131.5 147.5,131.5" fill-opacity="0" stroke="#BF0000" stroke-width="1.0" stroke-linecap="round" stroke-linejoin="round" />
		<polyline points="75.5,131.5 85.5,125.5" fill-opacity="0" stroke="#BF0000" stroke-width="1.0" stroke-linecap="round" stroke-linejoin="round" />
		<polyline points="75.5,131.5 85.5,137.5" fill-opacity="0" stroke="#BF0000" stroke-width="1.0" stroke-linecap="round" stroke-linejoin="round" />
		<polyline points="75.5,71.5 147.5,71.5" fill-opacity="0" stroke="#BF0000" stroke-width="1.0" stroke-linecap="round" stroke-linejoin="round" />
		<polyline points="137.5,77.5 147.5,71.5" fill-opacity="0" stroke="#BF0000" stroke-width="1.0" stroke-linecap="round" stroke-linejoin="round" />
		<polyline points="137.5,65.5 147.5,71.5" fill-opacity="0" stroke="#BF0000" stroke-width="1.0" stroke-linecap="round" stroke-linejoin="round" />
		<polygon points="61.5,181.5 67.5,181.5 67.5,21.5 61.5,21.5" fill="#BF0000" stroke="#BF0000" stroke-width="1.0" stroke-linecap="round" stroke-linejoin="round" />
		<polygon points="156.5,181.5 161.5,181.5 161.5,21.5 156.5,21.5" fill="#BF0000" stroke="#BF0000" stroke-width="1.0" stroke-linecap="round" stroke-linejoin="round" />
		<g id="port_a" class="port">
			<polygon points="1.5,111.5 21.5,111.5 21.5,91.5 1.5,91.5" fill="#BF0000" stroke="#BF0000" stroke-width="1.0" stroke-linecap="round" stroke-linejoin="round" />
		</g>
		<g id="port_b" class="port">
			<polygon points="201.5,111.5 221.5,111.5 221.5,91.5 201.5,91.5" fill="#FFFFFF" stroke="#BF0000" stroke-width="1.0" stroke-linecap="round" stroke-linejoin="round" />
		</g>
	</g>
</svg>
