<svg width="213" height="203" xmlns="http://www.w3.org/2000/svg" xmlns:xlink="http://www.w3.org/1999/xlink">
	<g id="Modelica.Electrical.Machines.Utilities.RampedRheostat" class="component">
		<polygon points="127.5,141.5 155.5,141.5 155.5,61.5 127.5,61.5" fill="#FFFFFF" stroke="#0000FF" stroke-width="1.0" stroke-linecap="round" stroke-linejoin="round" />
		<polyline points="201.5,161.5 141.5,161.5 141.5,141.5" fill-opacity="0" stroke="#0000FF" stroke-width="1.0" stroke-linecap="round" stroke-linejoin="round" />
		<polyline points="111.5,181.5 171.5,181.5" fill-opacity="0" stroke="#0000FF" stroke-width="1.0" stroke-linecap="round" stroke-linejoin="round" />
		<polyline points="141.5,161.5 141.5,181.5" fill-opacity="0" stroke="#0000FF" stroke-width="1.0" stroke-linecap="round" stroke-linejoin="round" />
		<polyline points="121.5,191.5 161.5,191.5" fill-opacity="0" stroke="#0000FF" stroke-width="1.0" stroke-linecap="round" stroke-linejoin="round" />
		<polyline points="131.5,201.5 151.5,201.5" fill-opacity="0" stroke="#0000FF" stroke-width="1.0" stroke-linecap="round" stroke-linejoin="round" />
		<polyline points="141.5,61.5 141.5,41.5 201.5,41.5" fill-opacity="0" stroke="#0000FF" stroke-width="1.0" stroke-linecap="round" stroke-linejoin="round" />
		<polygon points="1.5,141.5 81.5,141.5 81.5,61.5 1.5,61.5" fill="#FFFFFF" stroke="#0000FF" stroke-width="1.0" stroke-linecap="round" stroke-linejoin="round" />
		<polyline points="11.5,77.5 29.5,77.5 71.5,131.5" fill-opacity="0" stroke="#0000FF" stroke-width="1.0" stroke-linecap="round" stroke-linejoin="round" />
		<polygon points="81.5,95.5 91.5,101.5 81.5,107.5" fill="#FFFFFF" stroke="#0000FF" stroke-width="1.0" stroke-linecap="round" stroke-linejoin="round" />
		<polygon points="111.5,95.5 121.5,101.5 111.5,107.5" fill="#FFFFFF" stroke="#0000FF" stroke-width="1.0" stroke-linecap="round" stroke-linejoin="round" />
		<polyline points="91.5,101.5 111.5,101.5" fill-opacity="0" stroke="#0000FF" stroke-width="1.0" stroke-linecap="round" stroke-linejoin="round" />
		<polyline points="121.5,101.5 127.5,101.5" fill-opacity="0" stroke="#0000FF" stroke-width="1.0" stroke-linecap="round" stroke-linejoin="round" />
		<g id="plug_p" class="port">
			<polygon points="211.5,41.5 211.5,42.4 211.4,43.2 211.2,44.1 210.9,44.9 210.6,45.7 210.2,46.4 209.7,47.2 209.2,47.9 208.6,48.5 208.0,49.1 207.3,49.6 206.6,50.1 205.9,50.5 205.1,50.8 204.3,51.1 203.4,51.3 202.6,51.4 201.7,51.5 200.9,51.5 200.0,51.4 199.2,51.2 198.3,51.0 197.5,50.7 196.8,50.3 196.0,49.9 195.3,49.4 194.7,48.8 194.1,48.2 193.5,47.5 193.0,46.8 192.6,46.1 192.2,45.3 192.0,44.5 191.7,43.6 191.6,42.8 191.5,41.9 191.5,41.1 191.6,40.2 191.7,39.4 192.0,38.5 192.2,37.7 192.6,36.9 193.0,36.2 193.5,35.5 194.1,34.8 194.7,34.2 195.3,33.6 196.0,33.1 196.8,32.7 197.5,32.3 198.3,32.0 199.2,31.8 200.0,31.6 200.9,31.5 201.7,31.5 202.6,31.6 203.4,31.7 204.3,31.9 205.1,32.2 205.9,32.5 206.6,32.9 207.3,33.4 208.0,33.9 208.6,34.5 209.2,35.1 209.7,35.8 210.2,36.6 210.6,37.3 210.9,38.1 211.2,38.9 211.4,39.8 211.5,40.6" fill="#0000FF" stroke="#0000FF" stroke-width="1.0" stroke-linecap="round" stroke-linejoin="round" />
		</g>
		<g id="plug_n" class="port">
			<polygon points="211.5,161.5 211.5,162.4 211.4,163.2 211.2,164.1 210.9,164.9 210.6,165.7 210.2,166.4 209.7,167.2 209.2,167.9 208.6,168.5 208.0,169.1 207.3,169.6 206.6,170.1 205.9,170.5 205.1,170.8 204.3,171.1 203.4,171.3 202.6,171.4 201.7,171.5 200.9,171.5 200.0,171.4 199.2,171.2 198.3,171.0 197.5,170.7 196.8,170.3 196.0,169.9 195.3,169.4 194.7,168.8 194.1,168.2 193.5,167.5 193.0,166.8 192.6,166.1 192.2,165.3 192.0,164.5 191.7,163.6 191.6,162.8 191.5,161.9 191.5,161.1 191.6,160.2 191.7,159.4 192.0,158.5 192.2,157.7 192.6,156.9 193.0,156.2 193.5,155.5 194.1,154.8 194.7,154.2 195.3,153.6 196.0,153.1 196.8,152.7 197.5,152.3 198.3,152.0 199.2,151.8 200.0,151.6 200.9,151.5 201.7,151.5 202.6,151.6 203.4,151.7 204.3,151.9 205.1,152.2 205.9,152.5 206.6,152.9 207.3,153.4 208.0,153.9 208.6,154.5 209.2,155.1 209.7,155.8 210.2,156.6 210.6,157.3 210.9,158.1 211.2,158.9 211.4,159.8 211.5,160.6" fill="#FFFFFF" stroke="#0000FF" stroke-width="1.0" stroke-linecap="round" stroke-linejoin="round" />
		</g>
	</g>
</svg>
