<svg width="207" height="207" xmlns="http://www.w3.org/2000/svg" xmlns:xlink="http://www.w3.org/1999/xlink">
	<g id="Modelica.Media.Examples.Tests.Components.PortVolume" class="component">
		<polygon points="1.5,205.5 205.5,205.5 205.5,1.5 1.5,1.5" fill-opacity="0" stroke="#FF0000" stroke-dasharray="3 4" stroke-width="1.0" stroke-linecap="butt" stroke-linejoin="round" />
		<defs>
			<radialGradient id="sph3">
				<stop offset="0%" stop-color="#AAD5FF" />
				<stop offset="10%" stop-color="#A8D3FC" />
				<stop offset="20%" stop-color="#A3CCF5" />
				<stop offset="30%" stop-color="#9BC2E8" />
				<stop offset="40%" stop-color="#8FB3D6" />
				<stop offset="50%" stop-color="#80A0BF" />
				<stop offset="60%" stop-color="#6D88A3" />
				<stop offset="70%" stop-color="#576D82" />
				<stop offset="80%" stop-color="#3D4D5C" />
				<stop offset="90%" stop-color="#202830" />
				<stop offset="100%" stop-color="#000000" />
			</radialGradient>
		</defs>
		<polygon points="203.5,103.5 203.1,94.9 202.0,86.4 200.2,78.0 197.6,69.7 194.4,61.8 190.5,54.1 185.9,46.8 180.7,40.0 175.0,33.6 168.7,27.7 161.9,22.3 154.7,17.6 147.2,13.5 139.3,10.1 131.1,7.4 122.7,5.4 114.2,4.1 105.7,3.5 97.0,3.7 88.5,4.6 80.1,6.3 71.8,8.7 63.7,11.7 56.0,15.5 48.6,19.9 41.6,24.9 35.1,30.5 29.1,36.7 23.6,43.3 18.7,50.4 14.5,57.9 10.9,65.7 8.0,73.8 5.8,82.1 4.3,90.6 3.6,99.2 3.6,107.8 4.3,116.4 5.8,124.9 8.0,133.2 10.9,141.3 14.5,149.1 18.7,156.6 23.6,163.7 29.1,170.3 35.1,176.5 41.6,182.1 48.6,187.1 56.0,191.5 63.7,195.3 71.8,198.3 80.1,200.7 88.5,202.4 97.0,203.3 105.7,203.5 114.2,202.9 122.7,201.6 131.1,199.6 139.3,196.9 147.2,193.5 154.7,189.4 161.9,184.7 168.7,179.3 175.0,173.4 180.7,167.0 185.9,160.2 190.5,152.9 194.4,145.2 197.6,137.3 200.2,129.0 202.0,120.6 203.1,112.1" fill="url(#sph3)" stroke="#000000" stroke-width="1.0" stroke-linecap="butt" stroke-linejoin="round" />
		<g id="port" class="port">
			<polygon points="93.3,113.7 113.7,113.7 113.7,93.3 93.3,93.3" fill-opacity="0" stroke="#FF0000" stroke-dasharray="3 4" stroke-width="1.0" stroke-linecap="butt" stroke-linejoin="round" />
			<polygon points="113.5,103.5 113.5,102.6 113.4,101.8 113.2,100.9 112.9,100.1 112.6,99.3 112.2,98.6 111.7,97.8 111.2,97.1 110.6,96.5 110.0,95.9 109.3,95.4 108.6,94.9 107.9,94.5 107.1,94.2 106.3,93.9 105.4,93.7 104.6,93.6 103.7,93.5 102.9,93.5 102.0,93.6 101.2,93.8 100.3,94.0 99.5,94.3 98.8,94.7 98.0,95.1 97.3,95.6 96.7,96.2 96.1,96.8 95.5,97.5 95.0,98.2 94.6,98.9 94.2,99.7 94.0,100.5 93.7,101.4 93.6,102.2 93.5,103.1 93.5,103.9 93.6,104.8 93.7,105.6 94.0,106.5 94.2,107.3 94.6,108.1 95.0,108.8 95.5,109.5 96.1,110.2 96.7,110.8 97.3,111.4 98.0,111.9 98.8,112.3 99.5,112.7 100.3,113.0 101.2,113.2 102.0,113.4 102.9,113.5 103.7,113.5 104.6,113.4 105.4,113.3 106.3,113.1 107.1,112.8 107.9,112.5 108.6,112.1 109.3,111.6 110.0,111.1 110.6,110.5 111.2,109.9 111.7,109.2 112.2,108.4 112.6,107.7 112.9,106.9 113.2,106.1 113.4,105.2 113.5,104.4" fill="#007FFF" stroke="#007FFF" stroke-width="1.0" stroke-linecap="butt" stroke-linejoin="round" />
			<polygon points="113.5,103.5 113.5,102.6 113.4,101.8 113.2,100.9 112.9,100.1 112.6,99.3 112.2,98.6 111.7,97.8 111.2,97.1 110.6,96.5 110.0,95.9 109.3,95.4 108.6,94.9 107.9,94.5 107.1,94.2 106.3,93.9 105.4,93.7 104.6,93.6 103.7,93.5 102.9,93.5 102.0,93.6 101.2,93.8 100.3,94.0 99.5,94.3 98.8,94.7 98.0,95.1 97.3,95.6 96.7,96.2 96.1,96.8 95.5,97.5 95.0,98.2 94.6,98.9 94.2,99.7 94.0,100.5 93.7,101.4 93.6,102.2 93.5,103.1 93.5,103.9 93.6,104.8 93.7,105.6 94.0,106.5 94.2,107.3 94.6,108.1 95.0,108.8 95.5,109.5 96.1,110.2 96.7,110.8 97.3,111.4 98.0,111.9 98.8,112.3 99.5,112.7 100.3,113.0 101.2,113.2 102.0,113.4 102.9,113.5 103.7,113.5 104.6,113.4 105.4,113.3 106.3,113.1 107.1,112.8 107.9,112.5 108.6,112.1 109.3,111.6 110.0,111.1 110.6,110.5 111.2,109.9 111.7,109.2 112.2,108.4 112.6,107.7 112.9,106.9 113.2,106.1 113.4,105.2 113.5,104.4" fill="#007FFF" stroke="#000000" stroke-width="1.0" stroke-linecap="butt" stroke-linejoin="round" />
		</g>
	</g>
</svg>
