<svg width="223" height="223" xmlns="http://www.w3.org/2000/svg" xmlns:xlink="http://www.w3.org/1999/xlink">
	<g id="Modelica.Mechanics.Translational.Components.SupportFriction" class="component">
		<polyline points="61.5,221.5 81.5,201.5" fill-opacity="0" stroke="#007F00" stroke-width="1.0" stroke-linecap="round" stroke-linejoin="round" />
		<polyline points="81.5,221.5 101.5,201.5" fill-opacity="0" stroke="#007F00" stroke-width="1.0" stroke-linecap="round" stroke-linejoin="round" />
		<polyline points="101.5,221.5 121.5,201.5" fill-opacity="0" stroke="#007F00" stroke-width="1.0" stroke-linecap="round" stroke-linejoin="round" />
		<polyline points="121.5,221.5 141.5,201.5" fill-opacity="0" stroke="#007F00" stroke-width="1.0" stroke-linecap="round" stroke-linejoin="round" />
		<polyline points="81.5,201.5 141.5,201.5" fill-opacity="0" stroke="#007F00" stroke-width="1.0" stroke-linecap="round" stroke-linejoin="round" />
		<polygon points="61.5,151.5 101.5,191.5 101.5,201.5 121.5,201.5 121.5,191.5 161.5,151.5" fill="#83AF83" stroke="#5F5F5F" stroke-width="1.0" stroke-linecap="round" stroke-linejoin="round" />
		<defs>
			<radialGradient id="sph8">
				<stop offset="0%" stop-color="#FFFFFF" />
				<stop offset="10%" stop-color="#FCFEFC" />
				<stop offset="20%" stop-color="#F5FAF5" />
				<stop offset="30%" stop-color="#E8F3E8" />
				<stop offset="40%" stop-color="#D6EBD6" />
				<stop offset="50%" stop-color="#BFDFBF" />
				<stop offset="60%" stop-color="#A3D1A3" />
				<stop offset="70%" stop-color="#82C082" />
				<stop offset="80%" stop-color="#5CAD5C" />
				<stop offset="90%" stop-color="#309730" />
				<stop offset="100%" stop-color="#007F00" />
			</radialGradient>
		</defs>
		<polygon points="83.5,121.5 83.5,120.6 83.4,119.8 83.2,118.9 82.9,118.1 82.6,117.3 82.2,116.6 81.7,115.8 81.2,115.1 80.6,114.5 80.0,113.9 79.3,113.4 78.6,112.9 77.9,112.5 77.1,112.2 76.3,111.9 75.4,111.7 74.6,111.6 73.7,111.5 72.9,111.5 72.0,111.6 71.2,111.8 70.3,112.0 69.5,112.3 68.8,112.7 68.0,113.1 67.3,113.6 66.7,114.2 66.1,114.8 65.5,115.5 65.0,116.2 64.6,116.9 64.2,117.7 64.0,118.5 63.7,119.4 63.6,120.2 63.5,121.1 63.5,121.9 63.6,122.8 63.7,123.6 64.0,124.5 64.2,125.3 64.6,126.1 65.0,126.8 65.5,127.5 66.1,128.2 66.7,128.8 67.3,129.4 68.0,129.9 68.8,130.3 69.5,130.7 70.3,131.0 71.2,131.2 72.0,131.4 72.9,131.5 73.7,131.5 74.6,131.4 75.4,131.3 76.3,131.1 77.1,130.8 77.9,130.5 78.6,130.1 79.3,129.6 80.0,129.1 80.6,128.5 81.2,127.9 81.7,127.2 82.2,126.4 82.6,125.7 82.9,124.9 83.2,124.1 83.4,123.2 83.5,122.4" fill="url(#sph8)" stroke="#007F00" stroke-width="1.0" stroke-linecap="round" stroke-linejoin="round" />
		<defs>
			<radialGradient id="sph9">
				<stop offset="0%" stop-color="#FFFFFF" />
				<stop offset="10%" stop-color="#FCFEFC" />
				<stop offset="20%" stop-color="#F5FAF5" />
				<stop offset="30%" stop-color="#E8F3E8" />
				<stop offset="40%" stop-color="#D6EBD6" />
				<stop offset="50%" stop-color="#BFDFBF" />
				<stop offset="60%" stop-color="#A3D1A3" />
				<stop offset="70%" stop-color="#82C082" />
				<stop offset="80%" stop-color="#5CAD5C" />
				<stop offset="90%" stop-color="#309730" />
				<stop offset="100%" stop-color="#007F00" />
			</radialGradient>
		</defs>
		<polygon points="121.5,121.5 121.5,120.6 121.4,119.8 121.2,118.9 120.9,118.1 120.6,117.3 120.2,116.6 119.7,115.8 119.2,115.1 118.6,114.5 118.0,113.9 117.3,113.4 116.6,112.9 115.9,112.5 115.1,112.2 114.3,111.9 113.4,111.7 112.6,111.6 111.7,111.5 110.9,111.5 110.0,111.6 109.2,111.8 108.3,112.0 107.5,112.3 106.8,112.7 106.0,113.1 105.3,113.6 104.7,114.2 104.1,114.8 103.5,115.5 103.0,116.2 102.6,116.9 102.2,117.7 102.0,118.5 101.7,119.4 101.6,120.2 101.5,121.1 101.5,121.9 101.6,122.8 101.7,123.6 102.0,124.5 102.2,125.3 102.6,126.1 103.0,126.8 103.5,127.5 104.1,128.2 104.7,128.8 105.3,129.4 106.0,129.9 106.8,130.3 107.5,130.7 108.3,131.0 109.2,131.2 110.0,131.4 110.9,131.5 111.7,131.5 112.6,131.4 113.4,131.3 114.3,131.1 115.1,130.8 115.9,130.5 116.6,130.1 117.3,129.6 118.0,129.1 118.6,128.5 119.2,127.9 119.7,127.2 120.2,126.4 120.6,125.7 120.9,124.9 121.2,124.1 121.4,123.2 121.5,122.4" fill="url(#sph9)" stroke="#007F00" stroke-width="1.0" stroke-linecap="round" stroke-linejoin="round" />
		<defs>
			<radialGradient id="sph10">
				<stop offset="0%" stop-color="#FFFFFF" />
				<stop offset="10%" stop-color="#FCFEFC" />
				<stop offset="20%" stop-color="#F5FAF5" />
				<stop offset="30%" stop-color="#E8F3E8" />
				<stop offset="40%" stop-color="#D6EBD6" />
				<stop offset="50%" stop-color="#BFDFBF" />
				<stop offset="60%" stop-color="#A3D1A3" />
				<stop offset="70%" stop-color="#82C082" />
				<stop offset="80%" stop-color="#5CAD5C" />
				<stop offset="90%" stop-color="#309730" />
				<stop offset="100%" stop-color="#007F00" />
			</radialGradient>
		</defs>
		<polygon points="161.5,121.5 161.5,120.6 161.4,119.8 161.2,118.9 160.9,118.1 160.6,117.3 160.2,116.6 159.7,115.8 159.2,115.1 158.6,114.5 158.0,113.9 157.3,113.4 156.6,112.9 155.9,112.5 155.1,112.2 154.3,111.9 153.4,111.7 152.6,111.6 151.7,111.5 150.9,111.5 150.0,111.6 149.2,111.8 148.3,112.0 147.5,112.3 146.8,112.7 146.0,113.1 145.3,113.6 144.7,114.2 144.1,114.8 143.5,115.5 143.0,116.2 142.6,116.9 142.2,117.7 142.0,118.5 141.7,119.4 141.6,120.2 141.5,121.1 141.5,121.9 141.6,122.8 141.7,123.6 142.0,124.5 142.2,125.3 142.6,126.1 143.0,126.8 143.5,127.5 144.1,128.2 144.7,128.8 145.3,129.4 146.0,129.9 146.8,130.3 147.5,130.7 148.3,131.0 149.2,131.2 150.0,131.4 150.9,131.5 151.7,131.5 152.6,131.4 153.4,131.3 154.3,131.1 155.1,130.8 155.9,130.5 156.6,130.1 157.3,129.6 158.0,129.1 158.6,128.5 159.2,127.9 159.7,127.2 160.2,126.4 160.6,125.7 160.9,124.9 161.2,124.1 161.4,123.2 161.5,122.4" fill="url(#sph10)" stroke="#007F00" stroke-width="1.0" stroke-linecap="round" stroke-linejoin="round" />
		<defs>
			<radialGradient id="sph11">
				<stop offset="0%" stop-color="#FFFFFF" />
				<stop offset="10%" stop-color="#FCFEFC" />
				<stop offset="20%" stop-color="#F5FAF5" />
				<stop offset="30%" stop-color="#E8F3E8" />
				<stop offset="40%" stop-color="#D6EBD6" />
				<stop offset="50%" stop-color="#BFDFBF" />
				<stop offset="60%" stop-color="#A3D1A3" />
				<stop offset="70%" stop-color="#82C082" />
				<stop offset="80%" stop-color="#5CAD5C" />
				<stop offset="90%" stop-color="#309730" />
				<stop offset="100%" stop-color="#007F00" />
			</radialGradient>
		</defs>
		<polygon points="81.5,81.5 81.5,80.6 81.4,79.8 81.2,78.9 80.9,78.1 80.6,77.3 80.2,76.6 79.7,75.8 79.2,75.1 78.6,74.5 78.0,73.9 77.3,73.4 76.6,72.9 75.9,72.5 75.1,72.2 74.3,71.9 73.4,71.7 72.6,71.6 71.7,71.5 70.9,71.5 70.0,71.6 69.2,71.8 68.3,72.0 67.5,72.3 66.8,72.7 66.0,73.1 65.3,73.6 64.7,74.2 64.1,74.8 63.5,75.5 63.0,76.2 62.6,76.9 62.2,77.7 62.0,78.5 61.7,79.4 61.6,80.2 61.5,81.1 61.5,81.9 61.6,82.8 61.7,83.6 62.0,84.5 62.2,85.3 62.6,86.1 63.0,86.8 63.5,87.5 64.1,88.2 64.7,88.8 65.3,89.4 66.0,89.9 66.8,90.3 67.5,90.7 68.3,91.0 69.2,91.2 70.0,91.4 70.9,91.5 71.7,91.5 72.6,91.4 73.4,91.3 74.3,91.1 75.1,90.8 75.9,90.5 76.6,90.1 77.3,89.6 78.0,89.1 78.6,88.5 79.2,87.9 79.7,87.2 80.2,86.4 80.6,85.7 80.9,84.9 81.2,84.1 81.4,83.2 81.5,82.4" fill="url(#sph11)" stroke="#007F00" stroke-width="1.0" stroke-linecap="round" stroke-linejoin="round" />
		<defs>
			<radialGradient id="sph12">
				<stop offset="0%" stop-color="#FFFFFF" />
				<stop offset="10%" stop-color="#FCFEFC" />
				<stop offset="20%" stop-color="#F5FAF5" />
				<stop offset="30%" stop-color="#E8F3E8" />
				<stop offset="40%" stop-color="#D6EBD6" />
				<stop offset="50%" stop-color="#BFDFBF" />
				<stop offset="60%" stop-color="#A3D1A3" />
				<stop offset="70%" stop-color="#82C082" />
				<stop offset="80%" stop-color="#5CAD5C" />
				<stop offset="90%" stop-color="#309730" />
				<stop offset="100%" stop-color="#007F00" />
			</radialGradient>
		</defs>
		<polygon points="121.5,81.5 121.5,80.6 121.4,79.8 121.2,78.9 120.9,78.1 120.6,77.3 120.2,76.6 119.7,75.8 119.2,75.1 118.6,74.5 118.0,73.9 117.3,73.4 116.6,72.9 115.9,72.5 115.1,72.2 114.3,71.9 113.4,71.7 112.6,71.6 111.7,71.5 110.9,71.5 110.0,71.6 109.2,71.8 108.3,72.0 107.5,72.3 106.8,72.7 106.0,73.1 105.3,73.6 104.7,74.2 104.1,74.8 103.5,75.5 103.0,76.2 102.6,76.9 102.2,77.7 102.0,78.5 101.7,79.4 101.6,80.2 101.5,81.1 101.5,81.9 101.6,82.8 101.7,83.6 102.0,84.5 102.2,85.3 102.6,86.1 103.0,86.8 103.5,87.5 104.1,88.2 104.7,88.8 105.3,89.4 106.0,89.9 106.8,90.3 107.5,90.7 108.3,91.0 109.2,91.2 110.0,91.4 110.9,91.5 111.7,91.5 112.6,91.4 113.4,91.3 114.3,91.1 115.1,90.8 115.9,90.5 116.6,90.1 117.3,89.6 118.0,89.1 118.6,88.5 119.2,87.9 119.7,87.2 120.2,86.4 120.6,85.7 120.9,84.9 121.2,84.1 121.4,83.2 121.5,82.4" fill="url(#sph12)" stroke="#007F00" stroke-width="1.0" stroke-linecap="round" stroke-linejoin="round" />
		<defs>
			<radialGradient id="sph13">
				<stop offset="0%" stop-color="#FFFFFF" />
				<stop offset="10%" stop-color="#FCFEFC" />
				<stop offset="20%" stop-color="#F5FAF5" />
				<stop offset="30%" stop-color="#E8F3E8" />
				<stop offset="40%" stop-color="#D6EBD6" />
				<stop offset="50%" stop-color="#BFDFBF" />
				<stop offset="60%" stop-color="#A3D1A3" />
				<stop offset="70%" stop-color="#82C082" />
				<stop offset="80%" stop-color="#5CAD5C" />
				<stop offset="90%" stop-color="#309730" />
				<stop offset="100%" stop-color="#007F00" />
			</radialGradient>
		</defs>
		<polygon points="161.5,81.5 161.5,80.6 161.4,79.8 161.2,78.9 160.9,78.1 160.6,77.3 160.2,76.6 159.7,75.8 159.2,75.1 158.6,74.5 158.0,73.9 157.3,73.4 156.6,72.9 155.9,72.5 155.1,72.2 154.3,71.9 153.4,71.7 152.6,71.6 151.7,71.5 150.9,71.5 150.0,71.6 149.2,71.8 148.3,72.0 147.5,72.3 146.8,72.7 146.0,73.1 145.3,73.6 144.7,74.2 144.1,74.8 143.5,75.5 143.0,76.2 142.6,76.9 142.2,77.7 142.0,78.5 141.7,79.4 141.6,80.2 141.5,81.1 141.5,81.9 141.6,82.8 141.7,83.6 142.0,84.5 142.2,85.3 142.6,86.1 143.0,86.8 143.5,87.5 144.1,88.2 144.7,88.8 145.3,89.4 146.0,89.9 146.8,90.3 147.5,90.7 148.3,91.0 149.2,91.2 150.0,91.4 150.9,91.5 151.7,91.5 152.6,91.4 153.4,91.3 154.3,91.1 155.1,90.8 155.9,90.5 156.6,90.1 157.3,89.6 158.0,89.1 158.6,88.5 159.2,87.9 159.7,87.2 160.2,86.4 160.6,85.7 160.9,84.9 161.2,84.1 161.4,83.2 161.5,82.4" fill="url(#sph13)" stroke="#007F00" stroke-width="1.0" stroke-linecap="round" stroke-linejoin="round" />
		<polygon points="21.5,111.5 201.5,111.5 201.5,91.5 21.5,91.5" fill="#A0D7A0" stroke="#007F00" stroke-width="1.0" stroke-linecap="round" stroke-linejoin="round" />
		<polygon points="51.5,71.5 171.5,71.5 171.5,81.5 191.5,81.5 191.5,51.5 31.5,51.5 31.5,81.5 51.5,81.5" fill="#83AF83" stroke="#5F5F5F" stroke-width="1.0" stroke-linecap="round" stroke-linejoin="round" />
		<polygon points="51.5,131.5 171.5,131.5 171.5,121.5 191.5,121.5 191.5,151.5 31.5,151.5 31.5,121.5 51.5,121.5" fill="#83AF83" stroke="#5F5F5F" stroke-width="1.0" stroke-linecap="round" stroke-linejoin="round" />
		<g id="flange_a" class="port">
			<polygon points="1.5,111.5 21.5,111.5 21.5,91.5 1.5,91.5" fill="#007F00" stroke="#007F00" stroke-width="1.0" stroke-linecap="round" stroke-linejoin="round" />
		</g>
		<g id="flange_b" class="port">
			<polygon points="201.5,111.5 221.5,111.5 221.5,91.5 201.5,91.5" fill="#FFFFFF" stroke="#007F00" stroke-width="1.0" stroke-linecap="round" stroke-linejoin="round" />
		</g>
		<g id="support" class="port">
			<polygon points="102.5,210.5 120.5,210.5 120.5,192.5 102.5,192.5" fill="#AFAFAF" stroke="#007F00" stroke-width="1.0" stroke-linecap="round" stroke-linejoin="round" />
			<polygon points="96.5,216.5 126.5,216.5 126.5,186.5 96.5,186.5" fill="#AFBEAF" stroke-opacity="0" stroke-width="1.0" stroke-linecap="round" stroke-linejoin="round" />
			<polygon points="102.5,210.5 120.5,210.5 120.5,192.5 102.5,192.5" fill="#007F00" stroke="#007F00" stroke-width="1.0" stroke-linecap="round" stroke-linejoin="round" />
		</g>
		<g id="heatPort" class="port">
			<polygon points="1.5,211.5 21.5,211.5 21.5,191.5 1.5,191.5" fill="#BF0000" stroke="#BF0000" stroke-width="1.0" stroke-linecap="round" stroke-linejoin="round" />
		</g>
	</g>
</svg>
