<svg width="253" height="203" xmlns="http://www.w3.org/2000/svg" xmlns:xlink="http://www.w3.org/1999/xlink">
	<g id="Modelica.Fluid.Sources.Boundary_pT" class="component">
		<defs>
			<radialGradient id="sph2">
				<stop offset="0%" stop-color="#007FFF" />
				<stop offset="10%" stop-color="#007EFC" />
				<stop offset="20%" stop-color="#007AF5" />
				<stop offset="30%" stop-color="#0074E8" />
				<stop offset="40%" stop-color="#006BD6" />
				<stop offset="50%" stop-color="#005FBF" />
				<stop offset="60%" stop-color="#0051A3" />
				<stop offset="70%" stop-color="#004182" />
				<stop offset="80%" stop-color="#002E5C" />
				<stop offset="90%" stop-color="#001830" />
				<stop offset="100%" stop-color="#000000" />
			</radialGradient>
		</defs>
		<polygon points="241.5,101.5 241.1,92.9 240.0,84.4 238.2,76.0 235.6,67.7 232.4,59.8 228.5,52.1 223.9,44.8 218.7,38.0 213.0,31.6 206.7,25.7 199.9,20.3 192.7,15.6 185.2,11.5 177.3,8.1 169.1,5.4 160.7,3.4 152.2,2.1 143.7,1.5 135.0,1.7 126.5,2.6 118.1,4.3 109.8,6.7 101.7,9.7 94.0,13.5 86.6,17.9 79.6,22.9 73.1,28.5 67.1,34.7 61.6,41.3 56.7,48.4 52.5,55.9 48.9,63.7 46.0,71.8 43.8,80.1 42.3,88.6 41.6,97.2 41.6,105.8 42.3,114.4 43.8,122.9 46.0,131.2 48.9,139.3 52.5,147.1 56.7,154.6 61.6,161.7 67.1,168.3 73.1,174.5 79.6,180.1 86.6,185.1 94.0,189.5 101.7,193.3 109.8,196.3 118.1,198.7 126.5,200.4 135.0,201.3 143.7,201.5 152.2,200.9 160.7,199.6 169.1,197.6 177.3,194.9 185.2,191.5 192.7,187.4 199.9,182.7 206.7,177.3 213.0,171.4 218.7,165.0 223.9,158.2 228.5,150.9 232.4,143.2 235.6,135.3 238.2,127.0 240.0,118.6 241.1,110.1" fill="url(#sph2)" stroke="#000000" stroke-width="1.0" stroke-linecap="butt" stroke-linejoin="round" />
		<g id="ports" class="port">
			<polygon points="231.5,61.5 251.5,61.5 251.5,141.5 231.5,141.5" fill="#FFFFFF" stroke="#007FFF" stroke-width="1.0" stroke-linecap="butt" stroke-linejoin="round" />
			<polygon points="251.5,127.5 251.5,128.4 251.4,129.2 251.2,130.1 250.9,130.9 250.6,131.7 250.2,132.4 249.7,133.2 249.2,133.9 248.6,134.5 248.0,135.1 247.3,135.6 246.6,136.1 245.9,136.5 245.1,136.8 244.3,137.1 243.4,137.3 242.6,137.4 241.7,137.5 240.9,137.5 240.0,137.4 239.2,137.2 238.3,137.0 237.5,136.7 236.8,136.3 236.0,135.9 235.3,135.4 234.7,134.8 234.1,134.2 233.5,133.5 233.0,132.8 232.6,132.1 232.2,131.3 232.0,130.5 231.7,129.6 231.6,128.8 231.5,127.9 231.5,127.1 231.6,126.2 231.7,125.4 232.0,124.5 232.2,123.7 232.6,122.9 233.0,122.2 233.5,121.5 234.1,120.8 234.7,120.2 235.3,119.6 236.0,119.1 236.8,118.7 237.5,118.3 238.3,118.0 239.2,117.8 240.0,117.6 240.9,117.5 241.7,117.5 242.6,117.6 243.4,117.7 244.3,117.9 245.1,118.2 245.9,118.5 246.6,118.9 247.3,119.4 248.0,119.9 248.6,120.5 249.2,121.1 249.7,121.8 250.2,122.6 250.6,123.3 250.9,124.1 251.2,124.9 251.4,125.8 251.5,126.6" fill="#007FFF" stroke="#000000" stroke-width="1.0" stroke-linecap="butt" stroke-linejoin="round" />
			<polygon points="251.5,101.5 251.5,102.4 251.4,103.2 251.2,104.1 250.9,104.9 250.6,105.7 250.2,106.4 249.7,107.2 249.2,107.9 248.6,108.5 248.0,109.1 247.3,109.6 246.6,110.1 245.9,110.5 245.1,110.8 244.3,111.1 243.4,111.3 242.6,111.4 241.7,111.5 240.9,111.5 240.0,111.4 239.2,111.2 238.3,111.0 237.5,110.7 236.8,110.3 236.0,109.9 235.3,109.4 234.7,108.8 234.1,108.2 233.5,107.5 233.0,106.8 232.6,106.1 232.2,105.3 232.0,104.5 231.7,103.6 231.6,102.8 231.5,101.9 231.5,101.1 231.6,100.2 231.7,99.4 232.0,98.5 232.2,97.7 232.6,96.9 233.0,96.2 233.5,95.5 234.1,94.8 234.7,94.2 235.3,93.6 236.0,93.1 236.8,92.7 237.5,92.3 238.3,92.0 239.2,91.8 240.0,91.6 240.9,91.5 241.7,91.5 242.6,91.6 243.4,91.7 244.3,91.9 245.1,92.2 245.9,92.5 246.6,92.9 247.3,93.4 248.0,93.9 248.6,94.5 249.2,95.1 249.7,95.8 250.2,96.6 250.6,97.3 250.9,98.1 251.2,98.9 251.4,99.8 251.5,100.6" fill="#007FFF" stroke="#000000" stroke-width="1.0" stroke-linecap="butt" stroke-linejoin="round" />
			<polygon points="251.5,75.5 251.5,76.4 251.4,77.2 251.2,78.1 250.9,78.9 250.6,79.7 250.2,80.4 249.7,81.2 249.2,81.9 248.6,82.5 248.0,83.1 247.3,83.6 246.6,84.1 245.9,84.5 245.1,84.8 244.3,85.1 243.4,85.3 242.6,85.4 241.7,85.5 240.9,85.5 240.0,85.4 239.2,85.2 238.3,85.0 237.5,84.7 236.8,84.3 236.0,83.9 235.3,83.4 234.7,82.8 234.1,82.2 233.5,81.5 233.0,80.8 232.6,80.1 232.2,79.3 232.0,78.5 231.7,77.6 231.6,76.8 231.5,75.9 231.5,75.1 231.6,74.2 231.7,73.4 232.0,72.5 232.2,71.7 232.6,70.9 233.0,70.2 233.5,69.5 234.1,68.8 234.7,68.2 235.3,67.6 236.0,67.1 236.8,66.7 237.5,66.3 238.3,66.0 239.2,65.8 240.0,65.6 240.9,65.5 241.7,65.5 242.6,65.6 243.4,65.7 244.3,65.9 245.1,66.2 245.9,66.5 246.6,66.9 247.3,67.4 248.0,67.9 248.6,68.5 249.2,69.1 249.7,69.8 250.2,70.6 250.6,71.3 250.9,72.1 251.2,72.9 251.4,73.8 251.5,74.6" fill="#007FFF" stroke="#000000" stroke-width="1.0" stroke-linecap="butt" stroke-linejoin="round" />
			<polygon points="247.5,101.5 247.5,102.0 247.4,102.5 247.3,103.0 247.1,103.5 247.0,104.0 246.7,104.5 246.4,104.9 246.1,105.3 245.8,105.7 245.4,106.0 245.0,106.4 244.6,106.7 244.1,106.9 243.6,107.1 243.2,107.3 242.7,107.4 242.1,107.5 241.6,107.5 241.1,107.5 240.6,107.4 240.1,107.3 239.6,107.2 239.1,107.0 238.7,106.8 238.2,106.5 237.8,106.2 237.4,105.9 237.0,105.5 236.7,105.1 236.4,104.7 236.2,104.2 235.9,103.8 235.8,103.3 235.6,102.8 235.5,102.3 235.5,101.8 235.5,101.2 235.5,100.7 235.6,100.2 235.8,99.7 235.9,99.2 236.2,98.8 236.4,98.3 236.7,97.9 237.0,97.5 237.4,97.1 237.8,96.8 238.2,96.5 238.7,96.2 239.1,96.0 239.6,95.8 240.1,95.7 240.6,95.6 241.1,95.5 241.6,95.5 242.1,95.5 242.7,95.6 243.2,95.7 243.6,95.9 244.1,96.1 244.6,96.3 245.0,96.6 245.4,97.0 245.8,97.3 246.1,97.7 246.4,98.1 246.7,98.5 247.0,99.0 247.1,99.5 247.3,100.0 247.4,100.5 247.5,101.0" fill="#FFFFFF" stroke="#007FFF" stroke-width="1.0" stroke-linecap="butt" stroke-linejoin="round" />
			<polygon points="247.5,127.5 247.5,128.0 247.4,128.5 247.3,129.0 247.1,129.5 247.0,130.0 246.7,130.5 246.4,130.9 246.1,131.3 245.8,131.7 245.4,132.0 245.0,132.4 244.6,132.7 244.1,132.9 243.6,133.1 243.2,133.3 242.7,133.4 242.1,133.5 241.6,133.5 241.1,133.5 240.6,133.4 240.1,133.3 239.6,133.2 239.1,133.0 238.7,132.8 238.2,132.5 237.8,132.2 237.4,131.9 237.0,131.5 236.7,131.1 236.4,130.7 236.2,130.2 235.9,129.8 235.8,129.3 235.6,128.8 235.5,128.3 235.5,127.8 235.5,127.2 235.5,126.7 235.6,126.2 235.8,125.7 235.9,125.2 236.2,124.8 236.4,124.3 236.7,123.9 237.0,123.5 237.4,123.1 237.8,122.8 238.2,122.5 238.7,122.2 239.1,122.0 239.6,121.8 240.1,121.7 240.6,121.6 241.1,121.5 241.6,121.5 242.1,121.5 242.7,121.6 243.2,121.7 243.6,121.9 244.1,122.1 244.6,122.3 245.0,122.6 245.4,123.0 245.8,123.3 246.1,123.7 246.4,124.1 246.7,124.5 247.0,125.0 247.1,125.5 247.3,126.0 247.4,126.5 247.5,127.0" fill="#FFFFFF" stroke="#007FFF" stroke-width="1.0" stroke-linecap="butt" stroke-linejoin="round" />
			<polygon points="247.5,75.5 247.5,76.0 247.4,76.5 247.3,77.0 247.1,77.5 247.0,78.0 246.7,78.5 246.4,78.9 246.1,79.3 245.8,79.7 245.4,80.0 245.0,80.4 244.6,80.7 244.1,80.9 243.6,81.1 243.2,81.3 242.7,81.4 242.1,81.5 241.6,81.5 241.1,81.5 240.6,81.4 240.1,81.3 239.6,81.2 239.1,81.0 238.7,80.8 238.2,80.5 237.8,80.2 237.4,79.9 237.0,79.5 236.7,79.1 236.4,78.7 236.2,78.2 235.9,77.8 235.8,77.3 235.6,76.8 235.5,76.3 235.5,75.8 235.5,75.2 235.5,74.7 235.6,74.2 235.8,73.7 235.9,73.2 236.2,72.8 236.4,72.3 236.7,71.9 237.0,71.5 237.4,71.1 237.8,70.8 238.2,70.5 238.7,70.2 239.1,70.0 239.6,69.8 240.1,69.7 240.6,69.6 241.1,69.5 241.6,69.5 242.1,69.5 242.7,69.6 243.2,69.7 243.6,69.9 244.1,70.1 244.6,70.3 245.0,70.6 245.4,71.0 245.8,71.3 246.1,71.7 246.4,72.1 246.7,72.5 247.0,73.0 247.1,73.5 247.3,74.0 247.4,74.5 247.5,75.0" fill="#FFFFFF" stroke="#007FFF" stroke-width="1.0" stroke-linecap="butt" stroke-linejoin="round" />
		</g>
		<g id="p_in" class="port">
			<polygon points="1.5,1.5 41.5,21.5 1.5,41.5" fill="#00007F" stroke="#00007F" stroke-width="1.0" stroke-linecap="butt" stroke-linejoin="round" />
		</g>
		<g id="T_in" class="port">
			<polygon points="1.5,41.5 41.5,61.5 1.5,81.5" fill="#00007F" stroke="#00007F" stroke-width="1.0" stroke-linecap="butt" stroke-linejoin="round" />
		</g>
		<g id="X_in" class="port">
			<polygon points="1.5,121.5 41.5,141.5 1.5,161.5" fill="#00007F" stroke="#00007F" stroke-width="1.0" stroke-linecap="butt" stroke-linejoin="round" />
		</g>
		<g id="C_in" class="port">
			<polygon points="1.5,161.5 41.5,181.5 1.5,201.5" fill="#00007F" stroke="#00007F" stroke-width="1.0" stroke-linecap="butt" stroke-linejoin="round" />
		</g>
	</g>
</svg>
