<svg width="203" height="203" xmlns="http://www.w3.org/2000/svg" xmlns:xlink="http://www.w3.org/1999/xlink">
	<g id="Modelica.Electrical.Machines.Examples.ControlledDCDrives.Utilities.DriveDataDCPM" class="component">
		<polygon points="8.8,194.2 11.0,196.1 13.3,197.8 15.7,199.1 18.2,200.2 20.8,200.9 23.6,201.4 26.5,201.5 26.5,201.5 50.4,201.5 101.5,201.5 101.5,201.5 152.6,201.5 176.5,201.5 176.5,201.5 179.4,201.4 182.2,200.9 184.8,200.2 187.3,199.1 189.7,197.8 192.0,196.1 194.2,194.2 194.2,194.2 196.1,192.0 197.8,189.7 199.1,187.3 200.2,184.8 200.9,182.2 201.4,179.4 201.5,176.5 201.5,176.5 201.5,158.8 201.5,126.5 201.5,126.5 201.5,94.2 201.5,76.5 201.5,76.5 201.4,73.6 200.9,70.8 200.2,68.2 199.1,65.7 197.8,63.3 196.1,61.0 194.2,58.8 194.2,58.8 192.0,56.9 189.7,55.2 187.3,53.9 184.8,52.8 182.2,52.1 179.4,51.6 176.5,51.5 176.5,51.5 152.6,51.5 101.5,51.5 101.5,51.5 50.4,51.5 26.5,51.5 26.5,51.5 23.6,51.6 20.8,52.1 18.2,52.8 15.7,53.9 13.3,55.2 11.0,56.9 8.8,58.8 8.8,58.8 6.9,61.0 5.2,63.3 3.9,65.7 2.8,68.2 2.1,70.8 1.6,73.6 1.5,76.5 1.5,76.5 1.5,94.2 1.5,126.5 1.5,126.5 1.5,158.8 1.5,176.5 1.5,176.5 1.6,179.4 2.1,182.2 2.8,184.8 3.9,187.3 5.2,189.7 6.9,192.0" fill="#FFD788" stroke="#404040" stroke-width="1.0" stroke-linecap="round" stroke-linejoin="round" />
		<polyline points="1.5,101.5 201.5,101.5" fill-opacity="0" stroke="#404040" stroke-width="1.0" stroke-linecap="round" stroke-linejoin="round" />
		<polyline points="1.5,151.5 201.5,151.5" fill-opacity="0" stroke="#404040" stroke-width="1.0" stroke-linecap="round" stroke-linejoin="round" />
		<polyline points="101.5,51.5 101.5,201.5" fill-opacity="0" stroke="#404040" stroke-width="1.0" stroke-linecap="round" stroke-linejoin="round" />
	</g>
</svg>
