<svg width="253" height="203" xmlns="http://www.w3.org/2000/svg" xmlns:xlink="http://www.w3.org/1999/xlink">
	<g id="Modelica.Mechanics.MultiBody.Examples.Systems.RobotR3.Components.PathToAxisControlBus" class="component">
		<polygon points="41.5,201.5 241.5,201.5 241.5,1.5 41.5,1.5" fill="#FFFFFF" stroke="#00007F" stroke-width="1.0" stroke-linecap="round" stroke-linejoin="round" />
		<text x="79.5" y="26.2" text-anchor="middle" fill="#000000" font-size="30.4px" font-family="sans-serif">q</text>
		<text x="85.5" y="78.2" text-anchor="middle" fill="#000000" font-size="30.4px" font-family="sans-serif">qd</text>
		<text x="83.5" y="140.2" text-anchor="middle" fill="#000000" font-size="30.4px" font-family="sans-serif">qdd</text>
		<text x="180.5" y="118.8" text-anchor="middle" fill="#000000" font-size="50.5px" font-family="sans-serif">1</text>
		<text x="180.5" y="73.2" text-anchor="middle" fill="#000000" font-size="31.9px" font-family="sans-serif">axis</text>
		<text x="110.5" y="191.2" text-anchor="middle" fill="#000000" font-size="26.4px" font-family="sans-serif">moving</text>
		<g id="q" class="port">
			<polygon points="1.5,1.5 41.5,21.5 1.5,41.5" fill="#00007F" stroke="#00007F" stroke-width="1.0" stroke-linecap="round" stroke-linejoin="round" />
		</g>
		<g id="qd" class="port">
			<polygon points="1.5,51.5 41.5,71.5 1.5,91.5" fill="#00007F" stroke="#00007F" stroke-width="1.0" stroke-linecap="round" stroke-linejoin="round" />
		</g>
		<g id="qdd" class="port">
			<polygon points="1.5,111.5 41.5,131.5 1.5,151.5" fill="#00007F" stroke="#00007F" stroke-width="1.0" stroke-linecap="round" stroke-linejoin="round" />
		</g>
		<g id="axisControlBus" class="port">
			<polyline points="241.9,98.3 241.9,104.7" fill-opacity="0" stroke="#FFCC33" stroke-width="1.0" stroke-linecap="round" stroke-linejoin="round" />
			<polygon points="241.5,99.5 241.5,103.1 243.1,103.1 243.1,99.5" fill-opacity="0" stroke="#FFCC33" stroke-width="1.0" stroke-linecap="round" stroke-linejoin="round" />
			<polygon points="249.5,83.5 250.1,84.6 250.6,86.4 251.0,89.0 251.3,92.4 251.4,96.6 251.5,101.5 251.5,101.5 251.4,106.4 251.3,110.6 251.0,114.0 250.6,116.6 250.1,118.4 249.5,119.5 249.5,119.5 247.6,120.4 244.6,120.4 240.5,119.5 240.5,119.5 237.4,118.5 235.0,117.5 233.4,116.5 232.5,115.5 232.5,115.5 232.1,114.3 231.9,112.3 231.7,109.5 231.5,105.9 231.5,101.5 231.5,101.5 231.5,97.1 231.7,93.5 231.9,90.7 232.1,88.7 232.5,87.5 232.5,87.5 233.4,86.5 235.0,85.5 237.4,84.5 240.5,83.5 240.5,83.5 244.6,82.6 247.6,82.6" fill="#FFD788" stroke="#000000" stroke-width="1.0" stroke-linecap="round" stroke-linejoin="round" />
			<polygon points="245.5,92.5 245.6,92.5 245.7,92.5 245.8,92.5 245.8,92.4 245.9,92.4 246.0,92.4 246.1,92.3 246.1,92.3 246.2,92.2 246.3,92.2 246.3,92.1 246.4,92.0 246.4,91.9 246.4,91.9 246.5,91.8 246.5,91.7 246.5,91.6 246.5,91.5 246.5,91.4 246.5,91.3 246.5,91.3 246.4,91.2 246.4,91.1 246.4,91.0 246.3,91.0 246.3,90.9 246.2,90.8 246.2,90.8 246.1,90.7 246.0,90.7 246.0,90.6 245.9,90.6 245.8,90.5 245.7,90.5 245.6,90.5 245.5,90.5 245.5,90.5 245.4,90.5 245.3,90.5 245.2,90.5 245.1,90.6 245.0,90.6 245.0,90.7 244.9,90.7 244.8,90.8 244.8,90.8 244.7,90.9 244.7,91.0 244.6,91.0 244.6,91.1 244.6,91.2 244.5,91.3 244.5,91.3 244.5,91.4 244.5,91.5 244.5,91.6 244.5,91.7 244.5,91.8 244.6,91.9 244.6,91.9 244.6,92.0 244.7,92.1 244.7,92.2 244.8,92.2 244.9,92.3 244.9,92.3 245.0,92.4 245.1,92.4 245.2,92.4 245.2,92.5 245.3,92.5 245.4,92.5" fill="#000000" stroke="#000000" stroke-width="1.0" stroke-linecap="round" stroke-linejoin="round" />
			<polygon points="245.5,112.5 245.6,112.5 245.7,112.5 245.8,112.5 245.8,112.4 245.9,112.4 246.0,112.4 246.1,112.3 246.1,112.3 246.2,112.2 246.3,112.2 246.3,112.1 246.4,112.0 246.4,111.9 246.4,111.9 246.5,111.8 246.5,111.7 246.5,111.6 246.5,111.5 246.5,111.4 246.5,111.3 246.5,111.3 246.4,111.2 246.4,111.1 246.4,111.0 246.3,111.0 246.3,110.9 246.2,110.8 246.2,110.8 246.1,110.7 246.0,110.7 246.0,110.6 245.9,110.6 245.8,110.5 245.7,110.5 245.6,110.5 245.5,110.5 245.5,110.5 245.4,110.5 245.3,110.5 245.2,110.5 245.1,110.6 245.0,110.6 245.0,110.7 244.9,110.7 244.8,110.8 244.8,110.8 244.7,110.9 244.7,111.0 244.6,111.0 244.6,111.1 244.6,111.2 244.5,111.3 244.5,111.3 244.5,111.4 244.5,111.5 244.5,111.6 244.5,111.7 244.5,111.8 244.6,111.9 244.6,111.9 244.6,112.0 244.7,112.1 244.7,112.2 244.8,112.2 244.9,112.3 244.9,112.3 245.0,112.4 245.1,112.4 245.2,112.4 245.2,112.5 245.3,112.5 245.4,112.5" fill="#000000" stroke="#000000" stroke-width="1.0" stroke-linecap="round" stroke-linejoin="round" />
			<polygon points="237.5,102.5 237.6,102.5 237.7,102.5 237.8,102.5 237.8,102.4 237.9,102.4 238.0,102.4 238.1,102.3 238.1,102.3 238.2,102.2 238.3,102.2 238.3,102.1 238.4,102.0 238.4,101.9 238.4,101.9 238.5,101.8 238.5,101.7 238.5,101.6 238.5,101.5 238.5,101.4 238.5,101.3 238.5,101.3 238.4,101.2 238.4,101.1 238.4,101.0 238.3,101.0 238.3,100.9 238.2,100.8 238.2,100.8 238.1,100.7 238.0,100.7 238.0,100.6 237.9,100.6 237.8,100.5 237.7,100.5 237.6,100.5 237.5,100.5 237.5,100.5 237.4,100.5 237.3,100.5 237.2,100.5 237.1,100.6 237.0,100.6 237.0,100.7 236.9,100.7 236.8,100.8 236.8,100.8 236.7,100.9 236.7,101.0 236.6,101.0 236.6,101.1 236.6,101.2 236.5,101.3 236.5,101.3 236.5,101.4 236.5,101.5 236.5,101.6 236.5,101.7 236.5,101.8 236.6,101.9 236.6,101.9 236.6,102.0 236.7,102.1 236.7,102.2 236.8,102.2 236.9,102.3 236.9,102.3 237.0,102.4 237.1,102.4 237.2,102.4 237.2,102.5 237.3,102.5 237.4,102.5" fill="#000000" stroke="#000000" stroke-width="1.0" stroke-linecap="round" stroke-linejoin="round" />
			<polygon points="241.5,97.5 241.5,105.5 242.3,105.5 242.3,97.5" fill-opacity="0" stroke="#FFD788" stroke-width="1.0" stroke-linecap="round" stroke-linejoin="round" />
		</g>
		<g id="moving" class="port">
			<polygon points="1.5,161.5 41.5,181.5 1.5,201.5" fill="#FF00FF" stroke="#FF00FF" stroke-width="1.0" stroke-linecap="round" stroke-linejoin="round" />
		</g>
	</g>
</svg>
