<svg width="203" height="203" xmlns="http://www.w3.org/2000/svg" xmlns:xlink="http://www.w3.org/1999/xlink">
	<g id="Modelica.Mechanics.MultiBody.Parts.PointMass" class="component">
		<defs>
			<radialGradient id="sph2">
				<stop offset="0%" stop-color="#007FFF" />
				<stop offset="10%" stop-color="#007EFD" />
				<stop offset="20%" stop-color="#007BF7" />
				<stop offset="30%" stop-color="#0076EC" />
				<stop offset="40%" stop-color="#006FDE" />
				<stop offset="50%" stop-color="#0065CB" />
				<stop offset="60%" stop-color="#005AB4" />
				<stop offset="70%" stop-color="#004D9A" />
				<stop offset="80%" stop-color="#003D7B" />
				<stop offset="90%" stop-color="#002C57" />
				<stop offset="100%" stop-color="#001830" />
			</radialGradient>
		</defs>
		<polygon points="151.5,101.5 151.3,97.2 150.8,92.9 149.8,88.7 148.6,84.6 146.9,80.6 145.0,76.8 142.7,73.2 140.1,69.7 137.2,66.5 134.1,63.6 130.7,60.9 127.1,58.6 123.3,56.5 119.4,54.8 115.3,53.4 111.1,52.4 106.9,51.8 102.6,51.5 98.3,51.6 94.0,52.1 89.8,52.9 85.6,54.1 81.6,55.6 77.8,57.5 74.1,59.7 70.6,62.2 67.3,65.0 64.3,68.1 61.6,71.4 59.1,75.0 57.0,78.7 55.2,82.6 53.8,86.7 52.7,90.8 51.9,95.1 51.5,99.3 51.5,103.7 51.9,107.9 52.7,112.2 53.8,116.3 55.2,120.4 57.0,124.3 59.1,128.0 61.6,131.6 64.3,134.9 67.3,138.0 70.6,140.8 74.1,143.3 77.8,145.5 81.6,147.4 85.6,148.9 89.8,150.1 94.0,150.9 98.3,151.4 102.6,151.5 106.9,151.2 111.1,150.6 115.3,149.6 119.4,148.2 123.3,146.5 127.1,144.4 130.7,142.1 134.1,139.4 137.2,136.5 140.1,133.3 142.7,129.8 145.0,126.2 146.9,122.4 148.6,118.4 149.8,114.3 150.8,110.1 151.3,105.8" fill="url(#sph2)" stroke="#001830" stroke-width="1.0" stroke-linecap="butt" stroke-linejoin="round" />
		<g id="frame_a" class="port">
			<polygon points="99.9,103.1 103.1,103.1 103.1,99.9 99.9,99.9" fill-opacity="0" stroke="#5F5F5F" stroke-width="1.0" stroke-linecap="butt" stroke-linejoin="round" />
			<polygon points="96.7,117.5 106.3,117.5 106.3,85.5 96.7,85.5" fill="#C0C0C0" stroke="#000000" stroke-width="1.0" stroke-linecap="butt" stroke-linejoin="round" />
		</g>
	</g>
</svg>
