<svg width="263" height="203" xmlns="http://www.w3.org/2000/svg" xmlns:xlink="http://www.w3.org/1999/xlink">
	<g id="Modelica.Blocks.Nonlinear.FixedDelay" class="component">
		<polygon points="41.5,201.5 241.5,201.5 241.5,1.5 41.5,1.5" fill="#FFFFFF" stroke="#00007F" stroke-width="1.0" stroke-linecap="round" stroke-linejoin="round" />
		<polyline points="49.5,101.5 55.2,84.4 58.7,73.8 61.8,65.0 64.4,57.8 64.4,57.8 66.2,53.3 67.9,49.1 69.6,45.2 71.2,41.8 71.2,41.8 72.5,39.2 73.7,36.8 74.9,34.7 76.1,32.7 77.2,31.0 77.2,31.0 78.7,29.1 80.1,27.4 81.5,25.9 82.9,24.6 82.9,24.6 84.8,23.4 86.6,22.5 88.5,22.0 88.5,22.0 90.4,22.0 92.2,22.5 94.1,23.3 94.1,23.3 95.5,24.2 96.9,25.4 98.3,26.7 99.8,28.4 99.8,28.4 100.9,29.8 102.0,31.4 103.2,33.1 104.3,35.0 105.4,37.0 105.4,37.0 106.8,39.7 108.3,42.7 109.8,46.1 111.4,49.8 111.4,49.8 113.6,55.3 116.0,61.6 118.6,68.8 118.6,68.8 121.8,78.1 126.0,90.6 131.1,106.3 131.1,106.3 136.2,121.8 140.3,133.7 143.2,142.0 143.2,142.0 145.0,146.7 146.7,151.0 148.4,155.0 150.0,158.7 150.0,158.7 151.3,161.4 152.5,163.9 153.7,166.2 154.9,168.3 156.0,170.2 156.0,170.2 157.4,172.3 158.8,174.2 160.2,175.8 161.6,177.2 161.6,177.2 163.5,178.8 165.4,180.0 167.3,180.7 167.3,180.7 169.2,181.0 171.0,180.9 172.9,180.3 172.9,180.3 174.8,179.3 176.7,177.9 178.6,176.0 178.6,176.0 180.0,174.4 181.4,172.6 182.8,170.5 184.2,168.2 184.2,168.2 185.3,166.2 186.5,164.0 187.7,161.5 188.9,158.9 190.2,156.0 190.2,156.0 192.4,150.7 194.8,144.5 197.4,137.5 197.4,137.5 200.1,129.9 202.8,122.0 205.5,113.9 209.5,101.5" fill-opacity="0" stroke="#00007F" stroke-width="1.0" stroke-linecap="round" stroke-linejoin="round" />
		<polyline points="79.5,101.5 85.2,84.4 88.7,73.8 91.8,65.0 94.4,57.8 94.4,57.8 96.2,53.3 97.9,49.1 99.6,45.2 101.2,41.8 101.2,41.8 102.5,39.2 103.7,36.8 104.9,34.7 106.1,32.7 107.2,31.0 107.2,31.0 108.7,29.1 110.1,27.4 111.5,25.9 112.9,24.6 112.9,24.6 114.8,23.4 116.6,22.5 118.5,22.0 118.5,22.0 120.4,22.0 122.2,22.5 124.1,23.3 124.1,23.3 125.5,24.2 126.9,25.4 128.3,26.7 129.8,28.4 129.8,28.4 130.9,29.8 132.0,31.4 133.2,33.1 134.3,35.0 135.4,37.0 135.4,37.0 136.8,39.7 138.3,42.7 139.8,46.1 141.4,49.8 141.4,49.8 143.6,55.3 146.0,61.6 148.6,68.8 148.6,68.8 151.8,78.1 156.0,90.6 161.1,106.3 161.1,106.3 166.2,121.8 170.3,133.7 173.2,142.0 173.2,142.0 175.0,146.7 176.7,151.0 178.4,155.0 180.0,158.7 180.0,158.7 181.3,161.4 182.5,163.9 183.7,166.2 184.9,168.3 186.0,170.2 186.0,170.2 187.4,172.3 188.8,174.2 190.2,175.8 191.6,177.2 191.6,177.2 193.5,178.8 195.4,180.0 197.3,180.7 197.3,180.7 199.2,181.0 201.0,180.9 202.9,180.3 202.9,180.3 204.8,179.3 206.7,177.9 208.6,176.0 208.6,176.0 210.0,174.4 211.4,172.6 212.8,170.5 214.2,168.2 214.2,168.2 215.3,166.2 216.5,164.0 217.7,161.5 218.9,158.9 220.2,156.0 220.2,156.0 222.4,150.7 224.8,144.5 227.4,137.5 227.4,137.5 230.1,129.9 232.8,122.0 235.5,113.9 239.5,101.5" fill-opacity="0" stroke="#A0A0A4" stroke-width="1.0" stroke-linecap="round" stroke-linejoin="round" />
		<g id="u" class="port">
			<polygon points="1.5,81.5 41.5,101.5 1.5,121.5" fill="#00007F" stroke="#00007F" stroke-width="1.0" stroke-linecap="round" stroke-linejoin="round" />
		</g>
		<g id="y" class="port">
			<polygon points="241.5,91.5 261.5,101.5 241.5,111.5" fill="#FFFFFF" stroke="#00007F" stroke-width="1.0" stroke-linecap="round" stroke-linejoin="round" />
		</g>
	</g>
</svg>
