<svg width="213" height="203" xmlns="http://www.w3.org/2000/svg" xmlns:xlink="http://www.w3.org/1999/xlink">
	<g id="Modelica.Mechanics.MultiBody.Joints.Constraints.Revolute" class="component">
		<text x="101.3" y="188.3" text-anchor="middle" fill="#000000" font-size="23.5px" font-family="sans-serif">n={0, 1, 0}</text>
		<defs>
			<linearGradient id="cyl3" x1="0" y1="0" x2="0" y2="1">
				<stop offset="0%" stop-color="#404040" />
				<stop offset="5%" stop-color="#646464" />
				<stop offset="10%" stop-color="#858585" />
				<stop offset="15%" stop-color="#A1A1A1" />
				<stop offset="20%" stop-color="#BABABA" />
				<stop offset="25%" stop-color="#CFCFCF" />
				<stop offset="30%" stop-color="#E0E0E0" />
				<stop offset="35%" stop-color="#EEEEEE" />
				<stop offset="40%" stop-color="#F7F7F7" />
				<stop offset="45%" stop-color="#FDFDFD" />
				<stop offset="50%" stop-color="#FFFFFF" />
				<stop offset="55%" stop-color="#FDFDFD" />
				<stop offset="60%" stop-color="#F7F7F7" />
				<stop offset="65%" stop-color="#EEEEEE" />
				<stop offset="70%" stop-color="#E0E0E0" />
				<stop offset="75%" stop-color="#CFCFCF" />
				<stop offset="80%" stop-color="#BABABA" />
				<stop offset="85%" stop-color="#A1A1A1" />
				<stop offset="90%" stop-color="#858585" />
				<stop offset="95%" stop-color="#646464" />
				<stop offset="100%" stop-color="#404040" />
			</linearGradient>
		</defs>
		<polygon points="9.2,158.6 10.8,159.9 12.5,160.8 14.3,161.3 16.3,161.5 16.3,161.5 24.6,161.5 41.3,161.5 41.3,161.5 58.0,161.5 66.3,161.5 66.3,161.5 68.3,161.3 70.1,160.8 71.8,159.9 73.4,158.6 73.4,158.6 75.0,156.5 76.0,154.1 76.3,151.5 76.3,151.5 76.3,136.9 76.3,101.5 76.3,101.5 76.3,66.1 76.3,51.5 76.3,51.5 76.0,48.9 75.0,46.5 73.4,44.4 73.4,44.4 71.8,43.1 70.1,42.2 68.3,41.7 66.3,41.5 66.3,41.5 58.0,41.5 41.3,41.5 41.3,41.5 24.6,41.5 16.3,41.5 16.3,41.5 14.3,41.7 12.5,42.2 10.8,43.1 9.2,44.4 9.2,44.4 7.9,46.0 7.0,47.7 6.5,49.5 6.3,51.5 6.3,51.5 6.3,66.1 6.3,101.5 6.3,101.5 6.3,136.9 6.3,151.5 6.3,151.5 6.5,153.5 7.0,155.3 7.9,157.0" fill="url(#cyl3)" stroke="#404040" stroke-width="1.0" stroke-linecap="butt" stroke-linejoin="round" />
		<defs>
			<linearGradient id="cyl4" x1="0" y1="0" x2="0" y2="1">
				<stop offset="0%" stop-color="#404040" />
				<stop offset="5%" stop-color="#646464" />
				<stop offset="10%" stop-color="#858585" />
				<stop offset="15%" stop-color="#A1A1A1" />
				<stop offset="20%" stop-color="#BABABA" />
				<stop offset="25%" stop-color="#CFCFCF" />
				<stop offset="30%" stop-color="#E0E0E0" />
				<stop offset="35%" stop-color="#EEEEEE" />
				<stop offset="40%" stop-color="#F7F7F7" />
				<stop offset="45%" stop-color="#FDFDFD" />
				<stop offset="50%" stop-color="#FFFFFF" />
				<stop offset="55%" stop-color="#FDFDFD" />
				<stop offset="60%" stop-color="#F7F7F7" />
				<stop offset="65%" stop-color="#EEEEEE" />
				<stop offset="70%" stop-color="#E0E0E0" />
				<stop offset="75%" stop-color="#CFCFCF" />
				<stop offset="80%" stop-color="#BABABA" />
				<stop offset="85%" stop-color="#A1A1A1" />
				<stop offset="90%" stop-color="#858585" />
				<stop offset="95%" stop-color="#646464" />
				<stop offset="100%" stop-color="#404040" />
			</linearGradient>
		</defs>
		<polygon points="139.2,158.6 140.8,159.9 142.5,160.8 144.3,161.3 146.3,161.5 146.3,161.5 154.6,161.5 171.3,161.5 171.3,161.5 188.0,161.5 196.3,161.5 196.3,161.5 198.3,161.3 200.1,160.8 201.8,159.9 203.4,158.6 203.4,158.6 204.7,157.0 205.6,155.3 206.1,153.5 206.3,151.5 206.3,151.5 206.3,136.9 206.3,101.5 206.3,101.5 206.3,66.1 206.3,51.5 206.3,51.5 206.1,49.5 205.6,47.7 204.7,46.0 203.4,44.4 203.4,44.4 201.8,43.1 200.1,42.2 198.3,41.7 196.3,41.5 196.3,41.5 188.0,41.5 171.3,41.5 171.3,41.5 154.6,41.5 146.3,41.5 146.3,41.5 144.3,41.7 142.5,42.2 140.8,43.1 139.2,44.4 139.2,44.4 137.6,46.5 136.6,48.9 136.3,51.5 136.3,51.5 136.3,66.1 136.3,101.5 136.3,101.5 136.3,136.9 136.3,151.5 136.3,151.5 136.6,154.1 137.6,156.5" fill="url(#cyl4)" stroke="#404040" stroke-width="1.0" stroke-linecap="butt" stroke-linejoin="round" />
		<polygon points="9.2,158.6 10.8,159.9 12.5,160.8 14.3,161.3 16.3,161.5 16.3,161.5 24.6,161.5 41.3,161.5 41.3,161.5 58.0,161.5 66.3,161.5 66.3,161.5 68.3,161.3 70.1,160.8 71.8,159.9 73.4,158.6 73.4,158.6 75.0,156.5 76.0,154.1 76.3,151.5 76.3,151.5 76.3,136.9 76.3,101.5 76.3,101.5 76.3,66.1 76.3,51.5 76.3,51.5 76.0,48.9 75.0,46.5 73.4,44.4 73.4,44.4 71.8,43.1 70.1,42.2 68.3,41.7 66.3,41.5 66.3,41.5 58.0,41.5 41.3,41.5 41.3,41.5 24.6,41.5 16.3,41.5 16.3,41.5 14.3,41.7 12.5,42.2 10.8,43.1 9.2,44.4 9.2,44.4 7.9,46.0 7.0,47.7 6.5,49.5 6.3,51.5 6.3,51.5 6.3,66.1 6.3,101.5 6.3,101.5 6.3,136.9 6.3,151.5 6.3,151.5 6.5,153.5 7.0,155.3 7.9,157.0" fill-opacity="0" stroke="#404040" stroke-width="1.0" stroke-linecap="butt" stroke-linejoin="round" />
		<polygon points="139.2,158.6 140.8,159.9 142.5,160.8 144.3,161.3 146.3,161.5 146.3,161.5 154.6,161.5 171.3,161.5 171.3,161.5 188.0,161.5 196.3,161.5 196.3,161.5 198.3,161.3 200.1,160.8 201.8,159.9 203.4,158.6 203.4,158.6 204.7,157.0 205.6,155.3 206.1,153.5 206.3,151.5 206.3,151.5 206.3,136.9 206.3,101.5 206.3,101.5 206.3,66.1 206.3,51.5 206.3,51.5 206.1,49.5 205.6,47.7 204.7,46.0 203.4,44.4 203.4,44.4 201.8,43.1 200.1,42.2 198.3,41.7 196.3,41.5 196.3,41.5 188.0,41.5 171.3,41.5 171.3,41.5 154.6,41.5 146.3,41.5 146.3,41.5 144.3,41.7 142.5,42.2 140.8,43.1 139.2,44.4 139.2,44.4 137.6,46.5 136.6,48.9 136.3,51.5 136.3,51.5 136.3,66.1 136.3,101.5 136.3,101.5 136.3,136.9 136.3,151.5 136.3,151.5 136.6,154.1 137.6,156.5" fill-opacity="0" stroke="#404040" stroke-width="1.0" stroke-linecap="butt" stroke-linejoin="round" />
		<text x="34.3" y="112.2" text-anchor="middle" fill="#808080" font-size="33.2px" font-family="sans-serif">a</text>
		<text x="175.3" y="115.2" text-anchor="middle" fill="#808080" font-size="33.2px" font-family="sans-serif">b</text>
		<polygon points="76.3,111.5 136.3,111.5 136.3,90.5 76.3,90.5" fill="#C0C0C0" stroke="#404040" stroke-width="1.0" stroke-linecap="butt" stroke-linejoin="round" />
		<polyline points="25.3,167.5 83.3,76.5 146.3,140.5 203.3,30.5" fill-opacity="0" stroke="#FF0000" stroke-width="1.0" stroke-linecap="butt" stroke-linejoin="round" />
		<text x="104.3" y="38.9" text-anchor="middle" fill="#000000" font-size="21.1px" font-family="sans-serif">constraint</text>
		<g id="frame_a" class="port">
			<polygon points="4.7,103.1 7.9,103.1 7.9,99.9 4.7,99.9" fill-opacity="0" stroke="#5F5F5F" stroke-width="1.0" stroke-linecap="butt" stroke-linejoin="round" />
			<polygon points="1.5,117.5 11.1,117.5 11.1,85.5 1.5,85.5" fill="#C0C0C0" stroke="#000000" stroke-width="1.0" stroke-linecap="butt" stroke-linejoin="round" />
		</g>
		<g id="frame_b" class="port">
			<polygon points="204.7,103.1 207.9,103.1 207.9,99.9 204.7,99.9" fill-opacity="0" stroke="#5F5F5F" stroke-width="1.0" stroke-linecap="butt" stroke-linejoin="round" />
			<polygon points="201.5,117.5 211.1,117.5 211.1,85.5 201.5,85.5" fill="#FFFFFF" stroke="#000000" stroke-width="1.0" stroke-linecap="butt" stroke-linejoin="round" />
		</g>
	</g>
</svg>
