<svg width="263" height="243" xmlns="http://www.w3.org/2000/svg" xmlns:xlink="http://www.w3.org/1999/xlink">
	<g id="Modelica.Blocks.Logical.ZeroCrossing" class="component">
		<polygon points="41.5,201.5 241.5,201.5 241.5,1.5 41.5,1.5" fill="#D2D2D2" stroke="#000000" stroke-width="1.5" stroke-linecap="round" stroke-linejoin="round" />
		<polyline points="44.5,200.0 240.0,200.0 240.0,4.5" fill-opacity="0" stroke="#696969" stroke-width="3.0" stroke-linecap="round" stroke-linejoin="round" />
		<polyline points="43.0,198.5 43.0,3.0 238.5,3.0" fill-opacity="0" stroke="#E9E9E9" stroke-width="3.0" stroke-linecap="round" stroke-linejoin="round" />
		<polygon points="226.5,101.5 226.5,100.9 226.4,100.3 226.3,99.7 226.1,99.1 225.9,98.6 225.6,98.0 225.3,97.5 224.9,97.1 224.5,96.6 224.1,96.2 223.6,95.8 223.1,95.5 222.6,95.2 222.0,95.0 221.4,94.8 220.8,94.6 220.3,94.5 219.7,94.5 219.0,94.5 218.4,94.6 217.9,94.7 217.3,94.9 216.7,95.1 216.2,95.3 215.7,95.6 215.2,96.0 214.7,96.4 214.3,96.8 213.9,97.3 213.6,97.8 213.3,98.3 213.0,98.9 212.8,99.4 212.7,100.0 212.6,100.6 212.5,101.2 212.5,101.8 212.6,102.4 212.7,103.0 212.8,103.6 213.0,104.1 213.3,104.7 213.6,105.2 213.9,105.7 214.3,106.2 214.7,106.6 215.2,107.0 215.7,107.4 216.2,107.7 216.7,107.9 217.3,108.1 217.9,108.3 218.4,108.4 219.0,108.5 219.7,108.5 220.3,108.5 220.8,108.4 221.4,108.2 222.0,108.0 222.6,107.8 223.1,107.5 223.6,107.2 224.1,106.8 224.5,106.4 224.9,105.9 225.3,105.5 225.6,105.0 225.9,104.4 226.1,103.9 226.3,103.3 226.4,102.7 226.5,102.1" fill="#EBEBEB" stroke="#EBEBEB" stroke-width="1.0" stroke-linecap="round" stroke-linejoin="round" />
		<polyline points="63.5,33.5 63.5,181.5" fill-opacity="0" stroke="#C0C0C0" stroke-width="1.0" stroke-linecap="round" stroke-linejoin="round" />
		<polygon points="63.5,11.5 55.5,33.5 71.5,33.5" fill="#C0C0C0" stroke="#C0C0C0" stroke-width="1.0" stroke-linecap="round" stroke-linejoin="round" />
		<polyline points="53.5,101.5 211.5,101.5" fill-opacity="0" stroke="#C0C0C0" stroke-width="1.0" stroke-linecap="round" stroke-linejoin="round" />
		<polyline points="63.5,101.5 65.9,85.4 67.4,75.4 68.7,67.0 69.9,60.2 69.9,60.2 71.0,54.4 72.1,49.0 73.2,44.1 73.2,44.1 74.0,40.7 74.8,37.6 75.6,34.7 76.4,32.2 76.4,32.2 77.2,29.9 78.0,27.9 78.8,26.2 79.6,24.8 79.6,24.8 81.2,22.8 82.8,22.0 82.8,22.0 84.4,22.5 86.0,24.0 86.0,24.0 87.1,25.7 88.1,27.8 89.2,30.3 89.2,30.3 90.0,32.6 90.9,35.2 91.9,38.3 92.8,41.8 92.8,41.8 94.3,47.5 95.9,54.3 97.7,62.5 97.7,62.5 100.8,77.4 104.5,95.6 104.5,95.6 107.0,107.7 109.1,117.6 110.9,125.3 110.9,125.3 112.1,130.0 113.2,134.2 114.3,138.0 115.4,141.3 115.4,141.3 116.4,144.2 117.4,146.8 118.4,149.1 119.4,151.0 119.4,151.0 120.7,153.2 122.1,154.8 123.4,155.8 123.4,155.8 125.4,156.2 127.4,155.4 127.4,155.4 128.7,154.2 130.1,152.6 131.4,150.4 131.4,150.4 132.2,148.8 133.1,147.0 134.0,145.0 134.9,142.7 135.8,140.2 135.8,140.2 137.9,134.0 141.0,124.2 145.1,110.7 145.1,110.7 148.2,100.3 150.8,91.9 152.9,85.7 154.4,81.4 154.4,81.4 155.3,79.0 156.3,76.7 157.3,74.6 158.2,72.7 159.2,70.9 159.2,70.9 160.4,69.0 161.5,67.4 162.6,66.1 163.6,65.1 163.6,65.1 165.7,64.0 168.0,63.9 168.0,63.9 169.6,64.4 171.2,65.5 172.8,67.0 172.8,67.0 173.9,68.2 174.9,69.7 176.1,71.5 177.2,73.6 178.5,75.9 178.5,75.9 180.3,79.5 182.5,84.3 185.1,90.1 188.2,97.0 188.2,97.0 190.6,102.6 192.8,107.5 194.7,111.5 196.4,114.8 197.8,117.4 197.8,117.4 199.4,119.8 200.9,122.0 202.4,123.7 203.8,125.0 203.8,125.0 205.7,126.4 207.5,127.1 209.4,127.4 209.4,127.4 211.3,127.1 213.3,126.2 215.4,124.7 215.4,124.7 217.0,123.3 218.5,121.8 219.8,120.3 221.1,118.6 223.5,115.3" fill-opacity="0" stroke="#C0C0C0" stroke-width="1.0" stroke-linecap="round" stroke-linejoin="round" />
		<polygon points="233.5,101.5 211.5,93.5 211.5,109.5" fill="#C0C0C0" stroke="#C0C0C0" stroke-width="1.0" stroke-linecap="round" stroke-linejoin="round" />
		<polyline points="105.5,160.5 105.5,20.5" fill-opacity="0" stroke="#FF00FF" stroke-width="1.0" stroke-linecap="round" stroke-linejoin="round" />
		<polyline points="147.5,160.5 147.5,20.5" fill-opacity="0" stroke="#FF00FF" stroke-width="1.0" stroke-linecap="round" stroke-linejoin="round" />
		<polyline points="190.5,160.5 190.5,20.5" fill-opacity="0" stroke="#FF00FF" stroke-width="1.0" stroke-linecap="round" stroke-linejoin="round" />
		<polyline points="63.5,101.5 211.5,101.5" fill-opacity="0" stroke="#FF00FF" stroke-width="1.0" stroke-linecap="round" stroke-linejoin="round" />
		<g id="y" class="port">
			<polygon points="241.5,91.5 261.5,101.5 241.5,111.5" fill="#FFFFFF" stroke="#FF00FF" stroke-width="1.0" stroke-linecap="round" stroke-linejoin="round" />
		</g>
		<g id="u" class="port">
			<polygon points="1.5,81.5 41.5,101.5 1.5,121.5" fill="#00007F" stroke="#00007F" stroke-width="1.0" stroke-linecap="round" stroke-linejoin="round" />
		</g>
		<g id="enable" class="port">
			<polygon points="121.5,241.5 141.5,201.5 161.5,241.5" fill="#FF00FF" stroke="#FF00FF" stroke-width="1.0" stroke-linecap="round" stroke-linejoin="round" />
		</g>
	</g>
</svg>
