<svg width="215" height="207" xmlns="http://www.w3.org/2000/svg" xmlns:xlink="http://www.w3.org/1999/xlink">
	<g id="Modelica.Thermal.FluidHeatFlow.Interfaces.Partials.Ambient" class="component">
		<polygon points="9.5,205.5 213.5,205.5 213.5,1.5 9.5,1.5" fill-opacity="0" stroke="#FF0000" stroke-dasharray="3 4" stroke-width="1.0" stroke-linecap="round" stroke-linejoin="round" />
		<polygon points="201.5,103.5 201.2,95.8 200.2,88.1 198.5,80.5 196.2,73.1 193.3,66.0 189.8,59.1 185.7,52.5 181.0,46.3 175.8,40.5 170.2,35.3 164.1,30.5 157.6,26.2 150.8,22.5 143.7,19.5 136.3,17.0 128.8,15.2 121.2,14.0 113.4,13.5 105.7,13.7 98.0,14.5 90.4,16.0 83.0,18.1 75.7,20.9 68.8,24.3 62.1,28.3 55.8,32.8 49.9,37.8 44.5,43.4 39.6,49.4 35.2,55.7 31.4,62.5 28.2,69.5 25.6,76.8 23.6,84.3 22.2,91.9 21.6,99.6 21.6,107.4 22.2,115.1 23.6,122.7 25.6,130.2 28.2,137.5 31.4,144.5 35.2,151.3 39.6,157.6 44.5,163.6 49.9,169.2 55.8,174.2 62.1,178.7 68.8,182.7 75.7,186.1 83.0,188.9 90.4,191.0 98.0,192.5 105.7,193.3 113.4,193.5 121.2,193.0 128.8,191.8 136.3,190.0 143.7,187.5 150.8,184.5 157.6,180.8 164.1,176.5 170.2,171.7 175.8,166.5 181.0,160.7 185.7,154.5 189.8,147.9 193.3,141.0 196.2,133.9 198.5,126.5 200.2,118.9 201.2,111.2" fill="#0000FF" stroke="#FF0000" stroke-width="1.0" stroke-linecap="round" stroke-linejoin="round" />
		<g id="flowPort" class="port">
			<polygon points="1.5,113.5 21.5,113.5 21.5,93.5 1.5,93.5" fill="#FFFFFF" stroke="#FF0000" stroke-width="1.0" stroke-linecap="round" stroke-linejoin="round" />
			<polygon points="21.3,103.5 21.3,102.7 21.2,101.8 21.0,101.0 20.7,100.2 20.4,99.4 20.0,98.7 19.6,97.9 19.1,97.3 18.5,96.6 17.9,96.1 17.2,95.5 16.5,95.1 15.8,94.7 15.0,94.3 14.2,94.1 13.4,93.9 12.6,93.8 11.7,93.7 10.9,93.7 10.0,93.8 9.2,94.0 8.4,94.2 7.6,94.5 6.8,94.9 6.1,95.3 5.4,95.8 4.8,96.4 4.2,97.0 3.7,97.6 3.2,98.3 2.8,99.0 2.4,99.8 2.1,100.6 1.9,101.4 1.8,102.2 1.7,103.1 1.7,103.9 1.8,104.8 1.9,105.6 2.1,106.4 2.4,107.2 2.8,108.0 3.2,108.7 3.7,109.4 4.2,110.0 4.8,110.6 5.4,111.2 6.1,111.7 6.8,112.1 7.6,112.5 8.4,112.8 9.2,113.0 10.0,113.2 10.9,113.3 11.7,113.3 12.6,113.2 13.4,113.1 14.2,112.9 15.0,112.7 15.8,112.3 16.5,111.9 17.2,111.5 17.9,110.9 18.5,110.4 19.1,109.7 19.6,109.1 20.0,108.3 20.4,107.6 20.7,106.8 21.0,106.0 21.2,105.2 21.3,104.3" fill="#0000FF" stroke="#0000FF" stroke-width="1.0" stroke-linecap="round" stroke-linejoin="round" />
		</g>
	</g>
</svg>
