<svg width="203" height="203" xmlns="http://www.w3.org/2000/svg" xmlns:xlink="http://www.w3.org/1999/xlink">
	<g id="Modelica.Mechanics" class="component">
		<defs>
			<linearGradient id="cyl2" x1="0" y1="0" x2="0" y2="1">
				<stop offset="0%" stop-color="#C8C8C8" />
				<stop offset="5%" stop-color="#D1D1D1" />
				<stop offset="10%" stop-color="#D9D9D9" />
				<stop offset="15%" stop-color="#E0E0E0" />
				<stop offset="20%" stop-color="#E7E7E7" />
				<stop offset="25%" stop-color="#ECECEC" />
				<stop offset="30%" stop-color="#F0F0F0" />
				<stop offset="35%" stop-color="#F4F4F4" />
				<stop offset="40%" stop-color="#F6F6F6" />
				<stop offset="45%" stop-color="#F8F8F8" />
				<stop offset="50%" stop-color="#F8F8F8" />
				<stop offset="55%" stop-color="#F8F8F8" />
				<stop offset="60%" stop-color="#F6F6F6" />
				<stop offset="65%" stop-color="#F4F4F4" />
				<stop offset="70%" stop-color="#F0F0F0" />
				<stop offset="75%" stop-color="#ECECEC" />
				<stop offset="80%" stop-color="#E7E7E7" />
				<stop offset="85%" stop-color="#E0E0E0" />
				<stop offset="90%" stop-color="#D9D9D9" />
				<stop offset="95%" stop-color="#D1D1D1" />
				<stop offset="100%" stop-color="#C8C8C8" />
			</linearGradient>
		</defs>
		<polygon points="8.8,194.2 11.0,196.1 13.3,197.8 15.7,199.1 18.2,200.2 20.8,200.9 23.6,201.4 26.5,201.5 26.5,201.5 50.4,201.5 101.5,201.5 101.5,201.5 152.6,201.5 176.5,201.5 176.5,201.5 179.4,201.4 182.2,200.9 184.8,200.2 187.3,199.1 189.7,197.8 192.0,196.1 194.2,194.2 194.2,194.2 196.1,192.0 197.8,189.7 199.1,187.3 200.2,184.8 200.9,182.2 201.4,179.4 201.5,176.5 201.5,176.5 201.5,152.6 201.5,101.5 201.5,101.5 201.5,50.4 201.5,26.5 201.5,26.5 201.4,23.6 200.9,20.8 200.2,18.2 199.1,15.7 197.8,13.3 196.1,11.0 194.2,8.8 194.2,8.8 192.0,6.9 189.7,5.2 187.3,3.9 184.8,2.8 182.2,2.1 179.4,1.6 176.5,1.5 176.5,1.5 152.6,1.5 101.5,1.5 101.5,1.5 50.4,1.5 26.5,1.5 26.5,1.5 23.6,1.6 20.8,2.1 18.2,2.8 15.7,3.9 13.3,5.2 11.0,6.9 8.8,8.8 8.8,8.8 6.9,11.0 5.2,13.3 3.9,15.7 2.8,18.2 2.1,20.8 1.6,23.6 1.5,26.5 1.5,26.5 1.5,50.4 1.5,101.5 1.5,101.5 1.5,152.6 1.5,176.5 1.5,176.5 1.6,179.4 2.1,182.2 2.8,184.8 3.9,187.3 5.2,189.7 6.9,192.0" fill="url(#cyl2)" stroke="#C8C8C8" stroke-width="1.0" stroke-linecap="butt" stroke-linejoin="round" />
		<polygon points="8.8,194.2 11.0,196.1 13.3,197.8 15.7,199.1 18.2,200.2 20.8,200.9 23.6,201.4 26.5,201.5 26.5,201.5 50.4,201.5 101.5,201.5 101.5,201.5 152.6,201.5 176.5,201.5 176.5,201.5 179.4,201.4 182.2,200.9 184.8,200.2 187.3,199.1 189.7,197.8 192.0,196.1 194.2,194.2 194.2,194.2 196.1,192.0 197.8,189.7 199.1,187.3 200.2,184.8 200.9,182.2 201.4,179.4 201.5,176.5 201.5,176.5 201.5,152.6 201.5,101.5 201.5,101.5 201.5,50.4 201.5,26.5 201.5,26.5 201.4,23.6 200.9,20.8 200.2,18.2 199.1,15.7 197.8,13.3 196.1,11.0 194.2,8.8 194.2,8.8 192.0,6.9 189.7,5.2 187.3,3.9 184.8,2.8 182.2,2.1 179.4,1.6 176.5,1.5 176.5,1.5 152.6,1.5 101.5,1.5 101.5,1.5 50.4,1.5 26.5,1.5 26.5,1.5 23.6,1.6 20.8,2.1 18.2,2.8 15.7,3.9 13.3,5.2 11.0,6.9 8.8,8.8 8.8,8.8 6.9,11.0 5.2,13.3 3.9,15.7 2.8,18.2 2.1,20.8 1.6,23.6 1.5,26.5 1.5,26.5 1.5,50.4 1.5,101.5 1.5,101.5 1.5,152.6 1.5,176.5 1.5,176.5 1.6,179.4 2.1,182.2 2.8,184.8 3.9,187.3 5.2,189.7 6.9,192.0" fill-opacity="0" stroke="#808080" stroke-width="1.0" stroke-linecap="butt" stroke-linejoin="round" />
		<defs>
			<linearGradient id="cyl4" x1="0" y1="0" x2="0" y2="1">
				<stop offset="0%" stop-color="#404040" />
				<stop offset="5%" stop-color="#585858" />
				<stop offset="10%" stop-color="#6E6E6E" />
				<stop offset="15%" stop-color="#818181" />
				<stop offset="20%" stop-color="#929292" />
				<stop offset="25%" stop-color="#A0A0A0" />
				<stop offset="30%" stop-color="#ACACAC" />
				<stop offset="35%" stop-color="#B4B4B4" />
				<stop offset="40%" stop-color="#BBBBBB" />
				<stop offset="45%" stop-color="#BFBFBF" />
				<stop offset="50%" stop-color="#C0C0C0" />
				<stop offset="55%" stop-color="#BFBFBF" />
				<stop offset="60%" stop-color="#BBBBBB" />
				<stop offset="65%" stop-color="#B4B4B4" />
				<stop offset="70%" stop-color="#ACACAC" />
				<stop offset="75%" stop-color="#A0A0A0" />
				<stop offset="80%" stop-color="#929292" />
				<stop offset="85%" stop-color="#818181" />
				<stop offset="90%" stop-color="#6E6E6E" />
				<stop offset="95%" stop-color="#585858" />
				<stop offset="100%" stop-color="#404040" />
			</linearGradient>
		</defs>
		<polygon points="105.5,131.5 151.5,131.5 151.5,91.5 105.5,91.5" fill="url(#cyl4)" stroke="#404040" stroke-width="1.0" stroke-linecap="butt" stroke-linejoin="round" />
		<polygon points="30.5,110.5 30.5,110.1 30.4,109.6 30.3,109.2 30.2,108.8 30.0,108.4 29.8,108.0 29.6,107.7 29.4,107.3 29.1,107.0 28.8,106.7 28.4,106.4 28.1,106.2 27.7,106.0 27.3,105.8 26.9,105.7 26.5,105.6 26.0,105.5 25.6,105.5 25.2,105.5 24.7,105.6 24.3,105.6 23.9,105.8 23.5,105.9 23.1,106.1 22.8,106.3 22.4,106.6 22.1,106.9 21.8,107.2 21.5,107.5 21.3,107.8 21.0,108.2 20.9,108.6 20.7,109.0 20.6,109.4 20.5,109.9 20.5,110.3 20.5,110.7 20.5,111.1 20.6,111.6 20.7,112.0 20.9,112.4 21.0,112.8 21.3,113.2 21.5,113.5 21.8,113.8 22.1,114.1 22.4,114.4 22.8,114.7 23.1,114.9 23.5,115.1 23.9,115.2 24.3,115.4 24.7,115.4 25.2,115.5 25.6,115.5 26.0,115.5 26.5,115.4 26.9,115.3 27.3,115.2 27.7,115.0 28.1,114.8 28.4,114.6 28.8,114.3 29.1,114.0 29.4,113.7 29.6,113.3 29.8,113.0 30.0,112.6 30.2,112.2 30.3,111.8 30.4,111.4 30.5,110.9" fill-opacity="0" stroke="#000000" stroke-width="1.0" stroke-linecap="butt" stroke-linejoin="round" />
		<polyline points="25.5,110.5 50.5,76.5" fill-opacity="0" stroke="#000000" stroke-width="1.0" stroke-linecap="butt" stroke-linejoin="round" />
		<polygon points="55.5,76.5 55.5,76.1 55.4,75.6 55.3,75.2 55.2,74.8 55.0,74.4 54.8,74.0 54.6,73.7 54.4,73.3 54.1,73.0 53.8,72.7 53.4,72.4 53.1,72.2 52.7,72.0 52.3,71.8 51.9,71.7 51.5,71.6 51.0,71.5 50.6,71.5 50.2,71.5 49.7,71.6 49.3,71.6 48.9,71.8 48.5,71.9 48.1,72.1 47.8,72.3 47.4,72.6 47.1,72.9 46.8,73.2 46.5,73.5 46.3,73.8 46.0,74.2 45.9,74.6 45.7,75.0 45.6,75.4 45.5,75.9 45.5,76.3 45.5,76.7 45.5,77.1 45.6,77.6 45.7,78.0 45.9,78.4 46.0,78.8 46.3,79.2 46.5,79.5 46.8,79.8 47.1,80.1 47.4,80.4 47.8,80.7 48.1,80.9 48.5,81.1 48.9,81.2 49.3,81.4 49.7,81.4 50.2,81.5 50.6,81.5 51.0,81.5 51.5,81.4 51.9,81.3 52.3,81.2 52.7,81.0 53.1,80.8 53.4,80.6 53.8,80.3 54.1,80.0 54.4,79.7 54.6,79.3 54.8,79.0 55.0,78.6 55.2,78.2 55.3,77.8 55.4,77.4 55.5,76.9" fill-opacity="0" stroke="#000000" stroke-width="1.0" stroke-linecap="butt" stroke-linejoin="round" />
		<polyline points="50.5,76.5 119.5,110.5" fill-opacity="0" stroke="#000000" stroke-width="1.0" stroke-linecap="butt" stroke-linejoin="round" />
		<polygon points="124.5,110.5 124.5,110.1 124.4,109.6 124.3,109.2 124.2,108.8 124.0,108.4 123.8,108.0 123.6,107.7 123.4,107.3 123.1,107.0 122.8,106.7 122.4,106.4 122.1,106.2 121.7,106.0 121.3,105.8 120.9,105.7 120.5,105.6 120.0,105.5 119.6,105.5 119.2,105.5 118.7,105.6 118.3,105.6 117.9,105.8 117.5,105.9 117.1,106.1 116.8,106.3 116.4,106.6 116.1,106.9 115.8,107.2 115.5,107.5 115.3,107.8 115.0,108.2 114.9,108.6 114.7,109.0 114.6,109.4 114.5,109.9 114.5,110.3 114.5,110.7 114.5,111.1 114.6,111.6 114.7,112.0 114.9,112.4 115.0,112.8 115.3,113.2 115.5,113.5 115.8,113.8 116.1,114.1 116.4,114.4 116.8,114.7 117.1,114.9 117.5,115.1 117.9,115.2 118.3,115.4 118.7,115.4 119.2,115.5 119.6,115.5 120.0,115.5 120.5,115.4 120.9,115.3 121.3,115.2 121.7,115.0 122.1,114.8 122.4,114.6 122.8,114.3 123.1,114.0 123.4,113.7 123.6,113.3 123.8,113.0 124.0,112.6 124.2,112.2 124.3,111.8 124.4,111.4 124.5,110.9" fill="#000000" stroke="#000000" stroke-width="1.0" stroke-linecap="butt" stroke-linejoin="round" />
		<polyline points="100.5,81.5 182.5,81.5 182.5,141.5 100.5,141.5" fill-opacity="0" stroke="#000000" stroke-width="1.0" stroke-linecap="butt" stroke-linejoin="round" />
	</g>
</svg>
