<svg width="223" height="203" xmlns="http://www.w3.org/2000/svg" xmlns:xlink="http://www.w3.org/1999/xlink">
	<g id="Modelica.Blocks.Sources.Sine" class="component">
		<polygon points="1.5,201.5 201.5,201.5 201.5,1.5 1.5,1.5" fill="#FFFFFF" stroke="#00007F" stroke-width="1.0" stroke-linecap="butt" stroke-linejoin="round" />
		<polyline points="21.5,33.5 21.5,181.5" fill-opacity="0" stroke="#C0C0C0" stroke-width="1.0" stroke-linecap="butt" stroke-linejoin="round" />
		<polygon points="21.5,11.5 13.5,33.5 29.5,33.5" fill="#C0C0C0" stroke="#C0C0C0" stroke-width="1.0" stroke-linecap="butt" stroke-linejoin="round" />
		<polyline points="11.5,101.5 169.5,101.5" fill-opacity="0" stroke="#C0C0C0" stroke-width="1.0" stroke-linecap="butt" stroke-linejoin="round" />
		<polygon points="191.5,101.5 169.5,93.5 169.5,109.5" fill="#C0C0C0" stroke="#C0C0C0" stroke-width="1.0" stroke-linecap="butt" stroke-linejoin="round" />
		<polyline points="21.5,101.5 27.2,84.4 30.7,73.8 33.8,65.0 36.4,57.8 36.4,57.8 38.2,53.3 39.9,49.1 41.6,45.2 43.2,41.8 43.2,41.8 44.5,39.2 45.7,36.8 46.9,34.7 48.1,32.7 49.2,31.0 49.2,31.0 50.7,29.1 52.1,27.4 53.5,25.9 54.9,24.6 54.9,24.6 56.8,23.4 58.6,22.5 60.5,22.0 60.5,22.0 62.4,22.0 64.2,22.5 66.1,23.3 66.1,23.3 67.5,24.2 68.9,25.4 70.3,26.7 71.8,28.4 71.8,28.4 72.9,29.8 74.0,31.4 75.2,33.1 76.3,35.0 77.4,37.0 77.4,37.0 78.8,39.7 80.3,42.7 81.8,46.1 83.4,49.8 83.4,49.8 85.6,55.3 88.0,61.6 90.6,68.8 90.6,68.8 93.8,78.1 98.0,90.6 103.1,106.3 103.1,106.3 108.2,121.8 112.3,133.7 115.2,142.0 115.2,142.0 117.0,146.7 118.7,151.0 120.4,155.0 122.0,158.7 122.0,158.7 123.3,161.4 124.5,163.9 125.7,166.2 126.9,168.3 128.0,170.2 128.0,170.2 129.4,172.3 130.8,174.2 132.2,175.8 133.6,177.2 133.6,177.2 135.5,178.8 137.4,180.0 139.3,180.7 139.3,180.7 141.2,181.0 143.0,180.9 144.9,180.3 144.9,180.3 146.8,179.3 148.7,177.9 150.6,176.0 150.6,176.0 152.0,174.4 153.4,172.6 154.8,170.5 156.2,168.2 156.2,168.2 157.3,166.2 158.5,164.0 159.7,161.5 160.9,158.9 162.2,156.0 162.2,156.0 164.4,150.7 166.8,144.5 169.4,137.5 169.4,137.5 172.1,129.9 174.8,122.0 177.5,113.9 181.5,101.5" fill-opacity="0" stroke="#000000" stroke-width="1.0" stroke-linecap="butt" stroke-linejoin="round" />
		<g id="y" class="port">
			<polygon points="201.5,91.5 221.5,101.5 201.5,111.5" fill="#FFFFFF" stroke="#00007F" stroke-width="1.0" stroke-linecap="butt" stroke-linejoin="round" />
		</g>
	</g>
</svg>
