<svg width="223" height="213" xmlns="http://www.w3.org/2000/svg" xmlns:xlink="http://www.w3.org/1999/xlink">
	<g id="Modelica.Electrical.Analog.Interfaces.IdealSwitch" class="component">
		<polygon points="75.5,101.5 75.5,101.2 75.4,100.8 75.4,100.5 75.3,100.1 75.1,99.8 75.0,99.5 74.8,99.2 74.6,99.0 74.4,98.7 74.1,98.5 73.8,98.3 73.5,98.1 73.2,97.9 72.9,97.8 72.6,97.7 72.3,97.6 71.9,97.5 71.6,97.5 71.2,97.5 70.9,97.5 70.6,97.6 70.2,97.7 69.9,97.8 69.6,98.0 69.3,98.2 69.0,98.4 68.8,98.6 68.5,98.8 68.3,99.1 68.1,99.4 67.9,99.7 67.8,100.0 67.7,100.3 67.6,100.6 67.5,101.0 67.5,101.3 67.5,101.7 67.5,102.0 67.6,102.4 67.7,102.7 67.8,103.0 67.9,103.3 68.1,103.6 68.3,103.9 68.5,104.2 68.8,104.4 69.0,104.6 69.3,104.8 69.6,105.0 69.9,105.2 70.2,105.3 70.6,105.4 70.9,105.5 71.2,105.5 71.6,105.5 71.9,105.5 72.3,105.4 72.6,105.3 72.9,105.2 73.2,105.1 73.5,104.9 73.8,104.7 74.1,104.5 74.4,104.3 74.6,104.0 74.8,103.8 75.0,103.5 75.1,103.2 75.3,102.9 75.4,102.5 75.4,102.2 75.5,101.8" fill-opacity="0" stroke="#0000FF" stroke-width="1.0" stroke-linecap="round" stroke-linejoin="round" />
		<polyline points="21.5,101.5 67.5,101.5" fill-opacity="0" stroke="#0000FF" stroke-width="1.0" stroke-linecap="round" stroke-linejoin="round" />
		<polyline points="74.5,99.5 151.5,61.5" fill-opacity="0" stroke="#0000FF" stroke-width="1.0" stroke-linecap="round" stroke-linejoin="round" />
		<polyline points="151.5,101.5 201.5,101.5" fill-opacity="0" stroke="#0000FF" stroke-width="1.0" stroke-linecap="round" stroke-linejoin="round" />
		<g id="p" class="port">
			<polygon points="1.5,111.5 21.5,111.5 21.5,91.5 1.5,91.5" fill="#0000FF" stroke="#0000FF" stroke-width="1.0" stroke-linecap="round" stroke-linejoin="round" />
		</g>
		<g id="n" class="port">
			<polygon points="221.5,111.5 201.5,111.5 201.5,91.5 221.5,91.5" fill="#FFFFFF" stroke="#0000FF" stroke-width="1.0" stroke-linecap="round" stroke-linejoin="round" />
		</g>
		<g id="heatPort" class="port">
			<polygon points="101.5,211.5 121.5,211.5 121.5,191.5 101.5,191.5" fill="#BF0000" stroke="#BF0000" stroke-width="1.0" stroke-linecap="round" stroke-linejoin="round" />
		</g>
	</g>
</svg>
