<svg width="223" height="203" xmlns="http://www.w3.org/2000/svg" xmlns:xlink="http://www.w3.org/1999/xlink">
	<g id="Modelica.Media.Examples.Utilities.FixedAmbient" class="component">
		<defs>
			<radialGradient id="sph2">
				<stop offset="0%" stop-color="#007FFF" />
				<stop offset="10%" stop-color="#007EFC" />
				<stop offset="20%" stop-color="#007AF5" />
				<stop offset="30%" stop-color="#0074E8" />
				<stop offset="40%" stop-color="#006BD6" />
				<stop offset="50%" stop-color="#005FBF" />
				<stop offset="60%" stop-color="#0051A3" />
				<stop offset="70%" stop-color="#004182" />
				<stop offset="80%" stop-color="#002E5C" />
				<stop offset="90%" stop-color="#001830" />
				<stop offset="100%" stop-color="#000000" />
			</radialGradient>
		</defs>
		<polygon points="201.5,101.5 201.1,92.9 200.0,84.4 198.2,76.0 195.6,67.7 192.4,59.8 188.5,52.1 183.9,44.8 178.7,38.0 173.0,31.6 166.7,25.7 159.9,20.3 152.7,15.6 145.2,11.5 137.3,8.1 129.1,5.4 120.7,3.4 112.2,2.1 103.7,1.5 95.0,1.7 86.5,2.6 78.1,4.3 69.8,6.7 61.7,9.7 54.0,13.5 46.6,17.9 39.6,22.9 33.1,28.5 27.1,34.7 21.6,41.3 16.7,48.4 12.5,55.9 8.9,63.7 6.0,71.8 3.8,80.1 2.3,88.6 1.6,97.2 1.6,105.8 2.3,114.4 3.8,122.9 6.0,131.2 8.9,139.3 12.5,147.1 16.7,154.6 21.6,161.7 27.1,168.3 33.1,174.5 39.6,180.1 46.6,185.1 54.0,189.5 61.7,193.3 69.8,196.3 78.1,198.7 86.5,200.4 95.0,201.3 103.7,201.5 112.2,200.9 120.7,199.6 129.1,197.6 137.3,194.9 145.2,191.5 152.7,187.4 159.9,182.7 166.7,177.3 173.0,171.4 178.7,165.0 183.9,158.2 188.5,150.9 192.4,143.2 195.6,135.3 198.2,127.0 200.0,118.6 201.1,110.1" fill="url(#sph2)" stroke="#000000" stroke-width="1.0" stroke-linecap="butt" stroke-linejoin="round" />
		<g id="port" class="port">
			<polygon points="221.5,101.5 221.5,100.6 221.4,99.8 221.2,98.9 220.9,98.1 220.6,97.3 220.2,96.6 219.7,95.8 219.2,95.1 218.6,94.5 218.0,93.9 217.3,93.4 216.6,92.9 215.9,92.5 215.1,92.2 214.3,91.9 213.4,91.7 212.6,91.6 211.7,91.5 210.9,91.5 210.0,91.6 209.2,91.8 208.3,92.0 207.5,92.3 206.8,92.7 206.0,93.1 205.3,93.6 204.7,94.2 204.1,94.8 203.5,95.5 203.0,96.2 202.6,96.9 202.2,97.7 202.0,98.5 201.7,99.4 201.6,100.2 201.5,101.1 201.5,101.9 201.6,102.8 201.7,103.6 202.0,104.5 202.2,105.3 202.6,106.1 203.0,106.8 203.5,107.5 204.1,108.2 204.7,108.8 205.3,109.4 206.0,109.9 206.8,110.3 207.5,110.7 208.3,111.0 209.2,111.2 210.0,111.4 210.9,111.5 211.7,111.5 212.6,111.4 213.4,111.3 214.3,111.1 215.1,110.8 215.9,110.5 216.6,110.1 217.3,109.6 218.0,109.1 218.6,108.5 219.2,107.9 219.7,107.2 220.2,106.4 220.6,105.7 220.9,104.9 221.2,104.1 221.4,103.2 221.5,102.4" fill="#007FFF" stroke="#007FFF" stroke-width="1.0" stroke-linecap="butt" stroke-linejoin="round" />
			<polygon points="221.5,101.5 221.5,100.6 221.4,99.8 221.2,98.9 220.9,98.1 220.6,97.3 220.2,96.6 219.7,95.8 219.2,95.1 218.6,94.5 218.0,93.9 217.3,93.4 216.6,92.9 215.9,92.5 215.1,92.2 214.3,91.9 213.4,91.7 212.6,91.6 211.7,91.5 210.9,91.5 210.0,91.6 209.2,91.8 208.3,92.0 207.5,92.3 206.8,92.7 206.0,93.1 205.3,93.6 204.7,94.2 204.1,94.8 203.5,95.5 203.0,96.2 202.6,96.9 202.2,97.7 202.0,98.5 201.7,99.4 201.6,100.2 201.5,101.1 201.5,101.9 201.6,102.8 201.7,103.6 202.0,104.5 202.2,105.3 202.6,106.1 203.0,106.8 203.5,107.5 204.1,108.2 204.7,108.8 205.3,109.4 206.0,109.9 206.8,110.3 207.5,110.7 208.3,111.0 209.2,111.2 210.0,111.4 210.9,111.5 211.7,111.5 212.6,111.4 213.4,111.3 214.3,111.1 215.1,110.8 215.9,110.5 216.6,110.1 217.3,109.6 218.0,109.1 218.6,108.5 219.2,107.9 219.7,107.2 220.2,106.4 220.6,105.7 220.9,104.9 221.2,104.1 221.4,103.2 221.5,102.4" fill="#007FFF" stroke="#000000" stroke-width="1.0" stroke-linecap="butt" stroke-linejoin="round" />
			<polygon points="219.5,101.5 219.5,100.8 219.4,100.1 219.2,99.5 219.0,98.8 218.8,98.2 218.5,97.5 218.1,97.0 217.7,96.4 217.2,95.9 216.7,95.4 216.2,95.0 215.6,94.6 215.0,94.3 214.4,94.0 213.7,93.8 213.0,93.6 212.4,93.5 211.7,93.5 211.0,93.5 210.3,93.6 209.6,93.7 209.0,93.9 208.3,94.2 207.7,94.5 207.1,94.8 206.6,95.2 206.0,95.7 205.5,96.2 205.1,96.7 204.7,97.3 204.4,97.9 204.1,98.5 203.9,99.1 203.7,99.8 203.6,100.5 203.5,101.2 203.5,101.8 203.6,102.5 203.7,103.2 203.9,103.9 204.1,104.5 204.4,105.1 204.7,105.7 205.1,106.3 205.5,106.8 206.0,107.3 206.6,107.8 207.1,108.2 207.7,108.5 208.3,108.8 209.0,109.1 209.6,109.3 210.3,109.4 211.0,109.5 211.7,109.5 212.4,109.5 213.0,109.4 213.7,109.2 214.4,109.0 215.0,108.7 215.6,108.4 216.2,108.0 216.7,107.6 217.2,107.1 217.7,106.6 218.1,106.0 218.5,105.5 218.8,104.8 219.0,104.2 219.2,103.5 219.4,102.9 219.5,102.2" fill="#FFFFFF" stroke="#007FFF" stroke-width="1.0" stroke-linecap="butt" stroke-linejoin="round" />
		</g>
	</g>
</svg>
