<svg width="263" height="243" xmlns="http://www.w3.org/2000/svg" xmlns:xlink="http://www.w3.org/1999/xlink">
	<g id="Modelica.Electrical.PowerConverters.DCDC.Control.VoltageToDutyCycle" class="component">
		<polygon points="41.5,241.5 241.5,241.5 241.5,41.5 41.5,41.5" fill="#FFFFFF" stroke="#000000" stroke-width="1.0" stroke-linecap="round" stroke-linejoin="round" />
		<polyline points="141.5,201.5 201.5,81.5" fill-opacity="0" stroke="#000000" stroke-dasharray="3 4" stroke-width="1.0" stroke-linecap="round" stroke-linejoin="round" />
		<polyline points="81.5,201.5 201.5,81.5" fill-opacity="0" stroke="#000000" stroke-width="1.0" stroke-linecap="round" stroke-linejoin="round" />
		<polygon points="63.5,201.5 65.5,201.5 203.5,201.5 203.5,195.5 223.5,201.5 203.5,207.5 203.5,201.5 203.5,201.5" fill="#000000" stroke="#000000" stroke-width="1.0" stroke-linecap="round" stroke-linejoin="round" />
		<polygon points="141.5,221.5 141.5,81.5 135.5,81.5 141.5,61.5 147.5,81.5 141.5,81.5" fill="#000000" stroke="#000000" stroke-width="1.0" stroke-linecap="round" stroke-linejoin="round" />
		<g id="v" class="port">
			<polygon points="1.5,121.5 41.5,141.5 1.5,161.5" fill="#00007F" stroke="#00007F" stroke-width="1.0" stroke-linecap="round" stroke-linejoin="round" />
		</g>
		<g id="dutyCycle" class="port">
			<polygon points="241.5,131.5 261.5,141.5 241.5,151.5" fill="#FFFFFF" stroke="#00007F" stroke-width="1.0" stroke-linecap="round" stroke-linejoin="round" />
		</g>
		<g id="vMaxExt" class="port">
			<polygon points="161.5,1.5 141.5,41.5 121.5,1.5" fill="#00007F" stroke="#00007F" stroke-width="1.0" stroke-linecap="round" stroke-linejoin="round" />
		</g>
	</g>
</svg>
