<svg width="223" height="233" xmlns="http://www.w3.org/2000/svg" xmlns:xlink="http://www.w3.org/1999/xlink">
	<g id="Modelica.Magnetic.FundamentalWave.BasicMachines.AsynchronousInductionMachines.AIM_SquirrelCage" class="component">
		<defs>
			<linearGradient id="cyl2" x1="0" y1="0" x2="0" y2="1">
				<stop offset="0%" stop-color="#000000" />
				<stop offset="5%" stop-color="#301800" />
				<stop offset="10%" stop-color="#5C2E00" />
				<stop offset="15%" stop-color="#824100" />
				<stop offset="20%" stop-color="#A35200" />
				<stop offset="25%" stop-color="#BF6000" />
				<stop offset="30%" stop-color="#D66C00" />
				<stop offset="35%" stop-color="#E87400" />
				<stop offset="40%" stop-color="#F57B00" />
				<stop offset="45%" stop-color="#FC7F00" />
				<stop offset="50%" stop-color="#FF8000" />
				<stop offset="55%" stop-color="#FC7F00" />
				<stop offset="60%" stop-color="#F57B00" />
				<stop offset="65%" stop-color="#E87400" />
				<stop offset="70%" stop-color="#D66C00" />
				<stop offset="75%" stop-color="#BF6000" />
				<stop offset="80%" stop-color="#A35200" />
				<stop offset="85%" stop-color="#824100" />
				<stop offset="90%" stop-color="#5C2E00" />
				<stop offset="95%" stop-color="#301800" />
				<stop offset="100%" stop-color="#000000" />
			</linearGradient>
		</defs>
		<polygon points="61.5,171.5 181.5,171.5 181.5,51.5 61.5,51.5" fill="url(#cyl2)" stroke="#000000" stroke-width="1.0" stroke-linecap="butt" stroke-linejoin="round" />
		<defs>
			<linearGradient id="cyl3" x1="0" y1="0" x2="0" y2="1">
				<stop offset="0%" stop-color="#000000" />
				<stop offset="5%" stop-color="#181818" />
				<stop offset="10%" stop-color="#2E2E2E" />
				<stop offset="15%" stop-color="#414141" />
				<stop offset="20%" stop-color="#525252" />
				<stop offset="25%" stop-color="#606060" />
				<stop offset="30%" stop-color="#6C6C6C" />
				<stop offset="35%" stop-color="#747474" />
				<stop offset="40%" stop-color="#7B7B7B" />
				<stop offset="45%" stop-color="#7F7F7F" />
				<stop offset="50%" stop-color="#808080" />
				<stop offset="55%" stop-color="#7F7F7F" />
				<stop offset="60%" stop-color="#7B7B7B" />
				<stop offset="65%" stop-color="#747474" />
				<stop offset="70%" stop-color="#6C6C6C" />
				<stop offset="75%" stop-color="#606060" />
				<stop offset="80%" stop-color="#525252" />
				<stop offset="85%" stop-color="#414141" />
				<stop offset="90%" stop-color="#2E2E2E" />
				<stop offset="95%" stop-color="#181818" />
				<stop offset="100%" stop-color="#000000" />
			</linearGradient>
		</defs>
		<polygon points="41.5,171.5 61.5,171.5 61.5,51.5 41.5,51.5" fill="url(#cyl3)" stroke="#000000" stroke-width="1.0" stroke-linecap="butt" stroke-linejoin="round" />
		<defs>
			<linearGradient id="cyl4" x1="0" y1="0" x2="0" y2="1">
				<stop offset="0%" stop-color="#000000" />
				<stop offset="5%" stop-color="#121212" />
				<stop offset="10%" stop-color="#222222" />
				<stop offset="15%" stop-color="#303030" />
				<stop offset="20%" stop-color="#3D3D3D" />
				<stop offset="25%" stop-color="#474747" />
				<stop offset="30%" stop-color="#505050" />
				<stop offset="35%" stop-color="#565656" />
				<stop offset="40%" stop-color="#5B5B5B" />
				<stop offset="45%" stop-color="#5E5E5E" />
				<stop offset="50%" stop-color="#5F5F5F" />
				<stop offset="55%" stop-color="#5E5E5E" />
				<stop offset="60%" stop-color="#5B5B5B" />
				<stop offset="65%" stop-color="#565656" />
				<stop offset="70%" stop-color="#505050" />
				<stop offset="75%" stop-color="#474747" />
				<stop offset="80%" stop-color="#3D3D3D" />
				<stop offset="85%" stop-color="#303030" />
				<stop offset="90%" stop-color="#222222" />
				<stop offset="95%" stop-color="#121212" />
				<stop offset="100%" stop-color="#000000" />
			</linearGradient>
		</defs>
		<polygon points="181.5,121.5 201.5,121.5 201.5,101.5 181.5,101.5" fill="url(#cyl4)" stroke="#000000" stroke-width="1.0" stroke-linecap="butt" stroke-linejoin="round" />
		<polygon points="61.5,61.5 141.5,61.5 141.5,41.5 61.5,41.5" fill="#5F5F5F" stroke="#5F5F5F" stroke-width="1.0" stroke-linecap="butt" stroke-linejoin="round" />
		<polygon points="51.5,201.5 61.5,201.5 91.5,131.5 141.5,131.5 171.5,201.5 181.5,201.5 181.5,211.5 51.5,211.5" fill="#000000" stroke="#000000" stroke-width="1.0" stroke-linecap="butt" stroke-linejoin="round" />
		<polygon points="181.5,231.5 221.5,231.5 221.5,191.5 181.5,191.5" fill="#C0C0C0" stroke="#C0C0C0" stroke-width="1.0" stroke-linecap="butt" stroke-linejoin="round" />
		<polyline points="51.5,11.5 81.5,11.5 81.5,41.5" fill-opacity="0" stroke="#0000FF" stroke-width="1.0" stroke-linecap="butt" stroke-linejoin="round" />
		<polyline points="151.5,11.5 121.5,11.5 121.5,41.5" fill-opacity="0" stroke="#0000FF" stroke-width="1.0" stroke-linecap="butt" stroke-linejoin="round" />
		<polyline points="181.5,211.5 221.5,211.5" fill-opacity="0" stroke="#000000" stroke-width="1.0" stroke-linecap="butt" stroke-linejoin="round" />
		<polyline points="191.5,211.5 181.5,231.5" fill-opacity="0" stroke="#000000" stroke-width="1.0" stroke-linecap="butt" stroke-linejoin="round" />
		<polyline points="201.5,211.5 191.5,231.5" fill-opacity="0" stroke="#000000" stroke-width="1.0" stroke-linecap="butt" stroke-linejoin="round" />
		<polyline points="211.5,211.5 201.5,231.5" fill-opacity="0" stroke="#000000" stroke-width="1.0" stroke-linecap="butt" stroke-linejoin="round" />
		<polyline points="221.5,211.5 211.5,231.5" fill-opacity="0" stroke="#000000" stroke-width="1.0" stroke-linecap="butt" stroke-linejoin="round" />
		<g id="flange" class="port">
			<polygon points="211.5,111.5 211.5,110.6 211.4,109.8 211.2,108.9 210.9,108.1 210.6,107.3 210.2,106.6 209.7,105.8 209.2,105.1 208.6,104.5 208.0,103.9 207.3,103.4 206.6,102.9 205.9,102.5 205.1,102.2 204.3,101.9 203.4,101.7 202.6,101.6 201.7,101.5 200.9,101.5 200.0,101.6 199.2,101.8 198.3,102.0 197.5,102.3 196.8,102.7 196.0,103.1 195.3,103.6 194.7,104.2 194.1,104.8 193.5,105.5 193.0,106.2 192.6,106.9 192.2,107.7 192.0,108.5 191.7,109.4 191.6,110.2 191.5,111.1 191.5,111.9 191.6,112.8 191.7,113.6 192.0,114.5 192.2,115.3 192.6,116.1 193.0,116.8 193.5,117.5 194.1,118.2 194.7,118.8 195.3,119.4 196.0,119.9 196.8,120.3 197.5,120.7 198.3,121.0 199.2,121.2 200.0,121.4 200.9,121.5 201.7,121.5 202.6,121.4 203.4,121.3 204.3,121.1 205.1,120.8 205.9,120.5 206.6,120.1 207.3,119.6 208.0,119.1 208.6,118.5 209.2,117.9 209.7,117.2 210.2,116.4 210.6,115.7 210.9,114.9 211.2,114.1 211.4,113.2 211.5,112.4" fill="#5F5F5F" stroke="#000000" stroke-width="1.0" stroke-linecap="butt" stroke-linejoin="round" />
		</g>
		<g id="support" class="port">
			<polygon points="211.5,211.5 211.5,210.6 211.4,209.8 211.2,208.9 210.9,208.1 210.6,207.3 210.2,206.6 209.7,205.8 209.2,205.1 208.6,204.5 208.0,203.9 207.3,203.4 206.6,202.9 205.9,202.5 205.1,202.2 204.3,201.9 203.4,201.7 202.6,201.6 201.7,201.5 200.9,201.5 200.0,201.6 199.2,201.8 198.3,202.0 197.5,202.3 196.8,202.7 196.0,203.1 195.3,203.6 194.7,204.2 194.1,204.8 193.5,205.5 193.0,206.2 192.6,206.9 192.2,207.7 192.0,208.5 191.7,209.4 191.6,210.2 191.5,211.1 191.5,211.9 191.6,212.8 191.7,213.6 192.0,214.5 192.2,215.3 192.6,216.1 193.0,216.8 193.5,217.5 194.1,218.2 194.7,218.8 195.3,219.4 196.0,219.9 196.8,220.3 197.5,220.7 198.3,221.0 199.2,221.2 200.0,221.4 200.9,221.5 201.7,221.5 202.6,221.4 203.4,221.3 204.3,221.1 205.1,220.8 205.9,220.5 206.6,220.1 207.3,219.6 208.0,219.1 208.6,218.5 209.2,217.9 209.7,217.2 210.2,216.4 210.6,215.7 210.9,214.9 211.2,214.1 211.4,213.2 211.5,212.4" fill="#5F5F5F" stroke="#000000" stroke-width="1.0" stroke-linecap="butt" stroke-linejoin="round" />
		</g>
		<g id="plug_sp" class="port">
			<polygon points="171.5,11.5 171.5,10.6 171.4,9.8 171.2,8.9 170.9,8.1 170.6,7.3 170.2,6.6 169.7,5.8 169.2,5.1 168.6,4.5 168.0,3.9 167.3,3.4 166.6,2.9 165.9,2.5 165.1,2.2 164.3,1.9 163.4,1.7 162.6,1.6 161.7,1.5 160.9,1.5 160.0,1.6 159.2,1.8 158.3,2.0 157.5,2.3 156.8,2.7 156.0,3.1 155.3,3.6 154.7,4.2 154.1,4.8 153.5,5.5 153.0,6.2 152.6,6.9 152.2,7.7 152.0,8.5 151.7,9.4 151.6,10.2 151.5,11.1 151.5,11.9 151.6,12.8 151.7,13.6 152.0,14.5 152.2,15.3 152.6,16.1 153.0,16.8 153.5,17.5 154.1,18.2 154.7,18.8 155.3,19.4 156.0,19.9 156.8,20.3 157.5,20.7 158.3,21.0 159.2,21.2 160.0,21.4 160.9,21.5 161.7,21.5 162.6,21.4 163.4,21.3 164.3,21.1 165.1,20.8 165.9,20.5 166.6,20.1 167.3,19.6 168.0,19.1 168.6,18.5 169.2,17.9 169.7,17.2 170.2,16.4 170.6,15.7 170.9,14.9 171.2,14.1 171.4,13.2 171.5,12.4" fill="#0000FF" stroke="#0000FF" stroke-width="1.0" stroke-linecap="butt" stroke-linejoin="round" />
		</g>
		<g id="plug_sn" class="port">
			<polygon points="51.5,11.5 51.5,10.6 51.4,9.8 51.2,8.9 50.9,8.1 50.6,7.3 50.2,6.6 49.7,5.8 49.2,5.1 48.6,4.5 48.0,3.9 47.3,3.4 46.6,2.9 45.9,2.5 45.1,2.2 44.3,1.9 43.4,1.7 42.6,1.6 41.7,1.5 40.9,1.5 40.0,1.6 39.2,1.8 38.3,2.0 37.5,2.3 36.8,2.7 36.0,3.1 35.3,3.6 34.7,4.2 34.1,4.8 33.5,5.5 33.0,6.2 32.6,6.9 32.2,7.7 32.0,8.5 31.7,9.4 31.6,10.2 31.5,11.1 31.5,11.9 31.6,12.8 31.7,13.6 32.0,14.5 32.2,15.3 32.6,16.1 33.0,16.8 33.5,17.5 34.1,18.2 34.7,18.8 35.3,19.4 36.0,19.9 36.8,20.3 37.5,20.7 38.3,21.0 39.2,21.2 40.0,21.4 40.9,21.5 41.7,21.5 42.6,21.4 43.4,21.3 44.3,21.1 45.1,20.8 45.9,20.5 46.6,20.1 47.3,19.6 48.0,19.1 48.6,18.5 49.2,17.9 49.7,17.2 50.2,16.4 50.6,15.7 50.9,14.9 51.2,14.1 51.4,13.2 51.5,12.4" fill="#FFFFFF" stroke="#0000FF" stroke-width="1.0" stroke-linecap="butt" stroke-linejoin="round" />
		</g>
		<g id="thermalPort" class="port">
			<polygon points="90.5,222.5 112.5,222.5 112.5,200.5 90.5,200.5" fill="#5F5F5F" stroke="#BF0000" stroke-width="1.0" stroke-linecap="butt" stroke-linejoin="round" />
			<polygon points="109.5,211.5 109.5,210.8 109.4,210.1 109.2,209.5 109.0,208.8 108.8,208.2 108.5,207.5 108.1,207.0 107.7,206.4 107.2,205.9 106.7,205.4 106.2,205.0 105.6,204.6 105.0,204.3 104.4,204.0 103.7,203.8 103.0,203.6 102.4,203.5 101.7,203.5 101.0,203.5 100.3,203.6 99.6,203.7 99.0,203.9 98.3,204.2 97.7,204.5 97.1,204.8 96.6,205.2 96.0,205.7 95.5,206.2 95.1,206.7 94.7,207.3 94.4,207.9 94.1,208.5 93.9,209.1 93.7,209.8 93.6,210.5 93.5,211.2 93.5,211.8 93.6,212.5 93.7,213.2 93.9,213.9 94.1,214.5 94.4,215.1 94.7,215.7 95.1,216.3 95.5,216.8 96.0,217.3 96.6,217.8 97.1,218.2 97.7,218.5 98.3,218.8 99.0,219.1 99.6,219.3 100.3,219.4 101.0,219.5 101.7,219.5 102.4,219.5 103.0,219.3 103.7,219.2 104.4,219.0 105.0,218.7 105.6,218.4 106.2,218.0 106.7,217.6 107.2,217.1 107.7,216.6 108.1,216.0 108.5,215.4 108.8,214.8 109.0,214.2 109.2,213.5 109.4,212.9 109.5,212.2" fill="#BF0000" stroke="#BF0000" stroke-width="1.0" stroke-linecap="butt" stroke-linejoin="round" />
		</g>
		<g id="internalThermalPort" class="port">
			<polygon points="57.1,205.9 65.9,205.9 65.9,197.1 57.1,197.1" fill="#5F5F5F" stroke="#BF0000" stroke-width="1.0" stroke-linecap="butt" stroke-linejoin="round" />
			<polygon points="64.7,201.5 64.7,201.2 64.7,200.9 64.6,200.7 64.5,200.4 64.4,200.2 64.3,199.9 64.1,199.7 64.0,199.5 63.8,199.3 63.6,199.1 63.4,198.9 63.1,198.7 62.9,198.6 62.6,198.5 62.4,198.4 62.1,198.4 61.8,198.3 61.6,198.3 61.3,198.3 61.0,198.3 60.7,198.4 60.5,198.5 60.2,198.6 60.0,198.7 59.7,198.8 59.5,199.0 59.3,199.2 59.1,199.4 58.9,199.6 58.8,199.8 58.7,200.0 58.5,200.3 58.4,200.5 58.4,200.8 58.3,201.1 58.3,201.4 58.3,201.6 58.3,201.9 58.4,202.2 58.4,202.4 58.5,202.7 58.7,203.0 58.8,203.2 58.9,203.4 59.1,203.6 59.3,203.8 59.5,204.0 59.7,204.2 60.0,204.3 60.2,204.4 60.5,204.5 60.7,204.6 61.0,204.7 61.3,204.7 61.6,204.7 61.8,204.7 62.1,204.6 62.4,204.6 62.6,204.5 62.9,204.4 63.1,204.2 63.4,204.1 63.6,203.9 63.8,203.7 64.0,203.5 64.1,203.3 64.3,203.1 64.4,202.8 64.5,202.6 64.6,202.3 64.7,202.0 64.7,201.8" fill="#BF0000" stroke="#BF0000" stroke-width="1.0" stroke-linecap="butt" stroke-linejoin="round" />
		</g>
		<g id="internalSupport" class="port">
			<polygon points="165.5,211.5 165.5,211.2 165.4,210.8 165.4,210.5 165.3,210.1 165.1,209.8 165.0,209.5 164.8,209.2 164.6,209.0 164.4,208.7 164.1,208.5 163.8,208.3 163.5,208.1 163.2,207.9 162.9,207.8 162.6,207.7 162.3,207.6 161.9,207.5 161.6,207.5 161.2,207.5 160.9,207.5 160.6,207.6 160.2,207.7 159.9,207.8 159.6,208.0 159.3,208.2 159.0,208.4 158.8,208.6 158.5,208.8 158.3,209.1 158.1,209.4 157.9,209.7 157.8,210.0 157.7,210.3 157.6,210.6 157.5,211.0 157.5,211.3 157.5,211.7 157.5,212.0 157.6,212.4 157.7,212.7 157.8,213.0 157.9,213.3 158.1,213.6 158.3,213.9 158.5,214.2 158.8,214.4 159.0,214.6 159.3,214.8 159.6,215.0 159.9,215.2 160.2,215.3 160.6,215.4 160.9,215.5 161.2,215.5 161.6,215.5 161.9,215.5 162.3,215.4 162.6,215.3 162.9,215.2 163.2,215.1 163.5,214.9 163.8,214.7 164.1,214.5 164.4,214.3 164.6,214.0 164.8,213.8 165.0,213.5 165.1,213.2 165.3,212.8 165.4,212.5 165.4,212.2 165.5,211.8" fill="#5F5F5F" stroke="#000000" stroke-width="1.0" stroke-linecap="butt" stroke-linejoin="round" />
			<polygon points="155.5,217.5 167.5,217.5 167.5,205.5 155.5,205.5" fill="#C0C0C0" stroke="#C0C0C0" stroke-width="1.0" stroke-linecap="butt" stroke-linejoin="round" />
			<polygon points="165.5,211.5 165.5,211.2 165.4,210.8 165.4,210.5 165.3,210.1 165.1,209.8 165.0,209.5 164.8,209.2 164.6,209.0 164.4,208.7 164.1,208.5 163.8,208.3 163.5,208.1 163.2,207.9 162.9,207.8 162.6,207.7 162.3,207.6 161.9,207.5 161.6,207.5 161.2,207.5 160.9,207.5 160.6,207.6 160.2,207.7 159.9,207.8 159.6,208.0 159.3,208.2 159.0,208.4 158.8,208.6 158.5,208.8 158.3,209.1 158.1,209.4 157.9,209.7 157.8,210.0 157.7,210.3 157.6,210.6 157.5,211.0 157.5,211.3 157.5,211.7 157.5,212.0 157.6,212.4 157.7,212.7 157.8,213.0 157.9,213.3 158.1,213.6 158.3,213.9 158.5,214.2 158.8,214.4 159.0,214.6 159.3,214.8 159.6,215.0 159.9,215.2 160.2,215.3 160.6,215.4 160.9,215.5 161.2,215.5 161.6,215.5 161.9,215.5 162.3,215.4 162.6,215.3 162.9,215.2 163.2,215.1 163.5,214.9 163.8,214.7 164.1,214.5 164.4,214.3 164.6,214.0 164.8,213.8 165.0,213.5 165.1,213.2 165.3,212.8 165.4,212.5 165.4,212.2 165.5,211.8" fill="#5F5F5F" stroke="#000000" stroke-width="1.0" stroke-linecap="butt" stroke-linejoin="round" />
		</g>
	</g>
</svg>
