<svg width="263" height="203" xmlns="http://www.w3.org/2000/svg" xmlns:xlink="http://www.w3.org/1999/xlink">
	<g id="Modelica.Blocks.Math.Cos" class="component">
		<polygon points="41.5,201.5 241.5,201.5 241.5,1.5 41.5,1.5" fill="#FFFFFF" stroke="#00007F" stroke-width="1.0" stroke-linecap="butt" stroke-linejoin="round" />
		<polygon points="61.5,11.5 53.5,33.5 69.5,33.5" fill="#C0C0C0" stroke="#C0C0C0" stroke-width="1.0" stroke-linecap="butt" stroke-linejoin="round" />
		<polyline points="61.5,181.5 61.5,33.5" fill-opacity="0" stroke="#C0C0C0" stroke-width="1.0" stroke-linecap="butt" stroke-linejoin="round" />
		<polyline points="51.5,101.5 209.5,101.5" fill-opacity="0" stroke="#C0C0C0" stroke-width="1.0" stroke-linecap="butt" stroke-linejoin="round" />
		<polygon points="231.5,101.5 209.5,93.5 209.5,109.5" fill="#C0C0C0" stroke="#C0C0C0" stroke-width="1.0" stroke-linecap="butt" stroke-linejoin="round" />
		<polyline points="61.5,21.5 64.3,22.4 66.2,23.3 68.1,24.6 70.0,26.3 70.0,26.3 71.4,27.9 72.8,29.6 74.2,31.6 75.6,33.8 75.6,33.8 76.7,35.8 77.9,38.0 79.1,40.3 80.3,42.9 81.6,45.6 81.6,45.6 83.3,49.5 85.0,53.8 86.9,58.6 88.8,63.8 88.8,63.8 92.2,73.3 96.7,86.8 102.6,104.4 102.6,104.4 108.3,121.9 112.7,135.0 115.8,143.6 115.8,143.6 117.6,148.2 119.3,152.5 121.0,156.4 122.6,160.0 122.6,160.0 123.9,162.6 125.1,165.0 126.3,167.2 127.5,169.2 128.6,171.0 128.6,171.0 130.0,173.1 131.4,174.9 132.8,176.4 134.2,177.8 134.2,177.8 136.1,179.2 138.0,180.3 139.9,180.8 139.9,180.8 141.8,181.0 143.6,180.7 145.5,180.0 145.5,180.0 146.9,179.2 148.3,178.1 149.7,176.9 151.2,175.4 151.2,175.4 152.6,173.6 154.0,171.7 155.4,169.5 156.8,167.1 156.8,167.1 158.2,164.4 159.7,161.5 161.2,158.2 162.8,154.6 162.8,154.6 165.0,149.2 167.4,143.0 170.0,135.8 170.0,135.8 173.3,126.5 177.6,113.7 183.0,97.4 183.0,97.4 188.3,81.2 192.4,68.9 195.4,60.5 195.4,60.5 197.2,55.8 198.9,51.5 200.6,47.5 202.2,43.8 202.2,43.8 203.5,41.2 204.7,38.7 205.9,36.4 207.1,34.4 208.2,32.5 208.2,32.5 209.6,30.4 211.0,28.6 212.4,26.9 213.8,25.5 213.8,25.5 215.7,24.0 217.4,22.9 219.1,22.2 221.5,21.5" fill-opacity="0" stroke="#000000" stroke-width="1.0" stroke-linecap="butt" stroke-linejoin="round" />
		<text x="141.5" y="61.8" text-anchor="middle" fill="#C0C0C0" font-size="50.5px" font-family="sans-serif">cos</text>
		<g id="u" class="port">
			<polygon points="1.5,81.5 41.5,101.5 1.5,121.5" fill="#00007F" stroke="#00007F" stroke-width="1.0" stroke-linecap="butt" stroke-linejoin="round" />
		</g>
		<g id="y" class="port">
			<polygon points="241.5,91.5 261.5,101.5 241.5,111.5" fill="#FFFFFF" stroke="#00007F" stroke-width="1.0" stroke-linecap="butt" stroke-linejoin="round" />
		</g>
	</g>
</svg>
