<svg width="203" height="203" xmlns="http://www.w3.org/2000/svg" xmlns:xlink="http://www.w3.org/1999/xlink">
	<g id="Modelica.Mechanics.Rotational.Components.Fixed" class="component">
		<polyline points="21.5,141.5 181.5,141.5" fill-opacity="0" stroke="#000000" stroke-width="1.0" stroke-linecap="butt" stroke-linejoin="round" />
		<polyline points="181.5,141.5 141.5,181.5" fill-opacity="0" stroke="#000000" stroke-width="1.0" stroke-linecap="butt" stroke-linejoin="round" />
		<polyline points="141.5,141.5 101.5,181.5" fill-opacity="0" stroke="#000000" stroke-width="1.0" stroke-linecap="butt" stroke-linejoin="round" />
		<polyline points="101.5,141.5 61.5,181.5" fill-opacity="0" stroke="#000000" stroke-width="1.0" stroke-linecap="butt" stroke-linejoin="round" />
		<polyline points="61.5,141.5 21.5,181.5" fill-opacity="0" stroke="#000000" stroke-width="1.0" stroke-linecap="butt" stroke-linejoin="round" />
		<polyline points="101.5,141.5 101.5,111.5" fill-opacity="0" stroke="#000000" stroke-width="1.0" stroke-linecap="butt" stroke-linejoin="round" />
		<g id="flange" class="port">
			<polygon points="91.5,101.5 91.5,100.6 91.6,99.8 91.8,98.9 92.1,98.1 92.4,97.3 92.8,96.6 93.3,95.8 93.8,95.1 94.4,94.5 95.0,93.9 95.7,93.4 96.4,92.9 97.1,92.5 97.9,92.2 98.7,91.9 99.6,91.7 100.4,91.6 101.3,91.5 102.1,91.5 103.0,91.6 103.8,91.8 104.7,92.0 105.5,92.3 106.2,92.7 107.0,93.1 107.7,93.6 108.3,94.2 108.9,94.8 109.5,95.5 110.0,96.2 110.4,96.9 110.8,97.7 111.0,98.5 111.3,99.4 111.4,100.2 111.5,101.1 111.5,101.9 111.4,102.8 111.3,103.6 111.0,104.5 110.8,105.3 110.4,106.1 110.0,106.8 109.5,107.5 108.9,108.2 108.3,108.8 107.7,109.4 107.0,109.9 106.2,110.3 105.5,110.7 104.7,111.0 103.8,111.2 103.0,111.4 102.1,111.5 101.3,111.5 100.4,111.4 99.6,111.3 98.7,111.1 97.9,110.8 97.1,110.5 96.4,110.1 95.7,109.6 95.0,109.1 94.4,108.5 93.8,107.9 93.3,107.2 92.8,106.4 92.4,105.7 92.1,104.9 91.8,104.1 91.6,103.2 91.5,102.4" fill="#FFFFFF" stroke="#000000" stroke-width="1.0" stroke-linecap="butt" stroke-linejoin="round" />
		</g>
	</g>
</svg>
