<svg width="233" height="243" xmlns="http://www.w3.org/2000/svg" xmlns:xlink="http://www.w3.org/1999/xlink">
	<g id="Modelica.Electrical.PowerConverters.ACDC.HalfControlledBridge2Pulse" class="component">
		<polygon points="11.5,201.5 211.5,201.5 211.5,1.5 11.5,1.5" fill="#FFFFFF" stroke="#00007F" stroke-width="1.0" stroke-linecap="butt" stroke-linejoin="round" />
		<polyline points="11.5,201.5 211.5,1.5" fill-opacity="0" stroke="#00007F" stroke-width="1.0" stroke-linecap="butt" stroke-linejoin="round" />
		<text x="61.5" y="51.4" text-anchor="middle" fill="#00007F" font-size="26.6px" font-family="sans-serif">AC</text>
		<text x="161.5" y="171.4" text-anchor="middle" fill="#00007F" font-size="26.6px" font-family="sans-serif">DC</text>
		<polygon points="67.5,99.5 147.5,99.5 147.5,51.5 67.5,51.5" fill="#FFFFFF" stroke="#FFFFFF" stroke-width="1.0" stroke-linecap="butt" stroke-linejoin="round" />
		<polyline points="67.5,75.5 147.5,75.5" fill-opacity="0" stroke="#0000FF" stroke-width="1.0" stroke-linecap="butt" stroke-linejoin="round" />
		<polyline points="127.5,51.5 127.5,99.5" fill-opacity="0" stroke="#0000FF" stroke-width="1.0" stroke-linecap="butt" stroke-linejoin="round" />
		<polygon points="127.5,75.5 87.5,51.5 87.5,99.5" fill-opacity="0" stroke="#0000FF" stroke-width="1.0" stroke-linecap="butt" stroke-linejoin="round" />
		<polygon points="67.5,155.5 147.5,155.5 147.5,99.5 67.5,99.5" fill="#FFFFFF" stroke="#FFFFFF" stroke-width="1.0" stroke-linecap="butt" stroke-linejoin="round" />
		<polyline points="67.5,131.5 147.5,131.5" fill-opacity="0" stroke="#0000FF" stroke-width="1.0" stroke-linecap="butt" stroke-linejoin="round" />
		<polyline points="127.5,107.5 127.5,155.5" fill-opacity="0" stroke="#0000FF" stroke-width="1.0" stroke-linecap="butt" stroke-linejoin="round" />
		<polygon points="127.5,131.5 87.5,107.5 87.5,155.5" fill-opacity="0" stroke="#0000FF" stroke-width="1.0" stroke-linecap="butt" stroke-linejoin="round" />
		<polyline points="107.5,119.5 107.5,103.5" fill-opacity="0" stroke="#0000FF" stroke-width="1.0" stroke-linecap="butt" stroke-linejoin="round" />
		<g id="ac_p" class="port">
			<polygon points="1.5,51.5 21.5,51.5 21.5,31.5 1.5,31.5" fill="#0000FF" stroke="#0000FF" stroke-width="1.0" stroke-linecap="butt" stroke-linejoin="round" />
		</g>
		<g id="ac_n" class="port">
			<polygon points="1.5,171.5 21.5,171.5 21.5,151.5 1.5,151.5" fill="#FFFFFF" stroke="#0000FF" stroke-width="1.0" stroke-linecap="butt" stroke-linejoin="round" />
		</g>
		<g id="dc_p" class="port">
			<polygon points="201.5,51.5 221.5,51.5 221.5,31.5 201.5,31.5" fill="#0000FF" stroke="#0000FF" stroke-width="1.0" stroke-linecap="butt" stroke-linejoin="round" />
		</g>
		<g id="dc_n" class="port">
			<polygon points="201.5,171.5 221.5,171.5 221.5,151.5 201.5,151.5" fill="#FFFFFF" stroke="#0000FF" stroke-width="1.0" stroke-linecap="butt" stroke-linejoin="round" />
		</g>
		<g id="heatPort" class="port">
			<polygon points="101.5,211.5 121.5,211.5 121.5,191.5 101.5,191.5" fill="#BF0000" stroke="#BF0000" stroke-width="1.0" stroke-linecap="butt" stroke-linejoin="round" />
		</g>
		<g id="enable" class="port">
			<polygon points="191.5,241.5 211.5,201.5 231.5,241.5" fill="#FF00FF" stroke="#FF00FF" stroke-width="1.0" stroke-linecap="butt" stroke-linejoin="round" />
		</g>
		<g id="fire_p" class="port">
			<polygon points="31.5,241.5 51.5,201.5 71.5,241.5" fill="#FF00FF" stroke="#FF00FF" stroke-width="1.0" stroke-linecap="butt" stroke-linejoin="round" />
		</g>
		<g id="fire_n" class="port">
			<polygon points="151.5,241.5 171.5,201.5 191.5,241.5" fill="#FF00FF" stroke="#FF00FF" stroke-width="1.0" stroke-linecap="butt" stroke-linejoin="round" />
		</g>
	</g>
</svg>
