<svg width="223" height="203" xmlns="http://www.w3.org/2000/svg" xmlns:xlink="http://www.w3.org/1999/xlink">
	<g id="Modelica.Electrical.Analog.Basic.SaturatingInductor" class="component">
		<polyline points="171.5,101.5 201.5,101.5" fill-opacity="0" stroke="#0000FF" stroke-width="1.0" stroke-linecap="butt" stroke-linejoin="round" />
		<polyline points="21.5,101.5 51.5,101.5" fill-opacity="0" stroke="#0000FF" stroke-width="1.0" stroke-linecap="butt" stroke-linejoin="round" />
		<defs>
			<radialGradient id="sph4">
				<stop offset="0%" stop-color="#0000FF" />
				<stop offset="10%" stop-color="#0000FC" />
				<stop offset="20%" stop-color="#0000F5" />
				<stop offset="30%" stop-color="#0000E8" />
				<stop offset="40%" stop-color="#0000D6" />
				<stop offset="50%" stop-color="#0000BF" />
				<stop offset="60%" stop-color="#0000A3" />
				<stop offset="70%" stop-color="#000082" />
				<stop offset="80%" stop-color="#00005C" />
				<stop offset="90%" stop-color="#000030" />
				<stop offset="100%" stop-color="#000000" />
			</radialGradient>
		</defs>
		<polygon points="51.5,121.5 171.5,121.5 171.5,111.5 51.5,111.5" fill="url(#sph4)" stroke="#000000" stroke-width="1.0" stroke-linecap="butt" stroke-linejoin="round" />
		<polyline points="51.5,101.5 52.0,98.5 52.4,96.9 53.2,95.2 54.4,93.4 56.0,91.5 56.0,91.5 57.5,90.1 59.4,88.9 61.5,88.1 63.8,87.7 66.5,87.5 66.5,87.5 69.2,87.7 71.5,88.1 73.6,88.9 75.5,90.1 77.0,91.5 77.0,91.5 78.6,93.4 79.8,95.2 80.6,96.9 81.0,98.5 81.5,101.5" fill-opacity="0" stroke="#0000FF" stroke-width="1.0" stroke-linecap="butt" stroke-linejoin="round" />
		<polyline points="81.5,101.5 82.0,98.5 82.4,96.9 83.2,95.2 84.4,93.4 86.0,91.5 86.0,91.5 87.5,90.1 89.4,88.9 91.5,88.1 93.8,87.7 96.5,87.5 96.5,87.5 99.2,87.7 101.5,88.1 103.6,88.9 105.5,90.1 107.0,91.5 107.0,91.5 108.6,93.4 109.8,95.2 110.6,96.9 111.0,98.5 111.5,101.5" fill-opacity="0" stroke="#0000FF" stroke-width="1.0" stroke-linecap="butt" stroke-linejoin="round" />
		<polyline points="111.5,101.5 112.0,98.5 112.4,96.9 113.2,95.2 114.4,93.4 116.0,91.5 116.0,91.5 117.5,90.1 119.4,88.9 121.5,88.1 123.8,87.7 126.5,87.5 126.5,87.5 129.2,87.7 131.5,88.1 133.6,88.9 135.5,90.1 137.0,91.5 137.0,91.5 138.6,93.4 139.8,95.2 140.6,96.9 141.0,98.5 141.5,101.5" fill-opacity="0" stroke="#0000FF" stroke-width="1.0" stroke-linecap="butt" stroke-linejoin="round" />
		<polyline points="141.5,101.5 142.0,98.5 142.4,96.9 143.2,95.2 144.4,93.4 146.0,91.5 146.0,91.5 147.5,90.1 149.4,88.9 151.5,88.1 153.8,87.7 156.5,87.5 156.5,87.5 159.2,87.7 161.5,88.1 163.6,88.9 165.5,90.1 167.0,91.5 167.0,91.5 168.6,93.4 169.8,95.2 170.6,96.9 171.0,98.5 171.5,101.5" fill-opacity="0" stroke="#0000FF" stroke-width="1.0" stroke-linecap="butt" stroke-linejoin="round" />
		<g id="p" class="port">
			<polygon points="1.5,111.5 21.5,111.5 21.5,91.5 1.5,91.5" fill="#0000FF" stroke="#0000FF" stroke-width="1.0" stroke-linecap="butt" stroke-linejoin="round" />
		</g>
		<g id="n" class="port">
			<polygon points="221.5,111.5 201.5,111.5 201.5,91.5 221.5,91.5" fill="#FFFFFF" stroke="#0000FF" stroke-width="1.0" stroke-linecap="butt" stroke-linejoin="round" />
		</g>
	</g>
</svg>
