<svg width="223" height="223" xmlns="http://www.w3.org/2000/svg" xmlns:xlink="http://www.w3.org/1999/xlink">
	<g id="Modelica.Fluid.Machines.PrescribedPump" class="component">
		<defs>
			<linearGradient id="cyl2" x1="0" y1="0" x2="0" y2="1">
				<stop offset="0%" stop-color="#000000" />
				<stop offset="5%" stop-color="#001830" />
				<stop offset="10%" stop-color="#002E5C" />
				<stop offset="15%" stop-color="#004182" />
				<stop offset="20%" stop-color="#0051A3" />
				<stop offset="25%" stop-color="#005FBF" />
				<stop offset="30%" stop-color="#006BD6" />
				<stop offset="35%" stop-color="#0074E8" />
				<stop offset="40%" stop-color="#007AF5" />
				<stop offset="45%" stop-color="#007EFC" />
				<stop offset="50%" stop-color="#007FFF" />
				<stop offset="55%" stop-color="#007EFC" />
				<stop offset="60%" stop-color="#007AF5" />
				<stop offset="65%" stop-color="#0074E8" />
				<stop offset="70%" stop-color="#006BD6" />
				<stop offset="75%" stop-color="#005FBF" />
				<stop offset="80%" stop-color="#0051A3" />
				<stop offset="85%" stop-color="#004182" />
				<stop offset="90%" stop-color="#002E5C" />
				<stop offset="95%" stop-color="#001830" />
				<stop offset="100%" stop-color="#000000" />
			</linearGradient>
		</defs>
		<polygon points="11.5,167.5 211.5,167.5 211.5,75.5 11.5,75.5" fill="url(#cyl2)" stroke="#000000" stroke-width="1.0" stroke-linecap="round" stroke-linejoin="round" />
		<defs>
			<linearGradient id="cyl3" x1="0" y1="0" x2="1" y2="0">
				<stop offset="0%" stop-color="#0000FF" />
				<stop offset="5%" stop-color="#0000CF" />
				<stop offset="10%" stop-color="#0000A3" />
				<stop offset="15%" stop-color="#00007D" />
				<stop offset="20%" stop-color="#00005C" />
				<stop offset="25%" stop-color="#000040" />
				<stop offset="30%" stop-color="#000029" />
				<stop offset="35%" stop-color="#000017" />
				<stop offset="40%" stop-color="#00000A" />
				<stop offset="45%" stop-color="#000003" />
				<stop offset="50%" stop-color="#000000" />
				<stop offset="55%" stop-color="#000003" />
				<stop offset="60%" stop-color="#00000A" />
				<stop offset="65%" stop-color="#000017" />
				<stop offset="70%" stop-color="#000029" />
				<stop offset="75%" stop-color="#000040" />
				<stop offset="80%" stop-color="#00005C" />
				<stop offset="85%" stop-color="#00007D" />
				<stop offset="90%" stop-color="#0000A3" />
				<stop offset="95%" stop-color="#0000CF" />
				<stop offset="100%" stop-color="#0000FF" />
			</linearGradient>
		</defs>
		<polygon points="63.5,181.5 39.5,221.5 183.5,221.5 159.5,181.5" fill="url(#cyl3)" stroke-opacity="0" stroke-width="1.0" stroke-linecap="round" stroke-linejoin="round" />
		<defs>
			<radialGradient id="sph4">
				<stop offset="0%" stop-color="#0064C7" />
				<stop offset="10%" stop-color="#0063C5" />
				<stop offset="20%" stop-color="#0060BF" />
				<stop offset="30%" stop-color="#005BB5" />
				<stop offset="40%" stop-color="#0054A7" />
				<stop offset="50%" stop-color="#004B95" />
				<stop offset="60%" stop-color="#00407F" />
				<stop offset="70%" stop-color="#003365" />
				<stop offset="80%" stop-color="#002448" />
				<stop offset="90%" stop-color="#001326" />
				<stop offset="100%" stop-color="#000000" />
			</radialGradient>
		</defs>
		<polygon points="191.5,121.5 191.2,114.6 190.3,107.8 188.8,101.1 186.8,94.5 184.2,88.1 181.1,82.0 177.4,76.2 173.3,70.7 168.7,65.5 163.6,60.8 158.2,56.6 152.5,52.8 146.4,49.5 140.1,46.8 133.6,44.6 126.9,43.0 120.1,42.0 113.2,41.5 106.3,41.7 99.5,42.4 92.7,43.7 86.1,45.6 79.7,48.1 73.5,51.1 67.6,54.6 62.0,58.6 56.8,63.1 52.0,68.1 47.6,73.4 43.7,79.0 40.3,85.0 37.4,91.3 35.1,97.8 33.3,104.4 32.2,111.2 31.6,118.1 31.6,124.9 32.2,131.8 33.3,138.6 35.1,145.2 37.4,151.7 40.3,158.0 43.7,164.0 47.6,169.6 52.0,174.9 56.8,179.9 62.0,184.4 67.6,188.4 73.5,191.9 79.7,194.9 86.1,197.4 92.7,199.3 99.5,200.6 106.3,201.3 113.2,201.5 120.1,201.0 126.9,200.0 133.6,198.4 140.1,196.2 146.4,193.5 152.5,190.2 158.2,186.4 163.6,182.2 168.7,177.5 173.3,172.3 177.4,166.8 181.1,161.0 184.2,154.9 186.8,148.5 188.8,141.9 190.3,135.2 191.2,128.4" fill="url(#sph4)" stroke="#000000" stroke-width="1.0" stroke-linecap="round" stroke-linejoin="round" />
		<defs>
			<linearGradient id="cyl5" x1="0" y1="0" x2="0" y2="1">
				<stop offset="0%" stop-color="#000000" />
				<stop offset="5%" stop-color="#303030" />
				<stop offset="10%" stop-color="#5C5C5C" />
				<stop offset="15%" stop-color="#828282" />
				<stop offset="20%" stop-color="#A3A3A3" />
				<stop offset="25%" stop-color="#BFBFBF" />
				<stop offset="30%" stop-color="#D6D6D6" />
				<stop offset="35%" stop-color="#E8E8E8" />
				<stop offset="40%" stop-color="#F5F5F5" />
				<stop offset="45%" stop-color="#FCFCFC" />
				<stop offset="50%" stop-color="#FFFFFF" />
				<stop offset="55%" stop-color="#FCFCFC" />
				<stop offset="60%" stop-color="#F5F5F5" />
				<stop offset="65%" stop-color="#E8E8E8" />
				<stop offset="70%" stop-color="#D6D6D6" />
				<stop offset="75%" stop-color="#BFBFBF" />
				<stop offset="80%" stop-color="#A3A3A3" />
				<stop offset="85%" stop-color="#828282" />
				<stop offset="90%" stop-color="#5C5C5C" />
				<stop offset="95%" stop-color="#303030" />
				<stop offset="100%" stop-color="#000000" />
			</linearGradient>
		</defs>
		<polygon points="83.5,91.5 83.5,151.5 161.5,123.5" fill="url(#cyl5)" stroke-opacity="0" stroke-width="1.0" stroke-linecap="round" stroke-linejoin="round" />
		<g id="port_a" class="port">
			<polygon points="21.5,121.5 21.5,120.6 21.3,119.8 21.2,118.9 20.9,118.1 20.6,117.3 20.2,116.6 19.7,115.8 19.2,115.1 18.6,114.5 18.0,113.9 17.3,113.4 16.6,112.9 15.9,112.5 15.1,112.2 14.3,111.9 13.4,111.7 12.6,111.6 11.7,111.5 10.8,111.5 10.0,111.6 9.1,111.8 8.3,112.0 7.5,112.3 6.7,112.7 6.0,113.1 5.3,113.6 4.7,114.2 4.0,114.8 3.5,115.5 3.0,116.2 2.6,116.9 2.2,117.7 1.9,118.5 1.7,119.4 1.6,120.2 1.5,121.1 1.5,121.9 1.6,122.8 1.7,123.6 1.9,124.5 2.2,125.3 2.6,126.1 3.0,126.8 3.5,127.5 4.0,128.2 4.7,128.8 5.3,129.4 6.0,129.9 6.7,130.3 7.5,130.7 8.3,131.0 9.1,131.2 10.0,131.4 10.8,131.5 11.7,131.5 12.6,131.4 13.4,131.3 14.3,131.1 15.1,130.8 15.9,130.5 16.6,130.1 17.3,129.6 18.0,129.1 18.6,128.5 19.2,127.9 19.7,127.2 20.2,126.4 20.6,125.7 20.9,124.9 21.2,124.1 21.3,123.2 21.5,122.4" fill="#007FFF" stroke="#007FFF" stroke-width="1.0" stroke-linecap="round" stroke-linejoin="round" />
			<polygon points="21.5,121.5 21.5,120.6 21.3,119.8 21.2,118.9 20.9,118.1 20.6,117.3 20.2,116.6 19.7,115.8 19.2,115.1 18.6,114.5 18.0,113.9 17.3,113.4 16.6,112.9 15.9,112.5 15.1,112.2 14.3,111.9 13.4,111.7 12.6,111.6 11.7,111.5 10.8,111.5 10.0,111.6 9.1,111.8 8.3,112.0 7.5,112.3 6.7,112.7 6.0,113.1 5.3,113.6 4.7,114.2 4.0,114.8 3.5,115.5 3.0,116.2 2.6,116.9 2.2,117.7 1.9,118.5 1.7,119.4 1.6,120.2 1.5,121.1 1.5,121.9 1.6,122.8 1.7,123.6 1.9,124.5 2.2,125.3 2.6,126.1 3.0,126.8 3.5,127.5 4.0,128.2 4.7,128.8 5.3,129.4 6.0,129.9 6.7,130.3 7.5,130.7 8.3,131.0 9.1,131.2 10.0,131.4 10.8,131.5 11.7,131.5 12.6,131.4 13.4,131.3 14.3,131.1 15.1,130.8 15.9,130.5 16.6,130.1 17.3,129.6 18.0,129.1 18.6,128.5 19.2,127.9 19.7,127.2 20.2,126.4 20.6,125.7 20.9,124.9 21.2,124.1 21.3,123.2 21.5,122.4" fill="#007FFF" stroke="#000000" stroke-width="1.0" stroke-linecap="round" stroke-linejoin="round" />
		</g>
		<g id="port_b" class="port">
			<polygon points="201.5,121.5 201.5,120.6 201.6,119.8 201.8,118.9 202.1,118.1 202.4,117.3 202.8,116.6 203.3,115.8 203.8,115.1 204.3,114.5 205.0,113.9 205.6,113.4 206.4,112.9 207.1,112.5 207.9,112.2 208.7,111.9 209.6,111.7 210.4,111.6 211.3,111.5 212.1,111.5 213.0,111.6 213.8,111.8 214.7,112.0 215.5,112.3 216.2,112.7 217.0,113.1 217.7,113.6 218.3,114.2 218.9,114.8 219.5,115.5 220.0,116.2 220.4,116.9 220.7,117.7 221.0,118.5 221.3,119.4 221.4,120.2 221.5,121.1 221.5,121.9 221.4,122.8 221.3,123.6 221.0,124.5 220.7,125.3 220.4,126.1 220.0,126.8 219.5,127.5 218.9,128.2 218.3,128.8 217.7,129.4 217.0,129.9 216.2,130.3 215.5,130.7 214.7,131.0 213.8,131.2 213.0,131.4 212.1,131.5 211.3,131.5 210.4,131.4 209.6,131.3 208.7,131.1 207.9,130.8 207.1,130.5 206.4,130.1 205.6,129.6 205.0,129.1 204.3,128.5 203.8,127.9 203.3,127.2 202.8,126.4 202.4,125.7 202.1,124.9 201.8,124.1 201.6,123.2 201.5,122.4" fill="#007FFF" stroke="#007FFF" stroke-width="1.0" stroke-linecap="round" stroke-linejoin="round" />
			<polygon points="201.5,121.5 201.5,120.6 201.6,119.8 201.8,118.9 202.1,118.1 202.4,117.3 202.8,116.6 203.3,115.8 203.8,115.1 204.3,114.5 205.0,113.9 205.6,113.4 206.4,112.9 207.1,112.5 207.9,112.2 208.7,111.9 209.6,111.7 210.4,111.6 211.3,111.5 212.1,111.5 213.0,111.6 213.8,111.8 214.7,112.0 215.5,112.3 216.2,112.7 217.0,113.1 217.7,113.6 218.3,114.2 218.9,114.8 219.5,115.5 220.0,116.2 220.4,116.9 220.7,117.7 221.0,118.5 221.3,119.4 221.4,120.2 221.5,121.1 221.5,121.9 221.4,122.8 221.3,123.6 221.0,124.5 220.7,125.3 220.4,126.1 220.0,126.8 219.5,127.5 218.9,128.2 218.3,128.8 217.7,129.4 217.0,129.9 216.2,130.3 215.5,130.7 214.7,131.0 213.8,131.2 213.0,131.4 212.1,131.5 211.3,131.5 210.4,131.4 209.6,131.3 208.7,131.1 207.9,130.8 207.1,130.5 206.4,130.1 205.6,129.6 205.0,129.1 204.3,128.5 203.8,127.9 203.3,127.2 202.8,126.4 202.4,125.7 202.1,124.9 201.8,124.1 201.6,123.2 201.5,122.4" fill="#007FFF" stroke="#000000" stroke-width="1.0" stroke-linecap="round" stroke-linejoin="round" />
			<polygon points="203.5,121.5 203.5,120.8 203.6,120.1 203.8,119.5 204.0,118.8 204.2,118.2 204.5,117.5 204.9,117.0 205.3,116.4 205.8,115.9 206.3,115.4 206.8,115.0 207.4,114.6 208.0,114.3 208.6,114.0 209.3,113.8 210.0,113.6 210.6,113.5 211.3,113.5 212.0,113.5 212.7,113.6 213.4,113.7 214.0,113.9 214.7,114.2 215.3,114.5 215.9,114.8 216.4,115.2 217.0,115.7 217.4,116.2 217.9,116.7 218.3,117.3 218.6,117.9 218.9,118.5 219.1,119.1 219.3,119.8 219.4,120.5 219.5,121.2 219.5,121.8 219.4,122.5 219.3,123.2 219.1,123.9 218.9,124.5 218.6,125.1 218.3,125.7 217.9,126.3 217.4,126.8 217.0,127.3 216.4,127.8 215.9,128.2 215.3,128.5 214.7,128.8 214.0,129.1 213.4,129.3 212.7,129.4 212.0,129.5 211.3,129.5 210.6,129.5 210.0,129.4 209.3,129.2 208.6,129.0 208.0,128.7 207.4,128.4 206.8,128.0 206.3,127.6 205.8,127.1 205.3,126.6 204.9,126.0 204.5,125.5 204.2,124.8 204.0,124.2 203.8,123.5 203.6,122.9 203.5,122.2" fill="#FFFFFF" stroke="#007FFF" stroke-width="1.0" stroke-linecap="round" stroke-linejoin="round" />
		</g>
		<g id="heatPort" class="port">
			<polygon points="141.5,191.5 161.5,191.5 161.5,171.5 141.5,171.5" fill="#BF0000" stroke="#BF0000" stroke-width="1.0" stroke-linecap="round" stroke-linejoin="round" />
		</g>
		<g id="N_in" class="port">
			<polygon points="131.5,1.5 111.5,41.5 91.5,1.5" fill="#00007F" stroke="#00007F" stroke-width="1.0" stroke-linecap="round" stroke-linejoin="round" />
		</g>
	</g>
</svg>
