<svg width="203" height="203" xmlns="http://www.w3.org/2000/svg" xmlns:xlink="http://www.w3.org/1999/xlink">
	<g id="Modelica.Blocks.Tables.Internal.CombiTable2DBase" class="component">
		<polyline points="41.5,61.5 41.5,141.5 161.5,141.5 161.5,61.5 131.5,61.5 131.5,141.5 71.5,141.5 71.5,61.5 41.5,61.5 41.5,81.5 161.5,81.5 161.5,101.5 41.5,101.5 41.5,121.5 161.5,121.5 161.5,141.5 41.5,141.5 41.5,61.5 161.5,61.5 161.5,141.5" fill-opacity="0" stroke="#000000" stroke-width="1.0" stroke-linecap="butt" stroke-linejoin="round" />
		<polyline points="101.5,61.5 101.5,141.5" fill-opacity="0" stroke="#000000" stroke-width="1.0" stroke-linecap="butt" stroke-linejoin="round" />
		<polyline points="41.5,61.5 71.5,81.5" fill-opacity="0" stroke="#000000" stroke-width="1.0" stroke-linecap="butt" stroke-linejoin="round" />
		<polyline points="71.5,61.5 41.5,81.5" fill-opacity="0" stroke="#000000" stroke-width="1.0" stroke-linecap="butt" stroke-linejoin="round" />
		<polygon points="41.5,101.5 71.5,101.5 71.5,81.5 41.5,81.5" fill="#FFD788" stroke="#000000" stroke-width="1.0" stroke-linecap="butt" stroke-linejoin="round" />
		<polygon points="41.5,121.5 71.5,121.5 71.5,101.5 41.5,101.5" fill="#FFD788" stroke="#000000" stroke-width="1.0" stroke-linecap="butt" stroke-linejoin="round" />
		<polygon points="41.5,141.5 71.5,141.5 71.5,121.5 41.5,121.5" fill="#FFD788" stroke="#000000" stroke-width="1.0" stroke-linecap="butt" stroke-linejoin="round" />
		<polygon points="71.5,81.5 101.5,81.5 101.5,61.5 71.5,61.5" fill="#FFD788" stroke="#000000" stroke-width="1.0" stroke-linecap="butt" stroke-linejoin="round" />
		<polygon points="101.5,81.5 131.5,81.5 131.5,61.5 101.5,61.5" fill="#FFD788" stroke="#000000" stroke-width="1.0" stroke-linecap="butt" stroke-linejoin="round" />
		<polygon points="131.5,81.5 161.5,81.5 161.5,61.5 131.5,61.5" fill="#FFD788" stroke="#000000" stroke-width="1.0" stroke-linecap="butt" stroke-linejoin="round" />
	</g>
</svg>
