<svg width="213" height="203" xmlns="http://www.w3.org/2000/svg" xmlns:xlink="http://www.w3.org/1999/xlink">
	<g id="Modelica.Blocks.Examples.BusUsage_Utilities.Part" class="component">
		<polygon points="1.5,161.5 201.5,161.5 201.5,41.5 1.5,41.5" fill="#9F9FDF" stroke="#00007F" stroke-width="1.0" stroke-linecap="butt" stroke-linejoin="round" />
		<g id="subControlBus" class="port">
			<polyline points="201.9,98.3 201.9,104.7" fill-opacity="0" stroke="#FFCC33" stroke-width="1.0" stroke-linecap="butt" stroke-linejoin="round" />
			<polygon points="201.5,99.5 201.5,103.1 203.1,103.1 203.1,99.5" fill-opacity="0" stroke="#FFCC33" stroke-width="1.0" stroke-linecap="butt" stroke-linejoin="round" />
			<polygon points="209.5,83.5 210.1,84.6 210.6,86.4 211.0,89.0 211.3,92.4 211.4,96.6 211.5,101.5 211.5,101.5 211.4,106.4 211.3,110.6 211.0,114.0 210.6,116.6 210.1,118.4 209.5,119.5 209.5,119.5 207.6,120.4 204.6,120.4 200.5,119.5 200.5,119.5 197.4,118.5 195.0,117.5 193.4,116.5 192.5,115.5 192.5,115.5 192.1,114.3 191.9,112.3 191.7,109.5 191.5,105.9 191.5,101.5 191.5,101.5 191.5,97.1 191.7,93.5 191.9,90.7 192.1,88.7 192.5,87.5 192.5,87.5 193.4,86.5 195.0,85.5 197.4,84.5 200.5,83.5 200.5,83.5 204.6,82.6 207.6,82.6" fill="#FFD788" stroke="#000000" stroke-width="1.0" stroke-linecap="butt" stroke-linejoin="round" />
			<polygon points="205.5,92.5 205.6,92.5 205.7,92.5 205.8,92.5 205.8,92.4 205.9,92.4 206.0,92.4 206.1,92.3 206.1,92.3 206.2,92.2 206.3,92.2 206.3,92.1 206.4,92.0 206.4,91.9 206.4,91.9 206.5,91.8 206.5,91.7 206.5,91.6 206.5,91.5 206.5,91.4 206.5,91.3 206.5,91.3 206.4,91.2 206.4,91.1 206.4,91.0 206.3,91.0 206.3,90.9 206.2,90.8 206.2,90.8 206.1,90.7 206.0,90.7 206.0,90.6 205.9,90.6 205.8,90.5 205.7,90.5 205.6,90.5 205.5,90.5 205.5,90.5 205.4,90.5 205.3,90.5 205.2,90.5 205.1,90.6 205.0,90.6 205.0,90.7 204.9,90.7 204.8,90.8 204.8,90.8 204.7,90.9 204.7,91.0 204.6,91.0 204.6,91.1 204.6,91.2 204.5,91.3 204.5,91.3 204.5,91.4 204.5,91.5 204.5,91.6 204.5,91.7 204.5,91.8 204.6,91.9 204.6,91.9 204.6,92.0 204.7,92.1 204.7,92.2 204.8,92.2 204.9,92.3 204.9,92.3 205.0,92.4 205.1,92.4 205.2,92.4 205.2,92.5 205.3,92.5 205.4,92.5" fill="#000000" stroke="#000000" stroke-width="1.0" stroke-linecap="butt" stroke-linejoin="round" />
			<polygon points="205.5,112.5 205.6,112.5 205.7,112.5 205.8,112.5 205.8,112.4 205.9,112.4 206.0,112.4 206.1,112.3 206.1,112.3 206.2,112.2 206.3,112.2 206.3,112.1 206.4,112.0 206.4,111.9 206.4,111.9 206.5,111.8 206.5,111.7 206.5,111.6 206.5,111.5 206.5,111.4 206.5,111.3 206.5,111.3 206.4,111.2 206.4,111.1 206.4,111.0 206.3,111.0 206.3,110.9 206.2,110.8 206.2,110.8 206.1,110.7 206.0,110.7 206.0,110.6 205.9,110.6 205.8,110.5 205.7,110.5 205.6,110.5 205.5,110.5 205.5,110.5 205.4,110.5 205.3,110.5 205.2,110.5 205.1,110.6 205.0,110.6 205.0,110.7 204.9,110.7 204.8,110.8 204.8,110.8 204.7,110.9 204.7,111.0 204.6,111.0 204.6,111.1 204.6,111.2 204.5,111.3 204.5,111.3 204.5,111.4 204.5,111.5 204.5,111.6 204.5,111.7 204.5,111.8 204.6,111.9 204.6,111.9 204.6,112.0 204.7,112.1 204.7,112.2 204.8,112.2 204.9,112.3 204.9,112.3 205.0,112.4 205.1,112.4 205.2,112.4 205.2,112.5 205.3,112.5 205.4,112.5" fill="#000000" stroke="#000000" stroke-width="1.0" stroke-linecap="butt" stroke-linejoin="round" />
			<polygon points="197.5,102.5 197.6,102.5 197.7,102.5 197.8,102.5 197.8,102.4 197.9,102.4 198.0,102.4 198.1,102.3 198.1,102.3 198.2,102.2 198.3,102.2 198.3,102.1 198.4,102.0 198.4,101.9 198.4,101.9 198.5,101.8 198.5,101.7 198.5,101.6 198.5,101.5 198.5,101.4 198.5,101.3 198.5,101.3 198.4,101.2 198.4,101.1 198.4,101.0 198.3,101.0 198.3,100.9 198.2,100.8 198.2,100.8 198.1,100.7 198.0,100.7 198.0,100.6 197.9,100.6 197.8,100.5 197.7,100.5 197.6,100.5 197.5,100.5 197.5,100.5 197.4,100.5 197.3,100.5 197.2,100.5 197.1,100.6 197.0,100.6 197.0,100.7 196.9,100.7 196.8,100.8 196.8,100.8 196.7,100.9 196.7,101.0 196.6,101.0 196.6,101.1 196.6,101.2 196.5,101.3 196.5,101.3 196.5,101.4 196.5,101.5 196.5,101.6 196.5,101.7 196.5,101.8 196.6,101.9 196.6,101.9 196.6,102.0 196.7,102.1 196.7,102.2 196.8,102.2 196.9,102.3 196.9,102.3 197.0,102.4 197.1,102.4 197.2,102.4 197.2,102.5 197.3,102.5 197.4,102.5" fill="#000000" stroke="#000000" stroke-width="1.0" stroke-linecap="butt" stroke-linejoin="round" />
			<polygon points="201.5,97.5 201.5,105.5 202.3,105.5 202.3,97.5" fill-opacity="0" stroke="#FFD788" stroke-width="1.0" stroke-linecap="butt" stroke-linejoin="round" />
			<polygon points="201.1,97.5 201.1,105.9 201.9,105.9 201.9,97.5" fill-opacity="0" stroke="#FFCC33" stroke-width="1.0" stroke-linecap="butt" stroke-linejoin="round" />
		</g>
	</g>
</svg>
