<svg width="203" height="203" xmlns="http://www.w3.org/2000/svg" xmlns:xlink="http://www.w3.org/1999/xlink">
	<g id="Modelica.Mechanics.MultiBody.Parts" class="component">
		<defs>
			<linearGradient id="cyl2" x1="0" y1="0" x2="0" y2="1">
				<stop offset="0%" stop-color="#C8C8C8" />
				<stop offset="5%" stop-color="#D1D1D1" />
				<stop offset="10%" stop-color="#D9D9D9" />
				<stop offset="15%" stop-color="#E0E0E0" />
				<stop offset="20%" stop-color="#E7E7E7" />
				<stop offset="25%" stop-color="#ECECEC" />
				<stop offset="30%" stop-color="#F0F0F0" />
				<stop offset="35%" stop-color="#F4F4F4" />
				<stop offset="40%" stop-color="#F6F6F6" />
				<stop offset="45%" stop-color="#F8F8F8" />
				<stop offset="50%" stop-color="#F8F8F8" />
				<stop offset="55%" stop-color="#F8F8F8" />
				<stop offset="60%" stop-color="#F6F6F6" />
				<stop offset="65%" stop-color="#F4F4F4" />
				<stop offset="70%" stop-color="#F0F0F0" />
				<stop offset="75%" stop-color="#ECECEC" />
				<stop offset="80%" stop-color="#E7E7E7" />
				<stop offset="85%" stop-color="#E0E0E0" />
				<stop offset="90%" stop-color="#D9D9D9" />
				<stop offset="95%" stop-color="#D1D1D1" />
				<stop offset="100%" stop-color="#C8C8C8" />
			</linearGradient>
		</defs>
		<polygon points="8.8,194.2 11.0,196.1 13.3,197.8 15.7,199.1 18.2,200.2 20.8,200.9 23.6,201.4 26.5,201.5 26.5,201.5 50.4,201.5 101.5,201.5 101.5,201.5 152.6,201.5 176.5,201.5 176.5,201.5 179.4,201.4 182.2,200.9 184.8,200.2 187.3,199.1 189.7,197.8 192.0,196.1 194.2,194.2 194.2,194.2 196.1,192.0 197.8,189.7 199.1,187.3 200.2,184.8 200.9,182.2 201.4,179.4 201.5,176.5 201.5,176.5 201.5,152.6 201.5,101.5 201.5,101.5 201.5,50.4 201.5,26.5 201.5,26.5 201.4,23.6 200.9,20.8 200.2,18.2 199.1,15.7 197.8,13.3 196.1,11.0 194.2,8.8 194.2,8.8 192.0,6.9 189.7,5.2 187.3,3.9 184.8,2.8 182.2,2.1 179.4,1.6 176.5,1.5 176.5,1.5 152.6,1.5 101.5,1.5 101.5,1.5 50.4,1.5 26.5,1.5 26.5,1.5 23.6,1.6 20.8,2.1 18.2,2.8 15.7,3.9 13.3,5.2 11.0,6.9 8.8,8.8 8.8,8.8 6.9,11.0 5.2,13.3 3.9,15.7 2.8,18.2 2.1,20.8 1.6,23.6 1.5,26.5 1.5,26.5 1.5,50.4 1.5,101.5 1.5,101.5 1.5,152.6 1.5,176.5 1.5,176.5 1.6,179.4 2.1,182.2 2.8,184.8 3.9,187.3 5.2,189.7 6.9,192.0" fill="url(#cyl2)" stroke="#C8C8C8" stroke-width="1.0" stroke-linecap="round" stroke-linejoin="round" />
		<polygon points="8.8,194.2 11.0,196.1 13.3,197.8 15.7,199.1 18.2,200.2 20.8,200.9 23.6,201.4 26.5,201.5 26.5,201.5 50.4,201.5 101.5,201.5 101.5,201.5 152.6,201.5 176.5,201.5 176.5,201.5 179.4,201.4 182.2,200.9 184.8,200.2 187.3,199.1 189.7,197.8 192.0,196.1 194.2,194.2 194.2,194.2 196.1,192.0 197.8,189.7 199.1,187.3 200.2,184.8 200.9,182.2 201.4,179.4 201.5,176.5 201.5,176.5 201.5,152.6 201.5,101.5 201.5,101.5 201.5,50.4 201.5,26.5 201.5,26.5 201.4,23.6 200.9,20.8 200.2,18.2 199.1,15.7 197.8,13.3 196.1,11.0 194.2,8.8 194.2,8.8 192.0,6.9 189.7,5.2 187.3,3.9 184.8,2.8 182.2,2.1 179.4,1.6 176.5,1.5 176.5,1.5 152.6,1.5 101.5,1.5 101.5,1.5 50.4,1.5 26.5,1.5 26.5,1.5 23.6,1.6 20.8,2.1 18.2,2.8 15.7,3.9 13.3,5.2 11.0,6.9 8.8,8.8 8.8,8.8 6.9,11.0 5.2,13.3 3.9,15.7 2.8,18.2 2.1,20.8 1.6,23.6 1.5,26.5 1.5,26.5 1.5,50.4 1.5,101.5 1.5,101.5 1.5,152.6 1.5,176.5 1.5,176.5 1.6,179.4 2.1,182.2 2.8,184.8 3.9,187.3 5.2,189.7 6.9,192.0" fill-opacity="0" stroke="#808080" stroke-width="1.0" stroke-linecap="round" stroke-linejoin="round" />
		<defs>
			<linearGradient id="cyl4" x1="0" y1="0" x2="0" y2="1">
				<stop offset="0%" stop-color="#5F5F5F" />
				<stop offset="5%" stop-color="#767676" />
				<stop offset="10%" stop-color="#8A8A8A" />
				<stop offset="15%" stop-color="#9C9C9C" />
				<stop offset="20%" stop-color="#ACACAC" />
				<stop offset="25%" stop-color="#B9B9B9" />
				<stop offset="30%" stop-color="#C4C4C4" />
				<stop offset="35%" stop-color="#CCCCCC" />
				<stop offset="40%" stop-color="#D2D2D2" />
				<stop offset="45%" stop-color="#D6D6D6" />
				<stop offset="50%" stop-color="#D7D7D7" />
				<stop offset="55%" stop-color="#D6D6D6" />
				<stop offset="60%" stop-color="#D2D2D2" />
				<stop offset="65%" stop-color="#CCCCCC" />
				<stop offset="70%" stop-color="#C4C4C4" />
				<stop offset="75%" stop-color="#B9B9B9" />
				<stop offset="80%" stop-color="#ACACAC" />
				<stop offset="85%" stop-color="#9C9C9C" />
				<stop offset="90%" stop-color="#8A8A8A" />
				<stop offset="95%" stop-color="#767676" />
				<stop offset="100%" stop-color="#5F5F5F" />
			</linearGradient>
		</defs>
		<polygon points="24.4,114.6 26.5,116.2 28.9,117.2 31.5,117.5 31.5,117.5 41.3,117.5 62.5,117.5 62.5,117.5 83.7,117.5 93.5,117.5 93.5,117.5 95.5,117.3 97.3,116.8 99.0,115.9 100.6,114.6 100.6,114.6 101.9,113.0 102.8,111.3 103.3,109.5 103.5,107.5 103.5,107.5 103.5,102.4 103.5,95.5 103.5,95.5 103.5,88.6 103.5,83.5 103.5,83.5 103.3,81.5 102.8,79.7 101.9,78.0 100.6,76.4 100.6,76.4 99.0,75.1 97.3,74.2 95.5,73.7 93.5,73.5 93.5,73.5 83.7,73.5 62.5,73.5 62.5,73.5 41.3,73.5 31.5,73.5 31.5,73.5 28.9,73.8 26.5,74.8 24.4,76.4 24.4,76.4 23.1,78.0 22.2,79.7 21.7,81.5 21.5,83.5 21.5,83.5 21.5,88.6 21.5,95.5 21.5,95.5 21.5,102.4 21.5,107.5 21.5,107.5 21.7,109.5 22.2,111.3 23.1,113.0" fill="url(#cyl4)" stroke="#5F5F5F" stroke-width="1.0" stroke-linecap="round" stroke-linejoin="round" />
		<defs>
			<radialGradient id="sph5">
				<stop offset="0%" stop-color="#D7D7D7" />
				<stop offset="10%" stop-color="#D6D6D6" />
				<stop offset="20%" stop-color="#D2D2D2" />
				<stop offset="30%" stop-color="#CCCCCC" />
				<stop offset="40%" stop-color="#C4C4C4" />
				<stop offset="50%" stop-color="#B9B9B9" />
				<stop offset="60%" stop-color="#ACACAC" />
				<stop offset="70%" stop-color="#9C9C9C" />
				<stop offset="80%" stop-color="#8A8A8A" />
				<stop offset="90%" stop-color="#767676" />
				<stop offset="100%" stop-color="#5F5F5F" />
			</radialGradient>
		</defs>
		<polygon points="187.5,96.5 187.3,92.5 186.8,88.4 185.9,84.5 184.7,80.6 183.2,76.9 181.4,73.3 179.2,69.9 176.8,66.6 174.1,63.6 171.1,60.9 168.0,58.4 164.6,56.1 161.0,54.2 157.3,52.6 153.5,51.3 149.5,50.4 145.5,49.8 141.5,49.5 137.5,49.6 133.4,50.0 129.5,50.8 125.6,51.9 121.8,53.4 118.2,55.1 114.7,57.2 111.4,59.6 108.4,62.2 105.5,65.1 103.0,68.2 100.7,71.6 98.7,75.1 97.0,78.7 95.6,82.6 94.6,86.5 93.9,90.4 93.5,94.5 93.5,98.5 93.9,102.6 94.6,106.5 95.6,110.4 97.0,114.3 98.7,117.9 100.7,121.4 103.0,124.8 105.5,127.9 108.4,130.8 111.4,133.4 114.7,135.8 118.2,137.9 121.8,139.6 125.6,141.1 129.5,142.2 133.4,143.0 137.5,143.4 141.5,143.5 145.5,143.2 149.5,142.6 153.5,141.7 157.3,140.4 161.0,138.8 164.6,136.9 168.0,134.6 171.1,132.1 174.1,129.4 176.8,126.4 179.2,123.1 181.4,119.7 183.2,116.1 184.7,112.4 185.9,108.5 186.8,104.6 187.3,100.5" fill="url(#sph5)" stroke="#5F5F5F" stroke-width="1.0" stroke-linecap="round" stroke-linejoin="round" />
	</g>
</svg>
