<svg width="303" height="203" xmlns="http://www.w3.org/2000/svg" xmlns:xlink="http://www.w3.org/1999/xlink">
	<g id="Modelica.Electrical.Machines.Examples.ControlledDCDrives.Utilities.PartialControlledDCPM" class="component">
		<polygon points="301.5,101.5 300.9,92.9 299.3,84.4 296.5,76.0 292.7,67.7 287.8,59.8 281.9,52.1 275.1,44.8 267.3,38.0 258.7,31.6 249.3,25.7 239.1,20.3 228.4,15.6 217.0,11.5 205.2,8.1 192.9,5.4 180.4,3.4 167.6,2.1 154.7,1.5 141.8,1.7 129.0,2.6 116.3,4.3 103.9,6.7 91.9,9.7 80.3,13.5 69.2,17.9 58.7,22.9 48.9,28.5 39.9,34.7 31.7,41.3 24.4,48.4 18.0,55.9 12.6,63.7 8.3,71.8 5.0,80.1 2.7,88.6 1.6,97.2 1.6,105.8 2.7,114.4 5.0,122.9 8.3,131.2 12.6,139.3 18.0,147.1 24.4,154.6 31.7,161.7 39.9,168.3 48.9,174.5 58.7,180.1 69.2,185.1 80.3,189.5 91.9,193.3 103.9,196.3 116.3,198.7 129.0,200.4 141.8,201.3 154.7,201.5 167.6,200.9 180.4,199.6 192.9,197.6 205.2,194.9 217.0,191.5 228.4,187.4 239.1,182.7 249.3,177.3 258.7,171.4 267.3,165.0 275.1,158.2 281.9,150.9 287.8,143.2 292.7,135.3 296.5,127.0 299.3,118.6 300.9,110.1" fill="#FFFFFF" stroke="#4B8A49" stroke-width="1.0" stroke-linecap="round" stroke-linejoin="round" />
		<polygon points="97.5,41.5 247.5,101.5 97.5,161.5" fill="#4B8A49" stroke-opacity="0" stroke-width="1.0" stroke-linecap="round" stroke-linejoin="round" />
	</g>
</svg>
