<svg width="244" height="207" xmlns="http://www.w3.org/2000/svg" xmlns:xlink="http://www.w3.org/1999/xlink">
	<g id="Modelica.Media.Examples.Tests.Components.ShortPipe" class="component">
		<polygon points="19.7,205.5 223.7,205.5 223.7,1.5 19.7,1.5" fill-opacity="0" stroke="#FF0000" stroke-dasharray="3 4" stroke-width="1.0" stroke-linecap="butt" stroke-linejoin="round" />
		<defs>
			<linearGradient id="cyl3" x1="0" y1="0" x2="0" y2="1">
				<stop offset="0%" stop-color="#000000" />
				<stop offset="5%" stop-color="#242424" />
				<stop offset="10%" stop-color="#454545" />
				<stop offset="15%" stop-color="#626262" />
				<stop offset="20%" stop-color="#7B7B7B" />
				<stop offset="25%" stop-color="#909090" />
				<stop offset="30%" stop-color="#A1A1A1" />
				<stop offset="35%" stop-color="#AFAFAF" />
				<stop offset="40%" stop-color="#B8B8B8" />
				<stop offset="45%" stop-color="#BEBEBE" />
				<stop offset="50%" stop-color="#C0C0C0" />
				<stop offset="55%" stop-color="#BEBEBE" />
				<stop offset="60%" stop-color="#B8B8B8" />
				<stop offset="65%" stop-color="#AFAFAF" />
				<stop offset="70%" stop-color="#A1A1A1" />
				<stop offset="75%" stop-color="#909090" />
				<stop offset="80%" stop-color="#7B7B7B" />
				<stop offset="85%" stop-color="#626262" />
				<stop offset="90%" stop-color="#454545" />
				<stop offset="95%" stop-color="#242424" />
				<stop offset="100%" stop-color="#000000" />
			</linearGradient>
		</defs>
		<polygon points="21.7,163.5 221.7,163.5 221.7,43.5 21.7,43.5" fill="url(#cyl3)" stroke="#000000" stroke-width="1.0" stroke-linecap="butt" stroke-linejoin="round" />
		<defs>
			<linearGradient id="cyl4" x1="0" y1="0" x2="0" y2="1">
				<stop offset="0%" stop-color="#000000" />
				<stop offset="5%" stop-color="#001830" />
				<stop offset="10%" stop-color="#002E5C" />
				<stop offset="15%" stop-color="#004182" />
				<stop offset="20%" stop-color="#0051A3" />
				<stop offset="25%" stop-color="#005FBF" />
				<stop offset="30%" stop-color="#006BD6" />
				<stop offset="35%" stop-color="#0074E8" />
				<stop offset="40%" stop-color="#007AF5" />
				<stop offset="45%" stop-color="#007EFC" />
				<stop offset="50%" stop-color="#007FFF" />
				<stop offset="55%" stop-color="#007EFC" />
				<stop offset="60%" stop-color="#007AF5" />
				<stop offset="65%" stop-color="#0074E8" />
				<stop offset="70%" stop-color="#006BD6" />
				<stop offset="75%" stop-color="#005FBF" />
				<stop offset="80%" stop-color="#0051A3" />
				<stop offset="85%" stop-color="#004182" />
				<stop offset="90%" stop-color="#002E5C" />
				<stop offset="95%" stop-color="#001830" />
				<stop offset="100%" stop-color="#000000" />
			</linearGradient>
		</defs>
		<polygon points="21.7,139.5 221.7,139.5 221.7,69.5 21.7,69.5" fill="url(#cyl4)" stroke="#000000" stroke-width="1.0" stroke-linecap="butt" stroke-linejoin="round" />
		<g id="port_a" class="port">
			<polygon points="1.5,113.7 21.9,113.7 21.9,93.3 1.5,93.3" fill-opacity="0" stroke="#FF0000" stroke-dasharray="3 4" stroke-width="1.0" stroke-linecap="butt" stroke-linejoin="round" />
			<polygon points="21.7,103.5 21.7,102.6 21.6,101.8 21.4,100.9 21.1,100.1 20.8,99.3 20.4,98.6 19.9,97.8 19.4,97.1 18.8,96.5 18.2,95.9 17.5,95.4 16.8,94.9 16.1,94.5 15.3,94.2 14.5,93.9 13.6,93.7 12.8,93.6 11.9,93.5 11.1,93.5 10.2,93.6 9.4,93.8 8.5,94.0 7.7,94.3 7.0,94.7 6.2,95.1 5.5,95.6 4.9,96.2 4.3,96.8 3.7,97.5 3.2,98.2 2.8,98.9 2.4,99.7 2.2,100.5 1.9,101.4 1.8,102.2 1.7,103.1 1.7,103.9 1.8,104.8 1.9,105.6 2.2,106.5 2.4,107.3 2.8,108.1 3.2,108.8 3.7,109.5 4.3,110.2 4.9,110.8 5.5,111.4 6.2,111.9 7.0,112.3 7.7,112.7 8.5,113.0 9.4,113.2 10.2,113.4 11.1,113.5 11.9,113.5 12.8,113.4 13.6,113.3 14.5,113.1 15.3,112.8 16.1,112.5 16.8,112.1 17.5,111.6 18.2,111.1 18.8,110.5 19.4,109.9 19.9,109.2 20.4,108.4 20.8,107.7 21.1,106.9 21.4,106.1 21.6,105.2 21.7,104.4" fill="#007FFF" stroke="#007FFF" stroke-width="1.0" stroke-linecap="butt" stroke-linejoin="round" />
			<polygon points="21.7,103.5 21.7,102.6 21.6,101.8 21.4,100.9 21.1,100.1 20.8,99.3 20.4,98.6 19.9,97.8 19.4,97.1 18.8,96.5 18.2,95.9 17.5,95.4 16.8,94.9 16.1,94.5 15.3,94.2 14.5,93.9 13.6,93.7 12.8,93.6 11.9,93.5 11.1,93.5 10.2,93.6 9.4,93.8 8.5,94.0 7.7,94.3 7.0,94.7 6.2,95.1 5.5,95.6 4.9,96.2 4.3,96.8 3.7,97.5 3.2,98.2 2.8,98.9 2.4,99.7 2.2,100.5 1.9,101.4 1.8,102.2 1.7,103.1 1.7,103.9 1.8,104.8 1.9,105.6 2.2,106.5 2.4,107.3 2.8,108.1 3.2,108.8 3.7,109.5 4.3,110.2 4.9,110.8 5.5,111.4 6.2,111.9 7.0,112.3 7.7,112.7 8.5,113.0 9.4,113.2 10.2,113.4 11.1,113.5 11.9,113.5 12.8,113.4 13.6,113.3 14.5,113.1 15.3,112.8 16.1,112.5 16.8,112.1 17.5,111.6 18.2,111.1 18.8,110.5 19.4,109.9 19.9,109.2 20.4,108.4 20.8,107.7 21.1,106.9 21.4,106.1 21.6,105.2 21.7,104.4" fill="#007FFF" stroke="#000000" stroke-width="1.0" stroke-linecap="butt" stroke-linejoin="round" />
		</g>
		<g id="port_b" class="port">
			<polygon points="241.9,113.7 221.5,113.7 221.5,93.3 241.9,93.3" fill-opacity="0" stroke="#FF0000" stroke-dasharray="3 4" stroke-width="1.0" stroke-linecap="butt" stroke-linejoin="round" />
			<polygon points="221.7,103.5 221.7,102.6 221.8,101.8 222.0,100.9 222.3,100.1 222.6,99.3 223.0,98.6 223.5,97.8 224.0,97.1 224.6,96.5 225.2,95.9 225.9,95.4 226.6,94.9 227.3,94.5 228.1,94.2 228.9,93.9 229.8,93.7 230.6,93.6 231.5,93.5 232.3,93.5 233.2,93.6 234.0,93.8 234.9,94.0 235.7,94.3 236.4,94.7 237.2,95.1 237.9,95.6 238.5,96.2 239.1,96.8 239.7,97.5 240.2,98.2 240.6,98.9 241.0,99.7 241.2,100.5 241.5,101.4 241.6,102.2 241.7,103.1 241.7,103.9 241.6,104.8 241.5,105.6 241.2,106.5 241.0,107.3 240.6,108.1 240.2,108.8 239.7,109.5 239.1,110.2 238.5,110.8 237.9,111.4 237.2,111.9 236.4,112.3 235.7,112.7 234.9,113.0 234.0,113.2 233.2,113.4 232.3,113.5 231.5,113.5 230.6,113.4 229.8,113.3 228.9,113.1 228.1,112.8 227.3,112.5 226.6,112.1 225.9,111.6 225.2,111.1 224.6,110.5 224.0,109.9 223.5,109.2 223.0,108.4 222.6,107.7 222.3,106.9 222.0,106.1 221.8,105.2 221.7,104.4" fill="#007FFF" stroke="#007FFF" stroke-width="1.0" stroke-linecap="butt" stroke-linejoin="round" />
			<polygon points="221.7,103.5 221.7,102.6 221.8,101.8 222.0,100.9 222.3,100.1 222.6,99.3 223.0,98.6 223.5,97.8 224.0,97.1 224.6,96.5 225.2,95.9 225.9,95.4 226.6,94.9 227.3,94.5 228.1,94.2 228.9,93.9 229.8,93.7 230.6,93.6 231.5,93.5 232.3,93.5 233.2,93.6 234.0,93.8 234.9,94.0 235.7,94.3 236.4,94.7 237.2,95.1 237.9,95.6 238.5,96.2 239.1,96.8 239.7,97.5 240.2,98.2 240.6,98.9 241.0,99.7 241.2,100.5 241.5,101.4 241.6,102.2 241.7,103.1 241.7,103.9 241.6,104.8 241.5,105.6 241.2,106.5 241.0,107.3 240.6,108.1 240.2,108.8 239.7,109.5 239.1,110.2 238.5,110.8 237.9,111.4 237.2,111.9 236.4,112.3 235.7,112.7 234.9,113.0 234.0,113.2 233.2,113.4 232.3,113.5 231.5,113.5 230.6,113.4 229.8,113.3 228.9,113.1 228.1,112.8 227.3,112.5 226.6,112.1 225.9,111.6 225.2,111.1 224.6,110.5 224.0,109.9 223.5,109.2 223.0,108.4 222.6,107.7 222.3,106.9 222.0,106.1 221.8,105.2 221.7,104.4" fill="#007FFF" stroke="#000000" stroke-width="1.0" stroke-linecap="butt" stroke-linejoin="round" />
			<polygon points="223.7,103.5 223.7,102.8 223.8,102.1 224.0,101.5 224.2,100.8 224.4,100.2 224.7,99.5 225.1,99.0 225.5,98.4 226.0,97.9 226.5,97.4 227.0,97.0 227.6,96.6 228.2,96.3 228.8,96.0 229.5,95.8 230.2,95.6 230.8,95.5 231.5,95.5 232.2,95.5 232.9,95.6 233.6,95.7 234.2,95.9 234.9,96.2 235.5,96.5 236.1,96.8 236.6,97.2 237.2,97.7 237.7,98.2 238.1,98.7 238.5,99.3 238.8,99.9 239.1,100.5 239.3,101.1 239.5,101.8 239.6,102.5 239.7,103.2 239.7,103.8 239.6,104.5 239.5,105.2 239.3,105.9 239.1,106.5 238.8,107.1 238.5,107.7 238.1,108.3 237.7,108.8 237.2,109.3 236.6,109.8 236.1,110.2 235.5,110.5 234.9,110.8 234.2,111.1 233.6,111.3 232.9,111.4 232.2,111.5 231.5,111.5 230.8,111.5 230.2,111.4 229.5,111.2 228.8,111.0 228.2,110.7 227.6,110.4 227.0,110.0 226.5,109.6 226.0,109.1 225.5,108.6 225.1,108.0 224.7,107.5 224.4,106.8 224.2,106.2 224.0,105.5 223.8,104.9 223.7,104.2" fill="#FFFFFF" stroke="#007FFF" stroke-width="1.0" stroke-linecap="butt" stroke-linejoin="round" />
		</g>
	</g>
</svg>
