<svg width="213" height="203" xmlns="http://www.w3.org/2000/svg" xmlns:xlink="http://www.w3.org/1999/xlink">
	<g id="ac" class="port">
		<polygon points="211.5,101.5 211.5,100.6 211.4,99.8 211.2,98.9 210.9,98.1 210.6,97.3 210.2,96.6 209.7,95.8 209.2,95.1 208.6,94.5 208.0,93.9 207.3,93.4 206.6,92.9 205.9,92.5 205.1,92.2 204.3,91.9 203.4,91.7 202.6,91.6 201.7,91.5 200.9,91.5 200.0,91.6 199.2,91.8 198.3,92.0 197.5,92.3 196.8,92.7 196.0,93.1 195.3,93.6 194.7,94.2 194.1,94.8 193.5,95.5 193.0,96.2 192.6,96.9 192.2,97.7 192.0,98.5 191.7,99.4 191.6,100.2 191.5,101.1 191.5,101.9 191.6,102.8 191.7,103.6 192.0,104.5 192.2,105.3 192.6,106.1 193.0,106.8 193.5,107.5 194.1,108.2 194.7,108.8 195.3,109.4 196.0,109.9 196.8,110.3 197.5,110.7 198.3,111.0 199.2,111.2 200.0,111.4 200.9,111.5 201.7,111.5 202.6,111.4 203.4,111.3 204.3,111.1 205.1,110.8 205.9,110.5 206.6,110.1 207.3,109.6 208.0,109.1 208.6,108.5 209.2,107.9 209.7,107.2 210.2,106.4 210.6,105.7 210.9,104.9 211.2,104.1 211.4,103.2 211.5,102.4" fill="#0000FF" stroke="#0000FF" stroke-width="1.0" stroke-linecap="round" stroke-linejoin="round" />
	</g>
</svg>
