<svg width="203" height="203" xmlns="http://www.w3.org/2000/svg" xmlns:xlink="http://www.w3.org/1999/xlink">
	<g id="Modelica.Blocks.Examples.BusUsage_Utilities.Interfaces.SubControlBus" class="component">
		<polyline points="85.5,99.5 117.5,99.5" fill-opacity="0" stroke="#FFCC33" stroke-width="1.0" stroke-linecap="round" stroke-linejoin="round" />
		<polygon points="91.5,101.5 109.5,101.5 109.5,93.5 91.5,93.5" fill-opacity="0" stroke="#FFCC33" stroke-width="1.0" stroke-linecap="round" stroke-linejoin="round" />
		<polygon points="11.5,61.5 12.7,60.5 14.2,59.6 16.1,58.7 18.3,57.9 20.9,57.1 23.8,56.4 27.1,55.7 30.7,55.1 34.7,54.5 39.0,54.0 43.7,53.5 48.7,53.1 54.1,52.7 59.8,52.4 65.9,52.1 72.3,51.9 79.1,51.7 86.2,51.6 93.7,51.5 101.5,51.5 101.5,51.5 109.3,51.5 116.8,51.6 123.9,51.7 130.7,51.9 137.1,52.1 143.2,52.4 148.9,52.7 154.3,53.1 159.3,53.5 164.0,54.0 168.3,54.5 172.3,55.1 175.9,55.7 179.2,56.4 182.1,57.1 184.7,57.9 186.9,58.7 188.8,59.6 190.3,60.5 191.5,61.5 191.5,61.5 193.0,63.3 194.3,65.5 195.2,68.1 195.9,70.9 196.4,74.2 196.5,77.8 196.4,81.7 195.9,85.9 195.2,90.6 194.3,95.5 193.0,100.8 191.5,106.5 191.5,106.5 190.2,110.8 189.0,114.8 187.8,118.6 186.5,122.1 185.2,125.4 184.0,128.5 182.8,131.4 181.5,134.0 180.2,136.4 179.0,138.5 177.8,140.4 176.5,142.1 175.2,143.6 174.0,144.8 172.8,145.8 171.5,146.5 171.5,146.5 169.7,147.2 167.2,147.9 164.2,148.5 160.6,149.1 156.4,149.6 151.6,150.1 146.2,150.4 140.3,150.8 133.7,151.0 126.5,151.2 118.8,151.4 110.4,151.5 101.5,151.5 101.5,151.5 92.6,151.5 84.2,151.4 76.5,151.2 69.3,151.0 62.7,150.8 56.8,150.4 51.4,150.1 46.6,149.6 42.4,149.1 38.8,148.5 35.8,147.9 33.3,147.2 31.5,146.5 31.5,146.5 30.2,145.8 29.0,144.8 27.8,143.6 26.5,142.1 25.2,140.4 24.0,138.5 22.8,136.4 21.5,134.0 20.2,131.4 19.0,128.5 17.8,125.4 16.5,122.1 15.2,118.6 14.0,114.8 12.8,110.8 11.5,106.5 11.5,106.5 10.0,100.8 8.7,95.5 7.8,90.6 7.1,85.9 6.6,81.7 6.5,77.8 6.6,74.2 7.1,70.9 7.8,68.1 8.7,65.5 10.0,63.3" fill="#FFD788" stroke="#000000" stroke-width="1.0" stroke-linecap="round" stroke-linejoin="round" />
		<polygon points="56.5,81.5 56.5,81.1 56.4,80.6 56.3,80.2 56.2,79.8 56.0,79.4 55.8,79.0 55.6,78.7 55.4,78.3 55.1,78.0 54.8,77.7 54.4,77.4 54.1,77.2 53.7,77.0 53.3,76.8 52.9,76.7 52.5,76.6 52.0,76.5 51.6,76.5 51.2,76.5 50.7,76.6 50.3,76.6 49.9,76.8 49.5,76.9 49.1,77.1 48.8,77.3 48.4,77.6 48.1,77.9 47.8,78.2 47.5,78.5 47.3,78.8 47.0,79.2 46.9,79.6 46.7,80.0 46.6,80.4 46.5,80.9 46.5,81.3 46.5,81.7 46.5,82.1 46.6,82.6 46.7,83.0 46.9,83.4 47.0,83.8 47.3,84.2 47.5,84.5 47.8,84.8 48.1,85.1 48.4,85.4 48.8,85.7 49.1,85.9 49.5,86.1 49.9,86.2 50.3,86.4 50.7,86.4 51.2,86.5 51.6,86.5 52.0,86.5 52.5,86.4 52.9,86.3 53.3,86.2 53.7,86.0 54.1,85.8 54.4,85.6 54.8,85.3 55.1,85.0 55.4,84.7 55.6,84.3 55.8,84.0 56.0,83.6 56.2,83.2 56.3,82.8 56.4,82.4 56.5,81.9" fill="#000000" stroke="#000000" stroke-width="1.0" stroke-linecap="round" stroke-linejoin="round" />
		<polygon points="156.5,81.5 156.5,81.1 156.4,80.6 156.3,80.2 156.2,79.8 156.0,79.4 155.8,79.0 155.6,78.7 155.4,78.3 155.1,78.0 154.8,77.7 154.4,77.4 154.1,77.2 153.7,77.0 153.3,76.8 152.9,76.7 152.5,76.6 152.0,76.5 151.6,76.5 151.2,76.5 150.7,76.6 150.3,76.6 149.9,76.8 149.5,76.9 149.1,77.1 148.8,77.3 148.4,77.6 148.1,77.9 147.8,78.2 147.5,78.5 147.3,78.8 147.0,79.2 146.9,79.6 146.7,80.0 146.6,80.4 146.5,80.9 146.5,81.3 146.5,81.7 146.5,82.1 146.6,82.6 146.7,83.0 146.9,83.4 147.0,83.8 147.3,84.2 147.5,84.5 147.8,84.8 148.1,85.1 148.4,85.4 148.8,85.7 149.1,85.9 149.5,86.1 149.9,86.2 150.3,86.4 150.7,86.4 151.2,86.5 151.6,86.5 152.0,86.5 152.5,86.4 152.9,86.3 153.3,86.2 153.7,86.0 154.1,85.8 154.4,85.6 154.8,85.3 155.1,85.0 155.4,84.7 155.6,84.3 155.8,84.0 156.0,83.6 156.2,83.2 156.3,82.8 156.4,82.4 156.5,81.9" fill="#000000" stroke="#000000" stroke-width="1.0" stroke-linecap="round" stroke-linejoin="round" />
		<polygon points="106.5,121.5 106.5,121.1 106.4,120.6 106.3,120.2 106.2,119.8 106.0,119.4 105.8,119.0 105.6,118.7 105.4,118.3 105.1,118.0 104.8,117.7 104.4,117.4 104.1,117.2 103.7,117.0 103.3,116.8 102.9,116.7 102.5,116.6 102.0,116.5 101.6,116.5 101.2,116.5 100.7,116.6 100.3,116.6 99.9,116.8 99.5,116.9 99.1,117.1 98.8,117.3 98.4,117.6 98.1,117.9 97.8,118.2 97.5,118.5 97.3,118.8 97.0,119.2 96.9,119.6 96.7,120.0 96.6,120.4 96.5,120.9 96.5,121.3 96.5,121.7 96.5,122.1 96.6,122.6 96.7,123.0 96.9,123.4 97.0,123.8 97.3,124.2 97.5,124.5 97.8,124.8 98.1,125.1 98.4,125.4 98.8,125.7 99.1,125.9 99.5,126.1 99.9,126.2 100.3,126.4 100.7,126.4 101.2,126.5 101.6,126.5 102.0,126.5 102.5,126.4 102.9,126.3 103.3,126.2 103.7,126.0 104.1,125.8 104.4,125.6 104.8,125.3 105.1,125.0 105.4,124.7 105.6,124.3 105.8,124.0 106.0,123.6 106.2,123.2 106.3,122.8 106.4,122.4 106.5,121.9" fill="#000000" stroke="#000000" stroke-width="1.0" stroke-linecap="round" stroke-linejoin="round" />
		<polygon points="81.5,101.5 121.5,101.5 121.5,97.5 81.5,97.5" fill-opacity="0" stroke="#FFD788" stroke-width="1.0" stroke-linecap="round" stroke-linejoin="round" />
		<polygon points="81.5,103.5 123.5,103.5 123.5,99.5 81.5,99.5" fill-opacity="0" stroke="#FFCC33" stroke-width="1.0" stroke-linecap="round" stroke-linejoin="round" />
	</g>
</svg>
