<svg width="223" height="203" xmlns="http://www.w3.org/2000/svg" xmlns:xlink="http://www.w3.org/1999/xlink">
	<g id="Modelica.Mechanics.Rotational.Components.RelativeStates" class="component">
		<polygon points="151.5,101.5 151.3,98.1 150.9,94.6 150.2,91.3 149.1,88.0 147.8,84.8 146.3,81.7 144.4,78.8 142.4,76.1 140.1,73.5 137.6,71.2 134.9,69.0 132.0,67.1 129.0,65.5 125.8,64.1 122.5,63.1 119.2,62.2 115.8,61.7 112.4,61.5 108.9,61.6 105.5,62.0 102.1,62.6 98.8,63.6 95.6,64.8 92.5,66.3 89.5,68.1 86.7,70.1 84.1,72.3 81.7,74.8 79.5,77.4 77.6,80.3 75.9,83.3 74.5,86.4 73.3,89.6 72.4,93.0 71.8,96.4 71.5,99.8 71.5,103.2 71.8,106.6 72.4,110.0 73.3,113.4 74.5,116.6 75.9,119.7 77.6,122.7 79.5,125.6 81.7,128.2 84.1,130.7 86.7,132.9 89.5,134.9 92.5,136.7 95.6,138.2 98.8,139.4 102.1,140.4 105.5,141.0 108.9,141.4 112.4,141.5 115.8,141.3 119.2,140.8 122.5,139.9 125.8,138.9 129.0,137.5 132.0,135.9 134.9,134.0 137.6,131.8 140.1,129.5 142.4,126.9 144.4,124.2 146.3,121.3 147.8,118.2 149.1,115.0 150.2,111.7 150.9,108.4 151.3,104.9" fill="#34DBDA" stroke="#34DBDA" stroke-width="1.0" stroke-linecap="butt" stroke-linejoin="round" />
		<text x="111.5" y="139.4" text-anchor="middle" fill="#0000FF" font-size="106.3px" font-family="sans-serif">S</text>
		<polyline points="19.5,101.5 69.5,101.5" fill-opacity="0" stroke="#000000" stroke-dasharray="1 2" stroke-width="1.0" stroke-linecap="butt" stroke-linejoin="round" />
		<polyline points="151.5,101.5 201.5,101.5" fill-opacity="0" stroke="#000000" stroke-dasharray="1 2" stroke-width="1.0" stroke-linecap="butt" stroke-linejoin="round" />
		<g id="flange_a" class="port">
			<polygon points="21.5,101.5 21.5,100.6 21.3,99.8 21.2,98.9 20.9,98.1 20.6,97.3 20.2,96.6 19.7,95.8 19.2,95.1 18.6,94.5 18.0,93.9 17.3,93.4 16.6,92.9 15.9,92.5 15.1,92.2 14.3,91.9 13.4,91.7 12.6,91.6 11.7,91.5 10.8,91.5 10.0,91.6 9.1,91.8 8.3,92.0 7.5,92.3 6.7,92.7 6.0,93.1 5.3,93.6 4.7,94.2 4.0,94.8 3.5,95.5 3.0,96.2 2.6,96.9 2.2,97.7 1.9,98.5 1.7,99.4 1.6,100.2 1.5,101.1 1.5,101.9 1.6,102.8 1.7,103.6 1.9,104.5 2.2,105.3 2.6,106.1 3.0,106.8 3.5,107.5 4.0,108.2 4.7,108.8 5.3,109.4 6.0,109.9 6.7,110.3 7.5,110.7 8.3,111.0 9.1,111.2 10.0,111.4 10.8,111.5 11.7,111.5 12.6,111.4 13.4,111.3 14.3,111.1 15.1,110.8 15.9,110.5 16.6,110.1 17.3,109.6 18.0,109.1 18.6,108.5 19.2,107.9 19.7,107.2 20.2,106.4 20.6,105.7 20.9,104.9 21.2,104.1 21.3,103.2 21.5,102.4" fill="#5F5F5F" stroke="#000000" stroke-width="1.0" stroke-linecap="butt" stroke-linejoin="round" />
		</g>
		<g id="flange_b" class="port">
			<polygon points="221.5,101.5 221.5,100.6 221.3,99.8 221.2,98.9 220.9,98.1 220.6,97.3 220.2,96.6 219.7,95.8 219.2,95.1 218.6,94.5 218.0,93.9 217.3,93.4 216.6,92.9 215.9,92.5 215.1,92.2 214.3,91.9 213.4,91.7 212.6,91.6 211.7,91.5 210.8,91.5 210.0,91.6 209.1,91.8 208.3,92.0 207.5,92.3 206.7,92.7 206.0,93.1 205.3,93.6 204.7,94.2 204.0,94.8 203.5,95.5 203.0,96.2 202.6,96.9 202.2,97.7 201.9,98.5 201.7,99.4 201.6,100.2 201.5,101.1 201.5,101.9 201.6,102.8 201.7,103.6 201.9,104.5 202.2,105.3 202.6,106.1 203.0,106.8 203.5,107.5 204.0,108.2 204.7,108.8 205.3,109.4 206.0,109.9 206.7,110.3 207.5,110.7 208.3,111.0 209.1,111.2 210.0,111.4 210.8,111.5 211.7,111.5 212.6,111.4 213.4,111.3 214.3,111.1 215.1,110.8 215.9,110.5 216.6,110.1 217.3,109.6 218.0,109.1 218.6,108.5 219.2,107.9 219.7,107.2 220.2,106.4 220.6,105.7 220.9,104.9 221.2,104.1 221.3,103.2 221.5,102.4" fill="#FFFFFF" stroke="#000000" stroke-width="1.0" stroke-linecap="butt" stroke-linejoin="round" />
		</g>
	</g>
</svg>
