<svg width="233" height="223" xmlns="http://www.w3.org/2000/svg" xmlns:xlink="http://www.w3.org/1999/xlink">
	<g id="Modelica.Electrical.Machines.Sensors.HallSensor" class="component">
		<polyline points="71.5,221.5 91.5,201.5" fill-opacity="0" stroke="#000000" stroke-width="1.0" stroke-linecap="round" stroke-linejoin="round" />
		<polyline points="91.5,221.5 111.5,201.5" fill-opacity="0" stroke="#000000" stroke-width="1.0" stroke-linecap="round" stroke-linejoin="round" />
		<polyline points="111.5,221.5 131.5,201.5" fill-opacity="0" stroke="#000000" stroke-width="1.0" stroke-linecap="round" stroke-linejoin="round" />
		<polyline points="131.5,221.5 151.5,201.5" fill-opacity="0" stroke="#000000" stroke-width="1.0" stroke-linecap="round" stroke-linejoin="round" />
		<polyline points="91.5,201.5 151.5,201.5" fill-opacity="0" stroke="#000000" stroke-width="1.0" stroke-linecap="round" stroke-linejoin="round" />
		<text x="121.5" y="176.8" text-anchor="middle" fill="#1C6CC8" font-size="20.3px" font-family="sans-serif">p=p</text>
		<polygon points="181.5,101.5 181.3,96.3 180.6,91.2 179.5,86.2 178.0,81.2 176.0,76.5 173.7,71.9 170.9,67.5 167.8,63.4 164.4,59.5 160.6,56.0 156.6,52.8 152.2,50.0 147.7,47.5 143.0,45.5 138.1,43.8 133.0,42.6 127.9,41.8 122.8,41.5 117.6,41.6 112.5,42.2 107.4,43.2 102.5,44.6 97.6,46.4 93.0,48.7 88.6,51.3 84.4,54.4 80.5,57.7 76.9,61.4 73.6,65.4 70.6,69.7 68.1,74.1 65.9,78.8 64.2,83.7 62.9,88.7 62.0,93.8 61.6,98.9 61.6,104.1 62.0,109.2 62.9,114.3 64.2,119.3 65.9,124.2 68.1,128.9 70.6,133.3 73.6,137.6 76.9,141.6 80.5,145.3 84.4,148.6 88.6,151.7 93.0,154.3 97.6,156.6 102.5,158.4 107.4,159.8 112.5,160.8 117.6,161.4 122.8,161.5 127.9,161.2 133.0,160.4 138.1,159.2 143.0,157.5 147.7,155.5 152.2,153.0 156.6,150.2 160.6,147.0 164.4,143.5 167.8,139.6 170.9,135.5 173.7,131.1 176.0,126.5 178.0,121.8 179.5,116.8 180.6,111.8 181.3,106.7" fill="#D7D7D7" stroke="#1C6CC8" stroke-width="1.0" stroke-linecap="round" stroke-linejoin="round" />
		<polyline points="121.5,101.5 121.5,41.5" fill-opacity="0" stroke="#1C6CC8" stroke-width="1.0" stroke-linecap="round" stroke-linejoin="round" />
		<polyline points="121.5,101.5 69.5,71.5" fill-opacity="0" stroke="#1C6CC8" stroke-width="1.0" stroke-linecap="round" stroke-linejoin="round" />
		<polyline points="121.5,101.5 173.5,71.5" fill-opacity="0" stroke="#1C6CC8" stroke-width="1.0" stroke-linecap="round" stroke-linejoin="round" />
		<polyline points="121.5,161.5 121.5,101.5" fill-opacity="0" stroke="#1C6CC8" stroke-width="1.0" stroke-linecap="round" stroke-linejoin="round" />
		<polyline points="173.5,131.5 121.5,101.5" fill-opacity="0" stroke="#1C6CC8" stroke-width="1.0" stroke-linecap="round" stroke-linejoin="round" />
		<polyline points="69.5,131.5 121.5,101.5" fill-opacity="0" stroke="#1C6CC8" stroke-width="1.0" stroke-linecap="round" stroke-linejoin="round" />
		<polygon points="141.5,101.5 141.4,99.8 141.2,98.1 140.8,96.4 140.3,94.7 139.7,93.2 138.9,91.6 138.0,90.2 136.9,88.8 135.8,87.5 134.5,86.3 133.2,85.3 131.7,84.3 130.2,83.5 128.7,82.8 127.0,82.3 125.3,81.9 123.6,81.6 121.9,81.5 120.2,81.5 118.5,81.7 116.8,82.1 115.2,82.5 113.5,83.1 112.0,83.9 110.5,84.8 109.1,85.8 107.8,86.9 106.6,88.1 105.5,89.5 104.5,90.9 103.7,92.4 103.0,93.9 102.4,95.6 102.0,97.2 101.7,98.9 101.5,100.6 101.5,102.4 101.7,104.1 102.0,105.8 102.4,107.4 103.0,109.1 103.7,110.6 104.5,112.1 105.5,113.5 106.6,114.9 107.8,116.1 109.1,117.2 110.5,118.2 112.0,119.1 113.5,119.9 115.2,120.5 116.8,120.9 118.5,121.3 120.2,121.5 121.9,121.5 123.6,121.4 125.3,121.1 127.0,120.7 128.7,120.2 130.2,119.5 131.7,118.7 133.2,117.7 134.5,116.7 135.8,115.5 136.9,114.2 138.0,112.8 138.9,111.4 139.7,109.8 140.3,108.3 140.8,106.6 141.2,104.9 141.4,103.2" fill="#FFFFFF" stroke="#1C6CC8" stroke-width="1.0" stroke-linecap="round" stroke-linejoin="round" />
		<polyline points="61.5,101.5 21.5,101.5" fill-opacity="0" stroke="#1C6CC8" stroke-width="1.0" stroke-linecap="round" stroke-linejoin="round" />
		<polyline points="221.5,101.5 181.5,101.5" fill-opacity="0" stroke="#1C6CC8" stroke-width="1.0" stroke-linecap="round" stroke-linejoin="round" />
		<text x="121.5" y="37.0" text-anchor="middle" fill="#1C6CC8" font-size="42.5px" font-family="sans-serif">HallSensor</text>
		<g id="flange" class="port">
			<polygon points="231.5,101.5 231.5,100.6 231.4,99.8 231.2,98.9 230.9,98.1 230.6,97.3 230.2,96.6 229.7,95.8 229.2,95.1 228.6,94.5 228.0,93.9 227.3,93.4 226.6,92.9 225.9,92.5 225.1,92.2 224.3,91.9 223.4,91.7 222.6,91.6 221.7,91.5 220.9,91.5 220.0,91.6 219.2,91.8 218.3,92.0 217.5,92.3 216.8,92.7 216.0,93.1 215.3,93.6 214.7,94.2 214.1,94.8 213.5,95.5 213.0,96.2 212.6,96.9 212.2,97.7 212.0,98.5 211.7,99.4 211.6,100.2 211.5,101.1 211.5,101.9 211.6,102.8 211.7,103.6 212.0,104.5 212.2,105.3 212.6,106.1 213.0,106.8 213.5,107.5 214.1,108.2 214.7,108.8 215.3,109.4 216.0,109.9 216.8,110.3 217.5,110.7 218.3,111.0 219.2,111.2 220.0,111.4 220.9,111.5 221.7,111.5 222.6,111.4 223.4,111.3 224.3,111.1 225.1,110.8 225.9,110.5 226.6,110.1 227.3,109.6 228.0,109.1 228.6,108.5 229.2,107.9 229.7,107.2 230.2,106.4 230.6,105.7 230.9,104.9 231.2,104.1 231.4,103.2 231.5,102.4" fill="#FFFFFF" stroke="#000000" stroke-width="1.0" stroke-linecap="round" stroke-linejoin="round" />
		</g>
		<g id="support" class="port">
			<polygon points="131.5,201.5 131.5,200.6 131.4,199.8 131.2,198.9 130.9,198.1 130.6,197.3 130.2,196.6 129.7,195.8 129.2,195.1 128.6,194.5 128.0,193.9 127.3,193.4 126.6,192.9 125.9,192.5 125.1,192.2 124.3,191.9 123.4,191.7 122.6,191.6 121.7,191.5 120.9,191.5 120.0,191.6 119.2,191.8 118.3,192.0 117.5,192.3 116.8,192.7 116.0,193.1 115.3,193.6 114.7,194.2 114.1,194.8 113.5,195.5 113.0,196.2 112.6,196.9 112.2,197.7 112.0,198.5 111.7,199.4 111.6,200.2 111.5,201.1 111.5,201.9 111.6,202.8 111.7,203.6 112.0,204.5 112.2,205.3 112.6,206.1 113.0,206.8 113.5,207.5 114.1,208.2 114.7,208.8 115.3,209.4 116.0,209.9 116.8,210.3 117.5,210.7 118.3,211.0 119.2,211.2 120.0,211.4 120.9,211.5 121.7,211.5 122.6,211.4 123.4,211.3 124.3,211.1 125.1,210.8 125.9,210.5 126.6,210.1 127.3,209.6 128.0,209.1 128.6,208.5 129.2,207.9 129.7,207.2 130.2,206.4 130.6,205.7 130.9,204.9 131.2,204.1 131.4,203.2 131.5,202.4" fill="#5F5F5F" stroke="#000000" stroke-width="1.0" stroke-linecap="round" stroke-linejoin="round" />
			<polygon points="106.5,216.5 136.5,216.5 136.5,186.5 106.5,186.5" fill="#C0C0C0" stroke="#C0C0C0" stroke-width="1.0" stroke-linecap="round" stroke-linejoin="round" />
			<polygon points="131.5,201.5 131.5,200.6 131.4,199.8 131.2,198.9 130.9,198.1 130.6,197.3 130.2,196.6 129.7,195.8 129.2,195.1 128.6,194.5 128.0,193.9 127.3,193.4 126.6,192.9 125.9,192.5 125.1,192.2 124.3,191.9 123.4,191.7 122.6,191.6 121.7,191.5 120.9,191.5 120.0,191.6 119.2,191.8 118.3,192.0 117.5,192.3 116.8,192.7 116.0,193.1 115.3,193.6 114.7,194.2 114.1,194.8 113.5,195.5 113.0,196.2 112.6,196.9 112.2,197.7 112.0,198.5 111.7,199.4 111.6,200.2 111.5,201.1 111.5,201.9 111.6,202.8 111.7,203.6 112.0,204.5 112.2,205.3 112.6,206.1 113.0,206.8 113.5,207.5 114.1,208.2 114.7,208.8 115.3,209.4 116.0,209.9 116.8,210.3 117.5,210.7 118.3,211.0 119.2,211.2 120.0,211.4 120.9,211.5 121.7,211.5 122.6,211.4 123.4,211.3 124.3,211.1 125.1,210.8 125.9,210.5 126.6,210.1 127.3,209.6 128.0,209.1 128.6,208.5 129.2,207.9 129.7,207.2 130.2,206.4 130.6,205.7 130.9,204.9 131.2,204.1 131.4,203.2 131.5,202.4" fill="#5F5F5F" stroke="#000000" stroke-width="1.0" stroke-linecap="round" stroke-linejoin="round" />
		</g>
		<g id="y" class="port">
			<polygon points="21.5,91.5 1.5,101.5 21.5,111.5" fill="#FFFFFF" stroke="#00007F" stroke-width="1.0" stroke-linecap="round" stroke-linejoin="round" />
		</g>
	</g>
</svg>
