<svg width="203" height="203" xmlns="http://www.w3.org/2000/svg" xmlns:xlink="http://www.w3.org/1999/xlink">
	<g id="Modelica.Thermal" class="component">
		<defs>
			<linearGradient id="cyl2" x1="0" y1="0" x2="0" y2="1">
				<stop offset="0%" stop-color="#C8C8C8" />
				<stop offset="5%" stop-color="#D1D1D1" />
				<stop offset="10%" stop-color="#D9D9D9" />
				<stop offset="15%" stop-color="#E0E0E0" />
				<stop offset="20%" stop-color="#E7E7E7" />
				<stop offset="25%" stop-color="#ECECEC" />
				<stop offset="30%" stop-color="#F0F0F0" />
				<stop offset="35%" stop-color="#F4F4F4" />
				<stop offset="40%" stop-color="#F6F6F6" />
				<stop offset="45%" stop-color="#F8F8F8" />
				<stop offset="50%" stop-color="#F8F8F8" />
				<stop offset="55%" stop-color="#F8F8F8" />
				<stop offset="60%" stop-color="#F6F6F6" />
				<stop offset="65%" stop-color="#F4F4F4" />
				<stop offset="70%" stop-color="#F0F0F0" />
				<stop offset="75%" stop-color="#ECECEC" />
				<stop offset="80%" stop-color="#E7E7E7" />
				<stop offset="85%" stop-color="#E0E0E0" />
				<stop offset="90%" stop-color="#D9D9D9" />
				<stop offset="95%" stop-color="#D1D1D1" />
				<stop offset="100%" stop-color="#C8C8C8" />
			</linearGradient>
		</defs>
		<polygon points="8.8,194.2 11.0,196.1 13.3,197.8 15.7,199.1 18.2,200.2 20.8,200.9 23.6,201.4 26.5,201.5 26.5,201.5 50.4,201.5 101.5,201.5 101.5,201.5 152.6,201.5 176.5,201.5 176.5,201.5 179.4,201.4 182.2,200.9 184.8,200.2 187.3,199.1 189.7,197.8 192.0,196.1 194.2,194.2 194.2,194.2 196.1,192.0 197.8,189.7 199.1,187.3 200.2,184.8 200.9,182.2 201.4,179.4 201.5,176.5 201.5,176.5 201.5,152.6 201.5,101.5 201.5,101.5 201.5,50.4 201.5,26.5 201.5,26.5 201.4,23.6 200.9,20.8 200.2,18.2 199.1,15.7 197.8,13.3 196.1,11.0 194.2,8.8 194.2,8.8 192.0,6.9 189.7,5.2 187.3,3.9 184.8,2.8 182.2,2.1 179.4,1.6 176.5,1.5 176.5,1.5 152.6,1.5 101.5,1.5 101.5,1.5 50.4,1.5 26.5,1.5 26.5,1.5 23.6,1.6 20.8,2.1 18.2,2.8 15.7,3.9 13.3,5.2 11.0,6.9 8.8,8.8 8.8,8.8 6.9,11.0 5.2,13.3 3.9,15.7 2.8,18.2 2.1,20.8 1.6,23.6 1.5,26.5 1.5,26.5 1.5,50.4 1.5,101.5 1.5,101.5 1.5,152.6 1.5,176.5 1.5,176.5 1.6,179.4 2.1,182.2 2.8,184.8 3.9,187.3 5.2,189.7 6.9,192.0" fill="url(#cyl2)" stroke="#C8C8C8" stroke-width="1.0" stroke-linecap="butt" stroke-linejoin="round" />
		<polygon points="8.8,194.2 11.0,196.1 13.3,197.8 15.7,199.1 18.2,200.2 20.8,200.9 23.6,201.4 26.5,201.5 26.5,201.5 50.4,201.5 101.5,201.5 101.5,201.5 152.6,201.5 176.5,201.5 176.5,201.5 179.4,201.4 182.2,200.9 184.8,200.2 187.3,199.1 189.7,197.8 192.0,196.1 194.2,194.2 194.2,194.2 196.1,192.0 197.8,189.7 199.1,187.3 200.2,184.8 200.9,182.2 201.4,179.4 201.5,176.5 201.5,176.5 201.5,152.6 201.5,101.5 201.5,101.5 201.5,50.4 201.5,26.5 201.5,26.5 201.4,23.6 200.9,20.8 200.2,18.2 199.1,15.7 197.8,13.3 196.1,11.0 194.2,8.8 194.2,8.8 192.0,6.9 189.7,5.2 187.3,3.9 184.8,2.8 182.2,2.1 179.4,1.6 176.5,1.5 176.5,1.5 152.6,1.5 101.5,1.5 101.5,1.5 50.4,1.5 26.5,1.5 26.5,1.5 23.6,1.6 20.8,2.1 18.2,2.8 15.7,3.9 13.3,5.2 11.0,6.9 8.8,8.8 8.8,8.8 6.9,11.0 5.2,13.3 3.9,15.7 2.8,18.2 2.1,20.8 1.6,23.6 1.5,26.5 1.5,26.5 1.5,50.4 1.5,101.5 1.5,101.5 1.5,152.6 1.5,176.5 1.5,176.5 1.6,179.4 2.1,182.2 2.8,184.8 3.9,187.3 5.2,189.7 6.9,192.0" fill-opacity="0" stroke="#808080" stroke-width="1.0" stroke-linecap="butt" stroke-linejoin="round" />
		<polyline points="51.5,181.5 61.5,171.5 63.4,169.3 64.5,167.1 64.8,164.8 64.5,162.6 63.4,160.4 61.5,158.2 58.9,155.9 55.6,153.7 51.5,151.5 51.5,151.5 45.9,148.2 42.6,144.8 41.5,141.5 42.6,138.2 45.9,134.8 51.5,131.5 51.5,131.5 57.1,128.2 60.4,124.8 61.5,121.5 60.4,118.2 57.1,114.8 51.5,111.5 51.5,111.5 45.9,108.2 42.6,104.8 41.5,101.5 42.6,98.2 45.9,94.8 51.5,91.5 51.5,91.5 55.6,89.3 58.9,87.1 61.5,84.8 63.4,82.6 64.5,80.4 64.8,78.2 64.5,75.9 63.4,73.7 61.5,71.5 61.5,71.5 59.4,69.3 57.5,67.1 55.9,64.8 54.6,62.6 53.5,60.4 52.6,58.2 52.0,55.9 51.6,53.7 51.5,51.5 51.5,41.5" fill-opacity="0" stroke="#000000" stroke-width="1.0" stroke-linecap="butt" stroke-linejoin="round" />
		<polygon points="51.5,11.5 41.5,41.5 61.5,41.5" fill="#000000" stroke-opacity="0" stroke-width="1.0" stroke-linecap="butt" stroke-linejoin="round" />
		<polyline points="101.5,181.5 111.5,171.5 113.4,169.3 114.5,167.1 114.8,164.8 114.5,162.6 113.4,160.4 111.5,158.2 108.9,155.9 105.6,153.7 101.5,151.5 101.5,151.5 95.9,148.2 92.6,144.8 91.5,141.5 92.6,138.2 95.9,134.8 101.5,131.5 101.5,131.5 107.1,128.2 110.4,124.8 111.5,121.5 110.4,118.2 107.1,114.8 101.5,111.5 101.5,111.5 95.9,108.2 92.6,104.8 91.5,101.5 92.6,98.2 95.9,94.8 101.5,91.5 101.5,91.5 105.6,89.3 108.9,87.1 111.5,84.8 113.4,82.6 114.5,80.4 114.8,78.2 114.5,75.9 113.4,73.7 111.5,71.5 111.5,71.5 109.4,69.3 107.5,67.1 105.9,64.8 104.6,62.6 103.5,60.4 102.6,58.2 102.0,55.9 101.6,53.7 101.5,51.5 101.5,41.5" fill-opacity="0" stroke="#000000" stroke-width="1.0" stroke-linecap="butt" stroke-linejoin="round" />
		<polygon points="101.5,11.5 91.5,41.5 111.5,41.5" fill="#000000" stroke-opacity="0" stroke-width="1.0" stroke-linecap="butt" stroke-linejoin="round" />
		<polyline points="151.5,181.5 161.5,171.5 163.4,169.3 164.5,167.1 164.8,164.8 164.5,162.6 163.4,160.4 161.5,158.2 158.9,155.9 155.6,153.7 151.5,151.5 151.5,151.5 145.9,148.2 142.6,144.8 141.5,141.5 142.6,138.2 145.9,134.8 151.5,131.5 151.5,131.5 157.1,128.2 160.4,124.8 161.5,121.5 160.4,118.2 157.1,114.8 151.5,111.5 151.5,111.5 145.9,108.2 142.6,104.8 141.5,101.5 142.6,98.2 145.9,94.8 151.5,91.5 151.5,91.5 155.6,89.3 158.9,87.1 161.5,84.8 163.4,82.6 164.5,80.4 164.8,78.2 164.5,75.9 163.4,73.7 161.5,71.5 161.5,71.5 159.4,69.3 157.5,67.1 155.9,64.8 154.6,62.6 153.5,60.4 152.6,58.2 152.0,55.9 151.6,53.7 151.5,51.5 151.5,41.5" fill-opacity="0" stroke="#000000" stroke-width="1.0" stroke-linecap="butt" stroke-linejoin="round" />
		<polygon points="151.5,11.5 141.5,41.5 161.5,41.5" fill="#000000" stroke-opacity="0" stroke-width="1.0" stroke-linecap="butt" stroke-linejoin="round" />
	</g>
</svg>
