<svg width="223" height="215" xmlns="http://www.w3.org/2000/svg" xmlns:xlink="http://www.w3.org/1999/xlink">
	<g id="Modelica.Magnetic.FundamentalWave.BasicMachines.Components.SymmetricMultiPhaseCageWinding_obsolete" class="component">
		<polygon points="9.5,205.5 213.5,205.5 213.5,1.5 9.5,1.5" fill-opacity="0" stroke="#FF0000" stroke-dasharray="3 4" stroke-width="1.0" stroke-linecap="round" stroke-linejoin="round" />
		<polygon points="191.5,103.5 191.2,96.6 190.3,89.8 188.8,83.1 186.8,76.5 184.2,70.1 181.1,64.0 177.4,58.2 173.3,52.7 168.7,47.5 163.6,42.8 158.2,38.6 152.5,34.8 146.4,31.5 140.1,28.8 133.6,26.6 126.9,25.0 120.1,24.0 113.2,23.5 106.3,23.7 99.5,24.4 92.7,25.7 86.1,27.6 79.7,30.1 73.5,33.1 67.6,36.6 62.0,40.6 56.8,45.1 52.0,50.1 47.6,55.4 43.7,61.0 40.3,67.0 37.4,73.3 35.1,79.8 33.3,86.4 32.2,93.2 31.6,100.1 31.6,106.9 32.2,113.8 33.3,120.6 35.1,127.2 37.4,133.7 40.3,140.0 43.7,146.0 47.6,151.6 52.0,156.9 56.8,161.9 62.0,166.4 67.6,170.4 73.5,173.9 79.7,176.9 86.1,179.4 92.7,181.3 99.5,182.6 106.3,183.3 113.2,183.5 120.1,183.0 126.9,182.0 133.6,180.4 140.1,178.2 146.4,175.5 152.5,172.2 158.2,168.4 163.6,164.2 168.7,159.5 173.3,154.3 177.4,148.8 181.1,143.0 184.2,136.9 186.8,130.5 188.8,123.9 190.3,117.2 191.2,110.4" fill="#AFAFAF" stroke="#000000" stroke-width="1.0" stroke-linecap="round" stroke-linejoin="round" />
		<polygon points="131.5,47.5 131.4,45.8 131.2,44.1 130.8,42.4 130.3,40.7 129.7,39.2 128.9,37.6 128.0,36.2 126.9,34.8 125.8,33.5 124.5,32.3 123.2,31.3 121.7,30.3 120.2,29.5 118.6,28.8 117.0,28.3 115.3,27.9 113.6,27.6 111.9,27.5 110.2,27.5 108.5,27.7 106.8,28.1 105.1,28.5 103.5,29.1 102.0,29.9 100.5,30.8 99.1,31.8 97.8,32.9 96.6,34.1 95.5,35.5 94.5,36.9 93.7,38.4 93.0,39.9 92.4,41.6 92.0,43.2 91.7,44.9 91.5,46.6 91.5,48.4 91.7,50.1 92.0,51.8 92.4,53.4 93.0,55.1 93.7,56.6 94.5,58.1 95.5,59.5 96.6,60.9 97.8,62.1 99.1,63.2 100.5,64.2 102.0,65.1 103.5,65.9 105.1,66.5 106.8,66.9 108.5,67.3 110.2,67.5 111.9,67.5 113.6,67.4 115.3,67.1 117.0,66.7 118.6,66.2 120.2,65.5 121.7,64.7 123.2,63.7 124.5,62.7 125.8,61.5 126.9,60.2 128.0,58.8 128.9,57.4 129.7,55.8 130.3,54.3 130.8,52.6 131.2,50.9 131.4,49.2" fill="#FFFFFF" stroke="#000000" stroke-width="1.0" stroke-linecap="round" stroke-linejoin="round" />
		<polygon points="179.5,77.5 179.4,75.8 179.2,74.1 178.8,72.4 178.3,70.7 177.7,69.2 176.9,67.6 176.0,66.2 174.9,64.8 173.8,63.5 172.5,62.3 171.2,61.3 169.7,60.3 168.2,59.5 166.6,58.8 165.0,58.3 163.3,57.9 161.6,57.6 159.9,57.5 158.2,57.5 156.5,57.7 154.8,58.1 153.1,58.5 151.5,59.1 150.0,59.9 148.5,60.8 147.1,61.8 145.8,62.9 144.6,64.1 143.5,65.5 142.5,66.9 141.7,68.4 141.0,69.9 140.4,71.6 140.0,73.2 139.7,74.9 139.5,76.6 139.5,78.4 139.7,80.1 140.0,81.8 140.4,83.4 141.0,85.1 141.7,86.6 142.5,88.1 143.5,89.5 144.6,90.9 145.8,92.1 147.1,93.2 148.5,94.2 150.0,95.1 151.5,95.9 153.1,96.5 154.8,96.9 156.5,97.3 158.2,97.5 159.9,97.5 161.6,97.4 163.3,97.1 165.0,96.7 166.6,96.2 168.2,95.5 169.7,94.7 171.2,93.7 172.5,92.7 173.8,91.5 174.9,90.2 176.0,88.8 176.9,87.4 177.7,85.8 178.3,84.3 178.8,82.6 179.2,80.9 179.4,79.2" fill="#FFFFFF" stroke="#000000" stroke-width="1.0" stroke-linecap="round" stroke-linejoin="round" />
		<polygon points="179.5,131.5 179.4,129.8 179.2,128.1 178.8,126.4 178.3,124.7 177.7,123.2 176.9,121.6 176.0,120.2 174.9,118.8 173.8,117.5 172.5,116.3 171.2,115.3 169.7,114.3 168.2,113.5 166.6,112.8 165.0,112.3 163.3,111.9 161.6,111.6 159.9,111.5 158.2,111.5 156.5,111.7 154.8,112.1 153.1,112.5 151.5,113.1 150.0,113.9 148.5,114.8 147.1,115.8 145.8,116.9 144.6,118.1 143.5,119.5 142.5,120.9 141.7,122.4 141.0,123.9 140.4,125.6 140.0,127.2 139.7,128.9 139.5,130.6 139.5,132.4 139.7,134.1 140.0,135.8 140.4,137.4 141.0,139.1 141.7,140.6 142.5,142.1 143.5,143.5 144.6,144.9 145.8,146.1 147.1,147.2 148.5,148.2 150.0,149.1 151.5,149.9 153.1,150.5 154.8,150.9 156.5,151.3 158.2,151.5 159.9,151.5 161.6,151.4 163.3,151.1 165.0,150.7 166.6,150.2 168.2,149.5 169.7,148.7 171.2,147.7 172.5,146.7 173.8,145.5 174.9,144.2 176.0,142.8 176.9,141.4 177.7,139.8 178.3,138.3 178.8,136.6 179.2,134.9 179.4,133.2" fill="#FFFFFF" stroke="#000000" stroke-width="1.0" stroke-linecap="round" stroke-linejoin="round" />
		<polygon points="131.5,159.5 131.4,157.8 131.2,156.1 130.8,154.4 130.3,152.7 129.7,151.2 128.9,149.6 128.0,148.2 126.9,146.8 125.8,145.5 124.5,144.3 123.2,143.3 121.7,142.3 120.2,141.5 118.6,140.8 117.0,140.3 115.3,139.9 113.6,139.6 111.9,139.5 110.2,139.5 108.5,139.7 106.8,140.1 105.1,140.5 103.5,141.1 102.0,141.9 100.5,142.8 99.1,143.8 97.8,144.9 96.6,146.1 95.5,147.5 94.5,148.9 93.7,150.4 93.0,151.9 92.4,153.6 92.0,155.2 91.7,156.9 91.5,158.6 91.5,160.4 91.7,162.1 92.0,163.8 92.4,165.4 93.0,167.1 93.7,168.6 94.5,170.1 95.5,171.5 96.6,172.9 97.8,174.1 99.1,175.2 100.5,176.2 102.0,177.1 103.5,177.9 105.1,178.5 106.8,178.9 108.5,179.3 110.2,179.5 111.9,179.5 113.6,179.4 115.3,179.1 117.0,178.7 118.6,178.2 120.2,177.5 121.7,176.7 123.2,175.7 124.5,174.7 125.8,173.5 126.9,172.2 128.0,170.8 128.9,169.4 129.7,167.8 130.3,166.3 130.8,164.6 131.2,162.9 131.4,161.2" fill="#FFFFFF" stroke="#000000" stroke-width="1.0" stroke-linecap="round" stroke-linejoin="round" />
		<polygon points="83.5,129.5 83.4,127.8 83.2,126.1 82.8,124.4 82.3,122.7 81.7,121.2 80.9,119.6 80.0,118.2 78.9,116.8 77.8,115.5 76.5,114.3 75.2,113.3 73.7,112.3 72.2,111.5 70.6,110.8 69.0,110.3 67.3,109.9 65.6,109.6 63.9,109.5 62.2,109.5 60.5,109.7 58.8,110.1 57.1,110.5 55.5,111.1 54.0,111.9 52.5,112.8 51.1,113.8 49.8,114.9 48.6,116.1 47.5,117.5 46.5,118.9 45.7,120.4 45.0,121.9 44.4,123.6 44.0,125.2 43.7,126.9 43.5,128.6 43.5,130.4 43.7,132.1 44.0,133.8 44.4,135.4 45.0,137.1 45.7,138.6 46.5,140.1 47.5,141.5 48.6,142.9 49.8,144.1 51.1,145.2 52.5,146.2 54.0,147.1 55.5,147.9 57.1,148.5 58.8,148.9 60.5,149.3 62.2,149.5 63.9,149.5 65.6,149.4 67.3,149.1 69.0,148.7 70.6,148.2 72.2,147.5 73.7,146.7 75.2,145.7 76.5,144.7 77.8,143.5 78.9,142.2 80.0,140.8 80.9,139.4 81.7,137.8 82.3,136.3 82.8,134.6 83.2,132.9 83.4,131.2" fill="#FFFFFF" stroke="#000000" stroke-width="1.0" stroke-linecap="round" stroke-linejoin="round" />
		<polygon points="85.5,73.5 85.4,71.8 85.2,70.1 84.8,68.4 84.3,66.7 83.7,65.2 82.9,63.6 82.0,62.2 80.9,60.8 79.8,59.5 78.5,58.3 77.2,57.3 75.7,56.3 74.2,55.5 72.6,54.8 71.0,54.3 69.3,53.9 67.6,53.6 65.9,53.5 64.2,53.5 62.5,53.7 60.8,54.1 59.1,54.5 57.5,55.1 56.0,55.9 54.5,56.8 53.1,57.8 51.8,58.9 50.6,60.1 49.5,61.5 48.5,62.9 47.7,64.4 47.0,65.9 46.4,67.6 46.0,69.2 45.7,70.9 45.5,72.6 45.5,74.4 45.7,76.1 46.0,77.8 46.4,79.4 47.0,81.1 47.7,82.6 48.5,84.1 49.5,85.5 50.6,86.9 51.8,88.1 53.1,89.2 54.5,90.2 56.0,91.1 57.5,91.9 59.1,92.5 60.8,92.9 62.5,93.3 64.2,93.5 65.9,93.5 67.6,93.4 69.3,93.1 71.0,92.7 72.6,92.2 74.2,91.5 75.7,90.7 77.2,89.7 78.5,88.7 79.8,87.5 80.9,86.2 82.0,84.8 82.9,83.4 83.7,81.8 84.3,80.3 84.8,78.6 85.2,76.9 85.4,75.2" fill="#FFFFFF" stroke="#000000" stroke-width="1.0" stroke-linecap="round" stroke-linejoin="round" />
		<polyline points="31.5,103.5 11.5,103.5" fill-opacity="0" stroke="#FF8000" stroke-width="1.0" stroke-linecap="round" stroke-linejoin="round" />
		<polyline points="211.5,103.5 191.5,103.5" fill-opacity="0" stroke="#FF8000" stroke-width="1.0" stroke-linecap="round" stroke-linejoin="round" />
		<g id="port_p" class="port">
			<polygon points="21.5,103.5 21.5,102.6 21.3,101.8 21.2,100.9 20.9,100.1 20.6,99.3 20.2,98.6 19.7,97.8 19.2,97.1 18.6,96.5 18.0,95.9 17.3,95.4 16.6,94.9 15.9,94.5 15.1,94.2 14.3,93.9 13.4,93.7 12.6,93.6 11.7,93.5 10.8,93.5 10.0,93.6 9.1,93.8 8.3,94.0 7.5,94.3 6.7,94.7 6.0,95.1 5.3,95.6 4.7,96.2 4.0,96.8 3.5,97.5 3.0,98.2 2.6,98.9 2.2,99.7 1.9,100.5 1.7,101.4 1.6,102.2 1.5,103.1 1.5,103.9 1.6,104.8 1.7,105.6 1.9,106.5 2.2,107.3 2.6,108.1 3.0,108.8 3.5,109.5 4.0,110.2 4.7,110.8 5.3,111.4 6.0,111.9 6.7,112.3 7.5,112.7 8.3,113.0 9.1,113.2 10.0,113.4 10.8,113.5 11.7,113.5 12.6,113.4 13.4,113.3 14.3,113.1 15.1,112.8 15.9,112.5 16.6,112.1 17.3,111.6 18.0,111.1 18.6,110.5 19.2,109.9 19.7,109.2 20.2,108.4 20.6,107.7 20.9,106.9 21.2,106.1 21.3,105.2 21.5,104.4" fill="#FF8000" stroke="#FF8000" stroke-width="1.0" stroke-linecap="round" stroke-linejoin="round" />
		</g>
		<g id="port_n" class="port">
			<polygon points="221.5,103.5 221.5,102.6 221.3,101.8 221.2,100.9 220.9,100.1 220.6,99.3 220.2,98.6 219.7,97.8 219.2,97.1 218.6,96.5 218.0,95.9 217.3,95.4 216.6,94.9 215.9,94.5 215.1,94.2 214.3,93.9 213.4,93.7 212.6,93.6 211.7,93.5 210.8,93.5 210.0,93.6 209.1,93.8 208.3,94.0 207.5,94.3 206.7,94.7 206.0,95.1 205.3,95.6 204.7,96.2 204.0,96.8 203.5,97.5 203.0,98.2 202.6,98.9 202.2,99.7 201.9,100.5 201.7,101.4 201.6,102.2 201.5,103.1 201.5,103.9 201.6,104.8 201.7,105.6 201.9,106.5 202.2,107.3 202.6,108.1 203.0,108.8 203.5,109.5 204.0,110.2 204.7,110.8 205.3,111.4 206.0,111.9 206.7,112.3 207.5,112.7 208.3,113.0 209.1,113.2 210.0,113.4 210.8,113.5 211.7,113.5 212.6,113.4 213.4,113.3 214.3,113.1 215.1,112.8 215.9,112.5 216.6,112.1 217.3,111.6 218.0,111.1 218.6,110.5 219.2,109.9 219.7,109.2 220.2,108.4 220.6,107.7 220.9,106.9 221.2,106.1 221.3,105.2 221.5,104.4" fill="#FFFFFF" stroke="#FF8000" stroke-width="1.0" stroke-linecap="round" stroke-linejoin="round" />
		</g>
		<g id="heatPortWinding" class="port">
			<polygon points="101.5,213.5 121.5,213.5 121.5,193.5 101.5,193.5" fill="#BF0000" stroke="#BF0000" stroke-width="1.0" stroke-linecap="round" stroke-linejoin="round" />
		</g>
	</g>
</svg>
