<svg width="243" height="233" xmlns="http://www.w3.org/2000/svg" xmlns:xlink="http://www.w3.org/1999/xlink">
	<g id="Modelica.Electrical.QuasiStationary.MultiPhase.Sensors.MultiSensor" class="component">
		<polygon points="191.5,111.5 191.2,105.5 190.5,99.5 189.2,93.6 187.4,87.9 185.1,82.3 182.4,76.9 179.2,71.8 175.6,67.0 171.5,62.5 167.1,58.4 162.4,54.7 157.4,51.4 152.1,48.5 146.5,46.1 140.8,44.2 135.0,42.8 129.0,41.9 123.0,41.5 117.0,41.6 111.0,42.3 105.1,43.4 99.3,45.1 93.7,47.3 88.3,49.9 83.1,53.0 78.2,56.5 73.6,60.4 69.4,64.7 65.6,69.4 62.2,74.3 59.2,79.6 56.7,85.1 54.7,90.7 53.1,96.6 52.1,102.5 51.6,108.5 51.6,114.5 52.1,120.5 53.1,126.4 54.7,132.3 56.7,137.9 59.2,143.4 62.2,148.6 65.6,153.6 69.4,158.3 73.6,162.6 78.2,166.5 83.1,170.0 88.3,173.1 93.7,175.7 99.3,177.9 105.1,179.5 111.0,180.7 117.0,181.4 123.0,181.5 129.0,181.1 135.0,180.2 140.8,178.8 146.5,176.9 152.1,174.5 157.4,171.6 162.4,168.3 167.1,164.6 171.5,160.5 175.6,156.0 179.2,151.2 182.4,146.1 185.1,140.7 187.4,135.1 189.2,129.4 190.5,123.5 191.2,117.5" fill="#F5F5F5" stroke="#000000" stroke-width="1.0" stroke-linecap="round" stroke-linejoin="round" />
		<polyline points="144.4,78.7 161.7,54.2" fill-opacity="0" stroke="#000000" stroke-width="1.0" stroke-linecap="round" stroke-linejoin="round" />
		<polyline points="98.6,78.7 81.3,54.2" fill-opacity="0" stroke="#000000" stroke-width="1.0" stroke-linecap="round" stroke-linejoin="round" />
		<polyline points="159.1,97.8 187.3,87.6" fill-opacity="0" stroke="#000000" stroke-width="1.0" stroke-linecap="round" stroke-linejoin="round" />
		<polyline points="83.9,97.8 55.7,87.6" fill-opacity="0" stroke="#000000" stroke-width="1.0" stroke-linecap="round" stroke-linejoin="round" />
		<polygon points="133.5,111.5 133.5,110.5 133.3,109.4 133.1,108.4 132.8,107.4 132.4,106.5 131.9,105.6 131.4,104.7 130.8,103.9 130.1,103.1 129.3,102.4 128.5,101.8 127.6,101.2 126.7,100.7 125.8,100.3 124.8,100.0 123.8,99.7 122.8,99.6 121.8,99.5 120.7,99.5 119.7,99.6 118.7,99.8 117.7,100.1 116.7,100.5 115.8,100.9 114.9,101.5 114.1,102.1 113.3,102.7 112.6,103.5 111.9,104.3 111.3,105.1 110.8,106.0 110.4,107.0 110.0,107.9 109.8,108.9 109.6,110.0 109.5,111.0 109.5,112.0 109.6,113.0 109.8,114.1 110.0,115.1 110.4,116.0 110.8,117.0 111.3,117.9 111.9,118.7 112.6,119.5 113.3,120.3 114.1,120.9 114.9,121.5 115.8,122.1 116.7,122.5 117.7,122.9 118.7,123.2 119.7,123.4 120.7,123.5 121.8,123.5 122.8,123.4 123.8,123.3 124.8,123.0 125.8,122.7 126.7,122.3 127.6,121.8 128.5,121.2 129.3,120.6 130.1,119.9 130.8,119.1 131.4,118.3 131.9,117.4 132.4,116.5 132.8,115.5 133.1,114.6 133.3,113.6 133.5,112.5" fill-opacity="0" stroke="#404040" stroke-width="1.0" stroke-linecap="round" stroke-linejoin="round" />
		<polygon points="116.7,110.0 137.6,53.7 141.0,49.5 141.4,54.9 126.3,113.0" fill="#404040" stroke-opacity="0" stroke-width="1.0" stroke-linecap="round" stroke-linejoin="round" />
		<polygon points="128.5,111.5 128.5,110.9 128.4,110.3 128.3,109.7 128.1,109.1 127.9,108.6 127.6,108.0 127.3,107.5 126.9,107.0 126.5,106.6 126.1,106.2 125.6,105.8 125.1,105.5 124.6,105.2 124.0,105.0 123.4,104.8 122.8,104.6 122.3,104.5 121.7,104.5 121.0,104.5 120.4,104.6 119.9,104.7 119.3,104.9 118.7,105.1 118.2,105.3 117.7,105.6 117.2,106.0 116.7,106.4 116.3,106.8 115.9,107.3 115.6,107.8 115.3,108.3 115.0,108.9 114.8,109.4 114.7,110.0 114.6,110.6 114.5,111.2 114.5,111.8 114.6,112.4 114.7,113.0 114.8,113.6 115.0,114.1 115.3,114.7 115.6,115.2 115.9,115.7 116.3,116.2 116.7,116.6 117.2,117.0 117.7,117.3 118.2,117.7 118.7,117.9 119.3,118.1 119.9,118.3 120.4,118.4 121.0,118.5 121.7,118.5 122.3,118.5 122.8,118.4 123.4,118.2 124.0,118.0 124.6,117.8 125.1,117.5 125.6,117.2 126.1,116.8 126.5,116.4 126.9,115.9 127.3,115.5 127.6,115.0 127.9,114.4 128.1,113.9 128.3,113.3 128.4,112.7 128.5,112.1" fill="#404040" stroke-opacity="0" stroke-width="1.0" stroke-linecap="round" stroke-linejoin="round" />
		<polyline points="121.5,11.5 121.5,41.5" fill-opacity="0" stroke="#55AAFF" stroke-width="1.0" stroke-linecap="round" stroke-linejoin="round" />
		<polyline points="121.5,181.5 121.5,211.5" fill-opacity="0" stroke="#55AAFF" stroke-width="1.0" stroke-linecap="round" stroke-linejoin="round" />
		<polyline points="21.5,111.5 221.5,111.5" fill-opacity="0" stroke="#55AAFF" stroke-width="1.0" stroke-linecap="round" stroke-linejoin="round" />
		<polyline points="121.5,41.5 121.5,71.5" fill-opacity="0" stroke="#000000" stroke-width="1.0" stroke-linecap="round" stroke-linejoin="round" />
		<polyline points="21.5,171.5 41.5,171.5 65.5,153.5" fill-opacity="0" stroke="#55AAFF" stroke-width="1.0" stroke-linecap="round" stroke-linejoin="round" />
		<polyline points="61.5,211.5 61.5,191.5 79.5,167.5" fill-opacity="0" stroke="#55AAFF" stroke-width="1.0" stroke-linecap="round" stroke-linejoin="round" />
		<polyline points="181.5,211.5 181.5,191.5 163.5,167.5" fill-opacity="0" stroke="#55AAFF" stroke-width="1.0" stroke-linecap="round" stroke-linejoin="round" />
		<text x="41.5" y="190.7" text-anchor="middle" fill="#000000" font-size="53.1px" font-family="sans-serif">s</text>
		<text x="61.5" y="210.7" text-anchor="middle" fill="#000000" font-size="53.1px" font-family="sans-serif">i</text>
		<text x="181.5" y="210.7" text-anchor="middle" fill="#000000" font-size="53.1px" font-family="sans-serif">v</text>
		<polyline points="221.5,171.5 201.5,171.5 177.5,153.5" fill-opacity="0" stroke="#55AAFF" stroke-width="1.0" stroke-linecap="round" stroke-linejoin="round" />
		<g id="pc" class="port">
			<polygon points="11.5,111.5 11.5,110.6 11.6,109.8 11.8,108.9 12.1,108.1 12.4,107.3 12.8,106.6 13.3,105.8 13.8,105.1 14.4,104.5 15.0,103.9 15.7,103.4 16.4,102.9 17.1,102.5 17.9,102.2 18.7,101.9 19.6,101.7 20.4,101.6 21.3,101.5 22.1,101.5 23.0,101.6 23.8,101.8 24.7,102.0 25.5,102.3 26.2,102.7 27.0,103.1 27.7,103.6 28.3,104.2 28.9,104.8 29.5,105.5 30.0,106.2 30.4,106.9 30.8,107.7 31.0,108.5 31.3,109.4 31.4,110.2 31.5,111.1 31.5,111.9 31.4,112.8 31.3,113.6 31.0,114.5 30.8,115.3 30.4,116.1 30.0,116.8 29.5,117.5 28.9,118.2 28.3,118.8 27.7,119.4 27.0,119.9 26.2,120.3 25.5,120.7 24.7,121.0 23.8,121.2 23.0,121.4 22.1,121.5 21.3,121.5 20.4,121.4 19.6,121.3 18.7,121.1 17.9,120.8 17.1,120.5 16.4,120.1 15.7,119.6 15.0,119.1 14.4,118.5 13.8,117.9 13.3,117.2 12.8,116.4 12.4,115.7 12.1,114.9 11.8,114.1 11.6,113.2 11.5,112.4" fill="#55AAFF" stroke="#55AAFF" stroke-width="1.0" stroke-linecap="round" stroke-linejoin="round" />
		</g>
		<g id="nc" class="port">
			<polygon points="211.5,111.5 211.5,110.6 211.6,109.8 211.8,108.9 212.1,108.1 212.4,107.3 212.8,106.6 213.3,105.8 213.8,105.1 214.4,104.5 215.0,103.9 215.7,103.4 216.4,102.9 217.1,102.5 217.9,102.2 218.7,101.9 219.6,101.7 220.4,101.6 221.3,101.5 222.1,101.5 223.0,101.6 223.8,101.8 224.7,102.0 225.5,102.3 226.2,102.7 227.0,103.1 227.7,103.6 228.3,104.2 228.9,104.8 229.5,105.5 230.0,106.2 230.4,106.9 230.8,107.7 231.0,108.5 231.3,109.4 231.4,110.2 231.5,111.1 231.5,111.9 231.4,112.8 231.3,113.6 231.0,114.5 230.8,115.3 230.4,116.1 230.0,116.8 229.5,117.5 228.9,118.2 228.3,118.8 227.7,119.4 227.0,119.9 226.2,120.3 225.5,120.7 224.7,121.0 223.8,121.2 223.0,121.4 222.1,121.5 221.3,121.5 220.4,121.4 219.6,121.3 218.7,121.1 217.9,120.8 217.1,120.5 216.4,120.1 215.7,119.6 215.0,119.1 214.4,118.5 213.8,117.9 213.3,117.2 212.8,116.4 212.4,115.7 212.1,114.9 211.8,114.1 211.6,113.2 211.5,112.4" fill="#FFFFFF" stroke="#55AAFF" stroke-width="1.0" stroke-linecap="round" stroke-linejoin="round" />
		</g>
		<g id="pv" class="port">
			<polygon points="131.5,11.5 131.5,12.4 131.4,13.2 131.2,14.1 130.9,14.9 130.6,15.7 130.2,16.4 129.7,17.2 129.2,17.9 128.6,18.5 128.0,19.1 127.3,19.6 126.6,20.1 125.9,20.5 125.1,20.8 124.3,21.1 123.4,21.3 122.6,21.4 121.7,21.5 120.9,21.5 120.0,21.4 119.2,21.2 118.3,21.0 117.5,20.7 116.8,20.3 116.0,19.9 115.3,19.4 114.7,18.8 114.1,18.2 113.5,17.5 113.0,16.8 112.6,16.1 112.2,15.3 112.0,14.5 111.7,13.6 111.6,12.8 111.5,11.9 111.5,11.1 111.6,10.2 111.7,9.4 112.0,8.5 112.2,7.7 112.6,6.9 113.0,6.2 113.5,5.5 114.1,4.8 114.7,4.2 115.3,3.6 116.0,3.1 116.8,2.7 117.5,2.3 118.3,2.0 119.2,1.8 120.0,1.6 120.9,1.5 121.7,1.5 122.6,1.6 123.4,1.7 124.3,1.9 125.1,2.2 125.9,2.5 126.6,2.9 127.3,3.4 128.0,3.9 128.6,4.5 129.2,5.1 129.7,5.8 130.2,6.6 130.6,7.3 130.9,8.1 131.2,8.9 131.4,9.8 131.5,10.6" fill="#55AAFF" stroke="#55AAFF" stroke-width="1.0" stroke-linecap="round" stroke-linejoin="round" />
		</g>
		<g id="nv" class="port">
			<polygon points="111.5,211.5 111.5,210.6 111.6,209.8 111.8,208.9 112.1,208.1 112.4,207.3 112.8,206.6 113.3,205.8 113.8,205.1 114.4,204.5 115.0,203.9 115.7,203.4 116.4,202.9 117.1,202.5 117.9,202.2 118.7,201.9 119.6,201.7 120.4,201.6 121.3,201.5 122.1,201.5 123.0,201.6 123.8,201.8 124.7,202.0 125.5,202.3 126.2,202.7 127.0,203.1 127.7,203.6 128.3,204.2 128.9,204.8 129.5,205.5 130.0,206.2 130.4,206.9 130.8,207.7 131.0,208.5 131.3,209.4 131.4,210.2 131.5,211.1 131.5,211.9 131.4,212.8 131.3,213.6 131.0,214.5 130.8,215.3 130.4,216.1 130.0,216.8 129.5,217.5 128.9,218.2 128.3,218.8 127.7,219.4 127.0,219.9 126.2,220.3 125.5,220.7 124.7,221.0 123.8,221.2 123.0,221.4 122.1,221.5 121.3,221.5 120.4,221.4 119.6,221.3 118.7,221.1 117.9,220.8 117.1,220.5 116.4,220.1 115.7,219.6 115.0,219.1 114.4,218.5 113.8,217.9 113.3,217.2 112.8,216.4 112.4,215.7 112.1,214.9 111.8,214.1 111.6,213.2 111.5,212.4" fill="#FFFFFF" stroke="#55AAFF" stroke-width="1.0" stroke-linecap="round" stroke-linejoin="round" />
		</g>
		<g id="i" class="port">
			<polygon points="52.2,212.2 51.7,213.0 51.5,214.0 51.5,214.0 51.5,216.4 51.5,221.5 51.5,221.5 51.5,226.6 51.5,229.0 51.5,229.0 51.7,230.0 52.2,230.8 52.2,230.8 53.0,231.3 54.0,231.5 54.0,231.5 56.4,231.5 61.5,231.5 61.5,231.5 66.6,231.5 69.0,231.5 69.0,231.5 70.0,231.3 70.8,230.8 70.8,230.8 71.3,230.0 71.5,229.0 71.5,229.0 71.5,226.6 71.5,221.5 71.5,221.5 71.5,216.4 71.5,214.0 71.5,214.0 71.3,213.0 70.8,212.2 70.8,212.2 70.0,211.7 69.0,211.5 69.0,211.5 66.6,211.5 61.5,211.5 61.5,211.5 56.4,211.5 54.0,211.5 54.0,211.5 53.0,211.7" fill="#A0A0A4" stroke="#A0A0A4" stroke-width="1.0" stroke-linecap="round" stroke-linejoin="round" />
			<g class="transform" transform="rotate(-90.0 66.7 221.5)">
				<text x="66.7" y="221.5" text-anchor="middle" fill="#FFFFFF" font-size="13.3px" font-family="sans-serif">C</text>
			</g>
			<polygon points="71.5,211.5 61.5,231.5 51.5,211.5" fill="#FFFFFF" stroke="#55AAFF" stroke-width="1.0" stroke-linecap="round" stroke-linejoin="round" />
		</g>
		<g id="v" class="port">
			<polygon points="172.2,212.2 171.7,213.0 171.5,214.0 171.5,214.0 171.5,216.4 171.5,221.5 171.5,221.5 171.5,226.6 171.5,229.0 171.5,229.0 171.7,230.0 172.2,230.8 172.2,230.8 173.0,231.3 174.0,231.5 174.0,231.5 176.4,231.5 181.5,231.5 181.5,231.5 186.6,231.5 189.0,231.5 189.0,231.5 190.0,231.3 190.8,230.8 190.8,230.8 191.3,230.0 191.5,229.0 191.5,229.0 191.5,226.6 191.5,221.5 191.5,221.5 191.5,216.4 191.5,214.0 191.5,214.0 191.3,213.0 190.8,212.2 190.8,212.2 190.0,211.7 189.0,211.5 189.0,211.5 186.6,211.5 181.5,211.5 181.5,211.5 176.4,211.5 174.0,211.5 174.0,211.5 173.0,211.7" fill="#A0A0A4" stroke="#A0A0A4" stroke-width="1.0" stroke-linecap="round" stroke-linejoin="round" />
			<g class="transform" transform="rotate(-90.0 186.7 221.5)">
				<text x="186.7" y="221.5" text-anchor="middle" fill="#FFFFFF" font-size="13.3px" font-family="sans-serif">C</text>
			</g>
			<polygon points="191.5,211.5 181.5,231.5 171.5,211.5" fill="#FFFFFF" stroke="#55AAFF" stroke-width="1.0" stroke-linecap="round" stroke-linejoin="round" />
		</g>
		<g id="apparentPower" class="port">
			<polygon points="20.8,180.8 20.0,181.3 19.0,181.5 19.0,181.5 16.6,181.5 11.5,181.5 11.5,181.5 6.4,181.5 4.0,181.5 4.0,181.5 3.0,181.3 2.2,180.8 2.2,180.8 1.7,180.0 1.5,179.0 1.5,179.0 1.5,176.6 1.5,171.5 1.5,171.5 1.5,166.4 1.5,164.0 1.5,164.0 1.7,163.0 2.2,162.2 2.2,162.2 3.0,161.7 4.0,161.5 4.0,161.5 6.4,161.5 11.5,161.5 11.5,161.5 16.6,161.5 19.0,161.5 19.0,161.5 20.0,161.7 20.8,162.2 20.8,162.2 21.3,163.0 21.5,164.0 21.5,164.0 21.5,166.4 21.5,171.5 21.5,171.5 21.5,176.6 21.5,179.0 21.5,179.0 21.3,180.0" fill="#A0A0A4" stroke="#A0A0A4" stroke-width="1.0" stroke-linecap="round" stroke-linejoin="round" />
			<g class="transform" transform="rotate(-360.0 11.5 176.7)">
				<text x="11.5" y="176.7" text-anchor="middle" fill="#FFFFFF" font-size="13.3px" font-family="sans-serif">C</text>
			</g>
			<polygon points="21.5,161.5 1.5,171.5 21.5,181.5" fill="#FFFFFF" stroke="#55AAFF" stroke-width="1.0" stroke-linecap="round" stroke-linejoin="round" />
		</g>
		<g id="apparentPowerTotal" class="port">
			<polygon points="222.2,180.8 223.0,181.3 224.0,181.5 224.0,181.5 226.4,181.5 231.5,181.5 231.5,181.5 236.6,181.5 239.0,181.5 239.0,181.5 240.0,181.3 240.8,180.8 240.8,180.8 241.3,180.0 241.5,179.0 241.5,179.0 241.5,176.6 241.5,171.5 241.5,171.5 241.5,166.4 241.5,164.0 241.5,164.0 241.3,163.0 240.8,162.2 240.8,162.2 240.0,161.7 239.0,161.5 239.0,161.5 236.6,161.5 231.5,161.5 231.5,161.5 226.4,161.5 224.0,161.5 224.0,161.5 223.0,161.7 222.2,162.2 222.2,162.2 221.7,163.0 221.5,164.0 221.5,164.0 221.5,166.4 221.5,171.5 221.5,171.5 221.5,176.6 221.5,179.0 221.5,179.0 221.7,180.0" fill="#A0A0A4" stroke="#A0A0A4" stroke-width="1.0" stroke-linecap="round" stroke-linejoin="round" />
			<g class="transform" transform="rotate(-360.0 231.5 176.7)">
				<text x="231.5" y="176.7" text-anchor="middle" fill="#FFFFFF" font-size="13.3px" font-family="sans-serif">C</text>
			</g>
			<polygon points="221.5,161.5 241.5,171.5 221.5,181.5" fill="#FFFFFF" stroke="#55AAFF" stroke-width="1.0" stroke-linecap="round" stroke-linejoin="round" />
		</g>
	</g>
</svg>
