<svg width="263" height="203" xmlns="http://www.w3.org/2000/svg" xmlns:xlink="http://www.w3.org/1999/xlink">
	<g id="Modelica.Blocks.Logical.Change" class="component">
		<polygon points="41.5,201.5 241.5,201.5 241.5,1.5 41.5,1.5" fill="#D2D2D2" stroke="#000000" stroke-width="1.5" stroke-linecap="round" stroke-linejoin="round" />
		<polyline points="44.5,200.0 240.0,200.0 240.0,4.5" fill-opacity="0" stroke="#696969" stroke-width="3.0" stroke-linecap="round" stroke-linejoin="round" />
		<polyline points="43.0,198.5 43.0,3.0 238.5,3.0" fill-opacity="0" stroke="#E9E9E9" stroke-width="3.0" stroke-linecap="round" stroke-linejoin="round" />
		<polygon points="70.5,101.5 70.5,100.9 70.4,100.3 70.3,99.7 70.1,99.1 69.9,98.6 69.6,98.0 69.3,97.5 68.9,97.1 68.5,96.6 68.1,96.2 67.6,95.8 67.1,95.5 66.6,95.2 66.0,95.0 65.4,94.8 64.8,94.6 64.3,94.5 63.7,94.5 63.0,94.5 62.4,94.6 61.9,94.7 61.3,94.9 60.7,95.1 60.2,95.3 59.7,95.6 59.2,96.0 58.7,96.4 58.3,96.8 57.9,97.3 57.6,97.8 57.3,98.3 57.0,98.9 56.8,99.4 56.7,100.0 56.6,100.6 56.5,101.2 56.5,101.8 56.6,102.4 56.7,103.0 56.8,103.6 57.0,104.1 57.3,104.7 57.6,105.2 57.9,105.7 58.3,106.2 58.7,106.6 59.2,107.0 59.7,107.4 60.2,107.7 60.7,107.9 61.3,108.1 61.9,108.3 62.4,108.4 63.0,108.5 63.7,108.5 64.3,108.5 64.8,108.4 65.4,108.2 66.0,108.0 66.6,107.8 67.1,107.5 67.6,107.2 68.1,106.8 68.5,106.4 68.9,105.9 69.3,105.5 69.6,105.0 69.9,104.4 70.1,103.9 70.3,103.3 70.4,102.7 70.5,102.1" fill="#EBEBEB" stroke="#EBEBEB" stroke-width="1.0" stroke-linecap="round" stroke-linejoin="round" />
		<polygon points="226.5,101.5 226.5,100.9 226.4,100.3 226.3,99.7 226.1,99.1 225.9,98.6 225.6,98.0 225.3,97.5 224.9,97.1 224.5,96.6 224.1,96.2 223.6,95.8 223.1,95.5 222.6,95.2 222.0,95.0 221.4,94.8 220.8,94.6 220.3,94.5 219.7,94.5 219.0,94.5 218.4,94.6 217.9,94.7 217.3,94.9 216.7,95.1 216.2,95.3 215.7,95.6 215.2,96.0 214.7,96.4 214.3,96.8 213.9,97.3 213.6,97.8 213.3,98.3 213.0,98.9 212.8,99.4 212.7,100.0 212.6,100.6 212.5,101.2 212.5,101.8 212.6,102.4 212.7,103.0 212.8,103.6 213.0,104.1 213.3,104.7 213.6,105.2 213.9,105.7 214.3,106.2 214.7,106.6 215.2,107.0 215.7,107.4 216.2,107.7 216.7,107.9 217.3,108.1 217.9,108.3 218.4,108.4 219.0,108.5 219.7,108.5 220.3,108.5 220.8,108.4 221.4,108.2 222.0,108.0 222.6,107.8 223.1,107.5 223.6,107.2 224.1,106.8 224.5,106.4 224.9,105.9 225.3,105.5 225.6,105.0 225.9,104.4 226.1,103.9 226.3,103.3 226.4,102.7 226.5,102.1" fill="#EBEBEB" stroke="#EBEBEB" stroke-width="1.0" stroke-linecap="round" stroke-linejoin="round" />
		<text x="141.5" y="115.3" text-anchor="middle" fill="#000000" font-size="56.3px" font-family="sans-serif">change</text>
		<g id="u" class="port">
			<polygon points="1.5,81.5 41.5,101.5 1.5,121.5" fill="#FF00FF" stroke="#FF00FF" stroke-width="1.0" stroke-linecap="round" stroke-linejoin="round" />
		</g>
		<g id="y" class="port">
			<polygon points="241.5,91.5 261.5,101.5 241.5,111.5" fill="#FFFFFF" stroke="#FF00FF" stroke-width="1.0" stroke-linecap="round" stroke-linejoin="round" />
		</g>
	</g>
</svg>
