<svg width="263" height="203" xmlns="http://www.w3.org/2000/svg" xmlns:xlink="http://www.w3.org/1999/xlink">
	<g id="Modelica.Blocks.Math.Tanh" class="component">
		<polygon points="41.5,201.5 241.5,201.5 241.5,1.5 41.5,1.5" fill="#FFFFFF" stroke="#00007F" stroke-width="1.0" stroke-linecap="butt" stroke-linejoin="round" />
		<polyline points="141.5,191.5 141.5,17.5" fill-opacity="0" stroke="#C0C0C0" stroke-width="1.0" stroke-linecap="butt" stroke-linejoin="round" />
		<polyline points="41.5,101.5 225.5,101.5" fill-opacity="0" stroke="#C0C0C0" stroke-width="1.0" stroke-linecap="butt" stroke-linejoin="round" />
		<polyline points="61.5,181.5 77.6,180.8 82.0,180.6 86.0,180.4 89.5,180.1 92.7,179.8 95.4,179.5 97.8,179.1 99.7,178.7 99.7,178.7 102.0,178.1 104.2,177.3 106.2,176.5 108.1,175.6 109.8,174.6 109.8,174.6 111.7,173.3 113.5,171.9 115.1,170.5 116.6,168.9 116.6,168.9 118.0,167.2 119.3,165.5 120.6,163.6 121.8,161.6 121.8,161.6 122.8,159.8 123.7,158.0 124.7,156.0 125.6,153.9 126.6,151.6 126.6,151.6 127.8,148.6 129.0,145.4 130.2,141.9 131.4,138.2 131.4,138.2 133.1,132.7 135.0,126.1 137.1,118.5 137.1,118.5 140.5,105.5 144.3,90.8 144.3,90.8 146.8,81.2 149.0,73.4 150.8,67.4 150.8,67.4 152.0,63.5 153.2,59.9 154.4,56.6 155.6,53.4 155.6,53.4 156.6,51.0 157.5,48.8 158.5,46.7 159.4,44.7 160.4,42.8 160.4,42.8 161.6,40.7 162.9,38.7 164.2,36.8 165.6,35.0 165.6,35.0 167.1,33.4 168.6,31.8 170.3,30.4 172.0,29.0 172.0,29.0 174.0,27.8 176.2,26.7 178.6,25.7 181.3,24.8 181.3,24.8 183.4,24.3 185.9,23.8 188.8,23.3 192.2,23.0 196.0,22.6 200.2,22.4 200.2,22.4 208.0,21.9 213.8,21.7 217.5,21.6 221.5,21.5" fill-opacity="0" stroke="#000000" stroke-width="1.0" stroke-linecap="butt" stroke-linejoin="round" />
		<polygon points="141.5,11.5 133.5,33.5 149.5,33.5" fill="#C0C0C0" stroke="#C0C0C0" stroke-width="1.0" stroke-linecap="butt" stroke-linejoin="round" />
		<text x="89.5" y="67.3" text-anchor="middle" fill="#C0C0C0" font-size="37.7px" font-family="sans-serif">tanh</text>
		<polygon points="231.5,101.5 209.5,93.5 209.5,109.5" fill="#C0C0C0" stroke="#C0C0C0" stroke-width="1.0" stroke-linecap="butt" stroke-linejoin="round" />
		<g id="u" class="port">
			<polygon points="1.5,81.5 41.5,101.5 1.5,121.5" fill="#00007F" stroke="#00007F" stroke-width="1.0" stroke-linecap="butt" stroke-linejoin="round" />
		</g>
		<g id="y" class="port">
			<polygon points="241.5,91.5 261.5,101.5 241.5,111.5" fill="#FFFFFF" stroke="#00007F" stroke-width="1.0" stroke-linecap="butt" stroke-linejoin="round" />
		</g>
	</g>
</svg>
