<svg width="213" height="203" xmlns="http://www.w3.org/2000/svg" xmlns:xlink="http://www.w3.org/1999/xlink">
	<g id="Modelica.Thermal.FluidHeatFlow.Sources.AbsolutePressure" class="component">
		<polygon points="201.5,101.5 201.2,93.8 200.2,86.1 198.5,78.5 196.2,71.1 193.3,64.0 189.8,57.1 185.7,50.5 181.0,44.3 175.8,38.5 170.2,33.3 164.1,28.5 157.6,24.2 150.8,20.5 143.7,17.5 136.3,15.0 128.8,13.2 121.2,12.0 113.4,11.5 105.7,11.7 98.0,12.5 90.4,14.0 83.0,16.1 75.7,18.9 68.8,22.3 62.1,26.3 55.8,30.8 49.9,35.8 44.5,41.4 39.6,47.4 35.2,53.7 31.4,60.5 28.2,67.5 25.6,74.8 23.6,82.3 22.2,89.9 21.6,97.6 21.6,105.4 22.2,113.1 23.6,120.7 25.6,128.2 28.2,135.5 31.4,142.5 35.2,149.3 39.6,155.6 44.5,161.6 49.9,167.2 55.8,172.2 62.1,176.7 68.8,180.7 75.7,184.1 83.0,186.9 90.4,189.0 98.0,190.5 105.7,191.3 113.4,191.5 121.2,191.0 128.8,189.8 136.3,188.0 143.7,185.5 150.8,182.5 157.6,178.8 164.1,174.5 170.2,169.7 175.8,164.5 181.0,158.7 185.7,152.5 189.8,145.9 193.3,139.0 196.2,131.9 198.5,124.5 200.2,116.9 201.2,109.2" fill="#FFFFFF" stroke="#FF0000" stroke-width="1.0" stroke-linecap="round" stroke-linejoin="round" />
		<g id="flowPort" class="port">
			<polygon points="1.5,111.5 21.5,111.5 21.5,91.5 1.5,91.5" fill="#FFFFFF" stroke="#FF0000" stroke-width="1.0" stroke-linecap="round" stroke-linejoin="round" />
			<polygon points="21.3,101.5 21.3,100.7 21.2,99.8 21.0,99.0 20.7,98.2 20.4,97.4 20.0,96.7 19.6,95.9 19.1,95.3 18.5,94.6 17.9,94.1 17.2,93.5 16.5,93.1 15.8,92.7 15.0,92.3 14.2,92.1 13.4,91.9 12.6,91.8 11.7,91.7 10.9,91.7 10.0,91.8 9.2,92.0 8.4,92.2 7.6,92.5 6.8,92.9 6.1,93.3 5.4,93.8 4.8,94.4 4.2,95.0 3.7,95.6 3.2,96.3 2.8,97.0 2.4,97.8 2.1,98.6 1.9,99.4 1.8,100.2 1.7,101.1 1.7,101.9 1.8,102.8 1.9,103.6 2.1,104.4 2.4,105.2 2.8,106.0 3.2,106.7 3.7,107.4 4.2,108.0 4.8,108.6 5.4,109.2 6.1,109.7 6.8,110.1 7.6,110.5 8.4,110.8 9.2,111.0 10.0,111.2 10.9,111.3 11.7,111.3 12.6,111.2 13.4,111.1 14.2,110.9 15.0,110.7 15.8,110.3 16.5,109.9 17.2,109.5 17.9,108.9 18.5,108.4 19.1,107.7 19.6,107.1 20.0,106.3 20.4,105.6 20.7,104.8 21.0,104.0 21.2,103.2 21.3,102.3" fill="#0000FF" stroke="#0000FF" stroke-width="1.0" stroke-linecap="round" stroke-linejoin="round" />
		</g>
	</g>
</svg>
