<?xml version="1.0" encoding="utf-8" ?>
<svg baseProfile="full" height="264.0" version="1.1" viewBox="0 0 310.0 264.0" width="310.0" xmlns="http://www.w3.org/2000/svg" xmlns:ev="http://www.w3.org/2001/xml-events" xmlns:xlink="http://www.w3.org/1999/xlink"><defs /><rect fill="rgb(255,255,255)" height="200.0" stroke="rgb(0,0,127)" stroke-width="0.25mm" width="200.0" x="55.0" y="55.0" /><defs /><text alignment-baseline="middle" fill="rgb(0,0,255)" font-family="Verdana" font-size="18" text-anchor="middle" x="155.0" y="25.0">name</text><defs /><rect fill="rgb(255,255,255)" height="100.0" stroke="rgb(0,0,127)" stroke-width="0.25mm" width="40.0" x="75.0" y="105.0" /><defs /><polygon fill="rgb(0,0,0)" points="70.5896,153.0921 70.5896,157.09208 74.5896,155.09208 70.5896,153.0921" stroke="rgb(0,0,127)" stroke-width="0.25mm" /><defs /><polyline fill="none" points="93.0,153.0 104.8605,142.093 115.8605,142.093" stroke="rgb(0,0,127)" stroke-width="0.25mm" /><defs /><polyline fill="none" points="92.0,151.0 106.0,115.0 116.0,115.0" stroke="rgb(0,0,127)" stroke-width="0.25mm" /><defs /><polyline fill="none" points="53.0,155.0 89.9627,155.01802" stroke="rgb(0,0,127)" stroke-width="0.25mm" /><defs /><ellipse cx="89.9563" cy="155.157475" fill="rgb(0,0,127)" rx="5.0" ry="4.749975" stroke="rgb(0,0,127)" stroke-width="0.25mm" /><defs /><polyline fill="none" points="92.0,160.0 105.0,195.0 116.0,195.0" stroke="rgb(0,0,127)" stroke-width="0.25mm" /><defs /><polyline fill="none" points="93.0,157.0 104.9302,167.907 115.9302,167.907" stroke="rgb(0,0,127)" stroke-width="0.25mm" /><defs /><polygon fill="rgb(255,255,255)" points="116.1192,166.0 116.1192,170.0 120.1192,168.0 116.1192,166.0" stroke="rgb(0,0,127)" stroke-width="0.25mm" /><defs /><polygon fill="rgb(255,255,255)" points="116.0,113.0 116.0,117.0 120.0,115.0 116.0,113.0" stroke="rgb(0,0,127)" stroke-width="0.25mm" /><defs /><polygon fill="rgb(255,255,255)" points="116.1272,193.0295 116.1272,197.0295 120.1272,195.0295 116.1272,193.0295" stroke="rgb(0,0,127)" stroke-width="0.25mm" /><defs /><polygon fill="rgb(255,255,255)" points="116.0017,140.1199 116.0017,144.1199 120.0017,142.1199 116.0017,140.1199" stroke="rgb(0,0,127)" stroke-width="0.25mm" /><defs /><rect fill="rgb(235,235,235)" height="100.0" stroke="rgb(0,0,127)" stroke-width="0.25mm" width="60.0" x="125.0" y="105.0" /><defs /><polyline fill="none" points="255.0,155.0 155.0,155.0" stroke="rgb(0,0,127)" stroke-width="0.25mm" /><defs /><polyline fill="none" points="155.0,153.0 155.0,259.0" stroke="rgb(255,128,0)" stroke-width="0.25mm" /><defs /><polyline fill="none" points="120.0,115.0 135.0,115.0" stroke="rgb(0,0,127)" stroke-width="0.25mm" /><defs /><polyline fill="none" points="120.0,142.0 135.0,142.0" stroke="rgb(0,0,127)" stroke-width="0.25mm" /><defs /><polyline fill="none" points="120.0,168.0 135.0,168.0" stroke="rgb(0,0,127)" stroke-width="0.25mm" /><defs /><polyline fill="none" points="120.0,195.0 135.0,195.0" stroke="rgb(0,0,127)" stroke-width="0.25mm" /><defs /><polygon fill="none" points="155.0,155.0 135.0,142.0 135.0,142.0 155.0,155.0 155.0,155.0" stroke="rgb(0,0,127)" stroke-width="0.25mm" /><defs /><ellipse cx="155.0" cy="155.0" fill="rgb(255,128,0)" rx="6.0" ry="6.0" stroke="rgb(255,128,0)" stroke-width="0.25mm" /><defs /><g id="u"><polygon fill="rgb(0,0,127)" points="15.0,135.0 55.0,155.0 15.0,175.0" stroke="rgb(0,0,127)" stroke-width="0.25mm" /><defs /><g display="none" id="info"><text id="name">u</text><text id="type">Modelica.Blocks.Interfaces.RealInput</text><text id="classDesc">'input Real' as connector</text><text id="desc" /></g></g><g id="y"><polygon fill="rgb(255,255,255)" points="15.0,135.0 55.0,155.0 15.0,175.0" stroke="rgb(0,0,127)" stroke-width="0.25mm" /><defs /><g display="none" id="info"><text id="name">y</text><text id="type">Modelica.Blocks.Interfaces.RealOutput</text><text id="classDesc">'output Real' as connector</text><text id="desc">Connector of Real output signal</text></g></g><g id="index"><polygon fill="rgb(255,127,0)" points="15.0,135.0 55.0,155.0 15.0,175.0 15.0,135.0" stroke="rgb(255,127,0)" stroke-width="0.25mm" /><defs /><g display="none" id="info"><text id="name">index</text><text id="type">Modelica.Blocks.Interfaces.IntegerInput</text><text id="classDesc">'input Integer' as connector</text><text id="desc" /></g></g></svg>