<?xml version="1.0" encoding="utf-8" ?>
<svg baseProfile="full" height="210.0" version="1.1" viewBox="0 0 250.0 210.0" width="250.0" xmlns="http://www.w3.org/2000/svg" xmlns:ev="http://www.w3.org/2001/xml-events" xmlns:xlink="http://www.w3.org/1999/xlink"><defs /><ellipse cx="145.0" cy="105.0" fill="rgb(255,255,255)" rx="100.0" ry="100.0" stroke="rgb(75,138,73)" stroke-width="0.25mm" /><defs /><polygon fill="rgb(75,138,73)" points="109.0,45.0 209.0,105.0 109.0,165.0 109.0,45.0" /><defs /><g id="controlBus"><rect fill="none" height="0.8" stroke="rgb(255,204,51)" stroke-width="0.5mm" width="8.0" x="21.0" y="104.6" /><defs /><path d="M 9.0 95.0 C 25.0 95.0 41.0 95.0 43.0 97.0 43.0 97.0 45.0 99.0 43.0 106.0 43.0 106.0 41.0 113.0 39.0 114.0 39.0 114.0 37.0 115.0 25.0 115.0 25.0 115.0 13.0 115.0 11.0 114.0 11.0 114.0 9.0 113.0 7.0 106.0 7.0 106.0 5.0 99.0 5.0 99.0" fill="rgb(255,215,136)" stroke="rgb(0,0,0)" stroke-width="0.25mm" /><defs /><ellipse cx="13.0" cy="101.0" fill="rgb(0,0,0)" rx="1.0" ry="1.0" stroke="rgb(0,0,0)" stroke-width="0.25mm" /><defs /><ellipse cx="25.0" cy="101.0" fill="rgb(0,0,0)" rx="1.0" ry="1.0" stroke="rgb(0,0,0)" stroke-width="0.25mm" /><defs /><ellipse cx="37.0" cy="101.0" fill="rgb(0,0,0)" rx="1.0" ry="1.0" stroke="rgb(0,0,0)" stroke-width="0.25mm" /><defs /><ellipse cx="19.0" cy="109.0" fill="rgb(0,0,0)" rx="1.0" ry="1.0" stroke="rgb(0,0,0)" stroke-width="0.25mm" /><defs /><ellipse cx="31.0" cy="109.0" fill="rgb(0,0,0)" rx="1.0" ry="1.0" stroke="rgb(0,0,0)" stroke-width="0.25mm" /><defs /><rect fill="none" height="0.8" stroke="rgb(255,204,51)" stroke-width="0.5mm" width="8.4" x="21.0" y="104.6" /><defs /><g display="none" id="info"><text id="name">controlBus</text><text id="type">Modelica.Blocks.Examples.BusUsage_Utilities.Interfaces.ControlBus</text><text id="classDesc">Control bus that is adapted to the signals connected to it</text><text id="desc" /></g></g></svg>