<?xml version="1.0" encoding="utf-8" ?>
<svg baseProfile="full" height="210" version="1.1" viewBox="0 0 250.0 210" width="250.0" xmlns="http://www.w3.org/2000/svg" xmlns:ev="http://www.w3.org/2001/xml-events" xmlns:xlink="http://www.w3.org/1999/xlink"><defs /><ellipse cx="190.0" cy="125.0" fill="none" rx="15.0" ry="30.0" stroke="rgb(0,0,255)" stroke-width="0.25mm" /><defs /><ellipse cx="160.0" cy="125.0" fill="none" rx="15.0" ry="30.0" stroke="rgb(0,0,255)" stroke-width="0.25mm" /><defs /><ellipse cx="130.0" cy="125.0" fill="none" rx="15.0" ry="30.0" stroke="rgb(0,0,255)" stroke-width="0.25mm" /><defs /><ellipse cx="100.0" cy="125.0" fill="none" rx="15.0" ry="30.0" stroke="rgb(0,0,255)" stroke-width="0.25mm" /><defs /><polyline fill="none" points="65.0,85.0 65.0,125.0 85.0,125.0" stroke="rgb(0,0,255)" stroke-width="0.25mm" /><defs /><polyline fill="none" points="65.0,85.0 85.0,85.0" stroke="rgb(0,0,255)" stroke-width="0.25mm" /><defs /><ellipse cx="100.0" cy="85.0" fill="none" rx="15.0" ry="30.0" stroke="rgb(0,0,255)" stroke-width="0.25mm" /><defs /><ellipse cx="130.0" cy="85.0" fill="none" rx="15.0" ry="30.0" stroke="rgb(0,0,255)" stroke-width="0.25mm" /><defs /><ellipse cx="160.0" cy="85.0" fill="none" rx="15.0" ry="30.0" stroke="rgb(0,0,255)" stroke-width="0.25mm" /><defs /><ellipse cx="190.0" cy="85.0" fill="none" rx="15.0" ry="30.0" stroke="rgb(0,0,255)" stroke-width="0.25mm" /><defs /><polyline fill="none" points="205.0,85.0 225.0,85.0" stroke="rgb(0,0,255)" stroke-width="0.25mm" /><defs /><polyline fill="none" points="225.0,85.0 225.0,125.0 205.0,125.0" stroke="rgb(0,0,255)" stroke-width="0.25mm" /><defs /><rect fill="rgb(255,255,255)" height="20.0" stroke="rgb(255,255,255)" stroke-width="0.25mm" width="120.0" x="85.0" y="85.0" /><defs /><rect fill="rgb(255,255,255)" height="20.0" stroke="rgb(255,255,255)" stroke-width="0.25mm" width="120.0" x="85.0" y="105.0" /><defs /><polyline fill="none" points="55.0,105.0 65.0,105.0" stroke="rgb(0,0,255)" stroke-width="0.25mm" /><defs /><polyline fill="none" points="225.0,105.0 235.0,105.0" stroke="rgb(0,0,255)" stroke-width="0.25mm" /><defs /><text alignment-baseline="middle" fill="rgb(0,0,255)" font-family="Verdana" font-size="18" text-anchor="middle" x="145.0" y="25.0">name</text><defs /><text alignment-baseline="middle" fill="rgb(0,0,0)" font-family="Verdana" font-size="18" text-anchor="middle" x="145.0" y="185.0">m=m</text><defs /><g id="plug_p"><ellipse cx="25.0" cy="105.0" fill="rgb(0,0,255)" rx="20.0" ry="20.0" stroke="rgb(0,0,255)" stroke-width="0.25mm" /><defs /><g display="none" id="info"><text id="name">plug_p</text><text id="type">Modelica.Electrical.MultiPhase.Interfaces.PositivePlug</text><text id="classDesc">Positive plug with m pins</text><text id="desc" /></g></g><g id="plug_n"><ellipse cx="25.0" cy="105.0" fill="rgb(255,255,255)" rx="20.0" ry="20.0" stroke="rgb(0,0,255)" stroke-width="0.25mm" /><defs /><g display="none" id="info"><text id="name">plug_n</text><text id="type">Modelica.Electrical.MultiPhase.Interfaces.NegativePlug</text><text id="classDesc">Negative plug with m pins</text><text id="desc" /></g></g></svg>