<?xml version="1.0" encoding="utf-8" ?>
<svg baseProfile="full" height="225.0" version="1.1" viewBox="0 0 310.0 225.0" width="310.0" xmlns="http://www.w3.org/2000/svg" xmlns:ev="http://www.w3.org/2001/xml-events" xmlns:xlink="http://www.w3.org/1999/xlink"><defs /><text alignment-baseline="middle" fill="rgb(128,128,128)" font-family="Verdana" font-size="18" text-anchor="middle" x="267.0" y="137.5">b</text><defs /><text alignment-baseline="middle" fill="rgb(192,192,192)" font-family="Verdana" font-size="18" text-anchor="middle" x="145.5" y="67.5">resolve</text><defs /><text alignment-baseline="middle" fill="rgb(0,0,255)" font-family="Verdana" font-size="18" text-anchor="middle" x="155.0" y="200.0">name</text><defs /><polyline fill="none" points="55.0,45.0 69.0,37.0 75.0,33.0 85.0,27.0 91.0,23.0 109.0,19.0 121.0,17.0 139.0,17.0 153.0,19.0 167.0,25.0 179.0,31.0 189.0,37.0 201.0,47.0 207.0,51.0 213.0,57.0" stroke="rgb(0,0,0)" stroke-width="0.5mm" /><defs /><polygon fill="rgb(0,0,0)" points="244.0,88.0 219.0,29.0 185.0,64.0 244.0,88.0" stroke="rgb(0,0,0)" stroke-width="0.25mm" /><defs /><polyline fill="none" points="155.0,10.0 155.0,131.0" stroke="rgb(95,95,95)" stroke-dasharray="1.0 2.0" stroke-width="0.25mm" /><defs /><polyline fill="none" points="155.0,105.0 251.0,105.0" stroke="rgb(95,95,95)" stroke-dasharray="1.0 2.0" stroke-width="0.25mm" /><defs /><polygon fill="rgb(0,0,0)" points="51.0,153.0 209.0,105.0 201.0,85.0 251.0,105.0 221.0,147.0 215.0,127.0 59.0,177.0 51.0,153.0" stroke="rgb(0,0,0)" stroke-width="0.25mm" /><defs /><g id="frame_b"><rect fill="none" height="4.0" stroke="rgb(95,95,95)" stroke-width="0.5mm" width="4.0" x="33.0" y="103.0" /><defs /><rect fill="rgb(255,255,255)" height="40.0" stroke="rgb(0,0,0)" stroke-width="0.25mm" width="12.0" x="29.0" y="85.0" /><defs /><g display="none" id="info"><text id="name">frame_b</text><text id="type">Modelica.Mechanics.MultiBody.Interfaces.Frame_b</text><text id="classDesc">Coordinate system fixed to the component with one cut-force and cut-torque (non-filled rectangular icon)</text><text id="desc">Coordinate system fixed to the component with one cut-force and cut-torque</text></g></g><g id="frame_resolve"><rect fill="none" height="4.0" stroke="rgb(95,95,95)" stroke-dasharray="1.0 2.0" stroke-width="0.25mm" width="4.0" x="33.0" y="103.0" /><defs /><rect fill="rgb(255,255,255)" height="40.0" stroke="rgb(95,95,95)" stroke-dasharray="1.0 2.0" stroke-width="0.25mm" width="12.0" x="29.0" y="85.0" /><defs /><g display="none" id="info"><text id="name">frame_resolve</text><text id="type">Modelica.Mechanics.MultiBody.Interfaces.Frame_resolve</text><text id="classDesc">Coordinate system fixed to the component used to express in which
coordinate system a vector is resolved (non-filled rectangular icon)</text><text id="desc">The input signals are optionally resolved in this frame</text></g></g><g id="force"><polygon fill="rgb(0,0,127)" points="15.0,85.0 55.0,105.0 15.0,125.0" stroke="rgb(0,0,127)" stroke-width="0.25mm" /><defs /><g display="none" id="info"><text id="name">force</text><text id="type">Modelica.Blocks.Interfaces.RealInput</text><text id="classDesc">'input Real' as connector</text><text id="desc" /></g></g><g id="torque"><polygon fill="rgb(0,0,127)" points="15.0,85.0 55.0,105.0 15.0,125.0" stroke="rgb(0,0,127)" stroke-width="0.25mm" /><defs /><g display="none" id="info"><text id="name">torque</text><text id="type">Modelica.Blocks.Interfaces.RealInput</text><text id="classDesc">'input Real' as connector</text><text id="desc" /></g></g></svg>