<?xml version="1.0" encoding="utf-8" ?>
<svg baseProfile="full" height="210.0" version="1.1" viewBox="0 0 210.0 210.0" width="210.0" xmlns="http://www.w3.org/2000/svg" xmlns:ev="http://www.w3.org/2001/xml-events" xmlns:xlink="http://www.w3.org/1999/xlink"><defs /><rect fill="url(#0)" height="20.0" stroke="rgb(64,64,64)" stroke-width="0.25mm" width="70.0" x="5.0" y="95.0" /><defs><linearGradient id="0" x1="0%" x2="0%" y1="0%" y2="100%"><stop offset="0" stop-color="rgb(64, 64, 64)" stop-opacity="1" /><stop offset="0.3" stop-color="rgb(192, 192, 192)" stop-opacity="1" /><stop offset="0.7" stop-color="rgb(192, 192, 192)" stop-opacity="1" /><stop offset="1" stop-color="rgb(64, 64, 64)" stop-opacity="1" /></linearGradient></defs><rect fill="url(#1)" height="120.0" stroke="rgb(64,64,64)" stroke-width="0.25mm" width="20.0" x="75.0" y="45.0" /><defs><linearGradient id="1" x1="0%" x2="0%" y1="0%" y2="100%"><stop offset="0" stop-color="rgb(64, 64, 64)" stop-opacity="1" /><stop offset="0.3" stop-color="rgb(255, 255, 255)" stop-opacity="1" /><stop offset="0.7" stop-color="rgb(255, 255, 255)" stop-opacity="1" /><stop offset="1" stop-color="rgb(64, 64, 64)" stop-opacity="1" /></linearGradient></defs><rect fill="none" height="120.0" stroke="rgb(64,64,64)" stroke-width="0.25mm" width="20.0" x="75.0" y="45.0" /><defs /><rect fill="url(#2)" height="120.0" stroke="rgb(64,64,64)" stroke-width="0.25mm" width="20.0" x="115.0" y="45.0" /><defs><linearGradient id="2" x1="0%" x2="0%" y1="0%" y2="100%"><stop offset="0" stop-color="rgb(64, 64, 64)" stop-opacity="1" /><stop offset="0.3" stop-color="rgb(255, 255, 255)" stop-opacity="1" /><stop offset="0.7" stop-color="rgb(255, 255, 255)" stop-opacity="1" /><stop offset="1" stop-color="rgb(64, 64, 64)" stop-opacity="1" /></linearGradient></defs><rect fill="none" height="120.0" stroke="rgb(64,64,64)" stroke-width="0.25mm" width="20.0" x="115.0" y="45.0" /><defs /><rect fill="url(#3)" height="20.0" stroke="rgb(64,64,64)" stroke-width="0.25mm" width="70.0" x="135.0" y="95.0" /><defs><linearGradient id="3" x1="0%" x2="0%" y1="0%" y2="100%"><stop offset="0" stop-color="rgb(64, 64, 64)" stop-opacity="1" /><stop offset="0.3" stop-color="rgb(192, 192, 192)" stop-opacity="1" /><stop offset="0.7" stop-color="rgb(192, 192, 192)" stop-opacity="1" /><stop offset="1" stop-color="rgb(64, 64, 64)" stop-opacity="1" /></linearGradient></defs><polygon fill="rgb(0,0,127)" points="75.0,65.0 45.0,55.0 45.0,75.0 75.0,65.0" stroke="rgb(0,0,127)" stroke-width="0.25mm" /><defs /><polygon fill="rgb(0,0,127)" points="135.0,65.0 165.0,55.0 165.0,75.0 135.0,65.0" stroke="rgb(0,0,127)" stroke-width="0.25mm" /><defs /><polyline fill="none" points="105.0,15.0 195.0,35.0 195.0,65.0 135.0,65.0" stroke="rgb(0,0,127)" stroke-width="0.25mm" /><defs /><polyline fill="none" points="105.0,15.0 15.0,35.0 15.0,65.0 75.0,65.0" stroke="rgb(0,0,127)" stroke-width="0.25mm" /><defs /></svg>