<?xml version="1.0" encoding="utf-8" ?>
<svg baseProfile="full" height="222.0" version="1.1" viewBox="0 0 310.0 222.0" width="310.0" xmlns="http://www.w3.org/2000/svg" xmlns:ev="http://www.w3.org/2001/xml-events" xmlns:xlink="http://www.w3.org/1999/xlink"><defs /><rect fill="none" height="204.0" stroke="rgb(255,0,0)" stroke-dasharray="8.0 4.0" stroke-width="0.5mm" width="204.0" x="53.0" y="13.0" /><defs /><ellipse cx="155.0" cy="115.0" fill="rgb(245,245,245)" rx="70.0" ry="70.0" stroke="rgb(0,0,0)" stroke-width="0.25mm" /><defs /><polyline fill="none" points="155.0,45.0 155.0,75.0" stroke="rgb(0,0,0)" stroke-width="0.25mm" /><defs /><polyline fill="none" points="177.9,82.2 195.2,57.7" stroke="rgb(0,0,0)" stroke-width="0.25mm" /><defs /><polyline fill="none" points="132.1,82.2 114.8,57.7" stroke="rgb(0,0,0)" stroke-width="0.25mm" /><defs /><polyline fill="none" points="192.6,101.3 220.8,91.1" stroke="rgb(0,0,0)" stroke-width="0.25mm" /><defs /><polyline fill="none" points="117.4,101.3 89.2,91.1" stroke="rgb(0,0,0)" stroke-width="0.25mm" /><defs /><ellipse cx="155.0" cy="115.0" fill="none" rx="12.0" ry="12.0" stroke="rgb(64,64,64)" stroke-width="0.25mm" /><defs /><polygon fill="rgb(64,64,64)" points="150.231401703,113.496513958 171.134393186,57.1754260153 174.545318547,53.0082221349 174.949271824,58.378214849 159.768598297,116.503486042" /><defs /><ellipse cx="155.0" cy="115.0" fill="rgb(64,64,64)" rx="7.0" ry="7.0" /><defs /><polyline fill="none" points="85.0,115.0 65.0,115.0" stroke="rgb(0,0,0)" stroke-width="0.25mm" /><defs /><polyline fill="none" points="225.0,115.0 245.0,115.0" stroke="rgb(0,0,0)" stroke-width="0.25mm" /><defs /><polyline fill="none" points="155.0,215.0 155.0,185.0" stroke="rgb(0,0,127)" stroke-width="0.25mm" /><defs /><text alignment-baseline="middle" fill="rgb(0,0,255)" font-family="Verdana" font-size="18" text-anchor="middle" x="155.0" y="25.0">name</text><defs /></svg>