<?xml version="1.0" encoding="utf-8" ?>
<svg baseProfile="full" height="260.0" version="1.1" viewBox="0 0 310.0 260.0" width="310.0" xmlns="http://www.w3.org/2000/svg" xmlns:ev="http://www.w3.org/2001/xml-events" xmlns:xlink="http://www.w3.org/1999/xlink"><defs /><ellipse cx="155.0" cy="224.0" fill="rgb(191,0,0)" rx="20.0" ry="19.0" stroke="rgb(0,0,0)" stroke-width="0.5mm" /><defs /><rect fill="rgb(191,0,0)" height="108.0" stroke="rgb(191,0,0)" stroke-width="0.25mm" width="24.0" x="143.0" y="105.0" /><defs /><polygon fill="none" points="143.0,105.0 143.0,65.0 145.0,59.0 149.0,57.0 155.0,55.0 161.0,57.0 165.0,59.0 167.0,65.0 167.0,105.0 143.0,105.0" stroke="rgb(0,0,0)" stroke-width="0.5mm" /><defs /><polyline fill="none" points="143.0,105.0 143.0,209.0" stroke="rgb(0,0,0)" stroke-width="0.5mm" /><defs /><polyline fill="none" points="167.0,105.0 167.0,209.0" stroke="rgb(0,0,0)" stroke-width="0.5mm" /><defs /><polyline fill="none" points="115.0,165.0 143.0,165.0" stroke="rgb(0,0,0)" stroke-width="0.25mm" /><defs /><polyline fill="none" points="115.0,125.0 143.0,125.0" stroke="rgb(0,0,0)" stroke-width="0.25mm" /><defs /><polyline fill="none" points="115.0,85.0 143.0,85.0" stroke="rgb(0,0,0)" stroke-width="0.25mm" /><defs /><text alignment-baseline="middle" fill="rgb(0,0,0)" font-family="Verdana" font-size="18" text-anchor="middle" x="221.0" y="200.0">T</text><defs /><text alignment-baseline="middle" fill="rgb(0,0,255)" font-family="Verdana" font-size="18" text-anchor="middle" x="155.0" y="25.0">name</text><defs /><polyline fill="none" points="167.0,155.0 215.0,155.0" stroke="rgb(0,0,127)" stroke-width="0.25mm" /><defs /><g id="port"><ellipse cx="35.0" cy="155.0" fill="rgb(0,127,255)" rx="20.0" ry="20.0" stroke="rgb(0,127,255)" stroke-width="0.25mm" /><defs /><ellipse cx="35.0" cy="155.0" fill="rgb(0,127,255)" rx="20.0" ry="20.0" stroke="rgb(0,0,0)" stroke-width="0.25mm" /><defs /><g display="none" id="info"><text id="name">port</text><text id="type">Modelica.Fluid.Interfaces.FluidPort_a</text><text id="classDesc">Generic fluid connector at design inlet</text><text id="desc" /></g></g><g id="T"><polygon fill="rgb(255,255,255)" points="15.0,135.0 55.0,155.0 15.0,175.0" stroke="rgb(0,0,127)" stroke-width="0.25mm" /><defs /><g display="none" id="info"><text id="name">T</text><text id="type">Modelica.Blocks.Interfaces.RealOutput</text><text id="classDesc">'output Real' as connector</text><text id="desc">Temperature in port medium</text></g></g></svg>