<?xml version="1.0" encoding="utf-8" ?>
<svg baseProfile="full" height="210.0" version="1.1" viewBox="0 0 210.0 210.0" width="210.0" xmlns="http://www.w3.org/2000/svg" xmlns:ev="http://www.w3.org/2001/xml-events" xmlns:xlink="http://www.w3.org/1999/xlink"><defs /><rect fill="url(#0)" height="200.0" rx="25.0" ry="25.0" stroke="rgb(200,200,200)" stroke-width="0.25mm" width="200.0" x="5.0" y="5.0" /><defs><linearGradient id="0" x1="0%" x2="0%" y1="0%" y2="100%"><stop offset="0" stop-color="rgb(200, 200, 200)" stop-opacity="1" /><stop offset="0.3" stop-color="rgb(248, 248, 248)" stop-opacity="1" /><stop offset="0.7" stop-color="rgb(248, 248, 248)" stop-opacity="1" /><stop offset="1" stop-color="rgb(200, 200, 200)" stop-opacity="1" /></linearGradient></defs><rect fill="none" height="200.0" rx="25.0" ry="25.0" stroke="rgb(128,128,128)" stroke-width="0.25mm" width="200.0" x="5.0" y="5.0" /><defs /><path d="M 5.0 74.6332 C 5.0 74.6332 5.0 74.6332 15.0001 67.4926 15.0001 67.4926 25.0002 60.352 30.0002 57.0415 30.0002 57.0415 35.0002 53.731 40.8962 50.953 40.8962 50.953 46.7922 48.175 52.4807 47.249 52.4807 47.249 58.1692 46.323 62.4022 47.5135 62.4022 47.5135 66.6352 48.704 69.4137 52.1435 69.4137 52.1435 72.1922 55.583 72.9857 59.0225 72.9857 59.0225 73.7792 62.462 74.0437 64.9755 74.0437 64.9755 74.3082 67.489 78.4092 63.653 78.4092 63.653 82.5102 59.817 87.1407 56.377 87.1407 56.377 91.7712 52.937 96.4012 50.556 96.4012 50.556 101.0312 48.175 107.1167 46.852 107.1167 46.852 113.2022 45.529 119.1552 46.5875 119.1552 46.5875 125.1082 47.646 127.8862 51.4825 127.8862 51.4825 130.6642 55.319 131.8552 60.0815 131.8552 60.0815 133.0462 64.844 137.2792 60.875 137.2792 60.875 141.5122 56.906 146.8042 53.334 146.8042 53.334 152.0962 49.762 158.0492 47.381 158.0492 47.381 164.0022 45.0 169.9552 45.132 169.9552 45.132 175.9082 45.264 180.6707 48.439 180.6707 48.439 185.4332 51.614 187.2852 57.435 187.2852 57.435 189.1372 63.256 188.6082 69.3415 188.6082 69.3415 188.0792 75.427 186.0947 80.7185 186.0947 80.7185 184.1102 86.01 180.9352 90.508 180.9352 90.508 177.7602 95.006 173.5272 100.6945 173.5272 100.6945 169.2942 106.383 165.0607 112.336 165.0607 112.336 160.8272 118.289 159.9012 118.0245 159.9012 118.0245 158.9752 117.76 163.7377 109.426 163.7377 109.426 168.5002 101.092 171.9397 94.2125 171.9397 94.2125 175.3792 87.333 177.2312 81.1155 177.2312 81.1155 179.0832 74.898 178.4217 70.4 178.4217 70.4 177.7602 65.902 174.1882 63.256 174.1882 63.256 170.6162 60.61 165.1927 61.2715 165.1927 61.2715 159.7692 61.933 153.6837 66.034 153.6837 66.034 147.5982 70.135 142.3062 75.162 142.3062 75.162 137.0142 80.189 132.1197 85.613 132.1197 85.613 127.2252 91.037 123.1242 96.329 123.1242 96.329 119.0232 101.621 115.1867 106.5155 115.1867 106.5155 111.3502 111.41 107.3812 116.5695 107.3812 116.5695 103.4122 121.729 100.1052 126.359 100.1052 126.359 96.7982 130.989 94.2847 134.6935 94.2847 134.6935 91.7712 138.398 90.8452 137.8685 90.8452 137.8685 89.9192 137.339 93.6232 131.5185 93.6232 131.5185 97.3272 125.698 100.3697 120.671 100.3697 120.671 103.4122 115.644 107.1167 108.897 107.1167 108.897 110.8212 102.15 114.1282 95.5355 114.1282 95.5355 117.4352 88.921 119.5522 82.9675 119.5522 82.9675 121.6692 77.014 121.0077 71.5905 121.0077 71.5905 120.3462 66.167 117.4357 63.918 117.4357 63.918 114.5252 61.669 110.2917 61.801 110.2917 61.801 106.0582 61.933 101.2957 63.9175 101.2957 63.9175 96.5332 65.902 91.6387 69.8705 91.6387 69.8705 86.7442 73.839 82.5107 78.205 82.5107 78.205 78.2772 82.571 73.5147 87.8625 73.5147 87.8625 68.7522 93.154 64.1222 98.8425 64.1222 98.8425 59.4922 104.531 54.7297 110.352 54.7297 110.352 49.9672 116.173 45.7337 122.2585 45.7337 122.2585 41.5002 128.344 37.5312 134.297 37.5312 134.297 33.5622 140.25 29.5937 146.0705 29.5937 146.0705 25.6252 151.891 22.9792 155.7275 22.9792 155.7275 20.3332 159.564 19.4072 159.2995 19.4072 159.2995 18.4812 159.035 22.3177 152.685 22.3177 152.685 26.1542 146.335 30.6522 138.662 30.6522 138.662 35.1502 130.989 40.4417 121.9935 40.4417 121.9935 45.7332 112.998 49.4377 106.648 49.4377 106.648 53.1422 100.298 56.1847 93.6835 56.1847 93.6835 59.2272 87.069 60.9472 81.645 60.9472 81.645 62.6672 76.221 62.1377 70.6645 62.1377 70.6645 61.6082 65.108 58.5657 63.1235 58.5657 63.1235 55.5232 61.139 50.7607 61.8005 50.7607 61.8005 45.9982 62.462 41.6327 65.2405 41.6327 65.2405 37.2672 68.019 33.1657 71.4585 33.1657 71.4585 29.0642 74.898 25.0957 78.602 25.0957 78.602 21.1272 82.306 13.0636 89.71435 13.0636 89.71435 5.0 97.1227 5.0 97.1227 5.0 97.1227 5.0 97.1227 5.0 97.1227" fill="rgb(0,0,0)" /><defs /><ellipse cx="145.82085" cy="142.76025" fill="rgb(161,0,4)" rx="17.85625" ry="17.85625" /><defs /></svg>