<?xml version="1.0" encoding="utf-8" ?>
<svg baseProfile="full" height="225.0" version="1.1" viewBox="0 0 295.0 225.0" width="295.0" xmlns="http://www.w3.org/2000/svg" xmlns:ev="http://www.w3.org/2001/xml-events" xmlns:xlink="http://www.w3.org/1999/xlink"><defs /><rect fill="none" height="204.0" stroke="rgb(255,0,0)" stroke-dasharray="8.0 4.0" stroke-width="0.5mm" width="204.0" x="39.0" y="5.0" /><defs /><text alignment-baseline="middle" fill="rgb(128,128,128)" font-family="Verdana" font-size="18" text-anchor="middle" x="23.0" y="144.5">a</text><defs /><text alignment-baseline="middle" fill="rgb(128,128,128)" font-family="Verdana" font-size="18" text-anchor="middle" x="259.0" y="144.5">b</text><defs /><rect fill="rgb(255,255,255)" height="197.0" stroke="rgb(255,255,255)" stroke-width="0.25mm" width="197.0" x="43.0" y="8.0" /><defs /><text alignment-baseline="middle" fill="rgb(192,192,192)" font-family="Verdana" font-size="18" text-anchor="middle" x="147.5" y="64.5">resolve</text><defs /><text alignment-baseline="middle" fill="rgb(0,0,0)" font-family="Verdana" font-size="18" text-anchor="middle" x="147.5" y="189.5">name</text><defs /><polygon fill="rgb(0,0,0)" points="241.0,86.0 225.0,52.0 210.0,68.0 241.0,86.0" stroke="rgb(0,0,0)" stroke-width="0.25mm" /><defs /><polyline fill="none" points="181.0,7.0 181.0,107.0" stroke="rgb(95,95,95)" stroke-dasharray="1.0 2.0" stroke-width="0.25mm" /><defs /><polygon fill="rgb(0,0,0)" points="46.0,106.0 77.0,96.0 77.0,117.0 46.0,106.0" stroke="rgb(0,0,0)" stroke-width="0.25mm" /><defs /><polygon fill="rgb(0,0,0)" points="41.0,87.0 55.0,54.0 71.0,65.0 41.0,87.0" stroke="rgb(0,0,0)" stroke-width="0.25mm" /><defs /><polyline fill="none" points="81.0,7.0 181.0,7.0" stroke="rgb(95,95,95)" stroke-dasharray="1.0 2.0" stroke-width="0.25mm" /><defs /><polygon fill="rgb(0,0,0)" points="235.0,107.0 206.0,95.0 206.0,118.0 235.0,107.0" stroke="rgb(0,0,0)" stroke-width="0.25mm" /><defs /><polyline fill="none" points="77.0,107.0 121.0,107.0" stroke="rgb(0,0,0)" stroke-width="0.25mm" /><defs /><polyline fill="none" points="161.0,107.0 206.0,107.0" stroke="rgb(0,0,0)" stroke-width="0.25mm" /><defs /><polyline fill="none" points="62.0,60.0 71.0,46.0 82.0,35.0 96.0,26.0 109.0,23.0 121.0,22.0" stroke="rgb(0,0,0)" stroke-width="0.25mm" /><defs /><polyline fill="none" points="217.0,60.0 207.0,47.0 196.0,38.0 190.0,33.0 182.0,27.0 172.0,23.0 161.0,22.0" stroke="rgb(0,0,0)" stroke-width="0.25mm" /><defs /></svg>