<?xml version="1.0" encoding="utf-8" ?>
<svg baseProfile="full" height="210.0" version="1.1" viewBox="0 0 250.0 210.0" width="250.0" xmlns="http://www.w3.org/2000/svg" xmlns:ev="http://www.w3.org/2001/xml-events" xmlns:xlink="http://www.w3.org/1999/xlink"><defs /><rect fill="rgb(255,255,255)" height="48.0" width="52.0" x="143.0" y="107.0" /><defs /><polyline fill="none" points="145.0,105.0 225.0,105.0 205.0,95.0 205.0,115.0 225.0,105.0" stroke="rgb(0,0,255)" stroke-width="0.25mm" /><defs /><polyline fill="none" points="145.0,105.0 145.0,25.0 135.0,45.0 155.0,45.0 145.0,25.0" stroke="rgb(0,0,255)" stroke-width="0.25mm" /><defs /><polygon fill="rgb(0,0,255)" points="195.0,105.0 187.0,91.0 199.0,89.0 195.0,105.0" stroke="rgb(0,0,255)" stroke-width="0.25mm" /><defs /><ellipse cx="145.0" cy="105.0" fill="none" rx="50.0" ry="50.0" stroke="rgb(0,0,255)" stroke-width="0.25mm" /><defs /><rect fill="rgb(255,255,255)" height="102.0" width="50.0" x="94.0" y="54.0" /><defs /><rect fill="rgb(255,255,255)" height="50.0" width="52.0" x="144.0" y="106.0" /><defs /><g id="spacePhasor_a"><polygon fill="rgb(0,0,255)" points="25.0,85.0 5.0,105.0 25.0,125.0 45.0,105.0 25.0,85.0" stroke="rgb(0,0,255)" stroke-width="0.25mm" /><defs /><g display="none" id="info"><text id="name">spacePhasor_a</text><text id="type">Modelica.Electrical.Machines.Interfaces.SpacePhasor</text><text id="classDesc">Connector for Space Phasors</text><text id="desc" /></g></g><g id="spacePhasor_b"><polygon fill="rgb(0,0,255)" points="25.0,85.0 5.0,105.0 25.0,125.0 45.0,105.0 25.0,85.0" stroke="rgb(0,0,255)" stroke-width="0.25mm" /><defs /><g display="none" id="info"><text id="name">spacePhasor_b</text><text id="type">Modelica.Electrical.Machines.Interfaces.SpacePhasor</text><text id="classDesc">Connector for Space Phasors</text><text id="desc" /></g></g><g id="angle"><polygon fill="rgb(0,0,127)" points="5.0,85.0 45.0,105.0 5.0,125.0" stroke="rgb(0,0,127)" stroke-width="0.25mm" /><defs /><g display="none" id="info"><text id="name">angle</text><text id="type">Modelica.Blocks.Interfaces.RealInput</text><text id="classDesc">'input Real' as connector</text><text id="desc" /></g></g></svg>