<?xml version="1.0" encoding="utf-8" ?>
<svg baseProfile="full" height="270.0" version="1.1" viewBox="0 0 250.0 270.0" width="250.0" xmlns="http://www.w3.org/2000/svg" xmlns:ev="http://www.w3.org/2001/xml-events" xmlns:xlink="http://www.w3.org/1999/xlink"><defs /><rect fill="rgb(255,255,255)" height="200.0" stroke="rgb(255,255,255)" stroke-width="0.25mm" width="180.0" x="55.0" y="65.0" /><defs /><rect fill="rgb(255,128,0)" height="60.0" stroke="rgb(255,128,0)" stroke-width="0.25mm" width="94.0" x="141.0" y="135.0" /><defs /><rect fill="rgb(255,128,0)" height="60.0" stroke="rgb(255,128,0)" stroke-width="0.25mm" width="50.0" x="55.0" y="135.0" /><defs /><rect fill="rgb(255,128,0)" height="200.0" stroke="rgb(255,128,0)" stroke-width="0.25mm" width="10.0" x="55.0" y="65.0" /><defs /><rect fill="rgb(255,128,0)" height="10.0" stroke="rgb(255,128,0)" stroke-width="0.25mm" width="180.0" x="55.0" y="65.0" /><defs /><rect fill="rgb(255,128,0)" height="10.0" stroke="rgb(255,128,0)" stroke-width="0.25mm" width="180.0" x="55.0" y="255.0" /><defs /><rect fill="rgb(255,128,0)" height="60.0" stroke="rgb(255,128,0)" stroke-width="0.25mm" width="10.0" x="225.0" y="65.0" /><defs /><rect fill="rgb(255,128,0)" height="60.0" stroke="rgb(255,128,0)" stroke-width="0.25mm" width="10.0" x="225.0" y="205.0" /><defs /><rect fill="rgb(255,213,170)" height="40.0" stroke="rgb(255,213,170)" stroke-width="0.25mm" width="140.0" x="75.0" y="85.0" /><defs /><rect fill="rgb(255,213,170)" height="40.0" stroke="rgb(255,213,170)" stroke-width="0.25mm" width="140.0" x="75.0" y="205.0" /><defs /><polyline fill="none" points="149.0,135.0 149.0,133.0 147.0,127.0 141.0,117.0 131.0,105.0 123.0,93.0 121.0,85.0 121.0,75.0" stroke="rgb(255,128,0)" stroke-width="0.25mm" /><defs /><polyline fill="none" points="167.0,135.0 167.0,133.0 165.0,127.0 159.0,117.0 149.0,105.0 141.0,93.0 139.0,85.0 139.0,75.0" stroke="rgb(255,128,0)" stroke-width="0.25mm" /><defs /><polyline fill="none" points="185.0,135.0 185.0,133.0 183.0,127.0 177.0,117.0 167.0,105.0 159.0,93.0 157.0,85.0 157.0,75.0" stroke="rgb(255,128,0)" stroke-width="0.25mm" /><defs /><text alignment-baseline="middle" fill="rgb(0,0,255)" font-family="Verdana" font-size="18" text-anchor="middle" x="145.0" y="25.0">name</text><defs /><g id="p"><rect fill="rgb(0,0,255)" height="40.0" stroke="rgb(0,0,255)" stroke-width="0.25mm" width="40.0" x="5.0" y="145.0" /><defs /><g display="none" id="info"><text id="name">p</text><text id="type">Modelica.Electrical.Analog.Interfaces.PositivePin</text><text id="classDesc">Positive pin of an electric component</text><text id="desc">Electrical connector</text></g></g><g id="n"><rect fill="rgb(255,255,255)" height="40.0" stroke="rgb(0,0,255)" stroke-width="0.25mm" width="40.0" x="5.0" y="145.0" /><defs /><g display="none" id="info"><text id="name">n</text><text id="type">Modelica.Electrical.Analog.Interfaces.NegativePin</text><text id="classDesc">Negative pin of an electric component</text><text id="desc">Electrical connector</text></g></g><g id="flange"><rect fill="rgb(255,255,255)" height="40.0" stroke="rgb(0,127,0)" stroke-width="0.25mm" width="40.0" x="5.0" y="145.0" /><defs /><g display="none" id="info"><text id="name">flange</text><text id="type">Modelica.Mechanics.Translational.Interfaces.Flange_b</text><text id="classDesc">(right) 1D translational flange (flange axis directed OUT OF cut plane)</text><text id="desc">Flange of component</text></g></g></svg>