<?xml version="1.0" encoding="utf-8" ?>
<svg baseProfile="full" height="290.0" version="1.1" viewBox="0 0 310.0 290.0" width="310.0" xmlns="http://www.w3.org/2000/svg" xmlns:ev="http://www.w3.org/2001/xml-events" xmlns:xlink="http://www.w3.org/1999/xlink"><defs /><rect fill="none" height="204.0" stroke="rgb(255,0,0)" stroke-dasharray="8.0 4.0" stroke-width="0.5mm" width="204.0" x="53.0" y="43.0" /><defs /><rect fill="rgb(255,255,255)" height="192.0" stroke="rgb(255,255,255)" stroke-width="0.25mm" width="192.0" x="59.0" y="49.0" /><defs /><polyline fill="none" points="125.0,215.0 185.0,215.0" stroke="rgb(0,0,0)" stroke-width="0.25mm" /><defs /><polyline fill="none" points="125.0,235.0 145.0,215.0" stroke="rgb(0,0,0)" stroke-width="0.25mm" /><defs /><polyline fill="none" points="145.0,235.0 165.0,215.0" stroke="rgb(0,0,0)" stroke-width="0.25mm" /><defs /><rect fill="rgb(192,192,192)" height="40.0" stroke="rgb(192,192,192)" stroke-width="0.25mm" width="40.0" x="135.0" y="245.0" /><defs /><polyline fill="none" points="165.0,235.0 185.0,215.0" stroke="rgb(0,0,0)" stroke-width="0.25mm" /><defs /><polyline fill="none" points="155.0,215.0 155.0,255.0" stroke="rgb(0,0,0)" stroke-width="0.25mm" /><defs /><polyline fill="none" points="63.0,145.0 79.0,109.0 101.0,83.0 125.0,65.0 141.0,57.0 165.0,53.0 181.0,55.0 201.0,65.0 219.0,83.0" stroke="rgb(0,0,0)" stroke-width="0.25mm" /><defs /><text alignment-baseline="middle" fill="rgb(0,0,255)" font-family="Verdana" font-size="18" text-anchor="middle" x="155.0" y="25.0">name</text><defs /><polygon fill="rgb(0,0,0)" points="249.0,129.0 235.0,71.0 205.0,93.0 249.0,129.0" stroke="rgb(0,0,0)" stroke-width="0.25mm" /><defs /></svg>