<?xml version="1.0" encoding="utf-8" ?>
<svg baseProfile="full" height="210.0" version="1.1" viewBox="0 0 410.0 210.0" width="410.0" xmlns="http://www.w3.org/2000/svg" xmlns:ev="http://www.w3.org/2001/xml-events" xmlns:xlink="http://www.w3.org/1999/xlink"><defs /><rect fill="url(#0)" height="200.0" stroke="rgb(255,255,255)" stroke-width="0.25mm" width="200.0" x="5.0" y="5.0" /><defs><linearGradient id="0" x1="0%" x2="100%" y1="0%" y2="0%"><stop offset="0" stop-color="rgb(255, 255, 255)" stop-opacity="1" /><stop offset="0.3" stop-color="rgb(255, 255, 255)" stop-opacity="1" /><stop offset="0.7" stop-color="rgb(255, 255, 255)" stop-opacity="1" /><stop offset="1" stop-color="rgb(255, 255, 255)" stop-opacity="1" /></linearGradient></defs><rect fill="url(#1)" height="100.0" stroke="rgb(0,0,0)" stroke-width="0.25mm" width="200.0" x="5.0" y="105.0" /><defs><linearGradient id="1" x1="0%" x2="100%" y1="0%" y2="0%"><stop offset="0" stop-color="rgb(0, 0, 0)" stop-opacity="1" /><stop offset="0.3" stop-color="rgb(85, 170, 255)" stop-opacity="1" /><stop offset="0.7" stop-color="rgb(85, 170, 255)" stop-opacity="1" /><stop offset="1" stop-color="rgb(0, 0, 0)" stop-opacity="1" /></linearGradient></defs><polyline fill="none" points="5.0,5.0 5.0,205.0 205.0,205.0 205.0,5.0" stroke="rgb(0,0,0)" stroke-width="0.25mm" /><defs /><text alignment-baseline="middle" fill="rgb(0,0,255)" font-family="Verdana" font-size="18" text-anchor="middle" x="105.0" y="39.0">name</text><defs /><polygon fill="url(#2)" points="205.0,5.0 405.0,35.0 405.0,55.0 405.0,55.0 205.0,25.0 205.0,5.0" stroke="rgb(0,0,0)" stroke-width="0.25mm" /><defs><linearGradient id="2" x1="0%" x2="0%" y1="0%" y2="100%"><stop offset="0" stop-color="rgb(0, 0, 0)" stop-opacity="1" /><stop offset="0.3" stop-color="rgb(0, 0, 255)" stop-opacity="1" /><stop offset="0.7" stop-color="rgb(0, 0, 255)" stop-opacity="1" /><stop offset="1" stop-color="rgb(0, 0, 0)" stop-opacity="1" /></linearGradient></defs><polygon fill="url(#3)" points="225.0,7.0 235.0,31.0 257.0,21.0 271.0,33.0 291.0,27.0 303.0,39.0 323.0,31.0 335.0,45.0 349.0,35.0 357.0,45.0 373.0,39.0 385.0,51.0 401.0,31.0 395.0,29.0 385.0,41.0 375.0,35.0 361.0,39.0 353.0,29.0 337.0,37.0 325.0,25.0 305.0,31.0 293.0,17.0 275.0,27.0 255.0,13.0 237.0,23.0 233.0,5.0 225.0,7.0 225.0,7.0" stroke="rgb(0,0,0)" stroke-width="0.25mm" /><defs><linearGradient id="3" x1="0%" x2="0%" y1="0%" y2="100%"><stop offset="0" stop-color="rgb(0, 0, 0)" stop-opacity="1" /><stop offset="0.3" stop-color="rgb(170, 255, 255)" stop-opacity="1" /><stop offset="0.7" stop-color="rgb(170, 255, 255)" stop-opacity="1" /><stop offset="1" stop-color="rgb(0, 0, 0)" stop-opacity="1" /></linearGradient></defs><text alignment-baseline="middle" fill="rgb(0,0,0)" font-family="Verdana" font-size="18" text-anchor="middle" x="107.0" y="85.0">level =</text><defs /><text alignment-baseline="middle" fill="rgb(0,0,0)" font-family="Verdana" font-size="18" text-anchor="middle" x="105.0" y="153.0">level_start</text><defs /><g id="BottomFluidPort"><ellipse cx="85.0" cy="105.0" fill="rgb(0,127,255)" rx="20.0" ry="20.0" stroke="rgb(0,127,255)" stroke-width="0.25mm" /><defs /><ellipse cx="85.0" cy="105.0" fill="rgb(0,127,255)" rx="20.0" ry="20.0" stroke="rgb(0,0,0)" stroke-width="0.25mm" /><defs /><ellipse cx="85.0" cy="105.0" fill="rgb(255,255,255)" rx="16.0" ry="16.0" stroke="rgb(0,127,255)" stroke-width="0.25mm" /><defs /><g display="none" id="info"><text id="name">BottomFluidPort</text><text id="type">Modelica.Fluid.Interfaces.FluidPort_b</text><text id="classDesc">Generic fluid connector at design outlet</text><text id="desc" /></g></g><g id="TopFluidPort"><ellipse cx="85.0" cy="105.0" fill="rgb(0,127,255)" rx="20.0" ry="20.0" stroke="rgb(0,127,255)" stroke-width="0.25mm" /><defs /><ellipse cx="85.0" cy="105.0" fill="rgb(0,127,255)" rx="20.0" ry="20.0" stroke="rgb(0,0,0)" stroke-width="0.25mm" /><defs /><g display="none" id="info"><text id="name">TopFluidPort</text><text id="type">Modelica.Fluid.Interfaces.FluidPort_a</text><text id="classDesc">Generic fluid connector at design inlet</text><text id="desc" /></g></g><g id="SideFluidPort"><ellipse cx="85.0" cy="105.0" fill="rgb(0,127,255)" rx="20.0" ry="20.0" stroke="rgb(0,127,255)" stroke-width="0.25mm" /><defs /><ellipse cx="85.0" cy="105.0" fill="rgb(0,127,255)" rx="20.0" ry="20.0" stroke="rgb(0,0,0)" stroke-width="0.25mm" /><defs /><ellipse cx="85.0" cy="105.0" fill="rgb(255,255,255)" rx="16.0" ry="16.0" stroke="rgb(0,127,255)" stroke-width="0.25mm" /><defs /><g display="none" id="info"><text id="name">SideFluidPort</text><text id="type">Modelica.Fluid.Interfaces.FluidPort_b</text><text id="classDesc">Generic fluid connector at design outlet</text><text id="desc" /></g></g><g id="Condensed"><ellipse cx="85.0" cy="105.0" fill="rgb(0,127,255)" rx="20.0" ry="20.0" stroke="rgb(0,127,255)" stroke-width="0.25mm" /><defs /><ellipse cx="85.0" cy="105.0" fill="rgb(0,127,255)" rx="20.0" ry="20.0" stroke="rgb(0,0,0)" stroke-width="0.25mm" /><defs /><ellipse cx="85.0" cy="105.0" fill="rgb(255,255,255)" rx="16.0" ry="16.0" stroke="rgb(0,127,255)" stroke-width="0.25mm" /><defs /><g display="none" id="info"><text id="name">Condensed</text><text id="type">Modelica.Fluid.Interfaces.FluidPort_b</text><text id="classDesc">Generic fluid connector at design outlet</text><text id="desc" /></g></g><g id="heatPort"><rect fill="rgb(191,0,0)" height="40.0" stroke="rgb(191,0,0)" stroke-width="0.25mm" width="40.0" x="65.0" y="85.0" /><defs /><g display="none" id="info"><text id="name">heatPort</text><text id="type">Modelica.Thermal.HeatTransfer.Interfaces.HeatPort_a</text><text id="classDesc">Thermal port for 1-dim. heat transfer (filled rectangular icon)</text><text id="desc" /></g></g></svg>