<?xml version="1.0" encoding="utf-8" ?>
<svg baseProfile="full" height="286.0" version="1.1" viewBox="0 0 310.0 286.0" width="310.0" xmlns="http://www.w3.org/2000/svg" xmlns:ev="http://www.w3.org/2001/xml-events" xmlns:xlink="http://www.w3.org/1999/xlink"><defs /><polygon fill="rgb(0,128,255)" points="174.0,197.0 214.0,212.0 174.0,227.0 174.0,197.0" stroke="rgb(0,128,255)" stroke-width="0.25mm" /><defs /><polygon fill="rgb(255,255,255)" points="174.0,202.0 204.0,212.0 174.0,222.0 174.0,202.0" stroke="rgb(255,255,255)" stroke-width="0.25mm" /><defs /><polyline fill="none" points="209.0,212.0 94.0,212.0" stroke="rgb(0,128,255)" stroke-width="0.25mm" /><defs /><text alignment-baseline="middle" fill="rgb(0,0,255)" font-family="Verdana" font-size="18" text-anchor="middle" x="155.0" y="261.0">name</text><defs /><ellipse cx="54.0" cy="126.0" fill="rgb(0,0,0)" rx="10.0" ry="25.0" stroke="rgb(0,0,0)" stroke-width="0.25mm" /><defs /><ellipse cx="254.0" cy="127.0" fill="rgb(0,0,0)" rx="10.0" ry="25.0" stroke="rgb(0,0,0)" stroke-width="0.25mm" /><defs /><polyline fill="none" points="154.0,27.0 154.0,77.0" stroke="rgb(0,0,127)" stroke-width="0.25mm" /><defs /><polyline fill="none" points="62.0,127.0 254.0,127.0" stroke="rgb(0,128,255)" stroke-width="0.25mm" /><defs /><ellipse cx="154.0" cy="176.0" fill="rgb(191,0,0)" rx="20.0" ry="19.0" stroke="rgb(0,0,0)" stroke-width="0.5mm" /><defs /><rect fill="rgb(191,0,0)" height="84.0" stroke="rgb(191,0,0)" stroke-width="0.25mm" width="24.0" x="142.0" y="77.0" /><defs /><polygon fill="none" points="142.0,77.0 142.0,57.0 144.0,51.0 148.0,49.0 154.0,47.0 160.0,49.0 164.0,51.0 166.0,57.0 166.0,77.0 142.0,77.0" stroke="rgb(0,0,0)" stroke-width="0.5mm" /><defs /><polyline fill="none" points="142.0,77.0 142.0,162.0" stroke="rgb(0,0,0)" stroke-width="0.5mm" /><defs /><polyline fill="none" points="166.0,77.0 166.0,161.0" stroke="rgb(0,0,0)" stroke-width="0.5mm" /><defs /><polyline fill="none" points="114.0,137.0 142.0,137.0" stroke="rgb(0,0,0)" stroke-width="0.25mm" /><defs /><polyline fill="none" points="114.0,107.0 142.0,107.0" stroke="rgb(0,0,0)" stroke-width="0.25mm" /><defs /><polyline fill="none" points="114.0,77.0 142.0,77.0" stroke="rgb(0,0,0)" stroke-width="0.25mm" /><defs /><text alignment-baseline="middle" fill="rgb(0,0,0)" font-family="Verdana" font-size="18" text-anchor="middle" x="201.0" y="20.0">T</text><defs /><g id="port_a"><ellipse cx="34.0" cy="127.0" fill="rgb(0,127,255)" rx="20.0" ry="20.0" stroke="rgb(0,127,255)" stroke-width="0.25mm" /><defs /><ellipse cx="34.0" cy="127.0" fill="rgb(0,127,255)" rx="20.0" ry="20.0" stroke="rgb(0,0,0)" stroke-width="0.25mm" /><defs /><g display="none" id="info"><text id="name">port_a</text><text id="type">Modelica.Fluid.Interfaces.FluidPort_a</text><text id="classDesc">Generic fluid connector at design inlet</text><text id="desc">Fluid connector a (positive design flow direction is from port_a to port_b)</text></g></g><g id="port_b"><ellipse cx="34.0" cy="127.0" fill="rgb(0,127,255)" rx="20.0" ry="20.0" stroke="rgb(0,127,255)" stroke-width="0.25mm" /><defs /><ellipse cx="34.0" cy="127.0" fill="rgb(0,127,255)" rx="20.0" ry="20.0" stroke="rgb(0,0,0)" stroke-width="0.25mm" /><defs /><ellipse cx="34.0" cy="127.0" fill="rgb(255,255,255)" rx="16.0" ry="16.0" stroke="rgb(0,127,255)" stroke-width="0.25mm" /><defs /><g display="none" id="info"><text id="name">port_b</text><text id="type">Modelica.Fluid.Interfaces.FluidPort_b</text><text id="classDesc">Generic fluid connector at design outlet</text><text id="desc">Fluid connector b (positive design flow direction is from port_a to port_b)</text></g></g><g id="T"><polygon fill="rgb(255,255,255)" points="14.0,107.0 54.0,127.0 14.0,147.0" stroke="rgb(0,0,127)" stroke-width="0.25mm" /><defs /><g display="none" id="info"><text id="name">T</text><text id="type">Modelica.Blocks.Interfaces.RealOutput</text><text id="classDesc">'output Real' as connector</text><text id="desc">Temperature of the passing fluid</text></g></g></svg>