<?xml version="1.0" encoding="utf-8" ?>
<svg baseProfile="full" height="245.0" version="1.1" viewBox="0 0 310.0 245.0" width="310.0" xmlns="http://www.w3.org/2000/svg" xmlns:ev="http://www.w3.org/2001/xml-events" xmlns:xlink="http://www.w3.org/1999/xlink"><defs /><polyline fill="none" points="240.0,240.0 250.0,230.0" stroke="rgb(0,0,0)" stroke-width="0.25mm" /><defs /><polyline fill="none" points="250.0,240.0 260.0,230.0" stroke="rgb(0,0,0)" stroke-width="0.25mm" /><defs /><polyline fill="none" points="260.0,240.0 270.0,230.0" stroke="rgb(0,0,0)" stroke-width="0.25mm" /><defs /><polyline fill="none" points="240.0,230.0 270.0,230.0" stroke="rgb(0,0,0)" stroke-width="0.25mm" /><defs /><polyline fill="none" points="40.0,240.0 50.0,230.0" stroke="rgb(0,0,0)" stroke-width="0.25mm" /><defs /><polyline fill="none" points="50.0,240.0 60.0,230.0" stroke="rgb(0,0,0)" stroke-width="0.25mm" /><defs /><polyline fill="none" points="60.0,240.0 70.0,230.0" stroke="rgb(0,0,0)" stroke-width="0.25mm" /><defs /><polyline fill="none" points="40.0,230.0 70.0,230.0" stroke="rgb(0,0,0)" stroke-width="0.25mm" /><defs /><rect fill="url(#0)" height="20.0" stroke="rgb(64,64,64)" stroke-width="0.25mm" width="70.0" x="55.0" y="120.0" /><defs><linearGradient id="0" x1="0%" x2="0%" y1="0%" y2="100%"><stop offset="0" stop-color="rgb(64, 64, 64)" stop-opacity="1" /><stop offset="0.3" stop-color="rgb(192, 192, 192)" stop-opacity="1" /><stop offset="0.7" stop-color="rgb(192, 192, 192)" stop-opacity="1" /><stop offset="1" stop-color="rgb(64, 64, 64)" stop-opacity="1" /></linearGradient></defs><text alignment-baseline="middle" fill="rgb(0,0,255)" font-family="Verdana" font-size="18" text-anchor="middle" x="155.0" y="25.0">name</text><defs /><rect fill="rgb(160,160,164)" height="50.0" stroke="rgb(0,0,0)" stroke-width="0.25mm" width="11.0" x="250.0" y="140.0" /><defs /><rect fill="rgb(160,160,164)" height="20.0" stroke="rgb(0,0,0)" stroke-width="0.25mm" width="181.0" x="80.0" y="190.0" /><defs /><text alignment-baseline="middle" fill="rgb(0,0,0)" font-family="Verdana" font-size="18" text-anchor="middle" x="155.0" y="65.0">ratio=ratio</text><defs /><polyline fill="none" points="55.0,115.0 75.0,115.0" stroke="rgb(0,0,0)" stroke-width="0.25mm" /><defs /><polyline fill="none" points="55.0,146.0 75.0,146.0" stroke="rgb(0,0,0)" stroke-width="0.25mm" /><defs /><polyline fill="none" points="55.0,146.0 55.0,230.0" stroke="rgb(0,0,0)" stroke-width="0.25mm" /><defs /><polyline fill="none" points="255.0,210.0 255.0,230.0" stroke="rgb(0,0,0)" stroke-width="0.25mm" /><defs /><polygon fill="rgb(160,160,164)" points="87.5,190.0 92.5,170.0 102.5,170.0 107.5,190.0 117.5,190.0 122.5,170.0 132.5,170.0 137.5,190.0 147.5,190.0 152.5,170.0 162.5,170.0 167.5,190.0 177.5,190.0 182.5,170.0 192.5,170.0 197.5,190.0 207.5,190.0 212.5,170.0 222.5,170.0 227.5,190.0 237.5,190.0 242.5,170.0 250.0,170.0 250.0,190.0" stroke="rgb(0,0,0)" stroke-width="0.25mm" /><defs /><polygon fill="rgb(255,255,255)" points="122.262016886,86.5518264344 123.415482447,121.888344616 89.81539535,132.889896646 91.5518264344,142.737983114 126.888344616,141.584517553 137.889896646,175.18460465 147.737983114,173.448173566 146.584517553,138.111655384 180.18460465,127.110103354 178.448173566,117.262016886 143.111655384,118.415482447 132.110103354,84.81539535" stroke="rgb(0,0,0)" stroke-width="0.25mm" /><defs /><polygon fill="rgb(255,255,255)" points="95.2708906157,108.283695813 121.072645675,132.455361786 105.092337758,163.993113114 113.283695813,169.729109384 137.455361786,143.927354325 168.993113114,159.907662242 174.729109384,151.716304187 148.927354325,127.544638214 164.907662242,96.0068868855 156.716304187,90.2708906157 132.544638214,116.072645675 101.006886886,100.092337758" stroke="rgb(0,0,0)" stroke-width="0.25mm" /><defs /><ellipse cx="135.0" cy="130.0" fill="rgb(255,255,255)" rx="30.0" ry="30.0" stroke="rgb(0,0,0)" stroke-width="0.25mm" /><defs /><ellipse cx="135.0" cy="130.0" fill="rgb(128,128,128)" rx="10.0" ry="10.0" stroke="rgb(0,0,0)" stroke-width="0.25mm" /><defs /><g id="flangeR"><ellipse cx="35.0" cy="130.0" fill="rgb(95,95,95)" rx="20.0" ry="20.0" stroke="rgb(0,0,0)" stroke-width="0.25mm" /><defs /><g display="none" id="info"><text id="name">flangeR</text><text id="type">Modelica.Mechanics.Rotational.Interfaces.Flange_a</text><text id="classDesc">1-dim. rotational flange of a shaft (filled square icon)</text><text id="desc">Flange of rotational shaft</text></g></g><g id="flangeT"><rect fill="rgb(255,255,255)" height="40.0" stroke="rgb(0,127,0)" stroke-width="0.25mm" width="40.0" x="15.0" y="110.0" /><defs /><g display="none" id="info"><text id="name">flangeT</text><text id="type">Modelica.Mechanics.Translational.Interfaces.Flange_b</text><text id="classDesc">(right) 1D translational flange (flange axis directed OUT OF cut plane)</text><text id="desc">Flange of translational rod</text></g></g><g id="supportR"><ellipse cx="35.0" cy="130.0" fill="rgb(95,95,95)" rx="13.3333333333" ry="13.3333333333" stroke="rgb(0,0,0)" stroke-width="0.25mm" /><defs /><rect fill="rgb(192,192,192)" height="40.0" stroke="rgb(192,192,192)" stroke-width="0.25mm" width="40.0" x="15.0" y="110.0" /><defs /><ellipse cx="35.0" cy="130.0" fill="rgb(95,95,95)" rx="13.3333333333" ry="13.3333333333" stroke="rgb(0,0,0)" stroke-width="0.25mm" /><defs /><g display="none" id="info"><text id="name">supportR</text><text id="type">Modelica.Mechanics.Rotational.Interfaces.Support</text><text id="classDesc">Support/housing of a 1-dim. rotational shaft</text><text id="desc">Rotational support/housing of component</text></g></g><g id="supportT"><rect fill="rgb(175,175,175)" height="24.0" stroke="rgb(0,127,0)" stroke-width="0.25mm" width="24.0" x="23.0" y="118.0" /><defs /><rect fill="rgb(175,175,175)" height="40.0" width="40.0" x="15.0" y="110.0" /><defs /><rect fill="rgb(0,127,0)" height="24.0" stroke="rgb(0,127,0)" stroke-width="0.25mm" width="24.0" x="23.0" y="118.0" /><defs /><g display="none" id="info"><text id="name">supportT</text><text id="type">Modelica.Mechanics.Translational.Interfaces.Support</text><text id="classDesc">Support/housing 1D translational flange</text><text id="desc">Translational support/housing of component</text></g></g></svg>