<?xml version="1.0" encoding="utf-8" ?>
<svg baseProfile="full" height="210.0" version="1.1" viewBox="0 0 250.0 210.0" width="250.0" xmlns="http://www.w3.org/2000/svg" xmlns:ev="http://www.w3.org/2001/xml-events" xmlns:xlink="http://www.w3.org/1999/xlink"><defs /><ellipse cx="145.0" cy="105.0" fill="rgb(245,245,245)" rx="70.0" ry="70.0" stroke="rgb(0,0,0)" stroke-width="0.25mm" /><defs /><polyline fill="none" points="145.0,35.0 145.0,65.0" stroke="rgb(0,0,0)" stroke-width="0.25mm" /><defs /><polyline fill="none" points="167.9,72.2 185.2,47.7" stroke="rgb(0,0,0)" stroke-width="0.25mm" /><defs /><polyline fill="none" points="122.1,72.2 104.8,47.7" stroke="rgb(0,0,0)" stroke-width="0.25mm" /><defs /><polyline fill="none" points="182.6,91.3 210.8,81.1" stroke="rgb(0,0,0)" stroke-width="0.25mm" /><defs /><polyline fill="none" points="107.4,91.3 79.2,81.1" stroke="rgb(0,0,0)" stroke-width="0.25mm" /><defs /><ellipse cx="145.0" cy="105.0" fill="none" rx="12.0" ry="12.0" stroke="rgb(64,64,64)" stroke-width="0.25mm" /><defs /><polygon fill="rgb(64,64,64)" points="140.231401703,103.496513958 161.134393186,47.1754260153 164.545318547,43.0082221349 164.949271824,48.378214849 149.768598297,106.503486042" /><defs /><ellipse cx="145.0" cy="105.0" fill="rgb(64,64,64)" rx="7.0" ry="7.0" /><defs /><polyline fill="none" points="75.0,105.0 51.0,105.0" stroke="rgb(0,0,0)" stroke-width="0.25mm" /><defs /><text alignment-baseline="middle" fill="rgb(170,85,255)" font-family="Verdana" font-size="18" text-anchor="middle" x="145.0" y="20.0">name</text><defs /><polyline fill="none" points="245.0,105.0 215.0,105.0" stroke="rgb(0,0,0)" stroke-width="0.25mm" /><defs /><text alignment-baseline="middle" fill="rgb(0,0,0)" font-family="Verdana" font-size="18" text-anchor="middle" x="145.5" y="145.5">f</text><defs /><g id="pin"><rect fill="rgb(85,170,255)" height="40.0" stroke="rgb(85,170,255)" stroke-width="0.25mm" width="40.0" x="5.0" y="85.0" /><defs /><g display="none" id="info"><text id="name">pin</text><text id="type">Modelica.Electrical.QuasiStationary.SinglePhase.Interfaces.PositivePin</text><text id="classDesc">Positive connector</text><text id="desc">Pin</text></g></g><g id="y"><polygon fill="rgb(255,255,255)" points="5.0,85.0 45.0,105.0 5.0,125.0" stroke="rgb(0,0,127)" stroke-width="0.25mm" /><defs /><g display="none" id="info"><text id="name">y</text><text id="type">Modelica.Blocks.Interfaces.RealOutput</text><text id="classDesc">'output Real' as connector</text><text id="desc" /></g></g></svg>