<?xml version="1.0" encoding="utf-8" ?>
<svg baseProfile="full" height="232.0" version="1.1" viewBox="0 0 250.0 232.0" width="250.0" xmlns="http://www.w3.org/2000/svg" xmlns:ev="http://www.w3.org/2001/xml-events" xmlns:xlink="http://www.w3.org/1999/xlink"><defs /><rect fill="url(#0)" height="100.0" rx="10.0" ry="10.0" stroke="rgb(82,0,2)" stroke-width="0.25mm" width="130.0" x="45.0" y="75.0" /><defs><linearGradient id="0" x1="0%" x2="0%" y1="0%" y2="100%"><stop offset="0" stop-color="rgb(82, 0, 2)" stop-opacity="1" /><stop offset="0.3" stop-color="rgb(252, 37, 57)" stop-opacity="1" /><stop offset="0.7" stop-color="rgb(252, 37, 57)" stop-opacity="1" /><stop offset="1" stop-color="rgb(82, 0, 2)" stop-opacity="1" /></linearGradient></defs><polygon fill="rgb(64,64,64)" points="45.0,215.0 55.0,215.0 85.0,145.0 135.0,145.0 165.0,215.0 175.0,215.0 175.0,225.0 45.0,225.0 45.0,215.0" stroke="rgb(0,0,0)" stroke-width="0.25mm" /><defs /><rect fill="url(#1)" height="20.0" stroke="rgb(64,64,64)" stroke-width="0.25mm" width="60.0" x="175.0" y="115.0" /><defs><linearGradient id="1" x1="0%" x2="0%" y1="0%" y2="100%"><stop offset="0" stop-color="rgb(64, 64, 64)" stop-opacity="1" /><stop offset="0.3" stop-color="rgb(255, 255, 255)" stop-opacity="1" /><stop offset="0.7" stop-color="rgb(255, 255, 255)" stop-opacity="1" /><stop offset="1" stop-color="rgb(64, 64, 64)" stop-opacity="1" /></linearGradient></defs><text alignment-baseline="middle" fill="rgb(0,0,255)" font-family="Verdana" font-size="18" text-anchor="middle" x="145.0" y="35.0">name</text><defs /><polyline fill="none" points="225.0,227.0 225.0,135.0" stroke="rgb(255,204,51)" stroke-width="0.5mm" /><defs /><g id="flange_motor"><ellipse cx="25.396039604" cy="125.0" fill="rgb(255,255,255)" rx="19.801980198" ry="20.0" stroke="rgb(0,0,0)" stroke-width="0.25mm" /><defs /><g display="none" id="info"><text id="name">flange_motor</text><text id="type">Modelica.Mechanics.Rotational.Interfaces.Flange_b</text><text id="classDesc">1-dim. rotational flange of a shaft (non-filled square icon)</text><text id="desc" /></g></g><g id="axisControlBus"><polyline fill="none" points="21.8,124.6 28.2,124.6" stroke="rgb(255,204,51)" stroke-width="0.5mm" /><defs /><rect fill="none" height="1.6" stroke="rgb(255,204,51)" stroke-width="0.5mm" width="3.6" x="23.0" y="123.4" /><defs /><path d="M 9.0 115.0 C 25.0 115.0 41.0 115.0 43.0 117.0 43.0 117.0 45.0 119.0 43.0 126.0 43.0 126.0 41.0 133.0 39.0 134.0 39.0 134.0 37.0 135.0 25.0 135.0 25.0 135.0 13.0 135.0 11.0 134.0 11.0 134.0 9.0 133.0 7.0 126.0 7.0 126.0 5.0 119.0 5.0 119.0" fill="rgb(255,215,136)" stroke="rgb(0,0,0)" stroke-width="0.25mm" /><defs /><ellipse cx="15.0" cy="121.0" fill="rgb(0,0,0)" rx="1.0" ry="1.0" stroke="rgb(0,0,0)" stroke-width="0.25mm" /><defs /><ellipse cx="35.0" cy="121.0" fill="rgb(0,0,0)" rx="1.0" ry="1.0" stroke="rgb(0,0,0)" stroke-width="0.25mm" /><defs /><ellipse cx="25.0" cy="129.0" fill="rgb(0,0,0)" rx="1.0" ry="1.0" stroke="rgb(0,0,0)" stroke-width="0.25mm" /><defs /><rect fill="none" height="0.8" stroke="rgb(255,215,136)" stroke-width="0.5mm" width="8.0" x="21.0" y="124.2" /><defs /><rect fill="none" height="0.8" stroke="rgb(255,204,51)" stroke-width="0.5mm" width="8.4" x="21.0" y="124.6" /><defs /><g display="none" id="info"><text id="name">axisControlBus</text><text id="type">Modelica.Mechanics.MultiBody.Examples.Systems.RobotR3.Components.AxisControlBus</text><text id="classDesc">Data bus for one robot axis</text><text id="desc" /></g></g></svg>