<?xml version="1.0" encoding="utf-8" ?>
<svg baseProfile="full" height="260.0" version="1.1" viewBox="0 0 310.0 260.0" width="310.0" xmlns="http://www.w3.org/2000/svg" xmlns:ev="http://www.w3.org/2001/xml-events" xmlns:xlink="http://www.w3.org/1999/xlink"><defs /><rect fill="rgb(255,255,255)" height="200.0" stroke="rgb(0,0,127)" stroke-width="0.25mm" width="200.0" x="55.0" y="55.0" /><defs /><text alignment-baseline="middle" fill="rgb(0,0,255)" font-family="Verdana" font-size="18" text-anchor="middle" x="155.0" y="25.0">name</text><defs /><polygon fill="rgb(192,192,192)" points="75.0,65.0 67.0,87.0 83.0,87.0 75.0,65.0" stroke="rgb(192,192,192)" stroke-width="0.25mm" /><defs /><polyline fill="none" points="75.0,87.0 75.0,235.0" stroke="rgb(192,192,192)" stroke-width="0.25mm" /><defs /><polyline fill="none" points="65.0,225.0 237.0,225.0" stroke="rgb(192,192,192)" stroke-width="0.25mm" /><defs /><polygon fill="rgb(192,192,192)" points="245.0,225.0 223.0,217.0 223.0,233.0 245.0,225.0" stroke="rgb(192,192,192)" stroke-width="0.25mm" /><defs /><rect fill="rgb(255,215,136)" height="120.0" stroke="rgb(255,255,255)" stroke-width="0.25mm" width="50.0" x="107.0" y="85.0" /><defs /><polyline fill="none" points="107.0,205.0 107.0,85.0 207.0,85.0 207.0,205.0 107.0,205.0 107.0,175.0 207.0,175.0 207.0,145.0 107.0,145.0 107.0,115.0 207.0,115.0 207.0,85.0 157.0,85.0 157.0,206.0" stroke="rgb(0,0,0)" stroke-width="0.25mm" /><defs /><g id="y"><polygon fill="rgb(255,255,255)" points="15.0,135.0 55.0,155.0 15.0,175.0" stroke="rgb(0,0,127)" stroke-width="0.25mm" /><defs /><g display="none" id="info"><text id="name">y</text><text id="type">Modelica.Blocks.Interfaces.RealOutput</text><text id="classDesc">'output Real' as connector</text><text id="desc" /></g></g></svg>