<?xml version="1.0" encoding="utf-8" ?>
<svg baseProfile="full" height="210.0" version="1.1" viewBox="0 0 310.0 210.0" width="310.0" xmlns="http://www.w3.org/2000/svg" xmlns:ev="http://www.w3.org/2001/xml-events" xmlns:xlink="http://www.w3.org/1999/xlink"><defs /><text alignment-baseline="middle" fill="rgb(128,128,128)" font-family="Verdana" font-size="18" text-anchor="middle" x="37.0" y="142.5">a</text><defs /><text alignment-baseline="middle" fill="rgb(128,128,128)" font-family="Verdana" font-size="18" text-anchor="middle" x="273.0" y="142.5">b</text><defs /><path d="M 69.0 74.0 C 75.0 59.0 81.0 44.0 93.5 33.0 93.5 33.0 106.0 22.0 122.0 17.5 122.0 17.5 138.0 13.0 156.0 15.0 156.0 15.0 174.0 17.0 184.5 26.5 184.5 26.5 195.0 36.0 204.5 46.5 204.5 46.5 214.0 57.0 214.0 57.0" fill="none" stroke="rgb(160,160,164)" stroke-width="0.5mm" /><defs /><polygon fill="rgb(192,192,192)" points="245.0,105.0 205.0,85.0 205.0,125.0 245.0,105.0" stroke="rgb(0,0,0)" stroke-width="0.25mm" /><defs /><polygon fill="rgb(192,192,192)" points="224.0,47.0 204.0,65.0 232.0,77.0 224.0,47.0" stroke="rgb(0,0,0)" stroke-width="0.25mm" /><defs /><text alignment-baseline="middle" fill="rgb(0,0,255)" font-family="Verdana" font-size="18" text-anchor="middle" x="155.0" y="160.0">name</text><defs /><rect fill="rgb(192,192,192)" height="10.0" stroke="rgb(0,0,0)" stroke-width="0.25mm" width="20.0" x="65.0" y="100.0" /><defs /><rect fill="rgb(192,192,192)" height="10.0" stroke="rgb(0,0,0)" stroke-width="0.25mm" width="20.0" x="185.0" y="100.0" /><defs /><rect fill="rgb(192,192,192)" height="10.0" stroke="rgb(0,0,0)" stroke-width="0.25mm" width="20.0" x="146.0" y="100.0" /><defs /><rect fill="rgb(192,192,192)" height="10.0" stroke="rgb(0,0,0)" stroke-width="0.25mm" width="20.0" x="105.0" y="100.0" /><defs /><g id="frame_a"><rect fill="none" height="4.0" stroke="rgb(95,95,95)" stroke-width="0.5mm" width="4.0" x="33.0" y="103.0" /><defs /><rect fill="rgb(192,192,192)" height="40.0" stroke="rgb(0,0,0)" stroke-width="0.25mm" width="12.0" x="29.0" y="85.0" /><defs /><g display="none" id="info"><text id="name">frame_a</text><text id="type">Modelica.Mechanics.MultiBody.Interfaces.Frame_a</text><text id="classDesc">Coordinate system fixed to the component with one cut-force and cut-torque (filled rectangular icon)</text><text id="desc">Coordinate system fixed to the component with one cut-force and cut-torque</text></g></g><g id="frame_b"><rect fill="none" height="4.0" stroke="rgb(95,95,95)" stroke-width="0.5mm" width="4.0" x="33.0" y="103.0" /><defs /><rect fill="rgb(255,255,255)" height="40.0" stroke="rgb(0,0,0)" stroke-width="0.25mm" width="12.0" x="29.0" y="85.0" /><defs /><g display="none" id="info"><text id="name">frame_b</text><text id="type">Modelica.Mechanics.MultiBody.Interfaces.Frame_b</text><text id="classDesc">Coordinate system fixed to the component with one cut-force and cut-torque (non-filled rectangular icon)</text><text id="desc">Coordinate system fixed to the component with one cut-force and cut-torque</text></g></g></svg>