<?xml version="1.0" encoding="utf-8" ?>
<svg baseProfile="full" height="230.0" version="1.1" viewBox="0 0 310.0 230.0" width="310.0" xmlns="http://www.w3.org/2000/svg" xmlns:ev="http://www.w3.org/2001/xml-events" xmlns:xlink="http://www.w3.org/1999/xlink"><defs /><rect fill="rgb(245,245,245)" height="80.0" stroke="rgb(0,0,0)" stroke-width="0.25mm" width="140.0" x="85.0" y="85.0" /><defs /><polygon fill="rgb(0,0,0)" points="155.0,145.0 145.0,121.0 165.0,121.0 155.0,145.0" /><defs /><polyline fill="none" points="155.0,105.0 155.0,121.0" stroke="rgb(0,0,0)" stroke-width="0.25mm" /><defs /><polyline fill="none" points="85.0,105.0 155.0,105.0" stroke="rgb(0,0,0)" stroke-width="0.25mm" /><defs /><polyline fill="none" points="105.0,145.0 105.0,165.0" stroke="rgb(0,0,0)" stroke-width="0.25mm" /><defs /><polyline fill="none" points="125.0,145.0 125.0,165.0" stroke="rgb(0,0,0)" stroke-width="0.25mm" /><defs /><polyline fill="none" points="145.0,145.0 145.0,165.0" stroke="rgb(0,0,0)" stroke-width="0.25mm" /><defs /><polyline fill="none" points="165.0,145.0 165.0,165.0" stroke="rgb(0,0,0)" stroke-width="0.25mm" /><defs /><polyline fill="none" points="185.0,145.0 185.0,165.0" stroke="rgb(0,0,0)" stroke-width="0.25mm" /><defs /><polyline fill="none" points="205.0,145.0 205.0,165.0" stroke="rgb(0,0,0)" stroke-width="0.25mm" /><defs /><polyline fill="none" points="104.0,71.0 184.0,71.0" stroke="rgb(0,0,0)" stroke-width="0.25mm" /><defs /><polygon fill="rgb(128,128,128)" points="214.0,71.0 184.0,61.0 184.0,81.0 214.0,71.0" stroke="rgb(0,0,0)" stroke-width="0.25mm" /><defs /><polyline fill="none" points="85.0,105.0 65.0,105.0" stroke="rgb(0,0,0)" stroke-width="0.25mm" /><defs /><polyline fill="none" points="225.0,105.0 245.0,105.0" stroke="rgb(0,0,0)" stroke-width="0.25mm" /><defs /><text alignment-baseline="middle" fill="rgb(0,0,255)" font-family="Verdana" font-size="18" text-anchor="middle" x="155.0" y="25.0">name</text><defs /><text alignment-baseline="middle" fill="rgb(0,0,0)" font-family="Verdana" font-size="18" text-anchor="middle" x="155.0" y="200.0">f</text><defs /><polyline fill="none" points="85.0,105.0 65.0,105.0" stroke="rgb(0,0,0)" stroke-width="0.25mm" /><defs /><polyline fill="none" points="225.0,105.0 245.0,105.0" stroke="rgb(0,0,0)" stroke-width="0.25mm" /><defs /><polyline fill="none" points="75.0,205.0 75.0,105.0" stroke="rgb(0,0,127)" stroke-width="0.25mm" /><defs /><g id="flange_a"><rect fill="rgb(0,127,0)" height="40.0" stroke="rgb(0,127,0)" stroke-width="0.25mm" width="40.0" x="15.0" y="85.0" /><defs /><g display="none" id="info"><text id="name">flange_a</text><text id="type">Modelica.Mechanics.Translational.Interfaces.Flange_a</text><text id="classDesc">(left) 1D translational flange (flange axis directed INTO cut plane, e. g. from left to right)</text><text id="desc">(left) driving flange (flange axis directed in to cut plane, e. g. from left to right)</text></g></g><g id="flange_b"><rect fill="rgb(255,255,255)" height="40.0" stroke="rgb(0,127,0)" stroke-width="0.25mm" width="40.0" x="15.0" y="85.0" /><defs /><g display="none" id="info"><text id="name">flange_b</text><text id="type">Modelica.Mechanics.Translational.Interfaces.Flange_b</text><text id="classDesc">(right) 1D translational flange (flange axis directed OUT OF cut plane)</text><text id="desc">(right) driven flange (flange axis directed out of cut plane)</text></g></g><g id="f"><polygon fill="rgb(255,255,255)" points="15.0,85.0 55.0,105.0 15.0,125.0" stroke="rgb(0,0,127)" stroke-width="0.25mm" /><defs /><g display="none" id="info"><text id="name">f</text><text id="type">Modelica.Blocks.Interfaces.RealOutput</text><text id="classDesc">'output Real' as connector</text><text id="desc">Force in flange_a and flange_b (f = flange_a.f = -flange_b.f) as output signal</text></g></g></svg>