<?xml version="1.0" encoding="utf-8" ?>
<svg baseProfile="full" height="270.0" version="1.1" viewBox="0 0 310.0 270.0" width="310.0" xmlns="http://www.w3.org/2000/svg" xmlns:ev="http://www.w3.org/2001/xml-events" xmlns:xlink="http://www.w3.org/1999/xlink"><defs /><polyline fill="none" points="105.0,265.0 125.0,245.0" stroke="rgb(0,0,0)" stroke-width="0.25mm" /><defs /><polyline fill="none" points="125.0,265.0 145.0,245.0" stroke="rgb(0,0,0)" stroke-width="0.25mm" /><defs /><polyline fill="none" points="145.0,265.0 165.0,245.0" stroke="rgb(0,0,0)" stroke-width="0.25mm" /><defs /><polyline fill="none" points="165.0,265.0 185.0,245.0" stroke="rgb(0,0,0)" stroke-width="0.25mm" /><defs /><polyline fill="none" points="125.0,245.0 185.0,245.0" stroke="rgb(0,0,0)" stroke-width="0.25mm" /><defs /><rect fill="rgb(255,255,255)" height="192.0" stroke="rgb(255,255,255)" stroke-width="0.25mm" width="192.0" x="59.0" y="49.0" /><defs /><polyline fill="none" points="155.0,205.0 155.0,245.0" stroke="rgb(0,0,0)" stroke-width="0.25mm" /><defs /><text alignment-baseline="middle" fill="rgb(0,0,255)" font-family="Verdana" font-size="18" text-anchor="middle" x="155.0" y="25.0">name</text><defs /><polyline fill="none" points="77.0,65.0 206.0,65.0" stroke="rgb(0,0,0)" stroke-width="0.25mm" /><defs /><polygon fill="rgb(128,128,128)" points="236.0,65.0 206.0,55.0 206.0,75.0 236.0,65.0" stroke="rgb(0,0,0)" stroke-width="0.25mm" /><defs /><polyline fill="none" points="103.0,205.0 232.0,205.0" stroke="rgb(0,0,0)" stroke-width="0.25mm" /><defs /><polygon fill="rgb(128,128,128)" points="73.0,205.0 104.0,195.0 104.0,215.0 73.0,205.0" stroke="rgb(0,0,0)" stroke-width="0.25mm" /><defs /><polyline fill="none" points="105.0,265.0 125.0,245.0" stroke="rgb(0,0,0)" stroke-width="0.25mm" /><defs /><polyline fill="none" points="125.0,265.0 145.0,245.0" stroke="rgb(0,0,0)" stroke-width="0.25mm" /><defs /><polyline fill="none" points="145.0,265.0 165.0,245.0" stroke="rgb(0,0,0)" stroke-width="0.25mm" /><defs /><polyline fill="none" points="165.0,265.0 185.0,245.0" stroke="rgb(0,0,0)" stroke-width="0.25mm" /><defs /><polyline fill="none" points="125.0,245.0 185.0,245.0" stroke="rgb(0,0,0)" stroke-width="0.25mm" /><defs /><path d="M 55.0 245.0 C 65.0 244.0 75.0 243.0 85.0 240.0 85.0 240.0 95.0 237.0 105.0 232.0 105.0 232.0 115.0 227.0 125.0 220.0 125.0 220.0 135.0 213.0 145.0 204.0 145.0 204.0 155.0 195.0 165.0 184.0 165.0 184.0 175.0 173.0 185.0 160.0 185.0 160.0 195.0 147.0 205.0 132.0 205.0 132.0 215.0 117.0 225.0 100.0 225.0 100.0 235.0 83.0 245.0 64.0 245.0 64.0 255.0 45.0 255.0 45.0" fill="none" stroke="rgb(0,0,127)" stroke-width="0.25mm" /><defs /><g id="flange"><rect fill="rgb(255,255,255)" height="40.0" stroke="rgb(0,127,0)" stroke-width="0.25mm" width="40.0" x="15.0" y="125.0" /><defs /><g display="none" id="info"><text id="name">flange</text><text id="type">Modelica.Mechanics.Translational.Interfaces.Flange_b</text><text id="classDesc">(right) 1D translational flange (flange axis directed OUT OF cut plane)</text><text id="desc">Flange of component</text></g></g><g id="support"><rect fill="rgb(175,175,175)" height="24.0" stroke="rgb(0,127,0)" stroke-width="0.25mm" width="24.0" x="23.0" y="133.0" /><defs /><rect fill="rgb(175,175,175)" height="40.0" width="40.0" x="15.0" y="125.0" /><defs /><rect fill="rgb(0,127,0)" height="24.0" stroke="rgb(0,127,0)" stroke-width="0.25mm" width="24.0" x="23.0" y="133.0" /><defs /><g display="none" id="info"><text id="name">support</text><text id="type">Modelica.Mechanics.Translational.Interfaces.Support</text><text id="classDesc">Support/housing 1D translational flange</text><text id="desc">Support/housing of component</text></g></g></svg>