<?xml version="1.0" encoding="utf-8" ?>
<svg baseProfile="full" height="263.0" version="1.1" viewBox="0 0 224.0 263.0" width="224.0" xmlns="http://www.w3.org/2000/svg" xmlns:ev="http://www.w3.org/2001/xml-events" xmlns:xlink="http://www.w3.org/1999/xlink"><defs /><rect fill="url(#0)" height="200.0" rx="25.0" ry="25.0" stroke="rgb(200,200,200)" stroke-width="0.25mm" width="200.0" x="5.0" y="58.0" /><defs><linearGradient id="0" x1="0%" x2="0%" y1="0%" y2="100%"><stop offset="0" stop-color="rgb(200, 200, 200)" stop-opacity="1" /><stop offset="0.3" stop-color="rgb(248, 248, 248)" stop-opacity="1" /><stop offset="0.7" stop-color="rgb(248, 248, 248)" stop-opacity="1" /><stop offset="1" stop-color="rgb(200, 200, 200)" stop-opacity="1" /></linearGradient></defs><rect fill="none" height="200.0" rx="25.0" ry="25.0" stroke="rgb(128,128,128)" stroke-width="0.25mm" width="200.0" x="5.0" y="58.0" /><defs /><polyline fill="none" points="35.0,178.0 185.0,178.0" stroke="rgb(0,0,0)" stroke-width="0.25mm" /><defs /><rect fill="url(#1)" height="43.0" stroke="rgb(64,64,64)" stroke-width="0.25mm" width="73.0" x="38.0" y="127.0" /><defs><radialGradient cx="50%" cy="50%" fx="50%" fy="50%" id="1" r="0.9"><stop offset="0" stop-color="rgb(192, 192, 192)" stop-opacity="1" /><stop offset="1" stop-color="rgb(64, 64, 64)" stop-opacity="1" /></radialGradient></defs><polyline fill="none" points="111.0,148.0 118.0,148.0 125.0,169.0 136.0,128.0 148.0,170.0 159.0,128.0 169.0,149.0 180.0,149.0" stroke="rgb(0,0,0)" stroke-width="0.25mm" /><defs /><polyline fill="none" points="60.0,178.0 35.0,198.0" stroke="rgb(0,0,0)" stroke-width="0.25mm" /><defs /><polyline fill="none" points="108.0,178.0 83.0,198.0" stroke="rgb(0,0,0)" stroke-width="0.25mm" /><defs /><polyline fill="none" points="85.0,178.0 60.0,198.0" stroke="rgb(0,0,0)" stroke-width="0.25mm" /><defs /><polyline fill="none" points="133.0,178.0 108.0,198.0" stroke="rgb(0,0,0)" stroke-width="0.25mm" /><defs /><polyline fill="none" points="158.0,178.0 133.0,198.0" stroke="rgb(0,0,0)" stroke-width="0.25mm" /><defs /><polyline fill="none" points="182.0,178.0 157.0,198.0" stroke="rgb(0,0,0)" stroke-width="0.25mm" /><defs /></svg>