<?xml version="1.0" encoding="utf-8" ?>
<svg baseProfile="full" height="266.0" version="1.1" viewBox="0 0 310.0 266.0" width="310.0" xmlns="http://www.w3.org/2000/svg" xmlns:ev="http://www.w3.org/2001/xml-events" xmlns:xlink="http://www.w3.org/1999/xlink"><defs /><text alignment-baseline="middle" fill="rgb(0,0,255)" font-family="Verdana" font-size="18" text-anchor="middle" x="155.0" y="231.0">name</text><defs /><polygon fill="rgb(0,0,255)" points="65.0,11.0 85.0,5.0 85.0,17.0 65.0,11.0" stroke="rgb(0,0,255)" stroke-width="0.25mm" /><defs /><ellipse cx="125.0" cy="111.0" fill="none" rx="40.0" ry="40.0" stroke="rgb(0,0,255)" stroke-width="0.25mm" /><defs /><ellipse cx="185.0" cy="111.0" fill="none" rx="40.0" ry="40.0" stroke="rgb(0,0,255)" stroke-width="0.25mm" /><defs /><polyline fill="none" points="125.0,111.0 101.0,79.0 105.0,91.0 111.0,85.0 101.0,79.0" stroke="rgb(0,0,255)" stroke-width="0.25mm" /><defs /><polyline fill="none" points="125.0,111.0 101.0,143.0 105.0,131.0 111.0,137.0 101.0,143.0" stroke="rgb(0,0,255)" stroke-width="0.25mm" /><defs /><polyline fill="none" points="101.0,79.0 101.0,11.0 85.0,11.0" stroke="rgb(0,0,255)" stroke-width="0.25mm" /><defs /><polyline fill="none" points="245.0,11.0 185.0,11.0 185.0,71.0" stroke="rgb(0,0,255)" stroke-width="0.25mm" /><defs /><polyline fill="none" points="185.0,151.0 185.0,211.0 245.0,211.0" stroke="rgb(0,0,255)" stroke-width="0.25mm" /><defs /><g id="spacePhasor_r"><polygon fill="rgb(0,0,255)" points="35.0,91.0 15.0,111.0 35.0,131.0 55.0,111.0 35.0,91.0" stroke="rgb(0,0,255)" stroke-width="0.25mm" /><defs /><g display="none" id="info"><text id="name">spacePhasor_r</text><text id="type">Modelica.Electrical.Machines.Interfaces.SpacePhasor</text><text id="classDesc">Connector for Space Phasors</text><text id="desc" /></g></g><g id="pin_ep"><rect fill="rgb(0,0,255)" height="40.0" stroke="rgb(0,0,255)" stroke-width="0.25mm" width="40.0" x="15.0" y="91.0" /><defs /><g display="none" id="info"><text id="name">pin_ep</text><text id="type">Modelica.Electrical.Analog.Interfaces.PositivePin</text><text id="classDesc">Positive pin of an electric component</text><text id="desc" /></g></g><g id="pin_en"><rect fill="rgb(255,255,255)" height="40.0" stroke="rgb(0,0,255)" stroke-width="0.25mm" width="40.0" x="15.0" y="91.0" /><defs /><g display="none" id="info"><text id="name">pin_en</text><text id="type">Modelica.Electrical.Analog.Interfaces.NegativePin</text><text id="classDesc">Negative pin of an electric component</text><text id="desc" /></g></g></svg>