<?xml version="1.0" encoding="utf-8" ?>
<svg baseProfile="full" height="260.0" version="1.1" viewBox="0 0 310.0 260.0" width="310.0" xmlns="http://www.w3.org/2000/svg" xmlns:ev="http://www.w3.org/2001/xml-events" xmlns:xlink="http://www.w3.org/1999/xlink"><defs /><rect fill="rgb(255,255,255)" height="200.0" stroke="rgb(0,0,0)" stroke-width="0.25mm" width="200.0" x="55.0" y="55.0" /><defs /><polyline fill="none" points="155.0,235.0 155.0,87.0" stroke="rgb(192,192,192)" stroke-width="0.25mm" /><defs /><polygon fill="rgb(192,192,192)" points="155.0,65.0 147.0,87.0 163.0,87.0 155.0,65.0" stroke="rgb(192,192,192)" stroke-width="0.25mm" /><defs /><text alignment-baseline="middle" fill="rgb(0,0,255)" font-family="Verdana" font-size="18" text-anchor="middle" x="155.0" y="25.0">name</text><defs /><polyline fill="none" points="65.0,155.0 223.0,155.0" stroke="rgb(192,192,192)" stroke-width="0.25mm" /><defs /><polygon fill="rgb(192,192,192)" points="245.0,155.0 223.0,147.0 223.0,163.0 245.0,155.0" stroke="rgb(192,192,192)" stroke-width="0.25mm" /><defs /><polyline fill="none" points="75.0,235.0 76.6,223.4 78.2,214.7 80.6,205.0 83.8,195.9 87.9,188.0 94.3,179.8 103.9,172.2 119.2,164.98 150.58,156.07 188.4,145.88 204.4,138.8 214.1,131.8 220.5,124.4 225.4,115.9 228.6,107.6 231.0,98.9 232.6,91.2 235.0,75.0" stroke="rgb(0,0,0)" stroke-width="0.25mm" /><defs /><text alignment-baseline="middle" fill="rgb(192,192,192)" font-family="Verdana" font-size="18" text-anchor="middle" x="101.0" y="107.0">tan</text><defs /></svg>