<?xml version="1.0" encoding="utf-8" ?>
<svg baseProfile="full" height="496.0" version="1.1" viewBox="0 0 560.0 496.0" width="560.0" xmlns="http://www.w3.org/2000/svg" xmlns:ev="http://www.w3.org/2001/xml-events" xmlns:xlink="http://www.w3.org/1999/xlink"><defs /><rect fill="rgb(255,255,255)" height="400.0" stroke="rgb(0,0,255)" stroke-width="0.25mm" width="400.0" x="93.0" y="91.0" /><defs /><text alignment-baseline="middle" fill="rgb(0,0,255)" font-family="Verdana" font-size="18" text-anchor="middle" x="280.0" y="44.0">name</text><defs /><polyline fill="none" points="245.0,291.0 293.0,291.0" stroke="rgb(0,0,0)" stroke-width="0.25mm" /><defs /><rect fill="none" height="120.0" stroke="rgb(0,0,0)" stroke-width="0.25mm" width="120.0" x="123.0" y="231.0" /><defs /><polyline fill="none" points="293.0,251.0 293.0,331.0" stroke="rgb(0,0,0)" stroke-width="0.25mm" /><defs /><polyline fill="none" points="293.0,291.0 319.0,291.0" stroke="rgb(0,0,0)" stroke-width="0.25mm" /><defs /><polygon fill="rgb(0,0,0)" points="319.0,281.0 343.0,291.0 319.0,301.0 319.0,281.0" stroke="rgb(0,0,0)" stroke-width="0.25mm" /><defs /><rect fill="none" height="120.0" stroke="rgb(0,0,0)" stroke-width="0.25mm" width="120.0" x="343.0" y="231.0" /><defs /><polygon fill="rgb(0,0,0)" points="269.0,281.0 293.0,291.0 269.0,301.0 269.0,281.0" stroke="rgb(0,0,0)" stroke-width="0.25mm" /><defs /><g id="sensors"><polygon fill="rgb(215,215,215)" points="153.0,271.0 153.0,311.0 193.0,291.0 153.0,271.0" stroke="rgb(0,0,0)" stroke-width="0.5mm" /><defs /><g display="none" id="info"><text id="name">sensors</text><text id="type">Modelica.Fluid.Examples.AST_BatchPlant.BaseClasses.ControllerUtilities.Port_Sensors</text><text id="classDesc" /><text id="desc" /></g></g><g id="actuators"><polygon fill="rgb(255,255,255)" points="153.0,271.0 193.0,291.0 153.0,311.0 153.0,271.0" stroke="rgb(0,0,0)" stroke-width="0.5mm" /><defs /><g display="none" id="info"><text id="name">actuators</text><text id="type">Modelica.Fluid.Examples.AST_BatchPlant.BaseClasses.ControllerUtilities.Port_Actuators</text><text id="classDesc" /><text id="desc" /></g></g></svg>