<?xml version="1.0" encoding="utf-8" ?>
<svg baseProfile="full" height="312.0" version="1.1" viewBox="0 0 313.0 312.0" width="313.0" xmlns="http://www.w3.org/2000/svg" xmlns:ev="http://www.w3.org/2001/xml-events" xmlns:xlink="http://www.w3.org/1999/xlink"><defs /><rect fill="rgb(255,255,255)" height="200.0" stroke="rgb(0,0,127)" stroke-width="0.25mm" width="200.0" x="55.0" y="55.0" /><defs /><text alignment-baseline="middle" fill="rgb(0,0,255)" font-family="Verdana" font-size="18" text-anchor="middle" x="155.0" y="25.0">name</text><defs /><polyline fill="none" points="75.0,87.0 75.0,235.0" stroke="rgb(192,192,192)" stroke-width="0.25mm" /><defs /><polygon fill="rgb(192,192,192)" points="75.0,65.0 67.0,87.0 83.0,87.0 75.0,65.0" stroke="rgb(192,192,192)" stroke-width="0.25mm" /><defs /><polyline fill="none" points="65.0,155.0 223.0,155.0" stroke="rgb(192,192,192)" stroke-width="0.25mm" /><defs /><polygon fill="rgb(192,192,192)" points="245.0,155.0 223.0,147.0 223.0,163.0 245.0,155.0" stroke="rgb(192,192,192)" stroke-width="0.25mm" /><defs /><path d="M 75.0 155.0 C 77.4 138.85 79.8 122.7 81.4 113.7 81.4 113.7 83.0 104.7 84.65 97.6 84.65 97.6 86.3 90.5 87.9 85.65 87.9 85.65 89.5 80.8 91.1 78.25 91.1 78.25 92.7 75.7 94.3 75.55 94.3 75.55 95.9 75.4 97.5 77.55 97.5 77.55 99.1 79.7 100.7 83.8 100.7 83.8 102.3 87.9 104.35 95.35 104.35 95.35 106.4 102.8 109.2 116.0 109.2 116.0 112.0 129.2 116.0 149.05 116.0 149.05 120.0 168.9 122.4 178.8 122.4 178.8 124.8 188.7 126.85 194.8 126.85 194.8 128.9 200.9 130.9 204.55 130.9 204.55 132.9 208.2 134.9 209.25 134.9 209.25 136.9 210.3 138.9 208.9 138.9 208.9 140.9 207.5 142.9 203.9 142.9 203.9 144.9 200.3 147.335 193.7 147.335 193.7 149.77 187.1 156.605 164.2 156.605 164.2 163.44 141.3 165.87 134.95 165.87 134.95 168.3 128.6 170.7 124.4 170.7 124.4 173.1 120.2 175.1 118.6 175.1 118.6 177.1 117.0 179.5 117.4 179.5 117.4 181.9 117.8 184.35 120.5 184.35 120.5 186.8 123.2 190.0 129.4 190.0 129.4 193.2 135.6 199.65 150.55 199.65 150.55 206.1 165.5 209.3 170.85 209.3 170.85 212.5 176.2 215.3 178.55 215.3 178.55 218.1 180.9 220.9 180.9 220.9 180.9 223.7 180.9 226.95 178.2 226.95 178.2 230.2 175.5 232.6 172.15 232.6 172.15 235.0 168.8 235.0 168.8" fill="none" stroke="rgb(0,0,0)" stroke-width="0.25mm" /><defs /><text alignment-baseline="middle" fill="rgb(0,0,0)" font-family="Verdana" font-size="18" text-anchor="middle" x="158.0" y="287.0">freqHz=freqHz</text><defs /><g id="y"><polygon fill="rgb(255,255,255)" points="15.0,135.0 55.0,155.0 15.0,175.0" stroke="rgb(0,0,127)" stroke-width="0.25mm" /><defs /><g display="none" id="info"><text id="name">y</text><text id="type">Modelica.Blocks.Interfaces.RealOutput</text><text id="classDesc">'output Real' as connector</text><text id="desc">Connector of Real output signal</text></g></g></svg>