<?xml version="1.0" encoding="utf-8" ?>
<svg baseProfile="full" height="210.0" version="1.1" viewBox="0 0 250.0 210.0" width="250.0" xmlns="http://www.w3.org/2000/svg" xmlns:ev="http://www.w3.org/2001/xml-events" xmlns:xlink="http://www.w3.org/1999/xlink"><defs /><rect fill="none" height="62.0" stroke="rgb(0,0,255)" stroke-width="0.25mm" width="160.0" x="65.0" y="73.0" /><defs /><text alignment-baseline="middle" fill="rgb(0,0,0)" font-family="Verdana" font-size="18" text-anchor="middle" x="145.0" y="161.0">R=R</text><defs /><polyline fill="none" points="71.0,105.0 65.0,105.0 85.0,105.0" stroke="rgb(85,255,85)" stroke-width="0.25mm" /><defs /><polyline fill="none" points="65.0,125.0 85.0,125.0 85.0,121.0 105.0,113.0 141.0,113.0" stroke="rgb(85,255,85)" stroke-width="0.25mm" /><defs /><polyline fill="none" points="225.0,105.0 205.0,105.0" stroke="rgb(85,255,85)" stroke-width="0.25mm" /><defs /><polyline fill="none" points="85.0,103.0 85.0,109.0" stroke="rgb(170,255,170)" stroke-width="0.25mm" /><defs /><polyline fill="none" points="141.0,103.0 141.0,123.0" stroke="rgb(85,255,85)" stroke-width="0.25mm" /><defs /><polyline fill="none" points="149.0,103.0 149.0,123.0" stroke="rgb(85,255,85)" stroke-width="0.25mm" /><defs /><text alignment-baseline="middle" fill="rgb(0,0,255)" font-family="Verdana" font-size="18" text-anchor="middle" x="145.0" y="45.0">name</text><defs /><polyline fill="none" points="53.0,105.0 65.0,105.0" stroke="rgb(85,85,255)" stroke-width="0.25mm" /><defs /><polyline fill="none" points="235.0,105.0 225.0,105.0 225.0,105.0" stroke="rgb(85,85,255)" stroke-width="0.25mm" /><defs /><polyline fill="none" points="149.0,113.0 185.0,113.0 205.0,109.0" stroke="rgb(85,255,85)" stroke-width="0.25mm" /><defs /><polyline fill="none" points="205.0,105.0 205.0,109.0" stroke="rgb(85,255,85)" stroke-width="0.25mm" /><defs /><polyline fill="none" points="205.0,121.0 205.0,125.0 225.0,125.0" stroke="rgb(85,255,85)" stroke-width="0.25mm" /><defs /><g id="n1"><rect fill="rgb(255,255,255)" height="40.0" stroke="rgb(0,0,255)" stroke-width="0.25mm" width="40.0" x="5.0" y="85.0" /><defs /><g display="none" id="info"><text id="name">n1</text><text id="type">Modelica.Electrical.Analog.Interfaces.NegativePin</text><text id="classDesc">Negative pin of an electric component</text><text id="desc" /></g></g><g id="n2"><rect fill="rgb(255,255,255)" height="40.0" stroke="rgb(0,0,255)" stroke-width="0.25mm" width="40.0" x="5.0" y="85.0" /><defs /><g display="none" id="info"><text id="name">n2</text><text id="type">Modelica.Electrical.Analog.Interfaces.NegativePin</text><text id="classDesc">Negative pin of an electric component</text><text id="desc" /></g></g></svg>