<?xml version="1.0" encoding="utf-8" ?>
<svg baseProfile="full" height="210.0" version="1.1" viewBox="0 0 210.0 210.0" width="210.0" xmlns="http://www.w3.org/2000/svg" xmlns:ev="http://www.w3.org/2001/xml-events" xmlns:xlink="http://www.w3.org/1999/xlink"><defs /><rect fill="url(#0)" height="200.0" rx="25.0" ry="25.0" stroke="rgb(200,200,200)" stroke-width="0.25mm" width="200.0" x="5.0" y="5.0" /><defs><linearGradient id="0" x1="0%" x2="0%" y1="0%" y2="100%"><stop offset="0" stop-color="rgb(200, 200, 200)" stop-opacity="1" /><stop offset="0.3" stop-color="rgb(248, 248, 248)" stop-opacity="1" /><stop offset="0.7" stop-color="rgb(248, 248, 248)" stop-opacity="1" /><stop offset="1" stop-color="rgb(200, 200, 200)" stop-opacity="1" /></linearGradient></defs><rect fill="none" height="200.0" rx="25.0" ry="25.0" stroke="rgb(128,128,128)" stroke-width="0.25mm" width="200.0" x="5.0" y="5.0" /><defs /><path d="M 25.0 107.0 C 30.65 89.9 36.3 72.8 39.9 63.35 39.9 63.35 43.5 53.9 46.7 47.25 46.7 47.25 49.9 40.6 52.75 36.5 52.75 36.5 55.6 32.4 58.4 30.15 58.4 30.15 61.2 27.9 64.0 27.55 64.0 27.55 66.8 27.2 69.6 28.8 69.6 28.8 72.4 30.4 75.25 33.85 75.25 33.85 78.1 37.3 80.9 42.45 80.9 42.45 83.7 47.6 86.9 55.25 86.9 55.25 90.1 62.9 94.135 74.35 94.135 74.35 98.17 85.8 106.635 111.8 106.635 111.8 115.1 137.8 118.7 147.5 118.7 147.5 122.3 157.2 125.5 164.2 125.5 164.2 128.7 171.2 131.5 175.65 131.5 175.65 134.3 180.1 137.15 182.75 137.15 182.75 140.0 185.4 142.8 186.2 142.8 186.2 145.6 187.0 148.4 185.8 148.4 185.8 151.2 184.6 154.05 181.55 154.05 181.55 156.9 178.5 159.7 173.7 159.7 173.7 162.5 168.9 165.7 161.55 165.7 161.55 168.9 154.2 172.95 143.0 172.95 143.0 177.0 131.8 181.0 119.4 181.0 119.4 185.0 107.0 185.0 107.0" fill="none" stroke="rgb(95,95,95)" stroke-width="0.25mm" /><defs /></svg>