<?xml version="1.0" encoding="utf-8" ?>
<svg baseProfile="full" height="210.0" version="1.1" viewBox="0 0 250.0 210.0" width="250.0" xmlns="http://www.w3.org/2000/svg" xmlns:ev="http://www.w3.org/2001/xml-events" xmlns:xlink="http://www.w3.org/1999/xlink"><defs /><ellipse cx="145.0" cy="105.0" fill="rgb(245,245,245)" rx="70.0" ry="70.0" stroke="rgb(0,0,0)" stroke-width="0.25mm" /><defs /><polyline fill="none" points="145.0,35.0 145.0,65.0" stroke="rgb(0,0,0)" stroke-width="0.25mm" /><defs /><polyline fill="none" points="167.9,72.2 185.2,47.7" stroke="rgb(0,0,0)" stroke-width="0.25mm" /><defs /><polyline fill="none" points="122.1,72.2 104.8,47.7" stroke="rgb(0,0,0)" stroke-width="0.25mm" /><defs /><polyline fill="none" points="182.6,91.3 210.8,81.1" stroke="rgb(0,0,0)" stroke-width="0.25mm" /><defs /><polyline fill="none" points="107.4,91.3 79.2,81.1" stroke="rgb(0,0,0)" stroke-width="0.25mm" /><defs /><ellipse cx="145.0" cy="105.0" fill="none" rx="12.0" ry="12.0" stroke="rgb(64,64,64)" stroke-width="0.25mm" /><defs /><polygon fill="rgb(64,64,64)" points="140.231401703,103.496513958 161.134393186,47.1754260153 164.545318547,43.0082221349 164.949271824,48.378214849 149.768598297,106.503486042" /><defs /><ellipse cx="145.0" cy="105.0" fill="rgb(64,64,64)" rx="7.0" ry="7.0" /><defs /><text alignment-baseline="middle" fill="rgb(128,128,128)" font-family="Verdana" font-size="18" text-anchor="middle" x="55.0" y="74.5">a</text><defs /><polyline fill="none" points="75.0,105.0 49.0,105.0 49.0,105.0" stroke="rgb(0,0,0)" stroke-width="0.25mm" /><defs /><g id="frame_a"><rect fill="none" height="4.0" stroke="rgb(95,95,95)" stroke-width="0.5mm" width="4.0" x="23.0" y="103.0" /><defs /><rect fill="rgb(192,192,192)" height="40.0" stroke="rgb(0,0,0)" stroke-width="0.25mm" width="12.0" x="19.0" y="85.0" /><defs /><g display="none" id="info"><text id="name">frame_a</text><text id="type">Modelica.Mechanics.MultiBody.Interfaces.Frame_a</text><text id="classDesc">Coordinate system fixed to the component with one cut-force and cut-torque (filled rectangular icon)</text><text id="desc">Coordinate system at which the kinematic quantities are measured</text></g></g></svg>