<?xml version="1.0" encoding="utf-8" ?>
<svg baseProfile="full" height="210" version="1.1" viewBox="0 0 310.0 210" width="310.0" xmlns="http://www.w3.org/2000/svg" xmlns:ev="http://www.w3.org/2001/xml-events" xmlns:xlink="http://www.w3.org/1999/xlink"><defs /><rect fill="url(#0)" height="100.0" stroke="rgb(0,0,0)" stroke-width="0.25mm" width="200.0" x="55.0" y="55.0" /><defs><linearGradient id="0" x1="0%" x2="0%" y1="0%" y2="100%"><stop offset="0" stop-color="rgb(0, 0, 0)" stop-opacity="1" /><stop offset="0.3" stop-color="rgb(160, 160, 164)" stop-opacity="1" /><stop offset="0.7" stop-color="rgb(160, 160, 164)" stop-opacity="1" /><stop offset="1" stop-color="rgb(0, 0, 0)" stop-opacity="1" /></linearGradient></defs><text alignment-baseline="middle" fill="rgb(0,0,255)" font-family="Verdana" font-size="18" text-anchor="middle" x="155.0" y="28.0">name</text><defs /><g id="flange"><ellipse cx="35.396039604" cy="105.0" fill="rgb(255,255,255)" rx="19.801980198" ry="20.0" stroke="rgb(0,0,0)" stroke-width="0.25mm" /><defs /><g display="none" id="info"><text id="name">flange</text><text id="type">Modelica.Mechanics.Rotational.Interfaces.Flange_b</text><text id="classDesc">1-dim. rotational flange of a shaft (non-filled square icon)</text><text id="desc" /></g></g><g id="axisControlBus"><polyline fill="none" points="31.8,104.6 38.2,104.6" stroke="rgb(255,204,51)" stroke-width="0.5mm" /><defs /><rect fill="none" height="1.6" stroke="rgb(255,204,51)" stroke-width="0.5mm" width="3.6" x="33.0" y="103.4" /><defs /><path d="M 19.0 95.0 C 35.0 95.0 51.0 95.0 53.0 97.0 53.0 97.0 55.0 99.0 53.0 106.0 53.0 106.0 51.0 113.0 49.0 114.0 49.0 114.0 47.0 115.0 35.0 115.0 35.0 115.0 23.0 115.0 21.0 114.0 21.0 114.0 19.0 113.0 17.0 106.0 17.0 106.0 15.0 99.0 15.0 99.0" fill="rgb(255,215,136)" stroke="rgb(0,0,0)" stroke-width="0.25mm" /><defs /><ellipse cx="25.0" cy="101.0" fill="rgb(0,0,0)" rx="1.0" ry="1.0" stroke="rgb(0,0,0)" stroke-width="0.25mm" /><defs /><ellipse cx="45.0" cy="101.0" fill="rgb(0,0,0)" rx="1.0" ry="1.0" stroke="rgb(0,0,0)" stroke-width="0.25mm" /><defs /><ellipse cx="35.0" cy="109.0" fill="rgb(0,0,0)" rx="1.0" ry="1.0" stroke="rgb(0,0,0)" stroke-width="0.25mm" /><defs /><rect fill="none" height="0.8" stroke="rgb(255,215,136)" stroke-width="0.5mm" width="8.0" x="31.0" y="104.2" /><defs /><rect fill="none" height="0.8" stroke="rgb(255,204,51)" stroke-width="0.5mm" width="8.4" x="31.0" y="104.6" /><defs /><g display="none" id="info"><text id="name">axisControlBus</text><text id="type">Modelica.Mechanics.MultiBody.Examples.Systems.RobotR3.Components.AxisControlBus</text><text id="classDesc">Data bus for one robot axis</text><text id="desc" /></g></g></svg>