<?xml version="1.0" encoding="utf-8" ?>
<svg baseProfile="full" height="230.0" version="1.1" viewBox="0 0 310.0 230.0" width="310.0" xmlns="http://www.w3.org/2000/svg" xmlns:ev="http://www.w3.org/2001/xml-events" xmlns:xlink="http://www.w3.org/1999/xlink"><defs /><ellipse cx="155.0" cy="125.0" fill="rgb(255,255,255)" rx="50.0" ry="50.0" stroke="rgb(0,0,255)" stroke-width="0.25mm" /><defs /><polyline fill="none" points="65.0,125.0 105.0,125.0" stroke="rgb(0,0,255)" stroke-width="0.25mm" /><defs /><polyline fill="none" points="205.0,125.0 245.0,125.0" stroke="rgb(0,0,255)" stroke-width="0.25mm" /><defs /><polyline fill="none" points="155.0,175.0 155.0,75.0" stroke="rgb(0,0,255)" stroke-width="0.25mm" /><defs /><text alignment-baseline="middle" fill="rgb(0,0,255)" font-family="Verdana" font-size="18" text-anchor="middle" x="155.0" y="25.0">name</text><defs /><polygon fill="rgb(0,0,255)" points="245.0,125.0 215.0,115.0 215.0,135.0 245.0,125.0" stroke="rgb(0,0,255)" stroke-width="0.25mm" /><defs /><path d="M 84.0 55.0 C 85.3 55.1 86.6 55.2 89.05 56.6 89.05 56.6 91.5 58.0 93.95 61.0 93.95 61.0 96.4 64.0 98.9 68.5 98.9 68.5 101.4 73.0 104.2 79.7 104.2 79.7 107.0 86.4 110.51 96.4 110.51 96.4 114.02 106.4 121.405 129.15 121.405 129.15 128.79 151.9 131.945 160.45 131.945 160.45 135.1 169.0 137.95 175.1 137.95 175.1 140.8 181.2 143.25 185.1 143.25 185.1 145.7 189.0 148.15 191.3 148.15 191.3 150.6 193.6 153.05 194.3 153.05 194.3 155.5 195.0 158.0 193.95 158.0 193.95 160.5 192.9 162.95 190.2 162.95 190.2 165.4 187.5 167.85 183.3 167.85 183.3 170.3 179.1 173.1 172.7 173.1 172.7 175.9 166.3 179.45 156.5 179.45 156.5 183.0 146.7 186.5 135.85 186.5 135.85 190.0 125.0 190.0 125.0" fill="none" stroke="rgb(192,192,192)" stroke-width="0.25mm" /><defs /><polyline fill="none" points="190.0,125.0 199.8,95.1 206.2,78.5 211.8,66.9 216.7,59.8 221.7,55.8 226.6,55.2" stroke="rgb(192,192,192)" stroke-width="0.25mm" /><defs /><g id="p"><rect fill="rgb(0,0,255)" height="40.0" stroke="rgb(0,0,255)" stroke-width="0.25mm" width="40.0" x="15.0" y="105.0" /><defs /><g display="none" id="info"><text id="name">p</text><text id="type">Modelica.Electrical.Analog.Interfaces.PositivePin</text><text id="classDesc">Positive pin of an electric component</text><text id="desc">Positive pin (potential p.v &gt; n.v for positive voltage drop v)</text></g></g><g id="n"><rect fill="rgb(255,255,255)" height="40.0" stroke="rgb(0,0,255)" stroke-width="0.25mm" width="40.0" x="15.0" y="105.0" /><defs /><g display="none" id="info"><text id="name">n</text><text id="type">Modelica.Electrical.Analog.Interfaces.NegativePin</text><text id="classDesc">Negative pin of an electric component</text><text id="desc">Negative pin</text></g></g></svg>