<?xml version="1.0" encoding="utf-8" ?>
<svg baseProfile="full" height="260.0" version="1.1" viewBox="0 0 310.0 260.0" width="310.0" xmlns="http://www.w3.org/2000/svg" xmlns:ev="http://www.w3.org/2001/xml-events" xmlns:xlink="http://www.w3.org/1999/xlink"><defs /><rect fill="rgb(255,255,255)" height="200.0" stroke="rgb(0,0,127)" stroke-width="0.25mm" width="200.0" x="55.0" y="55.0" /><defs /><text alignment-baseline="middle" fill="rgb(0,0,255)" font-family="Verdana" font-size="18" text-anchor="middle" x="155.0" y="25.0">name</text><defs /><polygon fill="rgb(192,192,192)" points="155.0,65.0 147.0,87.0 163.0,87.0 155.0,65.0" stroke="rgb(192,192,192)" stroke-width="0.25mm" /><defs /><text alignment-baseline="middle" fill="rgb(192,192,192)" font-family="Verdana" font-size="18" text-anchor="middle" x="105.0" y="99.0">sinh</text><defs /><polyline fill="none" points="155.0,235.0 155.0,87.0" stroke="rgb(192,192,192)" stroke-width="0.25mm" /><defs /><polyline fill="none" points="65.0,155.0 223.0,155.0" stroke="rgb(192,192,192)" stroke-width="0.25mm" /><defs /><polyline fill="none" points="75.0,235.0 79.0,220.4 83.8,206.4 89.5,193.8 95.9,183.1 103.9,173.7 113.6,166.4 127.3,160.5 150.58,155.653 179.5,150.43 194.0,144.9 204.4,137.8 212.5,129.1 218.9,119.2 224.5,107.6 229.4,94.6 233.4,81.2 235.0,75.0" stroke="rgb(0,0,0)" stroke-width="0.25mm" /><defs /><polygon fill="rgb(192,192,192)" points="245.0,155.0 223.0,147.0 223.0,163.0 245.0,155.0" stroke="rgb(192,192,192)" stroke-width="0.25mm" /><defs /><g id="u"><rect fill="rgb(160,160,164)" height="40.0" rx="25.0" ry="25.0" stroke="rgb(160,160,164)" stroke-width="0.25mm" width="40.0" x="15.0" y="135.0" /><defs /><text alignment-baseline="middle" fill="rgb(255,255,255)" font-family="Verdana" font-size="18" text-anchor="middle" x="35.0" y="155.0">C</text><defs /><polygon fill="rgb(85,170,255)" points="15.0,135.0 55.0,155.0 15.0,175.0 15.0,135.0" stroke="rgb(85,170,255)" stroke-width="0.25mm" /><defs /><g display="none" id="info"><text id="name">u</text><text id="type">Modelica.ComplexBlocks.Interfaces.ComplexInput</text><text id="classDesc">'input Complex' as connector</text><text id="desc">Connector of Complex input signal</text></g></g><g id="y"><rect fill="rgb(160,160,164)" height="40.0" rx="25.0" ry="25.0" stroke="rgb(160,160,164)" stroke-width="0.25mm" width="40.0" x="15.0" y="135.0" /><defs /><text alignment-baseline="middle" fill="rgb(255,255,255)" font-family="Verdana" font-size="18" text-anchor="middle" x="35.0" y="155.0">C</text><defs /><polygon fill="rgb(255,255,255)" points="15.0,135.0 55.0,155.0 15.0,175.0 15.0,135.0" stroke="rgb(85,170,255)" stroke-width="0.25mm" /><defs /><g display="none" id="info"><text id="name">y</text><text id="type">Modelica.ComplexBlocks.Interfaces.ComplexOutput</text><text id="classDesc">'output Complex' as connector</text><text id="desc">Connector of Complex output signal</text></g></g></svg>