<?xml version="1.0" encoding="utf-8" ?>
<svg baseProfile="full" height="308.0" version="1.1" viewBox="0 0 310.0 308.0" width="310.0" xmlns="http://www.w3.org/2000/svg" xmlns:ev="http://www.w3.org/2001/xml-events" xmlns:xlink="http://www.w3.org/1999/xlink"><defs /><rect fill="rgb(255,255,255)" height="200.0" stroke="rgb(0,0,127)" stroke-width="0.25mm" width="200.0" x="55.0" y="55.0" /><defs /><text alignment-baseline="middle" fill="rgb(0,0,255)" font-family="Verdana" font-size="18" text-anchor="middle" x="155.0" y="25.0">name</text><defs /><text alignment-baseline="middle" fill="rgb(0,0,0)" font-family="Verdana" font-size="18" text-anchor="middle" x="155.0" y="283.0">delayMax=delayMax</text><defs /><path d="M 63.0 155.0 C 68.65 137.9 74.3 120.8 77.9 111.35 77.9 111.35 81.5 101.9 84.7 95.25 84.7 95.25 87.9 88.6 90.75 84.5 90.75 84.5 93.6 80.4 96.4 78.15 96.4 78.15 99.2 75.9 102.0 75.55 102.0 75.55 104.8 75.2 107.6 76.8 107.6 76.8 110.4 78.4 113.25 81.85 113.25 81.85 116.1 85.3 118.9 90.45 118.9 90.45 121.7 95.6 124.9 103.25 124.9 103.25 128.1 110.9 132.135 122.35 132.135 122.35 136.17 133.8 144.635 159.8 144.635 159.8 153.1 185.8 156.7 195.5 156.7 195.5 160.3 205.2 163.5 212.2 163.5 212.2 166.7 219.2 169.5 223.65 169.5 223.65 172.3 228.1 175.15 230.75 175.15 230.75 178.0 233.4 180.8 234.2 180.8 234.2 183.6 235.0 186.4 233.8 186.4 233.8 189.2 232.6 192.05 229.55 192.05 229.55 194.9 226.5 197.7 221.7 197.7 221.7 200.5 216.9 203.7 209.55 203.7 209.55 206.9 202.2 210.95 191.0 210.95 191.0 215.0 179.8 219.0 167.4 219.0 167.4 223.0 155.0 223.0 155.0" fill="none" stroke="rgb(0,0,127)" stroke-width="0.25mm" /><defs /><path d="M 91.0 155.0 C 96.65 137.9 102.3 120.8 105.9 111.35 105.9 111.35 109.5 101.9 112.7 95.25 112.7 95.25 115.9 88.6 118.75 84.5 118.75 84.5 121.6 80.4 124.4 78.15 124.4 78.15 127.2 75.9 130.0 75.55 130.0 75.55 132.8 75.2 135.6 76.8 135.6 76.8 138.4 78.4 141.25 81.85 141.25 81.85 144.1 85.3 146.9 90.45 146.9 90.45 149.7 95.6 152.9 103.25 152.9 103.25 156.1 110.9 160.135 122.35 160.135 122.35 164.17 133.8 172.635 159.8 172.635 159.8 181.1 185.8 184.7 195.5 184.7 195.5 188.3 205.2 191.5 212.2 191.5 212.2 194.7 219.2 197.5 223.65 197.5 223.65 200.3 228.1 203.15 230.75 203.15 230.75 206.0 233.4 208.8 234.2 208.8 234.2 211.6 235.0 214.4 233.8 214.4 233.8 217.2 232.6 220.05 229.55 220.05 229.55 222.9 226.5 225.7 221.7 225.7 221.7 228.5 216.9 231.7 209.55 231.7 209.55 234.9 202.2 238.95 191.0 238.95 191.0 243.0 179.8 247.0 167.4 247.0 167.4 251.0 155.0 251.0 155.0" fill="none" stroke="rgb(0,0,0)" stroke-width="0.25mm" /><defs /><polygon fill="rgb(0,0,127)" points="161.0,151.0 141.0,157.0 149.0,167.0 161.0,151.0" stroke="rgb(0,0,127)" stroke-width="0.25mm" /><defs /><polyline fill="none" points="55.0,215.0 79.0,215.0 147.0,161.0" stroke="rgb(0,0,127)" stroke-width="0.25mm" /><defs /><g id="u"><polygon fill="rgb(0,0,127)" points="15.0,135.0 55.0,155.0 15.0,175.0" stroke="rgb(0,0,127)" stroke-width="0.25mm" /><defs /><g display="none" id="info"><text id="name">u</text><text id="type">Modelica.Blocks.Interfaces.RealInput</text><text id="classDesc">'input Real' as connector</text><text id="desc">Connector of Real input signal</text></g></g><g id="y"><polygon fill="rgb(255,255,255)" points="15.0,135.0 55.0,155.0 15.0,175.0" stroke="rgb(0,0,127)" stroke-width="0.25mm" /><defs /><g display="none" id="info"><text id="name">y</text><text id="type">Modelica.Blocks.Interfaces.RealOutput</text><text id="classDesc">'output Real' as connector</text><text id="desc">Connector of Real output signal</text></g></g><g id="delayTime"><polygon fill="rgb(0,0,127)" points="15.0,135.0 55.0,155.0 15.0,175.0" stroke="rgb(0,0,127)" stroke-width="0.25mm" /><defs /><g display="none" id="info"><text id="name">delayTime</text><text id="type">Modelica.Blocks.Interfaces.RealInput</text><text id="classDesc">'input Real' as connector</text><text id="desc" /></g></g></svg>