<?xml version="1.0" encoding="utf-8" ?>
<svg baseProfile="full" height="244.0" version="1.1" viewBox="0 0 292.0 244.0" width="292.0" xmlns="http://www.w3.org/2000/svg" xmlns:ev="http://www.w3.org/2001/xml-events" xmlns:xlink="http://www.w3.org/1999/xlink"><defs /><rect fill="none" height="204.0" stroke="rgb(255,0,0)" stroke-dasharray="8.0 4.0" stroke-width="0.5mm" width="204.0" x="35.0" y="12.0" /><defs /><ellipse cx="137.0" cy="114.0" fill="rgb(245,245,245)" rx="70.0" ry="70.0" stroke="rgb(0,0,0)" stroke-width="0.25mm" /><defs /><polyline fill="none" points="137.0,44.0 137.0,74.0" stroke="rgb(0,0,0)" stroke-width="0.25mm" /><defs /><polyline fill="none" points="159.9,81.2 177.2,56.7" stroke="rgb(0,0,0)" stroke-width="0.25mm" /><defs /><polyline fill="none" points="114.1,81.2 96.8,56.7" stroke="rgb(0,0,0)" stroke-width="0.25mm" /><defs /><polyline fill="none" points="174.6,100.3 202.8,90.1" stroke="rgb(0,0,0)" stroke-width="0.25mm" /><defs /><polyline fill="none" points="99.4,100.3 71.2,90.1" stroke="rgb(0,0,0)" stroke-width="0.25mm" /><defs /><ellipse cx="137.0" cy="114.0" fill="none" rx="12.0" ry="12.0" stroke="rgb(64,64,64)" stroke-width="0.25mm" /><defs /><polygon fill="rgb(64,64,64)" points="132.231401703,112.496513958 153.134393186,56.1754260153 156.545318547,52.0082221349 156.949271824,57.378214849 141.768598297,115.503486042" /><defs /><ellipse cx="137.0" cy="114.0" fill="rgb(64,64,64)" rx="7.0" ry="7.0" /><defs /><polyline fill="none" points="67.0,114.0 37.0,114.0" stroke="rgb(0,0,0)" stroke-width="0.25mm" /><defs /><polyline fill="none" points="207.0,114.0 237.0,114.0" stroke="rgb(0,0,255)" stroke-width="0.25mm" /><defs /><text alignment-baseline="middle" fill="rgb(0,0,255)" font-family="Verdana" font-size="18" text-anchor="middle" x="136.5" y="216.0">name</text><defs /><text alignment-baseline="middle" fill="rgb(192,192,192)" font-family="Verdana" font-size="18" text-anchor="middle" x="221.5" y="17.5">resolve</text><defs /><polyline fill="none" points="53.0,114.0 53.0,30.0 137.0,30.0 137.0,14.0" stroke="rgb(95,95,95)" stroke-dasharray="1.0 2.0" stroke-width="0.25mm" /><defs /><text alignment-baseline="middle" fill="rgb(128,128,128)" font-family="Verdana" font-size="18" text-anchor="middle" x="23.0" y="74.5">a</text><defs /></svg>