<?xml version="1.0" encoding="utf-8" ?>
<svg baseProfile="full" height="260.0" version="1.1" viewBox="0 0 310.0 260.0" width="310.0" xmlns="http://www.w3.org/2000/svg" xmlns:ev="http://www.w3.org/2001/xml-events" xmlns:xlink="http://www.w3.org/1999/xlink"><defs /><rect fill="rgb(210,210,210)" filter="url(#BorderPattern.Raised_0)" height="200.0" stroke="rgb(0,0,0)" stroke-width="5.0mm" width="200.0" x="55.0" y="55.0" /><defs><filter filterUnits="objectBoundingBox" height="1.2" id="BorderPattern.Raised_0" width="1.2" x="-0.1" y="-0.1"><feGaussianBlur in="SourceAlpha" result="alpha_blur" stdDeviation="5" /><feSpecularLighting in="alpha_blur" lighting-color="#FFFFFF" result="spec_light" specularConstant="1" specularExponent="20" surfaceScale="5"><fePointLight x="-5000" y="-10000" z="10000" /></feSpecularLighting><feComposite in="spec_light" in2="SourceAlpha" operator="in" result="spec_light" /><feComposite in="SourceGraphic" in2="spec_light" operator="out" result="spec_light_fill" /></filter></defs><text alignment-baseline="middle" fill="rgb(0,0,255)" font-family="Verdana" font-size="18" text-anchor="middle" x="155.0" y="25.0">name</text><defs /><ellipse cx="233.0" cy="155.0" fill="rgb(235,235,235)" rx="7.0" ry="7.0" stroke="rgb(235,235,235)" stroke-width="0.25mm" /><defs /><polyline fill="none" points="77.0,87.0 77.0,235.0" stroke="rgb(192,192,192)" stroke-width="0.25mm" /><defs /><polygon fill="rgb(192,192,192)" points="77.0,65.0 69.0,87.0 85.0,87.0 77.0,65.0" stroke="rgb(192,192,192)" stroke-width="0.25mm" /><defs /><polyline fill="none" points="67.0,155.0 225.0,155.0" stroke="rgb(192,192,192)" stroke-width="0.25mm" /><defs /><path d="M 77.0 155.0 C 79.4 138.85 81.8 122.7 83.4 113.7 83.4 113.7 85.0 104.7 86.65 97.6 86.65 97.6 88.3 90.5 89.9 85.65 89.9 85.65 91.5 80.8 93.1 78.25 93.1 78.25 94.7 75.7 96.3 75.55 96.3 75.55 97.9 75.4 99.5 77.55 99.5 77.55 101.1 79.7 102.7 83.8 102.7 83.8 104.3 87.9 106.35 95.35 106.35 95.35 108.4 102.8 111.2 116.0 111.2 116.0 114.0 129.2 118.0 149.05 118.0 149.05 122.0 168.9 124.4 178.8 124.4 178.8 126.8 188.7 128.85 194.8 128.85 194.8 130.9 200.9 132.9 204.55 132.9 204.55 134.9 208.2 136.9 209.25 136.9 209.25 138.9 210.3 140.9 208.9 140.9 208.9 142.9 207.5 144.9 203.9 144.9 203.9 146.9 200.3 149.335 193.7 149.335 193.7 151.77 187.1 158.605 164.2 158.605 164.2 165.44 141.3 167.87 134.95 167.87 134.95 170.3 128.6 172.7 124.4 172.7 124.4 175.1 120.2 177.1 118.6 177.1 118.6 179.1 117.0 181.5 117.4 181.5 117.4 183.9 117.8 186.35 120.5 186.35 120.5 188.8 123.2 192.0 129.4 192.0 129.4 195.2 135.6 201.65 150.55 201.65 150.55 208.1 165.5 211.3 170.85 211.3 170.85 214.5 176.2 217.3 178.55 217.3 178.55 220.1 180.9 222.9 180.9 222.9 180.9 225.7 180.9 228.95 178.2 228.95 178.2 232.2 175.5 234.6 172.15 234.6 172.15 237.0 168.8 237.0 168.8" fill="none" stroke="rgb(192,192,192)" stroke-width="0.25mm" /><defs /><polygon fill="rgb(192,192,192)" points="247.0,155.0 225.0,147.0 225.0,163.0 247.0,155.0" stroke="rgb(192,192,192)" stroke-width="0.25mm" /><defs /><polyline fill="none" points="119.0,214.0 119.0,74.0" stroke="rgb(255,0,255)" stroke-width="0.25mm" /><defs /><polyline fill="none" points="161.0,214.0 161.0,74.0" stroke="rgb(255,0,255)" stroke-width="0.25mm" /><defs /><polyline fill="none" points="204.0,214.0 204.0,74.0" stroke="rgb(255,0,255)" stroke-width="0.25mm" /><defs /><polyline fill="none" points="77.0,155.0 225.0,155.0" stroke="rgb(255,0,255)" stroke-width="0.25mm" /><defs /><g id="y"><polygon fill="rgb(255,255,255)" points="15.0,135.0 55.0,155.0 15.0,175.0 15.0,135.0" stroke="rgb(255,0,255)" stroke-width="0.25mm" /><defs /><g display="none" id="info"><text id="name">y</text><text id="type">Modelica.Blocks.Interfaces.BooleanOutput</text><text id="classDesc">'output Boolean' as connector</text><text id="desc">Connector of Boolean output signal</text></g></g><g id="u"><polygon fill="rgb(0,0,127)" points="15.0,135.0 55.0,155.0 15.0,175.0" stroke="rgb(0,0,127)" stroke-width="0.25mm" /><defs /><g display="none" id="info"><text id="name">u</text><text id="type">Modelica.Blocks.Interfaces.RealInput</text><text id="classDesc">'input Real' as connector</text><text id="desc" /></g></g><g id="enable"><polygon fill="rgb(255,0,255)" points="15.0,135.0 55.0,155.0 15.0,175.0 15.0,135.0" stroke="rgb(255,0,255)" stroke-width="0.25mm" /><defs /><g display="none" id="info"><text id="name">enable</text><text id="type">Modelica.Blocks.Interfaces.BooleanInput</text><text id="classDesc">'input Boolean' as connector</text><text id="desc">Zero input crossing is triggered if the enable input signal is true</text></g></g></svg>