<?xml version="1.0" encoding="utf-8" ?>
<svg baseProfile="full" height="312.0" version="1.1" viewBox="0 0 313.0 312.0" width="313.0" xmlns="http://www.w3.org/2000/svg" xmlns:ev="http://www.w3.org/2001/xml-events" xmlns:xlink="http://www.w3.org/1999/xlink"><defs /><rect fill="rgb(255,255,255)" height="200.0" stroke="rgb(0,0,127)" stroke-width="0.25mm" width="200.0" x="55.0" y="55.0" /><defs /><text alignment-baseline="middle" fill="rgb(0,0,255)" font-family="Verdana" font-size="18" text-anchor="middle" x="155.0" y="25.0">name</text><defs /><polyline fill="none" points="75.0,87.0 75.0,235.0" stroke="rgb(192,192,192)" stroke-width="0.25mm" /><defs /><polygon fill="rgb(192,192,192)" points="75.0,65.0 67.0,87.0 83.0,87.0 75.0,65.0" stroke="rgb(192,192,192)" stroke-width="0.25mm" /><defs /><polyline fill="none" points="65.0,155.0 223.0,155.0" stroke="rgb(192,192,192)" stroke-width="0.25mm" /><defs /><polygon fill="rgb(192,192,192)" points="245.0,155.0 223.0,147.0 223.0,163.0 245.0,155.0" stroke="rgb(192,192,192)" stroke-width="0.25mm" /><defs /><path d="M 75.0 155.0 C 80.65 137.9 86.3 120.8 89.9 111.35 89.9 111.35 93.5 101.9 96.7 95.25 96.7 95.25 99.9 88.6 102.75 84.5 102.75 84.5 105.6 80.4 108.4 78.15 108.4 78.15 111.2 75.9 114.0 75.55 114.0 75.55 116.8 75.2 119.6 76.8 119.6 76.8 122.4 78.4 125.25 81.85 125.25 81.85 128.1 85.3 130.9 90.45 130.9 90.45 133.7 95.6 136.9 103.25 136.9 103.25 140.1 110.9 144.135 122.35 144.135 122.35 148.17 133.8 156.635 159.8 156.635 159.8 165.1 185.8 168.7 195.5 168.7 195.5 172.3 205.2 175.5 212.2 175.5 212.2 178.7 219.2 181.5 223.65 181.5 223.65 184.3 228.1 187.15 230.75 187.15 230.75 190.0 233.4 192.8 234.2 192.8 234.2 195.6 235.0 198.4 233.8 198.4 233.8 201.2 232.6 204.05 229.55 204.05 229.55 206.9 226.5 209.7 221.7 209.7 221.7 212.5 216.9 215.7 209.55 215.7 209.55 218.9 202.2 222.95 191.0 222.95 191.0 227.0 179.8 231.0 167.4 231.0 167.4 235.0 155.0 235.0 155.0" fill="none" stroke="rgb(0,0,0)" stroke-width="0.25mm" /><defs /><text alignment-baseline="middle" fill="rgb(0,0,0)" font-family="Verdana" font-size="18" text-anchor="middle" x="158.0" y="287.0">freqHz=freqHz</text><defs /><g id="y"><polygon fill="rgb(255,255,255)" points="15.0,135.0 55.0,155.0 15.0,175.0" stroke="rgb(0,0,127)" stroke-width="0.25mm" /><defs /><g display="none" id="info"><text id="name">y</text><text id="type">Modelica.Blocks.Interfaces.RealOutput</text><text id="classDesc">'output Real' as connector</text><text id="desc">Connector of Real output signal</text></g></g></svg>