<?xml version="1.0" encoding="utf-8" ?>
<svg baseProfile="full" height="260.0" version="1.1" viewBox="0 0 310.0 260.0" width="310.0" xmlns="http://www.w3.org/2000/svg" xmlns:ev="http://www.w3.org/2001/xml-events" xmlns:xlink="http://www.w3.org/1999/xlink"><defs /><rect fill="rgb(210,210,210)" filter="url(#BorderPattern.Raised_0)" height="200.0" stroke="rgb(0,0,0)" stroke-width="5.0mm" width="200.0" x="55.0" y="55.0" /><defs><filter filterUnits="objectBoundingBox" height="1.2" id="BorderPattern.Raised_0" width="1.2" x="-0.1" y="-0.1"><feGaussianBlur in="SourceAlpha" result="alpha_blur" stdDeviation="5" /><feSpecularLighting in="alpha_blur" lighting-color="#FFFFFF" result="spec_light" specularConstant="1" specularExponent="20" surfaceScale="5"><fePointLight x="-5000" y="-10000" z="10000" /></feSpecularLighting><feComposite in="spec_light" in2="SourceAlpha" operator="in" result="spec_light" /><feComposite in="SourceGraphic" in2="spec_light" operator="out" result="spec_light_fill" /></filter></defs><text alignment-baseline="middle" fill="rgb(0,0,255)" font-family="Verdana" font-size="18" text-anchor="middle" x="155.0" y="25.0">name</text><defs /><polygon fill="rgb(192,192,192)" points="75.0,65.0 67.0,87.0 83.0,87.0 75.0,65.0" stroke="rgb(192,192,192)" stroke-width="0.25mm" /><defs /><polyline fill="none" points="75.0,87.0 75.0,184.0" stroke="rgb(192,192,192)" stroke-width="0.25mm" /><defs /><polygon fill="rgb(192,192,192)" points="247.0,184.0 225.0,176.0 225.0,192.0 247.0,184.0" stroke="rgb(192,192,192)" stroke-width="0.25mm" /><defs /><polyline fill="none" points="76.0,184.0 239.0,184.0" stroke="rgb(192,192,192)" stroke-width="0.25mm" /><defs /><polyline fill="none" points="76.0,184.0 196.0,184.0" stroke="rgb(0,0,0)" stroke-width="0.25mm" /><defs /><polyline fill="none" points="140.0,176.0 156.0,184.0 140.0,191.0" stroke="rgb(0,0,0)" stroke-width="0.25mm" /><defs /><polyline fill="none" points="196.0,104.0 196.0,184.0" stroke="rgb(0,0,0)" stroke-width="0.25mm" /><defs /><polyline fill="none" points="188.0,152.0 196.0,133.0 205.0,152.0" stroke="rgb(0,0,0)" stroke-width="0.25mm" /><defs /><polyline fill="none" points="106.0,104.0 236.0,104.0" stroke="rgb(0,0,0)" stroke-width="0.25mm" /><defs /><polyline fill="none" points="151.0,96.0 136.0,104.0 151.0,112.0" stroke="rgb(0,0,0)" stroke-width="0.25mm" /><defs /><polyline fill="none" points="96.0,126.0 106.0,144.0 116.0,126.0" stroke="rgb(0,0,0)" stroke-width="0.25mm" /><defs /><polyline fill="none" points="106.0,104.0 106.0,184.0" stroke="rgb(0,0,0)" stroke-width="0.25mm" /><defs /><text alignment-baseline="middle" fill="rgb(192,192,192)" font-family="Verdana" font-size="18" text-anchor="middle" x="104.5" y="225.5">uLow</text><defs /><text alignment-baseline="middle" fill="rgb(192,192,192)" font-family="Verdana" font-size="18" text-anchor="middle" x="201.5" y="225.5">uHigh</text><defs /><rect fill="none" height="43.0" stroke="rgb(192,192,192)" stroke-width="0.25mm" width="83.0" x="64.0" y="204.0" /><defs /><polyline fill="none" points="106.0,184.0 106.0,204.0" stroke="rgb(192,192,192)" stroke-width="0.25mm" /><defs /><rect fill="none" height="43.0" stroke="rgb(192,192,192)" stroke-width="0.25mm" width="89.0" x="157.0" y="204.0" /><defs /><polyline fill="none" points="196.0,184.0 196.0,204.0" stroke="rgb(192,192,192)" stroke-width="0.25mm" /><defs /><g id="u"><polygon fill="rgb(0,0,127)" points="15.0,135.0 55.0,155.0 15.0,175.0" stroke="rgb(0,0,127)" stroke-width="0.25mm" /><defs /><g display="none" id="info"><text id="name">u</text><text id="type">Modelica.Blocks.Interfaces.RealInput</text><text id="classDesc">'input Real' as connector</text><text id="desc" /></g></g><g id="y"><polygon fill="rgb(255,255,255)" points="255.0,145.0 275.0,155.0 255.0,165.0 255.0,145.0" stroke="rgb(255,0,255)" stroke-width="0.25mm" /><defs /><g display="none" id="info"><text id="name">y</text><text id="type">Modelica.Blocks.Interfaces.BooleanOutput</text><text id="classDesc">'output Boolean' as connector</text><text id="desc" /></g></g></svg>