<?xml version="1.0" encoding="utf-8" ?>
<svg baseProfile="full" height="220.0" version="1.1" viewBox="0 0 310.0 220.0" width="310.0" xmlns="http://www.w3.org/2000/svg" xmlns:ev="http://www.w3.org/2001/xml-events" xmlns:xlink="http://www.w3.org/1999/xlink"><defs /><polyline fill="none" points="65.0,105.0 105.0,105.0" stroke="rgb(0,0,255)" stroke-width="0.25mm" /><defs /><polyline fill="none" points="205.0,105.0 245.0,105.0" stroke="rgb(0,0,255)" stroke-width="0.25mm" /><defs /><ellipse cx="155.0" cy="105.0" fill="rgb(255,255,255)" rx="50.0" ry="50.0" stroke="rgb(0,0,255)" stroke-width="0.25mm" /><defs /><polyline fill="none" points="105.0,105.0 205.0,105.0" stroke="rgb(0,0,255)" stroke-width="0.25mm" /><defs /><path d="M 85.0 105.0 C 89.9 90.05 94.8 75.1 98.0 66.8 98.0 66.8 101.2 58.5 104.0 52.7 104.0 52.7 106.8 46.9 109.25 43.35 109.25 43.35 111.7 39.8 114.2 37.8 114.2 37.8 116.7 35.8 119.15 35.5 119.15 35.5 121.6 35.2 124.05 36.6 124.05 36.6 126.5 38.0 128.95 41.0 128.95 41.0 131.4 44.0 133.9 48.5 133.9 48.5 136.4 53.0 139.2 59.7 139.2 59.7 142.0 66.4 145.51 76.4 145.51 76.4 149.02 86.4 156.405 109.15 156.405 109.15 163.79 131.9 166.945 140.45 166.945 140.45 170.1 149.0 172.95 155.1 172.95 155.1 175.8 161.2 178.25 165.1 178.25 165.1 180.7 169.0 183.15 171.3 183.15 171.3 185.6 173.6 188.05 174.3 188.05 174.3 190.5 175.0 193.0 173.95 193.0 173.95 195.5 172.9 197.95 170.2 197.95 170.2 200.4 167.5 202.85 163.3 202.85 163.3 205.3 159.1 208.1 152.7 208.1 152.7 210.9 146.3 214.45 136.5 214.45 136.5 218.0 126.7 221.5 115.85 221.5 115.85 225.0 105.0 225.0 105.0" fill="none" stroke="rgb(192,192,192)" stroke-width="0.25mm" /><defs /><text alignment-baseline="middle" fill="rgb(0,0,255)" font-family="Verdana" font-size="18" text-anchor="middle" x="155.0" y="185.0">name</text><defs /><text alignment-baseline="middle" fill="rgb(0,0,0)" font-family="Verdana" font-size="18" text-anchor="middle" x="155.0" y="25.0">m=m</text><defs /><text alignment-baseline="middle" fill="rgb(0,0,255)" font-family="Verdana" font-size="18" text-anchor="middle" x="225.0" y="75.0">-</text><defs /><text alignment-baseline="middle" fill="rgb(0,0,255)" font-family="Verdana" font-size="18" text-anchor="middle" x="85.0" y="75.0">+</text><defs /><g id="plug_p"><ellipse cx="55.0" cy="105.0" fill="rgb(0,0,255)" rx="10.0" ry="10.0" stroke="rgb(0,0,255)" stroke-width="0.25mm" /><defs /><g display="none" id="info"><text id="name">plug_p</text><text id="type">Modelica.Electrical.MultiPhase.Interfaces.PositivePlug</text><text id="classDesc">Positive plug with m pins</text><text id="desc" /></g></g><g id="plug_n"><ellipse cx="255.0" cy="105.0" fill="rgb(255,255,255)" rx="10.0" ry="10.0" stroke="rgb(0,0,255)" stroke-width="0.25mm" /><defs /><g display="none" id="info"><text id="name">plug_n</text><text id="type">Modelica.Electrical.MultiPhase.Interfaces.NegativePlug</text><text id="classDesc">Negative plug with m pins</text><text id="desc" /></g></g></svg>