<?xml version="1.0" encoding="utf-8" ?>
<svg baseProfile="full" height="260.0" version="1.1" viewBox="0 0 310.0 260.0" width="310.0" xmlns="http://www.w3.org/2000/svg" xmlns:ev="http://www.w3.org/2001/xml-events" xmlns:xlink="http://www.w3.org/1999/xlink"><defs /><rect fill="rgb(255,255,255)" height="200.0" stroke="rgb(0,0,127)" stroke-width="0.25mm" width="200.0" x="55.0" y="55.0" /><defs /><text alignment-baseline="middle" fill="rgb(0,0,255)" font-family="Verdana" font-size="18" text-anchor="middle" x="155.0" y="25.0">name</text><defs /><polygon fill="rgb(192,192,192)" points="245.0,155.0 223.0,147.0 223.0,163.0 245.0,155.0" stroke="rgb(192,192,192)" stroke-width="0.25mm" /><defs /><polyline fill="none" points="65.0,155.0 223.0,155.0" stroke="rgb(192,192,192)" stroke-width="0.25mm" /><defs /><path d="M 75.2 235.0 C 75.5 220.3 75.8 205.6 76.2 198.8 76.2 198.8 76.6 192.0 77.0 187.5 77.0 187.5 77.4 183.0 77.8 179.65 77.8 179.65 78.2 176.3 79.0 171.35 79.0 171.35 79.8 166.4 81.0 161.355 81.0 161.355 82.2 156.31 83.85 151.615 83.85 151.615 85.5 146.92 87.9 142.01 87.9 142.01 90.3 137.1 93.9 132.05 93.9 132.05 97.5 127.0 102.75 121.95 102.75 121.95 108.0 116.9 115.6 111.9 115.6 111.9 123.2 106.9 134.05 101.95 134.05 101.95 144.9 97.0 161.0 92.0 161.0 92.0 177.1 87.0 200.4 81.95 200.4 81.95 223.7 76.9 229.35 75.95 229.35 75.95 235.0 75.0 235.0 75.0" fill="none" stroke="rgb(0,0,0)" stroke-width="0.25mm" /><defs /><polygon fill="rgb(192,192,192)" points="75.0,65.0 67.0,87.0 83.0,87.0 75.0,65.0" stroke="rgb(192,192,192)" stroke-width="0.25mm" /><defs /><polyline fill="none" points="75.0,235.0 75.0,87.0" stroke="rgb(192,192,192)" stroke-width="0.25mm" /><defs /><text alignment-baseline="middle" fill="rgb(192,192,192)" font-family="Verdana" font-size="18" text-anchor="middle" x="170.0" y="201.0">log10</text><defs /><g id="u"><polygon fill="rgb(0,0,127)" points="15.0,135.0 55.0,155.0 15.0,175.0" stroke="rgb(0,0,127)" stroke-width="0.25mm" /><defs /><g display="none" id="info"><text id="name">u</text><text id="type">Modelica.Blocks.Interfaces.RealInput</text><text id="classDesc">'input Real' as connector</text><text id="desc">Connector of Real input signal</text></g></g><g id="y"><polygon fill="rgb(255,255,255)" points="15.0,135.0 55.0,155.0 15.0,175.0" stroke="rgb(0,0,127)" stroke-width="0.25mm" /><defs /><g display="none" id="info"><text id="name">y</text><text id="type">Modelica.Blocks.Interfaces.RealOutput</text><text id="classDesc">'output Real' as connector</text><text id="desc">Connector of Real output signal</text></g></g></svg>