<?xml version="1.0" encoding="utf-8" ?>
<svg baseProfile="full" height="260.0" version="1.1" viewBox="0 0 310.0 260.0" width="310.0" xmlns="http://www.w3.org/2000/svg" xmlns:ev="http://www.w3.org/2001/xml-events" xmlns:xlink="http://www.w3.org/1999/xlink"><defs /><rect fill="rgb(255,255,255)" height="200.0" stroke="rgb(0,0,127)" stroke-width="0.25mm" width="200.0" x="55.0" y="55.0" /><defs /><text alignment-baseline="middle" fill="rgb(0,0,255)" font-family="Verdana" font-size="18" text-anchor="middle" x="155.0" y="25.0">name</text><defs /><polyline fill="none" points="65.0,235.0 223.0,235.0" stroke="rgb(192,192,192)" stroke-width="0.25mm" /><defs /><polygon fill="rgb(192,192,192)" points="245.0,235.0 223.0,227.0 223.0,243.0 245.0,235.0" stroke="rgb(192,192,192)" stroke-width="0.25mm" /><defs /><path d="M 75.0 235.0 C 75.4 229.35 75.8 223.7 76.2 221.35 76.2 221.35 76.6 219.0 77.4 215.65 77.4 215.65 78.2 212.3 79.8 207.6 79.8 207.6 81.4 202.9 84.25 197.0 84.25 197.0 87.1 191.1 91.5 184.15 91.5 184.15 95.9 177.2 102.35 169.345 102.35 169.345 108.8 161.49 117.65 152.895 117.65 152.895 126.5 144.3 138.54 134.65 138.54 134.65 150.58 125.0 166.64 114.35 166.64 114.35 182.7 103.7 203.6 92.0 203.6 92.0 224.5 80.3 229.75 77.65 229.75 77.65 235.0 75.0 235.0 75.0" fill="none" stroke="rgb(0,0,0)" stroke-width="0.25mm" /><defs /><polygon fill="rgb(192,192,192)" points="75.0,65.0 67.0,87.0 83.0,87.0 75.0,65.0" stroke="rgb(192,192,192)" stroke-width="0.25mm" /><defs /><polyline fill="none" points="75.0,243.0 75.0,87.0" stroke="rgb(192,192,192)" stroke-width="0.25mm" /><defs /><text alignment-baseline="middle" fill="rgb(192,192,192)" font-family="Verdana" font-size="18" text-anchor="middle" x="183.0" y="183.0">sqrt</text><defs /><g id="u"><polygon fill="rgb(0,0,127)" points="15.0,135.0 55.0,155.0 15.0,175.0" stroke="rgb(0,0,127)" stroke-width="0.25mm" /><defs /><g display="none" id="info"><text id="name">u</text><text id="type">Modelica.Blocks.Interfaces.RealInput</text><text id="classDesc">'input Real' as connector</text><text id="desc">Connector of Real input signal</text></g></g><g id="y"><polygon fill="rgb(255,255,255)" points="255.0,145.0 275.0,155.0 255.0,165.0" stroke="rgb(0,0,127)" stroke-width="0.25mm" /><defs /><g display="none" id="info"><text id="name">y</text><text id="type">Modelica.Blocks.Interfaces.RealOutput</text><text id="classDesc">'output Real' as connector</text><text id="desc">Connector of Real output signal</text></g></g></svg>