<?xml version="1.0" encoding="utf-8" ?>
<svg baseProfile="full" height="306.0" version="1.1" viewBox="0 0 310.0 306.0" width="310.0" xmlns="http://www.w3.org/2000/svg" xmlns:ev="http://www.w3.org/2001/xml-events" xmlns:xlink="http://www.w3.org/1999/xlink"><defs /><rect fill="rgb(255,255,255)" height="200.0" stroke="rgb(0,0,127)" stroke-width="0.25mm" width="200.0" x="55.0" y="55.0" /><defs /><text alignment-baseline="middle" fill="rgb(0,0,255)" font-family="Verdana" font-size="18" text-anchor="middle" x="155.0" y="25.0">name</text><defs /><polyline fill="none" points="75.0,77.0 75.0,245.0" stroke="rgb(192,192,192)" stroke-width="0.25mm" /><defs /><polygon fill="rgb(192,192,192)" points="75.4416,63.183 67.4416,85.183 83.4416,85.183 75.4416,63.183" stroke="rgb(192,192,192)" stroke-width="0.25mm" /><defs /><path d="M 235.0 120.76 C 226.7115 120.76 218.423 120.76 192.937 151.8875 192.937 151.8875 167.451 183.015 145.273 113.173 145.273 113.173 123.095 43.331 105.391 130.682 105.391 130.682 87.687 218.033 81.3435 226.5165 81.3435 226.5165 75.0 235.0 75.0 235.0" fill="none" stroke="rgb(0,0,127)" stroke-width="0.25mm" /><defs /><polyline fill="none" points="64.0221,235.7697 236.0221,235.7697" stroke="rgb(192,192,192)" stroke-width="0.25mm" /><defs /><polygon fill="rgb(192,192,192)" points="246.3375,234.8233 224.3375,226.8233 224.3375,242.8233 246.3375,234.8233" stroke="rgb(192,192,192)" stroke-width="0.25mm" /><defs /><text alignment-baseline="middle" fill="rgb(192,192,192)" font-family="Verdana" font-size="18" text-anchor="middle" x="178.41325" y="194.735">LowpassButterworthFilter</text><defs /><text alignment-baseline="middle" fill="rgb(0,0,0)" font-family="Verdana" font-size="18" text-anchor="middle" x="163.0" y="281.0">f=f</text><defs /><text alignment-baseline="middle" fill="rgb(192,192,192)" font-family="Verdana" font-size="18" text-anchor="middle" x="201.0" y="84.0">n</text><defs /><g id="u"><polygon fill="rgb(0,0,127)" points="15.0,135.0 55.0,155.0 15.0,175.0" stroke="rgb(0,0,127)" stroke-width="0.25mm" /><defs /><g display="none" id="info"><text id="name">u</text><text id="type">Modelica.Blocks.Interfaces.RealInput</text><text id="classDesc">'input Real' as connector</text><text id="desc">Connector of Real input signal</text></g></g><g id="y"><polygon fill="rgb(255,255,255)" points="15.0,135.0 55.0,155.0 15.0,175.0" stroke="rgb(0,0,127)" stroke-width="0.25mm" /><defs /><g display="none" id="info"><text id="name">y</text><text id="type">Modelica.Blocks.Interfaces.RealOutput</text><text id="classDesc">'output Real' as connector</text><text id="desc">Connector of Real output signal</text></g></g></svg>