<?xml version="1.0" encoding="utf-8" ?>
<svg baseProfile="full" height="210.0" version="1.1" viewBox="0 0 210.0 210.0" width="210.0" xmlns="http://www.w3.org/2000/svg" xmlns:ev="http://www.w3.org/2001/xml-events" xmlns:xlink="http://www.w3.org/1999/xlink"><defs /><rect fill="url(#0)" height="200.0" rx="25.0" ry="25.0" stroke="rgb(200,200,200)" stroke-width="0.25mm" width="200.0" x="5.0" y="5.0" /><defs><linearGradient id="0" x1="0%" x2="0%" y1="0%" y2="100%"><stop offset="0" stop-color="rgb(200, 200, 200)" stop-opacity="1" /><stop offset="0.3" stop-color="rgb(248, 248, 248)" stop-opacity="1" /><stop offset="0.7" stop-color="rgb(248, 248, 248)" stop-opacity="1" /><stop offset="1" stop-color="rgb(200, 200, 200)" stop-opacity="1" /></linearGradient></defs><rect fill="none" height="200.0" rx="25.0" ry="25.0" stroke="rgb(128,128,128)" stroke-width="0.25mm" width="200.0" x="5.0" y="5.0" /><defs /><polyline fill="none" points="73.0,137.0 73.0,185.0" stroke="rgb(0,0,0)" stroke-width="0.25mm" /><defs /><path d="M 73.0 137.0 C 75.0 131.53085 77.0 126.0617 78.75 119.25025 78.75 119.25025 80.5 112.4388 82.25 104.6353 82.25 104.6353 84.0 96.8318 85.75 88.4445 85.75 88.4445 87.5 80.0572 89.25 71.6811 89.25 71.6811 91.0 63.305 92.75 55.66395 92.75 55.66395 94.5 48.0229 96.25 41.8716 96.25 41.8716 98.0 35.7203 99.75 31.7232 99.75 31.7232 101.5 27.7261 103.25 26.33955 103.25 26.33955 105.0 24.953 106.75 26.33955 106.75 26.33955 108.5 27.7261 110.25 31.7232 110.25 31.7232 112.0 35.7203 113.75 41.8716 113.75 41.8716 115.5 48.0229 117.25 55.66395 117.25 55.66395 119.0 63.305 120.75 71.6811 120.75 71.6811 122.5 80.0572 124.25 88.4445 124.25 88.4445 126.0 96.8318 127.75 104.6353 127.75 104.6353 129.5 112.4388 131.25 119.25025 131.25 119.25025 133.0 126.0617 134.75 131.6733 134.75 131.6733 136.5 137.2849 138.25 141.6658 138.25 141.6658 140.0 146.0467 140.0 146.0467" fill="none" stroke="rgb(0,0,0)" stroke-width="0.25mm" /><defs /><polyline fill="none" points="139.5,145.5 139.5,183.5" stroke="rgb(0,0,0)" stroke-width="0.25mm" /><defs /><polyline fill="none" points="139.5,183.5 175.5,183.5" stroke="rgb(0,0,0)" stroke-width="0.25mm" /><defs /><polyline fill="none" points="37.0,184.0 73.0,184.0" stroke="rgb(0,0,0)" stroke-width="0.25mm" /><defs /></svg>