<?xml version="1.0" encoding="utf-8" ?>
<svg baseProfile="full" height="255.0" version="1.1" viewBox="0 0 310.0 255.0" width="310.0" xmlns="http://www.w3.org/2000/svg" xmlns:ev="http://www.w3.org/2001/xml-events" xmlns:xlink="http://www.w3.org/1999/xlink"><defs /><rect fill="url(#0)" height="160.0" stroke="rgb(0,0,0)" stroke-width="0.25mm" width="40.0" x="205.0" y="50.0" /><defs><pattern height="7" id="0" patternUnits="userSpaceOnUse" width="7" x="0" y="0"><rect fill="rgb(192,192,192)" height="7" width="7" x="0" y="0" /><path d="M7,0 l-7,7" stroke="rgb(0,0,0)" stroke-width="1" /><path d="M1,-1 l-7,7" stroke="rgb(0,0,0)" stroke-width="1" /><path d="M8,6 l-7,7" stroke="rgb(0,0,0)" stroke-width="1" /></pattern></defs><rect fill="url(#1)" height="160.0" stroke="rgb(0,0,0)" stroke-width="0.25mm" width="40.0" x="65.0" y="50.0" /><defs><pattern height="7" id="1" patternUnits="userSpaceOnUse" width="7" x="0" y="0"><rect fill="rgb(192,192,192)" height="7" width="7" x="0" y="0" /><path d="M7,0 l-7,7" stroke="rgb(0,0,0)" stroke-width="1" /><path d="M1,-1 l-7,7" stroke="rgb(0,0,0)" stroke-width="1" /><path d="M8,6 l-7,7" stroke="rgb(0,0,0)" stroke-width="1" /></pattern></defs><polyline fill="none" points="119.0,120.0 191.0,120.0" stroke="rgb(191,0,0)" stroke-width="0.25mm" /><defs /><polyline fill="none" points="119.0,120.0 129.0,114.0" stroke="rgb(191,0,0)" stroke-width="0.25mm" /><defs /><polyline fill="none" points="119.0,120.0 129.0,126.0" stroke="rgb(191,0,0)" stroke-width="0.25mm" /><defs /><polyline fill="none" points="119.0,140.0 191.0,140.0" stroke="rgb(191,0,0)" stroke-width="0.25mm" /><defs /><polyline fill="none" points="181.0,146.0 191.0,140.0" stroke="rgb(191,0,0)" stroke-width="0.25mm" /><defs /><polyline fill="none" points="181.0,134.0 191.0,140.0" stroke="rgb(191,0,0)" stroke-width="0.25mm" /><defs /><polyline fill="none" points="119.0,160.0 191.0,160.0" stroke="rgb(191,0,0)" stroke-width="0.25mm" /><defs /><polyline fill="none" points="119.0,160.0 129.0,154.0" stroke="rgb(191,0,0)" stroke-width="0.25mm" /><defs /><polyline fill="none" points="119.0,160.0 129.0,166.0" stroke="rgb(191,0,0)" stroke-width="0.25mm" /><defs /><polyline fill="none" points="119.0,100.0 191.0,100.0" stroke="rgb(191,0,0)" stroke-width="0.25mm" /><defs /><polyline fill="none" points="181.0,106.0 191.0,100.0" stroke="rgb(191,0,0)" stroke-width="0.25mm" /><defs /><polyline fill="none" points="181.0,94.0 191.0,100.0" stroke="rgb(191,0,0)" stroke-width="0.25mm" /><defs /><text alignment-baseline="middle" fill="rgb(0,0,255)" font-family="Verdana" font-size="18" text-anchor="middle" x="155.0" y="25.0">name</text><defs /><text alignment-baseline="middle" fill="rgb(0,0,0)" font-family="Verdana" font-size="18" text-anchor="middle" x="155.0" y="235.0">Gr=Gr</text><defs /><rect fill="rgb(191,0,0)" height="160.0" stroke="rgb(191,0,0)" stroke-width="0.25mm" width="6.0" x="105.0" y="50.0" /><defs /><rect fill="rgb(191,0,0)" height="160.0" stroke="rgb(191,0,0)" stroke-width="0.25mm" width="5.0" x="200.0" y="50.0" /><defs /><g id="port_a"><rect fill="rgb(191,0,0)" height="20.0" stroke="rgb(191,0,0)" stroke-width="0.25mm" width="20.0" x="45.0" y="120.0" /><defs /><g display="none" id="info"><text id="name">port_a</text><text id="type">Modelica.Thermal.HeatTransfer.Interfaces.HeatPort_a</text><text id="classDesc">Thermal port for 1-dim. heat transfer (filled rectangular icon)</text><text id="desc" /></g></g><g id="port_b"><rect fill="rgb(255,255,255)" height="20.0" stroke="rgb(191,0,0)" stroke-width="0.25mm" width="20.0" x="245.0" y="120.0" /><defs /><g display="none" id="info"><text id="name">port_b</text><text id="type">Modelica.Thermal.HeatTransfer.Interfaces.HeatPort_b</text><text id="classDesc">Thermal port for 1-dim. heat transfer (unfilled rectangular icon)</text><text id="desc" /></g></g></svg>