<?xml version="1.0" encoding="utf-8" ?>
<svg baseProfile="full" height="260.0" version="1.1" viewBox="0 0 310.0 260.0" width="310.0" xmlns="http://www.w3.org/2000/svg" xmlns:ev="http://www.w3.org/2001/xml-events" xmlns:xlink="http://www.w3.org/1999/xlink"><defs /><rect fill="rgb(255,255,255)" height="200.0" stroke="rgb(0,0,0)" stroke-width="0.25mm" width="200.0" x="55.0" y="55.0" /><defs /><polyline fill="none" points="155.0,235.0 155.0,87.0" stroke="rgb(192,192,192)" stroke-width="0.25mm" /><defs /><polygon fill="rgb(192,192,192)" points="155.0,65.0 147.0,87.0 163.0,87.0 155.0,65.0" stroke="rgb(192,192,192)" stroke-width="0.25mm" /><defs /><text alignment-baseline="middle" fill="rgb(0,0,255)" font-family="Verdana" font-size="18" text-anchor="middle" x="155.0" y="25.0">name</text><defs /><polyline fill="none" points="65.0,155.0 223.0,155.0" stroke="rgb(192,192,192)" stroke-width="0.25mm" /><defs /><polygon fill="rgb(192,192,192)" points="245.0,155.0 223.0,147.0 223.0,163.0 245.0,155.0" stroke="rgb(192,192,192)" stroke-width="0.25mm" /><defs /><polyline fill="none" points="75.0,235.0 75.8,227.8 77.4,222.5 81.4,214.4 88.7,204.8 101.5,192.3 124.8,174.7 192.4,130.2 212.5,114.2 223.7,102.3 230.2,92.8 232.6,87.5 235.0,75.0" stroke="rgb(0,0,0)" stroke-width="0.25mm" /><defs /><text alignment-baseline="middle" fill="rgb(192,192,192)" font-family="Verdana" font-size="18" text-anchor="middle" x="103.0" y="101.0">asin</text><defs /></svg>