<?xml version="1.0" encoding="utf-8" ?>
<svg baseProfile="full" height="270.0" version="1.1" viewBox="0 0 250.0 270.0" width="250.0" xmlns="http://www.w3.org/2000/svg" xmlns:ev="http://www.w3.org/2001/xml-events" xmlns:xlink="http://www.w3.org/1999/xlink"><defs /><rect fill="rgb(255,255,255)" height="120.0" width="200.0" x="45.0" y="105.0" /><defs /><polyline fill="none" points="245.0,265.0 239.0,265.0 229.0,263.0 221.0,259.0 209.0,251.0 195.0,237.0 187.0,223.0 181.0,205.0 175.0,183.0 175.0,165.0 175.0,147.0 179.0,129.0 191.0,99.0 207.0,81.0 223.0,69.0 235.0,65.0 245.0,65.0" stroke="rgb(255,128,0)" stroke-width="0.25mm" /><defs /><polyline fill="none" points="185.0,105.0 45.0,105.0 45.0,65.0" stroke="rgb(0,0,255)" stroke-width="0.25mm" /><defs /><polyline fill="none" points="185.0,225.0 45.0,225.0 45.0,263.0" stroke="rgb(0,0,255)" stroke-width="0.25mm" /><defs /><polyline fill="none" points="185.0,105.0 245.0,145.0 185.0,185.0 145.0,185.0 105.0,165.0 145.0,145.0 185.0,145.0 245.0,185.0 185.0,225.0" stroke="rgb(0,0,255)" stroke-width="0.25mm" /><defs /><text alignment-baseline="middle" fill="rgb(255,128,0)" font-family="Verdana" font-size="18" text-anchor="middle" x="145.0" y="25.0">name</text><defs /><g id="plug_p"><ellipse cx="25.0" cy="165.0" fill="rgb(0,0,255)" rx="20.0" ry="20.0" stroke="rgb(0,0,255)" stroke-width="0.25mm" /><defs /><g display="none" id="info"><text id="name">plug_p</text><text id="type">Modelica.Electrical.MultiPhase.Interfaces.PositivePlug</text><text id="classDesc">Positive plug with m pins</text><text id="desc">Positive plug</text></g></g><g id="plug_n"><ellipse cx="25.0" cy="165.0" fill="rgb(255,255,255)" rx="20.0" ry="20.0" stroke="rgb(0,0,255)" stroke-width="0.25mm" /><defs /><g display="none" id="info"><text id="name">plug_n</text><text id="type">Modelica.Electrical.MultiPhase.Interfaces.NegativePlug</text><text id="classDesc">Negative plug with m pins</text><text id="desc">Negative plug</text></g></g><g id="port_n"><ellipse cx="25.0" cy="165.0" fill="rgb(255,255,255)" rx="20.0" ry="20.0" stroke="rgb(255,128,0)" stroke-width="0.25mm" /><defs /><g display="none" id="info"><text id="name">port_n</text><text id="type">Modelica.Magnetic.FundamentalWave.Interfaces.NegativeMagneticPort</text><text id="classDesc">Negative complex magnetic port</text><text id="desc">Negative complex magnetic port</text></g></g><g id="port_p"><ellipse cx="25.0" cy="165.0" fill="rgb(255,128,0)" rx="20.0" ry="20.0" stroke="rgb(255,128,0)" stroke-width="0.25mm" /><defs /><g display="none" id="info"><text id="name">port_p</text><text id="type">Modelica.Magnetic.FundamentalWave.Interfaces.PositiveMagneticPort</text><text id="classDesc">Positive complex magnetic port</text><text id="desc">Positive complex magnetic port</text></g></g><g id="heatPortWinding"><rect fill="rgb(191,0,0)" height="40.0" stroke="rgb(191,0,0)" stroke-width="0.25mm" width="40.0" x="5.0" y="145.0" /><defs /><g display="none" id="info"><text id="name">heatPortWinding</text><text id="type">Modelica.Thermal.HeatTransfer.Interfaces.HeatPort_a</text><text id="classDesc">Thermal port for 1-dim. heat transfer (filled rectangular icon)</text><text id="desc" /></g></g><g id="heatPortCore"><rect fill="rgb(191,0,0)" height="40.0" stroke="rgb(191,0,0)" stroke-width="0.25mm" width="40.0" x="5.0" y="145.0" /><defs /><g display="none" id="info"><text id="name">heatPortCore</text><text id="type">Modelica.Thermal.HeatTransfer.Interfaces.HeatPort_a</text><text id="classDesc">Thermal port for 1-dim. heat transfer (filled rectangular icon)</text><text id="desc">Heat ports of winding resistor</text></g></g></svg>