<?xml version="1.0" encoding="utf-8" ?>
<svg baseProfile="full" height="210.0" version="1.1" viewBox="0 0 210.0 210.0" width="210.0" xmlns="http://www.w3.org/2000/svg" xmlns:ev="http://www.w3.org/2001/xml-events" xmlns:xlink="http://www.w3.org/1999/xlink"><defs /><rect fill="url(#0)" height="200.0" rx="25.0" ry="25.0" stroke="rgb(200,200,200)" stroke-width="0.25mm" width="200.0" x="5.0" y="5.0" /><defs><linearGradient id="0" x1="0%" x2="0%" y1="0%" y2="100%"><stop offset="0" stop-color="rgb(200, 200, 200)" stop-opacity="1" /><stop offset="0.3" stop-color="rgb(248, 248, 248)" stop-opacity="1" /><stop offset="0.7" stop-color="rgb(248, 248, 248)" stop-opacity="1" /><stop offset="1" stop-color="rgb(200, 200, 200)" stop-opacity="1" /></linearGradient></defs><rect fill="none" height="200.0" rx="25.0" ry="25.0" stroke="rgb(128,128,128)" stroke-width="0.25mm" width="200.0" x="5.0" y="5.0" /><defs /><path d="M 33.0 165.0 C 34.75 165.0 36.5 165.0 38.25 165.0 38.25 165.0 40.0 165.0 41.75 165.0 41.75 165.0 43.5 165.0 45.25 165.0 45.25 165.0 47.0 165.0 48.75 165.0 48.75 165.0 50.5 165.0 52.25 165.0 52.25 165.0 54.0 165.0 55.75 165.0 55.75 165.0 57.5 165.0 59.25 165.0 59.25 165.0 61.0 165.0 62.75 165.0 62.75 165.0 64.5 165.0 66.25 165.0 66.25 165.0 68.0 165.0 69.75 165.0 69.75 165.0 71.5 165.0 73.25 165.0 73.25 165.0 75.0 165.0 76.75 165.0 76.75 165.0 78.5 165.0 80.25 165.0 80.25 165.0 82.0 165.0 83.75 165.0 83.75 165.0 85.5 165.0 87.25 165.0 87.25 165.0 89.0 165.0 90.75 165.0 90.75 165.0 92.5 165.0 94.25 165.0 94.25 165.0 96.0 165.0 97.75 165.0 97.75 165.0 99.5 165.0 101.25 165.0 101.25 165.0 103.0 165.0 104.75 113.4288 104.75 113.4288 106.5 61.8576 108.25 47.8459 108.25 47.8459 110.0 33.8342 111.75 29.4171 111.75 29.4171 113.5 25.0 115.25 26.32075 115.25 26.32075 117.0 27.6415 118.75 32.4885 118.75 32.4885 120.5 37.3355 122.25 44.16365 122.25 44.16365 124.0 50.9918 125.75 58.68805 125.75 58.68805 127.5 66.3843 129.25 74.16925 129.25 74.16925 131.0 81.9542 132.75 89.315155 132.75 89.315155 134.5 96.67611 136.25 103.309255 136.25 103.309255 138.0 109.9424 139.75 115.701 139.75 115.701 141.5 121.4596 143.25 126.30875 143.25 126.30875 145.0 131.1579 146.75 135.1366 146.75 135.1366 148.5 139.1153 150.25 142.3064 150.25 142.3064 152.0 145.4975 153.75 148.0054 153.75 148.0054 155.5 150.5133 157.25 152.44825 157.25 152.44825 159.0 154.3832 160.75 155.85095 160.75 155.85095 162.5 157.3187 164.25 158.4146 164.25 158.4146 166.0 159.5105 167.75 160.31675 167.75 160.31675 169.5 161.123 171.25 161.7079 171.25 161.7079 173.0 162.2928 173.0 162.2928" fill="none" stroke="rgb(0,0,0)" stroke-width="0.25mm" /><defs /></svg>