<?xml version="1.0" encoding="utf-8" ?>
<svg baseProfile="full" height="210.0" version="1.1" viewBox="0 0 210.0 210.0" width="210.0" xmlns="http://www.w3.org/2000/svg" xmlns:ev="http://www.w3.org/2001/xml-events" xmlns:xlink="http://www.w3.org/1999/xlink"><defs /><polygon fill="rgb(245,245,245)" points="5.0,185.0 5.0,45.0 25.0,51.0 25.0,25.0 65.0,47.0 65.0,5.0 95.0,45.0 195.0,45.0 205.0,65.0 205.0,205.0 85.0,205.0 5.0,185.0" /><defs /><polygon fill="none" points="85.0,205.0 95.0,185.0 195.0,185.0 205.0,205.0 85.0,205.0" stroke="rgb(0,0,0)" stroke-width="0.25mm" /><defs /><polyline fill="none" points="195.0,185.0 195.0,45.0 205.0,65.0 205.0,205.0" stroke="rgb(0,0,0)" stroke-width="0.25mm" /><defs /><polyline fill="none" points="195.0,45.0 95.0,45.0 95.0,185.0" stroke="rgb(0,0,0)" stroke-width="0.25mm" /><defs /><polyline fill="none" points="95.0,45.0 65.0,5.0 65.0,145.0 95.0,185.0 95.0,45.0" stroke="rgb(0,0,0)" stroke-width="0.25mm" /><defs /><polyline fill="none" points="85.0,193.0 25.0,165.0 25.0,25.0 65.0,47.0" stroke="rgb(0,0,0)" stroke-width="0.25mm" /><defs /><polyline fill="none" points="85.0,205.0 5.0,185.0 5.0,45.0 25.0,51.0" stroke="rgb(0,0,0)" stroke-width="0.25mm" /><defs /><polyline fill="none" points="115.0,75.0 177.0,75.0" stroke="rgb(0,0,0)" stroke-width="0.25mm" /><defs /><polyline fill="none" points="115.0,115.0 175.0,115.0" stroke="rgb(0,0,0)" stroke-width="0.25mm" /><defs /><polyline fill="none" points="115.0,155.0 175.0,155.0" stroke="rgb(0,0,0)" stroke-width="0.25mm" /><defs /></svg>