<?xml version="1.0" encoding="utf-8" ?>
<svg baseProfile="full" height="270.0" version="1.1" viewBox="0 0 310.0 270.0" width="310.0" xmlns="http://www.w3.org/2000/svg" xmlns:ev="http://www.w3.org/2001/xml-events" xmlns:xlink="http://www.w3.org/1999/xlink"><defs /><polyline fill="none" points="155.0,105.0 235.0,25.0 215.0,33.0 227.0,45.0 235.0,25.0" stroke="rgb(0,0,255)" stroke-width="0.25mm" /><defs /><polyline fill="none" points="155.0,105.0 235.0,185.0 227.0,165.0 215.0,177.0 235.0,185.0" stroke="rgb(0,0,255)" stroke-width="0.25mm" /><defs /><path d="M 75.0 105.0 C 78.335 100.0 81.67 95.0 85.0 91.34 85.0 91.34 88.33 87.68 91.665 86.34 91.665 86.34 95.0 85.0 98.335 86.34 98.335 86.34 101.67 87.68 105.0 91.34 105.0 91.34 108.33 95.0 111.665 100.0 111.665 100.0 115.0 105.0 118.335 110.0 118.335 110.0 121.67 115.0 125.0 118.66 125.0 118.66 128.33 122.32 131.665 123.66 131.665 123.66 135.0 125.0 138.335 123.66 138.335 123.66 141.67 122.32 145.0 118.66 145.0 118.66 148.33 115.0 151.665 110.0 151.665 110.0 155.0 105.0 155.0 105.0" fill="none" stroke="rgb(0,0,255)" stroke-width="0.25mm" /><defs /><path d="M 65.0 105.0 C 68.335 100.0 71.67 95.0 75.0 91.34 75.0 91.34 78.33 87.68 81.665 86.34 81.665 86.34 85.0 85.0 88.335 86.34 88.335 86.34 91.67 87.68 95.0 91.34 95.0 91.34 98.33 95.0 101.665 100.0 101.665 100.0 105.0 105.0 108.335 110.0 108.335 110.0 111.67 115.0 115.0 118.66 115.0 118.66 118.33 122.32 121.665 123.66 121.665 123.66 125.0 125.0 128.335 123.66 128.335 123.66 131.67 122.32 135.0 118.66 135.0 118.66 138.33 115.0 141.665 110.0 141.665 110.0 145.0 105.0 145.0 105.0" fill="none" stroke="rgb(0,0,255)" stroke-width="0.25mm" /><defs /><path d="M 85.0 105.0 C 88.335 100.0 91.67 95.0 95.0 91.34 95.0 91.34 98.33 87.68 101.665 86.34 101.665 86.34 105.0 85.0 108.335 86.34 108.335 86.34 111.67 87.68 115.0 91.34 115.0 91.34 118.33 95.0 121.665 100.0 121.665 100.0 125.0 105.0 128.335 110.0 128.335 110.0 131.67 115.0 135.0 118.66 135.0 118.66 138.33 122.32 141.665 123.66 141.665 123.66 145.0 125.0 148.335 123.66 148.335 123.66 151.67 122.32 155.0 118.66 155.0 118.66 158.33 115.0 161.665 110.0 161.665 110.0 165.0 105.0 165.0 105.0" fill="none" stroke="rgb(0,0,255)" stroke-width="0.25mm" /><defs /><text alignment-baseline="middle" fill="rgb(0,0,255)" font-family="Verdana" font-size="18" text-anchor="middle" x="155.0" y="235.0">name</text><defs /><text alignment-baseline="middle" fill="rgb(0,0,255)" font-family="Verdana" font-size="18" text-anchor="middle" x="220.0" y="105.0">zero</text><defs /><polyline fill="none" points="245.0,205.0 215.0,205.0" stroke="rgb(0,0,255)" stroke-width="0.25mm" /><defs /><polyline fill="none" points="215.0,189.0 215.0,221.0" stroke="rgb(0,0,255)" stroke-width="0.25mm" /><defs /><polyline fill="none" points="205.0,195.0 205.0,215.0" stroke="rgb(0,0,255)" stroke-width="0.25mm" /><defs /><polyline fill="none" points="195.0,201.0 195.0,209.0" stroke="rgb(0,0,255)" stroke-width="0.25mm" /><defs /><g id="plug_p"><ellipse cx="35.0" cy="105.0" fill="rgb(0,0,255)" rx="20.0" ry="20.0" stroke="rgb(0,0,255)" stroke-width="0.25mm" /><defs /><g display="none" id="info"><text id="name">plug_p</text><text id="type">Modelica.Electrical.MultiPhase.Interfaces.PositivePlug</text><text id="classDesc">Positive plug with m pins</text><text id="desc" /></g></g><g id="plug_n"><ellipse cx="35.0" cy="105.0" fill="rgb(255,255,255)" rx="20.0" ry="20.0" stroke="rgb(0,0,255)" stroke-width="0.25mm" /><defs /><g display="none" id="info"><text id="name">plug_n</text><text id="type">Modelica.Electrical.MultiPhase.Interfaces.NegativePlug</text><text id="classDesc">Negative plug with m pins</text><text id="desc" /></g></g><g id="zero"><rect fill="rgb(0,0,255)" height="40.0" stroke="rgb(0,0,255)" stroke-width="0.25mm" width="40.0" x="15.0" y="85.0" /><defs /><g display="none" id="info"><text id="name">zero</text><text id="type">Modelica.Electrical.Analog.Interfaces.PositivePin</text><text id="classDesc">Positive pin of an electric component</text><text id="desc" /></g></g><g id="ground"><rect fill="rgb(255,255,255)" height="40.0" stroke="rgb(0,0,255)" stroke-width="0.25mm" width="40.0" x="15.0" y="85.0" /><defs /><g display="none" id="info"><text id="name">ground</text><text id="type">Modelica.Electrical.Analog.Interfaces.NegativePin</text><text id="classDesc">Negative pin of an electric component</text><text id="desc" /></g></g><g id="spacePhasor"><polygon fill="rgb(0,0,255)" points="35.0,85.0 15.0,105.0 35.0,125.0 55.0,105.0 35.0,85.0" stroke="rgb(0,0,255)" stroke-width="0.25mm" /><defs /><g display="none" id="info"><text id="name">spacePhasor</text><text id="type">Modelica.Electrical.Machines.Interfaces.SpacePhasor</text><text id="classDesc">Connector for Space Phasors</text><text id="desc" /></g></g></svg>