<?xml version="1.0" encoding="utf-8" ?>
<svg baseProfile="full" height="260.0" version="1.1" viewBox="0 0 310.0 260.0" width="310.0" xmlns="http://www.w3.org/2000/svg" xmlns:ev="http://www.w3.org/2001/xml-events" xmlns:xlink="http://www.w3.org/1999/xlink"><defs /><rect fill="rgb(255,255,255)" height="200.0" stroke="rgb(0,0,127)" stroke-width="0.25mm" width="200.0" x="55.0" y="55.0" /><defs /><text alignment-baseline="middle" fill="rgb(0,0,255)" font-family="Verdana" font-size="18" text-anchor="middle" x="155.0" y="25.0">name</text><defs /><polyline fill="none" points="75.0,77.0 75.0,237.0" stroke="rgb(192,192,192)" stroke-width="0.25mm" /><defs /><polygon fill="rgb(192,192,192)" points="75.0,65.0 67.0,87.0 83.0,87.0 75.0,67.0 75.0,65.0" stroke="rgb(192,192,192)" stroke-width="0.25mm" /><defs /><polyline fill="none" points="65.0,155.0 172.0,155.0" stroke="rgb(192,192,192)" stroke-width="0.25mm" /><defs /><polyline fill="none" points="75.0,155.0 85.0,155.0 85.0,85.0 105.0,85.0 105.0,155.0 140.0,155.0 140.0,225.0 160.0,225.0 160.0,155.0 173.0,155.0" stroke="rgb(0,0,0)" stroke-width="0.25mm" /><defs /><text alignment-baseline="middle" fill="rgb(0,0,0)" font-family="Verdana" font-size="18" text-anchor="middle" x="219.0" y="74.0">q</text><defs /><text alignment-baseline="middle" fill="rgb(0,0,0)" font-family="Verdana" font-size="18" text-anchor="middle" x="223.0" y="126.0">qd</text><defs /><text alignment-baseline="middle" fill="rgb(0,0,0)" font-family="Verdana" font-size="18" text-anchor="middle" x="220.5" y="186.0">qdd</text><defs /><text alignment-baseline="middle" fill="rgb(0,0,0)" font-family="Verdana" font-size="18" text-anchor="middle" x="187.5" y="240.0">moving</text><defs /><g id="q"><polygon fill="rgb(255,255,255)" points="15.0,135.0 55.0,155.0 15.0,175.0" stroke="rgb(0,0,127)" stroke-width="0.25mm" /><defs /><g display="none" id="info"><text id="name">q</text><text id="type">Modelica.Blocks.Interfaces.RealOutput</text><text id="classDesc">'output Real' as connector</text><text id="desc" /></g></g><g id="qd"><polygon fill="rgb(255,255,255)" points="15.0,135.0 55.0,155.0 15.0,175.0" stroke="rgb(0,0,127)" stroke-width="0.25mm" /><defs /><g display="none" id="info"><text id="name">qd</text><text id="type">Modelica.Blocks.Interfaces.RealOutput</text><text id="classDesc">'output Real' as connector</text><text id="desc" /></g></g><g id="qdd"><polygon fill="rgb(255,255,255)" points="15.0,135.0 55.0,155.0 15.0,175.0" stroke="rgb(0,0,127)" stroke-width="0.25mm" /><defs /><g display="none" id="info"><text id="name">qdd</text><text id="type">Modelica.Blocks.Interfaces.RealOutput</text><text id="classDesc">'output Real' as connector</text><text id="desc" /></g></g><g id="moving"><polygon fill="rgb(255,255,255)" points="15.0,135.0 55.0,155.0 15.0,175.0 15.0,135.0" stroke="rgb(255,0,255)" stroke-width="0.25mm" /><defs /><g display="none" id="info"><text id="name">moving</text><text id="type">Modelica.Blocks.Interfaces.BooleanOutput</text><text id="classDesc">'output Boolean' as connector</text><text id="desc" /></g></g></svg>