<?xml version="1.0" encoding="utf-8" ?>
<svg baseProfile="full" height="260.0" version="1.1" viewBox="0 0 310.0 260.0" width="310.0" xmlns="http://www.w3.org/2000/svg" xmlns:ev="http://www.w3.org/2001/xml-events" xmlns:xlink="http://www.w3.org/1999/xlink"><defs /><rect fill="rgb(255,255,255)" height="200.0" stroke="rgb(0,0,0)" stroke-width="0.25mm" width="200.0" x="55.0" y="55.0" /><defs /><text alignment-baseline="middle" fill="rgb(0,0,255)" font-family="Verdana" font-size="18" text-anchor="middle" x="155.0" y="25.0">name</text><defs /><polygon fill="rgb(192,192,192)" points="75.0,65.0 67.0,87.0 83.0,87.0 75.0,67.0 75.0,65.0" stroke="rgb(192,192,192)" stroke-width="0.25mm" /><defs /><polyline fill="none" points="75.0,77.0 75.0,237.0" stroke="rgb(192,192,192)" stroke-width="0.25mm" /><defs /><polyline fill="none" points="65.0,155.0 237.0,155.0" stroke="rgb(192,192,192)" stroke-width="0.25mm" /><defs /><polygon fill="rgb(192,192,192)" points="245.0,155.0 223.0,147.0 223.0,163.0 245.0,155.0" stroke="rgb(192,192,192)" stroke-width="0.25mm" /><defs /><text alignment-baseline="middle" fill="rgb(192,192,192)" font-family="Verdana" font-size="18" text-anchor="middle" x="148.5" y="121.5">w</text><defs /><polyline fill="none" points="75.0,155.0 114.0,86.0 181.0,86.0 213.0,155.0" stroke="rgb(0,0,0)" stroke-width="0.25mm" /><defs /><text alignment-baseline="middle" fill="rgb(0,0,0)" font-family="Verdana" font-size="18" text-anchor="middle" x="162.5" y="210.5">6 axes</text><defs /><g id="controlBus"><rect fill="none" height="8.00011110705" stroke="rgb(255,204,51)" stroke-width="0.5mm" width="0.7988881492" x="254.600555925" y="150.999944446" /><defs /><path d="M 265.00222359 139.001389958 C 264.999999903 155.001389804 264.997776217 171.001389649 262.997498276 173.001111669 262.997498276 173.001111669 260.997220334 175.000833689 253.997498363 172.999860846 253.997498363 172.999860846 246.997776391 170.998888002 245.998054362 168.998749041 245.998054362 168.998749041 244.998332332 166.99861008 245.000000097 154.998610196 245.000000097 154.998610196 245.001667861 142.998610312 246.001945812 140.998749312 246.001945812 140.998749312 247.002223763 138.998888311 254.002501657 136.999861193 254.002501657 136.999861193 261.00277955 135.000834075 261.00277955 135.000834075" fill="rgb(255,215,136)" stroke="rgb(0,0,0)" stroke-width="0.25mm" /><defs /><ellipse cx="259.001667726" cy="143.000556037" fill="rgb(0,0,0)" rx="0.999861009958" ry="1.00013897073" stroke="rgb(0,0,0)" stroke-width="0.25mm" /><defs /><ellipse cx="258.999999961" cy="155.000555922" fill="rgb(0,0,0)" rx="0.999861009958" ry="1.00013897073" stroke="rgb(0,0,0)" stroke-width="0.25mm" /><defs /><ellipse cx="258.998332197" cy="167.000555806" fill="rgb(0,0,0)" rx="0.999861009958" ry="1.00013897073" stroke="rgb(0,0,0)" stroke-width="0.25mm" /><defs /><ellipse cx="251.000833921" cy="148.999444136" fill="rgb(0,0,0)" rx="0.999861009958" ry="1.00013897073" stroke="rgb(0,0,0)" stroke-width="0.25mm" /><defs /><ellipse cx="250.999166156" cy="160.999444021" fill="rgb(0,0,0)" rx="0.999861009958" ry="1.00013897073" stroke="rgb(0,0,0)" stroke-width="0.25mm" /><defs /><rect fill="none" height="8.39988873457" stroke="rgb(255,204,51)" stroke-width="0.5mm" width="0.801167427501" x="254.59938849" y="151.000055631" /><defs /><g display="none" id="info"><text id="name">controlBus</text><text id="type">Modelica.Mechanics.MultiBody.Examples.Systems.RobotR3.Components.ControlBus</text><text id="classDesc">Data bus for all axes of robot</text><text id="desc" /></g></g></svg>