<?xml version="1.0" encoding="utf-8" ?>
<svg baseProfile="full" height="230.0" version="1.1" viewBox="0 0 220.0 230.0" width="220.0" xmlns="http://www.w3.org/2000/svg" xmlns:ev="http://www.w3.org/2001/xml-events" xmlns:xlink="http://www.w3.org/1999/xlink"><defs /><rect fill="url(#0)" height="200.0" rx="25.0" ry="25.0" stroke="rgb(200,200,200)" stroke-width="0.25mm" width="200.0" x="5.0" y="25.0" /><defs><linearGradient id="0" x1="0%" x2="0%" y1="0%" y2="100%"><stop offset="0" stop-color="rgb(200, 200, 200)" stop-opacity="1" /><stop offset="0.3" stop-color="rgb(248, 248, 248)" stop-opacity="1" /><stop offset="0.7" stop-color="rgb(248, 248, 248)" stop-opacity="1" /><stop offset="1" stop-color="rgb(200, 200, 200)" stop-opacity="1" /></linearGradient></defs><rect fill="none" height="200.0" rx="25.0" ry="25.0" stroke="rgb(128,128,128)" stroke-width="0.25mm" width="200.0" x="5.0" y="25.0" /><defs /><path d="M 25.0 125.0 C 30.65 107.9 36.3 90.8 39.9 81.35 39.9 81.35 43.5 71.9 46.7 65.25 46.7 65.25 49.9 58.6 52.75 54.5 52.75 54.5 55.6 50.4 58.4 48.15 58.4 48.15 61.2 45.9 64.0 45.55 64.0 45.55 66.8 45.2 69.6 46.8 69.6 46.8 72.4 48.4 75.25 51.85 75.25 51.85 78.1 55.3 80.9 60.45 80.9 60.45 83.7 65.6 86.9 73.25 86.9 73.25 90.1 80.9 94.135 92.35 94.135 92.35 98.17 103.8 106.635 129.8 106.635 129.8 115.1 155.8 118.7 165.5 118.7 165.5 122.3 175.2 125.5 182.2 125.5 182.2 128.7 189.2 131.5 193.65 131.5 193.65 134.3 198.1 137.15 200.75 137.15 200.75 140.0 203.4 142.8 204.2 142.8 204.2 145.6 205.0 148.4 203.8 148.4 203.8 151.2 202.6 154.05 199.55 154.05 199.55 156.9 196.5 159.7 191.7 159.7 191.7 162.5 186.9 165.7 179.55 165.7 179.55 168.9 172.2 172.95 161.0 172.95 161.0 177.0 149.8 181.0 137.4 181.0 137.4 185.0 125.0 185.0 125.0" fill="none" stroke="rgb(0,0,0)" stroke-width="0.25mm" /><defs /></svg>