<?xml version="1.0" encoding="utf-8" ?>
<svg baseProfile="full" height="260.0" version="1.1" viewBox="0 0 250.0 260.0" width="250.0" xmlns="http://www.w3.org/2000/svg" xmlns:ev="http://www.w3.org/2001/xml-events" xmlns:xlink="http://www.w3.org/1999/xlink"><defs /><rect fill="rgb(235,235,235)" height="200.0" stroke="rgb(0,0,0)" stroke-width="0.25mm" width="200.0" x="45.0" y="55.0" /><defs /><rect fill="rgb(255,255,255)" height="30.0" stroke="rgb(0,0,255)" stroke-width="0.25mm" width="60.0" x="115.0" y="101.0" /><defs /><polygon fill="rgb(0,0,255)" points="115.0,115.0 85.0,105.0 85.0,125.0 115.0,115.0" stroke="rgb(0,0,255)" stroke-width="0.25mm" /><defs /><polyline fill="none" points="114.0,196.0 67.0,196.0 67.0,116.0 115.0,116.0" stroke="rgb(0,0,255)" stroke-width="0.25mm" /><defs /><rect fill="rgb(255,255,255)" height="30.0" stroke="rgb(0,0,255)" stroke-width="0.25mm" width="60.0" x="115.0" y="181.0" /><defs /><polygon fill="rgb(0,0,255)" points="205.0,187.0 175.0,197.0 205.0,207.0 205.0,187.0" stroke="rgb(0,0,255)" stroke-width="0.25mm" /><defs /><polyline fill="none" points="175.0,116.0 221.0,116.0 221.0,196.0 175.0,196.0" stroke="rgb(0,0,255)" stroke-width="0.25mm" /><defs /><text alignment-baseline="middle" fill="rgb(0,0,255)" font-family="Verdana" font-size="18" text-anchor="middle" x="145.0" y="25.0">name</text><defs /><g id="axisControlBus"><polyline fill="none" points="21.8,154.6 28.2,154.6" stroke="rgb(255,204,51)" stroke-width="0.5mm" /><defs /><rect fill="none" height="1.6" stroke="rgb(255,204,51)" stroke-width="0.5mm" width="3.6" x="23.0" y="153.4" /><defs /><path d="M 9.0 145.0 C 25.0 145.0 41.0 145.0 43.0 147.0 43.0 147.0 45.0 149.0 43.0 156.0 43.0 156.0 41.0 163.0 39.0 164.0 39.0 164.0 37.0 165.0 25.0 165.0 25.0 165.0 13.0 165.0 11.0 164.0 11.0 164.0 9.0 163.0 7.0 156.0 7.0 156.0 5.0 149.0 5.0 149.0" fill="rgb(255,215,136)" stroke="rgb(0,0,0)" stroke-width="0.25mm" /><defs /><ellipse cx="15.0" cy="151.0" fill="rgb(0,0,0)" rx="1.0" ry="1.0" stroke="rgb(0,0,0)" stroke-width="0.25mm" /><defs /><ellipse cx="35.0" cy="151.0" fill="rgb(0,0,0)" rx="1.0" ry="1.0" stroke="rgb(0,0,0)" stroke-width="0.25mm" /><defs /><ellipse cx="25.0" cy="159.0" fill="rgb(0,0,0)" rx="1.0" ry="1.0" stroke="rgb(0,0,0)" stroke-width="0.25mm" /><defs /><rect fill="none" height="0.8" stroke="rgb(255,215,136)" stroke-width="0.5mm" width="8.0" x="21.0" y="154.2" /><defs /><rect fill="none" height="0.8" stroke="rgb(255,204,51)" stroke-width="0.5mm" width="8.4" x="21.0" y="154.6" /><defs /><g display="none" id="info"><text id="name">axisControlBus</text><text id="type">Modelica.Mechanics.MultiBody.Examples.Systems.RobotR3.Components.AxisControlBus</text><text id="classDesc">Data bus for one robot axis</text><text id="desc" /></g></g></svg>