<?xml version="1.0" encoding="utf-8" ?>
<svg baseProfile="full" height="260.0" version="1.1" viewBox="0 0 310.0 260.0" width="310.0" xmlns="http://www.w3.org/2000/svg" xmlns:ev="http://www.w3.org/2001/xml-events" xmlns:xlink="http://www.w3.org/1999/xlink"><defs /><rect fill="rgb(255,255,255)" height="200.0" stroke="rgb(0,0,127)" stroke-width="0.25mm" width="200.0" x="55.0" y="55.0" /><defs /><text alignment-baseline="middle" fill="rgb(0,0,255)" font-family="Verdana" font-size="18" text-anchor="middle" x="155.0" y="25.0">name</text><defs /><polygon fill="rgb(95,95,95)" points="145.0,65.0 139.0,87.0 151.0,87.0 145.0,65.0" stroke="rgb(95,95,95)" stroke-width="0.25mm" /><defs /><polyline fill="none" points="145.0,87.0 145.0,245.0" stroke="rgb(95,95,95)" stroke-width="0.25mm" /><defs /><polyline fill="none" points="65.0,155.0 237.0,155.0" stroke="rgb(95,95,95)" stroke-width="0.25mm" /><defs /><polygon fill="rgb(95,95,95)" points="245.0,155.0 223.0,149.0 223.0,161.0 245.0,155.0" stroke="rgb(95,95,95)" stroke-width="0.25mm" /><defs /><polyline fill="none" points="145.0,155.0 205.0,105.0" stroke="rgb(0,0,255)" stroke-width="0.5mm" /><defs /><polygon fill="rgb(0,0,255)" points="205.0,105.0 184.0,114.0 193.0,125.0 205.0,105.0" stroke="rgb(95,95,95)" stroke-width="0.25mm" /><defs /><polyline fill="none" points="108.0,120.0 115.0,115.0 123.0,111.0 135.0,108.0 148.0,109.0 160.0,113.0 173.0,121.0 181.0,132.0 186.0,145.0" stroke="rgb(0,0,255)" stroke-width="0.25mm" /><defs /><polygon fill="rgb(0,0,255)" points="103.0,126.0 123.0,119.0 113.0,108.0 103.0,126.0" stroke="rgb(0,0,255)" stroke-width="0.25mm" /><defs /><g id="y"><rect fill="rgb(160,160,164)" height="20.0" rx="25.0" ry="25.0" stroke="rgb(160,160,164)" stroke-width="0.25mm" width="20.0" x="255.0" y="145.0" /><defs /><text alignment-baseline="middle" fill="rgb(255,255,255)" font-family="Verdana" font-size="18" text-anchor="middle" x="265.0" y="155.0">C</text><defs /><polygon fill="rgb(255,255,255)" points="255.0,145.0 275.0,155.0 255.0,165.0 255.0,145.0" stroke="rgb(85,170,255)" stroke-width="0.25mm" /><defs /><g display="none" id="info"><text id="name">y</text><text id="type">Modelica.ComplexBlocks.Interfaces.ComplexOutput</text><text id="classDesc">'output Complex' as connector</text><text id="desc">Connector of Complex output signal</text></g></g></svg>