<?xml version="1.0" encoding="utf-8" ?>
<svg baseProfile="full" height="234.0" version="1.1" viewBox="0 0 314.0 234.0" width="314.0" xmlns="http://www.w3.org/2000/svg" xmlns:ev="http://www.w3.org/2001/xml-events" xmlns:xlink="http://www.w3.org/1999/xlink"><defs /><ellipse cx="137.0" cy="129.0" fill="rgb(245,245,245)" rx="70.0" ry="70.0" stroke="rgb(0,0,0)" stroke-width="0.25mm" /><defs /><polyline fill="none" points="137.0,59.0 137.0,89.0" stroke="rgb(0,0,0)" stroke-width="0.25mm" /><defs /><polyline fill="none" points="159.9,96.2 177.2,71.7" stroke="rgb(0,0,0)" stroke-width="0.25mm" /><defs /><polyline fill="none" points="114.1,96.2 96.8,71.7" stroke="rgb(0,0,0)" stroke-width="0.25mm" /><defs /><polyline fill="none" points="174.6,115.3 202.8,105.1" stroke="rgb(0,0,0)" stroke-width="0.25mm" /><defs /><polyline fill="none" points="99.4,115.3 71.2,105.1" stroke="rgb(0,0,0)" stroke-width="0.25mm" /><defs /><ellipse cx="137.0" cy="129.0" fill="none" rx="12.0" ry="12.0" stroke="rgb(64,64,64)" stroke-width="0.25mm" /><defs /><polygon fill="rgb(64,64,64)" points="132.231401703,127.496513958 153.134393186,71.1754260153 156.545318547,67.0082221349 156.949271824,72.378214849 141.768598297,130.503486042" /><defs /><ellipse cx="137.0" cy="129.0" fill="rgb(64,64,64)" rx="7.0" ry="7.0" /><defs /><text alignment-baseline="middle" fill="rgb(128,128,128)" font-family="Verdana" font-size="18" text-anchor="middle" x="47.0" y="98.5">a</text><defs /><polyline fill="none" points="67.0,129.0 41.0,129.0 41.0,129.0" stroke="rgb(0,0,0)" stroke-width="0.25mm" /><defs /><text alignment-baseline="middle" fill="rgb(0,0,255)" font-family="Verdana" font-size="18" text-anchor="middle" x="135.5" y="29.0">name</text><defs /><polyline fill="none" points="207.0,129.0 237.0,129.0" stroke="rgb(0,0,127)" stroke-width="0.25mm" /><defs /><text alignment-baseline="middle" fill="rgb(0,0,0)" font-family="Verdana" font-size="18" text-anchor="middle" x="254.0" y="162.0">angles</text><defs /><g id="frame_a"><rect fill="none" height="3.2" stroke="rgb(95,95,95)" stroke-width="0.5mm" width="3.2" x="35.4" y="127.4" /><defs /><rect fill="rgb(192,192,192)" height="32.0" stroke="rgb(0,0,0)" stroke-width="0.25mm" width="9.6" x="32.2" y="113.0" /><defs /><g display="none" id="info"><text id="name">frame_a</text><text id="type">Modelica.Mechanics.MultiBody.Interfaces.Frame_a</text><text id="classDesc">Coordinate system fixed to the component with one cut-force and cut-torque (filled rectangular icon)</text><text id="desc">Coordinate system a from which the angles shall be determined</text></g></g><g id="angles"><polygon fill="rgb(255,255,255)" points="237.0,119.0 257.0,129.0 237.0,139.0" stroke="rgb(0,0,127)" stroke-width="0.25mm" /><defs /><g display="none" id="info"><text id="name">angles</text><text id="type">Modelica.Blocks.Interfaces.RealOutput</text><text id="classDesc">'output Real' as connector</text><text id="desc" /></g></g></svg>