<?xml version="1.0" encoding="utf-8" ?>
<svg baseProfile="full" height="260.0" version="1.1" viewBox="0 0 310.0 260.0" width="310.0" xmlns="http://www.w3.org/2000/svg" xmlns:ev="http://www.w3.org/2001/xml-events" xmlns:xlink="http://www.w3.org/1999/xlink"><defs /><rect fill="rgb(255,255,255)" height="200.0" stroke="rgb(0,0,0)" stroke-width="0.25mm" width="200.0" x="55.0" y="55.0" /><defs /><polyline fill="none" points="55.0,255.0 155.0,95.0 235.0,95.0" stroke="rgb(0,0,255)" stroke-width="0.25mm" /><defs /><path d="M 85.0 155.0 C 89.9 140.05 94.8 125.1 98.0 116.8 98.0 116.8 101.2 108.5 104.0 102.7 104.0 102.7 106.8 96.9 109.25 93.35 109.25 93.35 111.7 89.8 114.2 87.8 114.2 87.8 116.7 85.8 119.15 85.5 119.15 85.5 121.6 85.2 124.05 86.6 124.05 86.6 126.5 88.0 128.95 91.0 128.95 91.0 131.4 94.0 133.9 98.5 133.9 98.5 136.4 103.0 139.2 109.7 139.2 109.7 142.0 116.4 145.51 126.4 145.51 126.4 149.02 136.4 156.405 159.15 156.405 159.15 163.79 181.9 166.945 190.45 166.945 190.45 170.1 199.0 172.95 205.1 172.95 205.1 175.8 211.2 178.25 215.1 178.25 215.1 180.7 219.0 183.15 221.3 183.15 221.3 185.6 223.6 188.05 224.3 188.05 224.3 190.5 225.0 193.0 223.95 193.0 223.95 195.5 222.9 197.95 220.2 197.95 220.2 200.4 217.5 202.85 213.3 202.85 213.3 205.3 209.1 208.1 202.7 208.1 202.7 210.9 196.3 214.45 186.5 214.45 186.5 218.0 176.7 221.5 165.85 221.5 165.85 225.0 155.0 225.0 155.0" fill="none" stroke="rgb(192,192,192)" stroke-width="0.25mm" /><defs /><path d="M 115.0 155.0 C 119.9 140.05 124.8 125.1 128.0 116.8 128.0 116.8 131.2 108.5 134.0 102.7 134.0 102.7 136.8 96.9 139.25 93.35 139.25 93.35 141.7 89.8 144.2 87.8 144.2 87.8 146.7 85.8 149.15 85.5 149.15 85.5 151.6 85.2 154.05 86.6 154.05 86.6 156.5 88.0 158.95 91.0 158.95 91.0 161.4 94.0 163.9 98.5 163.9 98.5 166.4 103.0 169.2 109.7 169.2 109.7 172.0 116.4 175.51 126.4 175.51 126.4 179.02 136.4 186.405 159.15 186.405 159.15 193.79 181.9 196.945 190.45 196.945 190.45 200.1 199.0 202.95 205.1 202.95 205.1 205.8 211.2 208.25 215.1 208.25 215.1 210.7 219.0 213.15 221.3 213.15 221.3 215.6 223.6 218.05 224.3 218.05 224.3 220.5 225.0 223.0 223.95 223.0 223.95 225.5 222.9 227.95 220.2 227.95 220.2 230.4 217.5 232.85 213.3 232.85 213.3 235.3 209.1 238.1 202.7 238.1 202.7 240.9 196.3 244.45 186.5 244.45 186.5 248.0 176.7 251.5 165.85 251.5 165.85 255.0 155.0 255.0 155.0" fill="none" stroke="rgb(192,192,192)" stroke-width="0.25mm" /><defs /><path d="M 55.0 155.0 C 59.9 140.05 64.8 125.1 68.0 116.8 68.0 116.8 71.2 108.5 74.0 102.7 74.0 102.7 76.8 96.9 79.25 93.35 79.25 93.35 81.7 89.8 84.2 87.8 84.2 87.8 86.7 85.8 89.15 85.5 89.15 85.5 91.6 85.2 94.05 86.6 94.05 86.6 96.5 88.0 98.95 91.0 98.95 91.0 101.4 94.0 103.9 98.5 103.9 98.5 106.4 103.0 109.2 109.7 109.2 109.7 112.0 116.4 115.51 126.4 115.51 126.4 119.02 136.4 126.405 159.15 126.405 159.15 133.79 181.9 136.945 190.45 136.945 190.45 140.1 199.0 142.95 205.1 142.95 205.1 145.8 211.2 148.25 215.1 148.25 215.1 150.7 219.0 153.15 221.3 153.15 221.3 155.6 223.6 158.05 224.3 158.05 224.3 160.5 225.0 163.0 223.95 163.0 223.95 165.5 222.9 167.95 220.2 167.95 220.2 170.4 217.5 172.85 213.3 172.85 213.3 175.3 209.1 178.1 202.7 178.1 202.7 180.9 196.3 184.45 186.5 184.45 186.5 188.0 176.7 191.5 165.85 191.5 165.85 195.0 155.0 195.0 155.0" fill="none" stroke="rgb(192,192,192)" stroke-width="0.25mm" /><defs /><text alignment-baseline="middle" fill="rgb(0,0,255)" font-family="Verdana" font-size="18" text-anchor="middle" x="155.0" y="25.0">name</text><defs /><g id="y"><rect fill="rgb(160,160,164)" height="40.0" rx="25.0" ry="25.0" stroke="rgb(160,160,164)" stroke-width="0.25mm" width="40.0" x="15.0" y="135.0" /><defs /><text alignment-baseline="middle" fill="rgb(255,255,255)" font-family="Verdana" font-size="18" text-anchor="middle" x="35.0" y="155.0">C</text><defs /><polygon fill="rgb(255,255,255)" points="15.0,135.0 55.0,155.0 15.0,175.0 15.0,135.0" stroke="rgb(85,170,255)" stroke-width="0.25mm" /><defs /><g display="none" id="info"><text id="name">y</text><text id="type">Modelica.ComplexBlocks.Interfaces.ComplexOutput</text><text id="classDesc">'output Complex' as connector</text><text id="desc" /></g></g><g id="u"><polygon fill="rgb(0,0,127)" points="15.0,135.0 55.0,155.0 15.0,175.0" stroke="rgb(0,0,127)" stroke-width="0.25mm" /><defs /><g display="none" id="info"><text id="name">u</text><text id="type">Modelica.Blocks.Interfaces.RealInput</text><text id="classDesc">'input Real' as connector</text><text id="desc">Frequency input (Hz)</text></g></g></svg>