<?xml version="1.0" encoding="utf-8" ?>
<svg baseProfile="full" height="220.0" version="1.1" viewBox="0 0 295.0 220.0" width="295.0" xmlns="http://www.w3.org/2000/svg" xmlns:ev="http://www.w3.org/2001/xml-events" xmlns:xlink="http://www.w3.org/1999/xlink"><defs /><rect fill="none" height="204.0" stroke="rgb(255,0,0)" stroke-dasharray="8.0 4.0" stroke-width="0.5mm" width="204.0" x="40.0" y="5.0" /><defs /><text alignment-baseline="middle" fill="rgb(128,128,128)" font-family="Verdana" font-size="18" text-anchor="middle" x="254.0" y="139.5">b</text><defs /><text alignment-baseline="middle" fill="rgb(192,192,192)" font-family="Verdana" font-size="18" text-anchor="middle" x="127.0" y="64.0">resolve</text><defs /><polygon fill="rgb(0,0,0)" points="42.0,97.0 192.0,97.0 192.0,76.0 236.0,107.0 192.0,138.0 192.0,117.0 42.0,117.0 42.0,97.0" stroke="rgb(0,0,0)" stroke-width="0.25mm" /><defs /><text alignment-baseline="middle" fill="rgb(0,0,0)" font-family="Verdana" font-size="18" text-anchor="middle" x="147.5" y="184.5">name</text><defs /><polyline fill="none" points="42.0,97.0 50.0,81.0 58.0,65.0 66.0,55.0 82.0,39.0 96.0,31.0 111.0,25.0 125.0,22.0 140.0,20.0 156.0,21.0 168.0,25.0 179.0,32.0 188.0,38.0 196.0,46.0 202.0,53.0" stroke="rgb(0,0,0)" stroke-width="0.25mm" /><defs /><polygon fill="rgb(0,0,0)" points="241.0,86.0 216.0,27.0 182.0,62.0 241.0,86.0" stroke="rgb(0,0,0)" stroke-width="0.25mm" /><defs /><polyline fill="none" points="142.0,12.0 142.0,97.0" stroke="rgb(95,95,95)" stroke-dasharray="1.0 2.0" stroke-width="0.25mm" /><defs /></svg>