<?xml version="1.0" encoding="utf-8" ?>
<svg baseProfile="full" height="260.0" version="1.1" viewBox="0 0 310.0 260.0" width="310.0" xmlns="http://www.w3.org/2000/svg" xmlns:ev="http://www.w3.org/2001/xml-events" xmlns:xlink="http://www.w3.org/1999/xlink"><defs /><rect fill="rgb(255,255,255)" height="200.0" width="140.0" x="85.0" y="55.0" /><defs /><ellipse cx="115.0" cy="145.0" fill="none" rx="10.0" ry="10.0" stroke="rgb(0,0,255)" stroke-width="0.25mm" /><defs /><polyline fill="none" points="115.0,95.0 115.0,115.0" stroke="rgb(0,0,255)" stroke-width="0.25mm" /><defs /><ellipse cx="115.0" cy="125.0" fill="none" rx="10.0" ry="10.0" stroke="rgb(0,0,255)" stroke-width="0.25mm" /><defs /><ellipse cx="115.0" cy="165.0" fill="none" rx="10.0" ry="10.0" stroke="rgb(0,0,255)" stroke-width="0.25mm" /><defs /><ellipse cx="115.0" cy="185.0" fill="none" rx="10.0" ry="10.0" stroke="rgb(0,0,255)" stroke-width="0.25mm" /><defs /><polyline fill="none" points="115.0,195.0 115.0,215.0" stroke="rgb(0,0,255)" stroke-width="0.25mm" /><defs /><rect fill="rgb(255,255,255)" height="80.0" stroke="rgb(255,255,255)" stroke-width="0.25mm" width="14.0" x="101.0" y="115.0" /><defs /><polyline fill="none" points="115.0,95.0 63.0,95.0" stroke="rgb(0,0,255)" stroke-width="0.25mm" /><defs /><polyline fill="none" points="115.0,215.0 65.0,215.0" stroke="rgb(0,0,255)" stroke-width="0.25mm" /><defs /><polyline fill="none" points="155.0,55.0 85.0,55.0" stroke="rgb(0,0,255)" stroke-dasharray="4.0 2.0" stroke-width="0.25mm" /><defs /><polyline fill="none" points="85.0,55.0 85.0,255.0" stroke="rgb(0,0,255)" stroke-dasharray="4.0 2.0" stroke-width="0.25mm" /><defs /><polyline fill="none" points="155.0,255.0 85.0,255.0" stroke="rgb(0,0,255)" stroke-dasharray="4.0 2.0" stroke-width="0.25mm" /><defs /><polyline fill="none" points="225.0,55.0 155.0,55.0" stroke="rgb(255,127,0)" stroke-dasharray="4.0 2.0" stroke-width="0.25mm" /><defs /><polyline fill="none" points="225.0,255.0 155.0,255.0" stroke="rgb(255,127,0)" stroke-dasharray="4.0 2.0" stroke-width="0.25mm" /><defs /><polyline fill="none" points="225.0,55.0 225.0,255.0" stroke="rgb(255,127,0)" stroke-dasharray="4.0 2.0" stroke-width="0.25mm" /><defs /><ellipse cx="185.0" cy="155.0" fill="none" rx="34.0" ry="34.0" stroke="rgb(255,127,0)" stroke-width="0.25mm" /><defs /><polyline fill="none" points="185.0,215.0 185.0,189.0" stroke="rgb(255,127,0)" stroke-width="0.25mm" /><defs /><polyline fill="none" points="173.0,155.0 197.0,155.0" stroke="rgb(255,127,0)" stroke-width="0.25mm" /><defs /><polyline fill="none" points="197.0,145.0 197.0,167.0" stroke="rgb(255,127,0)" stroke-width="0.25mm" /><defs /><polyline fill="none" points="185.0,121.0 185.0,95.0" stroke="rgb(255,127,0)" stroke-width="0.25mm" /><defs /><polyline fill="none" points="185.0,95.0 255.0,95.0" stroke="rgb(255,127,0)" stroke-width="0.25mm" /><defs /><polyline fill="none" points="185.0,215.0 245.0,215.0" stroke="rgb(255,127,0)" stroke-width="0.25mm" /><defs /><text alignment-baseline="middle" fill="rgb(0,0,255)" font-family="Verdana" font-size="18" text-anchor="middle" x="155.0" y="25.0">name</text><defs /><polyline fill="none" points="173.0,145.0 173.0,167.0" stroke="rgb(255,127,0)" stroke-width="0.25mm" /><defs /><polyline fill="none" points="65.0,125.0 65.0,185.0" stroke="rgb(0,0,255)" stroke-width="0.25mm" /><defs /><polygon fill="rgb(0,0,255)" points="65.0,185.0 71.0,165.0 59.0,165.0 65.0,185.0" stroke="rgb(0,0,255)" stroke-width="0.25mm" /><defs /><polyline fill="none" points="285.0,123.0 285.0,183.0" stroke="rgb(255,128,0)" stroke-width="0.25mm" /><defs /><polygon fill="rgb(255,128,0)" points="285.0,183.0 291.0,163.0 279.0,163.0 285.0,183.0" stroke="rgb(255,128,0)" stroke-width="0.25mm" /><defs /><rect fill="rgb(255,255,255)" height="52.0" stroke="rgb(255,128,0)" stroke-width="0.25mm" width="16.0" x="247.0" y="127.0" /><defs /><polyline fill="none" points="255.0,127.0 255.0,105.0" stroke="rgb(255,128,0)" stroke-width="0.25mm" /><defs /><polyline fill="none" points="255.0,179.0 255.0,205.0" stroke="rgb(255,128,0)" stroke-width="0.25mm" /><defs /><g id="port_p"><rect fill="rgb(255,127,0)" height="40.0" stroke="rgb(255,127,0)" stroke-width="0.25mm" width="40.0" x="15.0" y="135.0" /><defs /><g display="none" id="info"><text id="name">port_p</text><text id="type">Modelica.Magnetic.FluxTubes.Interfaces.PositiveMagneticPort</text><text id="classDesc">Positive magnetic port</text><text id="desc">Positive magnetic port</text></g></g><g id="port_n"><rect fill="rgb(255,255,255)" height="40.0" stroke="rgb(255,127,0)" stroke-width="0.25mm" width="40.0" x="15.0" y="135.0" /><defs /><g display="none" id="info"><text id="name">port_n</text><text id="type">Modelica.Magnetic.FluxTubes.Interfaces.NegativeMagneticPort</text><text id="classDesc">Negative magnetic port</text><text id="desc">Negative magnetic port</text></g></g><g id="p"><rect fill="rgb(0,0,255)" height="40.0" stroke="rgb(0,0,255)" stroke-width="0.25mm" width="40.0" x="15.0" y="135.0" /><defs /><g display="none" id="info"><text id="name">p</text><text id="type">Modelica.Electrical.Analog.Interfaces.PositivePin</text><text id="classDesc">Positive pin of an electric component</text><text id="desc">Positive electric pin</text></g></g><g id="n"><rect fill="rgb(255,255,255)" height="40.0" stroke="rgb(0,0,255)" stroke-width="0.25mm" width="40.0" x="15.0" y="135.0" /><defs /><g display="none" id="info"><text id="name">n</text><text id="type">Modelica.Electrical.Analog.Interfaces.NegativePin</text><text id="classDesc">Negative pin of an electric component</text><text id="desc">Negative electric pin</text></g></g></svg>