<?xml version="1.0" encoding="utf-8" ?>
<svg baseProfile="full" height="240.0" version="1.1" viewBox="0 0 310.0 240.0" width="310.0" xmlns="http://www.w3.org/2000/svg" xmlns:ev="http://www.w3.org/2001/xml-events" xmlns:xlink="http://www.w3.org/1999/xlink"><defs /><polyline fill="none" points="105.0,235.0 125.0,215.0" stroke="rgb(0,0,0)" stroke-width="0.25mm" /><defs /><polyline fill="none" points="125.0,235.0 145.0,215.0" stroke="rgb(0,0,0)" stroke-width="0.25mm" /><defs /><polyline fill="none" points="145.0,235.0 165.0,215.0" stroke="rgb(0,0,0)" stroke-width="0.25mm" /><defs /><polyline fill="none" points="165.0,235.0 185.0,215.0" stroke="rgb(0,0,0)" stroke-width="0.25mm" /><defs /><polyline fill="none" points="125.0,215.0 185.0,215.0" stroke="rgb(0,0,0)" stroke-width="0.25mm" /><defs /><text alignment-baseline="middle" fill="rgb(0,0,255)" font-family="Verdana" font-size="18" text-anchor="middle" x="155.0" y="25.0">name</text><defs /><text alignment-baseline="middle" fill="rgb(0,0,0)" font-family="Verdana" font-size="18" text-anchor="middle" x="53.5" y="164.5">tau</text><defs /><path d="M 67.0 115.0 C 79.0 100.0 91.0 85.0 105.0 74.0 105.0 74.0 119.0 63.0 136.0 58.0 136.0 58.0 153.0 53.0 168.0 56.0 168.0 56.0 183.0 59.0 193.0 65.0 193.0 65.0 203.0 71.0 211.0 79.0 211.0 79.0 219.0 87.0 225.0 94.0 225.0 94.0 231.0 101.0 236.0 108.0 236.0 108.0 241.0 115.0 241.0 115.0" fill="none" stroke="rgb(0,0,0)" stroke-width="0.5mm" /><defs /><polygon fill="rgb(0,0,0)" points="241.0,115.0 221.0,57.0 192.0,88.0 241.0,115.0" stroke="rgb(0,0,0)" stroke-width="0.25mm" /><defs /><polyline fill="none" points="125.0,145.0 185.0,145.0" stroke="rgb(0,0,0)" stroke-width="0.25mm" /><defs /><polyline fill="none" points="155.0,145.0 155.0,216.0" stroke="rgb(0,0,0)" stroke-width="0.25mm" /><defs /><polyline fill="none" points="125.0,165.0 145.0,145.0" stroke="rgb(0,0,0)" stroke-width="0.25mm" /><defs /><polyline fill="none" points="145.0,165.0 165.0,145.0" stroke="rgb(0,0,0)" stroke-width="0.25mm" /><defs /><polyline fill="none" points="165.0,165.0 185.0,145.0" stroke="rgb(0,0,0)" stroke-width="0.25mm" /><defs /><path d="M 101.0 157.0 C 109.0 150.0 117.0 143.0 128.0 137.0 128.0 137.0 139.0 131.0 149.0 130.0 149.0 130.0 159.0 129.0 168.0 131.0 168.0 131.0 177.0 133.0 184.0 137.0 184.0 137.0 191.0 141.0 197.0 146.0 197.0 146.0 203.0 151.0 207.0 156.0 207.0 156.0 211.0 161.0 215.0 167.0 215.0 167.0 219.0 173.0 219.0 173.0" fill="none" stroke="rgb(0,0,0)" stroke-width="0.25mm" /><defs /><polygon fill="rgb(0,0,0)" points="94.0,181.0 111.0,157.0 97.0,151.0 94.0,181.0" stroke="rgb(0,0,0)" stroke-width="0.25mm" /><defs /><g id="flange"><ellipse cx="35.396039604" cy="115.0" fill="rgb(255,255,255)" rx="19.801980198" ry="20.0" stroke="rgb(0,0,0)" stroke-width="0.25mm" /><defs /><g display="none" id="info"><text id="name">flange</text><text id="type">Modelica.Mechanics.Rotational.Interfaces.Flange_b</text><text id="classDesc">1-dim. rotational flange of a shaft (non-filled square icon)</text><text id="desc">Flange of shaft</text></g></g><g id="support"><ellipse cx="35.0" cy="115.0" fill="rgb(95,95,95)" rx="13.3333333333" ry="13.3333333333" stroke="rgb(0,0,0)" stroke-width="0.25mm" /><defs /><rect fill="rgb(192,192,192)" height="40.0" stroke="rgb(192,192,192)" stroke-width="0.25mm" width="40.0" x="15.0" y="95.0" /><defs /><ellipse cx="35.0" cy="115.0" fill="rgb(95,95,95)" rx="13.3333333333" ry="13.3333333333" stroke="rgb(0,0,0)" stroke-width="0.25mm" /><defs /><g display="none" id="info"><text id="name">support</text><text id="type">Modelica.Mechanics.Rotational.Interfaces.Support</text><text id="classDesc">Support/housing of a 1-dim. rotational shaft</text><text id="desc">Support/housing of component</text></g></g><g id="tau"><polygon fill="rgb(0,0,127)" points="15.0,95.0 55.0,115.0 15.0,135.0" stroke="rgb(0,0,127)" stroke-width="0.25mm" /><defs /><g display="none" id="info"><text id="name">tau</text><text id="type">Modelica.Blocks.Interfaces.RealInput</text><text id="classDesc">'input Real' as connector</text><text id="desc">Accelerating torque acting at flange (= -flange.tau)</text></g></g></svg>