<?xml version="1.0" encoding="utf-8" ?>
<svg baseProfile="full" height="221.6667" version="1.1" viewBox="0 0 310.0 221.6667" width="310.0" xmlns="http://www.w3.org/2000/svg" xmlns:ev="http://www.w3.org/2001/xml-events" xmlns:xlink="http://www.w3.org/1999/xlink"><defs /><rect fill="url(#0)" height="200.0" rx="25.0" ry="25.0" stroke="rgb(200,200,200)" stroke-width="0.25mm" width="200.0" x="52.5" y="16.6667" /><defs><linearGradient id="0" x1="0%" x2="0%" y1="0%" y2="100%"><stop offset="0" stop-color="rgb(200, 200, 200)" stop-opacity="1" /><stop offset="0.3" stop-color="rgb(248, 248, 248)" stop-opacity="1" /><stop offset="0.7" stop-color="rgb(248, 248, 248)" stop-opacity="1" /><stop offset="1" stop-color="rgb(200, 200, 200)" stop-opacity="1" /></linearGradient></defs><rect fill="none" height="200.0" rx="25.0" ry="25.0" stroke="rgb(128,128,128)" stroke-width="0.25mm" width="200.0" x="52.5" y="16.6667" /><defs /><path d="M 102.5 196.6667 C 112.5 186.6667 122.5 176.6667 102.5 166.6667 102.5 166.6667 82.5 156.6667 102.5 146.6667 102.5 146.6667 122.5 136.6667 102.5 126.66685 102.5 126.66685 82.5 116.667 102.5 106.66685 102.5 106.66685 122.5 96.6667 112.5 86.6667 112.5 86.6667 102.5 76.6667 102.5 66.6667 102.5 66.6667 102.5 56.6667 102.5 56.6667" fill="none" stroke="rgb(0,0,0)" stroke-width="0.25mm" /><defs /><polygon fill="rgb(0,0,0)" points="102.5,26.6667 92.5,56.6667 112.5,56.6667" /><defs /><path d="M 152.5 196.6667 C 162.5 186.6667 172.5 176.6667 152.5 166.6667 152.5 166.6667 132.5 156.6667 152.5 146.6667 152.5 146.6667 172.5 136.6667 152.5 126.66685 152.5 126.66685 132.5 116.667 152.5 106.66685 152.5 106.66685 172.5 96.6667 162.5 86.6667 162.5 86.6667 152.5 76.6667 152.5 66.6667 152.5 66.6667 152.5 56.6667 152.5 56.6667" fill="none" stroke="rgb(0,0,0)" stroke-width="0.25mm" /><defs /><polygon fill="rgb(0,0,0)" points="152.5,26.6667 142.5,56.6667 162.5,56.6667" /><defs /><path d="M 202.5 196.6667 C 212.5 186.6667 222.5 176.6667 202.5 166.6667 202.5 166.6667 182.5 156.6667 202.5 146.6667 202.5 146.6667 222.5 136.6667 202.5 126.66685 202.5 126.66685 182.5 116.667 202.5 106.66685 202.5 106.66685 222.5 96.6667 212.5 86.6667 212.5 86.6667 202.5 76.6667 202.5 66.6667 202.5 66.6667 202.5 56.6667 202.5 56.6667" fill="none" stroke="rgb(0,0,0)" stroke-width="0.25mm" /><defs /><polygon fill="rgb(0,0,0)" points="202.5,26.6667 192.5,56.6667 212.5,56.6667" /><defs /></svg>