<?xml version="1.0" encoding="utf-8" ?>
<svg baseProfile="full" height="210.0" version="1.1" viewBox="0 0 210.0 210.0" width="210.0" xmlns="http://www.w3.org/2000/svg" xmlns:ev="http://www.w3.org/2001/xml-events" xmlns:xlink="http://www.w3.org/1999/xlink"><defs /><rect fill="url(#0)" height="200.0" rx="25.0" ry="25.0" stroke="rgb(200,200,200)" stroke-width="0.25mm" width="200.0" x="5.0" y="5.0" /><defs><linearGradient id="0" x1="0%" x2="0%" y1="0%" y2="100%"><stop offset="0" stop-color="rgb(200, 200, 200)" stop-opacity="1" /><stop offset="0.3" stop-color="rgb(248, 248, 248)" stop-opacity="1" /><stop offset="0.7" stop-color="rgb(248, 248, 248)" stop-opacity="1" /><stop offset="1" stop-color="rgb(200, 200, 200)" stop-opacity="1" /></linearGradient></defs><rect fill="none" height="200.0" rx="25.0" ry="25.0" stroke="rgb(128,128,128)" stroke-width="0.25mm" width="200.0" x="5.0" y="5.0" /><defs /><path d="M 35.0 170.953 C 36.75 170.92525 38.5 170.8975 40.25 170.84135 40.25 170.84135 42.0 170.7852 43.75 170.6763 43.75 170.6763 45.5 170.5674 47.25 170.36525 47.25 170.36525 49.0 170.1631 50.75 169.80365 50.75 169.80365 52.5 169.4442 54.25 168.83275 54.25 168.83275 56.0 168.2213 57.75 167.22655 57.75 167.22655 59.5 166.2318 61.25 164.68515 61.25 164.68515 63.0 163.1385 64.75 160.84265 64.75 160.84265 66.5 158.5468 68.25 155.29675 68.25 155.29675 70.0 152.0467 71.75 147.6658 71.75 147.6658 73.5 143.2849 75.25 137.6733 75.25 137.6733 77.0 132.0617 78.75 125.25025 78.75 125.25025 80.5 118.4388 82.25 110.6353 82.25 110.6353 84.0 102.8318 85.75 94.4445 85.75 94.4445 87.5 86.0572 89.25 77.6811 89.25 77.6811 91.0 69.305 92.75 61.66395 92.75 61.66395 94.5 54.0229 96.25 47.8716 96.25 47.8716 98.0 41.7203 99.75 37.7232 99.75 37.7232 101.5 33.7261 103.25 32.33955 103.25 32.33955 105.0 30.953 106.75 32.33955 106.75 32.33955 108.5 33.7261 110.25 37.7232 110.25 37.7232 112.0 41.7203 113.75 47.8716 113.75 47.8716 115.5 54.0229 117.25 61.66395 117.25 61.66395 119.0 69.305 120.75 77.6811 120.75 77.6811 122.5 86.0572 124.25 94.4445 124.25 94.4445 126.0 102.8318 127.75 110.6353 127.75 110.6353 129.5 118.4388 131.25 125.25025 131.25 125.25025 133.0 132.0617 134.75 137.6733 134.75 137.6733 136.5 143.2849 138.25 147.6658 138.25 147.6658 140.0 152.0467 141.75 155.29675 141.75 155.29675 143.5 158.5468 145.25 160.84265 145.25 160.84265 147.0 163.1385 148.75 164.68515 148.75 164.68515 150.5 166.2318 152.25 167.22655 152.25 167.22655 154.0 168.2213 155.75 168.83275 155.75 168.83275 157.5 169.4442 159.25 169.80365 159.25 169.80365 161.0 170.1631 162.75 170.36525 162.75 170.36525 164.5 170.5674 166.25 170.6763 166.25 170.6763 168.0 170.7852 169.75 170.84135 169.75 170.84135 171.5 170.8975 173.25 170.92525 173.25 170.92525 175.0 170.953 175.0 170.953" fill="none" stroke="rgb(0,0,0)" stroke-width="0.25mm" /><defs /></svg>