<?xml version="1.0" encoding="utf-8" ?>
<svg baseProfile="full" height="210.0" version="1.1" viewBox="0 0 250.0 210.0" width="250.0" xmlns="http://www.w3.org/2000/svg" xmlns:ev="http://www.w3.org/2001/xml-events" xmlns:xlink="http://www.w3.org/1999/xlink"><defs /><rect fill="rgb(255,255,255)" height="80.0" stroke="rgb(0,0,255)" stroke-width="0.25mm" width="28.0" x="171.0" y="65.0" /><defs /><polyline fill="none" points="245.0,45.0 105.0,45.0 105.0,65.0" stroke="rgb(0,0,255)" stroke-width="0.25mm" /><defs /><polyline fill="none" points="245.0,165.0 105.0,165.0 105.0,145.0" stroke="rgb(0,0,255)" stroke-width="0.25mm" /><defs /><ellipse cx="105.0" cy="69.0" fill="none" rx="4.0" ry="4.0" stroke="rgb(0,0,255)" stroke-width="0.25mm" /><defs /><ellipse cx="105.0" cy="141.0" fill="none" rx="4.0" ry="4.0" stroke="rgb(0,0,255)" stroke-width="0.25mm" /><defs /><polyline fill="none" points="65.0,65.0 103.0,139.0" stroke="rgb(0,0,255)" stroke-width="0.25mm" /><defs /><polyline fill="none" points="185.0,65.0 185.0,63.0 185.0,45.0" stroke="rgb(0,0,255)" stroke-width="0.25mm" /><defs /><polyline fill="none" points="185.0,145.0 185.0,165.0" stroke="rgb(0,0,255)" stroke-width="0.25mm" /><defs /><polyline fill="none" points="155.0,185.0 215.0,185.0" stroke="rgb(0,0,255)" stroke-width="0.25mm" /><defs /><polyline fill="none" points="185.0,165.0 185.0,185.0" stroke="rgb(0,0,255)" stroke-width="0.25mm" /><defs /><polyline fill="none" points="165.0,195.0 205.0,195.0" stroke="rgb(0,0,255)" stroke-width="0.25mm" /><defs /><polyline fill="none" points="175.0,205.0 195.0,205.0" stroke="rgb(0,0,255)" stroke-width="0.25mm" /><defs /><g id="plug_p"><ellipse cx="25.0" cy="105.0" fill="rgb(0,0,255)" rx="20.0" ry="20.0" stroke="rgb(0,0,255)" stroke-width="0.25mm" /><defs /><g display="none" id="info"><text id="name">plug_p</text><text id="type">Modelica.Electrical.MultiPhase.Interfaces.PositivePlug</text><text id="classDesc">Positive plug with m pins</text><text id="desc">To positive rotor plug</text></g></g><g id="plug_n"><ellipse cx="25.0" cy="105.0" fill="rgb(255,255,255)" rx="20.0" ry="20.0" stroke="rgb(0,0,255)" stroke-width="0.25mm" /><defs /><g display="none" id="info"><text id="name">plug_n</text><text id="type">Modelica.Electrical.MultiPhase.Interfaces.NegativePlug</text><text id="classDesc">Negative plug with m pins</text><text id="desc">To negative rotor plug</text></g></g></svg>