<?xml version="1.0" encoding="utf-8" ?>
<svg baseProfile="full" height="210" version="1.1" viewBox="0 0 290.0 210" width="290.0" xmlns="http://www.w3.org/2000/svg" xmlns:ev="http://www.w3.org/2001/xml-events" xmlns:xlink="http://www.w3.org/1999/xlink"><defs /><text alignment-baseline="middle" fill="rgb(0,0,255)" font-family="Verdana" font-size="18" text-anchor="middle" x="145.0" y="45.0">name</text><defs /><polyline fill="none" points="75.0,105.0 45.0,105.0" stroke="rgb(255,128,0)" stroke-width="0.25mm" /><defs /><rect fill="rgb(255,255,255)" height="60.0" stroke="rgb(255,128,0)" stroke-width="0.25mm" width="140.0" x="75.0" y="75.0" /><defs /><polyline fill="none" points="215.0,105.0 245.0,105.0" stroke="rgb(255,128,0)" stroke-width="0.25mm" /><defs /><path d="M 115.0 125.0 C 123.0 125.0 131.0 125.0 135.0 123.0 135.0 123.0 139.0 121.0 143.0 113.0 143.0 113.0 147.0 105.0 151.0 97.0 151.0 97.0 155.0 89.0 159.0 87.0 159.0 87.0 163.0 85.0 167.0 85.0 167.0 85.0 171.0 85.0 171.0 85.0" fill="none" stroke="rgb(255,128,0)" stroke-width="0.25mm" /><defs /><path d="M 171.001852943 85.0027796935 C 163.001852977 85.0020384648 155.001853012 85.0012972361 151.001667722 87.0009266132 151.001667722 87.0009266132 147.001482432 89.0005559902 143.00074122 97.0001853415 143.00074122 97.0001853415 139.000000009 104.999814693 134.999258797 112.999444044 134.999258797 112.999444044 130.998517585 120.999073395 126.998332295 122.998702772 126.998332295 122.998702772 122.998147005 124.99833215 118.998147023 124.997961535 118.998147023 124.997961535 114.99814704 124.997590921 114.99814704 124.997590921" fill="none" stroke="rgb(255,128,0)" stroke-width="0.25mm" /><defs /><text alignment-baseline="middle" fill="rgb(255,128,0)" font-family="Verdana" font-size="18" text-anchor="middle" x="185.0" y="120.0">TE</text><defs /><g id="heatPort"><rect fill="rgb(191,0,0)" height="40.0" stroke="rgb(191,0,0)" stroke-width="0.25mm" width="40.0" x="5.0" y="85.0" /><defs /><g display="none" id="info"><text id="name">heatPort</text><text id="type">Modelica.Thermal.HeatTransfer.Interfaces.HeatPort_a</text><text id="classDesc">Thermal port for 1-dim. heat transfer (filled rectangular icon)</text><text id="desc" /></g></g><g id="port_p"><rect fill="rgb(255,127,0)" height="40.0" stroke="rgb(255,127,0)" stroke-width="0.25mm" width="40.0" x="5.0" y="85.0" /><defs /><g display="none" id="info"><text id="name">port_p</text><text id="type">Modelica.Magnetic.FluxTubes.Interfaces.PositiveMagneticPort</text><text id="classDesc">Positive magnetic port</text><text id="desc">Positive magnetic port</text></g></g><g id="port_n"><rect fill="rgb(255,255,255)" height="40.0" stroke="rgb(255,127,0)" stroke-width="0.25mm" width="40.0" x="5.0" y="85.0" /><defs /><g display="none" id="info"><text id="name">port_n</text><text id="type">Modelica.Magnetic.FluxTubes.Interfaces.NegativeMagneticPort</text><text id="classDesc">Negative magnetic port</text><text id="desc">Negative magnetic port</text></g></g></svg>