<?xml version="1.0" encoding="utf-8" ?>
<svg baseProfile="full" height="310.0" version="1.1" viewBox="0 0 310.0 310.0" width="310.0" xmlns="http://www.w3.org/2000/svg" xmlns:ev="http://www.w3.org/2001/xml-events" xmlns:xlink="http://www.w3.org/1999/xlink"><defs /><rect fill="rgb(255,255,255)" height="200.0" stroke="rgb(0,0,127)" stroke-width="0.25mm" width="200.0" x="55.0" y="55.0" /><defs /><text alignment-baseline="middle" fill="rgb(0,0,255)" font-family="Verdana" font-size="18" text-anchor="middle" x="155.0" y="25.0">name</text><defs /><polygon fill="rgb(192,192,192)" points="79.0,65.0 71.0,87.0 87.0,87.0 79.0,65.0" stroke="rgb(192,192,192)" stroke-width="0.25mm" /><defs /><polyline fill="none" points="79.0,87.0 79.0,235.0" stroke="rgb(192,192,192)" stroke-width="0.25mm" /><defs /><polyline fill="none" points="69.0,169.0 227.0,169.0" stroke="rgb(192,192,192)" stroke-width="0.25mm" /><defs /><polygon fill="rgb(192,192,192)" points="249.0,169.0 227.0,161.0 227.0,177.0 249.0,169.0" stroke="rgb(192,192,192)" stroke-width="0.25mm" /><defs /><polyline fill="none" points="79.0,174.0 93.0,174.0 93.0,158.0 101.0,158.0 101.0,206.0 109.0,206.0 109.0,184.0 117.0,184.0 117.0,100.0 125.0,100.0 125.0,132.0 125.0,132.0 125.0,192.0 135.0,192.0 135.0,174.0 145.0,174.0 145.0,202.0 155.0,202.0 155.0,120.0 161.0,120.0 161.0,106.0 167.0,106.0 167.0,162.0 177.0,162.0 177.0,150.0 183.0,150.0 183.0,180.0 193.0,180.0 193.0,108.0 203.0,108.0 203.0,142.0 211.0,142.0 211.0,208.0 221.0,208.0" stroke="rgb(0,0,0)" stroke-width="0.25mm" /><defs /><text alignment-baseline="middle" fill="rgb(192,192,192)" font-family="Verdana" font-size="18" text-anchor="middle" x="155.0" y="285.0">samplePeriod s</text><defs /><polyline fill="none" points="79.0,107.0 227.0,107.0" stroke="rgb(0,0,0)" stroke-width="0.25mm" /><defs /><text alignment-baseline="middle" fill="rgb(192,192,192)" font-family="Verdana" font-size="18" text-anchor="middle" x="165.0" y="133.0">y_off</text><defs /><text alignment-baseline="middle" fill="rgb(238,46,47)" font-family="Verdana" font-size="18" text-anchor="middle" x="158.0" y="156.0">fixedLocalSeed</text><defs /><g id="y"><polygon fill="rgb(255,255,255)" points="15.0,135.0 55.0,155.0 15.0,175.0" stroke="rgb(0,0,127)" stroke-width="0.25mm" /><defs /><g display="none" id="info"><text id="name">y</text><text id="type">Modelica.Blocks.Interfaces.RealOutput</text><text id="classDesc">'output Real' as connector</text><text id="desc">Connector of Real output signal</text></g></g></svg>