<?xml version="1.0" encoding="utf-8" ?>
<svg baseProfile="full" height="280.0" version="1.1" viewBox="0 0 230.0 280.0" width="230.0" xmlns="http://www.w3.org/2000/svg" xmlns:ev="http://www.w3.org/2001/xml-events" xmlns:xlink="http://www.w3.org/1999/xlink"><defs /><rect fill="rgb(255,255,255)" height="120.0" width="200.0" x="15.0" y="105.0" /><defs /><polyline fill="none" points="215.0,265.0 209.0,265.0 199.0,263.0 191.0,259.0 179.0,251.0 165.0,237.0 157.0,223.0 151.0,205.0 145.0,183.0 145.0,165.0 145.0,147.0 149.0,129.0 161.0,99.0 177.0,81.0 193.0,69.0 205.0,65.0 215.0,65.0" stroke="rgb(255,128,0)" stroke-width="0.25mm" /><defs /><polyline fill="none" points="155.0,105.0 15.0,105.0 15.0,65.0" stroke="rgb(0,0,255)" stroke-width="0.25mm" /><defs /><polyline fill="none" points="155.0,225.0 15.0,225.0 15.0,263.0" stroke="rgb(0,0,255)" stroke-width="0.25mm" /><defs /><polyline fill="none" points="155.0,105.0 215.0,145.0 155.0,185.0 115.0,185.0 75.0,165.0 115.0,145.0 155.0,145.0 215.0,185.0 155.0,225.0" stroke="rgb(0,0,255)" stroke-width="0.25mm" /><defs /><text alignment-baseline="middle" fill="rgb(255,128,0)" font-family="Verdana" font-size="18" text-anchor="middle" x="115.0" y="25.0">name</text><defs /><g id="pin_p"><rect fill="rgb(0,0,255)" height="20.0018529859" stroke="rgb(0,0,255)" stroke-width="0.25mm" width="19.9981468424" x="5.00092657882" y="54.999073507" /><defs /><g display="none" id="info"><text id="name">pin_p</text><text id="type">Modelica.Electrical.Analog.Interfaces.PositivePin</text><text id="classDesc">Positive pin of an electric component</text><text id="desc">Positive pin</text></g></g><g id="pin_n"><rect fill="rgb(255,255,255)" height="20.0018529859" stroke="rgb(0,0,255)" stroke-width="0.25mm" width="19.9981468424" x="5.00092657882" y="254.999073507" /><defs /><g display="none" id="info"><text id="name">pin_n</text><text id="type">Modelica.Electrical.Analog.Interfaces.NegativePin</text><text id="classDesc">Negative pin of an electric component</text><text id="desc">Negative pin</text></g></g><g id="port_n"><ellipse cx="215.0" cy="265.0" fill="rgb(255,255,255)" rx="10.0" ry="10.0" stroke="rgb(255,128,0)" stroke-width="0.25mm" /><defs /><g display="none" id="info"><text id="name">port_n</text><text id="type">Modelica.Magnetic.FundamentalWave.Interfaces.NegativeMagneticPort</text><text id="classDesc">Negative complex magnetic port</text><text id="desc">Negative complex magnetic port</text></g></g><g id="port_p"><ellipse cx="215.0" cy="65.0" fill="rgb(255,128,0)" rx="10.0" ry="10.0" stroke="rgb(255,128,0)" stroke-width="0.25mm" /><defs /><g display="none" id="info"><text id="name">port_p</text><text id="type">Modelica.Magnetic.FundamentalWave.Interfaces.PositiveMagneticPort</text><text id="classDesc">Positive complex magnetic port</text><text id="desc">Positive complex magnetic port</text></g></g><g id="heatPortWinding"><rect fill="rgb(191,0,0)" height="20.0" stroke="rgb(191,0,0)" stroke-width="0.25mm" width="20.0" x="105.0" y="255.0" /><defs /><g display="none" id="info"><text id="name">heatPortWinding</text><text id="type">Modelica.Thermal.HeatTransfer.Interfaces.HeatPort_a</text><text id="classDesc">Thermal port for 1-dim. heat transfer (filled rectangular icon)</text><text id="desc">Heat ports of winding resistor</text></g></g></svg>