<?xml version="1.0" encoding="utf-8" ?>
<svg baseProfile="full" height="264.0" version="1.1" viewBox="0 0 310.0 264.0" width="310.0" xmlns="http://www.w3.org/2000/svg" xmlns:ev="http://www.w3.org/2001/xml-events" xmlns:xlink="http://www.w3.org/1999/xlink"><defs /><rect fill="rgb(255,255,255)" height="160.0" stroke="rgb(255,255,255)" stroke-width="0.25mm" width="160.0" x="93.0" y="49.0" /><defs /><rect fill="url(#0)" height="160.0" stroke="rgb(0,0,0)" stroke-width="0.25mm" width="30.0" x="65.0" y="49.0" /><defs><pattern height="7" id="0" patternUnits="userSpaceOnUse" width="7" x="0" y="0"><rect fill="rgb(192,192,192)" height="7" width="7" x="0" y="0" /><path d="M0,0 l7,7" stroke="rgb(0,0,0)" stroke-width="1" /><path d="M6,-1 l3,3" stroke="rgb(0,0,0)" stroke-width="1" /><path d="M-1,6 l3,3" stroke="rgb(0,0,0)" stroke-width="1" /></pattern></defs><text alignment-baseline="middle" fill="rgb(0,0,255)" font-family="Verdana" font-size="18" text-anchor="middle" x="155.0" y="239.0">name</text><defs /><polyline fill="none" points="255.0,129.0 255.0,129.0" stroke="rgb(0,127,255)" stroke-width="0.25mm" /><defs /><polyline fill="none" points="95.0,109.0 231.0,109.0" stroke="rgb(191,0,0)" stroke-width="0.25mm" /><defs /><polyline fill="none" points="95.0,149.0 231.0,149.0" stroke="rgb(191,0,0)" stroke-width="0.25mm" /><defs /><polyline fill="none" points="121.0,49.0 121.0,209.0" stroke="rgb(0,127,255)" stroke-width="0.25mm" /><defs /><polyline fill="none" points="161.0,49.0 161.0,209.0" stroke="rgb(0,127,255)" stroke-width="0.25mm" /><defs /><polyline fill="none" points="195.0,49.0 195.0,209.0" stroke="rgb(0,127,255)" stroke-width="0.25mm" /><defs /><polyline fill="none" points="231.0,49.0 231.0,209.0" stroke="rgb(0,127,255)" stroke-width="0.25mm" /><defs /><polyline fill="none" points="121.0,209.0 111.0,189.0" stroke="rgb(0,127,255)" stroke-width="0.25mm" /><defs /><polyline fill="none" points="121.0,209.0 131.0,189.0" stroke="rgb(0,127,255)" stroke-width="0.25mm" /><defs /><polyline fill="none" points="161.0,209.0 151.0,189.0" stroke="rgb(0,127,255)" stroke-width="0.25mm" /><defs /><polyline fill="none" points="161.0,209.0 171.0,189.0" stroke="rgb(0,127,255)" stroke-width="0.25mm" /><defs /><polyline fill="none" points="195.0,209.0 185.0,189.0" stroke="rgb(0,127,255)" stroke-width="0.25mm" /><defs /><polyline fill="none" points="195.0,209.0 205.0,189.0" stroke="rgb(0,127,255)" stroke-width="0.25mm" /><defs /><polyline fill="none" points="231.0,209.0 221.0,189.0" stroke="rgb(0,127,255)" stroke-width="0.25mm" /><defs /><polyline fill="none" points="231.0,209.0 241.0,189.0" stroke="rgb(0,127,255)" stroke-width="0.25mm" /><defs /><polyline fill="none" points="211.0,159.0 231.0,149.0" stroke="rgb(191,0,0)" stroke-width="0.25mm" /><defs /><polyline fill="none" points="211.0,139.0 231.0,149.0" stroke="rgb(191,0,0)" stroke-width="0.25mm" /><defs /><polyline fill="none" points="211.0,119.0 231.0,109.0" stroke="rgb(191,0,0)" stroke-width="0.25mm" /><defs /><polyline fill="none" points="211.0,99.0 231.0,109.0" stroke="rgb(191,0,0)" stroke-width="0.25mm" /><defs /><text alignment-baseline="middle" fill="rgb(0,0,0)" font-family="Verdana" font-size="18" text-anchor="middle" x="212.0" y="18.0">Rc</text><defs /><g id="Rc"><polygon fill="rgb(0,0,127)" points="15.0,109.0 55.0,129.0 15.0,149.0" stroke="rgb(0,0,127)" stroke-width="0.25mm" /><defs /><g display="none" id="info"><text id="name">Rc</text><text id="type">Modelica.Blocks.Interfaces.RealInput</text><text id="classDesc">'input Real' as connector</text><text id="desc">Signal representing the convective thermal resistance in [K/W]</text></g></g><g id="solid"><rect fill="rgb(191,0,0)" height="40.0" stroke="rgb(191,0,0)" stroke-width="0.25mm" width="40.0" x="15.0" y="109.0" /><defs /><g display="none" id="info"><text id="name">solid</text><text id="type">Modelica.Thermal.HeatTransfer.Interfaces.HeatPort_a</text><text id="classDesc">Thermal port for 1-dim. heat transfer (filled rectangular icon)</text><text id="desc" /></g></g><g id="fluid"><rect fill="rgb(255,255,255)" height="40.0" stroke="rgb(191,0,0)" stroke-width="0.25mm" width="40.0" x="15.0" y="109.0" /><defs /><g display="none" id="info"><text id="name">fluid</text><text id="type">Modelica.Thermal.HeatTransfer.Interfaces.HeatPort_b</text><text id="classDesc">Thermal port for 1-dim. heat transfer (unfilled rectangular icon)</text><text id="desc" /></g></g></svg>