<?xml version="1.0" encoding="utf-8" ?>
<svg baseProfile="full" height="210.0" version="1.1" viewBox="0 0 310.0 210.0" width="310.0" xmlns="http://www.w3.org/2000/svg" xmlns:ev="http://www.w3.org/2001/xml-events" xmlns:xlink="http://www.w3.org/1999/xlink"><defs /><rect fill="rgb(245,245,245)" height="80.0" stroke="rgb(0,0,0)" stroke-width="0.25mm" width="140.0" x="85.0" y="85.0" /><defs /><polygon fill="rgb(0,0,0)" points="155.0,145.0 145.0,121.0 165.0,121.0 155.0,145.0" /><defs /><polyline fill="none" points="155.0,105.0 155.0,121.0" stroke="rgb(0,0,0)" stroke-width="0.25mm" /><defs /><polyline fill="none" points="85.0,105.0 155.0,105.0" stroke="rgb(0,0,0)" stroke-width="0.25mm" /><defs /><polyline fill="none" points="105.0,145.0 105.0,165.0" stroke="rgb(0,0,0)" stroke-width="0.25mm" /><defs /><polyline fill="none" points="125.0,145.0 125.0,165.0" stroke="rgb(0,0,0)" stroke-width="0.25mm" /><defs /><polyline fill="none" points="145.0,145.0 145.0,165.0" stroke="rgb(0,0,0)" stroke-width="0.25mm" /><defs /><polyline fill="none" points="165.0,145.0 165.0,165.0" stroke="rgb(0,0,0)" stroke-width="0.25mm" /><defs /><polyline fill="none" points="185.0,145.0 185.0,165.0" stroke="rgb(0,0,0)" stroke-width="0.25mm" /><defs /><polyline fill="none" points="205.0,145.0 205.0,165.0" stroke="rgb(0,0,0)" stroke-width="0.25mm" /><defs /><polyline fill="none" points="55.0,105.0 85.0,105.0" stroke="rgb(0,127,255)" stroke-width="0.25mm" /><defs /><polyline fill="none" points="225.0,105.0 255.0,105.0" stroke="rgb(0,127,255)" stroke-width="0.25mm" /><defs /><text alignment-baseline="middle" fill="rgb(0,0,255)" font-family="Verdana" font-size="18" text-anchor="middle" x="155.0" y="45.0">name</text><defs /><polyline fill="none" points="187.0,102.0 97.0,102.0" stroke="rgb(0,128,255)" stroke-width="0.25mm" /><defs /><polygon fill="rgb(0,128,255)" points="177.0,87.0 217.0,102.0 177.0,117.0 177.0,87.0" stroke="rgb(0,128,255)" stroke-width="0.25mm" /><defs /><polyline fill="none" points="155.0,135.0 155.0,185.0" stroke="rgb(0,0,127)" stroke-width="0.25mm" /><defs /><text alignment-baseline="middle" fill="rgb(0,0,0)" font-family="Verdana" font-size="18" text-anchor="middle" x="224.0" y="190.0">T_rel</text><defs /><g id="port_a"><ellipse cx="55.0" cy="105.0" fill="rgb(0,127,255)" rx="10.0" ry="10.0" stroke="rgb(0,127,255)" stroke-width="0.25mm" /><defs /><ellipse cx="55.0" cy="105.0" fill="rgb(0,127,255)" rx="10.0" ry="10.0" stroke="rgb(0,0,0)" stroke-width="0.25mm" /><defs /><g display="none" id="info"><text id="name">port_a</text><text id="type">Modelica.Fluid.Interfaces.FluidPort_a</text><text id="classDesc">Generic fluid connector at design inlet</text><text id="desc" /></g></g><g id="port_b"><ellipse cx="255.0" cy="105.0" fill="rgb(0,127,255)" rx="10.0" ry="10.0" stroke="rgb(0,127,255)" stroke-width="0.25mm" /><defs /><ellipse cx="255.0" cy="105.0" fill="rgb(0,127,255)" rx="10.0" ry="10.0" stroke="rgb(0,0,0)" stroke-width="0.25mm" /><defs /><ellipse cx="255.0" cy="105.0" fill="rgb(255,255,255)" rx="8.0" ry="8.0" stroke="rgb(0,127,255)" stroke-width="0.25mm" /><defs /><g display="none" id="info"><text id="name">port_b</text><text id="type">Modelica.Fluid.Interfaces.FluidPort_b</text><text id="classDesc">Generic fluid connector at design outlet</text><text id="desc" /></g></g><g id="T_rel"><polygon fill="rgb(255,255,255)" points="145.000463279,184.999536743 154.999536732,204.999999989 165.000463257,185.000463279" stroke="rgb(0,0,127)" stroke-width="0.25mm" /><defs /><g display="none" id="info"><text id="name">T_rel</text><text id="type">Modelica.Blocks.Interfaces.RealOutput</text><text id="classDesc">'output Real' as connector</text><text id="desc">Relative temperature signal</text></g></g></svg>