<?xml version="1.0" encoding="utf-8" ?>
<svg baseProfile="full" height="298.0" version="1.1" viewBox="0 0 310.0 298.0" width="310.0" xmlns="http://www.w3.org/2000/svg" xmlns:ev="http://www.w3.org/2001/xml-events" xmlns:xlink="http://www.w3.org/1999/xlink"><defs /><rect fill="rgb(255,255,255)" height="200.0" stroke="rgb(0,0,127)" stroke-width="0.25mm" width="200.0" x="55.0" y="55.0" /><defs /><text alignment-baseline="middle" fill="rgb(0,0,255)" font-family="Verdana" font-size="18" text-anchor="middle" x="155.0" y="25.0">name</text><defs /><polyline fill="none" points="95.0,175.0 95.0,135.0 99.0,147.0 91.0,147.0 95.0,135.0" stroke="rgb(85,170,255)" stroke-width="0.25mm" /><defs /><polyline fill="none" points="195.0,175.0 195.0,135.0 199.0,149.0 191.0,149.0 195.0,135.0" stroke="rgb(85,170,255)" stroke-width="0.25mm" /><defs /><polyline fill="none" points="195.0,175.0 195.0,175.0 231.0,195.0 217.0,191.0 221.0,185.0 231.0,195.0" stroke="rgb(85,170,255)" stroke-width="0.25mm" /><defs /><polyline fill="none" points="194.999166107,174.999536751 194.999166107,174.999536751 161.000092679,195.001111841 170.999629401,185.000648584 174.999907357,191.00046327 161.000092679,195.001111841" stroke="rgb(85,170,255)" stroke-width="0.25mm" /><defs /><g id="u"><rect fill="rgb(160,160,164)" height="40.0" rx="25.0" ry="25.0" stroke="rgb(160,160,164)" stroke-width="0.25mm" width="40.0" x="15.0" y="135.0" /><defs /><text alignment-baseline="middle" fill="rgb(255,255,255)" font-family="Verdana" font-size="18" text-anchor="middle" x="35.0" y="155.0">C</text><defs /><polygon fill="rgb(85,170,255)" points="15.0,135.0 55.0,155.0 15.0,175.0 15.0,135.0" stroke="rgb(85,170,255)" stroke-width="0.25mm" /><defs /><g display="none" id="info"><text id="name">u</text><text id="type">Modelica.ComplexBlocks.Interfaces.ComplexInput</text><text id="classDesc">'input Complex' as connector</text><text id="desc">Connector of Complex input signal</text></g></g><g id="y"><rect fill="rgb(160,160,164)" height="40.0" rx="25.0" ry="25.0" stroke="rgb(160,160,164)" stroke-width="0.25mm" width="40.0" x="15.0" y="135.0" /><defs /><text alignment-baseline="middle" fill="rgb(255,255,255)" font-family="Verdana" font-size="18" text-anchor="middle" x="35.0" y="155.0">C</text><defs /><polygon fill="rgb(255,255,255)" points="15.0,135.0 55.0,155.0 15.0,175.0 15.0,135.0" stroke="rgb(85,170,255)" stroke-width="0.25mm" /><defs /><g display="none" id="info"><text id="name">y</text><text id="type">Modelica.ComplexBlocks.Interfaces.ComplexOutput</text><text id="classDesc">'output Complex' as connector</text><text id="desc" /></g></g></svg>