<?xml version="1.0" encoding="utf-8" ?>
<svg baseProfile="full" height="230.0" version="1.1" viewBox="0 0 310.0 230.0" width="310.0" xmlns="http://www.w3.org/2000/svg" xmlns:ev="http://www.w3.org/2001/xml-events" xmlns:xlink="http://www.w3.org/1999/xlink"><defs /><ellipse cx="155.0" cy="125.0" fill="rgb(255,255,255)" rx="50.0" ry="50.0" stroke="rgb(0,0,255)" stroke-width="0.25mm" /><defs /><text alignment-baseline="middle" fill="rgb(0,0,255)" font-family="Verdana" font-size="18" text-anchor="middle" x="155.0" y="25.0">name</text><defs /><polyline fill="none" points="65.0,125.0 245.0,125.0" stroke="rgb(0,0,255)" stroke-width="0.25mm" /><defs /><text alignment-baseline="middle" fill="rgb(0,0,255)" font-family="Verdana" font-size="18" text-anchor="middle" x="85.0" y="100.0">+</text><defs /><text alignment-baseline="middle" fill="rgb(0,0,255)" font-family="Verdana" font-size="18" text-anchor="middle" x="225.0" y="100.0">-</text><defs /><polyline fill="none" points="79.0,184.0 81.8,169.3 84.7,156.1 88.2,141.6 91.7,129.0 95.3,118.08 99.5,106.82 103.7,97.3 108.7,88.0 114.4,79.5 120.7,71.9 127.8,65.4 136.3,59.7 146.9,54.8 149.0,54.0 151.12,66.5 153.95,81.3 156.78,94.2 159.606,105.55 163.14,117.7 166.68,128.0 170.9,138.2 175.2,146.6 180.1,154.5 185.8,161.4 192.1,167.3 199.9,172.5 209.8,176.8 219.0,179.4" stroke="rgb(192,192,192)" stroke-width="0.25mm" /><defs /><g id="p"><rect fill="rgb(0,0,255)" height="40.0" stroke="rgb(0,0,255)" stroke-width="0.25mm" width="40.0" x="15.0" y="105.0" /><defs /><g display="none" id="info"><text id="name">p</text><text id="type">Modelica.Electrical.Analog.Interfaces.PositivePin</text><text id="classDesc">Positive pin of an electric component</text><text id="desc">Positive pin (potential p.v &gt; n.v for positive voltage drop v)</text></g></g><g id="n"><rect fill="rgb(255,255,255)" height="40.0" stroke="rgb(0,0,255)" stroke-width="0.25mm" width="40.0" x="15.0" y="105.0" /><defs /><g display="none" id="info"><text id="name">n</text><text id="type">Modelica.Electrical.Analog.Interfaces.NegativePin</text><text id="classDesc">Negative pin of an electric component</text><text id="desc">Negative pin</text></g></g></svg>