<?xml version="1.0" encoding="utf-8" ?>
<svg baseProfile="full" height="210" version="1.1" viewBox="0 0 310.0 210" width="310.0" xmlns="http://www.w3.org/2000/svg" xmlns:ev="http://www.w3.org/2001/xml-events" xmlns:xlink="http://www.w3.org/1999/xlink"><defs /><text alignment-baseline="middle" fill="rgb(0,0,255)" font-family="Verdana" font-size="18" text-anchor="middle" x="83.0" y="77.0">+</text><defs /><text alignment-baseline="middle" fill="rgb(0,0,255)" font-family="Verdana" font-size="18" text-anchor="middle" x="224.0" y="71.0">-</text><defs /><ellipse cx="154.0" cy="105.0" fill="rgb(255,255,255)" rx="50.0" ry="50.0" stroke="rgb(0,0,255)" stroke-width="0.25mm" /><defs /><polyline fill="none" points="65.0,105.0 205.0,105.0" stroke="rgb(0,0,255)" stroke-width="0.25mm" /><defs /><polyline fill="none" points="205.0,105.0 245.0,105.0" stroke="rgb(0,0,255)" stroke-width="0.25mm" /><defs /><polyline fill="none" points="75.0,101.0 79.8,68.7 83.0,50.7 86.3,36.5 89.5,26.8 92.7,21.7 95.9,21.4 99.1,25.7 102.3,33.9 106.4,48.8 112.0,75.2 120.0,114.9 124.8,134.7 128.9,146.9 132.9,154.2 136.9,156.3 140.9,153.5 144.9,146.3 149.77,133.1 163.44,87.3 168.3,74.6 173.1,66.2 177.1,63.0 181.9,63.8 186.8,69.2 193.2,81.6 206.1,111.5 212.5,122.2 218.1,126.9 223.7,126.9 230.2,121.5 235.0,114.8" stroke="rgb(192,192,192)" stroke-width="0.25mm" /><defs /><text alignment-baseline="middle" fill="rgb(0,0,255)" font-family="Verdana" font-size="18" text-anchor="middle" x="155.0" y="181.0">name</text><defs /><g id="p"><rect fill="rgb(0,0,255)" height="20.0" stroke="rgb(0,0,255)" stroke-width="0.25mm" width="20.0" x="45.0" y="95.0" /><defs /><g display="none" id="info"><text id="name">p</text><text id="type">Modelica.Electrical.Analog.Interfaces.PositivePin</text><text id="classDesc">Positive pin of an electric component</text><text id="desc">Positive pin (potential p.v &gt; n.v for positive voltage drop v)</text></g></g><g id="n"><rect fill="rgb(255,255,255)" height="20.0" stroke="rgb(0,0,255)" stroke-width="0.25mm" width="20.0" x="245.0" y="95.0" /><defs /><g display="none" id="info"><text id="name">n</text><text id="type">Modelica.Electrical.Analog.Interfaces.NegativePin</text><text id="classDesc">Negative pin of an electric component</text><text id="desc">Negative pin</text></g></g></svg>