<?xml version="1.0" encoding="utf-8" ?>
<svg baseProfile="full" height="317.0" version="1.1" viewBox="0 0 330.0 317.0" width="330.0" xmlns="http://www.w3.org/2000/svg" xmlns:ev="http://www.w3.org/2001/xml-events" xmlns:xlink="http://www.w3.org/1999/xlink"><defs /><rect fill="rgb(255,255,255)" height="200.0" stroke="rgb(0,0,0)" stroke-width="0.25mm" width="200.0" x="75.0" y="50.0" /><defs /><polyline fill="none" points="75.0,268.0 75.0,89.0" stroke="rgb(0,0,0)" stroke-width="0.5mm" /><defs /><polygon fill="rgb(0,0,0)" points="75.0,50.0 55.0,90.0 95.0,90.0 75.0,50.0 75.0,50.0" stroke="rgb(0,0,0)" stroke-width="0.25mm" /><defs /><polyline fill="none" points="56.0,250.0 234.0,250.0" stroke="rgb(0,0,0)" stroke-width="0.5mm" /><defs /><polygon fill="rgb(0,0,0)" points="274.0,250.0 234.0,230.0 234.0,270.0 274.0,250.0" stroke="rgb(0,0,0)" stroke-width="0.25mm" /><defs /><text alignment-baseline="middle" fill="rgb(0,0,255)" font-family="Verdana" font-size="18" text-anchor="middle" x="175.0" y="25.0">name</text><defs /><text alignment-baseline="middle" fill="rgb(0,0,0)" font-family="Verdana" font-size="18" text-anchor="middle" x="294.5" y="287.5">label1</text><defs /><text alignment-baseline="middle" fill="rgb(0,0,0)" font-family="Verdana" font-size="18" text-anchor="middle" x="30.5" y="48.0">label2</text><defs /><polyline fill="none" points="119.0,72.0 119.0,176.0" stroke="rgb(0,0,255)" stroke-width="0.25mm" /><defs /><polygon fill="rgb(0,0,255)" points="107.0,176.0 119.0,216.0 131.0,176.0 107.0,176.0" stroke="rgb(0,0,255)" stroke-width="0.25mm" /><defs /><polyline fill="none" points="177.0,72.0 177.0,176.0" stroke="rgb(0,0,255)" stroke-width="0.25mm" /><defs /><polygon fill="rgb(0,0,255)" points="165.0,176.0 177.0,216.0 189.0,176.0 165.0,176.0" stroke="rgb(0,0,255)" stroke-width="0.25mm" /><defs /><polyline fill="none" points="241.0,70.0 241.0,176.0" stroke="rgb(0,0,255)" stroke-width="0.25mm" /><defs /><polygon fill="rgb(0,0,255)" points="229.0,176.0 241.0,216.0 253.0,176.0 229.0,176.0" stroke="rgb(0,0,255)" stroke-width="0.25mm" /><defs /><g id="frame_b"><rect fill="none" height="4.0" stroke="rgb(95,95,95)" stroke-width="0.5mm" width="4.0" x="53.0" y="148.0" /><defs /><rect fill="rgb(255,255,255)" height="40.0" stroke="rgb(0,0,0)" stroke-width="0.25mm" width="12.0" x="49.0" y="130.0" /><defs /><g display="none" id="info"><text id="name">frame_b</text><text id="type">Modelica.Mechanics.MultiBody.Interfaces.Frame_b</text><text id="classDesc">Coordinate system fixed to the component with one cut-force and cut-torque (non-filled rectangular icon)</text><text id="desc">Coordinate system fixed in the origin of the world frame</text></g></g></svg>