<?xml version="1.0" encoding="utf-8" ?>
<svg baseProfile="full" height="210.0" version="1.1" viewBox="0 0 226.0 210.0" width="226.0" xmlns="http://www.w3.org/2000/svg" xmlns:ev="http://www.w3.org/2001/xml-events" xmlns:xlink="http://www.w3.org/1999/xlink"><defs /><ellipse cx="121.0" cy="105.0" fill="rgb(245,245,245)" rx="70.0" ry="70.0" stroke="rgb(0,0,0)" stroke-width="0.25mm" /><defs /><polyline fill="none" points="121.0,35.0 121.0,65.0" stroke="rgb(0,0,0)" stroke-width="0.25mm" /><defs /><polyline fill="none" points="143.9,72.2 161.2,47.7" stroke="rgb(0,0,0)" stroke-width="0.25mm" /><defs /><polyline fill="none" points="98.1,72.2 80.8,47.7" stroke="rgb(0,0,0)" stroke-width="0.25mm" /><defs /><polyline fill="none" points="158.6,91.3 186.8,81.1" stroke="rgb(0,0,0)" stroke-width="0.25mm" /><defs /><polyline fill="none" points="83.4,91.3 55.2,81.1" stroke="rgb(0,0,0)" stroke-width="0.25mm" /><defs /><ellipse cx="121.0" cy="105.0" fill="none" rx="12.0" ry="12.0" stroke="rgb(64,64,64)" stroke-width="0.25mm" /><defs /><polygon fill="rgb(64,64,64)" points="116.231401703,103.496513958 137.134393186,47.1754260153 140.545318547,43.0082221349 140.949271824,48.378214849 125.768598297,106.503486042" /><defs /><ellipse cx="121.0" cy="105.0" fill="rgb(64,64,64)" rx="7.0" ry="7.0" /><defs /><text alignment-baseline="middle" fill="rgb(128,128,128)" font-family="Verdana" font-size="18" text-anchor="middle" x="31.0" y="74.5">a</text><defs /><polyline fill="none" points="51.0,105.0 25.0,105.0 25.0,105.0" stroke="rgb(0,0,0)" stroke-width="0.25mm" /><defs /><g id="frame_a"><rect fill="none" height="3.2" stroke="rgb(95,95,95)" stroke-width="0.5mm" width="3.2" x="19.4" y="103.4" /><defs /><rect fill="rgb(192,192,192)" height="32.0" stroke="rgb(0,0,0)" stroke-width="0.25mm" width="9.6" x="16.2" y="89.0" /><defs /><g display="none" id="info"><text id="name">frame_a</text><text id="type">Modelica.Mechanics.MultiBody.Interfaces.Frame_a</text><text id="classDesc">Coordinate system fixed to the component with one cut-force and cut-torque (filled rectangular icon)</text><text id="desc">Coordinate system at which the kinematic quantities are measured</text></g></g></svg>