<?xml version="1.0" encoding="utf-8" ?>
<svg baseProfile="full" height="194.0" version="1.1" viewBox="0 0 264.0 194.0" width="264.0" xmlns="http://www.w3.org/2000/svg" xmlns:ev="http://www.w3.org/2001/xml-events" xmlns:xlink="http://www.w3.org/1999/xlink"><defs /><rect fill="rgb(159,159,223)" height="120.0" stroke="rgb(0,0,127)" stroke-width="0.25mm" width="200.0" x="45.0" y="69.0" /><defs /><text alignment-baseline="middle" fill="rgb(0,0,255)" font-family="Verdana" font-size="18" text-anchor="middle" x="149.0" y="33.0">name</text><defs /><g id="subControlBus"><polyline fill="none" points="21.8,128.6 28.2,128.6" stroke="rgb(255,204,51)" stroke-width="0.5mm" /><defs /><rect fill="none" height="1.6" stroke="rgb(255,204,51)" stroke-width="0.5mm" width="3.6" x="23.0" y="127.4" /><defs /><path d="M 9.0 119.0 C 25.0 119.0 41.0 119.0 43.0 121.0 43.0 121.0 45.0 123.0 43.0 130.0 43.0 130.0 41.0 137.0 39.0 138.0 39.0 138.0 37.0 139.0 25.0 139.0 25.0 139.0 13.0 139.0 11.0 138.0 11.0 138.0 9.0 137.0 7.0 130.0 7.0 130.0 5.0 123.0 5.0 123.0" fill="rgb(255,215,136)" stroke="rgb(0,0,0)" stroke-width="0.25mm" /><defs /><ellipse cx="15.0" cy="125.0" fill="rgb(0,0,0)" rx="1.0" ry="1.0" stroke="rgb(0,0,0)" stroke-width="0.25mm" /><defs /><ellipse cx="35.0" cy="125.0" fill="rgb(0,0,0)" rx="1.0" ry="1.0" stroke="rgb(0,0,0)" stroke-width="0.25mm" /><defs /><ellipse cx="25.0" cy="133.0" fill="rgb(0,0,0)" rx="1.0" ry="1.0" stroke="rgb(0,0,0)" stroke-width="0.25mm" /><defs /><rect fill="none" height="0.8" stroke="rgb(255,215,136)" stroke-width="0.5mm" width="8.0" x="21.0" y="128.2" /><defs /><rect fill="none" height="0.8" stroke="rgb(255,204,51)" stroke-width="0.5mm" width="8.4" x="21.0" y="128.6" /><defs /><g display="none" id="info"><text id="name">subControlBus</text><text id="type">Modelica.Blocks.Examples.BusUsage_Utilities.Interfaces.SubControlBus</text><text id="classDesc">Sub-control bus that is adapted to the signals connected to it</text><text id="desc" /></g></g></svg>