<?xml version="1.0" encoding="utf-8" ?>
<svg baseProfile="full" height="250.0" version="1.1" viewBox="0 0 222.0 250.0" width="222.0" xmlns="http://www.w3.org/2000/svg" xmlns:ev="http://www.w3.org/2001/xml-events" xmlns:xlink="http://www.w3.org/1999/xlink"><defs /><rect fill="url(#0)" height="200.0" rx="25.0" ry="25.0" stroke="rgb(200,200,200)" stroke-width="0.25mm" width="200.0" x="5.0" y="45.0" /><defs><linearGradient id="0" x1="0%" x2="0%" y1="0%" y2="100%"><stop offset="0" stop-color="rgb(200, 200, 200)" stop-opacity="1" /><stop offset="0.3" stop-color="rgb(248, 248, 248)" stop-opacity="1" /><stop offset="0.7" stop-color="rgb(248, 248, 248)" stop-opacity="1" /><stop offset="1" stop-color="rgb(200, 200, 200)" stop-opacity="1" /></linearGradient></defs><rect fill="none" height="200.0" rx="25.0" ry="25.0" stroke="rgb(128,128,128)" stroke-width="0.25mm" width="200.0" x="5.0" y="45.0" /><defs /><rect fill="url(#1)" height="118.0" stroke="rgb(0,0,0)" stroke-width="0.25mm" width="30.0" x="17.0" y="87.0" /><defs><pattern height="7" id="1" patternUnits="userSpaceOnUse" width="7" x="0" y="0"><rect fill="rgb(192,192,192)" height="7" width="7" x="0" y="0" /><path d="M7,0 l-7,7" stroke="rgb(0,0,0)" stroke-width="1" /><path d="M1,-1 l-7,7" stroke="rgb(0,0,0)" stroke-width="1" /><path d="M8,6 l-7,7" stroke="rgb(0,0,0)" stroke-width="1" /></pattern></defs><polyline fill="none" points="73.0,89.0 73.0,205.0" stroke="rgb(0,127,255)" stroke-width="0.25mm" /><defs /><polyline fill="none" points="113.0,89.0 113.0,205.0" stroke="rgb(0,127,255)" stroke-width="0.25mm" /><defs /><polyline fill="none" points="147.0,87.0 147.0,205.0" stroke="rgb(0,127,255)" stroke-width="0.25mm" /><defs /><polyline fill="none" points="183.0,87.0 183.0,205.0" stroke="rgb(0,127,255)" stroke-width="0.25mm" /><defs /><polyline fill="none" points="183.0,205.0 193.0,185.0" stroke="rgb(0,127,255)" stroke-width="0.25mm" /><defs /><polyline fill="none" points="183.0,205.0 173.0,185.0" stroke="rgb(0,127,255)" stroke-width="0.25mm" /><defs /><polyline fill="none" points="147.0,205.0 157.0,185.0" stroke="rgb(0,127,255)" stroke-width="0.25mm" /><defs /><polyline fill="none" points="147.0,205.0 137.0,185.0" stroke="rgb(0,127,255)" stroke-width="0.25mm" /><defs /><polyline fill="none" points="113.0,205.0 123.0,185.0" stroke="rgb(0,127,255)" stroke-width="0.25mm" /><defs /><polyline fill="none" points="113.0,205.0 103.0,185.0" stroke="rgb(0,127,255)" stroke-width="0.25mm" /><defs /><polyline fill="none" points="73.0,205.0 83.0,185.0" stroke="rgb(0,127,255)" stroke-width="0.25mm" /><defs /><polyline fill="none" points="73.0,205.0 63.0,185.0" stroke="rgb(0,127,255)" stroke-width="0.25mm" /><defs /><polyline fill="none" points="47.0,165.0 183.0,165.0" stroke="rgb(191,0,0)" stroke-width="0.25mm" /><defs /><polyline fill="none" points="163.0,175.0 183.0,165.0" stroke="rgb(191,0,0)" stroke-width="0.25mm" /><defs /><polyline fill="none" points="163.0,155.0 183.0,165.0" stroke="rgb(191,0,0)" stroke-width="0.25mm" /><defs /><polyline fill="none" points="163.0,135.0 183.0,125.0" stroke="rgb(191,0,0)" stroke-width="0.25mm" /><defs /><polyline fill="none" points="163.0,115.0 183.0,125.0" stroke="rgb(191,0,0)" stroke-width="0.25mm" /><defs /><polyline fill="none" points="47.0,125.0 183.0,125.0" stroke="rgb(191,0,0)" stroke-width="0.25mm" /><defs /></svg>