<?xml version="1.0" encoding="utf-8" ?>
<svg baseProfile="full" height="210.0" version="1.1" viewBox="0 0 210.0 210.0" width="210.0" xmlns="http://www.w3.org/2000/svg" xmlns:ev="http://www.w3.org/2001/xml-events" xmlns:xlink="http://www.w3.org/1999/xlink"><defs /><rect fill="url(#0)" height="200.0" rx="25.0" ry="25.0" stroke="rgb(200,200,200)" stroke-width="0.25mm" width="200.0" x="5.0" y="5.0" /><defs><linearGradient id="0" x1="0%" x2="0%" y1="0%" y2="100%"><stop offset="0" stop-color="rgb(200, 200, 200)" stop-opacity="1" /><stop offset="0.3" stop-color="rgb(248, 248, 248)" stop-opacity="1" /><stop offset="0.7" stop-color="rgb(248, 248, 248)" stop-opacity="1" /><stop offset="1" stop-color="rgb(200, 200, 200)" stop-opacity="1" /></linearGradient></defs><rect fill="none" height="200.0" rx="25.0" ry="25.0" stroke="rgb(128,128,128)" stroke-width="0.25mm" width="200.0" x="5.0" y="5.0" /><defs /><path d="M 33.0 167.0 C 34.75 167.0 36.5 167.0 38.25 167.0 38.25 167.0 40.0 167.0 41.75 167.0 41.75 167.0 43.5 167.0 45.25 167.0 45.25 167.0 47.0 167.0 48.75 167.0 48.75 167.0 50.5 167.0 52.25 167.0 52.25 167.0 54.0 167.0 55.75 167.0 55.75 167.0 57.5 167.0 59.25 167.0 59.25 167.0 61.0 167.0 62.75 167.0 62.75 167.0 64.5 167.0 66.25 167.0 66.25 167.0 68.0 167.0 69.75 167.0 69.75 167.0 71.5 167.0 73.25 167.0 73.25 167.0 75.0 167.0 76.75 167.0 76.75 167.0 78.5 167.0 80.25 167.0 80.25 167.0 82.0 167.0 83.75 167.0 83.75 167.0 85.5 167.0 87.25 167.0 87.25 167.0 89.0 167.0 90.75 167.0 90.75 167.0 92.5 167.0 94.25 167.0 94.25 167.0 96.0 167.0 97.75 167.0 97.75 167.0 99.5 167.0 101.25 167.0 101.25 167.0 103.0 167.0 104.75 115.4288 104.75 115.4288 106.5 63.8576 108.25 49.8459 108.25 49.8459 110.0 35.8342 111.75 31.4171 111.75 31.4171 113.5 27.0 115.25 28.32075 115.25 28.32075 117.0 29.6415 118.75 34.4885 118.75 34.4885 120.5 39.3355 122.25 46.16365 122.25 46.16365 124.0 52.9918 125.75 60.68805 125.75 60.68805 127.5 68.3843 129.25 76.16925 129.25 76.16925 131.0 83.9542 132.75 91.31515 132.75 91.31515 134.5 98.6761 136.25 105.30925 136.25 105.30925 138.0 111.9424 139.75 117.701 139.75 117.701 141.5 123.4596 143.25 128.30875 143.25 128.30875 145.0 133.1579 146.75 137.1366 146.75 137.1366 148.5 141.1153 148.5 141.1153" fill="none" stroke="rgb(0,0,0)" stroke-width="0.25mm" /><defs /><polyline fill="none" points="148.5,141.0 148.5,168.0" stroke="rgb(0,0,0)" stroke-width="0.25mm" /><defs /><polyline fill="none" points="148.5,168.0 184.5,168.0" stroke="rgb(0,0,0)" stroke-width="0.25mm" /><defs /></svg>