<?xml version="1.0" encoding="utf-8" ?>
<svg baseProfile="full" height="260.0" version="1.1" viewBox="0 0 310.0 260.0" width="310.0" xmlns="http://www.w3.org/2000/svg" xmlns:ev="http://www.w3.org/2001/xml-events" xmlns:xlink="http://www.w3.org/1999/xlink"><defs /><rect fill="rgb(255,255,255)" height="200.0" stroke="rgb(0,0,127)" stroke-width="0.25mm" width="200.0" x="55.0" y="55.0" /><defs /><text alignment-baseline="middle" fill="rgb(0,0,255)" font-family="Verdana" font-size="18" text-anchor="middle" x="155.0" y="25.0">name</text><defs /><polygon fill="rgb(192,192,192)" points="75.0,65.0 67.0,87.0 83.0,87.0 75.0,65.0" stroke="rgb(192,192,192)" stroke-width="0.25mm" /><defs /><polyline fill="none" points="75.0,235.0 75.0,87.0" stroke="rgb(192,192,192)" stroke-width="0.25mm" /><defs /><polyline fill="none" points="65.0,155.0 223.0,155.0" stroke="rgb(192,192,192)" stroke-width="0.25mm" /><defs /><polygon fill="rgb(192,192,192)" points="245.0,155.0 223.0,147.0 223.0,163.0 245.0,155.0" stroke="rgb(192,192,192)" stroke-width="0.25mm" /><defs /><path d="M 75.0 75.0 C 77.8 75.95 80.6 76.9 83.45 79.8 83.45 79.8 86.3 82.7 89.1 87.35 89.1 87.35 91.9 92.0 95.1 99.15 95.1 99.15 98.3 106.3 102.35 117.35 102.35 117.35 106.4 128.4 116.05 157.95 116.05 157.95 125.7 187.5 129.3 197.1 129.3 197.1 132.9 206.7 136.1 213.5 136.1 213.5 139.3 220.3 142.1 224.55 142.1 224.55 144.9 228.8 147.74 231.3 147.74 231.3 150.58 233.8 153.395 234.35 153.395 234.35 156.21 234.9 159.02 233.5 159.02 233.5 161.83 232.1 164.665 228.85 164.665 228.85 167.5 225.6 170.3 220.6 170.3 220.6 173.1 215.6 176.3 208.15 176.3 208.15 179.5 200.7 183.55 189.35 183.55 189.35 187.6 178.0 196.45 150.85 196.45 150.85 205.3 123.7 208.9 114.0 208.9 114.0 212.5 104.3 215.7 97.35 215.7 97.35 218.9 90.4 221.7 86.0 221.7 86.0 224.5 81.6 227.35 79.0 227.35 79.0 230.2 76.4 232.6 75.7 232.6 75.7 235.0 75.0 235.0 75.0" fill="none" stroke="rgb(0,0,0)" stroke-width="0.25mm" /><defs /><text alignment-baseline="middle" fill="rgb(192,192,192)" font-family="Verdana" font-size="18" text-anchor="middle" x="155.0" y="97.0">cos</text><defs /><g id="u"><polygon fill="rgb(0,0,127)" points="15.0,135.0 55.0,155.0 15.0,175.0" stroke="rgb(0,0,127)" stroke-width="0.25mm" /><defs /><g display="none" id="info"><text id="name">u</text><text id="type">Modelica.Blocks.Interfaces.RealInput</text><text id="classDesc">'input Real' as connector</text><text id="desc">Connector of Real input signal</text></g></g><g id="y"><polygon fill="rgb(255,255,255)" points="15.0,135.0 55.0,155.0 15.0,175.0" stroke="rgb(0,0,127)" stroke-width="0.25mm" /><defs /><g display="none" id="info"><text id="name">y</text><text id="type">Modelica.Blocks.Interfaces.RealOutput</text><text id="classDesc">'output Real' as connector</text><text id="desc">Connector of Real output signal</text></g></g></svg>