<?xml version="1.0" encoding="utf-8" ?>
<svg baseProfile="full" height="210.0" version="1.1" viewBox="0 0 210.0 210.0" width="210.0" xmlns="http://www.w3.org/2000/svg" xmlns:ev="http://www.w3.org/2001/xml-events" xmlns:xlink="http://www.w3.org/1999/xlink"><defs /><rect fill="url(#0)" height="200.0" rx="25.0" ry="25.0" stroke="rgb(200,200,200)" stroke-width="0.25mm" width="200.0" x="5.0" y="5.0" /><defs><linearGradient id="0" x1="0%" x2="0%" y1="0%" y2="100%"><stop offset="0" stop-color="rgb(200, 200, 200)" stop-opacity="1" /><stop offset="0.3" stop-color="rgb(248, 248, 248)" stop-opacity="1" /><stop offset="0.7" stop-color="rgb(248, 248, 248)" stop-opacity="1" /><stop offset="1" stop-color="rgb(200, 200, 200)" stop-opacity="1" /></linearGradient></defs><rect fill="none" height="200.0" rx="25.0" ry="25.0" stroke="rgb(128,128,128)" stroke-width="0.25mm" width="200.0" x="5.0" y="5.0" /><defs /><path d="M 143.7573 67.9967 C 143.7573 67.9967 143.7573 67.9967 125.1318 67.9967 125.1318 67.9967 106.5063 67.9967 88.2813 68.1897 88.2813 68.1897 70.0563 68.3827 65.4263 81.4132 65.4263 81.4132 60.7963 94.4437 60.7963 94.4437 60.7963 94.4437 60.7963 94.4437 62.1193 94.5102 62.1193 94.5102 63.4423 94.5767 63.4423 94.5767 63.4423 94.5767 63.4423 94.5767 68.5353 86.8707 68.5353 86.8707 73.6283 79.1647 90.3303 79.1317 90.3303 79.1317 107.0323 79.0987 125.5198 79.2642 125.5198 79.2642 144.0073 79.4297 144.0073 79.4297 144.0073 79.4297 144.0073 79.4297 144.0073 79.4297" fill="rgb(102,102,102)" /><defs /><path d="M 88.2467 76.0563 C 88.2797 76.0563 88.3127 76.0563 86.4607 93.3863 86.4607 93.3863 84.6087 110.7163 76.3402 122.0933 76.3402 122.0933 68.0717 133.4703 72.6357 137.7368 72.6357 137.7368 77.1997 142.0033 84.5092 138.9608 84.5092 138.9608 91.8187 135.9183 93.4062 106.0863 93.4062 106.0863 94.9937 76.2543 94.9937 76.2543 94.9937 76.2543 94.9937 76.2543 94.9937 76.2543" fill="rgb(102,102,102)" /><defs /><path d="M 117.88 75.0642 C 117.88 75.0642 117.88 75.0642 116.2925 97.8842 116.2925 97.8842 114.705 120.7042 117.053 131.0232 117.053 131.0232 119.401 141.3422 128.033 141.1767 128.033 141.1767 136.665 141.0112 140.8325 128.6417 140.8325 128.6417 145.0 116.2722 145.0 116.2722 145.0 116.2722 145.0 116.2722 143.5445 116.3717 143.5445 116.3717 142.089 116.4712 142.089 116.4712 142.089 116.4712 142.089 116.4712 139.1785 121.4982 139.1785 121.4982 136.268 126.5252 130.9435 125.1692 130.9435 125.1692 125.619 123.8132 125.8505 99.5707 125.8505 99.5707 126.082 75.3282 126.082 75.3282 126.082 75.3282 126.082 75.3282 126.082 75.3282" fill="rgb(102,102,102)" /><defs /></svg>