<?xml version="1.0" encoding="utf-8" ?>
<svg baseProfile="full" height="260.0" version="1.1" viewBox="0 0 310.0 260.0" width="310.0" xmlns="http://www.w3.org/2000/svg" xmlns:ev="http://www.w3.org/2001/xml-events" xmlns:xlink="http://www.w3.org/1999/xlink"><defs /><rect fill="rgb(255,255,255)" height="200.0" stroke="rgb(0,0,127)" stroke-width="0.25mm" width="200.0" x="55.0" y="55.0" /><defs /><text alignment-baseline="middle" fill="rgb(0,0,255)" font-family="Verdana" font-size="18" text-anchor="middle" x="155.0" y="25.0">name</text><defs /><text alignment-baseline="middle" fill="rgb(0,0,255)" font-family="Verdana" font-size="18" text-anchor="middle" x="155.0" y="25.0">name</text><defs /><polygon fill="rgb(192,192,192)" points="155.0,65.0 147.0,87.0 163.0,87.0 155.0,65.0" stroke="rgb(192,192,192)" stroke-width="0.25mm" /><defs /><polyline fill="none" points="155.0,235.0 155.0,87.0" stroke="rgb(192,192,192)" stroke-width="0.25mm" /><defs /><polyline fill="none" points="65.0,155.0 223.0,155.0" stroke="rgb(192,192,192)" stroke-width="0.25mm" /><defs /><polygon fill="rgb(192,192,192)" points="245.0,155.0 223.0,147.0 223.0,163.0 245.0,155.0" stroke="rgb(192,192,192)" stroke-width="0.25mm" /><defs /><path d="M 75.0 189.9 C 91.95 188.15 108.9 186.4 117.25 184.25 117.25 184.25 125.6 182.1 131.15 179.3 131.15 179.3 136.7 176.5 140.7 173.0 140.7 173.0 144.7 169.5 148.835 163.835 148.835 163.835 152.97 158.17 157.97 150.785 157.97 150.785 162.97 143.4 166.735 139.5 166.735 139.5 170.5 135.6 174.9 132.8 174.9 132.8 179.3 130.0 186.65 127.5 186.65 127.5 194.0 125.0 205.55 123.25 205.55 123.25 217.1 121.5 226.05 120.8 226.05 120.8 235.0 120.1 235.0 120.1" fill="none" stroke="rgb(0,0,0)" stroke-width="0.25mm" /><defs /><path d="M 75.0 109.9 C 92.05 108.1 109.1 106.3 117.5 104.2 117.5 104.2 125.9 102.1 131.4 99.25 131.4 99.25 136.9 96.4 140.85 92.8 140.85 92.8 144.8 89.2 148.99 83.5 148.99 83.5 153.18 77.8 154.09 76.4 154.09 76.4 155.0 75.0 155.0 75.0" fill="none" stroke="rgb(0,0,0)" stroke-width="0.25mm" /><defs /><path d="M 155.0 235.0 C 159.465 228.6 163.93 222.2 168.015 218.25 168.015 218.25 172.1 214.3 177.2 211.45 177.2 211.45 182.3 208.6 189.7 206.5 189.7 206.5 197.1 204.4 211.0 202.6 211.0 202.6 224.9 200.8 229.95 200.45 229.95 200.45 235.0 200.1 235.0 200.1" fill="none" stroke="rgb(0,0,0)" stroke-width="0.25mm" /><defs /><text alignment-baseline="middle" fill="rgb(192,192,192)" font-family="Verdana" font-size="18" text-anchor="middle" x="101.0" y="225.0">atan2</text><defs /><g id="u1"><polygon fill="rgb(0,0,127)" points="15.0,75.0 55.0,95.0 15.0,115.0" stroke="rgb(0,0,127)" stroke-width="0.25mm" /><defs /><g display="none" id="info"><text id="name">u1</text><text id="type">Modelica.Blocks.Interfaces.RealInput</text><text id="classDesc">'input Real' as connector</text><text id="desc">Connector of Real input signal 1</text></g></g><g id="u2"><polygon fill="rgb(0,0,127)" points="15.0,195.0 55.0,215.0 15.0,235.0" stroke="rgb(0,0,127)" stroke-width="0.25mm" /><defs /><g display="none" id="info"><text id="name">u2</text><text id="type">Modelica.Blocks.Interfaces.RealInput</text><text id="classDesc">'input Real' as connector</text><text id="desc">Connector of Real input signal 2</text></g></g><g id="y"><polygon fill="rgb(255,255,255)" points="255.0,145.0 275.0,155.0 255.0,165.0" stroke="rgb(0,0,127)" stroke-width="0.25mm" /><defs /><g display="none" id="info"><text id="name">y</text><text id="type">Modelica.Blocks.Interfaces.RealOutput</text><text id="classDesc">'output Real' as connector</text><text id="desc">Connector of Real output signal</text></g></g></svg>