<?xml version="1.0" encoding="utf-8" ?>
<svg baseProfile="full" height="280.0" version="1.1" viewBox="0 0 310.0 280.0" width="310.0" xmlns="http://www.w3.org/2000/svg" xmlns:ev="http://www.w3.org/2001/xml-events" xmlns:xlink="http://www.w3.org/1999/xlink"><defs /><rect fill="none" height="204.0" stroke="rgb(255,0,0)" stroke-dasharray="8.0 4.0" stroke-width="0.5mm" width="204.0" x="53.0" y="13.0" /><defs /><rect fill="rgb(192,192,192)" height="40.0" stroke="rgb(192,192,192)" stroke-width="0.25mm" width="40.0" x="135.0" y="195.0" /><defs /><rect fill="url(#0)" height="120.0" stroke="rgb(0,0,0)" stroke-width="0.25mm" width="80.0" x="115.0" y="55.0" /><defs><linearGradient id="0" x1="0%" x2="0%" y1="0%" y2="100%"><stop offset="0" stop-color="rgb(0, 0, 0)" stop-opacity="1" /><stop offset="0.3" stop-color="rgb(192, 192, 192)" stop-opacity="1" /><stop offset="0.7" stop-color="rgb(192, 192, 192)" stop-opacity="1" /><stop offset="1" stop-color="rgb(0, 0, 0)" stop-opacity="1" /></linearGradient></defs><polygon fill="rgb(0,0,0)" points="95.0,195.0 109.0,195.0 135.0,135.0 175.0,135.0 201.0,195.0 215.0,195.0 215.0,205.0 95.0,205.0 95.0,195.0" stroke="rgb(0,0,0)" stroke-width="0.25mm" /><defs /><rect fill="url(#1)" height="20.0" stroke="rgb(0,0,0)" stroke-width="0.25mm" width="40.0" x="55.0" y="105.0" /><defs><linearGradient id="1" x1="0%" x2="0%" y1="0%" y2="100%"><stop offset="0" stop-color="rgb(0, 0, 0)" stop-opacity="1" /><stop offset="0.3" stop-color="rgb(192, 192, 192)" stop-opacity="1" /><stop offset="0.7" stop-color="rgb(192, 192, 192)" stop-opacity="1" /><stop offset="1" stop-color="rgb(0, 0, 0)" stop-opacity="1" /></linearGradient></defs><rect fill="url(#2)" height="20.0" stroke="rgb(0,0,0)" stroke-width="0.25mm" width="40.0" x="215.0" y="105.0" /><defs><linearGradient id="2" x1="0%" x2="0%" y1="0%" y2="100%"><stop offset="0" stop-color="rgb(0, 0, 0)" stop-opacity="1" /><stop offset="0.3" stop-color="rgb(192, 192, 192)" stop-opacity="1" /><stop offset="0.7" stop-color="rgb(192, 192, 192)" stop-opacity="1" /><stop offset="1" stop-color="rgb(0, 0, 0)" stop-opacity="1" /></linearGradient></defs><polygon fill="url(#3)" points="95.0,105.0 95.0,95.0 115.0,75.0 115.0,155.0 95.0,135.0 95.0,105.0" stroke="rgb(0,0,0)" stroke-width="0.25mm" /><defs><linearGradient id="3" x1="0%" x2="0%" y1="0%" y2="100%"><stop offset="0" stop-color="rgb(0, 0, 0)" stop-opacity="1" /><stop offset="0.3" stop-color="rgb(128, 128, 128)" stop-opacity="1" /><stop offset="0.7" stop-color="rgb(128, 128, 128)" stop-opacity="1" /><stop offset="1" stop-color="rgb(0, 0, 0)" stop-opacity="1" /></linearGradient></defs><polygon fill="rgb(128,128,128)" points="215.0,95.0 195.0,75.0 195.0,155.0 215.0,135.0 215.0,95.0" stroke="rgb(128,128,128)" stroke-width="0.25mm" /><defs /><text alignment-baseline="middle" fill="rgb(0,0,255)" font-family="Verdana" font-size="18" text-anchor="middle" x="155.0" y="25.0">name=ratio</text><defs /><text alignment-baseline="middle" fill="rgb(0,0,0)" font-family="Verdana" font-size="18" text-anchor="middle" x="155.0" y="255.0">c=c</text><defs /></svg>