<?xml version="1.0" encoding="utf-8" ?>
<svg baseProfile="full" height="280.0" version="1.1" viewBox="0 0 230.0 280.0" width="230.0" xmlns="http://www.w3.org/2000/svg" xmlns:ev="http://www.w3.org/2001/xml-events" xmlns:xlink="http://www.w3.org/1999/xlink"><defs /><ellipse cx="114.0" cy="135.0" fill="rgb(255,255,255)" rx="59.0" ry="30.0" stroke="rgb(0,0,255)" stroke-width="0.25mm" /><defs /><ellipse cx="116.0" cy="195.0" fill="rgb(255,255,255)" rx="59.0" ry="30.0" stroke="rgb(0,0,255)" stroke-width="0.25mm" /><defs /><rect fill="rgb(255,255,255)" height="120.0" width="60.0" x="55.0" y="105.0" /><defs /><polyline fill="none" points="215.0,265.0 209.0,265.0 199.0,263.0 191.0,259.0 179.0,251.0 165.0,237.0 157.0,223.0 151.0,205.0 145.0,183.0 145.0,165.0 145.0,147.0 149.0,129.0 161.0,99.0 177.0,81.0 193.0,69.0 205.0,65.0 215.0,65.0" stroke="rgb(255,128,0)" stroke-width="0.25mm" /><defs /><polyline fill="none" points="115.0,105.0 15.0,105.0 15.0,65.0" stroke="rgb(0,0,255)" stroke-width="0.25mm" /><defs /><polyline fill="none" points="115.0,225.0 15.0,225.0 15.0,263.0" stroke="rgb(0,0,255)" stroke-width="0.25mm" /><defs /><text alignment-baseline="middle" fill="rgb(255,128,0)" font-family="Verdana" font-size="18" text-anchor="middle" x="115.0" y="25.0">name</text><defs /><g id="plug_p"><ellipse cx="15.0" cy="65.0" fill="rgb(0,0,255)" rx="9.99907342118" ry="10.000926493" stroke="rgb(0,0,255)" stroke-width="0.25mm" /><defs /><g display="none" id="info"><text id="name">plug_p</text><text id="type">Modelica.Electrical.MultiPhase.Interfaces.PositivePlug</text><text id="classDesc">Positive plug with m pins</text><text id="desc">Positive plug</text></g></g><g id="plug_n"><ellipse cx="15.0" cy="265.0" fill="rgb(255,255,255)" rx="9.99907342118" ry="10.000926493" stroke="rgb(0,0,255)" stroke-width="0.25mm" /><defs /><g display="none" id="info"><text id="name">plug_n</text><text id="type">Modelica.Electrical.MultiPhase.Interfaces.NegativePlug</text><text id="classDesc">Negative plug with m pins</text><text id="desc">Negative plug</text></g></g><g id="port_p"><ellipse cx="215.0" cy="65.0" fill="rgb(255,128,0)" rx="10.0" ry="10.0" stroke="rgb(255,128,0)" stroke-width="0.25mm" /><defs /><g display="none" id="info"><text id="name">port_p</text><text id="type">Modelica.Magnetic.FundamentalWave.Interfaces.PositiveMagneticPort</text><text id="classDesc">Positive complex magnetic port</text><text id="desc">Positive complex magnetic port</text></g></g><g id="port_n"><ellipse cx="215.0" cy="265.0" fill="rgb(255,255,255)" rx="10.0" ry="10.0" stroke="rgb(255,128,0)" stroke-width="0.25mm" /><defs /><g display="none" id="info"><text id="name">port_n</text><text id="type">Modelica.Magnetic.FundamentalWave.Interfaces.NegativeMagneticPort</text><text id="classDesc">Negative complex magnetic port</text><text id="desc">Negative complex magnetic port</text></g></g></svg>