<?xml version="1.0" encoding="utf-8" ?>
<svg baseProfile="full" height="260.0" version="1.1" viewBox="0 0 310.0 260.0" width="310.0" xmlns="http://www.w3.org/2000/svg" xmlns:ev="http://www.w3.org/2001/xml-events" xmlns:xlink="http://www.w3.org/1999/xlink"><defs /><ellipse cx="155.0" cy="155.0" fill="rgb(255,255,255)" rx="100.0" ry="100.0" stroke="rgb(0,0,127)" stroke-width="0.25mm" /><defs /><text alignment-baseline="middle" fill="rgb(0,0,255)" font-family="Verdana" font-size="18" text-anchor="middle" x="155.0" y="25.0">name</text><defs /><polyline fill="none" points="82.0,170.0 96.0,170.0 96.0,154.0 104.0,154.0 104.0,202.0 112.0,202.0 112.0,180.0 120.0,180.0 120.0,96.0 128.0,96.0 128.0,128.0 128.0,128.0 128.0,188.0 138.0,188.0 138.0,170.0 148.0,170.0 148.0,198.0 158.0,198.0 158.0,116.0 164.0,116.0 164.0,102.0 170.0,102.0 170.0,158.0 180.0,158.0 180.0,146.0 186.0,146.0 186.0,176.0 196.0,176.0 196.0,104.0 206.0,104.0 206.0,138.0 214.0,138.0 214.0,204.0 224.0,204.0" stroke="rgb(215,215,215)" stroke-width="0.25mm" /><defs /><text alignment-baseline="middle" fill="rgb(255,255,255)" font-family="Verdana" font-size="18" text-anchor="middle" x="154.0" y="172.0">fixedSeed</text><defs /><polyline fill="none" points="75.0,159.0 239.0,159.0" stroke="rgb(215,215,215)" stroke-width="0.25mm" /><defs /><text alignment-baseline="middle" fill="rgb(255,255,255)" font-family="Verdana" font-size="18" text-anchor="middle" x="160.0" y="134.0">fixedSeed =</text><defs /></svg>