<?xml version="1.0" encoding="utf-8" ?>
<svg baseProfile="full" height="260.0" version="1.1" viewBox="0 0 310.0 260.0" width="310.0" xmlns="http://www.w3.org/2000/svg" xmlns:ev="http://www.w3.org/2001/xml-events" xmlns:xlink="http://www.w3.org/1999/xlink"><defs /><rect fill="rgb(255,255,255)" height="200.0" stroke="rgb(0,0,127)" stroke-width="0.25mm" width="200.0" x="55.0" y="55.0" /><defs /><text alignment-baseline="middle" fill="rgb(0,0,255)" font-family="Verdana" font-size="18" text-anchor="middle" x="155.0" y="25.0">name</text><defs /><polygon fill="rgb(192,192,192)" points="155.0,65.0 147.0,87.0 163.0,87.0 155.0,65.0" stroke="rgb(192,192,192)" stroke-width="0.25mm" /><defs /><polyline fill="none" points="155.0,235.0 155.0,87.0" stroke="rgb(192,192,192)" stroke-width="0.25mm" /><defs /><text alignment-baseline="middle" fill="rgb(192,192,192)" font-family="Verdana" font-size="18" text-anchor="middle" x="190.0" y="112.0">cosh</text><defs /><path d="M 75.0 75.0 C 76.2 84.45 77.4 93.9 79.0 104.8 79.0 104.8 80.6 115.7 82.2 125.0 82.2 125.0 83.8 134.3 85.85 144.005 85.85 144.005 87.9 153.71 89.9 161.655 89.9 161.655 91.9 169.6 94.3 177.2 94.3 177.2 96.7 184.8 99.5 191.65 99.5 191.65 102.3 198.5 105.55 204.3 105.55 204.3 108.8 210.1 112.4 214.7 112.4 214.7 116.0 219.3 120.4 223.0 120.4 223.0 124.8 226.7 130.45 229.4 130.45 229.4 136.1 232.1 143.34 233.5 143.34 233.5 150.58 234.9 158.24 234.5 158.24 234.5 165.9 234.1 172.3 232.15 172.3 232.15 178.7 230.2 183.95 226.95 183.95 226.95 189.2 223.7 193.2 219.65 193.2 219.65 197.2 215.6 200.4 210.9 200.4 210.9 203.6 206.2 206.45 200.6 206.45 200.6 209.3 195.0 211.7 188.75 211.7 188.75 214.1 182.5 216.1 176.05 216.1 176.05 218.1 169.6 220.1 161.655 220.1 161.655 222.1 153.71 224.15 144.005 224.15 144.005 226.2 134.3 227.8 125.0 227.8 125.0 229.4 115.7 231.0 104.8 231.0 104.8 232.6 93.9 233.8 84.45 233.8 84.45 235.0 75.0 235.0 75.0" fill="none" stroke="rgb(0,0,0)" stroke-width="0.25mm" /><defs /><polyline fill="none" points="65.0,241.083 223.0,241.083" stroke="rgb(192,192,192)" stroke-width="0.25mm" /><defs /><polygon fill="rgb(192,192,192)" points="245.0,241.083 223.0,233.083 223.0,249.083 245.0,241.083" stroke="rgb(192,192,192)" stroke-width="0.25mm" /><defs /><g id="u"><polygon fill="rgb(0,0,127)" points="15.0,135.0 55.0,155.0 15.0,175.0" stroke="rgb(0,0,127)" stroke-width="0.25mm" /><defs /><g display="none" id="info"><text id="name">u</text><text id="type">Modelica.Blocks.Interfaces.RealInput</text><text id="classDesc">'input Real' as connector</text><text id="desc">Connector of Real input signal</text></g></g><g id="y"><polygon fill="rgb(255,255,255)" points="15.0,135.0 55.0,155.0 15.0,175.0" stroke="rgb(0,0,127)" stroke-width="0.25mm" /><defs /><g display="none" id="info"><text id="name">y</text><text id="type">Modelica.Blocks.Interfaces.RealOutput</text><text id="classDesc">'output Real' as connector</text><text id="desc">Connector of Real output signal</text></g></g></svg>