<?xml version="1.0" encoding="utf-8" ?>
<svg baseProfile="full" height="241.0" version="1.1" viewBox="0 0 310.0 241.0" width="310.0" xmlns="http://www.w3.org/2000/svg" xmlns:ev="http://www.w3.org/2001/xml-events" xmlns:xlink="http://www.w3.org/1999/xlink"><defs /><text alignment-baseline="middle" fill="rgb(128,128,128)" font-family="Verdana" font-size="18" text-anchor="middle" x="267.0" y="153.5">b</text><defs /><text alignment-baseline="middle" fill="rgb(192,192,192)" font-family="Verdana" font-size="18" text-anchor="middle" x="145.5" y="83.5">resolve</text><defs /><text alignment-baseline="middle" fill="rgb(0,0,255)" font-family="Verdana" font-size="18" text-anchor="middle" x="155.0" y="216.0">name</text><defs /><polyline fill="none" points="55.0,61.0 69.0,53.0 75.0,49.0 85.0,43.0 91.0,39.0 109.0,35.0 121.0,33.0 139.0,33.0 153.0,35.0 167.0,41.0 179.0,47.0 189.0,53.0 201.0,63.0 207.0,67.0 213.0,73.0" stroke="rgb(0,0,0)" stroke-width="0.5mm" /><defs /><polygon fill="rgb(0,0,0)" points="244.0,104.0 219.0,45.0 185.0,80.0 244.0,104.0" stroke="rgb(0,0,0)" stroke-width="0.25mm" /><defs /><polyline fill="none" points="155.0,26.0 155.0,147.0" stroke="rgb(95,95,95)" stroke-dasharray="1.0 2.0" stroke-width="0.25mm" /><defs /><polyline fill="none" points="155.0,121.0 251.0,121.0" stroke="rgb(95,95,95)" stroke-dasharray="1.0 2.0" stroke-width="0.25mm" /><defs /><polygon fill="rgb(0,0,0)" points="51.0,169.0 209.0,121.0 201.0,101.0 251.0,121.0 221.0,163.0 215.0,143.0 59.0,193.0 51.0,169.0" stroke="rgb(0,0,0)" stroke-width="0.25mm" /><defs /><g id="frame_b"><rect fill="none" height="3.2" stroke="rgb(95,95,95)" stroke-width="0.5mm" width="3.2" x="253.4" y="119.4" /><defs /><rect fill="rgb(255,255,255)" height="32.0" stroke="rgb(0,0,0)" stroke-width="0.25mm" width="9.6" x="250.2" y="105.0" /><defs /><g display="none" id="info"><text id="name">frame_b</text><text id="type">Modelica.Mechanics.MultiBody.Interfaces.Frame_b</text><text id="classDesc">Coordinate system fixed to the component with one cut-force and cut-torque (non-filled rectangular icon)</text><text id="desc">Coordinate system fixed to the component with one cut-force and cut-torque</text></g></g><g id="frame_resolve"><rect fill="none" height="3.20044470632" stroke="rgb(95,95,95)" stroke-dasharray="1.0 2.0" stroke-width="0.25mm" width="3.19955523187" x="153.400222384" y="19.3997776468" /><defs /><rect fill="rgb(255,255,255)" height="9.60444727958" stroke="rgb(95,95,95)" stroke-dasharray="1.0 2.0" stroke-width="0.25mm" width="31.9986654793" x="139.00066726" y="16.1977763602" /><defs /><g display="none" id="info"><text id="name">frame_resolve</text><text id="type">Modelica.Mechanics.MultiBody.Interfaces.Frame_resolve</text><text id="classDesc">Coordinate system fixed to the component used to express in which
coordinate system a vector is resolved (non-filled rectangular icon)</text><text id="desc">The input signals are optionally resolved in this frame</text></g></g><g id="force"><polygon fill="rgb(0,0,127)" points="15.0,161.0 55.0,181.0 15.0,201.0" stroke="rgb(0,0,127)" stroke-width="0.25mm" /><defs /><g display="none" id="info"><text id="name">force</text><text id="type">Modelica.Blocks.Interfaces.RealInput</text><text id="classDesc">'input Real' as connector</text><text id="desc" /></g></g><g id="torque"><polygon fill="rgb(0,0,127)" points="15.0,41.0 55.0,61.0 15.0,81.0" stroke="rgb(0,0,127)" stroke-width="0.25mm" /><defs /><g display="none" id="info"><text id="name">torque</text><text id="type">Modelica.Blocks.Interfaces.RealInput</text><text id="classDesc">'input Real' as connector</text><text id="desc" /></g></g></svg>