<?xml version="1.0" encoding="utf-8" ?>
<svg baseProfile="full" height="270.0" version="1.1" viewBox="0 0 250.0 270.0" width="250.0" xmlns="http://www.w3.org/2000/svg" xmlns:ev="http://www.w3.org/2001/xml-events" xmlns:xlink="http://www.w3.org/1999/xlink"><defs /><ellipse cx="144.0" cy="135.0" fill="rgb(255,255,255)" rx="59.0" ry="30.0" stroke="rgb(85,170,255)" stroke-width="0.25mm" /><defs /><ellipse cx="146.0" cy="195.0" fill="rgb(255,255,255)" rx="59.0" ry="30.0" stroke="rgb(85,170,255)" stroke-width="0.25mm" /><defs /><rect fill="rgb(255,255,255)" height="120.0" width="60.0" x="85.0" y="105.0" /><defs /><polyline fill="none" points="245.0,265.0 239.0,265.0 229.0,263.0 221.0,259.0 209.0,251.0 195.0,237.0 187.0,223.0 181.0,205.0 175.0,183.0 175.0,165.0 175.0,147.0 179.0,129.0 191.0,99.0 207.0,81.0 223.0,69.0 235.0,65.0 245.0,65.0" stroke="rgb(255,170,85)" stroke-width="0.25mm" /><defs /><polyline fill="none" points="145.0,105.0 45.0,105.0 45.0,65.0" stroke="rgb(85,170,255)" stroke-width="0.25mm" /><defs /><polyline fill="none" points="145.0,225.0 45.0,225.0 45.0,263.0" stroke="rgb(85,170,255)" stroke-width="0.25mm" /><defs /><text alignment-baseline="middle" fill="rgb(255,128,0)" font-family="Verdana" font-size="18" text-anchor="middle" x="145.0" y="25.0">name</text><defs /><g id="plug_p"><ellipse cx="25.0" cy="165.0" fill="rgb(85,170,255)" rx="20.0" ry="20.0" stroke="rgb(85,170,255)" stroke-width="0.25mm" /><defs /><g display="none" id="info"><text id="name">plug_p</text><text id="type">Modelica.Electrical.QuasiStationary.MultiPhase.Interfaces.PositivePlug</text><text id="classDesc">Positive multiphase connector</text><text id="desc">Positive plug</text></g></g><g id="plug_n"><ellipse cx="25.0" cy="165.0" fill="rgb(255,255,255)" rx="20.0" ry="20.0" stroke="rgb(85,170,255)" stroke-width="0.25mm" /><defs /><g display="none" id="info"><text id="name">plug_n</text><text id="type">Modelica.Electrical.QuasiStationary.MultiPhase.Interfaces.NegativePlug</text><text id="classDesc">Negative multiphase connector</text><text id="desc">Negative plug</text></g></g><g id="port_p"><ellipse cx="25.0" cy="165.0" fill="rgb(255,170,85)" rx="20.0" ry="20.0" stroke="rgb(255,170,85)" stroke-width="0.25mm" /><defs /><g display="none" id="info"><text id="name">port_p</text><text id="type">Modelica.Magnetic.QuasiStatic.FundamentalWave.Interfaces.PositiveMagneticPort</text><text id="classDesc">Positive quasi static magnetic port</text><text id="desc">Positive complex magnetic port</text></g></g><g id="port_n"><ellipse cx="25.0" cy="165.0" fill="rgb(255,255,255)" rx="20.0" ry="20.0" stroke="rgb(255,170,85)" stroke-width="0.25mm" /><defs /><g display="none" id="info"><text id="name">port_n</text><text id="type">Modelica.Magnetic.QuasiStatic.FundamentalWave.Interfaces.NegativeMagneticPort</text><text id="classDesc">Negative quasi static magnetic port</text><text id="desc">Negative complex magnetic port</text></g></g></svg>