<?xml version="1.0" encoding="utf-8" ?>
<svg baseProfile="full" height="210" version="1.1" viewBox="0 0 250.0 210" width="250.0" xmlns="http://www.w3.org/2000/svg" xmlns:ev="http://www.w3.org/2001/xml-events" xmlns:xlink="http://www.w3.org/1999/xlink"><defs /><polyline fill="none" points="55.0,105.0 95.0,105.0" stroke="rgb(0,0,255)" stroke-width="0.25mm" /><defs /><polyline fill="none" points="195.0,105.0 235.0,105.0" stroke="rgb(0,0,255)" stroke-width="0.25mm" /><defs /><ellipse cx="145.0" cy="105.0" fill="rgb(255,255,255)" rx="50.0" ry="50.0" stroke="rgb(0,0,255)" stroke-width="0.25mm" /><defs /><polyline fill="none" points="145.0,55.0 145.0,155.0" stroke="rgb(0,0,255)" stroke-width="0.25mm" /><defs /><text alignment-baseline="middle" fill="rgb(0,0,255)" font-family="Verdana" font-size="18" text-anchor="middle" x="145.0" y="185.0">name</text><defs /><text alignment-baseline="middle" fill="rgb(0,0,0)" font-family="Verdana" font-size="18" text-anchor="middle" x="145.0" y="25.0">m=m</text><defs /><polygon fill="rgb(0,0,255)" points="235.0,105.0 205.0,95.0 205.0,115.0 235.0,105.0" stroke="rgb(0,0,255)" stroke-width="0.25mm" /><defs /><path d="M 74.0 35.0 C 75.3 35.1 76.6 35.2 79.05 36.6 79.05 36.6 81.5 38.0 83.95 41.0 83.95 41.0 86.4 44.0 88.9 48.5 88.9 48.5 91.4 53.0 94.2 59.7 94.2 59.7 97.0 66.4 100.51 76.4 100.51 76.4 104.02 86.4 111.405 109.15 111.405 109.15 118.79 131.9 121.945 140.45 121.945 140.45 125.1 149.0 127.95 155.1 127.95 155.1 130.8 161.2 133.25 165.1 133.25 165.1 135.7 169.0 138.15 171.3 138.15 171.3 140.6 173.6 143.05 174.3 143.05 174.3 145.5 175.0 148.0 173.95 148.0 173.95 150.5 172.9 152.95 170.2 152.95 170.2 155.4 167.5 157.85 163.3 157.85 163.3 160.3 159.1 163.1 152.7 163.1 152.7 165.9 146.3 169.45 136.5 169.45 136.5 173.0 126.7 176.5 115.85 176.5 115.85 180.0 105.0 180.0 105.0" fill="none" stroke="rgb(192,192,192)" stroke-width="0.25mm" /><defs /><polyline fill="none" points="180.0,105.0 189.8,75.1 196.2,58.5 201.8,46.9 206.7,39.8 211.7,35.8 216.6,35.2" stroke="rgb(192,192,192)" stroke-width="0.25mm" /><defs /><g id="plug_p"><ellipse cx="25.0" cy="105.0" fill="rgb(0,0,255)" rx="20.0" ry="20.0" stroke="rgb(0,0,255)" stroke-width="0.25mm" /><defs /><g display="none" id="info"><text id="name">plug_p</text><text id="type">Modelica.Electrical.MultiPhase.Interfaces.PositivePlug</text><text id="classDesc">Positive plug with m pins</text><text id="desc" /></g></g><g id="plug_n"><ellipse cx="25.0" cy="105.0" fill="rgb(255,255,255)" rx="20.0" ry="20.0" stroke="rgb(0,0,255)" stroke-width="0.25mm" /><defs /><g display="none" id="info"><text id="name">plug_n</text><text id="type">Modelica.Electrical.MultiPhase.Interfaces.NegativePlug</text><text id="classDesc">Negative plug with m pins</text><text id="desc" /></g></g></svg>