<?xml version="1.0" encoding="utf-8" ?>
<svg baseProfile="full" height="370.0" version="1.1" viewBox="0 0 310.0 370.0" width="310.0" xmlns="http://www.w3.org/2000/svg" xmlns:ev="http://www.w3.org/2001/xml-events" xmlns:xlink="http://www.w3.org/1999/xlink"><defs /><polyline fill="none" points="240.0,295.0 250.0,285.0" stroke="rgb(0,0,0)" stroke-width="0.25mm" /><defs /><polyline fill="none" points="250.0,295.0 260.0,285.0" stroke="rgb(0,0,0)" stroke-width="0.25mm" /><defs /><polyline fill="none" points="260.0,295.0 270.0,285.0" stroke="rgb(0,0,0)" stroke-width="0.25mm" /><defs /><polyline fill="none" points="240.0,285.0 270.0,285.0" stroke="rgb(0,0,0)" stroke-width="0.25mm" /><defs /><polyline fill="none" points="40.0,295.0 50.0,285.0" stroke="rgb(0,0,0)" stroke-width="0.25mm" /><defs /><polyline fill="none" points="50.0,295.0 60.0,285.0" stroke="rgb(0,0,0)" stroke-width="0.25mm" /><defs /><polyline fill="none" points="60.0,295.0 70.0,285.0" stroke="rgb(0,0,0)" stroke-width="0.25mm" /><defs /><polyline fill="none" points="40.0,285.0 70.0,285.0" stroke="rgb(0,0,0)" stroke-width="0.25mm" /><defs /><rect fill="url(#0)" height="20.0" stroke="rgb(64,64,64)" stroke-width="0.25mm" width="54.0" x="55.0" y="175.0" /><defs><linearGradient id="0" x1="0%" x2="0%" y1="0%" y2="100%"><stop offset="0" stop-color="rgb(64, 64, 64)" stop-opacity="1" /><stop offset="0.3" stop-color="rgb(192, 192, 192)" stop-opacity="1" /><stop offset="0.7" stop-color="rgb(192, 192, 192)" stop-opacity="1" /><stop offset="1" stop-color="rgb(64, 64, 64)" stop-opacity="1" /></linearGradient></defs><ellipse cx="135.0" cy="185.0" fill="url(#1)" rx="30.0" ry="80.0" stroke="rgb(64,64,64)" stroke-width="0.25mm" /><defs><linearGradient id="1" x1="0%" x2="0%" y1="0%" y2="100%"><stop offset="0" stop-color="rgb(64, 64, 64)" stop-opacity="1" /><stop offset="0.3" stop-color="rgb(255, 255, 255)" stop-opacity="1" /><stop offset="0.7" stop-color="rgb(255, 255, 255)" stop-opacity="1" /><stop offset="1" stop-color="rgb(64, 64, 64)" stop-opacity="1" /></linearGradient></defs><rect fill="url(#2)" height="160.0" width="32.0" x="135.0" y="105.0" /><defs><linearGradient id="2" x1="0%" x2="0%" y1="0%" y2="100%"><stop offset="0" stop-color="rgb(64, 64, 64)" stop-opacity="1" /><stop offset="0.3" stop-color="rgb(255, 255, 255)" stop-opacity="1" /><stop offset="0.7" stop-color="rgb(255, 255, 255)" stop-opacity="1" /><stop offset="1" stop-color="rgb(64, 64, 64)" stop-opacity="1" /></linearGradient></defs><ellipse cx="169.0" cy="185.0" fill="rgb(128,128,128)" rx="30.0" ry="80.0" stroke="rgb(64,64,64)" stroke-width="0.25mm" /><defs /><ellipse cx="171.0" cy="185.0" fill="rgb(192,192,192)" rx="18.0" ry="52.0" stroke="rgb(192,192,192)" stroke-width="0.25mm" /><defs /><ellipse cx="171.0" cy="185.0" fill="url(#3)" rx="4.0" ry="10.0" stroke="rgb(64,64,64)" stroke-width="0.25mm" /><defs><linearGradient id="3" x1="0%" x2="0%" y1="0%" y2="100%"><stop offset="0" stop-color="rgb(64, 64, 64)" stop-opacity="1" /><stop offset="0.3" stop-color="rgb(192, 192, 192)" stop-opacity="1" /><stop offset="0.7" stop-color="rgb(192, 192, 192)" stop-opacity="1" /><stop offset="1" stop-color="rgb(64, 64, 64)" stop-opacity="1" /></linearGradient></defs><rect fill="url(#4)" height="20.0" width="44.0" x="171.0" y="175.0" /><defs><linearGradient id="4" x1="0%" x2="0%" y1="0%" y2="100%"><stop offset="0" stop-color="rgb(64, 64, 64)" stop-opacity="1" /><stop offset="0.3" stop-color="rgb(192, 192, 192)" stop-opacity="1" /><stop offset="0.7" stop-color="rgb(192, 192, 192)" stop-opacity="1" /><stop offset="1" stop-color="rgb(64, 64, 64)" stop-opacity="1" /></linearGradient></defs><ellipse cx="215.0" cy="185.0" fill="rgb(192,192,192)" rx="4.0" ry="10.0" stroke="rgb(0,0,0)" stroke-width="0.25mm" /><defs /><text alignment-baseline="middle" fill="rgb(0,0,255)" font-family="Verdana" font-size="18" text-anchor="middle" x="155.0" y="75.0">name</text><defs /><polygon fill="rgb(0,127,0)" points="235.0,175.0 235.0,159.0 215.0,159.0 215.0,165.0 225.0,165.0 225.0,205.0 215.0,205.0 215.0,211.0 235.0,211.0 235.0,195.0 245.0,195.0 245.0,175.0 235.0,175.0" stroke="rgb(0,127,0)" stroke-width="0.25mm" /><defs /><polyline fill="none" points="55.0,205.0 95.0,205.0" stroke="rgb(0,0,0)" stroke-width="0.25mm" /><defs /><polyline fill="none" points="55.0,205.0 55.0,285.0" stroke="rgb(0,0,0)" stroke-width="0.25mm" /><defs /><polyline fill="none" points="55.0,165.0 95.0,165.0" stroke="rgb(0,0,0)" stroke-width="0.25mm" /><defs /><polyline fill="none" points="255.0,275.0 115.0,275.0" stroke="rgb(0,127,0)" stroke-width="0.25mm" /><defs /><polyline fill="none" points="225.0,211.0 225.0,235.0 255.0,235.0 255.0,285.0" stroke="rgb(0,127,0)" stroke-width="0.25mm" /><defs /><polyline fill="none" points="135.0,105.0 170.0,105.0" stroke="rgb(64,64,64)" stroke-width="0.25mm" /><defs /><polyline fill="none" points="135.0,265.0 170.0,265.0" stroke="rgb(64,64,64)" stroke-width="0.25mm" /><defs /><polyline fill="none" points="171.0,175.0 215.0,175.0" stroke="rgb(64,64,64)" stroke-width="0.25mm" /><defs /><polyline fill="none" points="171.0,195.0 215.0,195.0" stroke="rgb(64,64,64)" stroke-width="0.25mm" /><defs /><g id="flangeR"><ellipse cx="35.0" cy="185.0" fill="rgb(95,95,95)" rx="20.0" ry="20.0" stroke="rgb(0,0,0)" stroke-width="0.25mm" /><defs /><g display="none" id="info"><text id="name">flangeR</text><text id="type">Modelica.Mechanics.Rotational.Interfaces.Flange_a</text><text id="classDesc">1-dim. rotational flange of a shaft (filled square icon)</text><text id="desc">Flange of rotational shaft</text></g></g><g id="flangeT"><rect fill="rgb(255,255,255)" height="40.0" stroke="rgb(0,127,0)" stroke-width="0.25mm" width="40.0" x="15.0" y="165.0" /><defs /><g display="none" id="info"><text id="name">flangeT</text><text id="type">Modelica.Mechanics.Translational.Interfaces.Flange_b</text><text id="classDesc">(right) 1D translational flange (flange axis directed OUT OF cut plane)</text><text id="desc">Flange of translational rod</text></g></g><g id="supportR"><ellipse cx="35.0" cy="185.0" fill="rgb(95,95,95)" rx="13.3333333333" ry="13.3333333333" stroke="rgb(0,0,0)" stroke-width="0.25mm" /><defs /><rect fill="rgb(192,192,192)" height="40.0" stroke="rgb(192,192,192)" stroke-width="0.25mm" width="40.0" x="15.0" y="165.0" /><defs /><ellipse cx="35.0" cy="185.0" fill="rgb(95,95,95)" rx="13.3333333333" ry="13.3333333333" stroke="rgb(0,0,0)" stroke-width="0.25mm" /><defs /><g display="none" id="info"><text id="name">supportR</text><text id="type">Modelica.Mechanics.Rotational.Interfaces.Support</text><text id="classDesc">Support/housing of a 1-dim. rotational shaft</text><text id="desc">Rotational support/housing of component</text></g></g><g id="supportT"><rect fill="rgb(175,175,175)" height="24.0" stroke="rgb(0,127,0)" stroke-width="0.25mm" width="24.0" x="23.0" y="173.0" /><defs /><rect fill="rgb(175,175,175)" height="40.0" width="40.0" x="15.0" y="165.0" /><defs /><rect fill="rgb(0,127,0)" height="24.0" stroke="rgb(0,127,0)" stroke-width="0.25mm" width="24.0" x="23.0" y="173.0" /><defs /><g display="none" id="info"><text id="name">supportT</text><text id="type">Modelica.Mechanics.Translational.Interfaces.Support</text><text id="classDesc">Support/housing 1D translational flange</text><text id="desc">Translational support/housing of component</text></g></g></svg>