<?xml version="1.0" encoding="utf-8" ?>
<svg baseProfile="full" height="232.0" version="1.1" viewBox="0 0 310.0 232.0" width="310.0" xmlns="http://www.w3.org/2000/svg" xmlns:ev="http://www.w3.org/2001/xml-events" xmlns:xlink="http://www.w3.org/1999/xlink"><defs /><rect fill="none" height="204.0" stroke="rgb(255,0,0)" stroke-dasharray="8.0 4.0" stroke-width="0.5mm" width="204.0" x="53.0" y="5.0" /><defs /><rect fill="rgb(192,192,192)" height="40.0" stroke="rgb(192,192,192)" stroke-width="0.25mm" width="40.0" x="135.0" y="187.0" /><defs /><text alignment-baseline="middle" fill="rgb(0,0,255)" font-family="Verdana" font-size="18" text-anchor="middle" x="155.0" y="27.0">name</text><defs /><rect fill="url(#0)" height="40.0" stroke="rgb(0,0,0)" stroke-width="0.25mm" width="200.0" x="55.0" y="87.0" /><defs><linearGradient id="0" x1="0%" x2="0%" y1="0%" y2="100%"><stop offset="0" stop-color="rgb(0, 0, 0)" stop-opacity="1" /><stop offset="0.3" stop-color="rgb(192, 192, 192)" stop-opacity="1" /><stop offset="0.7" stop-color="rgb(192, 192, 192)" stop-opacity="1" /><stop offset="1" stop-color="rgb(0, 0, 0)" stop-opacity="1" /></linearGradient></defs><polyline fill="none" points="125.0,147.0 185.0,147.0" stroke="rgb(0,0,0)" stroke-width="0.25mm" /><defs /><polyline fill="none" points="155.0,147.0 155.0,197.0" stroke="rgb(0,0,0)" stroke-width="0.25mm" /><defs /><polygon fill="rgb(255,0,0)" points="125.0,127.0 215.0,127.0 215.0,187.0 225.0,187.0 205.0,207.0 185.0,187.0 195.0,187.0 195.0,137.0 125.0,137.0 125.0,127.0 125.0,127.0" stroke="rgb(0,0,0)" stroke-width="0.25mm" /><defs /><text alignment-baseline="middle" fill="rgb(0,0,0)" font-family="Verdana" font-size="18" text-anchor="middle" x="155.0" y="67.0">eta=eta</text><defs /><polyline fill="none" points="185.0,157.0 175.0,167.0" stroke="rgb(0,0,0)" stroke-width="0.25mm" /><defs /><polyline fill="none" points="185.0,147.0 165.0,167.0" stroke="rgb(0,0,0)" stroke-width="0.25mm" /><defs /><polyline fill="none" points="175.0,147.0 155.0,167.0" stroke="rgb(0,0,0)" stroke-width="0.25mm" /><defs /><polyline fill="none" points="165.0,147.0 145.0,167.0" stroke="rgb(0,0,0)" stroke-width="0.25mm" /><defs /><polyline fill="none" points="155.0,147.0 135.0,167.0" stroke="rgb(0,0,0)" stroke-width="0.25mm" /><defs /><polyline fill="none" points="145.0,147.0 125.0,167.0" stroke="rgb(0,0,0)" stroke-width="0.25mm" /><defs /><polyline fill="none" points="135.0,147.0 125.0,157.0" stroke="rgb(0,0,0)" stroke-width="0.25mm" /><defs /></svg>