<?xml version="1.0" encoding="utf-8" ?>
<svg baseProfile="full" height="210.0" version="1.1" viewBox="0 0 210.0 210.0" width="210.0" xmlns="http://www.w3.org/2000/svg" xmlns:ev="http://www.w3.org/2001/xml-events" xmlns:xlink="http://www.w3.org/1999/xlink"><defs /><rect fill="url(#0)" height="80.0" stroke="rgb(0,0,0)" stroke-width="0.25mm" width="30.0" x="55.0" y="5.0" /><defs><linearGradient id="0" x1="0%" x2="0%" y1="0%" y2="100%"><stop offset="0" stop-color="rgb(0, 0, 0)" stop-opacity="1" /><stop offset="0.3" stop-color="rgb(255, 255, 255)" stop-opacity="1" /><stop offset="0.7" stop-color="rgb(255, 255, 255)" stop-opacity="1" /><stop offset="1" stop-color="rgb(0, 0, 0)" stop-opacity="1" /></linearGradient></defs><rect fill="url(#1)" height="42.0" stroke="rgb(0,0,0)" stroke-width="0.25mm" width="30.0" x="55.0" y="84.0" /><defs><linearGradient id="1" x1="0%" x2="0%" y1="0%" y2="100%"><stop offset="0" stop-color="rgb(0, 0, 0)" stop-opacity="1" /><stop offset="0.3" stop-color="rgb(255, 255, 255)" stop-opacity="1" /><stop offset="0.7" stop-color="rgb(255, 255, 255)" stop-opacity="1" /><stop offset="1" stop-color="rgb(0, 0, 0)" stop-opacity="1" /></linearGradient></defs><polyline fill="none" points="25.0,85.0 45.0,85.0" stroke="rgb(0,0,0)" stroke-width="0.25mm" /><defs /><polyline fill="none" points="25.0,125.0 45.0,125.0" stroke="rgb(0,0,0)" stroke-width="0.25mm" /><defs /><polyline fill="none" points="35.0,125.0 35.0,191.0" stroke="rgb(0,0,0)" stroke-width="0.25mm" /><defs /><polyline fill="none" points="105.0,65.0 105.0,191.0" stroke="rgb(0,0,0)" stroke-width="0.25mm" /><defs /><polyline fill="none" points="95.0,65.0 115.0,65.0" stroke="rgb(0,0,0)" stroke-width="0.25mm" /><defs /><polyline fill="none" points="95.0,25.0 115.0,25.0" stroke="rgb(0,0,0)" stroke-width="0.25mm" /><defs /><polyline fill="none" points="165.0,125.0 185.0,125.0" stroke="rgb(0,0,0)" stroke-width="0.25mm" /><defs /><polyline fill="none" points="165.0,85.0 185.0,85.0" stroke="rgb(0,0,0)" stroke-width="0.25mm" /><defs /><polyline fill="none" points="175.0,125.0 175.0,191.0" stroke="rgb(0,0,0)" stroke-width="0.25mm" /><defs /><polyline fill="none" points="175.0,191.0 35.0,191.0" stroke="rgb(0,0,0)" stroke-width="0.25mm" /><defs /><rect fill="url(#2)" height="20.0" stroke="rgb(64,64,64)" stroke-width="0.25mm" width="50.0" x="5.0" y="95.0" /><defs><linearGradient id="2" x1="0%" x2="0%" y1="0%" y2="100%"><stop offset="0" stop-color="rgb(64, 64, 64)" stop-opacity="1" /><stop offset="0.3" stop-color="rgb(191, 191, 191)" stop-opacity="1" /><stop offset="0.7" stop-color="rgb(191, 191, 191)" stop-opacity="1" /><stop offset="1" stop-color="rgb(64, 64, 64)" stop-opacity="1" /></linearGradient></defs><rect fill="url(#3)" height="20.0" stroke="rgb(64,64,64)" stroke-width="0.25mm" width="50.0" x="155.0" y="95.0" /><defs><linearGradient id="3" x1="0%" x2="0%" y1="0%" y2="100%"><stop offset="0" stop-color="rgb(64, 64, 64)" stop-opacity="1" /><stop offset="0.3" stop-color="rgb(191, 191, 191)" stop-opacity="1" /><stop offset="0.7" stop-color="rgb(191, 191, 191)" stop-opacity="1" /><stop offset="1" stop-color="rgb(64, 64, 64)" stop-opacity="1" /></linearGradient></defs><rect fill="rgb(153,153,153)" height="4.0" stroke="rgb(0,0,0)" stroke-width="0.25mm" width="30.0" x="55.0" y="122.0" /><defs /><rect fill="rgb(204,204,204)" height="6.0" stroke="rgb(0,0,0)" stroke-width="0.25mm" width="30.0" x="55.0" y="110.0" /><defs /><rect fill="rgb(204,204,204)" height="4.0" stroke="rgb(0,0,0)" stroke-width="0.25mm" width="30.0" x="55.0" y="84.0" /><defs /><rect fill="rgb(255,255,255)" height="6.0" stroke="rgb(0,0,0)" stroke-width="0.25mm" width="30.0" x="55.0" y="94.0" /><defs /><rect fill="url(#4)" height="20.0" stroke="rgb(64,64,64)" stroke-width="0.25mm" width="40.0" x="85.0" y="35.0" /><defs><linearGradient id="4" x1="0%" x2="0%" y1="0%" y2="100%"><stop offset="0" stop-color="rgb(64, 64, 64)" stop-opacity="1" /><stop offset="0.3" stop-color="rgb(191, 191, 191)" stop-opacity="1" /><stop offset="0.7" stop-color="rgb(191, 191, 191)" stop-opacity="1" /><stop offset="1" stop-color="rgb(64, 64, 64)" stop-opacity="1" /></linearGradient></defs><rect fill="rgb(153,153,153)" height="4.0" stroke="rgb(0,0,0)" stroke-width="0.25mm" width="30.0" x="55.0" y="5.0" /><defs /><rect fill="rgb(204,204,204)" height="6.0" stroke="rgb(0,0,0)" stroke-width="0.25mm" width="30.0" x="55.0" y="15.0" /><defs /><rect fill="rgb(204,204,204)" height="8.0" stroke="rgb(0,0,0)" stroke-width="0.25mm" width="30.0" x="55.0" y="51.0" /><defs /><rect fill="rgb(102,102,102)" height="4.0" stroke="rgb(0,0,0)" stroke-width="0.25mm" width="30.0" x="55.0" y="81.0" /><defs /><rect fill="rgb(153,153,153)" height="6.0" stroke="rgb(0,0,0)" stroke-width="0.25mm" width="30.0" x="55.0" y="69.0" /><defs /><rect fill="rgb(255,255,255)" height="8.0" stroke="rgb(0,0,0)" stroke-width="0.25mm" width="30.0" x="55.0" y="31.0" /><defs /><rect fill="url(#5)" height="42.0" stroke="rgb(0,0,0)" stroke-width="0.25mm" width="30.0" x="125.0" y="24.0" /><defs><linearGradient id="5" x1="0%" x2="0%" y1="0%" y2="100%"><stop offset="0" stop-color="rgb(0, 0, 0)" stop-opacity="1" /><stop offset="0.3" stop-color="rgb(255, 255, 255)" stop-opacity="1" /><stop offset="0.7" stop-color="rgb(255, 255, 255)" stop-opacity="1" /><stop offset="1" stop-color="rgb(0, 0, 0)" stop-opacity="1" /></linearGradient></defs><rect fill="rgb(153,153,153)" height="4.0" stroke="rgb(0,0,0)" stroke-width="0.25mm" width="30.0" x="125.0" y="62.0" /><defs /><rect fill="rgb(204,204,204)" height="6.0" stroke="rgb(0,0,0)" stroke-width="0.25mm" width="30.0" x="125.0" y="50.0" /><defs /><rect fill="rgb(204,204,204)" height="4.0" stroke="rgb(0,0,0)" stroke-width="0.25mm" width="30.0" x="125.0" y="24.0" /><defs /><rect fill="rgb(255,255,255)" height="6.0" stroke="rgb(0,0,0)" stroke-width="0.25mm" width="30.0" x="125.0" y="34.0" /><defs /><rect fill="url(#6)" height="80.0" stroke="rgb(0,0,0)" stroke-width="0.25mm" width="30.0" x="125.0" y="65.0" /><defs><linearGradient id="6" x1="0%" x2="0%" y1="0%" y2="100%"><stop offset="0" stop-color="rgb(0, 0, 0)" stop-opacity="1" /><stop offset="0.3" stop-color="rgb(255, 255, 255)" stop-opacity="1" /><stop offset="0.7" stop-color="rgb(255, 255, 255)" stop-opacity="1" /><stop offset="1" stop-color="rgb(0, 0, 0)" stop-opacity="1" /></linearGradient></defs><rect fill="rgb(153,153,153)" height="4.0" stroke="rgb(0,0,0)" stroke-width="0.25mm" width="30.0" x="125.0" y="65.0" /><defs /><rect fill="rgb(204,204,204)" height="6.0" stroke="rgb(0,0,0)" stroke-width="0.25mm" width="30.0" x="125.0" y="75.0" /><defs /><rect fill="rgb(204,204,204)" height="8.0" stroke="rgb(0,0,0)" stroke-width="0.25mm" width="30.0" x="125.0" y="111.0" /><defs /><rect fill="rgb(102,102,102)" height="4.0" stroke="rgb(0,0,0)" stroke-width="0.25mm" width="30.0" x="125.0" y="141.0" /><defs /><rect fill="rgb(153,153,153)" height="6.0" stroke="rgb(0,0,0)" stroke-width="0.25mm" width="30.0" x="125.0" y="129.0" /><defs /><rect fill="rgb(255,255,255)" height="8.0" stroke="rgb(0,0,0)" stroke-width="0.25mm" width="30.0" x="125.0" y="91.0" /><defs /><rect fill="none" height="121.0" stroke="rgb(0,0,0)" stroke-width="0.25mm" width="30.0" x="55.0" y="5.0" /><defs /><rect fill="none" height="121.0" stroke="rgb(0,0,0)" stroke-width="0.25mm" width="30.0" x="125.0" y="24.0" /><defs /></svg>