<?xml version="1.0" encoding="utf-8" ?>
<svg baseProfile="full" height="310.0" version="1.1" viewBox="0 0 310.0 310.0" width="310.0" xmlns="http://www.w3.org/2000/svg" xmlns:ev="http://www.w3.org/2001/xml-events" xmlns:xlink="http://www.w3.org/1999/xlink"><defs /><rect fill="rgb(255,255,255)" height="200.0" stroke="rgb(0,0,127)" stroke-width="0.25mm" width="200.0" x="55.0" y="55.0" /><defs /><text alignment-baseline="middle" fill="rgb(0,0,255)" font-family="Verdana" font-size="18" text-anchor="middle" x="155.0" y="25.0">name</text><defs /><ellipse cx="155.0" cy="155.0" fill="none" rx="80.0" ry="80.0" stroke="rgb(160,160,164)" stroke-width="0.25mm" /><defs /><polyline fill="none" points="155.0,75.0 155.0,95.0" stroke="rgb(160,160,164)" stroke-width="0.25mm" /><defs /><polyline fill="none" points="235.0,155.0 215.0,155.0" stroke="rgb(160,160,164)" stroke-width="0.25mm" /><defs /><polyline fill="none" points="155.0,235.0 155.0,215.0" stroke="rgb(160,160,164)" stroke-width="0.25mm" /><defs /><polyline fill="none" points="75.0,155.0 95.0,155.0" stroke="rgb(160,160,164)" stroke-width="0.25mm" /><defs /><polyline fill="none" points="192.0,85.0 181.0,105.0" stroke="rgb(160,160,164)" stroke-width="0.25mm" /><defs /><polyline fill="none" points="225.0,117.0 204.0,129.0" stroke="rgb(160,160,164)" stroke-width="0.25mm" /><defs /><polyline fill="none" points="226.0,192.0 207.0,182.0" stroke="rgb(160,160,164)" stroke-width="0.25mm" /><defs /><polyline fill="none" points="194.0,225.0 184.0,206.0" stroke="rgb(160,160,164)" stroke-width="0.25mm" /><defs /><polyline fill="none" points="116.0,225.0 126.0,207.0" stroke="rgb(160,160,164)" stroke-width="0.25mm" /><defs /><polyline fill="none" points="84.0,192.0 105.0,181.0" stroke="rgb(160,160,164)" stroke-width="0.25mm" /><defs /><polyline fill="none" points="84.0,118.0 101.0,127.0" stroke="rgb(160,160,164)" stroke-width="0.25mm" /><defs /><polyline fill="none" points="117.0,85.0 127.0,104.0" stroke="rgb(160,160,164)" stroke-width="0.25mm" /><defs /><polyline fill="none" points="155.0,155.0 105.0,105.0" stroke="rgb(0,0,0)" stroke-width="0.5mm" /><defs /><polyline fill="none" points="155.0,155.0 195.0,155.0" stroke="rgb(0,0,0)" stroke-width="0.5mm" /><defs /><text alignment-baseline="middle" fill="rgb(0,0,0)" font-family="Verdana" font-size="18" text-anchor="middle" x="155.0" y="285.0">startTime=startTime</text><defs /><g id="y"><polygon fill="rgb(255,255,255)" points="255.0,145.0 275.0,155.0 255.0,165.0" stroke="rgb(0,0,127)" stroke-width="0.25mm" /><defs /><g display="none" id="info"><text id="name">y</text><text id="type">Modelica.Blocks.Interfaces.RealOutput</text><text id="classDesc">'output Real' as connector</text><text id="desc">Connector of Real output signal</text></g></g></svg>