<?xml version="1.0" encoding="utf-8" ?>
<svg baseProfile="full" height="230.0" version="1.1" viewBox="0 0 352.0 230.0" width="352.0" xmlns="http://www.w3.org/2000/svg" xmlns:ev="http://www.w3.org/2001/xml-events" xmlns:xlink="http://www.w3.org/1999/xlink"><defs /><polyline fill="none" points="147.0,225.0 167.0,205.0" stroke="rgb(0,0,0)" stroke-width="0.25mm" /><defs /><polyline fill="none" points="167.0,225.0 187.0,205.0" stroke="rgb(0,0,0)" stroke-width="0.25mm" /><defs /><polyline fill="none" points="187.0,225.0 207.0,205.0" stroke="rgb(0,0,0)" stroke-width="0.25mm" /><defs /><polyline fill="none" points="207.0,225.0 227.0,205.0" stroke="rgb(0,0,0)" stroke-width="0.25mm" /><defs /><polyline fill="none" points="167.0,205.0 227.0,205.0" stroke="rgb(0,0,0)" stroke-width="0.25mm" /><defs /><text alignment-baseline="middle" fill="rgb(0,0,0)" font-family="Verdana" font-size="18" text-anchor="middle" x="85.0" y="159.0">s,v,a</text><defs /><polyline fill="none" points="167.0,137.0 227.0,137.0" stroke="rgb(0,0,0)" stroke-width="0.25mm" /><defs /><polyline fill="none" points="197.0,137.0 197.0,205.0" stroke="rgb(0,0,0)" stroke-width="0.25mm" /><defs /><polyline fill="none" points="227.0,147.0 217.0,157.0" stroke="rgb(0,0,0)" stroke-width="0.25mm" /><defs /><polyline fill="none" points="227.0,137.0 207.0,157.0" stroke="rgb(0,0,0)" stroke-width="0.25mm" /><defs /><polyline fill="none" points="217.0,137.0 197.0,157.0" stroke="rgb(0,0,0)" stroke-width="0.25mm" /><defs /><polyline fill="none" points="207.0,137.0 187.0,157.0" stroke="rgb(0,0,0)" stroke-width="0.25mm" /><defs /><polyline fill="none" points="197.0,137.0 177.0,157.0" stroke="rgb(0,0,0)" stroke-width="0.25mm" /><defs /><polyline fill="none" points="187.0,137.0 167.0,157.0" stroke="rgb(0,0,0)" stroke-width="0.25mm" /><defs /><polyline fill="none" points="177.0,137.0 167.0,147.0" stroke="rgb(0,0,0)" stroke-width="0.25mm" /><defs /><rect fill="rgb(215,215,215)" height="40.0" stroke="rgb(0,127,0)" stroke-width="0.25mm" width="200.0" x="97.0" y="85.0" /><defs /><polyline fill="none" points="197.0,53.0 197.0,73.0" stroke="rgb(0,0,0)" stroke-width="0.25mm" /><defs /><polyline fill="none" points="168.0,73.0 227.0,73.0" stroke="rgb(0,0,0)" stroke-width="0.25mm" /><defs /><text alignment-baseline="middle" fill="rgb(0,0,255)" font-family="Verdana" font-size="18" text-anchor="middle" x="197.0" y="25.0">name</text><defs /><g id="flange"><rect fill="rgb(255,255,255)" height="20.0" stroke="rgb(0,127,0)" stroke-width="0.25mm" width="20.0" x="287.0" y="95.0" /><defs /><g display="none" id="info"><text id="name">flange</text><text id="type">Modelica.Mechanics.Translational.Interfaces.Flange_b</text><text id="classDesc">(right) 1D translational flange (flange axis directed OUT OF cut plane)</text><text id="desc">Flange of component</text></g></g><g id="support"><rect fill="rgb(175,175,175)" height="20.0" width="20.0" x="187.0" y="195.0" /><defs /><rect fill="rgb(0,127,0)" height="12.0" stroke="rgb(0,127,0)" stroke-width="0.25mm" width="12.0" x="191.0" y="199.0" /><defs /><g display="none" id="info"><text id="name">support</text><text id="type">Modelica.Mechanics.Translational.Interfaces.Support</text><text id="classDesc">Support/housing 1D translational flange</text><text id="desc">Support/housing of component</text></g></g><g id="u"><polygon fill="rgb(0,0,127)" points="57.0,85.0 97.0,105.0 57.0,125.0" stroke="rgb(0,0,127)" stroke-width="0.25mm" /><defs /><g display="none" id="info"><text id="name">u</text><text id="type">Modelica.Blocks.Interfaces.RealInput</text><text id="classDesc">'input Real' as connector</text><text id="desc" /></g></g></svg>