<?xml version="1.0" encoding="utf-8" ?>
<svg baseProfile="full" height="260.0" version="1.1" viewBox="0 0 310.0 260.0" width="310.0" xmlns="http://www.w3.org/2000/svg" xmlns:ev="http://www.w3.org/2001/xml-events" xmlns:xlink="http://www.w3.org/1999/xlink"><defs /><rect fill="rgb(255,255,255)" height="200.0" stroke="rgb(0,0,127)" stroke-width="0.25mm" width="200.0" x="55.0" y="55.0" /><defs /><text alignment-baseline="middle" fill="rgb(0,0,255)" font-family="Verdana" font-size="18" text-anchor="middle" x="155.0" y="25.0">name</text><defs /><polygon fill="rgb(192,192,192)" points="155.0,61.0 147.0,83.0 163.0,83.0 155.0,61.0" stroke="rgb(192,192,192)" stroke-width="0.25mm" /><defs /><polyline fill="none" points="155.0,79.0 155.0,227.0" stroke="rgb(192,192,192)" stroke-width="0.25mm" /><defs /><polyline fill="none" points="69.0,237.0 227.0,237.0" stroke="rgb(192,192,192)" stroke-width="0.25mm" /><defs /><polygon fill="rgb(192,192,192)" points="247.0,237.0 225.0,229.0 225.0,245.0 247.0,237.0" stroke="rgb(192,192,192)" stroke-width="0.25mm" /><defs /><path d="M 85.0 230.953 C 86.75 230.92525 88.5 230.8975 90.25 230.84135 90.25 230.84135 92.0 230.7852 93.75 230.6763 93.75 230.6763 95.5 230.5674 97.25 230.36525 97.25 230.36525 99.0 230.1631 100.75 229.80365 100.75 229.80365 102.5 229.4442 104.25 228.83275 104.25 228.83275 106.0 228.2213 107.75 227.22655 107.75 227.22655 109.5 226.2318 111.25 224.68515 111.25 224.68515 113.0 223.1385 114.75 220.84265 114.75 220.84265 116.5 218.5468 118.25 215.29675 118.25 215.29675 120.0 212.0467 121.75 207.6658 121.75 207.6658 123.5 203.2849 125.25 197.6733 125.25 197.6733 127.0 192.0617 128.75 185.25025 128.75 185.25025 130.5 178.4388 132.25 170.6353 132.25 170.6353 134.0 162.8318 135.75 154.4445 135.75 154.4445 137.5 146.0572 139.25 137.6811 139.25 137.6811 141.0 129.305 142.75 121.66395 142.75 121.66395 144.5 114.0229 146.25 107.8716 146.25 107.8716 148.0 101.7203 149.75 97.7232 149.75 97.7232 151.5 93.7261 153.25 92.33955 153.25 92.33955 155.0 90.953 156.75 92.33955 156.75 92.33955 158.5 93.7261 160.25 97.7232 160.25 97.7232 162.0 101.7203 163.75 107.8716 163.75 107.8716 165.5 114.0229 167.25 121.66395 167.25 121.66395 169.0 129.305 170.75 137.6811 170.75 137.6811 172.5 146.0572 174.25 154.4445 174.25 154.4445 176.0 162.8318 177.75 170.6353 177.75 170.6353 179.5 178.4388 181.25 185.25025 181.25 185.25025 183.0 192.0617 184.75 197.6733 184.75 197.6733 186.5 203.2849 188.25 207.6658 188.25 207.6658 190.0 212.0467 191.75 215.29675 191.75 215.29675 193.5 218.5468 195.25 220.84265 195.25 220.84265 197.0 223.1385 198.75 224.68515 198.75 224.68515 200.5 226.2318 202.25 227.22655 202.25 227.22655 204.0 228.2213 205.75 228.83275 205.75 228.83275 207.5 229.4442 209.25 229.80365 209.25 229.80365 211.0 230.1631 212.75 230.36525 212.75 230.36525 214.5 230.5674 216.25 230.6763 216.25 230.6763 218.0 230.7852 219.75 230.84135 219.75 230.84135 221.5 230.8975 223.25 230.92525 223.25 230.92525 225.0 230.953 225.0 230.953" fill="none" stroke="rgb(0,0,0)" stroke-width="0.25mm" /><defs /><g id="u"><polygon fill="rgb(0,0,127)" points="15.0,135.0 55.0,155.0 15.0,175.0" stroke="rgb(0,0,127)" stroke-width="0.25mm" /><defs /><g display="none" id="info"><text id="name">u</text><text id="type">Modelica.Blocks.Interfaces.RealInput</text><text id="classDesc">'input Real' as connector</text><text id="desc">Real input signal</text></g></g><g id="y"><polygon fill="rgb(255,255,255)" points="15.0,135.0 55.0,155.0 15.0,175.0" stroke="rgb(0,0,127)" stroke-width="0.25mm" /><defs /><g display="none" id="info"><text id="name">y</text><text id="type">Modelica.Blocks.Interfaces.RealOutput</text><text id="classDesc">'output Real' as connector</text><text id="desc">Density of the input signal according to the uniform probability density function</text></g></g></svg>