<?xml version="1.0" encoding="utf-8" ?>
<svg baseProfile="full" height="210.0" version="1.1" viewBox="0 0 240.0 210.0" width="240.0" xmlns="http://www.w3.org/2000/svg" xmlns:ev="http://www.w3.org/2001/xml-events" xmlns:xlink="http://www.w3.org/1999/xlink"><defs /><ellipse cx="115.0" cy="105.0" fill="rgb(245,245,245)" rx="70.0" ry="70.0" stroke="rgb(0,0,0)" stroke-width="0.25mm" /><defs /><polyline fill="none" points="115.0,35.0 115.0,65.0" stroke="rgb(0,0,0)" stroke-width="0.25mm" /><defs /><polyline fill="none" points="137.9,72.2 155.2,47.7" stroke="rgb(0,0,0)" stroke-width="0.25mm" /><defs /><polyline fill="none" points="92.1,72.2 74.8,47.7" stroke="rgb(0,0,0)" stroke-width="0.25mm" /><defs /><polyline fill="none" points="152.6,91.3 180.8,81.1" stroke="rgb(0,0,0)" stroke-width="0.25mm" /><defs /><polyline fill="none" points="77.4,91.3 49.2,81.1" stroke="rgb(0,0,0)" stroke-width="0.25mm" /><defs /><ellipse cx="115.0" cy="105.0" fill="none" rx="12.0" ry="12.0" stroke="rgb(64,64,64)" stroke-width="0.25mm" /><defs /><polygon fill="rgb(64,64,64)" points="110.231401703,103.496513958 131.134393186,47.1754260153 134.545318547,43.0082221349 134.949271824,48.378214849 119.768598297,106.503486042" /><defs /><ellipse cx="115.0" cy="105.0" fill="rgb(64,64,64)" rx="7.0" ry="7.0" /><defs /><polyline fill="none" points="45.0,105.0 21.0,105.0" stroke="rgb(0,0,0)" stroke-width="0.25mm" /><defs /><text alignment-baseline="middle" fill="rgb(170,85,255)" font-family="Verdana" font-size="18" text-anchor="middle" x="115.0" y="20.0">name</text><defs /><polyline fill="none" points="215.0,105.0 185.0,105.0" stroke="rgb(0,0,0)" stroke-width="0.25mm" /><defs /><text alignment-baseline="middle" fill="rgb(0,0,0)" font-family="Verdana" font-size="18" text-anchor="middle" x="115.5" y="145.5">V</text><defs /><g id="pin"><rect fill="rgb(85,170,255)" height="20.0" stroke="rgb(85,170,255)" stroke-width="0.25mm" width="20.0" x="5.0" y="95.0" /><defs /><g display="none" id="info"><text id="name">pin</text><text id="type">Modelica.Electrical.QuasiStationary.SinglePhase.Interfaces.PositivePin</text><text id="classDesc">Positive connector</text><text id="desc">Pin</text></g></g><g id="y"><rect fill="rgb(160,160,164)" height="20.0" rx="25.0" ry="25.0" stroke="rgb(160,160,164)" stroke-width="0.25mm" width="20.0" x="215.0" y="95.0" /><defs /><text alignment-baseline="middle" fill="rgb(255,255,255)" font-family="Verdana" font-size="18" text-anchor="middle" x="225.0" y="105.0">C</text><defs /><polygon fill="rgb(255,255,255)" points="215.0,95.0 235.0,105.0 215.0,115.0 215.0,95.0" stroke="rgb(85,170,255)" stroke-width="0.25mm" /><defs /><g display="none" id="info"><text id="name">y</text><text id="type">Modelica.ComplexBlocks.Interfaces.ComplexOutput</text><text id="classDesc">'output Complex' as connector</text><text id="desc" /></g></g></svg>