<?xml version="1.0" encoding="utf-8" ?>
<svg baseProfile="full" height="260.0" version="1.1" viewBox="0 0 310.0 260.0" width="310.0" xmlns="http://www.w3.org/2000/svg" xmlns:ev="http://www.w3.org/2001/xml-events" xmlns:xlink="http://www.w3.org/1999/xlink"><defs /><rect fill="rgb(255,255,255)" height="200.0" stroke="rgb(255,127,0)" stroke-width="0.25mm" width="200.0" x="55.0" y="55.0" /><defs /><text alignment-baseline="middle" fill="rgb(0,0,255)" font-family="Verdana" font-size="18" text-anchor="middle" x="155.0" y="25.0">name</text><defs /><polyline fill="none" points="75.0,91.0 75.0,239.0" stroke="rgb(192,192,192)" stroke-width="0.25mm" /><defs /><polygon fill="rgb(192,192,192)" points="75.0,69.0 67.0,91.0 83.0,91.0 75.0,69.0" stroke="rgb(192,192,192)" stroke-width="0.25mm" /><defs /><polyline fill="none" points="65.0,229.0 237.0,229.0" stroke="rgb(192,192,192)" stroke-width="0.25mm" /><defs /><polygon fill="rgb(192,192,192)" points="245.0,229.0 223.0,221.0 223.0,237.0 245.0,229.0" stroke="rgb(192,192,192)" stroke-width="0.25mm" /><defs /><rect fill="rgb(192,192,192)" height="120.0" stroke="rgb(255,255,255)" stroke-width="0.25mm" width="50.0" x="109.0" y="87.0" /><defs /><polyline fill="none" points="109.0,207.0 109.0,87.0 209.0,87.0 209.0,207.0 109.0,207.0 109.0,177.0 209.0,177.0 209.0,147.0 109.0,147.0 109.0,117.0 209.0,117.0 209.0,87.0 159.0,87.0 159.0,208.0" stroke="rgb(0,0,0)" stroke-width="0.25mm" /><defs /><g id="y"><polygon fill="rgb(255,255,255)" points="15.0,135.0 55.0,155.0 15.0,175.0 15.0,135.0" stroke="rgb(255,127,0)" stroke-width="0.25mm" /><defs /><g display="none" id="info"><text id="name">y</text><text id="type">Modelica.Blocks.Interfaces.IntegerOutput</text><text id="classDesc">'output Integer' as connector</text><text id="desc">Connector of Integer output signal</text></g></g></svg>