<?xml version="1.0" encoding="utf-8" ?>
<svg baseProfile="full" height="245.0" version="1.1" viewBox="0 0 310.0 245.0" width="310.0" xmlns="http://www.w3.org/2000/svg" xmlns:ev="http://www.w3.org/2001/xml-events" xmlns:xlink="http://www.w3.org/1999/xlink"><defs /><ellipse cx="155.0" cy="219.0" fill="rgb(191,0,0)" rx="20.0" ry="19.0" stroke="rgb(0,0,0)" stroke-width="0.5mm" /><defs /><rect fill="rgb(191,0,0)" height="108.0" stroke="rgb(191,0,0)" stroke-width="0.25mm" width="24.0" x="143.0" y="100.0" /><defs /><polyline fill="none" points="167.0,140.0 245.0,140.0" stroke="rgb(0,0,255)" stroke-width="0.25mm" /><defs /><polyline fill="none" points="65.0,140.0 143.0,140.0" stroke="rgb(191,0,0)" stroke-width="0.25mm" /><defs /><polygon fill="none" points="143.0,100.0 143.0,60.0 145.0,54.0 149.0,52.0 155.0,50.0 161.0,52.0 165.0,54.0 167.0,60.0 167.0,100.0 143.0,100.0" stroke="rgb(0,0,0)" stroke-width="0.5mm" /><defs /><polyline fill="none" points="143.0,100.0 143.0,204.0" stroke="rgb(0,0,0)" stroke-width="0.5mm" /><defs /><polyline fill="none" points="167.0,100.0 167.0,204.0" stroke="rgb(0,0,0)" stroke-width="0.5mm" /><defs /><polyline fill="none" points="115.0,160.0 143.0,160.0" stroke="rgb(0,0,0)" stroke-width="0.25mm" /><defs /><polyline fill="none" points="115.0,120.0 143.0,120.0" stroke="rgb(0,0,0)" stroke-width="0.25mm" /><defs /><polyline fill="none" points="115.0,80.0 143.0,80.0" stroke="rgb(0,0,0)" stroke-width="0.25mm" /><defs /><text alignment-baseline="middle" fill="rgb(0,0,0)" font-family="Verdana" font-size="18" text-anchor="middle" x="243.0" y="198.0">degRk</text><defs /><text alignment-baseline="middle" fill="rgb(0,0,255)" font-family="Verdana" font-size="18" text-anchor="middle" x="155.0" y="25.0">name</text><defs /><g id="T"><polygon fill="rgb(255,255,255)" points="15.0,120.0 55.0,140.0 15.0,160.0" stroke="rgb(0,0,127)" stroke-width="0.25mm" /><defs /><g display="none" id="info"><text id="name">T</text><text id="type">Modelica.Blocks.Interfaces.RealOutput</text><text id="classDesc">'output Real' as connector</text><text id="desc" /></g></g><g id="port"><rect fill="rgb(191,0,0)" height="40.0" stroke="rgb(191,0,0)" stroke-width="0.25mm" width="40.0" x="15.0" y="120.0" /><defs /><g display="none" id="info"><text id="name">port</text><text id="type">Modelica.Thermal.HeatTransfer.Interfaces.HeatPort_a</text><text id="classDesc">Thermal port for 1-dim. heat transfer (filled rectangular icon)</text><text id="desc" /></g></g></svg>