<?xml version="1.0" encoding="utf-8" ?>
<svg baseProfile="full" height="300.0" version="1.1" viewBox="0 0 314.0 300.0" width="314.0" xmlns="http://www.w3.org/2000/svg" xmlns:ev="http://www.w3.org/2001/xml-events" xmlns:xlink="http://www.w3.org/1999/xlink"><defs /><rect fill="rgb(255,255,255)" height="200.0" stroke="rgb(0,0,127)" stroke-width="0.25mm" width="200.0" x="59.0" y="55.0" /><defs /><text alignment-baseline="middle" fill="rgb(0,0,255)" font-family="Verdana" font-size="18" text-anchor="middle" x="159.0" y="25.0">name</text><defs /><polyline fill="none" points="115.0,155.0 115.0,155.0 151.0,175.0 137.0,171.0 141.0,165.0 151.0,175.0" stroke="rgb(85,170,255)" stroke-width="0.25mm" /><defs /><polyline fill="none" points="115.0,155.0 115.0,115.0 119.0,129.0 111.0,129.0 115.0,115.0" stroke="rgb(85,170,255)" stroke-width="0.25mm" /><defs /><polyline fill="none" points="114.999166107,154.999536751 114.999166107,154.999536751 81.0000926793,175.001111841 90.9996294007,165.000648584 94.9999073571,171.00046327 81.0000926793,175.001111841" stroke="rgb(85,170,255)" stroke-width="0.25mm" /><defs /><polyline fill="none" points="201.0,107.0 201.0,107.0 237.0,127.0 223.0,123.0 227.0,117.0 237.0,127.0" stroke="rgb(85,170,255)" stroke-width="0.25mm" /><defs /><polyline fill="none" points="201.0,107.0 201.0,67.0 205.0,81.0 197.0,81.0 201.0,67.0" stroke="rgb(85,170,255)" stroke-width="0.25mm" /><defs /><polyline fill="none" points="200.999166107,106.999536751 200.999166107,106.999536751 167.000092679,127.001111841 176.999629401,117.000648584 180.999907357,123.00046327 167.000092679,127.001111841" stroke="rgb(85,170,255)" stroke-width="0.25mm" /><defs /><polyline fill="none" points="201.0,177.0 201.0,177.0 237.0,197.0 223.0,193.0 227.0,187.0 237.0,197.0" stroke="rgb(85,170,255)" stroke-width="0.25mm" /><defs /><polyline fill="none" points="201.0,177.0 201.0,137.0 205.0,151.0 197.0,151.0 201.0,137.0" stroke="rgb(85,170,255)" stroke-width="0.25mm" /><defs /><polyline fill="none" points="200.999166107,176.999536751 200.999166107,176.999536751 167.000092679,197.001111841 176.999629401,187.000648584 180.999907357,193.00046327 167.000092679,197.001111841" stroke="rgb(85,170,255)" stroke-width="0.25mm" /><defs /><polyline fill="none" points="201.0,243.0 201.0,203.0 205.0,217.0 197.0,217.0 201.0,203.0" stroke="rgb(85,170,255)" stroke-width="0.25mm" /><defs /><polyline fill="none" points="211.0,243.0 211.0,203.0 215.0,217.0 207.0,217.0 211.0,203.0" stroke="rgb(85,170,255)" stroke-width="0.25mm" /><defs /><polyline fill="none" points="191.0,243.0 191.0,203.0 195.0,217.0 187.0,217.0 191.0,203.0" stroke="rgb(85,170,255)" stroke-width="0.25mm" /><defs /><g id="u"><rect fill="rgb(160,160,164)" height="40.0" rx="25.0" ry="25.0" stroke="rgb(160,160,164)" stroke-width="0.25mm" width="40.0" x="19.0" y="135.0" /><defs /><text alignment-baseline="middle" fill="rgb(255,255,255)" font-family="Verdana" font-size="18" text-anchor="middle" x="39.0" y="155.0">C</text><defs /><polygon fill="rgb(85,170,255)" points="19.0,135.0 59.0,155.0 19.0,175.0 19.0,135.0" stroke="rgb(85,170,255)" stroke-width="0.25mm" /><defs /><g display="none" id="info"><text id="name">u</text><text id="type">Modelica.ComplexBlocks.Interfaces.ComplexInput</text><text id="classDesc">'input Complex' as connector</text><text id="desc" /></g></g><g id="y"><rect fill="rgb(160,160,164)" height="40.0" rx="25.0" ry="25.0" stroke="rgb(160,160,164)" stroke-width="0.25mm" width="40.0" x="19.0" y="135.0" /><defs /><text alignment-baseline="middle" fill="rgb(255,255,255)" font-family="Verdana" font-size="18" text-anchor="middle" x="39.0" y="155.0">C</text><defs /><polygon fill="rgb(255,255,255)" points="19.0,135.0 59.0,155.0 19.0,175.0 19.0,135.0" stroke="rgb(85,170,255)" stroke-width="0.25mm" /><defs /><g display="none" id="info"><text id="name">y</text><text id="type">Modelica.ComplexBlocks.Interfaces.ComplexOutput</text><text id="classDesc">'output Complex' as connector</text><text id="desc" /></g></g></svg>