<?xml version="1.0" encoding="utf-8" ?>
<svg baseProfile="full" height="260.0" version="1.1" viewBox="0 0 310.0 260.0" width="310.0" xmlns="http://www.w3.org/2000/svg" xmlns:ev="http://www.w3.org/2001/xml-events" xmlns:xlink="http://www.w3.org/1999/xlink"><defs /><rect fill="rgb(210,210,210)" filter="url(#BorderPattern.Raised_0)" height="200.0" stroke="rgb(0,0,0)" stroke-width="5.0mm" width="200.0" x="55.0" y="55.0" /><defs><filter filterUnits="objectBoundingBox" height="1.2" id="BorderPattern.Raised_0" width="1.2" x="-0.1" y="-0.1"><feGaussianBlur in="SourceAlpha" result="alpha_blur" stdDeviation="5" /><feSpecularLighting in="alpha_blur" lighting-color="#FFFFFF" result="spec_light" specularConstant="1" specularExponent="20" surfaceScale="5"><fePointLight x="-5000" y="-10000" z="10000" /></feSpecularLighting><feComposite in="spec_light" in2="SourceAlpha" operator="in" result="spec_light" /><feComposite in="SourceGraphic" in2="spec_light" operator="out" result="spec_light_fill" /></filter></defs><text alignment-baseline="middle" fill="rgb(0,0,255)" font-family="Verdana" font-size="18" text-anchor="middle" x="155.0" y="25.0">name</text><defs /><text alignment-baseline="middle" fill="rgb(0,0,0)" font-family="Verdana" font-size="18" text-anchor="middle" x="131.0" y="96.0">reference</text><defs /><text alignment-baseline="middle" fill="rgb(0,0,0)" font-family="Verdana" font-size="18" text-anchor="middle" x="91.0" y="218.0">u</text><defs /><polyline fill="none" points="79.0,187.0 87.0,161.0 105.0,129.0 131.0,115.0 153.0,113.0 171.0,119.0 187.0,127.0 203.0,143.0 213.0,161.0 223.0,183.0" stroke="rgb(0,0,127)" stroke-width="0.25mm" /><defs /><polyline fill="none" points="77.0,157.0 149.0,137.0 237.0,167.0" stroke="rgb(255,0,0)" stroke-width="0.25mm" /><defs /><polyline fill="none" points="77.0,143.0 149.0,125.0 237.0,155.0" stroke="rgb(0,0,0)" stroke-width="0.25mm" /><defs /><polyline fill="none" points="77.0,171.0 149.0,151.0 237.0,181.0" stroke="rgb(0,0,0)" stroke-width="0.25mm" /><defs /><polyline fill="none" points="73.0,173.0 99.0,173.0 99.0,195.0 219.0,195.0 219.0,175.0 245.0,175.0" stroke="rgb(255,0,255)" stroke-width="0.25mm" /><defs /><g id="reference"><polygon fill="rgb(0,0,127)" points="15.0,115.0 55.0,95.0 15.0,75.0" stroke="rgb(0,0,127)" stroke-width="0.25mm" /><defs /><g display="none" id="info"><text id="name">reference</text><text id="type">Modelica.Blocks.Interfaces.RealInput</text><text id="classDesc">'input Real' as connector</text><text id="desc">Connector of Real input signal used as reference signal</text></g></g><g id="u"><polygon fill="rgb(0,0,127)" points="15.0,235.0 55.0,215.0 15.0,195.0" stroke="rgb(0,0,127)" stroke-width="0.25mm" /><defs /><g display="none" id="info"><text id="name">u</text><text id="type">Modelica.Blocks.Interfaces.RealInput</text><text id="classDesc">'input Real' as connector</text><text id="desc">Connector of Real input signal used as measurement signal</text></g></g><g id="y"><polygon fill="rgb(255,255,255)" points="255.0,145.0 275.0,155.0 255.0,165.0 255.0,145.0" stroke="rgb(255,0,255)" stroke-width="0.25mm" /><defs /><g display="none" id="info"><text id="name">y</text><text id="type">Modelica.Blocks.Interfaces.BooleanOutput</text><text id="classDesc">'output Boolean' as connector</text><text id="desc">Connector of Real output signal used as actuator signal</text></g></g></svg>