<?xml version="1.0" encoding="utf-8" ?>
<svg baseProfile="full" height="268.667" version="1.1" viewBox="0 0 310.0 268.667" width="310.0" xmlns="http://www.w3.org/2000/svg" xmlns:ev="http://www.w3.org/2001/xml-events" xmlns:xlink="http://www.w3.org/1999/xlink"><defs /><rect fill="rgb(255,255,255)" height="200.0" stroke="rgb(0,0,127)" stroke-width="0.25mm" width="200.0" x="55.0" y="55.0" /><defs /><text alignment-baseline="middle" fill="rgb(0,0,255)" font-family="Verdana" font-size="18" text-anchor="middle" x="155.0" y="25.0">name</text><defs /><polygon fill="rgb(192,192,192)" points="75.0,65.0 67.0,87.0 83.0,87.0 75.0,65.0" stroke="rgb(192,192,192)" stroke-width="0.25mm" /><defs /><polyline fill="none" points="75.0,77.0 75.0,245.0" stroke="rgb(192,192,192)" stroke-width="0.25mm" /><defs /><polygon fill="rgb(192,192,192)" points="245.0,235.0 223.0,227.0 223.0,243.0 245.0,235.0" stroke="rgb(192,192,192)" stroke-width="0.25mm" /><defs /><polyline fill="none" points="65.0,235.0 237.0,235.0" stroke="rgb(192,192,192)" stroke-width="0.25mm" /><defs /><rect fill="url(#0)" height="88.0" stroke="rgb(160,160,164)" stroke-width="0.25mm" width="102.0" x="75.0" y="147.0" /><defs><pattern height="7" id="0" patternUnits="userSpaceOnUse" width="7" x="0" y="0"><rect fill="rgb(255,255,255)" height="7" width="7" x="0" y="0" /><path d="M7,0 l-7,7" stroke="rgb(160,160,164)" stroke-width="1" /><path d="M1,-1 l-7,7" stroke="rgb(160,160,164)" stroke-width="1" /><path d="M8,6 l-7,7" stroke="rgb(160,160,164)" stroke-width="1" /></pattern></defs><path d="M 75.0 129.0 C 129.0 129.0 183.0 129.0 192.0 182.0 192.0 182.0 201.0 235.0 201.0 235.0" fill="none" stroke="rgb(0,0,127)" stroke-width="0.25mm" /><defs /><g id="u"><polygon fill="rgb(0,0,127)" points="15.0,135.0 55.0,155.0 15.0,175.0" stroke="rgb(0,0,127)" stroke-width="0.25mm" /><defs /><g display="none" id="info"><text id="name">u</text><text id="type">Modelica.Blocks.Interfaces.RealInput</text><text id="classDesc">'input Real' as connector</text><text id="desc">Connector of Real input signal</text></g></g><g id="y"><polygon fill="rgb(255,255,255)" points="15.0,135.0 55.0,155.0 15.0,175.0" stroke="rgb(0,0,127)" stroke-width="0.25mm" /><defs /><g display="none" id="info"><text id="name">y</text><text id="type">Modelica.Blocks.Interfaces.RealOutput</text><text id="classDesc">'output Real' as connector</text><text id="desc">Connector of Real output signal</text></g></g></svg>