<?xml version="1.0" encoding="utf-8" ?>
<svg baseProfile="full" height="234.0" version="1.1" viewBox="0 0 432.0 234.0" width="432.0" xmlns="http://www.w3.org/2000/svg" xmlns:ev="http://www.w3.org/2001/xml-events" xmlns:xlink="http://www.w3.org/1999/xlink"><defs /><rect fill="url(#0)" height="200.0" stroke="rgb(255,255,255)" stroke-width="0.25mm" width="200.0" x="15.0" y="17.0" /><defs><linearGradient id="0" x1="0%" x2="100%" y1="0%" y2="0%"><stop offset="0" stop-color="rgb(255, 255, 255)" stop-opacity="1" /><stop offset="0.3" stop-color="rgb(255, 255, 255)" stop-opacity="1" /><stop offset="0.7" stop-color="rgb(255, 255, 255)" stop-opacity="1" /><stop offset="1" stop-color="rgb(255, 255, 255)" stop-opacity="1" /></linearGradient></defs><rect fill="url(#1)" height="100.0" stroke="rgb(0,0,0)" stroke-width="0.25mm" width="200.0" x="15.0" y="117.0" /><defs><linearGradient id="1" x1="0%" x2="100%" y1="0%" y2="0%"><stop offset="0" stop-color="rgb(0, 0, 0)" stop-opacity="1" /><stop offset="0.3" stop-color="rgb(85, 170, 255)" stop-opacity="1" /><stop offset="0.7" stop-color="rgb(85, 170, 255)" stop-opacity="1" /><stop offset="1" stop-color="rgb(0, 0, 0)" stop-opacity="1" /></linearGradient></defs><polyline fill="none" points="15.0,17.0 15.0,217.0 215.0,217.0 215.0,17.0" stroke="rgb(0,0,0)" stroke-width="0.25mm" /><defs /><text alignment-baseline="middle" fill="rgb(0,0,255)" font-family="Verdana" font-size="18" text-anchor="middle" x="115.0" y="51.0">name</text><defs /><polygon fill="url(#2)" points="215.0,17.0 415.0,47.0 415.0,67.0 415.0,67.0 215.0,37.0 215.0,17.0" stroke="rgb(0,0,0)" stroke-width="0.25mm" /><defs><linearGradient id="2" x1="0%" x2="0%" y1="0%" y2="100%"><stop offset="0" stop-color="rgb(0, 0, 0)" stop-opacity="1" /><stop offset="0.3" stop-color="rgb(0, 0, 255)" stop-opacity="1" /><stop offset="0.7" stop-color="rgb(0, 0, 255)" stop-opacity="1" /><stop offset="1" stop-color="rgb(0, 0, 0)" stop-opacity="1" /></linearGradient></defs><polygon fill="url(#3)" points="235.0,19.0 245.0,43.0 267.0,33.0 281.0,45.0 301.0,39.0 313.0,51.0 333.0,43.0 345.0,57.0 359.0,47.0 367.0,57.0 383.0,51.0 395.0,63.0 411.0,43.0 405.0,41.0 395.0,53.0 385.0,47.0 371.0,51.0 363.0,41.0 347.0,49.0 335.0,37.0 315.0,43.0 303.0,29.0 285.0,39.0 265.0,25.0 247.0,35.0 243.0,17.0 235.0,19.0 235.0,19.0" stroke="rgb(0,0,0)" stroke-width="0.25mm" /><defs><linearGradient id="3" x1="0%" x2="0%" y1="0%" y2="100%"><stop offset="0" stop-color="rgb(0, 0, 0)" stop-opacity="1" /><stop offset="0.3" stop-color="rgb(170, 255, 255)" stop-opacity="1" /><stop offset="0.7" stop-color="rgb(170, 255, 255)" stop-opacity="1" /><stop offset="1" stop-color="rgb(0, 0, 0)" stop-opacity="1" /></linearGradient></defs><text alignment-baseline="middle" fill="rgb(0,0,0)" font-family="Verdana" font-size="18" text-anchor="middle" x="117.0" y="97.0">level =</text><defs /><text alignment-baseline="middle" fill="rgb(0,0,0)" font-family="Verdana" font-size="18" text-anchor="middle" x="115.0" y="165.0">level_start</text><defs /><g id="BottomFluidPort"><ellipse cx="115.0" cy="219.0" fill="rgb(0,127,255)" rx="10.0004632572" ry="9.99953672132" stroke="rgb(0,127,255)" stroke-width="0.25mm" /><defs /><ellipse cx="115.0" cy="219.0" fill="rgb(0,127,255)" rx="10.0004632572" ry="9.99953672132" stroke="rgb(0,0,0)" stroke-width="0.25mm" /><defs /><ellipse cx="115.0" cy="219.0" fill="rgb(255,255,255)" rx="8.00037060577" ry="7.99962937706" stroke="rgb(0,127,255)" stroke-width="0.25mm" /><defs /><g display="none" id="info"><text id="name">BottomFluidPort</text><text id="type">Modelica.Fluid.Interfaces.FluidPort_b</text><text id="classDesc">Generic fluid connector at design outlet</text><text id="desc" /></g></g><g id="TopFluidPort"><ellipse cx="115.0" cy="15.0" fill="rgb(0,127,255)" rx="10.0" ry="10.0" stroke="rgb(0,127,255)" stroke-width="0.25mm" /><defs /><ellipse cx="115.0" cy="15.0" fill="rgb(0,127,255)" rx="10.0" ry="10.0" stroke="rgb(0,0,0)" stroke-width="0.25mm" /><defs /><g display="none" id="info"><text id="name">TopFluidPort</text><text id="type">Modelica.Fluid.Interfaces.FluidPort_a</text><text id="classDesc">Generic fluid connector at design inlet</text><text id="desc" /></g></g><g id="SideFluidPort"><ellipse cx="225.0" cy="117.0" fill="rgb(0,127,255)" rx="10.0" ry="10.0" stroke="rgb(0,127,255)" stroke-width="0.25mm" /><defs /><ellipse cx="225.0" cy="117.0" fill="rgb(0,127,255)" rx="10.0" ry="10.0" stroke="rgb(0,0,0)" stroke-width="0.25mm" /><defs /><ellipse cx="225.0" cy="117.0" fill="rgb(255,255,255)" rx="8.0" ry="8.0" stroke="rgb(0,127,255)" stroke-width="0.25mm" /><defs /><g display="none" id="info"><text id="name">SideFluidPort</text><text id="type">Modelica.Fluid.Interfaces.FluidPort_b</text><text id="classDesc">Generic fluid connector at design outlet</text><text id="desc" /></g></g><g id="Condensed"><ellipse cx="417.0" cy="57.0" fill="rgb(0,127,255)" rx="10.0" ry="10.0" stroke="rgb(0,127,255)" stroke-width="0.25mm" /><defs /><ellipse cx="417.0" cy="57.0" fill="rgb(0,127,255)" rx="10.0" ry="10.0" stroke="rgb(0,0,0)" stroke-width="0.25mm" /><defs /><ellipse cx="417.0" cy="57.0" fill="rgb(255,255,255)" rx="8.0" ry="8.0" stroke="rgb(0,127,255)" stroke-width="0.25mm" /><defs /><g display="none" id="info"><text id="name">Condensed</text><text id="type">Modelica.Fluid.Interfaces.FluidPort_b</text><text id="classDesc">Generic fluid connector at design outlet</text><text id="desc" /></g></g><g id="heatPort"><rect fill="rgb(191,0,0)" height="20.0" stroke="rgb(191,0,0)" stroke-width="0.25mm" width="20.0" x="5.0" y="107.0" /><defs /><g display="none" id="info"><text id="name">heatPort</text><text id="type">Modelica.Thermal.HeatTransfer.Interfaces.HeatPort_a</text><text id="classDesc">Thermal port for 1-dim. heat transfer (filled rectangular icon)</text><text id="desc" /></g></g></svg>