<?xml version="1.0" encoding="utf-8" ?>
<svg baseProfile="full" height="270.0" version="1.1" viewBox="0 0 310.0 270.0" width="310.0" xmlns="http://www.w3.org/2000/svg" xmlns:ev="http://www.w3.org/2001/xml-events" xmlns:xlink="http://www.w3.org/1999/xlink"><defs /><polyline fill="none" points="215.0,55.0 255.0,55.0" stroke="rgb(0,0,255)" stroke-width="0.25mm" /><defs /><polyline fill="none" points="225.0,75.0 245.0,75.0" stroke="rgb(0,0,255)" stroke-width="0.25mm" /><defs /><polyline fill="none" points="221.0,65.0 249.0,65.0" stroke="rgb(0,0,255)" stroke-width="0.25mm" /><defs /><text alignment-baseline="middle" fill="rgb(0,0,255)" font-family="Verdana" font-size="18" text-anchor="middle" x="155.0" y="235.0">name</text><defs /><ellipse cx="105.0" cy="35.0" fill="none" rx="10.0" ry="10.0" stroke="rgb(0,0,255)" stroke-width="0.25mm" /><defs /><ellipse cx="125.0" cy="35.0" fill="none" rx="10.0" ry="10.0" stroke="rgb(0,0,255)" stroke-width="0.25mm" /><defs /><ellipse cx="145.0" cy="35.0" fill="none" rx="10.0" ry="10.0" stroke="rgb(0,0,255)" stroke-width="0.25mm" /><defs /><polyline fill="none" points="75.0,115.0 75.0,135.0" stroke="rgb(0,0,255)" stroke-width="0.25mm" /><defs /><rect fill="none" height="20.0" stroke="rgb(0,0,255)" stroke-width="0.25mm" width="40.0" x="175.0" y="25.0" /><defs /><polyline fill="none" points="215.0,35.0 235.0,35.0 235.0,55.0" stroke="rgb(0,0,255)" stroke-width="0.25mm" /><defs /><polyline fill="none" points="55.0,25.0 55.0,35.0 95.0,35.0" stroke="rgb(0,0,255)" stroke-width="0.25mm" /><defs /><polyline fill="none" points="55.0,25.0 55.0,35.0 75.0,35.0 75.0,55.0" stroke="rgb(0,0,255)" stroke-width="0.25mm" /><defs /><ellipse cx="75.0" cy="65.0" fill="none" rx="10.0" ry="10.0" stroke="rgb(0,0,255)" stroke-width="0.25mm" /><defs /><ellipse cx="75.0" cy="85.0" fill="none" rx="10.0" ry="10.0" stroke="rgb(0,0,255)" stroke-width="0.25mm" /><defs /><ellipse cx="75.0" cy="105.0" fill="none" rx="10.0" ry="10.0" stroke="rgb(0,0,255)" stroke-width="0.25mm" /><defs /><rect fill="rgb(255,255,255)" height="60.0" stroke="rgb(255,255,255)" stroke-width="0.25mm" width="10.0" x="75.0" y="55.0" /><defs /><polyline fill="none" points="155.0,35.0 175.0,35.0" stroke="rgb(0,0,255)" stroke-width="0.25mm" /><defs /><rect fill="none" height="40.0" stroke="rgb(0,0,255)" stroke-width="0.25mm" width="20.0" x="65.0" y="135.0" /><defs /><polyline fill="none" points="55.0,195.0 95.0,195.0" stroke="rgb(0,0,255)" stroke-width="0.25mm" /><defs /><polyline fill="none" points="65.0,215.0 85.0,215.0" stroke="rgb(0,0,255)" stroke-width="0.25mm" /><defs /><polyline fill="none" points="61.0,205.0 89.0,205.0" stroke="rgb(0,0,255)" stroke-width="0.25mm" /><defs /><polyline fill="none" points="75.0,175.0 75.0,195.0" stroke="rgb(0,0,255)" stroke-width="0.25mm" /><defs /><rect fill="rgb(255,255,255)" height="10.0" stroke="rgb(255,255,255)" stroke-width="0.25mm" width="60.0" x="95.0" y="35.0" /><defs /><g id="heatPort"><rect fill="rgb(191,0,0)" height="20.0" stroke="rgb(191,0,0)" stroke-width="0.25mm" width="20.0" x="145.0" y="205.0" /><defs /><g display="none" id="info"><text id="name">heatPort</text><text id="type">Modelica.Thermal.HeatTransfer.Interfaces.HeatPort_a</text><text id="classDesc">Thermal port for 1-dim. heat transfer (filled rectangular icon)</text><text id="desc" /></g></g><g id="spacePhasor_r"><polygon fill="rgb(0,0,255)" points="55.0,5.0 45.0,15.0 55.0,25.0 65.0,15.0 55.0,5.0" stroke="rgb(0,0,255)" stroke-width="0.25mm" /><defs /><g display="none" id="info"><text id="name">spacePhasor_r</text><text id="type">Modelica.Electrical.Machines.Interfaces.SpacePhasor</text><text id="classDesc">Connector for Space Phasors</text><text id="desc" /></g></g></svg>