<?xml version="1.0" encoding="utf-8" ?>
<svg baseProfile="full" height="160.0" version="1.1" viewBox="0 0 250.0 160.0" width="250.0" xmlns="http://www.w3.org/2000/svg" xmlns:ev="http://www.w3.org/2001/xml-events" xmlns:xlink="http://www.w3.org/1999/xlink"><defs /><rect fill="none" height="4.0" stroke="rgb(255,204,51)" stroke-width="0.5mm" width="40.0" x="125.0" y="103.0" /><defs /><path d="M 65.0 55.0 C 145.0 55.0 225.0 55.0 235.0 65.0 235.0 65.0 245.0 75.0 235.0 110.0 235.0 110.0 225.0 145.0 215.0 150.0 215.0 150.0 205.0 155.0 145.0 155.0 145.0 155.0 85.0 155.0 75.0 150.0 75.0 150.0 65.0 145.0 55.0 110.0 55.0 110.0 45.0 75.0 45.0 75.0" fill="rgb(255,215,136)" stroke="rgb(0,0,0)" stroke-width="0.25mm" /><defs /><ellipse cx="85.0" cy="85.0" fill="rgb(0,0,0)" rx="5.0" ry="5.0" stroke="rgb(0,0,0)" stroke-width="0.25mm" /><defs /><ellipse cx="145.0" cy="85.0" fill="rgb(0,0,0)" rx="5.0" ry="5.0" stroke="rgb(0,0,0)" stroke-width="0.25mm" /><defs /><ellipse cx="205.0" cy="85.0" fill="rgb(0,0,0)" rx="5.0" ry="5.0" stroke="rgb(0,0,0)" stroke-width="0.25mm" /><defs /><ellipse cx="115.0" cy="125.0" fill="rgb(0,0,0)" rx="5.0" ry="5.0" stroke="rgb(0,0,0)" stroke-width="0.25mm" /><defs /><ellipse cx="175.0" cy="125.0" fill="rgb(0,0,0)" rx="5.0" ry="5.0" stroke="rgb(0,0,0)" stroke-width="0.25mm" /><defs /><rect fill="none" height="4.0" stroke="rgb(255,204,51)" stroke-width="0.5mm" width="42.0" x="125.0" y="103.0" /><defs /><g id="axisControlBus1"><polyline fill="none" points="21.8,104.6 28.2,104.6" stroke="rgb(255,204,51)" stroke-width="0.5mm" /><defs /><rect fill="none" height="1.6" stroke="rgb(255,204,51)" stroke-width="0.5mm" width="3.6" x="23.0" y="103.4" /><defs /><path d="M 9.0 95.0 C 25.0 95.0 41.0 95.0 43.0 97.0 43.0 97.0 45.0 99.0 43.0 106.0 43.0 106.0 41.0 113.0 39.0 114.0 39.0 114.0 37.0 115.0 25.0 115.0 25.0 115.0 13.0 115.0 11.0 114.0 11.0 114.0 9.0 113.0 7.0 106.0 7.0 106.0 5.0 99.0 5.0 99.0" fill="rgb(255,215,136)" stroke="rgb(0,0,0)" stroke-width="0.25mm" /><defs /><ellipse cx="15.0" cy="101.0" fill="rgb(0,0,0)" rx="1.0" ry="1.0" stroke="rgb(0,0,0)" stroke-width="0.25mm" /><defs /><ellipse cx="35.0" cy="101.0" fill="rgb(0,0,0)" rx="1.0" ry="1.0" stroke="rgb(0,0,0)" stroke-width="0.25mm" /><defs /><ellipse cx="25.0" cy="109.0" fill="rgb(0,0,0)" rx="1.0" ry="1.0" stroke="rgb(0,0,0)" stroke-width="0.25mm" /><defs /><rect fill="none" height="0.8" stroke="rgb(255,215,136)" stroke-width="0.5mm" width="8.0" x="21.0" y="104.2" /><defs /><rect fill="none" height="0.8" stroke="rgb(255,204,51)" stroke-width="0.5mm" width="8.4" x="21.0" y="104.6" /><defs /><g display="none" id="info"><text id="name">axisControlBus1</text><text id="type">Modelica.Mechanics.MultiBody.Examples.Systems.RobotR3.Components.AxisControlBus</text><text id="classDesc">Data bus for one robot axis</text><text id="desc">Bus of axis 1</text></g></g><g id="axisControlBus2"><polyline fill="none" points="21.8,104.6 28.2,104.6" stroke="rgb(255,204,51)" stroke-width="0.5mm" /><defs /><rect fill="none" height="1.6" stroke="rgb(255,204,51)" stroke-width="0.5mm" width="3.6" x="23.0" y="103.4" /><defs /><path d="M 9.0 95.0 C 25.0 95.0 41.0 95.0 43.0 97.0 43.0 97.0 45.0 99.0 43.0 106.0 43.0 106.0 41.0 113.0 39.0 114.0 39.0 114.0 37.0 115.0 25.0 115.0 25.0 115.0 13.0 115.0 11.0 114.0 11.0 114.0 9.0 113.0 7.0 106.0 7.0 106.0 5.0 99.0 5.0 99.0" fill="rgb(255,215,136)" stroke="rgb(0,0,0)" stroke-width="0.25mm" /><defs /><ellipse cx="15.0" cy="101.0" fill="rgb(0,0,0)" rx="1.0" ry="1.0" stroke="rgb(0,0,0)" stroke-width="0.25mm" /><defs /><ellipse cx="35.0" cy="101.0" fill="rgb(0,0,0)" rx="1.0" ry="1.0" stroke="rgb(0,0,0)" stroke-width="0.25mm" /><defs /><ellipse cx="25.0" cy="109.0" fill="rgb(0,0,0)" rx="1.0" ry="1.0" stroke="rgb(0,0,0)" stroke-width="0.25mm" /><defs /><rect fill="none" height="0.8" stroke="rgb(255,215,136)" stroke-width="0.5mm" width="8.0" x="21.0" y="104.2" /><defs /><rect fill="none" height="0.8" stroke="rgb(255,204,51)" stroke-width="0.5mm" width="8.4" x="21.0" y="104.6" /><defs /><g display="none" id="info"><text id="name">axisControlBus2</text><text id="type">Modelica.Mechanics.MultiBody.Examples.Systems.RobotR3.Components.AxisControlBus</text><text id="classDesc">Data bus for one robot axis</text><text id="desc">Bus of axis 2</text></g></g><g id="axisControlBus3"><polyline fill="none" points="21.8,104.6 28.2,104.6" stroke="rgb(255,204,51)" stroke-width="0.5mm" /><defs /><rect fill="none" height="1.6" stroke="rgb(255,204,51)" stroke-width="0.5mm" width="3.6" x="23.0" y="103.4" /><defs /><path d="M 9.0 95.0 C 25.0 95.0 41.0 95.0 43.0 97.0 43.0 97.0 45.0 99.0 43.0 106.0 43.0 106.0 41.0 113.0 39.0 114.0 39.0 114.0 37.0 115.0 25.0 115.0 25.0 115.0 13.0 115.0 11.0 114.0 11.0 114.0 9.0 113.0 7.0 106.0 7.0 106.0 5.0 99.0 5.0 99.0" fill="rgb(255,215,136)" stroke="rgb(0,0,0)" stroke-width="0.25mm" /><defs /><ellipse cx="15.0" cy="101.0" fill="rgb(0,0,0)" rx="1.0" ry="1.0" stroke="rgb(0,0,0)" stroke-width="0.25mm" /><defs /><ellipse cx="35.0" cy="101.0" fill="rgb(0,0,0)" rx="1.0" ry="1.0" stroke="rgb(0,0,0)" stroke-width="0.25mm" /><defs /><ellipse cx="25.0" cy="109.0" fill="rgb(0,0,0)" rx="1.0" ry="1.0" stroke="rgb(0,0,0)" stroke-width="0.25mm" /><defs /><rect fill="none" height="0.8" stroke="rgb(255,215,136)" stroke-width="0.5mm" width="8.0" x="21.0" y="104.2" /><defs /><rect fill="none" height="0.8" stroke="rgb(255,204,51)" stroke-width="0.5mm" width="8.4" x="21.0" y="104.6" /><defs /><g display="none" id="info"><text id="name">axisControlBus3</text><text id="type">Modelica.Mechanics.MultiBody.Examples.Systems.RobotR3.Components.AxisControlBus</text><text id="classDesc">Data bus for one robot axis</text><text id="desc">Bus of axis 3</text></g></g><g id="axisControlBus4"><polyline fill="none" points="21.8,104.6 28.2,104.6" stroke="rgb(255,204,51)" stroke-width="0.5mm" /><defs /><rect fill="none" height="1.6" stroke="rgb(255,204,51)" stroke-width="0.5mm" width="3.6" x="23.0" y="103.4" /><defs /><path d="M 9.0 95.0 C 25.0 95.0 41.0 95.0 43.0 97.0 43.0 97.0 45.0 99.0 43.0 106.0 43.0 106.0 41.0 113.0 39.0 114.0 39.0 114.0 37.0 115.0 25.0 115.0 25.0 115.0 13.0 115.0 11.0 114.0 11.0 114.0 9.0 113.0 7.0 106.0 7.0 106.0 5.0 99.0 5.0 99.0" fill="rgb(255,215,136)" stroke="rgb(0,0,0)" stroke-width="0.25mm" /><defs /><ellipse cx="15.0" cy="101.0" fill="rgb(0,0,0)" rx="1.0" ry="1.0" stroke="rgb(0,0,0)" stroke-width="0.25mm" /><defs /><ellipse cx="35.0" cy="101.0" fill="rgb(0,0,0)" rx="1.0" ry="1.0" stroke="rgb(0,0,0)" stroke-width="0.25mm" /><defs /><ellipse cx="25.0" cy="109.0" fill="rgb(0,0,0)" rx="1.0" ry="1.0" stroke="rgb(0,0,0)" stroke-width="0.25mm" /><defs /><rect fill="none" height="0.8" stroke="rgb(255,215,136)" stroke-width="0.5mm" width="8.0" x="21.0" y="104.2" /><defs /><rect fill="none" height="0.8" stroke="rgb(255,204,51)" stroke-width="0.5mm" width="8.4" x="21.0" y="104.6" /><defs /><g display="none" id="info"><text id="name">axisControlBus4</text><text id="type">Modelica.Mechanics.MultiBody.Examples.Systems.RobotR3.Components.AxisControlBus</text><text id="classDesc">Data bus for one robot axis</text><text id="desc">Bus of axis 4</text></g></g><g id="axisControlBus5"><polyline fill="none" points="21.8,104.6 28.2,104.6" stroke="rgb(255,204,51)" stroke-width="0.5mm" /><defs /><rect fill="none" height="1.6" stroke="rgb(255,204,51)" stroke-width="0.5mm" width="3.6" x="23.0" y="103.4" /><defs /><path d="M 9.0 95.0 C 25.0 95.0 41.0 95.0 43.0 97.0 43.0 97.0 45.0 99.0 43.0 106.0 43.0 106.0 41.0 113.0 39.0 114.0 39.0 114.0 37.0 115.0 25.0 115.0 25.0 115.0 13.0 115.0 11.0 114.0 11.0 114.0 9.0 113.0 7.0 106.0 7.0 106.0 5.0 99.0 5.0 99.0" fill="rgb(255,215,136)" stroke="rgb(0,0,0)" stroke-width="0.25mm" /><defs /><ellipse cx="15.0" cy="101.0" fill="rgb(0,0,0)" rx="1.0" ry="1.0" stroke="rgb(0,0,0)" stroke-width="0.25mm" /><defs /><ellipse cx="35.0" cy="101.0" fill="rgb(0,0,0)" rx="1.0" ry="1.0" stroke="rgb(0,0,0)" stroke-width="0.25mm" /><defs /><ellipse cx="25.0" cy="109.0" fill="rgb(0,0,0)" rx="1.0" ry="1.0" stroke="rgb(0,0,0)" stroke-width="0.25mm" /><defs /><rect fill="none" height="0.8" stroke="rgb(255,215,136)" stroke-width="0.5mm" width="8.0" x="21.0" y="104.2" /><defs /><rect fill="none" height="0.8" stroke="rgb(255,204,51)" stroke-width="0.5mm" width="8.4" x="21.0" y="104.6" /><defs /><g display="none" id="info"><text id="name">axisControlBus5</text><text id="type">Modelica.Mechanics.MultiBody.Examples.Systems.RobotR3.Components.AxisControlBus</text><text id="classDesc">Data bus for one robot axis</text><text id="desc">Bus of axis 5</text></g></g><g id="axisControlBus6"><polyline fill="none" points="21.8,104.6 28.2,104.6" stroke="rgb(255,204,51)" stroke-width="0.5mm" /><defs /><rect fill="none" height="1.6" stroke="rgb(255,204,51)" stroke-width="0.5mm" width="3.6" x="23.0" y="103.4" /><defs /><path d="M 9.0 95.0 C 25.0 95.0 41.0 95.0 43.0 97.0 43.0 97.0 45.0 99.0 43.0 106.0 43.0 106.0 41.0 113.0 39.0 114.0 39.0 114.0 37.0 115.0 25.0 115.0 25.0 115.0 13.0 115.0 11.0 114.0 11.0 114.0 9.0 113.0 7.0 106.0 7.0 106.0 5.0 99.0 5.0 99.0" fill="rgb(255,215,136)" stroke="rgb(0,0,0)" stroke-width="0.25mm" /><defs /><ellipse cx="15.0" cy="101.0" fill="rgb(0,0,0)" rx="1.0" ry="1.0" stroke="rgb(0,0,0)" stroke-width="0.25mm" /><defs /><ellipse cx="35.0" cy="101.0" fill="rgb(0,0,0)" rx="1.0" ry="1.0" stroke="rgb(0,0,0)" stroke-width="0.25mm" /><defs /><ellipse cx="25.0" cy="109.0" fill="rgb(0,0,0)" rx="1.0" ry="1.0" stroke="rgb(0,0,0)" stroke-width="0.25mm" /><defs /><rect fill="none" height="0.8" stroke="rgb(255,215,136)" stroke-width="0.5mm" width="8.0" x="21.0" y="104.2" /><defs /><rect fill="none" height="0.8" stroke="rgb(255,204,51)" stroke-width="0.5mm" width="8.4" x="21.0" y="104.6" /><defs /><g display="none" id="info"><text id="name">axisControlBus6</text><text id="type">Modelica.Mechanics.MultiBody.Examples.Systems.RobotR3.Components.AxisControlBus</text><text id="classDesc">Data bus for one robot axis</text><text id="desc">Bus of axis 6</text></g></g></svg>