<?xml version="1.0" encoding="utf-8" ?>
<svg baseProfile="full" height="251.6771" version="1.1" viewBox="0 0 220.4708 251.6771" width="220.4708" xmlns="http://www.w3.org/2000/svg" xmlns:ev="http://www.w3.org/2001/xml-events" xmlns:xlink="http://www.w3.org/1999/xlink"><defs /><rect fill="url(#0)" height="200.0" rx="25.0" ry="25.0" stroke="rgb(200,200,200)" stroke-width="0.25mm" width="200.0" x="5.0" y="46.6771" /><defs><linearGradient id="0" x1="0%" x2="0%" y1="0%" y2="100%"><stop offset="0" stop-color="rgb(200, 200, 200)" stop-opacity="1" /><stop offset="0.3" stop-color="rgb(248, 248, 248)" stop-opacity="1" /><stop offset="0.7" stop-color="rgb(248, 248, 248)" stop-opacity="1" /><stop offset="1" stop-color="rgb(200, 200, 200)" stop-opacity="1" /></linearGradient></defs><rect fill="none" height="200.0" rx="25.0" ry="25.0" stroke="rgb(128,128,128)" stroke-width="0.25mm" width="200.0" x="5.0" y="46.6771" /><defs /><polygon fill="rgb(160,160,164)" points="135.0,96.6771 55.0,96.6771 55.0,196.6771 135.0,196.6771 135.0,176.6771 80.0,176.6771 80.0,116.6771 135.0,116.6771" stroke="rgb(0,0,0)" stroke-width="0.25mm" /><defs /><ellipse cx="33.4708" cy="125.0" fill="none" rx="4.0" ry="4.0" stroke="rgb(0,0,0)" stroke-width="0.25mm" /><defs /><polyline fill="none" points="51.4708,125.0 37.4708,125.0" stroke="rgb(0,0,0)" stroke-width="0.25mm" /><defs /><polyline fill="none" points="51.2896,136.6229 83.4708,145.0" stroke="rgb(0,0,0)" stroke-width="0.25mm" /><defs /><polyline fill="none" points="51.4708,125.0 83.4708,133.0" stroke="rgb(0,0,0)" stroke-width="0.25mm" /><defs /><ellipse cx="33.4708" cy="161.0" fill="none" rx="4.0" ry="4.0" stroke="rgb(0,0,0)" stroke-width="0.25mm" /><defs /><polyline fill="none" points="51.4708,161.0 37.4708,161.0" stroke="rgb(0,0,0)" stroke-width="0.25mm" /><defs /><polyline fill="none" points="51.4708,149.0 83.4708,157.0" stroke="rgb(0,0,0)" stroke-width="0.25mm" /><defs /><polyline fill="none" points="51.4708,161.0 83.4708,169.0" stroke="rgb(0,0,0)" stroke-width="0.25mm" /><defs /><rect fill="rgb(160,160,164)" height="100.0" stroke="rgb(0,0,0)" stroke-width="0.25mm" width="25.0" x="155.0" y="96.6771" /><defs /></svg>