<?xml version="1.0" encoding="utf-8" ?>
<svg baseProfile="full" height="200.0" version="1.1" viewBox="0 0 210.0 200.0" width="210.0" xmlns="http://www.w3.org/2000/svg" xmlns:ev="http://www.w3.org/2001/xml-events" xmlns:xlink="http://www.w3.org/1999/xlink"><defs /><rect fill="url(#0)" height="20.0" stroke="rgb(64,64,64)" stroke-width="0.25mm" width="40.0" x="5.0" y="95.0" /><defs><linearGradient id="0" x1="0%" x2="0%" y1="0%" y2="100%"><stop offset="0" stop-color="rgb(64, 64, 64)" stop-opacity="1" /><stop offset="0.3" stop-color="rgb(192, 192, 192)" stop-opacity="1" /><stop offset="0.7" stop-color="rgb(192, 192, 192)" stop-opacity="1" /><stop offset="1" stop-color="rgb(64, 64, 64)" stop-opacity="1" /></linearGradient></defs><polygon fill="url(#1)" points="45.0,95.0 45.0,85.0 65.0,65.0 65.0,145.0 45.0,125.0 45.0,95.0" stroke="rgb(0,0,0)" stroke-width="0.25mm" /><defs><linearGradient id="1" x1="0%" x2="0%" y1="0%" y2="100%"><stop offset="0" stop-color="rgb(0, 0, 0)" stop-opacity="1" /><stop offset="0.3" stop-color="rgb(192, 192, 192)" stop-opacity="1" /><stop offset="0.7" stop-color="rgb(192, 192, 192)" stop-opacity="1" /><stop offset="1" stop-color="rgb(0, 0, 0)" stop-opacity="1" /></linearGradient></defs><rect fill="url(#2)" height="120.0" rx="10.0" ry="10.0" stroke="rgb(64,64,64)" stroke-width="0.25mm" width="80.0" x="65.0" y="45.0" /><defs><linearGradient id="2" x1="0%" x2="0%" y1="0%" y2="100%"><stop offset="0" stop-color="rgb(64, 64, 64)" stop-opacity="1" /><stop offset="0.3" stop-color="rgb(255, 255, 255)" stop-opacity="1" /><stop offset="0.7" stop-color="rgb(255, 255, 255)" stop-opacity="1" /><stop offset="1" stop-color="rgb(64, 64, 64)" stop-opacity="1" /></linearGradient></defs><rect fill="none" height="120.0" rx="10.0" ry="10.0" stroke="rgb(64,64,64)" stroke-width="0.25mm" width="80.0" x="65.0" y="45.0" /><defs /><polygon fill="url(#3)" points="165.0,85.0 145.0,65.0 145.0,145.0 165.0,125.0 165.0,85.0" stroke="rgb(0,0,0)" stroke-width="0.25mm" /><defs><linearGradient id="3" x1="0%" x2="0%" y1="0%" y2="100%"><stop offset="0" stop-color="rgb(0, 0, 0)" stop-opacity="1" /><stop offset="0.3" stop-color="rgb(192, 192, 192)" stop-opacity="1" /><stop offset="0.7" stop-color="rgb(192, 192, 192)" stop-opacity="1" /><stop offset="1" stop-color="rgb(0, 0, 0)" stop-opacity="1" /></linearGradient></defs><rect fill="url(#4)" height="20.0" stroke="rgb(64,64,64)" stroke-width="0.25mm" width="40.0" x="165.0" y="95.0" /><defs><linearGradient id="4" x1="0%" x2="0%" y1="0%" y2="100%"><stop offset="0" stop-color="rgb(64, 64, 64)" stop-opacity="1" /><stop offset="0.3" stop-color="rgb(192, 192, 192)" stop-opacity="1" /><stop offset="0.7" stop-color="rgb(192, 192, 192)" stop-opacity="1" /><stop offset="1" stop-color="rgb(64, 64, 64)" stop-opacity="1" /></linearGradient></defs><polygon fill="rgb(64,64,64)" points="45.0,185.0 55.0,185.0 85.0,125.0 125.0,125.0 153.0,185.0 165.0,185.0 165.0,195.0 45.0,195.0 45.0,185.0" stroke="rgb(0,0,0)" stroke-width="0.25mm" /><defs /></svg>