<?xml version="1.0" encoding="utf-8" ?>
<svg baseProfile="full" height="230.0" version="1.1" viewBox="0 0 310.0 230.0" width="310.0" xmlns="http://www.w3.org/2000/svg" xmlns:ev="http://www.w3.org/2001/xml-events" xmlns:xlink="http://www.w3.org/1999/xlink"><defs /><ellipse cx="155.0" cy="125.0" fill="rgb(255,255,255)" rx="50.0" ry="50.0" stroke="rgb(0,0,255)" stroke-width="0.25mm" /><defs /><text alignment-baseline="middle" fill="rgb(0,0,255)" font-family="Verdana" font-size="18" text-anchor="middle" x="155.0" y="25.0">name</text><defs /><polyline fill="none" points="65.0,125.0 245.0,125.0" stroke="rgb(0,0,255)" stroke-width="0.25mm" /><defs /><text alignment-baseline="middle" fill="rgb(0,0,255)" font-family="Verdana" font-size="18" text-anchor="middle" x="85.0" y="100.0">+</text><defs /><text alignment-baseline="middle" fill="rgb(0,0,255)" font-family="Verdana" font-size="18" text-anchor="middle" x="225.0" y="100.0">-</text><defs /><polyline fill="none" points="91.0,139.0 95.8,106.7 99.0,88.7 102.3,74.5 105.5,64.8 108.7,59.7 111.9,59.4 115.1,63.7 118.3,71.9 122.4,86.8 128.0,113.2 136.0,152.9 140.8,172.7 144.9,184.9 148.9,192.2 152.9,194.3 156.9,191.5 160.9,184.3 165.77,171.1 179.44,125.3 184.3,112.6 189.1,104.2 193.1,101.0 197.9,101.8 202.8,107.2 209.2,119.6 222.1,149.5 228.5,160.2 234.1,164.9 239.7,164.9 246.2,159.5 251.0,152.8" stroke="rgb(192,192,192)" stroke-width="0.25mm" /><defs /><g id="p"><rect fill="rgb(0,0,255)" height="40.0" stroke="rgb(0,0,255)" stroke-width="0.25mm" width="40.0" x="15.0" y="105.0" /><defs /><g display="none" id="info"><text id="name">p</text><text id="type">Modelica.Electrical.Analog.Interfaces.PositivePin</text><text id="classDesc">Positive pin of an electric component</text><text id="desc">Positive pin (potential p.v &gt; n.v for positive voltage drop v)</text></g></g><g id="n"><rect fill="rgb(255,255,255)" height="40.0" stroke="rgb(0,0,255)" stroke-width="0.25mm" width="40.0" x="15.0" y="105.0" /><defs /><g display="none" id="info"><text id="name">n</text><text id="type">Modelica.Electrical.Analog.Interfaces.NegativePin</text><text id="classDesc">Negative pin of an electric component</text><text id="desc">Negative pin</text></g></g></svg>