<?xml version="1.0" encoding="utf-8" ?>
<svg baseProfile="full" height="270.0" version="1.1" viewBox="0 0 310.0 270.0" width="310.0" xmlns="http://www.w3.org/2000/svg" xmlns:ev="http://www.w3.org/2001/xml-events" xmlns:xlink="http://www.w3.org/1999/xlink"><defs /><rect fill="rgb(255,255,255)" height="200.0" stroke="rgb(0,0,0)" stroke-width="0.25mm" width="200.0" x="55.0" y="5.0" /><defs /><polyline fill="none" points="155.0,165.0 215.0,45.0" stroke="rgb(0,0,0)" stroke-dasharray="4.0 2.0" stroke-width="0.25mm" /><defs /><polyline fill="none" points="95.0,165.0 215.0,45.0" stroke="rgb(0,0,0)" stroke-width="0.25mm" /><defs /><polygon fill="rgb(0,0,0)" points="77.0,165.0 79.0,165.0 217.0,165.0 217.0,159.0 237.0,165.0 217.0,171.0 217.0,165.0 217.0,165.0 77.0,165.0" stroke="rgb(0,0,0)" stroke-width="0.25mm" /><defs /><polygon fill="rgb(0,0,0)" points="155.0,185.0 155.0,45.0 149.0,45.0 155.0,25.0 161.0,45.0 155.0,45.0 155.0,185.0" stroke="rgb(0,0,0)" stroke-width="0.25mm" /><defs /><text alignment-baseline="middle" fill="rgb(0,0,255)" font-family="Verdana" font-size="18" text-anchor="middle" x="155.0" y="245.0">name</text><defs /><g id="v"><polygon fill="rgb(0,0,127)" points="15.0,85.0 55.0,105.0 15.0,125.0" stroke="rgb(0,0,127)" stroke-width="0.25mm" /><defs /><g display="none" id="info"><text id="name">v</text><text id="type">Modelica.Blocks.Interfaces.RealInput</text><text id="classDesc">'input Real' as connector</text><text id="desc">Voltage</text></g></g><g id="dutyCycle"><polygon fill="rgb(255,255,255)" points="15.0,85.0 55.0,105.0 15.0,125.0" stroke="rgb(0,0,127)" stroke-width="0.25mm" /><defs /><g display="none" id="info"><text id="name">dutyCycle</text><text id="type">Modelica.Blocks.Interfaces.RealOutput</text><text id="classDesc">'output Real' as connector</text><text id="desc">Duty cycle</text></g></g></svg>