<?xml version="1.0" encoding="utf-8" ?>
<svg baseProfile="full" height="209.0" version="1.1" viewBox="0 0 310.0 209.0" width="310.0" xmlns="http://www.w3.org/2000/svg" xmlns:ev="http://www.w3.org/2001/xml-events" xmlns:xlink="http://www.w3.org/1999/xlink"><defs /><text alignment-baseline="middle" fill="rgb(0,0,255)" font-family="Verdana" font-size="18" text-anchor="middle" x="155.0" y="25.0">name</text><defs /><polygon fill="rgb(192,192,192)" points="155.0,48.0 135.0,52.0 115.0,58.0 103.0,72.0 97.0,80.0 87.0,90.0 83.0,102.0 79.0,116.0 77.0,130.0 79.0,146.0 79.0,158.0 79.0,168.0 85.0,180.0 91.0,188.0 107.0,192.0 125.0,198.0 137.0,198.0 153.0,200.0 163.0,204.0 177.0,204.0 187.0,202.0 197.0,196.0 209.0,190.0 211.0,188.0 221.0,176.0 223.0,168.0 225.0,166.0 227.0,150.0 231.0,136.0 233.0,128.0 233.0,112.0 229.0,100.0 221.0,90.0 209.0,82.0 199.0,74.0 191.0,58.0 181.0,50.0 155.0,48.0" stroke="rgb(160,160,164)" stroke-width="0.25mm" /><defs /><polygon fill="rgb(160,160,164)" points="97.0,80.0 87.0,90.0 83.0,102.0 79.0,116.0 77.0,130.0 79.0,146.0 79.0,158.0 79.0,168.0 85.0,180.0 91.0,188.0 107.0,192.0 125.0,198.0 137.0,198.0 153.0,200.0 163.0,204.0 177.0,204.0 187.0,202.0 197.0,196.0 209.0,190.0 197.0,192.0 195.0,192.0 185.0,194.0 175.0,196.0 173.0,196.0 165.0,196.0 157.0,192.0 143.0,188.0 133.0,188.0 125.0,186.0 115.0,180.0 105.0,170.0 99.0,158.0 97.0,150.0 97.0,140.0 95.0,128.0 95.0,120.0 95.0,108.0 97.0,98.0 99.0,96.0 103.0,88.0 107.0,80.0 111.0,70.0 115.0,58.0 97.0,80.0" stroke="rgb(0,0,0)" stroke-width="0.25mm" /><defs /><text alignment-baseline="middle" fill="rgb(0,0,0)" font-family="Verdana" font-size="18" text-anchor="middle" x="156.0" y="123.5">C</text><defs /><g id="port"><rect fill="rgb(191,0,0)" height="40.0" stroke="rgb(191,0,0)" stroke-width="0.25mm" width="40.0" x="15.0" y="95.0" /><defs /><g display="none" id="info"><text id="name">port</text><text id="type">Modelica.Thermal.HeatTransfer.Interfaces.HeatPort_a</text><text id="classDesc">Thermal port for 1-dim. heat transfer (filled rectangular icon)</text><text id="desc" /></g></g></svg>