<?xml version="1.0" encoding="utf-8" ?>
<svg baseProfile="full" height="234.0" version="1.1" viewBox="0 0 298.0 234.0" width="298.0" xmlns="http://www.w3.org/2000/svg" xmlns:ev="http://www.w3.org/2001/xml-events" xmlns:xlink="http://www.w3.org/1999/xlink"><defs /><rect fill="none" height="204.0" stroke="rgb(255,0,0)" stroke-dasharray="8.0 4.0" stroke-width="0.5mm" width="204.0" x="43.0" y="19.0" /><defs /><text alignment-baseline="middle" fill="rgb(128,128,128)" font-family="Verdana" font-size="18" text-anchor="middle" x="257.0" y="153.5">b</text><defs /><text alignment-baseline="middle" fill="rgb(192,192,192)" font-family="Verdana" font-size="18" text-anchor="middle" x="130.0" y="78.0">resolve</text><defs /><polygon fill="rgb(0,0,0)" points="45.0,111.0 195.0,111.0 195.0,90.0 239.0,121.0 195.0,152.0 195.0,131.0 45.0,131.0 45.0,111.0" stroke="rgb(0,0,0)" stroke-width="0.25mm" /><defs /><text alignment-baseline="middle" fill="rgb(0,0,0)" font-family="Verdana" font-size="18" text-anchor="middle" x="150.5" y="198.5">name</text><defs /><polyline fill="none" points="45.0,111.0 53.0,95.0 61.0,79.0 69.0,69.0 85.0,53.0 99.0,45.0 114.0,39.0 128.0,36.0 143.0,34.0 159.0,35.0 171.0,39.0 182.0,46.0 191.0,52.0 199.0,60.0 205.0,67.0" stroke="rgb(0,0,0)" stroke-width="0.25mm" /><defs /><polygon fill="rgb(0,0,0)" points="244.0,100.0 219.0,41.0 185.0,76.0 244.0,100.0" stroke="rgb(0,0,0)" stroke-width="0.25mm" /><defs /><polyline fill="none" points="145.0,26.0 145.0,111.0" stroke="rgb(95,95,95)" stroke-dasharray="1.0 2.0" stroke-width="0.25mm" /><defs /><g id="frame_b"><rect fill="none" height="3.2" stroke="rgb(95,95,95)" stroke-width="0.5mm" width="3.2" x="243.4" y="119.4" /><defs /><rect fill="rgb(255,255,255)" height="32.0" stroke="rgb(0,0,0)" stroke-width="0.25mm" width="9.6" x="240.2" y="105.0" /><defs /><g display="none" id="info"><text id="name">frame_b</text><text id="type">Modelica.Mechanics.MultiBody.Interfaces.Frame_b</text><text id="classDesc">Coordinate system fixed to the component with one cut-force and cut-torque (non-filled rectangular icon)</text><text id="desc">Coordinate system fixed to the component with one cut-force and cut-torque</text></g></g><g id="frame_resolve"><rect fill="none" height="3.20044470632" stroke="rgb(95,95,95)" stroke-dasharray="1.0 2.0" stroke-width="0.25mm" width="3.19955523187" x="143.400222384" y="19.3997776468" /><defs /><rect fill="rgb(255,255,255)" height="9.60444727958" stroke="rgb(95,95,95)" stroke-dasharray="1.0 2.0" stroke-width="0.25mm" width="31.9986654793" x="129.00066726" y="16.1977763602" /><defs /><g display="none" id="info"><text id="name">frame_resolve</text><text id="type">Modelica.Mechanics.MultiBody.Interfaces.Frame_resolve</text><text id="classDesc">Coordinate system fixed to the component used to express in which
coordinate system a vector is resolved (non-filled rectangular icon)</text><text id="desc">If connected, the input signals are resolved in this frame</text></g></g><g id="load"><polygon fill="rgb(0,0,127)" points="5.0,101.0 45.0,121.0 5.0,141.0" stroke="rgb(0,0,127)" stroke-width="0.25mm" /><defs /><g display="none" id="info"><text id="name">load</text><text id="type">Modelica.Blocks.Interfaces.RealInput</text><text id="classDesc">'input Real' as connector</text><text id="desc" /></g></g></svg>