<?xml version="1.0" encoding="utf-8" ?>
<svg baseProfile="full" height="260.0" version="1.1" viewBox="0 0 310.0 260.0" width="310.0" xmlns="http://www.w3.org/2000/svg" xmlns:ev="http://www.w3.org/2001/xml-events" xmlns:xlink="http://www.w3.org/1999/xlink"><defs /><rect fill="rgb(255,255,255)" height="200.0" stroke="rgb(0,0,127)" stroke-width="0.25mm" width="200.0" x="55.0" y="55.0" /><defs /><text alignment-baseline="middle" fill="rgb(0,0,255)" font-family="Verdana" font-size="18" text-anchor="middle" x="155.0" y="25.0">name</text><defs /><polyline fill="none" points="95.0,95.0 95.0,215.0 215.0,215.0" stroke="rgb(0,0,255)" stroke-width="0.25mm" /><defs /><polyline fill="none" points="55.0,255.0 255.0,55.0" stroke="rgb(0,0,255)" stroke-width="0.25mm" /><defs /><polygon fill="none" points="181.0,129.0 169.0,135.0 175.0,141.0 181.0,129.0" stroke="rgb(0,0,255)" stroke-width="0.25mm" /><defs /><path d="M 137.0 173.0 C 139.0 175.0 141.0 177.0 143.0 180.0 143.0 180.0 145.0 183.0 147.0 186.0 147.0 186.0 149.0 189.0 151.0 194.0 151.0 194.0 153.0 199.0 154.0 203.0 154.0 203.0 155.0 207.0 155.0 211.0 155.0 211.0 155.0 215.0 155.0 215.0" fill="none" stroke="rgb(0,0,255)" stroke-width="0.25mm" /><defs /><polygon fill="none" points="137.0,173.0 141.0,181.0 145.0,177.0 137.0,173.0" stroke="rgb(0,0,255)" stroke-width="0.25mm" /><defs /><text alignment-baseline="middle" fill="rgb(0,0,255)" font-family="Verdana" font-size="18" text-anchor="middle" x="102.0" y="108.0">P</text><defs /><text alignment-baseline="middle" fill="rgb(0,0,255)" font-family="Verdana" font-size="18" text-anchor="middle" x="208.0" y="202.0">R</text><defs /><g id="u"><polygon fill="rgb(0,0,127)" points="15.0,135.0 55.0,155.0 15.0,175.0" stroke="rgb(0,0,127)" stroke-width="0.25mm" /><defs /><g display="none" id="info"><text id="name">u</text><text id="type">Modelica.Blocks.Interfaces.RealInput</text><text id="classDesc">'input Real' as connector</text><text id="desc" /></g></g><g id="y"><polygon fill="rgb(255,255,255)" points="15.0,135.0 55.0,155.0 15.0,175.0" stroke="rgb(0,0,127)" stroke-width="0.25mm" /><defs /><g display="none" id="info"><text id="name">y</text><text id="type">Modelica.Blocks.Interfaces.RealOutput</text><text id="classDesc">'output Real' as connector</text><text id="desc" /></g></g></svg>