<?xml version="1.0" encoding="utf-8" ?>
<svg baseProfile="full" height="220.0" version="1.1" viewBox="0 0 298.0 220.0" width="298.0" xmlns="http://www.w3.org/2000/svg" xmlns:ev="http://www.w3.org/2001/xml-events" xmlns:xlink="http://www.w3.org/1999/xlink"><defs /><rect fill="none" height="204.0" stroke="rgb(255,0,0)" stroke-dasharray="8.0 4.0" stroke-width="0.5mm" width="204.0" x="43.0" y="5.0" /><defs /><text alignment-baseline="middle" fill="rgb(128,128,128)" font-family="Verdana" font-size="18" text-anchor="middle" x="257.0" y="139.5">b</text><defs /><text alignment-baseline="middle" fill="rgb(192,192,192)" font-family="Verdana" font-size="18" text-anchor="middle" x="130.0" y="64.0">world</text><defs /><polygon fill="rgb(0,0,0)" points="45.0,97.0 195.0,97.0 195.0,76.0 239.0,107.0 195.0,138.0 195.0,117.0 45.0,117.0 45.0,97.0" stroke="rgb(0,0,0)" stroke-width="0.25mm" /><defs /><text alignment-baseline="middle" fill="rgb(0,0,0)" font-family="Verdana" font-size="18" text-anchor="middle" x="150.5" y="184.5">name</text><defs /><polyline fill="none" points="47.0,93.0 53.0,80.0 61.0,65.0 73.0,45.0 82.0,33.0 95.0,21.0 112.0,12.0 125.0,9.0 139.0,9.0 154.0,13.0 166.0,20.0 179.0,28.0 191.0,38.0 199.0,46.0 205.0,53.0" stroke="rgb(0,0,0)" stroke-width="0.5mm" /><defs /><polygon fill="rgb(0,0,0)" points="244.0,86.0 219.0,27.0 185.0,62.0 244.0,86.0" stroke="rgb(0,0,0)" stroke-width="0.25mm" /><defs /><g id="frame_b"><rect fill="none" height="3.2" stroke="rgb(95,95,95)" stroke-width="0.5mm" width="3.2" x="243.4" y="105.4" /><defs /><rect fill="rgb(255,255,255)" height="32.0" stroke="rgb(0,0,0)" stroke-width="0.25mm" width="9.6" x="240.2" y="91.0" /><defs /><g display="none" id="info"><text id="name">frame_b</text><text id="type">Modelica.Mechanics.MultiBody.Interfaces.Frame_b</text><text id="classDesc">Coordinate system fixed to the component with one cut-force and cut-torque (non-filled rectangular icon)</text><text id="desc">Coordinate system fixed to the component with one cut-force and cut-torque</text></g></g><g id="load"><polygon fill="rgb(0,0,127)" points="5.0,87.0 45.0,107.0 5.0,127.0" stroke="rgb(0,0,127)" stroke-width="0.25mm" /><defs /><g display="none" id="info"><text id="name">load</text><text id="type">Modelica.Blocks.Interfaces.RealInput</text><text id="classDesc">'input Real' as connector</text><text id="desc" /></g></g></svg>