<?xml version="1.0" encoding="utf-8" ?>
<svg baseProfile="full" height="215.0" version="1.1" viewBox="0 0 310.0 215.0" width="310.0" xmlns="http://www.w3.org/2000/svg" xmlns:ev="http://www.w3.org/2001/xml-events" xmlns:xlink="http://www.w3.org/1999/xlink"><defs /><text alignment-baseline="middle" fill="rgb(0,0,255)" font-family="Verdana" font-size="18" text-anchor="middle" x="155.0" y="25.0">name</text><defs /><text alignment-baseline="middle" fill="rgb(0,0,0)" font-family="Verdana" font-size="18" text-anchor="middle" x="155.0" y="195.0">r=r</text><defs /><polygon fill="rgb(0,127,255)" points="55.0,70.0 55.0,164.0 145.0,144.0 234.0,163.0 235.0,71.0 145.0,92.0 55.0,70.0" stroke="rgb(0,127,255)" stroke-width="0.25mm" /><defs /><polygon fill="rgb(160,160,164)" points="54.0,70.0 90.0,58.0 154.0,74.0 255.0,50.0 234.0,71.0 144.0,92.0 54.0,70.0" stroke="rgb(255,255,255)" stroke-width="0.25mm" /><defs /><text alignment-baseline="middle" fill="rgb(0,0,0)" font-family="Verdana" font-size="18" text-anchor="middle" x="87.0" y="117.5">a</text><defs /><text alignment-baseline="middle" fill="rgb(0,0,0)" font-family="Verdana" font-size="18" text-anchor="middle" x="210.0" y="117.5">b</text><defs /><polygon fill="rgb(160,160,164)" points="255.0,50.0 233.0,72.0 233.0,164.0 255.0,136.0 255.0,50.0" stroke="rgb(255,255,255)" stroke-width="0.25mm" /><defs /><g id="frame_a"><rect fill="none" height="4.0" stroke="rgb(95,95,95)" stroke-width="0.5mm" width="4.0" x="33.0" y="118.0" /><defs /><rect fill="rgb(192,192,192)" height="40.0" stroke="rgb(0,0,0)" stroke-width="0.25mm" width="12.0" x="29.0" y="100.0" /><defs /><g display="none" id="info"><text id="name">frame_a</text><text id="type">Modelica.Mechanics.MultiBody.Interfaces.Frame_a</text><text id="classDesc">Coordinate system fixed to the component with one cut-force and cut-torque (filled rectangular icon)</text><text id="desc">Coordinate system a (all shape definition vectors are resolved in this frame)</text></g></g><g id="frame_b"><rect fill="none" height="4.0" stroke="rgb(95,95,95)" stroke-width="0.5mm" width="4.0" x="33.0" y="118.0" /><defs /><rect fill="rgb(255,255,255)" height="40.0" stroke="rgb(0,0,0)" stroke-width="0.25mm" width="12.0" x="29.0" y="100.0" /><defs /><g display="none" id="info"><text id="name">frame_b</text><text id="type">Modelica.Mechanics.MultiBody.Interfaces.Frame_b</text><text id="classDesc">Coordinate system fixed to the component with one cut-force and cut-torque (non-filled rectangular icon)</text><text id="desc">Coordinate system b</text></g></g></svg>