<?xml version="1.0" encoding="utf-8" ?>
<svg baseProfile="full" height="270.0" version="1.1" viewBox="0 0 310.0 270.0" width="310.0" xmlns="http://www.w3.org/2000/svg" xmlns:ev="http://www.w3.org/2001/xml-events" xmlns:xlink="http://www.w3.org/1999/xlink"><defs /><text alignment-baseline="middle" fill="rgb(0,0,255)" font-family="Verdana" font-size="18" text-anchor="middle" x="155.0" y="25.0">name</text><defs /><rect fill="rgb(170,213,255)" height="126.0" width="100.0" x="105.0" y="119.0" /><defs /><polygon fill="url(#0)" points="103.0,93.0 107.0,93.0 107.0,185.0 103.0,185.0 103.0,93.0" stroke="rgb(95,95,95)" stroke-width="0.25mm" /><defs><pattern height="7" id="0" patternUnits="userSpaceOnUse" width="7" x="0" y="0"><rect fill="rgb(135,135,135)" height="7" width="7" x="0" y="0" /><path d="M7,0 l-7,7" stroke="rgb(95,95,95)" stroke-width="1" /><path d="M1,-1 l-7,7" stroke="rgb(95,95,95)" stroke-width="1" /><path d="M8,6 l-7,7" stroke="rgb(95,95,95)" stroke-width="1" /></pattern></defs><polygon fill="url(#1)" points="203.0,95.0 207.0,95.0 207.0,189.0 203.0,189.0 203.0,95.0" stroke="rgb(95,95,95)" stroke-width="0.25mm" /><defs><pattern height="7" id="1" patternUnits="userSpaceOnUse" width="7" x="0" y="0"><rect fill="rgb(135,135,135)" height="7" width="7" x="0" y="0" /><path d="M7,0 l-7,7" stroke="rgb(95,95,95)" stroke-width="1" /><path d="M1,-1 l-7,7" stroke="rgb(95,95,95)" stroke-width="1" /><path d="M8,6 l-7,7" stroke="rgb(95,95,95)" stroke-width="1" /></pattern></defs><rect fill="url(#2)" height="10.0" stroke="rgb(95,95,95)" stroke-width="0.25mm" width="96.0" x="107.0" y="115.0" /><defs><pattern height="7" id="2" patternUnits="userSpaceOnUse" width="7" x="0" y="0"><rect fill="rgb(135,135,135)" height="7" width="7" x="0" y="0" /><path d="M0,0 l7,7" stroke="rgb(95,95,95)" stroke-width="1" /><path d="M6,-1 l3,3" stroke="rgb(95,95,95)" stroke-width="1" /><path d="M-1,6 l3,3" stroke="rgb(95,95,95)" stroke-width="1" /></pattern></defs><rect fill="url(#3)" height="52.0" stroke="rgb(95,95,95)" stroke-width="0.25mm" width="12.0" x="149.0" y="63.0" /><defs><pattern height="7" id="3" patternUnits="userSpaceOnUse" width="7" x="0" y="0"><rect fill="rgb(135,135,135)" height="7" width="7" x="0" y="0" /><path d="M0,0 l7,7" stroke="rgb(95,95,95)" stroke-width="1" /><path d="M6,-1 l3,3" stroke="rgb(95,95,95)" stroke-width="1" /><path d="M-1,6 l3,3" stroke="rgb(95,95,95)" stroke-width="1" /></pattern></defs><polygon fill="url(#4)" points="107.0,245.0 203.0,245.0 203.0,85.0 207.0,85.0 207.0,249.0 103.0,249.0 103.0,85.0 107.0,85.0 107.0,245.0" stroke="rgb(95,95,95)" stroke-width="0.25mm" /><defs><pattern height="7" id="4" patternUnits="userSpaceOnUse" width="7" x="0" y="0"><rect fill="rgb(135,135,135)" height="7" width="7" x="0" y="0" /><path d="M7,0 l-7,7" stroke="rgb(95,95,95)" stroke-width="1" /><path d="M1,-1 l-7,7" stroke="rgb(95,95,95)" stroke-width="1" /><path d="M8,6 l-7,7" stroke="rgb(95,95,95)" stroke-width="1" /></pattern></defs><polyline fill="none" points="55.0,155.0 103.0,155.0" stroke="rgb(198,0,0)" stroke-width="0.25mm" /><defs /><g id="ports"><rect fill="rgb(255,255,255)" height="20.0" stroke="rgb(0,127,255)" stroke-width="0.25mm" width="26.6666666667" x="141.666666667" y="245.0" /><defs /><ellipse cx="146.466666667" cy="255.0" fill="rgb(0,127,255)" rx="3.2" ry="10.0" stroke="rgb(0,0,0)" stroke-width="0.25mm" /><defs /><ellipse cx="155.0" cy="255.0" fill="rgb(0,127,255)" rx="3.2" ry="10.0" stroke="rgb(0,0,0)" stroke-width="0.25mm" /><defs /><ellipse cx="163.533333333" cy="255.0" fill="rgb(0,127,255)" rx="3.2" ry="10.0" stroke="rgb(0,0,0)" stroke-width="0.25mm" /><defs /><ellipse cx="146.466666667" cy="255.1375" fill="rgb(255,255,255)" rx="1.86666666667" ry="5.7875" stroke="rgb(0,127,255)" stroke-width="0.25mm" /><defs /><ellipse cx="155.0" cy="255.1375" fill="rgb(255,255,255)" rx="1.86666666667" ry="5.7875" stroke="rgb(0,127,255)" stroke-width="0.25mm" /><defs /><ellipse cx="163.533333333" cy="255.0875" fill="rgb(255,255,255)" rx="1.86666666667" ry="5.7875" stroke="rgb(0,127,255)" stroke-width="0.25mm" /><defs /><g display="none" id="info"><text id="name">ports</text><text id="type">Modelica.Fluid.Vessels.BaseClasses.VesselFluidPorts_b</text><text id="classDesc">Fluid connector with outlined, large icon to be used for horizontally aligned vectors of FluidPorts (vector dimensions must be added after dragging)</text><text id="desc" /></g></g><g id="heatPort"><rect fill="rgb(191,0,0)" height="20.0" stroke="rgb(191,0,0)" stroke-width="0.25mm" width="20.0" x="45.0" y="145.0" /><defs /><g display="none" id="info"><text id="name">heatPort</text><text id="type">Modelica.Thermal.HeatTransfer.Interfaces.HeatPort_a</text><text id="classDesc">Thermal port for 1-dim. heat transfer (filled rectangular icon)</text><text id="desc" /></g></g><g id="flange"><rect fill="rgb(255,255,255)" height="20.0" stroke="rgb(0,127,0)" stroke-width="0.25mm" width="20.0" x="145.0" y="45.0" /><defs /><g display="none" id="info"><text id="name">flange</text><text id="type">Modelica.Mechanics.Translational.Interfaces.Flange_b</text><text id="classDesc">(right) 1D translational flange (flange axis directed OUT OF cut plane)</text><text id="desc">translation flange for piston</text></g></g></svg>