<?xml version="1.0" encoding="utf-8" ?>
<svg baseProfile="full" height="230.0" version="1.1" viewBox="0 0 230.0 230.0" width="230.0" xmlns="http://www.w3.org/2000/svg" xmlns:ev="http://www.w3.org/2001/xml-events" xmlns:xlink="http://www.w3.org/1999/xlink"><defs /><ellipse cx="115.0" cy="105.0" fill="rgb(245,245,245)" rx="70.0" ry="70.0" stroke="rgb(0,0,0)" stroke-width="0.25mm" /><defs /><polyline fill="none" points="115.0,35.0 115.0,65.0" stroke="rgb(0,0,0)" stroke-width="0.25mm" /><defs /><polyline fill="none" points="137.9,72.2 155.2,47.7" stroke="rgb(0,0,0)" stroke-width="0.25mm" /><defs /><polyline fill="none" points="92.1,72.2 74.8,47.7" stroke="rgb(0,0,0)" stroke-width="0.25mm" /><defs /><polyline fill="none" points="152.6,91.3 180.8,81.1" stroke="rgb(0,0,0)" stroke-width="0.25mm" /><defs /><polyline fill="none" points="77.4,91.3 49.2,81.1" stroke="rgb(0,0,0)" stroke-width="0.25mm" /><defs /><ellipse cx="115.0" cy="105.0" fill="none" rx="12.0" ry="12.0" stroke="rgb(64,64,64)" stroke-width="0.25mm" /><defs /><polygon fill="rgb(64,64,64)" points="110.231401703,103.496513958 131.134393186,47.1754260153 134.545318547,43.0082221349 134.949271824,48.378214849 119.768598297,106.503486042" /><defs /><ellipse cx="115.0" cy="105.0" fill="rgb(64,64,64)" rx="7.0" ry="7.0" /><defs /><polyline fill="none" points="25.0,105.0 45.0,105.0" stroke="rgb(0,0,255)" stroke-width="0.25mm" /><defs /><polyline fill="none" points="185.0,105.0 205.0,105.0" stroke="rgb(0,0,255)" stroke-width="0.25mm" /><defs /><polyline fill="none" points="115.0,175.0 115.0,205.0" stroke="rgb(0,0,127)" stroke-width="0.25mm" /><defs /><text alignment-baseline="middle" fill="rgb(0,0,255)" font-family="Verdana" font-size="18" text-anchor="middle" x="115.0" y="145.0">V RMS</text><defs /><g id="V"><polygon fill="rgb(255,255,255)" points="125.001389707,205.0013899 114.998610196,224.999999903 105.0013899,204.998610293" stroke="rgb(0,0,127)" stroke-width="0.25mm" /><defs /><g display="none" id="info"><text id="name">V</text><text id="type">Modelica.Blocks.Interfaces.RealOutput</text><text id="classDesc">'output Real' as connector</text><text id="desc" /></g></g><g id="plug_p"><ellipse cx="15.0" cy="105.0" fill="rgb(0,0,255)" rx="10.0" ry="10.0" stroke="rgb(0,0,255)" stroke-width="0.25mm" /><defs /><g display="none" id="info"><text id="name">plug_p</text><text id="type">Modelica.Electrical.MultiPhase.Interfaces.PositivePlug</text><text id="classDesc">Positive plug with m pins</text><text id="desc" /></g></g><g id="plug_n"><ellipse cx="215.0" cy="105.0" fill="rgb(255,255,255)" rx="10.0" ry="10.0" stroke="rgb(0,0,255)" stroke-width="0.25mm" /><defs /><g display="none" id="info"><text id="name">plug_n</text><text id="type">Modelica.Electrical.MultiPhase.Interfaces.NegativePlug</text><text id="classDesc">Negative plug with m pins</text><text id="desc" /></g></g></svg>