<?xml version="1.0" encoding="utf-8" ?>
<svg baseProfile="full" height="213.0" version="1.1" viewBox="0 0 310.0 213.0" width="310.0" xmlns="http://www.w3.org/2000/svg" xmlns:ev="http://www.w3.org/2001/xml-events" xmlns:xlink="http://www.w3.org/1999/xlink"><defs /><ellipse cx="128.0" cy="75.0" fill="none" rx="9.0" ry="9.0" stroke="rgb(0,0,255)" stroke-width="0.25mm" /><defs /><ellipse cx="182.0" cy="75.0" fill="none" rx="9.0" ry="9.0" stroke="rgb(0,0,255)" stroke-width="0.25mm" /><defs /><ellipse cx="164.0" cy="75.0" fill="none" rx="9.0" ry="9.0" stroke="rgb(0,0,255)" stroke-width="0.25mm" /><defs /><ellipse cx="146.0" cy="75.0" fill="none" rx="9.0" ry="9.0" stroke="rgb(0,0,255)" stroke-width="0.25mm" /><defs /><rect fill="rgb(255,255,255)" height="11.0" width="86.0" x="111.0" y="74.0" /><defs /><polyline fill="none" points="119.0,74.0 93.0,74.0" stroke="rgb(0,0,255)" stroke-width="0.25mm" /><defs /><polyline fill="none" points="217.0,74.0 191.0,74.0" stroke="rgb(0,0,255)" stroke-width="0.25mm" /><defs /><ellipse cx="128.0" cy="91.0" fill="none" rx="9.0" ry="9.0" stroke="rgb(0,0,255)" stroke-width="0.25mm" /><defs /><ellipse cx="182.0" cy="91.0" fill="none" rx="9.0" ry="9.0" stroke="rgb(0,0,255)" stroke-width="0.25mm" /><defs /><ellipse cx="164.0" cy="91.0" fill="none" rx="9.0" ry="9.0" stroke="rgb(0,0,255)" stroke-width="0.25mm" /><defs /><ellipse cx="146.0" cy="91.0" fill="none" rx="9.0" ry="9.0" stroke="rgb(0,0,255)" stroke-width="0.25mm" /><defs /><rect fill="rgb(255,255,255)" height="12.0" width="86.0" x="111.0" y="90.0" /><defs /><polyline fill="none" points="119.0,90.0 93.0,90.0" stroke="rgb(0,0,255)" stroke-width="0.25mm" /><defs /><polyline fill="none" points="217.0,90.0 191.0,90.0" stroke="rgb(0,0,255)" stroke-width="0.25mm" /><defs /><polyline fill="none" points="119.0,137.0 93.0,137.0" stroke="rgb(0,0,255)" stroke-width="0.25mm" /><defs /><ellipse cx="128.0" cy="139.0" fill="none" rx="9.0" ry="9.0" stroke="rgb(0,0,255)" stroke-width="0.25mm" /><defs /><ellipse cx="146.0" cy="139.0" fill="none" rx="9.0" ry="9.0" stroke="rgb(0,0,255)" stroke-width="0.25mm" /><defs /><ellipse cx="164.0" cy="139.0" fill="none" rx="9.0" ry="9.0" stroke="rgb(0,0,255)" stroke-width="0.25mm" /><defs /><ellipse cx="182.0" cy="139.0" fill="none" rx="9.0" ry="9.0" stroke="rgb(0,0,255)" stroke-width="0.25mm" /><defs /><polyline fill="none" points="217.0,137.0 191.0,137.0" stroke="rgb(0,0,255)" stroke-width="0.25mm" /><defs /><rect fill="rgb(255,255,255)" height="12.0" width="86.0" x="111.0" y="138.0" /><defs /><polyline fill="none" points="155.0,100.0 155.0,126.0" stroke="rgb(0,0,255)" stroke-dasharray="1.0 2.0" stroke-width="0.25mm" /><defs /><text alignment-baseline="middle" fill="rgb(0,0,255)" font-family="Verdana" font-size="18" text-anchor="middle" x="155.0" y="25.0">name</text><defs /><g id="n"><rect fill="rgb(255,255,255)" height="80.0" stroke="rgb(0,0,255)" stroke-width="0.25mm" width="18.0" x="75.0" y="68.0" /><defs /><g display="none" id="info"><text id="name">n</text><text id="type">Modelica.Electrical.Analog.Interfaces.NegativePin</text><text id="classDesc">Negative pin of an electric component</text><text id="desc" /></g></g></svg>