<?xml version="1.0" encoding="utf-8" ?>
<svg baseProfile="full" height="220.0" version="1.1" viewBox="0 0 295.0 220.0" width="295.0" xmlns="http://www.w3.org/2000/svg" xmlns:ev="http://www.w3.org/2001/xml-events" xmlns:xlink="http://www.w3.org/1999/xlink"><defs /><rect fill="none" height="204.0" stroke="rgb(255,0,0)" stroke-dasharray="8.0 4.0" stroke-width="0.5mm" width="204.0" x="40.0" y="5.0" /><defs /><text alignment-baseline="middle" fill="rgb(128,128,128)" font-family="Verdana" font-size="18" text-anchor="middle" x="254.0" y="139.5">b</text><defs /><text alignment-baseline="middle" fill="rgb(192,192,192)" font-family="Verdana" font-size="18" text-anchor="middle" x="127.0" y="64.0">world</text><defs /><polygon fill="rgb(0,0,0)" points="42.0,97.0 192.0,97.0 192.0,76.0 236.0,107.0 192.0,138.0 192.0,117.0 42.0,117.0 42.0,97.0" stroke="rgb(0,0,0)" stroke-width="0.25mm" /><defs /><text alignment-baseline="middle" fill="rgb(0,0,0)" font-family="Verdana" font-size="18" text-anchor="middle" x="147.5" y="184.5">name</text><defs /><polyline fill="none" points="44.0,93.0 50.0,80.0 58.0,65.0 70.0,45.0 79.0,33.0 92.0,21.0 109.0,12.0 122.0,9.0 136.0,9.0 151.0,13.0 163.0,20.0 176.0,28.0 188.0,38.0 196.0,46.0 202.0,53.0" stroke="rgb(0,0,0)" stroke-width="0.5mm" /><defs /><polygon fill="rgb(0,0,0)" points="241.0,86.0 216.0,27.0 182.0,62.0 241.0,86.0" stroke="rgb(0,0,0)" stroke-width="0.25mm" /><defs /></svg>