<?xml version="1.0" encoding="utf-8" ?>
<svg baseProfile="full" height="264.0" version="1.1" viewBox="0 0 310.0 264.0" width="310.0" xmlns="http://www.w3.org/2000/svg" xmlns:ev="http://www.w3.org/2001/xml-events" xmlns:xlink="http://www.w3.org/1999/xlink"><defs /><polygon fill="rgb(0,128,255)" points="174.0,175.0 214.0,190.0 174.0,205.0 174.0,175.0" stroke="rgb(0,128,255)" stroke-width="0.25mm" /><defs /><polygon fill="rgb(255,255,255)" points="174.0,180.0 204.0,190.0 174.0,200.0 174.0,180.0" stroke="rgb(255,255,255)" stroke-width="0.25mm" /><defs /><polyline fill="none" points="209.0,190.0 94.0,190.0" stroke="rgb(0,128,255)" stroke-width="0.25mm" /><defs /><text alignment-baseline="middle" fill="rgb(0,0,255)" font-family="Verdana" font-size="18" text-anchor="middle" x="155.0" y="239.0">name</text><defs /><ellipse cx="54.0" cy="104.0" fill="rgb(0,0,0)" rx="10.0" ry="25.0" stroke="rgb(0,0,0)" stroke-width="0.25mm" /><defs /><ellipse cx="254.0" cy="105.0" fill="rgb(0,0,0)" rx="10.0" ry="25.0" stroke="rgb(0,0,0)" stroke-width="0.25mm" /><defs /><polyline fill="none" points="154.0,55.0 154.0,105.0" stroke="rgb(0,0,0)" stroke-width="0.25mm" /><defs /><rect fill="rgb(0,0,0)" height="10.0" stroke="rgb(0,0,0)" stroke-width="0.25mm" width="40.0" x="134.0" y="45.0" /><defs /><polygon fill="rgb(255,255,255)" points="54.0,55.0 254.0,155.0 254.0,55.0 154.0,105.0 54.0,155.0 54.0,55.0" stroke="rgb(0,0,0)" stroke-width="0.25mm" /><defs /><polygon fill="rgb(0,255,0)" points="54.0,105.0 254.0,105.0 254.0,105.0 154.0,105.0 54.0,105.0 54.0,105.0" stroke="rgb(255,255,255)" stroke-width="0.25mm" /><defs /><polygon fill="none" points="54.0,55.0 254.0,155.0 254.0,55.0 154.0,105.0 54.0,155.0 54.0,55.0" stroke="rgb(0,0,0)" stroke-width="0.25mm" /><defs /><g id="port_a"><ellipse cx="34.0" cy="105.0" fill="rgb(0,127,255)" rx="20.0" ry="20.0" stroke="rgb(0,127,255)" stroke-width="0.25mm" /><defs /><ellipse cx="34.0" cy="105.0" fill="rgb(0,127,255)" rx="20.0" ry="20.0" stroke="rgb(0,0,0)" stroke-width="0.25mm" /><defs /><g display="none" id="info"><text id="name">port_a</text><text id="type">Modelica.Fluid.Interfaces.FluidPort_a</text><text id="classDesc">Generic fluid connector at design inlet</text><text id="desc">Fluid connector a (positive design flow direction is from port_a to port_b)</text></g></g><g id="port_b"><ellipse cx="34.0" cy="105.0" fill="rgb(0,127,255)" rx="20.0" ry="20.0" stroke="rgb(0,127,255)" stroke-width="0.25mm" /><defs /><ellipse cx="34.0" cy="105.0" fill="rgb(0,127,255)" rx="20.0" ry="20.0" stroke="rgb(0,0,0)" stroke-width="0.25mm" /><defs /><ellipse cx="34.0" cy="105.0" fill="rgb(255,255,255)" rx="16.0" ry="16.0" stroke="rgb(0,127,255)" stroke-width="0.25mm" /><defs /><g display="none" id="info"><text id="name">port_b</text><text id="type">Modelica.Fluid.Interfaces.FluidPort_b</text><text id="classDesc">Generic fluid connector at design outlet</text><text id="desc">Fluid connector b (positive design flow direction is from port_a to port_b)</text></g></g><g id="opening"><polygon fill="rgb(0,0,127)" points="14.0,85.0 54.0,105.0 14.0,125.0" stroke="rgb(0,0,127)" stroke-width="0.25mm" /><defs /><g display="none" id="info"><text id="name">opening</text><text id="type">Modelica.Blocks.Interfaces.RealInput</text><text id="classDesc">'input Real' as connector</text><text id="desc">=1: completely open, =0: completely closed</text></g></g></svg>