<?xml version="1.0" encoding="utf-8" ?>
<svg baseProfile="full" height="260.0" version="1.1" viewBox="0 0 310.0 260.0" width="310.0" xmlns="http://www.w3.org/2000/svg" xmlns:ev="http://www.w3.org/2001/xml-events" xmlns:xlink="http://www.w3.org/1999/xlink"><defs /><polyline fill="none" points="105.0,255.0 125.0,235.0" stroke="rgb(0,0,0)" stroke-width="0.25mm" /><defs /><polyline fill="none" points="125.0,255.0 145.0,235.0" stroke="rgb(0,0,0)" stroke-width="0.25mm" /><defs /><polyline fill="none" points="145.0,255.0 165.0,235.0" stroke="rgb(0,0,0)" stroke-width="0.25mm" /><defs /><polyline fill="none" points="165.0,255.0 185.0,235.0" stroke="rgb(0,0,0)" stroke-width="0.25mm" /><defs /><polyline fill="none" points="125.0,235.0 185.0,235.0" stroke="rgb(0,0,0)" stroke-width="0.25mm" /><defs /><rect fill="url(#0)" height="20.0" stroke="rgb(64,64,64)" stroke-width="0.25mm" width="200.0" x="55.0" y="125.0" /><defs><linearGradient id="0" x1="0%" x2="0%" y1="0%" y2="100%"><stop offset="0" stop-color="rgb(64, 64, 64)" stop-opacity="1" /><stop offset="0.3" stop-color="rgb(192, 192, 192)" stop-opacity="1" /><stop offset="0.7" stop-color="rgb(192, 192, 192)" stop-opacity="1" /><stop offset="1" stop-color="rgb(64, 64, 64)" stop-opacity="1" /></linearGradient></defs><rect fill="none" height="50.0" stroke="rgb(0,0,0)" stroke-width="0.25mm" width="120.0" x="95.0" y="145.0" /><defs /><rect fill="rgb(192,192,192)" height="15.0" stroke="rgb(0,0,0)" stroke-width="0.25mm" width="120.0" x="95.0" y="145.0" /><defs /><rect fill="rgb(192,192,192)" height="16.0" stroke="rgb(0,0,0)" stroke-width="0.25mm" width="120.0" x="95.0" y="180.0" /><defs /><rect fill="rgb(255,255,255)" height="32.0" stroke="rgb(0,0,0)" stroke-width="0.25mm" width="100.0" x="105.0" y="153.0" /><defs /><polygon fill="rgb(160,160,164)" points="215.0,195.0 215.0,205.0 230.0,205.0 230.0,215.0 80.0,215.0 80.0,205.0 95.0,205.0 95.0,195.0 215.0,195.0" stroke="rgb(0,0,0)" stroke-width="0.25mm" /><defs /><polyline fill="none" points="80.0,145.0 80.0,205.0" stroke="rgb(0,0,0)" stroke-width="0.25mm" /><defs /><polyline fill="none" points="230.0,145.0 230.0,205.0" stroke="rgb(0,0,0)" stroke-width="0.25mm" /><defs /><rect fill="none" height="50.0" stroke="rgb(0,0,0)" stroke-width="0.25mm" width="120.0" x="95.0" y="75.0" /><defs /><rect fill="rgb(192,192,192)" height="15.0" stroke="rgb(0,0,0)" stroke-width="0.25mm" width="120.0" x="95.0" y="75.0" /><defs /><rect fill="rgb(192,192,192)" height="15.0" stroke="rgb(0,0,0)" stroke-width="0.25mm" width="120.0" x="95.0" y="110.0" /><defs /><rect fill="rgb(255,255,255)" height="32.0" stroke="rgb(0,0,0)" stroke-width="0.25mm" width="100.0" x="105.0" y="84.0" /><defs /><polyline fill="none" points="80.0,65.0 80.0,125.0" stroke="rgb(0,0,0)" stroke-width="0.25mm" /><defs /><polygon fill="rgb(160,160,164)" points="215.0,75.0 215.0,65.0 230.0,65.0 230.0,55.0 80.0,55.0 80.0,65.0 95.0,65.0 95.0,75.0 215.0,75.0" stroke="rgb(0,0,0)" stroke-width="0.25mm" /><defs /><polyline fill="none" points="230.0,65.0 230.0,125.0" stroke="rgb(0,0,0)" stroke-width="0.25mm" /><defs /><text alignment-baseline="middle" fill="rgb(0,0,255)" font-family="Verdana" font-size="18" text-anchor="middle" x="155.0" y="25.0">name</text><defs /><polyline fill="none" points="155.0,215.0 155.0,235.0" stroke="rgb(0,0,0)" stroke-width="0.25mm" /><defs /><polyline fill="none" points="55.0,235.0 55.0,170.0 157.0,170.0" stroke="rgb(191,0,0)" stroke-dasharray="1.0 2.0" stroke-width="0.25mm" /><defs /><g id="heatPort"><rect fill="rgb(191,0,0)" height="20.0" stroke="rgb(191,0,0)" stroke-width="0.25mm" width="20.0" x="45.0" y="225.0" /><defs /><g display="none" id="info"><text id="name">heatPort</text><text id="type">Modelica.Thermal.HeatTransfer.Interfaces.HeatPort_a</text><text id="classDesc">Thermal port for 1-dim. heat transfer (filled rectangular icon)</text><text id="desc">Optional port to which dissipated losses are transported in form of heat</text></g></g><g id="flange_a"><ellipse cx="55.0" cy="135.0" fill="rgb(95,95,95)" rx="10.0" ry="10.0" stroke="rgb(0,0,0)" stroke-width="0.25mm" /><defs /><g display="none" id="info"><text id="name">flange_a</text><text id="type">Modelica.Mechanics.Rotational.Interfaces.Flange_a</text><text id="classDesc">1-dim. rotational flange of a shaft (filled square icon)</text><text id="desc">Flange of left shaft</text></g></g><g id="flange_b"><ellipse cx="255.198019802" cy="135.0" fill="rgb(255,255,255)" rx="9.90099009901" ry="10.0" stroke="rgb(0,0,0)" stroke-width="0.25mm" /><defs /><g display="none" id="info"><text id="name">flange_b</text><text id="type">Modelica.Mechanics.Rotational.Interfaces.Flange_b</text><text id="classDesc">1-dim. rotational flange of a shaft (non-filled square icon)</text><text id="desc">Flange of right shaft</text></g></g><g id="support"><ellipse cx="155.0" cy="235.0" fill="rgb(95,95,95)" rx="6.66666666667" ry="6.66666666667" stroke="rgb(0,0,0)" stroke-width="0.25mm" /><defs /><rect fill="rgb(192,192,192)" height="20.0" stroke="rgb(192,192,192)" stroke-width="0.25mm" width="20.0" x="145.0" y="225.0" /><defs /><ellipse cx="155.0" cy="235.0" fill="rgb(95,95,95)" rx="6.66666666667" ry="6.66666666667" stroke="rgb(0,0,0)" stroke-width="0.25mm" /><defs /><g display="none" id="info"><text id="name">support</text><text id="type">Modelica.Mechanics.Rotational.Interfaces.Support</text><text id="classDesc">Support/housing of a 1-dim. rotational shaft</text><text id="desc">Support/housing of component</text></g></g></svg>