<?xml version="1.0" encoding="utf-8" ?>
<svg baseProfile="full" height="210" version="1.1" viewBox="0 0 310.0 210" width="310.0" xmlns="http://www.w3.org/2000/svg" xmlns:ev="http://www.w3.org/2001/xml-events" xmlns:xlink="http://www.w3.org/1999/xlink"><defs /><rect fill="url(#0)" height="100.0" stroke="rgb(0,0,0)" stroke-width="0.25mm" width="200.0" x="55.0" y="55.0" /><defs><linearGradient id="0" x1="0%" x2="0%" y1="0%" y2="100%"><stop offset="0" stop-color="rgb(0, 0, 0)" stop-opacity="1" /><stop offset="0.3" stop-color="rgb(160, 160, 164)" stop-opacity="1" /><stop offset="0.7" stop-color="rgb(160, 160, 164)" stop-opacity="1" /><stop offset="1" stop-color="rgb(0, 0, 0)" stop-opacity="1" /></linearGradient></defs><text alignment-baseline="middle" fill="rgb(0,0,255)" font-family="Verdana" font-size="18" text-anchor="middle" x="155.0" y="28.0">name</text><defs /><g id="flange"><ellipse cx="255.198019802" cy="105.0" fill="rgb(255,255,255)" rx="9.90099009901" ry="10.0" stroke="rgb(0,0,0)" stroke-width="0.25mm" /><defs /><g display="none" id="info"><text id="name">flange</text><text id="type">Modelica.Mechanics.Rotational.Interfaces.Flange_b</text><text id="classDesc">1-dim. rotational flange of a shaft (non-filled square icon)</text><text id="desc" /></g></g><g id="axisControlBus"><polyline fill="none" points="55.4004447334,101.800055623 55.3995552589,108.200055561" stroke="rgb(255,204,51)" stroke-width="0.5mm" /><defs /><rect fill="none" height="3.60022233385" stroke="rgb(255,204,51)" stroke-width="0.5mm" width="1.59949965516" x="55.0002779608" y="103.000000019" /><defs /><path d="M 65.0022235896 89.0013899584 C 64.9999999034 105.001389804 64.9977762173 121.001389649 62.9974982758 123.001111669 62.9974982758 123.001111669 60.9972203344 125.000833689 53.9974983627 122.999860846 53.9974983627 122.999860846 46.9977763911 120.998888002 45.9980543615 118.998749041 45.9980543615 118.998749041 44.998332332 116.99861008 45.0000000966 104.998610196 45.0000000966 104.998610196 45.0016678612 92.9986103121 46.0019458123 90.9987493118 46.0019458123 90.9987493118 47.0022237634 88.9988883115 54.0025016566 86.9998611935 54.0025016566 86.9998611935 61.0027795497 85.0008340755 61.0027795497 85.0008340755" fill="rgb(255,215,136)" stroke="rgb(0,0,0)" stroke-width="0.25mm" /><defs /><ellipse cx="59.0013897652" cy="95.0005560181" fill="rgb(0,0,0)" rx="0.999861009958" ry="1.00013897073" stroke="rgb(0,0,0)" stroke-width="0.25mm" /><defs /><ellipse cx="58.9986101575" cy="115.000555825" fill="rgb(0,0,0)" rx="0.999861009958" ry="1.00013897073" stroke="rgb(0,0,0)" stroke-width="0.25mm" /><defs /><ellipse cx="51.0000000386" cy="104.999444078" fill="rgb(0,0,0)" rx="0.999861009958" ry="1.00013897073" stroke="rgb(0,0,0)" stroke-width="0.25mm" /><defs /><rect fill="none" height="8.00011110705" stroke="rgb(255,215,136)" stroke-width="0.5mm" width="0.7988881492" x="55.0005559215" y="101.000000039" /><defs /><rect fill="none" height="8.39988873457" stroke="rgb(255,204,51)" stroke-width="0.5mm" width="0.801167427501" x="54.5993884902" y="101.000055631" /><defs /><g display="none" id="info"><text id="name">axisControlBus</text><text id="type">Modelica.Mechanics.MultiBody.Examples.Systems.RobotR3.Components.AxisControlBus</text><text id="classDesc">Data bus for one robot axis</text><text id="desc" /></g></g></svg>