<?xml version="1.0" encoding="utf-8" ?>
<svg baseProfile="full" height="230.0" version="1.1" viewBox="0 0 310.0 230.0" width="310.0" xmlns="http://www.w3.org/2000/svg" xmlns:ev="http://www.w3.org/2001/xml-events" xmlns:xlink="http://www.w3.org/1999/xlink"><defs /><ellipse cx="155.0" cy="125.0" fill="rgb(255,255,255)" rx="50.0" ry="50.0" stroke="rgb(0,0,255)" stroke-width="0.25mm" /><defs /><polyline fill="none" points="65.0,125.0 105.0,125.0" stroke="rgb(0,0,255)" stroke-width="0.25mm" /><defs /><polyline fill="none" points="205.0,125.0 245.0,125.0" stroke="rgb(0,0,255)" stroke-width="0.25mm" /><defs /><polyline fill="none" points="155.0,175.0 155.0,75.0" stroke="rgb(0,0,255)" stroke-width="0.25mm" /><defs /><text alignment-baseline="middle" fill="rgb(0,0,255)" font-family="Verdana" font-size="18" text-anchor="middle" x="155.0" y="25.0">name</text><defs /><polygon fill="rgb(0,0,255)" points="245.0,125.0 215.0,115.0 215.0,135.0 245.0,125.0" stroke="rgb(0,0,255)" stroke-width="0.25mm" /><defs /><polyline fill="none" points="85.0,125.0 94.8,95.1 101.2,78.5 106.8,66.9 111.7,59.8 116.7,55.8 121.6,55.2 126.5,58.0 131.4,64.0 136.4,73.0 142.0,86.4 149.02,106.4 163.79,151.9 170.1,169.0 175.8,181.2 180.7,189.0 185.6,193.6 190.5,195.0 195.5,192.9 200.4,187.5 205.3,179.1 210.9,166.3 218.0,146.7 225.0,125.0" stroke="rgb(192,192,192)" stroke-width="0.25mm" /><defs /><g id="p"><rect fill="rgb(0,0,255)" height="20.0" stroke="rgb(0,0,255)" stroke-width="0.25mm" width="20.0" x="45.0" y="115.0" /><defs /><g display="none" id="info"><text id="name">p</text><text id="type">Modelica.Electrical.Analog.Interfaces.PositivePin</text><text id="classDesc">Positive pin of an electric component</text><text id="desc">Positive pin (potential p.v &gt; n.v for positive voltage drop v)</text></g></g><g id="n"><rect fill="rgb(255,255,255)" height="20.0" stroke="rgb(0,0,255)" stroke-width="0.25mm" width="20.0" x="245.0" y="115.0" /><defs /><g display="none" id="info"><text id="name">n</text><text id="type">Modelica.Electrical.Analog.Interfaces.NegativePin</text><text id="classDesc">Negative pin of an electric component</text><text id="desc">Negative pin</text></g></g></svg>