<?xml version="1.0" encoding="utf-8" ?>
<svg baseProfile="full" height="260.0" version="1.1" viewBox="0 0 310.0 260.0" width="310.0" xmlns="http://www.w3.org/2000/svg" xmlns:ev="http://www.w3.org/2001/xml-events" xmlns:xlink="http://www.w3.org/1999/xlink"><defs /><rect fill="rgb(255,255,255)" height="200.0" stroke="rgb(0,0,127)" stroke-width="0.25mm" width="200.0" x="55.0" y="55.0" /><defs /><text alignment-baseline="middle" fill="rgb(0,0,255)" font-family="Verdana" font-size="18" text-anchor="middle" x="155.0" y="25.0">name</text><defs /><polyline fill="none" points="95.0,115.0 95.0,195.0 215.0,195.0 215.0,115.0 185.0,115.0 185.0,195.0 125.0,195.0 125.0,115.0 95.0,115.0 95.0,135.0 215.0,135.0 215.0,155.0 95.0,155.0 95.0,175.0 215.0,175.0 215.0,195.0 95.0,195.0 95.0,115.0 215.0,115.0 215.0,195.0" stroke="rgb(0,0,0)" stroke-width="0.25mm" /><defs /><polyline fill="none" points="155.0,115.0 155.0,195.0" stroke="rgb(0,0,0)" stroke-width="0.25mm" /><defs /><rect fill="rgb(255,215,136)" height="20.0" stroke="rgb(0,0,0)" stroke-width="0.25mm" width="30.0" x="95.0" y="115.0" /><defs /><rect fill="rgb(255,215,136)" height="20.0" stroke="rgb(0,0,0)" stroke-width="0.25mm" width="30.0" x="95.0" y="135.0" /><defs /><rect fill="rgb(255,215,136)" height="20.0" stroke="rgb(0,0,0)" stroke-width="0.25mm" width="30.0" x="95.0" y="155.0" /><defs /><rect fill="rgb(255,215,136)" height="20.0" stroke="rgb(0,0,0)" stroke-width="0.25mm" width="30.0" x="95.0" y="175.0" /><defs /><g id="u"><polygon fill="rgb(0,0,127)" points="15.0,135.0 55.0,155.0 15.0,175.0" stroke="rgb(0,0,127)" stroke-width="0.25mm" /><defs /><g display="none" id="info"><text id="name">u</text><text id="type">Modelica.Blocks.Interfaces.RealInput</text><text id="classDesc">'input Real' as connector</text><text id="desc" /></g></g><g id="y"><polygon fill="rgb(255,255,255)" points="15.0,135.0 55.0,155.0 15.0,175.0" stroke="rgb(0,0,127)" stroke-width="0.25mm" /><defs /><g display="none" id="info"><text id="name">y</text><text id="type">Modelica.Blocks.Interfaces.RealOutput</text><text id="classDesc">'output Real' as connector</text><text id="desc" /></g></g></svg>