<?xml version="1.0" encoding="utf-8" ?>
<svg baseProfile="full" height="210" version="1.1" viewBox="0 0 250.0 210" width="250.0" xmlns="http://www.w3.org/2000/svg" xmlns:ev="http://www.w3.org/2001/xml-events" xmlns:xlink="http://www.w3.org/1999/xlink"><defs /><polyline fill="none" points="55.0,105.0 95.0,105.0" stroke="rgb(0,0,255)" stroke-width="0.25mm" /><defs /><polyline fill="none" points="195.0,105.0 235.0,105.0" stroke="rgb(0,0,255)" stroke-width="0.25mm" /><defs /><ellipse cx="145.0" cy="105.0" fill="rgb(255,255,255)" rx="50.0" ry="50.0" stroke="rgb(0,0,255)" stroke-width="0.25mm" /><defs /><polyline fill="none" points="145.0,55.0 145.0,155.0" stroke="rgb(0,0,255)" stroke-width="0.25mm" /><defs /><path d="M 75.0 105.0 C 79.9 90.05 84.8 75.1 88.0 66.8 88.0 66.8 91.2 58.5 94.0 52.7 94.0 52.7 96.8 46.9 99.25 43.35 99.25 43.35 101.7 39.8 104.2 37.8 104.2 37.8 106.7 35.8 109.15 35.5 109.15 35.5 111.6 35.2 114.05 36.6 114.05 36.6 116.5 38.0 118.95 41.0 118.95 41.0 121.4 44.0 123.9 48.5 123.9 48.5 126.4 53.0 129.2 59.7 129.2 59.7 132.0 66.4 135.51 76.4 135.51 76.4 139.02 86.4 146.405 109.15 146.405 109.15 153.79 131.9 156.945 140.45 156.945 140.45 160.1 149.0 162.95 155.1 162.95 155.1 165.8 161.2 168.25 165.1 168.25 165.1 170.7 169.0 173.15 171.3 173.15 171.3 175.6 173.6 178.05 174.3 178.05 174.3 180.5 175.0 183.0 173.95 183.0 173.95 185.5 172.9 187.95 170.2 187.95 170.2 190.4 167.5 192.85 163.3 192.85 163.3 195.3 159.1 198.1 152.7 198.1 152.7 200.9 146.3 204.45 136.5 204.45 136.5 208.0 126.7 211.5 115.85 211.5 115.85 215.0 105.0 215.0 105.0" fill="none" stroke="rgb(192,192,192)" stroke-width="0.25mm" /><defs /><text alignment-baseline="middle" fill="rgb(0,0,255)" font-family="Verdana" font-size="18" text-anchor="middle" x="145.0" y="185.0">name</text><defs /><text alignment-baseline="middle" fill="rgb(0,0,0)" font-family="Verdana" font-size="18" text-anchor="middle" x="145.0" y="25.0">m=m</text><defs /><polygon fill="rgb(0,0,255)" points="235.0,105.0 205.0,95.0 205.0,115.0 235.0,105.0" stroke="rgb(0,0,255)" stroke-width="0.25mm" /><defs /><g id="plug_p"><ellipse cx="25.0" cy="105.0" fill="rgb(0,0,255)" rx="20.0" ry="20.0" stroke="rgb(0,0,255)" stroke-width="0.25mm" /><defs /><g display="none" id="info"><text id="name">plug_p</text><text id="type">Modelica.Electrical.MultiPhase.Interfaces.PositivePlug</text><text id="classDesc">Positive plug with m pins</text><text id="desc" /></g></g><g id="plug_n"><ellipse cx="25.0" cy="105.0" fill="rgb(255,255,255)" rx="20.0" ry="20.0" stroke="rgb(0,0,255)" stroke-width="0.25mm" /><defs /><g display="none" id="info"><text id="name">plug_n</text><text id="type">Modelica.Electrical.MultiPhase.Interfaces.NegativePlug</text><text id="classDesc">Negative plug with m pins</text><text id="desc" /></g></g></svg>