<?xml version="1.0" encoding="utf-8" ?>
<svg baseProfile="full" height="220.0" version="1.1" viewBox="0 0 310.0 220.0" width="310.0" xmlns="http://www.w3.org/2000/svg" xmlns:ev="http://www.w3.org/2001/xml-events" xmlns:xlink="http://www.w3.org/1999/xlink"><defs /><rect fill="url(#0)" height="4.0" stroke="rgb(0,0,0)" stroke-width="0.25mm" width="200.0" x="55.0" y="141.0" /><defs><pattern height="7" id="0" patternUnits="userSpaceOnUse" width="7" x="0" y="0"><rect fill="rgb(95,95,95)" height="7" width="7" x="0" y="0" /><path d="M0,0 l7,7" stroke="rgb(0,0,0)" stroke-width="1" /><path d="M6,-1 l3,3" stroke="rgb(0,0,0)" stroke-width="1" /><path d="M-1,6 l3,3" stroke="rgb(0,0,0)" stroke-width="1" /></pattern></defs><rect fill="url(#1)" height="4.0" stroke="rgb(0,0,0)" stroke-width="0.25mm" width="200.0" x="55.0" y="85.0" /><defs><pattern height="7" id="1" patternUnits="userSpaceOnUse" width="7" x="0" y="0"><rect fill="rgb(95,95,95)" height="7" width="7" x="0" y="0" /><path d="M0,0 l7,7" stroke="rgb(0,0,0)" stroke-width="1" /><path d="M6,-1 l3,3" stroke="rgb(0,0,0)" stroke-width="1" /><path d="M-1,6 l3,3" stroke="rgb(0,0,0)" stroke-width="1" /></pattern></defs><rect fill="url(#2)" height="30.0" stroke="rgb(0,0,0)" stroke-width="0.25mm" width="200.0" x="55.0" y="55.0" /><defs><linearGradient id="2" x1="0%" x2="0%" y1="0%" y2="100%"><stop offset="0" stop-color="rgb(0, 0, 0)" stop-opacity="1" /><stop offset="0.3" stop-color="rgb(0, 63, 125)" stop-opacity="1" /><stop offset="0.7" stop-color="rgb(0, 63, 125)" stop-opacity="1" /><stop offset="1" stop-color="rgb(0, 0, 0)" stop-opacity="1" /></linearGradient></defs><rect fill="url(#3)" height="30.0" stroke="rgb(0,0,0)" stroke-width="0.25mm" width="200.0" x="55.0" y="145.0" /><defs><linearGradient id="3" x1="0%" x2="0%" y1="0%" y2="100%"><stop offset="0" stop-color="rgb(0, 0, 0)" stop-opacity="1" /><stop offset="0.3" stop-color="rgb(0, 63, 125)" stop-opacity="1" /><stop offset="0.7" stop-color="rgb(0, 63, 125)" stop-opacity="1" /><stop offset="1" stop-color="rgb(0, 0, 0)" stop-opacity="1" /></linearGradient></defs><rect fill="url(#4)" height="52.0" stroke="rgb(0,0,0)" stroke-width="0.25mm" width="200.0" x="55.0" y="89.0" /><defs><linearGradient id="4" x1="0%" x2="0%" y1="0%" y2="100%"><stop offset="0" stop-color="rgb(0, 0, 0)" stop-opacity="1" /><stop offset="0.3" stop-color="rgb(0, 128, 255)" stop-opacity="1" /><stop offset="0.7" stop-color="rgb(0, 128, 255)" stop-opacity="1" /><stop offset="1" stop-color="rgb(0, 0, 0)" stop-opacity="1" /></linearGradient></defs><text alignment-baseline="middle" fill="rgb(0,0,255)" font-family="Verdana" font-size="18" text-anchor="middle" x="155.0" y="25.0">name</text><defs /><polyline fill="none" points="185.0,200.0 95.0,200.0" stroke="rgb(0,128,255)" stroke-width="0.25mm" /><defs /><polygon fill="rgb(0,128,255)" points="175.0,185.0 215.0,200.0 175.0,215.0 175.0,185.0" stroke="rgb(0,128,255)" stroke-width="0.25mm" /><defs /><polyline fill="none" points="185.0,38.0 95.0,38.0" stroke="rgb(0,128,255)" stroke-width="0.25mm" /><defs /><polygon fill="rgb(0,128,255)" points="105.0,23.0 65.0,38.0 105.0,53.0 105.0,23.0" stroke="rgb(0,128,255)" stroke-width="0.25mm" /><defs /><g id="port_b1"><ellipse cx="265.0" cy="117.0" fill="rgb(0,127,255)" rx="10.0" ry="10.0" stroke="rgb(0,127,255)" stroke-width="0.25mm" /><defs /><ellipse cx="265.0" cy="117.0" fill="rgb(0,127,255)" rx="10.0" ry="10.0" stroke="rgb(0,0,0)" stroke-width="0.25mm" /><defs /><ellipse cx="265.0" cy="117.0" fill="rgb(255,255,255)" rx="8.0" ry="8.0" stroke="rgb(0,127,255)" stroke-width="0.25mm" /><defs /><g display="none" id="info"><text id="name">port_b1</text><text id="type">Modelica.Fluid.Interfaces.FluidPort_b</text><text id="classDesc">Generic fluid connector at design outlet</text><text id="desc" /></g></g><g id="port_a1"><ellipse cx="45.0" cy="117.0" fill="rgb(0,127,255)" rx="10.0" ry="10.0" stroke="rgb(0,127,255)" stroke-width="0.25mm" /><defs /><ellipse cx="45.0" cy="117.0" fill="rgb(0,127,255)" rx="10.0" ry="10.0" stroke="rgb(0,0,0)" stroke-width="0.25mm" /><defs /><g display="none" id="info"><text id="name">port_a1</text><text id="type">Modelica.Fluid.Interfaces.FluidPort_a</text><text id="classDesc">Generic fluid connector at design inlet</text><text id="desc" /></g></g><g id="port_b2"><ellipse cx="45.0" cy="69.0" fill="rgb(0,127,255)" rx="10.0" ry="10.0" stroke="rgb(0,127,255)" stroke-width="0.25mm" /><defs /><ellipse cx="45.0" cy="69.0" fill="rgb(0,127,255)" rx="10.0" ry="10.0" stroke="rgb(0,0,0)" stroke-width="0.25mm" /><defs /><ellipse cx="45.0" cy="69.0" fill="rgb(255,255,255)" rx="8.0" ry="8.0" stroke="rgb(0,127,255)" stroke-width="0.25mm" /><defs /><g display="none" id="info"><text id="name">port_b2</text><text id="type">Modelica.Fluid.Interfaces.FluidPort_b</text><text id="classDesc">Generic fluid connector at design outlet</text><text id="desc" /></g></g><g id="port_a2"><ellipse cx="265.0" cy="161.0" fill="rgb(0,127,255)" rx="10.0" ry="10.0" stroke="rgb(0,127,255)" stroke-width="0.25mm" /><defs /><ellipse cx="265.0" cy="161.0" fill="rgb(0,127,255)" rx="10.0" ry="10.0" stroke="rgb(0,0,0)" stroke-width="0.25mm" /><defs /><g display="none" id="info"><text id="name">port_a2</text><text id="type">Modelica.Fluid.Interfaces.FluidPort_a</text><text id="classDesc">Generic fluid connector at design inlet</text><text id="desc" /></g></g></svg>