<?xml version="1.0" encoding="utf-8" ?>
<svg baseProfile="full" height="170.0" version="1.1" viewBox="0 0 210.0 170.0" width="210.0" xmlns="http://www.w3.org/2000/svg" xmlns:ev="http://www.w3.org/2001/xml-events" xmlns:xlink="http://www.w3.org/1999/xlink"><defs /><rect fill="rgb(255,255,255)" height="120.0" stroke="rgb(0,0,0)" stroke-width="0.25mm" width="200.0" x="5.0" y="45.0" /><defs /><polygon fill="url(#0)" points="75.0,45.0 75.0,93.0 135.0,55.0 135.0,45.0 75.0,45.0" stroke="rgb(0,0,0)" stroke-width="0.25mm" /><defs><pattern height="7" id="0" patternUnits="userSpaceOnUse" width="7" x="0" y="0"><rect fill="rgb(255,255,255)" height="7" width="7" x="0" y="0" /><path d="M7,0 l-7,7" stroke="rgb(0,0,0)" stroke-width="1" /><path d="M1,-1 l-7,7" stroke="rgb(0,0,0)" stroke-width="1" /><path d="M8,6 l-7,7" stroke="rgb(0,0,0)" stroke-width="1" /></pattern></defs><polygon fill="url(#1)" points="75.0,115.0 75.0,165.0 135.0,165.0 135.0,155.0 75.0,115.0" stroke="rgb(0,0,0)" stroke-width="0.25mm" /><defs><pattern height="7" id="1" patternUnits="userSpaceOnUse" width="7" x="0" y="0"><rect fill="rgb(255,255,255)" height="7" width="7" x="0" y="0" /><path d="M7,0 l-7,7" stroke="rgb(0,0,0)" stroke-width="1" /><path d="M1,-1 l-7,7" stroke="rgb(0,0,0)" stroke-width="1" /><path d="M8,6 l-7,7" stroke="rgb(0,0,0)" stroke-width="1" /></pattern></defs></svg>