<?xml version="1.0" encoding="utf-8" ?>
<svg baseProfile="full" height="230.0" version="1.1" viewBox="0 0 311.0 230.0" width="311.0" xmlns="http://www.w3.org/2000/svg" xmlns:ev="http://www.w3.org/2001/xml-events" xmlns:xlink="http://www.w3.org/1999/xlink"><defs /><ellipse cx="155.0" cy="125.0" fill="rgb(245,245,245)" rx="70.0" ry="70.0" stroke="rgb(0,0,0)" stroke-width="0.25mm" /><defs /><polyline fill="none" points="155.0,55.0 155.0,85.0" stroke="rgb(0,0,0)" stroke-width="0.25mm" /><defs /><polyline fill="none" points="177.9,92.2 195.2,67.7" stroke="rgb(0,0,0)" stroke-width="0.25mm" /><defs /><polyline fill="none" points="132.1,92.2 114.8,67.7" stroke="rgb(0,0,0)" stroke-width="0.25mm" /><defs /><polyline fill="none" points="192.6,111.3 220.8,101.1" stroke="rgb(0,0,0)" stroke-width="0.25mm" /><defs /><polyline fill="none" points="117.4,111.3 89.2,101.1" stroke="rgb(0,0,0)" stroke-width="0.25mm" /><defs /><ellipse cx="155.0" cy="125.0" fill="none" rx="12.0" ry="12.0" stroke="rgb(64,64,64)" stroke-width="0.25mm" /><defs /><polygon fill="rgb(64,64,64)" points="150.231401703,123.496513958 171.134393186,67.1754260153 174.545318547,63.0082221349 174.949271824,68.378214849 159.768598297,126.503486042" /><defs /><ellipse cx="155.0" cy="125.0" fill="rgb(64,64,64)" rx="7.0" ry="7.0" /><defs /><polyline fill="none" points="225.0,125.0 255.0,125.0" stroke="rgb(0,0,127)" stroke-width="0.25mm" /><defs /><polyline fill="none" points="155.0,195.0 155.0,225.0" stroke="rgb(0,127,255)" stroke-width="0.25mm" /><defs /><text alignment-baseline="middle" fill="rgb(0,0,255)" font-family="Verdana" font-size="18" text-anchor="middle" x="155.0" y="25.0">name</text><defs /><text alignment-baseline="middle" fill="rgb(0,0,0)" font-family="Verdana" font-size="18" text-anchor="middle" x="259.0" y="160.0">p</text><defs /><g id="port"><ellipse cx="35.0" cy="125.0" fill="rgb(0,127,255)" rx="20.0" ry="20.0" stroke="rgb(0,127,255)" stroke-width="0.25mm" /><defs /><ellipse cx="35.0" cy="125.0" fill="rgb(0,127,255)" rx="20.0" ry="20.0" stroke="rgb(0,0,0)" stroke-width="0.25mm" /><defs /><g display="none" id="info"><text id="name">port</text><text id="type">Modelica.Fluid.Interfaces.FluidPort_a</text><text id="classDesc">Generic fluid connector at design inlet</text><text id="desc" /></g></g><g id="p"><polygon fill="rgb(255,255,255)" points="15.0,105.0 55.0,125.0 15.0,145.0" stroke="rgb(0,0,127)" stroke-width="0.25mm" /><defs /><g display="none" id="info"><text id="name">p</text><text id="type">Modelica.Blocks.Interfaces.RealOutput</text><text id="classDesc">'output Real' as connector</text><text id="desc">Pressure at port</text></g></g></svg>