<?xml version="1.0" encoding="utf-8" ?>
<svg baseProfile="full" height="270.0" version="1.1" viewBox="0 0 310.0 270.0" width="310.0" xmlns="http://www.w3.org/2000/svg" xmlns:ev="http://www.w3.org/2001/xml-events" xmlns:xlink="http://www.w3.org/1999/xlink"><defs /><polyline fill="none" points="105.0,265.0 125.0,245.0" stroke="rgb(0,0,0)" stroke-width="0.25mm" /><defs /><polyline fill="none" points="125.0,265.0 145.0,245.0" stroke="rgb(0,0,0)" stroke-width="0.25mm" /><defs /><polyline fill="none" points="145.0,265.0 165.0,245.0" stroke="rgb(0,0,0)" stroke-width="0.25mm" /><defs /><polyline fill="none" points="165.0,265.0 185.0,245.0" stroke="rgb(0,0,0)" stroke-width="0.25mm" /><defs /><polyline fill="none" points="125.0,245.0 185.0,245.0" stroke="rgb(0,0,0)" stroke-width="0.25mm" /><defs /><rect fill="rgb(255,255,255)" height="192.0" stroke="rgb(255,255,255)" stroke-width="0.25mm" width="192.0" x="59.0" y="49.0" /><defs /><polyline fill="none" points="155.0,207.0 155.0,245.0" stroke="rgb(0,0,0)" stroke-width="0.25mm" /><defs /><path d="M 63.0 145.0 C 71.0 127.0 79.0 109.0 90.0 96.0 90.0 96.0 101.0 83.0 113.0 74.0 113.0 74.0 125.0 65.0 133.0 61.0 133.0 61.0 141.0 57.0 153.0 55.0 153.0 55.0 165.0 53.0 173.0 54.0 173.0 54.0 181.0 55.0 191.0 60.0 191.0 60.0 201.0 65.0 210.0 74.0 210.0 74.0 219.0 83.0 219.0 83.0" fill="none" stroke="rgb(0,0,0)" stroke-width="0.25mm" /><defs /><text alignment-baseline="middle" fill="rgb(0,0,255)" font-family="Verdana" font-size="18" text-anchor="middle" x="155.0" y="25.0">name</text><defs /><polygon fill="rgb(0,0,0)" points="249.0,129.0 235.0,71.0 205.0,93.0 249.0,129.0" stroke="rgb(0,0,0)" stroke-width="0.25mm" /><defs /><path d="M 97.0 227.0 C 105.0 220.0 113.0 213.0 124.0 207.0 124.0 207.0 135.0 201.0 145.0 200.0 145.0 200.0 155.0 199.0 164.0 200.0 164.0 200.0 173.0 201.0 181.0 204.0 181.0 204.0 189.0 207.0 194.0 212.0 194.0 212.0 199.0 217.0 204.0 222.0 204.0 222.0 209.0 227.0 212.0 233.0 212.0 233.0 215.0 239.0 215.0 239.0" fill="none" stroke="rgb(0,0,0)" stroke-width="0.25mm" /><defs /><polygon fill="rgb(0,0,0)" points="90.0,243.0 109.0,225.0 97.0,217.0 90.0,243.0" stroke="rgb(0,0,0)" stroke-width="0.25mm" /><defs /><polyline fill="none" points="105.0,265.0 125.0,245.0" stroke="rgb(0,0,0)" stroke-width="0.25mm" /><defs /><polyline fill="none" points="125.0,265.0 145.0,245.0" stroke="rgb(0,0,0)" stroke-width="0.25mm" /><defs /><polyline fill="none" points="145.0,265.0 165.0,245.0" stroke="rgb(0,0,0)" stroke-width="0.25mm" /><defs /><polyline fill="none" points="165.0,265.0 185.0,245.0" stroke="rgb(0,0,0)" stroke-width="0.25mm" /><defs /><polyline fill="none" points="125.0,245.0 185.0,245.0" stroke="rgb(0,0,0)" stroke-width="0.25mm" /><defs /><polyline fill="none" points="155.0,245.0 155.0,45.0" stroke="rgb(0,0,127)" stroke-width="0.25mm" /><defs /><text alignment-baseline="middle" fill="rgb(0,0,0)" font-family="Verdana" font-size="18" text-anchor="middle" x="161.0" y="173.0">w_fixed</text><defs /><g id="flange"><ellipse cx="35.396039604" cy="145.0" fill="rgb(255,255,255)" rx="19.801980198" ry="20.0" stroke="rgb(0,0,0)" stroke-width="0.25mm" /><defs /><g display="none" id="info"><text id="name">flange</text><text id="type">Modelica.Mechanics.Rotational.Interfaces.Flange_b</text><text id="classDesc">1-dim. rotational flange of a shaft (non-filled square icon)</text><text id="desc">Flange of shaft</text></g></g><g id="support"><ellipse cx="35.0" cy="145.0" fill="rgb(95,95,95)" rx="13.3333333333" ry="13.3333333333" stroke="rgb(0,0,0)" stroke-width="0.25mm" /><defs /><rect fill="rgb(192,192,192)" height="40.0" stroke="rgb(192,192,192)" stroke-width="0.25mm" width="40.0" x="15.0" y="125.0" /><defs /><ellipse cx="35.0" cy="145.0" fill="rgb(95,95,95)" rx="13.3333333333" ry="13.3333333333" stroke="rgb(0,0,0)" stroke-width="0.25mm" /><defs /><g display="none" id="info"><text id="name">support</text><text id="type">Modelica.Mechanics.Rotational.Interfaces.Support</text><text id="classDesc">Support/housing of a 1-dim. rotational shaft</text><text id="desc">Support/housing of component</text></g></g></svg>