<?xml version="1.0" encoding="utf-8" ?>
<svg baseProfile="full" height="280.0" version="1.1" viewBox="0 0 310.0 280.0" width="310.0" xmlns="http://www.w3.org/2000/svg" xmlns:ev="http://www.w3.org/2001/xml-events" xmlns:xlink="http://www.w3.org/1999/xlink"><defs /><polyline fill="none" points="155.0,115.0 235.0,35.0 215.0,43.0 227.0,55.0 235.0,35.0" stroke="rgb(0,0,255)" stroke-width="0.25mm" /><defs /><polyline fill="none" points="155.0,115.0 235.0,195.0 227.0,175.0 215.0,187.0 235.0,195.0" stroke="rgb(0,0,255)" stroke-width="0.25mm" /><defs /><path d="M 75.0 115.0 C 78.335 110.0 81.67 105.0 85.0 101.34 85.0 101.34 88.33 97.68 91.665 96.34 91.665 96.34 95.0 95.0 98.335 96.34 98.335 96.34 101.67 97.68 105.0 101.34 105.0 101.34 108.33 105.0 111.665 110.0 111.665 110.0 115.0 115.0 118.335 120.0 118.335 120.0 121.67 125.0 125.0 128.66 125.0 128.66 128.33 132.32 131.665 133.66 131.665 133.66 135.0 135.0 138.335 133.66 138.335 133.66 141.67 132.32 145.0 128.66 145.0 128.66 148.33 125.0 151.665 120.0 151.665 120.0 155.0 115.0 155.0 115.0" fill="none" stroke="rgb(0,0,255)" stroke-width="0.25mm" /><defs /><path d="M 65.0 115.0 C 68.335 110.0 71.67 105.0 75.0 101.34 75.0 101.34 78.33 97.68 81.665 96.34 81.665 96.34 85.0 95.0 88.335 96.34 88.335 96.34 91.67 97.68 95.0 101.34 95.0 101.34 98.33 105.0 101.665 110.0 101.665 110.0 105.0 115.0 108.335 120.0 108.335 120.0 111.67 125.0 115.0 128.66 115.0 128.66 118.33 132.32 121.665 133.66 121.665 133.66 125.0 135.0 128.335 133.66 128.335 133.66 131.67 132.32 135.0 128.66 135.0 128.66 138.33 125.0 141.665 120.0 141.665 120.0 145.0 115.0 145.0 115.0" fill="none" stroke="rgb(0,0,255)" stroke-width="0.25mm" /><defs /><path d="M 85.0 115.0 C 88.335 110.0 91.67 105.0 95.0 101.34 95.0 101.34 98.33 97.68 101.665 96.34 101.665 96.34 105.0 95.0 108.335 96.34 108.335 96.34 111.67 97.68 115.0 101.34 115.0 101.34 118.33 105.0 121.665 110.0 121.665 110.0 125.0 115.0 128.335 120.0 128.335 120.0 131.67 125.0 135.0 128.66 135.0 128.66 138.33 132.32 141.665 133.66 141.665 133.66 145.0 135.0 148.335 133.66 148.335 133.66 151.67 132.32 155.0 128.66 155.0 128.66 158.33 125.0 161.665 120.0 161.665 120.0 165.0 115.0 165.0 115.0" fill="none" stroke="rgb(0,0,255)" stroke-width="0.25mm" /><defs /><text alignment-baseline="middle" fill="rgb(0,0,255)" font-family="Verdana" font-size="18" text-anchor="middle" x="155.0" y="245.0">name</text><defs /><text alignment-baseline="middle" fill="rgb(0,0,255)" font-family="Verdana" font-size="18" text-anchor="middle" x="220.0" y="115.0">zero</text><defs /><polyline fill="none" points="245.0,215.0 215.0,215.0" stroke="rgb(0,0,255)" stroke-width="0.25mm" /><defs /><polyline fill="none" points="215.0,199.0 215.0,231.0" stroke="rgb(0,0,255)" stroke-width="0.25mm" /><defs /><polyline fill="none" points="205.0,205.0 205.0,225.0" stroke="rgb(0,0,255)" stroke-width="0.25mm" /><defs /><polyline fill="none" points="195.0,211.0 195.0,219.0" stroke="rgb(0,0,255)" stroke-width="0.25mm" /><defs /><g id="zero"><rect fill="rgb(0,0,255)" height="20.0" stroke="rgb(0,0,255)" stroke-width="0.25mm" width="20.0" x="45.0" y="5.0" /><defs /><g display="none" id="info"><text id="name">zero</text><text id="type">Modelica.Electrical.Analog.Interfaces.PositivePin</text><text id="classDesc">Positive pin of an electric component</text><text id="desc" /></g></g><g id="ground"><rect fill="rgb(255,255,255)" height="20.0" stroke="rgb(0,0,255)" stroke-width="0.25mm" width="20.0" x="45.0" y="205.0" /><defs /><g display="none" id="info"><text id="name">ground</text><text id="type">Modelica.Electrical.Analog.Interfaces.NegativePin</text><text id="classDesc">Negative pin of an electric component</text><text id="desc" /></g></g><g id="spacePhasor"><polygon fill="rgb(0,0,255)" points="255.0,105.0 245.0,115.0 255.0,125.0 265.0,115.0 255.0,105.0" stroke="rgb(0,0,255)" stroke-width="0.25mm" /><defs /><g display="none" id="info"><text id="name">spacePhasor</text><text id="type">Modelica.Electrical.Machines.Interfaces.SpacePhasor</text><text id="classDesc">Connector for Space Phasors</text><text id="desc" /></g></g></svg>