<?xml version="1.0" encoding="utf-8" ?>
<svg baseProfile="full" height="260.0" version="1.1" viewBox="0 0 310.0 260.0" width="310.0" xmlns="http://www.w3.org/2000/svg" xmlns:ev="http://www.w3.org/2001/xml-events" xmlns:xlink="http://www.w3.org/1999/xlink"><defs /><rect fill="rgb(255,255,255)" height="200.0" stroke="rgb(0,0,127)" stroke-width="0.25mm" width="200.0" x="55.0" y="55.0" /><defs /><text alignment-baseline="middle" fill="rgb(0,0,255)" font-family="Verdana" font-size="18" text-anchor="middle" x="155.0" y="25.0">name</text><defs /><polyline fill="none" points="79.0,87.0 79.0,235.0" stroke="rgb(192,192,192)" stroke-width="0.25mm" /><defs /><polyline fill="none" points="69.0,155.0 227.0,155.0" stroke="rgb(192,192,192)" stroke-width="0.25mm" /><defs /><polyline fill="none" points="79.0,168.0 93.0,168.0 93.0,152.0 101.0,152.0 101.0,200.0 109.0,200.0 109.0,178.0 117.0,178.0 117.0,94.0 125.0,94.0 125.0,126.0 125.0,126.0 125.0,186.0 135.0,186.0 135.0,168.0 145.0,168.0 145.0,196.0 155.0,196.0 155.0,114.0 161.0,114.0 161.0,100.0 167.0,100.0 167.0,156.0 177.0,156.0 177.0,144.0 183.0,144.0 183.0,174.0 193.0,174.0 193.0,102.0 203.0,102.0 203.0,136.0 211.0,136.0 211.0,202.0 221.0,202.0" stroke="rgb(215,215,215)" stroke-width="0.25mm" /><defs /><polygon fill="rgb(192,192,192)" points="249.0,155.0 227.0,147.0 227.0,163.0 249.0,155.0" stroke="rgb(192,192,192)" stroke-width="0.25mm" /><defs /><polyline fill="none" points="79.0,109.0 225.0,109.0" stroke="rgb(215,215,215)" stroke-width="0.25mm" /><defs /><polyline fill="none" points="139.0,155.0 139.0,125.0" stroke="rgb(0,0,0)" stroke-width="0.25mm" /><defs /><polygon fill="rgb(192,192,192)" points="79.0,65.0 71.0,87.0 87.0,87.0 79.0,65.0" stroke="rgb(192,192,192)" stroke-width="0.25mm" /><defs /><polygon fill="rgb(0,0,0)" points="139.0,109.0 131.0,131.0 147.0,131.0 139.0,109.0" stroke="rgb(0,0,0)" stroke-width="0.25mm" /><defs /><g id="u"><polygon fill="rgb(0,0,127)" points="15.0,135.0 55.0,155.0 15.0,175.0" stroke="rgb(0,0,127)" stroke-width="0.25mm" /><defs /><g display="none" id="info"><text id="name">u</text><text id="type">Modelica.Blocks.Interfaces.RealInput</text><text id="classDesc">'input Real' as connector</text><text id="desc">Noisy input signal</text></g></g><g id="y"><polygon fill="rgb(255,255,255)" points="15.0,135.0 55.0,155.0 15.0,175.0" stroke="rgb(0,0,127)" stroke-width="0.25mm" /><defs /><g display="none" id="info"><text id="name">y</text><text id="type">Modelica.Blocks.Interfaces.RealOutput</text><text id="classDesc">'output Real' as connector</text><text id="desc">Standard deviation of the input signal</text></g></g></svg>