<?xml version="1.0" encoding="utf-8" ?>
<svg baseProfile="full" height="280.0" version="1.1" viewBox="0 0 299.0 280.0" width="299.0" xmlns="http://www.w3.org/2000/svg" xmlns:ev="http://www.w3.org/2001/xml-events" xmlns:xlink="http://www.w3.org/1999/xlink"><defs /><rect fill="none" height="204.0" stroke="rgb(255,0,0)" stroke-dasharray="8.0 4.0" stroke-width="0.5mm" width="204.0" x="45.0" y="5.0" /><defs /><text alignment-baseline="middle" fill="rgb(128,128,128)" font-family="Verdana" font-size="18" text-anchor="middle" x="29.0" y="144.5">a</text><defs /><text alignment-baseline="middle" fill="rgb(128,128,128)" font-family="Verdana" font-size="18" text-anchor="middle" x="265.0" y="144.5">b</text><defs /><rect fill="rgb(192,192,192)" height="20.0" stroke="rgb(0,0,0)" stroke-width="0.25mm" width="40.0" x="117.0" y="97.0" /><defs /><rect fill="url(#0)" height="120.0" stroke="rgb(0,0,0)" stroke-width="0.25mm" width="70.0" x="47.0" y="47.0" /><defs><linearGradient id="0" x1="0%" x2="0%" y1="0%" y2="100%"><stop offset="0" stop-color="rgb(0, 0, 0)" stop-opacity="1" /><stop offset="0.3" stop-color="rgb(192, 192, 192)" stop-opacity="1" /><stop offset="0.7" stop-color="rgb(192, 192, 192)" stop-opacity="1" /><stop offset="1" stop-color="rgb(0, 0, 0)" stop-opacity="1" /></linearGradient></defs><rect fill="url(#1)" height="120.0" stroke="rgb(0,0,0)" stroke-width="0.25mm" width="70.0" x="177.0" y="47.0" /><defs><linearGradient id="1" x1="0%" x2="0%" y1="0%" y2="100%"><stop offset="0" stop-color="rgb(0, 0, 0)" stop-opacity="1" /><stop offset="0.3" stop-color="rgb(192, 192, 192)" stop-opacity="1" /><stop offset="0.7" stop-color="rgb(192, 192, 192)" stop-opacity="1" /><stop offset="1" stop-color="rgb(0, 0, 0)" stop-opacity="1" /></linearGradient></defs><text alignment-baseline="middle" fill="rgb(0,0,0)" font-family="Verdana" font-size="18" text-anchor="middle" x="146.0" y="246.5">name</text><defs /><rect fill="none" height="120.0" stroke="rgb(0,0,0)" stroke-width="0.25mm" width="70.0" x="47.0" y="47.0" /><defs /><rect fill="none" height="120.0" stroke="rgb(0,0,0)" stroke-width="0.25mm" width="70.0" x="177.0" y="47.0" /><defs /><text alignment-baseline="middle" fill="rgb(0,0,0)" font-family="Verdana" font-size="18" text-anchor="middle" x="149.5" y="195.5">n=n</text><defs /><polyline fill="none" points="87.0,47.0 87.0,17.0" stroke="rgb(0,0,0)" stroke-width="0.25mm" /><defs /><polyline fill="none" points="127.0,37.0 87.0,37.0" stroke="rgb(0,0,0)" stroke-width="0.25mm" /><defs /><polyline fill="none" points="127.0,27.0 127.0,47.0" stroke="rgb(0,0,0)" stroke-width="0.25mm" /><defs /><polyline fill="none" points="167.0,27.0 167.0,47.0" stroke="rgb(0,0,0)" stroke-width="0.25mm" /><defs /><polyline fill="none" points="167.0,37.0 188.0,37.0" stroke="rgb(0,0,0)" stroke-width="0.25mm" /><defs /><polygon fill="rgb(192,192,192)" points="138.0,77.0 157.0,77.0 177.0,57.0 118.0,57.0 138.0,77.0" stroke="rgb(0,0,0)" stroke-width="0.25mm" /><defs /><polygon fill="rgb(192,192,192)" points="157.0,77.0 177.0,57.0 177.0,158.0 157.0,138.0 157.0,77.0" stroke="rgb(0,0,0)" stroke-width="0.25mm" /><defs /><rect fill="url(#2)" height="40.0" stroke="rgb(0,0,0)" stroke-width="0.25mm" width="20.0" x="137.0" y="17.0" /><defs><linearGradient id="2" x1="0%" x2="100%" y1="0%" y2="0%"><stop offset="0" stop-color="rgb(0, 0, 0)" stop-opacity="1" /><stop offset="0.3" stop-color="rgb(192, 192, 192)" stop-opacity="1" /><stop offset="0.7" stop-color="rgb(192, 192, 192)" stop-opacity="1" /><stop offset="1" stop-color="rgb(0, 0, 0)" stop-opacity="1" /></linearGradient></defs></svg>