<?xml version="1.0" encoding="utf-8" ?>
<svg baseProfile="full" height="214.0" version="1.1" viewBox="0 0 310.0 214.0" width="310.0" xmlns="http://www.w3.org/2000/svg" xmlns:ev="http://www.w3.org/2001/xml-events" xmlns:xlink="http://www.w3.org/1999/xlink"><defs /><polygon fill="rgb(0,0,255)" points="239.0,105.0 209.0,95.0 209.0,115.0 239.0,105.0" stroke="rgb(0,0,255)" stroke-width="0.25mm" /><defs /><ellipse cx="148.0" cy="105.0" fill="rgb(255,255,255)" rx="50.0" ry="50.0" stroke="rgb(0,0,255)" stroke-width="0.25mm" /><defs /><polyline fill="none" points="59.0,105.0 99.0,105.0" stroke="rgb(0,0,255)" stroke-width="0.25mm" /><defs /><polyline fill="none" points="199.0,105.0 239.0,105.0" stroke="rgb(0,0,255)" stroke-width="0.25mm" /><defs /><polyline fill="none" points="148.0,155.0 148.0,55.0" stroke="rgb(0,0,255)" stroke-width="0.25mm" /><defs /><text alignment-baseline="middle" fill="rgb(0,0,255)" font-family="Verdana" font-size="18" text-anchor="middle" x="155.0" y="189.0">name</text><defs /><polyline fill="none" points="72.0,117.0 76.8,84.7 80.0,66.7 83.3,52.5 86.5,42.8 89.7,37.7 92.9,37.4 96.1,41.7 99.3,49.9 103.4,64.8 109.0,91.2 117.0,130.9 121.8,150.7 125.9,162.9 129.9,170.2 133.9,172.3 137.9,169.5 141.9,162.3 146.77,149.1 160.44,103.3 165.3,90.6 170.1,82.2 174.1,79.0 178.9,79.8 183.8,85.2 190.2,97.6 203.1,127.5 209.5,138.2 215.1,142.9 220.7,142.9 227.2,137.5 232.0,130.8" stroke="rgb(192,192,192)" stroke-width="0.25mm" /><defs /><g id="p"><rect fill="rgb(0,0,255)" height="40.0" stroke="rgb(0,0,255)" stroke-width="0.25mm" width="40.0" x="9.0" y="85.0" /><defs /><g display="none" id="info"><text id="name">p</text><text id="type">Modelica.Electrical.Analog.Interfaces.PositivePin</text><text id="classDesc">Positive pin of an electric component</text><text id="desc">Positive pin (potential p.v &gt; n.v for positive voltage drop v)</text></g></g><g id="n"><rect fill="rgb(255,255,255)" height="40.0" stroke="rgb(0,0,255)" stroke-width="0.25mm" width="40.0" x="9.0" y="85.0" /><defs /><g display="none" id="info"><text id="name">n</text><text id="type">Modelica.Electrical.Analog.Interfaces.NegativePin</text><text id="classDesc">Negative pin of an electric component</text><text id="desc">Negative pin</text></g></g></svg>