<?xml version="1.0" encoding="utf-8" ?>
<svg baseProfile="full" height="260.0" version="1.1" viewBox="0 0 310.0 260.0" width="310.0" xmlns="http://www.w3.org/2000/svg" xmlns:ev="http://www.w3.org/2001/xml-events" xmlns:xlink="http://www.w3.org/1999/xlink"><defs /><rect fill="rgb(255,255,255)" height="200.0" stroke="rgb(0,0,127)" stroke-width="0.25mm" width="200.0" x="55.0" y="55.0" /><defs /><text alignment-baseline="middle" fill="rgb(0,0,255)" font-family="Verdana" font-size="18" text-anchor="middle" x="155.0" y="25.0">name</text><defs /><polyline fill="none" points="155.0,155.0 235.0,75.0 215.0,83.0 227.0,95.0 235.0,75.0" stroke="rgb(85,170,255)" stroke-width="0.25mm" /><defs /><polyline fill="none" points="155.0,155.0 235.0,235.0 227.0,215.0 215.0,227.0 235.0,235.0" stroke="rgb(85,170,255)" stroke-width="0.25mm" /><defs /><path d="M 75.0 155.0 C 78.335 150.0 81.67 145.0 85.0 141.34 85.0 141.34 88.33 137.68 91.665 136.34 91.665 136.34 95.0 135.0 98.335 136.34 98.335 136.34 101.67 137.68 105.0 141.34 105.0 141.34 108.33 145.0 111.665 150.0 111.665 150.0 115.0 155.0 118.335 160.0 118.335 160.0 121.67 165.0 125.0 168.66 125.0 168.66 128.33 172.32 131.665 173.66 131.665 173.66 135.0 175.0 138.335 173.66 138.335 173.66 141.67 172.32 145.0 168.66 145.0 168.66 148.33 165.0 151.665 160.0 151.665 160.0 155.0 155.0 155.0 155.0" fill="none" stroke="rgb(85,170,255)" stroke-width="0.25mm" /><defs /><path d="M 65.0 155.0 C 68.335 150.0 71.67 145.0 75.0 141.34 75.0 141.34 78.33 137.68 81.665 136.34 81.665 136.34 85.0 135.0 88.335 136.34 88.335 136.34 91.67 137.68 95.0 141.34 95.0 141.34 98.33 145.0 101.665 150.0 101.665 150.0 105.0 155.0 108.335 160.0 108.335 160.0 111.67 165.0 115.0 168.66 115.0 168.66 118.33 172.32 121.665 173.66 121.665 173.66 125.0 175.0 128.335 173.66 128.335 173.66 131.67 172.32 135.0 168.66 135.0 168.66 138.33 165.0 141.665 160.0 141.665 160.0 145.0 155.0 145.0 155.0" fill="none" stroke="rgb(85,170,255)" stroke-width="0.25mm" /><defs /><path d="M 85.0 155.0 C 88.335 150.0 91.67 145.0 95.0 141.34 95.0 141.34 98.33 137.68 101.665 136.34 101.665 136.34 105.0 135.0 108.335 136.34 108.335 136.34 111.67 137.68 115.0 141.34 115.0 141.34 118.33 145.0 121.665 150.0 121.665 150.0 125.0 155.0 128.335 160.0 128.335 160.0 131.67 165.0 135.0 168.66 135.0 168.66 138.33 172.32 141.665 173.66 141.665 173.66 145.0 175.0 148.335 173.66 148.335 173.66 151.67 172.32 155.0 168.66 155.0 168.66 158.33 165.0 161.665 160.0 161.665 160.0 165.0 155.0 165.0 155.0" fill="none" stroke="rgb(85,170,255)" stroke-width="0.25mm" /><defs /><text alignment-baseline="middle" fill="rgb(0,0,0)" font-family="Verdana" font-size="18" text-anchor="middle" x="181.0" y="235.0">zero</text><defs /><g id="u"><rect fill="rgb(160,160,164)" height="40.0" rx="25.0" ry="25.0" stroke="rgb(160,160,164)" stroke-width="0.25mm" width="40.0" x="15.0" y="135.0" /><defs /><text alignment-baseline="middle" fill="rgb(255,255,255)" font-family="Verdana" font-size="18" text-anchor="middle" x="35.0" y="155.0">C</text><defs /><polygon fill="rgb(85,170,255)" points="15.0,135.0 55.0,155.0 15.0,175.0 15.0,135.0" stroke="rgb(85,170,255)" stroke-width="0.25mm" /><defs /><g display="none" id="info"><text id="name">u</text><text id="type">Modelica.ComplexBlocks.Interfaces.ComplexInput</text><text id="classDesc">'input Complex' as connector</text><text id="desc" /></g></g><g id="y"><polygon fill="rgb(255,255,255)" points="15.0,135.0 55.0,155.0 15.0,175.0" stroke="rgb(0,0,127)" stroke-width="0.25mm" /><defs /><g display="none" id="info"><text id="name">y</text><text id="type">Modelica.Blocks.Interfaces.RealOutput</text><text id="classDesc">'output Real' as connector</text><text id="desc" /></g></g></svg>