<?xml version="1.0" encoding="utf-8" ?>
<svg baseProfile="full" height="250.0" version="1.1" viewBox="0 0 310.0 250.0" width="310.0" xmlns="http://www.w3.org/2000/svg" xmlns:ev="http://www.w3.org/2001/xml-events" xmlns:xlink="http://www.w3.org/1999/xlink"><defs /><polygon fill="rgb(128,128,128)" points="235.0,205.0 205.0,195.0 205.0,215.0 235.0,205.0" stroke="rgb(128,128,128)" stroke-width="0.25mm" /><defs /><polyline fill="none" points="125.0,205.0 205.0,205.0" stroke="rgb(0,0,0)" stroke-width="0.25mm" /><defs /><rect fill="url(#0)" height="65.0" stroke="rgb(0,0,0)" stroke-width="0.25mm" width="65.0" x="125.0" y="75.0" /><defs><radialGradient cx="50%" cy="50%" fx="50%" fy="50%" id="0" r="0.9"><stop offset="0" stop-color="rgb(255, 255, 255)" stop-opacity="1" /><stop offset="1" stop-color="rgb(0, 0, 0)" stop-opacity="1" /></radialGradient></defs><polyline fill="none" points="65.0,105.0 125.0,105.0" stroke="rgb(0,127,0)" stroke-width="0.25mm" /><defs /><rect fill="rgb(192,192,192)" height="15.0" stroke="rgb(0,0,0)" stroke-width="0.25mm" width="144.0" x="85.0" y="150.0" /><defs /><rect fill="rgb(0,0,0)" height="30.0" stroke="rgb(0,0,0)" stroke-width="0.25mm" width="8.0" x="92.0" y="120.0" /><defs /><rect fill="rgb(0,0,0)" height="29.0" stroke="rgb(0,0,0)" stroke-width="0.25mm" width="9.0" x="215.0" y="121.0" /><defs /><polyline fill="none" points="190.0,105.0 245.0,105.0" stroke="rgb(0,127,0)" stroke-width="0.25mm" /><defs /><text alignment-baseline="middle" fill="rgb(0,0,255)" font-family="Verdana" font-size="18" text-anchor="middle" x="155.0" y="45.0">name</text><defs /><polyline fill="none" points="105.0,195.0 125.0,175.0" stroke="rgb(0,0,0)" stroke-width="0.25mm" /><defs /><polyline fill="none" points="125.0,175.0 185.0,175.0" stroke="rgb(0,0,0)" stroke-width="0.25mm" /><defs /><polyline fill="none" points="125.0,195.0 145.0,175.0" stroke="rgb(0,0,0)" stroke-width="0.25mm" /><defs /><polyline fill="none" points="145.0,195.0 165.0,175.0" stroke="rgb(0,0,0)" stroke-width="0.25mm" /><defs /><polyline fill="none" points="165.0,195.0 185.0,175.0" stroke="rgb(0,0,0)" stroke-width="0.25mm" /><defs /><text alignment-baseline="middle" fill="rgb(0,0,0)" font-family="Verdana" font-size="18" text-anchor="middle" x="155.0" y="230.0">m=m</text><defs /><polyline fill="none" points="55.0,205.0 55.0,145.0 158.0,145.0" stroke="rgb(191,0,0)" stroke-dasharray="1.0 2.0" stroke-width="0.25mm" /><defs /><g id="heatPort"><rect fill="rgb(191,0,0)" height="20.0" stroke="rgb(191,0,0)" stroke-width="0.25mm" width="20.0" x="45.0" y="195.0" /><defs /><g display="none" id="info"><text id="name">heatPort</text><text id="type">Modelica.Thermal.HeatTransfer.Interfaces.HeatPort_a</text><text id="classDesc">Thermal port for 1-dim. heat transfer (filled rectangular icon)</text><text id="desc">Optional port to which dissipated losses are transported in form of heat</text></g></g></svg>