<?xml version="1.0" encoding="utf-8" ?>
<svg baseProfile="full" height="260.0" version="1.1" viewBox="0 0 310.0 260.0" width="310.0" xmlns="http://www.w3.org/2000/svg" xmlns:ev="http://www.w3.org/2001/xml-events" xmlns:xlink="http://www.w3.org/1999/xlink"><defs /><rect fill="rgb(255,255,255)" height="200.0" stroke="rgb(0,0,127)" stroke-width="0.25mm" width="200.0" x="55.0" y="55.0" /><defs /><text alignment-baseline="middle" fill="rgb(0,0,255)" font-family="Verdana" font-size="18" text-anchor="middle" x="155.0" y="25.0">name</text><defs /><polyline fill="none" points="155.0,245.0 155.0,71.0" stroke="rgb(192,192,192)" stroke-width="0.25mm" /><defs /><polyline fill="none" points="55.0,155.0 239.0,155.0" stroke="rgb(192,192,192)" stroke-width="0.25mm" /><defs /><path d="M 75.0 235.0 C 91.1 234.35 107.2 233.7 113.2 232.2 113.2 232.2 119.2 230.7 123.25 228.15 123.25 228.15 127.3 225.6 130.1 222.4 130.1 222.4 132.9 219.2 135.3 215.05 135.3 215.05 137.7 210.9 140.1 205.1 140.1 205.1 142.5 199.3 144.93 191.75 144.93 191.75 147.36 184.2 150.575 172.01 150.575 172.01 153.79 159.82 157.81 144.26 157.81 144.26 161.83 128.7 164.265 120.85 164.265 120.85 166.7 113.0 169.1 106.9 169.1 106.9 171.5 100.8 173.9 96.35 173.9 96.35 176.3 91.9 179.1 88.5 179.1 88.5 181.9 85.1 185.55 82.55 185.55 82.55 189.2 80.0 194.8 78.3 194.8 78.3 200.4 76.6 213.7 75.85 213.7 75.85 227.0 75.1 231.0 75.05 231.0 75.05 235.0 75.0 235.0 75.0" fill="none" stroke="rgb(0,0,0)" stroke-width="0.25mm" /><defs /><polygon fill="rgb(192,192,192)" points="155.0,65.0 147.0,87.0 163.0,87.0 155.0,65.0" stroke="rgb(192,192,192)" stroke-width="0.25mm" /><defs /><text alignment-baseline="middle" fill="rgb(192,192,192)" font-family="Verdana" font-size="18" text-anchor="middle" x="103.0" y="107.0">tanh</text><defs /><polygon fill="rgb(192,192,192)" points="245.0,155.0 223.0,147.0 223.0,163.0 245.0,155.0" stroke="rgb(192,192,192)" stroke-width="0.25mm" /><defs /><g id="u"><polygon fill="rgb(0,0,127)" points="15.0,135.0 55.0,155.0 15.0,175.0" stroke="rgb(0,0,127)" stroke-width="0.25mm" /><defs /><g display="none" id="info"><text id="name">u</text><text id="type">Modelica.Blocks.Interfaces.RealInput</text><text id="classDesc">'input Real' as connector</text><text id="desc">Connector of Real input signal</text></g></g><g id="y"><polygon fill="rgb(255,255,255)" points="15.0,135.0 55.0,155.0 15.0,175.0" stroke="rgb(0,0,127)" stroke-width="0.25mm" /><defs /><g display="none" id="info"><text id="name">y</text><text id="type">Modelica.Blocks.Interfaces.RealOutput</text><text id="classDesc">'output Real' as connector</text><text id="desc">Connector of Real output signal</text></g></g></svg>