<?xml version="1.0" encoding="utf-8" ?>
<svg baseProfile="full" height="210.0" version="1.1" viewBox="0 0 210.0 210.0" width="210.0" xmlns="http://www.w3.org/2000/svg" xmlns:ev="http://www.w3.org/2001/xml-events" xmlns:xlink="http://www.w3.org/1999/xlink"><defs /><rect fill="url(#0)" height="200.0" rx="25.0" ry="25.0" stroke="rgb(200,200,200)" stroke-width="0.25mm" width="200.0" x="5.0" y="5.0" /><defs><linearGradient id="0" x1="0%" x2="0%" y1="0%" y2="100%"><stop offset="0" stop-color="rgb(200, 200, 200)" stop-opacity="1" /><stop offset="0.3" stop-color="rgb(248, 248, 248)" stop-opacity="1" /><stop offset="0.7" stop-color="rgb(248, 248, 248)" stop-opacity="1" /><stop offset="1" stop-color="rgb(200, 200, 200)" stop-opacity="1" /></linearGradient></defs><rect fill="none" height="200.0" rx="25.0" ry="25.0" stroke="rgb(128,128,128)" stroke-width="0.25mm" width="200.0" x="5.0" y="5.0" /><defs /><polygon fill="rgb(0,128,255)" points="36.533,57.062 56.533,77.062 36.533,97.062 96.533,97.062 116.533,77.062 96.533,57.062 36.533,57.062" stroke="rgb(0,128,255)" stroke-width="0.25mm" /><defs /><polygon fill="rgb(255,0,0)" points="76.533,157.062 96.533,137.062 116.533,157.062 116.533,117.062 96.533,97.062 76.533,117.062 76.533,157.062" stroke="rgb(255,0,0)" stroke-width="0.25mm" /><defs /><polygon fill="rgb(255,128,0)" points="96.533,57.062 116.533,77.062 96.533,97.062 156.533,97.062 176.533,77.062 156.533,57.062 96.533,57.062" stroke="rgb(255,128,0)" stroke-width="0.25mm" /><defs /></svg>