<?xml version="1.0" encoding="utf-8" ?>
<svg baseProfile="full" height="264.0" version="1.1" viewBox="0 0 310.0 264.0" width="310.0" xmlns="http://www.w3.org/2000/svg" xmlns:ev="http://www.w3.org/2001/xml-events" xmlns:xlink="http://www.w3.org/1999/xlink"><defs /><polygon fill="rgb(0,128,255)" points="174.0,175.0 214.0,190.0 174.0,205.0 174.0,175.0" stroke="rgb(0,128,255)" stroke-width="0.25mm" /><defs /><polygon fill="rgb(255,255,255)" points="174.0,180.0 204.0,190.0 174.0,200.0 174.0,180.0" stroke="rgb(255,255,255)" stroke-width="0.25mm" /><defs /><polyline fill="none" points="209.0,190.0 94.0,190.0" stroke="rgb(0,128,255)" stroke-width="0.25mm" /><defs /><text alignment-baseline="middle" fill="rgb(0,0,255)" font-family="Verdana" font-size="18" text-anchor="middle" x="155.0" y="239.0">name</text><defs /><ellipse cx="54.0" cy="104.0" fill="rgb(0,0,0)" rx="10.0" ry="25.0" stroke="rgb(0,0,0)" stroke-width="0.25mm" /><defs /><ellipse cx="254.0" cy="105.0" fill="rgb(0,0,0)" rx="10.0" ry="25.0" stroke="rgb(0,0,0)" stroke-width="0.25mm" /><defs /><rect fill="url(#0)" height="128.0" stroke="rgb(0,0,0)" stroke-width="0.25mm" width="200.0" x="54.0" y="41.0" /><defs><pattern height="7" id="0" patternUnits="userSpaceOnUse" width="7" x="0" y="0"><rect fill="rgb(135,135,135)" height="7" width="7" x="0" y="0" /><path d="M7,0 l-7,7" stroke="rgb(0,0,0)" stroke-width="1" /><path d="M1,-1 l-7,7" stroke="rgb(0,0,0)" stroke-width="1" /><path d="M8,6 l-7,7" stroke="rgb(0,0,0)" stroke-width="1" /></pattern></defs><rect fill="url(#1)" height="88.0" stroke="rgb(0,0,0)" stroke-width="0.25mm" width="200.0" x="54.0" y="61.0" /><defs><linearGradient id="1" x1="0%" x2="0%" y1="0%" y2="100%"><stop offset="0" stop-color="rgb(0, 0, 0)" stop-opacity="1" /><stop offset="0.3" stop-color="rgb(255, 255, 255)" stop-opacity="1" /><stop offset="0.7" stop-color="rgb(255, 255, 255)" stop-opacity="1" /><stop offset="1" stop-color="rgb(0, 0, 0)" stop-opacity="1" /></linearGradient></defs><rect fill="url(#2)" height="88.0" stroke="rgb(0,0,0)" stroke-width="0.25mm" width="200.0" x="54.0" y="61.0" /><defs><linearGradient id="2" x1="0%" x2="0%" y1="0%" y2="100%"><stop offset="0" stop-color="rgb(0, 0, 0)" stop-opacity="1" /><stop offset="0.3" stop-color="rgb(0, 127, 255)" stop-opacity="1" /><stop offset="0.7" stop-color="rgb(0, 127, 255)" stop-opacity="1" /><stop offset="1" stop-color="rgb(0, 0, 0)" stop-opacity="1" /></linearGradient></defs><ellipse cx="187.0" cy="119.5" fill="rgb(255,255,255)" rx="15.0" ry="14.5" /><defs /><ellipse cx="168.0" cy="90.5" fill="rgb(255,255,255)" rx="15.0" ry="14.5" /><defs /><ellipse cx="212.0" cy="88.5" fill="rgb(255,255,255)" rx="15.0" ry="14.5" /><defs /><ellipse cx="138.0" cy="118.5" fill="rgb(255,255,255)" rx="15.0" ry="14.5" /><defs /><ellipse cx="219.0" cy="104.5" fill="rgb(255,255,255)" rx="15.0" ry="14.5" /><defs /><ellipse cx="97.0" cy="94.5" fill="rgb(255,255,255)" rx="15.0" ry="14.5" /><defs /><ellipse cx="240.0" cy="130.5" fill="rgb(255,255,255)" rx="15.0" ry="14.5" /><defs /><ellipse cx="241.0" cy="91.5" fill="rgb(255,255,255)" rx="15.0" ry="14.5" /><defs /><ellipse cx="240.0" cy="79.5" fill="rgb(255,255,255)" rx="15.0" ry="14.5" /><defs /><polyline fill="none" points="154.0,169.0 154.0,205.0" stroke="rgb(191,0,0)" stroke-width="0.25mm" /><defs /><polyline fill="none" points="194.0,5.0 194.0,41.0" stroke="rgb(0,0,127)" stroke-width="0.25mm" /><defs /><ellipse cx="227.0" cy="130.5" fill="rgb(255,255,255)" rx="15.0" ry="14.5" /><defs /><ellipse cx="240.0" cy="118.5" fill="rgb(255,255,255)" rx="15.0" ry="14.5" /><defs /><g id="port_a"><ellipse cx="34.0" cy="105.0" fill="rgb(0,127,255)" rx="20.0" ry="20.0" stroke="rgb(0,127,255)" stroke-width="0.25mm" /><defs /><ellipse cx="34.0" cy="105.0" fill="rgb(0,127,255)" rx="20.0" ry="20.0" stroke="rgb(0,0,0)" stroke-width="0.25mm" /><defs /><g display="none" id="info"><text id="name">port_a</text><text id="type">Modelica.Fluid.Interfaces.FluidPort_a</text><text id="classDesc">Generic fluid connector at design inlet</text><text id="desc">Fluid connector a (positive design flow direction is from port_a to port_b)</text></g></g><g id="port_b"><ellipse cx="34.0" cy="105.0" fill="rgb(0,127,255)" rx="20.0" ry="20.0" stroke="rgb(0,127,255)" stroke-width="0.25mm" /><defs /><ellipse cx="34.0" cy="105.0" fill="rgb(0,127,255)" rx="20.0" ry="20.0" stroke="rgb(0,0,0)" stroke-width="0.25mm" /><defs /><ellipse cx="34.0" cy="105.0" fill="rgb(255,255,255)" rx="16.0" ry="16.0" stroke="rgb(0,127,255)" stroke-width="0.25mm" /><defs /><g display="none" id="info"><text id="name">port_b</text><text id="type">Modelica.Fluid.Interfaces.FluidPort_b</text><text id="classDesc">Generic fluid connector at design outlet</text><text id="desc">Fluid connector b (positive design flow direction is from port_a to port_b)</text></g></g><g id="heatPort"><rect fill="rgb(191,0,0)" height="40.0" stroke="rgb(191,0,0)" stroke-width="0.25mm" width="40.0" x="14.0" y="85.0" /><defs /><g display="none" id="info"><text id="name">heatPort</text><text id="type">Modelica.Thermal.HeatTransfer.Interfaces.HeatPort_a</text><text id="classDesc">Thermal port for 1-dim. heat transfer (filled rectangular icon)</text><text id="desc" /></g></g><g id="V"><polygon fill="rgb(255,255,255)" points="14.0,85.0 54.0,105.0 14.0,125.0" stroke="rgb(0,0,127)" stroke-width="0.25mm" /><defs /><g display="none" id="info"><text id="name">V</text><text id="type">Modelica.Blocks.Interfaces.RealOutput</text><text id="classDesc">'output Real' as connector</text><text id="desc">liquid volume</text></g></g></svg>