<?xml version="1.0" encoding="utf-8" ?>
<svg baseProfile="full" height="312.0" version="1.1" viewBox="0 0 313.0 312.0" width="313.0" xmlns="http://www.w3.org/2000/svg" xmlns:ev="http://www.w3.org/2001/xml-events" xmlns:xlink="http://www.w3.org/1999/xlink"><defs /><rect fill="rgb(255,255,255)" height="200.0" stroke="rgb(0,0,127)" stroke-width="0.25mm" width="200.0" x="55.0" y="55.0" /><defs /><text alignment-baseline="middle" fill="rgb(0,0,255)" font-family="Verdana" font-size="18" text-anchor="middle" x="155.0" y="25.0">name</text><defs /><polyline fill="none" points="75.0,87.0 75.0,235.0" stroke="rgb(192,192,192)" stroke-width="0.25mm" /><defs /><polygon fill="rgb(192,192,192)" points="75.0,65.0 67.0,87.0 83.0,87.0 75.0,65.0" stroke="rgb(192,192,192)" stroke-width="0.25mm" /><defs /><polyline fill="none" points="65.0,155.0 223.0,155.0" stroke="rgb(192,192,192)" stroke-width="0.25mm" /><defs /><polygon fill="rgb(192,192,192)" points="245.0,155.0 223.0,147.0 223.0,163.0 245.0,155.0" stroke="rgb(192,192,192)" stroke-width="0.25mm" /><defs /><path d="M 75.0 75.0 C 76.9 75.1 78.8 75.2 81.6 76.8 81.6 76.8 84.4 78.4 87.25 81.85 87.25 81.85 90.1 85.3 92.9 90.45 92.9 90.45 95.7 95.6 98.9 103.25 98.9 103.25 102.1 110.9 106.135 122.35 106.135 122.35 110.17 133.8 118.635 159.8 118.635 159.8 127.1 185.8 130.7 195.5 130.7 195.5 134.3 205.2 137.5 212.2 137.5 212.2 140.7 219.2 143.5 223.65 143.5 223.65 146.3 228.1 149.15 230.75 149.15 230.75 152.0 233.4 154.8 234.2 154.8 234.2 157.6 235.0 160.4 233.8 160.4 233.8 163.2 232.6 166.05 229.55 166.05 229.55 168.9 226.5 171.7 221.7 171.7 221.7 174.5 216.9 177.7 209.55 177.7 209.55 180.9 202.2 184.95 191.0 184.95 191.0 189.0 179.8 193.0 167.4 193.0 167.4 197.0 155.0 197.0 155.0" fill="none" stroke="rgb(0,0,0)" stroke-width="0.25mm" /><defs /><text alignment-baseline="middle" fill="rgb(0,0,0)" font-family="Verdana" font-size="18" text-anchor="middle" x="158.0" y="287.0">freqHz=freqHz</text><defs /><polyline fill="none" points="197.0,154.0 208.3,119.8 215.5,100.9 221.9,87.6 227.6,79.4 233.2,74.9 238.8,74.2" stroke="rgb(0,0,0)" stroke-width="0.25mm" /><defs /><g id="y"><polygon fill="rgb(255,255,255)" points="15.0,135.0 55.0,155.0 15.0,175.0" stroke="rgb(0,0,127)" stroke-width="0.25mm" /><defs /><g display="none" id="info"><text id="name">y</text><text id="type">Modelica.Blocks.Interfaces.RealOutput</text><text id="classDesc">'output Real' as connector</text><text id="desc">Connector of Real output signal</text></g></g></svg>