<?xml version="1.0" encoding="utf-8" ?>
<svg baseProfile="full" height="230.0" version="1.1" viewBox="0 0 310.0 230.0" width="310.0" xmlns="http://www.w3.org/2000/svg" xmlns:ev="http://www.w3.org/2001/xml-events" xmlns:xlink="http://www.w3.org/1999/xlink"><defs /><ellipse cx="155.0" cy="125.0" fill="rgb(255,255,255)" rx="50.0" ry="50.0" stroke="rgb(0,0,255)" stroke-width="0.25mm" /><defs /><polyline fill="none" points="65.0,125.0 105.0,125.0" stroke="rgb(0,0,255)" stroke-width="0.25mm" /><defs /><polyline fill="none" points="205.0,125.0 245.0,125.0" stroke="rgb(0,0,255)" stroke-width="0.25mm" /><defs /><polyline fill="none" points="155.0,175.0 155.0,75.0" stroke="rgb(0,0,255)" stroke-width="0.25mm" /><defs /><text alignment-baseline="middle" fill="rgb(0,0,255)" font-family="Verdana" font-size="18" text-anchor="middle" x="155.0" y="25.0">name</text><defs /><polygon fill="rgb(0,0,255)" points="245.0,125.0 215.0,115.0 215.0,135.0 245.0,125.0" stroke="rgb(0,0,255)" stroke-width="0.25mm" /><defs /><polyline fill="none" points="75.0,139.0 79.8,106.7 83.0,88.7 86.3,74.5 89.5,64.8 92.7,59.7 95.9,59.4 99.1,63.7 102.3,71.9 106.4,86.8 112.0,113.2 120.0,152.9 124.8,172.7 128.9,184.9 132.9,192.2 136.9,194.3 140.9,191.5 144.9,184.3 149.77,171.1 163.44,125.3 168.3,112.6 173.1,104.2 177.1,101.0 181.9,101.8 186.8,107.2 193.2,119.6 206.1,149.5 212.5,160.2 218.1,164.9 223.7,164.9 230.2,159.5 235.0,152.8" stroke="rgb(192,192,192)" stroke-width="0.25mm" /><defs /><g id="p"><rect fill="rgb(0,0,255)" height="20.0" stroke="rgb(0,0,255)" stroke-width="0.25mm" width="20.0" x="45.0" y="115.0" /><defs /><g display="none" id="info"><text id="name">p</text><text id="type">Modelica.Electrical.Analog.Interfaces.PositivePin</text><text id="classDesc">Positive pin of an electric component</text><text id="desc">Positive pin (potential p.v &gt; n.v for positive voltage drop v)</text></g></g><g id="n"><rect fill="rgb(255,255,255)" height="20.0" stroke="rgb(0,0,255)" stroke-width="0.25mm" width="20.0" x="245.0" y="115.0" /><defs /><g display="none" id="info"><text id="name">n</text><text id="type">Modelica.Electrical.Analog.Interfaces.NegativePin</text><text id="classDesc">Negative pin of an electric component</text><text id="desc">Negative pin</text></g></g></svg>