<?xml version="1.0" encoding="utf-8" ?>
<svg baseProfile="full" height="210" version="1.1" viewBox="0 0 310.0 210" width="310.0" xmlns="http://www.w3.org/2000/svg" xmlns:ev="http://www.w3.org/2001/xml-events" xmlns:xlink="http://www.w3.org/1999/xlink"><defs /><ellipse cx="152.0" cy="105.0" fill="rgb(255,255,255)" rx="50.0" ry="50.0" stroke="rgb(0,0,255)" stroke-width="0.25mm" /><defs /><polyline fill="none" points="63.0,105.0 103.0,105.0" stroke="rgb(0,0,255)" stroke-width="0.25mm" /><defs /><polyline fill="none" points="203.0,105.0 243.0,105.0" stroke="rgb(0,0,255)" stroke-width="0.25mm" /><defs /><polyline fill="none" points="152.0,155.0 152.0,55.0" stroke="rgb(0,0,255)" stroke-width="0.25mm" /><defs /><text alignment-baseline="middle" fill="rgb(0,0,255)" font-family="Verdana" font-size="18" text-anchor="middle" x="155.0" y="182.0">name</text><defs /><polyline fill="none" points="109.0,144.0 109.0,24.0 209.0,24.0 209.0,144.0 109.0,144.0 109.0,114.0 209.0,114.0 209.0,84.0 109.0,84.0 109.0,54.0 209.0,54.0 209.0,24.0 159.0,24.0 159.0,145.0" stroke="rgb(192,192,192)" stroke-width="0.25mm" /><defs /><polygon fill="rgb(0,0,255)" points="243.0,105.0 213.0,95.0 213.0,115.0 243.0,105.0" stroke="rgb(0,0,255)" stroke-width="0.25mm" /><defs /><g id="p"><rect fill="rgb(0,0,255)" height="40.0" stroke="rgb(0,0,255)" stroke-width="0.25mm" width="40.0" x="13.0" y="85.0" /><defs /><g display="none" id="info"><text id="name">p</text><text id="type">Modelica.Electrical.Analog.Interfaces.PositivePin</text><text id="classDesc">Positive pin of an electric component</text><text id="desc">Positive pin (potential p.v &gt; n.v for positive voltage drop v)</text></g></g><g id="n"><rect fill="rgb(255,255,255)" height="40.0" stroke="rgb(0,0,255)" stroke-width="0.25mm" width="40.0" x="13.0" y="85.0" /><defs /><g display="none" id="info"><text id="name">n</text><text id="type">Modelica.Electrical.Analog.Interfaces.NegativePin</text><text id="classDesc">Negative pin of an electric component</text><text id="desc">Negative pin</text></g></g></svg>