<?xml version="1.0" encoding="utf-8" ?>
<svg baseProfile="full" height="302.0" version="1.1" viewBox="0 0 310.0 302.0" width="310.0" xmlns="http://www.w3.org/2000/svg" xmlns:ev="http://www.w3.org/2001/xml-events" xmlns:xlink="http://www.w3.org/1999/xlink"><defs /><rect fill="rgb(255,255,255)" height="200.0" stroke="rgb(0,0,127)" stroke-width="0.25mm" width="200.0" x="55.0" y="55.0" /><defs /><text alignment-baseline="middle" fill="rgb(0,0,255)" font-family="Verdana" font-size="18" text-anchor="middle" x="155.0" y="25.0">name</text><defs /><text alignment-baseline="middle" fill="rgb(0,0,0)" font-family="Verdana" font-size="18" text-anchor="middle" x="163.0" y="277.0">delayTime=delayTime</text><defs /><path d="M 63.0 155.0 C 68.65 137.9 74.3 120.8 77.9 111.35 77.9 111.35 81.5 101.9 84.7 95.25 84.7 95.25 87.9 88.6 90.75 84.5 90.75 84.5 93.6 80.4 96.4 78.15 96.4 78.15 99.2 75.9 102.0 75.55 102.0 75.55 104.8 75.2 107.6 76.8 107.6 76.8 110.4 78.4 113.25 81.85 113.25 81.85 116.1 85.3 118.9 90.45 118.9 90.45 121.7 95.6 124.9 103.25 124.9 103.25 128.1 110.9 132.135 122.35 132.135 122.35 136.17 133.8 144.635 159.8 144.635 159.8 153.1 185.8 156.7 195.5 156.7 195.5 160.3 205.2 163.5 212.2 163.5 212.2 166.7 219.2 169.5 223.65 169.5 223.65 172.3 228.1 175.15 230.75 175.15 230.75 178.0 233.4 180.8 234.2 180.8 234.2 183.6 235.0 186.4 233.8 186.4 233.8 189.2 232.6 192.05 229.55 192.05 229.55 194.9 226.5 197.7 221.7 197.7 221.7 200.5 216.9 203.7 209.55 203.7 209.55 206.9 202.2 210.95 191.0 210.95 191.0 215.0 179.8 219.0 167.4 219.0 167.4 223.0 155.0 223.0 155.0" fill="none" stroke="rgb(0,0,127)" stroke-width="0.25mm" /><defs /><path d="M 93.0 155.0 C 98.65 137.9 104.3 120.8 107.9 111.35 107.9 111.35 111.5 101.9 114.7 95.25 114.7 95.25 117.9 88.6 120.75 84.5 120.75 84.5 123.6 80.4 126.4 78.15 126.4 78.15 129.2 75.9 132.0 75.55 132.0 75.55 134.8 75.2 137.6 76.8 137.6 76.8 140.4 78.4 143.25 81.85 143.25 81.85 146.1 85.3 148.9 90.45 148.9 90.45 151.7 95.6 154.9 103.25 154.9 103.25 158.1 110.9 162.135 122.35 162.135 122.35 166.17 133.8 174.635 159.8 174.635 159.8 183.1 185.8 186.7 195.5 186.7 195.5 190.3 205.2 193.5 212.2 193.5 212.2 196.7 219.2 199.5 223.65 199.5 223.65 202.3 228.1 205.15 230.75 205.15 230.75 208.0 233.4 210.8 234.2 210.8 234.2 213.6 235.0 216.4 233.8 216.4 233.8 219.2 232.6 222.05 229.55 222.05 229.55 224.9 226.5 227.7 221.7 227.7 221.7 230.5 216.9 233.7 209.55 233.7 209.55 236.9 202.2 240.95 191.0 240.95 191.0 245.0 179.8 249.0 167.4 249.0 167.4 253.0 155.0 253.0 155.0" fill="none" stroke="rgb(160,160,164)" stroke-width="0.25mm" /><defs /><g id="u"><polygon fill="rgb(0,0,127)" points="15.0,135.0 55.0,155.0 15.0,175.0" stroke="rgb(0,0,127)" stroke-width="0.25mm" /><defs /><g display="none" id="info"><text id="name">u</text><text id="type">Modelica.Blocks.Interfaces.RealInput</text><text id="classDesc">'input Real' as connector</text><text id="desc">Connector of Real input signal</text></g></g><g id="y"><polygon fill="rgb(255,255,255)" points="15.0,135.0 55.0,155.0 15.0,175.0" stroke="rgb(0,0,127)" stroke-width="0.25mm" /><defs /><g display="none" id="info"><text id="name">y</text><text id="type">Modelica.Blocks.Interfaces.RealOutput</text><text id="classDesc">'output Real' as connector</text><text id="desc">Connector of Real output signal</text></g></g></svg>