<?xml version="1.0" encoding="utf-8" ?>
<svg baseProfile="full" height="310.0" version="1.1" viewBox="0 0 319.0 310.0" width="319.0" xmlns="http://www.w3.org/2000/svg" xmlns:ev="http://www.w3.org/2001/xml-events" xmlns:xlink="http://www.w3.org/1999/xlink"><defs /><rect fill="rgb(255,255,255)" height="200.0" stroke="rgb(0,0,127)" stroke-width="0.25mm" width="200.0" x="64.0" y="55.0" /><defs /><text alignment-baseline="middle" fill="rgb(0,0,255)" font-family="Verdana" font-size="18" text-anchor="middle" x="164.0" y="25.0">name</text><defs /><polygon fill="rgb(192,192,192)" points="88.0,65.0 80.0,87.0 96.0,87.0 88.0,65.0" stroke="rgb(192,192,192)" stroke-width="0.25mm" /><defs /><polyline fill="none" points="88.0,87.0 88.0,235.0" stroke="rgb(192,192,192)" stroke-width="0.25mm" /><defs /><polyline fill="none" points="78.0,169.0 236.0,169.0" stroke="rgb(192,192,192)" stroke-width="0.25mm" /><defs /><polygon fill="rgb(192,192,192)" points="258.0,169.0 236.0,161.0 236.0,177.0 258.0,169.0" stroke="rgb(192,192,192)" stroke-width="0.25mm" /><defs /><polyline fill="none" points="88.0,174.0 102.0,174.0 102.0,158.0 110.0,158.0 110.0,206.0 118.0,206.0 118.0,184.0 126.0,184.0 126.0,100.0 134.0,100.0 134.0,132.0 134.0,132.0 134.0,192.0 144.0,192.0 144.0,174.0 154.0,174.0 154.0,202.0 164.0,202.0 164.0,120.0 170.0,120.0 170.0,106.0 176.0,106.0 176.0,162.0 186.0,162.0 186.0,150.0 192.0,150.0 192.0,180.0 202.0,180.0 202.0,108.0 212.0,108.0 212.0,142.0 220.0,142.0 220.0,208.0 230.0,208.0" stroke="rgb(0,0,0)" stroke-width="0.25mm" /><defs /><text alignment-baseline="middle" fill="rgb(192,192,192)" font-family="Verdana" font-size="18" text-anchor="middle" x="164.0" y="285.0">samplePeriod s</text><defs /><polyline fill="none" points="88.0,107.0 236.0,107.0" stroke="rgb(0,0,0)" stroke-width="0.25mm" /><defs /><text alignment-baseline="middle" fill="rgb(192,192,192)" font-family="Verdana" font-size="18" text-anchor="middle" x="174.0" y="133.0">y_off</text><defs /><text alignment-baseline="middle" fill="rgb(238,46,47)" font-family="Verdana" font-size="18" text-anchor="middle" x="167.0" y="156.0">fixedLocalSeed</text><defs /><polyline fill="none" points="88.0,95.0 242.0,95.0" stroke="rgb(95,95,95)" stroke-dasharray="1.0 2.0" stroke-width="0.25mm" /><defs /><polyline fill="none" points="88.0,215.0 242.0,215.0" stroke="rgb(95,95,95)" stroke-dasharray="1.0 2.0" stroke-width="0.25mm" /><defs /><text alignment-baseline="middle" fill="rgb(175,175,175)" font-family="Verdana" font-size="18" text-anchor="middle" x="176.5" y="76.0">y_max</text><defs /><text alignment-baseline="middle" fill="rgb(175,175,175)" font-family="Verdana" font-size="18" text-anchor="middle" x="176.5" y="234.0">y_min</text><defs /><text alignment-baseline="middle" fill="rgb(192,192,192)" font-family="Verdana" font-size="18" text-anchor="middle" x="76.0" y="166.0">normal</text><defs /><g id="y"><polygon fill="rgb(255,255,255)" points="24.0,135.0 64.0,155.0 24.0,175.0" stroke="rgb(0,0,127)" stroke-width="0.25mm" /><defs /><g display="none" id="info"><text id="name">y</text><text id="type">Modelica.Blocks.Interfaces.RealOutput</text><text id="classDesc">'output Real' as connector</text><text id="desc">Connector of Real output signal</text></g></g></svg>