0
SECTION
2
ENTITIES
0
3DFACE
8
default
62
251
10
-0.066000
20
0.348000
30
-0.126000
11
0.066000
21
0.348000
31
-0.126000
12
0.066000
22
0.348000
32
-0.255996
13
-0.066000
23
0.348000
33
-0.126000
0
3DFACE
8
default
62
251
10
-0.066000
20
0.348000
30
-0.126000
11
0.066000
21
0.348000
31
-0.255996
12
-0.066000
22
0.348000
32
-0.255996
13
-0.066000
23
0.348000
33
-0.126000
0
3DFACE
8
default
62
251
10
0.066000
20
0.099996
30
-0.255996
11
-0.066000
21
0.099996
31
-0.255996
12
-0.066000
22
0.348000
32
-0.255996
13
0.066000
23
0.099996
33
-0.255996
0
3DFACE
8
default
62
251
10
0.066000
20
0.099996
30
-0.255996
11
-0.066000
21
0.348000
31
-0.255996
12
0.066000
22
0.348000
32
-0.255996
13
0.066000
23
0.099996
33
-0.255996
0
3DFACE
8
default
62
251
10
-0.066000
20
0.348000
30
-0.126000
11
-0.066000
21
0.099996
31
-0.126000
12
0.066000
22
0.099996
32
-0.126000
13
-0.066000
23
0.348000
33
-0.126000
0
3DFACE
8
default
62
251
10
-0.066000
20
0.348000
30
-0.126000
11
0.066000
21
0.099996
31
-0.126000
12
0.066000
22
0.348000
32
-0.126000
13
-0.066000
23
0.348000
33
-0.126000
0
3DFACE
8
default
62
251
10
0.066000
20
0.099996
30
-0.126000
11
-0.066000
21
0.099996
31
-0.126000
12
-0.066000
22
0.099996
32
-0.255996
13
0.066000
23
0.099996
33
-0.126000
0
3DFACE
8
default
62
251
10
0.066000
20
0.099996
30
-0.126000
11
-0.066000
21
0.099996
31
-0.255996
12
0.066000
22
0.099996
32
-0.255996
13
0.066000
23
0.099996
33
-0.126000
0
3DFACE
8
default
62
251
10
0.066000
20
0.099996
30
-0.126000
11
0.066000
21
0.099996
31
-0.255996
12
0.066000
22
0.348000
32
-0.255996
13
0.066000
23
0.099996
33
-0.126000
0
3DFACE
8
default
62
251
10
0.066000
20
0.099996
30
-0.126000
11
0.066000
21
0.348000
31
-0.255996
12
0.066000
22
0.348000
32
-0.126000
13
0.066000
23
0.099996
33
-0.126000
0
3DFACE
8
default
62
251
10
-0.066000
20
0.099996
30
-0.126000
11
-0.066000
21
0.348000
31
-0.126000
12
-0.066000
22
0.348000
32
-0.255996
13
-0.066000
23
0.099996
33
-0.126000
0
3DFACE
8
default
62
251
10
-0.066000
20
0.099996
30
-0.126000
11
-0.066000
21
0.348000
31
-0.255996
12
-0.066000
22
0.099996
32
-0.255996
13
-0.066000
23
0.099996
33
-0.126000
0
3DFACE
8
default
62
251
10
0.172896
20
0.411000
30
-0.046332
11
0.179004
21
0.411000
31
0.000000
12
0.179004
22
0.044004
32
-0.000000
13
0.172896
23
0.411000
33
-0.046332
0
3DFACE
8
default
62
251
10
0.172896
20
0.411000
30
-0.046332
11
0.179004
21
0.044004
31
-0.000000
12
0.172896
22
0.044004
32
-0.046332
13
0.172896
23
0.411000
33
-0.046332
0
3DFACE
8
default
62
251
10
0.155016
20
0.411000
30
-0.089496
11
0.126576
21
0.411000
31
-0.126576
12
0.089496
22
0.411000
32
-0.155016
13
0.155016
23
0.411000
33
-0.089496
0
3DFACE
8
default
62
251
10
0.155016
20
0.411000
30
-0.089496
11
0.089496
21
0.411000
31
-0.155016
12
0.046332
22
0.411000
32
-0.172896
13
0.155016
23
0.411000
33
-0.089496
0
3DFACE
8
default
62
251
10
0.155016
20
0.411000
30
-0.089496
11
0.046332
21
0.411000
31
-0.172896
12
0.000000
22
0.411000
32
-0.179004
13
0.155016
23
0.411000
33
-0.089496
0
3DFACE
8
default
62
251
10
0.155016
20
0.411000
30
-0.089496
11
0.000000
21
0.411000
31
-0.179004
12
-0.046332
22
0.411000
32
-0.172896
13
0.155016
23
0.411000
33
-0.089496
0
3DFACE
8
default
62
251
10
0.155016
20
0.411000
30
-0.089496
11
-0.046332
21
0.411000
31
-0.172896
12
-0.089496
22
0.411000
32
-0.155016
13
0.155016
23
0.411000
33
-0.089496
0
3DFACE
8
default
62
251
10
0.155016
20
0.411000
30
-0.089496
11
-0.089496
21
0.411000
31
-0.155016
12
-0.126576
22
0.411000
32
-0.126576
13
0.155016
23
0.411000
33
-0.089496
0
3DFACE
8
default
62
251
10
0.155016
20
0.411000
30
-0.089496
11
-0.126576
21
0.411000
31
-0.126576
12
-0.155016
22
0.411000
32
-0.089496
13
0.155016
23
0.411000
33
-0.089496
0
3DFACE
8
default
62
251
10
0.155016
20
0.411000
30
-0.089496
11
-0.155016
21
0.411000
31
-0.089496
12
-0.172896
22
0.411000
32
-0.046332
13
0.155016
23
0.411000
33
-0.089496
0
3DFACE
8
default
62
251
10
0.155016
20
0.411000
30
-0.089496
11
-0.172896
21
0.411000
31
-0.046332
12
-0.179004
22
0.411000
32
0.000000
13
0.155016
23
0.411000
33
-0.089496
0
3DFACE
8
default
62
251
10
0.155016
20
0.411000
30
-0.089496
11
-0.179004
21
0.411000
31
0.000000
12
-0.172896
22
0.411000
32
0.046332
13
0.155016
23
0.411000
33
-0.089496
0
3DFACE
8
default
62
251
10
0.155016
20
0.411000
30
-0.089496
11
-0.172896
21
0.411000
31
0.046332
12
-0.155016
22
0.411000
32
0.089496
13
0.155016
23
0.411000
33
-0.089496
0
3DFACE
8
default
62
251
10
0.155016
20
0.411000
30
-0.089496
11
-0.155016
21
0.411000
31
0.089496
12
-0.126576
22
0.411000
32
0.126576
13
0.155016
23
0.411000
33
-0.089496
0
3DFACE
8
default
62
251
10
0.155016
20
0.411000
30
-0.089496
11
-0.126576
21
0.411000
31
0.126576
12
-0.089496
22
0.411000
32
0.155016
13
0.155016
23
0.411000
33
-0.089496
0
3DFACE
8
default
62
251
10
0.155016
20
0.411000
30
-0.089496
11
-0.089496
21
0.411000
31
0.155016
12
-0.046332
22
0.411000
32
0.172896
13
0.155016
23
0.411000
33
-0.089496
0
3DFACE
8
default
62
251
10
0.155016
20
0.411000
30
-0.089496
11
-0.046332
21
0.411000
31
0.172896
12
0.000000
22
0.411000
32
0.179004
13
0.155016
23
0.411000
33
-0.089496
0
3DFACE
8
default
62
251
10
0.155016
20
0.411000
30
-0.089496
11
0.000000
21
0.411000
31
0.179004
12
0.046332
22
0.411000
32
0.172896
13
0.155016
23
0.411000
33
-0.089496
0
3DFACE
8
default
62
251
10
0.155016
20
0.411000
30
-0.089496
11
0.046332
21
0.411000
31
0.172896
12
0.089496
22
0.411000
32
0.155016
13
0.155016
23
0.411000
33
-0.089496
0
3DFACE
8
default
62
251
10
0.155016
20
0.411000
30
-0.089496
11
0.089496
21
0.411000
31
0.155016
12
0.126576
22
0.411000
32
0.126576
13
0.155016
23
0.411000
33
-0.089496
0
3DFACE
8
default
62
251
10
0.155016
20
0.411000
30
-0.089496
11
0.126576
21
0.411000
31
0.126576
12
0.155016
22
0.411000
32
0.089496
13
0.155016
23
0.411000
33
-0.089496
0
3DFACE
8
default
62
251
10
0.155016
20
0.411000
30
-0.089496
11
0.155016
21
0.411000
31
0.089496
12
0.172896
22
0.411000
32
0.046332
13
0.155016
23
0.411000
33
-0.089496
0
3DFACE
8
default
62
251
10
0.155016
20
0.411000
30
-0.089496
11
0.172896
21
0.411000
31
0.046332
12
0.179004
22
0.411000
32
0.000000
13
0.155016
23
0.411000
33
-0.089496
0
3DFACE
8
default
62
251
10
0.155016
20
0.411000
30
-0.089496
11
0.179004
21
0.411000
31
0.000000
12
0.172896
22
0.411000
32
-0.046332
13
0.155016
23
0.411000
33
-0.089496
0
3DFACE
8
default
62
251
10
0.172896
20
0.411000
30
0.046332
11
0.172896
21
0.044004
31
0.046332
12
0.179004
22
0.044004
32
-0.000000
13
0.172896
23
0.411000
33
0.046332
0
3DFACE
8
default
62
251
10
0.172896
20
0.411000
30
0.046332
11
0.179004
21
0.044004
31
-0.000000
12
0.179004
22
0.411000
32
0.000000
13
0.172896
23
0.411000
33
0.046332
0
3DFACE
8
default
62
251
10
0.172896
20
0.044004
30
0.046332
11
0.155016
21
0.044004
31
0.089496
12
0.126576
22
0.044004
32
0.126576
13
0.172896
23
0.044004
33
0.046332
0
3DFACE
8
default
62
251
10
0.172896
20
0.044004
30
0.046332
11
0.126576
21
0.044004
31
0.126576
12
0.089496
22
0.044004
32
0.155016
13
0.172896
23
0.044004
33
0.046332
0
3DFACE
8
default
62
251
10
0.172896
20
0.044004
30
0.046332
11
0.089496
21
0.044004
31
0.155016
12
0.046332
22
0.044004
32
0.172896
13
0.172896
23
0.044004
33
0.046332
0
3DFACE
8
default
62
251
10
0.172896
20
0.044004
30
0.046332
11
0.046332
21
0.044004
31
0.172896
12
0.000000
22
0.044004
32
0.179004
13
0.172896
23
0.044004
33
0.046332
0
3DFACE
8
default
62
251
10
0.172896
20
0.044004
30
0.046332
11
0.000000
21
0.044004
31
0.179004
12
-0.046332
22
0.044004
32
0.172896
13
0.172896
23
0.044004
33
0.046332
0
3DFACE
8
default
62
251
10
0.172896
20
0.044004
30
0.046332
11
-0.046332
21
0.044004
31
0.172896
12
-0.089496
22
0.044004
32
0.155016
13
0.172896
23
0.044004
33
0.046332
0
3DFACE
8
default
62
251
10
0.172896
20
0.044004
30
0.046332
11
-0.089496
21
0.044004
31
0.155016
12
-0.126576
22
0.044004
32
0.126576
13
0.172896
23
0.044004
33
0.046332
0
3DFACE
8
default
62
251
10
0.172896
20
0.044004
30
0.046332
11
-0.126576
21
0.044004
31
0.126576
12
-0.155016
22
0.044004
32
0.089496
13
0.172896
23
0.044004
33
0.046332
0
3DFACE
8
default
62
251
10
0.172896
20
0.044004
30
0.046332
11
-0.155016
21
0.044004
31
0.089496
12
-0.172896
22
0.044004
32
0.046332
13
0.172896
23
0.044004
33
0.046332
0
3DFACE
8
default
62
251
10
0.172896
20
0.044004
30
0.046332
11
-0.172896
21
0.044004
31
0.046332
12
-0.179004
22
0.044004
32
0.000000
13
0.172896
23
0.044004
33
0.046332
0
3DFACE
8
default
62
251
10
0.172896
20
0.044004
30
0.046332
11
-0.179004
21
0.044004
31
0.000000
12
-0.172896
22
0.044004
32
-0.046332
13
0.172896
23
0.044004
33
0.046332
0
3DFACE
8
default
62
251
10
0.172896
20
0.044004
30
0.046332
11
-0.172896
21
0.044004
31
-0.046332
12
-0.155016
22
0.044004
32
-0.089496
13
0.172896
23
0.044004
33
0.046332
0
3DFACE
8
default
62
251
10
0.172896
20
0.044004
30
0.046332
11
-0.155016
21
0.044004
31
-0.089496
12
-0.126576
22
0.044004
32
-0.126576
13
0.172896
23
0.044004
33
0.046332
0
3DFACE
8
default
62
251
10
0.172896
20
0.044004
30
0.046332
11
-0.126576
21
0.044004
31
-0.126576
12
-0.089496
22
0.044004
32
-0.155016
13
0.172896
23
0.044004
33
0.046332
0
3DFACE
8
default
62
251
10
0.172896
20
0.044004
30
0.046332
11
-0.089496
21
0.044004
31
-0.155016
12
-0.046332
22
0.044004
32
-0.172896
13
0.172896
23
0.044004
33
0.046332
0
3DFACE
8
default
62
251
10
0.172896
20
0.044004
30
0.046332
11
-0.046332
21
0.044004
31
-0.172896
12
-0.000000
22
0.044004
32
-0.179004
13
0.172896
23
0.044004
33
0.046332
0
3DFACE
8
default
62
251
10
0.172896
20
0.044004
30
0.046332
11
-0.000000
21
0.044004
31
-0.179004
12
0.046332
22
0.044004
32
-0.172896
13
0.172896
23
0.044004
33
0.046332
0
3DFACE
8
default
62
251
10
0.172896
20
0.044004
30
0.046332
11
0.046332
21
0.044004
31
-0.172896
12
0.089496
22
0.044004
32
-0.155016
13
0.172896
23
0.044004
33
0.046332
0
3DFACE
8
default
62
251
10
0.172896
20
0.044004
30
0.046332
11
0.089496
21
0.044004
31
-0.155016
12
0.126576
22
0.044004
32
-0.126576
13
0.172896
23
0.044004
33
0.046332
0
3DFACE
8
default
62
251
10
0.172896
20
0.044004
30
0.046332
11
0.126576
21
0.044004
31
-0.126576
12
0.155016
22
0.044004
32
-0.089496
13
0.172896
23
0.044004
33
0.046332
0
3DFACE
8
default
62
251
10
0.172896
20
0.044004
30
0.046332
11
0.155016
21
0.044004
31
-0.089496
12
0.172896
22
0.044004
32
-0.046332
13
0.172896
23
0.044004
33
0.046332
0
3DFACE
8
default
62
251
10
0.172896
20
0.044004
30
0.046332
11
0.172896
21
0.044004
31
-0.046332
12
0.179004
22
0.044004
32
-0.000000
13
0.172896
23
0.044004
33
0.046332
0
3DFACE
8
default
62
251
10
0.155016
20
0.044004
30
-0.089496
11
0.155016
21
0.411000
31
-0.089496
12
0.172896
22
0.411000
32
-0.046332
13
0.155016
23
0.044004
33
-0.089496
0
3DFACE
8
default
62
251
10
0.155016
20
0.044004
30
-0.089496
11
0.172896
21
0.411000
31
-0.046332
12
0.172896
22
0.044004
32
-0.046332
13
0.155016
23
0.044004
33
-0.089496
0
3DFACE
8
default
62
251
10
0.155016
20
0.411000
30
0.089496
11
0.155016
21
0.044004
31
0.089496
12
0.172896
22
0.044004
32
0.046332
13
0.155016
23
0.411000
33
0.089496
0
3DFACE
8
default
62
251
10
0.155016
20
0.411000
30
0.089496
11
0.172896
21
0.044004
31
0.046332
12
0.172896
22
0.411000
32
0.046332
13
0.155016
23
0.411000
33
0.089496
0
3DFACE
8
default
62
251
10
0.126576
20
0.044004
30
-0.126576
11
0.126576
21
0.411000
31
-0.126576
12
0.155016
22
0.411000
32
-0.089496
13
0.126576
23
0.044004
33
-0.126576
0
3DFACE
8
default
62
251
10
0.126576
20
0.044004
30
-0.126576
11
0.155016
21
0.411000
31
-0.089496
12
0.155016
22
0.044004
32
-0.089496
13
0.126576
23
0.044004
33
-0.126576
0
3DFACE
8
default
62
251
10
0.126576
20
0.411000
30
0.126576
11
0.126576
21
0.044004
31
0.126576
12
0.155016
22
0.044004
32
0.089496
13
0.126576
23
0.411000
33
0.126576
0
3DFACE
8
default
62
251
10
0.126576
20
0.411000
30
0.126576
11
0.155016
21
0.044004
31
0.089496
12
0.155016
22
0.411000
32
0.089496
13
0.126576
23
0.411000
33
0.126576
0
3DFACE
8
default
62
251
10
0.089496
20
0.411000
30
0.155016
11
0.089496
21
0.044004
31
0.155016
12
0.126576
22
0.044004
32
0.126576
13
0.089496
23
0.411000
33
0.155016
0
3DFACE
8
default
62
251
10
0.089496
20
0.411000
30
0.155016
11
0.126576
21
0.044004
31
0.126576
12
0.126576
22
0.411000
32
0.126576
13
0.089496
23
0.411000
33
0.155016
0
3DFACE
8
default
62
251
10
0.089496
20
0.044004
30
-0.155016
11
0.089496
21
0.411000
31
-0.155016
12
0.126576
22
0.411000
32
-0.126576
13
0.089496
23
0.044004
33
-0.155016
0
3DFACE
8
default
62
251
10
0.089496
20
0.044004
30
-0.155016
11
0.126576
21
0.411000
31
-0.126576
12
0.126576
22
0.044004
32
-0.126576
13
0.089496
23
0.044004
33
-0.155016
0
3DFACE
8
default
62
251
10
0.046332
20
0.411000
30
0.172896
11
0.046332
21
0.044004
31
0.172896
12
0.089496
22
0.044004
32
0.155016
13
0.046332
23
0.411000
33
0.172896
0
3DFACE
8
default
62
251
10
0.046332
20
0.411000
30
0.172896
11
0.089496
21
0.044004
31
0.155016
12
0.089496
22
0.411000
32
0.155016
13
0.046332
23
0.411000
33
0.172896
0
3DFACE
8
default
62
251
10
0.046332
20
0.044004
30
-0.172896
11
0.046332
21
0.411000
31
-0.172896
12
0.089496
22
0.411000
32
-0.155016
13
0.046332
23
0.044004
33
-0.172896
0
3DFACE
8
default
62
251
10
0.046332
20
0.044004
30
-0.172896
11
0.089496
21
0.411000
31
-0.155016
12
0.089496
22
0.044004
32
-0.155016
13
0.046332
23
0.044004
33
-0.172896
0
3DFACE
8
default
62
251
10
0.000000
20
0.411000
30
0.179004
11
0.000000
21
0.044004
31
0.179004
12
0.046332
22
0.044004
32
0.172896
13
0.000000
23
0.411000
33
0.179004
0
3DFACE
8
default
62
251
10
0.000000
20
0.411000
30
0.179004
11
0.046332
21
0.044004
31
0.172896
12
0.046332
22
0.411000
32
0.172896
13
0.000000
23
0.411000
33
0.179004
0
3DFACE
8
default
62
251
10
-0.000000
20
0.044004
30
-0.179004
11
0.000000
21
0.411000
31
-0.179004
12
0.046332
22
0.411000
32
-0.172896
13
-0.000000
23
0.044004
33
-0.179004
0
3DFACE
8
default
62
251
10
-0.000000
20
0.044004
30
-0.179004
11
0.046332
21
0.411000
31
-0.172896
12
0.046332
22
0.044004
32
-0.172896
13
-0.000000
23
0.044004
33
-0.179004
0
3DFACE
8
default
62
251
10
-0.046332
20
0.411000
30
-0.172896
11
0.000000
21
0.411000
31
-0.179004
12
-0.000000
22
0.044004
32
-0.179004
13
-0.046332
23
0.411000
33
-0.172896
0
3DFACE
8
default
62
251
10
-0.046332
20
0.411000
30
-0.172896
11
-0.000000
21
0.044004
31
-0.179004
12
-0.046332
22
0.044004
32
-0.172896
13
-0.046332
23
0.411000
33
-0.172896
0
3DFACE
8
default
62
251
10
-0.046332
20
0.044004
30
0.172896
11
0.000000
21
0.044004
31
0.179004
12
0.000000
22
0.411000
32
0.179004
13
-0.046332
23
0.044004
33
0.172896
0
3DFACE
8
default
62
251
10
-0.046332
20
0.044004
30
0.172896
11
0.000000
21
0.411000
31
0.179004
12
-0.046332
22
0.411000
32
0.172896
13
-0.046332
23
0.044004
33
0.172896
0
3DFACE
8
default
62
251
10
-0.089496
20
0.044004
30
0.155016
11
-0.046332
21
0.044004
31
0.172896
12
-0.046332
22
0.411000
32
0.172896
13
-0.089496
23
0.044004
33
0.155016
0
3DFACE
8
default
62
251
10
-0.089496
20
0.044004
30
0.155016
11
-0.046332
21
0.411000
31
0.172896
12
-0.089496
22
0.411000
32
0.155016
13
-0.089496
23
0.044004
33
0.155016
0
3DFACE
8
default
62
251
10
-0.089496
20
0.411000
30
-0.155016
11
-0.046332
21
0.411000
31
-0.172896
12
-0.046332
22
0.044004
32
-0.172896
13
-0.089496
23
0.411000
33
-0.155016
0
3DFACE
8
default
62
251
10
-0.089496
20
0.411000
30
-0.155016
11
-0.046332
21
0.044004
31
-0.172896
12
-0.089496
22
0.044004
32
-0.155016
13
-0.089496
23
0.411000
33
-0.155016
0
3DFACE
8
default
62
251
10
-0.089496
20
0.044004
30
-0.155016
11
-0.126576
21
0.044004
31
-0.126576
12
-0.126576
22
0.411000
32
-0.126576
13
-0.089496
23
0.044004
33
-0.155016
0
3DFACE
8
default
62
251
10
-0.089496
20
0.044004
30
-0.155016
11
-0.126576
21
0.411000
31
-0.126576
12
-0.089496
22
0.411000
32
-0.155016
13
-0.089496
23
0.044004
33
-0.155016
0
3DFACE
8
default
62
251
10
-0.089496
20
0.411000
30
0.155016
11
-0.126576
21
0.411000
31
0.126576
12
-0.126576
22
0.044004
32
0.126576
13
-0.089496
23
0.411000
33
0.155016
0
3DFACE
8
default
62
251
10
-0.089496
20
0.411000
30
0.155016
11
-0.126576
21
0.044004
31
0.126576
12
-0.089496
22
0.044004
32
0.155016
13
-0.089496
23
0.411000
33
0.155016
0
3DFACE
8
default
62
251
10
-0.155016
20
0.411000
30
-0.089496
11
-0.126576
21
0.411000
31
-0.126576
12
-0.126576
22
0.044004
32
-0.126576
13
-0.155016
23
0.411000
33
-0.089496
0
3DFACE
8
default
62
251
10
-0.155016
20
0.411000
30
-0.089496
11
-0.126576
21
0.044004
31
-0.126576
12
-0.155016
22
0.044004
32
-0.089496
13
-0.155016
23
0.411000
33
-0.089496
0
3DFACE
8
default
62
251
10
-0.126576
20
0.411000
30
0.126576
11
-0.155016
21
0.411000
31
0.089496
12
-0.155016
22
0.044004
32
0.089496
13
-0.126576
23
0.411000
33
0.126576
0
3DFACE
8
default
62
251
10
-0.126576
20
0.411000
30
0.126576
11
-0.155016
21
0.044004
31
0.089496
12
-0.126576
22
0.044004
32
0.126576
13
-0.126576
23
0.411000
33
0.126576
0
3DFACE
8
default
62
251
10
-0.155016
20
0.411000
30
0.089496
11
-0.172896
21
0.411000
31
0.046332
12
-0.172896
22
0.044004
32
0.046332
13
-0.155016
23
0.411000
33
0.089496
0
3DFACE
8
default
62
251
10
-0.155016
20
0.411000
30
0.089496
11
-0.172896
21
0.044004
31
0.046332
12
-0.155016
22
0.044004
32
0.089496
13
-0.155016
23
0.411000
33
0.089496
0
3DFACE
8
default
62
251
10
-0.172896
20
0.411000
30
-0.046332
11
-0.155016
21
0.411000
31
-0.089496
12
-0.155016
22
0.044004
32
-0.089496
13
-0.172896
23
0.411000
33
-0.046332
0
3DFACE
8
default
62
251
10
-0.172896
20
0.411000
30
-0.046332
11
-0.155016
21
0.044004
31
-0.089496
12
-0.172896
22
0.044004
32
-0.046332
13
-0.172896
23
0.411000
33
-0.046332
0
3DFACE
8
default
62
251
10
-0.172896
20
0.044004
30
-0.046332
11
-0.179004
21
0.044004
31
0.000000
12
-0.179004
22
0.411000
32
0.000000
13
-0.172896
23
0.044004
33
-0.046332
0
3DFACE
8
default
62
251
10
-0.172896
20
0.044004
30
-0.046332
11
-0.179004
21
0.411000
31
0.000000
12
-0.172896
22
0.411000
32
-0.046332
13
-0.172896
23
0.044004
33
-0.046332
0
3DFACE
8
default
62
251
10
-0.179004
20
0.044004
30
0.000000
11
-0.172896
21
0.044004
31
0.046332
12
-0.172896
22
0.411000
32
0.046332
13
-0.179004
23
0.044004
33
0.000000
0
3DFACE
8
default
62
251
10
-0.179004
20
0.044004
30
0.000000
11
-0.172896
21
0.411000
31
0.046332
12
-0.179004
22
0.411000
32
0.000000
13
-0.179004
23
0.044004
33
0.000000
0
3DFACE
8
default
62
30
10
0.099996
20
0.044004
30
-0.173208
11
0.117396
21
0.044004
31
-0.162156
12
0.117396
22
0.030000
32
-0.162156
13
0.099996
23
0.044004
33
-0.173208
0
3DFACE
8
default
62
30
10
0.117648
20
0.000000
30
-0.162000
11
0.099996
21
0.000000
31
-0.173208
12
0.117396
22
0.030000
32
-0.162156
13
0.117648
23
0.000000
33
-0.162000
0
3DFACE
8
default
62
30
10
0.099996
20
0.000000
30
-0.173208
11
0.099996
21
0.044004
31
-0.173208
12
0.117396
22
0.030000
32
-0.162156
13
0.099996
23
0.000000
33
-0.173208
0
3DFACE
8
default
62
30
10
0.117396
20
0.030000
30
-0.162156
11
0.117648
21
0.030000
31
-0.162000
12
0.117648
22
0.000000
32
-0.162000
13
0.117396
23
0.030000
33
-0.162156
0
3DFACE
8
default
62
30
10
0.117648
20
0.030000
30
-0.162000
11
0.180996
21
0.030000
31
-0.162000
12
0.180996
22
-0.000000
32
-0.162000
13
0.117648
23
0.030000
33
-0.162000
0
3DFACE
8
default
62
30
10
0.117648
20
0.030000
30
-0.162000
11
0.180996
21
-0.000000
31
-0.162000
12
0.117648
22
0.000000
32
-0.162000
13
0.117648
23
0.030000
33
-0.162000
0
3DFACE
8
default
62
30
10
0.180996
20
0.030000
30
-0.162000
11
0.187464
21
0.030000
31
-0.161148
12
0.187464
22
-0.000000
32
-0.161148
13
0.180996
23
0.030000
33
-0.162000
0
3DFACE
8
default
62
30
10
0.180996
20
0.030000
30
-0.162000
11
0.187464
21
-0.000000
31
-0.161148
12
0.180996
22
-0.000000
32
-0.162000
13
0.180996
23
0.030000
33
-0.162000
0
3DFACE
8
default
62
30
10
0.187464
20
0.030000
30
-0.161148
11
0.193500
21
0.030000
31
-0.158652
12
0.193500
22
-0.000000
32
-0.158652
13
0.187464
23
0.030000
33
-0.161148
0
3DFACE
8
default
62
30
10
0.187464
20
0.030000
30
-0.161148
11
0.193500
21
-0.000000
31
-0.158652
12
0.187464
22
-0.000000
32
-0.161148
13
0.187464
23
0.030000
33
-0.161148
0
3DFACE
8
default
62
30
10
0.193500
20
0.030000
30
-0.158652
11
0.198672
21
0.030000
31
-0.154680
12
0.198672
22
-0.000000
32
-0.154680
13
0.193500
23
0.030000
33
-0.158652
0
3DFACE
8
default
62
30
10
0.193500
20
0.030000
30
-0.158652
11
0.198672
21
-0.000000
31
-0.154680
12
0.193500
22
-0.000000
32
-0.158652
13
0.193500
23
0.030000
33
-0.158652
0
3DFACE
8
default
62
30
10
0.198672
20
0.030000
30
-0.154680
11
0.200928
21
0.030000
31
-0.152088
12
0.200928
22
-0.000000
32
-0.152088
13
0.198672
23
0.030000
33
-0.154680
0
3DFACE
8
default
62
30
10
0.198672
20
0.030000
30
-0.154680
11
0.200928
21
-0.000000
31
-0.152088
12
0.198672
22
-0.000000
32
-0.154680
13
0.198672
23
0.030000
33
-0.154680
0
3DFACE
8
default
62
30
10
0.200928
20
0.030000
30
-0.152088
11
0.218244
21
0.030000
31
-0.126000
12
0.218244
22
-0.000000
32
-0.126000
13
0.200928
23
0.030000
33
-0.152088
0
3DFACE
8
default
62
30
10
0.200928
20
0.030000
30
-0.152088
11
0.218244
21
-0.000000
31
-0.126000
12
0.200928
22
-0.000000
32
-0.152088
13
0.200928
23
0.030000
33
-0.152088
0
3DFACE
8
default
62
30
10
0.218244
20
0.030000
30
-0.126000
11
0.232176
21
0.030000
31
-0.097968
12
0.232176
22
-0.000000
32
-0.097968
13
0.218244
23
0.030000
33
-0.126000
0
3DFACE
8
default
62
30
10
0.218244
20
0.030000
30
-0.126000
11
0.232176
21
-0.000000
31
-0.097968
12
0.218244
22
-0.000000
32
-0.126000
13
0.218244
23
0.030000
33
-0.126000
0
3DFACE
8
default
62
30
10
0.232176
20
0.030000
30
-0.097968
11
0.233292
21
0.030000
31
-0.094716
12
0.233292
22
-0.000000
32
-0.094716
13
0.232176
23
0.030000
33
-0.097968
0
3DFACE
8
default
62
30
10
0.232176
20
0.030000
30
-0.097968
11
0.233292
21
-0.000000
31
-0.094716
12
0.232176
22
-0.000000
32
-0.097968
13
0.232176
23
0.030000
33
-0.097968
0
3DFACE
8
default
62
30
10
0.233292
20
0.030000
30
-0.094716
11
0.234144
21
0.030000
31
-0.088248
12
0.234144
22
-0.000000
32
-0.088248
13
0.233292
23
0.030000
33
-0.094716
0
3DFACE
8
default
62
30
10
0.233292
20
0.030000
30
-0.094716
11
0.234144
21
-0.000000
31
-0.088248
12
0.233292
22
-0.000000
32
-0.094716
13
0.233292
23
0.030000
33
-0.094716
0
3DFACE
8
default
62
30
10
0.234144
20
0.030000
30
-0.088248
11
0.233292
21
0.030000
31
-0.081780
12
0.233292
22
-0.000000
32
-0.081780
13
0.234144
23
0.030000
33
-0.088248
0
3DFACE
8
default
62
30
10
0.234144
20
0.030000
30
-0.088248
11
0.233292
21
-0.000000
31
-0.081780
12
0.234144
22
-0.000000
32
-0.088248
13
0.234144
23
0.030000
33
-0.088248
0
3DFACE
8
default
62
30
10
0.233292
20
0.030000
30
-0.081780
11
0.230796
21
0.030000
31
-0.075744
12
0.230796
22
-0.000000
32
-0.075744
13
0.233292
23
0.030000
33
-0.081780
0
3DFACE
8
default
62
30
10
0.233292
20
0.030000
30
-0.081780
11
0.230796
21
-0.000000
31
-0.075744
12
0.233292
22
-0.000000
32
-0.081780
13
0.233292
23
0.030000
33
-0.081780
0
3DFACE
8
default
62
30
10
0.230796
20
0.030000
30
-0.075744
11
0.199116
21
0.030000
31
-0.020880
12
0.199116
22
-0.000000
32
-0.020880
13
0.230796
23
0.030000
33
-0.075744
0
3DFACE
8
default
62
30
10
0.230796
20
0.030000
30
-0.075744
11
0.199116
21
-0.000000
31
-0.020880
12
0.230796
22
-0.000000
32
-0.075744
13
0.230796
23
0.030000
33
-0.075744
0
3DFACE
8
default
62
30
10
0.199116
20
0.030000
30
-0.020880
11
0.199116
21
0.044004
31
-0.020880
12
0.200004
22
0.044004
32
-0.000000
13
0.199116
23
0.030000
33
-0.020880
0
3DFACE
8
default
62
30
10
0.199116
20
0.030000
30
-0.020880
11
0.200004
21
0.044004
31
-0.000000
12
0.200004
22
-0.000000
32
-0.000000
13
0.199116
23
0.030000
33
-0.020880
0
3DFACE
8
default
62
30
10
0.199116
20
0.030000
30
-0.020880
11
0.200004
21
-0.000000
31
-0.000000
12
0.199116
22
-0.000000
32
-0.020880
13
0.199116
23
0.030000
33
-0.020880
0
3DFACE
8
default
62
30
10
0.200004
20
0.044004
30
-0.000000
11
0.193188
21
0.044004
31
0.051768
12
0.193188
22
-0.000000
32
0.051768
13
0.200004
23
0.044004
33
-0.000000
0
3DFACE
8
default
62
30
10
0.200004
20
0.044004
30
-0.000000
11
0.193188
21
-0.000000
31
0.051768
12
0.200004
22
-0.000000
32
-0.000000
13
0.200004
23
0.044004
33
-0.000000
0
3DFACE
8
default
62
30
10
0.193188
20
0.044004
30
0.051768
11
0.173208
21
0.044004
31
0.099996
12
0.173208
22
-0.000000
32
0.099996
13
0.193188
23
0.044004
33
0.051768
0
3DFACE
8
default
62
30
10
0.193188
20
0.044004
30
0.051768
11
0.173208
21
-0.000000
31
0.099996
12
0.193188
22
-0.000000
32
0.051768
13
0.193188
23
0.044004
33
0.051768
0
3DFACE
8
default
62
30
10
0.173208
20
0.044004
30
0.099996
11
0.141420
21
0.044004
31
0.141420
12
0.141420
22
-0.000000
32
0.141420
13
0.173208
23
0.044004
33
0.099996
0
3DFACE
8
default
62
30
10
0.173208
20
0.044004
30
0.099996
11
0.141420
21
-0.000000
31
0.141420
12
0.173208
22
-0.000000
32
0.099996
13
0.173208
23
0.044004
33
0.099996
0
3DFACE
8
default
62
30
10
0.141420
20
0.044004
30
0.141420
11
0.099996
21
0.044004
31
0.173208
12
0.099996
22
-0.000000
32
0.173208
13
0.141420
23
0.044004
33
0.141420
0
3DFACE
8
default
62
30
10
0.141420
20
0.044004
30
0.141420
11
0.099996
21
-0.000000
31
0.173208
12
0.141420
22
-0.000000
32
0.141420
13
0.141420
23
0.044004
33
0.141420
0
3DFACE
8
default
62
30
10
0.099996
20
0.044004
30
0.173208
11
0.081648
21
0.044004
31
0.182568
12
0.081648
22
0.030000
32
0.182568
13
0.099996
23
0.044004
33
0.173208
0
3DFACE
8
default
62
30
10
0.099996
20
0.044004
30
0.173208
11
0.081648
21
0.030000
31
0.182568
12
0.081648
22
-0.000000
32
0.182568
13
0.099996
23
0.044004
33
0.173208
0
3DFACE
8
default
62
30
10
0.099996
20
0.044004
30
0.173208
11
0.081648
21
-0.000000
31
0.182568
12
0.099996
22
-0.000000
32
0.173208
13
0.099996
23
0.044004
33
0.173208
0
3DFACE
8
default
62
30
10
0.081648
20
0.030000
30
0.182568
11
0.049800
21
0.030000
31
0.237744
12
0.049800
22
-0.000000
32
0.237744
13
0.081648
23
0.030000
33
0.182568
0
3DFACE
8
default
62
30
10
0.081648
20
0.030000
30
0.182568
11
0.049800
21
-0.000000
31
0.237744
12
0.081648
22
-0.000000
32
0.182568
13
0.081648
23
0.030000
33
0.182568
0
3DFACE
8
default
62
30
10
0.049800
20
0.030000
30
0.237744
11
0.045828
21
0.030000
31
0.242928
12
0.045828
22
-0.000000
32
0.242928
13
0.049800
23
0.030000
33
0.237744
0
3DFACE
8
default
62
30
10
0.049800
20
0.030000
30
0.237744
11
0.045828
21
-0.000000
31
0.242928
12
0.049800
22
-0.000000
32
0.237744
13
0.049800
23
0.030000
33
0.237744
0
3DFACE
8
default
62
30
10
0.045828
20
0.030000
30
0.242928
11
0.040644
21
0.030000
31
0.246900
12
0.040644
22
-0.000000
32
0.246900
13
0.045828
23
0.030000
33
0.242928
0
3DFACE
8
default
62
30
10
0.045828
20
0.030000
30
0.242928
11
0.040644
21
-0.000000
31
0.246900
12
0.045828
22
-0.000000
32
0.242928
13
0.045828
23
0.030000
33
0.242928
0
3DFACE
8
default
62
30
10
0.040644
20
0.030000
30
0.246900
11
0.034620
21
0.030000
31
0.249396
12
0.034620
22
-0.000000
32
0.249396
13
0.040644
23
0.030000
33
0.246900
0
3DFACE
8
default
62
30
10
0.040644
20
0.030000
30
0.246900
11
0.034620
21
-0.000000
31
0.249396
12
0.040644
22
-0.000000
32
0.246900
13
0.040644
23
0.030000
33
0.246900
0
3DFACE
8
default
62
30
10
0.034620
20
0.030000
30
0.249396
11
0.031248
21
0.030000
31
0.250056
12
0.031248
22
-0.000000
32
0.250056
13
0.034620
23
0.030000
33
0.249396
0
3DFACE
8
default
62
30
10
0.034620
20
0.030000
30
0.249396
11
0.031248
21
-0.000000
31
0.250056
12
0.034620
22
-0.000000
32
0.249396
13
0.034620
23
0.030000
33
0.249396
0
3DFACE
8
default
62
30
10
0.031248
20
0.030000
30
0.250056
11
0.000000
21
0.030000
31
0.252000
12
0.000000
22
-0.000000
32
0.252000
13
0.031248
23
0.030000
33
0.250056
0
3DFACE
8
default
62
30
10
0.031248
20
0.030000
30
0.250056
11
0.000000
21
-0.000000
31
0.252000
12
0.031248
22
-0.000000
32
0.250056
13
0.031248
23
0.030000
33
0.250056
0
3DFACE
8
default
62
30
10
0.000000
20
0.030000
30
0.252000
11
-0.031248
21
0.030000
31
0.250056
12
-0.031248
22
-0.000000
32
0.250056
13
0.000000
23
0.030000
33
0.252000
0
3DFACE
8
default
62
30
10
0.000000
20
0.030000
30
0.252000
11
-0.031248
21
-0.000000
31
0.250056
12
0.000000
22
-0.000000
32
0.252000
13
0.000000
23
0.030000
33
0.252000
0
3DFACE
8
default
62
30
10
-0.031248
20
0.030000
30
0.250056
11
-0.034620
21
0.030000
31
0.249396
12
-0.034620
22
-0.000000
32
0.249396
13
-0.031248
23
0.030000
33
0.250056
0
3DFACE
8
default
62
30
10
-0.031248
20
0.030000
30
0.250056
11
-0.034620
21
-0.000000
31
0.249396
12
-0.031248
22
-0.000000
32
0.250056
13
-0.031248
23
0.030000
33
0.250056
0
3DFACE
8
default
62
30
10
-0.034620
20
0.030000
30
0.249396
11
-0.040644
21
0.030000
31
0.246900
12
-0.040644
22
-0.000000
32
0.246900
13
-0.034620
23
0.030000
33
0.249396
0
3DFACE
8
default
62
30
10
-0.034620
20
0.030000
30
0.249396
11
-0.040644
21
-0.000000
31
0.246900
12
-0.034620
22
-0.000000
32
0.249396
13
-0.034620
23
0.030000
33
0.249396
0
3DFACE
8
default
62
30
10
-0.040644
20
0.030000
30
0.246900
11
-0.045828
21
0.030000
31
0.242928
12
-0.045828
22
-0.000000
32
0.242928
13
-0.040644
23
0.030000
33
0.246900
0
3DFACE
8
default
62
30
10
-0.040644
20
0.030000
30
0.246900
11
-0.045828
21
-0.000000
31
0.242928
12
-0.040644
22
-0.000000
32
0.246900
13
-0.040644
23
0.030000
33
0.246900
0
3DFACE
8
default
62
30
10
-0.045828
20
0.030000
30
0.242928
11
-0.049800
21
0.030000
31
0.237744
12
-0.049800
22
-0.000000
32
0.237744
13
-0.045828
23
0.030000
33
0.242928
0
3DFACE
8
default
62
30
10
-0.045828
20
0.030000
30
0.242928
11
-0.049800
21
-0.000000
31
0.237744
12
-0.045828
22
-0.000000
32
0.242928
13
-0.045828
23
0.030000
33
0.242928
0
3DFACE
8
default
62
30
10
-0.049800
20
0.030000
30
0.237744
11
-0.081480
21
0.030000
31
0.182880
12
-0.081480
22
-0.000000
32
0.182880
13
-0.049800
23
0.030000
33
0.237744
0
3DFACE
8
default
62
30
10
-0.049800
20
0.030000
30
0.237744
11
-0.081480
21
-0.000000
31
0.182880
12
-0.049800
22
-0.000000
32
0.237744
13
-0.049800
23
0.030000
33
0.237744
0
3DFACE
8
default
62
30
10
-0.081480
20
0.030000
30
0.182880
11
-0.081480
21
0.044004
31
0.182880
12
-0.099996
22
0.044004
32
0.173208
13
-0.081480
23
0.030000
33
0.182880
0
3DFACE
8
default
62
30
10
-0.081480
20
0.030000
30
0.182880
11
-0.099996
21
0.044004
31
0.173208
12
-0.099996
22
-0.000000
32
0.173208
13
-0.081480
23
0.030000
33
0.182880
0
3DFACE
8
default
62
30
10
-0.081480
20
0.030000
30
0.182880
11
-0.099996
21
-0.000000
31
0.173208
12
-0.081480
22
-0.000000
32
0.182880
13
-0.081480
23
0.030000
33
0.182880
0
3DFACE
8
default
62
30
10
-0.099996
20
0.044004
30
0.173208
11
-0.141420
21
0.044004
31
0.141420
12
-0.141420
22
0.000000
32
0.141420
13
-0.099996
23
0.044004
33
0.173208
0
3DFACE
8
default
62
30
10
-0.099996
20
0.044004
30
0.173208
11
-0.141420
21
0.000000
31
0.141420
12
-0.099996
22
-0.000000
32
0.173208
13
-0.099996
23
0.044004
33
0.173208
0
3DFACE
8
default
62
30
10
-0.141420
20
0.044004
30
0.141420
11
-0.173208
21
0.044004
31
0.099996
12
-0.173208
22
0.000000
32
0.099996
13
-0.141420
23
0.044004
33
0.141420
0
3DFACE
8
default
62
30
10
-0.141420
20
0.044004
30
0.141420
11
-0.173208
21
0.000000
31
0.099996
12
-0.141420
22
0.000000
32
0.141420
13
-0.141420
23
0.044004
33
0.141420
0
3DFACE
8
default
62
30
10
-0.173208
20
0.044004
30
0.099996
11
-0.193188
21
0.044004
31
0.051768
12
-0.193188
22
0.000000
32
0.051768
13
-0.173208
23
0.044004
33
0.099996
0
3DFACE
8
default
62
30
10
-0.173208
20
0.044004
30
0.099996
11
-0.193188
21
0.000000
31
0.051768
12
-0.173208
22
0.000000
32
0.099996
13
-0.173208
23
0.044004
33
0.099996
0
3DFACE
8
default
62
30
10
-0.193188
20
0.044004
30
0.051768
11
-0.200004
21
0.044004
31
0.000000
12
-0.200004
22
0.000000
32
0.000000
13
-0.193188
23
0.044004
33
0.051768
0
3DFACE
8
default
62
30
10
-0.193188
20
0.044004
30
0.051768
11
-0.200004
21
0.000000
31
0.000000
12
-0.193188
22
0.000000
32
0.051768
13
-0.193188
23
0.044004
33
0.051768
0
3DFACE
8
default
62
30
10
-0.200004
20
0.044004
30
0.000000
11
-0.199128
21
0.044004
31
-0.020592
12
-0.199128
22
0.030000
32
-0.020592
13
-0.200004
23
0.044004
33
0.000000
0
3DFACE
8
default
62
30
10
-0.199116
20
0.000000
30
-0.020880
11
-0.200004
21
0.000000
31
0.000000
12
-0.199128
22
0.030000
32
-0.020592
13
-0.199116
23
0.000000
33
-0.020880
0
3DFACE
8
default
62
30
10
-0.200004
20
0.000000
30
0.000000
11
-0.200004
21
0.044004
31
0.000000
12
-0.199128
22
0.030000
32
-0.020592
13
-0.200004
23
0.000000
33
0.000000
0
3DFACE
8
default
62
30
10
-0.199128
20
0.030000
30
-0.020592
11
-0.199116
21
0.030000
31
-0.020880
12
-0.199116
22
0.000000
32
-0.020880
13
-0.199128
23
0.030000
33
-0.020592
0
3DFACE
8
default
62
30
10
-0.199116
20
0.030000
30
-0.020880
11
-0.230796
21
0.030000
31
-0.075744
12
-0.230796
22
0.000000
32
-0.075744
13
-0.199116
23
0.030000
33
-0.020880
0
3DFACE
8
default
62
30
10
-0.199116
20
0.030000
30
-0.020880
11
-0.230796
21
0.000000
31
-0.075744
12
-0.199116
22
0.000000
32
-0.020880
13
-0.199116
23
0.030000
33
-0.020880
0
3DFACE
8
default
62
30
10
-0.230796
20
0.030000
30
-0.075744
11
-0.233292
21
0.030000
31
-0.081780
12
-0.233292
22
0.000000
32
-0.081780
13
-0.230796
23
0.030000
33
-0.075744
0
3DFACE
8
default
62
30
10
-0.230796
20
0.030000
30
-0.075744
11
-0.233292
21
0.000000
31
-0.081780
12
-0.230796
22
0.000000
32
-0.075744
13
-0.230796
23
0.030000
33
-0.075744
0
3DFACE
8
default
62
30
10
-0.233292
20
0.030000
30
-0.081780
11
-0.234144
21
0.030000
31
-0.088248
12
-0.234144
22
0.000000
32
-0.088248
13
-0.233292
23
0.030000
33
-0.081780
0
3DFACE
8
default
62
30
10
-0.233292
20
0.030000
30
-0.081780
11
-0.234144
21
0.000000
31
-0.088248
12
-0.233292
22
0.000000
32
-0.081780
13
-0.233292
23
0.030000
33
-0.081780
0
3DFACE
8
default
62
30
10
-0.234144
20
0.030000
30
-0.088248
11
-0.233292
21
0.030000
31
-0.094716
12
-0.233292
22
0.000000
32
-0.094716
13
-0.234144
23
0.030000
33
-0.088248
0
3DFACE
8
default
62
30
10
-0.234144
20
0.030000
30
-0.088248
11
-0.233292
21
0.000000
31
-0.094716
12
-0.234144
22
0.000000
32
-0.088248
13
-0.234144
23
0.030000
33
-0.088248
0
3DFACE
8
default
62
30
10
-0.233292
20
0.030000
30
-0.094716
11
-0.232176
21
0.030000
31
-0.097968
12
-0.232176
22
0.000000
32
-0.097968
13
-0.233292
23
0.030000
33
-0.094716
0
3DFACE
8
default
62
30
10
-0.233292
20
0.030000
30
-0.094716
11
-0.232176
21
0.000000
31
-0.097968
12
-0.233292
22
0.000000
32
-0.094716
13
-0.233292
23
0.030000
33
-0.094716
0
3DFACE
8
default
62
30
10
-0.232176
20
0.030000
30
-0.097968
11
-0.218244
21
0.030000
31
-0.126000
12
-0.218244
22
0.000000
32
-0.126000
13
-0.232176
23
0.030000
33
-0.097968
0
3DFACE
8
default
62
30
10
-0.232176
20
0.030000
30
-0.097968
11
-0.218244
21
0.000000
31
-0.126000
12
-0.232176
22
0.000000
32
-0.097968
13
-0.232176
23
0.030000
33
-0.097968
0
3DFACE
8
default
62
30
10
-0.218244
20
0.030000
30
-0.126000
11
-0.200928
21
0.030000
31
-0.152088
12
-0.200928
22
0.000000
32
-0.152088
13
-0.218244
23
0.030000
33
-0.126000
0
3DFACE
8
default
62
30
10
-0.218244
20
0.030000
30
-0.126000
11
-0.200928
21
0.000000
31
-0.152088
12
-0.218244
22
0.000000
32
-0.126000
13
-0.218244
23
0.030000
33
-0.126000
0
3DFACE
8
default
62
30
10
-0.200928
20
0.030000
30
-0.152088
11
-0.198672
21
0.030000
31
-0.154680
12
-0.198672
22
0.000000
32
-0.154680
13
-0.200928
23
0.030000
33
-0.152088
0
3DFACE
8
default
62
30
10
-0.200928
20
0.030000
30
-0.152088
11
-0.198672
21
0.000000
31
-0.154680
12
-0.200928
22
0.000000
32
-0.152088
13
-0.200928
23
0.030000
33
-0.152088
0
3DFACE
8
default
62
30
10
-0.198672
20
0.030000
30
-0.154680
11
-0.193500
21
0.030000
31
-0.158652
12
-0.193500
22
0.000000
32
-0.158652
13
-0.198672
23
0.030000
33
-0.154680
0
3DFACE
8
default
62
30
10
-0.198672
20
0.030000
30
-0.154680
11
-0.193500
21
0.000000
31
-0.158652
12
-0.198672
22
0.000000
32
-0.154680
13
-0.198672
23
0.030000
33
-0.154680
0
3DFACE
8
default
62
30
10
-0.193500
20
0.030000
30
-0.158652
11
-0.187464
21
0.030000
31
-0.161148
12
-0.187464
22
0.000000
32
-0.161148
13
-0.193500
23
0.030000
33
-0.158652
0
3DFACE
8
default
62
30
10
-0.193500
20
0.030000
30
-0.158652
11
-0.187464
21
0.000000
31
-0.161148
12
-0.193500
22
0.000000
32
-0.158652
13
-0.193500
23
0.030000
33
-0.158652
0
3DFACE
8
default
62
30
10
-0.187464
20
0.030000
30
-0.161148
11
-0.180996
21
0.030000
31
-0.162000
12
-0.180996
22
0.000000
32
-0.162000
13
-0.187464
23
0.030000
33
-0.161148
0
3DFACE
8
default
62
30
10
-0.187464
20
0.030000
30
-0.161148
11
-0.180996
21
0.000000
31
-0.162000
12
-0.187464
22
0.000000
32
-0.161148
13
-0.187464
23
0.030000
33
-0.161148
0
3DFACE
8
default
62
30
10
-0.180996
20
0.030000
30
-0.162000
11
-0.117648
21
0.030000
31
-0.162000
12
-0.117648
22
0.000000
32
-0.162000
13
-0.180996
23
0.030000
33
-0.162000
0
3DFACE
8
default
62
30
10
-0.180996
20
0.030000
30
-0.162000
11
-0.117648
21
0.000000
31
-0.162000
12
-0.180996
22
0.000000
32
-0.162000
13
-0.180996
23
0.030000
33
-0.162000
0
3DFACE
8
default
62
30
10
-0.117648
20
0.030000
30
-0.162000
11
-0.117648
21
0.044004
31
-0.162000
12
-0.099996
22
0.044004
32
-0.173208
13
-0.117648
23
0.030000
33
-0.162000
0
3DFACE
8
default
62
30
10
-0.117648
20
0.030000
30
-0.162000
11
-0.099996
21
0.044004
31
-0.173208
12
-0.099996
22
0.000000
32
-0.173208
13
-0.117648
23
0.030000
33
-0.162000
0
3DFACE
8
default
62
30
10
-0.117648
20
0.030000
30
-0.162000
11
-0.099996
21
0.000000
31
-0.173208
12
-0.117648
22
0.000000
32
-0.162000
13
-0.117648
23
0.030000
33
-0.162000
0
3DFACE
8
default
62
30
10
-0.099996
20
0.044004
30
-0.173208
11
-0.051768
21
0.044004
31
-0.193188
12
-0.051768
22
0.000000
32
-0.193188
13
-0.099996
23
0.044004
33
-0.173208
0
3DFACE
8
default
62
30
10
-0.099996
20
0.044004
30
-0.173208
11
-0.051768
21
0.000000
31
-0.193188
12
-0.099996
22
0.000000
32
-0.173208
13
-0.099996
23
0.044004
33
-0.173208
0
3DFACE
8
default
62
30
10
-0.051768
20
0.044004
30
-0.193188
11
-0.000000
21
0.044004
31
-0.200004
12
-0.000000
22
0.000000
32
-0.200004
13
-0.051768
23
0.044004
33
-0.193188
0
3DFACE
8
default
62
30
10
-0.051768
20
0.044004
30
-0.193188
11
-0.000000
21
0.000000
31
-0.200004
12
-0.051768
22
0.000000
32
-0.193188
13
-0.051768
23
0.044004
33
-0.193188
0
3DFACE
8
default
62
30
10
-0.000000
20
0.044004
30
-0.200004
11
0.051768
21
0.044004
31
-0.193188
12
0.051768
22
0.000000
32
-0.193188
13
-0.000000
23
0.044004
33
-0.200004
0
3DFACE
8
default
62
30
10
-0.000000
20
0.044004
30
-0.200004
11
0.051768
21
0.000000
31
-0.193188
12
-0.000000
22
0.000000
32
-0.200004
13
-0.000000
23
0.044004
33
-0.200004
0
3DFACE
8
default
62
30
10
0.051768
20
0.044004
30
-0.193188
11
0.099996
21
0.044004
31
-0.173208
12
0.099996
22
0.000000
32
-0.173208
13
0.051768
23
0.044004
33
-0.193188
0
3DFACE
8
default
62
30
10
0.051768
20
0.044004
30
-0.193188
11
0.099996
21
0.000000
31
-0.173208
12
0.051768
22
0.000000
32
-0.193188
13
0.051768
23
0.044004
33
-0.193188
0
3DFACE
8
default
62
30
10
-0.184464
20
0.000000
30
-0.118500
11
-0.184464
21
0.030000
31
-0.118500
12
-0.183264
22
0.030000
32
-0.115608
13
-0.184464
23
0.000000
33
-0.118500
0
3DFACE
8
default
62
30
10
-0.184464
20
0.000000
30
-0.118500
11
-0.183264
21
0.030000
31
-0.115608
12
-0.183264
22
0.000000
32
-0.115608
13
-0.184464
23
0.000000
33
-0.118500
0
3DFACE
8
default
62
30
10
-0.186372
20
0.000000
30
-0.120984
11
-0.186372
21
0.030000
31
-0.120984
12
-0.184464
22
0.030000
32
-0.118500
13
-0.186372
23
0.000000
33
-0.120984
0
3DFACE
8
default
62
30
10
-0.186372
20
0.000000
30
-0.120984
11
-0.184464
21
0.030000
31
-0.118500
12
-0.184464
22
0.000000
32
-0.118500
13
-0.186372
23
0.000000
33
-0.120984
0
3DFACE
8
default
62
30
10
-0.188856
20
0.000000
30
-0.122892
11
-0.188856
21
0.030000
31
-0.122892
12
-0.186372
22
0.030000
32
-0.120984
13
-0.188856
23
0.000000
33
-0.122892
0
3DFACE
8
default
62
30
10
-0.188856
20
0.000000
30
-0.122892
11
-0.186372
21
0.030000
31
-0.120984
12
-0.186372
22
0.000000
32
-0.120984
13
-0.188856
23
0.000000
33
-0.122892
0
3DFACE
8
default
62
30
10
-0.191748
20
0.000000
30
-0.124092
11
-0.191748
21
0.030000
31
-0.124092
12
-0.188856
22
0.030000
32
-0.122892
13
-0.191748
23
0.000000
33
-0.124092
0
3DFACE
8
default
62
30
10
-0.191748
20
0.000000
30
-0.124092
11
-0.188856
21
0.030000
31
-0.122892
12
-0.188856
22
0.000000
32
-0.122892
13
-0.191748
23
0.000000
33
-0.124092
0
3DFACE
8
default
62
30
10
-0.194856
20
0.000000
30
-0.124500
11
-0.194856
21
0.030000
31
-0.124500
12
-0.191748
22
0.030000
32
-0.124092
13
-0.194856
23
0.000000
33
-0.124500
0
3DFACE
8
default
62
30
10
-0.194856
20
0.000000
30
-0.124500
11
-0.191748
21
0.030000
31
-0.124092
12
-0.191748
22
0.000000
32
-0.124092
13
-0.194856
23
0.000000
33
-0.124500
0
3DFACE
8
default
62
30
10
-0.197964
20
0.000000
30
-0.124092
11
-0.197964
21
0.030000
31
-0.124092
12
-0.194856
22
0.030000
32
-0.124500
13
-0.197964
23
0.000000
33
-0.124092
0
3DFACE
8
default
62
30
10
-0.197964
20
0.000000
30
-0.124092
11
-0.194856
21
0.030000
31
-0.124500
12
-0.194856
22
0.000000
32
-0.124500
13
-0.197964
23
0.000000
33
-0.124092
0
3DFACE
8
default
62
30
10
-0.200856
20
0.000000
30
-0.122892
11
-0.200856
21
0.030000
31
-0.122892
12
-0.197964
22
0.030000
32
-0.124092
13
-0.200856
23
0.000000
33
-0.122892
0
3DFACE
8
default
62
30
10
-0.200856
20
0.000000
30
-0.122892
11
-0.197964
21
0.030000
31
-0.124092
12
-0.197964
22
0.000000
32
-0.124092
13
-0.200856
23
0.000000
33
-0.122892
0
3DFACE
8
default
62
30
10
-0.203340
20
0.000000
30
-0.120984
11
-0.203340
21
0.030000
31
-0.120984
12
-0.200856
22
0.030000
32
-0.122892
13
-0.203340
23
0.000000
33
-0.120984
0
3DFACE
8
default
62
30
10
-0.203340
20
0.000000
30
-0.120984
11
-0.200856
21
0.030000
31
-0.122892
12
-0.200856
22
0.000000
32
-0.122892
13
-0.203340
23
0.000000
33
-0.120984
0
3DFACE
8
default
62
30
10
-0.205248
20
0.000000
30
-0.118500
11
-0.205248
21
0.030000
31
-0.118500
12
-0.203340
22
0.030000
32
-0.120984
13
-0.205248
23
0.000000
33
-0.118500
0
3DFACE
8
default
62
30
10
-0.205248
20
0.000000
30
-0.118500
11
-0.203340
21
0.030000
31
-0.120984
12
-0.203340
22
0.000000
32
-0.120984
13
-0.205248
23
0.000000
33
-0.118500
0
3DFACE
8
default
62
30
10
-0.205584
20
0.000000
30
-0.117864
11
-0.205584
21
0.030000
31
-0.117864
12
-0.205248
22
0.030000
32
-0.118500
13
-0.205584
23
0.000000
33
-0.117864
0
3DFACE
8
default
62
30
10
-0.205584
20
0.000000
30
-0.117864
11
-0.205248
21
0.030000
31
-0.118500
12
-0.205248
22
0.000000
32
-0.118500
13
-0.205584
23
0.000000
33
-0.117864
0
3DFACE
8
default
62
30
10
-0.206448
20
0.000000
30
-0.115608
11
-0.206448
21
0.030000
31
-0.115608
12
-0.205584
22
0.030000
32
-0.117864
13
-0.206448
23
0.000000
33
-0.115608
0
3DFACE
8
default
62
30
10
-0.206448
20
0.000000
30
-0.115608
11
-0.205584
21
0.030000
31
-0.117864
12
-0.205584
22
0.000000
32
-0.117864
13
-0.206448
23
0.000000
33
-0.115608
0
3DFACE
8
default
62
30
10
-0.206856
20
0.000000
30
-0.112500
11
-0.206856
21
0.030000
31
-0.112500
12
-0.206448
22
0.030000
32
-0.115608
13
-0.206856
23
0.000000
33
-0.112500
0
3DFACE
8
default
62
30
10
-0.206856
20
0.000000
30
-0.112500
11
-0.206448
21
0.030000
31
-0.115608
12
-0.206448
22
0.000000
32
-0.115608
13
-0.206856
23
0.000000
33
-0.112500
0
3DFACE
8
default
62
30
10
-0.206448
20
0.000000
30
-0.109392
11
-0.206448
21
0.030000
31
-0.109392
12
-0.206856
22
0.030000
32
-0.112500
13
-0.206448
23
0.000000
33
-0.109392
0
3DFACE
8
default
62
30
10
-0.206448
20
0.000000
30
-0.109392
11
-0.206856
21
0.030000
31
-0.112500
12
-0.206856
22
0.000000
32
-0.112500
13
-0.206448
23
0.000000
33
-0.109392
0
3DFACE
8
default
62
30
10
-0.205248
20
0.000000
30
-0.106500
11
-0.205248
21
0.030000
31
-0.106500
12
-0.206448
22
0.030000
32
-0.109392
13
-0.205248
23
0.000000
33
-0.106500
0
3DFACE
8
default
62
30
10
-0.205248
20
0.000000
30
-0.106500
11
-0.206448
21
0.030000
31
-0.109392
12
-0.206448
22
0.000000
32
-0.109392
13
-0.205248
23
0.000000
33
-0.106500
0
3DFACE
8
default
62
30
10
-0.203340
20
0.000000
30
-0.104016
11
-0.203340
21
0.030000
31
-0.104016
12
-0.205248
22
0.030000
32
-0.106500
13
-0.203340
23
0.000000
33
-0.104016
0
3DFACE
8
default
62
30
10
-0.203340
20
0.000000
30
-0.104016
11
-0.205248
21
0.030000
31
-0.106500
12
-0.205248
22
0.000000
32
-0.106500
13
-0.203340
23
0.000000
33
-0.104016
0
3DFACE
8
default
62
30
10
-0.200856
20
0.000000
30
-0.102108
11
-0.200856
21
0.030000
31
-0.102108
12
-0.203340
22
0.030000
32
-0.104016
13
-0.200856
23
0.000000
33
-0.102108
0
3DFACE
8
default
62
30
10
-0.200856
20
0.000000
30
-0.102108
11
-0.203340
21
0.030000
31
-0.104016
12
-0.203340
22
0.000000
32
-0.104016
13
-0.200856
23
0.000000
33
-0.102108
0
3DFACE
8
default
62
30
10
-0.197964
20
0.000000
30
-0.100908
11
-0.197964
21
0.030000
31
-0.100908
12
-0.200856
22
0.030000
32
-0.102108
13
-0.197964
23
0.000000
33
-0.100908
0
3DFACE
8
default
62
30
10
-0.197964
20
0.000000
30
-0.100908
11
-0.200856
21
0.030000
31
-0.102108
12
-0.200856
22
0.000000
32
-0.102108
13
-0.197964
23
0.000000
33
-0.100908
0
3DFACE
8
default
62
30
10
-0.194856
20
0.000000
30
-0.100500
11
-0.194856
21
0.030000
31
-0.100500
12
-0.197964
22
0.030000
32
-0.100908
13
-0.194856
23
0.000000
33
-0.100500
0
3DFACE
8
default
62
30
10
-0.194856
20
0.000000
30
-0.100500
11
-0.197964
21
0.030000
31
-0.100908
12
-0.197964
22
0.000000
32
-0.100908
13
-0.194856
23
0.000000
33
-0.100500
0
3DFACE
8
default
62
30
10
-0.191748
20
0.000000
30
-0.100908
11
-0.191748
21
0.030000
31
-0.100908
12
-0.194856
22
0.030000
32
-0.100500
13
-0.191748
23
0.000000
33
-0.100908
0
3DFACE
8
default
62
30
10
-0.191748
20
0.000000
30
-0.100908
11
-0.194856
21
0.030000
31
-0.100500
12
-0.194856
22
0.000000
32
-0.100500
13
-0.191748
23
0.000000
33
-0.100908
0
3DFACE
8
default
62
30
10
-0.188856
20
0.000000
30
-0.102108
11
-0.188856
21
0.030000
31
-0.102108
12
-0.191748
22
0.030000
32
-0.100908
13
-0.188856
23
0.000000
33
-0.102108
0
3DFACE
8
default
62
30
10
-0.188856
20
0.000000
30
-0.102108
11
-0.191748
21
0.030000
31
-0.100908
12
-0.191748
22
0.000000
32
-0.100908
13
-0.188856
23
0.000000
33
-0.102108
0
3DFACE
8
default
62
30
10
-0.186372
20
0.000000
30
-0.104016
11
-0.186372
21
0.030000
31
-0.104016
12
-0.188856
22
0.030000
32
-0.102108
13
-0.186372
23
0.000000
33
-0.104016
0
3DFACE
8
default
62
30
10
-0.186372
20
0.000000
30
-0.104016
11
-0.188856
21
0.030000
31
-0.102108
12
-0.188856
22
0.000000
32
-0.102108
13
-0.186372
23
0.000000
33
-0.104016
0
3DFACE
8
default
62
30
10
-0.184464
20
0.000000
30
-0.106500
11
-0.184464
21
0.030000
31
-0.106500
12
-0.186372
22
0.030000
32
-0.104016
13
-0.184464
23
0.000000
33
-0.106500
0
3DFACE
8
default
62
30
10
-0.184464
20
0.000000
30
-0.106500
11
-0.186372
21
0.030000
31
-0.104016
12
-0.186372
22
0.000000
32
-0.104016
13
-0.184464
23
0.000000
33
-0.106500
0
3DFACE
8
default
62
30
10
-0.183264
20
0.000000
30
-0.109392
11
-0.183264
21
0.030000
31
-0.109392
12
-0.184464
22
0.030000
32
-0.106500
13
-0.183264
23
0.000000
33
-0.109392
0
3DFACE
8
default
62
30
10
-0.183264
20
0.000000
30
-0.109392
11
-0.184464
21
0.030000
31
-0.106500
12
-0.184464
22
0.000000
32
-0.106500
13
-0.183264
23
0.000000
33
-0.109392
0
3DFACE
8
default
62
30
10
-0.182856
20
0.000000
30
-0.112500
11
-0.182856
21
0.030000
31
-0.112500
12
-0.183264
22
0.030000
32
-0.109392
13
-0.182856
23
0.000000
33
-0.112500
0
3DFACE
8
default
62
30
10
-0.182856
20
0.000000
30
-0.112500
11
-0.183264
21
0.030000
31
-0.109392
12
-0.183264
22
0.000000
32
-0.109392
13
-0.182856
23
0.000000
33
-0.112500
0
3DFACE
8
default
62
30
10
-0.183264
20
0.000000
30
-0.115608
11
-0.183264
21
0.030000
31
-0.115608
12
-0.182856
22
0.030000
32
-0.112500
13
-0.183264
23
0.000000
33
-0.115608
0
3DFACE
8
default
62
30
10
-0.183264
20
0.000000
30
-0.115608
11
-0.182856
21
0.030000
31
-0.112500
12
-0.182856
22
0.000000
32
-0.112500
13
-0.183264
23
0.000000
33
-0.115608
0
3DFACE
8
default
62
30
10
0.011592
20
-0.000000
30
0.221892
11
0.011592
21
0.030000
31
0.221892
12
0.012000
22
0.030000
32
0.225000
13
0.011592
23
-0.000000
33
0.221892
0
3DFACE
8
default
62
30
10
0.011592
20
-0.000000
30
0.221892
11
0.012000
21
0.030000
31
0.225000
12
0.012000
22
-0.000000
32
0.225000
13
0.011592
23
-0.000000
33
0.221892
0
3DFACE
8
default
62
30
10
0.010392
20
-0.000000
30
0.219000
11
0.010392
21
0.030000
31
0.219000
12
0.011592
22
0.030000
32
0.221892
13
0.010392
23
-0.000000
33
0.219000
0
3DFACE
8
default
62
30
10
0.010392
20
-0.000000
30
0.219000
11
0.011592
21
0.030000
31
0.221892
12
0.011592
22
-0.000000
32
0.221892
13
0.010392
23
-0.000000
33
0.219000
0
3DFACE
8
default
62
30
10
0.008484
20
-0.000000
30
0.216516
11
0.008484
21
0.030000
31
0.216516
12
0.010392
22
0.030000
32
0.219000
13
0.008484
23
-0.000000
33
0.216516
0
3DFACE
8
default
62
30
10
0.008484
20
-0.000000
30
0.216516
11
0.010392
21
0.030000
31
0.219000
12
0.010392
22
-0.000000
32
0.219000
13
0.008484
23
-0.000000
33
0.216516
0
3DFACE
8
default
62
30
10
0.006000
20
-0.000000
30
0.214608
11
0.006000
21
0.030000
31
0.214608
12
0.008484
22
0.030000
32
0.216516
13
0.006000
23
-0.000000
33
0.214608
0
3DFACE
8
default
62
30
10
0.006000
20
-0.000000
30
0.214608
11
0.008484
21
0.030000
31
0.216516
12
0.008484
22
-0.000000
32
0.216516
13
0.006000
23
-0.000000
33
0.214608
0
3DFACE
8
default
62
30
10
0.003108
20
-0.000000
30
0.213408
11
0.003108
21
0.030000
31
0.213408
12
0.006000
22
0.030000
32
0.214608
13
0.003108
23
-0.000000
33
0.213408
0
3DFACE
8
default
62
30
10
0.003108
20
-0.000000
30
0.213408
11
0.006000
21
0.030000
31
0.214608
12
0.006000
22
-0.000000
32
0.214608
13
0.003108
23
-0.000000
33
0.213408
0
3DFACE
8
default
62
30
10
0.000000
20
-0.000000
30
0.213000
11
0.000000
21
0.030000
31
0.213000
12
0.003108
22
0.030000
32
0.213408
13
0.000000
23
-0.000000
33
0.213000
0
3DFACE
8
default
62
30
10
0.000000
20
-0.000000
30
0.213000
11
0.003108
21
0.030000
31
0.213408
12
0.003108
22
-0.000000
32
0.213408
13
0.000000
23
-0.000000
33
0.213000
0
3DFACE
8
default
62
30
10
-0.003108
20
-0.000000
30
0.213408
11
-0.003108
21
0.030000
31
0.213408
12
0.000000
22
0.030000
32
0.213000
13
-0.003108
23
-0.000000
33
0.213408
0
3DFACE
8
default
62
30
10
-0.003108
20
-0.000000
30
0.213408
11
0.000000
21
0.030000
31
0.213000
12
0.000000
22
-0.000000
32
0.213000
13
-0.003108
23
-0.000000
33
0.213408
0
3DFACE
8
default
62
30
10
-0.006000
20
-0.000000
30
0.214608
11
-0.006000
21
0.030000
31
0.214608
12
-0.003108
22
0.030000
32
0.213408
13
-0.006000
23
-0.000000
33
0.214608
0
3DFACE
8
default
62
30
10
-0.006000
20
-0.000000
30
0.214608
11
-0.003108
21
0.030000
31
0.213408
12
-0.003108
22
-0.000000
32
0.213408
13
-0.006000
23
-0.000000
33
0.214608
0
3DFACE
8
default
62
30
10
-0.008484
20
-0.000000
30
0.216516
11
-0.008484
21
0.030000
31
0.216516
12
-0.006000
22
0.030000
32
0.214608
13
-0.008484
23
-0.000000
33
0.216516
0
3DFACE
8
default
62
30
10
-0.008484
20
-0.000000
30
0.216516
11
-0.006000
21
0.030000
31
0.214608
12
-0.006000
22
-0.000000
32
0.214608
13
-0.008484
23
-0.000000
33
0.216516
0
3DFACE
8
default
62
30
10
-0.010392
20
-0.000000
30
0.219000
11
-0.010392
21
0.030000
31
0.219000
12
-0.008484
22
0.030000
32
0.216516
13
-0.010392
23
-0.000000
33
0.219000
0
3DFACE
8
default
62
30
10
-0.010392
20
-0.000000
30
0.219000
11
-0.008484
21
0.030000
31
0.216516
12
-0.008484
22
-0.000000
32
0.216516
13
-0.010392
23
-0.000000
33
0.219000
0
3DFACE
8
default
62
30
10
-0.010728
20
-0.000000
30
0.219636
11
-0.010728
21
0.030000
31
0.219636
12
-0.010392
22
0.030000
32
0.219000
13
-0.010728
23
-0.000000
33
0.219636
0
3DFACE
8
default
62
30
10
-0.010728
20
-0.000000
30
0.219636
11
-0.010392
21
0.030000
31
0.219000
12
-0.010392
22
-0.000000
32
0.219000
13
-0.010728
23
-0.000000
33
0.219636
0
3DFACE
8
default
62
30
10
-0.011592
20
-0.000000
30
0.221892
11
-0.011592
21
0.030000
31
0.221892
12
-0.010728
22
0.030000
32
0.219636
13
-0.011592
23
-0.000000
33
0.221892
0
3DFACE
8
default
62
30
10
-0.011592
20
-0.000000
30
0.221892
11
-0.010728
21
0.030000
31
0.219636
12
-0.010728
22
-0.000000
32
0.219636
13
-0.011592
23
-0.000000
33
0.221892
0
3DFACE
8
default
62
30
10
-0.012000
20
-0.000000
30
0.225000
11
-0.012000
21
0.030000
31
0.225000
12
-0.011592
22
0.030000
32
0.221892
13
-0.012000
23
-0.000000
33
0.225000
0
3DFACE
8
default
62
30
10
-0.012000
20
-0.000000
30
0.225000
11
-0.011592
21
0.030000
31
0.221892
12
-0.011592
22
-0.000000
32
0.221892
13
-0.012000
23
-0.000000
33
0.225000
0
3DFACE
8
default
62
30
10
-0.011592
20
-0.000000
30
0.228108
11
-0.011592
21
0.030000
31
0.228108
12
-0.012000
22
0.030000
32
0.225000
13
-0.011592
23
-0.000000
33
0.228108
0
3DFACE
8
default
62
30
10
-0.011592
20
-0.000000
30
0.228108
11
-0.012000
21
0.030000
31
0.225000
12
-0.012000
22
-0.000000
32
0.225000
13
-0.011592
23
-0.000000
33
0.228108
0
3DFACE
8
default
62
30
10
-0.010392
20
-0.000000
30
0.231000
11
-0.010392
21
0.030000
31
0.231000
12
-0.011592
22
0.030000
32
0.228108
13
-0.010392
23
-0.000000
33
0.231000
0
3DFACE
8
default
62
30
10
-0.010392
20
-0.000000
30
0.231000
11
-0.011592
21
0.030000
31
0.228108
12
-0.011592
22
-0.000000
32
0.228108
13
-0.010392
23
-0.000000
33
0.231000
0
3DFACE
8
default
62
30
10
-0.008484
20
-0.000000
30
0.233484
11
-0.008484
21
0.030000
31
0.233484
12
-0.010392
22
0.030000
32
0.231000
13
-0.008484
23
-0.000000
33
0.233484
0
3DFACE
8
default
62
30
10
-0.008484
20
-0.000000
30
0.233484
11
-0.010392
21
0.030000
31
0.231000
12
-0.010392
22
-0.000000
32
0.231000
13
-0.008484
23
-0.000000
33
0.233484
0
3DFACE
8
default
62
30
10
-0.006000
20
-0.000000
30
0.235392
11
-0.006000
21
0.030000
31
0.235392
12
-0.008484
22
0.030000
32
0.233484
13
-0.006000
23
-0.000000
33
0.235392
0
3DFACE
8
default
62
30
10
-0.006000
20
-0.000000
30
0.235392
11
-0.008484
21
0.030000
31
0.233484
12
-0.008484
22
-0.000000
32
0.233484
13
-0.006000
23
-0.000000
33
0.235392
0
3DFACE
8
default
62
30
10
-0.003108
20
-0.000000
30
0.236592
11
-0.003108
21
0.030000
31
0.236592
12
-0.006000
22
0.030000
32
0.235392
13
-0.003108
23
-0.000000
33
0.236592
0
3DFACE
8
default
62
30
10
-0.003108
20
-0.000000
30
0.236592
11
-0.006000
21
0.030000
31
0.235392
12
-0.006000
22
-0.000000
32
0.235392
13
-0.003108
23
-0.000000
33
0.236592
0
3DFACE
8
default
62
30
10
0.000000
20
-0.000000
30
0.237000
11
0.000000
21
0.030000
31
0.237000
12
-0.003108
22
0.030000
32
0.236592
13
0.000000
23
-0.000000
33
0.237000
0
3DFACE
8
default
62
30
10
0.000000
20
-0.000000
30
0.237000
11
-0.003108
21
0.030000
31
0.236592
12
-0.003108
22
-0.000000
32
0.236592
13
0.000000
23
-0.000000
33
0.237000
0
3DFACE
8
default
62
30
10
0.003108
20
-0.000000
30
0.236592
11
0.003108
21
0.030000
31
0.236592
12
0.000000
22
0.030000
32
0.237000
13
0.003108
23
-0.000000
33
0.236592
0
3DFACE
8
default
62
30
10
0.003108
20
-0.000000
30
0.236592
11
0.000000
21
0.030000
31
0.237000
12
0.000000
22
-0.000000
32
0.237000
13
0.003108
23
-0.000000
33
0.236592
0
3DFACE
8
default
62
30
10
0.006000
20
-0.000000
30
0.235392
11
0.006000
21
0.030000
31
0.235392
12
0.003108
22
0.030000
32
0.236592
13
0.006000
23
-0.000000
33
0.235392
0
3DFACE
8
default
62
30
10
0.006000
20
-0.000000
30
0.235392
11
0.003108
21
0.030000
31
0.236592
12
0.003108
22
-0.000000
32
0.236592
13
0.006000
23
-0.000000
33
0.235392
0
3DFACE
8
default
62
30
10
0.008484
20
-0.000000
30
0.233484
11
0.008484
21
0.030000
31
0.233484
12
0.006000
22
0.030000
32
0.235392
13
0.008484
23
-0.000000
33
0.233484
0
3DFACE
8
default
62
30
10
0.008484
20
-0.000000
30
0.233484
11
0.006000
21
0.030000
31
0.235392
12
0.006000
22
-0.000000
32
0.235392
13
0.008484
23
-0.000000
33
0.233484
0
3DFACE
8
default
62
30
10
0.010392
20
-0.000000
30
0.231000
11
0.010392
21
0.030000
31
0.231000
12
0.008484
22
0.030000
32
0.233484
13
0.010392
23
-0.000000
33
0.231000
0
3DFACE
8
default
62
30
10
0.010392
20
-0.000000
30
0.231000
11
0.008484
21
0.030000
31
0.233484
12
0.008484
22
-0.000000
32
0.233484
13
0.010392
23
-0.000000
33
0.231000
0
3DFACE
8
default
62
30
10
0.011592
20
-0.000000
30
0.228108
11
0.011592
21
0.030000
31
0.228108
12
0.010392
22
0.030000
32
0.231000
13
0.011592
23
-0.000000
33
0.228108
0
3DFACE
8
default
62
30
10
0.011592
20
-0.000000
30
0.228108
11
0.010392
21
0.030000
31
0.231000
12
0.010392
22
-0.000000
32
0.231000
13
0.011592
23
-0.000000
33
0.228108
0
3DFACE
8
default
62
30
10
0.012000
20
-0.000000
30
0.225000
11
0.012000
21
0.030000
31
0.225000
12
0.011592
22
0.030000
32
0.228108
13
0.012000
23
-0.000000
33
0.225000
0
3DFACE
8
default
62
30
10
0.012000
20
-0.000000
30
0.225000
11
0.011592
21
0.030000
31
0.228108
12
0.011592
22
-0.000000
32
0.228108
13
0.012000
23
-0.000000
33
0.225000
0
3DFACE
8
default
62
30
10
0.206448
20
-0.000000
30
-0.115608
11
0.206448
21
0.030000
31
-0.115608
12
0.206856
22
0.030000
32
-0.112500
13
0.206448
23
-0.000000
33
-0.115608
0
3DFACE
8
default
62
30
10
0.206448
20
-0.000000
30
-0.115608
11
0.206856
21
0.030000
31
-0.112500
12
0.206856
22
-0.000000
32
-0.112500
13
0.206448
23
-0.000000
33
-0.115608
0
3DFACE
8
default
62
30
10
0.205248
20
-0.000000
30
-0.118500
11
0.205248
21
0.030000
31
-0.118500
12
0.206448
22
0.030000
32
-0.115608
13
0.205248
23
-0.000000
33
-0.118500
0
3DFACE
8
default
62
30
10
0.205248
20
-0.000000
30
-0.118500
11
0.206448
21
0.030000
31
-0.115608
12
0.206448
22
-0.000000
32
-0.115608
13
0.205248
23
-0.000000
33
-0.118500
0
3DFACE
8
default
62
30
10
0.203340
20
-0.000000
30
-0.120984
11
0.203340
21
0.030000
31
-0.120984
12
0.205248
22
0.030000
32
-0.118500
13
0.203340
23
-0.000000
33
-0.120984
0
3DFACE
8
default
62
30
10
0.203340
20
-0.000000
30
-0.120984
11
0.205248
21
0.030000
31
-0.118500
12
0.205248
22
-0.000000
32
-0.118500
13
0.203340
23
-0.000000
33
-0.120984
0
3DFACE
8
default
62
30
10
0.200856
20
-0.000000
30
-0.122892
11
0.200856
21
0.030000
31
-0.122892
12
0.203340
22
0.030000
32
-0.120984
13
0.200856
23
-0.000000
33
-0.122892
0
3DFACE
8
default
62
30
10
0.200856
20
-0.000000
30
-0.122892
11
0.203340
21
0.030000
31
-0.120984
12
0.203340
22
-0.000000
32
-0.120984
13
0.200856
23
-0.000000
33
-0.122892
0
3DFACE
8
default
62
30
10
0.197964
20
-0.000000
30
-0.124092
11
0.197964
21
0.030000
31
-0.124092
12
0.200856
22
0.030000
32
-0.122892
13
0.197964
23
-0.000000
33
-0.124092
0
3DFACE
8
default
62
30
10
0.197964
20
-0.000000
30
-0.124092
11
0.200856
21
0.030000
31
-0.122892
12
0.200856
22
-0.000000
32
-0.122892
13
0.197964
23
-0.000000
33
-0.124092
0
3DFACE
8
default
62
30
10
0.194856
20
-0.000000
30
-0.124500
11
0.194856
21
0.030000
31
-0.124500
12
0.197964
22
0.030000
32
-0.124092
13
0.194856
23
-0.000000
33
-0.124500
0
3DFACE
8
default
62
30
10
0.194856
20
-0.000000
30
-0.124500
11
0.197964
21
0.030000
31
-0.124092
12
0.197964
22
-0.000000
32
-0.124092
13
0.194856
23
-0.000000
33
-0.124500
0
3DFACE
8
default
62
30
10
0.191748
20
-0.000000
30
-0.124092
11
0.191748
21
0.030000
31
-0.124092
12
0.194856
22
0.030000
32
-0.124500
13
0.191748
23
-0.000000
33
-0.124092
0
3DFACE
8
default
62
30
10
0.191748
20
-0.000000
30
-0.124092
11
0.194856
21
0.030000
31
-0.124500
12
0.194856
22
-0.000000
32
-0.124500
13
0.191748
23
-0.000000
33
-0.124092
0
3DFACE
8
default
62
30
10
0.188856
20
-0.000000
30
-0.122892
11
0.188856
21
0.030000
31
-0.122892
12
0.191748
22
0.030000
32
-0.124092
13
0.188856
23
-0.000000
33
-0.122892
0
3DFACE
8
default
62
30
10
0.188856
20
-0.000000
30
-0.122892
11
0.191748
21
0.030000
31
-0.124092
12
0.191748
22
-0.000000
32
-0.124092
13
0.188856
23
-0.000000
33
-0.122892
0
3DFACE
8
default
62
30
10
0.186372
20
-0.000000
30
-0.120984
11
0.186372
21
0.030000
31
-0.120984
12
0.188856
22
0.030000
32
-0.122892
13
0.186372
23
-0.000000
33
-0.120984
0
3DFACE
8
default
62
30
10
0.186372
20
-0.000000
30
-0.120984
11
0.188856
21
0.030000
31
-0.122892
12
0.188856
22
-0.000000
32
-0.122892
13
0.186372
23
-0.000000
33
-0.120984
0
3DFACE
8
default
62
30
10
0.184464
20
-0.000000
30
-0.118500
11
0.184464
21
0.030000
31
-0.118500
12
0.186372
22
0.030000
32
-0.120984
13
0.184464
23
-0.000000
33
-0.118500
0
3DFACE
8
default
62
30
10
0.184464
20
-0.000000
30
-0.118500
11
0.186372
21
0.030000
31
-0.120984
12
0.186372
22
-0.000000
32
-0.120984
13
0.184464
23
-0.000000
33
-0.118500
0
3DFACE
8
default
62
30
10
0.184128
20
-0.000000
30
-0.117864
11
0.184128
21
0.030000
31
-0.117864
12
0.184464
22
0.030000
32
-0.118500
13
0.184128
23
-0.000000
33
-0.117864
0
3DFACE
8
default
62
30
10
0.184128
20
-0.000000
30
-0.117864
11
0.184464
21
0.030000
31
-0.118500
12
0.184464
22
-0.000000
32
-0.118500
13
0.184128
23
-0.000000
33
-0.117864
0
3DFACE
8
default
62
30
10
0.183264
20
-0.000000
30
-0.115608
11
0.183264
21
0.030000
31
-0.115608
12
0.184128
22
0.030000
32
-0.117864
13
0.183264
23
-0.000000
33
-0.115608
0
3DFACE
8
default
62
30
10
0.183264
20
-0.000000
30
-0.115608
11
0.184128
21
0.030000
31
-0.117864
12
0.184128
22
-0.000000
32
-0.117864
13
0.183264
23
-0.000000
33
-0.115608
0
3DFACE
8
default
62
30
10
0.182856
20
-0.000000
30
-0.112500
11
0.182856
21
0.030000
31
-0.112500
12
0.183264
22
0.030000
32
-0.115608
13
0.182856
23
-0.000000
33
-0.112500
0
3DFACE
8
default
62
30
10
0.182856
20
-0.000000
30
-0.112500
11
0.183264
21
0.030000
31
-0.115608
12
0.183264
22
-0.000000
32
-0.115608
13
0.182856
23
-0.000000
33
-0.112500
0
3DFACE
8
default
62
30
10
0.183264
20
-0.000000
30
-0.109392
11
0.183264
21
0.030000
31
-0.109392
12
0.182856
22
0.030000
32
-0.112500
13
0.183264
23
-0.000000
33
-0.109392
0
3DFACE
8
default
62
30
10
0.183264
20
-0.000000
30
-0.109392
11
0.182856
21
0.030000
31
-0.112500
12
0.182856
22
-0.000000
32
-0.112500
13
0.183264
23
-0.000000
33
-0.109392
0
3DFACE
8
default
62
30
10
0.184464
20
-0.000000
30
-0.106500
11
0.184464
21
0.030000
31
-0.106500
12
0.183264
22
0.030000
32
-0.109392
13
0.184464
23
-0.000000
33
-0.106500
0
3DFACE
8
default
62
30
10
0.184464
20
-0.000000
30
-0.106500
11
0.183264
21
0.030000
31
-0.109392
12
0.183264
22
-0.000000
32
-0.109392
13
0.184464
23
-0.000000
33
-0.106500
0
3DFACE
8
default
62
30
10
0.186372
20
-0.000000
30
-0.104016
11
0.186372
21
0.030000
31
-0.104016
12
0.184464
22
0.030000
32
-0.106500
13
0.186372
23
-0.000000
33
-0.104016
0
3DFACE
8
default
62
30
10
0.186372
20
-0.000000
30
-0.104016
11
0.184464
21
0.030000
31
-0.106500
12
0.184464
22
-0.000000
32
-0.106500
13
0.186372
23
-0.000000
33
-0.104016
0
3DFACE
8
default
62
30
10
0.188856
20
-0.000000
30
-0.102108
11
0.188856
21
0.030000
31
-0.102108
12
0.186372
22
0.030000
32
-0.104016
13
0.188856
23
-0.000000
33
-0.102108
0
3DFACE
8
default
62
30
10
0.188856
20
-0.000000
30
-0.102108
11
0.186372
21
0.030000
31
-0.104016
12
0.186372
22
-0.000000
32
-0.104016
13
0.188856
23
-0.000000
33
-0.102108
0
3DFACE
8
default
62
30
10
0.191748
20
-0.000000
30
-0.100908
11
0.191748
21
0.030000
31
-0.100908
12
0.188856
22
0.030000
32
-0.102108
13
0.191748
23
-0.000000
33
-0.100908
0
3DFACE
8
default
62
30
10
0.191748
20
-0.000000
30
-0.100908
11
0.188856
21
0.030000
31
-0.102108
12
0.188856
22
-0.000000
32
-0.102108
13
0.191748
23
-0.000000
33
-0.100908
0
3DFACE
8
default
62
30
10
0.194856
20
-0.000000
30
-0.100500
11
0.194856
21
0.030000
31
-0.100500
12
0.191748
22
0.030000
32
-0.100908
13
0.194856
23
-0.000000
33
-0.100500
0
3DFACE
8
default
62
30
10
0.194856
20
-0.000000
30
-0.100500
11
0.191748
21
0.030000
31
-0.100908
12
0.191748
22
-0.000000
32
-0.100908
13
0.194856
23
-0.000000
33
-0.100500
0
3DFACE
8
default
62
30
10
0.197964
20
-0.000000
30
-0.100908
11
0.197964
21
0.030000
31
-0.100908
12
0.194856
22
0.030000
32
-0.100500
13
0.197964
23
-0.000000
33
-0.100908
0
3DFACE
8
default
62
30
10
0.197964
20
-0.000000
30
-0.100908
11
0.194856
21
0.030000
31
-0.100500
12
0.194856
22
-0.000000
32
-0.100500
13
0.197964
23
-0.000000
33
-0.100908
0
3DFACE
8
default
62
30
10
0.200856
20
-0.000000
30
-0.102108
11
0.200856
21
0.030000
31
-0.102108
12
0.197964
22
0.030000
32
-0.100908
13
0.200856
23
-0.000000
33
-0.102108
0
3DFACE
8
default
62
30
10
0.200856
20
-0.000000
30
-0.102108
11
0.197964
21
0.030000
31
-0.100908
12
0.197964
22
-0.000000
32
-0.100908
13
0.200856
23
-0.000000
33
-0.102108
0
3DFACE
8
default
62
30
10
0.203340
20
-0.000000
30
-0.104016
11
0.203340
21
0.030000
31
-0.104016
12
0.200856
22
0.030000
32
-0.102108
13
0.203340
23
-0.000000
33
-0.104016
0
3DFACE
8
default
62
30
10
0.203340
20
-0.000000
30
-0.104016
11
0.200856
21
0.030000
31
-0.102108
12
0.200856
22
-0.000000
32
-0.102108
13
0.203340
23
-0.000000
33
-0.104016
0
3DFACE
8
default
62
30
10
0.205248
20
-0.000000
30
-0.106500
11
0.205248
21
0.030000
31
-0.106500
12
0.203340
22
0.030000
32
-0.104016
13
0.205248
23
-0.000000
33
-0.106500
0
3DFACE
8
default
62
30
10
0.205248
20
-0.000000
30
-0.106500
11
0.203340
21
0.030000
31
-0.104016
12
0.203340
22
-0.000000
32
-0.104016
13
0.205248
23
-0.000000
33
-0.106500
0
3DFACE
8
default
62
30
10
0.206448
20
-0.000000
30
-0.109392
11
0.206448
21
0.030000
31
-0.109392
12
0.205248
22
0.030000
32
-0.106500
13
0.206448
23
-0.000000
33
-0.109392
0
3DFACE
8
default
62
30
10
0.206448
20
-0.000000
30
-0.109392
11
0.205248
21
0.030000
31
-0.106500
12
0.205248
22
-0.000000
32
-0.106500
13
0.206448
23
-0.000000
33
-0.109392
0
3DFACE
8
default
62
30
10
0.206856
20
-0.000000
30
-0.112500
11
0.206856
21
0.030000
31
-0.112500
12
0.206448
22
0.030000
32
-0.109392
13
0.206856
23
-0.000000
33
-0.112500
0
3DFACE
8
default
62
30
10
0.206856
20
-0.000000
30
-0.112500
11
0.206448
21
0.030000
31
-0.109392
12
0.206448
22
-0.000000
32
-0.109392
13
0.206856
23
-0.000000
33
-0.112500
0
3DFACE
8
default
62
30
10
-0.182856
20
0.000000
30
-0.112500
11
-0.183264
21
0.000000
31
-0.109392
12
-0.184464
22
0.000000
32
-0.106500
13
-0.182856
23
0.000000
33
-0.112500
0
3DFACE
8
default
62
30
10
-0.182856
20
0.000000
30
-0.112500
11
-0.184464
21
0.000000
31
-0.106500
12
-0.186372
22
0.000000
32
-0.104016
13
-0.182856
23
0.000000
33
-0.112500
0
3DFACE
8
default
62
30
10
-0.182856
20
0.000000
30
-0.112500
11
-0.186372
21
0.000000
31
-0.104016
12
-0.188856
22
0.000000
32
-0.102108
13
-0.182856
23
0.000000
33
-0.112500
0
3DFACE
8
default
62
30
10
-0.182856
20
0.000000
30
-0.112500
11
-0.188856
21
0.000000
31
-0.102108
12
-0.191748
22
0.000000
32
-0.100908
13
-0.182856
23
0.000000
33
-0.112500
0
3DFACE
8
default
62
30
10
-0.182856
20
0.000000
30
-0.112500
11
-0.191748
21
0.000000
31
-0.100908
12
-0.194856
22
0.000000
32
-0.100500
13
-0.182856
23
0.000000
33
-0.112500
0
3DFACE
8
default
62
30
10
-0.182856
20
0.000000
30
-0.112500
11
-0.194856
21
0.000000
31
-0.100500
12
-0.197964
22
0.000000
32
-0.100908
13
-0.182856
23
0.000000
33
-0.112500
0
3DFACE
8
default
62
30
10
-0.182856
20
0.000000
30
-0.112500
11
-0.197964
21
0.000000
31
-0.100908
12
-0.200856
22
0.000000
32
-0.102108
13
-0.182856
23
0.000000
33
-0.112500
0
3DFACE
8
default
62
30
10
-0.182856
20
0.000000
30
-0.112500
11
-0.200856
21
0.000000
31
-0.102108
12
-0.203340
22
0.000000
32
-0.104016
13
-0.182856
23
0.000000
33
-0.112500
0
3DFACE
8
default
62
30
10
-0.182856
20
0.000000
30
-0.112500
11
-0.203340
21
0.000000
31
-0.104016
12
-0.205248
22
0.000000
32
-0.106500
13
-0.182856
23
0.000000
33
-0.112500
0
3DFACE
8
default
62
30
10
-0.182856
20
0.000000
30
-0.112500
11
-0.205248
21
0.000000
31
-0.106500
12
-0.206448
22
0.000000
32
-0.109392
13
-0.182856
23
0.000000
33
-0.112500
0
3DFACE
8
default
62
30
10
-0.182856
20
0.000000
30
-0.112500
11
-0.206448
21
0.000000
31
-0.109392
12
-0.206856
22
0.000000
32
-0.112500
13
-0.182856
23
0.000000
33
-0.112500
0
3DFACE
8
default
62
30
10
-0.182856
20
0.000000
30
-0.112500
11
-0.206856
21
0.000000
31
-0.112500
12
-0.206448
22
0.000000
32
-0.115608
13
-0.182856
23
0.000000
33
-0.112500
0
3DFACE
8
default
62
30
10
-0.182856
20
0.000000
30
-0.112500
11
-0.206448
21
0.000000
31
-0.115608
12
-0.205584
22
0.000000
32
-0.117864
13
-0.182856
23
0.000000
33
-0.112500
0
3DFACE
8
default
62
30
10
-0.182856
20
0.000000
30
-0.112500
11
-0.205584
21
0.000000
31
-0.117864
12
-0.205248
22
0.000000
32
-0.118500
13
-0.182856
23
0.000000
33
-0.112500
0
3DFACE
8
default
62
30
10
-0.182856
20
0.000000
30
-0.112500
11
-0.205248
21
0.000000
31
-0.118500
12
-0.203340
22
0.000000
32
-0.120984
13
-0.182856
23
0.000000
33
-0.112500
0
3DFACE
8
default
62
30
10
-0.182856
20
0.000000
30
-0.112500
11
-0.203340
21
0.000000
31
-0.120984
12
-0.200856
22
0.000000
32
-0.122892
13
-0.182856
23
0.000000
33
-0.112500
0
3DFACE
8
default
62
30
10
-0.182856
20
0.000000
30
-0.112500
11
-0.200856
21
0.000000
31
-0.122892
12
-0.197964
22
0.000000
32
-0.124092
13
-0.182856
23
0.000000
33
-0.112500
0
3DFACE
8
default
62
30
10
-0.182856
20
0.000000
30
-0.112500
11
-0.197964
21
0.000000
31
-0.124092
12
-0.194856
22
0.000000
32
-0.124500
13
-0.182856
23
0.000000
33
-0.112500
0
3DFACE
8
default
62
30
10
-0.182856
20
0.000000
30
-0.112500
11
-0.194856
21
0.000000
31
-0.124500
12
-0.191748
22
0.000000
32
-0.124092
13
-0.182856
23
0.000000
33
-0.112500
0
3DFACE
8
default
62
30
10
-0.182856
20
0.000000
30
-0.112500
11
-0.191748
21
0.000000
31
-0.124092
12
-0.188856
22
0.000000
32
-0.122892
13
-0.182856
23
0.000000
33
-0.112500
0
3DFACE
8
default
62
30
10
-0.182856
20
0.000000
30
-0.112500
11
-0.188856
21
0.000000
31
-0.122892
12
-0.186372
22
0.000000
32
-0.120984
13
-0.182856
23
0.000000
33
-0.112500
0
3DFACE
8
default
62
30
10
-0.182856
20
0.000000
30
-0.112500
11
-0.186372
21
0.000000
31
-0.120984
12
-0.184464
22
0.000000
32
-0.118500
13
-0.182856
23
0.000000
33
-0.112500
0
3DFACE
8
default
62
30
10
-0.182856
20
0.000000
30
-0.112500
11
-0.184464
21
0.000000
31
-0.118500
12
-0.183264
22
0.000000
32
-0.115608
13
-0.182856
23
0.000000
33
-0.112500
0
3DFACE
8
default
62
30
10
0.011592
20
-0.000000
30
0.228108
11
0.010392
21
-0.000000
31
0.231000
12
0.008484
22
-0.000000
32
0.233484
13
0.011592
23
-0.000000
33
0.228108
0
3DFACE
8
default
62
30
10
0.011592
20
-0.000000
30
0.228108
11
0.008484
21
-0.000000
31
0.233484
12
0.006000
22
-0.000000
32
0.235392
13
0.011592
23
-0.000000
33
0.228108
0
3DFACE
8
default
62
30
10
0.011592
20
-0.000000
30
0.228108
11
0.006000
21
-0.000000
31
0.235392
12
0.003108
22
-0.000000
32
0.236592
13
0.011592
23
-0.000000
33
0.228108
0
3DFACE
8
default
62
30
10
0.011592
20
-0.000000
30
0.228108
11
0.003108
21
-0.000000
31
0.236592
12
0.000000
22
-0.000000
32
0.237000
13
0.011592
23
-0.000000
33
0.228108
0
3DFACE
8
default
62
30
10
0.011592
20
-0.000000
30
0.228108
11
0.000000
21
-0.000000
31
0.237000
12
-0.003108
22
-0.000000
32
0.236592
13
0.011592
23
-0.000000
33
0.228108
0
3DFACE
8
default
62
30
10
0.011592
20
-0.000000
30
0.228108
11
-0.003108
21
-0.000000
31
0.236592
12
-0.006000
22
-0.000000
32
0.235392
13
0.011592
23
-0.000000
33
0.228108
0
3DFACE
8
default
62
30
10
0.011592
20
-0.000000
30
0.228108
11
-0.006000
21
-0.000000
31
0.235392
12
-0.008484
22
-0.000000
32
0.233484
13
0.011592
23
-0.000000
33
0.228108
0
3DFACE
8
default
62
30
10
0.011592
20
-0.000000
30
0.228108
11
-0.008484
21
-0.000000
31
0.233484
12
-0.010392
22
-0.000000
32
0.231000
13
0.011592
23
-0.000000
33
0.228108
0
3DFACE
8
default
62
30
10
0.011592
20
-0.000000
30
0.228108
11
-0.010392
21
-0.000000
31
0.231000
12
-0.011592
22
-0.000000
32
0.228108
13
0.011592
23
-0.000000
33
0.228108
0
3DFACE
8
default
62
30
10
0.011592
20
-0.000000
30
0.228108
11
-0.011592
21
-0.000000
31
0.228108
12
-0.012000
22
-0.000000
32
0.225000
13
0.011592
23
-0.000000
33
0.228108
0
3DFACE
8
default
62
30
10
0.011592
20
-0.000000
30
0.228108
11
-0.012000
21
-0.000000
31
0.225000
12
-0.011592
22
-0.000000
32
0.221892
13
0.011592
23
-0.000000
33
0.228108
0
3DFACE
8
default
62
30
10
0.011592
20
-0.000000
30
0.228108
11
-0.011592
21
-0.000000
31
0.221892
12
-0.010728
22
-0.000000
32
0.219636
13
0.011592
23
-0.000000
33
0.228108
0
3DFACE
8
default
62
30
10
0.011592
20
-0.000000
30
0.228108
11
-0.010728
21
-0.000000
31
0.219636
12
-0.010392
22
-0.000000
32
0.219000
13
0.011592
23
-0.000000
33
0.228108
0
3DFACE
8
default
62
30
10
0.011592
20
-0.000000
30
0.228108
11
-0.010392
21
-0.000000
31
0.219000
12
-0.008484
22
-0.000000
32
0.216516
13
0.011592
23
-0.000000
33
0.228108
0
3DFACE
8
default
62
30
10
0.011592
20
-0.000000
30
0.228108
11
-0.008484
21
-0.000000
31
0.216516
12
-0.006000
22
-0.000000
32
0.214608
13
0.011592
23
-0.000000
33
0.228108
0
3DFACE
8
default
62
30
10
0.011592
20
-0.000000
30
0.228108
11
-0.006000
21
-0.000000
31
0.214608
12
-0.003108
22
-0.000000
32
0.213408
13
0.011592
23
-0.000000
33
0.228108
0
3DFACE
8
default
62
30
10
0.011592
20
-0.000000
30
0.228108
11
-0.003108
21
-0.000000
31
0.213408
12
0.000000
22
-0.000000
32
0.213000
13
0.011592
23
-0.000000
33
0.228108
0
3DFACE
8
default
62
30
10
0.011592
20
-0.000000
30
0.228108
11
0.000000
21
-0.000000
31
0.213000
12
0.003108
22
-0.000000
32
0.213408
13
0.011592
23
-0.000000
33
0.228108
0
3DFACE
8
default
62
30
10
0.011592
20
-0.000000
30
0.228108
11
0.003108
21
-0.000000
31
0.213408
12
0.006000
22
-0.000000
32
0.214608
13
0.011592
23
-0.000000
33
0.228108
0
3DFACE
8
default
62
30
10
0.011592
20
-0.000000
30
0.228108
11
0.006000
21
-0.000000
31
0.214608
12
0.008484
22
-0.000000
32
0.216516
13
0.011592
23
-0.000000
33
0.228108
0
3DFACE
8
default
62
30
10
0.011592
20
-0.000000
30
0.228108
11
0.008484
21
-0.000000
31
0.216516
12
0.010392
22
-0.000000
32
0.219000
13
0.011592
23
-0.000000
33
0.228108
0
3DFACE
8
default
62
30
10
0.011592
20
-0.000000
30
0.228108
11
0.010392
21
-0.000000
31
0.219000
12
0.011592
22
-0.000000
32
0.221892
13
0.011592
23
-0.000000
33
0.228108
0
3DFACE
8
default
62
30
10
0.011592
20
-0.000000
30
0.228108
11
0.011592
21
-0.000000
31
0.221892
12
0.012000
22
-0.000000
32
0.225000
13
0.011592
23
-0.000000
33
0.228108
0
3DFACE
8
default
62
30
10
0.206448
20
-0.000000
30
-0.109392
11
0.205248
21
-0.000000
31
-0.106500
12
0.203340
22
-0.000000
32
-0.104016
13
0.206448
23
-0.000000
33
-0.109392
0
3DFACE
8
default
62
30
10
0.206448
20
-0.000000
30
-0.109392
11
0.203340
21
-0.000000
31
-0.104016
12
0.200856
22
-0.000000
32
-0.102108
13
0.206448
23
-0.000000
33
-0.109392
0
3DFACE
8
default
62
30
10
0.206448
20
-0.000000
30
-0.109392
11
0.200856
21
-0.000000
31
-0.102108
12
0.197964
22
-0.000000
32
-0.100908
13
0.206448
23
-0.000000
33
-0.109392
0
3DFACE
8
default
62
30
10
0.206448
20
-0.000000
30
-0.109392
11
0.197964
21
-0.000000
31
-0.100908
12
0.194856
22
-0.000000
32
-0.100500
13
0.206448
23
-0.000000
33
-0.109392
0
3DFACE
8
default
62
30
10
0.206448
20
-0.000000
30
-0.109392
11
0.194856
21
-0.000000
31
-0.100500
12
0.191748
22
-0.000000
32
-0.100908
13
0.206448
23
-0.000000
33
-0.109392
0
3DFACE
8
default
62
30
10
0.206448
20
-0.000000
30
-0.109392
11
0.191748
21
-0.000000
31
-0.100908
12
0.188856
22
-0.000000
32
-0.102108
13
0.206448
23
-0.000000
33
-0.109392
0
3DFACE
8
default
62
30
10
0.206448
20
-0.000000
30
-0.109392
11
0.188856
21
-0.000000
31
-0.102108
12
0.186372
22
-0.000000
32
-0.104016
13
0.206448
23
-0.000000
33
-0.109392
0
3DFACE
8
default
62
30
10
0.206448
20
-0.000000
30
-0.109392
11
0.186372
21
-0.000000
31
-0.104016
12
0.184464
22
-0.000000
32
-0.106500
13
0.206448
23
-0.000000
33
-0.109392
0
3DFACE
8
default
62
30
10
0.206448
20
-0.000000
30
-0.109392
11
0.184464
21
-0.000000
31
-0.106500
12
0.183264
22
-0.000000
32
-0.109392
13
0.206448
23
-0.000000
33
-0.109392
0
3DFACE
8
default
62
30
10
0.206448
20
-0.000000
30
-0.109392
11
0.183264
21
-0.000000
31
-0.109392
12
0.182856
22
-0.000000
32
-0.112500
13
0.206448
23
-0.000000
33
-0.109392
0
3DFACE
8
default
62
30
10
0.206448
20
-0.000000
30
-0.109392
11
0.182856
21
-0.000000
31
-0.112500
12
0.183264
22
-0.000000
32
-0.115608
13
0.206448
23
-0.000000
33
-0.109392
0
3DFACE
8
default
62
30
10
0.206448
20
-0.000000
30
-0.109392
11
0.183264
21
-0.000000
31
-0.115608
12
0.184128
22
-0.000000
32
-0.117864
13
0.206448
23
-0.000000
33
-0.109392
0
3DFACE
8
default
62
30
10
0.206448
20
-0.000000
30
-0.109392
11
0.184128
21
-0.000000
31
-0.117864
12
0.184464
22
-0.000000
32
-0.118500
13
0.206448
23
-0.000000
33
-0.109392
0
3DFACE
8
default
62
30
10
0.206448
20
-0.000000
30
-0.109392
11
0.184464
21
-0.000000
31
-0.118500
12
0.186372
22
-0.000000
32
-0.120984
13
0.206448
23
-0.000000
33
-0.109392
0
3DFACE
8
default
62
30
10
0.206448
20
-0.000000
30
-0.109392
11
0.186372
21
-0.000000
31
-0.120984
12
0.188856
22
-0.000000
32
-0.122892
13
0.206448
23
-0.000000
33
-0.109392
0
3DFACE
8
default
62
30
10
0.206448
20
-0.000000
30
-0.109392
11
0.188856
21
-0.000000
31
-0.122892
12
0.191748
22
-0.000000
32
-0.124092
13
0.206448
23
-0.000000
33
-0.109392
0
3DFACE
8
default
62
30
10
0.206448
20
-0.000000
30
-0.109392
11
0.191748
21
-0.000000
31
-0.124092
12
0.194856
22
-0.000000
32
-0.124500
13
0.206448
23
-0.000000
33
-0.109392
0
3DFACE
8
default
62
30
10
0.206448
20
-0.000000
30
-0.109392
11
0.194856
21
-0.000000
31
-0.124500
12
0.197964
22
-0.000000
32
-0.124092
13
0.206448
23
-0.000000
33
-0.109392
0
3DFACE
8
default
62
30
10
0.206448
20
-0.000000
30
-0.109392
11
0.197964
21
-0.000000
31
-0.124092
12
0.200856
22
-0.000000
32
-0.122892
13
0.206448
23
-0.000000
33
-0.109392
0
3DFACE
8
default
62
30
10
0.206448
20
-0.000000
30
-0.109392
11
0.200856
21
-0.000000
31
-0.122892
12
0.203340
22
-0.000000
32
-0.120984
13
0.206448
23
-0.000000
33
-0.109392
0
3DFACE
8
default
62
30
10
0.206448
20
-0.000000
30
-0.109392
11
0.203340
21
-0.000000
31
-0.120984
12
0.205248
22
-0.000000
32
-0.118500
13
0.206448
23
-0.000000
33
-0.109392
0
3DFACE
8
default
62
30
10
0.206448
20
-0.000000
30
-0.109392
11
0.205248
21
-0.000000
31
-0.118500
12
0.206448
22
-0.000000
32
-0.115608
13
0.206448
23
-0.000000
33
-0.109392
0
3DFACE
8
default
62
30
10
0.206448
20
-0.000000
30
-0.109392
11
0.206448
21
-0.000000
31
-0.115608
12
0.206856
22
-0.000000
32
-0.112500
13
0.206448
23
-0.000000
33
-0.109392
0
3DFACE
8
default
62
30
10
-0.182856
20
0.030000
30
-0.112500
11
-0.183264
21
0.030000
31
-0.115608
12
-0.184464
22
0.030000
32
-0.118500
13
-0.182856
23
0.030000
33
-0.112500
0
3DFACE
8
default
62
30
10
-0.182856
20
0.030000
30
-0.112500
11
-0.184464
21
0.030000
31
-0.118500
12
-0.186372
22
0.030000
32
-0.120984
13
-0.182856
23
0.030000
33
-0.112500
0
3DFACE
8
default
62
30
10
-0.182856
20
0.030000
30
-0.112500
11
-0.186372
21
0.030000
31
-0.120984
12
-0.188856
22
0.030000
32
-0.122892
13
-0.182856
23
0.030000
33
-0.112500
0
3DFACE
8
default
62
30
10
-0.182856
20
0.030000
30
-0.112500
11
-0.188856
21
0.030000
31
-0.122892
12
-0.191748
22
0.030000
32
-0.124092
13
-0.182856
23
0.030000
33
-0.112500
0
3DFACE
8
default
62
30
10
-0.182856
20
0.030000
30
-0.112500
11
-0.191748
21
0.030000
31
-0.124092
12
-0.194856
22
0.030000
32
-0.124500
13
-0.182856
23
0.030000
33
-0.112500
0
3DFACE
8
default
62
30
10
-0.182856
20
0.030000
30
-0.112500
11
-0.194856
21
0.030000
31
-0.124500
12
-0.197964
22
0.030000
32
-0.124092
13
-0.182856
23
0.030000
33
-0.112500
0
3DFACE
8
default
62
30
10
-0.182856
20
0.030000
30
-0.112500
11
-0.197964
21
0.030000
31
-0.124092
12
-0.200856
22
0.030000
32
-0.122892
13
-0.182856
23
0.030000
33
-0.112500
0
3DFACE
8
default
62
30
10
-0.182856
20
0.030000
30
-0.112500
11
-0.200856
21
0.030000
31
-0.122892
12
-0.203340
22
0.030000
32
-0.120984
13
-0.182856
23
0.030000
33
-0.112500
0
3DFACE
8
default
62
30
10
-0.182856
20
0.030000
30
-0.112500
11
-0.203340
21
0.030000
31
-0.120984
12
-0.205248
22
0.030000
32
-0.118500
13
-0.182856
23
0.030000
33
-0.112500
0
3DFACE
8
default
62
30
10
-0.182856
20
0.030000
30
-0.112500
11
-0.205248
21
0.030000
31
-0.118500
12
-0.205584
22
0.030000
32
-0.117864
13
-0.182856
23
0.030000
33
-0.112500
0
3DFACE
8
default
62
30
10
-0.182856
20
0.030000
30
-0.112500
11
-0.205584
21
0.030000
31
-0.117864
12
-0.206448
22
0.030000
32
-0.115608
13
-0.182856
23
0.030000
33
-0.112500
0
3DFACE
8
default
62
30
10
-0.182856
20
0.030000
30
-0.112500
11
-0.206448
21
0.030000
31
-0.115608
12
-0.206856
22
0.030000
32
-0.112500
13
-0.182856
23
0.030000
33
-0.112500
0
3DFACE
8
default
62
30
10
-0.182856
20
0.030000
30
-0.112500
11
-0.206856
21
0.030000
31
-0.112500
12
-0.206448
22
0.030000
32
-0.109392
13
-0.182856
23
0.030000
33
-0.112500
0
3DFACE
8
default
62
30
10
-0.182856
20
0.030000
30
-0.112500
11
-0.206448
21
0.030000
31
-0.109392
12
-0.205248
22
0.030000
32
-0.106500
13
-0.182856
23
0.030000
33
-0.112500
0
3DFACE
8
default
62
30
10
-0.182856
20
0.030000
30
-0.112500
11
-0.205248
21
0.030000
31
-0.106500
12
-0.203340
22
0.030000
32
-0.104016
13
-0.182856
23
0.030000
33
-0.112500
0
3DFACE
8
default
62
30
10
-0.182856
20
0.030000
30
-0.112500
11
-0.203340
21
0.030000
31
-0.104016
12
-0.200856
22
0.030000
32
-0.102108
13
-0.182856
23
0.030000
33
-0.112500
0
3DFACE
8
default
62
30
10
-0.182856
20
0.030000
30
-0.112500
11
-0.200856
21
0.030000
31
-0.102108
12
-0.197964
22
0.030000
32
-0.100908
13
-0.182856
23
0.030000
33
-0.112500
0
3DFACE
8
default
62
30
10
-0.182856
20
0.030000
30
-0.112500
11
-0.197964
21
0.030000
31
-0.100908
12
-0.194856
22
0.030000
32
-0.100500
13
-0.182856
23
0.030000
33
-0.112500
0
3DFACE
8
default
62
30
10
-0.182856
20
0.030000
30
-0.112500
11
-0.194856
21
0.030000
31
-0.100500
12
-0.191748
22
0.030000
32
-0.100908
13
-0.182856
23
0.030000
33
-0.112500
0
3DFACE
8
default
62
30
10
-0.182856
20
0.030000
30
-0.112500
11
-0.191748
21
0.030000
31
-0.100908
12
-0.188856
22
0.030000
32
-0.102108
13
-0.182856
23
0.030000
33
-0.112500
0
3DFACE
8
default
62
30
10
-0.182856
20
0.030000
30
-0.112500
11
-0.188856
21
0.030000
31
-0.102108
12
-0.186372
22
0.030000
32
-0.104016
13
-0.182856
23
0.030000
33
-0.112500
0
3DFACE
8
default
62
30
10
-0.182856
20
0.030000
30
-0.112500
11
-0.186372
21
0.030000
31
-0.104016
12
-0.184464
22
0.030000
32
-0.106500
13
-0.182856
23
0.030000
33
-0.112500
0
3DFACE
8
default
62
30
10
-0.182856
20
0.030000
30
-0.112500
11
-0.184464
21
0.030000
31
-0.106500
12
-0.183264
22
0.030000
32
-0.109392
13
-0.182856
23
0.030000
33
-0.112500
0
3DFACE
8
default
62
30
10
0.011592
20
0.030000
30
0.228108
11
0.012000
21
0.030000
31
0.225000
12
0.011592
22
0.030000
32
0.221892
13
0.011592
23
0.030000
33
0.228108
0
3DFACE
8
default
62
30
10
0.011592
20
0.030000
30
0.228108
11
0.011592
21
0.030000
31
0.221892
12
0.010392
22
0.030000
32
0.219000
13
0.011592
23
0.030000
33
0.228108
0
3DFACE
8
default
62
30
10
0.011592
20
0.030000
30
0.228108
11
0.010392
21
0.030000
31
0.219000
12
0.008484
22
0.030000
32
0.216516
13
0.011592
23
0.030000
33
0.228108
0
3DFACE
8
default
62
30
10
0.011592
20
0.030000
30
0.228108
11
0.008484
21
0.030000
31
0.216516
12
0.006000
22
0.030000
32
0.214608
13
0.011592
23
0.030000
33
0.228108
0
3DFACE
8
default
62
30
10
0.011592
20
0.030000
30
0.228108
11
0.006000
21
0.030000
31
0.214608
12
0.003108
22
0.030000
32
0.213408
13
0.011592
23
0.030000
33
0.228108
0
3DFACE
8
default
62
30
10
0.011592
20
0.030000
30
0.228108
11
0.003108
21
0.030000
31
0.213408
12
0.000000
22
0.030000
32
0.213000
13
0.011592
23
0.030000
33
0.228108
0
3DFACE
8
default
62
30
10
0.011592
20
0.030000
30
0.228108
11
0.000000
21
0.030000
31
0.213000
12
-0.003108
22
0.030000
32
0.213408
13
0.011592
23
0.030000
33
0.228108
0
3DFACE
8
default
62
30
10
0.011592
20
0.030000
30
0.228108
11
-0.003108
21
0.030000
31
0.213408
12
-0.006000
22
0.030000
32
0.214608
13
0.011592
23
0.030000
33
0.228108
0
3DFACE
8
default
62
30
10
0.011592
20
0.030000
30
0.228108
11
-0.006000
21
0.030000
31
0.214608
12
-0.008484
22
0.030000
32
0.216516
13
0.011592
23
0.030000
33
0.228108
0
3DFACE
8
default
62
30
10
0.011592
20
0.030000
30
0.228108
11
-0.008484
21
0.030000
31
0.216516
12
-0.010392
22
0.030000
32
0.219000
13
0.011592
23
0.030000
33
0.228108
0
3DFACE
8
default
62
30
10
0.011592
20
0.030000
30
0.228108
11
-0.010392
21
0.030000
31
0.219000
12
-0.010728
22
0.030000
32
0.219636
13
0.011592
23
0.030000
33
0.228108
0
3DFACE
8
default
62
30
10
0.011592
20
0.030000
30
0.228108
11
-0.010728
21
0.030000
31
0.219636
12
-0.011592
22
0.030000
32
0.221892
13
0.011592
23
0.030000
33
0.228108
0
3DFACE
8
default
62
30
10
0.011592
20
0.030000
30
0.228108
11
-0.011592
21
0.030000
31
0.221892
12
-0.012000
22
0.030000
32
0.225000
13
0.011592
23
0.030000
33
0.228108
0
3DFACE
8
default
62
30
10
0.011592
20
0.030000
30
0.228108
11
-0.012000
21
0.030000
31
0.225000
12
-0.011592
22
0.030000
32
0.228108
13
0.011592
23
0.030000
33
0.228108
0
3DFACE
8
default
62
30
10
0.011592
20
0.030000
30
0.228108
11
-0.011592
21
0.030000
31
0.228108
12
-0.010392
22
0.030000
32
0.231000
13
0.011592
23
0.030000
33
0.228108
0
3DFACE
8
default
62
30
10
0.011592
20
0.030000
30
0.228108
11
-0.010392
21
0.030000
31
0.231000
12
-0.008484
22
0.030000
32
0.233484
13
0.011592
23
0.030000
33
0.228108
0
3DFACE
8
default
62
30
10
0.011592
20
0.030000
30
0.228108
11
-0.008484
21
0.030000
31
0.233484
12
-0.006000
22
0.030000
32
0.235392
13
0.011592
23
0.030000
33
0.228108
0
3DFACE
8
default
62
30
10
0.011592
20
0.030000
30
0.228108
11
-0.006000
21
0.030000
31
0.235392
12
-0.003108
22
0.030000
32
0.236592
13
0.011592
23
0.030000
33
0.228108
0
3DFACE
8
default
62
30
10
0.011592
20
0.030000
30
0.228108
11
-0.003108
21
0.030000
31
0.236592
12
0.000000
22
0.030000
32
0.237000
13
0.011592
23
0.030000
33
0.228108
0
3DFACE
8
default
62
30
10
0.011592
20
0.030000
30
0.228108
11
0.000000
21
0.030000
31
0.237000
12
0.003108
22
0.030000
32
0.236592
13
0.011592
23
0.030000
33
0.228108
0
3DFACE
8
default
62
30
10
0.011592
20
0.030000
30
0.228108
11
0.003108
21
0.030000
31
0.236592
12
0.006000
22
0.030000
32
0.235392
13
0.011592
23
0.030000
33
0.228108
0
3DFACE
8
default
62
30
10
0.011592
20
0.030000
30
0.228108
11
0.006000
21
0.030000
31
0.235392
12
0.008484
22
0.030000
32
0.233484
13
0.011592
23
0.030000
33
0.228108
0
3DFACE
8
default
62
30
10
0.011592
20
0.030000
30
0.228108
11
0.008484
21
0.030000
31
0.233484
12
0.010392
22
0.030000
32
0.231000
13
0.011592
23
0.030000
33
0.228108
0
3DFACE
8
default
62
30
10
0.206448
20
0.030000
30
-0.109392
11
0.206856
21
0.030000
31
-0.112500
12
0.206448
22
0.030000
32
-0.115608
13
0.206448
23
0.030000
33
-0.109392
0
3DFACE
8
default
62
30
10
0.206448
20
0.030000
30
-0.109392
11
0.206448
21
0.030000
31
-0.115608
12
0.205248
22
0.030000
32
-0.118500
13
0.206448
23
0.030000
33
-0.109392
0
3DFACE
8
default
62
30
10
0.206448
20
0.030000
30
-0.109392
11
0.205248
21
0.030000
31
-0.118500
12
0.203340
22
0.030000
32
-0.120984
13
0.206448
23
0.030000
33
-0.109392
0
3DFACE
8
default
62
30
10
0.206448
20
0.030000
30
-0.109392
11
0.203340
21
0.030000
31
-0.120984
12
0.200856
22
0.030000
32
-0.122892
13
0.206448
23
0.030000
33
-0.109392
0
3DFACE
8
default
62
30
10
0.206448
20
0.030000
30
-0.109392
11
0.200856
21
0.030000
31
-0.122892
12
0.197964
22
0.030000
32
-0.124092
13
0.206448
23
0.030000
33
-0.109392
0
3DFACE
8
default
62
30
10
0.206448
20
0.030000
30
-0.109392
11
0.197964
21
0.030000
31
-0.124092
12
0.194856
22
0.030000
32
-0.124500
13
0.206448
23
0.030000
33
-0.109392
0
3DFACE
8
default
62
30
10
0.206448
20
0.030000
30
-0.109392
11
0.194856
21
0.030000
31
-0.124500
12
0.191748
22
0.030000
32
-0.124092
13
0.206448
23
0.030000
33
-0.109392
0
3DFACE
8
default
62
30
10
0.206448
20
0.030000
30
-0.109392
11
0.191748
21
0.030000
31
-0.124092
12
0.188856
22
0.030000
32
-0.122892
13
0.206448
23
0.030000
33
-0.109392
0
3DFACE
8
default
62
30
10
0.206448
20
0.030000
30
-0.109392
11
0.188856
21
0.030000
31
-0.122892
12
0.186372
22
0.030000
32
-0.120984
13
0.206448
23
0.030000
33
-0.109392
0
3DFACE
8
default
62
30
10
0.206448
20
0.030000
30
-0.109392
11
0.186372
21
0.030000
31
-0.120984
12
0.184464
22
0.030000
32
-0.118500
13
0.206448
23
0.030000
33
-0.109392
0
3DFACE
8
default
62
30
10
0.206448
20
0.030000
30
-0.109392
11
0.184464
21
0.030000
31
-0.118500
12
0.184128
22
0.030000
32
-0.117864
13
0.206448
23
0.030000
33
-0.109392
0
3DFACE
8
default
62
30
10
0.206448
20
0.030000
30
-0.109392
11
0.184128
21
0.030000
31
-0.117864
12
0.183264
22
0.030000
32
-0.115608
13
0.206448
23
0.030000
33
-0.109392
0
3DFACE
8
default
62
30
10
0.206448
20
0.030000
30
-0.109392
11
0.183264
21
0.030000
31
-0.115608
12
0.182856
22
0.030000
32
-0.112500
13
0.206448
23
0.030000
33
-0.109392
0
3DFACE
8
default
62
30
10
0.206448
20
0.030000
30
-0.109392
11
0.182856
21
0.030000
31
-0.112500
12
0.183264
22
0.030000
32
-0.109392
13
0.206448
23
0.030000
33
-0.109392
0
3DFACE
8
default
62
30
10
0.206448
20
0.030000
30
-0.109392
11
0.183264
21
0.030000
31
-0.109392
12
0.184464
22
0.030000
32
-0.106500
13
0.206448
23
0.030000
33
-0.109392
0
3DFACE
8
default
62
30
10
0.206448
20
0.030000
30
-0.109392
11
0.184464
21
0.030000
31
-0.106500
12
0.186372
22
0.030000
32
-0.104016
13
0.206448
23
0.030000
33
-0.109392
0
3DFACE
8
default
62
30
10
0.206448
20
0.030000
30
-0.109392
11
0.186372
21
0.030000
31
-0.104016
12
0.188856
22
0.030000
32
-0.102108
13
0.206448
23
0.030000
33
-0.109392
0
3DFACE
8
default
62
30
10
0.206448
20
0.030000
30
-0.109392
11
0.188856
21
0.030000
31
-0.102108
12
0.191748
22
0.030000
32
-0.100908
13
0.206448
23
0.030000
33
-0.109392
0
3DFACE
8
default
62
30
10
0.206448
20
0.030000
30
-0.109392
11
0.191748
21
0.030000
31
-0.100908
12
0.194856
22
0.030000
32
-0.100500
13
0.206448
23
0.030000
33
-0.109392
0
3DFACE
8
default
62
30
10
0.206448
20
0.030000
30
-0.109392
11
0.194856
21
0.030000
31
-0.100500
12
0.197964
22
0.030000
32
-0.100908
13
0.206448
23
0.030000
33
-0.109392
0
3DFACE
8
default
62
30
10
0.206448
20
0.030000
30
-0.109392
11
0.197964
21
0.030000
31
-0.100908
12
0.200856
22
0.030000
32
-0.102108
13
0.206448
23
0.030000
33
-0.109392
0
3DFACE
8
default
62
30
10
0.206448
20
0.030000
30
-0.109392
11
0.200856
21
0.030000
31
-0.102108
12
0.203340
22
0.030000
32
-0.104016
13
0.206448
23
0.030000
33
-0.109392
0
3DFACE
8
default
62
30
10
0.206448
20
0.030000
30
-0.109392
11
0.203340
21
0.030000
31
-0.104016
12
0.205248
22
0.030000
32
-0.106500
13
0.206448
23
0.030000
33
-0.109392
0
3DFACE
8
default
62
30
10
-0.141420
20
0.044004
30
-0.141420
11
-0.116556
21
0.044004
31
-0.160500
12
-0.116556
22
0.030000
32
-0.160500
13
-0.141420
23
0.044004
33
-0.141420
0
3DFACE
8
default
62
30
10
-0.141420
20
0.044004
30
-0.141420
11
-0.116556
21
0.030000
31
-0.160500
12
-0.141420
22
0.030000
32
-0.141420
13
-0.141420
23
0.044004
33
-0.141420
0
3DFACE
8
default
62
30
10
-0.173208
20
0.030000
30
-0.099996
11
-0.173208
21
0.044004
31
-0.099996
12
-0.141420
22
0.044004
32
-0.141420
13
-0.173208
23
0.030000
33
-0.099996
0
3DFACE
8
default
62
30
10
-0.173208
20
0.030000
30
-0.099996
11
-0.141420
21
0.044004
31
-0.141420
12
-0.141420
22
0.030000
32
-0.141420
13
-0.173208
23
0.030000
33
-0.099996
0
3DFACE
8
default
62
30
10
-0.193188
20
0.030000
30
-0.051768
11
-0.193188
21
0.044004
31
-0.051768
12
-0.173208
22
0.044004
32
-0.099996
13
-0.193188
23
0.030000
33
-0.051768
0
3DFACE
8
default
62
30
10
-0.193188
20
0.030000
30
-0.051768
11
-0.173208
21
0.044004
31
-0.099996
12
-0.173208
22
0.030000
32
-0.099996
13
-0.193188
23
0.030000
33
-0.051768
0
3DFACE
8
default
62
30
10
-0.197316
20
0.030000
30
-0.020400
11
-0.197316
21
0.044004
31
-0.020400
12
-0.193188
22
0.044004
32
-0.051768
13
-0.197316
23
0.030000
33
-0.020400
0
3DFACE
8
default
62
30
10
-0.197316
20
0.030000
30
-0.020400
11
-0.193188
21
0.044004
31
-0.051768
12
-0.193188
22
0.030000
32
-0.051768
13
-0.197316
23
0.030000
33
-0.020400
0
3DFACE
8
default
62
30
10
-0.051768
20
0.044004
30
0.193188
11
-0.080724
21
0.044004
31
0.181188
12
-0.080724
22
0.030000
32
0.181188
13
-0.051768
23
0.044004
33
0.193188
0
3DFACE
8
default
62
30
10
-0.051768
20
0.044004
30
0.193188
11
-0.080724
21
0.030000
31
0.181188
12
-0.051768
22
0.030000
32
0.193188
13
-0.051768
23
0.044004
33
0.193188
0
3DFACE
8
default
62
30
10
0.000000
20
0.030000
30
0.200004
11
0.000000
21
0.044004
31
0.200004
12
-0.051768
22
0.044004
32
0.193188
13
0.000000
23
0.030000
33
0.200004
0
3DFACE
8
default
62
30
10
0.000000
20
0.030000
30
0.200004
11
-0.051768
21
0.044004
31
0.193188
12
-0.051768
22
0.030000
32
0.193188
13
0.000000
23
0.030000
33
0.200004
0
3DFACE
8
default
62
30
10
0.051768
20
0.030000
30
0.193188
11
0.051768
21
0.044004
31
0.193188
12
0.000000
22
0.044004
32
0.200004
13
0.051768
23
0.030000
33
0.193188
0
3DFACE
8
default
62
30
10
0.051768
20
0.030000
30
0.193188
11
0.000000
21
0.044004
31
0.200004
12
0.000000
22
0.030000
32
0.200004
13
0.051768
23
0.030000
33
0.193188
0
3DFACE
8
default
62
30
10
0.080988
20
0.030000
30
0.181080
11
0.080988
21
0.044004
31
0.181080
12
0.051768
22
0.044004
32
0.193188
13
0.080988
23
0.030000
33
0.181080
0
3DFACE
8
default
62
30
10
0.080988
20
0.030000
30
0.181080
11
0.051768
21
0.044004
31
0.193188
12
0.051768
22
0.030000
32
0.193188
13
0.080988
23
0.030000
33
0.181080
0
3DFACE
8
default
62
30
10
0.193188
20
0.044004
30
-0.051768
11
0.197280
21
0.044004
31
-0.020688
12
0.197280
22
0.030000
32
-0.020688
13
0.193188
23
0.044004
33
-0.051768
0
3DFACE
8
default
62
30
10
0.193188
20
0.044004
30
-0.051768
11
0.197280
21
0.030000
31
-0.020688
12
0.193188
22
0.030000
32
-0.051768
13
0.193188
23
0.044004
33
-0.051768
0
3DFACE
8
default
62
30
10
0.173208
20
0.030000
30
-0.099996
11
0.173208
21
0.044004
31
-0.099996
12
0.193188
22
0.044004
32
-0.051768
13
0.173208
23
0.030000
33
-0.099996
0
3DFACE
8
default
62
30
10
0.173208
20
0.030000
30
-0.099996
11
0.193188
21
0.044004
31
-0.051768
12
0.193188
22
0.030000
32
-0.051768
13
0.173208
23
0.030000
33
-0.099996
0
3DFACE
8
default
62
30
10
0.141420
20
0.030000
30
-0.141420
11
0.141420
21
0.044004
31
-0.141420
12
0.173208
22
0.044004
32
-0.099996
13
0.141420
23
0.030000
33
-0.141420
0
3DFACE
8
default
62
30
10
0.141420
20
0.030000
30
-0.141420
11
0.173208
21
0.044004
31
-0.099996
12
0.173208
22
0.030000
32
-0.099996
13
0.141420
23
0.030000
33
-0.141420
0
3DFACE
8
default
62
30
10
0.116328
20
0.030000
30
-0.160680
11
0.116328
21
0.044004
31
-0.160680
12
0.141420
22
0.044004
32
-0.141420
13
0.116328
23
0.030000
33
-0.160680
0
3DFACE
8
default
62
30
10
0.116328
20
0.030000
30
-0.160680
11
0.141420
21
0.044004
31
-0.141420
12
0.141420
22
0.030000
32
-0.141420
13
0.116328
23
0.030000
33
-0.160680
0
3DFACE
8
default
62
30
10
0.081648
20
0.030000
30
0.182568
11
0.081648
21
0.044004
31
0.182568
12
0.080988
22
0.044004
32
0.181080
13
0.081648
23
0.030000
33
0.182568
0
3DFACE
8
default
62
30
10
0.081648
20
0.030000
30
0.182568
11
0.080988
21
0.044004
31
0.181080
12
0.080988
22
0.030000
32
0.181080
13
0.081648
23
0.030000
33
0.182568
0
3DFACE
8
default
62
30
10
0.199116
20
0.044004
30
-0.020880
11
0.199116
21
0.030000
31
-0.020880
12
0.197280
22
0.030000
32
-0.020688
13
0.199116
23
0.044004
33
-0.020880
0
3DFACE
8
default
62
30
10
0.199116
20
0.044004
30
-0.020880
11
0.197280
21
0.030000
31
-0.020688
12
0.197280
22
0.044004
32
-0.020688
13
0.199116
23
0.044004
33
-0.020880
0
3DFACE
8
default
62
30
10
0.117396
20
0.030000
30
-0.162156
11
0.117396
21
0.044004
31
-0.162156
12
0.116328
22
0.044004
32
-0.160680
13
0.117396
23
0.030000
33
-0.162156
0
3DFACE
8
default
62
30
10
0.117396
20
0.030000
30
-0.162156
11
0.116328
21
0.044004
31
-0.160680
12
0.116328
22
0.030000
32
-0.160680
13
0.117396
23
0.030000
33
-0.162156
0
3DFACE
8
default
62
30
10
-0.117648
20
0.044004
30
-0.162000
11
-0.117648
21
0.030000
31
-0.162000
12
-0.116556
22
0.030000
32
-0.160500
13
-0.117648
23
0.044004
33
-0.162000
0
3DFACE
8
default
62
30
10
-0.117648
20
0.044004
30
-0.162000
11
-0.116556
21
0.030000
31
-0.160500
12
-0.116556
22
0.044004
32
-0.160500
13
-0.117648
23
0.044004
33
-0.162000
0
3DFACE
8
default
62
30
10
-0.199128
20
0.030000
30
-0.020592
11
-0.199128
21
0.044004
31
-0.020592
12
-0.197316
22
0.044004
32
-0.020400
13
-0.199128
23
0.030000
33
-0.020592
0
3DFACE
8
default
62
30
10
-0.199128
20
0.030000
30
-0.020592
11
-0.197316
21
0.044004
31
-0.020400
12
-0.197316
22
0.030000
32
-0.020400
13
-0.199128
23
0.030000
33
-0.020592
0
3DFACE
8
default
62
30
10
-0.081480
20
0.044004
30
0.182880
11
-0.081480
21
0.030000
31
0.182880
12
-0.080724
22
0.030000
32
0.181188
13
-0.081480
23
0.044004
33
0.182880
0
3DFACE
8
default
62
30
10
-0.081480
20
0.044004
30
0.182880
11
-0.080724
21
0.030000
31
0.181188
12
-0.080724
22
0.044004
32
0.181188
13
-0.081480
23
0.044004
33
0.182880
0
3DFACE
8
default
62
30
10
-0.116556
20
0.044004
30
-0.160500
11
-0.141420
21
0.044004
31
-0.141420
12
-0.173208
22
0.044004
32
-0.099996
13
-0.116556
23
0.044004
33
-0.160500
0
3DFACE
8
default
62
30
10
0.117648
20
0.000000
30
-0.162000
11
0.180996
21
-0.000000
31
-0.162000
12
0.187464
22
-0.000000
32
-0.161148
13
0.117648
23
0.000000
33
-0.162000
0
3DFACE
8
default
62
30
10
-0.141420
20
0.030000
30
-0.141420
11
-0.116556
21
0.030000
31
-0.160500
12
-0.117648
22
0.030000
32
-0.162000
13
-0.141420
23
0.030000
33
-0.141420
0
3DFACE
8
default
62
30
10
-0.051768
20
0.030000
30
0.193188
11
-0.080724
21
0.030000
31
0.181188
12
-0.081480
22
0.030000
32
0.182880
13
-0.051768
23
0.030000
33
0.193188
0
3DFACE
8
default
62
30
10
0.193188
20
0.030000
30
-0.051768
11
0.197280
21
0.030000
31
-0.020688
12
0.199116
22
0.030000
32
-0.020880
13
0.193188
23
0.030000
33
-0.051768
0
3DFACE
8
default
62
30
10
-0.197316
20
0.044004
30
-0.020400
11
-0.199128
21
0.044004
31
-0.020592
12
-0.200004
22
0.044004
32
0.000000
13
-0.197316
23
0.044004
33
-0.020400
0
3DFACE
8
default
62
30
10
0.199116
20
-0.000000
30
-0.020880
11
0.200004
21
-0.000000
31
-0.000000
12
0.193188
22
-0.000000
32
0.051768
13
0.199116
23
-0.000000
33
-0.020880
0
3DFACE
8
default
62
30
10
-0.199116
20
0.030000
30
-0.020880
11
-0.199128
21
0.030000
31
-0.020592
12
-0.197316
22
0.030000
32
-0.020400
13
-0.199116
23
0.030000
33
-0.020880
0
3DFACE
8
default
62
30
10
-0.051768
20
0.030000
30
0.193188
11
-0.081480
21
0.030000
31
0.182880
12
-0.049800
22
0.030000
32
0.237744
13
-0.051768
23
0.030000
33
0.193188
0
3DFACE
8
default
62
30
10
0.117648
20
0.030000
30
-0.162000
11
0.117396
21
0.030000
31
-0.162156
12
0.116328
22
0.030000
32
-0.160680
13
0.117648
23
0.030000
33
-0.162000
0
3DFACE
8
default
62
30
10
-0.080724
20
0.044004
30
0.181188
11
-0.051768
21
0.044004
31
0.193188
12
0.000000
22
0.044004
32
0.200004
13
-0.080724
23
0.044004
33
0.181188
0
3DFACE
8
default
62
30
10
0.081648
20
-0.000000
30
0.182568
11
0.049800
21
-0.000000
31
0.237744
12
0.045828
22
-0.000000
32
0.242928
13
0.081648
23
-0.000000
33
0.182568
0
3DFACE
8
default
62
30
10
-0.141420
20
0.030000
30
-0.141420
11
-0.117648
21
0.030000
31
-0.162000
12
-0.180996
22
0.030000
32
-0.162000
13
-0.141420
23
0.030000
33
-0.141420
0
3DFACE
8
default
62
30
10
0.000000
20
0.030000
30
0.200004
11
-0.051768
21
0.030000
31
0.193188
12
-0.049800
22
0.030000
32
0.237744
13
0.000000
23
0.030000
33
0.200004
0
3DFACE
8
default
62
30
10
0.193188
20
0.030000
30
-0.051768
11
0.199116
21
0.030000
31
-0.020880
12
0.230796
22
0.030000
32
-0.075744
13
0.193188
23
0.030000
33
-0.051768
0
3DFACE
8
default
62
30
10
0.080988
20
0.044004
30
0.181080
11
0.081648
21
0.044004
31
0.182568
12
0.099996
22
0.044004
32
0.173208
13
0.080988
23
0.044004
33
0.181080
0
3DFACE
8
default
62
30
10
-0.081480
20
-0.000000
30
0.182880
11
-0.099996
21
-0.000000
31
0.173208
12
-0.141420
22
0.000000
32
0.141420
13
-0.081480
23
-0.000000
33
0.182880
0
3DFACE
8
default
62
30
10
-0.173208
20
0.030000
30
-0.099996
11
-0.141420
21
0.030000
31
-0.141420
12
-0.180996
22
0.030000
32
-0.162000
13
-0.173208
23
0.030000
33
-0.099996
0
3DFACE
8
default
62
30
10
-0.049800
20
0.030000
30
0.237744
11
-0.045828
21
0.030000
31
0.242928
12
-0.040644
22
0.030000
32
0.246900
13
-0.049800
23
0.030000
33
0.237744
0
3DFACE
8
default
62
30
10
-0.049800
20
0.030000
30
0.237744
11
-0.040644
21
0.030000
31
0.246900
12
-0.034620
22
0.030000
32
0.249396
13
-0.049800
23
0.030000
33
0.237744
0
3DFACE
8
default
62
30
10
-0.049800
20
0.030000
30
0.237744
11
-0.034620
21
0.030000
31
0.249396
12
-0.031248
22
0.030000
32
0.250056
13
-0.049800
23
0.030000
33
0.237744
0
3DFACE
8
default
62
30
10
-0.049800
20
0.030000
30
0.237744
11
-0.031248
21
0.030000
31
0.250056
12
0.000000
22
0.030000
32
0.252000
13
-0.049800
23
0.030000
33
0.237744
0
3DFACE
8
default
62
30
10
-0.049800
20
0.030000
30
0.237744
11
0.000000
21
0.030000
31
0.252000
12
0.031248
22
0.030000
32
0.250056
13
-0.049800
23
0.030000
33
0.237744
0
3DFACE
8
default
62
30
10
-0.049800
20
0.030000
30
0.237744
11
0.031248
21
0.030000
31
0.250056
12
0.034620
22
0.030000
32
0.249396
13
-0.049800
23
0.030000
33
0.237744
0
3DFACE
8
default
62
30
10
-0.049800
20
0.030000
30
0.237744
11
0.034620
21
0.030000
31
0.249396
12
0.040644
22
0.030000
32
0.246900
13
-0.049800
23
0.030000
33
0.237744
0
3DFACE
8
default
62
30
10
-0.049800
20
0.030000
30
0.237744
11
0.040644
21
0.030000
31
0.246900
12
0.045828
22
0.030000
32
0.242928
13
-0.049800
23
0.030000
33
0.237744
0
3DFACE
8
default
62
30
10
-0.049800
20
0.030000
30
0.237744
11
0.045828
21
0.030000
31
0.242928
12
0.049800
22
0.030000
32
0.237744
13
-0.049800
23
0.030000
33
0.237744
0
3DFACE
8
default
62
30
10
-0.049800
20
0.030000
30
0.237744
11
0.049800
21
0.030000
31
0.237744
12
0.081648
22
0.030000
32
0.182568
13
-0.049800
23
0.030000
33
0.237744
0
3DFACE
8
default
62
30
10
-0.049800
20
0.030000
30
0.237744
11
0.081648
21
0.030000
31
0.182568
12
0.080988
22
0.030000
32
0.181080
13
-0.049800
23
0.030000
33
0.237744
0
3DFACE
8
default
62
30
10
-0.049800
20
0.030000
30
0.237744
11
0.080988
21
0.030000
31
0.181080
12
0.051768
22
0.030000
32
0.193188
13
-0.049800
23
0.030000
33
0.237744
0
3DFACE
8
default
62
30
10
0.051768
20
0.030000
30
0.193188
11
0.000000
21
0.030000
31
0.200004
12
-0.049800
22
0.030000
32
0.237744
13
0.051768
23
0.030000
33
0.193188
0
3DFACE
8
default
62
30
10
0.173208
20
0.030000
30
-0.099996
11
0.193188
21
0.030000
31
-0.051768
12
0.230796
22
0.030000
32
-0.075744
13
0.173208
23
0.030000
33
-0.099996
0
3DFACE
8
default
62
30
10
0.197280
20
0.044004
30
-0.020688
11
0.193188
21
0.044004
31
-0.051768
12
0.173208
22
0.044004
32
-0.099996
13
0.197280
23
0.044004
33
-0.020688
0
3DFACE
8
default
62
30
10
-0.199116
20
0.000000
30
-0.020880
11
-0.230796
21
0.000000
31
-0.075744
12
-0.233292
22
0.000000
32
-0.081780
13
-0.199116
23
0.000000
33
-0.020880
0
3DFACE
8
default
62
30
10
-0.180996
20
0.030000
30
-0.162000
11
-0.187464
21
0.030000
31
-0.161148
12
-0.193500
22
0.030000
32
-0.158652
13
-0.180996
23
0.030000
33
-0.162000
0
3DFACE
8
default
62
30
10
-0.180996
20
0.030000
30
-0.162000
11
-0.193500
21
0.030000
31
-0.158652
12
-0.198672
22
0.030000
32
-0.154680
13
-0.180996
23
0.030000
33
-0.162000
0
3DFACE
8
default
62
30
10
-0.180996
20
0.030000
30
-0.162000
11
-0.198672
21
0.030000
31
-0.154680
12
-0.200928
22
0.030000
32
-0.152088
13
-0.180996
23
0.030000
33
-0.162000
0
3DFACE
8
default
62
30
10
-0.180996
20
0.030000
30
-0.162000
11
-0.200928
21
0.030000
31
-0.152088
12
-0.218244
22
0.030000
32
-0.126000
13
-0.180996
23
0.030000
33
-0.162000
0
3DFACE
8
default
62
30
10
-0.180996
20
0.030000
30
-0.162000
11
-0.218244
21
0.030000
31
-0.126000
12
-0.232176
22
0.030000
32
-0.097968
13
-0.180996
23
0.030000
33
-0.162000
0
3DFACE
8
default
62
30
10
-0.180996
20
0.030000
30
-0.162000
11
-0.232176
21
0.030000
31
-0.097968
12
-0.233292
22
0.030000
32
-0.094716
13
-0.180996
23
0.030000
33
-0.162000
0
3DFACE
8
default
62
30
10
-0.180996
20
0.030000
30
-0.162000
11
-0.233292
21
0.030000
31
-0.094716
12
-0.234144
22
0.030000
32
-0.088248
13
-0.180996
23
0.030000
33
-0.162000
0
3DFACE
8
default
62
30
10
-0.180996
20
0.030000
30
-0.162000
11
-0.234144
21
0.030000
31
-0.088248
12
-0.233292
22
0.030000
32
-0.081780
13
-0.180996
23
0.030000
33
-0.162000
0
3DFACE
8
default
62
30
10
-0.180996
20
0.030000
30
-0.162000
11
-0.233292
21
0.030000
31
-0.081780
12
-0.230796
22
0.030000
32
-0.075744
13
-0.180996
23
0.030000
33
-0.162000
0
3DFACE
8
default
62
30
10
-0.180996
20
0.030000
30
-0.162000
11
-0.230796
21
0.030000
31
-0.075744
12
-0.199116
22
0.030000
32
-0.020880
13
-0.180996
23
0.030000
33
-0.162000
0
3DFACE
8
default
62
30
10
-0.180996
20
0.030000
30
-0.162000
11
-0.199116
21
0.030000
31
-0.020880
12
-0.197316
22
0.030000
32
-0.020400
13
-0.180996
23
0.030000
33
-0.162000
0
3DFACE
8
default
62
30
10
-0.180996
20
0.030000
30
-0.162000
11
-0.197316
21
0.030000
31
-0.020400
12
-0.193188
22
0.030000
32
-0.051768
13
-0.180996
23
0.030000
33
-0.162000
0
3DFACE
8
default
62
30
10
-0.193188
20
0.030000
30
-0.051768
11
-0.173208
21
0.030000
31
-0.099996
12
-0.180996
22
0.030000
32
-0.162000
13
-0.193188
23
0.030000
33
-0.051768
0
3DFACE
8
default
62
30
10
0.230796
20
0.030000
30
-0.075744
11
0.233292
21
0.030000
31
-0.081780
12
0.234144
22
0.030000
32
-0.088248
13
0.230796
23
0.030000
33
-0.075744
0
3DFACE
8
default
62
30
10
0.230796
20
0.030000
30
-0.075744
11
0.234144
21
0.030000
31
-0.088248
12
0.233292
22
0.030000
32
-0.094716
13
0.230796
23
0.030000
33
-0.075744
0
3DFACE
8
default
62
30
10
0.230796
20
0.030000
30
-0.075744
11
0.233292
21
0.030000
31
-0.094716
12
0.232176
22
0.030000
32
-0.097968
13
0.230796
23
0.030000
33
-0.075744
0
3DFACE
8
default
62
30
10
0.230796
20
0.030000
30
-0.075744
11
0.232176
21
0.030000
31
-0.097968
12
0.218244
22
0.030000
32
-0.126000
13
0.230796
23
0.030000
33
-0.075744
0
3DFACE
8
default
62
30
10
0.230796
20
0.030000
30
-0.075744
11
0.218244
21
0.030000
31
-0.126000
12
0.200928
22
0.030000
32
-0.152088
13
0.230796
23
0.030000
33
-0.075744
0
3DFACE
8
default
62
30
10
0.230796
20
0.030000
30
-0.075744
11
0.200928
21
0.030000
31
-0.152088
12
0.198672
22
0.030000
32
-0.154680
13
0.230796
23
0.030000
33
-0.075744
0
3DFACE
8
default
62
30
10
0.230796
20
0.030000
30
-0.075744
11
0.198672
21
0.030000
31
-0.154680
12
0.193500
22
0.030000
32
-0.158652
13
0.230796
23
0.030000
33
-0.075744
0
3DFACE
8
default
62
30
10
0.230796
20
0.030000
30
-0.075744
11
0.193500
21
0.030000
31
-0.158652
12
0.187464
22
0.030000
32
-0.161148
13
0.230796
23
0.030000
33
-0.075744
0
3DFACE
8
default
62
30
10
0.230796
20
0.030000
30
-0.075744
11
0.187464
21
0.030000
31
-0.161148
12
0.180996
22
0.030000
32
-0.162000
13
0.230796
23
0.030000
33
-0.075744
0
3DFACE
8
default
62
30
10
0.230796
20
0.030000
30
-0.075744
11
0.180996
21
0.030000
31
-0.162000
12
0.117648
22
0.030000
32
-0.162000
13
0.230796
23
0.030000
33
-0.075744
0
3DFACE
8
default
62
30
10
0.230796
20
0.030000
30
-0.075744
11
0.117648
21
0.030000
31
-0.162000
12
0.116328
22
0.030000
32
-0.160680
13
0.230796
23
0.030000
33
-0.075744
0
3DFACE
8
default
62
30
10
0.230796
20
0.030000
30
-0.075744
11
0.116328
21
0.030000
31
-0.160680
12
0.141420
22
0.030000
32
-0.141420
13
0.230796
23
0.030000
33
-0.075744
0
3DFACE
8
default
62
30
10
0.141420
20
0.030000
30
-0.141420
11
0.173208
21
0.030000
31
-0.099996
12
0.230796
22
0.030000
32
-0.075744
13
0.141420
23
0.030000
33
-0.141420
0
3DFACE
8
default
62
30
10
0.116328
20
0.044004
30
-0.160680
11
0.117396
21
0.044004
31
-0.162156
12
0.099996
22
0.044004
32
-0.173208
13
0.116328
23
0.044004
33
-0.160680
0
3DFACE
8
default
62
30
10
-0.117648
20
0.000000
30
-0.162000
11
-0.099996
21
0.000000
31
-0.173208
12
-0.051768
22
0.000000
32
-0.193188
13
-0.117648
23
0.000000
33
-0.162000
0
3DFACE
8
default
62
30
10
-0.116556
20
0.044004
30
-0.160500
11
-0.173208
21
0.044004
31
-0.099996
12
-0.193188
22
0.044004
32
-0.051768
13
-0.116556
23
0.044004
33
-0.160500
0
3DFACE
8
default
62
30
10
0.117648
20
0.000000
30
-0.162000
11
0.187464
21
-0.000000
31
-0.161148
12
0.193500
22
-0.000000
32
-0.158652
13
0.117648
23
0.000000
33
-0.162000
0
3DFACE
8
default
62
30
10
-0.197316
20
0.044004
30
-0.020400
11
-0.200004
21
0.044004
31
0.000000
12
-0.193188
22
0.044004
32
0.051768
13
-0.197316
23
0.044004
33
-0.020400
0
3DFACE
8
default
62
30
10
0.199116
20
-0.000000
30
-0.020880
11
0.193188
21
-0.000000
31
0.051768
12
0.173208
22
-0.000000
32
0.099996
13
0.199116
23
-0.000000
33
-0.020880
0
3DFACE
8
default
62
30
10
-0.080724
20
0.044004
30
0.181188
11
0.000000
21
0.044004
31
0.200004
12
0.051768
22
0.044004
32
0.193188
13
-0.080724
23
0.044004
33
0.181188
0
3DFACE
8
default
62
30
10
0.081648
20
-0.000000
30
0.182568
11
0.045828
21
-0.000000
31
0.242928
12
0.040644
22
-0.000000
32
0.246900
13
0.081648
23
-0.000000
33
0.182568
0
3DFACE
8
default
62
30
10
0.080988
20
0.044004
30
0.181080
11
0.099996
21
0.044004
31
0.173208
12
0.141420
22
0.044004
32
0.141420
13
0.080988
23
0.044004
33
0.181080
0
3DFACE
8
default
62
30
10
-0.081480
20
-0.000000
30
0.182880
11
-0.141420
21
0.000000
31
0.141420
12
-0.173208
22
0.000000
32
0.099996
13
-0.081480
23
-0.000000
33
0.182880
0
3DFACE
8
default
62
30
10
0.197280
20
0.044004
30
-0.020688
11
0.173208
21
0.044004
31
-0.099996
12
0.141420
22
0.044004
32
-0.141420
13
0.197280
23
0.044004
33
-0.020688
0
3DFACE
8
default
62
30
10
-0.199116
20
0.000000
30
-0.020880
11
-0.233292
21
0.000000
31
-0.081780
12
-0.234144
22
0.000000
32
-0.088248
13
-0.199116
23
0.000000
33
-0.020880
0
3DFACE
8
default
62
30
10
0.116328
20
0.044004
30
-0.160680
11
0.099996
21
0.044004
31
-0.173208
12
0.051768
22
0.044004
32
-0.193188
13
0.116328
23
0.044004
33
-0.160680
0
3DFACE
8
default
62
30
10
-0.117648
20
0.000000
30
-0.162000
11
-0.051768
21
0.000000
31
-0.193188
12
-0.000000
22
0.000000
32
-0.200004
13
-0.117648
23
0.000000
33
-0.162000
0
3DFACE
8
default
62
30
10
-0.116556
20
0.044004
30
-0.160500
11
-0.193188
21
0.044004
31
-0.051768
12
-0.197316
22
0.044004
32
-0.020400
13
-0.116556
23
0.044004
33
-0.160500
0
3DFACE
8
default
62
30
10
0.117648
20
0.000000
30
-0.162000
11
0.193500
21
-0.000000
31
-0.158652
12
0.198672
22
-0.000000
32
-0.154680
13
0.117648
23
0.000000
33
-0.162000
0
3DFACE
8
default
62
30
10
-0.080724
20
0.044004
30
0.181188
11
0.051768
21
0.044004
31
0.193188
12
0.080988
22
0.044004
32
0.181080
13
-0.080724
23
0.044004
33
0.181188
0
3DFACE
8
default
62
30
10
0.199116
20
-0.000000
30
-0.020880
11
0.173208
21
-0.000000
31
0.099996
12
0.141420
22
-0.000000
32
0.141420
13
0.199116
23
-0.000000
33
-0.020880
0
3DFACE
8
default
62
30
10
0.197280
20
0.044004
30
-0.020688
11
0.141420
21
0.044004
31
-0.141420
12
0.116328
22
0.044004
32
-0.160680
13
0.197280
23
0.044004
33
-0.020688
0
3DFACE
8
default
62
30
10
0.081648
20
-0.000000
30
0.182568
11
0.040644
21
-0.000000
31
0.246900
12
0.034620
22
-0.000000
32
0.249396
13
0.081648
23
-0.000000
33
0.182568
0
3DFACE
8
default
62
30
10
-0.116556
20
0.044004
30
-0.160500
11
-0.197316
21
0.044004
31
-0.020400
12
-0.193188
22
0.044004
32
0.051768
13
-0.116556
23
0.044004
33
-0.160500
0
3DFACE
8
default
62
30
10
-0.081480
20
-0.000000
30
0.182880
11
-0.173208
21
0.000000
31
0.099996
12
-0.193188
22
0.000000
32
0.051768
13
-0.081480
23
-0.000000
33
0.182880
0
3DFACE
8
default
62
30
10
-0.080724
20
0.044004
30
0.181188
11
0.080988
21
0.044004
31
0.181080
12
0.141420
22
0.044004
32
0.141420
13
-0.080724
23
0.044004
33
0.181188
0
3DFACE
8
default
62
30
10
-0.199116
20
0.000000
30
-0.020880
11
-0.234144
21
0.000000
31
-0.088248
12
-0.233292
22
0.000000
32
-0.094716
13
-0.199116
23
0.000000
33
-0.020880
0
3DFACE
8
default
62
30
10
0.197280
20
0.044004
30
-0.020688
11
0.116328
21
0.044004
31
-0.160680
12
0.051768
22
0.044004
32
-0.193188
13
0.197280
23
0.044004
33
-0.020688
0
3DFACE
8
default
62
30
10
-0.117648
20
0.000000
30
-0.162000
11
-0.000000
21
0.000000
31
-0.200004
12
0.051768
22
0.000000
32
-0.193188
13
-0.117648
23
0.000000
33
-0.162000
0
3DFACE
8
default
62
30
10
-0.116556
20
0.044004
30
-0.160500
11
-0.193188
21
0.044004
31
0.051768
12
-0.173208
22
0.044004
32
0.099996
13
-0.116556
23
0.044004
33
-0.160500
0
3DFACE
8
default
62
30
10
0.117648
20
0.000000
30
-0.162000
11
0.198672
21
-0.000000
31
-0.154680
12
0.200928
22
-0.000000
32
-0.152088
13
0.117648
23
0.000000
33
-0.162000
0
3DFACE
8
default
62
30
10
-0.080724
20
0.044004
30
0.181188
11
0.141420
21
0.044004
31
0.141420
12
0.173208
22
0.044004
32
0.099996
13
-0.080724
23
0.044004
33
0.181188
0
3DFACE
8
default
62
30
10
0.199116
20
-0.000000
30
-0.020880
11
0.141420
21
-0.000000
31
0.141420
12
0.099996
22
-0.000000
32
0.173208
13
0.199116
23
-0.000000
33
-0.020880
0
3DFACE
8
default
62
30
10
0.197280
20
0.044004
30
-0.020688
11
0.051768
21
0.044004
31
-0.193188
12
-0.000000
22
0.044004
32
-0.200004
13
0.197280
23
0.044004
33
-0.020688
0
3DFACE
8
default
62
30
10
0.081648
20
-0.000000
30
0.182568
11
0.034620
21
-0.000000
31
0.249396
12
0.031248
22
-0.000000
32
0.250056
13
0.081648
23
-0.000000
33
0.182568
0
3DFACE
8
default
62
30
10
-0.116556
20
0.044004
30
-0.160500
11
-0.173208
21
0.044004
31
0.099996
12
-0.141420
22
0.044004
32
0.141420
13
-0.116556
23
0.044004
33
-0.160500
0
3DFACE
8
default
62
30
10
-0.081480
20
-0.000000
30
0.182880
11
-0.193188
21
0.000000
31
0.051768
12
-0.200004
22
0.000000
32
0.000000
13
-0.081480
23
-0.000000
33
0.182880
0
3DFACE
8
default
62
30
10
-0.080724
20
0.044004
30
0.181188
11
0.173208
21
0.044004
31
0.099996
12
0.193188
22
0.044004
32
0.051768
13
-0.080724
23
0.044004
33
0.181188
0
3DFACE
8
default
62
30
10
-0.199116
20
0.000000
30
-0.020880
11
-0.233292
21
0.000000
31
-0.094716
12
-0.232176
22
0.000000
32
-0.097968
13
-0.199116
23
0.000000
33
-0.020880
0
3DFACE
8
default
62
30
10
0.197280
20
0.044004
30
-0.020688
11
-0.000000
21
0.044004
31
-0.200004
12
-0.051768
22
0.044004
32
-0.193188
13
0.197280
23
0.044004
33
-0.020688
0
3DFACE
8
default
62
30
10
-0.117648
20
0.000000
30
-0.162000
11
0.051768
21
0.000000
31
-0.193188
12
0.099996
22
0.000000
32
-0.173208
13
-0.117648
23
0.000000
33
-0.162000
0
3DFACE
8
default
62
30
10
-0.116556
20
0.044004
30
-0.160500
11
-0.141420
21
0.044004
31
0.141420
12
-0.099996
22
0.044004
32
0.173208
13
-0.116556
23
0.044004
33
-0.160500
0
3DFACE
8
default
62
30
10
0.117648
20
0.000000
30
-0.162000
11
0.200928
21
-0.000000
31
-0.152088
12
0.218244
22
-0.000000
32
-0.126000
13
0.117648
23
0.000000
33
-0.162000
0
3DFACE
8
default
62
30
10
-0.080724
20
0.044004
30
0.181188
11
0.193188
21
0.044004
31
0.051768
12
0.200004
22
0.044004
32
-0.000000
13
-0.080724
23
0.044004
33
0.181188
0
3DFACE
8
default
62
30
10
0.199116
20
-0.000000
30
-0.020880
11
0.099996
21
-0.000000
31
0.173208
12
0.081648
22
-0.000000
32
0.182568
13
0.199116
23
-0.000000
33
-0.020880
0
3DFACE
8
default
62
30
10
0.197280
20
0.044004
30
-0.020688
11
-0.051768
21
0.044004
31
-0.193188
12
-0.099996
22
0.044004
32
-0.173208
13
0.197280
23
0.044004
33
-0.020688
0
3DFACE
8
default
62
30
10
-0.081480
20
-0.000000
30
0.182880
11
-0.200004
21
0.000000
31
0.000000
12
-0.199116
22
0.000000
32
-0.020880
13
-0.081480
23
-0.000000
33
0.182880
0
3DFACE
8
default
62
30
10
-0.116556
20
0.044004
30
-0.160500
11
-0.099996
21
0.044004
31
0.173208
12
-0.081480
22
0.044004
32
0.182880
13
-0.116556
23
0.044004
33
-0.160500
0
3DFACE
8
default
62
30
10
-0.117648
20
0.000000
30
-0.162000
11
0.099996
21
0.000000
31
-0.173208
12
0.117648
22
0.000000
32
-0.162000
13
-0.117648
23
0.000000
33
-0.162000
0
3DFACE
8
default
62
30
10
0.117648
20
0.000000
30
-0.162000
11
0.218244
21
-0.000000
31
-0.126000
12
0.232176
22
-0.000000
32
-0.097968
13
0.117648
23
0.000000
33
-0.162000
0
3DFACE
8
default
62
30
10
0.117648
20
0.000000
30
-0.162000
11
0.232176
21
-0.000000
31
-0.097968
12
0.233292
22
-0.000000
32
-0.094716
13
0.117648
23
0.000000
33
-0.162000
0
3DFACE
8
default
62
30
10
0.117648
20
0.000000
30
-0.162000
11
0.233292
21
-0.000000
31
-0.094716
12
0.234144
22
-0.000000
32
-0.088248
13
0.117648
23
0.000000
33
-0.162000
0
3DFACE
8
default
62
30
10
0.117648
20
0.000000
30
-0.162000
11
0.234144
21
-0.000000
31
-0.088248
12
0.233292
22
-0.000000
32
-0.081780
13
0.117648
23
0.000000
33
-0.162000
0
3DFACE
8
default
62
30
10
0.117648
20
0.000000
30
-0.162000
11
0.233292
21
-0.000000
31
-0.081780
12
0.230796
22
-0.000000
32
-0.075744
13
0.117648
23
0.000000
33
-0.162000
0
3DFACE
8
default
62
30
10
0.117648
20
0.000000
30
-0.162000
11
0.230796
21
-0.000000
31
-0.075744
12
0.199116
22
-0.000000
32
-0.020880
13
0.117648
23
0.000000
33
-0.162000
0
3DFACE
8
default
62
30
10
0.117648
20
0.000000
30
-0.162000
11
0.199116
21
-0.000000
31
-0.020880
12
0.081648
22
-0.000000
32
0.182568
13
0.117648
23
0.000000
33
-0.162000
0
3DFACE
8
default
62
30
10
0.117648
20
0.000000
30
-0.162000
11
0.081648
21
-0.000000
31
0.182568
12
0.031248
22
-0.000000
32
0.250056
13
0.117648
23
0.000000
33
-0.162000
0
3DFACE
8
default
62
30
10
0.117648
20
0.000000
30
-0.162000
11
0.031248
21
-0.000000
31
0.250056
12
0.000000
22
-0.000000
32
0.252000
13
0.117648
23
0.000000
33
-0.162000
0
3DFACE
8
default
62
30
10
0.117648
20
0.000000
30
-0.162000
11
0.000000
21
-0.000000
31
0.252000
12
-0.031248
22
-0.000000
32
0.250056
13
0.117648
23
0.000000
33
-0.162000
0
3DFACE
8
default
62
30
10
0.117648
20
0.000000
30
-0.162000
11
-0.031248
21
-0.000000
31
0.250056
12
-0.034620
22
-0.000000
32
0.249396
13
0.117648
23
0.000000
33
-0.162000
0
3DFACE
8
default
62
30
10
0.117648
20
0.000000
30
-0.162000
11
-0.034620
21
-0.000000
31
0.249396
12
-0.040644
22
-0.000000
32
0.246900
13
0.117648
23
0.000000
33
-0.162000
0
3DFACE
8
default
62
30
10
0.117648
20
0.000000
30
-0.162000
11
-0.040644
21
-0.000000
31
0.246900
12
-0.045828
22
-0.000000
32
0.242928
13
0.117648
23
0.000000
33
-0.162000
0
3DFACE
8
default
62
30
10
0.117648
20
0.000000
30
-0.162000
11
-0.045828
21
-0.000000
31
0.242928
12
-0.049800
22
-0.000000
32
0.237744
13
0.117648
23
0.000000
33
-0.162000
0
3DFACE
8
default
62
30
10
0.117648
20
0.000000
30
-0.162000
11
-0.049800
21
-0.000000
31
0.237744
12
-0.081480
22
-0.000000
32
0.182880
13
0.117648
23
0.000000
33
-0.162000
0
3DFACE
8
default
62
30
10
0.117648
20
0.000000
30
-0.162000
11
-0.081480
21
-0.000000
31
0.182880
12
-0.199116
22
0.000000
32
-0.020880
13
0.117648
23
0.000000
33
-0.162000
0
3DFACE
8
default
62
30
10
0.117648
20
0.000000
30
-0.162000
11
-0.199116
21
0.000000
31
-0.020880
12
-0.232176
22
0.000000
32
-0.097968
13
0.117648
23
0.000000
33
-0.162000
0
3DFACE
8
default
62
30
10
0.117648
20
0.000000
30
-0.162000
11
-0.232176
21
0.000000
31
-0.097968
12
-0.218244
22
0.000000
32
-0.126000
13
0.117648
23
0.000000
33
-0.162000
0
3DFACE
8
default
62
30
10
0.117648
20
0.000000
30
-0.162000
11
-0.218244
21
0.000000
31
-0.126000
12
-0.200928
22
0.000000
32
-0.152088
13
0.117648
23
0.000000
33
-0.162000
0
3DFACE
8
default
62
30
10
0.117648
20
0.000000
30
-0.162000
11
-0.200928
21
0.000000
31
-0.152088
12
-0.198672
22
0.000000
32
-0.154680
13
0.117648
23
0.000000
33
-0.162000
0
3DFACE
8
default
62
30
10
0.117648
20
0.000000
30
-0.162000
11
-0.198672
21
0.000000
31
-0.154680
12
-0.193500
22
0.000000
32
-0.158652
13
0.117648
23
0.000000
33
-0.162000
0
3DFACE
8
default
62
30
10
0.117648
20
0.000000
30
-0.162000
11
-0.193500
21
0.000000
31
-0.158652
12
-0.187464
22
0.000000
32
-0.161148
13
0.117648
23
0.000000
33
-0.162000
0
3DFACE
8
default
62
30
10
0.117648
20
0.000000
30
-0.162000
11
-0.187464
21
0.000000
31
-0.161148
12
-0.180996
22
0.000000
32
-0.162000
13
0.117648
23
0.000000
33
-0.162000
0
3DFACE
8
default
62
30
10
0.117648
20
0.000000
30
-0.162000
11
-0.180996
21
0.000000
31
-0.162000
12
-0.117648
22
0.000000
32
-0.162000
13
0.117648
23
0.000000
33
-0.162000
0
3DFACE
8
default
62
30
10
-0.080724
20
0.044004
30
0.181188
11
0.200004
21
0.044004
31
-0.000000
12
0.199116
22
0.044004
32
-0.020880
13
-0.080724
23
0.044004
33
0.181188
0
3DFACE
8
default
62
30
10
0.197280
20
0.044004
30
-0.020688
11
-0.099996
21
0.044004
31
-0.173208
12
-0.117648
22
0.044004
32
-0.162000
13
0.197280
23
0.044004
33
-0.020688
0
3DFACE
8
default
62
30
10
-0.116556
20
0.044004
30
-0.160500
11
-0.081480
21
0.044004
31
0.182880
12
-0.080724
22
0.044004
32
0.181188
13
-0.116556
23
0.044004
33
-0.160500
0
3DFACE
8
default
62
30
10
0.197280
20
0.044004
30
-0.020688
11
-0.117648
21
0.044004
31
-0.162000
12
-0.116556
22
0.044004
32
-0.160500
13
0.197280
23
0.044004
33
-0.020688
0
3DFACE
8
default
62
30
10
-0.080724
20
0.044004
30
0.181188
11
0.199116
21
0.044004
31
-0.020880
12
0.197280
22
0.044004
32
-0.020688
13
-0.080724
23
0.044004
33
0.181188
0
3DFACE
8
default
62
30
10
0.197280
20
0.044004
30
-0.020688
11
-0.116556
21
0.044004
31
-0.160500
12
-0.080724
22
0.044004
32
0.181188
13
0.197280
23
0.044004
33
-0.020688
0
ENDSEC
0
EOF
