0
SECTION
2
ENTITIES
0
3DFACE
8
default
62
30
10
0.063000
20
0.055000
30
-0.040000
11
0.071448
21
0.082900
31
-0.040000
12
0.083004
22
0.121000
32
-0.019996
13
0.063000
23
0.055000
33
-0.040000
0
3DFACE
8
default
62
30
10
0.063000
20
0.055000
30
-0.040000
11
0.083004
21
0.121000
31
-0.019996
12
0.083004
22
0.121000
32
0.020000
13
0.063000
23
0.055000
33
-0.040000
0
3DFACE
8
default
62
30
10
0.063000
20
0.055000
30
-0.040000
11
0.083004
21
0.121000
31
0.020000
12
0.071448
22
0.082900
32
0.040004
13
0.063000
23
0.055000
33
-0.040000
0
3DFACE
8
default
62
30
10
0.063000
20
0.055000
30
-0.040000
11
0.071448
21
0.082900
31
0.040004
12
0.063000
22
0.055000
32
0.040004
13
0.063000
23
0.055000
33
-0.040000
0
3DFACE
8
default
62
30
10
0.083004
20
0.121000
30
0.020000
11
0.083004
21
0.121000
31
-0.019996
12
0.083004
22
0.205000
32
-0.019996
13
0.083004
23
0.121000
33
0.020000
0
3DFACE
8
default
62
30
10
0.083004
20
0.121000
30
0.020000
11
0.083004
21
0.205000
31
-0.019996
12
0.083004
22
0.205000
32
0.020000
13
0.083004
23
0.121000
33
0.020000
0
3DFACE
8
default
62
30
10
0.083004
20
0.205000
30
-0.019996
11
0.075396
21
0.215140
31
-0.033172
12
0.073008
22
0.218320
32
-0.030004
13
0.083004
23
0.205000
33
-0.019996
0
3DFACE
8
default
62
30
10
0.083004
20
0.205000
30
-0.019996
11
0.073008
21
0.218320
31
-0.030004
12
0.071004
22
0.220996
32
-0.019996
13
0.083004
23
0.205000
33
-0.019996
0
3DFACE
8
default
62
30
10
0.071004
20
0.220996
30
-0.019996
11
0.071004
21
0.220996
31
0.020000
12
0.083004
22
0.205000
32
0.020000
13
0.071004
23
0.220996
33
-0.019996
0
3DFACE
8
default
62
30
10
0.071004
20
0.220996
30
-0.019996
11
0.083004
21
0.205000
31
0.020000
12
0.083004
22
0.205000
32
-0.019996
13
0.071004
23
0.220996
33
-0.019996
0
3DFACE
8
default
62
30
10
0.071004
20
0.220996
30
0.020000
11
0.073008
21
0.218320
31
0.029996
12
0.075396
22
0.215140
32
0.033176
13
0.071004
23
0.220996
33
0.020000
0
3DFACE
8
default
62
30
10
0.071004
20
0.220996
30
0.020000
11
0.075396
21
0.215140
31
0.033176
12
0.083004
22
0.205000
32
0.020000
13
0.071004
23
0.220996
33
0.020000
0
3DFACE
8
default
62
30
10
0.071004
20
0.220996
30
0.020000
11
0.071004
21
0.220996
31
-0.019996
12
0.054996
22
0.220996
32
-0.019996
13
0.071004
23
0.220996
33
0.020000
0
3DFACE
8
default
62
30
10
0.071004
20
0.220996
30
0.020000
11
0.054996
21
0.220996
31
-0.019996
12
0.054996
22
0.220996
32
0.020000
13
0.071004
23
0.220996
33
0.020000
0
3DFACE
8
default
62
30
10
0.054996
20
0.211000
30
0.037316
11
0.054996
21
0.218320
31
0.029996
12
0.054996
22
0.220996
32
0.020000
13
0.054996
23
0.211000
33
0.037316
0
3DFACE
8
default
62
30
10
0.054996
20
0.211000
30
0.037316
11
0.054996
21
0.220996
31
0.020000
12
0.054996
22
0.220996
32
-0.019996
13
0.054996
23
0.211000
33
0.037316
0
3DFACE
8
default
62
30
10
0.054996
20
0.211000
30
0.037316
11
0.054996
21
0.220996
31
-0.019996
12
0.054996
22
0.218320
32
-0.030004
13
0.054996
23
0.211000
33
0.037316
0
3DFACE
8
default
62
30
10
0.054996
20
0.211000
30
0.037316
11
0.054996
21
0.218320
31
-0.030004
12
0.054996
22
0.211000
32
-0.037324
13
0.054996
23
0.211000
33
0.037316
0
3DFACE
8
default
62
30
10
0.054996
20
0.211000
30
0.037316
11
0.054996
21
0.211000
31
-0.037324
12
0.054996
22
0.201004
32
-0.040000
13
0.054996
23
0.211000
33
0.037316
0
3DFACE
8
default
62
30
10
0.054996
20
0.211000
30
0.037316
11
0.054996
21
0.201004
31
-0.040000
12
0.054996
22
0.121000
32
-0.040000
13
0.054996
23
0.211000
33
0.037316
0
3DFACE
8
default
62
30
10
0.054996
20
0.211000
30
0.037316
11
0.054996
21
0.121000
31
-0.040000
12
0.054996
22
0.121000
32
0.040004
13
0.054996
23
0.211000
33
0.037316
0
3DFACE
8
default
62
30
10
0.054996
20
0.211000
30
0.037316
11
0.054996
21
0.121000
31
0.040004
12
0.054996
22
0.201004
32
0.040004
13
0.054996
23
0.211000
33
0.037316
0
3DFACE
8
default
62
30
10
0.054996
20
0.121000
30
-0.040000
11
-0.024996
21
0.121000
31
-0.040000
12
-0.024996
22
0.121000
32
0.040004
13
0.054996
23
0.121000
33
-0.040000
0
3DFACE
8
default
62
30
10
0.054996
20
0.121000
30
-0.040000
11
-0.024996
21
0.121000
31
0.040004
12
0.054996
22
0.121000
32
0.040004
13
0.054996
23
0.121000
33
-0.040000
0
3DFACE
8
default
62
30
10
-0.024996
20
0.121000
30
-0.040000
11
-0.024996
21
0.201004
31
-0.040000
12
-0.024996
22
0.211000
32
-0.037324
13
-0.024996
23
0.121000
33
-0.040000
0
3DFACE
8
default
62
30
10
-0.024996
20
0.121000
30
-0.040000
11
-0.024996
21
0.211000
31
-0.037324
12
-0.024996
22
0.218320
32
-0.030004
13
-0.024996
23
0.121000
33
-0.040000
0
3DFACE
8
default
62
30
10
-0.024996
20
0.121000
30
-0.040000
11
-0.024996
21
0.218320
31
-0.030004
12
-0.024996
22
0.220996
32
-0.019996
13
-0.024996
23
0.121000
33
-0.040000
0
3DFACE
8
default
62
30
10
-0.024996
20
0.121000
30
-0.040000
11
-0.024996
21
0.220996
31
-0.019996
12
-0.024996
22
0.220996
32
0.020000
13
-0.024996
23
0.121000
33
-0.040000
0
3DFACE
8
default
62
30
10
-0.024996
20
0.121000
30
-0.040000
11
-0.024996
21
0.220996
31
0.020000
12
-0.024996
22
0.218320
32
0.029996
13
-0.024996
23
0.121000
33
-0.040000
0
3DFACE
8
default
62
30
10
-0.024996
20
0.121000
30
-0.040000
11
-0.024996
21
0.218320
31
0.029996
12
-0.024996
22
0.211000
32
0.037316
13
-0.024996
23
0.121000
33
-0.040000
0
3DFACE
8
default
62
30
10
-0.024996
20
0.121000
30
-0.040000
11
-0.024996
21
0.211000
31
0.037316
12
-0.024996
22
0.201004
32
0.040004
13
-0.024996
23
0.121000
33
-0.040000
0
3DFACE
8
default
62
30
10
-0.024996
20
0.121000
30
-0.040000
11
-0.024996
21
0.201004
31
0.040004
12
-0.024996
22
0.121000
32
0.040004
13
-0.024996
23
0.121000
33
-0.040000
0
3DFACE
8
default
62
30
10
-0.024996
20
0.220996
30
0.020000
11
-0.024996
21
0.220996
31
-0.019996
12
-0.077004
22
0.220996
32
-0.019996
13
-0.024996
23
0.220996
33
0.020000
0
3DFACE
8
default
62
30
10
-0.024996
20
0.220996
30
0.020000
11
-0.077004
21
0.220996
31
-0.019996
12
-0.077004
22
0.220996
32
0.020000
13
-0.024996
23
0.220996
33
0.020000
0
3DFACE
8
default
62
30
10
-0.077004
20
0.220996
30
0.020000
11
-0.077004
21
0.220996
31
-0.019996
12
-0.077004
22
0.081004
32
-0.019996
13
-0.077004
23
0.220996
33
0.020000
0
3DFACE
8
default
62
30
10
-0.077004
20
0.220996
30
0.020000
11
-0.077004
21
0.081004
31
-0.019996
12
-0.077004
22
0.081004
32
0.020000
13
-0.077004
23
0.220996
33
0.020000
0
3DFACE
8
default
62
30
10
-0.077004
20
0.081004
30
0.020000
11
-0.077004
21
0.081004
31
-0.019996
12
-0.065448
22
0.044260
32
-0.040000
13
-0.077004
23
0.081004
33
0.020000
0
3DFACE
8
default
62
30
10
-0.077004
20
0.081004
30
0.020000
11
-0.065448
21
0.044260
31
-0.040000
12
-0.054996
22
0.010996
32
-0.040000
13
-0.077004
23
0.081004
33
0.020000
0
3DFACE
8
default
62
30
10
-0.077004
20
0.081004
30
0.020000
11
-0.054996
21
0.010996
31
-0.040000
12
-0.054996
22
0.010996
32
0.040004
13
-0.077004
23
0.081004
33
0.020000
0
3DFACE
8
default
62
30
10
-0.077004
20
0.081004
30
0.020000
11
-0.054996
21
0.010996
31
0.040004
12
-0.065448
22
0.044260
32
0.040004
13
-0.077004
23
0.081004
33
0.020000
0
3DFACE
8
default
62
30
10
0.022392
20
0.055000
30
0.040004
11
0.022392
21
0.010996
31
0.040004
12
0.023004
22
0.010996
32
0.039836
13
0.022392
23
0.055000
33
0.040004
0
3DFACE
8
default
62
30
10
0.022392
20
0.055000
30
0.040004
11
0.023004
21
0.010996
31
0.039836
12
0.023004
22
0.055000
32
0.039836
13
0.022392
23
0.055000
33
0.040004
0
3DFACE
8
default
62
30
10
0.039840
20
0.010996
30
0.023000
11
0.039840
21
0.055000
31
0.023000
12
0.023004
22
0.055000
32
0.039836
13
0.039840
23
0.010996
33
0.023000
0
3DFACE
8
default
62
30
10
0.039840
20
0.010996
30
0.023000
11
0.023004
21
0.055000
31
0.039836
12
0.023004
22
0.010996
32
0.039836
13
0.039840
23
0.010996
33
0.023000
0
3DFACE
8
default
62
30
10
0.045996
20
0.010996
30
-0.000004
11
0.045996
21
0.055000
31
-0.000004
12
0.039840
22
0.055000
32
0.023000
13
0.045996
23
0.010996
33
-0.000004
0
3DFACE
8
default
62
30
10
0.045996
20
0.010996
30
-0.000004
11
0.039840
21
0.055000
31
0.023000
12
0.039840
22
0.010996
32
0.023000
13
0.045996
23
0.010996
33
-0.000004
0
3DFACE
8
default
62
30
10
0.039840
20
0.010996
30
-0.022996
11
0.039840
21
0.055000
31
-0.022996
12
0.045996
22
0.055000
32
-0.000004
13
0.039840
23
0.010996
33
-0.022996
0
3DFACE
8
default
62
30
10
0.039840
20
0.010996
30
-0.022996
11
0.045996
21
0.055000
31
-0.000004
12
0.045996
22
0.010996
32
-0.000004
13
0.039840
23
0.010996
33
-0.022996
0
3DFACE
8
default
62
30
10
0.023004
20
0.010996
30
-0.039832
11
0.023004
21
0.055000
31
-0.039832
12
0.039840
22
0.055000
32
-0.022996
13
0.023004
23
0.010996
33
-0.039832
0
3DFACE
8
default
62
30
10
0.023004
20
0.010996
30
-0.039832
11
0.039840
21
0.055000
31
-0.022996
12
0.039840
22
0.010996
32
-0.022996
13
0.023004
23
0.010996
33
-0.039832
0
3DFACE
8
default
62
30
10
0.022392
20
0.010996
30
-0.040000
11
0.022392
21
0.055000
31
-0.040000
12
0.023004
22
0.055000
32
-0.039832
13
0.022392
23
0.010996
33
-0.040000
0
3DFACE
8
default
62
30
10
0.022392
20
0.010996
30
-0.040000
11
0.023004
21
0.055000
31
-0.039832
12
0.023004
22
0.010996
32
-0.039832
13
0.022392
23
0.010996
33
-0.040000
0
3DFACE
8
default
62
30
10
-0.024996
20
0.201004
30
-0.040000
11
-0.065448
21
0.201004
31
-0.040000
12
-0.066996
22
0.211000
32
-0.037324
13
-0.024996
23
0.201004
33
-0.040000
0
3DFACE
8
default
62
30
10
-0.024996
20
0.201004
30
-0.040000
11
-0.066996
21
0.211000
31
-0.037324
12
-0.024996
22
0.211000
32
-0.037324
13
-0.024996
23
0.201004
33
-0.040000
0
3DFACE
8
default
62
30
10
0.071448
20
0.201004
30
-0.040000
11
0.054996
21
0.201004
31
-0.040000
12
0.054996
22
0.211000
32
-0.037324
13
0.071448
23
0.201004
33
-0.040000
0
3DFACE
8
default
62
30
10
0.071448
20
0.201004
30
-0.040000
11
0.054996
21
0.211000
31
-0.037324
12
0.072996
22
0.211000
32
-0.037324
13
0.071448
23
0.201004
33
-0.040000
0
3DFACE
8
default
62
30
10
-0.071232
20
0.218320
30
-0.030004
11
-0.024996
21
0.218320
31
-0.030004
12
-0.024996
22
0.211000
32
-0.037324
13
-0.071232
23
0.218320
33
-0.030004
0
3DFACE
8
default
62
30
10
-0.071232
20
0.218320
30
-0.030004
11
-0.024996
21
0.211000
31
-0.037324
12
-0.066996
22
0.211000
32
-0.037324
13
-0.071232
23
0.218320
33
-0.030004
0
3DFACE
8
default
62
30
10
0.054996
20
0.218320
30
-0.030004
11
0.073008
21
0.218320
31
-0.030004
12
0.072996
22
0.211000
32
-0.037324
13
0.054996
23
0.218320
33
-0.030004
0
3DFACE
8
default
62
30
10
0.073008
20
0.218320
30
-0.030004
11
0.075396
21
0.215140
31
-0.033172
12
0.072996
22
0.211000
32
-0.037324
13
0.073008
23
0.218320
33
-0.030004
0
3DFACE
8
default
62
30
10
0.072996
20
0.211000
30
-0.037324
11
0.054996
21
0.211000
31
-0.037324
12
0.054996
22
0.218320
32
-0.030004
13
0.072996
23
0.211000
33
-0.037324
0
3DFACE
8
default
62
30
10
-0.077004
20
0.220996
30
-0.019996
11
-0.024996
21
0.220996
31
-0.019996
12
-0.024996
22
0.218320
32
-0.030004
13
-0.077004
23
0.220996
33
-0.019996
0
3DFACE
8
default
62
30
10
-0.077004
20
0.220996
30
-0.019996
11
-0.024996
21
0.218320
31
-0.030004
12
-0.071232
22
0.218320
32
-0.030004
13
-0.077004
23
0.220996
33
-0.019996
0
3DFACE
8
default
62
30
10
0.054996
20
0.220996
30
-0.019996
11
0.071004
21
0.220996
31
-0.019996
12
0.073008
22
0.218320
32
-0.030004
13
0.054996
23
0.220996
33
-0.019996
0
3DFACE
8
default
62
30
10
0.054996
20
0.220996
30
-0.019996
11
0.073008
21
0.218320
31
-0.030004
12
0.054996
22
0.218320
32
-0.030004
13
0.054996
23
0.220996
33
-0.019996
0
3DFACE
8
default
62
30
10
-0.024996
20
0.220996
30
0.020000
11
-0.077004
21
0.220996
31
0.020000
12
-0.071232
22
0.218320
32
0.029996
13
-0.024996
23
0.220996
33
0.020000
0
3DFACE
8
default
62
30
10
-0.024996
20
0.220996
30
0.020000
11
-0.071232
21
0.218320
31
0.029996
12
-0.024996
22
0.218320
32
0.029996
13
-0.024996
23
0.220996
33
0.020000
0
3DFACE
8
default
62
30
10
0.071004
20
0.220996
30
0.020000
11
0.054996
21
0.220996
31
0.020000
12
0.054996
22
0.218320
32
0.029996
13
0.071004
23
0.220996
33
0.020000
0
3DFACE
8
default
62
30
10
0.071004
20
0.220996
30
0.020000
11
0.054996
21
0.218320
31
0.029996
12
0.073008
22
0.218320
32
0.029996
13
0.071004
23
0.220996
33
0.020000
0
3DFACE
8
default
62
30
10
-0.066996
20
0.211000
30
0.037316
11
-0.024996
21
0.211000
31
0.037316
12
-0.024996
22
0.218320
32
0.029996
13
-0.066996
23
0.211000
33
0.037316
0
3DFACE
8
default
62
30
10
-0.066996
20
0.211000
30
0.037316
11
-0.024996
21
0.218320
31
0.029996
12
-0.071232
22
0.218320
32
0.029996
13
-0.066996
23
0.211000
33
0.037316
0
3DFACE
8
default
62
30
10
0.072996
20
0.211000
30
0.037316
11
0.075396
21
0.215140
31
0.033176
12
0.054996
22
0.218320
32
0.029996
13
0.072996
23
0.211000
33
0.037316
0
3DFACE
8
default
62
30
10
0.075396
20
0.215140
30
0.033176
11
0.073008
21
0.218320
31
0.029996
12
0.054996
22
0.218320
32
0.029996
13
0.075396
23
0.215140
33
0.033176
0
3DFACE
8
default
62
30
10
0.054996
20
0.218320
30
0.029996
11
0.054996
21
0.211000
31
0.037316
12
0.072996
22
0.211000
32
0.037316
13
0.054996
23
0.218320
33
0.029996
0
3DFACE
8
default
62
30
10
-0.065448
20
0.201004
30
0.040004
11
-0.024996
21
0.201004
31
0.040004
12
-0.024996
22
0.211000
32
0.037316
13
-0.065448
23
0.201004
33
0.040004
0
3DFACE
8
default
62
30
10
-0.065448
20
0.201004
30
0.040004
11
-0.024996
21
0.211000
31
0.037316
12
-0.066996
22
0.211000
32
0.037316
13
-0.065448
23
0.201004
33
0.040004
0
3DFACE
8
default
62
30
10
0.054996
20
0.201004
30
0.040004
11
0.071448
21
0.201004
31
0.040004
12
0.072996
22
0.211000
32
0.037316
13
0.054996
23
0.201004
33
0.040004
0
3DFACE
8
default
62
30
10
0.054996
20
0.201004
30
0.040004
11
0.072996
21
0.211000
31
0.037316
12
0.054996
22
0.211000
32
0.037316
13
0.054996
23
0.201004
33
0.040004
0
3DFACE
8
default
62
30
10
-0.065448
20
0.201004
30
-0.040000
11
-0.065448
21
0.044260
31
-0.040000
12
-0.077004
22
0.081004
32
-0.019996
13
-0.065448
23
0.201004
33
-0.040000
0
3DFACE
8
default
62
30
10
-0.065448
20
0.201004
30
-0.040000
11
-0.077004
21
0.081004
31
-0.019996
12
-0.077004
22
0.220996
32
-0.019996
13
-0.065448
23
0.201004
33
-0.040000
0
3DFACE
8
default
62
30
10
-0.077004
20
0.220996
30
-0.019996
11
-0.071232
21
0.218320
31
-0.030004
12
-0.065448
22
0.201004
32
-0.040000
13
-0.077004
23
0.220996
33
-0.019996
0
3DFACE
8
default
62
30
10
-0.071232
20
0.218320
30
-0.030004
11
-0.066996
21
0.211000
31
-0.037324
12
-0.065448
22
0.201004
32
-0.040000
13
-0.071232
23
0.218320
33
-0.030004
0
3DFACE
8
default
62
30
10
-0.077004
20
0.220996
30
0.020000
11
-0.077004
21
0.081004
31
0.020000
12
-0.065448
22
0.044260
32
0.040004
13
-0.077004
23
0.220996
33
0.020000
0
3DFACE
8
default
62
30
10
-0.077004
20
0.220996
30
0.020000
11
-0.065448
21
0.044260
31
0.040004
12
-0.065448
22
0.201004
32
0.040004
13
-0.077004
23
0.220996
33
0.020000
0
3DFACE
8
default
62
30
10
-0.065448
20
0.201004
30
0.040004
11
-0.066996
21
0.211000
31
0.037316
12
-0.077004
22
0.220996
32
0.020000
13
-0.065448
23
0.201004
33
0.040004
0
3DFACE
8
default
62
30
10
-0.066996
20
0.211000
30
0.037316
11
-0.071232
21
0.218320
31
0.029996
12
-0.077004
22
0.220996
32
0.020000
13
-0.066996
23
0.211000
33
0.037316
0
3DFACE
8
default
62
30
10
0.083004
20
0.205000
30
-0.019996
11
0.083004
21
0.121000
31
-0.019996
12
0.071448
22
0.082900
32
-0.040000
13
0.083004
23
0.205000
33
-0.019996
0
3DFACE
8
default
62
30
10
0.083004
20
0.205000
30
-0.019996
11
0.071448
21
0.082900
31
-0.040000
12
0.071448
22
0.201004
32
-0.040000
13
0.083004
23
0.205000
33
-0.019996
0
3DFACE
8
default
62
30
10
0.071448
20
0.201004
30
-0.040000
11
0.072996
21
0.211000
31
-0.037324
12
0.075396
22
0.215140
32
-0.033172
13
0.071448
23
0.201004
33
-0.040000
0
3DFACE
8
default
62
30
10
0.071448
20
0.201004
30
-0.040000
11
0.075396
21
0.215140
31
-0.033172
12
0.083004
22
0.205000
32
-0.019996
13
0.071448
23
0.201004
33
-0.040000
0
3DFACE
8
default
62
30
10
0.083004
20
0.205000
30
0.020000
11
0.075396
21
0.215140
31
0.033176
12
0.072996
22
0.211000
32
0.037316
13
0.083004
23
0.205000
33
0.020000
0
3DFACE
8
default
62
30
10
0.083004
20
0.205000
30
0.020000
11
0.072996
21
0.211000
31
0.037316
12
0.071448
22
0.201004
32
0.040004
13
0.083004
23
0.205000
33
0.020000
0
3DFACE
8
default
62
30
10
0.071448
20
0.201004
30
0.040004
11
0.071448
21
0.082900
31
0.040004
12
0.083004
22
0.121000
32
0.020000
13
0.071448
23
0.201004
33
0.040004
0
3DFACE
8
default
62
30
10
0.071448
20
0.201004
30
0.040004
11
0.083004
21
0.121000
31
0.020000
12
0.083004
22
0.205000
32
0.020000
13
0.071448
23
0.201004
33
0.040004
0
3DFACE
8
default
62
30
10
0.027000
20
-0.026996
30
-0.046768
11
0.000000
21
-0.026996
31
-0.054004
12
0.000000
22
0.010996
32
-0.054004
13
0.027000
23
-0.026996
33
-0.046768
0
3DFACE
8
default
62
30
10
0.027000
20
-0.026996
30
-0.046768
11
0.000000
21
0.010996
31
-0.054004
12
0.027000
22
0.010996
32
-0.046768
13
0.027000
23
-0.026996
33
-0.046768
0
3DFACE
8
default
62
30
10
0.046764
20
-0.026996
30
-0.027004
11
0.027000
21
-0.026996
31
-0.046768
12
0.027000
22
0.010996
32
-0.046768
13
0.046764
23
-0.026996
33
-0.027004
0
3DFACE
8
default
62
30
10
0.046764
20
-0.026996
30
-0.027004
11
0.027000
21
0.010996
31
-0.046768
12
0.046764
22
0.010996
32
-0.027004
13
0.046764
23
-0.026996
33
-0.027004
0
3DFACE
8
default
62
30
10
0.054000
20
-0.026996
30
-0.000004
11
0.046764
21
-0.026996
31
-0.027004
12
0.046764
22
0.010996
32
-0.027004
13
0.054000
23
-0.026996
33
-0.000004
0
3DFACE
8
default
62
30
10
0.054000
20
-0.026996
30
-0.000004
11
0.046764
21
0.010996
31
-0.027004
12
0.054000
22
0.010996
32
-0.000004
13
0.054000
23
-0.026996
33
-0.000004
0
3DFACE
8
default
62
30
10
0.046764
20
-0.026996
30
0.026996
11
0.054000
21
-0.026996
31
-0.000004
12
0.054000
22
0.010996
32
-0.000004
13
0.046764
23
-0.026996
33
0.026996
0
3DFACE
8
default
62
30
10
0.046764
20
-0.026996
30
0.026996
11
0.054000
21
0.010996
31
-0.000004
12
0.046764
22
0.010996
32
0.026996
13
0.046764
23
-0.026996
33
0.026996
0
3DFACE
8
default
62
30
10
0.027000
20
-0.026996
30
0.046760
11
0.046764
21
-0.026996
31
0.026996
12
0.046764
22
0.010996
32
0.026996
13
0.027000
23
-0.026996
33
0.046760
0
3DFACE
8
default
62
30
10
0.027000
20
-0.026996
30
0.046760
11
0.046764
21
0.010996
31
0.026996
12
0.027000
22
0.010996
32
0.046760
13
0.027000
23
-0.026996
33
0.046760
0
3DFACE
8
default
62
30
10
0.000000
20
-0.026996
30
0.053996
11
0.027000
21
-0.026996
31
0.046760
12
0.027000
22
0.010996
32
0.046760
13
0.000000
23
-0.026996
33
0.053996
0
3DFACE
8
default
62
30
10
0.000000
20
-0.026996
30
0.053996
11
0.027000
21
0.010996
31
0.046760
12
0.000000
22
0.010996
32
0.053996
13
0.000000
23
-0.026996
33
0.053996
0
3DFACE
8
default
62
30
10
-0.027000
20
-0.026996
30
0.046760
11
0.000000
21
-0.026996
31
0.053996
12
0.000000
22
0.010996
32
0.053996
13
-0.027000
23
-0.026996
33
0.046760
0
3DFACE
8
default
62
30
10
-0.027000
20
-0.026996
30
0.046760
11
0.000000
21
0.010996
31
0.053996
12
-0.027000
22
0.010996
32
0.046760
13
-0.027000
23
-0.026996
33
0.046760
0
3DFACE
8
default
62
30
10
-0.046764
20
0.010996
30
0.026996
11
-0.046764
21
-0.026996
31
0.026996
12
-0.027000
22
-0.026996
32
0.046760
13
-0.046764
23
0.010996
33
0.026996
0
3DFACE
8
default
62
30
10
-0.046764
20
0.010996
30
0.026996
11
-0.027000
21
-0.026996
31
0.046760
12
-0.027000
22
0.010996
32
0.046760
13
-0.046764
23
0.010996
33
0.026996
0
3DFACE
8
default
62
30
10
-0.046764
20
0.010996
30
0.026996
11
-0.027000
21
0.010996
31
0.046760
12
-0.033768
22
0.010996
32
0.040004
13
-0.046764
23
0.010996
33
0.026996
0
3DFACE
8
default
62
30
10
-0.054000
20
-0.026996
30
-0.000004
11
-0.046764
21
-0.026996
31
0.026996
12
-0.046764
22
0.010996
32
0.026996
13
-0.054000
23
-0.026996
33
-0.000004
0
3DFACE
8
default
62
30
10
-0.054000
20
-0.026996
30
-0.000004
11
-0.046764
21
0.010996
31
0.026996
12
-0.054000
22
0.010996
32
-0.000004
13
-0.054000
23
-0.026996
33
-0.000004
0
3DFACE
8
default
62
30
10
-0.046764
20
-0.026996
30
-0.027004
11
-0.054000
21
-0.026996
31
-0.000004
12
-0.054000
22
0.010996
32
-0.000004
13
-0.046764
23
-0.026996
33
-0.027004
0
3DFACE
8
default
62
30
10
-0.046764
20
-0.026996
30
-0.027004
11
-0.054000
21
0.010996
31
-0.000004
12
-0.046764
22
0.010996
32
-0.027004
13
-0.046764
23
-0.026996
33
-0.027004
0
3DFACE
8
default
62
30
10
-0.027000
20
0.010996
30
-0.046768
11
-0.027000
21
-0.026996
31
-0.046768
12
-0.046764
22
-0.026996
32
-0.027004
13
-0.027000
23
0.010996
33
-0.046768
0
3DFACE
8
default
62
30
10
-0.027000
20
0.010996
30
-0.046768
11
-0.046764
21
-0.026996
31
-0.027004
12
-0.046764
22
0.010996
32
-0.027004
13
-0.027000
23
0.010996
33
-0.046768
0
3DFACE
8
default
62
30
10
-0.027000
20
0.010996
30
-0.046768
11
-0.046764
21
0.010996
31
-0.027004
12
-0.033768
22
0.010996
32
-0.040000
13
-0.027000
23
0.010996
33
-0.046768
0
3DFACE
8
default
62
30
10
0.000000
20
-0.026996
30
-0.054004
11
-0.027000
21
-0.026996
31
-0.046768
12
-0.027000
22
0.010996
32
-0.046768
13
0.000000
23
-0.026996
33
-0.054004
0
3DFACE
8
default
62
30
10
0.000000
20
-0.026996
30
-0.054004
11
-0.027000
21
0.010996
31
-0.046768
12
0.000000
22
0.010996
32
-0.054004
13
0.000000
23
-0.026996
33
-0.054004
0
3DFACE
8
default
62
30
10
-0.027996
20
-0.026996
30
-0.048496
11
-0.048492
21
-0.026996
31
-0.028000
12
-0.056004
22
-0.026996
32
-0.000004
13
-0.027996
23
-0.026996
33
-0.048496
0
3DFACE
8
default
62
30
10
-0.027996
20
-0.026996
30
-0.048496
11
-0.056004
21
-0.026996
31
-0.000004
12
-0.048492
22
-0.026996
32
0.028004
13
-0.027996
23
-0.026996
33
-0.048496
0
3DFACE
8
default
62
30
10
-0.027996
20
-0.026996
30
-0.048496
11
-0.048492
21
-0.026996
31
0.028004
12
-0.027996
22
-0.026996
32
0.048500
13
-0.027996
23
-0.026996
33
-0.048496
0
3DFACE
8
default
62
30
10
-0.027996
20
-0.026996
30
-0.048496
11
-0.027996
21
-0.026996
31
0.048500
12
0.000000
22
-0.026996
32
0.056000
13
-0.027996
23
-0.026996
33
-0.048496
0
3DFACE
8
default
62
30
10
-0.027996
20
-0.026996
30
-0.048496
11
0.000000
21
-0.026996
31
0.056000
12
0.027996
22
-0.026996
32
0.048500
13
-0.027996
23
-0.026996
33
-0.048496
0
3DFACE
8
default
62
30
10
-0.027996
20
-0.026996
30
-0.048496
11
0.027996
21
-0.026996
31
0.048500
12
0.048492
22
-0.026996
32
0.028004
13
-0.027996
23
-0.026996
33
-0.048496
0
3DFACE
8
default
62
30
10
-0.027996
20
-0.026996
30
-0.048496
11
0.048492
21
-0.026996
31
0.028004
12
0.056004
22
-0.026996
32
-0.000004
13
-0.027996
23
-0.026996
33
-0.048496
0
3DFACE
8
default
62
30
10
-0.027996
20
-0.026996
30
-0.048496
11
0.056004
21
-0.026996
31
-0.000004
12
0.048492
22
-0.026996
32
-0.028000
13
-0.027996
23
-0.026996
33
-0.048496
0
3DFACE
8
default
62
30
10
-0.027996
20
-0.026996
30
-0.048496
11
0.048492
21
-0.026996
31
-0.028000
12
0.027996
22
-0.026996
32
-0.048496
13
-0.027996
23
-0.026996
33
-0.048496
0
3DFACE
8
default
62
30
10
-0.027996
20
-0.026996
30
-0.048496
11
0.027996
21
-0.026996
31
-0.048496
12
0.000000
22
-0.026996
32
-0.055996
13
-0.027996
23
-0.026996
33
-0.048496
0
3DFACE
8
default
62
30
10
0.027000
20
-0.026996
30
-0.046768
11
0.046764
21
-0.026996
31
-0.027004
12
0.054000
22
-0.026996
32
-0.000004
13
0.027000
23
-0.026996
33
-0.046768
0
3DFACE
8
default
62
30
10
0.027000
20
-0.026996
30
-0.046768
11
0.054000
21
-0.026996
31
-0.000004
12
0.046764
22
-0.026996
32
0.026996
13
0.027000
23
-0.026996
33
-0.046768
0
3DFACE
8
default
62
30
10
0.027000
20
-0.026996
30
-0.046768
11
0.046764
21
-0.026996
31
0.026996
12
0.027000
22
-0.026996
32
0.046760
13
0.027000
23
-0.026996
33
-0.046768
0
3DFACE
8
default
62
30
10
0.027000
20
-0.026996
30
-0.046768
11
0.027000
21
-0.026996
31
0.046760
12
0.000000
22
-0.026996
32
0.053996
13
0.027000
23
-0.026996
33
-0.046768
0
3DFACE
8
default
62
30
10
0.027000
20
-0.026996
30
-0.046768
11
0.000000
21
-0.026996
31
0.053996
12
-0.027000
22
-0.026996
32
0.046760
13
0.027000
23
-0.026996
33
-0.046768
0
3DFACE
8
default
62
30
10
0.027000
20
-0.026996
30
-0.046768
11
-0.027000
21
-0.026996
31
0.046760
12
-0.046764
22
-0.026996
32
0.026996
13
0.027000
23
-0.026996
33
-0.046768
0
3DFACE
8
default
62
30
10
0.027000
20
-0.026996
30
-0.046768
11
-0.046764
21
-0.026996
31
0.026996
12
-0.054000
22
-0.026996
32
-0.000004
13
0.027000
23
-0.026996
33
-0.046768
0
3DFACE
8
default
62
30
10
0.027000
20
-0.026996
30
-0.046768
11
-0.054000
21
-0.026996
31
-0.000004
12
-0.046764
22
-0.026996
32
-0.027004
13
0.027000
23
-0.026996
33
-0.046768
0
3DFACE
8
default
62
30
10
0.027000
20
-0.026996
30
-0.046768
11
-0.046764
21
-0.026996
31
-0.027004
12
-0.027000
22
-0.026996
32
-0.046768
13
0.027000
23
-0.026996
33
-0.046768
0
3DFACE
8
default
62
30
10
0.027000
20
-0.026996
30
-0.046768
11
-0.027000
21
-0.026996
31
-0.046768
12
0.000000
22
-0.026996
32
-0.054004
13
0.027000
23
-0.026996
33
-0.046768
0
3DFACE
8
default
62
30
10
0.027996
20
-0.052004
30
-0.048496
11
0.048492
21
-0.052004
31
-0.028000
12
0.056004
22
-0.052004
32
-0.000004
13
0.027996
23
-0.052004
33
-0.048496
0
3DFACE
8
default
62
30
10
0.027996
20
-0.052004
30
-0.048496
11
0.056004
21
-0.052004
31
-0.000004
12
0.048492
22
-0.052004
32
0.028004
13
0.027996
23
-0.052004
33
-0.048496
0
3DFACE
8
default
62
30
10
0.027996
20
-0.052004
30
-0.048496
11
0.048492
21
-0.052004
31
0.028004
12
0.027996
22
-0.052004
32
0.048500
13
0.027996
23
-0.052004
33
-0.048496
0
3DFACE
8
default
62
30
10
0.027996
20
-0.052004
30
-0.048496
11
0.027996
21
-0.052004
31
0.048500
12
0.000000
22
-0.052004
32
0.056000
13
0.027996
23
-0.052004
33
-0.048496
0
3DFACE
8
default
62
30
10
0.027996
20
-0.052004
30
-0.048496
11
0.000000
21
-0.052004
31
0.056000
12
-0.027996
22
-0.052004
32
0.048500
13
0.027996
23
-0.052004
33
-0.048496
0
3DFACE
8
default
62
30
10
0.027996
20
-0.052004
30
-0.048496
11
-0.027996
21
-0.052004
31
0.048500
12
-0.048492
22
-0.052004
32
0.028004
13
0.027996
23
-0.052004
33
-0.048496
0
3DFACE
8
default
62
30
10
0.027996
20
-0.052004
30
-0.048496
11
-0.048492
21
-0.052004
31
0.028004
12
-0.056004
22
-0.052004
32
-0.000004
13
0.027996
23
-0.052004
33
-0.048496
0
3DFACE
8
default
62
30
10
0.027996
20
-0.052004
30
-0.048496
11
-0.056004
21
-0.052004
31
-0.000004
12
-0.048492
22
-0.052004
32
-0.028000
13
0.027996
23
-0.052004
33
-0.048496
0
3DFACE
8
default
62
30
10
0.027996
20
-0.052004
30
-0.048496
11
-0.048492
21
-0.052004
31
-0.028000
12
-0.027996
22
-0.052004
32
-0.048496
13
0.027996
23
-0.052004
33
-0.048496
0
3DFACE
8
default
62
30
10
0.027996
20
-0.052004
30
-0.048496
11
-0.027996
21
-0.052004
31
-0.048496
12
0.000000
22
-0.052004
32
-0.055996
13
0.027996
23
-0.052004
33
-0.048496
0
3DFACE
8
default
62
30
10
0.027996
20
-0.052004
30
-0.048496
11
0.000000
21
-0.052004
31
-0.055996
12
0.000000
22
-0.026996
32
-0.055996
13
0.027996
23
-0.052004
33
-0.048496
0
3DFACE
8
default
62
30
10
0.027996
20
-0.052004
30
-0.048496
11
0.000000
21
-0.026996
31
-0.055996
12
0.027996
22
-0.026996
32
-0.048496
13
0.027996
23
-0.052004
33
-0.048496
0
3DFACE
8
default
62
30
10
0.048492
20
-0.052004
30
-0.028000
11
0.027996
21
-0.052004
31
-0.048496
12
0.027996
22
-0.026996
32
-0.048496
13
0.048492
23
-0.052004
33
-0.028000
0
3DFACE
8
default
62
30
10
0.048492
20
-0.052004
30
-0.028000
11
0.027996
21
-0.026996
31
-0.048496
12
0.048492
22
-0.026996
32
-0.028000
13
0.048492
23
-0.052004
33
-0.028000
0
3DFACE
8
default
62
30
10
0.056004
20
-0.052004
30
-0.000004
11
0.048492
21
-0.052004
31
-0.028000
12
0.048492
22
-0.026996
32
-0.028000
13
0.056004
23
-0.052004
33
-0.000004
0
3DFACE
8
default
62
30
10
0.056004
20
-0.052004
30
-0.000004
11
0.048492
21
-0.026996
31
-0.028000
12
0.056004
22
-0.026996
32
-0.000004
13
0.056004
23
-0.052004
33
-0.000004
0
3DFACE
8
default
62
30
10
0.048492
20
-0.052004
30
0.028004
11
0.056004
21
-0.052004
31
-0.000004
12
0.056004
22
-0.026996
32
-0.000004
13
0.048492
23
-0.052004
33
0.028004
0
3DFACE
8
default
62
30
10
0.048492
20
-0.052004
30
0.028004
11
0.056004
21
-0.026996
31
-0.000004
12
0.048492
22
-0.026996
32
0.028004
13
0.048492
23
-0.052004
33
0.028004
0
3DFACE
8
default
62
30
10
0.027996
20
-0.052004
30
0.048500
11
0.048492
21
-0.052004
31
0.028004
12
0.048492
22
-0.026996
32
0.028004
13
0.027996
23
-0.052004
33
0.048500
0
3DFACE
8
default
62
30
10
0.027996
20
-0.052004
30
0.048500
11
0.048492
21
-0.026996
31
0.028004
12
0.027996
22
-0.026996
32
0.048500
13
0.027996
23
-0.052004
33
0.048500
0
3DFACE
8
default
62
30
10
0.000000
20
-0.052004
30
0.056000
11
0.027996
21
-0.052004
31
0.048500
12
0.027996
22
-0.026996
32
0.048500
13
0.000000
23
-0.052004
33
0.056000
0
3DFACE
8
default
62
30
10
0.000000
20
-0.052004
30
0.056000
11
0.027996
21
-0.026996
31
0.048500
12
0.000000
22
-0.026996
32
0.056000
13
0.000000
23
-0.052004
33
0.056000
0
3DFACE
8
default
62
30
10
-0.027996
20
-0.052004
30
0.048500
11
0.000000
21
-0.052004
31
0.056000
12
0.000000
22
-0.026996
32
0.056000
13
-0.027996
23
-0.052004
33
0.048500
0
3DFACE
8
default
62
30
10
-0.027996
20
-0.052004
30
0.048500
11
0.000000
21
-0.026996
31
0.056000
12
-0.027996
22
-0.026996
32
0.048500
13
-0.027996
23
-0.052004
33
0.048500
0
3DFACE
8
default
62
30
10
-0.048492
20
-0.052004
30
0.028004
11
-0.027996
21
-0.052004
31
0.048500
12
-0.027996
22
-0.026996
32
0.048500
13
-0.048492
23
-0.052004
33
0.028004
0
3DFACE
8
default
62
30
10
-0.048492
20
-0.052004
30
0.028004
11
-0.027996
21
-0.026996
31
0.048500
12
-0.048492
22
-0.026996
32
0.028004
13
-0.048492
23
-0.052004
33
0.028004
0
3DFACE
8
default
62
30
10
-0.056004
20
-0.052004
30
-0.000004
11
-0.048492
21
-0.052004
31
0.028004
12
-0.048492
22
-0.026996
32
0.028004
13
-0.056004
23
-0.052004
33
-0.000004
0
3DFACE
8
default
62
30
10
-0.056004
20
-0.052004
30
-0.000004
11
-0.048492
21
-0.026996
31
0.028004
12
-0.056004
22
-0.026996
32
-0.000004
13
-0.056004
23
-0.052004
33
-0.000004
0
3DFACE
8
default
62
30
10
-0.048492
20
-0.052004
30
-0.028000
11
-0.056004
21
-0.052004
31
-0.000004
12
-0.056004
22
-0.026996
32
-0.000004
13
-0.048492
23
-0.052004
33
-0.028000
0
3DFACE
8
default
62
30
10
-0.048492
20
-0.052004
30
-0.028000
11
-0.056004
21
-0.026996
31
-0.000004
12
-0.048492
22
-0.026996
32
-0.028000
13
-0.048492
23
-0.052004
33
-0.028000
0
3DFACE
8
default
62
30
10
-0.027996
20
-0.052004
30
-0.048496
11
-0.048492
21
-0.052004
31
-0.028000
12
-0.048492
22
-0.026996
32
-0.028000
13
-0.027996
23
-0.052004
33
-0.048496
0
3DFACE
8
default
62
30
10
-0.027996
20
-0.052004
30
-0.048496
11
-0.048492
21
-0.026996
31
-0.028000
12
-0.027996
22
-0.026996
32
-0.048496
13
-0.027996
23
-0.052004
33
-0.048496
0
3DFACE
8
default
62
30
10
0.000000
20
-0.052004
30
-0.055996
11
-0.027996
21
-0.052004
31
-0.048496
12
-0.027996
22
-0.026996
32
-0.048496
13
0.000000
23
-0.052004
33
-0.055996
0
3DFACE
8
default
62
30
10
0.000000
20
-0.052004
30
-0.055996
11
-0.027996
21
-0.026996
31
-0.048496
12
0.000000
22
-0.026996
32
-0.055996
13
0.000000
23
-0.052004
33
-0.055996
0
3DFACE
8
default
62
30
10
0.023004
20
0.055000
30
-0.039832
11
0.022392
21
0.055000
31
-0.040000
12
0.063000
22
0.055000
32
-0.040000
13
0.023004
23
0.055000
33
-0.039832
0
3DFACE
8
default
62
30
10
0.054996
20
0.121000
30
-0.040000
11
0.054996
21
0.201004
31
-0.040000
12
0.071448
22
0.201004
32
-0.040000
13
0.054996
23
0.121000
33
-0.040000
0
3DFACE
8
default
62
30
10
-0.046764
20
0.010996
30
0.026996
11
-0.033768
21
0.010996
31
0.040004
12
-0.054996
22
0.010996
32
0.040004
13
-0.046764
23
0.010996
33
0.026996
0
3DFACE
8
default
62
30
10
-0.024996
20
0.121000
30
0.040004
11
-0.024996
21
0.201004
31
0.040004
12
-0.065448
22
0.201004
32
0.040004
13
-0.024996
23
0.121000
33
0.040004
0
3DFACE
8
default
62
30
10
0.022392
20
0.010996
30
0.040004
11
-0.033768
21
0.010996
31
0.040004
12
-0.027000
22
0.010996
32
0.046760
13
0.022392
23
0.010996
33
0.040004
0
3DFACE
8
default
62
30
10
0.039840
20
0.055000
30
-0.022996
11
0.023004
21
0.055000
31
-0.039832
12
0.063000
22
0.055000
32
-0.040000
13
0.039840
23
0.055000
33
-0.022996
0
3DFACE
8
default
62
30
10
0.022392
20
0.055000
30
-0.040000
11
0.022392
21
0.010996
31
-0.040000
12
-0.033768
22
0.010996
32
-0.040000
13
0.022392
23
0.055000
33
-0.040000
0
3DFACE
8
default
62
30
10
-0.054000
20
0.010996
30
-0.000004
11
-0.046764
21
0.010996
31
0.026996
12
-0.054996
22
0.010996
32
0.040004
13
-0.054000
23
0.010996
33
-0.000004
0
3DFACE
8
default
62
30
10
0.022392
20
0.055000
30
0.040004
11
0.063000
21
0.055000
31
0.040004
12
0.071448
22
0.082900
32
0.040004
13
0.022392
23
0.055000
33
0.040004
0
3DFACE
8
default
62
30
10
0.022392
20
0.010996
30
0.040004
11
-0.027000
21
0.010996
31
0.046760
12
0.000000
22
0.010996
32
0.053996
13
0.022392
23
0.010996
33
0.040004
0
3DFACE
8
default
62
30
10
0.045996
20
0.055000
30
-0.000004
11
0.039840
21
0.055000
31
-0.022996
12
0.063000
22
0.055000
32
-0.040000
13
0.045996
23
0.055000
33
-0.000004
0
3DFACE
8
default
62
30
10
0.054996
20
0.121000
30
-0.040000
11
0.071448
21
0.201004
31
-0.040000
12
0.071448
22
0.082900
32
-0.040000
13
0.054996
23
0.121000
33
-0.040000
0
3DFACE
8
default
62
30
10
-0.054000
20
0.010996
30
-0.000004
11
-0.054996
21
0.010996
31
0.040004
12
-0.054996
22
0.010996
32
-0.040000
13
-0.054000
23
0.010996
33
-0.000004
0
3DFACE
8
default
62
30
10
-0.024996
20
0.121000
30
0.040004
11
-0.065448
21
0.201004
31
0.040004
12
-0.065448
22
0.044260
32
0.040004
13
-0.024996
23
0.121000
33
0.040004
0
3DFACE
8
default
62
30
10
0.023004
20
0.010996
30
0.039836
11
0.022392
21
0.010996
31
0.040004
12
0.000000
22
0.010996
32
0.053996
13
0.023004
23
0.010996
33
0.039836
0
3DFACE
8
default
62
30
10
0.039840
20
0.055000
30
0.023000
11
0.045996
21
0.055000
31
-0.000004
12
0.063000
22
0.055000
32
-0.040000
13
0.039840
23
0.055000
33
0.023000
0
3DFACE
8
default
62
30
10
0.022392
20
0.055000
30
-0.040000
11
-0.033768
21
0.010996
31
-0.040000
12
-0.054996
22
0.010996
32
-0.040000
13
0.022392
23
0.055000
33
-0.040000
0
3DFACE
8
default
62
30
10
-0.054996
20
0.010996
30
-0.040000
11
-0.033768
21
0.010996
31
-0.040000
12
-0.046764
22
0.010996
32
-0.027004
13
-0.054996
23
0.010996
33
-0.040000
0
3DFACE
8
default
62
30
10
-0.046764
20
0.010996
30
-0.027004
11
-0.054000
21
0.010996
31
-0.000004
12
-0.054996
22
0.010996
32
-0.040000
13
-0.046764
23
0.010996
33
-0.027004
0
3DFACE
8
default
62
30
10
0.023004
20
0.010996
30
0.039836
11
0.000000
21
0.010996
31
0.053996
12
0.027000
22
0.010996
32
0.046760
13
0.023004
23
0.010996
33
0.039836
0
3DFACE
8
default
62
30
10
0.039840
20
0.055000
30
0.023000
11
0.063000
21
0.055000
31
-0.040000
12
0.063000
22
0.055000
32
0.040004
13
0.039840
23
0.055000
33
0.023000
0
3DFACE
8
default
62
30
10
-0.024996
20
0.121000
30
-0.040000
11
0.054996
21
0.121000
31
-0.040000
12
0.071448
22
0.082900
32
-0.040000
13
-0.024996
23
0.121000
33
-0.040000
0
3DFACE
8
default
62
30
10
0.071448
20
0.082900
30
0.040004
11
0.071448
21
0.201004
31
0.040004
12
0.054996
22
0.201004
32
0.040004
13
0.071448
23
0.082900
33
0.040004
0
3DFACE
8
default
62
30
10
0.071448
20
0.082900
30
0.040004
11
0.054996
21
0.201004
31
0.040004
12
0.054996
22
0.121000
32
0.040004
13
0.071448
23
0.082900
33
0.040004
0
3DFACE
8
default
62
30
10
0.054996
20
0.121000
30
0.040004
11
0.022392
21
0.055000
31
0.040004
12
0.071448
22
0.082900
32
0.040004
13
0.054996
23
0.121000
33
0.040004
0
3DFACE
8
default
62
30
10
-0.024996
20
0.121000
30
0.040004
11
-0.065448
21
0.044260
31
0.040004
12
-0.054996
22
0.010996
32
0.040004
13
-0.024996
23
0.121000
33
0.040004
0
3DFACE
8
default
62
30
10
-0.024996
20
0.121000
30
0.040004
11
-0.054996
21
0.010996
31
0.040004
12
-0.033768
22
0.010996
32
0.040004
13
-0.024996
23
0.121000
33
0.040004
0
3DFACE
8
default
62
30
10
-0.024996
20
0.121000
30
0.040004
11
-0.033768
21
0.010996
31
0.040004
12
0.022392
22
0.010996
32
0.040004
13
-0.024996
23
0.121000
33
0.040004
0
3DFACE
8
default
62
30
10
-0.024996
20
0.121000
30
0.040004
11
0.022392
21
0.010996
31
0.040004
12
0.022392
22
0.055000
32
0.040004
13
-0.024996
23
0.121000
33
0.040004
0
3DFACE
8
default
62
30
10
0.022392
20
0.055000
30
0.040004
11
0.054996
21
0.121000
31
0.040004
12
-0.024996
22
0.121000
32
0.040004
13
0.022392
23
0.055000
33
0.040004
0
3DFACE
8
default
62
30
10
0.039840
20
0.010996
30
0.023000
11
0.023004
21
0.010996
31
0.039836
12
0.027000
22
0.010996
32
0.046760
13
0.039840
23
0.010996
33
0.023000
0
3DFACE
8
default
62
30
10
0.063000
20
0.055000
30
0.040004
11
0.022392
21
0.055000
31
0.040004
12
0.023004
22
0.055000
32
0.039836
13
0.063000
23
0.055000
33
0.040004
0
3DFACE
8
default
62
30
10
0.023004
20
0.055000
30
0.039836
11
0.039840
21
0.055000
31
0.023000
12
0.063000
22
0.055000
32
0.040004
13
0.023004
23
0.055000
33
0.039836
0
3DFACE
8
default
62
30
10
0.022392
20
0.055000
30
-0.040000
11
-0.054996
21
0.010996
31
-0.040000
12
-0.065448
22
0.044260
32
-0.040000
13
0.022392
23
0.055000
33
-0.040000
0
3DFACE
8
default
62
30
10
0.039840
20
0.010996
30
0.023000
11
0.027000
21
0.010996
31
0.046760
12
0.046764
22
0.010996
32
0.026996
13
0.039840
23
0.010996
33
0.023000
0
3DFACE
8
default
62
30
10
-0.024996
20
0.121000
30
-0.040000
11
0.071448
21
0.082900
31
-0.040000
12
0.063000
22
0.055000
32
-0.040000
13
-0.024996
23
0.121000
33
-0.040000
0
3DFACE
8
default
62
30
10
0.045996
20
0.010996
30
-0.000004
11
0.039840
21
0.010996
31
0.023000
12
0.046764
22
0.010996
32
0.026996
13
0.045996
23
0.010996
33
-0.000004
0
3DFACE
8
default
62
30
10
-0.024996
20
0.121000
30
-0.040000
11
0.063000
21
0.055000
31
-0.040000
12
0.022392
22
0.055000
32
-0.040000
13
-0.024996
23
0.121000
33
-0.040000
0
3DFACE
8
default
62
30
10
0.045996
20
0.010996
30
-0.000004
11
0.046764
21
0.010996
31
0.026996
12
0.054000
22
0.010996
32
-0.000004
13
0.045996
23
0.010996
33
-0.000004
0
3DFACE
8
default
62
30
10
-0.065448
20
0.044260
30
-0.040000
11
-0.065448
21
0.201004
31
-0.040000
12
-0.024996
22
0.201004
32
-0.040000
13
-0.065448
23
0.044260
33
-0.040000
0
3DFACE
8
default
62
30
10
-0.065448
20
0.044260
30
-0.040000
11
-0.024996
21
0.201004
31
-0.040000
12
-0.024996
22
0.121000
32
-0.040000
13
-0.065448
23
0.044260
33
-0.040000
0
3DFACE
8
default
62
30
10
-0.024996
20
0.121000
30
-0.040000
11
0.022392
21
0.055000
31
-0.040000
12
-0.065448
22
0.044260
32
-0.040000
13
-0.024996
23
0.121000
33
-0.040000
0
3DFACE
8
default
62
30
10
0.039840
20
0.010996
30
-0.022996
11
0.045996
21
0.010996
31
-0.000004
12
0.054000
22
0.010996
32
-0.000004
13
0.039840
23
0.010996
33
-0.022996
0
3DFACE
8
default
62
30
10
0.039840
20
0.010996
30
-0.022996
11
0.054000
21
0.010996
31
-0.000004
12
0.046764
22
0.010996
32
-0.027004
13
0.039840
23
0.010996
33
-0.022996
0
3DFACE
8
default
62
30
10
0.023004
20
0.010996
30
-0.039832
11
0.039840
21
0.010996
31
-0.022996
12
0.046764
22
0.010996
32
-0.027004
13
0.023004
23
0.010996
33
-0.039832
0
3DFACE
8
default
62
30
10
0.023004
20
0.010996
30
-0.039832
11
0.046764
21
0.010996
31
-0.027004
12
0.027000
22
0.010996
32
-0.046768
13
0.023004
23
0.010996
33
-0.039832
0
3DFACE
8
default
62
30
10
0.027000
20
0.010996
30
-0.046768
11
0.000000
21
0.010996
31
-0.054004
12
-0.027000
22
0.010996
32
-0.046768
13
0.027000
23
0.010996
33
-0.046768
0
3DFACE
8
default
62
30
10
0.027000
20
0.010996
30
-0.046768
11
-0.027000
21
0.010996
31
-0.046768
12
-0.033768
22
0.010996
32
-0.040000
13
0.027000
23
0.010996
33
-0.046768
0
3DFACE
8
default
62
30
10
0.027000
20
0.010996
30
-0.046768
11
-0.033768
21
0.010996
31
-0.040000
12
0.022392
22
0.010996
32
-0.040000
13
0.027000
23
0.010996
33
-0.046768
0
3DFACE
8
default
62
30
10
0.022392
20
0.010996
30
-0.040000
11
0.023004
21
0.010996
31
-0.039832
12
0.027000
22
0.010996
32
-0.046768
13
0.022392
23
0.010996
33
-0.040000
0
ENDSEC
0
EOF
