<svg width="283" height="207" xmlns="http://www.w3.org/2000/svg" xmlns:xlink="http://www.w3.org/1999/xlink">
	<g id="ObsoleteModelica3.Mechanics.MultiBody.Joints.Internal.PrismaticWithLengthConstraint" class="component">
		<polygon points="39.5,205.5 243.5,205.5 243.5,1.5 39.5,1.5" fill-opacity="0" stroke="#FF0000" stroke-dasharray="3 4" stroke-width="1.0" stroke-linecap="round" stroke-linejoin="round" />
		<polygon points="111.5,143.5 241.5,143.5 241.5,73.5 111.5,73.5" fill="#C0C0C0" stroke-opacity="0" stroke-width="1.0" stroke-linecap="round" stroke-linejoin="round" />
		<polygon points="111.5,143.5 241.5,143.5 241.5,63.5 111.5,63.5" fill-opacity="0" stroke="#000000" stroke-width="1.0" stroke-linecap="round" stroke-linejoin="round" />
		<polygon points="41.5,163.5 111.5,163.5 111.5,53.5 41.5,53.5" fill="#C0C0C0" stroke-opacity="0" stroke-width="1.0" stroke-linecap="round" stroke-linejoin="round" />
		<polygon points="41.5,53.5 111.5,53.5 111.5,43.5 41.5,43.5" fill="#000000" stroke-opacity="0" stroke-width="1.0" stroke-linecap="round" stroke-linejoin="round" />
		<polygon points="111.5,73.5 241.5,73.5 241.5,63.5 111.5,63.5" fill="#000000" stroke-opacity="0" stroke-width="1.0" stroke-linecap="round" stroke-linejoin="round" />
		<polygon points="41.5,163.5 111.5,163.5 111.5,43.5 41.5,43.5" fill-opacity="0" stroke="#000000" stroke-width="1.0" stroke-linecap="round" stroke-linejoin="round" />
		<polyline points="241.5,143.5 241.5,163.5" fill-opacity="0" stroke="#000000" stroke-width="1.0" stroke-linecap="round" stroke-linejoin="round" />
		<polygon points="231.5,63.5 241.5,63.5 241.5,23.5 231.5,23.5" fill="#C0C0C0" stroke="#000000" stroke-width="1.0" stroke-linecap="round" stroke-linejoin="round" />
		<g id="frame_a" class="port">
			<polygon points="39.9,105.1 43.1,105.1 43.1,101.9 39.9,101.9" fill-opacity="0" stroke="#5F5F5F" stroke-width="1.0" stroke-linecap="round" stroke-linejoin="round" />
			<polygon points="36.7,119.5 46.3,119.5 46.3,87.5 36.7,87.5" fill="#C0C0C0" stroke="#000000" stroke-width="1.0" stroke-linecap="round" stroke-linejoin="round" />
		</g>
		<g id="frame_b" class="port">
			<polygon points="239.9,105.1 243.1,105.1 243.1,101.9 239.9,101.9" fill-opacity="0" stroke="#5F5F5F" stroke-width="1.0" stroke-linecap="round" stroke-linejoin="round" />
			<polygon points="236.7,119.5 246.3,119.5 246.3,87.5 236.7,87.5" fill="#FFFFFF" stroke="#000000" stroke-width="1.0" stroke-linecap="round" stroke-linejoin="round" />
		</g>
		<g id="axis" class="port">
			<polygon points="211.5,23.5 231.5,23.5 231.5,43.5 211.5,43.5" fill="#007F00" stroke="#007F00" stroke-width="1.0" stroke-linecap="round" stroke-linejoin="round" />
		</g>
		<g id="bearing" class="port">
			<polygon points="111.5,23.5 91.5,23.5 91.5,43.5 111.5,43.5" fill="#FFFFFF" stroke="#007F00" stroke-width="1.0" stroke-linecap="round" stroke-linejoin="round" />
		</g>
		<g id="position_a" class="port">
			<polygon points="1.5,143.5 41.5,163.5 1.5,183.5" fill="#00007F" stroke="#00007F" stroke-width="1.0" stroke-linecap="round" stroke-linejoin="round" />
		</g>
		<g id="position_b" class="port">
			<polygon points="281.5,143.5 241.5,163.5 281.5,183.5" fill="#00007F" stroke="#00007F" stroke-width="1.0" stroke-linecap="round" stroke-linejoin="round" />
		</g>
	</g>
</svg>
