<svg width="223" height="225" xmlns="http://www.w3.org/2000/svg" xmlns:xlink="http://www.w3.org/1999/xlink">
	<g id="ObsoleteModelica3.Mechanics.Rotational.Interfaces.RelativeSensor" class="component">
		<polygon points="181.5,103.5 181.2,97.5 180.5,91.5 179.2,85.6 177.4,79.9 175.1,74.3 172.4,68.9 169.2,63.8 165.5,59.0 161.5,54.5 157.1,50.4 152.4,46.7 147.4,43.4 142.1,40.5 136.5,38.1 130.8,36.2 125.0,34.8 119.0,33.9 113.0,33.5 107.0,33.6 101.0,34.3 95.1,35.5 89.3,37.1 83.7,39.3 78.2,41.9 73.1,45.0 68.2,48.5 63.6,52.4 59.4,56.7 55.6,61.4 52.2,66.3 49.2,71.6 46.7,77.1 44.6,82.7 43.1,88.6 42.1,94.5 41.6,100.5 41.6,106.5 42.1,112.5 43.1,118.4 44.6,124.3 46.7,129.9 49.2,135.4 52.2,140.7 55.6,145.6 59.4,150.3 63.6,154.6 68.2,158.5 73.1,162.0 78.2,165.1 83.7,167.7 89.3,169.9 95.1,171.5 101.0,172.7 107.0,173.4 113.0,173.5 119.0,173.1 125.0,172.2 130.8,170.8 136.5,168.9 142.1,166.5 147.4,163.6 152.4,160.3 157.1,156.6 161.5,152.5 165.5,148.0 169.2,143.2 172.4,138.1 175.1,132.7 177.4,127.1 179.2,121.4 180.5,115.5 181.2,109.5" fill="#F5F5F5" stroke="#000000" stroke-width="1.0" stroke-linecap="round" stroke-linejoin="round" />
		<polyline points="111.5,33.5 111.5,63.5" fill-opacity="0" stroke="#000000" stroke-width="1.0" stroke-linecap="round" stroke-linejoin="round" />
		<polyline points="134.4,70.7 151.7,46.2" fill-opacity="0" stroke="#000000" stroke-width="1.0" stroke-linecap="round" stroke-linejoin="round" />
		<polyline points="88.6,70.7 71.3,46.2" fill-opacity="0" stroke="#000000" stroke-width="1.0" stroke-linecap="round" stroke-linejoin="round" />
		<polyline points="149.1,89.8 177.3,79.6" fill-opacity="0" stroke="#000000" stroke-width="1.0" stroke-linecap="round" stroke-linejoin="round" />
		<polyline points="73.9,89.8 45.7,79.6" fill-opacity="0" stroke="#000000" stroke-width="1.0" stroke-linecap="round" stroke-linejoin="round" />
		<polygon points="123.5,103.5 123.4,102.5 123.3,101.4 123.1,100.4 122.8,99.4 122.4,98.5 121.9,97.6 121.4,96.7 120.8,95.9 120.1,95.1 119.3,94.4 118.5,93.8 117.6,93.2 116.7,92.7 115.8,92.3 114.8,92.0 113.8,91.7 112.8,91.6 111.7,91.5 110.7,91.5 109.7,91.6 108.7,91.8 107.7,92.1 106.7,92.5 105.8,92.9 104.9,93.5 104.1,94.1 103.3,94.7 102.6,95.5 101.9,96.3 101.3,97.1 100.8,98.0 100.4,99.0 100.0,99.9 99.8,100.9 99.6,102.0 99.5,103.0 99.5,104.0 99.6,105.0 99.8,106.1 100.0,107.1 100.4,108.0 100.8,109.0 101.3,109.9 101.9,110.7 102.6,111.5 103.3,112.3 104.1,112.9 104.9,113.5 105.8,114.1 106.7,114.5 107.7,114.9 108.7,115.2 109.7,115.4 110.7,115.5 111.7,115.5 112.8,115.4 113.8,115.3 114.8,115.0 115.8,114.7 116.7,114.3 117.6,113.8 118.5,113.2 119.3,112.6 120.1,111.9 120.8,111.1 121.4,110.3 121.9,109.4 122.4,108.5 122.8,107.6 123.1,106.6 123.3,105.6 123.4,104.5" fill-opacity="0" stroke="#404040" stroke-width="1.0" stroke-linecap="round" stroke-linejoin="round" />
		<polygon points="106.7,102.0 127.6,45.7 131.0,41.5 131.4,46.9 116.3,105.0" fill="#404040" stroke-opacity="0" stroke-width="1.0" stroke-linecap="round" stroke-linejoin="round" />
		<polygon points="118.5,103.5 118.5,102.9 118.4,102.3 118.3,101.7 118.1,101.1 117.9,100.6 117.6,100.0 117.3,99.5 116.9,99.1 116.5,98.6 116.1,98.2 115.6,97.8 115.1,97.5 114.5,97.2 114.0,97.0 113.4,96.8 112.8,96.6 112.2,96.5 111.6,96.5 111.0,96.5 110.4,96.6 109.8,96.7 109.3,96.9 108.7,97.1 108.2,97.3 107.6,97.6 107.2,98.0 106.7,98.4 106.3,98.8 105.9,99.3 105.6,99.8 105.3,100.3 105.0,100.9 104.8,101.4 104.7,102.0 104.5,102.6 104.5,103.2 104.5,103.8 104.5,104.4 104.7,105.0 104.8,105.6 105.0,106.1 105.3,106.7 105.6,107.2 105.9,107.7 106.3,108.2 106.7,108.6 107.2,109.0 107.6,109.4 108.2,109.7 108.7,109.9 109.3,110.1 109.8,110.3 110.4,110.4 111.0,110.5 111.6,110.5 112.2,110.5 112.8,110.4 113.4,110.2 114.0,110.0 114.5,109.8 115.1,109.5 115.6,109.2 116.1,108.8 116.5,108.4 116.9,107.9 117.3,107.5 117.6,107.0 117.9,106.4 118.1,105.9 118.3,105.3 118.4,104.7 118.5,104.1" fill="#404040" stroke-opacity="0" stroke-width="1.0" stroke-linecap="round" stroke-linejoin="round" />
		<polygon points="9.5,205.5 213.5,205.5 213.5,1.5 9.5,1.5" fill-opacity="0" stroke="#FF0000" stroke-dasharray="3 4" stroke-width="1.0" stroke-linecap="round" stroke-linejoin="round" />
		<polyline points="41.5,103.5 21.5,103.5" fill-opacity="0" stroke="#000000" stroke-width="1.0" stroke-linecap="round" stroke-linejoin="round" />
		<polyline points="181.5,103.5 201.5,103.5" fill-opacity="0" stroke="#000000" stroke-width="1.0" stroke-linecap="round" stroke-linejoin="round" />
		<polyline points="111.5,203.5 111.5,173.5" fill-opacity="0" stroke="#00007F" stroke-width="1.0" stroke-linecap="round" stroke-linejoin="round" />
		<g id="flange_a" class="port">
			<polygon points="21.5,103.5 21.5,102.6 21.3,101.8 21.2,100.9 20.9,100.1 20.6,99.3 20.2,98.6 19.7,97.8 19.2,97.1 18.6,96.5 18.0,95.9 17.3,95.4 16.6,94.9 15.9,94.5 15.1,94.2 14.3,93.9 13.4,93.7 12.6,93.6 11.7,93.5 10.8,93.5 10.0,93.6 9.1,93.8 8.3,94.0 7.5,94.3 6.7,94.7 6.0,95.1 5.3,95.6 4.7,96.2 4.0,96.8 3.5,97.5 3.0,98.2 2.6,98.9 2.2,99.7 1.9,100.5 1.7,101.4 1.6,102.2 1.5,103.1 1.5,103.9 1.6,104.8 1.7,105.6 1.9,106.5 2.2,107.3 2.6,108.1 3.0,108.8 3.5,109.5 4.0,110.2 4.7,110.8 5.3,111.4 6.0,111.9 6.7,112.3 7.5,112.7 8.3,113.0 9.1,113.2 10.0,113.4 10.8,113.5 11.7,113.5 12.6,113.4 13.4,113.3 14.3,113.1 15.1,112.8 15.9,112.5 16.6,112.1 17.3,111.6 18.0,111.1 18.6,110.5 19.2,109.9 19.7,109.2 20.2,108.4 20.6,107.7 20.9,106.9 21.2,106.1 21.3,105.2 21.5,104.4" fill="#5F5F5F" stroke="#000000" stroke-width="1.0" stroke-linecap="round" stroke-linejoin="round" />
		</g>
		<g id="flange_b" class="port">
			<polygon points="221.5,103.5 221.5,102.6 221.3,101.8 221.2,100.9 220.9,100.1 220.6,99.3 220.2,98.6 219.7,97.8 219.2,97.1 218.6,96.5 218.0,95.9 217.3,95.4 216.6,94.9 215.9,94.5 215.1,94.2 214.3,93.9 213.4,93.7 212.6,93.6 211.7,93.5 210.8,93.5 210.0,93.6 209.1,93.8 208.3,94.0 207.5,94.3 206.7,94.7 206.0,95.1 205.3,95.6 204.7,96.2 204.0,96.8 203.5,97.5 203.0,98.2 202.6,98.9 202.2,99.7 201.9,100.5 201.7,101.4 201.6,102.2 201.5,103.1 201.5,103.9 201.6,104.8 201.7,105.6 201.9,106.5 202.2,107.3 202.6,108.1 203.0,108.8 203.5,109.5 204.0,110.2 204.7,110.8 205.3,111.4 206.0,111.9 206.7,112.3 207.5,112.7 208.3,113.0 209.1,113.2 210.0,113.4 210.8,113.5 211.7,113.5 212.6,113.4 213.4,113.3 214.3,113.1 215.1,112.8 215.9,112.5 216.6,112.1 217.3,111.6 218.0,111.1 218.6,110.5 219.2,109.9 219.7,109.2 220.2,108.4 220.6,107.7 220.9,106.9 221.2,106.1 221.3,105.2 221.5,104.4" fill="#FFFFFF" stroke="#000000" stroke-width="1.0" stroke-linecap="round" stroke-linejoin="round" />
		</g>
		<g id="y" class="port">
			<polygon points="101.5,203.5 111.5,223.5 121.5,203.5" fill="#FFFFFF" stroke="#00007F" stroke-width="1.0" stroke-linecap="round" stroke-linejoin="round" />
		</g>
	</g>
</svg>
