<svg width="228" height="210" xmlns="http://www.w3.org/2000/svg" xmlns:xlink="http://www.w3.org/1999/xlink">
	<g id="ObsoleteModelica3.Mechanics.MultiBody.Sensors.AbsoluteSensor" class="component">
		<polygon points="176.3,106.3 176.0,100.3 175.3,94.3 174.0,88.4 172.2,82.7 169.9,77.1 167.2,71.7 164.0,66.6 160.4,61.8 156.3,57.3 151.9,53.2 147.2,49.5 142.2,46.2 136.9,43.3 131.3,40.9 125.6,39.0 119.8,37.6 113.8,36.7 107.8,36.3 101.8,36.4 95.8,37.1 89.9,38.3 84.1,39.9 78.5,42.1 73.1,44.7 67.9,47.8 63.0,51.3 58.4,55.2 54.2,59.5 50.4,64.2 47.0,69.1 44.0,74.4 41.5,79.9 39.5,85.5 37.9,91.4 36.9,97.3 36.4,103.3 36.4,109.3 36.9,115.3 37.9,121.2 39.5,127.1 41.5,132.7 44.0,138.2 47.0,143.5 50.4,148.4 54.2,153.1 58.4,157.4 63.0,161.3 67.9,164.8 73.1,167.9 78.5,170.5 84.1,172.7 89.9,174.3 95.8,175.5 101.8,176.2 107.8,176.3 113.8,175.9 119.8,175.0 125.6,173.6 131.3,171.7 136.9,169.3 142.2,166.4 147.2,163.1 151.9,159.4 156.3,155.3 160.4,150.8 164.0,146.0 167.2,140.9 169.9,135.5 172.2,129.9 174.0,124.2 175.3,118.3 176.0,112.3" fill="#F5F5F5" stroke="#000000" stroke-width="1.0" stroke-linecap="round" stroke-linejoin="round" />
		<polyline points="106.3,36.3 106.3,66.3" fill-opacity="0" stroke="#000000" stroke-width="1.0" stroke-linecap="round" stroke-linejoin="round" />
		<polyline points="129.2,73.5 146.5,49.0" fill-opacity="0" stroke="#000000" stroke-width="1.0" stroke-linecap="round" stroke-linejoin="round" />
		<polyline points="83.4,73.5 66.1,49.0" fill-opacity="0" stroke="#000000" stroke-width="1.0" stroke-linecap="round" stroke-linejoin="round" />
		<polyline points="143.9,92.6 172.1,82.4" fill-opacity="0" stroke="#000000" stroke-width="1.0" stroke-linecap="round" stroke-linejoin="round" />
		<polyline points="68.7,92.6 40.5,82.4" fill-opacity="0" stroke="#000000" stroke-width="1.0" stroke-linecap="round" stroke-linejoin="round" />
		<polygon points="118.3,106.3 118.3,105.3 118.1,104.2 117.9,103.2 117.6,102.2 117.2,101.3 116.7,100.4 116.2,99.5 115.6,98.7 114.9,97.9 114.1,97.2 113.3,96.6 112.4,96.0 111.5,95.5 110.6,95.1 109.6,94.8 108.6,94.5 107.6,94.4 106.6,94.3 105.5,94.3 104.5,94.4 103.5,94.6 102.5,94.9 101.5,95.3 100.6,95.7 99.7,96.3 98.9,96.9 98.1,97.5 97.4,98.3 96.7,99.1 96.1,99.9 95.6,100.8 95.2,101.8 94.8,102.7 94.6,103.7 94.4,104.8 94.3,105.8 94.3,106.8 94.4,107.8 94.6,108.9 94.8,109.9 95.2,110.8 95.6,111.8 96.1,112.7 96.7,113.5 97.4,114.3 98.1,115.1 98.9,115.7 99.7,116.3 100.6,116.9 101.5,117.3 102.5,117.7 103.5,118.0 104.5,118.2 105.5,118.3 106.6,118.3 107.6,118.2 108.6,118.1 109.6,117.8 110.6,117.5 111.5,117.1 112.4,116.6 113.3,116.0 114.1,115.4 114.9,114.7 115.6,113.9 116.2,113.1 116.7,112.2 117.2,111.3 117.6,110.4 117.9,109.4 118.1,108.4 118.3,107.3" fill-opacity="0" stroke="#404040" stroke-width="1.0" stroke-linecap="round" stroke-linejoin="round" />
		<polygon points="101.5,104.8 122.4,48.5 125.8,44.3 126.2,49.7 111.1,107.8" fill="#404040" stroke-opacity="0" stroke-width="1.0" stroke-linecap="round" stroke-linejoin="round" />
		<polygon points="113.3,106.3 113.3,105.7 113.2,105.1 113.1,104.5 112.9,103.9 112.7,103.4 112.4,102.8 112.1,102.3 111.7,101.9 111.3,101.4 110.9,101.0 110.4,100.6 109.9,100.3 109.4,100.0 108.8,99.8 108.2,99.6 107.6,99.4 107.1,99.3 106.5,99.3 105.8,99.3 105.2,99.4 104.7,99.5 104.1,99.7 103.5,99.9 103.0,100.1 102.5,100.4 102.0,100.8 101.5,101.2 101.1,101.6 100.7,102.1 100.4,102.6 100.1,103.1 99.8,103.7 99.6,104.2 99.5,104.8 99.4,105.4 99.3,106.0 99.3,106.6 99.4,107.2 99.5,107.8 99.6,108.4 99.8,108.9 100.1,109.5 100.4,110.0 100.7,110.5 101.1,111.0 101.5,111.4 102.0,111.8 102.5,112.2 103.0,112.5 103.5,112.7 104.1,112.9 104.7,113.1 105.2,113.2 105.8,113.3 106.5,113.3 107.1,113.3 107.6,113.2 108.2,113.0 108.8,112.8 109.4,112.6 109.9,112.3 110.4,112.0 110.9,111.6 111.3,111.2 111.7,110.7 112.1,110.3 112.4,109.8 112.7,109.2 112.9,108.7 113.1,108.1 113.2,107.5 113.3,106.9" fill="#404040" stroke-opacity="0" stroke-width="1.0" stroke-linecap="round" stroke-linejoin="round" />
		<polyline points="36.3,106.3 6.3,106.3" fill-opacity="0" stroke="#000000" stroke-width="1.0" stroke-linecap="round" stroke-linejoin="round" />
		<polyline points="176.3,106.3 206.3,106.3" fill-opacity="0" stroke="#0000FF" stroke-width="1.0" stroke-linecap="round" stroke-linejoin="round" />
		<polygon points="4.3,208.3 208.3,208.3 208.3,4.3 4.3,4.3" fill-opacity="0" stroke="#FF0000" stroke-dasharray="3 4" stroke-width="1.0" stroke-linecap="round" stroke-linejoin="round" />
		<polyline points="22.3,106.3 22.3,22.3 106.3,22.3 106.3,6.3" fill-opacity="0" stroke="#5F5F5F" stroke-dasharray="1 2" stroke-width="1.0" stroke-linecap="round" stroke-linejoin="round" />
		<g id="frame_a" class="port">
			<polygon points="4.7,107.9 7.9,107.9 7.9,104.7 4.7,104.7" fill-opacity="0" stroke="#5F5F5F" stroke-width="1.0" stroke-linecap="round" stroke-linejoin="round" />
			<polygon points="1.5,122.3 11.1,122.3 11.1,90.3 1.5,90.3" fill="#C0C0C0" stroke="#000000" stroke-width="1.0" stroke-linecap="round" stroke-linejoin="round" />
		</g>
		<g id="y" class="port">
			<polygon points="206.3,96.3 226.3,106.3 206.3,116.3" fill="#FFFFFF" stroke="#00007F" stroke-width="1.0" stroke-linecap="round" stroke-linejoin="round" />
		</g>
		<g id="frame_resolve" class="port">
			<polygon points="104.7,4.7 104.7,7.9 107.9,7.9 107.9,4.7" fill-opacity="0" stroke="#5F5F5F" stroke-dasharray="1 2" stroke-width="1.0" stroke-linecap="round" stroke-linejoin="round" />
			<polygon points="90.3,1.5 90.3,11.1 122.3,11.1 122.3,1.5" fill="#FFFFFF" stroke="#5F5F5F" stroke-dasharray="1 2" stroke-width="1.0" stroke-linecap="round" stroke-linejoin="round" />
		</g>
	</g>
</svg>
