<svg width="213" height="245" xmlns="http://www.w3.org/2000/svg" xmlns:xlink="http://www.w3.org/1999/xlink">
	<g id="ObsoleteModelica3.Mechanics.MultiBody.Forces.ForceAndTorque" class="component">
		<polygon points="4.3,243.5 208.3,243.5 208.3,39.5 4.3,39.5" fill-opacity="0" stroke="#FF0000" stroke-dasharray="3 4" stroke-width="1.0" stroke-linecap="butt" stroke-linejoin="round" />
		<polygon points="8.3,239.5 205.3,239.5 205.3,42.5 8.3,42.5" fill="#FFFFFF" stroke="#FFFFFF" stroke-width="1.0" stroke-linecap="butt" stroke-linejoin="round" />
		<text x="112.8" y="111.2" text-anchor="middle" fill="#C0C0C0" font-size="33.2px" font-family="sans-serif">resolve</text>
		<polygon points="206.3,120.5 190.3,86.5 175.3,102.5" fill="#000000" stroke="#000000" stroke-width="1.0" stroke-linecap="butt" stroke-linejoin="round" />
		<polyline points="146.3,41.5 146.3,141.5" fill-opacity="0" stroke="#5F5F5F" stroke-dasharray="1 2" stroke-width="1.0" stroke-linecap="butt" stroke-linejoin="round" />
		<polygon points="11.3,140.5 42.3,130.5 42.3,151.5" fill="#000000" stroke="#000000" stroke-width="1.0" stroke-linecap="butt" stroke-linejoin="round" />
		<polygon points="6.3,121.5 20.3,88.5 36.3,99.5" fill="#000000" stroke="#000000" stroke-width="1.0" stroke-linecap="butt" stroke-linejoin="round" />
		<polyline points="46.3,41.5 146.3,41.5" fill-opacity="0" stroke="#5F5F5F" stroke-dasharray="1 2" stroke-width="1.0" stroke-linecap="butt" stroke-linejoin="round" />
		<polygon points="200.3,141.5 171.3,129.5 171.3,152.5" fill="#000000" stroke="#000000" stroke-width="1.0" stroke-linecap="butt" stroke-linejoin="round" />
		<polyline points="42.3,141.5 86.3,141.5" fill-opacity="0" stroke="#000000" stroke-width="1.0" stroke-linecap="butt" stroke-linejoin="round" />
		<polyline points="126.3,141.5 171.3,141.5" fill-opacity="0" stroke="#000000" stroke-width="1.0" stroke-linecap="butt" stroke-linejoin="round" />
		<polyline points="27.3,94.5 36.3,80.5 47.3,69.5 61.3,60.5 74.3,57.5 86.3,56.5" fill-opacity="0" stroke="#000000" stroke-width="1.0" stroke-linecap="butt" stroke-linejoin="round" />
		<polyline points="182.3,94.5 172.3,81.5 161.3,72.5 155.3,67.5 147.3,61.5 137.3,57.5 126.3,56.5" fill-opacity="0" stroke="#000000" stroke-width="1.0" stroke-linecap="butt" stroke-linejoin="round" />
		<g id="frame_a" class="port">
			<polygon points="4.7,143.1 7.9,143.1 7.9,139.9 4.7,139.9" fill-opacity="0" stroke="#5F5F5F" stroke-width="1.0" stroke-linecap="butt" stroke-linejoin="round" />
			<polygon points="1.5,157.5 11.1,157.5 11.1,125.5 1.5,125.5" fill="#C0C0C0" stroke="#000000" stroke-width="1.0" stroke-linecap="butt" stroke-linejoin="round" />
		</g>
		<g id="frame_b" class="port">
			<polygon points="204.7,143.1 207.9,143.1 207.9,139.9 204.7,139.9" fill-opacity="0" stroke="#5F5F5F" stroke-width="1.0" stroke-linecap="butt" stroke-linejoin="round" />
			<polygon points="201.5,157.5 211.1,157.5 211.1,125.5 201.5,125.5" fill="#FFFFFF" stroke="#000000" stroke-width="1.0" stroke-linecap="butt" stroke-linejoin="round" />
		</g>
		<g id="frame_resolve" class="port">
			<polygon points="147.9,43.1 147.9,39.9 144.7,39.9 144.7,43.1" fill-opacity="0" stroke="#5F5F5F" stroke-dasharray="1 2" stroke-width="1.0" stroke-linecap="butt" stroke-linejoin="round" />
			<polygon points="162.3,46.3 162.3,36.7 130.3,36.7 130.3,46.3" fill="#FFFFFF" stroke="#5F5F5F" stroke-dasharray="1 2" stroke-width="1.0" stroke-linecap="butt" stroke-linejoin="round" />
		</g>
		<g id="load" class="port">
			<polygon points="66.3,1.5 46.3,41.5 26.3,1.5" fill="#00007F" stroke="#00007F" stroke-width="1.0" stroke-linecap="butt" stroke-linejoin="round" />
		</g>
	</g>
</svg>
