<svg width="223" height="207" xmlns="http://www.w3.org/2000/svg" xmlns:xlink="http://www.w3.org/1999/xlink">
	<g id="ObsoleteModelica3.Mechanics.Rotational.Interfaces.Rigid" class="component">
		<polygon points="9.5,205.5 213.5,205.5 213.5,1.5 9.5,1.5" fill-opacity="0" stroke="#FF0000" stroke-dasharray="3 4" stroke-width="1.0" stroke-linecap="butt" stroke-linejoin="round" />
		<g id="flange_a" class="port">
			<polygon points="21.5,103.5 21.5,102.6 21.3,101.8 21.2,100.9 20.9,100.1 20.6,99.3 20.2,98.6 19.7,97.8 19.2,97.1 18.6,96.5 18.0,95.9 17.3,95.4 16.6,94.9 15.9,94.5 15.1,94.2 14.3,93.9 13.4,93.7 12.6,93.6 11.7,93.5 10.8,93.5 10.0,93.6 9.1,93.8 8.3,94.0 7.5,94.3 6.7,94.7 6.0,95.1 5.3,95.6 4.7,96.2 4.0,96.8 3.5,97.5 3.0,98.2 2.6,98.9 2.2,99.7 1.9,100.5 1.7,101.4 1.6,102.2 1.5,103.1 1.5,103.9 1.6,104.8 1.7,105.6 1.9,106.5 2.2,107.3 2.6,108.1 3.0,108.8 3.5,109.5 4.0,110.2 4.7,110.8 5.3,111.4 6.0,111.9 6.7,112.3 7.5,112.7 8.3,113.0 9.1,113.2 10.0,113.4 10.8,113.5 11.7,113.5 12.6,113.4 13.4,113.3 14.3,113.1 15.1,112.8 15.9,112.5 16.6,112.1 17.3,111.6 18.0,111.1 18.6,110.5 19.2,109.9 19.7,109.2 20.2,108.4 20.6,107.7 20.9,106.9 21.2,106.1 21.3,105.2 21.5,104.4" fill="#5F5F5F" stroke="#000000" stroke-width="1.0" stroke-linecap="butt" stroke-linejoin="round" />
		</g>
		<g id="flange_b" class="port">
			<polygon points="221.5,103.5 221.5,102.6 221.3,101.8 221.2,100.9 220.9,100.1 220.6,99.3 220.2,98.6 219.7,97.8 219.2,97.1 218.6,96.5 218.0,95.9 217.3,95.4 216.6,94.9 215.9,94.5 215.1,94.2 214.3,93.9 213.4,93.7 212.6,93.6 211.7,93.5 210.8,93.5 210.0,93.6 209.1,93.8 208.3,94.0 207.5,94.3 206.7,94.7 206.0,95.1 205.3,95.6 204.7,96.2 204.0,96.8 203.5,97.5 203.0,98.2 202.6,98.9 202.2,99.7 201.9,100.5 201.7,101.4 201.6,102.2 201.5,103.1 201.5,103.9 201.6,104.8 201.7,105.6 201.9,106.5 202.2,107.3 202.6,108.1 203.0,108.8 203.5,109.5 204.0,110.2 204.7,110.8 205.3,111.4 206.0,111.9 206.7,112.3 207.5,112.7 208.3,113.0 209.1,113.2 210.0,113.4 210.8,113.5 211.7,113.5 212.6,113.4 213.4,113.3 214.3,113.1 215.1,112.8 215.9,112.5 216.6,112.1 217.3,111.6 218.0,111.1 218.6,110.5 219.2,109.9 219.7,109.2 220.2,108.4 220.6,107.7 220.9,106.9 221.2,106.1 221.3,105.2 221.5,104.4" fill="#FFFFFF" stroke="#000000" stroke-width="1.0" stroke-linecap="butt" stroke-linejoin="round" />
		</g>
	</g>
</svg>
