0
SECTION
2
ENTITIES
0
3DFACE
8
default
62
253
10
-0.168492
20
0.008764
30
0.017340
11
-0.173484
21
0.010108
31
0.017340
12
-0.173484
22
0.000112
32
0.020016
13
-0.168492
23
0.008764
33
0.017340
0
3DFACE
8
default
62
253
10
-0.164832
20
0.005104
30
0.017340
11
-0.168492
21
0.008764
31
0.017340
12
-0.173484
22
0.000112
32
0.020016
13
-0.164832
23
0.005104
33
0.017340
0
3DFACE
8
default
62
253
10
-0.163488
20
0.000112
30
0.017340
11
-0.164832
21
0.005104
31
0.017340
12
-0.173484
22
0.000112
32
0.020016
13
-0.163488
23
0.000112
33
0.017340
0
3DFACE
8
default
62
253
10
-0.164832
20
-0.004892
30
0.017340
11
-0.163488
21
0.000112
31
0.017340
12
-0.173484
22
0.000112
32
0.020016
13
-0.164832
23
-0.004892
33
0.017340
0
3DFACE
8
default
62
253
10
-0.168492
20
-0.008552
30
0.017340
11
-0.164832
21
-0.004892
31
0.017340
12
-0.173484
22
0.000112
32
0.020016
13
-0.168492
23
-0.008552
33
0.017340
0
3DFACE
8
default
62
253
10
-0.173484
20
-0.009896
30
0.017340
11
-0.168492
21
-0.008552
31
0.017340
12
-0.173484
22
0.000112
32
0.020016
13
-0.173484
23
-0.009896
33
0.017340
0
3DFACE
8
default
62
253
10
-0.178488
20
-0.008552
30
0.017340
11
-0.173484
21
-0.009896
31
0.017340
12
-0.173484
22
0.000112
32
0.020016
13
-0.178488
23
-0.008552
33
0.017340
0
3DFACE
8
default
62
253
10
-0.182148
20
-0.004892
30
0.017340
11
-0.178488
21
-0.008552
31
0.017340
12
-0.173484
22
0.000112
32
0.020016
13
-0.182148
23
-0.004892
33
0.017340
0
3DFACE
8
default
62
253
10
-0.183492
20
0.000112
30
0.017340
11
-0.182148
21
-0.004892
31
0.017340
12
-0.173484
22
0.000112
32
0.020016
13
-0.183492
23
0.000112
33
0.017340
0
3DFACE
8
default
62
253
10
-0.182148
20
0.005104
30
0.017340
11
-0.183492
21
0.000112
31
0.017340
12
-0.173484
22
0.000112
32
0.020016
13
-0.182148
23
0.005104
33
0.017340
0
3DFACE
8
default
62
253
10
-0.178488
20
0.008764
30
0.017340
11
-0.182148
21
0.005104
31
0.017340
12
-0.173484
22
0.000112
32
0.020016
13
-0.178488
23
0.008764
33
0.017340
0
3DFACE
8
default
62
253
10
-0.173484
20
0.010108
30
0.017340
11
-0.178488
21
0.008764
31
0.017340
12
-0.173484
22
0.000112
32
0.020016
13
-0.173484
23
0.010108
33
0.017340
0
3DFACE
8
default
62
253
10
-0.168492
20
0.008764
30
0.017340
11
-0.164832
21
0.015112
31
0.010008
12
-0.173484
22
0.017428
32
0.010008
13
-0.168492
23
0.008764
33
0.017340
0
3DFACE
8
default
62
253
10
-0.168492
20
0.008764
30
0.017340
11
-0.173484
21
0.017428
31
0.010008
12
-0.173484
22
0.010108
32
0.017340
13
-0.168492
23
0.008764
33
0.017340
0
3DFACE
8
default
62
253
10
-0.164832
20
0.005104
30
0.017340
11
-0.158484
21
0.008764
31
0.010008
12
-0.164832
22
0.015112
32
0.010008
13
-0.164832
23
0.005104
33
0.017340
0
3DFACE
8
default
62
253
10
-0.164832
20
0.005104
30
0.017340
11
-0.164832
21
0.015112
31
0.010008
12
-0.168492
22
0.008764
32
0.017340
13
-0.164832
23
0.005104
33
0.017340
0
3DFACE
8
default
62
253
10
-0.163488
20
0.000112
30
0.017340
11
-0.156168
21
0.000112
31
0.010008
12
-0.158484
22
0.008764
32
0.010008
13
-0.163488
23
0.000112
33
0.017340
0
3DFACE
8
default
62
253
10
-0.163488
20
0.000112
30
0.017340
11
-0.158484
21
0.008764
31
0.010008
12
-0.164832
22
0.005104
32
0.017340
13
-0.163488
23
0.000112
33
0.017340
0
3DFACE
8
default
62
253
10
-0.164832
20
-0.004892
30
0.017340
11
-0.158484
21
-0.008552
31
0.010008
12
-0.156168
22
0.000112
32
0.010008
13
-0.164832
23
-0.004892
33
0.017340
0
3DFACE
8
default
62
253
10
-0.164832
20
-0.004892
30
0.017340
11
-0.156168
21
0.000112
31
0.010008
12
-0.163488
22
0.000112
32
0.017340
13
-0.164832
23
-0.004892
33
0.017340
0
3DFACE
8
default
62
253
10
-0.168492
20
-0.008552
30
0.017340
11
-0.164832
21
-0.014888
31
0.010008
12
-0.158484
22
-0.008552
32
0.010008
13
-0.168492
23
-0.008552
33
0.017340
0
3DFACE
8
default
62
253
10
-0.168492
20
-0.008552
30
0.017340
11
-0.158484
21
-0.008552
31
0.010008
12
-0.164832
22
-0.004892
32
0.017340
13
-0.168492
23
-0.008552
33
0.017340
0
3DFACE
8
default
62
253
10
-0.173484
20
-0.009896
30
0.017340
11
-0.173484
21
-0.017216
31
0.010008
12
-0.164832
22
-0.014888
32
0.010008
13
-0.173484
23
-0.009896
33
0.017340
0
3DFACE
8
default
62
253
10
-0.173484
20
-0.009896
30
0.017340
11
-0.164832
21
-0.014888
31
0.010008
12
-0.168492
22
-0.008552
32
0.017340
13
-0.173484
23
-0.009896
33
0.017340
0
3DFACE
8
default
62
253
10
-0.178488
20
-0.008552
30
0.017340
11
-0.182148
21
-0.014888
31
0.010008
12
-0.173484
22
-0.017216
32
0.010008
13
-0.178488
23
-0.008552
33
0.017340
0
3DFACE
8
default
62
253
10
-0.178488
20
-0.008552
30
0.017340
11
-0.173484
21
-0.017216
31
0.010008
12
-0.173484
22
-0.009896
32
0.017340
13
-0.178488
23
-0.008552
33
0.017340
0
3DFACE
8
default
62
253
10
-0.182148
20
-0.004892
30
0.017340
11
-0.188484
21
-0.008552
31
0.010008
12
-0.182148
22
-0.014888
32
0.010008
13
-0.182148
23
-0.004892
33
0.017340
0
3DFACE
8
default
62
253
10
-0.182148
20
-0.004892
30
0.017340
11
-0.182148
21
-0.014888
31
0.010008
12
-0.178488
22
-0.008552
32
0.017340
13
-0.182148
23
-0.004892
33
0.017340
0
3DFACE
8
default
62
253
10
-0.183492
20
0.000112
30
0.017340
11
-0.190812
21
0.000112
31
0.010008
12
-0.188484
22
-0.008552
32
0.010008
13
-0.183492
23
0.000112
33
0.017340
0
3DFACE
8
default
62
253
10
-0.183492
20
0.000112
30
0.017340
11
-0.188484
21
-0.008552
31
0.010008
12
-0.182148
22
-0.004892
32
0.017340
13
-0.183492
23
0.000112
33
0.017340
0
3DFACE
8
default
62
253
10
-0.182148
20
0.005104
30
0.017340
11
-0.188484
21
0.008764
31
0.010008
12
-0.190812
22
0.000112
32
0.010008
13
-0.182148
23
0.005104
33
0.017340
0
3DFACE
8
default
62
253
10
-0.182148
20
0.005104
30
0.017340
11
-0.190812
21
0.000112
31
0.010008
12
-0.183492
22
0.000112
32
0.017340
13
-0.182148
23
0.005104
33
0.017340
0
3DFACE
8
default
62
253
10
-0.178488
20
0.008764
30
0.017340
11
-0.182148
21
0.015112
31
0.010008
12
-0.188484
22
0.008764
32
0.010008
13
-0.178488
23
0.008764
33
0.017340
0
3DFACE
8
default
62
253
10
-0.178488
20
0.008764
30
0.017340
11
-0.188484
21
0.008764
31
0.010008
12
-0.182148
22
0.005104
32
0.017340
13
-0.178488
23
0.008764
33
0.017340
0
3DFACE
8
default
62
253
10
-0.173484
20
0.010108
30
0.017340
11
-0.173484
21
0.017428
31
0.010008
12
-0.182148
22
0.015112
32
0.010008
13
-0.173484
23
0.010108
33
0.017340
0
3DFACE
8
default
62
253
10
-0.173484
20
0.010108
30
0.017340
11
-0.182148
21
0.015112
31
0.010008
12
-0.178488
22
0.008764
32
0.017340
13
-0.173484
23
0.010108
33
0.017340
0
3DFACE
8
default
62
253
10
-0.164832
20
0.015112
30
0.010008
11
-0.163488
21
0.017428
31
0.000012
12
-0.173484
22
0.020104
32
0.000012
13
-0.164832
23
0.015112
33
0.010008
0
3DFACE
8
default
62
253
10
-0.164832
20
0.015112
30
0.010008
11
-0.173484
21
0.020104
31
0.000012
12
-0.173484
22
0.017428
32
0.010008
13
-0.164832
23
0.015112
33
0.010008
0
3DFACE
8
default
62
253
10
-0.158484
20
0.008764
30
0.010008
11
-0.156168
21
0.010108
31
0.000012
12
-0.163488
22
0.017428
32
0.000012
13
-0.158484
23
0.008764
33
0.010008
0
3DFACE
8
default
62
253
10
-0.158484
20
0.008764
30
0.010008
11
-0.163488
21
0.017428
31
0.000012
12
-0.164832
22
0.015112
32
0.010008
13
-0.158484
23
0.008764
33
0.010008
0
3DFACE
8
default
62
253
10
-0.156168
20
0.000112
30
0.010008
11
-0.153492
21
0.000112
31
0.000012
12
-0.156168
22
0.010108
32
0.000012
13
-0.156168
23
0.000112
33
0.010008
0
3DFACE
8
default
62
253
10
-0.156168
20
0.000112
30
0.010008
11
-0.156168
21
0.010108
31
0.000012
12
-0.158484
22
0.008764
32
0.010008
13
-0.156168
23
0.000112
33
0.010008
0
3DFACE
8
default
62
253
10
-0.158484
20
-0.008552
30
0.010008
11
-0.156168
21
-0.009896
31
0.000012
12
-0.153492
22
0.000112
32
0.000012
13
-0.158484
23
-0.008552
33
0.010008
0
3DFACE
8
default
62
253
10
-0.158484
20
-0.008552
30
0.010008
11
-0.153492
21
0.000112
31
0.000012
12
-0.156168
22
0.000112
32
0.010008
13
-0.158484
23
-0.008552
33
0.010008
0
3DFACE
8
default
62
253
10
-0.164832
20
-0.014888
30
0.010008
11
-0.163488
21
-0.017216
31
0.000012
12
-0.156168
22
-0.009896
32
0.000012
13
-0.164832
23
-0.014888
33
0.010008
0
3DFACE
8
default
62
253
10
-0.164832
20
-0.014888
30
0.010008
11
-0.156168
21
-0.009896
31
0.000012
12
-0.158484
22
-0.008552
32
0.010008
13
-0.164832
23
-0.014888
33
0.010008
0
3DFACE
8
default
62
253
10
-0.173484
20
-0.017216
30
0.010008
11
-0.173484
21
-0.019892
31
0.000012
12
-0.163488
22
-0.017216
32
0.000012
13
-0.173484
23
-0.017216
33
0.010008
0
3DFACE
8
default
62
253
10
-0.173484
20
-0.017216
30
0.010008
11
-0.163488
21
-0.017216
31
0.000012
12
-0.164832
22
-0.014888
32
0.010008
13
-0.173484
23
-0.017216
33
0.010008
0
3DFACE
8
default
62
253
10
-0.182148
20
-0.014888
30
0.010008
11
-0.183492
21
-0.017216
31
0.000012
12
-0.173484
22
-0.019892
32
0.000012
13
-0.182148
23
-0.014888
33
0.010008
0
3DFACE
8
default
62
253
10
-0.182148
20
-0.014888
30
0.010008
11
-0.173484
21
-0.019892
31
0.000012
12
-0.173484
22
-0.017216
32
0.010008
13
-0.182148
23
-0.014888
33
0.010008
0
3DFACE
8
default
62
253
10
-0.188484
20
-0.008552
30
0.010008
11
-0.190812
21
-0.009896
31
0.000012
12
-0.183492
22
-0.017216
32
0.000012
13
-0.188484
23
-0.008552
33
0.010008
0
3DFACE
8
default
62
253
10
-0.188484
20
-0.008552
30
0.010008
11
-0.183492
21
-0.017216
31
0.000012
12
-0.182148
22
-0.014888
32
0.010008
13
-0.188484
23
-0.008552
33
0.010008
0
3DFACE
8
default
62
253
10
-0.190812
20
0.000112
30
0.010008
11
-0.193488
21
0.000112
31
0.000012
12
-0.190812
22
-0.009896
32
0.000012
13
-0.190812
23
0.000112
33
0.010008
0
3DFACE
8
default
62
253
10
-0.190812
20
0.000112
30
0.010008
11
-0.190812
21
-0.009896
31
0.000012
12
-0.188484
22
-0.008552
32
0.010008
13
-0.190812
23
0.000112
33
0.010008
0
3DFACE
8
default
62
253
10
-0.188484
20
0.008764
30
0.010008
11
-0.190812
21
0.010108
31
0.000012
12
-0.193488
22
0.000112
32
0.000012
13
-0.188484
23
0.008764
33
0.010008
0
3DFACE
8
default
62
253
10
-0.188484
20
0.008764
30
0.010008
11
-0.193488
21
0.000112
31
0.000012
12
-0.190812
22
0.000112
32
0.010008
13
-0.188484
23
0.008764
33
0.010008
0
3DFACE
8
default
62
253
10
-0.182148
20
0.015112
30
0.010008
11
-0.183492
21
0.017428
31
0.000012
12
-0.190812
22
0.010108
32
0.000012
13
-0.182148
23
0.015112
33
0.010008
0
3DFACE
8
default
62
253
10
-0.182148
20
0.015112
30
0.010008
11
-0.190812
21
0.010108
31
0.000012
12
-0.188484
22
0.008764
32
0.010008
13
-0.182148
23
0.015112
33
0.010008
0
3DFACE
8
default
62
253
10
-0.173484
20
0.017428
30
0.010008
11
-0.173484
21
0.020104
31
0.000012
12
-0.183492
22
0.017428
32
0.000012
13
-0.173484
23
0.017428
33
0.010008
0
3DFACE
8
default
62
253
10
-0.173484
20
0.017428
30
0.010008
11
-0.183492
21
0.017428
31
0.000012
12
-0.182148
22
0.015112
32
0.010008
13
-0.173484
23
0.017428
33
0.010008
0
3DFACE
8
default
62
253
10
-0.163488
20
0.017428
30
0.000012
11
-0.164832
21
0.015112
31
-0.009984
12
-0.173484
22
0.017428
32
-0.009984
13
-0.163488
23
0.017428
33
0.000012
0
3DFACE
8
default
62
253
10
-0.163488
20
0.017428
30
0.000012
11
-0.173484
21
0.017428
31
-0.009984
12
-0.173484
22
0.020104
32
0.000012
13
-0.163488
23
0.017428
33
0.000012
0
3DFACE
8
default
62
253
10
-0.156168
20
0.010108
30
0.000012
11
-0.158484
21
0.008764
31
-0.009984
12
-0.164832
22
0.015112
32
-0.009984
13
-0.156168
23
0.010108
33
0.000012
0
3DFACE
8
default
62
253
10
-0.156168
20
0.010108
30
0.000012
11
-0.164832
21
0.015112
31
-0.009984
12
-0.163488
22
0.017428
32
0.000012
13
-0.156168
23
0.010108
33
0.000012
0
3DFACE
8
default
62
253
10
-0.153492
20
0.000112
30
0.000012
11
-0.156168
21
0.000112
31
-0.009984
12
-0.158484
22
0.008764
32
-0.009984
13
-0.153492
23
0.000112
33
0.000012
0
3DFACE
8
default
62
253
10
-0.153492
20
0.000112
30
0.000012
11
-0.158484
21
0.008764
31
-0.009984
12
-0.156168
22
0.010108
32
0.000012
13
-0.153492
23
0.000112
33
0.000012
0
3DFACE
8
default
62
253
10
-0.156168
20
-0.009896
30
0.000012
11
-0.158484
21
-0.008552
31
-0.009984
12
-0.156168
22
0.000112
32
-0.009984
13
-0.156168
23
-0.009896
33
0.000012
0
3DFACE
8
default
62
253
10
-0.156168
20
-0.009896
30
0.000012
11
-0.156168
21
0.000112
31
-0.009984
12
-0.153492
22
0.000112
32
0.000012
13
-0.156168
23
-0.009896
33
0.000012
0
3DFACE
8
default
62
253
10
-0.163488
20
-0.017216
30
0.000012
11
-0.164832
21
-0.014888
31
-0.009984
12
-0.158484
22
-0.008552
32
-0.009984
13
-0.163488
23
-0.017216
33
0.000012
0
3DFACE
8
default
62
253
10
-0.163488
20
-0.017216
30
0.000012
11
-0.158484
21
-0.008552
31
-0.009984
12
-0.156168
22
-0.009896
32
0.000012
13
-0.163488
23
-0.017216
33
0.000012
0
3DFACE
8
default
62
253
10
-0.173484
20
-0.019892
30
0.000012
11
-0.173484
21
-0.017216
31
-0.009984
12
-0.164832
22
-0.014888
32
-0.009984
13
-0.173484
23
-0.019892
33
0.000012
0
3DFACE
8
default
62
253
10
-0.173484
20
-0.019892
30
0.000012
11
-0.164832
21
-0.014888
31
-0.009984
12
-0.163488
22
-0.017216
32
0.000012
13
-0.173484
23
-0.019892
33
0.000012
0
3DFACE
8
default
62
253
10
-0.183492
20
-0.017216
30
0.000012
11
-0.182148
21
-0.014888
31
-0.009984
12
-0.173484
22
-0.017216
32
-0.009984
13
-0.183492
23
-0.017216
33
0.000012
0
3DFACE
8
default
62
253
10
-0.183492
20
-0.017216
30
0.000012
11
-0.173484
21
-0.017216
31
-0.009984
12
-0.173484
22
-0.019892
32
0.000012
13
-0.183492
23
-0.017216
33
0.000012
0
3DFACE
8
default
62
253
10
-0.190812
20
-0.009896
30
0.000012
11
-0.188484
21
-0.008552
31
-0.009984
12
-0.182148
22
-0.014888
32
-0.009984
13
-0.190812
23
-0.009896
33
0.000012
0
3DFACE
8
default
62
253
10
-0.190812
20
-0.009896
30
0.000012
11
-0.182148
21
-0.014888
31
-0.009984
12
-0.183492
22
-0.017216
32
0.000012
13
-0.190812
23
-0.009896
33
0.000012
0
3DFACE
8
default
62
253
10
-0.193488
20
0.000112
30
0.000012
11
-0.190812
21
0.000112
31
-0.009984
12
-0.188484
22
-0.008552
32
-0.009984
13
-0.193488
23
0.000112
33
0.000012
0
3DFACE
8
default
62
253
10
-0.193488
20
0.000112
30
0.000012
11
-0.188484
21
-0.008552
31
-0.009984
12
-0.190812
22
-0.009896
32
0.000012
13
-0.193488
23
0.000112
33
0.000012
0
3DFACE
8
default
62
253
10
-0.190812
20
0.010108
30
0.000012
11
-0.188484
21
0.008764
31
-0.009984
12
-0.190812
22
0.000112
32
-0.009984
13
-0.190812
23
0.010108
33
0.000012
0
3DFACE
8
default
62
253
10
-0.190812
20
0.010108
30
0.000012
11
-0.190812
21
0.000112
31
-0.009984
12
-0.193488
22
0.000112
32
0.000012
13
-0.190812
23
0.010108
33
0.000012
0
3DFACE
8
default
62
253
10
-0.183492
20
0.017428
30
0.000012
11
-0.182148
21
0.015112
31
-0.009984
12
-0.188484
22
0.008764
32
-0.009984
13
-0.183492
23
0.017428
33
0.000012
0
3DFACE
8
default
62
253
10
-0.183492
20
0.017428
30
0.000012
11
-0.188484
21
0.008764
31
-0.009984
12
-0.190812
22
0.010108
32
0.000012
13
-0.183492
23
0.017428
33
0.000012
0
3DFACE
8
default
62
253
10
-0.173484
20
0.020104
30
0.000012
11
-0.173484
21
0.017428
31
-0.009984
12
-0.182148
22
0.015112
32
-0.009984
13
-0.173484
23
0.020104
33
0.000012
0
3DFACE
8
default
62
253
10
-0.173484
20
0.020104
30
0.000012
11
-0.182148
21
0.015112
31
-0.009984
12
-0.183492
22
0.017428
32
0.000012
13
-0.173484
23
0.020104
33
0.000012
0
3DFACE
8
default
62
253
10
-0.164832
20
0.015112
30
-0.009984
11
-0.168492
21
0.008764
31
-0.017304
12
-0.173484
22
0.010108
32
-0.017304
13
-0.164832
23
0.015112
33
-0.009984
0
3DFACE
8
default
62
253
10
-0.164832
20
0.015112
30
-0.009984
11
-0.173484
21
0.010108
31
-0.017304
12
-0.173484
22
0.017428
32
-0.009984
13
-0.164832
23
0.015112
33
-0.009984
0
3DFACE
8
default
62
253
10
-0.158484
20
0.008764
30
-0.009984
11
-0.164832
21
0.005104
31
-0.017304
12
-0.168492
22
0.008764
32
-0.017304
13
-0.158484
23
0.008764
33
-0.009984
0
3DFACE
8
default
62
253
10
-0.158484
20
0.008764
30
-0.009984
11
-0.168492
21
0.008764
31
-0.017304
12
-0.164832
22
0.015112
32
-0.009984
13
-0.158484
23
0.008764
33
-0.009984
0
3DFACE
8
default
62
253
10
-0.156168
20
0.000112
30
-0.009984
11
-0.163488
21
0.000112
31
-0.017304
12
-0.164832
22
0.005104
32
-0.017304
13
-0.156168
23
0.000112
33
-0.009984
0
3DFACE
8
default
62
253
10
-0.156168
20
0.000112
30
-0.009984
11
-0.164832
21
0.005104
31
-0.017304
12
-0.158484
22
0.008764
32
-0.009984
13
-0.156168
23
0.000112
33
-0.009984
0
3DFACE
8
default
62
253
10
-0.158484
20
-0.008552
30
-0.009984
11
-0.164832
21
-0.004892
31
-0.017304
12
-0.163488
22
0.000112
32
-0.017304
13
-0.158484
23
-0.008552
33
-0.009984
0
3DFACE
8
default
62
253
10
-0.158484
20
-0.008552
30
-0.009984
11
-0.163488
21
0.000112
31
-0.017304
12
-0.156168
22
0.000112
32
-0.009984
13
-0.158484
23
-0.008552
33
-0.009984
0
3DFACE
8
default
62
253
10
-0.164832
20
-0.014888
30
-0.009984
11
-0.168492
21
-0.008552
31
-0.017304
12
-0.164832
22
-0.004892
32
-0.017304
13
-0.164832
23
-0.014888
33
-0.009984
0
3DFACE
8
default
62
253
10
-0.164832
20
-0.014888
30
-0.009984
11
-0.164832
21
-0.004892
31
-0.017304
12
-0.158484
22
-0.008552
32
-0.009984
13
-0.164832
23
-0.014888
33
-0.009984
0
3DFACE
8
default
62
253
10
-0.173484
20
-0.017216
30
-0.009984
11
-0.173484
21
-0.009896
31
-0.017304
12
-0.168492
22
-0.008552
32
-0.017304
13
-0.173484
23
-0.017216
33
-0.009984
0
3DFACE
8
default
62
253
10
-0.173484
20
-0.017216
30
-0.009984
11
-0.168492
21
-0.008552
31
-0.017304
12
-0.164832
22
-0.014888
32
-0.009984
13
-0.173484
23
-0.017216
33
-0.009984
0
3DFACE
8
default
62
253
10
-0.182148
20
-0.014888
30
-0.009984
11
-0.178488
21
-0.008552
31
-0.017304
12
-0.173484
22
-0.009896
32
-0.017304
13
-0.182148
23
-0.014888
33
-0.009984
0
3DFACE
8
default
62
253
10
-0.182148
20
-0.014888
30
-0.009984
11
-0.173484
21
-0.009896
31
-0.017304
12
-0.173484
22
-0.017216
32
-0.009984
13
-0.182148
23
-0.014888
33
-0.009984
0
3DFACE
8
default
62
253
10
-0.188484
20
-0.008552
30
-0.009984
11
-0.182148
21
-0.004892
31
-0.017304
12
-0.178488
22
-0.008552
32
-0.017304
13
-0.188484
23
-0.008552
33
-0.009984
0
3DFACE
8
default
62
253
10
-0.188484
20
-0.008552
30
-0.009984
11
-0.178488
21
-0.008552
31
-0.017304
12
-0.182148
22
-0.014888
32
-0.009984
13
-0.188484
23
-0.008552
33
-0.009984
0
3DFACE
8
default
62
253
10
-0.190812
20
0.000112
30
-0.009984
11
-0.183492
21
0.000112
31
-0.017304
12
-0.182148
22
-0.004892
32
-0.017304
13
-0.190812
23
0.000112
33
-0.009984
0
3DFACE
8
default
62
253
10
-0.190812
20
0.000112
30
-0.009984
11
-0.182148
21
-0.004892
31
-0.017304
12
-0.188484
22
-0.008552
32
-0.009984
13
-0.190812
23
0.000112
33
-0.009984
0
3DFACE
8
default
62
253
10
-0.188484
20
0.008764
30
-0.009984
11
-0.182148
21
0.005104
31
-0.017304
12
-0.183492
22
0.000112
32
-0.017304
13
-0.188484
23
0.008764
33
-0.009984
0
3DFACE
8
default
62
253
10
-0.188484
20
0.008764
30
-0.009984
11
-0.183492
21
0.000112
31
-0.017304
12
-0.190812
22
0.000112
32
-0.009984
13
-0.188484
23
0.008764
33
-0.009984
0
3DFACE
8
default
62
253
10
-0.182148
20
0.015112
30
-0.009984
11
-0.178488
21
0.008764
31
-0.017304
12
-0.182148
22
0.005104
32
-0.017304
13
-0.182148
23
0.015112
33
-0.009984
0
3DFACE
8
default
62
253
10
-0.182148
20
0.015112
30
-0.009984
11
-0.182148
21
0.005104
31
-0.017304
12
-0.188484
22
0.008764
32
-0.009984
13
-0.182148
23
0.015112
33
-0.009984
0
3DFACE
8
default
62
253
10
-0.173484
20
0.017428
30
-0.009984
11
-0.173484
21
0.010108
31
-0.017304
12
-0.178488
22
0.008764
32
-0.017304
13
-0.173484
23
0.017428
33
-0.009984
0
3DFACE
8
default
62
253
10
-0.173484
20
0.017428
30
-0.009984
11
-0.178488
21
0.008764
31
-0.017304
12
-0.182148
22
0.015112
32
-0.009984
13
-0.173484
23
0.017428
33
-0.009984
0
3DFACE
8
default
62
253
10
-0.168492
20
0.008764
30
-0.017304
11
-0.173484
21
0.000112
31
-0.019992
12
-0.173484
22
0.010108
32
-0.017304
13
-0.168492
23
0.008764
33
-0.017304
0
3DFACE
8
default
62
253
10
-0.164832
20
0.005104
30
-0.017304
11
-0.173484
21
0.000112
31
-0.019992
12
-0.168492
22
0.008764
32
-0.017304
13
-0.164832
23
0.005104
33
-0.017304
0
3DFACE
8
default
62
253
10
-0.163488
20
0.000112
30
-0.017304
11
-0.173484
21
0.000112
31
-0.019992
12
-0.164832
22
0.005104
32
-0.017304
13
-0.163488
23
0.000112
33
-0.017304
0
3DFACE
8
default
62
253
10
-0.164832
20
-0.004892
30
-0.017304
11
-0.173484
21
0.000112
31
-0.019992
12
-0.163488
22
0.000112
32
-0.017304
13
-0.164832
23
-0.004892
33
-0.017304
0
3DFACE
8
default
62
253
10
-0.168492
20
-0.008552
30
-0.017304
11
-0.173484
21
0.000112
31
-0.019992
12
-0.164832
22
-0.004892
32
-0.017304
13
-0.168492
23
-0.008552
33
-0.017304
0
3DFACE
8
default
62
253
10
-0.173484
20
-0.009896
30
-0.017304
11
-0.173484
21
0.000112
31
-0.019992
12
-0.168492
22
-0.008552
32
-0.017304
13
-0.173484
23
-0.009896
33
-0.017304
0
3DFACE
8
default
62
253
10
-0.178488
20
-0.008552
30
-0.017304
11
-0.173484
21
0.000112
31
-0.019992
12
-0.173484
22
-0.009896
32
-0.017304
13
-0.178488
23
-0.008552
33
-0.017304
0
3DFACE
8
default
62
253
10
-0.182148
20
-0.004892
30
-0.017304
11
-0.173484
21
0.000112
31
-0.019992
12
-0.178488
22
-0.008552
32
-0.017304
13
-0.182148
23
-0.004892
33
-0.017304
0
3DFACE
8
default
62
253
10
-0.183492
20
0.000112
30
-0.017304
11
-0.173484
21
0.000112
31
-0.019992
12
-0.182148
22
-0.004892
32
-0.017304
13
-0.183492
23
0.000112
33
-0.017304
0
3DFACE
8
default
62
253
10
-0.182148
20
0.005104
30
-0.017304
11
-0.173484
21
0.000112
31
-0.019992
12
-0.183492
22
0.000112
32
-0.017304
13
-0.182148
23
0.005104
33
-0.017304
0
3DFACE
8
default
62
253
10
-0.178488
20
0.008764
30
-0.017304
11
-0.173484
21
0.000112
31
-0.019992
12
-0.182148
22
0.005104
32
-0.017304
13
-0.178488
23
0.008764
33
-0.017304
0
3DFACE
8
default
62
253
10
-0.173484
20
0.010108
30
-0.017304
11
-0.173484
21
0.000112
31
-0.019992
12
-0.178488
22
0.008764
32
-0.017304
13
-0.173484
23
0.010108
33
-0.017304
0
3DFACE
8
default
62
253
10
-0.168492
20
0.056656
30
-0.114228
11
-0.173484
21
0.057988
31
-0.114228
12
-0.173484
22
0.047992
32
-0.111540
13
-0.168492
23
0.056656
33
-0.114228
0
3DFACE
8
default
62
253
10
-0.164832
20
0.052996
30
-0.114228
11
-0.168492
21
0.056656
31
-0.114228
12
-0.173484
22
0.047992
32
-0.111540
13
-0.164832
23
0.052996
33
-0.114228
0
3DFACE
8
default
62
253
10
-0.163488
20
0.047992
30
-0.114228
11
-0.164832
21
0.052996
31
-0.114228
12
-0.173484
22
0.047992
32
-0.111540
13
-0.163488
23
0.047992
33
-0.114228
0
3DFACE
8
default
62
253
10
-0.164832
20
0.042988
30
-0.114228
11
-0.163488
21
0.047992
31
-0.114228
12
-0.173484
22
0.047992
32
-0.111540
13
-0.164832
23
0.042988
33
-0.114228
0
3DFACE
8
default
62
253
10
-0.168492
20
0.039328
30
-0.114228
11
-0.164832
21
0.042988
31
-0.114228
12
-0.173484
22
0.047992
32
-0.111540
13
-0.168492
23
0.039328
33
-0.114228
0
3DFACE
8
default
62
253
10
-0.173484
20
0.037996
30
-0.114228
11
-0.168492
21
0.039328
31
-0.114228
12
-0.173484
22
0.047992
32
-0.111540
13
-0.173484
23
0.037996
33
-0.114228
0
3DFACE
8
default
62
253
10
-0.178488
20
0.039328
30
-0.114228
11
-0.173484
21
0.037996
31
-0.114228
12
-0.173484
22
0.047992
32
-0.111540
13
-0.178488
23
0.039328
33
-0.114228
0
3DFACE
8
default
62
253
10
-0.182148
20
0.042988
30
-0.114228
11
-0.178488
21
0.039328
31
-0.114228
12
-0.173484
22
0.047992
32
-0.111540
13
-0.182148
23
0.042988
33
-0.114228
0
3DFACE
8
default
62
253
10
-0.183492
20
0.047992
30
-0.114228
11
-0.182148
21
0.042988
31
-0.114228
12
-0.173484
22
0.047992
32
-0.111540
13
-0.183492
23
0.047992
33
-0.114228
0
3DFACE
8
default
62
253
10
-0.182148
20
0.052996
30
-0.114228
11
-0.183492
21
0.047992
31
-0.114228
12
-0.173484
22
0.047992
32
-0.111540
13
-0.182148
23
0.052996
33
-0.114228
0
3DFACE
8
default
62
253
10
-0.178488
20
0.056656
30
-0.114228
11
-0.182148
21
0.052996
31
-0.114228
12
-0.173484
22
0.047992
32
-0.111540
13
-0.178488
23
0.056656
33
-0.114228
0
3DFACE
8
default
62
253
10
-0.173484
20
0.057988
30
-0.114228
11
-0.178488
21
0.056656
31
-0.114228
12
-0.173484
22
0.047992
32
-0.111540
13
-0.173484
23
0.057988
33
-0.114228
0
3DFACE
8
default
62
253
10
-0.168492
20
0.056656
30
-0.114228
11
-0.164832
21
0.062992
31
-0.121548
12
-0.173484
22
0.065308
32
-0.121548
13
-0.168492
23
0.056656
33
-0.114228
0
3DFACE
8
default
62
253
10
-0.168492
20
0.056656
30
-0.114228
11
-0.173484
21
0.065308
31
-0.121548
12
-0.173484
22
0.057988
32
-0.114228
13
-0.168492
23
0.056656
33
-0.114228
0
3DFACE
8
default
62
253
10
-0.164832
20
0.052996
30
-0.114228
11
-0.158484
21
0.056656
31
-0.121548
12
-0.164832
22
0.062992
32
-0.121548
13
-0.164832
23
0.052996
33
-0.114228
0
3DFACE
8
default
62
253
10
-0.164832
20
0.052996
30
-0.114228
11
-0.164832
21
0.062992
31
-0.121548
12
-0.168492
22
0.056656
32
-0.114228
13
-0.164832
23
0.052996
33
-0.114228
0
3DFACE
8
default
62
253
10
-0.163488
20
0.047992
30
-0.114228
11
-0.156168
21
0.047992
31
-0.121548
12
-0.158484
22
0.056656
32
-0.121548
13
-0.163488
23
0.047992
33
-0.114228
0
3DFACE
8
default
62
253
10
-0.163488
20
0.047992
30
-0.114228
11
-0.158484
21
0.056656
31
-0.121548
12
-0.164832
22
0.052996
32
-0.114228
13
-0.163488
23
0.047992
33
-0.114228
0
3DFACE
8
default
62
253
10
-0.164832
20
0.042988
30
-0.114228
11
-0.158484
21
0.039328
31
-0.121548
12
-0.156168
22
0.047992
32
-0.121548
13
-0.164832
23
0.042988
33
-0.114228
0
3DFACE
8
default
62
253
10
-0.164832
20
0.042988
30
-0.114228
11
-0.156168
21
0.047992
31
-0.121548
12
-0.163488
22
0.047992
32
-0.114228
13
-0.164832
23
0.042988
33
-0.114228
0
3DFACE
8
default
62
253
10
-0.168492
20
0.039328
30
-0.114228
11
-0.164832
21
0.032992
31
-0.121548
12
-0.158484
22
0.039328
32
-0.121548
13
-0.168492
23
0.039328
33
-0.114228
0
3DFACE
8
default
62
253
10
-0.168492
20
0.039328
30
-0.114228
11
-0.158484
21
0.039328
31
-0.121548
12
-0.164832
22
0.042988
32
-0.114228
13
-0.168492
23
0.039328
33
-0.114228
0
3DFACE
8
default
62
253
10
-0.173484
20
0.037996
30
-0.114228
11
-0.173484
21
0.030676
31
-0.121548
12
-0.164832
22
0.032992
32
-0.121548
13
-0.173484
23
0.037996
33
-0.114228
0
3DFACE
8
default
62
253
10
-0.173484
20
0.037996
30
-0.114228
11
-0.164832
21
0.032992
31
-0.121548
12
-0.168492
22
0.039328
32
-0.114228
13
-0.173484
23
0.037996
33
-0.114228
0
3DFACE
8
default
62
253
10
-0.178488
20
0.039328
30
-0.114228
11
-0.182148
21
0.032992
31
-0.121548
12
-0.173484
22
0.030676
32
-0.121548
13
-0.178488
23
0.039328
33
-0.114228
0
3DFACE
8
default
62
253
10
-0.178488
20
0.039328
30
-0.114228
11
-0.173484
21
0.030676
31
-0.121548
12
-0.173484
22
0.037996
32
-0.114228
13
-0.178488
23
0.039328
33
-0.114228
0
3DFACE
8
default
62
253
10
-0.182148
20
0.042988
30
-0.114228
11
-0.188484
21
0.039328
31
-0.121548
12
-0.182148
22
0.032992
32
-0.121548
13
-0.182148
23
0.042988
33
-0.114228
0
3DFACE
8
default
62
253
10
-0.182148
20
0.042988
30
-0.114228
11
-0.182148
21
0.032992
31
-0.121548
12
-0.178488
22
0.039328
32
-0.114228
13
-0.182148
23
0.042988
33
-0.114228
0
3DFACE
8
default
62
253
10
-0.183492
20
0.047992
30
-0.114228
11
-0.190812
21
0.047992
31
-0.121548
12
-0.188484
22
0.039328
32
-0.121548
13
-0.183492
23
0.047992
33
-0.114228
0
3DFACE
8
default
62
253
10
-0.183492
20
0.047992
30
-0.114228
11
-0.188484
21
0.039328
31
-0.121548
12
-0.182148
22
0.042988
32
-0.114228
13
-0.183492
23
0.047992
33
-0.114228
0
3DFACE
8
default
62
253
10
-0.182148
20
0.052996
30
-0.114228
11
-0.188484
21
0.056656
31
-0.121548
12
-0.190812
22
0.047992
32
-0.121548
13
-0.182148
23
0.052996
33
-0.114228
0
3DFACE
8
default
62
253
10
-0.182148
20
0.052996
30
-0.114228
11
-0.190812
21
0.047992
31
-0.121548
12
-0.183492
22
0.047992
32
-0.114228
13
-0.182148
23
0.052996
33
-0.114228
0
3DFACE
8
default
62
253
10
-0.178488
20
0.056656
30
-0.114228
11
-0.182148
21
0.062992
31
-0.121548
12
-0.188484
22
0.056656
32
-0.121548
13
-0.178488
23
0.056656
33
-0.114228
0
3DFACE
8
default
62
253
10
-0.178488
20
0.056656
30
-0.114228
11
-0.188484
21
0.056656
31
-0.121548
12
-0.182148
22
0.052996
32
-0.114228
13
-0.178488
23
0.056656
33
-0.114228
0
3DFACE
8
default
62
253
10
-0.173484
20
0.057988
30
-0.114228
11
-0.173484
21
0.065308
31
-0.121548
12
-0.182148
22
0.062992
32
-0.121548
13
-0.173484
23
0.057988
33
-0.114228
0
3DFACE
8
default
62
253
10
-0.173484
20
0.057988
30
-0.114228
11
-0.182148
21
0.062992
31
-0.121548
12
-0.178488
22
0.056656
32
-0.114228
13
-0.173484
23
0.057988
33
-0.114228
0
3DFACE
8
default
62
253
10
-0.164832
20
0.062992
30
-0.121548
11
-0.163488
21
0.065308
31
-0.131544
12
-0.173484
22
0.067996
32
-0.131544
13
-0.164832
23
0.062992
33
-0.121548
0
3DFACE
8
default
62
253
10
-0.164832
20
0.062992
30
-0.121548
11
-0.173484
21
0.067996
31
-0.131544
12
-0.173484
22
0.065308
32
-0.121548
13
-0.164832
23
0.062992
33
-0.121548
0
3DFACE
8
default
62
253
10
-0.158484
20
0.056656
30
-0.121548
11
-0.156168
21
0.057988
31
-0.131544
12
-0.163488
22
0.065308
32
-0.131544
13
-0.158484
23
0.056656
33
-0.121548
0
3DFACE
8
default
62
253
10
-0.158484
20
0.056656
30
-0.121548
11
-0.163488
21
0.065308
31
-0.131544
12
-0.164832
22
0.062992
32
-0.121548
13
-0.158484
23
0.056656
33
-0.121548
0
3DFACE
8
default
62
253
10
-0.156168
20
0.047992
30
-0.121548
11
-0.153492
21
0.047992
31
-0.131544
12
-0.156168
22
0.057988
32
-0.131544
13
-0.156168
23
0.047992
33
-0.121548
0
3DFACE
8
default
62
253
10
-0.156168
20
0.047992
30
-0.121548
11
-0.156168
21
0.057988
31
-0.131544
12
-0.158484
22
0.056656
32
-0.121548
13
-0.156168
23
0.047992
33
-0.121548
0
3DFACE
8
default
62
253
10
-0.158484
20
0.039328
30
-0.121548
11
-0.156168
21
0.037996
31
-0.131544
12
-0.153492
22
0.047992
32
-0.131544
13
-0.158484
23
0.039328
33
-0.121548
0
3DFACE
8
default
62
253
10
-0.158484
20
0.039328
30
-0.121548
11
-0.153492
21
0.047992
31
-0.131544
12
-0.156168
22
0.047992
32
-0.121548
13
-0.158484
23
0.039328
33
-0.121548
0
3DFACE
8
default
62
253
10
-0.164832
20
0.032992
30
-0.121548
11
-0.163488
21
0.030676
31
-0.131544
12
-0.156168
22
0.037996
32
-0.131544
13
-0.164832
23
0.032992
33
-0.121548
0
3DFACE
8
default
62
253
10
-0.164832
20
0.032992
30
-0.121548
11
-0.156168
21
0.037996
31
-0.131544
12
-0.158484
22
0.039328
32
-0.121548
13
-0.164832
23
0.032992
33
-0.121548
0
3DFACE
8
default
62
253
10
-0.173484
20
0.030676
30
-0.121548
11
-0.173484
21
0.027988
31
-0.131544
12
-0.163488
22
0.030676
32
-0.131544
13
-0.173484
23
0.030676
33
-0.121548
0
3DFACE
8
default
62
253
10
-0.173484
20
0.030676
30
-0.121548
11
-0.163488
21
0.030676
31
-0.131544
12
-0.164832
22
0.032992
32
-0.121548
13
-0.173484
23
0.030676
33
-0.121548
0
3DFACE
8
default
62
253
10
-0.182148
20
0.032992
30
-0.121548
11
-0.183492
21
0.030676
31
-0.131544
12
-0.173484
22
0.027988
32
-0.131544
13
-0.182148
23
0.032992
33
-0.121548
0
3DFACE
8
default
62
253
10
-0.182148
20
0.032992
30
-0.121548
11
-0.173484
21
0.027988
31
-0.131544
12
-0.173484
22
0.030676
32
-0.121548
13
-0.182148
23
0.032992
33
-0.121548
0
3DFACE
8
default
62
253
10
-0.188484
20
0.039328
30
-0.121548
11
-0.190812
21
0.037996
31
-0.131544
12
-0.183492
22
0.030676
32
-0.131544
13
-0.188484
23
0.039328
33
-0.121548
0
3DFACE
8
default
62
253
10
-0.188484
20
0.039328
30
-0.121548
11
-0.183492
21
0.030676
31
-0.131544
12
-0.182148
22
0.032992
32
-0.121548
13
-0.188484
23
0.039328
33
-0.121548
0
3DFACE
8
default
62
253
10
-0.190812
20
0.047992
30
-0.121548
11
-0.193488
21
0.047992
31
-0.131544
12
-0.190812
22
0.037996
32
-0.131544
13
-0.190812
23
0.047992
33
-0.121548
0
3DFACE
8
default
62
253
10
-0.190812
20
0.047992
30
-0.121548
11
-0.190812
21
0.037996
31
-0.131544
12
-0.188484
22
0.039328
32
-0.121548
13
-0.190812
23
0.047992
33
-0.121548
0
3DFACE
8
default
62
253
10
-0.188484
20
0.056656
30
-0.121548
11
-0.190812
21
0.057988
31
-0.131544
12
-0.193488
22
0.047992
32
-0.131544
13
-0.188484
23
0.056656
33
-0.121548
0
3DFACE
8
default
62
253
10
-0.188484
20
0.056656
30
-0.121548
11
-0.193488
21
0.047992
31
-0.131544
12
-0.190812
22
0.047992
32
-0.121548
13
-0.188484
23
0.056656
33
-0.121548
0
3DFACE
8
default
62
253
10
-0.182148
20
0.062992
30
-0.121548
11
-0.183492
21
0.065308
31
-0.131544
12
-0.190812
22
0.057988
32
-0.131544
13
-0.182148
23
0.062992
33
-0.121548
0
3DFACE
8
default
62
253
10
-0.182148
20
0.062992
30
-0.121548
11
-0.190812
21
0.057988
31
-0.131544
12
-0.188484
22
0.056656
32
-0.121548
13
-0.182148
23
0.062992
33
-0.121548
0
3DFACE
8
default
62
253
10
-0.173484
20
0.065308
30
-0.121548
11
-0.173484
21
0.067996
31
-0.131544
12
-0.183492
22
0.065308
32
-0.131544
13
-0.173484
23
0.065308
33
-0.121548
0
3DFACE
8
default
62
253
10
-0.173484
20
0.065308
30
-0.121548
11
-0.183492
21
0.065308
31
-0.131544
12
-0.182148
22
0.062992
32
-0.121548
13
-0.173484
23
0.065308
33
-0.121548
0
3DFACE
8
default
62
253
10
-0.163488
20
0.065308
30
-0.131544
11
-0.164832
21
0.062992
31
-0.141540
12
-0.173484
22
0.065308
32
-0.141540
13
-0.163488
23
0.065308
33
-0.131544
0
3DFACE
8
default
62
253
10
-0.163488
20
0.065308
30
-0.131544
11
-0.173484
21
0.065308
31
-0.141540
12
-0.173484
22
0.067996
32
-0.131544
13
-0.163488
23
0.065308
33
-0.131544
0
3DFACE
8
default
62
253
10
-0.156168
20
0.057988
30
-0.131544
11
-0.158484
21
0.056656
31
-0.141540
12
-0.164832
22
0.062992
32
-0.141540
13
-0.156168
23
0.057988
33
-0.131544
0
3DFACE
8
default
62
253
10
-0.156168
20
0.057988
30
-0.131544
11
-0.164832
21
0.062992
31
-0.141540
12
-0.163488
22
0.065308
32
-0.131544
13
-0.156168
23
0.057988
33
-0.131544
0
3DFACE
8
default
62
253
10
-0.153492
20
0.047992
30
-0.131544
11
-0.156168
21
0.047992
31
-0.141540
12
-0.158484
22
0.056656
32
-0.141540
13
-0.153492
23
0.047992
33
-0.131544
0
3DFACE
8
default
62
253
10
-0.153492
20
0.047992
30
-0.131544
11
-0.158484
21
0.056656
31
-0.141540
12
-0.156168
22
0.057988
32
-0.131544
13
-0.153492
23
0.047992
33
-0.131544
0
3DFACE
8
default
62
253
10
-0.156168
20
0.037996
30
-0.131544
11
-0.158484
21
0.039328
31
-0.141540
12
-0.156168
22
0.047992
32
-0.141540
13
-0.156168
23
0.037996
33
-0.131544
0
3DFACE
8
default
62
253
10
-0.156168
20
0.037996
30
-0.131544
11
-0.156168
21
0.047992
31
-0.141540
12
-0.153492
22
0.047992
32
-0.131544
13
-0.156168
23
0.037996
33
-0.131544
0
3DFACE
8
default
62
253
10
-0.163488
20
0.030676
30
-0.131544
11
-0.164832
21
0.032992
31
-0.141540
12
-0.158484
22
0.039328
32
-0.141540
13
-0.163488
23
0.030676
33
-0.131544
0
3DFACE
8
default
62
253
10
-0.163488
20
0.030676
30
-0.131544
11
-0.158484
21
0.039328
31
-0.141540
12
-0.156168
22
0.037996
32
-0.131544
13
-0.163488
23
0.030676
33
-0.131544
0
3DFACE
8
default
62
253
10
-0.173484
20
0.027988
30
-0.131544
11
-0.173484
21
0.030676
31
-0.141540
12
-0.164832
22
0.032992
32
-0.141540
13
-0.173484
23
0.027988
33
-0.131544
0
3DFACE
8
default
62
253
10
-0.173484
20
0.027988
30
-0.131544
11
-0.164832
21
0.032992
31
-0.141540
12
-0.163488
22
0.030676
32
-0.131544
13
-0.173484
23
0.027988
33
-0.131544
0
3DFACE
8
default
62
253
10
-0.183492
20
0.030676
30
-0.131544
11
-0.182148
21
0.032992
31
-0.141540
12
-0.173484
22
0.030676
32
-0.141540
13
-0.183492
23
0.030676
33
-0.131544
0
3DFACE
8
default
62
253
10
-0.183492
20
0.030676
30
-0.131544
11
-0.173484
21
0.030676
31
-0.141540
12
-0.173484
22
0.027988
32
-0.131544
13
-0.183492
23
0.030676
33
-0.131544
0
3DFACE
8
default
62
253
10
-0.190812
20
0.037996
30
-0.131544
11
-0.188484
21
0.039328
31
-0.141540
12
-0.182148
22
0.032992
32
-0.141540
13
-0.190812
23
0.037996
33
-0.131544
0
3DFACE
8
default
62
253
10
-0.190812
20
0.037996
30
-0.131544
11
-0.182148
21
0.032992
31
-0.141540
12
-0.183492
22
0.030676
32
-0.131544
13
-0.190812
23
0.037996
33
-0.131544
0
3DFACE
8
default
62
253
10
-0.193488
20
0.047992
30
-0.131544
11
-0.190812
21
0.047992
31
-0.141540
12
-0.188484
22
0.039328
32
-0.141540
13
-0.193488
23
0.047992
33
-0.131544
0
3DFACE
8
default
62
253
10
-0.193488
20
0.047992
30
-0.131544
11
-0.188484
21
0.039328
31
-0.141540
12
-0.190812
22
0.037996
32
-0.131544
13
-0.193488
23
0.047992
33
-0.131544
0
3DFACE
8
default
62
253
10
-0.190812
20
0.057988
30
-0.131544
11
-0.188484
21
0.056656
31
-0.141540
12
-0.190812
22
0.047992
32
-0.141540
13
-0.190812
23
0.057988
33
-0.131544
0
3DFACE
8
default
62
253
10
-0.190812
20
0.057988
30
-0.131544
11
-0.190812
21
0.047992
31
-0.141540
12
-0.193488
22
0.047992
32
-0.131544
13
-0.190812
23
0.057988
33
-0.131544
0
3DFACE
8
default
62
253
10
-0.183492
20
0.065308
30
-0.131544
11
-0.182148
21
0.062992
31
-0.141540
12
-0.188484
22
0.056656
32
-0.141540
13
-0.183492
23
0.065308
33
-0.131544
0
3DFACE
8
default
62
253
10
-0.183492
20
0.065308
30
-0.131544
11
-0.188484
21
0.056656
31
-0.141540
12
-0.190812
22
0.057988
32
-0.131544
13
-0.183492
23
0.065308
33
-0.131544
0
3DFACE
8
default
62
253
10
-0.173484
20
0.067996
30
-0.131544
11
-0.173484
21
0.065308
31
-0.141540
12
-0.182148
22
0.062992
32
-0.141540
13
-0.173484
23
0.067996
33
-0.131544
0
3DFACE
8
default
62
253
10
-0.173484
20
0.067996
30
-0.131544
11
-0.182148
21
0.062992
31
-0.141540
12
-0.183492
22
0.065308
32
-0.131544
13
-0.173484
23
0.067996
33
-0.131544
0
3DFACE
8
default
62
253
10
-0.164832
20
0.062992
30
-0.141540
11
-0.168492
21
0.056656
31
-0.148860
12
-0.173484
22
0.057988
32
-0.148860
13
-0.164832
23
0.062992
33
-0.141540
0
3DFACE
8
default
62
253
10
-0.164832
20
0.062992
30
-0.141540
11
-0.173484
21
0.057988
31
-0.148860
12
-0.173484
22
0.065308
32
-0.141540
13
-0.164832
23
0.062992
33
-0.141540
0
3DFACE
8
default
62
253
10
-0.158484
20
0.056656
30
-0.141540
11
-0.164832
21
0.052996
31
-0.148860
12
-0.168492
22
0.056656
32
-0.148860
13
-0.158484
23
0.056656
33
-0.141540
0
3DFACE
8
default
62
253
10
-0.158484
20
0.056656
30
-0.141540
11
-0.168492
21
0.056656
31
-0.148860
12
-0.164832
22
0.062992
32
-0.141540
13
-0.158484
23
0.056656
33
-0.141540
0
3DFACE
8
default
62
253
10
-0.156168
20
0.047992
30
-0.141540
11
-0.163488
21
0.047992
31
-0.148860
12
-0.164832
22
0.052996
32
-0.148860
13
-0.156168
23
0.047992
33
-0.141540
0
3DFACE
8
default
62
253
10
-0.156168
20
0.047992
30
-0.141540
11
-0.164832
21
0.052996
31
-0.148860
12
-0.158484
22
0.056656
32
-0.141540
13
-0.156168
23
0.047992
33
-0.141540
0
3DFACE
8
default
62
253
10
-0.158484
20
0.039328
30
-0.141540
11
-0.164832
21
0.042988
31
-0.148860
12
-0.163488
22
0.047992
32
-0.148860
13
-0.158484
23
0.039328
33
-0.141540
0
3DFACE
8
default
62
253
10
-0.158484
20
0.039328
30
-0.141540
11
-0.163488
21
0.047992
31
-0.148860
12
-0.156168
22
0.047992
32
-0.141540
13
-0.158484
23
0.039328
33
-0.141540
0
3DFACE
8
default
62
253
10
-0.164832
20
0.032992
30
-0.141540
11
-0.168492
21
0.039328
31
-0.148860
12
-0.164832
22
0.042988
32
-0.148860
13
-0.164832
23
0.032992
33
-0.141540
0
3DFACE
8
default
62
253
10
-0.164832
20
0.032992
30
-0.141540
11
-0.164832
21
0.042988
31
-0.148860
12
-0.158484
22
0.039328
32
-0.141540
13
-0.164832
23
0.032992
33
-0.141540
0
3DFACE
8
default
62
253
10
-0.173484
20
0.030676
30
-0.141540
11
-0.173484
21
0.037996
31
-0.148860
12
-0.168492
22
0.039328
32
-0.148860
13
-0.173484
23
0.030676
33
-0.141540
0
3DFACE
8
default
62
253
10
-0.173484
20
0.030676
30
-0.141540
11
-0.168492
21
0.039328
31
-0.148860
12
-0.164832
22
0.032992
32
-0.141540
13
-0.173484
23
0.030676
33
-0.141540
0
3DFACE
8
default
62
253
10
-0.182148
20
0.032992
30
-0.141540
11
-0.178488
21
0.039328
31
-0.148860
12
-0.173484
22
0.037996
32
-0.148860
13
-0.182148
23
0.032992
33
-0.141540
0
3DFACE
8
default
62
253
10
-0.182148
20
0.032992
30
-0.141540
11
-0.173484
21
0.037996
31
-0.148860
12
-0.173484
22
0.030676
32
-0.141540
13
-0.182148
23
0.032992
33
-0.141540
0
3DFACE
8
default
62
253
10
-0.188484
20
0.039328
30
-0.141540
11
-0.182148
21
0.042988
31
-0.148860
12
-0.178488
22
0.039328
32
-0.148860
13
-0.188484
23
0.039328
33
-0.141540
0
3DFACE
8
default
62
253
10
-0.188484
20
0.039328
30
-0.141540
11
-0.178488
21
0.039328
31
-0.148860
12
-0.182148
22
0.032992
32
-0.141540
13
-0.188484
23
0.039328
33
-0.141540
0
3DFACE
8
default
62
253
10
-0.190812
20
0.047992
30
-0.141540
11
-0.183492
21
0.047992
31
-0.148860
12
-0.182148
22
0.042988
32
-0.148860
13
-0.190812
23
0.047992
33
-0.141540
0
3DFACE
8
default
62
253
10
-0.190812
20
0.047992
30
-0.141540
11
-0.182148
21
0.042988
31
-0.148860
12
-0.188484
22
0.039328
32
-0.141540
13
-0.190812
23
0.047992
33
-0.141540
0
3DFACE
8
default
62
253
10
-0.188484
20
0.056656
30
-0.141540
11
-0.182148
21
0.052996
31
-0.148860
12
-0.183492
22
0.047992
32
-0.148860
13
-0.188484
23
0.056656
33
-0.141540
0
3DFACE
8
default
62
253
10
-0.188484
20
0.056656
30
-0.141540
11
-0.183492
21
0.047992
31
-0.148860
12
-0.190812
22
0.047992
32
-0.141540
13
-0.188484
23
0.056656
33
-0.141540
0
3DFACE
8
default
62
253
10
-0.182148
20
0.062992
30
-0.141540
11
-0.178488
21
0.056656
31
-0.148860
12
-0.182148
22
0.052996
32
-0.148860
13
-0.182148
23
0.062992
33
-0.141540
0
3DFACE
8
default
62
253
10
-0.182148
20
0.062992
30
-0.141540
11
-0.182148
21
0.052996
31
-0.148860
12
-0.188484
22
0.056656
32
-0.141540
13
-0.182148
23
0.062992
33
-0.141540
0
3DFACE
8
default
62
253
10
-0.173484
20
0.065308
30
-0.141540
11
-0.173484
21
0.057988
31
-0.148860
12
-0.178488
22
0.056656
32
-0.148860
13
-0.173484
23
0.065308
33
-0.141540
0
3DFACE
8
default
62
253
10
-0.173484
20
0.065308
30
-0.141540
11
-0.178488
21
0.056656
31
-0.148860
12
-0.182148
22
0.062992
32
-0.141540
13
-0.173484
23
0.065308
33
-0.141540
0
3DFACE
8
default
62
253
10
-0.168492
20
0.056656
30
-0.148860
11
-0.173484
21
0.047992
31
-0.151548
12
-0.173484
22
0.057988
32
-0.148860
13
-0.168492
23
0.056656
33
-0.148860
0
3DFACE
8
default
62
253
10
-0.164832
20
0.052996
30
-0.148860
11
-0.173484
21
0.047992
31
-0.151548
12
-0.168492
22
0.056656
32
-0.148860
13
-0.164832
23
0.052996
33
-0.148860
0
3DFACE
8
default
62
253
10
-0.163488
20
0.047992
30
-0.148860
11
-0.173484
21
0.047992
31
-0.151548
12
-0.164832
22
0.052996
32
-0.148860
13
-0.163488
23
0.047992
33
-0.148860
0
3DFACE
8
default
62
253
10
-0.164832
20
0.042988
30
-0.148860
11
-0.173484
21
0.047992
31
-0.151548
12
-0.163488
22
0.047992
32
-0.148860
13
-0.164832
23
0.042988
33
-0.148860
0
3DFACE
8
default
62
253
10
-0.168492
20
0.039328
30
-0.148860
11
-0.173484
21
0.047992
31
-0.151548
12
-0.164832
22
0.042988
32
-0.148860
13
-0.168492
23
0.039328
33
-0.148860
0
3DFACE
8
default
62
253
10
-0.173484
20
0.037996
30
-0.148860
11
-0.173484
21
0.047992
31
-0.151548
12
-0.168492
22
0.039328
32
-0.148860
13
-0.173484
23
0.037996
33
-0.148860
0
3DFACE
8
default
62
253
10
-0.178488
20
0.039328
30
-0.148860
11
-0.173484
21
0.047992
31
-0.151548
12
-0.173484
22
0.037996
32
-0.148860
13
-0.178488
23
0.039328
33
-0.148860
0
3DFACE
8
default
62
253
10
-0.182148
20
0.042988
30
-0.148860
11
-0.173484
21
0.047992
31
-0.151548
12
-0.178488
22
0.039328
32
-0.148860
13
-0.182148
23
0.042988
33
-0.148860
0
3DFACE
8
default
62
253
10
-0.183492
20
0.047992
30
-0.148860
11
-0.173484
21
0.047992
31
-0.151548
12
-0.182148
22
0.042988
32
-0.148860
13
-0.183492
23
0.047992
33
-0.148860
0
3DFACE
8
default
62
253
10
-0.182148
20
0.052996
30
-0.148860
11
-0.173484
21
0.047992
31
-0.151548
12
-0.183492
22
0.047992
32
-0.148860
13
-0.182148
23
0.052996
33
-0.148860
0
3DFACE
8
default
62
253
10
-0.178488
20
0.056656
30
-0.148860
11
-0.173484
21
0.047992
31
-0.151548
12
-0.182148
22
0.052996
32
-0.148860
13
-0.178488
23
0.056656
33
-0.148860
0
3DFACE
8
default
62
253
10
-0.173484
20
0.057988
30
-0.148860
11
-0.173484
21
0.047992
31
-0.151548
12
-0.178488
22
0.056656
32
-0.148860
13
-0.173484
23
0.057988
33
-0.148860
0
3DFACE
8
default
62
30
10
0.150000
20
-0.056000
30
-0.108204
11
0.150000
21
-0.119996
31
-0.108204
12
0.150000
22
-0.119996
32
-0.202200
13
0.150000
23
-0.056000
33
-0.108204
0
3DFACE
8
default
62
30
10
0.150000
20
-0.056000
30
-0.108204
11
0.150000
21
-0.119996
31
-0.202200
12
0.150000
22
-0.056000
32
-0.195276
13
0.150000
23
-0.056000
33
-0.108204
0
3DFACE
8
default
62
30
10
0.042936
20
-0.065996
30
-0.236196
11
-0.042936
21
-0.065996
31
-0.236196
12
-0.045252
22
0.148012
32
-0.216564
13
0.042936
23
-0.065996
33
-0.236196
0
3DFACE
8
default
62
30
10
0.042936
20
-0.065996
30
-0.236196
11
-0.045252
21
0.148012
31
-0.216564
12
0.045252
22
0.148012
32
-0.216564
13
0.042936
23
-0.065996
33
-0.236196
0
3DFACE
8
default
62
30
10
0.042000
20
0.175996
30
-0.244200
11
-0.042000
21
0.175996
31
-0.244200
12
-0.045060
22
0.175996
32
-0.218196
13
0.042000
23
0.175996
33
-0.244200
0
3DFACE
8
default
62
30
10
0.042000
20
0.175996
30
-0.244200
11
-0.045060
21
0.175996
31
-0.218196
12
0.045060
22
0.175996
32
-0.218196
13
0.042000
23
0.175996
33
-0.244200
0
3DFACE
8
default
62
30
10
0.046944
20
0.259996
30
-0.202200
11
-0.046944
21
0.259996
31
-0.202200
12
0.000000
22
0.277000
32
-0.198000
13
0.046944
23
0.259996
33
-0.202200
0
3DFACE
8
default
62
30
10
0.044820
20
0.151996
30
-0.220200
11
-0.044820
21
0.151996
31
-0.220200
12
-0.042000
22
0.151996
32
-0.244200
13
0.044820
23
0.151996
33
-0.220200
0
3DFACE
8
default
62
30
10
0.044820
20
0.151996
30
-0.220200
11
-0.042000
21
0.151996
31
-0.244200
12
0.042000
22
0.151996
32
-0.244200
13
0.044820
23
0.151996
33
-0.220200
0
3DFACE
8
default
62
30
10
0.042000
20
0.259996
30
-0.108204
11
0.042000
21
-0.056000
31
-0.108204
12
0.050004
22
-0.056000
32
-0.176196
13
0.042000
23
0.259996
33
-0.108204
0
3DFACE
8
default
62
30
10
0.042000
20
0.259996
30
-0.108204
11
0.050004
21
-0.056000
31
-0.176196
12
0.050004
22
0.259996
32
-0.176196
13
0.042000
23
0.259996
33
-0.108204
0
3DFACE
8
default
62
30
10
0.045600
20
0.179956
30
-0.213636
11
-0.045600
21
0.179956
31
-0.213636
12
-0.046944
22
0.259996
32
-0.202200
13
0.045600
23
0.179956
33
-0.213636
0
3DFACE
8
default
62
30
10
0.045600
20
0.179956
30
-0.213636
11
-0.046944
21
0.259996
31
-0.202200
12
0.046944
22
0.259996
32
-0.202200
13
0.045600
23
0.179956
33
-0.213636
0
3DFACE
8
default
62
30
10
0.045996
20
-0.112004
30
-0.210204
11
-0.045996
21
-0.112004
31
-0.210204
12
-0.042000
22
-0.104000
32
-0.244200
13
0.045996
23
-0.112004
33
-0.210204
0
3DFACE
8
default
62
30
10
0.045996
20
-0.112004
30
-0.210204
11
-0.042000
21
-0.104000
31
-0.244200
12
0.042000
22
-0.104000
32
-0.244200
13
0.045996
23
-0.112004
33
-0.210204
0
3DFACE
8
default
62
30
10
-0.060000
20
0.000004
30
-0.075996
11
-0.060000
21
0.040000
31
-0.065280
12
0.018000
22
0.040000
32
-0.065280
13
-0.060000
23
0.000004
33
-0.075996
0
3DFACE
8
default
62
30
10
-0.060000
20
0.000004
30
-0.075996
11
0.018000
21
0.040000
31
-0.065280
12
0.018000
22
0.000004
32
-0.075996
13
-0.060000
23
0.000004
33
-0.075996
0
3DFACE
8
default
62
30
10
-0.042000
20
0.079996
30
-0.093732
11
0.000000
21
0.079996
31
-0.093732
12
0.000000
22
0.079996
32
-0.108204
13
-0.042000
23
0.079996
33
-0.093732
0
3DFACE
8
default
62
30
10
-0.042000
20
0.079996
30
-0.093732
11
0.000000
21
0.079996
31
-0.108204
12
-0.042000
22
0.079996
32
-0.108204
13
-0.042000
23
0.079996
33
-0.093732
0
3DFACE
8
default
62
30
10
0.042996
20
0.277000
30
-0.155004
11
0.050004
21
0.259996
31
-0.176196
12
0.037236
22
0.277000
32
-0.176496
13
0.042996
23
0.277000
33
-0.155004
0
3DFACE
8
default
62
30
10
0.050004
20
0.259996
30
-0.176196
11
0.046944
21
0.259996
31
-0.202200
12
-0.046944
22
0.259996
32
-0.202200
13
0.050004
23
0.259996
33
-0.176196
0
3DFACE
8
default
62
30
10
0.050004
20
0.259996
30
-0.176196
11
-0.046944
21
0.259996
31
-0.202200
12
-0.050004
22
0.259996
32
-0.176196
13
0.050004
23
0.259996
33
-0.176196
0
3DFACE
8
default
62
30
10
0.050004
20
0.259996
30
-0.176196
11
-0.050004
21
0.259996
31
-0.176196
12
-0.042000
22
0.259996
32
-0.108204
13
0.050004
23
0.259996
33
-0.176196
0
3DFACE
8
default
62
30
10
0.050004
20
0.259996
30
-0.176196
11
-0.042000
21
0.259996
31
-0.108204
12
0.042000
22
0.259996
32
-0.108204
13
0.050004
23
0.259996
33
-0.176196
0
3DFACE
8
default
62
30
10
0.056004
20
0.361996
30
-0.155004
11
0.048492
21
0.361996
31
-0.126996
12
0.048492
22
0.352000
32
-0.126996
13
0.056004
23
0.361996
33
-0.155004
0
3DFACE
8
default
62
30
10
0.056004
20
0.361996
30
-0.155004
11
0.048492
21
0.352000
31
-0.126996
12
0.056004
22
0.352000
32
-0.155004
13
0.056004
23
0.361996
33
-0.155004
0
3DFACE
8
default
62
30
10
-0.050004
20
0.259996
30
-0.176196
11
-0.042996
21
0.277000
31
-0.155004
12
-0.037236
22
0.277000
32
-0.176496
13
-0.050004
23
0.259996
33
-0.176196
0
3DFACE
8
default
62
30
10
0.042000
20
0.259996
30
-0.108204
11
0.021504
21
0.277000
31
-0.117756
12
0.000000
22
0.277000
32
-0.111996
13
0.042000
23
0.259996
33
-0.108204
0
3DFACE
8
default
62
30
10
0.021504
20
0.352000
30
-0.117756
11
0.000000
21
0.352000
31
-0.111996
12
0.000000
22
0.277000
32
-0.111996
13
0.021504
23
0.352000
33
-0.117756
0
3DFACE
8
default
62
30
10
0.021504
20
0.352000
30
-0.117756
11
0.000000
21
0.277000
31
-0.111996
12
0.021504
22
0.277000
32
-0.117756
13
0.021504
23
0.352000
33
-0.117756
0
3DFACE
8
default
62
30
10
0.045996
20
-0.119996
30
-0.210204
11
-0.045996
21
-0.119996
31
-0.210204
12
-0.045996
22
-0.112004
32
-0.210204
13
0.045996
23
-0.119996
33
-0.210204
0
3DFACE
8
default
62
30
10
0.045996
20
-0.119996
30
-0.210204
11
-0.045996
21
-0.112004
31
-0.210204
12
0.045996
22
-0.112004
32
-0.210204
13
0.045996
23
-0.119996
33
-0.210204
0
3DFACE
8
default
62
30
10
-0.045996
20
0.259996
30
-0.142200
11
-0.042000
21
0.259996
31
-0.108204
12
-0.037236
22
0.277000
32
-0.133500
13
-0.045996
23
0.259996
33
-0.142200
0
3DFACE
8
default
62
30
10
-0.027996
20
0.352000
30
-0.106500
11
-0.048492
21
0.352000
31
-0.126996
12
-0.056004
22
0.352000
32
-0.155004
13
-0.027996
23
0.352000
33
-0.106500
0
3DFACE
8
default
62
30
10
-0.027996
20
0.352000
30
-0.106500
11
-0.056004
21
0.352000
31
-0.155004
12
-0.048492
22
0.352000
32
-0.183000
13
-0.027996
23
0.352000
33
-0.106500
0
3DFACE
8
default
62
30
10
-0.027996
20
0.352000
30
-0.106500
11
-0.048492
21
0.352000
31
-0.183000
12
-0.027996
22
0.352000
32
-0.203496
13
-0.027996
23
0.352000
33
-0.106500
0
3DFACE
8
default
62
30
10
-0.027996
20
0.352000
30
-0.106500
11
-0.027996
21
0.352000
31
-0.203496
12
0.000000
22
0.352000
32
-0.210996
13
-0.027996
23
0.352000
33
-0.106500
0
3DFACE
8
default
62
30
10
-0.027996
20
0.352000
30
-0.106500
11
0.000000
21
0.352000
31
-0.210996
12
0.027996
22
0.352000
32
-0.203496
13
-0.027996
23
0.352000
33
-0.106500
0
3DFACE
8
default
62
30
10
-0.027996
20
0.352000
30
-0.106500
11
0.027996
21
0.352000
31
-0.203496
12
0.048492
22
0.352000
32
-0.183000
13
-0.027996
23
0.352000
33
-0.106500
0
3DFACE
8
default
62
30
10
-0.027996
20
0.352000
30
-0.106500
11
0.048492
21
0.352000
31
-0.183000
12
0.056004
22
0.352000
32
-0.155004
13
-0.027996
23
0.352000
33
-0.106500
0
3DFACE
8
default
62
30
10
-0.027996
20
0.352000
30
-0.106500
11
0.056004
21
0.352000
31
-0.155004
12
0.048492
22
0.352000
32
-0.126996
13
-0.027996
23
0.352000
33
-0.106500
0
3DFACE
8
default
62
30
10
-0.027996
20
0.352000
30
-0.106500
11
0.048492
21
0.352000
31
-0.126996
12
0.027996
22
0.352000
32
-0.106500
13
-0.027996
23
0.352000
33
-0.106500
0
3DFACE
8
default
62
30
10
-0.027996
20
0.352000
30
-0.106500
11
0.027996
21
0.352000
31
-0.106500
12
0.000000
22
0.352000
32
-0.099000
13
-0.027996
23
0.352000
33
-0.106500
0
3DFACE
8
default
62
30
10
0.021504
20
0.352000
30
-0.117756
11
0.037236
21
0.352000
31
-0.133500
12
0.042996
22
0.352000
32
-0.155004
13
0.021504
23
0.352000
33
-0.117756
0
3DFACE
8
default
62
30
10
0.021504
20
0.352000
30
-0.117756
11
0.042996
21
0.352000
31
-0.155004
12
0.037236
22
0.352000
32
-0.176496
13
0.021504
23
0.352000
33
-0.117756
0
3DFACE
8
default
62
30
10
0.021504
20
0.352000
30
-0.117756
11
0.037236
21
0.352000
31
-0.176496
12
0.021504
22
0.352000
32
-0.192240
13
0.021504
23
0.352000
33
-0.117756
0
3DFACE
8
default
62
30
10
0.021504
20
0.352000
30
-0.117756
11
0.021504
21
0.352000
31
-0.192240
12
0.000000
22
0.352000
32
-0.198000
13
0.021504
23
0.352000
33
-0.117756
0
3DFACE
8
default
62
30
10
0.021504
20
0.352000
30
-0.117756
11
0.000000
21
0.352000
31
-0.198000
12
-0.021504
22
0.352000
32
-0.192240
13
0.021504
23
0.352000
33
-0.117756
0
3DFACE
8
default
62
30
10
0.021504
20
0.352000
30
-0.117756
11
-0.021504
21
0.352000
31
-0.192240
12
-0.037236
22
0.352000
32
-0.176496
13
0.021504
23
0.352000
33
-0.117756
0
3DFACE
8
default
62
30
10
0.021504
20
0.352000
30
-0.117756
11
-0.037236
21
0.352000
31
-0.176496
12
-0.042996
22
0.352000
32
-0.155004
13
0.021504
23
0.352000
33
-0.117756
0
3DFACE
8
default
62
30
10
0.021504
20
0.352000
30
-0.117756
11
-0.042996
21
0.352000
31
-0.155004
12
-0.037236
22
0.352000
32
-0.133500
13
0.021504
23
0.352000
33
-0.117756
0
3DFACE
8
default
62
30
10
0.021504
20
0.352000
30
-0.117756
11
-0.037236
21
0.352000
31
-0.133500
12
-0.021504
22
0.352000
32
-0.117756
13
0.021504
23
0.352000
33
-0.117756
0
3DFACE
8
default
62
30
10
0.021504
20
0.352000
30
-0.117756
11
-0.021504
21
0.352000
31
-0.117756
12
0.000000
22
0.352000
32
-0.111996
13
0.021504
23
0.352000
33
-0.117756
0
3DFACE
8
default
62
30
10
-0.060000
20
0.000004
30
0.084000
11
-0.060000
21
-0.040004
31
0.073284
12
0.018000
22
-0.040004
32
0.073284
13
-0.060000
23
0.000004
33
0.084000
0
3DFACE
8
default
62
30
10
-0.060000
20
0.000004
30
0.084000
11
0.018000
21
-0.040004
31
0.073284
12
0.018000
22
0.000004
32
0.084000
13
-0.060000
23
0.000004
33
0.084000
0
3DFACE
8
default
62
30
10
0.000000
20
0.079996
30
-0.093732
11
-0.042000
21
0.079996
31
-0.093732
12
-0.060000
22
0.069280
32
-0.036000
13
0.000000
23
0.079996
33
-0.093732
0
3DFACE
8
default
62
30
10
0.037236
20
0.352000
30
-0.176496
11
0.042996
21
0.352000
31
-0.155004
12
0.042996
22
0.277000
32
-0.155004
13
0.037236
23
0.352000
33
-0.176496
0
3DFACE
8
default
62
30
10
0.037236
20
0.352000
30
-0.176496
11
0.042996
21
0.277000
31
-0.155004
12
0.037236
22
0.277000
32
-0.176496
13
0.037236
23
0.352000
33
-0.176496
0
3DFACE
8
default
62
30
10
0.018000
20
-0.040004
30
-0.065280
11
0.000000
21
-0.119996
31
-0.095004
12
0.018000
22
0.000004
32
-0.075996
13
0.018000
23
-0.040004
33
-0.065280
0
3DFACE
8
default
62
30
10
-0.037236
20
0.352000
30
-0.176496
11
-0.021504
21
0.352000
31
-0.192240
12
-0.021504
22
0.277000
32
-0.192240
13
-0.037236
23
0.352000
33
-0.176496
0
3DFACE
8
default
62
30
10
-0.037236
20
0.352000
30
-0.176496
11
-0.021504
21
0.277000
31
-0.192240
12
-0.037236
22
0.277000
32
-0.176496
13
-0.037236
23
0.352000
33
-0.176496
0
3DFACE
8
default
62
30
10
0.042000
20
0.259996
30
-0.108204
11
0.000000
21
0.277000
31
-0.111996
12
-0.042000
22
0.259996
32
-0.108204
13
0.042000
23
0.259996
33
-0.108204
0
3DFACE
8
default
62
30
10
-0.060000
20
-0.040004
30
-0.065280
11
-0.060000
21
0.000004
31
-0.075996
12
-0.042000
22
-0.119996
32
-0.095004
13
-0.060000
23
-0.040004
33
-0.065280
0
3DFACE
8
default
62
30
10
0.000000
20
0.361996
30
-0.210996
11
0.027996
21
0.361996
31
-0.203496
12
0.027996
22
0.352000
32
-0.203496
13
0.000000
23
0.361996
33
-0.210996
0
3DFACE
8
default
62
30
10
0.000000
20
0.361996
30
-0.210996
11
0.027996
21
0.352000
31
-0.203496
12
0.000000
22
0.352000
32
-0.210996
13
0.000000
23
0.361996
33
-0.210996
0
3DFACE
8
default
62
30
10
0.045252
20
0.148012
30
-0.216564
11
-0.045252
21
0.148012
31
-0.216564
12
-0.044820
22
0.151996
32
-0.220200
13
0.045252
23
0.148012
33
-0.216564
0
3DFACE
8
default
62
30
10
0.045252
20
0.148012
30
-0.216564
11
-0.044820
21
0.151996
31
-0.220200
12
0.044820
22
0.151996
32
-0.220200
13
0.045252
23
0.148012
33
-0.216564
0
3DFACE
8
default
62
30
10
0.042000
20
0.259996
30
-0.108204
11
0.045996
21
0.259996
31
-0.142200
12
0.037236
22
0.277000
32
-0.133500
13
0.042000
23
0.259996
33
-0.108204
0
3DFACE
8
default
62
30
10
0.000000
20
0.277000
30
-0.198000
11
-0.046944
21
0.259996
31
-0.202200
12
-0.021504
22
0.277000
32
-0.192240
13
0.000000
23
0.277000
33
-0.198000
0
3DFACE
8
default
62
30
10
-0.042996
20
0.277000
30
-0.155004
11
-0.050004
21
0.259996
31
-0.176196
12
-0.045996
22
0.259996
32
-0.142200
13
-0.042996
23
0.277000
33
-0.155004
0
3DFACE
8
default
62
30
10
0.021504
20
0.277000
30
-0.192240
11
0.046944
21
0.259996
31
-0.202200
12
0.000000
22
0.277000
32
-0.198000
13
0.021504
23
0.277000
33
-0.192240
0
3DFACE
8
default
62
30
10
0.037236
20
0.277000
30
-0.176496
11
0.046944
21
0.259996
31
-0.202200
12
0.021504
22
0.277000
32
-0.192240
13
0.037236
23
0.277000
33
-0.176496
0
3DFACE
8
default
62
30
10
0.000000
20
0.352000
30
-0.111996
11
-0.021504
21
0.352000
31
-0.117756
12
-0.021504
22
0.277000
32
-0.117756
13
0.000000
23
0.352000
33
-0.111996
0
3DFACE
8
default
62
30
10
0.000000
20
0.352000
30
-0.111996
11
-0.021504
21
0.277000
31
-0.117756
12
0.000000
22
0.277000
32
-0.111996
13
0.000000
23
0.352000
33
-0.111996
0
3DFACE
8
default
62
30
10
-0.021504
20
0.277000
30
-0.192240
11
-0.046944
21
0.259996
31
-0.202200
12
-0.037236
22
0.277000
32
-0.176496
13
-0.021504
23
0.277000
33
-0.192240
0
3DFACE
8
default
62
30
10
0.018000
20
0.069280
30
-0.036000
11
0.000000
21
0.079996
31
-0.093732
12
-0.060000
22
0.069280
32
-0.036000
13
0.018000
23
0.069280
33
-0.036000
0
3DFACE
8
default
62
30
10
0.021504
20
0.352000
30
-0.192240
11
0.037236
21
0.352000
31
-0.176496
12
0.037236
22
0.277000
32
-0.176496
13
0.021504
23
0.352000
33
-0.192240
0
3DFACE
8
default
62
30
10
0.021504
20
0.352000
30
-0.192240
11
0.037236
21
0.277000
31
-0.176496
12
0.021504
22
0.277000
32
-0.192240
13
0.021504
23
0.352000
33
-0.192240
0
3DFACE
8
default
62
30
10
-0.042000
20
0.259996
30
-0.108204
11
-0.021504
21
0.277000
31
-0.117756
12
-0.037236
22
0.277000
32
-0.133500
13
-0.042000
23
0.259996
33
-0.108204
0
3DFACE
8
default
62
30
10
-0.048492
20
0.361996
30
-0.183000
11
-0.027996
21
0.361996
31
-0.203496
12
-0.027996
22
0.352000
32
-0.203496
13
-0.048492
23
0.361996
33
-0.183000
0
3DFACE
8
default
62
30
10
-0.048492
20
0.361996
30
-0.183000
11
-0.027996
21
0.352000
31
-0.203496
12
-0.048492
22
0.352000
32
-0.183000
13
-0.048492
23
0.361996
33
-0.183000
0
3DFACE
8
default
62
30
10
-0.048492
20
0.361996
30
-0.126996
11
-0.056004
21
0.361996
31
-0.155004
12
-0.056004
22
0.352000
32
-0.155004
13
-0.048492
23
0.361996
33
-0.126996
0
3DFACE
8
default
62
30
10
-0.048492
20
0.361996
30
-0.126996
11
-0.056004
21
0.352000
31
-0.155004
12
-0.048492
22
0.352000
32
-0.126996
13
-0.048492
23
0.361996
33
-0.126996
0
3DFACE
8
default
62
30
10
-0.027996
20
0.361996
30
-0.106500
11
-0.048492
21
0.361996
31
-0.126996
12
-0.048492
22
0.352000
32
-0.126996
13
-0.027996
23
0.361996
33
-0.106500
0
3DFACE
8
default
62
30
10
-0.027996
20
0.361996
30
-0.106500
11
-0.048492
21
0.352000
31
-0.126996
12
-0.027996
22
0.352000
32
-0.106500
13
-0.027996
23
0.361996
33
-0.106500
0
3DFACE
8
default
62
30
10
-0.021504
20
0.352000
30
-0.117756
11
-0.037236
21
0.352000
31
-0.133500
12
-0.037236
22
0.277000
32
-0.133500
13
-0.021504
23
0.352000
33
-0.117756
0
3DFACE
8
default
62
30
10
-0.021504
20
0.352000
30
-0.117756
11
-0.037236
21
0.277000
31
-0.133500
12
-0.021504
22
0.277000
32
-0.117756
13
-0.021504
23
0.352000
33
-0.117756
0
3DFACE
8
default
62
30
10
-0.042000
20
-0.119996
30
-0.093732
11
0.000000
21
-0.119996
31
-0.093732
12
0.000000
22
0.079996
32
-0.093732
13
-0.042000
23
-0.119996
33
-0.093732
0
3DFACE
8
default
62
30
10
-0.042000
20
-0.119996
30
-0.093732
11
0.000000
21
0.079996
31
-0.093732
12
-0.042000
22
0.079996
32
-0.093732
13
-0.042000
23
-0.119996
33
-0.093732
0
3DFACE
8
default
62
30
10
0.000000
20
0.079996
30
-0.093732
11
0.000000
21
-0.119996
31
-0.093732
12
0.000000
22
-0.119996
32
-0.108204
13
0.000000
23
0.079996
33
-0.093732
0
3DFACE
8
default
62
30
10
0.000000
20
0.079996
30
-0.093732
11
0.000000
21
-0.119996
31
-0.108204
12
0.000000
22
0.079996
32
-0.108204
13
0.000000
23
0.079996
33
-0.093732
0
3DFACE
8
default
62
30
10
0.042996
20
0.352000
30
-0.155004
11
0.037236
21
0.352000
31
-0.133500
12
0.037236
22
0.277000
32
-0.133500
13
0.042996
23
0.352000
33
-0.155004
0
3DFACE
8
default
62
30
10
0.042996
20
0.352000
30
-0.155004
11
0.037236
21
0.277000
31
-0.133500
12
0.042996
22
0.277000
32
-0.155004
13
0.042996
23
0.352000
33
-0.155004
0
3DFACE
8
default
62
30
10
0.027996
20
0.361996
30
-0.203496
11
0.048492
21
0.361996
31
-0.183000
12
0.048492
22
0.352000
32
-0.183000
13
0.027996
23
0.361996
33
-0.203496
0
3DFACE
8
default
62
30
10
0.027996
20
0.361996
30
-0.203496
11
0.048492
21
0.352000
31
-0.183000
12
0.027996
22
0.352000
32
-0.203496
13
0.027996
23
0.361996
33
-0.203496
0
3DFACE
8
default
62
30
10
0.000000
20
0.352000
30
-0.198000
11
0.021504
21
0.352000
31
-0.192240
12
0.021504
22
0.277000
32
-0.192240
13
0.000000
23
0.352000
33
-0.198000
0
3DFACE
8
default
62
30
10
0.000000
20
0.352000
30
-0.198000
11
0.021504
21
0.277000
31
-0.192240
12
0.000000
22
0.277000
32
-0.198000
13
0.000000
23
0.352000
33
-0.198000
0
3DFACE
8
default
62
30
10
-0.021504
20
0.352000
30
-0.192240
11
0.000000
21
0.352000
31
-0.198000
12
0.000000
22
0.277000
32
-0.198000
13
-0.021504
23
0.352000
33
-0.192240
0
3DFACE
8
default
62
30
10
-0.021504
20
0.352000
30
-0.192240
11
0.000000
21
0.277000
31
-0.198000
12
-0.021504
22
0.277000
32
-0.192240
13
-0.021504
23
0.352000
33
-0.192240
0
3DFACE
8
default
62
30
10
0.018000
20
-0.069284
30
-0.036000
11
0.000000
21
-0.119996
31
-0.095004
12
0.018000
22
-0.040004
32
-0.065280
13
0.018000
23
-0.069284
33
-0.036000
0
3DFACE
8
default
62
30
10
0.000000
20
0.079996
30
-0.108204
11
0.000000
21
-0.119996
31
-0.108204
12
-0.042000
22
-0.119996
32
-0.108204
13
0.000000
23
0.079996
33
-0.108204
0
3DFACE
8
default
62
30
10
0.000000
20
0.079996
30
-0.108204
11
-0.042000
21
-0.119996
31
-0.108204
12
-0.042000
22
0.079996
32
-0.108204
13
0.000000
23
0.079996
33
-0.108204
0
3DFACE
8
default
62
30
10
-0.060000
20
0.000004
30
-0.075996
11
-0.042000
21
0.079996
31
-0.093732
12
-0.042000
22
-0.119996
32
-0.095004
13
-0.060000
23
0.000004
33
-0.075996
0
3DFACE
8
default
62
30
10
-0.060000
20
0.040000
30
-0.065280
11
-0.042000
21
0.079996
31
-0.093732
12
-0.060000
22
0.000004
32
-0.075996
13
-0.060000
23
0.040000
33
-0.065280
0
3DFACE
8
default
62
30
10
-0.056004
20
0.361996
30
-0.155004
11
-0.048492
21
0.361996
31
-0.183000
12
-0.048492
22
0.352000
32
-0.183000
13
-0.056004
23
0.361996
33
-0.155004
0
3DFACE
8
default
62
30
10
-0.056004
20
0.361996
30
-0.155004
11
-0.048492
21
0.352000
31
-0.183000
12
-0.056004
22
0.352000
32
-0.155004
13
-0.056004
23
0.361996
33
-0.155004
0
3DFACE
8
default
62
30
10
0.000000
20
0.361996
30
-0.099000
11
-0.027996
21
0.361996
31
-0.106500
12
-0.027996
22
0.352000
32
-0.106500
13
0.000000
23
0.361996
33
-0.099000
0
3DFACE
8
default
62
30
10
0.000000
20
0.361996
30
-0.099000
11
-0.027996
21
0.352000
31
-0.106500
12
0.000000
22
0.352000
32
-0.099000
13
0.000000
23
0.361996
33
-0.099000
0
3DFACE
8
default
62
30
10
-0.042000
20
-0.119996
30
-0.093732
11
-0.042000
21
0.079996
31
-0.093732
12
-0.042000
22
0.079996
32
-0.108204
13
-0.042000
23
-0.119996
33
-0.093732
0
3DFACE
8
default
62
30
10
-0.042000
20
-0.119996
30
-0.093732
11
-0.042000
21
0.079996
31
-0.108204
12
-0.042000
22
-0.119996
32
-0.108204
13
-0.042000
23
-0.119996
33
-0.093732
0
3DFACE
8
default
62
30
10
-0.060000
20
0.040000
30
-0.065280
11
-0.060000
21
0.069280
31
-0.036000
12
0.018000
22
0.069280
32
-0.036000
13
-0.060000
23
0.040000
33
-0.065280
0
3DFACE
8
default
62
30
10
-0.060000
20
0.040000
30
-0.065280
11
0.018000
21
0.069280
31
-0.036000
12
0.018000
22
0.040000
32
-0.065280
13
-0.060000
23
0.040000
33
-0.065280
0
3DFACE
8
default
62
30
10
0.000000
20
-0.119996
30
-0.095004
11
0.000000
21
0.079996
31
-0.093732
12
0.018000
22
0.000004
32
-0.075996
13
0.000000
23
-0.119996
33
-0.095004
0
3DFACE
8
default
62
30
10
-0.060000
20
-0.069284
30
-0.036000
11
-0.042000
21
-0.119996
31
-0.095004
12
0.018000
22
-0.069284
32
-0.036000
13
-0.060000
23
-0.069284
33
-0.036000
0
3DFACE
8
default
62
30
10
-0.060000
20
0.069280
30
-0.036000
11
-0.060000
21
0.040000
31
-0.065280
12
-0.060000
22
0.000004
32
-0.075996
13
-0.060000
23
0.069280
33
-0.036000
0
3DFACE
8
default
62
30
10
-0.060000
20
0.069280
30
-0.036000
11
-0.060000
21
0.000004
31
-0.075996
12
-0.060000
22
-0.040004
32
-0.065280
13
-0.060000
23
0.069280
33
-0.036000
0
3DFACE
8
default
62
30
10
-0.060000
20
0.069280
30
-0.036000
11
-0.060000
21
-0.040004
31
-0.065280
12
-0.060000
22
-0.069284
32
-0.036000
13
-0.060000
23
0.069280
33
-0.036000
0
3DFACE
8
default
62
30
10
-0.060000
20
0.069280
30
-0.036000
11
-0.060000
21
-0.069284
31
-0.036000
12
-0.060000
22
-0.080000
32
0.003996
13
-0.060000
23
0.069280
33
-0.036000
0
3DFACE
8
default
62
30
10
-0.060000
20
0.069280
30
-0.036000
11
-0.060000
21
-0.080000
31
0.003996
12
-0.060000
22
-0.069284
32
0.044004
13
-0.060000
23
0.069280
33
-0.036000
0
3DFACE
8
default
62
30
10
-0.060000
20
0.069280
30
-0.036000
11
-0.060000
21
-0.069284
31
0.044004
12
-0.060000
22
-0.040004
32
0.073284
13
-0.060000
23
0.069280
33
-0.036000
0
3DFACE
8
default
62
30
10
-0.060000
20
0.069280
30
-0.036000
11
-0.060000
21
-0.040004
31
0.073284
12
-0.060000
22
0.000004
32
0.084000
13
-0.060000
23
0.069280
33
-0.036000
0
3DFACE
8
default
62
30
10
-0.060000
20
0.069280
30
-0.036000
11
-0.060000
21
0.000004
31
0.084000
12
-0.060000
22
0.040000
32
0.073284
13
-0.060000
23
0.069280
33
-0.036000
0
3DFACE
8
default
62
30
10
-0.060000
20
0.069280
30
-0.036000
11
-0.060000
21
0.040000
31
0.073284
12
-0.060000
22
0.069280
32
0.044004
13
-0.060000
23
0.069280
33
-0.036000
0
3DFACE
8
default
62
30
10
-0.060000
20
0.069280
30
-0.036000
11
-0.060000
21
0.069280
31
0.044004
12
-0.060000
22
0.079996
32
0.003996
13
-0.060000
23
0.069280
33
-0.036000
0
3DFACE
8
default
62
30
10
-0.060000
20
-0.069284
30
-0.036000
11
-0.060000
21
-0.040004
31
-0.065280
12
0.018000
22
-0.040004
32
-0.065280
13
-0.060000
23
-0.069284
33
-0.036000
0
3DFACE
8
default
62
30
10
-0.060000
20
-0.069284
30
-0.036000
11
0.018000
21
-0.040004
31
-0.065280
12
0.018000
22
-0.069284
32
-0.036000
13
-0.060000
23
-0.069284
33
-0.036000
0
3DFACE
8
default
62
30
10
-0.060000
20
-0.080000
30
0.003996
11
-0.060000
21
-0.069284
31
-0.036000
12
0.018000
22
-0.069284
32
-0.036000
13
-0.060000
23
-0.080000
33
0.003996
0
3DFACE
8
default
62
30
10
-0.060000
20
-0.080000
30
0.003996
11
0.018000
21
-0.069284
31
-0.036000
12
0.018000
22
-0.080000
32
0.003996
13
-0.060000
23
-0.080000
33
0.003996
0
3DFACE
8
default
62
30
10
-0.060000
20
-0.069284
30
0.044004
11
-0.060000
21
-0.080000
31
0.003996
12
0.018000
22
-0.080000
32
0.003996
13
-0.060000
23
-0.069284
33
0.044004
0
3DFACE
8
default
62
30
10
-0.060000
20
-0.069284
30
0.044004
11
0.018000
21
-0.080000
31
0.003996
12
0.018000
22
-0.069284
32
0.044004
13
-0.060000
23
-0.069284
33
0.044004
0
3DFACE
8
default
62
30
10
-0.060000
20
-0.040004
30
0.073284
11
-0.060000
21
-0.069284
31
0.044004
12
0.018000
22
-0.069284
32
0.044004
13
-0.060000
23
-0.040004
33
0.073284
0
3DFACE
8
default
62
30
10
-0.060000
20
-0.040004
30
0.073284
11
0.018000
21
-0.069284
31
0.044004
12
0.018000
22
-0.040004
32
0.073284
13
-0.060000
23
-0.040004
33
0.073284
0
3DFACE
8
default
62
30
10
-0.060000
20
0.040000
30
0.073284
11
-0.060000
21
0.000004
31
0.084000
12
0.018000
22
0.000004
32
0.084000
13
-0.060000
23
0.040000
33
0.073284
0
3DFACE
8
default
62
30
10
-0.060000
20
0.040000
30
0.073284
11
0.018000
21
0.000004
31
0.084000
12
0.018000
22
0.040000
32
0.073284
13
-0.060000
23
0.040000
33
0.073284
0
3DFACE
8
default
62
30
10
-0.060000
20
0.079996
30
0.003996
11
-0.060000
21
0.069280
31
0.044004
12
0.018000
22
0.069280
32
0.044004
13
-0.060000
23
0.079996
33
0.003996
0
3DFACE
8
default
62
30
10
-0.060000
20
0.079996
30
0.003996
11
0.018000
21
0.069280
31
0.044004
12
0.018000
22
0.079996
32
0.003996
13
-0.060000
23
0.079996
33
0.003996
0
3DFACE
8
default
62
30
10
0.018000
20
0.069280
30
0.044004
11
0.018000
21
0.040000
31
0.073284
12
0.018000
22
0.000004
32
0.084000
13
0.018000
23
0.069280
33
0.044004
0
3DFACE
8
default
62
30
10
0.018000
20
0.069280
30
0.044004
11
0.018000
21
0.000004
31
0.084000
12
0.018000
22
-0.040004
32
0.073284
13
0.018000
23
0.069280
33
0.044004
0
3DFACE
8
default
62
30
10
0.018000
20
0.069280
30
0.044004
11
0.018000
21
-0.040004
31
0.073284
12
0.018000
22
-0.069284
32
0.044004
13
0.018000
23
0.069280
33
0.044004
0
3DFACE
8
default
62
30
10
0.018000
20
0.069280
30
0.044004
11
0.018000
21
-0.069284
31
0.044004
12
0.018000
22
-0.080000
32
0.003996
13
0.018000
23
0.069280
33
0.044004
0
3DFACE
8
default
62
30
10
0.018000
20
0.069280
30
0.044004
11
0.018000
21
-0.080000
31
0.003996
12
0.018000
22
-0.069284
32
-0.036000
13
0.018000
23
0.069280
33
0.044004
0
3DFACE
8
default
62
30
10
0.018000
20
0.069280
30
0.044004
11
0.018000
21
-0.069284
31
-0.036000
12
0.018000
22
-0.040004
32
-0.065280
13
0.018000
23
0.069280
33
0.044004
0
3DFACE
8
default
62
30
10
0.018000
20
0.069280
30
0.044004
11
0.018000
21
-0.040004
31
-0.065280
12
0.018000
22
0.000004
32
-0.075996
13
0.018000
23
0.069280
33
0.044004
0
3DFACE
8
default
62
30
10
0.018000
20
0.069280
30
0.044004
11
0.018000
21
0.000004
31
-0.075996
12
0.018000
22
0.040000
32
-0.065280
13
0.018000
23
0.069280
33
0.044004
0
3DFACE
8
default
62
30
10
0.018000
20
0.069280
30
0.044004
11
0.018000
21
0.040000
31
-0.065280
12
0.018000
22
0.069280
32
-0.036000
13
0.018000
23
0.069280
33
0.044004
0
3DFACE
8
default
62
30
10
0.018000
20
0.069280
30
0.044004
11
0.018000
21
0.069280
31
-0.036000
12
0.018000
22
0.079996
32
0.003996
13
0.018000
23
0.069280
33
0.044004
0
3DFACE
8
default
62
30
10
-0.060000
20
0.069280
30
-0.036000
11
-0.042000
21
0.079996
31
-0.093732
12
-0.060000
22
0.040000
32
-0.065280
13
-0.060000
23
0.069280
33
-0.036000
0
3DFACE
8
default
62
30
10
-0.060000
20
-0.040004
30
-0.065280
11
-0.060000
21
0.000004
31
-0.075996
12
0.018000
22
0.000004
32
-0.075996
13
-0.060000
23
-0.040004
33
-0.065280
0
3DFACE
8
default
62
30
10
-0.060000
20
-0.040004
30
-0.065280
11
0.018000
21
0.000004
31
-0.075996
12
0.018000
22
-0.040004
32
-0.065280
13
-0.060000
23
-0.040004
33
-0.065280
0
3DFACE
8
default
62
30
10
-0.060000
20
-0.069284
30
-0.036000
11
-0.060000
21
-0.040004
31
-0.065280
12
-0.042000
22
-0.119996
32
-0.095004
13
-0.060000
23
-0.069284
33
-0.036000
0
3DFACE
8
default
62
30
10
0.027996
20
0.361996
30
-0.106500
11
0.000000
21
0.361996
31
-0.099000
12
0.000000
22
0.352000
32
-0.099000
13
0.027996
23
0.361996
33
-0.106500
0
3DFACE
8
default
62
30
10
0.027996
20
0.361996
30
-0.106500
11
0.000000
21
0.352000
31
-0.099000
12
0.027996
22
0.352000
32
-0.106500
13
0.027996
23
0.361996
33
-0.106500
0
3DFACE
8
default
62
30
10
-0.042996
20
0.352000
30
-0.155004
11
-0.037236
21
0.352000
31
-0.176496
12
-0.037236
22
0.277000
32
-0.176496
13
-0.042996
23
0.352000
33
-0.155004
0
3DFACE
8
default
62
30
10
-0.042996
20
0.352000
30
-0.155004
11
-0.037236
21
0.277000
31
-0.176496
12
-0.042996
22
0.277000
32
-0.155004
13
-0.042996
23
0.352000
33
-0.155004
0
3DFACE
8
default
62
30
10
-0.042000
20
0.259996
30
-0.108204
11
0.000000
21
0.277000
31
-0.111996
12
-0.021504
22
0.277000
32
-0.117756
13
-0.042000
23
0.259996
33
-0.108204
0
3DFACE
8
default
62
30
10
0.021504
20
0.277000
30
-0.117756
11
0.042000
21
0.259996
31
-0.108204
12
0.037236
22
0.277000
32
-0.133500
13
0.021504
23
0.277000
33
-0.117756
0
3DFACE
8
default
62
30
10
0.037236
20
0.352000
30
-0.133500
11
0.021504
21
0.352000
31
-0.117756
12
0.021504
22
0.277000
32
-0.117756
13
0.037236
23
0.352000
33
-0.133500
0
3DFACE
8
default
62
30
10
0.037236
20
0.352000
30
-0.133500
11
0.021504
21
0.277000
31
-0.117756
12
0.037236
22
0.277000
32
-0.133500
13
0.037236
23
0.352000
33
-0.133500
0
3DFACE
8
default
62
30
10
-0.050004
20
0.259996
30
-0.176196
11
-0.037236
21
0.277000
31
-0.176496
12
-0.046944
22
0.259996
32
-0.202200
13
-0.050004
23
0.259996
33
-0.176196
0
3DFACE
8
default
62
30
10
0.027996
20
0.361996
30
-0.106500
11
0.048492
21
0.361996
31
-0.126996
12
0.056004
22
0.361996
32
-0.155004
13
0.027996
23
0.361996
33
-0.106500
0
3DFACE
8
default
62
30
10
0.027996
20
0.361996
30
-0.106500
11
0.056004
21
0.361996
31
-0.155004
12
0.048492
22
0.361996
32
-0.183000
13
0.027996
23
0.361996
33
-0.106500
0
3DFACE
8
default
62
30
10
0.027996
20
0.361996
30
-0.106500
11
0.048492
21
0.361996
31
-0.183000
12
0.027996
22
0.361996
32
-0.203496
13
0.027996
23
0.361996
33
-0.106500
0
3DFACE
8
default
62
30
10
0.027996
20
0.361996
30
-0.106500
11
0.027996
21
0.361996
31
-0.203496
12
0.000000
22
0.361996
32
-0.210996
13
0.027996
23
0.361996
33
-0.106500
0
3DFACE
8
default
62
30
10
0.027996
20
0.361996
30
-0.106500
11
0.000000
21
0.361996
31
-0.210996
12
-0.027996
22
0.361996
32
-0.203496
13
0.027996
23
0.361996
33
-0.106500
0
3DFACE
8
default
62
30
10
0.027996
20
0.361996
30
-0.106500
11
-0.027996
21
0.361996
31
-0.203496
12
-0.048492
22
0.361996
32
-0.183000
13
0.027996
23
0.361996
33
-0.106500
0
3DFACE
8
default
62
30
10
0.027996
20
0.361996
30
-0.106500
11
-0.048492
21
0.361996
31
-0.183000
12
-0.056004
22
0.361996
32
-0.155004
13
0.027996
23
0.361996
33
-0.106500
0
3DFACE
8
default
62
30
10
0.027996
20
0.361996
30
-0.106500
11
-0.056004
21
0.361996
31
-0.155004
12
-0.048492
22
0.361996
32
-0.126996
13
0.027996
23
0.361996
33
-0.106500
0
3DFACE
8
default
62
30
10
0.027996
20
0.361996
30
-0.106500
11
-0.048492
21
0.361996
31
-0.126996
12
-0.027996
22
0.361996
32
-0.106500
13
0.027996
23
0.361996
33
-0.106500
0
3DFACE
8
default
62
30
10
0.027996
20
0.361996
30
-0.106500
11
-0.027996
21
0.361996
31
-0.106500
12
0.000000
22
0.361996
32
-0.099000
13
0.027996
23
0.361996
33
-0.106500
0
3DFACE
8
default
62
30
10
-0.021504
20
0.277000
30
-0.117756
11
-0.037236
21
0.277000
31
-0.133500
12
-0.042996
22
0.277000
32
-0.155004
13
-0.021504
23
0.277000
33
-0.117756
0
3DFACE
8
default
62
30
10
-0.021504
20
0.277000
30
-0.117756
11
-0.042996
21
0.277000
31
-0.155004
12
-0.037236
22
0.277000
32
-0.176496
13
-0.021504
23
0.277000
33
-0.117756
0
3DFACE
8
default
62
30
10
-0.021504
20
0.277000
30
-0.117756
11
-0.037236
21
0.277000
31
-0.176496
12
-0.021504
22
0.277000
32
-0.192240
13
-0.021504
23
0.277000
33
-0.117756
0
3DFACE
8
default
62
30
10
-0.021504
20
0.277000
30
-0.117756
11
-0.021504
21
0.277000
31
-0.192240
12
0.000000
22
0.277000
32
-0.198000
13
-0.021504
23
0.277000
33
-0.117756
0
3DFACE
8
default
62
30
10
-0.021504
20
0.277000
30
-0.117756
11
0.000000
21
0.277000
31
-0.198000
12
0.021504
22
0.277000
32
-0.192240
13
-0.021504
23
0.277000
33
-0.117756
0
3DFACE
8
default
62
30
10
-0.021504
20
0.277000
30
-0.117756
11
0.021504
21
0.277000
31
-0.192240
12
0.037236
22
0.277000
32
-0.176496
13
-0.021504
23
0.277000
33
-0.117756
0
3DFACE
8
default
62
30
10
-0.021504
20
0.277000
30
-0.117756
11
0.037236
21
0.277000
31
-0.176496
12
0.042996
22
0.277000
32
-0.155004
13
-0.021504
23
0.277000
33
-0.117756
0
3DFACE
8
default
62
30
10
-0.021504
20
0.277000
30
-0.117756
11
0.042996
21
0.277000
31
-0.155004
12
0.037236
22
0.277000
32
-0.133500
13
-0.021504
23
0.277000
33
-0.117756
0
3DFACE
8
default
62
30
10
-0.021504
20
0.277000
30
-0.117756
11
0.037236
21
0.277000
31
-0.133500
12
0.021504
22
0.277000
32
-0.117756
13
-0.021504
23
0.277000
33
-0.117756
0
3DFACE
8
default
62
30
10
-0.021504
20
0.277000
30
-0.117756
11
0.021504
21
0.277000
31
-0.117756
12
0.000000
22
0.277000
32
-0.111996
13
-0.021504
23
0.277000
33
-0.117756
0
3DFACE
8
default
62
30
10
0.042000
20
-0.104000
30
-0.244200
11
-0.042000
21
-0.104000
31
-0.244200
12
-0.042000
22
-0.071996
32
-0.244200
13
0.042000
23
-0.104000
33
-0.244200
0
3DFACE
8
default
62
30
10
0.042000
20
-0.104000
30
-0.244200
11
-0.042000
21
-0.071996
31
-0.244200
12
0.042000
22
-0.071996
32
-0.244200
13
0.042000
23
-0.104000
33
-0.244200
0
3DFACE
8
default
62
30
10
0.048492
20
0.361996
30
-0.126996
11
0.027996
21
0.361996
31
-0.106500
12
0.027996
22
0.352000
32
-0.106500
13
0.048492
23
0.361996
33
-0.126996
0
3DFACE
8
default
62
30
10
0.048492
20
0.361996
30
-0.126996
11
0.027996
21
0.352000
31
-0.106500
12
0.048492
22
0.352000
32
-0.126996
13
0.048492
23
0.361996
33
-0.126996
0
3DFACE
8
default
62
30
10
0.000000
20
-0.119996
30
-0.093732
11
-0.042000
21
-0.119996
31
-0.093732
12
-0.042000
22
-0.119996
32
-0.108204
13
0.000000
23
-0.119996
33
-0.093732
0
3DFACE
8
default
62
30
10
0.000000
20
-0.119996
30
-0.093732
11
-0.042000
21
-0.119996
31
-0.108204
12
0.000000
22
-0.119996
32
-0.108204
13
0.000000
23
-0.119996
33
-0.093732
0
3DFACE
8
default
62
30
10
0.045060
20
0.175996
30
-0.218196
11
-0.045060
21
0.175996
31
-0.218196
12
-0.045600
22
0.179956
32
-0.213636
13
0.045060
23
0.175996
33
-0.218196
0
3DFACE
8
default
62
30
10
0.045060
20
0.175996
30
-0.218196
11
-0.045600
21
0.179956
31
-0.213636
12
0.045600
22
0.179956
32
-0.213636
13
0.045060
23
0.175996
33
-0.218196
0
3DFACE
8
default
62
30
10
0.048492
20
0.361996
30
-0.183000
11
0.056004
21
0.361996
31
-0.155004
12
0.056004
22
0.352000
32
-0.155004
13
0.048492
23
0.361996
33
-0.183000
0
3DFACE
8
default
62
30
10
0.048492
20
0.361996
30
-0.183000
11
0.056004
21
0.352000
31
-0.155004
12
0.048492
22
0.352000
32
-0.183000
13
0.048492
23
0.361996
33
-0.183000
0
3DFACE
8
default
62
30
10
0.037236
20
0.277000
30
-0.133500
11
0.045996
21
0.259996
31
-0.142200
12
0.042996
22
0.277000
32
-0.155004
13
0.037236
23
0.277000
33
-0.133500
0
3DFACE
8
default
62
30
10
0.018000
20
0.000004
30
-0.075996
11
0.000000
21
0.079996
31
-0.093732
12
0.018000
22
0.040000
32
-0.065280
13
0.018000
23
0.000004
33
-0.075996
0
3DFACE
8
default
62
30
10
-0.027996
20
0.361996
30
-0.203496
11
0.000000
21
0.361996
31
-0.210996
12
0.000000
22
0.352000
32
-0.210996
13
-0.027996
23
0.361996
33
-0.203496
0
3DFACE
8
default
62
30
10
-0.027996
20
0.361996
30
-0.203496
11
0.000000
21
0.352000
31
-0.210996
12
-0.027996
22
0.352000
32
-0.203496
13
-0.027996
23
0.361996
33
-0.203496
0
3DFACE
8
default
62
30
10
0.042000
20
-0.071996
30
-0.244200
11
-0.042000
21
-0.071996
31
-0.244200
12
-0.042936
22
-0.065996
32
-0.236196
13
0.042000
23
-0.071996
33
-0.244200
0
3DFACE
8
default
62
30
10
0.042000
20
-0.071996
30
-0.244200
11
-0.042936
21
-0.065996
31
-0.236196
12
0.042936
22
-0.065996
32
-0.236196
13
0.042000
23
-0.071996
33
-0.244200
0
3DFACE
8
default
62
30
10
-0.037236
20
0.277000
30
-0.176496
11
-0.042996
21
0.277000
31
-0.155004
12
-0.037236
22
0.277000
32
-0.133500
13
-0.037236
23
0.277000
33
-0.176496
0
3DFACE
8
default
62
30
10
-0.037236
20
0.277000
30
-0.176496
11
-0.037236
21
0.277000
31
-0.133500
12
-0.021504
22
0.277000
32
-0.117756
13
-0.037236
23
0.277000
33
-0.176496
0
3DFACE
8
default
62
30
10
-0.037236
20
0.277000
30
-0.176496
11
-0.021504
21
0.277000
31
-0.117756
12
0.000000
22
0.277000
32
-0.111996
13
-0.037236
23
0.277000
33
-0.176496
0
3DFACE
8
default
62
30
10
-0.037236
20
0.277000
30
-0.176496
11
0.000000
21
0.277000
31
-0.111996
12
0.021504
22
0.277000
32
-0.117756
13
-0.037236
23
0.277000
33
-0.176496
0
3DFACE
8
default
62
30
10
-0.037236
20
0.277000
30
-0.176496
11
0.021504
21
0.277000
31
-0.117756
12
0.037236
22
0.277000
32
-0.133500
13
-0.037236
23
0.277000
33
-0.176496
0
3DFACE
8
default
62
30
10
-0.037236
20
0.277000
30
-0.176496
11
0.037236
21
0.277000
31
-0.133500
12
0.042996
22
0.277000
32
-0.155004
13
-0.037236
23
0.277000
33
-0.176496
0
3DFACE
8
default
62
30
10
-0.037236
20
0.277000
30
-0.176496
11
0.042996
21
0.277000
31
-0.155004
12
0.037236
22
0.277000
32
-0.176496
13
-0.037236
23
0.277000
33
-0.176496
0
3DFACE
8
default
62
30
10
-0.037236
20
0.277000
30
-0.176496
11
0.037236
21
0.277000
31
-0.176496
12
0.021504
22
0.277000
32
-0.192240
13
-0.037236
23
0.277000
33
-0.176496
0
3DFACE
8
default
62
30
10
-0.037236
20
0.277000
30
-0.176496
11
0.021504
21
0.277000
31
-0.192240
12
0.000000
22
0.277000
32
-0.198000
13
-0.037236
23
0.277000
33
-0.176496
0
3DFACE
8
default
62
30
10
-0.037236
20
0.277000
30
-0.176496
11
0.000000
21
0.277000
31
-0.198000
12
-0.021504
22
0.277000
32
-0.192240
13
-0.037236
23
0.277000
33
-0.176496
0
3DFACE
8
default
62
30
10
-0.060000
20
0.069280
30
0.044004
11
-0.060000
21
0.040000
31
0.073284
12
0.018000
22
0.040000
32
0.073284
13
-0.060000
23
0.069280
33
0.044004
0
3DFACE
8
default
62
30
10
-0.060000
20
0.069280
30
0.044004
11
0.018000
21
0.040000
31
0.073284
12
0.018000
22
0.069280
32
0.044004
13
-0.060000
23
0.069280
33
0.044004
0
3DFACE
8
default
62
30
10
0.018000
20
0.040000
30
-0.065280
11
0.000000
21
0.079996
31
-0.093732
12
0.018000
22
0.069280
32
-0.036000
13
0.018000
23
0.040000
33
-0.065280
0
3DFACE
8
default
62
30
10
0.046944
20
-0.119996
30
-0.202200
11
0.047760
21
-0.056000
31
-0.195276
12
0.150000
22
-0.056000
32
-0.195276
13
0.046944
23
-0.119996
33
-0.202200
0
3DFACE
8
default
62
30
10
0.046944
20
-0.119996
30
-0.202200
11
0.150000
21
-0.056000
31
-0.195276
12
0.150000
22
-0.119996
32
-0.202200
13
0.046944
23
-0.119996
33
-0.202200
0
3DFACE
8
default
62
30
10
-0.050004
20
0.259996
30
-0.176196
11
-0.050004
21
-0.119996
31
-0.176196
12
-0.042000
22
-0.119996
32
-0.108204
13
-0.050004
23
0.259996
33
-0.176196
0
3DFACE
8
default
62
30
10
-0.050004
20
0.259996
30
-0.176196
11
-0.042000
21
-0.119996
31
-0.108204
12
-0.042000
22
0.259996
32
-0.108204
13
-0.050004
23
0.259996
33
-0.176196
0
3DFACE
8
default
62
30
10
-0.037236
20
0.352000
30
-0.133500
11
-0.042996
21
0.352000
31
-0.155004
12
-0.042996
22
0.277000
32
-0.155004
13
-0.037236
23
0.352000
33
-0.133500
0
3DFACE
8
default
62
30
10
-0.037236
20
0.352000
30
-0.133500
11
-0.042996
21
0.277000
31
-0.155004
12
-0.037236
22
0.277000
32
-0.133500
13
-0.037236
23
0.352000
33
-0.133500
0
3DFACE
8
default
62
30
10
-0.060000
20
0.069280
30
-0.036000
11
-0.060000
21
0.079996
31
0.003996
12
0.018000
22
0.079996
32
0.003996
13
-0.060000
23
0.069280
33
-0.036000
0
3DFACE
8
default
62
30
10
-0.060000
20
0.069280
30
-0.036000
11
0.018000
21
0.079996
31
0.003996
12
0.018000
22
0.069280
32
-0.036000
13
-0.060000
23
0.069280
33
-0.036000
0
3DFACE
8
default
62
30
10
0.050004
20
0.259996
30
-0.176196
11
0.046944
21
0.259996
31
-0.202200
12
0.037236
22
0.277000
32
-0.176496
13
0.050004
23
0.259996
33
-0.176196
0
3DFACE
8
default
62
30
10
-0.042000
20
-0.119996
30
-0.095004
11
0.000000
21
-0.119996
31
-0.095004
12
0.018000
22
-0.069284
32
-0.036000
13
-0.042000
23
-0.119996
33
-0.095004
0
3DFACE
8
default
62
30
10
0.045996
20
0.259996
30
-0.142200
11
0.050004
21
0.259996
31
-0.176196
12
0.042996
22
0.277000
32
-0.155004
13
0.045996
23
0.259996
33
-0.142200
0
3DFACE
8
default
62
30
10
-0.042996
20
0.277000
30
-0.155004
11
-0.045996
21
0.259996
31
-0.142200
12
-0.037236
22
0.277000
32
-0.133500
13
-0.042996
23
0.277000
33
-0.155004
0
3DFACE
8
default
62
30
10
0.042000
20
0.151996
30
-0.244200
11
-0.042000
21
0.151996
31
-0.244200
12
-0.042000
22
0.175996
32
-0.244200
13
0.042000
23
0.151996
33
-0.244200
0
3DFACE
8
default
62
30
10
0.042000
20
0.151996
30
-0.244200
11
-0.042000
21
0.175996
31
-0.244200
12
0.042000
22
0.175996
32
-0.244200
13
0.042000
23
0.151996
33
-0.244200
0
3DFACE
8
default
62
30
10
0.042000
20
-0.056000
30
-0.108204
11
0.042000
21
0.259996
31
-0.108204
12
-0.042000
22
0.259996
32
-0.108204
13
0.042000
23
-0.056000
33
-0.108204
0
3DFACE
8
default
62
30
10
0.046944
20
-0.119996
30
-0.202200
11
0.150000
21
-0.119996
31
-0.202200
12
0.150000
22
-0.119996
32
-0.108204
13
0.046944
23
-0.119996
33
-0.202200
0
3DFACE
8
default
62
30
10
-0.045060
20
0.175996
30
-0.218196
11
-0.042000
21
0.175996
31
-0.244200
12
-0.042000
22
0.151996
32
-0.244200
13
-0.045060
23
0.175996
33
-0.218196
0
3DFACE
8
default
62
30
10
0.045600
20
0.179956
30
-0.213636
11
0.046944
21
0.259996
31
-0.202200
12
0.050004
22
0.259996
32
-0.176196
13
0.045600
23
0.179956
33
-0.213636
0
3DFACE
8
default
62
30
10
0.050004
20
-0.056000
30
-0.176196
11
0.042000
21
-0.056000
31
-0.108204
12
0.150000
22
-0.056000
32
-0.108204
13
0.050004
23
-0.056000
33
-0.176196
0
3DFACE
8
default
62
30
10
0.150000
20
-0.056000
30
-0.108204
11
0.150000
21
-0.056000
31
-0.195276
12
0.047760
22
-0.056000
32
-0.195276
13
0.150000
23
-0.056000
33
-0.108204
0
3DFACE
8
default
62
30
10
0.150000
20
-0.056000
30
-0.108204
11
0.047760
21
-0.056000
31
-0.195276
12
0.050004
22
-0.056000
32
-0.176196
13
0.150000
23
-0.056000
33
-0.108204
0
3DFACE
8
default
62
30
10
-0.042000
20
-0.119996
30
-0.108204
11
0.150000
21
-0.119996
31
-0.108204
12
0.150000
22
-0.056000
32
-0.108204
13
-0.042000
23
-0.119996
33
-0.108204
0
3DFACE
8
default
62
30
10
-0.042000
20
-0.119996
30
-0.108204
11
0.150000
21
-0.056000
31
-0.108204
12
0.042000
22
-0.056000
32
-0.108204
13
-0.042000
23
-0.119996
33
-0.108204
0
3DFACE
8
default
62
30
10
0.042000
20
-0.056000
30
-0.108204
11
-0.042000
21
0.259996
31
-0.108204
12
-0.042000
22
-0.119996
32
-0.108204
13
0.042000
23
-0.056000
33
-0.108204
0
3DFACE
8
default
62
30
10
-0.042000
20
-0.119996
30
-0.108204
11
-0.050004
21
-0.119996
31
-0.176196
12
-0.045996
22
-0.119996
32
-0.210204
13
-0.042000
23
-0.119996
33
-0.108204
0
3DFACE
8
default
62
30
10
-0.042000
20
-0.119996
30
-0.108204
11
-0.045996
21
-0.119996
31
-0.210204
12
0.045996
22
-0.119996
32
-0.210204
13
-0.042000
23
-0.119996
33
-0.108204
0
3DFACE
8
default
62
30
10
-0.042000
20
-0.119996
30
-0.108204
11
0.045996
21
-0.119996
31
-0.210204
12
0.046944
22
-0.119996
32
-0.202200
13
-0.042000
23
-0.119996
33
-0.108204
0
3DFACE
8
default
62
30
10
0.046944
20
-0.119996
30
-0.202200
11
0.150000
21
-0.119996
31
-0.108204
12
-0.042000
22
-0.119996
32
-0.108204
13
0.046944
23
-0.119996
33
-0.202200
0
3DFACE
8
default
62
30
10
-0.042936
20
-0.065996
30
-0.236196
11
-0.042000
21
-0.071996
31
-0.244200
12
-0.042000
22
-0.104000
32
-0.244200
13
-0.042936
23
-0.065996
33
-0.236196
0
3DFACE
8
default
62
30
10
0.047760
20
-0.056000
30
-0.195276
11
0.046944
21
-0.119996
31
-0.202200
12
0.045996
22
-0.119996
32
-0.210204
13
0.047760
23
-0.056000
33
-0.195276
0
3DFACE
8
default
62
30
10
-0.045996
20
-0.112004
30
-0.210204
11
-0.045996
21
-0.119996
31
-0.210204
12
-0.050004
22
-0.119996
32
-0.176196
13
-0.045996
23
-0.112004
33
-0.210204
0
3DFACE
8
default
62
30
10
0.045996
20
-0.112004
30
-0.210204
11
0.042000
21
-0.104000
31
-0.244200
12
0.042000
22
-0.071996
32
-0.244200
13
0.045996
23
-0.112004
33
-0.210204
0
3DFACE
8
default
62
30
10
-0.045600
20
0.179956
30
-0.213636
11
-0.045060
21
0.175996
31
-0.218196
12
-0.042000
22
0.151996
32
-0.244200
13
-0.045600
23
0.179956
33
-0.213636
0
3DFACE
8
default
62
30
10
0.044820
20
0.151996
30
-0.220200
11
0.042000
21
0.151996
31
-0.244200
12
0.042000
22
0.175996
32
-0.244200
13
0.044820
23
0.151996
33
-0.220200
0
3DFACE
8
default
62
30
10
-0.042936
20
-0.065996
30
-0.236196
11
-0.042000
21
-0.104000
31
-0.244200
12
-0.045996
22
-0.112004
32
-0.210204
13
-0.042936
23
-0.065996
33
-0.236196
0
3DFACE
8
default
62
30
10
0.045600
20
0.179956
30
-0.213636
11
0.050004
21
0.259996
31
-0.176196
12
0.050004
22
-0.056000
32
-0.176196
13
0.045600
23
0.179956
33
-0.213636
0
3DFACE
8
default
62
30
10
-0.045600
20
0.179956
30
-0.213636
11
-0.042000
21
0.151996
31
-0.244200
12
-0.044820
22
0.151996
32
-0.220200
13
-0.045600
23
0.179956
33
-0.213636
0
3DFACE
8
default
62
30
10
0.047760
20
-0.056000
30
-0.195276
11
0.045996
21
-0.119996
31
-0.210204
12
0.045996
22
-0.112004
32
-0.210204
13
0.047760
23
-0.056000
33
-0.195276
0
3DFACE
8
default
62
30
10
-0.045252
20
0.148012
30
-0.216564
11
-0.042936
21
-0.065996
31
-0.236196
12
-0.045996
22
-0.112004
32
-0.210204
13
-0.045252
23
0.148012
33
-0.216564
0
3DFACE
8
default
62
30
10
0.044820
20
0.151996
30
-0.220200
11
0.042000
21
0.175996
31
-0.244200
12
0.045060
22
0.175996
32
-0.218196
13
0.044820
23
0.151996
33
-0.220200
0
3DFACE
8
default
62
30
10
-0.045600
20
0.179956
30
-0.213636
11
-0.044820
21
0.151996
31
-0.220200
12
-0.045252
22
0.148012
32
-0.216564
13
-0.045600
23
0.179956
33
-0.213636
0
3DFACE
8
default
62
30
10
-0.045252
20
0.148012
30
-0.216564
11
-0.045996
21
-0.112004
31
-0.210204
12
-0.050004
22
-0.119996
32
-0.176196
13
-0.045252
23
0.148012
33
-0.216564
0
3DFACE
8
default
62
30
10
-0.045252
20
0.148012
30
-0.216564
11
-0.050004
21
-0.119996
31
-0.176196
12
-0.050004
22
0.259996
32
-0.176196
13
-0.045252
23
0.148012
33
-0.216564
0
3DFACE
8
default
62
30
10
-0.045252
20
0.148012
30
-0.216564
11
-0.050004
21
0.259996
31
-0.176196
12
-0.046944
22
0.259996
32
-0.202200
13
-0.045252
23
0.148012
33
-0.216564
0
3DFACE
8
default
62
30
10
-0.045252
20
0.148012
30
-0.216564
11
-0.046944
21
0.259996
31
-0.202200
12
-0.045600
22
0.179956
32
-0.213636
13
-0.045252
23
0.148012
33
-0.216564
0
3DFACE
8
default
62
30
10
0.047760
20
-0.056000
30
-0.195276
11
0.045996
21
-0.112004
31
-0.210204
12
0.042000
22
-0.071996
32
-0.244200
13
0.047760
23
-0.056000
33
-0.195276
0
3DFACE
8
default
62
30
10
0.045252
20
0.148012
30
-0.216564
11
0.044820
21
0.151996
31
-0.220200
12
0.045060
22
0.175996
32
-0.218196
13
0.045252
23
0.148012
33
-0.216564
0
3DFACE
8
default
62
30
10
0.047760
20
-0.056000
30
-0.195276
11
0.042000
21
-0.071996
31
-0.244200
12
0.042936
22
-0.065996
32
-0.236196
13
0.047760
23
-0.056000
33
-0.195276
0
3DFACE
8
default
62
30
10
0.045252
20
0.148012
30
-0.216564
11
0.045060
21
0.175996
31
-0.218196
12
0.045600
22
0.179956
32
-0.213636
13
0.045252
23
0.148012
33
-0.216564
0
3DFACE
8
default
62
30
10
0.047760
20
-0.056000
30
-0.195276
11
0.042936
21
-0.065996
31
-0.236196
12
0.045252
22
0.148012
32
-0.216564
13
0.047760
23
-0.056000
33
-0.195276
0
3DFACE
8
default
62
30
10
0.045252
20
0.148012
30
-0.216564
11
0.045600
21
0.179956
31
-0.213636
12
0.050004
22
-0.056000
32
-0.176196
13
0.045252
23
0.148012
33
-0.216564
0
3DFACE
8
default
62
30
10
0.045252
20
0.148012
30
-0.216564
11
0.050004
21
-0.056000
31
-0.176196
12
0.047760
22
-0.056000
32
-0.195276
13
0.045252
23
0.148012
33
-0.216564
0
3DFACE
8
default
62
251
10
0.132996
20
-0.134996
30
-0.128700
11
0.132996
21
-0.119996
31
-0.128700
12
0.132996
22
-0.119996
32
-0.189696
13
0.132996
23
-0.134996
33
-0.128700
0
3DFACE
8
default
62
251
10
0.132996
20
-0.134996
30
-0.128700
11
0.132996
21
-0.119996
31
-0.189696
12
0.132996
22
-0.134996
32
-0.189696
13
0.132996
23
-0.134996
33
-0.128700
0
3DFACE
8
default
62
251
10
0.132996
20
-0.134996
30
-0.128700
11
0.132996
21
-0.134996
31
-0.189696
12
0.132996
22
-0.134996
32
-0.159204
13
0.132996
23
-0.134996
33
-0.128700
0
3DFACE
8
default
62
251
10
0.123000
20
-0.293504
30
-0.130464
11
0.102504
21
-0.293504
31
-0.128700
12
0.102504
22
-0.134996
32
-0.128700
13
0.123000
23
-0.293504
33
-0.130464
0
3DFACE
8
default
62
251
10
0.123000
20
-0.293504
30
-0.130464
11
0.102504
21
-0.134996
31
-0.128700
12
0.123000
22
-0.134996
32
-0.130464
13
0.123000
23
-0.293504
33
-0.130464
0
3DFACE
8
default
62
251
10
0.102504
20
-0.293504
30
-0.128700
11
0.081996
21
-0.293504
31
-0.130464
12
0.081996
22
-0.134996
32
-0.130464
13
0.102504
23
-0.293504
33
-0.128700
0
3DFACE
8
default
62
251
10
0.102504
20
-0.293504
30
-0.128700
11
0.081996
21
-0.134996
31
-0.130464
12
0.102504
22
-0.134996
32
-0.128700
13
0.102504
23
-0.293504
33
-0.128700
0
3DFACE
8
default
62
251
10
0.132996
20
-0.119996
30
-0.128700
11
0.072000
21
-0.119996
31
-0.128700
12
0.072000
22
-0.119996
32
-0.189696
13
0.132996
23
-0.119996
33
-0.128700
0
3DFACE
8
default
62
251
10
0.132996
20
-0.119996
30
-0.128700
11
0.072000
21
-0.119996
31
-0.189696
12
0.132996
22
-0.119996
32
-0.189696
13
0.132996
23
-0.119996
33
-0.128700
0
3DFACE
8
default
62
251
10
0.132996
20
-0.119996
30
-0.128700
11
0.132996
21
-0.134996
31
-0.128700
12
0.102504
22
-0.134996
32
-0.128700
13
0.132996
23
-0.119996
33
-0.128700
0
3DFACE
8
default
62
251
10
0.132996
20
-0.119996
30
-0.128700
11
0.102504
21
-0.134996
31
-0.128700
12
0.072000
22
-0.134996
32
-0.128700
13
0.132996
23
-0.119996
33
-0.128700
0
3DFACE
8
default
62
251
10
0.132996
20
-0.119996
30
-0.128700
11
0.072000
21
-0.134996
31
-0.128700
12
0.072000
22
-0.119996
32
-0.128700
13
0.132996
23
-0.119996
33
-0.128700
0
3DFACE
8
default
62
251
10
0.072000
20
-0.119996
30
-0.189696
11
0.072000
21
-0.119996
31
-0.128700
12
0.072000
22
-0.134996
32
-0.128700
13
0.072000
23
-0.119996
33
-0.189696
0
3DFACE
8
default
62
251
10
0.072000
20
-0.119996
30
-0.189696
11
0.072000
21
-0.134996
31
-0.128700
12
0.072000
22
-0.134996
32
-0.159204
13
0.072000
23
-0.119996
33
-0.189696
0
3DFACE
8
default
62
251
10
0.072000
20
-0.119996
30
-0.189696
11
0.072000
21
-0.134996
31
-0.159204
12
0.072000
22
-0.134996
32
-0.189696
13
0.072000
23
-0.119996
33
-0.189696
0
3DFACE
8
default
62
251
10
0.081996
20
-0.134996
30
-0.130464
11
0.081996
21
-0.293504
31
-0.130464
12
0.081996
22
-0.293504
32
-0.134700
13
0.081996
23
-0.134996
33
-0.130464
0
3DFACE
8
default
62
251
10
0.081996
20
-0.134996
30
-0.130464
11
0.081996
21
-0.293504
31
-0.134700
12
0.081996
22
-0.134996
32
-0.134700
13
0.081996
23
-0.134996
33
-0.130464
0
3DFACE
8
default
62
251
10
0.081996
20
-0.134996
30
-0.183696
11
0.081996
21
-0.293504
31
-0.183696
12
0.081996
22
-0.293504
32
-0.187932
13
0.081996
23
-0.134996
33
-0.183696
0
3DFACE
8
default
62
251
10
0.081996
20
-0.134996
30
-0.183696
11
0.081996
21
-0.293504
31
-0.187932
12
0.081996
22
-0.134996
32
-0.187932
13
0.081996
23
-0.134996
33
-0.183696
0
3DFACE
8
default
62
251
10
0.123000
20
-0.293504
30
-0.134700
11
0.123000
21
-0.293504
31
-0.130464
12
0.123000
22
-0.134996
32
-0.130464
13
0.123000
23
-0.293504
33
-0.134700
0
3DFACE
8
default
62
251
10
0.123000
20
-0.293504
30
-0.134700
11
0.123000
21
-0.134996
31
-0.130464
12
0.123000
22
-0.134996
32
-0.134700
13
0.123000
23
-0.293504
33
-0.134700
0
3DFACE
8
default
62
251
10
0.123000
20
-0.293504
30
-0.187932
11
0.123000
21
-0.293504
31
-0.183696
12
0.123000
22
-0.134996
32
-0.183696
13
0.123000
23
-0.293504
33
-0.187932
0
3DFACE
8
default
62
251
10
0.123000
20
-0.293504
30
-0.187932
11
0.123000
21
-0.134996
31
-0.183696
12
0.123000
22
-0.134996
32
-0.187932
13
0.123000
23
-0.293504
33
-0.187932
0
3DFACE
8
default
62
251
10
0.123000
20
-0.134996
30
-0.134700
11
0.123132
21
-0.134996
31
-0.135732
12
0.123132
22
-0.293504
32
-0.135732
13
0.123000
23
-0.134996
33
-0.134700
0
3DFACE
8
default
62
251
10
0.123000
20
-0.134996
30
-0.134700
11
0.123132
21
-0.293504
31
-0.135732
12
0.123000
22
-0.293504
32
-0.134700
13
0.123000
23
-0.134996
33
-0.134700
0
3DFACE
8
default
62
251
10
0.081864
20
-0.134996
30
-0.135732
11
0.081996
21
-0.134996
31
-0.134700
12
0.081996
22
-0.293504
32
-0.134700
13
0.081864
23
-0.134996
33
-0.135732
0
3DFACE
8
default
62
251
10
0.081864
20
-0.134996
30
-0.135732
11
0.081996
21
-0.293504
31
-0.134700
12
0.081864
22
-0.293504
32
-0.135732
13
0.081864
23
-0.134996
33
-0.135732
0
3DFACE
8
default
62
251
10
0.081468
20
-0.134996
30
-0.136704
11
0.081864
21
-0.134996
31
-0.135732
12
0.081864
22
-0.293504
32
-0.135732
13
0.081468
23
-0.134996
33
-0.136704
0
3DFACE
8
default
62
251
10
0.081468
20
-0.134996
30
-0.136704
11
0.081864
21
-0.293504
31
-0.135732
12
0.081468
22
-0.293504
32
-0.136704
13
0.081468
23
-0.134996
33
-0.136704
0
3DFACE
8
default
62
251
10
0.123132
20
-0.134996
30
-0.135732
11
0.123540
21
-0.134996
31
-0.136704
12
0.123540
22
-0.293504
32
-0.136704
13
0.123132
23
-0.134996
33
-0.135732
0
3DFACE
8
default
62
251
10
0.123132
20
-0.134996
30
-0.135732
11
0.123540
21
-0.293504
31
-0.136704
12
0.123132
22
-0.293504
32
-0.135732
13
0.123132
23
-0.134996
33
-0.135732
0
3DFACE
8
default
62
251
10
0.123540
20
-0.134996
30
-0.136704
11
0.124176
21
-0.134996
31
-0.137532
12
0.124176
22
-0.293504
32
-0.137532
13
0.123540
23
-0.134996
33
-0.136704
0
3DFACE
8
default
62
251
10
0.123540
20
-0.134996
30
-0.136704
11
0.124176
21
-0.293504
31
-0.137532
12
0.123540
22
-0.293504
32
-0.136704
13
0.123540
23
-0.134996
33
-0.136704
0
3DFACE
8
default
62
251
10
0.080832
20
-0.134996
30
-0.137532
11
0.081468
21
-0.134996
31
-0.136704
12
0.081468
22
-0.293504
32
-0.136704
13
0.080832
23
-0.134996
33
-0.137532
0
3DFACE
8
default
62
251
10
0.080832
20
-0.134996
30
-0.137532
11
0.081468
21
-0.293504
31
-0.136704
12
0.080832
22
-0.293504
32
-0.137532
13
0.080832
23
-0.134996
33
-0.137532
0
3DFACE
8
default
62
251
10
0.080004
20
-0.134996
30
-0.138168
11
0.080832
21
-0.134996
31
-0.137532
12
0.080832
22
-0.293504
32
-0.137532
13
0.080004
23
-0.134996
33
-0.138168
0
3DFACE
8
default
62
251
10
0.080004
20
-0.134996
30
-0.138168
11
0.080832
21
-0.293504
31
-0.137532
12
0.080004
22
-0.293504
32
-0.138168
13
0.080004
23
-0.134996
33
-0.138168
0
3DFACE
8
default
62
251
10
0.124176
20
-0.134996
30
-0.137532
11
0.125004
21
-0.134996
31
-0.138168
12
0.125004
22
-0.293504
32
-0.138168
13
0.124176
23
-0.134996
33
-0.137532
0
3DFACE
8
default
62
251
10
0.124176
20
-0.134996
30
-0.137532
11
0.125004
21
-0.293504
31
-0.138168
12
0.124176
22
-0.293504
32
-0.137532
13
0.124176
23
-0.134996
33
-0.137532
0
3DFACE
8
default
62
251
10
0.079032
20
-0.134996
30
-0.138564
11
0.080004
21
-0.134996
31
-0.138168
12
0.080004
22
-0.293504
32
-0.138168
13
0.079032
23
-0.134996
33
-0.138564
0
3DFACE
8
default
62
251
10
0.079032
20
-0.134996
30
-0.138564
11
0.080004
21
-0.293504
31
-0.138168
12
0.079032
22
-0.293504
32
-0.138564
13
0.079032
23
-0.134996
33
-0.138564
0
3DFACE
8
default
62
251
10
0.125004
20
-0.134996
30
-0.138168
11
0.125964
21
-0.134996
31
-0.138564
12
0.125964
22
-0.293504
32
-0.138564
13
0.125004
23
-0.134996
33
-0.138168
0
3DFACE
8
default
62
251
10
0.125004
20
-0.134996
30
-0.138168
11
0.125964
21
-0.293504
31
-0.138564
12
0.125004
22
-0.293504
32
-0.138168
13
0.125004
23
-0.134996
33
-0.138168
0
3DFACE
8
default
62
251
10
0.125964
20
-0.134996
30
-0.138564
11
0.126996
21
-0.134996
31
-0.138696
12
0.126996
22
-0.293504
32
-0.138696
13
0.125964
23
-0.134996
33
-0.138564
0
3DFACE
8
default
62
251
10
0.125964
20
-0.134996
30
-0.138564
11
0.126996
21
-0.293504
31
-0.138696
12
0.125964
22
-0.293504
32
-0.138564
13
0.125964
23
-0.134996
33
-0.138564
0
3DFACE
8
default
62
251
10
0.078000
20
-0.134996
30
-0.138696
11
0.079032
21
-0.134996
31
-0.138564
12
0.079032
22
-0.293504
32
-0.138564
13
0.078000
23
-0.134996
33
-0.138696
0
3DFACE
8
default
62
251
10
0.078000
20
-0.134996
30
-0.138696
11
0.079032
21
-0.293504
31
-0.138564
12
0.078000
22
-0.293504
32
-0.138696
13
0.078000
23
-0.134996
33
-0.138696
0
3DFACE
8
default
62
251
10
0.126996
20
-0.134996
30
-0.138696
11
0.131232
21
-0.134996
31
-0.138696
12
0.131232
22
-0.293504
32
-0.138696
13
0.126996
23
-0.134996
33
-0.138696
0
3DFACE
8
default
62
251
10
0.126996
20
-0.134996
30
-0.138696
11
0.131232
21
-0.293504
31
-0.138696
12
0.126996
22
-0.293504
32
-0.138696
13
0.126996
23
-0.134996
33
-0.138696
0
3DFACE
8
default
62
251
10
0.073764
20
-0.134996
30
-0.138696
11
0.078000
21
-0.134996
31
-0.138696
12
0.078000
22
-0.293504
32
-0.138696
13
0.073764
23
-0.134996
33
-0.138696
0
3DFACE
8
default
62
251
10
0.073764
20
-0.134996
30
-0.138696
11
0.078000
21
-0.293504
31
-0.138696
12
0.073764
22
-0.293504
32
-0.138696
13
0.073764
23
-0.134996
33
-0.138696
0
3DFACE
8
default
62
251
10
0.072000
20
-0.134996
30
-0.159204
11
0.073764
21
-0.134996
31
-0.138696
12
0.073764
22
-0.293504
32
-0.138696
13
0.072000
23
-0.134996
33
-0.159204
0
3DFACE
8
default
62
251
10
0.072000
20
-0.134996
30
-0.159204
11
0.073764
21
-0.293504
31
-0.138696
12
0.072000
22
-0.293504
32
-0.159204
13
0.072000
23
-0.134996
33
-0.159204
0
3DFACE
8
default
62
251
10
0.131232
20
-0.134996
30
-0.138696
11
0.132996
21
-0.134996
31
-0.159204
12
0.132996
22
-0.293504
32
-0.159204
13
0.131232
23
-0.134996
33
-0.138696
0
3DFACE
8
default
62
251
10
0.131232
20
-0.134996
30
-0.138696
11
0.132996
21
-0.293504
31
-0.159204
12
0.131232
22
-0.293504
32
-0.138696
13
0.131232
23
-0.134996
33
-0.138696
0
3DFACE
8
default
62
251
10
0.131232
20
-0.293504
30
-0.179700
11
0.132996
21
-0.293504
31
-0.159204
12
0.132996
22
-0.134996
32
-0.159204
13
0.131232
23
-0.293504
33
-0.179700
0
3DFACE
8
default
62
251
10
0.131232
20
-0.293504
30
-0.179700
11
0.132996
21
-0.134996
31
-0.159204
12
0.131232
22
-0.134996
32
-0.179700
13
0.131232
23
-0.293504
33
-0.179700
0
3DFACE
8
default
62
251
10
0.072000
20
-0.134996
30
-0.159204
11
0.072000
21
-0.293504
31
-0.159204
12
0.073764
22
-0.293504
32
-0.179700
13
0.072000
23
-0.134996
33
-0.159204
0
3DFACE
8
default
62
251
10
0.072000
20
-0.134996
30
-0.159204
11
0.073764
21
-0.293504
31
-0.179700
12
0.073764
22
-0.134996
32
-0.179700
13
0.072000
23
-0.134996
33
-0.159204
0
3DFACE
8
default
62
251
10
0.126996
20
-0.293504
30
-0.179700
11
0.131232
21
-0.293504
31
-0.179700
12
0.131232
22
-0.134996
32
-0.179700
13
0.126996
23
-0.293504
33
-0.179700
0
3DFACE
8
default
62
251
10
0.126996
20
-0.293504
30
-0.179700
11
0.131232
21
-0.134996
31
-0.179700
12
0.126996
22
-0.134996
32
-0.179700
13
0.126996
23
-0.293504
33
-0.179700
0
3DFACE
8
default
62
251
10
0.073764
20
-0.293504
30
-0.179700
11
0.078000
21
-0.293504
31
-0.179700
12
0.078000
22
-0.134996
32
-0.179700
13
0.073764
23
-0.293504
33
-0.179700
0
3DFACE
8
default
62
251
10
0.073764
20
-0.293504
30
-0.179700
11
0.078000
21
-0.134996
31
-0.179700
12
0.073764
22
-0.134996
32
-0.179700
13
0.073764
23
-0.293504
33
-0.179700
0
3DFACE
8
default
62
251
10
0.078000
20
-0.293504
30
-0.179700
11
0.079032
21
-0.293504
31
-0.179832
12
0.079032
22
-0.134996
32
-0.179832
13
0.078000
23
-0.293504
33
-0.179700
0
3DFACE
8
default
62
251
10
0.078000
20
-0.293504
30
-0.179700
11
0.079032
21
-0.134996
31
-0.179832
12
0.078000
22
-0.134996
32
-0.179700
13
0.078000
23
-0.293504
33
-0.179700
0
3DFACE
8
default
62
251
10
0.125964
20
-0.293504
30
-0.179832
11
0.126996
21
-0.293504
31
-0.179700
12
0.126996
22
-0.134996
32
-0.179700
13
0.125964
23
-0.293504
33
-0.179832
0
3DFACE
8
default
62
251
10
0.125964
20
-0.293504
30
-0.179832
11
0.126996
21
-0.134996
31
-0.179700
12
0.125964
22
-0.134996
32
-0.179832
13
0.125964
23
-0.293504
33
-0.179832
0
3DFACE
8
default
62
251
10
0.079032
20
-0.293504
30
-0.179832
11
0.080004
21
-0.293504
31
-0.180240
12
0.080004
22
-0.134996
32
-0.180240
13
0.079032
23
-0.293504
33
-0.179832
0
3DFACE
8
default
62
251
10
0.079032
20
-0.293504
30
-0.179832
11
0.080004
21
-0.134996
31
-0.180240
12
0.079032
22
-0.134996
32
-0.179832
13
0.079032
23
-0.293504
33
-0.179832
0
3DFACE
8
default
62
251
10
0.125004
20
-0.293504
30
-0.180240
11
0.125964
21
-0.293504
31
-0.179832
12
0.125964
22
-0.134996
32
-0.179832
13
0.125004
23
-0.293504
33
-0.180240
0
3DFACE
8
default
62
251
10
0.125004
20
-0.293504
30
-0.180240
11
0.125964
21
-0.134996
31
-0.179832
12
0.125004
22
-0.134996
32
-0.180240
13
0.125004
23
-0.293504
33
-0.180240
0
3DFACE
8
default
62
251
10
0.124176
20
-0.293504
30
-0.180876
11
0.125004
21
-0.293504
31
-0.180240
12
0.125004
22
-0.134996
32
-0.180240
13
0.124176
23
-0.293504
33
-0.180876
0
3DFACE
8
default
62
251
10
0.124176
20
-0.293504
30
-0.180876
11
0.125004
21
-0.134996
31
-0.180240
12
0.124176
22
-0.134996
32
-0.180876
13
0.124176
23
-0.293504
33
-0.180876
0
3DFACE
8
default
62
251
10
0.080004
20
-0.293504
30
-0.180240
11
0.080832
21
-0.293504
31
-0.180876
12
0.080832
22
-0.134996
32
-0.180876
13
0.080004
23
-0.293504
33
-0.180240
0
3DFACE
8
default
62
251
10
0.080004
20
-0.293504
30
-0.180240
11
0.080832
21
-0.134996
31
-0.180876
12
0.080004
22
-0.134996
32
-0.180240
13
0.080004
23
-0.293504
33
-0.180240
0
3DFACE
8
default
62
251
10
0.123540
20
-0.293504
30
-0.181704
11
0.124176
21
-0.293504
31
-0.180876
12
0.124176
22
-0.134996
32
-0.180876
13
0.123540
23
-0.293504
33
-0.181704
0
3DFACE
8
default
62
251
10
0.123540
20
-0.293504
30
-0.181704
11
0.124176
21
-0.134996
31
-0.180876
12
0.123540
22
-0.134996
32
-0.181704
13
0.123540
23
-0.293504
33
-0.181704
0
3DFACE
8
default
62
251
10
0.080832
20
-0.293504
30
-0.180876
11
0.081468
21
-0.293504
31
-0.181704
12
0.081468
22
-0.134996
32
-0.181704
13
0.080832
23
-0.293504
33
-0.180876
0
3DFACE
8
default
62
251
10
0.080832
20
-0.293504
30
-0.180876
11
0.081468
21
-0.134996
31
-0.181704
12
0.080832
22
-0.134996
32
-0.180876
13
0.080832
23
-0.293504
33
-0.180876
0
3DFACE
8
default
62
251
10
0.081468
20
-0.134996
30
-0.181704
11
0.081468
21
-0.293504
31
-0.181704
12
0.081864
22
-0.293504
32
-0.182664
13
0.081468
23
-0.134996
33
-0.181704
0
3DFACE
8
default
62
251
10
0.081468
20
-0.134996
30
-0.181704
11
0.081864
21
-0.293504
31
-0.182664
12
0.081864
22
-0.134996
32
-0.182664
13
0.081468
23
-0.134996
33
-0.181704
0
3DFACE
8
default
62
251
10
0.123132
20
-0.293504
30
-0.182664
11
0.123540
21
-0.293504
31
-0.181704
12
0.123540
22
-0.134996
32
-0.181704
13
0.123132
23
-0.293504
33
-0.182664
0
3DFACE
8
default
62
251
10
0.123132
20
-0.293504
30
-0.182664
11
0.123540
21
-0.134996
31
-0.181704
12
0.123132
22
-0.134996
32
-0.182664
13
0.123132
23
-0.293504
33
-0.182664
0
3DFACE
8
default
62
251
10
0.081864
20
-0.134996
30
-0.182664
11
0.081864
21
-0.293504
31
-0.182664
12
0.081996
22
-0.293504
32
-0.183696
13
0.081864
23
-0.134996
33
-0.182664
0
3DFACE
8
default
62
251
10
0.081864
20
-0.134996
30
-0.182664
11
0.081996
21
-0.293504
31
-0.183696
12
0.081996
22
-0.134996
32
-0.183696
13
0.081864
23
-0.134996
33
-0.182664
0
3DFACE
8
default
62
251
10
0.123000
20
-0.293504
30
-0.183696
11
0.123132
21
-0.293504
31
-0.182664
12
0.123132
22
-0.134996
32
-0.182664
13
0.123000
23
-0.293504
33
-0.183696
0
3DFACE
8
default
62
251
10
0.123000
20
-0.293504
30
-0.183696
11
0.123132
21
-0.134996
31
-0.182664
12
0.123000
22
-0.134996
32
-0.183696
13
0.123000
23
-0.293504
33
-0.183696
0
3DFACE
8
default
62
251
10
0.102504
20
-0.293504
30
-0.189696
11
0.123000
21
-0.293504
31
-0.187932
12
0.123000
22
-0.134996
32
-0.187932
13
0.102504
23
-0.293504
33
-0.189696
0
3DFACE
8
default
62
251
10
0.102504
20
-0.293504
30
-0.189696
11
0.123000
21
-0.134996
31
-0.187932
12
0.102504
22
-0.134996
32
-0.189696
13
0.102504
23
-0.293504
33
-0.189696
0
3DFACE
8
default
62
251
10
0.081996
20
-0.134996
30
-0.187932
11
0.081996
21
-0.293504
31
-0.187932
12
0.102504
22
-0.293504
32
-0.189696
13
0.081996
23
-0.134996
33
-0.187932
0
3DFACE
8
default
62
251
10
0.081996
20
-0.134996
30
-0.187932
11
0.102504
21
-0.293504
31
-0.189696
12
0.102504
22
-0.134996
32
-0.189696
13
0.081996
23
-0.134996
33
-0.187932
0
3DFACE
8
default
62
251
10
0.132996
20
-0.119996
30
-0.189696
11
0.072000
21
-0.119996
31
-0.189696
12
0.072000
22
-0.134996
32
-0.189696
13
0.132996
23
-0.119996
33
-0.189696
0
3DFACE
8
default
62
251
10
0.132996
20
-0.119996
30
-0.189696
11
0.072000
21
-0.134996
31
-0.189696
12
0.102504
22
-0.134996
32
-0.189696
13
0.132996
23
-0.119996
33
-0.189696
0
3DFACE
8
default
62
251
10
0.132996
20
-0.119996
30
-0.189696
11
0.102504
21
-0.134996
31
-0.189696
12
0.132996
22
-0.134996
32
-0.189696
13
0.132996
23
-0.119996
33
-0.189696
0
3DFACE
8
default
62
251
10
0.081996
20
-0.293504
30
-0.187932
11
0.081996
21
-0.293504
31
-0.183696
12
0.102504
22
-0.293504
32
-0.189696
13
0.081996
23
-0.293504
33
-0.187932
0
3DFACE
8
default
62
251
10
0.123000
20
-0.134996
30
-0.130464
11
0.102504
21
-0.134996
31
-0.128700
12
0.132996
22
-0.134996
32
-0.128700
13
0.123000
23
-0.134996
33
-0.130464
0
3DFACE
8
default
62
251
10
0.081996
20
-0.134996
30
-0.130464
11
0.081996
21
-0.134996
31
-0.134700
12
0.081864
22
-0.134996
32
-0.135732
13
0.081996
23
-0.134996
33
-0.130464
0
3DFACE
8
default
62
251
10
0.126996
20
-0.293504
30
-0.138696
11
0.131232
21
-0.293504
31
-0.138696
12
0.132996
22
-0.293504
32
-0.159204
13
0.126996
23
-0.293504
33
-0.138696
0
3DFACE
8
default
62
251
10
0.073764
20
-0.134996
30
-0.179700
11
0.078000
21
-0.134996
31
-0.179700
12
0.079032
22
-0.134996
32
-0.179832
13
0.073764
23
-0.134996
33
-0.179700
0
3DFACE
8
default
62
251
10
0.123000
20
-0.134996
30
-0.187932
11
0.123000
21
-0.134996
31
-0.183696
12
0.123132
22
-0.134996
32
-0.182664
13
0.123000
23
-0.134996
33
-0.187932
0
3DFACE
8
default
62
251
10
0.131232
20
-0.134996
30
-0.138696
11
0.126996
21
-0.134996
31
-0.138696
12
0.125964
22
-0.134996
32
-0.138564
13
0.131232
23
-0.134996
33
-0.138696
0
3DFACE
8
default
62
251
10
0.073764
20
-0.134996
30
-0.138696
11
0.072000
21
-0.134996
31
-0.159204
12
0.072000
22
-0.134996
32
-0.128700
13
0.073764
23
-0.134996
33
-0.138696
0
3DFACE
8
default
62
251
10
0.123000
20
-0.293504
30
-0.183696
11
0.123000
21
-0.293504
31
-0.187932
12
0.102504
22
-0.293504
32
-0.189696
13
0.123000
23
-0.293504
33
-0.183696
0
3DFACE
8
default
62
251
10
0.081996
20
-0.134996
30
-0.187932
11
0.102504
21
-0.134996
31
-0.189696
12
0.072000
22
-0.134996
32
-0.189696
13
0.081996
23
-0.134996
33
-0.187932
0
3DFACE
8
default
62
251
10
0.131232
20
-0.134996
30
-0.179700
11
0.132996
21
-0.134996
31
-0.159204
12
0.132996
22
-0.134996
32
-0.189696
13
0.131232
23
-0.134996
33
-0.179700
0
3DFACE
8
default
62
251
10
0.131232
20
-0.134996
30
-0.138696
11
0.125964
21
-0.134996
31
-0.138564
12
0.125004
22
-0.134996
32
-0.138168
13
0.131232
23
-0.134996
33
-0.138696
0
3DFACE
8
default
62
251
10
0.081996
20
-0.134996
30
-0.130464
11
0.081864
21
-0.134996
31
-0.135732
12
0.081468
22
-0.134996
32
-0.136704
13
0.081996
23
-0.134996
33
-0.130464
0
3DFACE
8
default
62
251
10
0.078000
20
-0.293504
30
-0.179700
11
0.073764
21
-0.293504
31
-0.179700
12
0.072000
22
-0.293504
32
-0.159204
13
0.078000
23
-0.293504
33
-0.179700
0
3DFACE
8
default
62
251
10
0.073764
20
-0.134996
30
-0.179700
11
0.079032
21
-0.134996
31
-0.179832
12
0.080004
22
-0.134996
32
-0.180240
13
0.073764
23
-0.134996
33
-0.179700
0
3DFACE
8
default
62
251
10
0.123000
20
-0.134996
30
-0.187932
11
0.123132
21
-0.134996
31
-0.182664
12
0.123540
22
-0.134996
32
-0.181704
13
0.123000
23
-0.134996
33
-0.187932
0
3DFACE
8
default
62
251
10
0.131232
20
-0.134996
30
-0.138696
11
0.125004
21
-0.134996
31
-0.138168
12
0.124176
22
-0.134996
32
-0.137532
13
0.131232
23
-0.134996
33
-0.138696
0
3DFACE
8
default
62
251
10
0.081996
20
-0.134996
30
-0.130464
11
0.081468
21
-0.134996
31
-0.136704
12
0.080832
22
-0.134996
32
-0.137532
13
0.081996
23
-0.134996
33
-0.130464
0
3DFACE
8
default
62
251
10
0.081996
20
-0.293504
30
-0.134700
11
0.081996
21
-0.293504
31
-0.130464
12
0.102504
22
-0.293504
32
-0.128700
13
0.081996
23
-0.293504
33
-0.134700
0
3DFACE
8
default
62
251
10
0.073764
20
-0.134996
30
-0.179700
11
0.080004
21
-0.134996
31
-0.180240
12
0.080832
22
-0.134996
32
-0.180876
13
0.073764
23
-0.134996
33
-0.179700
0
3DFACE
8
default
62
251
10
0.123000
20
-0.134996
30
-0.187932
11
0.123540
21
-0.134996
31
-0.181704
12
0.124176
22
-0.134996
32
-0.180876
13
0.123000
23
-0.134996
33
-0.187932
0
3DFACE
8
default
62
251
10
0.131232
20
-0.134996
30
-0.138696
11
0.124176
21
-0.134996
31
-0.137532
12
0.123540
22
-0.134996
32
-0.136704
13
0.131232
23
-0.134996
33
-0.138696
0
3DFACE
8
default
62
251
10
0.081996
20
-0.134996
30
-0.130464
11
0.080832
21
-0.134996
31
-0.137532
12
0.080004
22
-0.134996
32
-0.138168
13
0.081996
23
-0.134996
33
-0.130464
0
3DFACE
8
default
62
251
10
0.125964
20
-0.293504
30
-0.138564
11
0.126996
21
-0.293504
31
-0.138696
12
0.132996
22
-0.293504
32
-0.159204
13
0.125964
23
-0.293504
33
-0.138564
0
3DFACE
8
default
62
251
10
0.073764
20
-0.134996
30
-0.179700
11
0.080832
21
-0.134996
31
-0.180876
12
0.081468
22
-0.134996
32
-0.181704
13
0.073764
23
-0.134996
33
-0.179700
0
3DFACE
8
default
62
251
10
0.123000
20
-0.134996
30
-0.187932
11
0.124176
21
-0.134996
31
-0.180876
12
0.125004
22
-0.134996
32
-0.180240
13
0.123000
23
-0.134996
33
-0.187932
0
3DFACE
8
default
62
251
10
0.131232
20
-0.134996
30
-0.138696
11
0.123540
21
-0.134996
31
-0.136704
12
0.123132
22
-0.134996
32
-0.135732
13
0.131232
23
-0.134996
33
-0.138696
0
3DFACE
8
default
62
251
10
0.081996
20
-0.134996
30
-0.130464
11
0.080004
21
-0.134996
31
-0.138168
12
0.079032
22
-0.134996
32
-0.138564
13
0.081996
23
-0.134996
33
-0.130464
0
3DFACE
8
default
62
251
10
0.123132
20
-0.293504
30
-0.182664
11
0.123000
21
-0.293504
31
-0.183696
12
0.102504
22
-0.293504
32
-0.189696
13
0.123132
23
-0.293504
33
-0.182664
0
3DFACE
8
default
62
251
10
0.073764
20
-0.134996
30
-0.179700
11
0.081468
21
-0.134996
31
-0.181704
12
0.081864
22
-0.134996
32
-0.182664
13
0.073764
23
-0.134996
33
-0.179700
0
3DFACE
8
default
62
251
10
0.123000
20
-0.134996
30
-0.187932
11
0.125004
21
-0.134996
31
-0.180240
12
0.125964
22
-0.134996
32
-0.179832
13
0.123000
23
-0.134996
33
-0.187932
0
3DFACE
8
default
62
251
10
0.131232
20
-0.134996
30
-0.138696
11
0.123132
21
-0.134996
31
-0.135732
12
0.123000
22
-0.134996
32
-0.134700
13
0.131232
23
-0.134996
33
-0.138696
0
3DFACE
8
default
62
251
10
0.081996
20
-0.134996
30
-0.130464
11
0.079032
21
-0.134996
31
-0.138564
12
0.078000
22
-0.134996
32
-0.138696
13
0.081996
23
-0.134996
33
-0.130464
0
3DFACE
8
default
62
251
10
0.079032
20
-0.293504
30
-0.179832
11
0.078000
21
-0.293504
31
-0.179700
12
0.072000
22
-0.293504
32
-0.159204
13
0.079032
23
-0.293504
33
-0.179832
0
3DFACE
8
default
62
251
10
0.073764
20
-0.134996
30
-0.179700
11
0.081864
21
-0.134996
31
-0.182664
12
0.081996
22
-0.134996
32
-0.183696
13
0.073764
23
-0.134996
33
-0.179700
0
3DFACE
8
default
62
251
10
0.123000
20
-0.134996
30
-0.187932
11
0.125964
21
-0.134996
31
-0.179832
12
0.126996
22
-0.134996
32
-0.179700
13
0.123000
23
-0.134996
33
-0.187932
0
3DFACE
8
default
62
251
10
0.131232
20
-0.134996
30
-0.138696
11
0.123000
21
-0.134996
31
-0.134700
12
0.123000
22
-0.134996
32
-0.130464
13
0.131232
23
-0.134996
33
-0.138696
0
3DFACE
8
default
62
251
10
0.081996
20
-0.134996
30
-0.130464
11
0.078000
21
-0.134996
31
-0.138696
12
0.073764
22
-0.134996
32
-0.138696
13
0.081996
23
-0.134996
33
-0.130464
0
3DFACE
8
default
62
251
10
0.081864
20
-0.293504
30
-0.135732
11
0.081996
21
-0.293504
31
-0.134700
12
0.102504
22
-0.293504
32
-0.128700
13
0.081864
23
-0.293504
33
-0.135732
0
3DFACE
8
default
62
251
10
0.073764
20
-0.134996
30
-0.179700
11
0.081996
21
-0.134996
31
-0.183696
12
0.081996
22
-0.134996
32
-0.187932
13
0.073764
23
-0.134996
33
-0.179700
0
3DFACE
8
default
62
251
10
0.123000
20
-0.134996
30
-0.187932
11
0.126996
21
-0.134996
31
-0.179700
12
0.131232
22
-0.134996
32
-0.179700
13
0.123000
23
-0.134996
33
-0.187932
0
3DFACE
8
default
62
251
10
0.132996
20
-0.134996
30
-0.128700
11
0.132996
21
-0.134996
31
-0.159204
12
0.131232
22
-0.134996
32
-0.138696
13
0.132996
23
-0.134996
33
-0.128700
0
3DFACE
8
default
62
251
10
0.131232
20
-0.134996
30
-0.138696
11
0.123000
21
-0.134996
31
-0.130464
12
0.132996
22
-0.134996
32
-0.128700
13
0.131232
23
-0.134996
33
-0.138696
0
3DFACE
8
default
62
251
10
0.072000
20
-0.134996
30
-0.128700
11
0.102504
21
-0.134996
31
-0.128700
12
0.081996
22
-0.134996
32
-0.130464
13
0.072000
23
-0.134996
33
-0.128700
0
3DFACE
8
default
62
251
10
0.081996
20
-0.134996
30
-0.130464
11
0.073764
21
-0.134996
31
-0.138696
12
0.072000
22
-0.134996
32
-0.128700
13
0.081996
23
-0.134996
33
-0.130464
0
3DFACE
8
default
62
251
10
0.125004
20
-0.293504
30
-0.138168
11
0.125964
21
-0.293504
31
-0.138564
12
0.132996
22
-0.293504
32
-0.159204
13
0.125004
23
-0.293504
33
-0.138168
0
3DFACE
8
default
62
251
10
0.072000
20
-0.134996
30
-0.189696
11
0.072000
21
-0.134996
31
-0.159204
12
0.073764
22
-0.134996
32
-0.179700
13
0.072000
23
-0.134996
33
-0.189696
0
3DFACE
8
default
62
251
10
0.073764
20
-0.134996
30
-0.179700
11
0.081996
21
-0.134996
31
-0.187932
12
0.072000
22
-0.134996
32
-0.189696
13
0.073764
23
-0.134996
33
-0.179700
0
3DFACE
8
default
62
251
10
0.132996
20
-0.134996
30
-0.189696
11
0.102504
21
-0.134996
31
-0.189696
12
0.123000
22
-0.134996
32
-0.187932
13
0.132996
23
-0.134996
33
-0.189696
0
3DFACE
8
default
62
251
10
0.123000
20
-0.134996
30
-0.187932
11
0.131232
21
-0.134996
31
-0.179700
12
0.132996
22
-0.134996
32
-0.189696
13
0.123000
23
-0.134996
33
-0.187932
0
3DFACE
8
default
62
251
10
0.123540
20
-0.293504
30
-0.181704
11
0.123132
21
-0.293504
31
-0.182664
12
0.102504
22
-0.293504
32
-0.189696
13
0.123540
23
-0.293504
33
-0.181704
0
3DFACE
8
default
62
251
10
0.080004
20
-0.293504
30
-0.180240
11
0.079032
21
-0.293504
31
-0.179832
12
0.072000
22
-0.293504
32
-0.159204
13
0.080004
23
-0.293504
33
-0.180240
0
3DFACE
8
default
62
251
10
0.081468
20
-0.293504
30
-0.136704
11
0.081864
21
-0.293504
31
-0.135732
12
0.102504
22
-0.293504
32
-0.128700
13
0.081468
23
-0.293504
33
-0.136704
0
3DFACE
8
default
62
251
10
0.124176
20
-0.293504
30
-0.137532
11
0.125004
21
-0.293504
31
-0.138168
12
0.132996
22
-0.293504
32
-0.159204
13
0.124176
23
-0.293504
33
-0.137532
0
3DFACE
8
default
62
251
10
0.124176
20
-0.293504
30
-0.180876
11
0.123540
21
-0.293504
31
-0.181704
12
0.102504
22
-0.293504
32
-0.189696
13
0.124176
23
-0.293504
33
-0.180876
0
3DFACE
8
default
62
251
10
0.080832
20
-0.293504
30
-0.180876
11
0.080004
21
-0.293504
31
-0.180240
12
0.072000
22
-0.293504
32
-0.159204
13
0.080832
23
-0.293504
33
-0.180876
0
3DFACE
8
default
62
251
10
0.080832
20
-0.293504
30
-0.137532
11
0.081468
21
-0.293504
31
-0.136704
12
0.102504
22
-0.293504
32
-0.128700
13
0.080832
23
-0.293504
33
-0.137532
0
3DFACE
8
default
62
251
10
0.123540
20
-0.293504
30
-0.136704
11
0.124176
21
-0.293504
31
-0.137532
12
0.132996
22
-0.293504
32
-0.159204
13
0.123540
23
-0.293504
33
-0.136704
0
3DFACE
8
default
62
251
10
0.125004
20
-0.293504
30
-0.180240
11
0.124176
21
-0.293504
31
-0.180876
12
0.102504
22
-0.293504
32
-0.189696
13
0.125004
23
-0.293504
33
-0.180240
0
3DFACE
8
default
62
251
10
0.081468
20
-0.293504
30
-0.181704
11
0.080832
21
-0.293504
31
-0.180876
12
0.072000
22
-0.293504
32
-0.159204
13
0.081468
23
-0.293504
33
-0.181704
0
3DFACE
8
default
62
251
10
0.080004
20
-0.293504
30
-0.138168
11
0.080832
21
-0.293504
31
-0.137532
12
0.102504
22
-0.293504
32
-0.128700
13
0.080004
23
-0.293504
33
-0.138168
0
3DFACE
8
default
62
251
10
0.123540
20
-0.293504
30
-0.136704
11
0.132996
21
-0.293504
31
-0.159204
12
0.131232
22
-0.293504
32
-0.179700
13
0.123540
23
-0.293504
33
-0.136704
0
3DFACE
8
default
62
251
10
0.125004
20
-0.293504
30
-0.180240
11
0.102504
21
-0.293504
31
-0.189696
12
0.081996
22
-0.293504
32
-0.183696
13
0.125004
23
-0.293504
33
-0.180240
0
3DFACE
8
default
62
251
10
0.081468
20
-0.293504
30
-0.181704
11
0.072000
21
-0.293504
31
-0.159204
12
0.073764
22
-0.293504
32
-0.138696
13
0.081468
23
-0.293504
33
-0.181704
0
3DFACE
8
default
62
251
10
0.080004
20
-0.293504
30
-0.138168
11
0.102504
21
-0.293504
31
-0.128700
12
0.123000
22
-0.293504
32
-0.130464
13
0.080004
23
-0.293504
33
-0.138168
0
3DFACE
8
default
62
251
10
0.123132
20
-0.293504
30
-0.135732
11
0.123540
21
-0.293504
31
-0.136704
12
0.131232
22
-0.293504
32
-0.179700
13
0.123132
23
-0.293504
33
-0.135732
0
3DFACE
8
default
62
251
10
0.125964
20
-0.293504
30
-0.179832
11
0.125004
21
-0.293504
31
-0.180240
12
0.081996
22
-0.293504
32
-0.183696
13
0.125964
23
-0.293504
33
-0.179832
0
3DFACE
8
default
62
251
10
0.081864
20
-0.293504
30
-0.182664
11
0.081468
21
-0.293504
31
-0.181704
12
0.073764
22
-0.293504
32
-0.138696
13
0.081864
23
-0.293504
33
-0.182664
0
3DFACE
8
default
62
251
10
0.079032
20
-0.293504
30
-0.138564
11
0.080004
21
-0.293504
31
-0.138168
12
0.123000
22
-0.293504
32
-0.130464
13
0.079032
23
-0.293504
33
-0.138564
0
3DFACE
8
default
62
251
10
0.123132
20
-0.293504
30
-0.135732
11
0.131232
21
-0.293504
31
-0.179700
12
0.126996
22
-0.293504
32
-0.179700
13
0.123132
23
-0.293504
33
-0.135732
0
3DFACE
8
default
62
251
10
0.081864
20
-0.293504
30
-0.182664
11
0.073764
21
-0.293504
31
-0.138696
12
0.078000
22
-0.293504
32
-0.138696
13
0.081864
23
-0.293504
33
-0.182664
0
3DFACE
8
default
62
251
10
0.079032
20
-0.293504
30
-0.138564
11
0.123000
21
-0.293504
31
-0.130464
12
0.123000
22
-0.293504
32
-0.134700
13
0.079032
23
-0.293504
33
-0.138564
0
3DFACE
8
default
62
251
10
0.123000
20
-0.293504
30
-0.134700
11
0.123132
21
-0.293504
31
-0.135732
12
0.126996
22
-0.293504
32
-0.179700
13
0.123000
23
-0.293504
33
-0.134700
0
3DFACE
8
default
62
251
10
0.123000
20
-0.293504
30
-0.134700
11
0.126996
21
-0.293504
31
-0.179700
12
0.125964
22
-0.293504
32
-0.179832
13
0.123000
23
-0.293504
33
-0.134700
0
3DFACE
8
default
62
251
10
0.123000
20
-0.293504
30
-0.134700
11
0.125964
21
-0.293504
31
-0.179832
12
0.081996
22
-0.293504
32
-0.183696
13
0.123000
23
-0.293504
33
-0.134700
0
3DFACE
8
default
62
251
10
0.123000
20
-0.293504
30
-0.134700
11
0.081996
21
-0.293504
31
-0.183696
12
0.081864
22
-0.293504
32
-0.182664
13
0.123000
23
-0.293504
33
-0.134700
0
3DFACE
8
default
62
251
10
0.123000
20
-0.293504
30
-0.134700
11
0.081864
21
-0.293504
31
-0.182664
12
0.078000
22
-0.293504
32
-0.138696
13
0.123000
23
-0.293504
33
-0.134700
0
3DFACE
8
default
62
251
10
0.123000
20
-0.293504
30
-0.134700
11
0.078000
21
-0.293504
31
-0.138696
12
0.079032
22
-0.293504
32
-0.138564
13
0.123000
23
-0.293504
33
-0.134700
0
3DFACE
8
default
62
251
10
0.032004
20
-0.134996
30
-0.159204
11
0.032004
21
-0.134996
31
-0.128700
12
0.032004
22
-0.119996
32
-0.128700
13
0.032004
23
-0.134996
33
-0.159204
0
3DFACE
8
default
62
251
10
0.032004
20
-0.134996
30
-0.159204
11
0.032004
21
-0.119996
31
-0.128700
12
0.032004
22
-0.119996
32
-0.189696
13
0.032004
23
-0.134996
33
-0.159204
0
3DFACE
8
default
62
251
10
0.032004
20
-0.134996
30
-0.159204
11
0.032004
21
-0.119996
31
-0.189696
12
0.032004
22
-0.134996
32
-0.189696
13
0.032004
23
-0.134996
33
-0.159204
0
3DFACE
8
default
62
251
10
0.021996
20
-0.293504
30
-0.130464
11
0.001500
21
-0.293504
31
-0.128700
12
0.001500
22
-0.134996
32
-0.128700
13
0.021996
23
-0.293504
33
-0.130464
0
3DFACE
8
default
62
251
10
0.021996
20
-0.293504
30
-0.130464
11
0.001500
21
-0.134996
31
-0.128700
12
0.021996
22
-0.134996
32
-0.130464
13
0.021996
23
-0.293504
33
-0.130464
0
3DFACE
8
default
62
251
10
0.001500
20
-0.293504
30
-0.128700
11
-0.018996
21
-0.293504
31
-0.130464
12
-0.018996
22
-0.134996
32
-0.130464
13
0.001500
23
-0.293504
33
-0.128700
0
3DFACE
8
default
62
251
10
0.001500
20
-0.293504
30
-0.128700
11
-0.018996
21
-0.134996
31
-0.130464
12
0.001500
22
-0.134996
32
-0.128700
13
0.001500
23
-0.293504
33
-0.128700
0
3DFACE
8
default
62
251
10
0.032004
20
-0.119996
30
-0.128700
11
-0.029004
21
-0.119996
31
-0.128700
12
-0.029004
22
-0.119996
32
-0.189696
13
0.032004
23
-0.119996
33
-0.128700
0
3DFACE
8
default
62
251
10
0.032004
20
-0.119996
30
-0.128700
11
-0.029004
21
-0.119996
31
-0.189696
12
0.032004
22
-0.119996
32
-0.189696
13
0.032004
23
-0.119996
33
-0.128700
0
3DFACE
8
default
62
251
10
0.032004
20
-0.119996
30
-0.128700
11
0.032004
21
-0.134996
31
-0.128700
12
0.001500
22
-0.134996
32
-0.128700
13
0.032004
23
-0.119996
33
-0.128700
0
3DFACE
8
default
62
251
10
0.032004
20
-0.119996
30
-0.128700
11
0.001500
21
-0.134996
31
-0.128700
12
-0.029004
22
-0.134996
32
-0.128700
13
0.032004
23
-0.119996
33
-0.128700
0
3DFACE
8
default
62
251
10
0.032004
20
-0.119996
30
-0.128700
11
-0.029004
21
-0.134996
31
-0.128700
12
-0.029004
22
-0.119996
32
-0.128700
13
0.032004
23
-0.119996
33
-0.128700
0
3DFACE
8
default
62
251
10
-0.029004
20
-0.134996
30
-0.128700
11
-0.029004
21
-0.134996
31
-0.159204
12
-0.029004
22
-0.134996
32
-0.189696
13
-0.029004
23
-0.134996
33
-0.128700
0
3DFACE
8
default
62
251
10
-0.029004
20
-0.134996
30
-0.128700
11
-0.029004
21
-0.134996
31
-0.189696
12
-0.029004
22
-0.119996
32
-0.189696
13
-0.029004
23
-0.134996
33
-0.128700
0
3DFACE
8
default
62
251
10
-0.029004
20
-0.134996
30
-0.128700
11
-0.029004
21
-0.119996
31
-0.189696
12
-0.029004
22
-0.119996
32
-0.128700
13
-0.029004
23
-0.134996
33
-0.128700
0
3DFACE
8
default
62
251
10
-0.018996
20
-0.134996
30
-0.130464
11
-0.018996
21
-0.293504
31
-0.130464
12
-0.018996
22
-0.293504
32
-0.134700
13
-0.018996
23
-0.134996
33
-0.130464
0
3DFACE
8
default
62
251
10
-0.018996
20
-0.134996
30
-0.130464
11
-0.018996
21
-0.293504
31
-0.134700
12
-0.018996
22
-0.134996
32
-0.134700
13
-0.018996
23
-0.134996
33
-0.130464
0
3DFACE
8
default
62
251
10
-0.018996
20
-0.134996
30
-0.183696
11
-0.018996
21
-0.293504
31
-0.183696
12
-0.018996
22
-0.293504
32
-0.187932
13
-0.018996
23
-0.134996
33
-0.183696
0
3DFACE
8
default
62
251
10
-0.018996
20
-0.134996
30
-0.183696
11
-0.018996
21
-0.293504
31
-0.187932
12
-0.018996
22
-0.134996
32
-0.187932
13
-0.018996
23
-0.134996
33
-0.183696
0
3DFACE
8
default
62
251
10
0.021996
20
-0.293504
30
-0.134700
11
0.021996
21
-0.293504
31
-0.130464
12
0.021996
22
-0.134996
32
-0.130464
13
0.021996
23
-0.293504
33
-0.134700
0
3DFACE
8
default
62
251
10
0.021996
20
-0.293504
30
-0.134700
11
0.021996
21
-0.134996
31
-0.130464
12
0.021996
22
-0.134996
32
-0.134700
13
0.021996
23
-0.293504
33
-0.134700
0
3DFACE
8
default
62
251
10
0.021996
20
-0.293504
30
-0.187932
11
0.021996
21
-0.293504
31
-0.183696
12
0.021996
22
-0.134996
32
-0.183696
13
0.021996
23
-0.293504
33
-0.187932
0
3DFACE
8
default
62
251
10
0.021996
20
-0.293504
30
-0.187932
11
0.021996
21
-0.134996
31
-0.183696
12
0.021996
22
-0.134996
32
-0.187932
13
0.021996
23
-0.293504
33
-0.187932
0
3DFACE
8
default
62
251
10
0.021996
20
-0.134996
30
-0.134700
11
0.022140
21
-0.134996
31
-0.135732
12
0.022140
22
-0.293504
32
-0.135732
13
0.021996
23
-0.134996
33
-0.134700
0
3DFACE
8
default
62
251
10
0.021996
20
-0.134996
30
-0.134700
11
0.022140
21
-0.293504
31
-0.135732
12
0.021996
22
-0.293504
32
-0.134700
13
0.021996
23
-0.134996
33
-0.134700
0
3DFACE
8
default
62
251
10
-0.019140
20
-0.134996
30
-0.135732
11
-0.018996
21
-0.134996
31
-0.134700
12
-0.018996
22
-0.293504
32
-0.134700
13
-0.019140
23
-0.134996
33
-0.135732
0
3DFACE
8
default
62
251
10
-0.019140
20
-0.134996
30
-0.135732
11
-0.018996
21
-0.293504
31
-0.134700
12
-0.019140
22
-0.293504
32
-0.135732
13
-0.019140
23
-0.134996
33
-0.135732
0
3DFACE
8
default
62
251
10
-0.019536
20
-0.134996
30
-0.136704
11
-0.019140
21
-0.134996
31
-0.135732
12
-0.019140
22
-0.293504
32
-0.135732
13
-0.019536
23
-0.134996
33
-0.136704
0
3DFACE
8
default
62
251
10
-0.019536
20
-0.134996
30
-0.136704
11
-0.019140
21
-0.293504
31
-0.135732
12
-0.019536
22
-0.293504
32
-0.136704
13
-0.019536
23
-0.134996
33
-0.136704
0
3DFACE
8
default
62
251
10
0.022140
20
-0.134996
30
-0.135732
11
0.022536
21
-0.134996
31
-0.136704
12
0.022536
22
-0.293504
32
-0.136704
13
0.022140
23
-0.134996
33
-0.135732
0
3DFACE
8
default
62
251
10
0.022140
20
-0.134996
30
-0.135732
11
0.022536
21
-0.293504
31
-0.136704
12
0.022140
22
-0.293504
32
-0.135732
13
0.022140
23
-0.134996
33
-0.135732
0
3DFACE
8
default
62
251
10
0.022536
20
-0.134996
30
-0.136704
11
0.023172
21
-0.134996
31
-0.137532
12
0.023172
22
-0.293504
32
-0.137532
13
0.022536
23
-0.134996
33
-0.136704
0
3DFACE
8
default
62
251
10
0.022536
20
-0.134996
30
-0.136704
11
0.023172
21
-0.293504
31
-0.137532
12
0.022536
22
-0.293504
32
-0.136704
13
0.022536
23
-0.134996
33
-0.136704
0
3DFACE
8
default
62
251
10
-0.020172
20
-0.134996
30
-0.137532
11
-0.019536
21
-0.134996
31
-0.136704
12
-0.019536
22
-0.293504
32
-0.136704
13
-0.020172
23
-0.134996
33
-0.137532
0
3DFACE
8
default
62
251
10
-0.020172
20
-0.134996
30
-0.137532
11
-0.019536
21
-0.293504
31
-0.136704
12
-0.020172
22
-0.293504
32
-0.137532
13
-0.020172
23
-0.134996
33
-0.137532
0
3DFACE
8
default
62
251
10
-0.021000
20
-0.134996
30
-0.138168
11
-0.020172
21
-0.134996
31
-0.137532
12
-0.020172
22
-0.293504
32
-0.137532
13
-0.021000
23
-0.134996
33
-0.138168
0
3DFACE
8
default
62
251
10
-0.021000
20
-0.134996
30
-0.138168
11
-0.020172
21
-0.293504
31
-0.137532
12
-0.021000
22
-0.293504
32
-0.138168
13
-0.021000
23
-0.134996
33
-0.138168
0
3DFACE
8
default
62
251
10
0.023172
20
-0.134996
30
-0.137532
11
0.024000
21
-0.134996
31
-0.138168
12
0.024000
22
-0.293504
32
-0.138168
13
0.023172
23
-0.134996
33
-0.137532
0
3DFACE
8
default
62
251
10
0.023172
20
-0.134996
30
-0.137532
11
0.024000
21
-0.293504
31
-0.138168
12
0.023172
22
-0.293504
32
-0.137532
13
0.023172
23
-0.134996
33
-0.137532
0
3DFACE
8
default
62
251
10
-0.021960
20
-0.134996
30
-0.138564
11
-0.021000
21
-0.134996
31
-0.138168
12
-0.021000
22
-0.293504
32
-0.138168
13
-0.021960
23
-0.134996
33
-0.138564
0
3DFACE
8
default
62
251
10
-0.021960
20
-0.134996
30
-0.138564
11
-0.021000
21
-0.293504
31
-0.138168
12
-0.021960
22
-0.293504
32
-0.138564
13
-0.021960
23
-0.134996
33
-0.138564
0
3DFACE
8
default
62
251
10
0.024000
20
-0.134996
30
-0.138168
11
0.024960
21
-0.134996
31
-0.138564
12
0.024960
22
-0.293504
32
-0.138564
13
0.024000
23
-0.134996
33
-0.138168
0
3DFACE
8
default
62
251
10
0.024000
20
-0.134996
30
-0.138168
11
0.024960
21
-0.293504
31
-0.138564
12
0.024000
22
-0.293504
32
-0.138168
13
0.024000
23
-0.134996
33
-0.138168
0
3DFACE
8
default
62
251
10
0.024960
20
-0.134996
30
-0.138564
11
0.026004
21
-0.134996
31
-0.138696
12
0.026004
22
-0.293504
32
-0.138696
13
0.024960
23
-0.134996
33
-0.138564
0
3DFACE
8
default
62
251
10
0.024960
20
-0.134996
30
-0.138564
11
0.026004
21
-0.293504
31
-0.138696
12
0.024960
22
-0.293504
32
-0.138564
13
0.024960
23
-0.134996
33
-0.138564
0
3DFACE
8
default
62
251
10
-0.023004
20
-0.134996
30
-0.138696
11
-0.021960
21
-0.134996
31
-0.138564
12
-0.021960
22
-0.293504
32
-0.138564
13
-0.023004
23
-0.134996
33
-0.138696
0
3DFACE
8
default
62
251
10
-0.023004
20
-0.134996
30
-0.138696
11
-0.021960
21
-0.293504
31
-0.138564
12
-0.023004
22
-0.293504
32
-0.138696
13
-0.023004
23
-0.134996
33
-0.138696
0
3DFACE
8
default
62
251
10
0.026004
20
-0.134996
30
-0.138696
11
0.030240
21
-0.134996
31
-0.138696
12
0.030240
22
-0.293504
32
-0.138696
13
0.026004
23
-0.134996
33
-0.138696
0
3DFACE
8
default
62
251
10
0.026004
20
-0.134996
30
-0.138696
11
0.030240
21
-0.293504
31
-0.138696
12
0.026004
22
-0.293504
32
-0.138696
13
0.026004
23
-0.134996
33
-0.138696
0
3DFACE
8
default
62
251
10
-0.027240
20
-0.134996
30
-0.138696
11
-0.023004
21
-0.134996
31
-0.138696
12
-0.023004
22
-0.293504
32
-0.138696
13
-0.027240
23
-0.134996
33
-0.138696
0
3DFACE
8
default
62
251
10
-0.027240
20
-0.134996
30
-0.138696
11
-0.023004
21
-0.293504
31
-0.138696
12
-0.027240
22
-0.293504
32
-0.138696
13
-0.027240
23
-0.134996
33
-0.138696
0
3DFACE
8
default
62
251
10
0.030240
20
-0.134996
30
-0.138696
11
0.032004
21
-0.134996
31
-0.159204
12
0.032004
22
-0.293504
32
-0.159204
13
0.030240
23
-0.134996
33
-0.138696
0
3DFACE
8
default
62
251
10
0.030240
20
-0.134996
30
-0.138696
11
0.032004
21
-0.293504
31
-0.159204
12
0.030240
22
-0.293504
32
-0.138696
13
0.030240
23
-0.134996
33
-0.138696
0
3DFACE
8
default
62
251
10
-0.029004
20
-0.134996
30
-0.159204
11
-0.027240
21
-0.134996
31
-0.138696
12
-0.027240
22
-0.293504
32
-0.138696
13
-0.029004
23
-0.134996
33
-0.159204
0
3DFACE
8
default
62
251
10
-0.029004
20
-0.134996
30
-0.159204
11
-0.027240
21
-0.293504
31
-0.138696
12
-0.029004
22
-0.293504
32
-0.159204
13
-0.029004
23
-0.134996
33
-0.159204
0
3DFACE
8
default
62
251
10
0.030240
20
-0.293504
30
-0.179700
11
0.032004
21
-0.293504
31
-0.159204
12
0.032004
22
-0.134996
32
-0.159204
13
0.030240
23
-0.293504
33
-0.179700
0
3DFACE
8
default
62
251
10
0.030240
20
-0.293504
30
-0.179700
11
0.032004
21
-0.134996
31
-0.159204
12
0.030240
22
-0.134996
32
-0.179700
13
0.030240
23
-0.293504
33
-0.179700
0
3DFACE
8
default
62
251
10
-0.029004
20
-0.134996
30
-0.159204
11
-0.029004
21
-0.293504
31
-0.159204
12
-0.027240
22
-0.293504
32
-0.179700
13
-0.029004
23
-0.134996
33
-0.159204
0
3DFACE
8
default
62
251
10
-0.029004
20
-0.134996
30
-0.159204
11
-0.027240
21
-0.293504
31
-0.179700
12
-0.027240
22
-0.134996
32
-0.179700
13
-0.029004
23
-0.134996
33
-0.159204
0
3DFACE
8
default
62
251
10
0.026004
20
-0.293504
30
-0.179700
11
0.030240
21
-0.293504
31
-0.179700
12
0.030240
22
-0.134996
32
-0.179700
13
0.026004
23
-0.293504
33
-0.179700
0
3DFACE
8
default
62
251
10
0.026004
20
-0.293504
30
-0.179700
11
0.030240
21
-0.134996
31
-0.179700
12
0.026004
22
-0.134996
32
-0.179700
13
0.026004
23
-0.293504
33
-0.179700
0
3DFACE
8
default
62
251
10
-0.027240
20
-0.134996
30
-0.179700
11
-0.027240
21
-0.293504
31
-0.179700
12
-0.023004
22
-0.293504
32
-0.179700
13
-0.027240
23
-0.134996
33
-0.179700
0
3DFACE
8
default
62
251
10
-0.027240
20
-0.134996
30
-0.179700
11
-0.023004
21
-0.293504
31
-0.179700
12
-0.023004
22
-0.134996
32
-0.179700
13
-0.027240
23
-0.134996
33
-0.179700
0
3DFACE
8
default
62
251
10
-0.023004
20
-0.293504
30
-0.179700
11
-0.021960
21
-0.293504
31
-0.179832
12
-0.021960
22
-0.134996
32
-0.179832
13
-0.023004
23
-0.293504
33
-0.179700
0
3DFACE
8
default
62
251
10
-0.023004
20
-0.293504
30
-0.179700
11
-0.021960
21
-0.134996
31
-0.179832
12
-0.023004
22
-0.134996
32
-0.179700
13
-0.023004
23
-0.293504
33
-0.179700
0
3DFACE
8
default
62
251
10
0.024960
20
-0.293504
30
-0.179832
11
0.026004
21
-0.293504
31
-0.179700
12
0.026004
22
-0.134996
32
-0.179700
13
0.024960
23
-0.293504
33
-0.179832
0
3DFACE
8
default
62
251
10
0.024960
20
-0.293504
30
-0.179832
11
0.026004
21
-0.134996
31
-0.179700
12
0.024960
22
-0.134996
32
-0.179832
13
0.024960
23
-0.293504
33
-0.179832
0
3DFACE
8
default
62
251
10
-0.021960
20
-0.293504
30
-0.179832
11
-0.021000
21
-0.293504
31
-0.180240
12
-0.021000
22
-0.134996
32
-0.180240
13
-0.021960
23
-0.293504
33
-0.179832
0
3DFACE
8
default
62
251
10
-0.021960
20
-0.293504
30
-0.179832
11
-0.021000
21
-0.134996
31
-0.180240
12
-0.021960
22
-0.134996
32
-0.179832
13
-0.021960
23
-0.293504
33
-0.179832
0
3DFACE
8
default
62
251
10
0.024000
20
-0.293504
30
-0.180240
11
0.024960
21
-0.293504
31
-0.179832
12
0.024960
22
-0.134996
32
-0.179832
13
0.024000
23
-0.293504
33
-0.180240
0
3DFACE
8
default
62
251
10
0.024000
20
-0.293504
30
-0.180240
11
0.024960
21
-0.134996
31
-0.179832
12
0.024000
22
-0.134996
32
-0.180240
13
0.024000
23
-0.293504
33
-0.180240
0
3DFACE
8
default
62
251
10
0.023172
20
-0.293504
30
-0.180876
11
0.024000
21
-0.293504
31
-0.180240
12
0.024000
22
-0.134996
32
-0.180240
13
0.023172
23
-0.293504
33
-0.180876
0
3DFACE
8
default
62
251
10
0.023172
20
-0.293504
30
-0.180876
11
0.024000
21
-0.134996
31
-0.180240
12
0.023172
22
-0.134996
32
-0.180876
13
0.023172
23
-0.293504
33
-0.180876
0
3DFACE
8
default
62
251
10
-0.021000
20
-0.293504
30
-0.180240
11
-0.020172
21
-0.293504
31
-0.180876
12
-0.020172
22
-0.134996
32
-0.180876
13
-0.021000
23
-0.293504
33
-0.180240
0
3DFACE
8
default
62
251
10
-0.021000
20
-0.293504
30
-0.180240
11
-0.020172
21
-0.134996
31
-0.180876
12
-0.021000
22
-0.134996
32
-0.180240
13
-0.021000
23
-0.293504
33
-0.180240
0
3DFACE
8
default
62
251
10
0.022536
20
-0.293504
30
-0.181704
11
0.023172
21
-0.293504
31
-0.180876
12
0.023172
22
-0.134996
32
-0.180876
13
0.022536
23
-0.293504
33
-0.181704
0
3DFACE
8
default
62
251
10
0.022536
20
-0.293504
30
-0.181704
11
0.023172
21
-0.134996
31
-0.180876
12
0.022536
22
-0.134996
32
-0.181704
13
0.022536
23
-0.293504
33
-0.181704
0
3DFACE
8
default
62
251
10
-0.020172
20
-0.293504
30
-0.180876
11
-0.019536
21
-0.293504
31
-0.181704
12
-0.019536
22
-0.134996
32
-0.181704
13
-0.020172
23
-0.293504
33
-0.180876
0
3DFACE
8
default
62
251
10
-0.020172
20
-0.293504
30
-0.180876
11
-0.019536
21
-0.134996
31
-0.181704
12
-0.020172
22
-0.134996
32
-0.180876
13
-0.020172
23
-0.293504
33
-0.180876
0
3DFACE
8
default
62
251
10
-0.019536
20
-0.134996
30
-0.181704
11
-0.019536
21
-0.293504
31
-0.181704
12
-0.019140
22
-0.293504
32
-0.182664
13
-0.019536
23
-0.134996
33
-0.181704
0
3DFACE
8
default
62
251
10
-0.019536
20
-0.134996
30
-0.181704
11
-0.019140
21
-0.293504
31
-0.182664
12
-0.019140
22
-0.134996
32
-0.182664
13
-0.019536
23
-0.134996
33
-0.181704
0
3DFACE
8
default
62
251
10
0.022140
20
-0.293504
30
-0.182664
11
0.022536
21
-0.293504
31
-0.181704
12
0.022536
22
-0.134996
32
-0.181704
13
0.022140
23
-0.293504
33
-0.182664
0
3DFACE
8
default
62
251
10
0.022140
20
-0.293504
30
-0.182664
11
0.022536
21
-0.134996
31
-0.181704
12
0.022140
22
-0.134996
32
-0.182664
13
0.022140
23
-0.293504
33
-0.182664
0
3DFACE
8
default
62
251
10
-0.019140
20
-0.134996
30
-0.182664
11
-0.019140
21
-0.293504
31
-0.182664
12
-0.018996
22
-0.293504
32
-0.183696
13
-0.019140
23
-0.134996
33
-0.182664
0
3DFACE
8
default
62
251
10
-0.019140
20
-0.134996
30
-0.182664
11
-0.018996
21
-0.293504
31
-0.183696
12
-0.018996
22
-0.134996
32
-0.183696
13
-0.019140
23
-0.134996
33
-0.182664
0
3DFACE
8
default
62
251
10
0.021996
20
-0.293504
30
-0.183696
11
0.022140
21
-0.293504
31
-0.182664
12
0.022140
22
-0.134996
32
-0.182664
13
0.021996
23
-0.293504
33
-0.183696
0
3DFACE
8
default
62
251
10
0.021996
20
-0.293504
30
-0.183696
11
0.022140
21
-0.134996
31
-0.182664
12
0.021996
22
-0.134996
32
-0.183696
13
0.021996
23
-0.293504
33
-0.183696
0
3DFACE
8
default
62
251
10
-0.018996
20
-0.134996
30
-0.187932
11
-0.018996
21
-0.293504
31
-0.187932
12
0.001500
22
-0.293504
32
-0.189696
13
-0.018996
23
-0.134996
33
-0.187932
0
3DFACE
8
default
62
251
10
-0.018996
20
-0.134996
30
-0.187932
11
0.001500
21
-0.293504
31
-0.189696
12
0.001500
22
-0.134996
32
-0.189696
13
-0.018996
23
-0.134996
33
-0.187932
0
3DFACE
8
default
62
251
10
0.001500
20
-0.293504
30
-0.189696
11
0.021996
21
-0.293504
31
-0.187932
12
0.021996
22
-0.134996
32
-0.187932
13
0.001500
23
-0.293504
33
-0.189696
0
3DFACE
8
default
62
251
10
0.001500
20
-0.293504
30
-0.189696
11
0.021996
21
-0.134996
31
-0.187932
12
0.001500
22
-0.134996
32
-0.189696
13
0.001500
23
-0.293504
33
-0.189696
0
3DFACE
8
default
62
251
10
0.032004
20
-0.119996
30
-0.189696
11
-0.029004
21
-0.119996
31
-0.189696
12
-0.029004
22
-0.134996
32
-0.189696
13
0.032004
23
-0.119996
33
-0.189696
0
3DFACE
8
default
62
251
10
0.032004
20
-0.119996
30
-0.189696
11
-0.029004
21
-0.134996
31
-0.189696
12
0.001500
22
-0.134996
32
-0.189696
13
0.032004
23
-0.119996
33
-0.189696
0
3DFACE
8
default
62
251
10
0.032004
20
-0.119996
30
-0.189696
11
0.001500
21
-0.134996
31
-0.189696
12
0.032004
22
-0.134996
32
-0.189696
13
0.032004
23
-0.119996
33
-0.189696
0
3DFACE
8
default
62
251
10
-0.018996
20
-0.293504
30
-0.187932
11
-0.018996
21
-0.293504
31
-0.183696
12
0.001500
22
-0.293504
32
-0.189696
13
-0.018996
23
-0.293504
33
-0.187932
0
3DFACE
8
default
62
251
10
-0.018996
20
-0.134996
30
-0.130464
11
-0.018996
21
-0.134996
31
-0.134700
12
-0.019140
22
-0.134996
32
-0.135732
13
-0.018996
23
-0.134996
33
-0.130464
0
3DFACE
8
default
62
251
10
0.030240
20
-0.134996
30
-0.138696
11
0.026004
21
-0.134996
31
-0.138696
12
0.024960
22
-0.134996
32
-0.138564
13
0.030240
23
-0.134996
33
-0.138696
0
3DFACE
8
default
62
251
10
0.026004
20
-0.293504
30
-0.138696
11
0.030240
21
-0.293504
31
-0.138696
12
0.032004
22
-0.293504
32
-0.159204
13
0.026004
23
-0.293504
33
-0.138696
0
3DFACE
8
default
62
251
10
0.021996
20
-0.134996
30
-0.187932
11
0.021996
21
-0.134996
31
-0.183696
12
0.022140
22
-0.134996
32
-0.182664
13
0.021996
23
-0.134996
33
-0.187932
0
3DFACE
8
default
62
251
10
-0.027240
20
-0.134996
30
-0.179700
11
-0.023004
21
-0.134996
31
-0.179700
12
-0.021960
22
-0.134996
32
-0.179832
13
-0.027240
23
-0.134996
33
-0.179700
0
3DFACE
8
default
62
251
10
-0.027240
20
-0.134996
30
-0.138696
11
-0.029004
21
-0.134996
31
-0.159204
12
-0.029004
22
-0.134996
32
-0.128700
13
-0.027240
23
-0.134996
33
-0.138696
0
3DFACE
8
default
62
251
10
0.021996
20
-0.134996
30
-0.130464
11
0.001500
21
-0.134996
31
-0.128700
12
0.032004
22
-0.134996
32
-0.128700
13
0.021996
23
-0.134996
33
-0.130464
0
3DFACE
8
default
62
251
10
0.021996
20
-0.293504
30
-0.183696
11
0.021996
21
-0.293504
31
-0.187932
12
0.001500
22
-0.293504
32
-0.189696
13
0.021996
23
-0.293504
33
-0.183696
0
3DFACE
8
default
62
251
10
0.030240
20
-0.134996
30
-0.179700
11
0.032004
21
-0.134996
31
-0.159204
12
0.032004
22
-0.134996
32
-0.189696
13
0.030240
23
-0.134996
33
-0.179700
0
3DFACE
8
default
62
251
10
-0.018996
20
-0.134996
30
-0.187932
11
0.001500
21
-0.134996
31
-0.189696
12
-0.029004
22
-0.134996
32
-0.189696
13
-0.018996
23
-0.134996
33
-0.187932
0
3DFACE
8
default
62
251
10
-0.018996
20
-0.134996
30
-0.130464
11
-0.019140
21
-0.134996
31
-0.135732
12
-0.019536
22
-0.134996
32
-0.136704
13
-0.018996
23
-0.134996
33
-0.130464
0
3DFACE
8
default
62
251
10
0.030240
20
-0.134996
30
-0.138696
11
0.024960
21
-0.134996
31
-0.138564
12
0.024000
22
-0.134996
32
-0.138168
13
0.030240
23
-0.134996
33
-0.138696
0
3DFACE
8
default
62
251
10
-0.023004
20
-0.293504
30
-0.179700
11
-0.027240
21
-0.293504
31
-0.179700
12
-0.029004
22
-0.293504
32
-0.159204
13
-0.023004
23
-0.293504
33
-0.179700
0
3DFACE
8
default
62
251
10
0.021996
20
-0.134996
30
-0.187932
11
0.022140
21
-0.134996
31
-0.182664
12
0.022536
22
-0.134996
32
-0.181704
13
0.021996
23
-0.134996
33
-0.187932
0
3DFACE
8
default
62
251
10
-0.027240
20
-0.134996
30
-0.179700
11
-0.021960
21
-0.134996
31
-0.179832
12
-0.021000
22
-0.134996
32
-0.180240
13
-0.027240
23
-0.134996
33
-0.179700
0
3DFACE
8
default
62
251
10
-0.018996
20
-0.134996
30
-0.130464
11
-0.019536
21
-0.134996
31
-0.136704
12
-0.020172
22
-0.134996
32
-0.137532
13
-0.018996
23
-0.134996
33
-0.130464
0
3DFACE
8
default
62
251
10
0.030240
20
-0.134996
30
-0.138696
11
0.024000
21
-0.134996
31
-0.138168
12
0.023172
22
-0.134996
32
-0.137532
13
0.030240
23
-0.134996
33
-0.138696
0
3DFACE
8
default
62
251
10
-0.018996
20
-0.293504
30
-0.134700
11
-0.018996
21
-0.293504
31
-0.130464
12
0.001500
22
-0.293504
32
-0.128700
13
-0.018996
23
-0.293504
33
-0.134700
0
3DFACE
8
default
62
251
10
0.021996
20
-0.134996
30
-0.187932
11
0.022536
21
-0.134996
31
-0.181704
12
0.023172
22
-0.134996
32
-0.180876
13
0.021996
23
-0.134996
33
-0.187932
0
3DFACE
8
default
62
251
10
-0.027240
20
-0.134996
30
-0.179700
11
-0.021000
21
-0.134996
31
-0.180240
12
-0.020172
22
-0.134996
32
-0.180876
13
-0.027240
23
-0.134996
33
-0.179700
0
3DFACE
8
default
62
251
10
-0.018996
20
-0.134996
30
-0.130464
11
-0.020172
21
-0.134996
31
-0.137532
12
-0.021000
22
-0.134996
32
-0.138168
13
-0.018996
23
-0.134996
33
-0.130464
0
3DFACE
8
default
62
251
10
0.030240
20
-0.134996
30
-0.138696
11
0.023172
21
-0.134996
31
-0.137532
12
0.022536
22
-0.134996
32
-0.136704
13
0.030240
23
-0.134996
33
-0.138696
0
3DFACE
8
default
62
251
10
0.024960
20
-0.293504
30
-0.138564
11
0.026004
21
-0.293504
31
-0.138696
12
0.032004
22
-0.293504
32
-0.159204
13
0.024960
23
-0.293504
33
-0.138564
0
3DFACE
8
default
62
251
10
0.021996
20
-0.134996
30
-0.187932
11
0.023172
21
-0.134996
31
-0.180876
12
0.024000
22
-0.134996
32
-0.180240
13
0.021996
23
-0.134996
33
-0.187932
0
3DFACE
8
default
62
251
10
-0.027240
20
-0.134996
30
-0.179700
11
-0.020172
21
-0.134996
31
-0.180876
12
-0.019536
22
-0.134996
32
-0.181704
13
-0.027240
23
-0.134996
33
-0.179700
0
3DFACE
8
default
62
251
10
-0.018996
20
-0.134996
30
-0.130464
11
-0.021000
21
-0.134996
31
-0.138168
12
-0.021960
22
-0.134996
32
-0.138564
13
-0.018996
23
-0.134996
33
-0.130464
0
3DFACE
8
default
62
251
10
0.030240
20
-0.134996
30
-0.138696
11
0.022536
21
-0.134996
31
-0.136704
12
0.022140
22
-0.134996
32
-0.135732
13
0.030240
23
-0.134996
33
-0.138696
0
3DFACE
8
default
62
251
10
0.022140
20
-0.293504
30
-0.182664
11
0.021996
21
-0.293504
31
-0.183696
12
0.001500
22
-0.293504
32
-0.189696
13
0.022140
23
-0.293504
33
-0.182664
0
3DFACE
8
default
62
251
10
0.021996
20
-0.134996
30
-0.187932
11
0.024000
21
-0.134996
31
-0.180240
12
0.024960
22
-0.134996
32
-0.179832
13
0.021996
23
-0.134996
33
-0.187932
0
3DFACE
8
default
62
251
10
-0.027240
20
-0.134996
30
-0.179700
11
-0.019536
21
-0.134996
31
-0.181704
12
-0.019140
22
-0.134996
32
-0.182664
13
-0.027240
23
-0.134996
33
-0.179700
0
3DFACE
8
default
62
251
10
-0.018996
20
-0.134996
30
-0.130464
11
-0.021960
21
-0.134996
31
-0.138564
12
-0.023004
22
-0.134996
32
-0.138696
13
-0.018996
23
-0.134996
33
-0.130464
0
3DFACE
8
default
62
251
10
0.030240
20
-0.134996
30
-0.138696
11
0.022140
21
-0.134996
31
-0.135732
12
0.021996
22
-0.134996
32
-0.134700
13
0.030240
23
-0.134996
33
-0.138696
0
3DFACE
8
default
62
251
10
-0.021960
20
-0.293504
30
-0.179832
11
-0.023004
21
-0.293504
31
-0.179700
12
-0.029004
22
-0.293504
32
-0.159204
13
-0.021960
23
-0.293504
33
-0.179832
0
3DFACE
8
default
62
251
10
0.021996
20
-0.134996
30
-0.187932
11
0.024960
21
-0.134996
31
-0.179832
12
0.026004
22
-0.134996
32
-0.179700
13
0.021996
23
-0.134996
33
-0.187932
0
3DFACE
8
default
62
251
10
-0.027240
20
-0.134996
30
-0.179700
11
-0.019140
21
-0.134996
31
-0.182664
12
-0.018996
22
-0.134996
32
-0.183696
13
-0.027240
23
-0.134996
33
-0.179700
0
3DFACE
8
default
62
251
10
-0.018996
20
-0.134996
30
-0.130464
11
-0.023004
21
-0.134996
31
-0.138696
12
-0.027240
22
-0.134996
32
-0.138696
13
-0.018996
23
-0.134996
33
-0.130464
0
3DFACE
8
default
62
251
10
0.030240
20
-0.134996
30
-0.138696
11
0.021996
21
-0.134996
31
-0.134700
12
0.021996
22
-0.134996
32
-0.130464
13
0.030240
23
-0.134996
33
-0.138696
0
3DFACE
8
default
62
251
10
-0.019140
20
-0.293504
30
-0.135732
11
-0.018996
21
-0.293504
31
-0.134700
12
0.001500
22
-0.293504
32
-0.128700
13
-0.019140
23
-0.293504
33
-0.135732
0
3DFACE
8
default
62
251
10
0.021996
20
-0.134996
30
-0.187932
11
0.026004
21
-0.134996
31
-0.179700
12
0.030240
22
-0.134996
32
-0.179700
13
0.021996
23
-0.134996
33
-0.187932
0
3DFACE
8
default
62
251
10
-0.027240
20
-0.134996
30
-0.179700
11
-0.018996
21
-0.134996
31
-0.183696
12
-0.018996
22
-0.134996
32
-0.187932
13
-0.027240
23
-0.134996
33
-0.179700
0
3DFACE
8
default
62
251
10
-0.029004
20
-0.134996
30
-0.128700
11
0.001500
21
-0.134996
31
-0.128700
12
-0.018996
22
-0.134996
32
-0.130464
13
-0.029004
23
-0.134996
33
-0.128700
0
3DFACE
8
default
62
251
10
-0.018996
20
-0.134996
30
-0.130464
11
-0.027240
21
-0.134996
31
-0.138696
12
-0.029004
22
-0.134996
32
-0.128700
13
-0.018996
23
-0.134996
33
-0.130464
0
3DFACE
8
default
62
251
10
0.032004
20
-0.134996
30
-0.128700
11
0.032004
21
-0.134996
31
-0.159204
12
0.030240
22
-0.134996
32
-0.138696
13
0.032004
23
-0.134996
33
-0.128700
0
3DFACE
8
default
62
251
10
0.030240
20
-0.134996
30
-0.138696
11
0.021996
21
-0.134996
31
-0.130464
12
0.032004
22
-0.134996
32
-0.128700
13
0.030240
23
-0.134996
33
-0.138696
0
3DFACE
8
default
62
251
10
0.024000
20
-0.293504
30
-0.138168
11
0.024960
21
-0.293504
31
-0.138564
12
0.032004
22
-0.293504
32
-0.159204
13
0.024000
23
-0.293504
33
-0.138168
0
3DFACE
8
default
62
251
10
0.032004
20
-0.134996
30
-0.189696
11
0.001500
21
-0.134996
31
-0.189696
12
0.021996
22
-0.134996
32
-0.187932
13
0.032004
23
-0.134996
33
-0.189696
0
3DFACE
8
default
62
251
10
0.021996
20
-0.134996
30
-0.187932
11
0.030240
21
-0.134996
31
-0.179700
12
0.032004
22
-0.134996
32
-0.189696
13
0.021996
23
-0.134996
33
-0.187932
0
3DFACE
8
default
62
251
10
-0.029004
20
-0.134996
30
-0.189696
11
-0.029004
21
-0.134996
31
-0.159204
12
-0.027240
22
-0.134996
32
-0.179700
13
-0.029004
23
-0.134996
33
-0.189696
0
3DFACE
8
default
62
251
10
-0.027240
20
-0.134996
30
-0.179700
11
-0.018996
21
-0.134996
31
-0.187932
12
-0.029004
22
-0.134996
32
-0.189696
13
-0.027240
23
-0.134996
33
-0.179700
0
3DFACE
8
default
62
251
10
0.022536
20
-0.293504
30
-0.181704
11
0.022140
21
-0.293504
31
-0.182664
12
0.001500
22
-0.293504
32
-0.189696
13
0.022536
23
-0.293504
33
-0.181704
0
3DFACE
8
default
62
251
10
-0.021000
20
-0.293504
30
-0.180240
11
-0.021960
21
-0.293504
31
-0.179832
12
-0.029004
22
-0.293504
32
-0.159204
13
-0.021000
23
-0.293504
33
-0.180240
0
3DFACE
8
default
62
251
10
-0.019536
20
-0.293504
30
-0.136704
11
-0.019140
21
-0.293504
31
-0.135732
12
0.001500
22
-0.293504
32
-0.128700
13
-0.019536
23
-0.293504
33
-0.136704
0
3DFACE
8
default
62
251
10
0.023172
20
-0.293504
30
-0.137532
11
0.024000
21
-0.293504
31
-0.138168
12
0.032004
22
-0.293504
32
-0.159204
13
0.023172
23
-0.293504
33
-0.137532
0
3DFACE
8
default
62
251
10
0.023172
20
-0.293504
30
-0.180876
11
0.022536
21
-0.293504
31
-0.181704
12
0.001500
22
-0.293504
32
-0.189696
13
0.023172
23
-0.293504
33
-0.180876
0
3DFACE
8
default
62
251
10
-0.020172
20
-0.293504
30
-0.180876
11
-0.021000
21
-0.293504
31
-0.180240
12
-0.029004
22
-0.293504
32
-0.159204
13
-0.020172
23
-0.293504
33
-0.180876
0
3DFACE
8
default
62
251
10
-0.020172
20
-0.293504
30
-0.137532
11
-0.019536
21
-0.293504
31
-0.136704
12
0.001500
22
-0.293504
32
-0.128700
13
-0.020172
23
-0.293504
33
-0.137532
0
3DFACE
8
default
62
251
10
0.022536
20
-0.293504
30
-0.136704
11
0.023172
21
-0.293504
31
-0.137532
12
0.032004
22
-0.293504
32
-0.159204
13
0.022536
23
-0.293504
33
-0.136704
0
3DFACE
8
default
62
251
10
0.024000
20
-0.293504
30
-0.180240
11
0.023172
21
-0.293504
31
-0.180876
12
0.001500
22
-0.293504
32
-0.189696
13
0.024000
23
-0.293504
33
-0.180240
0
3DFACE
8
default
62
251
10
-0.019536
20
-0.293504
30
-0.181704
11
-0.020172
21
-0.293504
31
-0.180876
12
-0.029004
22
-0.293504
32
-0.159204
13
-0.019536
23
-0.293504
33
-0.181704
0
3DFACE
8
default
62
251
10
-0.021000
20
-0.293504
30
-0.138168
11
-0.020172
21
-0.293504
31
-0.137532
12
0.001500
22
-0.293504
32
-0.128700
13
-0.021000
23
-0.293504
33
-0.138168
0
3DFACE
8
default
62
251
10
0.022536
20
-0.293504
30
-0.136704
11
0.032004
21
-0.293504
31
-0.159204
12
0.030240
22
-0.293504
32
-0.179700
13
0.022536
23
-0.293504
33
-0.136704
0
3DFACE
8
default
62
251
10
0.024000
20
-0.293504
30
-0.180240
11
0.001500
21
-0.293504
31
-0.189696
12
-0.018996
22
-0.293504
32
-0.183696
13
0.024000
23
-0.293504
33
-0.180240
0
3DFACE
8
default
62
251
10
-0.019536
20
-0.293504
30
-0.181704
11
-0.029004
21
-0.293504
31
-0.159204
12
-0.027240
22
-0.293504
32
-0.138696
13
-0.019536
23
-0.293504
33
-0.181704
0
3DFACE
8
default
62
251
10
-0.021000
20
-0.293504
30
-0.138168
11
0.001500
21
-0.293504
31
-0.128700
12
0.021996
22
-0.293504
32
-0.130464
13
-0.021000
23
-0.293504
33
-0.138168
0
3DFACE
8
default
62
251
10
0.022140
20
-0.293504
30
-0.135732
11
0.022536
21
-0.293504
31
-0.136704
12
0.030240
22
-0.293504
32
-0.179700
13
0.022140
23
-0.293504
33
-0.135732
0
3DFACE
8
default
62
251
10
0.024960
20
-0.293504
30
-0.179832
11
0.024000
21
-0.293504
31
-0.180240
12
-0.018996
22
-0.293504
32
-0.183696
13
0.024960
23
-0.293504
33
-0.179832
0
3DFACE
8
default
62
251
10
-0.019140
20
-0.293504
30
-0.182664
11
-0.019536
21
-0.293504
31
-0.181704
12
-0.027240
22
-0.293504
32
-0.138696
13
-0.019140
23
-0.293504
33
-0.182664
0
3DFACE
8
default
62
251
10
-0.021960
20
-0.293504
30
-0.138564
11
-0.021000
21
-0.293504
31
-0.138168
12
0.021996
22
-0.293504
32
-0.130464
13
-0.021960
23
-0.293504
33
-0.138564
0
3DFACE
8
default
62
251
10
0.022140
20
-0.293504
30
-0.135732
11
0.030240
21
-0.293504
31
-0.179700
12
0.026004
22
-0.293504
32
-0.179700
13
0.022140
23
-0.293504
33
-0.135732
0
3DFACE
8
default
62
251
10
-0.019140
20
-0.293504
30
-0.182664
11
-0.027240
21
-0.293504
31
-0.138696
12
-0.023004
22
-0.293504
32
-0.138696
13
-0.019140
23
-0.293504
33
-0.182664
0
3DFACE
8
default
62
251
10
-0.021960
20
-0.293504
30
-0.138564
11
0.021996
21
-0.293504
31
-0.130464
12
0.021996
22
-0.293504
32
-0.134700
13
-0.021960
23
-0.293504
33
-0.138564
0
3DFACE
8
default
62
251
10
0.021996
20
-0.293504
30
-0.134700
11
0.022140
21
-0.293504
31
-0.135732
12
0.026004
22
-0.293504
32
-0.179700
13
0.021996
23
-0.293504
33
-0.134700
0
3DFACE
8
default
62
251
10
0.021996
20
-0.293504
30
-0.134700
11
0.026004
21
-0.293504
31
-0.179700
12
0.024960
22
-0.293504
32
-0.179832
13
0.021996
23
-0.293504
33
-0.134700
0
3DFACE
8
default
62
251
10
0.021996
20
-0.293504
30
-0.134700
11
0.024960
21
-0.293504
31
-0.179832
12
-0.018996
22
-0.293504
32
-0.183696
13
0.021996
23
-0.293504
33
-0.134700
0
3DFACE
8
default
62
251
10
0.021996
20
-0.293504
30
-0.134700
11
-0.018996
21
-0.293504
31
-0.183696
12
-0.019140
22
-0.293504
32
-0.182664
13
0.021996
23
-0.293504
33
-0.134700
0
3DFACE
8
default
62
251
10
0.021996
20
-0.293504
30
-0.134700
11
-0.019140
21
-0.293504
31
-0.182664
12
-0.023004
22
-0.293504
32
-0.138696
13
0.021996
23
-0.293504
33
-0.134700
0
3DFACE
8
default
62
251
10
0.021996
20
-0.293504
30
-0.134700
11
-0.023004
21
-0.293504
31
-0.138696
12
-0.021960
22
-0.293504
32
-0.138564
13
0.021996
23
-0.293504
33
-0.134700
0
3DFACE
8
default
62
253
10
-0.173484
20
0.057988
30
-0.114228
11
-0.173484
21
0.065308
31
-0.121548
12
-0.173484
22
0.067996
32
-0.131544
13
-0.173484
23
0.057988
33
-0.114228
0
3DFACE
8
default
62
253
10
-0.173484
20
0.057988
30
-0.114228
11
-0.173484
21
0.067996
31
-0.131544
12
-0.173484
22
0.065308
32
-0.141540
13
-0.173484
23
0.057988
33
-0.114228
0
3DFACE
8
default
62
253
10
-0.173484
20
0.057988
30
-0.114228
11
-0.173484
21
0.065308
31
-0.141540
12
-0.173484
22
0.057988
32
-0.148860
13
-0.173484
23
0.057988
33
-0.114228
0
3DFACE
8
default
62
253
10
-0.173484
20
0.057988
30
-0.114228
11
-0.173484
21
0.057988
31
-0.148860
12
-0.173484
22
0.047992
32
-0.151548
13
-0.173484
23
0.057988
33
-0.114228
0
3DFACE
8
default
62
253
10
-0.173484
20
0.057988
30
-0.114228
11
-0.173484
21
0.047992
31
-0.151548
12
-0.173484
22
0.037996
32
-0.148860
13
-0.173484
23
0.057988
33
-0.114228
0
3DFACE
8
default
62
253
10
-0.173484
20
0.057988
30
-0.114228
11
-0.173484
21
0.037996
31
-0.148860
12
-0.173484
22
0.030676
32
-0.141540
13
-0.173484
23
0.057988
33
-0.114228
0
3DFACE
8
default
62
253
10
-0.173484
20
0.057988
30
-0.114228
11
-0.173484
21
0.030676
31
-0.141540
12
-0.173484
22
0.027988
32
-0.131544
13
-0.173484
23
0.057988
33
-0.114228
0
3DFACE
8
default
62
253
10
-0.173484
20
0.057988
30
-0.114228
11
-0.173484
21
0.027988
31
-0.131544
12
-0.173484
22
0.030676
32
-0.121548
13
-0.173484
23
0.057988
33
-0.114228
0
3DFACE
8
default
62
253
10
-0.173484
20
0.057988
30
-0.114228
11
-0.173484
21
0.030676
31
-0.121548
12
-0.173484
22
0.037996
32
-0.114228
13
-0.173484
23
0.057988
33
-0.114228
0
3DFACE
8
default
62
253
10
-0.173484
20
0.057988
30
-0.114228
11
-0.173484
21
0.037996
31
-0.114228
12
-0.173484
22
0.047992
32
-0.111540
13
-0.173484
23
0.057988
33
-0.114228
0
3DFACE
8
default
62
253
10
-0.033492
20
0.037996
30
-0.114228
11
-0.033492
21
0.030676
31
-0.121548
12
-0.033492
22
0.027988
32
-0.131544
13
-0.033492
23
0.037996
33
-0.114228
0
3DFACE
8
default
62
253
10
-0.033492
20
0.037996
30
-0.114228
11
-0.033492
21
0.027988
31
-0.131544
12
-0.033492
22
0.030676
32
-0.141540
13
-0.033492
23
0.037996
33
-0.114228
0
3DFACE
8
default
62
253
10
-0.033492
20
0.037996
30
-0.114228
11
-0.033492
21
0.030676
31
-0.141540
12
-0.033492
22
0.037996
32
-0.148860
13
-0.033492
23
0.037996
33
-0.114228
0
3DFACE
8
default
62
253
10
-0.033492
20
0.037996
30
-0.114228
11
-0.033492
21
0.037996
31
-0.148860
12
-0.033492
22
0.047992
32
-0.151548
13
-0.033492
23
0.037996
33
-0.114228
0
3DFACE
8
default
62
253
10
-0.033492
20
0.037996
30
-0.114228
11
-0.033492
21
0.047992
31
-0.151548
12
-0.033492
22
0.057988
32
-0.148860
13
-0.033492
23
0.037996
33
-0.114228
0
3DFACE
8
default
62
253
10
-0.033492
20
0.037996
30
-0.114228
11
-0.033492
21
0.057988
31
-0.148860
12
-0.033492
22
0.065308
32
-0.141540
13
-0.033492
23
0.037996
33
-0.114228
0
3DFACE
8
default
62
253
10
-0.033492
20
0.037996
30
-0.114228
11
-0.033492
21
0.065308
31
-0.141540
12
-0.033492
22
0.067996
32
-0.131544
13
-0.033492
23
0.037996
33
-0.114228
0
3DFACE
8
default
62
253
10
-0.033492
20
0.037996
30
-0.114228
11
-0.033492
21
0.067996
31
-0.131544
12
-0.033492
22
0.065308
32
-0.121548
13
-0.033492
23
0.037996
33
-0.114228
0
3DFACE
8
default
62
253
10
-0.033492
20
0.037996
30
-0.114228
11
-0.033492
21
0.065308
31
-0.121548
12
-0.033492
22
0.057988
32
-0.114228
13
-0.033492
23
0.037996
33
-0.114228
0
3DFACE
8
default
62
253
10
-0.033492
20
0.037996
30
-0.114228
11
-0.033492
21
0.057988
31
-0.114228
12
-0.033492
22
0.047992
32
-0.111540
13
-0.033492
23
0.037996
33
-0.114228
0
3DFACE
8
default
62
253
10
-0.033492
20
0.037996
30
-0.114228
11
-0.033492
21
0.047992
31
-0.111540
12
-0.173484
22
0.047992
32
-0.111540
13
-0.033492
23
0.037996
33
-0.114228
0
3DFACE
8
default
62
253
10
-0.033492
20
0.037996
30
-0.114228
11
-0.173484
21
0.047992
31
-0.111540
12
-0.173484
22
0.037996
32
-0.114228
13
-0.033492
23
0.037996
33
-0.114228
0
3DFACE
8
default
62
253
10
-0.033492
20
0.030676
30
-0.121548
11
-0.033492
21
0.037996
31
-0.114228
12
-0.173484
22
0.037996
32
-0.114228
13
-0.033492
23
0.030676
33
-0.121548
0
3DFACE
8
default
62
253
10
-0.033492
20
0.030676
30
-0.121548
11
-0.173484
21
0.037996
31
-0.114228
12
-0.173484
22
0.030676
32
-0.121548
13
-0.033492
23
0.030676
33
-0.121548
0
3DFACE
8
default
62
253
10
-0.033492
20
0.027988
30
-0.131544
11
-0.033492
21
0.030676
31
-0.121548
12
-0.173484
22
0.030676
32
-0.121548
13
-0.033492
23
0.027988
33
-0.131544
0
3DFACE
8
default
62
253
10
-0.033492
20
0.027988
30
-0.131544
11
-0.173484
21
0.030676
31
-0.121548
12
-0.173484
22
0.027988
32
-0.131544
13
-0.033492
23
0.027988
33
-0.131544
0
3DFACE
8
default
62
253
10
-0.033492
20
0.030676
30
-0.141540
11
-0.033492
21
0.027988
31
-0.131544
12
-0.173484
22
0.027988
32
-0.131544
13
-0.033492
23
0.030676
33
-0.141540
0
3DFACE
8
default
62
253
10
-0.033492
20
0.030676
30
-0.141540
11
-0.173484
21
0.027988
31
-0.131544
12
-0.173484
22
0.030676
32
-0.141540
13
-0.033492
23
0.030676
33
-0.141540
0
3DFACE
8
default
62
253
10
-0.033492
20
0.037996
30
-0.148860
11
-0.033492
21
0.030676
31
-0.141540
12
-0.173484
22
0.030676
32
-0.141540
13
-0.033492
23
0.037996
33
-0.148860
0
3DFACE
8
default
62
253
10
-0.033492
20
0.037996
30
-0.148860
11
-0.173484
21
0.030676
31
-0.141540
12
-0.173484
22
0.037996
32
-0.148860
13
-0.033492
23
0.037996
33
-0.148860
0
3DFACE
8
default
62
253
10
-0.033492
20
0.047992
30
-0.151548
11
-0.033492
21
0.037996
31
-0.148860
12
-0.173484
22
0.037996
32
-0.148860
13
-0.033492
23
0.047992
33
-0.151548
0
3DFACE
8
default
62
253
10
-0.033492
20
0.047992
30
-0.151548
11
-0.173484
21
0.037996
31
-0.148860
12
-0.173484
22
0.047992
32
-0.151548
13
-0.033492
23
0.047992
33
-0.151548
0
3DFACE
8
default
62
253
10
-0.033492
20
0.057988
30
-0.148860
11
-0.033492
21
0.047992
31
-0.151548
12
-0.173484
22
0.047992
32
-0.151548
13
-0.033492
23
0.057988
33
-0.148860
0
3DFACE
8
default
62
253
10
-0.033492
20
0.057988
30
-0.148860
11
-0.173484
21
0.047992
31
-0.151548
12
-0.173484
22
0.057988
32
-0.148860
13
-0.033492
23
0.057988
33
-0.148860
0
3DFACE
8
default
62
253
10
-0.033492
20
0.065308
30
-0.141540
11
-0.033492
21
0.057988
31
-0.148860
12
-0.173484
22
0.057988
32
-0.148860
13
-0.033492
23
0.065308
33
-0.141540
0
3DFACE
8
default
62
253
10
-0.033492
20
0.065308
30
-0.141540
11
-0.173484
21
0.057988
31
-0.148860
12
-0.173484
22
0.065308
32
-0.141540
13
-0.033492
23
0.065308
33
-0.141540
0
3DFACE
8
default
62
253
10
-0.033492
20
0.067996
30
-0.131544
11
-0.033492
21
0.065308
31
-0.141540
12
-0.173484
22
0.065308
32
-0.141540
13
-0.033492
23
0.067996
33
-0.131544
0
3DFACE
8
default
62
253
10
-0.033492
20
0.067996
30
-0.131544
11
-0.173484
21
0.065308
31
-0.141540
12
-0.173484
22
0.067996
32
-0.131544
13
-0.033492
23
0.067996
33
-0.131544
0
3DFACE
8
default
62
253
10
-0.033492
20
0.065308
30
-0.121548
11
-0.033492
21
0.067996
31
-0.131544
12
-0.173484
22
0.067996
32
-0.131544
13
-0.033492
23
0.065308
33
-0.121548
0
3DFACE
8
default
62
253
10
-0.033492
20
0.065308
30
-0.121548
11
-0.173484
21
0.067996
31
-0.131544
12
-0.173484
22
0.065308
32
-0.121548
13
-0.033492
23
0.065308
33
-0.121548
0
3DFACE
8
default
62
253
10
-0.033492
20
0.057988
30
-0.114228
11
-0.033492
21
0.065308
31
-0.121548
12
-0.173484
22
0.065308
32
-0.121548
13
-0.033492
23
0.057988
33
-0.114228
0
3DFACE
8
default
62
253
10
-0.033492
20
0.057988
30
-0.114228
11
-0.173484
21
0.065308
31
-0.121548
12
-0.173484
22
0.057988
32
-0.114228
13
-0.033492
23
0.057988
33
-0.114228
0
3DFACE
8
default
62
253
10
-0.033492
20
0.047992
30
-0.111540
11
-0.033492
21
0.057988
31
-0.114228
12
-0.173484
22
0.057988
32
-0.114228
13
-0.033492
23
0.047992
33
-0.111540
0
3DFACE
8
default
62
253
10
-0.033492
20
0.047992
30
-0.111540
11
-0.173484
21
0.057988
31
-0.114228
12
-0.173484
22
0.047992
32
-0.111540
13
-0.033492
23
0.047992
33
-0.111540
0
3DFACE
8
default
62
251
10
0.129384
20
-0.041000
30
-0.121236
11
0.129384
21
-0.041000
31
-0.151740
12
0.129384
22
-0.041000
32
-0.182232
13
0.129384
23
-0.041000
33
-0.121236
0
3DFACE
8
default
62
251
10
0.129384
20
-0.041000
30
-0.121236
11
0.129384
21
-0.041000
31
-0.182232
12
0.129384
22
-0.056000
32
-0.182232
13
0.129384
23
-0.041000
33
-0.121236
0
3DFACE
8
default
62
251
10
0.129384
20
-0.041000
30
-0.121236
11
0.129384
21
-0.056000
31
-0.182232
12
0.129384
22
-0.056000
32
-0.121236
13
0.129384
23
-0.041000
33
-0.121236
0
3DFACE
8
default
62
251
10
0.098880
20
0.117496
30
-0.121236
11
0.119376
21
0.117496
31
-0.123000
12
0.119376
22
-0.041000
32
-0.123000
13
0.098880
23
0.117496
33
-0.121236
0
3DFACE
8
default
62
251
10
0.098880
20
0.117496
30
-0.121236
11
0.119376
21
-0.041000
31
-0.123000
12
0.098880
22
-0.041000
32
-0.121236
13
0.098880
23
0.117496
33
-0.121236
0
3DFACE
8
default
62
251
10
0.078384
20
0.117496
30
-0.123000
11
0.098880
21
0.117496
31
-0.121236
12
0.098880
22
-0.041000
32
-0.121236
13
0.078384
23
0.117496
33
-0.123000
0
3DFACE
8
default
62
251
10
0.078384
20
0.117496
30
-0.123000
11
0.098880
21
-0.041000
31
-0.121236
12
0.078384
22
-0.041000
32
-0.123000
13
0.078384
23
0.117496
33
-0.123000
0
3DFACE
8
default
62
251
10
0.129384
20
-0.056000
30
-0.121236
11
0.129384
21
-0.056000
31
-0.182232
12
0.068376
22
-0.056000
32
-0.182232
13
0.129384
23
-0.056000
33
-0.121236
0
3DFACE
8
default
62
251
10
0.129384
20
-0.056000
30
-0.121236
11
0.068376
21
-0.056000
31
-0.182232
12
0.068376
22
-0.056000
32
-0.121236
13
0.129384
23
-0.056000
33
-0.121236
0
3DFACE
8
default
62
251
10
0.098880
20
-0.041000
30
-0.121236
11
0.129384
21
-0.041000
31
-0.121236
12
0.129384
22
-0.056000
32
-0.121236
13
0.098880
23
-0.041000
33
-0.121236
0
3DFACE
8
default
62
251
10
0.098880
20
-0.041000
30
-0.121236
11
0.129384
21
-0.056000
31
-0.121236
12
0.068376
22
-0.056000
32
-0.121236
13
0.098880
23
-0.041000
33
-0.121236
0
3DFACE
8
default
62
251
10
0.098880
20
-0.041000
30
-0.121236
11
0.068376
21
-0.056000
31
-0.121236
12
0.068376
22
-0.041000
32
-0.121236
13
0.098880
23
-0.041000
33
-0.121236
0
3DFACE
8
default
62
251
10
0.068376
20
-0.041000
30
-0.151740
11
0.068376
21
-0.041000
31
-0.121236
12
0.068376
22
-0.056000
32
-0.121236
13
0.068376
23
-0.041000
33
-0.151740
0
3DFACE
8
default
62
251
10
0.068376
20
-0.041000
30
-0.151740
11
0.068376
21
-0.056000
31
-0.121236
12
0.068376
22
-0.056000
32
-0.182232
13
0.068376
23
-0.041000
33
-0.151740
0
3DFACE
8
default
62
251
10
0.068376
20
-0.041000
30
-0.151740
11
0.068376
21
-0.056000
31
-0.182232
12
0.068376
22
-0.041000
32
-0.182232
13
0.068376
23
-0.041000
33
-0.151740
0
3DFACE
8
default
62
251
10
0.078384
20
0.117496
30
-0.123000
11
0.078384
21
-0.041000
31
-0.123000
12
0.078384
22
-0.041000
32
-0.127236
13
0.078384
23
0.117496
33
-0.123000
0
3DFACE
8
default
62
251
10
0.078384
20
0.117496
30
-0.123000
11
0.078384
21
-0.041000
31
-0.127236
12
0.078384
22
0.117496
32
-0.127236
13
0.078384
23
0.117496
33
-0.123000
0
3DFACE
8
default
62
251
10
0.078384
20
0.117496
30
-0.176232
11
0.078384
21
-0.041000
31
-0.176232
12
0.078384
22
-0.041000
32
-0.180468
13
0.078384
23
0.117496
33
-0.176232
0
3DFACE
8
default
62
251
10
0.078384
20
0.117496
30
-0.176232
11
0.078384
21
-0.041000
31
-0.180468
12
0.078384
22
0.117496
32
-0.180468
13
0.078384
23
0.117496
33
-0.176232
0
3DFACE
8
default
62
251
10
0.119376
20
0.117496
30
-0.123000
11
0.119376
21
0.117496
31
-0.127236
12
0.119376
22
-0.041000
32
-0.127236
13
0.119376
23
0.117496
33
-0.123000
0
3DFACE
8
default
62
251
10
0.119376
20
0.117496
30
-0.123000
11
0.119376
21
-0.041000
31
-0.127236
12
0.119376
22
-0.041000
32
-0.123000
13
0.119376
23
0.117496
33
-0.123000
0
3DFACE
8
default
62
251
10
0.119376
20
0.117496
30
-0.176232
11
0.119376
21
0.117496
31
-0.180468
12
0.119376
22
-0.041000
32
-0.180468
13
0.119376
23
0.117496
33
-0.176232
0
3DFACE
8
default
62
251
10
0.119376
20
0.117496
30
-0.176232
11
0.119376
21
-0.041000
31
-0.180468
12
0.119376
22
-0.041000
32
-0.176232
13
0.119376
23
0.117496
33
-0.176232
0
3DFACE
8
default
62
251
10
0.119520
20
-0.041000
30
-0.128268
11
0.119376
21
-0.041000
31
-0.127236
12
0.119376
22
0.117496
32
-0.127236
13
0.119520
23
-0.041000
33
-0.128268
0
3DFACE
8
default
62
251
10
0.119520
20
-0.041000
30
-0.128268
11
0.119376
21
0.117496
31
-0.127236
12
0.119520
22
0.117496
32
-0.128268
13
0.119520
23
-0.041000
33
-0.128268
0
3DFACE
8
default
62
251
10
0.078384
20
-0.041000
30
-0.127236
11
0.078240
21
-0.041000
31
-0.128268
12
0.078240
22
0.117496
32
-0.128268
13
0.078384
23
-0.041000
33
-0.127236
0
3DFACE
8
default
62
251
10
0.078384
20
-0.041000
30
-0.127236
11
0.078240
21
0.117496
31
-0.128268
12
0.078384
22
0.117496
32
-0.127236
13
0.078384
23
-0.041000
33
-0.127236
0
3DFACE
8
default
62
251
10
0.078240
20
-0.041000
30
-0.128268
11
0.077844
21
-0.041000
31
-0.129240
12
0.077844
22
0.117496
32
-0.129240
13
0.078240
23
-0.041000
33
-0.128268
0
3DFACE
8
default
62
251
10
0.078240
20
-0.041000
30
-0.128268
11
0.077844
21
0.117496
31
-0.129240
12
0.078240
22
0.117496
32
-0.128268
13
0.078240
23
-0.041000
33
-0.128268
0
3DFACE
8
default
62
251
10
0.119916
20
-0.041000
30
-0.129240
11
0.119520
21
-0.041000
31
-0.128268
12
0.119520
22
0.117496
32
-0.128268
13
0.119916
23
-0.041000
33
-0.129240
0
3DFACE
8
default
62
251
10
0.119916
20
-0.041000
30
-0.129240
11
0.119520
21
0.117496
31
-0.128268
12
0.119916
22
0.117496
32
-0.129240
13
0.119916
23
-0.041000
33
-0.129240
0
3DFACE
8
default
62
251
10
0.077844
20
-0.041000
30
-0.129240
11
0.077208
21
-0.041000
31
-0.130068
12
0.077208
22
0.117496
32
-0.130068
13
0.077844
23
-0.041000
33
-0.129240
0
3DFACE
8
default
62
251
10
0.077844
20
-0.041000
30
-0.129240
11
0.077208
21
0.117496
31
-0.130068
12
0.077844
22
0.117496
32
-0.129240
13
0.077844
23
-0.041000
33
-0.129240
0
3DFACE
8
default
62
251
10
0.120552
20
-0.041000
30
-0.130068
11
0.119916
21
-0.041000
31
-0.129240
12
0.119916
22
0.117496
32
-0.129240
13
0.120552
23
-0.041000
33
-0.130068
0
3DFACE
8
default
62
251
10
0.120552
20
-0.041000
30
-0.130068
11
0.119916
21
0.117496
31
-0.129240
12
0.120552
22
0.117496
32
-0.130068
13
0.120552
23
-0.041000
33
-0.130068
0
3DFACE
8
default
62
251
10
0.077208
20
-0.041000
30
-0.130068
11
0.076380
21
-0.041000
31
-0.130704
12
0.076380
22
0.117496
32
-0.130704
13
0.077208
23
-0.041000
33
-0.130068
0
3DFACE
8
default
62
251
10
0.077208
20
-0.041000
30
-0.130068
11
0.076380
21
0.117496
31
-0.130704
12
0.077208
22
0.117496
32
-0.130068
13
0.077208
23
-0.041000
33
-0.130068
0
3DFACE
8
default
62
251
10
0.121380
20
-0.041000
30
-0.130704
11
0.120552
21
-0.041000
31
-0.130068
12
0.120552
22
0.117496
32
-0.130068
13
0.121380
23
-0.041000
33
-0.130704
0
3DFACE
8
default
62
251
10
0.121380
20
-0.041000
30
-0.130704
11
0.120552
21
0.117496
31
-0.130068
12
0.121380
22
0.117496
32
-0.130704
13
0.121380
23
-0.041000
33
-0.130704
0
3DFACE
8
default
62
251
10
0.122340
20
-0.041000
30
-0.131100
11
0.121380
21
-0.041000
31
-0.130704
12
0.121380
22
0.117496
32
-0.130704
13
0.122340
23
-0.041000
33
-0.131100
0
3DFACE
8
default
62
251
10
0.122340
20
-0.041000
30
-0.131100
11
0.121380
21
0.117496
31
-0.130704
12
0.122340
22
0.117496
32
-0.131100
13
0.122340
23
-0.041000
33
-0.131100
0
3DFACE
8
default
62
251
10
0.076380
20
-0.041000
30
-0.130704
11
0.075408
21
-0.041000
31
-0.131100
12
0.075408
22
0.117496
32
-0.131100
13
0.076380
23
-0.041000
33
-0.130704
0
3DFACE
8
default
62
251
10
0.076380
20
-0.041000
30
-0.130704
11
0.075408
21
0.117496
31
-0.131100
12
0.076380
22
0.117496
32
-0.130704
13
0.076380
23
-0.041000
33
-0.130704
0
3DFACE
8
default
62
251
10
0.075408
20
-0.041000
30
-0.131100
11
0.074376
21
-0.041000
31
-0.131232
12
0.074376
22
0.117496
32
-0.131232
13
0.075408
23
-0.041000
33
-0.131100
0
3DFACE
8
default
62
251
10
0.075408
20
-0.041000
30
-0.131100
11
0.074376
21
0.117496
31
-0.131232
12
0.075408
22
0.117496
32
-0.131100
13
0.075408
23
-0.041000
33
-0.131100
0
3DFACE
8
default
62
251
10
0.123384
20
-0.041000
30
-0.131232
11
0.122340
21
-0.041000
31
-0.131100
12
0.122340
22
0.117496
32
-0.131100
13
0.123384
23
-0.041000
33
-0.131232
0
3DFACE
8
default
62
251
10
0.123384
20
-0.041000
30
-0.131232
11
0.122340
21
0.117496
31
-0.131100
12
0.123384
22
0.117496
32
-0.131232
13
0.123384
23
-0.041000
33
-0.131232
0
3DFACE
8
default
62
251
10
0.127620
20
-0.041000
30
-0.131232
11
0.123384
21
-0.041000
31
-0.131232
12
0.123384
22
0.117496
32
-0.131232
13
0.127620
23
-0.041000
33
-0.131232
0
3DFACE
8
default
62
251
10
0.127620
20
-0.041000
30
-0.131232
11
0.123384
21
0.117496
31
-0.131232
12
0.127620
22
0.117496
32
-0.131232
13
0.127620
23
-0.041000
33
-0.131232
0
3DFACE
8
default
62
251
10
0.074376
20
-0.041000
30
-0.131232
11
0.070140
21
-0.041000
31
-0.131232
12
0.070140
22
0.117496
32
-0.131232
13
0.074376
23
-0.041000
33
-0.131232
0
3DFACE
8
default
62
251
10
0.074376
20
-0.041000
30
-0.131232
11
0.070140
21
0.117496
31
-0.131232
12
0.074376
22
0.117496
32
-0.131232
13
0.074376
23
-0.041000
33
-0.131232
0
3DFACE
8
default
62
251
10
0.070140
20
-0.041000
30
-0.131232
11
0.068376
21
-0.041000
31
-0.151740
12
0.068376
22
0.117496
32
-0.151740
13
0.070140
23
-0.041000
33
-0.131232
0
3DFACE
8
default
62
251
10
0.070140
20
-0.041000
30
-0.131232
11
0.068376
21
0.117496
31
-0.151740
12
0.070140
22
0.117496
32
-0.131232
13
0.070140
23
-0.041000
33
-0.131232
0
3DFACE
8
default
62
251
10
0.129384
20
-0.041000
30
-0.151740
11
0.127620
21
-0.041000
31
-0.131232
12
0.127620
22
0.117496
32
-0.131232
13
0.129384
23
-0.041000
33
-0.151740
0
3DFACE
8
default
62
251
10
0.129384
20
-0.041000
30
-0.151740
11
0.127620
21
0.117496
31
-0.131232
12
0.129384
22
0.117496
32
-0.151740
13
0.129384
23
-0.041000
33
-0.151740
0
3DFACE
8
default
62
251
10
0.129384
20
0.117496
30
-0.151740
11
0.127620
21
0.117496
31
-0.172236
12
0.127620
22
-0.041000
32
-0.172236
13
0.129384
23
0.117496
33
-0.151740
0
3DFACE
8
default
62
251
10
0.129384
20
0.117496
30
-0.151740
11
0.127620
21
-0.041000
31
-0.172236
12
0.129384
22
-0.041000
32
-0.151740
13
0.129384
23
0.117496
33
-0.151740
0
3DFACE
8
default
62
251
10
0.068376
20
0.117496
30
-0.151740
11
0.068376
21
-0.041000
31
-0.151740
12
0.070140
22
-0.041000
32
-0.172236
13
0.068376
23
0.117496
33
-0.151740
0
3DFACE
8
default
62
251
10
0.068376
20
0.117496
30
-0.151740
11
0.070140
21
-0.041000
31
-0.172236
12
0.070140
22
0.117496
32
-0.172236
13
0.068376
23
0.117496
33
-0.151740
0
3DFACE
8
default
62
251
10
0.127620
20
0.117496
30
-0.172236
11
0.123384
21
0.117496
31
-0.172236
12
0.123384
22
-0.041000
32
-0.172236
13
0.127620
23
0.117496
33
-0.172236
0
3DFACE
8
default
62
251
10
0.127620
20
0.117496
30
-0.172236
11
0.123384
21
-0.041000
31
-0.172236
12
0.127620
22
-0.041000
32
-0.172236
13
0.127620
23
0.117496
33
-0.172236
0
3DFACE
8
default
62
251
10
0.074376
20
0.117496
30
-0.172236
11
0.070140
21
0.117496
31
-0.172236
12
0.070140
22
-0.041000
32
-0.172236
13
0.074376
23
0.117496
33
-0.172236
0
3DFACE
8
default
62
251
10
0.074376
20
0.117496
30
-0.172236
11
0.070140
21
-0.041000
31
-0.172236
12
0.074376
22
-0.041000
32
-0.172236
13
0.074376
23
0.117496
33
-0.172236
0
3DFACE
8
default
62
251
10
0.075408
20
0.117496
30
-0.172368
11
0.074376
21
0.117496
31
-0.172236
12
0.074376
22
-0.041000
32
-0.172236
13
0.075408
23
0.117496
33
-0.172368
0
3DFACE
8
default
62
251
10
0.075408
20
0.117496
30
-0.172368
11
0.074376
21
-0.041000
31
-0.172236
12
0.075408
22
-0.041000
32
-0.172368
13
0.075408
23
0.117496
33
-0.172368
0
3DFACE
8
default
62
251
10
0.123384
20
0.117496
30
-0.172236
11
0.122340
21
0.117496
31
-0.172368
12
0.122340
22
-0.041000
32
-0.172368
13
0.123384
23
0.117496
33
-0.172236
0
3DFACE
8
default
62
251
10
0.123384
20
0.117496
30
-0.172236
11
0.122340
21
-0.041000
31
-0.172368
12
0.123384
22
-0.041000
32
-0.172236
13
0.123384
23
0.117496
33
-0.172236
0
3DFACE
8
default
62
251
10
0.076380
20
0.117496
30
-0.172776
11
0.075408
21
0.117496
31
-0.172368
12
0.075408
22
-0.041000
32
-0.172368
13
0.076380
23
0.117496
33
-0.172776
0
3DFACE
8
default
62
251
10
0.076380
20
0.117496
30
-0.172776
11
0.075408
21
-0.041000
31
-0.172368
12
0.076380
22
-0.041000
32
-0.172776
13
0.076380
23
0.117496
33
-0.172776
0
3DFACE
8
default
62
251
10
0.122340
20
0.117496
30
-0.172368
11
0.121380
21
0.117496
31
-0.172776
12
0.121380
22
-0.041000
32
-0.172776
13
0.122340
23
0.117496
33
-0.172368
0
3DFACE
8
default
62
251
10
0.122340
20
0.117496
30
-0.172368
11
0.121380
21
-0.041000
31
-0.172776
12
0.122340
22
-0.041000
32
-0.172368
13
0.122340
23
0.117496
33
-0.172368
0
3DFACE
8
default
62
251
10
0.077208
20
0.117496
30
-0.173412
11
0.076380
21
0.117496
31
-0.172776
12
0.076380
22
-0.041000
32
-0.172776
13
0.077208
23
0.117496
33
-0.173412
0
3DFACE
8
default
62
251
10
0.077208
20
0.117496
30
-0.173412
11
0.076380
21
-0.041000
31
-0.172776
12
0.077208
22
-0.041000
32
-0.173412
13
0.077208
23
0.117496
33
-0.173412
0
3DFACE
8
default
62
251
10
0.121380
20
0.117496
30
-0.172776
11
0.120552
21
0.117496
31
-0.173412
12
0.120552
22
-0.041000
32
-0.173412
13
0.121380
23
0.117496
33
-0.172776
0
3DFACE
8
default
62
251
10
0.121380
20
0.117496
30
-0.172776
11
0.120552
21
-0.041000
31
-0.173412
12
0.121380
22
-0.041000
32
-0.172776
13
0.121380
23
0.117496
33
-0.172776
0
3DFACE
8
default
62
251
10
0.120552
20
0.117496
30
-0.173412
11
0.119916
21
0.117496
31
-0.174240
12
0.119916
22
-0.041000
32
-0.174240
13
0.120552
23
0.117496
33
-0.173412
0
3DFACE
8
default
62
251
10
0.120552
20
0.117496
30
-0.173412
11
0.119916
21
-0.041000
31
-0.174240
12
0.120552
22
-0.041000
32
-0.173412
13
0.120552
23
0.117496
33
-0.173412
0
3DFACE
8
default
62
251
10
0.077844
20
0.117496
30
-0.174240
11
0.077208
21
0.117496
31
-0.173412
12
0.077208
22
-0.041000
32
-0.173412
13
0.077844
23
0.117496
33
-0.174240
0
3DFACE
8
default
62
251
10
0.077844
20
0.117496
30
-0.174240
11
0.077208
21
-0.041000
31
-0.173412
12
0.077844
22
-0.041000
32
-0.174240
13
0.077844
23
0.117496
33
-0.174240
0
3DFACE
8
default
62
251
10
0.119916
20
0.117496
30
-0.174240
11
0.119520
21
0.117496
31
-0.175200
12
0.119520
22
-0.041000
32
-0.175200
13
0.119916
23
0.117496
33
-0.174240
0
3DFACE
8
default
62
251
10
0.119916
20
0.117496
30
-0.174240
11
0.119520
21
-0.041000
31
-0.175200
12
0.119916
22
-0.041000
32
-0.174240
13
0.119916
23
0.117496
33
-0.174240
0
3DFACE
8
default
62
251
10
0.077844
20
0.117496
30
-0.174240
11
0.077844
21
-0.041000
31
-0.174240
12
0.078240
22
-0.041000
32
-0.175200
13
0.077844
23
0.117496
33
-0.174240
0
3DFACE
8
default
62
251
10
0.077844
20
0.117496
30
-0.174240
11
0.078240
21
-0.041000
31
-0.175200
12
0.078240
22
0.117496
32
-0.175200
13
0.077844
23
0.117496
33
-0.174240
0
3DFACE
8
default
62
251
10
0.119520
20
0.117496
30
-0.175200
11
0.119376
21
0.117496
31
-0.176232
12
0.119376
22
-0.041000
32
-0.176232
13
0.119520
23
0.117496
33
-0.175200
0
3DFACE
8
default
62
251
10
0.119520
20
0.117496
30
-0.175200
11
0.119376
21
-0.041000
31
-0.176232
12
0.119520
22
-0.041000
32
-0.175200
13
0.119520
23
0.117496
33
-0.175200
0
3DFACE
8
default
62
251
10
0.078240
20
0.117496
30
-0.175200
11
0.078240
21
-0.041000
31
-0.175200
12
0.078384
22
-0.041000
32
-0.176232
13
0.078240
23
0.117496
33
-0.175200
0
3DFACE
8
default
62
251
10
0.078240
20
0.117496
30
-0.175200
11
0.078384
21
-0.041000
31
-0.176232
12
0.078384
22
0.117496
32
-0.176232
13
0.078240
23
0.117496
33
-0.175200
0
3DFACE
8
default
62
251
10
0.098880
20
0.117496
30
-0.182232
11
0.078384
21
0.117496
31
-0.180468
12
0.078384
22
-0.041000
32
-0.180468
13
0.098880
23
0.117496
33
-0.182232
0
3DFACE
8
default
62
251
10
0.098880
20
0.117496
30
-0.182232
11
0.078384
21
-0.041000
31
-0.180468
12
0.098880
22
-0.041000
32
-0.182232
13
0.098880
23
0.117496
33
-0.182232
0
3DFACE
8
default
62
251
10
0.119376
20
0.117496
30
-0.180468
11
0.098880
21
0.117496
31
-0.182232
12
0.098880
22
-0.041000
32
-0.182232
13
0.119376
23
0.117496
33
-0.180468
0
3DFACE
8
default
62
251
10
0.119376
20
0.117496
30
-0.180468
11
0.098880
21
-0.041000
31
-0.182232
12
0.119376
22
-0.041000
32
-0.180468
13
0.119376
23
0.117496
33
-0.180468
0
3DFACE
8
default
62
251
10
0.068376
20
-0.056000
30
-0.182232
11
0.129384
21
-0.056000
31
-0.182232
12
0.129384
22
-0.041000
32
-0.182232
13
0.068376
23
-0.056000
33
-0.182232
0
3DFACE
8
default
62
251
10
0.068376
20
-0.056000
30
-0.182232
11
0.129384
21
-0.041000
31
-0.182232
12
0.098880
22
-0.041000
32
-0.182232
13
0.068376
23
-0.056000
33
-0.182232
0
3DFACE
8
default
62
251
10
0.068376
20
-0.056000
30
-0.182232
11
0.098880
21
-0.041000
31
-0.182232
12
0.068376
22
-0.041000
32
-0.182232
13
0.068376
23
-0.056000
33
-0.182232
0
3DFACE
8
default
62
251
10
0.078384
20
0.117496
30
-0.176232
11
0.078384
21
0.117496
31
-0.180468
12
0.098880
22
0.117496
32
-0.182232
13
0.078384
23
0.117496
33
-0.176232
0
3DFACE
8
default
62
251
10
0.070140
20
-0.041000
30
-0.131232
11
0.074376
21
-0.041000
31
-0.131232
12
0.075408
22
-0.041000
32
-0.131100
13
0.070140
23
-0.041000
33
-0.131232
0
3DFACE
8
default
62
251
10
0.119376
20
-0.041000
30
-0.123000
11
0.119376
21
-0.041000
31
-0.127236
12
0.119520
22
-0.041000
32
-0.128268
13
0.119376
23
-0.041000
33
-0.123000
0
3DFACE
8
default
62
251
10
0.074376
20
0.117496
30
-0.131232
11
0.070140
21
0.117496
31
-0.131232
12
0.068376
22
0.117496
32
-0.151740
13
0.074376
23
0.117496
33
-0.131232
0
3DFACE
8
default
62
251
10
0.078384
20
-0.041000
30
-0.180468
11
0.078384
21
-0.041000
31
-0.176232
12
0.078240
22
-0.041000
32
-0.175200
13
0.078384
23
-0.041000
33
-0.180468
0
3DFACE
8
default
62
251
10
0.127620
20
-0.041000
30
-0.172236
11
0.123384
21
-0.041000
31
-0.172236
12
0.122340
22
-0.041000
32
-0.172368
13
0.127620
23
-0.041000
33
-0.172236
0
3DFACE
8
default
62
251
10
0.078384
20
-0.041000
30
-0.123000
11
0.098880
21
-0.041000
31
-0.121236
12
0.068376
22
-0.041000
32
-0.121236
13
0.078384
23
-0.041000
33
-0.123000
0
3DFACE
8
default
62
251
10
0.127620
20
-0.041000
30
-0.131232
11
0.129384
21
-0.041000
31
-0.151740
12
0.129384
22
-0.041000
32
-0.121236
13
0.127620
23
-0.041000
33
-0.131232
0
3DFACE
8
default
62
251
10
0.078240
20
0.117496
30
-0.175200
11
0.078384
21
0.117496
31
-0.176232
12
0.098880
22
0.117496
32
-0.182232
13
0.078240
23
0.117496
33
-0.175200
0
3DFACE
8
default
62
251
10
0.070140
20
-0.041000
30
-0.172236
11
0.068376
21
-0.041000
31
-0.151740
12
0.068376
22
-0.041000
32
-0.182232
13
0.070140
23
-0.041000
33
-0.172236
0
3DFACE
8
default
62
251
10
0.119376
20
-0.041000
30
-0.180468
11
0.098880
21
-0.041000
31
-0.182232
12
0.129384
22
-0.041000
32
-0.182232
13
0.119376
23
-0.041000
33
-0.180468
0
3DFACE
8
default
62
251
10
0.070140
20
-0.041000
30
-0.131232
11
0.075408
21
-0.041000
31
-0.131100
12
0.076380
22
-0.041000
32
-0.130704
13
0.070140
23
-0.041000
33
-0.131232
0
3DFACE
8
default
62
251
10
0.119376
20
-0.041000
30
-0.123000
11
0.119520
21
-0.041000
31
-0.128268
12
0.119916
22
-0.041000
32
-0.129240
13
0.119376
23
-0.041000
33
-0.123000
0
3DFACE
8
default
62
251
10
0.123384
20
0.117496
30
-0.172236
11
0.127620
21
0.117496
31
-0.172236
12
0.129384
22
0.117496
32
-0.151740
13
0.123384
23
0.117496
33
-0.172236
0
3DFACE
8
default
62
251
10
0.078384
20
-0.041000
30
-0.180468
11
0.078240
21
-0.041000
31
-0.175200
12
0.077844
22
-0.041000
32
-0.174240
13
0.078384
23
-0.041000
33
-0.180468
0
3DFACE
8
default
62
251
10
0.127620
20
-0.041000
30
-0.172236
11
0.122340
21
-0.041000
31
-0.172368
12
0.121380
22
-0.041000
32
-0.172776
13
0.127620
23
-0.041000
33
-0.172236
0
3DFACE
8
default
62
251
10
0.070140
20
-0.041000
30
-0.131232
11
0.076380
21
-0.041000
31
-0.130704
12
0.077208
22
-0.041000
32
-0.130068
13
0.070140
23
-0.041000
33
-0.131232
0
3DFACE
8
default
62
251
10
0.119376
20
-0.041000
30
-0.123000
11
0.119916
21
-0.041000
31
-0.129240
12
0.120552
22
-0.041000
32
-0.130068
13
0.119376
23
-0.041000
33
-0.123000
0
3DFACE
8
default
62
251
10
0.119376
20
0.117496
30
-0.127236
11
0.119376
21
0.117496
31
-0.123000
12
0.098880
22
0.117496
32
-0.121236
13
0.119376
23
0.117496
33
-0.127236
0
3DFACE
8
default
62
251
10
0.078384
20
-0.041000
30
-0.180468
11
0.077844
21
-0.041000
31
-0.174240
12
0.077208
22
-0.041000
32
-0.173412
13
0.078384
23
-0.041000
33
-0.180468
0
3DFACE
8
default
62
251
10
0.127620
20
-0.041000
30
-0.172236
11
0.121380
21
-0.041000
31
-0.172776
12
0.120552
22
-0.041000
32
-0.173412
13
0.127620
23
-0.041000
33
-0.172236
0
3DFACE
8
default
62
251
10
0.070140
20
-0.041000
30
-0.131232
11
0.077208
21
-0.041000
31
-0.130068
12
0.077844
22
-0.041000
32
-0.129240
13
0.070140
23
-0.041000
33
-0.131232
0
3DFACE
8
default
62
251
10
0.119376
20
-0.041000
30
-0.123000
11
0.120552
21
-0.041000
31
-0.130068
12
0.121380
22
-0.041000
32
-0.130704
13
0.119376
23
-0.041000
33
-0.123000
0
3DFACE
8
default
62
251
10
0.075408
20
0.117496
30
-0.131100
11
0.074376
21
0.117496
31
-0.131232
12
0.068376
22
0.117496
32
-0.151740
13
0.075408
23
0.117496
33
-0.131100
0
3DFACE
8
default
62
251
10
0.078384
20
-0.041000
30
-0.180468
11
0.077208
21
-0.041000
31
-0.173412
12
0.076380
22
-0.041000
32
-0.172776
13
0.078384
23
-0.041000
33
-0.180468
0
3DFACE
8
default
62
251
10
0.127620
20
-0.041000
30
-0.172236
11
0.120552
21
-0.041000
31
-0.173412
12
0.119916
22
-0.041000
32
-0.174240
13
0.127620
23
-0.041000
33
-0.172236
0
3DFACE
8
default
62
251
10
0.070140
20
-0.041000
30
-0.131232
11
0.077844
21
-0.041000
31
-0.129240
12
0.078240
22
-0.041000
32
-0.128268
13
0.070140
23
-0.041000
33
-0.131232
0
3DFACE
8
default
62
251
10
0.119376
20
-0.041000
30
-0.123000
11
0.121380
21
-0.041000
31
-0.130704
12
0.122340
22
-0.041000
32
-0.131100
13
0.119376
23
-0.041000
33
-0.123000
0
3DFACE
8
default
62
251
10
0.077844
20
0.117496
30
-0.174240
11
0.078240
21
0.117496
31
-0.175200
12
0.098880
22
0.117496
32
-0.182232
13
0.077844
23
0.117496
33
-0.174240
0
3DFACE
8
default
62
251
10
0.078384
20
-0.041000
30
-0.180468
11
0.076380
21
-0.041000
31
-0.172776
12
0.075408
22
-0.041000
32
-0.172368
13
0.078384
23
-0.041000
33
-0.180468
0
3DFACE
8
default
62
251
10
0.127620
20
-0.041000
30
-0.172236
11
0.119916
21
-0.041000
31
-0.174240
12
0.119520
22
-0.041000
32
-0.175200
13
0.127620
23
-0.041000
33
-0.172236
0
3DFACE
8
default
62
251
10
0.070140
20
-0.041000
30
-0.131232
11
0.078240
21
-0.041000
31
-0.128268
12
0.078384
22
-0.041000
32
-0.127236
13
0.070140
23
-0.041000
33
-0.131232
0
3DFACE
8
default
62
251
10
0.119376
20
-0.041000
30
-0.123000
11
0.122340
21
-0.041000
31
-0.131100
12
0.123384
22
-0.041000
32
-0.131232
13
0.119376
23
-0.041000
33
-0.123000
0
3DFACE
8
default
62
251
10
0.122340
20
0.117496
30
-0.172368
11
0.123384
21
0.117496
31
-0.172236
12
0.129384
22
0.117496
32
-0.151740
13
0.122340
23
0.117496
33
-0.172368
0
3DFACE
8
default
62
251
10
0.078384
20
-0.041000
30
-0.180468
11
0.075408
21
-0.041000
31
-0.172368
12
0.074376
22
-0.041000
32
-0.172236
13
0.078384
23
-0.041000
33
-0.180468
0
3DFACE
8
default
62
251
10
0.127620
20
-0.041000
30
-0.172236
11
0.119520
21
-0.041000
31
-0.175200
12
0.119376
22
-0.041000
32
-0.176232
13
0.127620
23
-0.041000
33
-0.172236
0
3DFACE
8
default
62
251
10
0.070140
20
-0.041000
30
-0.131232
11
0.078384
21
-0.041000
31
-0.127236
12
0.078384
22
-0.041000
32
-0.123000
13
0.070140
23
-0.041000
33
-0.131232
0
3DFACE
8
default
62
251
10
0.119376
20
-0.041000
30
-0.123000
11
0.123384
21
-0.041000
31
-0.131232
12
0.127620
22
-0.041000
32
-0.131232
13
0.119376
23
-0.041000
33
-0.123000
0
3DFACE
8
default
62
251
10
0.119520
20
0.117496
30
-0.128268
11
0.119376
21
0.117496
31
-0.127236
12
0.098880
22
0.117496
32
-0.121236
13
0.119520
23
0.117496
33
-0.128268
0
3DFACE
8
default
62
251
10
0.078384
20
-0.041000
30
-0.180468
11
0.074376
21
-0.041000
31
-0.172236
12
0.070140
22
-0.041000
32
-0.172236
13
0.078384
23
-0.041000
33
-0.180468
0
3DFACE
8
default
62
251
10
0.127620
20
-0.041000
30
-0.172236
11
0.119376
21
-0.041000
31
-0.176232
12
0.119376
22
-0.041000
32
-0.180468
13
0.127620
23
-0.041000
33
-0.172236
0
3DFACE
8
default
62
251
10
0.068376
20
-0.041000
30
-0.121236
11
0.068376
21
-0.041000
31
-0.151740
12
0.070140
22
-0.041000
32
-0.131232
13
0.068376
23
-0.041000
33
-0.121236
0
3DFACE
8
default
62
251
10
0.070140
20
-0.041000
30
-0.131232
11
0.078384
21
-0.041000
31
-0.123000
12
0.068376
22
-0.041000
32
-0.121236
13
0.070140
23
-0.041000
33
-0.131232
0
3DFACE
8
default
62
251
10
0.129384
20
-0.041000
30
-0.121236
11
0.098880
21
-0.041000
31
-0.121236
12
0.119376
22
-0.041000
32
-0.123000
13
0.129384
23
-0.041000
33
-0.121236
0
3DFACE
8
default
62
251
10
0.119376
20
-0.041000
30
-0.123000
11
0.127620
21
-0.041000
31
-0.131232
12
0.129384
22
-0.041000
32
-0.121236
13
0.119376
23
-0.041000
33
-0.123000
0
3DFACE
8
default
62
251
10
0.076380
20
0.117496
30
-0.130704
11
0.075408
21
0.117496
31
-0.131100
12
0.068376
22
0.117496
32
-0.151740
13
0.076380
23
0.117496
33
-0.130704
0
3DFACE
8
default
62
251
10
0.068376
20
-0.041000
30
-0.182232
11
0.098880
21
-0.041000
31
-0.182232
12
0.078384
22
-0.041000
32
-0.180468
13
0.068376
23
-0.041000
33
-0.182232
0
3DFACE
8
default
62
251
10
0.078384
20
-0.041000
30
-0.180468
11
0.070140
21
-0.041000
31
-0.172236
12
0.068376
22
-0.041000
32
-0.182232
13
0.078384
23
-0.041000
33
-0.180468
0
3DFACE
8
default
62
251
10
0.129384
20
-0.041000
30
-0.182232
11
0.129384
21
-0.041000
31
-0.151740
12
0.127620
22
-0.041000
32
-0.172236
13
0.129384
23
-0.041000
33
-0.182232
0
3DFACE
8
default
62
251
10
0.127620
20
-0.041000
30
-0.172236
11
0.119376
21
-0.041000
31
-0.180468
12
0.129384
22
-0.041000
32
-0.182232
13
0.127620
23
-0.041000
33
-0.172236
0
3DFACE
8
default
62
251
10
0.077208
20
0.117496
30
-0.173412
11
0.077844
21
0.117496
31
-0.174240
12
0.098880
22
0.117496
32
-0.182232
13
0.077208
23
0.117496
33
-0.173412
0
3DFACE
8
default
62
251
10
0.121380
20
0.117496
30
-0.172776
11
0.122340
21
0.117496
31
-0.172368
12
0.129384
22
0.117496
32
-0.151740
13
0.121380
23
0.117496
33
-0.172776
0
3DFACE
8
default
62
251
10
0.119916
20
0.117496
30
-0.129240
11
0.119520
21
0.117496
31
-0.128268
12
0.098880
22
0.117496
32
-0.121236
13
0.119916
23
0.117496
33
-0.129240
0
3DFACE
8
default
62
251
10
0.077208
20
0.117496
30
-0.130068
11
0.076380
21
0.117496
31
-0.130704
12
0.068376
22
0.117496
32
-0.151740
13
0.077208
23
0.117496
33
-0.130068
0
3DFACE
8
default
62
251
10
0.076380
20
0.117496
30
-0.172776
11
0.077208
21
0.117496
31
-0.173412
12
0.098880
22
0.117496
32
-0.182232
13
0.076380
23
0.117496
33
-0.172776
0
3DFACE
8
default
62
251
10
0.120552
20
0.117496
30
-0.173412
11
0.121380
21
0.117496
31
-0.172776
12
0.129384
22
0.117496
32
-0.151740
13
0.120552
23
0.117496
33
-0.173412
0
3DFACE
8
default
62
251
10
0.120552
20
0.117496
30
-0.130068
11
0.119916
21
0.117496
31
-0.129240
12
0.098880
22
0.117496
32
-0.121236
13
0.120552
23
0.117496
33
-0.130068
0
3DFACE
8
default
62
251
10
0.077844
20
0.117496
30
-0.129240
11
0.077208
21
0.117496
31
-0.130068
12
0.068376
22
0.117496
32
-0.151740
13
0.077844
23
0.117496
33
-0.129240
0
3DFACE
8
default
62
251
10
0.076380
20
0.117496
30
-0.172776
11
0.098880
21
0.117496
31
-0.182232
12
0.119376
22
0.117496
32
-0.180468
13
0.076380
23
0.117496
33
-0.172776
0
3DFACE
8
default
62
251
10
0.119916
20
0.117496
30
-0.174240
11
0.120552
21
0.117496
31
-0.173412
12
0.129384
22
0.117496
32
-0.151740
13
0.119916
23
0.117496
33
-0.174240
0
3DFACE
8
default
62
251
10
0.121380
20
0.117496
30
-0.130704
11
0.120552
21
0.117496
31
-0.130068
12
0.098880
22
0.117496
32
-0.121236
13
0.121380
23
0.117496
33
-0.130704
0
3DFACE
8
default
62
251
10
0.077844
20
0.117496
30
-0.129240
11
0.068376
21
0.117496
31
-0.151740
12
0.070140
22
0.117496
32
-0.172236
13
0.077844
23
0.117496
33
-0.129240
0
3DFACE
8
default
62
251
10
0.075408
20
0.117496
30
-0.172368
11
0.076380
21
0.117496
31
-0.172776
12
0.119376
22
0.117496
32
-0.180468
13
0.075408
23
0.117496
33
-0.172368
0
3DFACE
8
default
62
251
10
0.119916
20
0.117496
30
-0.174240
11
0.129384
21
0.117496
31
-0.151740
12
0.127620
22
0.117496
32
-0.131232
13
0.119916
23
0.117496
33
-0.174240
0
3DFACE
8
default
62
251
10
0.121380
20
0.117496
30
-0.130704
11
0.098880
21
0.117496
31
-0.121236
12
0.078384
22
0.117496
32
-0.123000
13
0.121380
23
0.117496
33
-0.130704
0
3DFACE
8
default
62
251
10
0.078240
20
0.117496
30
-0.128268
11
0.077844
21
0.117496
31
-0.129240
12
0.070140
22
0.117496
32
-0.172236
13
0.078240
23
0.117496
33
-0.128268
0
3DFACE
8
default
62
251
10
0.075408
20
0.117496
30
-0.172368
11
0.119376
21
0.117496
31
-0.180468
12
0.119376
22
0.117496
32
-0.176232
13
0.075408
23
0.117496
33
-0.172368
0
3DFACE
8
default
62
251
10
0.119520
20
0.117496
30
-0.175200
11
0.119916
21
0.117496
31
-0.174240
12
0.127620
22
0.117496
32
-0.131232
13
0.119520
23
0.117496
33
-0.175200
0
3DFACE
8
default
62
251
10
0.122340
20
0.117496
30
-0.131100
11
0.121380
21
0.117496
31
-0.130704
12
0.078384
22
0.117496
32
-0.123000
13
0.122340
23
0.117496
33
-0.131100
0
3DFACE
8
default
62
251
10
0.078240
20
0.117496
30
-0.128268
11
0.070140
21
0.117496
31
-0.172236
12
0.074376
22
0.117496
32
-0.172236
13
0.078240
23
0.117496
33
-0.128268
0
3DFACE
8
default
62
251
10
0.119520
20
0.117496
30
-0.175200
11
0.127620
21
0.117496
31
-0.131232
12
0.123384
22
0.117496
32
-0.131232
13
0.119520
23
0.117496
33
-0.175200
0
3DFACE
8
default
62
251
10
0.122340
20
0.117496
30
-0.131100
11
0.078384
21
0.117496
31
-0.123000
12
0.078384
22
0.117496
32
-0.127236
13
0.122340
23
0.117496
33
-0.131100
0
3DFACE
8
default
62
251
10
0.078384
20
0.117496
30
-0.127236
11
0.078240
21
0.117496
31
-0.128268
12
0.074376
22
0.117496
32
-0.172236
13
0.078384
23
0.117496
33
-0.127236
0
3DFACE
8
default
62
251
10
0.078384
20
0.117496
30
-0.127236
11
0.074376
21
0.117496
31
-0.172236
12
0.075408
22
0.117496
32
-0.172368
13
0.078384
23
0.117496
33
-0.127236
0
3DFACE
8
default
62
251
10
0.078384
20
0.117496
30
-0.127236
11
0.075408
21
0.117496
31
-0.172368
12
0.119376
22
0.117496
32
-0.176232
13
0.078384
23
0.117496
33
-0.127236
0
3DFACE
8
default
62
251
10
0.078384
20
0.117496
30
-0.127236
11
0.119376
21
0.117496
31
-0.176232
12
0.119520
22
0.117496
32
-0.175200
13
0.078384
23
0.117496
33
-0.127236
0
3DFACE
8
default
62
251
10
0.078384
20
0.117496
30
-0.127236
11
0.119520
21
0.117496
31
-0.175200
12
0.123384
22
0.117496
32
-0.131232
13
0.078384
23
0.117496
33
-0.127236
0
3DFACE
8
default
62
251
10
0.078384
20
0.117496
30
-0.127236
11
0.123384
21
0.117496
31
-0.131232
12
0.122340
22
0.117496
32
-0.131100
13
0.078384
23
0.117496
33
-0.127236
0
3DFACE
8
default
62
253
10
-0.183492
20
0.016384
30
0.005940
11
-0.190812
21
0.009508
31
0.003432
12
-0.193488
22
0.000112
32
0.000012
13
-0.183492
23
0.016384
33
0.005940
0
3DFACE
8
default
62
253
10
-0.183492
20
0.016384
30
0.005940
11
-0.193488
21
0.000112
31
0.000012
12
-0.190812
22
-0.009284
32
-0.003408
13
-0.183492
23
0.016384
33
0.005940
0
3DFACE
8
default
62
253
10
-0.183492
20
0.016384
30
0.005940
11
-0.190812
21
-0.009284
31
-0.003408
12
-0.183492
22
-0.016172
32
-0.005916
13
-0.183492
23
0.016384
33
0.005940
0
3DFACE
8
default
62
253
10
-0.183492
20
0.016384
30
0.005940
11
-0.183492
21
-0.016172
31
-0.005916
12
-0.173484
22
-0.018680
32
-0.006828
13
-0.183492
23
0.016384
33
0.005940
0
3DFACE
8
default
62
253
10
-0.183492
20
0.016384
30
0.005940
11
-0.173484
21
-0.018680
31
-0.006828
12
-0.163488
22
-0.016172
32
-0.005916
13
-0.183492
23
0.016384
33
0.005940
0
3DFACE
8
default
62
253
10
-0.183492
20
0.016384
30
0.005940
11
-0.163488
21
-0.016172
31
-0.005916
12
-0.156168
22
-0.009284
32
-0.003408
13
-0.183492
23
0.016384
33
0.005940
0
3DFACE
8
default
62
253
10
-0.183492
20
0.016384
30
0.005940
11
-0.156168
21
-0.009284
31
-0.003408
12
-0.153492
22
0.000112
32
0.000012
13
-0.183492
23
0.016384
33
0.005940
0
3DFACE
8
default
62
253
10
-0.183492
20
0.016384
30
0.005940
11
-0.153492
21
0.000112
31
0.000012
12
-0.156168
22
0.009508
32
0.003432
13
-0.183492
23
0.016384
33
0.005940
0
3DFACE
8
default
62
253
10
-0.183492
20
0.016384
30
0.005940
11
-0.156168
21
0.009508
31
0.003432
12
-0.163488
22
0.016384
32
0.005940
13
-0.183492
23
0.016384
33
0.005940
0
3DFACE
8
default
62
253
10
-0.183492
20
0.016384
30
0.005940
11
-0.163488
21
0.016384
31
0.005940
12
-0.173484
22
0.018904
32
0.006852
13
-0.183492
23
0.016384
33
0.005940
0
3DFACE
8
default
62
253
10
-0.163488
20
0.064264
30
-0.125616
11
-0.156168
21
0.057388
31
-0.128124
12
-0.153492
22
0.047992
32
-0.131544
13
-0.163488
23
0.064264
33
-0.125616
0
3DFACE
8
default
62
253
10
-0.163488
20
0.064264
30
-0.125616
11
-0.153492
21
0.047992
31
-0.131544
12
-0.156168
22
0.038596
32
-0.134964
13
-0.163488
23
0.064264
33
-0.125616
0
3DFACE
8
default
62
253
10
-0.163488
20
0.064264
30
-0.125616
11
-0.156168
21
0.038596
31
-0.134964
12
-0.163488
22
0.031720
32
-0.137472
13
-0.163488
23
0.064264
33
-0.125616
0
3DFACE
8
default
62
253
10
-0.163488
20
0.064264
30
-0.125616
11
-0.163488
21
0.031720
31
-0.137472
12
-0.173484
22
0.029200
32
-0.138384
13
-0.163488
23
0.064264
33
-0.125616
0
3DFACE
8
default
62
253
10
-0.163488
20
0.064264
30
-0.125616
11
-0.173484
21
0.029200
31
-0.138384
12
-0.183492
22
0.031720
32
-0.137472
13
-0.163488
23
0.064264
33
-0.125616
0
3DFACE
8
default
62
253
10
-0.163488
20
0.064264
30
-0.125616
11
-0.183492
21
0.031720
31
-0.137472
12
-0.190812
22
0.038596
32
-0.134964
13
-0.163488
23
0.064264
33
-0.125616
0
3DFACE
8
default
62
253
10
-0.163488
20
0.064264
30
-0.125616
11
-0.190812
21
0.038596
31
-0.134964
12
-0.193488
22
0.047992
32
-0.131544
13
-0.163488
23
0.064264
33
-0.125616
0
3DFACE
8
default
62
253
10
-0.163488
20
0.064264
30
-0.125616
11
-0.193488
21
0.047992
31
-0.131544
12
-0.190812
22
0.057388
32
-0.128124
13
-0.163488
23
0.064264
33
-0.125616
0
3DFACE
8
default
62
253
10
-0.163488
20
0.064264
30
-0.125616
11
-0.190812
21
0.057388
31
-0.128124
12
-0.183492
22
0.064264
32
-0.125616
13
-0.163488
23
0.064264
33
-0.125616
0
3DFACE
8
default
62
253
10
-0.163488
20
0.064264
30
-0.125616
11
-0.183492
21
0.064264
31
-0.125616
12
-0.173484
22
0.066784
32
-0.124704
13
-0.163488
23
0.064264
33
-0.125616
0
3DFACE
8
default
62
253
10
-0.163488
20
0.064264
30
-0.125616
11
-0.173484
21
0.066784
31
-0.124704
12
-0.173484
22
0.018904
32
0.006852
13
-0.163488
23
0.064264
33
-0.125616
0
3DFACE
8
default
62
253
10
-0.163488
20
0.064264
30
-0.125616
11
-0.173484
21
0.018904
31
0.006852
12
-0.163488
22
0.016384
32
0.005940
13
-0.163488
23
0.064264
33
-0.125616
0
3DFACE
8
default
62
253
10
-0.156168
20
0.057388
30
-0.128124
11
-0.163488
21
0.064264
31
-0.125616
12
-0.163488
22
0.016384
32
0.005940
13
-0.156168
23
0.057388
33
-0.128124
0
3DFACE
8
default
62
253
10
-0.156168
20
0.057388
30
-0.128124
11
-0.163488
21
0.016384
31
0.005940
12
-0.156168
22
0.009508
32
0.003432
13
-0.156168
23
0.057388
33
-0.128124
0
3DFACE
8
default
62
253
10
-0.153492
20
0.047992
30
-0.131544
11
-0.156168
21
0.057388
31
-0.128124
12
-0.156168
22
0.009508
32
0.003432
13
-0.153492
23
0.047992
33
-0.131544
0
3DFACE
8
default
62
253
10
-0.153492
20
0.047992
30
-0.131544
11
-0.156168
21
0.009508
31
0.003432
12
-0.153492
22
0.000112
32
0.000012
13
-0.153492
23
0.047992
33
-0.131544
0
3DFACE
8
default
62
253
10
-0.156168
20
0.038596
30
-0.134964
11
-0.153492
21
0.047992
31
-0.131544
12
-0.153492
22
0.000112
32
0.000012
13
-0.156168
23
0.038596
33
-0.134964
0
3DFACE
8
default
62
253
10
-0.156168
20
0.038596
30
-0.134964
11
-0.153492
21
0.000112
31
0.000012
12
-0.156168
22
-0.009284
32
-0.003408
13
-0.156168
23
0.038596
33
-0.134964
0
3DFACE
8
default
62
253
10
-0.163488
20
0.031720
30
-0.137472
11
-0.156168
21
0.038596
31
-0.134964
12
-0.156168
22
-0.009284
32
-0.003408
13
-0.163488
23
0.031720
33
-0.137472
0
3DFACE
8
default
62
253
10
-0.163488
20
0.031720
30
-0.137472
11
-0.156168
21
-0.009284
31
-0.003408
12
-0.163488
22
-0.016172
32
-0.005916
13
-0.163488
23
0.031720
33
-0.137472
0
3DFACE
8
default
62
253
10
-0.173484
20
0.029200
30
-0.138384
11
-0.163488
21
0.031720
31
-0.137472
12
-0.163488
22
-0.016172
32
-0.005916
13
-0.173484
23
0.029200
33
-0.138384
0
3DFACE
8
default
62
253
10
-0.173484
20
0.029200
30
-0.138384
11
-0.163488
21
-0.016172
31
-0.005916
12
-0.173484
22
-0.018680
32
-0.006828
13
-0.173484
23
0.029200
33
-0.138384
0
3DFACE
8
default
62
253
10
-0.183492
20
0.031720
30
-0.137472
11
-0.173484
21
0.029200
31
-0.138384
12
-0.173484
22
-0.018680
32
-0.006828
13
-0.183492
23
0.031720
33
-0.137472
0
3DFACE
8
default
62
253
10
-0.183492
20
0.031720
30
-0.137472
11
-0.173484
21
-0.018680
31
-0.006828
12
-0.183492
22
-0.016172
32
-0.005916
13
-0.183492
23
0.031720
33
-0.137472
0
3DFACE
8
default
62
253
10
-0.190812
20
0.038596
30
-0.134964
11
-0.183492
21
0.031720
31
-0.137472
12
-0.183492
22
-0.016172
32
-0.005916
13
-0.190812
23
0.038596
33
-0.134964
0
3DFACE
8
default
62
253
10
-0.190812
20
0.038596
30
-0.134964
11
-0.183492
21
-0.016172
31
-0.005916
12
-0.190812
22
-0.009284
32
-0.003408
13
-0.190812
23
0.038596
33
-0.134964
0
3DFACE
8
default
62
253
10
-0.193488
20
0.047992
30
-0.131544
11
-0.190812
21
0.038596
31
-0.134964
12
-0.190812
22
-0.009284
32
-0.003408
13
-0.193488
23
0.047992
33
-0.131544
0
3DFACE
8
default
62
253
10
-0.193488
20
0.047992
30
-0.131544
11
-0.190812
21
-0.009284
31
-0.003408
12
-0.193488
22
0.000112
32
0.000012
13
-0.193488
23
0.047992
33
-0.131544
0
3DFACE
8
default
62
253
10
-0.190812
20
0.057388
30
-0.128124
11
-0.193488
21
0.047992
31
-0.131544
12
-0.193488
22
0.000112
32
0.000012
13
-0.190812
23
0.057388
33
-0.128124
0
3DFACE
8
default
62
253
10
-0.190812
20
0.057388
30
-0.128124
11
-0.193488
21
0.000112
31
0.000012
12
-0.190812
22
0.009508
32
0.003432
13
-0.190812
23
0.057388
33
-0.128124
0
3DFACE
8
default
62
253
10
-0.183492
20
0.064264
30
-0.125616
11
-0.190812
21
0.057388
31
-0.128124
12
-0.190812
22
0.009508
32
0.003432
13
-0.183492
23
0.064264
33
-0.125616
0
3DFACE
8
default
62
253
10
-0.183492
20
0.064264
30
-0.125616
11
-0.190812
21
0.009508
31
0.003432
12
-0.183492
22
0.016384
32
0.005940
13
-0.183492
23
0.064264
33
-0.125616
0
3DFACE
8
default
62
253
10
-0.173484
20
0.066784
30
-0.124704
11
-0.183492
21
0.064264
31
-0.125616
12
-0.183492
22
0.016384
32
0.005940
13
-0.173484
23
0.066784
33
-0.124704
0
3DFACE
8
default
62
253
10
-0.173484
20
0.066784
30
-0.124704
11
-0.183492
21
0.016384
31
0.005940
12
-0.173484
22
0.018904
32
0.006852
13
-0.173484
23
0.066784
33
-0.124704
0
ENDSEC
0
EOF
