<svg width="203" height="203" xmlns="http://www.w3.org/2000/svg" xmlns:xlink="http://www.w3.org/1999/xlink">
	<g id="ModelicaServices.UsersGuide" class="component">
		<polygon points="201.5,101.5 201.1,92.9 200.0,84.4 198.2,76.0 195.6,67.7 192.4,59.8 188.5,52.1 183.9,44.8 178.7,38.0 173.0,31.6 166.7,25.7 159.9,20.3 152.7,15.6 145.2,11.5 137.3,8.1 129.1,5.4 120.7,3.4 112.2,2.1 103.7,1.5 95.0,1.7 86.5,2.6 78.1,4.3 69.8,6.7 61.7,9.7 54.0,13.5 46.6,17.9 39.6,22.9 33.1,28.5 27.1,34.7 21.6,41.3 16.7,48.4 12.5,55.9 8.9,63.7 6.0,71.8 3.8,80.1 2.3,88.6 1.6,97.2 1.6,105.8 2.3,114.4 3.8,122.9 6.0,131.2 8.9,139.3 12.5,147.1 16.7,154.6 21.6,161.7 27.1,168.3 33.1,174.5 39.6,180.1 46.6,185.1 54.0,189.5 61.7,193.3 69.8,196.3 78.1,198.7 86.5,200.4 95.0,201.3 103.7,201.5 112.2,200.9 120.7,199.6 129.1,197.6 137.3,194.9 145.2,191.5 152.7,187.4 159.9,182.7 166.7,177.3 173.0,171.4 178.7,165.0 183.9,158.2 188.5,150.9 192.4,143.2 195.6,135.3 198.2,127.0 200.0,118.6 201.1,110.1" fill="#4B8A49" stroke-opacity="0" stroke-width="1.0" stroke-linecap="butt" stroke-linejoin="round" />
		<polygon points="86.5,96.5 84.3,96.2 82.8,95.2 81.8,93.7 81.5,91.5 81.5,91.5 81.8,90.1 82.7,88.6 84.3,87.2 86.4,85.8 89.2,84.4 92.5,82.9 96.5,81.5 96.5,81.5 100.6,80.4 104.3,79.9 107.5,80.0 110.4,80.7 112.8,82.0 114.9,83.9 116.5,86.5 116.5,86.5 117.3,88.4 117.8,90.6 118.1,93.1 118.2,95.8 117.9,98.7 117.5,101.9 116.8,105.3 115.8,109.0 114.6,112.9 113.2,117.1 111.5,121.5 111.5,121.5 109.5,126.7 107.8,131.4 106.5,135.4 105.6,138.8 105.0,141.6 104.8,143.7 105.0,145.3 105.6,146.2 106.5,146.5 106.5,146.5 111.5,146.5 116.5,146.5 116.5,146.5 118.7,146.8 120.2,147.8 121.2,149.3 121.5,151.5 121.5,151.5 121.2,152.9 120.3,154.4 118.7,155.8 116.6,157.2 113.8,158.6 110.5,160.1 106.5,161.5 106.5,161.5 102.4,162.6 98.7,163.1 95.5,163.0 92.6,162.3 90.2,161.0 88.1,159.1 86.5,156.5 86.5,156.5 85.7,154.6 85.2,152.4 84.9,149.9 84.8,147.2 85.1,144.3 85.5,141.1 86.2,137.7 87.2,134.0 88.4,130.1 89.8,125.9 91.5,121.5 91.5,121.5 93.5,116.3 95.2,111.6 96.5,107.6 97.4,104.2 98.0,101.4 98.2,99.3 98.0,97.7 97.4,96.8 96.5,96.5 96.5,96.5 91.5,96.5" fill="#FFFFFF" stroke-opacity="0" stroke-width="1.0" stroke-linecap="butt" stroke-linejoin="round" />
		<polygon points="121.5,45.0 121.5,43.9 121.3,42.9 121.1,41.8 120.8,40.8 120.4,39.8 119.9,38.8 119.3,37.9 118.7,37.1 117.9,36.3 117.1,35.5 116.3,34.9 115.4,34.3 114.5,33.8 113.5,33.3 112.5,33.0 111.4,32.7 110.3,32.6 109.3,32.5 108.2,32.5 107.1,32.6 106.1,32.8 105.0,33.1 104.0,33.5 103.1,34.0 102.1,34.6 101.3,35.2 100.5,35.9 99.7,36.6 99.0,37.5 98.4,38.4 97.9,39.3 97.4,40.3 97.1,41.3 96.8,42.3 96.6,43.4 96.5,44.5 96.5,45.5 96.6,46.6 96.8,47.7 97.1,48.7 97.4,49.7 97.9,50.7 98.4,51.6 99.0,52.5 99.7,53.4 100.5,54.1 101.3,54.8 102.1,55.4 103.1,56.0 104.0,56.5 105.0,56.9 106.1,57.2 107.1,57.4 108.2,57.5 109.3,57.5 110.3,57.4 111.4,57.3 112.5,57.0 113.5,56.7 114.5,56.2 115.4,55.7 116.3,55.1 117.1,54.5 117.9,53.7 118.7,52.9 119.3,52.1 119.9,51.2 120.4,50.2 120.8,49.2 121.1,48.2 121.3,47.1 121.5,46.1" fill="#FFFFFF" stroke-opacity="0" stroke-width="1.0" stroke-linecap="butt" stroke-linejoin="round" />
	</g>
</svg>
