<?xml version="1.0" encoding="utf-8" ?>
<svg baseProfile="full" height="210.0" version="1.1" viewBox="0 0 210.0 210.0" width="210.0" xmlns="http://www.w3.org/2000/svg" xmlns:ev="http://www.w3.org/2001/xml-events" xmlns:xlink="http://www.w3.org/1999/xlink"><defs /><rect fill="url(#0)" height="200.0" rx="25.0" ry="25.0" stroke="rgb(200,200,200)" stroke-width="0.25mm" width="200.0" x="5.0" y="5.0" /><defs><linearGradient id="0" x1="0%" x2="0%" y1="0%" y2="100%"><stop offset="0" stop-color="rgb(200, 200, 200)" stop-opacity="1" /><stop offset="0.3" stop-color="rgb(248, 248, 248)" stop-opacity="1" /><stop offset="0.7" stop-color="rgb(248, 248, 248)" stop-opacity="1" /><stop offset="1" stop-color="rgb(200, 200, 200)" stop-opacity="1" /></linearGradient></defs><rect fill="none" fill-opacity="0" height="200.0" rx="25.0" ry="25.0" stroke="rgb(128,128,128)" stroke-width="0.25mm" width="200.0" x="5.0" y="5.0" /><defs /><path d="M 143.7573 67.9967 C 143.7573 67.9967 143.7573 67.9967 125.1318 67.9967 125.1318 67.9967 106.5063 67.9967 88.28129999999999 68.1897 88.28129999999999 68.1897 70.0563 68.3827 65.4263 81.4132 65.4263 81.4132 60.796299999999995 94.4437 60.796299999999995 94.4437 60.796299999999995 94.4437 60.796299999999995 94.4437 62.119299999999996 94.5102 62.119299999999996 94.5102 63.442299999999996 94.5767 63.442299999999996 94.5767 63.442299999999996 94.5767 63.442299999999996 94.5767 68.53529999999999 86.8707 68.53529999999999 86.8707 73.6283 79.1647 90.3303 79.1317 90.3303 79.1317 107.03229999999999 79.0987 125.51979999999999 79.26419999999999 125.51979999999999 79.26419999999999 144.0073 79.4297 144.0073 79.4297 144.0073 79.4297 144.0073 79.4297 144.0073 79.4297" fill="rgb(102,102,102)" fill-opacity="1" /><defs /><path d="M 88.2467 76.0563 C 88.2797 76.0563 88.3127 76.0563 86.4607 93.3863 86.4607 93.3863 84.6087 110.7163 76.3402 122.0933 76.3402 122.0933 68.07169999999999 133.4703 72.6357 137.73680000000002 72.6357 137.73680000000002 77.1997 142.0033 84.5092 138.9608 84.5092 138.9608 91.8187 135.9183 93.40620000000001 106.0863 93.40620000000001 106.0863 94.9937 76.2543 94.9937 76.2543 94.9937 76.2543 94.9937 76.2543 94.9937 76.2543" fill="rgb(102,102,102)" fill-opacity="1" /><defs /><path d="M 117.88 75.0642 C 117.88 75.0642 117.88 75.0642 116.29249999999999 97.88419999999999 116.29249999999999 97.88419999999999 114.705 120.7042 117.053 131.0232 117.053 131.0232 119.401 141.3422 128.033 141.17669999999998 128.033 141.17669999999998 136.665 141.0112 140.83249999999998 128.64170000000001 140.83249999999998 128.64170000000001 145.0 116.2722 145.0 116.2722 145.0 116.2722 145.0 116.2722 143.5445 116.3717 143.5445 116.3717 142.089 116.4712 142.089 116.4712 142.089 116.4712 142.089 116.4712 139.17849999999999 121.4982 139.17849999999999 121.4982 136.268 126.5252 130.9435 125.16919999999999 130.9435 125.16919999999999 125.619 123.8132 125.8505 99.5707 125.8505 99.5707 126.082 75.32820000000001 126.082 75.32820000000001 126.082 75.32820000000001 126.082 75.32820000000001 126.082 75.32820000000001" fill="rgb(102,102,102)" fill-opacity="1" /><defs /></svg>