<?xml version="1.0" encoding="utf-8" ?>
<svg baseProfile="full" height="310.0" version="1.1" viewBox="0 0 343.0 310.0" width="343.0" xmlns="http://www.w3.org/2000/svg" xmlns:ev="http://www.w3.org/2001/xml-events" xmlns:xlink="http://www.w3.org/1999/xlink"><defs /><rect fill="rgb(255,255,255)" fill-opacity="1" height="200.0" rx="0.0" ry="0.0" stroke="rgb(0,0,127)" stroke-width="0.25mm" width="200.0" x="88.0" y="55.0" /><defs /><text dominant-baseline="middle" fill="rgb(0,0,255)" fill-opacity="1" font-family="Verdana" font-size="40.0" text-anchor="middle" x="188.0" y="25.0">name</text><defs /><polygon fill="rgb(192,192,192)" fill-opacity="1" points="112.0,65.0 104.0,87.0 120.0,87.0 112.0,65.0" stroke="rgb(192,192,192)" stroke-width="0.25mm" /><defs /><polyline fill="none" fill-opacity="0" points="112.0,87.0 112.0,235.0" stroke="rgb(192,192,192)" stroke-width="0.25mm" /><defs /><polyline fill="none" fill-opacity="0" points="102.0,169.0 260.0,169.0" stroke="rgb(192,192,192)" stroke-width="0.25mm" /><defs /><polygon fill="rgb(192,192,192)" fill-opacity="1" points="282.0,169.0 260.0,161.0 260.0,177.0 282.0,169.0" stroke="rgb(192,192,192)" stroke-width="0.25mm" /><defs /><polyline fill="none" fill-opacity="0" points="112.0,174.0 126.0,174.0 126.0,158.0 134.0,158.0 134.0,206.0 142.0,206.0 142.0,184.0 150.0,184.0 150.0,100.0 158.0,100.0 158.0,132.0 158.0,132.0 158.0,192.0 168.0,192.0 168.0,174.0 178.0,174.0 178.0,202.0 188.0,202.0 188.0,120.0 194.0,120.0 194.0,106.0 200.0,106.0 200.0,162.0 210.0,162.0 210.0,150.0 216.0,150.0 216.0,180.0 226.0,180.0 226.0,108.0 236.0,108.0 236.0,142.0 244.0,142.0 244.0,208.0 254.0,208.0" stroke="rgb(0,0,0)" stroke-width="0.25mm" /><defs /><text dominant-baseline="middle" fill="rgb(0,0,0)" fill-opacity="1" font-family="Verdana" font-size="40.0" text-anchor="middle" x="188.0" y="285.0">samplePeriod s</text><defs /><polyline fill="none" fill-opacity="0" points="112.0,107.0 260.0,107.0" stroke="rgb(0,0,0)" stroke-width="0.25mm" /><defs /><text dominant-baseline="middle" fill="rgb(0,0,0)" fill-opacity="1" font-family="Verdana" font-size="40.0" text-anchor="middle" x="198.0" y="133.0">y_off</text><defs /><text dominant-baseline="middle" fill="rgb(238,46,47)" fill-opacity="1" font-family="Verdana" font-size="42.0" text-anchor="middle" x="191.0" y="156.0">fixedLocalSeed</text><defs /><text dominant-baseline="middle" fill="rgb(175,175,175)" fill-opacity="1" font-family="Verdana" font-size="36.0" text-anchor="middle" x="199.0" y="77.0">noisePower</text><defs /><text dominant-baseline="middle" fill="rgb(175,175,175)" fill-opacity="1" font-family="Verdana" font-size="191.998980604" text-anchor="middle" x="101.0" y="155.0">white noise</text><defs /><g id="y"><polygon fill="rgb(255,255,255)" fill-opacity="1" points="48.0,135.0 88.0,155.0 48.0,175.0" stroke="rgb(0,0,127)" stroke-width="0.25mm" /><defs /><g display="none" id="info"><text id="name">y</text><text id="type">Modelica.Blocks.Interfaces.RealOutput</text><text id="classDesc">'output Real' as connector</text><text id="desc">Connector of Real output signal</text></g></g></svg>