<?xml version="1.0" encoding="utf-8" ?>
<svg baseProfile="full" height="210" version="1.1" viewBox="0 0 310.0 210" width="310.0" xmlns="http://www.w3.org/2000/svg" xmlns:ev="http://www.w3.org/2001/xml-events" xmlns:xlink="http://www.w3.org/1999/xlink"><defs /><text dominant-baseline="middle" fill="rgb(0,0,255)" fill-opacity="1" font-family="Verdana" font-size="40.0" text-anchor="middle" x="155.0" y="35.0">name</text><defs /><polyline fill="none" fill-opacity="0" points="85.0,105.0 55.0,105.0" stroke="rgb(255,128,0)" stroke-width="0.25mm" /><defs /><rect fill="rgb(255,255,255)" fill-opacity="1" height="60.0" rx="0.0" ry="0.0" stroke="rgb(255,128,0)" stroke-width="0.25mm" width="140.0" x="85.0" y="75.0" /><defs /><polyline fill="none" fill-opacity="0" points="225.0,105.0 255.0,105.0" stroke="rgb(255,128,0)" stroke-width="0.25mm" /><defs /><path d="M 125.0 125.0 C 133.0 125.0 141.0 125.0 145.0 123.0 145.0 123.0 149.0 121.0 153.0 113.0 153.0 113.0 157.0 105.0 161.0 97.0 161.0 97.0 165.0 89.0 169.0 87.0 169.0 87.0 173.0 85.0 177.0 85.0 177.0 85.0 181.0 85.0 181.0 85.0" fill="none" fill-opacity="0" stroke="rgb(255,128,0)" stroke-width="0.25mm" /><defs /><path d="M 181.001852943 85.0027796935 C 173.001852977 85.0020384648 165.001853012 85.0012972361 161.001667722 87.0009266132 161.001667722 87.0009266132 157.001482432 89.0005559902 153.00074122 97.0001853415 153.00074122 97.0001853415 149.000000009 104.999814693 144.999258797 112.999444044 144.999258797 112.999444044 140.998517585 120.999073395 136.998332295 122.998702772 136.998332295 122.998702772 132.998147005 124.99833215 128.998147023 124.997961535 128.998147023 124.997961535 124.99814704 124.997590921 124.99814704 124.997590921" fill="none" fill-opacity="0" stroke="rgb(255,128,0)" stroke-width="0.25mm" /><defs /><rect fill="rgb(255,255,255)" fill-opacity="1" height="60.0" rx="0.0" ry="0.0" stroke="rgb(255,128,0)" stroke-width="0.25mm" width="140.0" x="85.0" y="75.0" /><defs /><polyline fill="none" fill-opacity="0" points="225.0,105.0 255.0,105.0" stroke="rgb(255,128,0)" stroke-width="0.25mm" /><defs /><rect fill="rgb(0,127,0)" fill-opacity="1" height="40.0" rx="0.0" ry="0.0" stroke="rgb(0,127,0)" stroke-width="0.25mm" width="26.0" x="189.0" y="85.0" /><defs /><text dominant-baseline="middle" fill="rgb(0,0,0)" fill-opacity="1" font-family="Verdana" font-size="39.9987954604" font-weight="bold" text-anchor="middle" x="202.0" y="105.0">S</text><defs /><path d="M 117.0 125.0 C 134.0 125.0 151.0 125.0 155.0 123.0 155.0 123.0 159.0 121.0 163.0 113.0 163.0 113.0 167.0 105.0 171.0 97.0 171.0 97.0 175.0 89.0 179.0 87.0 179.0 87.0 183.0 85.0 187.0 85.0 187.0 85.0 191.0 85.0 191.0 85.0" fill="none" fill-opacity="0" stroke="rgb(255,128,0)" stroke-width="0.25mm" /><defs /><path d="M 191.001852892 85.0038915366 C 177.001852952 85.0025943864 163.001853012 85.0012972361 159.001667722 87.0009266132 159.001667722 87.0009266132 155.001482432 89.0005559902 151.00074122 97.0001853415 151.00074122 97.0001853415 147.000000009 104.999814693 142.999258797 112.999444044 142.999258797 112.999444044 138.998517585 120.999073395 134.998332295 122.998702772 134.998332295 122.998702772 130.998147005 124.99833215 125.998147027 124.997868882 125.998147027 124.997868882 120.998147048 124.997405614 120.998147048 124.997405614" fill="none" fill-opacity="0" stroke="rgb(255,128,0)" stroke-width="0.25mm" /><defs /><polyline fill="none" fill-opacity="0" points="55.0,105.0 85.0,105.0" stroke="rgb(255,128,0)" stroke-width="0.25mm" /><defs /><rect fill="rgb(255,0,0)" fill-opacity="1" height="40.0" rx="0.0" ry="0.0" stroke="rgb(255,0,0)" stroke-width="0.25mm" width="26.0" x="95.0" y="85.0" /><defs /><text dominant-baseline="middle" fill="rgb(0,0,0)" fill-opacity="1" font-family="Verdana" font-size="39.9987954604" font-weight="bold" text-anchor="middle" x="108.0" y="105.0">N</text><defs /><text dominant-baseline="middle" fill="rgb(255,128,0)" fill-opacity="1" font-family="Verdana" font-size="18.0" text-anchor="middle" x="177.0" y="114.0">TH</text><defs /><g id="heatPort"><rect fill="rgb(191,0,0)" fill-opacity="1" height="40.0" rx="0.0" ry="0.0" stroke="rgb(191,0,0)" stroke-width="0.25mm" width="40.0" x="15.0" y="85.0" /><defs /><g display="none" id="info"><text id="name">heatPort</text><text id="type">Modelica.Thermal.HeatTransfer.Interfaces.HeatPort_a</text><text id="classDesc">Thermal port for 1-dim. heat transfer (filled rectangular icon)</text><text id="desc" /></g></g><g id="port_p"><rect fill="rgb(255,127,0)" fill-opacity="1" height="40.0" rx="0.0" ry="0.0" stroke="rgb(255,127,0)" stroke-width="0.25mm" width="40.0" x="15.0" y="85.0" /><defs /><g display="none" id="info"><text id="name">port_p</text><text id="type">Modelica.Magnetic.FluxTubes.Interfaces.PositiveMagneticPort</text><text id="classDesc">Positive magnetic port</text><text id="desc">Positive magnetic port</text></g></g><g id="port_n"><rect fill="rgb(255,255,255)" fill-opacity="1" height="40.0" rx="0.0" ry="0.0" stroke="rgb(255,127,0)" stroke-width="0.25mm" width="40.0" x="15.0" y="85.0" /><defs /><g display="none" id="info"><text id="name">port_n</text><text id="type">Modelica.Magnetic.FluxTubes.Interfaces.NegativeMagneticPort</text><text id="classDesc">Negative magnetic port</text><text id="desc">Negative magnetic port</text></g></g></svg>