<?xml version="1.0" encoding="utf-8" ?>
<svg baseProfile="full" height="260.0" version="1.1" viewBox="0 0 310.0 260.0" width="310.0" xmlns="http://www.w3.org/2000/svg" xmlns:ev="http://www.w3.org/2001/xml-events" xmlns:xlink="http://www.w3.org/1999/xlink"><defs /><rect fill="rgb(255,255,255)" fill-opacity="1" height="200.0" rx="0.0" ry="0.0" stroke="rgb(0,0,127)" stroke-width="0.25mm" width="200.0" x="55.0" y="55.0" /><defs /><text dominant-baseline="middle" fill="rgb(0,0,255)" fill-opacity="1" font-family="Verdana" font-size="40.0" text-anchor="middle" x="155.0" y="25.0">name</text><defs /><path d="M 95.0 155.0 C 99.2 137.9 103.4 120.8 106.15 111.35 106.15 111.35 108.9 101.9 111.30000000000001 95.25 111.30000000000001 95.25 113.7 88.6 115.80000000000001 84.5 115.80000000000001 84.5 117.9 80.4 120.0 78.15 120.0 78.15 122.1 75.9 124.22999999999999 75.55000000000001 124.22999999999999 75.55000000000001 126.36 75.2 128.47 76.80000000000001 128.47 76.80000000000001 130.57999999999998 78.4 132.6895 81.85 132.6895 81.85 134.799 85.3 136.9095 90.44999999999999 136.9095 90.44999999999999 139.02 95.6 141.43 103.25 141.43 103.25 143.84 110.9 146.87 122.35000000000001 146.87 122.35000000000001 149.9 133.8 156.2 159.8 156.2 159.8 162.5 185.8 165.25 195.5 165.25 195.5 168.0 205.2 170.4 212.2 170.4 212.2 172.8 219.2 174.9 223.64999999999998 174.9 223.64999999999998 177.0 228.1 179.1 230.75 179.1 230.75 181.2 233.4 183.35 234.2 183.35 234.2 185.5 235.0 187.6 233.8 187.6 233.8 189.7 232.6 191.8 229.55 191.8 229.55 193.9 226.5 196.0 221.7 196.0 221.7 198.1 216.9 200.5 209.55 200.5 209.55 202.9 202.2 205.95 191.0 205.95 191.0 209.0 179.8 212.0 167.4 212.0 167.4 215.0 155.0 215.0 155.0" fill="none" fill-opacity="0" stroke="rgb(0,0,255)" stroke-width="0.5mm" /><defs /><polyline fill="none" fill-opacity="0" points="95.0,235.0 107.0,75.0 115.0,235.0 125.0,75.0 135.0,235.0 145.0,75.0 155.0,235.0 165.0,75.0 175.0,233.0 185.0,75.0 195.0,235.0 205.0,75.0 215.0,235.0" stroke="rgb(238,46,47)" stroke-width="0.25mm" /><defs /><g id="u"><polygon fill="rgb(0,0,127)" fill-opacity="1" points="15.0,135.0 55.0,155.0 15.0,175.0" stroke="rgb(0,0,127)" stroke-width="0.25mm" /><defs /><g display="none" id="info"><text id="name">u</text><text id="type">Modelica.Blocks.Interfaces.RealInput</text><text id="classDesc">'input Real' as connector</text><text id="desc" /></g></g><g id="fire_p"><polygon fill="rgb(255,255,255)" fill-opacity="1" points="15.0,135.0 55.0,155.0 15.0,175.0 15.0,135.0" stroke="rgb(255,0,255)" stroke-width="0.25mm" /><defs /><g display="none" id="info"><text id="name">fire_p</text><text id="type">Modelica.Blocks.Interfaces.BooleanOutput</text><text id="classDesc">'output Boolean' as connector</text><text id="desc" /></g></g><g id="fire_n"><polygon fill="rgb(255,255,255)" fill-opacity="1" points="15.0,135.0 55.0,155.0 15.0,175.0 15.0,135.0" stroke="rgb(255,0,255)" stroke-width="0.25mm" /><defs /><g display="none" id="info"><text id="name">fire_n</text><text id="type">Modelica.Blocks.Interfaces.BooleanOutput</text><text id="classDesc">'output Boolean' as connector</text><text id="desc" /></g></g></svg>