<?xml version="1.0" encoding="utf-8" ?>
<svg baseProfile="full" height="220.0" version="1.1" viewBox="0 0 310.0 220.0" width="310.0" xmlns="http://www.w3.org/2000/svg" xmlns:ev="http://www.w3.org/2001/xml-events" xmlns:xlink="http://www.w3.org/1999/xlink"><defs /><rect fill="url(#0)" height="120.0" rx="0.0" ry="0.0" stroke="rgb(0,0,0)" stroke-width="0.25mm" width="120.0" x="115.0" y="55.0" /><defs><linearGradient id="0" x1="0%" x2="0%" y1="0%" y2="100%"><stop offset="0" stop-color="rgb(0, 0, 0)" stop-opacity="1" /><stop offset="0.3" stop-color="rgb(215, 215, 215)" stop-opacity="1" /><stop offset="0.7" stop-color="rgb(215, 215, 215)" stop-opacity="1" /><stop offset="1" stop-color="rgb(0, 0, 0)" stop-opacity="1" /></linearGradient></defs><rect fill="url(#1)" height="120.0" rx="0.0" ry="0.0" stroke="rgb(0,0,0)" stroke-width="0.25mm" width="20.0" x="95.0" y="55.0" /><defs><linearGradient id="1" x1="0%" x2="0%" y1="0%" y2="100%"><stop offset="0" stop-color="rgb(0, 0, 0)" stop-opacity="1" /><stop offset="0.3" stop-color="rgb(128, 128, 128)" stop-opacity="1" /><stop offset="0.7" stop-color="rgb(128, 128, 128)" stop-opacity="1" /><stop offset="1" stop-color="rgb(0, 0, 0)" stop-opacity="1" /></linearGradient></defs><rect fill="url(#2)" height="20.0" rx="0.0" ry="0.0" stroke="rgb(0,0,0)" stroke-width="0.25mm" width="20.0" x="235.0" y="105.0" /><defs><linearGradient id="2" x1="0%" x2="0%" y1="0%" y2="100%"><stop offset="0" stop-color="rgb(0, 0, 0)" stop-opacity="1" /><stop offset="0.3" stop-color="rgb(95, 95, 95)" stop-opacity="1" /><stop offset="0.7" stop-color="rgb(95, 95, 95)" stop-opacity="1" /><stop offset="1" stop-color="rgb(0, 0, 0)" stop-opacity="1" /></linearGradient></defs><rect fill="rgb(95,95,95)" fill-opacity="1" height="20.0" rx="0.0" ry="0.0" stroke="rgb(95,95,95)" stroke-width="0.25mm" width="80.0" x="115.0" y="45.0" /><defs /><polygon fill="rgb(0,0,0)" fill-opacity="1" points="105.0,205.0 115.0,205.0 145.0,135.0 195.0,135.0 225.0,205.0 235.0,205.0 235.0,215.0 105.0,215.0 105.0,205.0" stroke="rgb(0,0,0)" stroke-width="0.25mm" /><defs /><text alignment-baseline="middle" fill="rgb(0,0,255)" fill-opacity="1" font-family="Verdana" font-size="18" text-anchor="middle" x="155.0" y="25.0">name</text><defs /><g id="flange_motor"><ellipse cx="35.0" cy="115.0" fill="rgb(255,255,255)" fill-opacity="1" rx="20.0" ry="20.0" stroke="rgb(0,0,0)" stroke-width="0.25mm" /><defs /><g display="none" id="info"><text id="name">flange_motor</text><text id="type">Modelica.Mechanics.Rotational.Interfaces.Flange_b</text><text id="classDesc">One-dimensional rotational flange of a shaft (non-filled circle icon)</text><text id="desc" /></g></g><g id="axisControlBus"><polyline fill="none" fill-opacity="0" points="31.8,114.6 38.2,114.6" stroke="rgb(255,204,51)" stroke-width="0.5mm" /><defs /><rect fill="none" fill-opacity="0" height="1.6" rx="0.0" ry="0.0" stroke="rgb(255,204,51)" stroke-width="0.5mm" width="3.6" x="33.0" y="113.4" /><defs /><path d="M 19.0 105.0 C 35.0 105.0 51.0 105.0 53.0 107.0 53.0 107.0 55.0 109.0 53.0 116.0 53.0 116.0 51.0 123.0 49.0 124.0 49.0 124.0 47.0 125.0 35.0 125.0 35.0 125.0 23.0 125.0 21.0 124.0 21.0 124.0 19.0 123.0 17.0 116.0 17.0 116.0 15.0 109.0 15.0 109.0" fill="rgb(255,215,136)" fill-opacity="1" stroke="rgb(0,0,0)" stroke-width="0.25mm" /><defs /><ellipse cx="25.0" cy="111.0" fill="rgb(0,0,0)" fill-opacity="1" rx="1.0" ry="1.0" stroke="rgb(0,0,0)" stroke-width="0.25mm" /><defs /><ellipse cx="45.0" cy="111.0" fill="rgb(0,0,0)" fill-opacity="1" rx="1.0" ry="1.0" stroke="rgb(0,0,0)" stroke-width="0.25mm" /><defs /><ellipse cx="35.0" cy="119.0" fill="rgb(0,0,0)" fill-opacity="1" rx="1.0" ry="1.0" stroke="rgb(0,0,0)" stroke-width="0.25mm" /><defs /><rect fill="none" fill-opacity="0" height="0.8" rx="0.0" ry="0.0" stroke="rgb(255,215,136)" stroke-width="0.5mm" width="8.0" x="31.0" y="114.2" /><defs /><g display="none" id="info"><text id="name">axisControlBus</text><text id="type">Modelica.Mechanics.MultiBody.Examples.Systems.RobotR3.Components.AxisControlBus</text><text id="classDesc">Data bus for one robot axis</text><text id="desc" /></g></g></svg>