<?xml version="1.0" encoding="utf-8" ?>
<svg baseProfile="full" height="270.0" version="1.1" viewBox="0 0 310.0 270.0" width="310.0" xmlns="http://www.w3.org/2000/svg" xmlns:ev="http://www.w3.org/2001/xml-events" xmlns:xlink="http://www.w3.org/1999/xlink"><defs /><polyline fill="none" fill-opacity="0" points="105.0,265.0 125.0,245.0" stroke="rgb(0,127,0)" stroke-width="0.25mm" /><defs /><polyline fill="none" fill-opacity="0" points="125.0,265.0 145.0,245.0" stroke="rgb(0,127,0)" stroke-width="0.25mm" /><defs /><polyline fill="none" fill-opacity="0" points="145.0,265.0 165.0,245.0" stroke="rgb(0,127,0)" stroke-width="0.25mm" /><defs /><polyline fill="none" fill-opacity="0" points="165.0,265.0 185.0,245.0" stroke="rgb(0,127,0)" stroke-width="0.25mm" /><defs /><polyline fill="none" fill-opacity="0" points="125.0,245.0 185.0,245.0" stroke="rgb(0,127,0)" stroke-width="0.25mm" /><defs /><rect fill="rgb(255,255,255)" fill-opacity="1" height="192.0" rx="0.0" ry="0.0" stroke="rgb(255,255,255)" stroke-width="0.25mm" width="192.0" x="59.0" y="45.0" /><defs /><polyline fill="none" fill-opacity="0" points="155.0,205.0 155.0,245.0" stroke="rgb(0,127,0)" stroke-width="0.25mm" /><defs /><text alignment-baseline="middle" fill="rgb(0,0,255)" fill-opacity="1" font-family="Verdana" font-size="18" text-anchor="middle" x="155.0" y="25.0">name</text><defs /><polyline fill="none" fill-opacity="0" points="77.0,65.0 206.0,65.0" stroke="rgb(95,127,95)" stroke-width="0.25mm" /><defs /><polygon fill="rgb(95,127,95)" fill-opacity="1" points="236.0,65.0 206.0,55.0 206.0,75.0 236.0,65.0" stroke="rgb(95,127,95)" stroke-width="0.25mm" /><defs /><polyline fill="none" fill-opacity="0" points="103.0,205.0 232.0,205.0" stroke="rgb(95,127,95)" stroke-width="0.25mm" /><defs /><polygon fill="rgb(95,127,95)" fill-opacity="1" points="73.0,205.0 104.0,195.0 104.0,215.0 73.0,205.0" stroke="rgb(95,127,95)" stroke-width="0.25mm" /><defs /><polyline fill="none" fill-opacity="0" points="95.0,95.0 95.0,185.0" stroke="rgb(192,192,192)" stroke-width="0.25mm" /><defs /><polyline fill="none" fill-opacity="0" points="80.0,175.0 230.0,175.0" stroke="rgb(192,192,192)" stroke-width="0.25mm" /><defs /><path d="M 95.0 175.0 C 105.0 174.0 115.0 173.0 125.0 170.0 125.0 170.0 135.0 167.0 145.0 161.0 145.0 161.0 155.0 155.0 165.0 147.0 165.0 147.0 175.0 139.0 185.0 129.0 185.0 129.0 195.0 119.0 204.0 106.0 204.0 106.0 213.0 93.0 213.0 93.0" fill="none" fill-opacity="0" stroke="rgb(0,0,127)" stroke-width="0.25mm" /><defs /><g id="flange"><rect fill="rgb(255,255,255)" fill-opacity="1" height="40.0" rx="0.0" ry="0.0" stroke="rgb(0,127,0)" stroke-width="0.25mm" width="40.0" x="15.0" y="125.0" /><defs /><g display="none" id="info"><text id="name">flange</text><text id="type">Modelica.Mechanics.Translational.Interfaces.Flange_b</text><text id="classDesc">One-dimensional translational flange (right, flange axis directed OUT OF cut plane)</text><text id="desc">Flange of component</text></g></g><g id="support"><rect fill="rgb(175,175,175)" fill-opacity="1" height="24.0" rx="0.0" ry="0.0" stroke="rgb(0,127,0)" stroke-width="0.25mm" width="24.0" x="23.0" y="133.0" /><defs /><rect fill="rgb(175,190,175)" fill-opacity="1" height="40.0" rx="0.0" ry="0.0" width="40.0" x="15.0" y="125.0" /><defs /><rect fill="rgb(0,127,0)" fill-opacity="1" height="24.0" rx="0.0" ry="0.0" stroke="rgb(0,127,0)" stroke-width="0.25mm" width="24.0" x="23.0" y="133.0" /><defs /><g display="none" id="info"><text id="name">support</text><text id="type">Modelica.Mechanics.Translational.Interfaces.Support</text><text id="classDesc">Support/housing flange of a one-dimensional translational component</text><text id="desc">Support/housing of component</text></g></g></svg>