<?xml version="1.0" encoding="utf-8" ?>
<svg baseProfile="full" height="260.0" version="1.1" viewBox="0 0 310.0 260.0" width="310.0" xmlns="http://www.w3.org/2000/svg" xmlns:ev="http://www.w3.org/2001/xml-events" xmlns:xlink="http://www.w3.org/1999/xlink"><defs /><rect fill="rgb(223,211,169)" fill-opacity="1" filter="url(#BorderPattern.Raised_0)" height="200.0" rx="0.0" ry="0.0" stroke="rgb(0,0,127)" stroke-width="0.25mm" width="200.0" x="55.0" y="55.0" /><defs><filter filterUnits="objectBoundingBox" height="1.2" id="BorderPattern.Raised_0" width="1.2" x="-0.1" y="-0.1"><feGaussianBlur in="SourceAlpha" result="alpha_blur" stdDeviation="5" /><feSpecularLighting in="alpha_blur" lighting-color="#FFFFFF" result="spec_light" specularConstant="1" specularExponent="20" surfaceScale="5"><fePointLight x="-5000" y="-10000" z="10000" /></feSpecularLighting><feComposite in="spec_light" in2="SourceAlpha" operator="in" result="spec_light" /><feComposite in="SourceGraphic" in2="spec_light" operator="out" result="spec_light_fill" /></filter></defs><text dominant-baseline="middle" fill="rgb(0,0,255)" fill-opacity="1" font-family="Verdana" font-size="40.0" text-anchor="middle" x="155.0" y="25.0">name</text><defs /><polyline fill="none" fill-opacity="0" points="75.0,125.0 119.0,125.0 119.0,105.0 145.0,105.0 145.0,125.0 165.0,125.0 165.0,105.0 191.0,105.0 191.0,125.0 235.0,125.0" stroke="rgb(255,0,0)" stroke-width="0.25mm" /><defs /><polyline fill="none" fill-opacity="0" points="75.0,165.0 85.0,165.0 85.0,145.0 119.0,145.0 119.0,165.0 191.0,165.0 191.0,145.0 225.0,145.0 225.0,165.0 235.0,165.0" stroke="rgb(0,0,255)" stroke-width="0.25mm" /><defs /><polyline fill="none" fill-opacity="0" points="75.0,205.0 75.0,185.0 85.0,185.0 85.0,205.0 145.0,205.0 145.0,185.0 165.0,185.0 165.0,205.0 225.0,205.0 225.0,185.0 235.0,185.0 235.0,205.0" stroke="rgb(0,0,0)" stroke-width="0.25mm" /><defs /><g id="u"><polygon fill="rgb(0,0,127)" fill-opacity="1" points="15.0,135.0 55.0,155.0 15.0,175.0" stroke="rgb(0,0,127)" stroke-width="0.25mm" /><defs /><g display="none" id="info"><text id="name">u</text><text id="type">Modelica.Blocks.Interfaces.RealInput</text><text id="classDesc">'input Real' as connector</text><text id="desc" /></g></g><g id="fire_p"><polygon fill="rgb(255,255,255)" fill-opacity="1" points="15.0,135.0 55.0,155.0 15.0,175.0 15.0,135.0" stroke="rgb(255,0,255)" stroke-width="0.25mm" /><defs /><g display="none" id="info"><text id="name">fire_p</text><text id="type">Modelica.Blocks.Interfaces.BooleanOutput</text><text id="classDesc">'output Boolean' as connector</text><text id="desc" /></g></g><g id="fire_n"><polygon fill="rgb(255,255,255)" fill-opacity="1" points="15.0,135.0 55.0,155.0 15.0,175.0 15.0,135.0" stroke="rgb(255,0,255)" stroke-width="0.25mm" /><defs /><g display="none" id="info"><text id="name">fire_n</text><text id="type">Modelica.Blocks.Interfaces.BooleanOutput</text><text id="classDesc">'output Boolean' as connector</text><text id="desc" /></g></g></svg>