<?xml version="1.0" encoding="utf-8" ?>
<svg baseProfile="full" height="260.0" version="1.1" viewBox="0 0 310.0 260.0" width="310.0" xmlns="http://www.w3.org/2000/svg" xmlns:ev="http://www.w3.org/2001/xml-events" xmlns:xlink="http://www.w3.org/1999/xlink"><defs /><polyline fill="none" fill-opacity="0" points="65.0,55.0 115.0,55.0 115.0,255.0 65.0,255.0" stroke="rgb(0,0,255)" stroke-width="0.25mm" /><defs /><polyline fill="none" fill-opacity="0" points="125.0,95.0 175.0,95.0" stroke="rgb(0,0,255)" stroke-width="0.25mm" /><defs /><polygon fill="rgb(0,0,255)" fill-opacity="1" points="175.0,92.0 185.0,95.0 175.0,98.0 175.0,92.0" stroke="rgb(0,0,255)" stroke-width="0.25mm" /><defs /><polyline fill="none" fill-opacity="0" points="245.0,55.0 195.0,55.0 195.0,255.0 245.0,255.0" stroke="rgb(0,0,255)" stroke-width="0.25mm" /><defs /><text alignment-baseline="middle" fill="rgb(0,0,255)" fill-opacity="1" font-family="Verdana" font-size="18" text-anchor="middle" x="155.0" y="25.0">name</text><defs /><path d="M 115.0 125.0 C 122.5 126.0 130.0 127.0 137.5 135.0 137.5 135.0 145.0 143.0 145.0 155.0 145.0 155.0 145.0 167.0 137.0 175.0 137.0 175.0 129.0 183.0 122.0 184.0 122.0 184.0 115.0 185.0 115.0 185.0" fill="none" fill-opacity="0" stroke="rgb(0,0,255)" stroke-width="0.25mm" /><defs /><path d="M 194.997220332 185.001297021 C 187.497313018 184.000602124 179.997405704 182.999907226 172.498146965 174.999212359 172.498146965 174.999212359 164.998888226 166.998517491 165.000000069 154.998517543 165.000000069 154.998517543 165.001111912 142.998517594 173.001853106 134.999258857 173.001853106 134.999258857 181.002594301 127.00000012 188.002686924 126.0006487 188.002686924 126.0006487 195.002779548 125.001297279 195.002779548 125.001297279" fill="none" fill-opacity="0" stroke="rgb(0,0,255)" stroke-width="0.25mm" /><defs /><rect fill="none" fill-opacity="0" height="160.0" rx="0.0" ry="0.0" stroke="rgb(0,0,255)" stroke-width="0.25mm" width="160.0" x="75.0" y="75.0" /><defs /><g id="p1"><rect fill="rgb(0,0,255)" fill-opacity="1" height="40.0" rx="0.0" ry="0.0" stroke="rgb(0,0,255)" stroke-width="0.25mm" width="40.0" x="15.0" y="135.0" /><defs /><g display="none" id="info"><text id="name">p1</text><text id="type">Modelica.Electrical.Analog.Interfaces.PositivePin</text><text id="classDesc">Positive pin of an electrical component</text><text id="desc">Positive electrical pin of port 1</text></g></g><g id="n1"><rect fill="rgb(255,255,255)" fill-opacity="1" height="40.0" rx="0.0" ry="0.0" stroke="rgb(0,0,255)" stroke-width="0.25mm" width="40.0" x="15.0" y="135.0" /><defs /><g display="none" id="info"><text id="name">n1</text><text id="type">Modelica.Electrical.Analog.Interfaces.NegativePin</text><text id="classDesc">Negative pin of an electrical component</text><text id="desc">Negative electrical pin of port 1</text></g></g><g id="p2"><rect fill="rgb(0,0,255)" fill-opacity="1" height="40.0" rx="0.0" ry="0.0" stroke="rgb(0,0,255)" stroke-width="0.25mm" width="40.0" x="15.0" y="135.0" /><defs /><g display="none" id="info"><text id="name">p2</text><text id="type">Modelica.Electrical.Analog.Interfaces.PositivePin</text><text id="classDesc">Positive pin of an electrical component</text><text id="desc">Positive electrical pin of port 2</text></g></g><g id="n2"><rect fill="rgb(255,255,255)" fill-opacity="1" height="40.0" rx="0.0" ry="0.0" stroke="rgb(0,0,255)" stroke-width="0.25mm" width="40.0" x="15.0" y="135.0" /><defs /><g display="none" id="info"><text id="name">n2</text><text id="type">Modelica.Electrical.Analog.Interfaces.NegativePin</text><text id="classDesc">Negative pin of an electrical component</text><text id="desc">Negative electrical pin of port 2</text></g></g></svg>