<?xml version="1.0" encoding="utf-8" ?>
<svg baseProfile="full" height="210" version="1.1" viewBox="0 0 330.0 210" width="330.0" xmlns="http://www.w3.org/2000/svg" xmlns:ev="http://www.w3.org/2001/xml-events" xmlns:xlink="http://www.w3.org/1999/xlink"><defs /><ellipse cx="165.0" cy="105.0" fill="rgb(255,255,255)" fill-opacity="1" rx="50.0" ry="50.0" stroke="rgb(85,170,255)" stroke-width="0.25mm" /><defs /><polyline fill="none" fill-opacity="0" points="75.0,105.0 115.0,105.0" stroke="rgb(85,170,255)" stroke-width="0.25mm" /><defs /><polyline fill="none" fill-opacity="0" points="215.0,105.0 255.0,105.0" stroke="rgb(85,170,255)" stroke-width="0.25mm" /><defs /><polyline fill="none" fill-opacity="0" points="165.0,155.0 165.0,55.0" stroke="rgb(85,170,255)" stroke-width="0.25mm" /><defs /><text alignment-baseline="middle" fill="rgb(0,0,255)" fill-opacity="1" font-family="Verdana" font-size="18" text-anchor="middle" x="165.0" y="25.0">name</text><defs /><path d="M 121.0 105.0 C 127.0 98.0 133.0 91.0 139.0 82.0 139.0 82.0 145.0 73.0 149.0 68.0 149.0 68.0 153.0 63.0 156.0 69.0 156.0 69.0 159.0 75.0 162.0 90.0 162.0 90.0 165.0 105.0 167.0 119.0 167.0 119.0 169.0 133.0 171.0 139.0 171.0 139.0 173.0 145.0 175.0 135.0 175.0 135.0 177.0 125.0 178.0 114.0 178.0 114.0 179.0 103.0 180.0 89.0 180.0 89.0 181.0 75.0 182.0 69.0 182.0 69.0 183.0 63.0 184.0 70.0 184.0 70.0 185.0 77.0 187.0 107.0 187.0 107.0 189.0 137.0 190.0 141.0 190.0 141.0 191.0 145.0 192.0 125.0 192.0 125.0 193.0 105.0 193.0 105.0" fill="none" fill-opacity="0" stroke="rgb(192,192,192)" stroke-width="0.25mm" /><defs /><polygon fill="rgb(85,170,255)" fill-opacity="1" points="255.0,105.0 225.0,95.0 225.0,115.0 255.0,105.0" stroke="rgb(85,170,255)" stroke-width="0.25mm" /><defs /><text alignment-baseline="middle" fill="rgb(0,0,0)" fill-opacity="1" font-family="Verdana" font-size="18" text-anchor="middle" x="165.0" y="185.0">m=m</text><defs /><g id="plug_p"><ellipse cx="45.0" cy="105.0" fill="rgb(85,170,255)" fill-opacity="1" rx="20.0" ry="20.0" stroke="rgb(85,170,255)" stroke-width="0.25mm" /><defs /><g display="none" id="info"><text id="name">plug_p</text><text id="type">Modelica.Electrical.QuasiStationary.MultiPhase.Interfaces.PositivePlug</text><text id="classDesc">Positive quasi-static polyphase plug</text><text id="desc">Positive quasi-static polyphase plug</text></g></g><g id="plug_n"><ellipse cx="45.0" cy="105.0" fill="rgb(255,255,255)" fill-opacity="1" rx="20.0" ry="20.0" stroke="rgb(85,170,255)" stroke-width="0.25mm" /><defs /><g display="none" id="info"><text id="name">plug_n</text><text id="type">Modelica.Electrical.QuasiStationary.MultiPhase.Interfaces.NegativePlug</text><text id="classDesc">Negative quasi-static polyphase plug</text><text id="desc">Negative quasi-static polyphase plug</text></g></g></svg>