<?xml version="1.0" encoding="utf-8" ?>
<svg baseProfile="full" height="260.0" version="1.1" viewBox="0 0 310.0 260.0" width="310.0" xmlns="http://www.w3.org/2000/svg" xmlns:ev="http://www.w3.org/2001/xml-events" xmlns:xlink="http://www.w3.org/1999/xlink"><defs /><polyline fill="none" fill-opacity="0" points="65.0,55.0 115.0,55.0 115.0,255.0 65.0,255.0" stroke="rgb(0,0,255)" stroke-width="0.25mm" /><defs /><polyline fill="none" fill-opacity="0" points="125.0,95.0 175.0,95.0" stroke="rgb(0,0,255)" stroke-width="0.25mm" /><defs /><polygon fill="rgb(0,0,255)" fill-opacity="1" points="175.0,92.0 185.0,95.0 175.0,98.0 175.0,92.0" stroke="rgb(0,0,255)" stroke-width="0.25mm" /><defs /><polyline fill="none" fill-opacity="0" points="245.0,55.0 195.0,55.0 195.0,255.0 245.0,255.0" stroke="rgb(0,0,255)" stroke-width="0.25mm" /><defs /><text dominant-baseline="middle" fill="rgb(0,0,255)" fill-opacity="1" font-family="Verdana" font-size="40.0" text-anchor="middle" x="155.0" y="25.0">name</text><defs /><path d="M 115.0 125.0 C 122.5 126.0 130.0 127.0 137.5 135.0 137.5 135.0 145.0 143.0 145.0 155.0 145.0 155.0 145.0 167.0 137.0 175.0 137.0 175.0 129.0 183.0 122.0 184.0 122.0 184.0 115.0 185.0 115.0 185.0" fill="none" fill-opacity="0" stroke="rgb(0,0,255)" stroke-width="0.25mm" /><defs /><path d="M 194.99722033221738 185.00129702148493 C 187.4973130179996 184.00060212385483 179.99740570378185 182.9999072262247 172.49814696469173 174.999212358641 172.49814696469173 174.999212358641 164.99888822560158 166.9985174910573 165.00000006867748 154.99851754256542 165.00000006867748 154.99851754256542 165.0011119117534 142.99851759407355 173.00185310613196 134.99925885712958 173.00185310613196 134.99925885712958 181.0025943005105 127.00000012018563 188.00268692405376 126.00064869960559 188.00268692405376 126.00064869960559 195.00277954759702 125.00129727902556 195.00277954759702 125.00129727902556" fill="none" fill-opacity="0" stroke="rgb(0,0,255)" stroke-width="0.25mm" /><defs /><rect fill="none" fill-opacity="0" height="160.0" rx="0.0" ry="0.0" stroke="rgb(0,0,255)" stroke-width="0.25mm" width="160.0" x="75.0" y="75.0" /><defs /><g id="p1"><rect fill="rgb(0,0,255)" fill-opacity="1" height="40.0" rx="0.0" ry="0.0" stroke="rgb(0,0,255)" stroke-width="0.25mm" width="40.0" x="15.0" y="135.0" /><defs /><g display="none" id="info"><text id="name">p1</text><text id="type">Modelica.Electrical.Analog.Interfaces.PositivePin</text><text id="classDesc">Positive pin of an electrical component</text><text id="desc">Positive electrical pin of port 1</text></g></g><g id="n1"><rect fill="rgb(255,255,255)" fill-opacity="1" height="40.0" rx="0.0" ry="0.0" stroke="rgb(0,0,255)" stroke-width="0.25mm" width="40.0" x="15.0" y="135.0" /><defs /><g display="none" id="info"><text id="name">n1</text><text id="type">Modelica.Electrical.Analog.Interfaces.NegativePin</text><text id="classDesc">Negative pin of an electrical component</text><text id="desc">Negative electrical pin of port 1</text></g></g><g id="p2"><rect fill="rgb(0,0,255)" fill-opacity="1" height="40.0" rx="0.0" ry="0.0" stroke="rgb(0,0,255)" stroke-width="0.25mm" width="40.0" x="15.0" y="135.0" /><defs /><g display="none" id="info"><text id="name">p2</text><text id="type">Modelica.Electrical.Analog.Interfaces.PositivePin</text><text id="classDesc">Positive pin of an electrical component</text><text id="desc">Positive electrical pin of port 2</text></g></g><g id="n2"><rect fill="rgb(255,255,255)" fill-opacity="1" height="40.0" rx="0.0" ry="0.0" stroke="rgb(0,0,255)" stroke-width="0.25mm" width="40.0" x="15.0" y="135.0" /><defs /><g display="none" id="info"><text id="name">n2</text><text id="type">Modelica.Electrical.Analog.Interfaces.NegativePin</text><text id="classDesc">Negative pin of an electrical component</text><text id="desc">Negative electrical pin of port 2</text></g></g></svg>