<?xml version="1.0" encoding="utf-8" ?>
<svg baseProfile="full" height="310.0" version="1.1" viewBox="0 0 310.0 310.0" width="310.0" xmlns="http://www.w3.org/2000/svg" xmlns:ev="http://www.w3.org/2001/xml-events" xmlns:xlink="http://www.w3.org/1999/xlink"><defs /><rect fill="rgb(255,255,255)" fill-opacity="1" height="200.0" rx="0.0" ry="0.0" stroke="rgb(0,0,127)" stroke-width="0.25mm" width="200.0" x="55.0" y="55.0" /><defs /><text alignment-baseline="middle" fill="rgb(0,0,255)" fill-opacity="1" font-family="Verdana" font-size="18" text-anchor="middle" x="155.0" y="25.0">name</text><defs /><polyline fill="none" fill-opacity="0" points="75.0,235.0 75.0,87.0" stroke="rgb(192,192,192)" stroke-width="0.25mm" /><defs /><polygon fill="rgb(192,192,192)" fill-opacity="1" points="75.0,65.0 67.0,87.0 83.0,87.0 75.0,65.0" stroke="rgb(192,192,192)" stroke-width="0.25mm" /><defs /><polyline fill="none" fill-opacity="0" points="65.0,155.0 223.0,155.0" stroke="rgb(192,192,192)" stroke-width="0.25mm" /><defs /><polygon fill="rgb(192,192,192)" fill-opacity="1" points="245.0,155.0 223.0,147.0 223.0,163.0 245.0,155.0" stroke="rgb(192,192,192)" stroke-width="0.25mm" /><defs /><polygon fill="rgb(192,192,192)" fill-opacity="1" points="75.0,155.0 86.0,121.0 93.0,102.0 100.0,87.0 105.0,80.0 111.0,76.0 117.0,75.0 123.0,79.0 128.0,85.0 134.0,96.0 140.0,111.0 148.0,134.0 165.0,186.0 172.0,205.0 179.0,219.0 184.0,228.0 190.0,233.0 196.0,236.0 201.0,233.0 207.0,226.0 212.0,217.0 219.0,202.0 227.0,180.0 235.0,155.0 227.0,208.0 214.0,192.0 201.0,250.0 189.0,208.0 177.0,236.0 165.0,165.0 152.0,182.0 142.0,92.0 129.0,109.0 129.0,107.0 117.0,61.0 104.0,106.0 96.0,75.0 90.0,137.0 80.0,117.0 75.0,155.0" stroke="rgb(0,0,0)" stroke-width="0.25mm" /><defs /><text alignment-baseline="middle" fill="rgb(192,192,192)" fill-opacity="1" font-family="Verdana" font-size="18" text-anchor="middle" x="197.0" y="105.0">1</text><defs /><text alignment-baseline="middle" fill="rgb(192,192,192)" fill-opacity="1" font-family="Verdana" font-size="18" text-anchor="middle" x="197.0" y="105.0">rms</text><defs /><text alignment-baseline="middle" fill="rgb(0,0,0)" fill-opacity="1" font-family="Verdana" font-size="18" text-anchor="middle" x="155.0" y="285.0">f=f</text><defs /><g id="u"><polygon fill="rgb(0,0,127)" fill-opacity="1" points="15.0,135.0 55.0,155.0 15.0,175.0" stroke="rgb(0,0,127)" stroke-width="0.25mm" /><defs /><g display="none" id="info"><text id="name">u</text><text id="type">Modelica.Blocks.Interfaces.RealInput</text><text id="classDesc">'input Real' as connector</text><text id="desc">Connector of Real input signal</text></g></g><g id="y"><polygon fill="rgb(255,255,255)" fill-opacity="1" points="15.0,135.0 55.0,155.0 15.0,175.0" stroke="rgb(0,0,127)" stroke-width="0.25mm" /><defs /><g display="none" id="info"><text id="name">y</text><text id="type">Modelica.Blocks.Interfaces.RealOutput</text><text id="classDesc">'output Real' as connector</text><text id="desc">Connector of Real output signal</text></g></g><g id="valid"><polygon fill="rgb(255,255,255)" fill-opacity="1" points="15.0,135.0 55.0,155.0 15.0,175.0 15.0,135.0" stroke="rgb(255,0,255)" stroke-width="0.25mm" /><defs /><g display="none" id="info"><text id="name">valid</text><text id="type">Modelica.Blocks.Interfaces.BooleanOutput</text><text id="classDesc">'output Boolean' as connector</text><text id="desc">True, if output y is valid</text></g></g></svg>