<?xml version="1.0" encoding="utf-8" ?>
<svg baseProfile="full" height="237.0" version="1.1" viewBox="0 0 310.0 237.0" width="310.0" xmlns="http://www.w3.org/2000/svg" xmlns:ev="http://www.w3.org/2001/xml-events" xmlns:xlink="http://www.w3.org/1999/xlink"><defs /><polyline fill="none" fill-opacity="0" points="75.0,85.0 75.0,125.0 95.0,125.0" stroke="rgb(0,0,255)" stroke-width="0.25mm" /><defs /><polyline fill="none" fill-opacity="0" points="75.0,85.0 95.0,85.0" stroke="rgb(0,0,255)" stroke-width="0.25mm" /><defs /><polyline fill="none" fill-opacity="0" points="215.0,85.0 235.0,85.0" stroke="rgb(0,0,255)" stroke-width="0.25mm" /><defs /><polyline fill="none" fill-opacity="0" points="235.0,85.0 235.0,125.0 215.0,125.0" stroke="rgb(0,0,255)" stroke-width="0.25mm" /><defs /><polyline fill="none" fill-opacity="0" points="65.0,105.0 75.0,105.0" stroke="rgb(0,0,255)" stroke-width="0.25mm" /><defs /><polyline fill="none" fill-opacity="0" points="235.0,105.0 245.0,105.0" stroke="rgb(0,0,255)" stroke-width="0.25mm" /><defs /><path d="M 95.0 85.0 C 95.5 82.0 96.0 79.0 99.5 75.0 99.5 75.0 103.0 71.0 110.0 71.0 110.0 71.0 117.0 71.0 120.5 75.0 120.5 75.0 124.0 79.0 124.5 82.0 124.5 82.0 125.0 85.0 125.0 85.0" fill="none" fill-opacity="0" stroke="rgb(0,0,255)" stroke-width="0.25mm" /><defs /><path d="M 125.0 85.0 C 125.5 82.0 126.0 79.0 129.5 75.0 129.5 75.0 133.0 71.0 140.0 71.0 140.0 71.0 147.0 71.0 150.5 75.0 150.5 75.0 154.0 79.0 154.5 82.0 154.5 82.0 155.0 85.0 155.0 85.0" fill="none" fill-opacity="0" stroke="rgb(0,0,255)" stroke-width="0.25mm" /><defs /><path d="M 155.0 85.0 C 155.5 82.0 156.0 79.0 159.5 75.0 159.5 75.0 163.0 71.0 170.0 71.0 170.0 71.0 177.0 71.0 180.5 75.0 180.5 75.0 184.0 79.0 184.5 82.0 184.5 82.0 185.0 85.0 185.0 85.0" fill="none" fill-opacity="0" stroke="rgb(0,0,255)" stroke-width="0.25mm" /><defs /><path d="M 185.0 85.0 C 185.5 82.0 186.0 79.0 189.5 75.0 189.5 75.0 193.0 71.0 200.0 71.0 200.0 71.0 207.0 71.0 210.5 75.0 210.5 75.0 214.0 79.0 214.5 82.0 214.5 82.0 215.0 85.0 215.0 85.0" fill="none" fill-opacity="0" stroke="rgb(0,0,255)" stroke-width="0.25mm" /><defs /><path d="M 125.00064851074247 125.00138983389131 C 124.50037055211965 128.00134349421944 124.00009259349684 131.0012971545476 120.4997219941614 135.0009728498144 120.4997219941614 135.0009728498144 116.99935139482596 139.00064854508122 109.99935142487237 138.9999999699536 109.99935142487237 138.9999999699536 102.99935145491878 138.99935139482596 99.49972208430063 134.99902712443154 99.49972208430063 134.99902712443154 96.00009271368248 130.9987028540371 95.50037067659763 127.9986565401193 95.50037067659763 127.9986565401193 95.00064863951278 124.99861022620149 95.00064863951278 124.99861022620149" fill="none" fill-opacity="0" stroke="rgb(0,0,255)" stroke-width="0.25mm" /><defs /><path d="M 155.00064851074248 125.00138983389131 C 154.50037055211965 128.00134349421944 154.00009259349684 131.0012971545476 150.4997219941614 135.0009728498144 150.4997219941614 135.0009728498144 146.99935139482596 139.00064854508122 139.99935142487237 138.9999999699536 139.99935142487237 138.9999999699536 132.99935145491878 138.99935139482596 129.49972208430063 134.99902712443154 129.49972208430063 134.99902712443154 126.00009271368248 130.9987028540371 125.50037067659763 127.9986565401193 125.50037067659763 127.9986565401193 125.00064863951278 124.99861022620149 125.00064863951278 124.99861022620149" fill="none" fill-opacity="0" stroke="rgb(0,0,255)" stroke-width="0.25mm" /><defs /><path d="M 185.00064851074245 125.00138983389131 C 184.50037055211965 128.00134349421944 184.00009259349684 131.0012971545476 180.4997219941614 135.0009728498144 180.4997219941614 135.0009728498144 176.99935139482596 139.00064854508122 169.99935142487237 138.9999999699536 169.99935142487237 138.9999999699536 162.99935145491878 138.99935139482596 159.49972208430063 134.99902712443154 159.49972208430063 134.99902712443154 156.00009271368248 130.9987028540371 155.50037067659764 127.9986565401193 155.50037067659764 127.9986565401193 155.00064863951278 124.99861022620149 155.00064863951278 124.99861022620149" fill="none" fill-opacity="0" stroke="rgb(0,0,255)" stroke-width="0.25mm" /><defs /><path d="M 215.00064851074245 125.00138983389131 C 214.50037055211965 128.00134349421944 214.00009259349684 131.0012971545476 210.4997219941614 135.0009728498144 210.4997219941614 135.0009728498144 206.99935139482596 139.00064854508122 199.99935142487237 138.9999999699536 199.99935142487237 138.9999999699536 192.99935145491878 138.99935139482596 189.49972208430063 134.99902712443154 189.49972208430063 134.99902712443154 186.00009271368248 130.9987028540371 185.50037067659764 127.9986565401193 185.50037067659764 127.9986565401193 185.00064863951278 124.99861022620149 185.00064863951278 124.99861022620149" fill="none" fill-opacity="0" stroke="rgb(0,0,255)" stroke-width="0.25mm" /><defs /><text dominant-baseline="middle" fill="rgb(0,0,255)" fill-opacity="1" font-family="Verdana" font-size="40.0" text-anchor="middle" x="155.0" y="35.0">name</text><defs /><text dominant-baseline="middle" fill="rgb(0,0,0)" fill-opacity="1" font-family="Verdana" font-size="40.0" text-anchor="middle" x="155.0" y="165.0">m=m</text><defs /><g id="plug_p"><ellipse cx="35.0" cy="105.0" fill="rgb(0,0,255)" fill-opacity="1" rx="20.0" ry="20.0" stroke="rgb(0,0,255)" stroke-width="0.25mm" /><defs /><g display="none" id="info"><text id="name">plug_p</text><text id="type">Modelica.Electrical.MultiPhase.Interfaces.PositivePlug</text><text id="classDesc">Positive polyphase electrical plug with m pins</text><text id="desc">Positive polyphase electrical plug with m pins</text></g></g><g id="plug_n"><ellipse cx="35.0" cy="105.0" fill="rgb(255,255,255)" fill-opacity="1" rx="20.0" ry="20.0" stroke="rgb(0,0,255)" stroke-width="0.25mm" /><defs /><g display="none" id="info"><text id="name">plug_n</text><text id="type">Modelica.Electrical.MultiPhase.Interfaces.NegativePlug</text><text id="classDesc">Negative polyphase electrical plug with m pins</text><text id="desc">Negative polyphase electrical plug with m pins</text></g></g></svg>