<?xml version="1.0" encoding="utf-8" ?>
<svg baseProfile="full" height="245.0" version="1.1" viewBox="0 0 310.0 245.0" width="310.0" xmlns="http://www.w3.org/2000/svg" xmlns:ev="http://www.w3.org/2001/xml-events" xmlns:xlink="http://www.w3.org/1999/xlink"><defs /><polyline fill="none" fill-opacity="0" points="240.0,240.0 250.0,230.0" stroke="rgb(0,127,0)" stroke-width="0.25mm" /><defs /><polyline fill="none" fill-opacity="0" points="250.0,240.0 260.0,230.0" stroke="rgb(0,127,0)" stroke-width="0.25mm" /><defs /><polyline fill="none" fill-opacity="0" points="260.0,240.0 270.0,230.0" stroke="rgb(0,127,0)" stroke-width="0.25mm" /><defs /><polyline fill="none" fill-opacity="0" points="240.0,230.0 270.0,230.0" stroke="rgb(0,127,0)" stroke-width="0.25mm" /><defs /><polyline fill="none" fill-opacity="0" points="40.0,240.0 50.0,230.0" stroke="rgb(0,0,0)" stroke-width="0.25mm" /><defs /><polyline fill="none" fill-opacity="0" points="50.0,240.0 60.0,230.0" stroke="rgb(0,0,0)" stroke-width="0.25mm" /><defs /><polyline fill="none" fill-opacity="0" points="60.0,240.0 70.0,230.0" stroke="rgb(0,0,0)" stroke-width="0.25mm" /><defs /><polyline fill="none" fill-opacity="0" points="40.0,230.0 70.0,230.0" stroke="rgb(0,0,0)" stroke-width="0.25mm" /><defs /><rect fill="url(#0)" height="20.0" rx="0.0" ry="0.0" stroke="rgb(64,64,64)" stroke-width="0.25mm" width="70.0" x="55.0" y="120.0" /><defs><linearGradient id="0" x1="0%" x2="0%" y1="0%" y2="100%"><stop offset="0" stop-color="rgb(64, 64, 64)" stop-opacity="1" /><stop offset="0.3" stop-color="rgb(192, 192, 192)" stop-opacity="1" /><stop offset="0.7" stop-color="rgb(192, 192, 192)" stop-opacity="1" /><stop offset="1" stop-color="rgb(64, 64, 64)" stop-opacity="1" /></linearGradient></defs><text dominant-baseline="middle" fill="rgb(0,0,255)" fill-opacity="1" font-family="Verdana" font-size="40.0" text-anchor="middle" x="155.0" y="25.0">name</text><defs /><rect fill="rgb(131,175,131)" fill-opacity="1" height="50.0" rx="0.0" ry="0.0" stroke="rgb(0,0,0)" stroke-width="0.25mm" width="11.0" x="250.0" y="140.0" /><defs /><rect fill="rgb(131,175,131)" fill-opacity="1" height="20.0" rx="0.0" ry="0.0" stroke="rgb(0,0,0)" stroke-width="0.25mm" width="181.0" x="80.589" y="190.0" /><defs /><text dominant-baseline="middle" fill="rgb(0,0,0)" fill-opacity="1" font-family="Verdana" font-size="30.0" text-anchor="middle" x="155.0" y="65.0">ratio=ratio</text><defs /><polyline fill="none" fill-opacity="0" points="55.0,114.0 75.0,114.0" stroke="rgb(0,0,0)" stroke-width="0.25mm" /><defs /><polyline fill="none" fill-opacity="0" points="55.0,146.0 75.0,146.0" stroke="rgb(0,0,0)" stroke-width="0.25mm" /><defs /><polyline fill="none" fill-opacity="0" points="55.0,146.0 55.0,230.0" stroke="rgb(0,0,0)" stroke-width="0.25mm" /><defs /><polyline fill="none" fill-opacity="0" points="255.0,210.0 255.0,230.0" stroke="rgb(0,127,0)" stroke-width="0.25mm" /><defs /><polygon fill="rgb(131,175,131)" fill-opacity="1" points="87.5,190.0 92.5,170.0 102.5,170.0 107.5,190.0 117.5,190.0 122.5,170.0 132.5,170.0 137.5,190.0 147.5,190.0 152.5,170.0 162.5,170.0 167.5,190.0 177.5,190.0 182.5,170.0 192.5,170.0 197.5,190.0 207.5,190.0 212.5,170.0 222.5,170.0 227.5,190.0 237.5,190.0 242.5,170.0 250.0,170.0 250.0,190.0" stroke="rgb(0,0,0)" stroke-width="0.25mm" /><defs /><polygon fill="rgb(255,255,255)" fill-opacity="1" points="122.26201688582783,86.55182643443956 123.41548244716573,121.88834461604324 89.8153953500008,132.88989664577664 91.55182643443956,142.73798311417218 126.88834461604324,141.58451755283428 137.88989664577664,175.1846046499992 147.73798311417218,173.44817356556044 146.58451755283428,138.11165538395676 180.1846046499992,127.11010335422334 178.44817356556044,117.26201688582783 143.11165538395676,118.41548244716573 132.11010335422336,84.8153953500008" stroke="rgb(0,0,0)" stroke-width="0.25mm" /><defs /><polygon fill="rgb(255,255,255)" fill-opacity="1" points="95.27089061567798,108.28369581331629 121.07264567471488,132.4553617855546 105.09233775789642,163.99311311445675 113.28369581331629,169.72910938432202 137.4553617855546,143.9273543252851 168.99311311445675,159.90766224210358 174.72910938432202,151.71630418668371 148.9273543252851,127.5446382144454 164.90766224210358,96.00688688554325 156.71630418668371,90.27089061567798 132.5446382144454,116.07264567471488 101.00688688554325,100.09233775789642" stroke="rgb(0,0,0)" stroke-width="0.25mm" /><defs /><ellipse cx="135.0" cy="130.0" fill="rgb(255,255,255)" fill-opacity="1" rx="30.0" ry="30.0" stroke="rgb(0,0,0)" stroke-width="0.25mm" /><defs /><ellipse cx="135.0" cy="130.0" fill="rgb(128,128,128)" fill-opacity="1" rx="10.0" ry="10.0" stroke="rgb(0,0,0)" stroke-width="0.25mm" /><defs /><g id="flangeR"><ellipse cx="35.0" cy="130.0" fill="rgb(95,95,95)" fill-opacity="1" rx="20.0" ry="20.0" stroke="rgb(0,0,0)" stroke-width="0.25mm" /><defs /><g display="none" id="info"><text id="name">flangeR</text><text id="type">Modelica.Mechanics.Rotational.Interfaces.Flange_a</text><text id="classDesc">One-dimensional rotational flange of a shaft (filled circle icon)</text><text id="desc">Flange of rotational shaft</text></g></g><g id="flangeT"><rect fill="rgb(255,255,255)" fill-opacity="1" height="40.0" rx="0.0" ry="0.0" stroke="rgb(0,127,0)" stroke-width="0.25mm" width="40.0" x="15.0" y="110.0" /><defs /><g display="none" id="info"><text id="name">flangeT</text><text id="type">Modelica.Mechanics.Translational.Interfaces.Flange_b</text><text id="classDesc">One-dimensional translational flange (right, flange axis directed OUT OF cut plane)</text><text id="desc">Flange of translational rod</text></g></g><g id="supportR"><ellipse cx="34.99999999999999" cy="130.0" fill="rgb(95,95,95)" fill-opacity="1" rx="13.333333333333336" ry="13.333333333333321" stroke="rgb(0,0,0)" stroke-width="0.25mm" /><defs /><rect fill="rgb(192,192,192)" fill-opacity="1" height="40.0" rx="0.0" ry="0.0" stroke="rgb(192,192,192)" stroke-width="0.25mm" width="40.0" x="15.0" y="110.0" /><defs /><ellipse cx="34.99999999999999" cy="130.0" fill="rgb(95,95,95)" fill-opacity="1" rx="13.333333333333336" ry="13.333333333333321" stroke="rgb(0,0,0)" stroke-width="0.25mm" /><defs /><g display="none" id="info"><text id="name">supportR</text><text id="type">Modelica.Mechanics.Rotational.Interfaces.Support</text><text id="classDesc">Support/housing flange of a one-dimensional rotational shaft</text><text id="desc">Rotational support/housing of component</text></g></g><g id="supportT"><rect fill="rgb(175,175,175)" fill-opacity="1" height="24.0" rx="0.0" ry="0.0" stroke="rgb(0,127,0)" stroke-width="0.25mm" width="24.0" x="23.0" y="118.0" /><defs /><rect fill="rgb(175,190,175)" fill-opacity="1" height="40.0" rx="0.0" ry="0.0" width="40.0" x="15.0" y="110.0" /><defs /><rect fill="rgb(0,127,0)" fill-opacity="1" height="24.0" rx="0.0" ry="0.0" stroke="rgb(0,127,0)" stroke-width="0.25mm" width="24.0" x="23.0" y="118.0" /><defs /><g display="none" id="info"><text id="name">supportT</text><text id="type">Modelica.Mechanics.Translational.Interfaces.Support</text><text id="classDesc">Support/housing flange of a one-dimensional translational component</text><text id="desc">Translational support/housing of component</text></g></g></svg>