<?xml version="1.0" encoding="utf-8" ?>
<svg baseProfile="full" height="210.0" version="1.1" viewBox="0 0 250.0 210.0" width="250.0" xmlns="http://www.w3.org/2000/svg" xmlns:ev="http://www.w3.org/2001/xml-events" xmlns:xlink="http://www.w3.org/1999/xlink"><defs /><polyline fill="none" fill-opacity="0" points="165.0,83.0 185.0,93.0 205.0,83.0 185.0,93.0 185.0,115.0" stroke="rgb(0,0,255)" stroke-width="0.25mm" /><defs /><ellipse cx="85.0" cy="125.0" fill="rgb(255,255,255)" fill-opacity="1" rx="4.0" ry="4.0" stroke="rgb(0,0,255)" stroke-width="0.25mm" /><defs /><ellipse cx="145.0" cy="105.0" fill="rgb(255,255,255)" fill-opacity="1" rx="4.0" ry="4.0" stroke="rgb(0,0,255)" stroke-width="0.25mm" /><defs /><ellipse cx="145.0" cy="145.0" fill="rgb(255,255,255)" fill-opacity="1" rx="4.0" ry="4.0" stroke="rgb(0,0,255)" stroke-width="0.25mm" /><defs /><polyline fill="none" fill-opacity="0" points="143.0,125.0 89.0,125.0" stroke="rgb(0,0,255)" stroke-width="0.25mm" /><defs /><polyline fill="none" fill-opacity="0" points="185.0,167.0 165.0,135.0 205.0,135.0 185.0,167.0" stroke="rgb(0,0,255)" stroke-width="0.25mm" /><defs /><polyline fill="none" fill-opacity="0" points="145.0,15.0 145.0,17.0 145.0,25.0 225.0,25.0 225.0,27.0 225.0,145.0 205.0,145.0" stroke="rgb(0,0,255)" stroke-width="0.25mm" /><defs /><polyline fill="none" fill-opacity="0" points="149.0,105.0 165.0,105.0" stroke="rgb(0,0,255)" stroke-width="0.25mm" /><defs /><polyline fill="none" fill-opacity="0" points="149.0,145.0 165.0,145.0" stroke="rgb(0,0,255)" stroke-width="0.25mm" /><defs /><polyline fill="none" fill-opacity="0" points="85.0,129.0 85.0,195.0" stroke="rgb(0,0,255)" stroke-width="0.25mm" /><defs /><polyline fill="none" fill-opacity="0" points="45.0,105.0 115.0,105.0 115.0,125.0" stroke="rgb(255,0,255)" stroke-dasharray="4.0 2.0" stroke-width="0.25mm" /><defs /><polyline fill="none" fill-opacity="0" points="205.0,195.0 205.0,145.0" stroke="rgb(0,0,255)" stroke-width="0.25mm" /><defs /><g id="plugSupply"><ellipse cx="25.0" cy="105.0" fill="rgb(0,0,255)" fill-opacity="1" rx="20.0" ry="20.0" stroke="rgb(0,0,255)" stroke-width="0.25mm" /><defs /><g display="none" id="info"><text id="name">plugSupply</text><text id="type">Modelica.Electrical.MultiPhase.Interfaces.PositivePlug</text><text id="classDesc">Positive polyphase electrical plug with m pins</text><text id="desc">To grid</text></g></g><g id="plug_sp"><ellipse cx="25.0" cy="105.0" fill="rgb(0,0,255)" fill-opacity="1" rx="20.0" ry="20.0" stroke="rgb(0,0,255)" stroke-width="0.25mm" /><defs /><g display="none" id="info"><text id="name">plug_sp</text><text id="type">Modelica.Electrical.MultiPhase.Interfaces.PositivePlug</text><text id="classDesc">Positive polyphase electrical plug with m pins</text><text id="desc">To positive stator plug</text></g></g><g id="plug_sn"><ellipse cx="25.0" cy="105.0" fill="rgb(255,255,255)" fill-opacity="1" rx="20.0" ry="20.0" stroke="rgb(0,0,255)" stroke-width="0.25mm" /><defs /><g display="none" id="info"><text id="name">plug_sn</text><text id="type">Modelica.Electrical.MultiPhase.Interfaces.NegativePlug</text><text id="classDesc">Negative polyphase electrical plug with m pins</text><text id="desc">To negative stator plug</text></g></g><g id="control"><polygon fill="rgb(255,0,255)" fill-opacity="1" points="5.0,85.0 45.0,105.0 5.0,125.0 5.0,85.0" stroke="rgb(255,0,255)" stroke-width="0.25mm" /><defs /><g display="none" id="info"><text id="name">control</text><text id="type">Modelica.Blocks.Interfaces.BooleanInput</text><text id="classDesc">'input Boolean' as connector</text><text id="desc" /></g></g></svg>