<?xml version="1.0" encoding="utf-8" ?>
<svg baseProfile="full" height="275.0" version="1.1" viewBox="0 0 310.0 275.0" width="310.0" xmlns="http://www.w3.org/2000/svg" xmlns:ev="http://www.w3.org/2001/xml-events" xmlns:xlink="http://www.w3.org/1999/xlink"><defs /><polyline fill="none" fill-opacity="0" points="255.0,255.0 249.0,255.0 239.0,253.0 231.0,249.0 219.0,241.0 205.0,227.0 197.0,213.0 191.0,195.0 185.0,173.0 185.0,155.0 185.0,137.0 189.0,119.0 201.0,89.0 217.0,71.0 233.0,59.0 245.0,55.0 255.0,55.0" stroke="rgb(255,170,85)" stroke-width="0.25mm" /><defs /><polyline fill="none" fill-opacity="0" points="135.0,95.0 135.0,55.0 55.0,55.0" stroke="rgb(85,170,255)" stroke-width="0.25mm" /><defs /><polyline fill="none" fill-opacity="0" points="135.0,215.0 135.0,255.0 55.0,255.0" stroke="rgb(85,170,255)" stroke-width="0.25mm" /><defs /><path d="M 135.00208477336804 94.99902728217691 C 160.00166759077098 98.00250176280964 185.00125040817392 101.00597624344238 200.00027740061762 108.00806088160161 200.00027740061762 108.00806088160161 214.99930439306132 115.01014551976083 214.99791458921888 125.01014542318308 214.99791458921888 125.01014542318308 214.99652478537644 135.01014532660534 199.9954130871691 143.00806054357952 199.9954130871691 143.00806054357952 184.9943013889618 151.0059757605537 159.99402366963764 153.0025012316321 159.99402366963764 153.0025012316321 134.9937459503135 154.99902670271047 134.9937459503135 154.99902670271047" fill="none" fill-opacity="0" stroke="rgb(85,170,255)" stroke-width="0.25mm" /><defs /><path d="M 135.00208477336804 154.9990272821769 C 160.00166759077098 158.00250176280963 185.00125040817392 161.00597624344238 200.00027740061762 168.0080608816016 200.00027740061762 168.0080608816016 214.99930439306132 175.01014551976084 214.99791458921888 185.0101454231831 214.99791458921888 185.0101454231831 214.99652478537644 195.01014532660537 199.9954130871691 203.00806054357952 199.9954130871691 203.00806054357952 184.9943013889618 211.0059757605537 159.99402366963764 213.0025012316321 159.99402366963764 213.0025012316321 134.9937459503135 214.99902670271047 134.9937459503135 214.99902670271047" fill="none" fill-opacity="0" stroke="rgb(85,170,255)" stroke-width="0.25mm" /><defs /><text dominant-baseline="middle" fill="rgb(0,0,255)" fill-opacity="1" font-family="Verdana" font-size="40.0" text-anchor="middle" x="155.0" y="25.0">name</text><defs /><g id="plug_p"><ellipse cx="35.0" cy="155.0" fill="rgb(85,170,255)" fill-opacity="1" rx="20.0" ry="20.0" stroke="rgb(85,170,255)" stroke-width="0.25mm" /><defs /><g display="none" id="info"><text id="name">plug_p</text><text id="type">Modelica.Electrical.QuasiStationary.MultiPhase.Interfaces.PositivePlug</text><text id="classDesc">Positive quasi-static polyphase plug</text><text id="desc">Positive plug</text></g></g><g id="plug_n"><ellipse cx="35.0" cy="155.0" fill="rgb(255,255,255)" fill-opacity="1" rx="20.0" ry="20.0" stroke="rgb(85,170,255)" stroke-width="0.25mm" /><defs /><g display="none" id="info"><text id="name">plug_n</text><text id="type">Modelica.Electrical.QuasiStationary.MultiPhase.Interfaces.NegativePlug</text><text id="classDesc">Negative quasi-static polyphase plug</text><text id="desc">Negative plug</text></g></g><g id="port_p"><ellipse cx="35.0" cy="155.0" fill="rgb(255,170,85)" fill-opacity="1" rx="20.0" ry="20.0" stroke="rgb(255,170,85)" stroke-width="0.25mm" /><defs /><g display="none" id="info"><text id="name">port_p</text><text id="type">Modelica.Magnetic.QuasiStatic.FundamentalWave.Interfaces.PositiveMagneticPort</text><text id="classDesc">Positive quasi-static magnetic port of fundamental wave machines</text><text id="desc">Positive complex magnetic port</text></g></g><g id="port_n"><ellipse cx="35.0" cy="155.0" fill="rgb(255,255,255)" fill-opacity="1" rx="20.0" ry="20.0" stroke="rgb(255,170,85)" stroke-width="0.25mm" /><defs /><g display="none" id="info"><text id="name">port_n</text><text id="type">Modelica.Magnetic.QuasiStatic.FundamentalWave.Interfaces.NegativeMagneticPort</text><text id="classDesc">Negative quasi-static magnetic port of fundamental wave machines</text><text id="desc">Negative complex magnetic port</text></g></g></svg>