<?xml version="1.0" encoding="utf-8" ?>
<svg baseProfile="full" height="260.0" version="1.1" viewBox="0 0 310.0 260.0" width="310.0" xmlns="http://www.w3.org/2000/svg" xmlns:ev="http://www.w3.org/2001/xml-events" xmlns:xlink="http://www.w3.org/1999/xlink"><defs /><rect fill="rgb(255,255,255)" fill-opacity="1" height="200.0" rx="0.0" ry="0.0" stroke="rgb(0,0,127)" stroke-width="0.25mm" width="200.0" x="55.0" y="55.0" /><defs /><text alignment-baseline="middle" fill="rgb(0,0,255)" fill-opacity="1" font-family="Verdana" font-size="18" text-anchor="middle" x="155.0" y="25.0">name</text><defs /><rect fill="none" fill-opacity="0" height="80.0" rx="0.0" ry="0.0" stroke="rgb(0,0,255)" stroke-width="0.25mm" width="160.0" x="75.0" y="115.0" /><defs /><polygon fill="rgb(0,0,255)" fill-opacity="1" points="125.0,115.0 95.0,105.0 95.0,125.0 125.0,115.0" stroke="rgb(0,0,255)" stroke-width="0.25mm" /><defs /><polygon fill="rgb(0,0,255)" fill-opacity="1" points="215.0,185.0 185.0,195.0 215.0,205.0 215.0,185.0" stroke="rgb(0,0,255)" stroke-width="0.25mm" /><defs /><rect fill="rgb(255,255,255)" fill-opacity="1" height="32.0" rx="0.0" ry="0.0" stroke="rgb(0,0,255)" stroke-width="0.25mm" width="60.0" x="125.0" y="99.0" /><defs /><rect fill="rgb(255,255,255)" fill-opacity="1" height="32.0" rx="0.0" ry="0.0" stroke="rgb(0,0,255)" stroke-width="0.25mm" width="60.0" x="125.0" y="179.0" /><defs /><g id="axisControlBus"><polyline fill="none" fill-opacity="0" points="31.8,154.6 38.2,154.6" stroke="rgb(255,204,51)" stroke-width="0.5mm" /><defs /><rect fill="none" fill-opacity="0" height="1.6" rx="0.0" ry="0.0" stroke="rgb(255,204,51)" stroke-width="0.5mm" width="3.6" x="33.0" y="153.4" /><defs /><path d="M 19.0 145.0 C 35.0 145.0 51.0 145.0 53.0 147.0 53.0 147.0 55.0 149.0 53.0 156.0 53.0 156.0 51.0 163.0 49.0 164.0 49.0 164.0 47.0 165.0 35.0 165.0 35.0 165.0 23.0 165.0 21.0 164.0 21.0 164.0 19.0 163.0 17.0 156.0 17.0 156.0 15.0 149.0 15.0 149.0" fill="rgb(255,215,136)" fill-opacity="1" stroke="rgb(0,0,0)" stroke-width="0.25mm" /><defs /><ellipse cx="25.0" cy="151.0" fill="rgb(0,0,0)" fill-opacity="1" rx="1.0" ry="1.0" stroke="rgb(0,0,0)" stroke-width="0.25mm" /><defs /><ellipse cx="45.0" cy="151.0" fill="rgb(0,0,0)" fill-opacity="1" rx="1.0" ry="1.0" stroke="rgb(0,0,0)" stroke-width="0.25mm" /><defs /><ellipse cx="35.0" cy="159.0" fill="rgb(0,0,0)" fill-opacity="1" rx="1.0" ry="1.0" stroke="rgb(0,0,0)" stroke-width="0.25mm" /><defs /><rect fill="none" fill-opacity="0" height="0.8" rx="0.0" ry="0.0" stroke="rgb(255,215,136)" stroke-width="0.5mm" width="8.0" x="31.0" y="154.2" /><defs /><g display="none" id="info"><text id="name">axisControlBus</text><text id="type">Modelica.Mechanics.MultiBody.Examples.Systems.RobotR3.Components.AxisControlBus</text><text id="classDesc">Data bus for one robot axis</text><text id="desc" /></g></g></svg>