<?xml version="1.0" encoding="utf-8" ?>
<svg baseProfile="full" height="240.0" version="1.1" viewBox="0 0 310.0 240.0" width="310.0" xmlns="http://www.w3.org/2000/svg" xmlns:ev="http://www.w3.org/2001/xml-events" xmlns:xlink="http://www.w3.org/1999/xlink"><defs /><polyline fill="none" fill-opacity="0" points="105.0,235.0 125.0,215.0" stroke="rgb(0,0,0)" stroke-width="0.25mm" /><defs /><polyline fill="none" fill-opacity="0" points="125.0,235.0 145.0,215.0" stroke="rgb(0,0,0)" stroke-width="0.25mm" /><defs /><polyline fill="none" fill-opacity="0" points="145.0,235.0 165.0,215.0" stroke="rgb(0,0,0)" stroke-width="0.25mm" /><defs /><polyline fill="none" fill-opacity="0" points="165.0,235.0 185.0,215.0" stroke="rgb(0,0,0)" stroke-width="0.25mm" /><defs /><polyline fill="none" fill-opacity="0" points="125.0,215.0 185.0,215.0" stroke="rgb(0,0,0)" stroke-width="0.25mm" /><defs /><text alignment-baseline="middle" fill="rgb(0,0,255)" fill-opacity="1" font-family="Verdana" font-size="18" text-anchor="middle" x="155.0" y="25.0">name</text><defs /><text alignment-baseline="middle" fill="rgb(0,0,0)" fill-opacity="1" font-family="Verdana" font-size="18" text-anchor="middle" x="53.5" y="164.5">tau</text><defs /><polygon fill="rgb(0,0,0)" fill-opacity="1" points="241.0,115.0 221.0,57.0 192.0,88.0 241.0,115.0" stroke="rgb(0,0,0)" stroke-width="0.25mm" /><defs /><polyline fill="none" fill-opacity="0" points="155.0,125.0 155.0,216.0" stroke="rgb(0,0,0)" stroke-width="0.25mm" /><defs /><polygon fill="rgb(0,0,0)" fill-opacity="1" points="102.0,169.0 119.0,145.0 105.0,139.0 102.0,169.0" stroke="rgb(0,0,0)" stroke-width="0.25mm" /><defs /><path d="M 71.0 115.0 C 74.0 106.0 77.0 97.0 88.0 83.0 88.0 83.0 99.0 69.0 117.0 62.0 117.0 62.0 135.0 55.0 155.0 55.0 155.0 55.0 175.0 55.0 195.0 65.0 195.0 65.0 215.0 75.0 226.0 91.0 226.0 91.0 237.0 107.0 237.0 107.0" fill="none" fill-opacity="0" stroke="rgb(0,0,0)" stroke-width="0.5mm" /><defs /><path d="M 105.0 155.0 C 111.0 147.0 117.0 139.0 127.0 133.0 127.0 133.0 137.0 127.0 146.0 126.0 146.0 126.0 155.0 125.0 164.0 126.0 164.0 126.0 173.0 127.0 183.0 133.0 183.0 133.0 193.0 139.0 199.0 147.0 199.0 147.0 205.0 155.0 205.0 155.0" fill="none" fill-opacity="0" stroke="rgb(0,0,0)" stroke-width="0.25mm" /><defs /><g id="flange"><ellipse cx="35.0" cy="115.0" fill="rgb(255,255,255)" fill-opacity="1" rx="20.0" ry="20.0" stroke="rgb(0,0,0)" stroke-width="0.25mm" /><defs /><g display="none" id="info"><text id="name">flange</text><text id="type">Modelica.Mechanics.Rotational.Interfaces.Flange_b</text><text id="classDesc">One-dimensional rotational flange of a shaft (non-filled circle icon)</text><text id="desc">Flange of shaft</text></g></g><g id="support"><ellipse cx="35.0" cy="115.0" fill="rgb(95,95,95)" fill-opacity="1" rx="13.3333333333" ry="13.3333333333" stroke="rgb(0,0,0)" stroke-width="0.25mm" /><defs /><rect fill="rgb(192,192,192)" fill-opacity="1" height="40.0" rx="0.0" ry="0.0" stroke="rgb(192,192,192)" stroke-width="0.25mm" width="40.0" x="15.0" y="95.0" /><defs /><ellipse cx="35.0" cy="115.0" fill="rgb(95,95,95)" fill-opacity="1" rx="13.3333333333" ry="13.3333333333" stroke="rgb(0,0,0)" stroke-width="0.25mm" /><defs /><g display="none" id="info"><text id="name">support</text><text id="type">Modelica.Mechanics.Rotational.Interfaces.Support</text><text id="classDesc">Support/housing flange of a one-dimensional rotational shaft</text><text id="desc">Support/housing of component</text></g></g><g id="tau"><polygon fill="rgb(0,0,127)" fill-opacity="1" points="15.0,95.0 55.0,115.0 15.0,135.0" stroke="rgb(0,0,127)" stroke-width="0.25mm" /><defs /><g display="none" id="info"><text id="name">tau</text><text id="type">Modelica.Blocks.Interfaces.RealInput</text><text id="classDesc">'input Real' as connector</text><text id="desc">Accelerating torque acting at flange (= -flange.tau)</text></g></g></svg>