<?xml version="1.0" encoding="utf-8" ?>
<svg baseProfile="full" height="240.0" version="1.1" viewBox="0 0 210.0 240.0" width="210.0" xmlns="http://www.w3.org/2000/svg" xmlns:ev="http://www.w3.org/2001/xml-events" xmlns:xlink="http://www.w3.org/1999/xlink"><defs /><rect fill="url(#0)" height="200.0" rx="25.0" ry="25.0" stroke="rgb(200,200,200)" stroke-width="0.25mm" width="200.0" x="5.0" y="5.0" /><defs><linearGradient id="0" x1="0%" x2="0%" y1="0%" y2="100%"><stop offset="0" stop-color="rgb(200, 200, 200)" stop-opacity="1" /><stop offset="0.3" stop-color="rgb(248, 248, 248)" stop-opacity="1" /><stop offset="0.7" stop-color="rgb(248, 248, 248)" stop-opacity="1" /><stop offset="1" stop-color="rgb(200, 200, 200)" stop-opacity="1" /></linearGradient></defs><rect fill="none" fill-opacity="0" height="200.0" rx="25.0" ry="25.0" stroke="rgb(128,128,128)" stroke-width="0.25mm" width="200.0" x="5.0" y="5.0" /><defs /><ellipse cx="105.0" cy="135.0" fill="none" fill-opacity="0" rx="90.0" ry="90.0" stroke="rgb(0,0,0)" stroke-width="0.25mm" /><defs /><ellipse cx="105.0" cy="135.0" fill="rgb(128,128,128)" fill-opacity="1" rx="20.0" ry="20.0" /><defs /><polyline fill="none" fill-opacity="0" points="105.0,75.0 105.0,45.0" stroke="rgb(0,0,0)" stroke-width="0.25mm" /><defs /><ellipse cx="105.0" cy="135.0" fill="rgb(64,64,64)" fill-opacity="1" rx="10.0" ry="10.0" /><defs /><polygon fill="rgb(64,64,64)" fill-opacity="1" points="99.26586335613328,130.98506825095808 151.295255533852,63.65051286060043 156.62055105911054,61.27538600742788 156.21022980002348,67.0918829312078 110.73413664386672,139.01493174904192" /><defs /><polyline fill="none" fill-opacity="0" points="49.0,166.0 49.0,186.0" stroke="rgb(0,0,0)" stroke-width="0.25mm" /><defs /><polyline fill="none" fill-opacity="0" points="69.0,166.0 69.0,186.0" stroke="rgb(0,0,0)" stroke-width="0.25mm" /><defs /><polyline fill="none" fill-opacity="0" points="89.0,166.0 89.0,186.0" stroke="rgb(0,0,0)" stroke-width="0.25mm" /><defs /><polyline fill="none" fill-opacity="0" points="109.0,166.0 109.0,186.0" stroke="rgb(0,0,0)" stroke-width="0.25mm" /><defs /><polyline fill="none" fill-opacity="0" points="129.0,166.0 129.0,186.0" stroke="rgb(0,0,0)" stroke-width="0.25mm" /><defs /><polyline fill="none" fill-opacity="0" points="149.0,166.0 149.0,186.0" stroke="rgb(0,0,0)" stroke-width="0.25mm" /><defs /></svg>