<?xml version="1.0" encoding="utf-8" ?>
<svg baseProfile="full" height="390.0" version="1.1" viewBox="0 0 310.0 390.0" width="310.0" xmlns="http://www.w3.org/2000/svg" xmlns:ev="http://www.w3.org/2001/xml-events" xmlns:xlink="http://www.w3.org/1999/xlink"><defs /><text dominant-baseline="middle" fill="rgb(0,0,255)" fill-opacity="1" font-family="Verdana" font-size="40.0" text-anchor="middle" x="155.0" y="65.0">name</text><defs /><polyline fill="none" fill-opacity="0" points="65.0,95.0 125.0,95.0" stroke="rgb(85,170,255)" stroke-width="0.25mm" /><defs /><polyline fill="none" fill-opacity="0" points="65.0,295.0 125.0,295.0" stroke="rgb(85,170,255)" stroke-width="0.25mm" /><defs /><polyline fill="none" fill-opacity="0" points="185.0,95.0 245.0,95.0" stroke="rgb(85,170,255)" stroke-width="0.25mm" /><defs /><polyline fill="none" fill-opacity="0" points="185.0,155.0 247.0,155.0" stroke="rgb(85,170,255)" stroke-width="0.25mm" /><defs /><polyline fill="none" fill-opacity="0" points="185.0,235.0 245.0,235.0" stroke="rgb(85,170,255)" stroke-width="0.25mm" /><defs /><polyline fill="none" fill-opacity="0" points="185.0,295.0 245.0,295.0" stroke="rgb(85,170,255)" stroke-width="0.25mm" /><defs /><path d="M 184.99953672668576 115.00023162324354 C 182.49955989276592 114.50011580679288 179.99958305884607 113.99999999034223 177.49969887851597 111.49988417603774 177.49969887851597 111.49988417603774 174.9998146981859 108.99976836173326 175.00000000536542 104.99976836602559 175.00000000536542 104.99976836602559 175.00018531254494 100.99976837031794 177.50030112684942 98.49988418998785 177.50030112684942 98.49988418998785 180.00041694115393 96.00000000965777 182.50044010186866 95.5001158271815 182.50044010186866 95.5001158271815 185.00046326258337 95.00023164470525 185.00046326258337 95.00023164470525" fill="none" fill-opacity="0" stroke="rgb(85,170,255)" stroke-width="0.25mm" /><defs /><path d="M 184.99953672668576 135.00023162324354 C 182.49955989276592 134.50011580679288 179.99958305884607 133.99999999034222 177.49969887851597 131.49988417603774 177.49969887851597 131.49988417603774 174.9998146981859 128.99976836173326 175.00000000536542 124.99976836602559 175.00000000536542 124.99976836602559 175.00018531254494 120.99976837031794 177.50030112684942 118.49988418998785 177.50030112684942 118.49988418998785 180.00041694115393 116.00000000965777 182.50044010186866 115.5001158271815 182.50044010186866 115.5001158271815 185.00046326258337 115.00023164470525 185.00046326258337 115.00023164470525" fill="none" fill-opacity="0" stroke="rgb(85,170,255)" stroke-width="0.25mm" /><defs /><path d="M 184.99953672668576 155.00023162324354 C 182.49955989276592 154.50011580679288 179.99958305884607 153.99999999034222 177.49969887851597 151.49988417603774 177.49969887851597 151.49988417603774 174.9998146981859 148.99976836173326 175.00000000536542 144.9997683660256 175.00000000536542 144.9997683660256 175.00018531254494 140.99976837031795 177.50030112684942 138.49988418998788 177.50030112684942 138.49988418998788 180.00041694115393 136.00000000965778 182.50044010186866 135.5001158271815 182.50044010186866 135.5001158271815 185.00046326258337 135.00023164470525 185.00046326258337 135.00023164470525" fill="none" fill-opacity="0" stroke="rgb(85,170,255)" stroke-width="0.25mm" /><defs /><path d="M 184.99953672668576 255.00023162324354 C 182.49955989276592 254.50011580679288 179.99958305884607 253.99999999034222 177.49969887851597 251.49988417603774 177.49969887851597 251.49988417603774 174.9998146981859 248.99976836173326 175.00000000536542 244.9997683660256 175.00000000536542 244.9997683660256 175.00018531254494 240.99976837031795 177.50030112684942 238.49988418998788 177.50030112684942 238.49988418998788 180.00041694115393 236.00000000965778 182.50044010186866 235.5001158271815 182.50044010186866 235.5001158271815 185.00046326258337 235.00023164470525 185.00046326258337 235.00023164470525" fill="none" fill-opacity="0" stroke="rgb(85,170,255)" stroke-width="0.25mm" /><defs /><path d="M 184.99953672668576 275.0002316232435 C 182.49955989276592 274.5001158067929 179.99958305884607 273.99999999034225 177.49969887851597 271.49988417603777 177.49969887851597 271.49988417603777 174.9998146981859 268.99976836173323 175.00000000536542 264.9997683660256 175.00000000536542 264.9997683660256 175.00018531254494 260.99976837031795 177.50030112684942 258.4998841899878 177.50030112684942 258.4998841899878 180.00041694115393 256.00000000965775 182.50044010186866 255.5001158271815 182.50044010186866 255.5001158271815 185.00046326258337 255.00023164470525 185.00046326258337 255.00023164470525" fill="none" fill-opacity="0" stroke="rgb(85,170,255)" stroke-width="0.25mm" /><defs /><path d="M 184.99953672668576 295.0002316232435 C 182.49955989276592 294.5001158067929 179.99958305884607 293.99999999034225 177.49969887851597 291.49988417603777 177.49969887851597 291.49988417603777 174.9998146981859 288.99976836173323 175.00000000536542 284.9997683660256 175.00000000536542 284.9997683660256 175.00018531254494 280.99976837031795 177.50030112684942 278.4998841899878 177.50030112684942 278.4998841899878 180.00041694115393 276.00000000965775 182.50044010186866 275.5001158271815 182.50044010186866 275.5001158271815 185.00046326258337 275.00023164470525 185.00046326258337 275.00023164470525" fill="none" fill-opacity="0" stroke="rgb(85,170,255)" stroke-width="0.25mm" /><defs /><path d="M 124.99814701406163 114.99907329241361 C 127.49823962472745 114.49953656894462 129.99833223539326 113.99999984547563 132.49879546041615 111.50046315634538 132.49879546041615 111.50046315634538 134.99925868543903 109.00092646721512 134.99999991415314 105.00092653589263 134.99999991415314 105.00092653589263 135.00074114286724 101.00092660457013 132.501204453737 98.50046337954726 132.501204453737 98.50046337954726 130.00166776460674 96.00000015452437 127.50176046111943 95.49953689516275 127.50176046111943 95.49953689516275 125.00185315763213 94.99907363580112 125.00185315763213 94.99907363580112" fill="none" fill-opacity="0" stroke="rgb(85,170,255)" stroke-width="0.25mm" /><defs /><path d="M 124.99814701406163 134.9990732924136 C 127.49823962472745 134.49953656894462 129.99833223539326 133.99999984547563 132.49879546041615 131.50046315634538 132.49879546041615 131.50046315634538 134.99925868543903 129.00092646721512 134.99999991415314 125.00092653589263 134.99999991415314 125.00092653589263 135.00074114286724 121.00092660457013 132.501204453737 118.50046337954726 132.501204453737 118.50046337954726 130.00166776460674 116.00000015452437 127.50176046111943 115.49953689516275 127.50176046111943 115.49953689516275 125.00185315763213 114.99907363580112 125.00185315763213 114.99907363580112" fill="none" fill-opacity="0" stroke="rgb(85,170,255)" stroke-width="0.25mm" /><defs /><path d="M 124.99814701406163 154.9990732924136 C 127.49823962472745 154.49953656894462 129.99833223539326 153.99999984547563 132.49879546041615 151.50046315634538 132.49879546041615 151.50046315634538 134.99925868543903 149.00092646721512 134.99999991415314 145.00092653589263 134.99999991415314 145.00092653589263 135.00074114286724 141.00092660457014 132.501204453737 138.50046337954726 132.501204453737 138.50046337954726 130.00166776460674 136.00000015452437 127.50176046111943 135.49953689516275 127.50176046111943 135.49953689516275 125.00185315763213 134.99907363580112 125.00185315763213 134.99907363580112" fill="none" fill-opacity="0" stroke="rgb(85,170,255)" stroke-width="0.25mm" /><defs /><path d="M 124.99814701406163 174.9990732924136 C 127.49823962472745 174.49953656894462 129.99833223539326 173.99999984547563 132.49879546041615 171.50046315634538 132.49879546041615 171.50046315634538 134.99925868543903 169.00092646721512 134.99999991415314 165.00092653589263 134.99999991415314 165.00092653589263 135.00074114286724 161.00092660457014 132.501204453737 158.50046337954726 132.501204453737 158.50046337954726 130.00166776460674 156.00000015452437 127.50176046111943 155.49953689516275 127.50176046111943 155.49953689516275 125.00185315763213 154.99907363580112 125.00185315763213 154.99907363580112" fill="none" fill-opacity="0" stroke="rgb(85,170,255)" stroke-width="0.25mm" /><defs /><path d="M 124.99814701406163 194.9990732924136 C 127.49823962472745 194.49953656894462 129.99833223539326 193.99999984547563 132.49879546041615 191.50046315634538 132.49879546041615 191.50046315634538 134.99925868543903 189.00092646721512 134.99999991415314 185.00092653589263 134.99999991415314 185.00092653589263 135.00074114286724 181.00092660457014 132.501204453737 178.50046337954726 132.501204453737 178.50046337954726 130.00166776460674 176.00000015452437 127.50176046111943 175.49953689516275 127.50176046111943 175.49953689516275 125.00185315763213 174.99907363580112 125.00185315763213 174.99907363580112" fill="none" fill-opacity="0" stroke="rgb(85,170,255)" stroke-width="0.25mm" /><defs /><path d="M 124.99814701406163 214.9990732924136 C 127.49823962472745 214.49953656894462 129.99833223539326 213.99999984547563 132.49879546041615 211.50046315634538 132.49879546041615 211.50046315634538 134.99925868543903 209.00092646721512 134.99999991415314 205.00092653589263 134.99999991415314 205.00092653589263 135.00074114286724 201.00092660457014 132.501204453737 198.50046337954726 132.501204453737 198.50046337954726 130.00166776460674 196.00000015452437 127.50176046111943 195.49953689516275 127.50176046111943 195.49953689516275 125.00185315763213 194.99907363580112 125.00185315763213 194.99907363580112" fill="none" fill-opacity="0" stroke="rgb(85,170,255)" stroke-width="0.25mm" /><defs /><path d="M 124.99814701406163 234.9990732924136 C 127.49823962472745 234.49953656894462 129.99833223539326 233.99999984547563 132.49879546041615 231.50046315634538 132.49879546041615 231.50046315634538 134.99925868543903 229.00092646721512 134.99999991415314 225.00092653589263 134.99999991415314 225.00092653589263 135.00074114286724 221.00092660457014 132.501204453737 218.50046337954726 132.501204453737 218.50046337954726 130.00166776460674 216.00000015452437 127.50176046111943 215.49953689516275 127.50176046111943 215.49953689516275 125.00185315763213 214.99907363580112 125.00185315763213 214.99907363580112" fill="none" fill-opacity="0" stroke="rgb(85,170,255)" stroke-width="0.25mm" /><defs /><path d="M 124.99814701406163 254.9990732924136 C 127.49823962472745 254.49953656894462 129.99833223539326 253.99999984547563 132.49879546041615 251.50046315634538 132.49879546041615 251.50046315634538 134.99925868543903 249.00092646721512 134.99999991415314 245.00092653589263 134.99999991415314 245.00092653589263 135.00074114286724 241.00092660457014 132.501204453737 238.50046337954726 132.501204453737 238.50046337954726 130.00166776460674 236.00000015452437 127.50176046111943 235.49953689516275 127.50176046111943 235.49953689516275 125.00185315763213 234.99907363580112 125.00185315763213 234.99907363580112" fill="none" fill-opacity="0" stroke="rgb(85,170,255)" stroke-width="0.25mm" /><defs /><path d="M 124.99814701406163 274.99907329241364 C 127.49823962472745 274.4995365689446 129.99833223539326 273.9999998454756 132.49879546041615 271.50046315634535 132.49879546041615 271.50046315634535 134.99925868543903 269.0009264672151 134.99999991415314 265.00092653589263 134.99999991415314 265.00092653589263 135.00074114286724 261.0009266045701 132.501204453737 258.5004633795472 132.501204453737 258.5004633795472 130.00166776460674 256.0000001545244 127.50176046111943 255.49953689516275 127.50176046111943 255.49953689516275 125.00185315763213 254.99907363580112 125.00185315763213 254.99907363580112" fill="none" fill-opacity="0" stroke="rgb(85,170,255)" stroke-width="0.25mm" /><defs /><path d="M 124.99814701406163 294.99907329241364 C 127.49823962472745 294.4995365689446 129.99833223539326 293.9999998454756 132.49879546041615 291.50046315634535 132.49879546041615 291.50046315634535 134.99925868543903 289.0009264672151 134.99999991415314 285.00092653589263 134.99999991415314 285.00092653589263 135.00074114286724 281.0009266045701 132.501204453737 278.5004633795472 132.501204453737 278.5004633795472 130.00166776460674 276.0000001545244 127.50176046111943 275.49953689516275 127.50176046111943 275.49953689516275 125.00185315763213 274.9990736358011 125.00185315763213 274.9990736358011" fill="none" fill-opacity="0" stroke="rgb(85,170,255)" stroke-width="0.25mm" /><defs /><text dominant-baseline="middle" fill="rgb(0,0,0)" fill-opacity="1" font-family="Verdana" font-size="40.0" text-anchor="middle" x="155.0" y="325.0">m=m</text><defs /><g id="plug_p1"><ellipse cx="35.0" cy="195.0" fill="rgb(85,170,255)" fill-opacity="1" rx="20.0" ry="20.0" stroke="rgb(85,170,255)" stroke-width="0.25mm" /><defs /><g display="none" id="info"><text id="name">plug_p1</text><text id="type">Modelica.Electrical.QuasiStationary.MultiPhase.Interfaces.PositivePlug</text><text id="classDesc">Positive quasi-static polyphase plug</text><text id="desc" /></g></g><g id="plug_n1"><ellipse cx="35.0" cy="195.0" fill="rgb(255,255,255)" fill-opacity="1" rx="20.0" ry="20.0" stroke="rgb(85,170,255)" stroke-width="0.25mm" /><defs /><g display="none" id="info"><text id="name">plug_n1</text><text id="type">Modelica.Electrical.QuasiStationary.MultiPhase.Interfaces.NegativePlug</text><text id="classDesc">Negative quasi-static polyphase plug</text><text id="desc" /></g></g><g id="plug_p2"><ellipse cx="35.0" cy="195.0" fill="rgb(85,170,255)" fill-opacity="1" rx="20.0" ry="20.0" stroke="rgb(85,170,255)" stroke-width="0.25mm" /><defs /><g display="none" id="info"><text id="name">plug_p2</text><text id="type">Modelica.Electrical.QuasiStationary.MultiPhase.Interfaces.PositivePlug</text><text id="classDesc">Positive quasi-static polyphase plug</text><text id="desc" /></g></g><g id="plug_n2"><ellipse cx="35.0" cy="195.0" fill="rgb(255,255,255)" fill-opacity="1" rx="20.0" ry="20.0" stroke="rgb(85,170,255)" stroke-width="0.25mm" /><defs /><g display="none" id="info"><text id="name">plug_n2</text><text id="type">Modelica.Electrical.QuasiStationary.MultiPhase.Interfaces.NegativePlug</text><text id="classDesc">Negative quasi-static polyphase plug</text><text id="desc" /></g></g><g id="plug_p3"><ellipse cx="35.0" cy="195.0" fill="rgb(85,170,255)" fill-opacity="1" rx="20.0" ry="20.0" stroke="rgb(85,170,255)" stroke-width="0.25mm" /><defs /><g display="none" id="info"><text id="name">plug_p3</text><text id="type">Modelica.Electrical.QuasiStationary.MultiPhase.Interfaces.PositivePlug</text><text id="classDesc">Positive quasi-static polyphase plug</text><text id="desc" /></g></g><g id="plug_n3"><ellipse cx="35.0" cy="195.0" fill="rgb(255,255,255)" fill-opacity="1" rx="20.0" ry="20.0" stroke="rgb(85,170,255)" stroke-width="0.25mm" /><defs /><g display="none" id="info"><text id="name">plug_n3</text><text id="type">Modelica.Electrical.QuasiStationary.MultiPhase.Interfaces.NegativePlug</text><text id="classDesc">Negative quasi-static polyphase plug</text><text id="desc" /></g></g></svg>