<?xml version="1.0" encoding="utf-8" ?>
<svg baseProfile="full" height="220.0" version="1.1" viewBox="0 0 310.0 220.0" width="310.0" xmlns="http://www.w3.org/2000/svg" xmlns:ev="http://www.w3.org/2001/xml-events" xmlns:xlink="http://www.w3.org/1999/xlink"><defs /><rect fill="rgb(215,215,215)" fill-opacity="1" height="100.0" rx="0.0" ry="0.0" stroke="rgb(0,0,0)" stroke-width="0.25mm" width="180.0" x="65.0" y="55.0" /><defs /><polygon fill="rgb(255,0,0)" fill-opacity="1" points="105.0,101.0 90.0,101.0 90.0,90.0 65.0,105.0 90.0,120.0 90.0,109.0 105.0,109.0 105.0,101.0" stroke="rgb(255,0,0)" stroke-width="0.25mm" /><defs /><text dominant-baseline="middle" fill="rgb(128,128,128)" fill-opacity="1" font-family="Verdana" font-size="25.0" text-anchor="middle" x="38.0" y="73.5">a</text><defs /><text dominant-baseline="middle" fill="rgb(128,128,128)" fill-opacity="1" font-family="Verdana" font-size="25.0" text-anchor="middle" x="270.0" y="77.5">b</text><defs /><polygon fill="rgb(255,0,0)" fill-opacity="1" points="205.0,101.0 225.0,101.0 220.0,101.0 220.0,90.0 245.0,105.0 220.0,120.0 220.0,109.0 205.0,109.0 205.0,101.0" stroke="rgb(255,0,0)" stroke-width="0.25mm" /><defs /><text dominant-baseline="middle" fill="rgb(0,0,255)" fill-opacity="1" font-family="Verdana" font-size="40.0" text-anchor="middle" x="155.0" y="25.0">name</text><defs /><polyline fill="none" fill-opacity="0" points="105.0,205.0 185.0,205.0" stroke="rgb(0,0,0)" stroke-width="0.25mm" /><defs /><polygon fill="rgb(128,128,128)" fill-opacity="1" points="215.0,205.0 185.0,195.0 185.0,215.0 215.0,205.0" stroke="rgb(128,128,128)" stroke-width="0.25mm" /><defs /><path d="M 125.0 127.0 C 133.01364999999998 130.58985 141.0273 134.1797 153.01364999999998 134.58985 153.01364999999998 134.58985 165.0 135.0 187.0 136.0 187.0 136.0 209.0 137.0 217.0 136.0 217.0 136.0 225.0 135.0 225.0 133.0 225.0 133.0 225.0 131.0 214.0 129.0 214.0 129.0 203.0 127.0 186.0 124.0 186.0 124.0 169.0 121.0 160.0 117.0 160.0 117.0 151.0 113.0 144.0 107.0 144.0 107.0 137.0 101.0 134.0 92.0 134.0 92.0 131.0 83.0 129.0 75.0 129.0 75.0 127.0 67.0 126.0 72.0 126.0 72.0 125.0 77.0 124.0 87.0 124.0 87.0 123.0 97.0 123.0 103.0 123.0 103.0 123.0 109.0 124.0 118.0 124.0 118.0 125.0 127.0 125.0 127.0" fill="none" fill-opacity="0" stroke="rgb(95,95,95)" stroke-width="0.25mm" /><defs /><polyline fill="none" fill-opacity="0" points="109.0,145.0 231.0,145.0" stroke="rgb(135,135,135)" stroke-width="0.25mm" /><defs /><polyline fill="none" fill-opacity="0" points="115.0,151.0 115.0,65.0" stroke="rgb(135,135,135)" stroke-width="0.25mm" /><defs /><text dominant-baseline="middle" fill="rgb(0,0,0)" fill-opacity="1" font-family="Verdana" font-size="30.0" text-anchor="middle" x="155.0" y="180.0">L=L</text><defs /><g id="flange_a"><rect fill="rgb(0,127,0)" fill-opacity="1" height="40.0" rx="0.0" ry="0.0" stroke="rgb(0,127,0)" stroke-width="0.25mm" width="40.0" x="15.0" y="85.0" /><defs /><g display="none" id="info"><text id="name">flange_a</text><text id="type">Modelica.Mechanics.Translational.Interfaces.Flange_a</text><text id="classDesc">One-dimensional translational flange (left, flange axis directed INTO cut plane)</text><text id="desc">Left flange of compliant 1-dim. translational component</text></g></g><g id="flange_b"><rect fill="rgb(255,255,255)" fill-opacity="1" height="40.0" rx="0.0" ry="0.0" stroke="rgb(0,127,0)" stroke-width="0.25mm" width="40.0" x="15.0" y="85.0" /><defs /><g display="none" id="info"><text id="name">flange_b</text><text id="type">Modelica.Mechanics.Translational.Interfaces.Flange_b</text><text id="classDesc">One-dimensional translational flange (right, flange axis directed OUT OF cut plane)</text><text id="desc">Right flange of compliant 1-dim. translational component</text></g></g></svg>