<?xml version="1.0" encoding="utf-8" ?>
<svg baseProfile="full" height="304.0" version="1.1" viewBox="0 0 310.0 304.0" width="310.0" xmlns="http://www.w3.org/2000/svg" xmlns:ev="http://www.w3.org/2001/xml-events" xmlns:xlink="http://www.w3.org/1999/xlink"><defs /><text dominant-baseline="middle" fill="rgb(85,170,255)" fill-opacity="1" font-family="Verdana" font-size="40.0" text-anchor="middle" x="75.0" y="154.0">1</text><defs /><text dominant-baseline="middle" fill="rgb(85,170,255)" fill-opacity="1" font-family="Verdana" font-size="40.0" text-anchor="middle" x="235.0" y="154.0">2</text><defs /><polyline fill="none" fill-opacity="0" points="115.0,94.0 115.0,54.0 65.0,54.0" stroke="rgb(85,170,255)" stroke-width="0.25mm" /><defs /><polyline fill="none" fill-opacity="0" points="195.0,94.0 195.0,54.0 245.0,54.0" stroke="rgb(85,170,255)" stroke-width="0.25mm" /><defs /><polyline fill="none" fill-opacity="0" points="115.0,214.0 115.0,254.0 65.0,254.0" stroke="rgb(85,170,255)" stroke-width="0.25mm" /><defs /><polyline fill="none" fill-opacity="0" points="195.0,214.0 195.0,254.0 245.0,254.0" stroke="rgb(85,170,255)" stroke-width="0.25mm" /><defs /><path d="M 115.002084773 93.9990272822 C 118.002015254 94.4994442185 121.001945735 94.9998611548 125.001459265 98.5004170426 125.001459265 98.5004170426 129.000972795 102.00097293 128.999999932 109.000972863 128.999999932 109.000972863 128.99902707 116.000972795 124.998540677 119.50041684 124.998540677 119.50041684 120.998054284 122.999860884 117.997984823 123.499443938 117.997984823 123.499443938 114.997915362 123.999026992 114.997915362 123.999026992" fill="none" fill-opacity="0" stroke="rgb(85,170,255)" stroke-width="0.25mm" /><defs /><path d="M 115.002084773 123.999027282 C 118.002015254 124.499444219 121.001945735 124.999861155 125.001459265 128.500417043 125.001459265 128.500417043 129.000972795 132.00097293 128.999999932 139.000972863 128.999999932 139.000972863 128.99902707 146.000972795 124.998540677 149.50041684 124.998540677 149.50041684 120.998054284 152.999860884 117.997984823 153.499443938 117.997984823 153.499443938 114.997915362 153.999026992 114.997915362 153.999026992" fill="none" fill-opacity="0" stroke="rgb(85,170,255)" stroke-width="0.25mm" /><defs /><path d="M 115.002084773 153.999027282 C 118.002015254 154.499444219 121.001945735 154.999861155 125.001459265 158.500417043 125.001459265 158.500417043 129.000972795 162.00097293 128.999999932 169.000972863 128.999999932 169.000972863 128.99902707 176.000972795 124.998540677 179.50041684 124.998540677 179.50041684 120.998054284 182.999860884 117.997984823 183.499443938 117.997984823 183.499443938 114.997915362 183.999026992 114.997915362 183.999026992" fill="none" fill-opacity="0" stroke="rgb(85,170,255)" stroke-width="0.25mm" /><defs /><path d="M 115.002084773 183.999027282 C 118.002015254 184.499444219 121.001945735 184.999861155 125.001459265 188.500417043 125.001459265 188.500417043 129.000972795 192.00097293 128.999999932 199.000972863 128.999999932 199.000972863 128.99902707 206.000972795 124.998540677 209.50041684 124.998540677 209.50041684 120.998054284 212.999860884 117.997984823 213.499443938 117.997984823 213.499443938 114.997915362 213.999026992 114.997915362 213.999026992" fill="none" fill-opacity="0" stroke="rgb(85,170,255)" stroke-width="0.25mm" /><defs /><path d="M 194.999305091 124.000324271 C 191.999328257 123.500185292 188.999351424 123.000046312 184.999513572 119.499861008 184.999513572 119.499861008 180.99967572 115.999675705 181.000000008 108.999675712 181.000000008 108.999675712 181.000324295 101.99967572 185.000486435 98.4998610309 185.000486435 98.4998610309 189.000648574 95.0000463418 192.000671734 94.5001853227 192.000671734 94.5001853227 195.000694894 94.0003243037 195.000694894 94.0003243037" fill="none" fill-opacity="0" stroke="rgb(85,170,255)" stroke-width="0.25mm" /><defs /><path d="M 194.999305091 154.000324271 C 191.999328257 153.500185292 188.999351424 153.000046312 184.999513572 149.499861008 184.999513572 149.499861008 180.99967572 145.999675705 181.000000008 138.999675712 181.000000008 138.999675712 181.000324295 131.99967572 185.000486435 128.499861031 185.000486435 128.499861031 189.000648574 125.000046342 192.000671734 124.500185323 192.000671734 124.500185323 195.000694894 124.000324304 195.000694894 124.000324304" fill="none" fill-opacity="0" stroke="rgb(85,170,255)" stroke-width="0.25mm" /><defs /><path d="M 194.999305091 184.000324271 C 191.999328257 183.500185292 188.999351424 183.000046312 184.999513572 179.499861008 184.999513572 179.499861008 180.99967572 175.999675705 181.000000008 168.999675712 181.000000008 168.999675712 181.000324295 161.99967572 185.000486435 158.499861031 185.000486435 158.499861031 189.000648574 155.000046342 192.000671734 154.500185323 192.000671734 154.500185323 195.000694894 154.000324304 195.000694894 154.000324304" fill="none" fill-opacity="0" stroke="rgb(85,170,255)" stroke-width="0.25mm" /><defs /><path d="M 194.999305091 214.000324271 C 191.999328257 213.500185292 188.999351424 213.000046312 184.999513572 209.499861008 184.999513572 209.499861008 180.99967572 205.999675705 181.000000008 198.999675712 181.000000008 198.999675712 181.000324295 191.99967572 185.000486435 188.499861031 185.000486435 188.499861031 189.000648574 185.000046342 192.000671734 184.500185323 192.000671734 184.500185323 195.000694894 184.000324304 195.000694894 184.000324304" fill="none" fill-opacity="0" stroke="rgb(85,170,255)" stroke-width="0.25mm" /><defs /><text dominant-baseline="middle" fill="rgb(0,0,255)" fill-opacity="1" font-family="Verdana" font-size="40.0" text-anchor="middle" x="155.0" y="25.0">name</text><defs /><g id="pin_p1"><rect fill="rgb(85,170,255)" fill-opacity="1" height="40.0" rx="0.0" ry="0.0" stroke="rgb(85,170,255)" stroke-width="0.25mm" width="40.0" x="15.0" y="134.0" /><defs /><g display="none" id="info"><text id="name">pin_p1</text><text id="type">Modelica.Electrical.QuasiStationary.SinglePhase.Interfaces.PositivePin</text><text id="classDesc">Positive quasi-static single-phase pin</text><text id="desc">Primary positive pin</text></g></g><g id="pin_p2"><rect fill="rgb(85,170,255)" fill-opacity="1" height="40.0" rx="0.0" ry="0.0" stroke="rgb(85,170,255)" stroke-width="0.25mm" width="40.0" x="15.0" y="134.0" /><defs /><g display="none" id="info"><text id="name">pin_p2</text><text id="type">Modelica.Electrical.QuasiStationary.SinglePhase.Interfaces.PositivePin</text><text id="classDesc">Positive quasi-static single-phase pin</text><text id="desc">Secondary positive pin</text></g></g><g id="pin_n1"><rect fill="rgb(255,255,255)" fill-opacity="1" height="40.0" rx="0.0" ry="0.0" stroke="rgb(85,170,255)" stroke-width="0.25mm" width="40.0" x="15.0" y="134.0" /><defs /><g display="none" id="info"><text id="name">pin_n1</text><text id="type">Modelica.Electrical.QuasiStationary.SinglePhase.Interfaces.NegativePin</text><text id="classDesc">Negative quasi-static single-phase pin</text><text id="desc">Primary negative pin</text></g></g><g id="pin_n2"><rect fill="rgb(255,255,255)" fill-opacity="1" height="40.0" rx="0.0" ry="0.0" stroke="rgb(85,170,255)" stroke-width="0.25mm" width="40.0" x="15.0" y="134.0" /><defs /><g display="none" id="info"><text id="name">pin_n2</text><text id="type">Modelica.Electrical.QuasiStationary.SinglePhase.Interfaces.NegativePin</text><text id="classDesc">Negative quasi-static single-phase pin</text><text id="desc">Secondary negative pin</text></g></g></svg>