<?xml version="1.0" encoding="utf-8" ?>
<svg baseProfile="full" height="305.0" version="1.1" viewBox="0 0 310.0 305.0" width="310.0" xmlns="http://www.w3.org/2000/svg" xmlns:ev="http://www.w3.org/2001/xml-events" xmlns:xlink="http://www.w3.org/1999/xlink"><defs /><text dominant-baseline="middle" fill="rgb(0,0,255)" fill-opacity="1" font-family="Verdana" font-size="40.0" text-anchor="middle" x="155.0" y="25.0">name</text><defs /><text dominant-baseline="middle" fill="rgb(0,0,255)" fill-opacity="1" font-family="Verdana" font-size="40.0" text-anchor="middle" x="155.0" y="235.0">M</text><defs /><polyline fill="none" fill-opacity="0" points="115.0,95.0 115.0,55.0 65.0,55.0" stroke="rgb(0,0,255)" stroke-width="0.25mm" /><defs /><polyline fill="none" fill-opacity="0" points="195.0,95.0 195.0,55.0 245.0,55.0" stroke="rgb(0,0,255)" stroke-width="0.25mm" /><defs /><polyline fill="none" fill-opacity="0" points="115.0,215.0 115.0,255.0 65.0,255.0" stroke="rgb(0,0,255)" stroke-width="0.25mm" /><defs /><polyline fill="none" fill-opacity="0" points="195.0,215.0 195.0,255.0 245.0,255.0" stroke="rgb(0,0,255)" stroke-width="0.25mm" /><defs /><path d="M 115.002084773 94.9990272822 C 118.002015254 95.4994442185 121.001945735 95.9998611548 125.001459265 99.5004170426 125.001459265 99.5004170426 129.000972795 103.00097293 128.999999932 110.000972863 128.999999932 110.000972863 128.99902707 117.000972795 124.998540677 120.50041684 124.998540677 120.50041684 120.998054284 123.999860884 117.997984823 124.499443938 117.997984823 124.499443938 114.997915362 124.999026992 114.997915362 124.999026992" fill="none" fill-opacity="0" stroke="rgb(0,0,255)" stroke-width="0.25mm" /><defs /><path d="M 115.002084773 124.999027282 C 118.002015254 125.499444219 121.001945735 125.999861155 125.001459265 129.500417043 125.001459265 129.500417043 129.000972795 133.00097293 128.999999932 140.000972863 128.999999932 140.000972863 128.99902707 147.000972795 124.998540677 150.50041684 124.998540677 150.50041684 120.998054284 153.999860884 117.997984823 154.499443938 117.997984823 154.499443938 114.997915362 154.999026992 114.997915362 154.999026992" fill="none" fill-opacity="0" stroke="rgb(0,0,255)" stroke-width="0.25mm" /><defs /><path d="M 115.002084773 154.999027282 C 118.002015254 155.499444219 121.001945735 155.999861155 125.001459265 159.500417043 125.001459265 159.500417043 129.000972795 163.00097293 128.999999932 170.000972863 128.999999932 170.000972863 128.99902707 177.000972795 124.998540677 180.50041684 124.998540677 180.50041684 120.998054284 183.999860884 117.997984823 184.499443938 117.997984823 184.499443938 114.997915362 184.999026992 114.997915362 184.999026992" fill="none" fill-opacity="0" stroke="rgb(0,0,255)" stroke-width="0.25mm" /><defs /><path d="M 115.002084773 184.999027282 C 118.002015254 185.499444219 121.001945735 185.999861155 125.001459265 189.500417043 125.001459265 189.500417043 129.000972795 193.00097293 128.999999932 200.000972863 128.999999932 200.000972863 128.99902707 207.000972795 124.998540677 210.50041684 124.998540677 210.50041684 120.998054284 213.999860884 117.997984823 214.499443938 117.997984823 214.499443938 114.997915362 214.999026992 114.997915362 214.999026992" fill="none" fill-opacity="0" stroke="rgb(0,0,255)" stroke-width="0.25mm" /><defs /><path d="M 194.999305091 125.000324271 C 191.999328257 124.500185292 188.999351424 124.000046312 184.999513572 120.499861008 184.999513572 120.499861008 180.99967572 116.999675705 181.000000008 109.999675712 181.000000008 109.999675712 181.000324295 102.99967572 185.000486435 99.4998610309 185.000486435 99.4998610309 189.000648574 96.0000463418 192.000671734 95.5001853227 192.000671734 95.5001853227 195.000694894 95.0003243037 195.000694894 95.0003243037" fill="none" fill-opacity="0" stroke="rgb(0,0,255)" stroke-width="0.25mm" /><defs /><path d="M 194.999305091 155.000324271 C 191.999328257 154.500185292 188.999351424 154.000046312 184.999513572 150.499861008 184.999513572 150.499861008 180.99967572 146.999675705 181.000000008 139.999675712 181.000000008 139.999675712 181.000324295 132.99967572 185.000486435 129.499861031 185.000486435 129.499861031 189.000648574 126.000046342 192.000671734 125.500185323 192.000671734 125.500185323 195.000694894 125.000324304 195.000694894 125.000324304" fill="none" fill-opacity="0" stroke="rgb(0,0,255)" stroke-width="0.25mm" /><defs /><path d="M 194.999305091 185.000324271 C 191.999328257 184.500185292 188.999351424 184.000046312 184.999513572 180.499861008 184.999513572 180.499861008 180.99967572 176.999675705 181.000000008 169.999675712 181.000000008 169.999675712 181.000324295 162.99967572 185.000486435 159.499861031 185.000486435 159.499861031 189.000648574 156.000046342 192.000671734 155.500185323 192.000671734 155.500185323 195.000694894 155.000324304 195.000694894 155.000324304" fill="none" fill-opacity="0" stroke="rgb(0,0,255)" stroke-width="0.25mm" /><defs /><path d="M 194.999305091 215.000324271 C 191.999328257 214.500185292 188.999351424 214.000046312 184.999513572 210.499861008 184.999513572 210.499861008 180.99967572 206.999675705 181.000000008 199.999675712 181.000000008 199.999675712 181.000324295 192.99967572 185.000486435 189.499861031 185.000486435 189.499861031 189.000648574 186.000046342 192.000671734 185.500185323 192.000671734 185.500185323 195.000694894 185.000324304 195.000694894 185.000324304" fill="none" fill-opacity="0" stroke="rgb(0,0,255)" stroke-width="0.25mm" /><defs /><text dominant-baseline="middle" fill="rgb(0,0,255)" fill-opacity="1" font-family="Verdana" font-size="40.0" text-anchor="middle" x="76.0" y="155.0">L1</text><defs /><text dominant-baseline="middle" fill="rgb(0,0,255)" fill-opacity="1" font-family="Verdana" font-size="40.0" text-anchor="middle" x="235.0" y="155.0">L2</text><defs /><g id="p1"><rect fill="rgb(0,0,255)" fill-opacity="1" height="40.0" rx="0.0" ry="0.0" stroke="rgb(0,0,255)" stroke-width="0.25mm" width="40.0" x="15.0" y="135.0" /><defs /><g display="none" id="info"><text id="name">p1</text><text id="type">Modelica.Electrical.Analog.Interfaces.PositivePin</text><text id="classDesc">Positive pin of an electrical component</text><text id="desc">Positive electrical pin of port 1</text></g></g><g id="n1"><rect fill="rgb(255,255,255)" fill-opacity="1" height="40.0" rx="0.0" ry="0.0" stroke="rgb(0,0,255)" stroke-width="0.25mm" width="40.0" x="15.0" y="135.0" /><defs /><g display="none" id="info"><text id="name">n1</text><text id="type">Modelica.Electrical.Analog.Interfaces.NegativePin</text><text id="classDesc">Negative pin of an electrical component</text><text id="desc">Negative electrical pin of port 1</text></g></g><g id="p2"><rect fill="rgb(0,0,255)" fill-opacity="1" height="40.0" rx="0.0" ry="0.0" stroke="rgb(0,0,255)" stroke-width="0.25mm" width="40.0" x="15.0" y="135.0" /><defs /><g display="none" id="info"><text id="name">p2</text><text id="type">Modelica.Electrical.Analog.Interfaces.PositivePin</text><text id="classDesc">Positive pin of an electrical component</text><text id="desc">Positive electrical pin of port 2</text></g></g><g id="n2"><rect fill="rgb(255,255,255)" fill-opacity="1" height="40.0" rx="0.0" ry="0.0" stroke="rgb(0,0,255)" stroke-width="0.25mm" width="40.0" x="15.0" y="135.0" /><defs /><g display="none" id="info"><text id="name">n2</text><text id="type">Modelica.Electrical.Analog.Interfaces.NegativePin</text><text id="classDesc">Negative pin of an electrical component</text><text id="desc">Negative electrical pin of port 2</text></g></g></svg>