<?xml version="1.0" encoding="utf-8" ?>
<svg baseProfile="full" height="308.0" version="1.1" viewBox="0 0 345.0 308.0" width="345.0" xmlns="http://www.w3.org/2000/svg" xmlns:ev="http://www.w3.org/2001/xml-events" xmlns:xlink="http://www.w3.org/1999/xlink"><defs /><polyline fill="none" fill-opacity="0" points="250.0,95.0 290.0,95.0" stroke="rgb(0,0,255)" stroke-width="0.25mm" /><defs /><polyline fill="none" fill-opacity="0" points="260.0,115.0 280.0,115.0" stroke="rgb(0,0,255)" stroke-width="0.25mm" /><defs /><polyline fill="none" fill-opacity="0" points="256.0,105.0 284.0,105.0" stroke="rgb(0,0,255)" stroke-width="0.25mm" /><defs /><polyline fill="none" fill-opacity="0" points="110.0,155.0 110.0,175.0" stroke="rgb(0,0,255)" stroke-width="0.25mm" /><defs /><rect fill="none" fill-opacity="0" height="20.0" rx="0.0" ry="0.0" stroke="rgb(0,0,255)" stroke-width="0.25mm" width="40.0" x="210.0" y="65.0" /><defs /><polyline fill="none" fill-opacity="0" points="250.0,75.0 270.0,75.0 270.0,95.0" stroke="rgb(0,0,255)" stroke-width="0.25mm" /><defs /><polyline fill="none" fill-opacity="0" points="90.0,65.0 90.0,75.0 130.0,75.0" stroke="rgb(0,0,255)" stroke-width="0.25mm" /><defs /><polyline fill="none" fill-opacity="0" points="90.0,65.0 90.0,75.0 110.0,75.0 110.0,95.0" stroke="rgb(0,0,255)" stroke-width="0.25mm" /><defs /><polyline fill="none" fill-opacity="0" points="190.0,75.0 210.0,75.0" stroke="rgb(0,0,255)" stroke-width="0.25mm" /><defs /><rect fill="none" fill-opacity="0" height="40.0" rx="0.0" ry="0.0" stroke="rgb(0,0,255)" stroke-width="0.25mm" width="20.0" x="100.0" y="175.0" /><defs /><polyline fill="none" fill-opacity="0" points="90.0,235.0 130.0,235.0" stroke="rgb(0,0,255)" stroke-width="0.25mm" /><defs /><polyline fill="none" fill-opacity="0" points="100.0,255.0 120.0,255.0" stroke="rgb(0,0,255)" stroke-width="0.25mm" /><defs /><polyline fill="none" fill-opacity="0" points="96.0,245.0 124.0,245.0" stroke="rgb(0,0,255)" stroke-width="0.25mm" /><defs /><polyline fill="none" fill-opacity="0" points="110.0,215.0 110.0,235.0" stroke="rgb(0,0,255)" stroke-width="0.25mm" /><defs /><path d="M 130.0 75.0 C 130.5 72.5 131.0 70.0 133.5 67.5 133.5 67.5 136.0 65.0 140.0 65.0 140.0 65.0 144.0 65.0 146.5 67.5 146.5 67.5 149.0 70.0 149.5 72.5 149.5 72.5 150.0 75.0 150.0 75.0" fill="none" fill-opacity="0" stroke="rgb(0,0,255)" stroke-width="0.25mm" /><defs /><path d="M 150.0 75.0 C 150.5 72.5 151.0 70.0 153.5 67.5 153.5 67.5 156.0 65.0 160.0 65.0 160.0 65.0 164.0 65.0 166.5 67.5 166.5 67.5 169.0 70.0 169.5 72.5 169.5 72.5 170.0 75.0 170.0 75.0" fill="none" fill-opacity="0" stroke="rgb(0,0,255)" stroke-width="0.25mm" /><defs /><path d="M 170.0 75.0 C 170.5 72.5 171.0 70.0 173.5 67.5 173.5 67.5 176.0 65.0 180.0 65.0 180.0 65.0 184.0 65.0 186.5 67.5 186.5 67.5 189.0 70.0 189.5 72.5 189.5 72.5 190.0 75.0 190.0 75.0" fill="none" fill-opacity="0" stroke="rgb(0,0,255)" stroke-width="0.25mm" /><defs /><path d="M 109.99953672668578 115.00023162324354 C 107.49955989276593 114.50011580679288 104.99958305884608 113.99999999034222 102.499698878516 111.49988417603774 102.499698878516 111.49988417603774 99.99981469818592 108.99976836173326 100.00000000536542 104.9997683660256 100.00000000536542 104.9997683660256 100.00018531254494 100.99976837031795 102.50030112684942 98.49988418998787 102.50030112684942 98.49988418998787 105.00041694115392 96.00000000965778 107.50044010186863 95.50011582718152 107.50044010186863 95.50011582718152 110.00046326258337 95.00023164470525 110.00046326258337 95.00023164470525" fill="none" fill-opacity="0" stroke="rgb(0,0,255)" stroke-width="0.25mm" /><defs /><path d="M 109.99953672668578 135.00023162324354 C 107.49955989276593 134.50011580679288 104.99958305884608 133.99999999034222 102.499698878516 131.49988417603774 102.499698878516 131.49988417603774 99.99981469818592 128.99976836173326 100.00000000536542 124.9997683660256 100.00000000536542 124.9997683660256 100.00018531254494 120.99976837031795 102.50030112684942 118.49988418998787 102.50030112684942 118.49988418998787 105.00041694115392 116.00000000965778 107.50044010186863 115.50011582718152 107.50044010186863 115.50011582718152 110.00046326258337 115.00023164470525 110.00046326258337 115.00023164470525" fill="none" fill-opacity="0" stroke="rgb(0,0,255)" stroke-width="0.25mm" /><defs /><path d="M 109.99953672668578 155.00023162324354 C 107.49955989276593 154.50011580679288 104.99958305884608 153.99999999034222 102.499698878516 151.49988417603774 102.499698878516 151.49988417603774 99.99981469818592 148.99976836173326 100.00000000536542 144.9997683660256 100.00000000536542 144.9997683660256 100.00018531254494 140.99976837031795 102.50030112684942 138.49988418998788 102.50030112684942 138.49988418998788 105.00041694115392 136.00000000965778 107.50044010186863 135.5001158271815 107.50044010186863 135.5001158271815 110.00046326258337 135.00023164470525 110.00046326258337 135.00023164470525" fill="none" fill-opacity="0" stroke="rgb(0,0,255)" stroke-width="0.25mm" /><defs /><text dominant-baseline="middle" fill="rgb(0,0,255)" fill-opacity="1" font-family="Verdana" font-size="38.0" text-anchor="middle" x="190.0" y="284.0">name</text><defs /><g id="heatPort"><rect fill="rgb(191,0,0)" fill-opacity="1" height="40.0" rx="0.0" ry="0.0" stroke="rgb(191,0,0)" stroke-width="0.25mm" width="40.0" x="50.0" y="135.0" /><defs /><g display="none" id="info"><text id="name">heatPort</text><text id="type">Modelica.Thermal.HeatTransfer.Interfaces.HeatPort_a</text><text id="classDesc">Thermal port for 1-dim. heat transfer (filled rectangular icon)</text><text id="desc">Conditional heat port</text></g></g><g id="i"><polygon fill="rgb(255,255,255)" fill-opacity="1" points="50.0,135.0 90.0,155.0 50.0,175.0" stroke="rgb(0,0,127)" stroke-width="0.25mm" /><defs /><g display="none" id="info"><text id="name">i</text><text id="type">Modelica.Blocks.Interfaces.RealOutput</text><text id="classDesc">'output Real' as connector</text><text id="desc" /></g></g><g id="lossPower"><polygon fill="rgb(255,255,255)" fill-opacity="1" points="50.0,135.0 90.0,155.0 50.0,175.0" stroke="rgb(0,0,127)" stroke-width="0.25mm" /><defs /><g display="none" id="info"><text id="name">lossPower</text><text id="type">Modelica.Blocks.Interfaces.RealOutput</text><text id="classDesc">'output Real' as connector</text><text id="desc">Damper losses</text></g></g><g id="spacePhasor_r"><polygon fill="rgb(0,0,255)" fill-opacity="1" points="70.0,135.0 50.0,155.0 70.0,175.0 90.0,155.0 70.0,135.0" stroke="rgb(0,0,255)" stroke-width="0.25mm" /><defs /><g display="none" id="info"><text id="name">spacePhasor_r</text><text id="type">Modelica.Electrical.Machines.Interfaces.SpacePhasor</text><text id="classDesc">Connector for Space Phasors</text><text id="desc" /></g></g></svg>