<?xml version="1.0" encoding="utf-8" ?>
<svg baseProfile="full" height="285.0" version="1.1" viewBox="0 0 310.0 285.0" width="310.0" xmlns="http://www.w3.org/2000/svg" xmlns:ev="http://www.w3.org/2001/xml-events" xmlns:xlink="http://www.w3.org/1999/xlink"><defs /><polyline fill="none" fill-opacity="0" points="255.0,265.0 249.0,265.0 239.0,263.0 231.0,259.0 219.0,251.0 205.0,237.0 197.0,223.0 191.0,205.0 185.0,183.0 185.0,165.0 185.0,147.0 189.0,129.0 201.0,99.0 217.0,81.0 233.0,69.0 245.0,65.0 255.0,65.0" stroke="rgb(255,128,0)" stroke-width="0.25mm" /><defs /><polyline fill="none" fill-opacity="0" points="135.0,105.0 135.0,65.0 55.0,65.0" stroke="rgb(0,0,255)" stroke-width="0.25mm" /><defs /><polyline fill="none" fill-opacity="0" points="135.0,225.0 135.0,265.0 55.0,265.0" stroke="rgb(0,0,255)" stroke-width="0.25mm" /><defs /><path d="M 135.002084773 104.999027282 C 160.001667591 108.002501763 185.001250408 111.005976243 200.000277401 118.008060882 200.000277401 118.008060882 214.999304393 125.01014552 214.997914589 135.010145423 214.997914589 135.010145423 214.996524785 145.010145327 199.995413087 153.008060544 199.995413087 153.008060544 184.994301389 161.005975761 159.99402367 163.002501232 159.99402367 163.002501232 134.99374595 164.999026703 134.99374595 164.999026703" fill="none" fill-opacity="0" stroke="rgb(0,0,255)" stroke-width="0.25mm" /><defs /><path d="M 135.002084773 164.999027282 C 160.001667591 168.002501763 185.001250408 171.005976243 200.000277401 178.008060882 200.000277401 178.008060882 214.999304393 185.01014552 214.997914589 195.010145423 214.997914589 195.010145423 214.996524785 205.010145327 199.995413087 213.008060544 199.995413087 213.008060544 184.994301389 221.005975761 159.99402367 223.002501232 159.99402367 223.002501232 134.99374595 224.999026703 134.99374595 224.999026703" fill="none" fill-opacity="0" stroke="rgb(0,0,255)" stroke-width="0.25mm" /><defs /><text alignment-baseline="middle" fill="rgb(0,0,255)" fill-opacity="1" font-family="Verdana" font-size="18" text-anchor="middle" x="155.0" y="25.0">name</text><defs /><g id="pin_p"><rect fill="rgb(0,0,255)" fill-opacity="1" height="40.0" rx="0.0" ry="0.0" stroke="rgb(0,0,255)" stroke-width="0.25mm" width="40.0" x="15.0" y="145.0" /><defs /><g display="none" id="info"><text id="name">pin_p</text><text id="type">Modelica.Electrical.Analog.Interfaces.PositivePin</text><text id="classDesc">Positive pin of an electrical component</text><text id="desc">Positive pin</text></g></g><g id="pin_n"><rect fill="rgb(255,255,255)" fill-opacity="1" height="40.0" rx="0.0" ry="0.0" stroke="rgb(0,0,255)" stroke-width="0.25mm" width="40.0" x="15.0" y="145.0" /><defs /><g display="none" id="info"><text id="name">pin_n</text><text id="type">Modelica.Electrical.Analog.Interfaces.NegativePin</text><text id="classDesc">Negative pin of an electrical component</text><text id="desc">Negative pin</text></g></g><g id="port_p"><ellipse cx="35.0" cy="165.0" fill="rgb(255,128,0)" fill-opacity="1" rx="20.0" ry="20.0" stroke="rgb(255,128,0)" stroke-width="0.25mm" /><defs /><g display="none" id="info"><text id="name">port_p</text><text id="type">Modelica.Magnetic.FundamentalWave.Interfaces.PositiveMagneticPort</text><text id="classDesc">Positive magnetic port of fundamental wave machines</text><text id="desc">Positive complex magnetic port</text></g></g><g id="port_n"><ellipse cx="35.0" cy="165.0" fill="rgb(255,255,255)" fill-opacity="1" rx="20.0" ry="20.0" stroke="rgb(255,128,0)" stroke-width="0.25mm" /><defs /><g display="none" id="info"><text id="name">port_n</text><text id="type">Modelica.Magnetic.FundamentalWave.Interfaces.NegativeMagneticPort</text><text id="classDesc">Negative magnetic port of fundamental wave machines</text><text id="desc">Negative complex magnetic port</text></g></g></svg>