<?xml version="1.0" encoding="utf-8" ?>
<svg baseProfile="full" height="305.0" version="1.1" viewBox="0 0 310.0 305.0" width="310.0" xmlns="http://www.w3.org/2000/svg" xmlns:ev="http://www.w3.org/2001/xml-events" xmlns:xlink="http://www.w3.org/1999/xlink"><defs /><polyline fill="none" fill-opacity="0" points="125.0,55.0 125.0,95.0" stroke="rgb(85,170,255)" stroke-width="0.25mm" /><defs /><polyline fill="none" fill-opacity="0" points="125.0,215.0 125.0,255.0" stroke="rgb(85,170,255)" stroke-width="0.25mm" /><defs /><polyline fill="none" fill-opacity="0" points="125.0,55.0 65.0,55.0" stroke="rgb(85,170,255)" stroke-width="0.25mm" /><defs /><polyline fill="none" fill-opacity="0" points="125.0,255.0 67.0,255.0" stroke="rgb(85,170,255)" stroke-width="0.25mm" /><defs /><polyline fill="none" fill-opacity="0" points="155.0,75.0 55.0,75.0" stroke="rgb(85,170,255)" stroke-dasharray="4.0 2.0" stroke-width="0.25mm" /><defs /><polyline fill="none" fill-opacity="0" points="55.0,75.0 55.0,235.0" stroke="rgb(85,170,255)" stroke-dasharray="4.0 2.0" stroke-width="0.25mm" /><defs /><polyline fill="none" fill-opacity="0" points="155.0,235.0 55.0,235.0" stroke="rgb(85,170,255)" stroke-dasharray="4.0 2.0" stroke-width="0.25mm" /><defs /><polyline fill="none" fill-opacity="0" points="255.0,75.0 155.0,75.0" stroke="rgb(255,170,85)" stroke-dasharray="4.0 2.0" stroke-width="0.25mm" /><defs /><polyline fill="none" fill-opacity="0" points="255.0,235.0 155.0,235.0" stroke="rgb(255,170,85)" stroke-dasharray="4.0 2.0" stroke-width="0.25mm" /><defs /><polyline fill="none" fill-opacity="0" points="255.0,75.0 255.0,235.0" stroke="rgb(255,170,85)" stroke-dasharray="4.0 2.0" stroke-width="0.25mm" /><defs /><ellipse cx="185.0" cy="155.0" fill="none" fill-opacity="0" rx="34.0" ry="34.0" stroke="rgb(255,170,85)" stroke-width="0.25mm" /><defs /><polyline fill="none" fill-opacity="0" points="185.0,255.0 185.0,189.0" stroke="rgb(255,170,85)" stroke-width="0.25mm" /><defs /><polyline fill="none" fill-opacity="0" points="173.0,155.0 197.0,155.0" stroke="rgb(255,170,85)" stroke-width="0.25mm" /><defs /><polyline fill="none" fill-opacity="0" points="197.0,145.0 197.0,167.0" stroke="rgb(255,170,85)" stroke-width="0.25mm" /><defs /><polyline fill="none" fill-opacity="0" points="185.0,121.0 185.0,55.0" stroke="rgb(255,170,85)" stroke-width="0.25mm" /><defs /><polyline fill="none" fill-opacity="0" points="185.0,55.0 245.0,55.0" stroke="rgb(255,170,85)" stroke-width="0.25mm" /><defs /><polyline fill="none" fill-opacity="0" points="185.0,255.0 245.0,255.0" stroke="rgb(255,170,85)" stroke-width="0.25mm" /><defs /><text alignment-baseline="middle" fill="rgb(0,0,255)" fill-opacity="1" font-family="Verdana" font-size="18" text-anchor="middle" x="155.0" y="25.0">name</text><defs /><polyline fill="none" fill-opacity="0" points="173.0,145.0 173.0,167.0" stroke="rgb(255,170,85)" stroke-width="0.25mm" /><defs /><polyline fill="none" fill-opacity="0" points="45.0,125.0 45.0,185.0" stroke="rgb(85,170,255)" stroke-width="0.25mm" /><defs /><polygon fill="rgb(85,170,255)" fill-opacity="1" points="45.0,185.0 51.0,165.0 39.0,165.0 45.0,185.0" stroke="rgb(85,170,255)" stroke-width="0.25mm" /><defs /><polyline fill="none" fill-opacity="0" points="265.0,125.0 265.0,185.0" stroke="rgb(255,170,85)" stroke-width="0.25mm" /><defs /><polygon fill="rgb(255,170,85)" fill-opacity="1" points="265.0,185.0 271.0,165.0 259.0,165.0 265.0,185.0" stroke="rgb(255,170,85)" stroke-width="0.25mm" /><defs /><path d="M 125.002084773 94.9990272822 C 128.002015254 95.4994442185 131.001945735 95.9998611548 135.001459265 99.5004170426 135.001459265 99.5004170426 139.000972795 103.00097293 138.999999932 110.000972863 138.999999932 110.000972863 138.99902707 117.000972795 134.998540677 120.50041684 134.998540677 120.50041684 130.998054284 123.999860884 127.997984823 124.499443938 127.997984823 124.499443938 124.997915362 124.999026992 124.997915362 124.999026992" fill="none" fill-opacity="0" stroke="rgb(85,170,255)" stroke-width="0.25mm" /><defs /><path d="M 125.002084773 124.999027282 C 128.002015254 125.499444219 131.001945735 125.999861155 135.001459265 129.500417043 135.001459265 129.500417043 139.000972795 133.00097293 138.999999932 140.000972863 138.999999932 140.000972863 138.99902707 147.000972795 134.998540677 150.50041684 134.998540677 150.50041684 130.998054284 153.999860884 127.997984823 154.499443938 127.997984823 154.499443938 124.997915362 154.999026992 124.997915362 154.999026992" fill="none" fill-opacity="0" stroke="rgb(85,170,255)" stroke-width="0.25mm" /><defs /><path d="M 125.002084773 154.999027282 C 128.002015254 155.499444219 131.001945735 155.999861155 135.001459265 159.500417043 135.001459265 159.500417043 139.000972795 163.00097293 138.999999932 170.000972863 138.999999932 170.000972863 138.99902707 177.000972795 134.998540677 180.50041684 134.998540677 180.50041684 130.998054284 183.999860884 127.997984823 184.499443938 127.997984823 184.499443938 124.997915362 184.999026992 124.997915362 184.999026992" fill="none" fill-opacity="0" stroke="rgb(85,170,255)" stroke-width="0.25mm" /><defs /><path d="M 125.002084773 184.999027282 C 128.002015254 185.499444219 131.001945735 185.999861155 135.001459265 189.500417043 135.001459265 189.500417043 139.000972795 193.00097293 138.999999932 200.000972863 138.999999932 200.000972863 138.99902707 207.000972795 134.998540677 210.50041684 134.998540677 210.50041684 130.998054284 213.999860884 127.997984823 214.499443938 127.997984823 214.499443938 124.997915362 214.999026992 124.997915362 214.999026992" fill="none" fill-opacity="0" stroke="rgb(85,170,255)" stroke-width="0.25mm" /><defs /><g id="port_p"><rect fill="rgb(255,170,85)" fill-opacity="1" height="40.0" rx="0.0" ry="0.0" stroke="rgb(255,170,85)" stroke-width="0.25mm" width="40.0" x="15.0" y="135.0" /><defs /><g display="none" id="info"><text id="name">port_p</text><text id="type">Modelica.Magnetic.QuasiStatic.FluxTubes.Interfaces.PositiveMagneticPort</text><text id="classDesc">Positive quasi-static magnetic port</text><text id="desc">Positive magnetic port</text></g></g><g id="port_n"><rect fill="rgb(255,255,255)" fill-opacity="1" height="40.0" rx="0.0" ry="0.0" stroke="rgb(255,170,85)" stroke-width="0.25mm" width="40.0" x="15.0" y="135.0" /><defs /><g display="none" id="info"><text id="name">port_n</text><text id="type">Modelica.Magnetic.QuasiStatic.FluxTubes.Interfaces.NegativeMagneticPort</text><text id="classDesc">Negative quasi-static magnetic port</text><text id="desc">Negative magnetic port</text></g></g><g id="pin_p"><rect fill="rgb(85,170,255)" fill-opacity="1" height="40.0" rx="0.0" ry="0.0" stroke="rgb(85,170,255)" stroke-width="0.25mm" width="40.0" x="15.0" y="135.0" /><defs /><g display="none" id="info"><text id="name">pin_p</text><text id="type">Modelica.Electrical.QuasiStationary.SinglePhase.Interfaces.PositivePin</text><text id="classDesc">Positive quasi-static single-phase pin</text><text id="desc">Positive electric pin</text></g></g><g id="pin_n"><rect fill="rgb(255,255,255)" fill-opacity="1" height="40.0" rx="0.0" ry="0.0" stroke="rgb(85,170,255)" stroke-width="0.25mm" width="40.0" x="15.0" y="135.0" /><defs /><g display="none" id="info"><text id="name">pin_n</text><text id="type">Modelica.Electrical.QuasiStationary.SinglePhase.Interfaces.NegativePin</text><text id="classDesc">Negative quasi-static single-phase pin</text><text id="desc">Negative electric pin</text></g></g></svg>