<?xml version="1.0" encoding="utf-8" ?>
<svg baseProfile="full" height="260.0" version="1.1" viewBox="0 0 310.0 260.0" width="310.0" xmlns="http://www.w3.org/2000/svg" xmlns:ev="http://www.w3.org/2001/xml-events" xmlns:xlink="http://www.w3.org/1999/xlink"><defs /><rect fill="rgb(255,255,255)" fill-opacity="1" height="200.0" rx="0.0" ry="0.0" stroke="rgb(0,0,127)" stroke-width="0.25mm" width="200.0" x="55.0" y="55.0" /><defs /><text dominant-baseline="middle" fill="rgb(0,0,255)" fill-opacity="1" font-family="Verdana" font-size="40.0" text-anchor="middle" x="155.0" y="25.0">name</text><defs /><polyline fill="none" fill-opacity="0" points="77.0,111.0 235.0,111.0" stroke="rgb(135,135,135)" stroke-width="0.25mm" /><defs /><polyline fill="none" fill-opacity="0" points="77.0,121.0 235.0,121.0" stroke="rgb(135,135,135)" stroke-width="0.25mm" /><defs /><polyline fill="none" fill-opacity="0" points="77.0,135.0 235.0,135.0" stroke="rgb(135,135,135)" stroke-width="0.25mm" /><defs /><polyline fill="none" fill-opacity="0" points="77.0,157.0 235.0,157.0" stroke="rgb(135,135,135)" stroke-width="0.25mm" /><defs /><polyline fill="none" fill-opacity="0" points="77.0,203.0 235.0,203.0" stroke="rgb(135,135,135)" stroke-width="0.25mm" /><defs /><polyline fill="none" fill-opacity="0" points="85.0,203.0 105.0,203.0 205.0,111.0 225.0,111.0" stroke="rgb(0,0,0)" stroke-width="0.25mm" /><defs /><polyline fill="none" fill-opacity="0" points="105.0,203.0 105.0,111.0" stroke="rgb(135,135,135)" stroke-width="0.25mm" /><defs /><polyline fill="none" fill-opacity="0" points="205.0,203.0 205.0,111.0" stroke="rgb(135,135,135)" stroke-width="0.25mm" /><defs /><polyline fill="none" fill-opacity="0" points="77.0,115.0 235.0,115.0" stroke="rgb(135,135,135)" stroke-width="0.25mm" /><defs /><polygon fill="rgb(192,192,192)" fill-opacity="1" points="245.0,203.0 223.0,195.0 223.0,211.0 245.0,203.0" stroke="rgb(192,192,192)" stroke-width="0.25mm" /><defs /><polygon fill="rgb(192,192,192)" fill-opacity="1" points="85.0,65.0 77.0,87.0 93.0,87.0 85.0,65.0" stroke="rgb(192,192,192)" stroke-width="0.25mm" /><defs /><polyline fill="none" fill-opacity="0" points="85.0,211.0 85.0,87.0" stroke="rgb(135,135,135)" stroke-width="0.25mm" /><defs /><g id="y"><polygon fill="rgb(255,255,255)" fill-opacity="1" points="15.0,135.0 55.0,155.0 15.0,175.0" stroke="rgb(0,0,127)" stroke-width="0.25mm" /><defs /><g display="none" id="info"><text id="name">y</text><text id="type">Modelica.Blocks.Interfaces.RealOutput</text><text id="classDesc">'output Real' as connector</text><text id="desc">Connector of Real output signal</text></g></g></svg>