<?xml version="1.0" encoding="utf-8" ?>
<svg baseProfile="full" height="250.0" version="1.1" viewBox="0 0 310.0 250.0" width="310.0" xmlns="http://www.w3.org/2000/svg" xmlns:ev="http://www.w3.org/2001/xml-events" xmlns:xlink="http://www.w3.org/1999/xlink"><defs /><polyline fill="none" fill-opacity="0" points="55.0,105.0 255.0,105.0" stroke="rgb(0,127,0)" stroke-width="0.25mm" /><defs /><polygon fill="rgb(95,127,95)" fill-opacity="1" points="235.0,205.0 205.0,195.0 205.0,215.0 235.0,205.0" stroke="rgb(95,127,95)" stroke-width="0.25mm" /><defs /><polyline fill="none" fill-opacity="0" points="115.0,205.0 205.0,205.0" stroke="rgb(95,127,95)" stroke-width="0.25mm" /><defs /><rect fill="url(#0)" height="60.0" rx="0.0" ry="0.0" stroke="rgb(0,127,0)" stroke-width="0.25mm" width="60.0" x="125.0" y="75.0" /><defs><radialGradient cx="50%" cy="50%" fx="50%" fy="50%" id="0" r="0.9"><stop offset="0" stop-color="rgb(166, 221, 166)" stop-opacity="1" /><stop offset="1" stop-color="rgb(0, 127, 0)" stop-opacity="1" /></radialGradient></defs><rect fill="rgb(0,127,0)" fill-opacity="1" height="30.0" rx="0.0" ry="0.0" stroke="rgb(0,127,0)" stroke-width="0.25mm" width="8.0" x="91.0" y="121.0" /><defs /><rect fill="rgb(0,127,0)" fill-opacity="1" height="30.0" rx="0.0" ry="0.0" stroke="rgb(0,127,0)" stroke-width="0.25mm" width="8.0" x="211.0" y="121.0" /><defs /><text alignment-baseline="middle" fill="rgb(0,0,255)" fill-opacity="1" font-family="Verdana" font-size="18" text-anchor="middle" x="155.0" y="45.0">name</text><defs /><polyline fill="none" fill-opacity="0" points="105.0,195.0 127.0,173.0" stroke="rgb(0,127,0)" stroke-width="0.25mm" /><defs /><polyline fill="none" fill-opacity="0" points="125.0,195.0 147.0,173.0" stroke="rgb(0,127,0)" stroke-width="0.25mm" /><defs /><polyline fill="none" fill-opacity="0" points="145.0,195.0 167.0,173.0" stroke="rgb(0,127,0)" stroke-width="0.25mm" /><defs /><polyline fill="none" fill-opacity="0" points="165.0,195.0 187.0,173.0" stroke="rgb(0,127,0)" stroke-width="0.25mm" /><defs /><text alignment-baseline="middle" fill="rgb(0,0,0)" fill-opacity="1" font-family="Verdana" font-size="18" text-anchor="middle" x="155.0" y="230.0">m=m</text><defs /><polyline fill="none" fill-opacity="0" points="55.0,205.0 55.0,145.0 158.0,145.0" stroke="rgb(191,0,0)" stroke-dasharray="1.0 2.0" stroke-width="0.25mm" /><defs /><rect fill="rgb(160,215,160)" fill-opacity="1" height="24.0" rx="0.0" ry="0.0" stroke="rgb(0,127,0)" stroke-width="0.25mm" width="140.0" x="85.0" y="151.0" /><defs /><g id="heatPort"><rect fill="rgb(191,0,0)" fill-opacity="1" height="40.0" rx="0.0" ry="0.0" stroke="rgb(191,0,0)" stroke-width="0.25mm" width="40.0" x="15.0" y="85.0" /><defs /><g display="none" id="info"><text id="name">heatPort</text><text id="type">Modelica.Thermal.HeatTransfer.Interfaces.HeatPort_a</text><text id="classDesc">Thermal port for 1-dim. heat transfer (filled rectangular icon)</text><text id="desc">Optional port to which dissipated losses are transported in form of heat</text></g></g></svg>