<?xml version="1.0" encoding="utf-8" ?>
<svg baseProfile="full" height="280.0" version="1.1" viewBox="0 0 310.0 280.0" width="310.0" xmlns="http://www.w3.org/2000/svg" xmlns:ev="http://www.w3.org/2001/xml-events" xmlns:xlink="http://www.w3.org/1999/xlink"><defs /><polyline fill="none" fill-opacity="0" points="105.0,275.0 125.0,255.0" stroke="rgb(0,0,0)" stroke-width="0.25mm" /><defs /><polyline fill="none" fill-opacity="0" points="125.0,275.0 145.0,255.0" stroke="rgb(0,0,0)" stroke-width="0.25mm" /><defs /><polyline fill="none" fill-opacity="0" points="145.0,275.0 165.0,255.0" stroke="rgb(0,0,0)" stroke-width="0.25mm" /><defs /><polyline fill="none" fill-opacity="0" points="165.0,275.0 185.0,255.0" stroke="rgb(0,0,0)" stroke-width="0.25mm" /><defs /><polyline fill="none" fill-opacity="0" points="125.0,255.0 185.0,255.0" stroke="rgb(0,0,0)" stroke-width="0.25mm" /><defs /><rect fill="rgb(255,255,255)" fill-opacity="1" height="192.0" rx="0.0" ry="0.0" stroke="rgb(255,255,255)" stroke-width="0.25mm" width="192.0" x="59.0" y="59.0" /><defs /><polyline fill="none" fill-opacity="0" points="155.0,217.0 155.0,255.0" stroke="rgb(0,0,0)" stroke-width="0.25mm" /><defs /><text alignment-baseline="middle" fill="rgb(0,0,255)" fill-opacity="1" font-family="Verdana" font-size="18" text-anchor="middle" x="155.0" y="25.0">name</text><defs /><polygon fill="rgb(0,0,0)" fill-opacity="1" points="249.0,129.0 235.0,71.0 205.0,93.0 249.0,129.0" stroke="rgb(0,0,0)" stroke-width="0.25mm" /><defs /><polygon fill="rgb(0,0,0)" fill-opacity="1" points="105.0,253.0 125.0,235.0 113.0,227.0 105.0,253.0" stroke="rgb(0,0,0)" stroke-width="0.25mm" /><defs /><polyline fill="none" fill-opacity="0" points="105.0,275.0 125.0,255.0" stroke="rgb(0,0,0)" stroke-width="0.25mm" /><defs /><polyline fill="none" fill-opacity="0" points="125.0,275.0 145.0,255.0" stroke="rgb(0,0,0)" stroke-width="0.25mm" /><defs /><polyline fill="none" fill-opacity="0" points="145.0,275.0 165.0,255.0" stroke="rgb(0,0,0)" stroke-width="0.25mm" /><defs /><polyline fill="none" fill-opacity="0" points="165.0,275.0 185.0,255.0" stroke="rgb(0,0,0)" stroke-width="0.25mm" /><defs /><polyline fill="none" fill-opacity="0" points="125.0,255.0 185.0,255.0" stroke="rgb(0,0,0)" stroke-width="0.25mm" /><defs /><path d="M 107.0 247.0 C 112.0 239.0 117.0 231.0 127.0 225.0 127.0 225.0 137.0 219.0 146.0 217.0 146.0 217.0 155.0 215.0 164.0 217.0 164.0 217.0 173.0 219.0 183.0 225.0 183.0 225.0 193.0 231.0 198.0 239.0 198.0 239.0 203.0 247.0 203.0 247.0" fill="none" fill-opacity="0" stroke="rgb(0,0,0)" stroke-width="0.25mm" /><defs /><path d="M 69.0 115.0 C 75.0 102.0 81.0 89.0 90.0 79.0 90.0 79.0 99.0 69.0 117.0 62.0 117.0 62.0 135.0 55.0 155.0 55.0 155.0 55.0 175.0 55.0 195.0 65.0 195.0 65.0 215.0 75.0 226.0 91.0 226.0 91.0 237.0 107.0 237.0 107.0" fill="none" fill-opacity="0" stroke="rgb(0,0,0)" stroke-width="0.25mm" /><defs /><polyline fill="none" fill-opacity="0" points="95.0,115.0 95.0,205.0" stroke="rgb(192,192,192)" stroke-width="0.25mm" /><defs /><polyline fill="none" fill-opacity="0" points="80.0,195.0 230.0,195.0" stroke="rgb(192,192,192)" stroke-width="0.25mm" /><defs /><path d="M 95.0 195.0 C 105.0 194.0 115.0 193.0 125.0 190.0 125.0 190.0 135.0 187.0 145.0 181.0 145.0 181.0 155.0 175.0 165.0 167.0 165.0 167.0 175.0 159.0 185.0 149.0 185.0 149.0 195.0 139.0 204.0 126.0 204.0 126.0 213.0 113.0 213.0 113.0" fill="none" fill-opacity="0" stroke="rgb(0,0,127)" stroke-width="0.25mm" /><defs /><g id="flange"><ellipse cx="35.0" cy="155.0" fill="rgb(255,255,255)" fill-opacity="1" rx="20.0" ry="20.0" stroke="rgb(0,0,0)" stroke-width="0.25mm" /><defs /><g display="none" id="info"><text id="name">flange</text><text id="type">Modelica.Mechanics.Rotational.Interfaces.Flange_b</text><text id="classDesc">One-dimensional rotational flange of a shaft (non-filled circle icon)</text><text id="desc">Flange of shaft</text></g></g><g id="support"><ellipse cx="35.0" cy="155.0" fill="rgb(95,95,95)" fill-opacity="1" rx="13.3333333333" ry="13.3333333333" stroke="rgb(0,0,0)" stroke-width="0.25mm" /><defs /><rect fill="rgb(192,192,192)" fill-opacity="1" height="40.0" rx="0.0" ry="0.0" stroke="rgb(192,192,192)" stroke-width="0.25mm" width="40.0" x="15.0" y="135.0" /><defs /><ellipse cx="35.0" cy="155.0" fill="rgb(95,95,95)" fill-opacity="1" rx="13.3333333333" ry="13.3333333333" stroke="rgb(0,0,0)" stroke-width="0.25mm" /><defs /><g display="none" id="info"><text id="name">support</text><text id="type">Modelica.Mechanics.Rotational.Interfaces.Support</text><text id="classDesc">Support/housing flange of a one-dimensional rotational shaft</text><text id="desc">Support/housing of component</text></g></g></svg>