<?xml version="1.0" encoding="utf-8" ?>
<svg baseProfile="full" height="210" version="1.1" viewBox="0 0 310.0 210" width="310.0" xmlns="http://www.w3.org/2000/svg" xmlns:ev="http://www.w3.org/2001/xml-events" xmlns:xlink="http://www.w3.org/1999/xlink"><defs /><ellipse cx="155.0" cy="105.0" fill="rgb(255,255,255)" fill-opacity="1" rx="50.0" ry="50.0" stroke="rgb(0,0,255)" stroke-width="0.25mm" /><defs /><text dominant-baseline="middle" fill="rgb(0,0,255)" fill-opacity="1" font-family="Verdana" font-size="40.0" text-anchor="middle" x="155.0" y="25.0">name</text><defs /><polyline fill="none" fill-opacity="0" points="65.0,105.0 245.0,105.0" stroke="rgb(0,0,255)" stroke-width="0.25mm" /><defs /><polyline fill="none" fill-opacity="0" points="75.0,85.0 95.0,85.0" stroke="rgb(0,0,255)" stroke-width="0.25mm" /><defs /><polyline fill="none" fill-opacity="0" points="85.0,75.0 85.0,95.0" stroke="rgb(0,0,255)" stroke-width="0.25mm" /><defs /><polyline fill="none" fill-opacity="0" points="215.0,85.0 235.0,85.0" stroke="rgb(0,0,255)" stroke-width="0.25mm" /><defs /><path d="M 84.0 35.0 C 85.3 35.1 86.6 35.2 89.05 36.6 89.05 36.6 91.5 38.0 93.95 41.0 93.95 41.0 96.4 44.0 98.9 48.5 98.9 48.5 101.4 53.0 104.2 59.7 104.2 59.7 107.0 66.4 110.51 76.4 110.51 76.4 114.02000000000001 86.4 121.405 109.15 121.405 109.15 128.79 131.9 131.945 140.45 131.945 140.45 135.1 149.0 137.95 155.1 137.95 155.1 140.8 161.2 143.25 165.1 143.25 165.1 145.7 169.0 148.14999999999998 171.3 148.14999999999998 171.3 150.6 173.6 153.05 174.3 153.05 174.3 155.5 175.0 158.0 173.95 158.0 173.95 160.5 172.9 162.95 170.2 162.95 170.2 165.4 167.5 167.85000000000002 163.3 167.85000000000002 163.3 170.3 159.1 173.10000000000002 152.7 173.10000000000002 152.7 175.9 146.3 179.45 136.5 179.45 136.5 183.0 126.7 186.5 115.85 186.5 115.85 190.0 105.0 190.0 105.0" fill="none" fill-opacity="0" stroke="rgb(192,192,192)" stroke-width="0.25mm" /><defs /><polyline fill="none" fill-opacity="0" points="190.0,105.0 199.8,75.1 206.2,58.5 211.8,46.9 216.7,39.8 221.7,35.8 226.6,35.2" stroke="rgb(192,192,192)" stroke-width="0.25mm" /><defs /><g id="p"><rect fill="rgb(0,0,255)" fill-opacity="1" height="40.0" rx="0.0" ry="0.0" stroke="rgb(0,0,255)" stroke-width="0.25mm" width="40.0" x="15.0" y="85.0" /><defs /><g display="none" id="info"><text id="name">p</text><text id="type">Modelica.Electrical.Analog.Interfaces.PositivePin</text><text id="classDesc">Positive pin of an electrical component</text><text id="desc">Positive electrical pin</text></g></g><g id="n"><rect fill="rgb(255,255,255)" fill-opacity="1" height="40.0" rx="0.0" ry="0.0" stroke="rgb(0,0,255)" stroke-width="0.25mm" width="40.0" x="15.0" y="85.0" /><defs /><g display="none" id="info"><text id="name">n</text><text id="type">Modelica.Electrical.Analog.Interfaces.NegativePin</text><text id="classDesc">Negative pin of an electrical component</text><text id="desc">Negative electrical pin</text></g></g></svg>