<?xml version="1.0" encoding="utf-8" ?>
<svg baseProfile="full" height="210.0" version="1.1" viewBox="0 0 250.0 210.0" width="250.0" xmlns="http://www.w3.org/2000/svg" xmlns:ev="http://www.w3.org/2001/xml-events" xmlns:xlink="http://www.w3.org/1999/xlink"><defs /><ellipse cx="145.0" cy="105.0" fill="rgb(245,245,245)" fill-opacity="1" rx="70.0" ry="70.0" stroke="rgb(0,0,0)" stroke-width="0.25mm" /><defs /><polyline fill="none" fill-opacity="0" points="145.0,35.0 145.0,65.0" stroke="rgb(0,0,0)" stroke-width="0.25mm" /><defs /><polyline fill="none" fill-opacity="0" points="167.9,72.2 185.2,47.7" stroke="rgb(0,0,0)" stroke-width="0.25mm" /><defs /><polyline fill="none" fill-opacity="0" points="122.1,72.2 104.8,47.7" stroke="rgb(0,0,0)" stroke-width="0.25mm" /><defs /><polyline fill="none" fill-opacity="0" points="182.6,91.3 210.8,81.1" stroke="rgb(0,0,0)" stroke-width="0.25mm" /><defs /><polyline fill="none" fill-opacity="0" points="107.4,91.3 79.2,81.1" stroke="rgb(0,0,0)" stroke-width="0.25mm" /><defs /><ellipse cx="145.0" cy="105.0" fill="none" fill-opacity="0" rx="12.0" ry="12.0" stroke="rgb(64,64,64)" stroke-width="0.25mm" /><defs /><polygon fill="rgb(64,64,64)" fill-opacity="1" points="140.23140170268132,103.49651395789338 161.13439318635196,47.17542601533325 164.54531854738605,43.00822213485722 164.9492718242069,48.37821484901854 149.76859829731868,106.50348604210662" /><defs /><ellipse cx="145.0" cy="105.0" fill="rgb(64,64,64)" fill-opacity="1" rx="7.0" ry="7.0" /><defs /><polyline fill="none" fill-opacity="0" points="75.0,105.0 55.0,105.0" stroke="rgb(0,0,0)" stroke-width="0.25mm" /><defs /><polyline fill="none" fill-opacity="0" points="215.0,105.0 245.0,105.0" stroke="rgb(0,0,0)" stroke-width="0.25mm" /><defs /><g id="flowPort"><rect fill="rgb(255,255,255)" fill-opacity="1" height="40.0" rx="0.0" ry="0.0" stroke="rgb(255,0,0)" stroke-width="0.25mm" width="40.0" x="5.0" y="85.0" /><defs /><ellipse cx="25.0" cy="105.0" fill="rgb(0,0,255)" fill-opacity="1" rx="19.599999999999994" ry="19.599999999999994" stroke="rgb(0,0,255)" stroke-width="0.25mm" /><defs /><g display="none" id="info"><text id="name">flowPort</text><text id="type">Modelica.Thermal.FluidHeatFlow.Interfaces.FlowPort_a</text><text id="classDesc">Filled flow port (used upstream)</text><text id="desc" /></g></g><g id="y"><polygon fill="rgb(255,255,255)" fill-opacity="1" points="5.0,85.0 45.0,105.0 5.0,125.0" stroke="rgb(0,0,127)" stroke-width="0.25mm" /><defs /><g display="none" id="info"><text id="name">y</text><text id="type">Modelica.Blocks.Interfaces.RealOutput</text><text id="classDesc">'output Real' as connector</text><text id="desc" /></g></g></svg>