<?xml version="1.0" encoding="utf-8" ?>
<svg baseProfile="full" height="210.0" version="1.1" viewBox="0 0 310.0 210.0" width="310.0" xmlns="http://www.w3.org/2000/svg" xmlns:ev="http://www.w3.org/2001/xml-events" xmlns:xlink="http://www.w3.org/1999/xlink"><defs /><rect fill="none" fill-opacity="0" height="62.0" rx="0.0" ry="0.0" stroke="rgb(0,0,255)" stroke-width="0.25mm" width="160.0" x="75.0" y="75.0" /><defs /><polyline fill="none" fill-opacity="0" points="63.0,105.0 75.0,105.0" stroke="rgb(85,85,255)" stroke-width="0.25mm" /><defs /><polyline fill="none" fill-opacity="0" points="235.0,105.0 247.0,105.0" stroke="rgb(85,85,255)" stroke-width="0.25mm" /><defs /><text alignment-baseline="middle" fill="rgb(0,0,0)" fill-opacity="1" font-family="Verdana" font-size="18" text-anchor="middle" x="155.0" y="167.0">R=R</text><defs /><polyline fill="none" fill-opacity="0" points="81.0,105.0 75.0,105.0 95.0,105.0" stroke="rgb(85,255,85)" stroke-width="0.25mm" /><defs /><polyline fill="none" fill-opacity="0" points="75.0,125.0 95.0,125.0 95.0,121.0 115.0,115.0 151.0,115.0" stroke="rgb(85,255,85)" stroke-width="0.25mm" /><defs /><polyline fill="none" fill-opacity="0" points="159.0,115.0 195.0,115.0 215.0,121.0 215.0,125.0 235.0,125.0" stroke="rgb(85,255,85)" stroke-width="0.25mm" /><defs /><polyline fill="none" fill-opacity="0" points="235.0,105.0 215.0,105.0" stroke="rgb(85,255,85)" stroke-width="0.25mm" /><defs /><polyline fill="none" fill-opacity="0" points="215.0,105.0 215.0,109.0" stroke="rgb(85,255,85)" stroke-width="0.25mm" /><defs /><polyline fill="none" fill-opacity="0" points="95.0,105.0 95.0,111.0" stroke="rgb(170,255,170)" stroke-width="0.25mm" /><defs /><polyline fill="none" fill-opacity="0" points="151.0,105.0 151.0,125.0" stroke="rgb(85,255,85)" stroke-width="0.25mm" /><defs /><polyline fill="none" fill-opacity="0" points="159.0,105.0 159.0,125.0" stroke="rgb(85,255,85)" stroke-width="0.25mm" /><defs /><text alignment-baseline="middle" fill="rgb(0,0,255)" fill-opacity="1" font-family="Verdana" font-size="18" text-anchor="middle" x="155.0" y="35.0">name</text><defs /><g id="p"><rect fill="rgb(0,0,255)" fill-opacity="1" height="40.0" rx="0.0" ry="0.0" stroke="rgb(0,0,255)" stroke-width="0.25mm" width="40.0" x="15.0" y="85.0" /><defs /><g display="none" id="info"><text id="name">p</text><text id="type">Modelica.Electrical.Analog.Interfaces.PositivePin</text><text id="classDesc">Positive pin of an electrical component</text><text id="desc" /></g></g><g id="n"><rect fill="rgb(255,255,255)" fill-opacity="1" height="40.0" rx="0.0" ry="0.0" stroke="rgb(0,0,255)" stroke-width="0.25mm" width="40.0" x="15.0" y="85.0" /><defs /><g display="none" id="info"><text id="name">n</text><text id="type">Modelica.Electrical.Analog.Interfaces.NegativePin</text><text id="classDesc">Negative pin of an electrical component</text><text id="desc" /></g></g></svg>