<?xml version="1.0" encoding="utf-8" ?>
<svg baseProfile="full" height="210.0" version="1.1" viewBox="0 0 210.0 210.0" width="210.0" xmlns="http://www.w3.org/2000/svg" xmlns:ev="http://www.w3.org/2001/xml-events" xmlns:xlink="http://www.w3.org/1999/xlink"><defs /><rect fill="url(#0)" height="120.0" rx="0.0" ry="0.0" stroke="rgb(0,0,0)" stroke-width="0.25mm" width="120.0" x="65.0" y="45.0" /><defs><linearGradient id="0" x1="0%" x2="0%" y1="0%" y2="100%"><stop offset="0" stop-color="rgb(0, 0, 0)" stop-opacity="1" /><stop offset="0.3" stop-color="rgb(215, 215, 215)" stop-opacity="1" /><stop offset="0.7" stop-color="rgb(215, 215, 215)" stop-opacity="1" /><stop offset="1" stop-color="rgb(0, 0, 0)" stop-opacity="1" /></linearGradient></defs><rect fill="url(#1)" height="120.0" rx="0.0" ry="0.0" stroke="rgb(0,0,0)" stroke-width="0.25mm" width="20.0" x="45.0" y="45.0" /><defs><linearGradient id="1" x1="0%" x2="0%" y1="0%" y2="100%"><stop offset="0" stop-color="rgb(0, 0, 0)" stop-opacity="1" /><stop offset="0.3" stop-color="rgb(128, 128, 128)" stop-opacity="1" /><stop offset="0.7" stop-color="rgb(128, 128, 128)" stop-opacity="1" /><stop offset="1" stop-color="rgb(0, 0, 0)" stop-opacity="1" /></linearGradient></defs><rect fill="url(#2)" height="20.0" rx="0.0" ry="0.0" stroke="rgb(0,0,0)" stroke-width="0.25mm" width="20.0" x="185.0" y="95.0" /><defs><linearGradient id="2" x1="0%" x2="0%" y1="0%" y2="100%"><stop offset="0" stop-color="rgb(0, 0, 0)" stop-opacity="1" /><stop offset="0.3" stop-color="rgb(95, 95, 95)" stop-opacity="1" /><stop offset="0.7" stop-color="rgb(95, 95, 95)" stop-opacity="1" /><stop offset="1" stop-color="rgb(0, 0, 0)" stop-opacity="1" /></linearGradient></defs><rect fill="rgb(95,95,95)" fill-opacity="1" height="50.0" rx="0.0" ry="0.0" stroke="rgb(95,95,95)" stroke-width="0.25mm" width="80.0" x="65.0" y="5.0" /><defs /><polygon fill="rgb(0,0,0)" fill-opacity="1" points="55.0,195.0 65.0,195.0 95.0,125.0 145.0,125.0 175.0,195.0 185.0,195.0 185.0,205.0 55.0,205.0 55.0,195.0" stroke="rgb(0,0,0)" stroke-width="0.25mm" /><defs /><polyline fill="none" fill-opacity="0" points="117.0,13.0 117.0,45.0" stroke="rgb(255,255,255)" stroke-width="0.25mm" /><defs /><polyline fill="none" fill-opacity="0" points="93.0,45.0 93.0,13.0 117.0,29.0 93.0,45.0" stroke="rgb(255,255,255)" stroke-width="0.25mm" /><defs /><polyline fill="none" fill-opacity="0" points="79.0,29.0 131.0,29.0" stroke="rgb(255,255,255)" stroke-width="0.25mm" /><defs /></svg>