<?xml version="1.0" encoding="utf-8" ?>
<svg baseProfile="full" height="210.0" version="1.1" viewBox="0 0 210.0 210.0" width="210.0" xmlns="http://www.w3.org/2000/svg" xmlns:ev="http://www.w3.org/2001/xml-events" xmlns:xlink="http://www.w3.org/1999/xlink"><defs /><rect fill="url(#0)" height="200.0" rx="25.0" ry="25.0" stroke="rgb(200,200,200)" stroke-width="0.25mm" width="200.0" x="5.0" y="5.0" /><defs><linearGradient id="0" x1="0%" x2="0%" y1="0%" y2="100%"><stop offset="0" stop-color="rgb(200, 200, 200)" stop-opacity="1" /><stop offset="0.3" stop-color="rgb(248, 248, 248)" stop-opacity="1" /><stop offset="0.7" stop-color="rgb(248, 248, 248)" stop-opacity="1" /><stop offset="1" stop-color="rgb(200, 200, 200)" stop-opacity="1" /></linearGradient></defs><rect fill="none" fill-opacity="0" height="200.0" rx="25.0" ry="25.0" stroke="rgb(128,128,128)" stroke-width="0.25mm" width="200.0" x="5.0" y="5.0" /><defs /><path d="M 5.0 74.6332 C 5.0 74.6332 5.0 74.6332 15.000100000000003 67.49260000000001 15.000100000000003 67.49260000000001 25.000200000000007 60.352000000000004 30.0002 57.0415 30.0002 57.0415 35.00019999999999 53.731 40.89619999999999 50.953 40.89619999999999 50.953 46.7922 48.175 52.4807 47.249 52.4807 47.249 58.169200000000004 46.32300000000001 62.4022 47.51350000000001 62.4022 47.51350000000001 66.6352 48.70400000000001 69.4137 52.1435 69.4137 52.1435 72.1922 55.583 72.98570000000001 59.0225 72.98570000000001 59.0225 73.7792 62.462 74.0437 64.97550000000001 74.0437 64.97550000000001 74.3082 67.489 78.4092 63.653000000000006 78.4092 63.653000000000006 82.5102 59.817 87.1407 56.376999999999995 87.1407 56.376999999999995 91.7712 52.937 96.40119999999999 50.556 96.40119999999999 50.556 101.0312 48.175 107.11670000000001 46.852 107.11670000000001 46.852 113.2022 45.528999999999996 119.15520000000001 46.5875 119.15520000000001 46.5875 125.1082 47.646 127.8862 51.4825 127.8862 51.4825 130.6642 55.319 131.8552 60.0815 131.8552 60.0815 133.0462 64.844 137.2792 60.875 137.2792 60.875 141.5122 56.906000000000006 146.8042 53.334 146.8042 53.334 152.0962 49.762 158.0492 47.381 158.0492 47.381 164.00220000000002 45.0 169.95520000000002 45.132 169.95520000000002 45.132 175.90820000000002 45.263999999999996 180.6707 48.439 180.6707 48.439 185.4332 51.614000000000004 187.2852 57.435 187.2852 57.435 189.1372 63.256 188.6082 69.3415 188.6082 69.3415 188.07920000000001 75.42699999999999 186.09470000000002 80.7185 186.09470000000002 80.7185 184.11020000000002 86.01 180.9352 90.50800000000001 180.9352 90.50800000000001 177.7602 95.006 173.5272 100.6945 173.5272 100.6945 169.2942 106.38300000000001 165.0607 112.33600000000001 165.0607 112.33600000000001 160.8272 118.289 159.90120000000002 118.0245 159.90120000000002 118.0245 158.9752 117.76 163.73770000000002 109.426 163.73770000000002 109.426 168.5002 101.092 171.93970000000002 94.2125 171.93970000000002 94.2125 175.3792 87.333 177.2312 81.1155 177.2312 81.1155 179.0832 74.898 178.4217 70.4 178.4217 70.4 177.7602 65.902 174.1882 63.256 174.1882 63.256 170.6162 60.61 165.1927 61.2715 165.1927 61.2715 159.7692 61.93300000000001 153.68370000000002 66.034 153.68370000000002 66.034 147.59820000000002 70.135 142.30620000000002 75.162 142.30620000000002 75.162 137.01420000000002 80.189 132.11970000000002 85.613 132.11970000000002 85.613 127.2252 91.037 123.1242 96.32900000000001 123.1242 96.32900000000001 119.0232 101.62100000000001 115.1867 106.5155 115.1867 106.5155 111.3502 111.41 107.3812 116.5695 107.3812 116.5695 103.4122 121.729 100.1052 126.35900000000001 100.1052 126.35900000000001 96.7982 130.989 94.28469999999999 134.6935 94.28469999999999 134.6935 91.7712 138.398 90.8452 137.86849999999998 90.8452 137.86849999999998 89.9192 137.339 93.6232 131.51850000000002 93.6232 131.51850000000002 97.3272 125.69800000000001 100.3697 120.671 100.3697 120.671 103.4122 115.644 107.11670000000001 108.897 107.11670000000001 108.897 110.8212 102.15 114.12819999999999 95.53550000000001 114.12819999999999 95.53550000000001 117.4352 88.921 119.5522 82.9675 119.5522 82.9675 121.6692 77.01400000000001 121.0077 71.5905 121.0077 71.5905 120.3462 66.167 117.4357 63.918 117.4357 63.918 114.5252 61.669 110.29169999999999 61.801 110.29169999999999 61.801 106.0582 61.93300000000001 101.2957 63.917500000000004 101.2957 63.917500000000004 96.5332 65.902 91.6387 69.87049999999999 91.6387 69.87049999999999 86.7442 73.839 82.5107 78.205 82.5107 78.205 78.2772 82.571 73.5147 87.8625 73.5147 87.8625 68.7522 93.154 64.1222 98.8425 64.1222 98.8425 59.492200000000004 104.531 54.72970000000001 110.352 54.72970000000001 110.352 49.967200000000005 116.173 45.7337 122.2585 45.7337 122.2585 41.5002 128.344 37.5312 134.297 37.5312 134.297 33.562200000000004 140.25 29.593700000000005 146.07049999999998 29.593700000000005 146.07049999999998 25.625200000000007 151.891 22.979200000000006 155.7275 22.979200000000006 155.7275 20.333200000000005 159.564 19.407200000000003 159.2995 19.407200000000003 159.2995 18.4812 159.035 22.317700000000002 152.685 22.317700000000002 152.685 26.154200000000003 146.335 30.6522 138.662 30.6522 138.662 35.1502 130.989 40.4417 121.99350000000001 40.4417 121.99350000000001 45.733200000000004 112.998 49.43770000000001 106.648 49.43770000000001 106.648 53.1422 100.298 56.18470000000001 93.68350000000001 56.18470000000001 93.68350000000001 59.2272 87.069 60.9472 81.64500000000001 60.9472 81.64500000000001 62.6672 76.221 62.1377 70.6645 62.1377 70.6645 61.608200000000004 65.108 58.56570000000001 63.12350000000001 58.56570000000001 63.12350000000001 55.5232 61.139 50.7607 61.8005 50.7607 61.8005 45.998200000000004 62.462 41.6327 65.2405 41.6327 65.2405 37.2672 68.019 33.1657 71.4585 33.1657 71.4585 29.0642 74.898 25.0957 78.602 25.0957 78.602 21.127200000000002 82.306 13.063600000000001 89.71435 13.063600000000001 89.71435 5.0 97.12270000000001 5.0 97.12270000000001 5.0 97.12270000000001 5.0 97.12270000000001 5.0 97.12270000000001" fill="rgb(0,0,0)" fill-opacity="1" /><defs /><ellipse cx="145.82085" cy="142.76024999999998" fill="rgb(161,0,4)" fill-opacity="1" rx="17.856250000000003" ry="17.856250000000003" /><defs /></svg>