<?xml version="1.0" encoding="utf-8" ?>
<svg baseProfile="full" height="232.0" version="1.1" viewBox="0 0 310.0 232.0" width="310.0" xmlns="http://www.w3.org/2000/svg" xmlns:ev="http://www.w3.org/2001/xml-events" xmlns:xlink="http://www.w3.org/1999/xlink"><defs /><rect fill="rgb(245,245,245)" fill-opacity="1" height="80.0" rx="0.0" ry="0.0" stroke="rgb(0,0,0)" stroke-width="0.25mm" width="140.0" x="85.0" y="85.0" /><defs /><polygon fill="rgb(0,0,0)" fill-opacity="1" points="155.0,145.0 145.0,121.0 165.0,121.0 155.0,145.0" /><defs /><polyline fill="none" fill-opacity="0" points="155.0,105.0 155.0,121.0" stroke="rgb(0,0,0)" stroke-width="0.25mm" /><defs /><polyline fill="none" fill-opacity="0" points="85.0,105.0 155.0,105.0" stroke="rgb(0,0,0)" stroke-width="0.25mm" /><defs /><polyline fill="none" fill-opacity="0" points="105.0,145.0 105.0,165.0" stroke="rgb(0,0,0)" stroke-width="0.25mm" /><defs /><polyline fill="none" fill-opacity="0" points="125.0,145.0 125.0,165.0" stroke="rgb(0,0,0)" stroke-width="0.25mm" /><defs /><polyline fill="none" fill-opacity="0" points="145.0,145.0 145.0,165.0" stroke="rgb(0,0,0)" stroke-width="0.25mm" /><defs /><polyline fill="none" fill-opacity="0" points="165.0,145.0 165.0,165.0" stroke="rgb(0,0,0)" stroke-width="0.25mm" /><defs /><polyline fill="none" fill-opacity="0" points="185.0,145.0 185.0,165.0" stroke="rgb(0,0,0)" stroke-width="0.25mm" /><defs /><polyline fill="none" fill-opacity="0" points="205.0,145.0 205.0,165.0" stroke="rgb(0,0,0)" stroke-width="0.25mm" /><defs /><polyline fill="none" fill-opacity="0" points="65.0,105.0 85.0,105.0 85.0,105.0" stroke="rgb(191,0,0)" stroke-width="0.25mm" /><defs /><polyline fill="none" fill-opacity="0" points="65.0,105.0 85.0,105.0 85.0,105.0" stroke="rgb(191,0,0)" stroke-width="0.25mm" /><defs /><polyline fill="none" fill-opacity="0" points="225.0,105.0 245.0,105.0 245.0,105.0" stroke="rgb(191,0,0)" stroke-width="0.25mm" /><defs /><polyline fill="none" fill-opacity="0" points="155.0,135.0 155.0,185.0" stroke="rgb(0,0,255)" stroke-width="0.25mm" /><defs /><text dominant-baseline="middle" fill="rgb(0,0,255)" fill-opacity="1" font-family="Verdana" font-size="40.0" text-anchor="middle" x="155.0" y="45.0">name</text><defs /><text dominant-baseline="middle" fill="rgb(0,0,0)" fill-opacity="1" font-family="Verdana" font-size="60.0" text-anchor="middle" x="218.0" y="197.0">K</text><defs /><g id="port_a"><rect fill="rgb(191,0,0)" fill-opacity="1" height="40.0" rx="0.0" ry="0.0" stroke="rgb(191,0,0)" stroke-width="0.25mm" width="40.0" x="15.0" y="85.0" /><defs /><g display="none" id="info"><text id="name">port_a</text><text id="type">Modelica.Thermal.HeatTransfer.Interfaces.HeatPort_a</text><text id="classDesc">Thermal port for 1-dim. heat transfer (filled rectangular icon)</text><text id="desc" /></g></g><g id="port_b"><rect fill="rgb(255,255,255)" fill-opacity="1" height="40.0" rx="0.0" ry="0.0" stroke="rgb(191,0,0)" stroke-width="0.25mm" width="40.0" x="15.0" y="85.0" /><defs /><g display="none" id="info"><text id="name">port_b</text><text id="type">Modelica.Thermal.HeatTransfer.Interfaces.HeatPort_b</text><text id="classDesc">Thermal port for 1-dim. heat transfer (unfilled rectangular icon)</text><text id="desc" /></g></g><g id="T_rel"><polygon fill="rgb(255,255,255)" fill-opacity="1" points="15.0,85.0 55.0,105.0 15.0,125.0" stroke="rgb(0,0,127)" stroke-width="0.25mm" /><defs /><g display="none" id="info"><text id="name">T_rel</text><text id="type">Modelica.Blocks.Interfaces.RealOutput</text><text id="classDesc">'output Real' as connector</text><text id="desc">Relative temperature as output signal</text></g></g></svg>