<?xml version="1.0" encoding="utf-8" ?>
<svg baseProfile="full" height="308.0" version="1.1" viewBox="0 0 345.0 308.0" width="345.0" xmlns="http://www.w3.org/2000/svg" xmlns:ev="http://www.w3.org/2001/xml-events" xmlns:xlink="http://www.w3.org/1999/xlink"><defs /><polyline fill="none" fill-opacity="0" points="250.0,95.0 290.0,95.0" stroke="rgb(0,0,255)" stroke-width="0.25mm" /><defs /><polyline fill="none" fill-opacity="0" points="260.0,115.0 280.0,115.0" stroke="rgb(0,0,255)" stroke-width="0.25mm" /><defs /><polyline fill="none" fill-opacity="0" points="256.0,105.0 284.0,105.0" stroke="rgb(0,0,255)" stroke-width="0.25mm" /><defs /><polyline fill="none" fill-opacity="0" points="110.0,155.0 110.0,175.0" stroke="rgb(0,0,255)" stroke-width="0.25mm" /><defs /><rect fill="none" fill-opacity="0" height="20.0" rx="0.0" ry="0.0" stroke="rgb(0,0,255)" stroke-width="0.25mm" width="40.0" x="210.0" y="65.0" /><defs /><polyline fill="none" fill-opacity="0" points="250.0,75.0 270.0,75.0 270.0,95.0" stroke="rgb(0,0,255)" stroke-width="0.25mm" /><defs /><polyline fill="none" fill-opacity="0" points="90.0,65.0 90.0,75.0 130.0,75.0" stroke="rgb(0,0,255)" stroke-width="0.25mm" /><defs /><polyline fill="none" fill-opacity="0" points="90.0,65.0 90.0,75.0 110.0,75.0 110.0,95.0" stroke="rgb(0,0,255)" stroke-width="0.25mm" /><defs /><polyline fill="none" fill-opacity="0" points="190.0,75.0 210.0,75.0" stroke="rgb(0,0,255)" stroke-width="0.25mm" /><defs /><rect fill="none" fill-opacity="0" height="40.0" rx="0.0" ry="0.0" stroke="rgb(0,0,255)" stroke-width="0.25mm" width="20.0" x="100.0" y="175.0" /><defs /><polyline fill="none" fill-opacity="0" points="90.0,235.0 130.0,235.0" stroke="rgb(0,0,255)" stroke-width="0.25mm" /><defs /><polyline fill="none" fill-opacity="0" points="100.0,255.0 120.0,255.0" stroke="rgb(0,0,255)" stroke-width="0.25mm" /><defs /><polyline fill="none" fill-opacity="0" points="96.0,245.0 124.0,245.0" stroke="rgb(0,0,255)" stroke-width="0.25mm" /><defs /><polyline fill="none" fill-opacity="0" points="110.0,215.0 110.0,235.0" stroke="rgb(0,0,255)" stroke-width="0.25mm" /><defs /><path d="M 130.0 75.0 C 130.5 72.5 131.0 70.0 133.5 67.5 133.5 67.5 136.0 65.0 140.0 65.0 140.0 65.0 144.0 65.0 146.5 67.5 146.5 67.5 149.0 70.0 149.5 72.5 149.5 72.5 150.0 75.0 150.0 75.0" fill="none" fill-opacity="0" stroke="rgb(0,0,255)" stroke-width="0.25mm" /><defs /><path d="M 150.0 75.0 C 150.5 72.5 151.0 70.0 153.5 67.5 153.5 67.5 156.0 65.0 160.0 65.0 160.0 65.0 164.0 65.0 166.5 67.5 166.5 67.5 169.0 70.0 169.5 72.5 169.5 72.5 170.0 75.0 170.0 75.0" fill="none" fill-opacity="0" stroke="rgb(0,0,255)" stroke-width="0.25mm" /><defs /><path d="M 170.0 75.0 C 170.5 72.5 171.0 70.0 173.5 67.5 173.5 67.5 176.0 65.0 180.0 65.0 180.0 65.0 184.0 65.0 186.5 67.5 186.5 67.5 189.0 70.0 189.5 72.5 189.5 72.5 190.0 75.0 190.0 75.0" fill="none" fill-opacity="0" stroke="rgb(0,0,255)" stroke-width="0.25mm" /><defs /><path d="M 109.999536727 115.000231623 C 107.499559893 114.500115807 104.999583059 113.99999999 102.499698879 111.499884176 102.499698879 111.499884176 99.9998146982 108.999768362 100.000000005 104.999768366 100.000000005 104.999768366 100.000185313 100.99976837 102.500301127 98.49988419 102.500301127 98.49988419 105.000416941 96.0000000097 107.500440102 95.5001158272 107.500440102 95.5001158272 110.000463263 95.0002316447 110.000463263 95.0002316447" fill="none" fill-opacity="0" stroke="rgb(0,0,255)" stroke-width="0.25mm" /><defs /><path d="M 109.999536727 135.000231623 C 107.499559893 134.500115807 104.999583059 133.99999999 102.499698879 131.499884176 102.499698879 131.499884176 99.9998146982 128.999768362 100.000000005 124.999768366 100.000000005 124.999768366 100.000185313 120.99976837 102.500301127 118.49988419 102.500301127 118.49988419 105.000416941 116.00000001 107.500440102 115.500115827 107.500440102 115.500115827 110.000463263 115.000231645 110.000463263 115.000231645" fill="none" fill-opacity="0" stroke="rgb(0,0,255)" stroke-width="0.25mm" /><defs /><path d="M 109.999536727 155.000231623 C 107.499559893 154.500115807 104.999583059 153.99999999 102.499698879 151.499884176 102.499698879 151.499884176 99.9998146982 148.999768362 100.000000005 144.999768366 100.000000005 144.999768366 100.000185313 140.99976837 102.500301127 138.49988419 102.500301127 138.49988419 105.000416941 136.00000001 107.500440102 135.500115827 107.500440102 135.500115827 110.000463263 135.000231645 110.000463263 135.000231645" fill="none" fill-opacity="0" stroke="rgb(0,0,255)" stroke-width="0.25mm" /><defs /><text alignment-baseline="middle" fill="rgb(0,0,255)" fill-opacity="1" font-family="Verdana" font-size="18" text-anchor="middle" x="190.0" y="284.0">name</text><defs /><g id="heatPort"><rect fill="rgb(191,0,0)" fill-opacity="1" height="40.0" rx="0.0" ry="0.0" stroke="rgb(191,0,0)" stroke-width="0.25mm" width="40.0" x="50.0" y="135.0" /><defs /><g display="none" id="info"><text id="name">heatPort</text><text id="type">Modelica.Thermal.HeatTransfer.Interfaces.HeatPort_a</text><text id="classDesc">Thermal port for 1-dim. heat transfer (filled rectangular icon)</text><text id="desc">Conditional heat port</text></g></g><g id="i"><polygon fill="rgb(255,255,255)" fill-opacity="1" points="50.0,135.0 90.0,155.0 50.0,175.0" stroke="rgb(0,0,127)" stroke-width="0.25mm" /><defs /><g display="none" id="info"><text id="name">i</text><text id="type">Modelica.Blocks.Interfaces.RealOutput</text><text id="classDesc">'output Real' as connector</text><text id="desc" /></g></g><g id="lossPower"><polygon fill="rgb(255,255,255)" fill-opacity="1" points="50.0,135.0 90.0,155.0 50.0,175.0" stroke="rgb(0,0,127)" stroke-width="0.25mm" /><defs /><g display="none" id="info"><text id="name">lossPower</text><text id="type">Modelica.Blocks.Interfaces.RealOutput</text><text id="classDesc">'output Real' as connector</text><text id="desc">Damper losses</text></g></g><g id="spacePhasor_r"><polygon fill="rgb(0,0,255)" fill-opacity="1" points="70.0,135.0 50.0,155.0 70.0,175.0 90.0,155.0 70.0,135.0" stroke="rgb(0,0,255)" stroke-width="0.25mm" /><defs /><g display="none" id="info"><text id="name">spacePhasor_r</text><text id="type">Modelica.Electrical.Machines.Interfaces.SpacePhasor</text><text id="classDesc">Connector for Space Phasors</text><text id="desc" /></g></g></svg>