<?xml version="1.0" encoding="utf-8" ?>
<svg baseProfile="full" height="260.0" version="1.1" viewBox="0 0 310.0 260.0" width="310.0" xmlns="http://www.w3.org/2000/svg" xmlns:ev="http://www.w3.org/2001/xml-events" xmlns:xlink="http://www.w3.org/1999/xlink"><defs /><polyline fill="none" fill-opacity="0" points="255.0,255.0 249.0,255.0 239.0,253.0 231.0,249.0 219.0,241.0 205.0,227.0 197.0,213.0 191.0,195.0 185.0,173.0 185.0,155.0 185.0,137.0 189.0,119.0 201.0,89.0 217.0,71.0 233.0,59.0 245.0,55.0 255.0,55.0" stroke="rgb(255,170,85)" stroke-width="0.25mm" /><defs /><polyline fill="none" fill-opacity="0" points="195.0,95.0 55.0,95.0 55.0,55.0" stroke="rgb(0,0,255)" stroke-width="0.25mm" /><defs /><polyline fill="none" fill-opacity="0" points="195.0,215.0 55.0,215.0 55.0,253.0" stroke="rgb(0,0,255)" stroke-width="0.25mm" /><defs /><polyline fill="none" fill-opacity="0" points="195.0,95.0 255.0,135.0 195.0,175.0 155.0,175.0 115.0,155.0 155.0,135.0 195.0,135.0 255.0,175.0 195.0,215.0" stroke="rgb(0,0,255)" stroke-width="0.25mm" /><defs /><text alignment-baseline="middle" fill="rgb(0,0,255)" fill-opacity="1" font-family="Verdana" font-size="18" text-anchor="middle" x="155.0" y="25.0">name</text><defs /><g id="pin_p"><rect fill="rgb(0,0,255)" fill-opacity="1" height="40.0" rx="0.0" ry="0.0" stroke="rgb(0,0,255)" stroke-width="0.25mm" width="40.0" x="15.0" y="135.0" /><defs /><g display="none" id="info"><text id="name">pin_p</text><text id="type">Modelica.Electrical.Analog.Interfaces.PositivePin</text><text id="classDesc">Positive pin of an electrical component</text><text id="desc">Positive pin</text></g></g><g id="pin_n"><rect fill="rgb(255,255,255)" fill-opacity="1" height="40.0" rx="0.0" ry="0.0" stroke="rgb(0,0,255)" stroke-width="0.25mm" width="40.0" x="15.0" y="135.0" /><defs /><g display="none" id="info"><text id="name">pin_n</text><text id="type">Modelica.Electrical.Analog.Interfaces.NegativePin</text><text id="classDesc">Negative pin of an electrical component</text><text id="desc">Negative pin</text></g></g><g id="port_n"><ellipse cx="35.0" cy="155.0" fill="rgb(255,255,255)" fill-opacity="1" rx="20.0" ry="20.0" stroke="rgb(255,170,85)" stroke-width="0.25mm" /><defs /><g display="none" id="info"><text id="name">port_n</text><text id="type">Modelica.Magnetic.QuasiStatic.FundamentalWave.Interfaces.NegativeMagneticPort</text><text id="classDesc">Negative quasi-static magnetic port of fundamental wave machines</text><text id="desc">Negative complex magnetic port</text></g></g><g id="port_p"><ellipse cx="35.0" cy="155.0" fill="rgb(255,170,85)" fill-opacity="1" rx="20.0" ry="20.0" stroke="rgb(255,170,85)" stroke-width="0.25mm" /><defs /><g display="none" id="info"><text id="name">port_p</text><text id="type">Modelica.Magnetic.QuasiStatic.FundamentalWave.Interfaces.PositiveMagneticPort</text><text id="classDesc">Positive quasi-static magnetic port of fundamental wave machines</text><text id="desc">Positive complex magnetic port</text></g></g><g id="heatPortWinding"><rect fill="rgb(191,0,0)" fill-opacity="1" height="40.0" rx="0.0" ry="0.0" stroke="rgb(191,0,0)" stroke-width="0.25mm" width="40.0" x="15.0" y="135.0" /><defs /><g display="none" id="info"><text id="name">heatPortWinding</text><text id="type">Modelica.Thermal.HeatTransfer.Interfaces.HeatPort_a</text><text id="classDesc">Thermal port for 1-dim. heat transfer (filled rectangular icon)</text><text id="desc">Heat ports of winding resistor</text></g></g></svg>