<?xml version="1.0" encoding="utf-8" ?>
<svg baseProfile="full" height="270.0" version="1.1" viewBox="0 0 310.0 270.0" width="310.0" xmlns="http://www.w3.org/2000/svg" xmlns:ev="http://www.w3.org/2001/xml-events" xmlns:xlink="http://www.w3.org/1999/xlink"><defs /><polyline fill="none" fill-opacity="0" points="105.0,265.0 125.0,245.0" stroke="rgb(0,127,0)" stroke-width="0.25mm" /><defs /><polyline fill="none" fill-opacity="0" points="125.0,265.0 145.0,245.0" stroke="rgb(0,127,0)" stroke-width="0.25mm" /><defs /><polyline fill="none" fill-opacity="0" points="145.0,265.0 165.0,245.0" stroke="rgb(0,127,0)" stroke-width="0.25mm" /><defs /><polyline fill="none" fill-opacity="0" points="165.0,265.0 185.0,245.0" stroke="rgb(0,127,0)" stroke-width="0.25mm" /><defs /><polyline fill="none" fill-opacity="0" points="125.0,245.0 185.0,245.0" stroke="rgb(0,127,0)" stroke-width="0.25mm" /><defs /><text dominant-baseline="middle" fill="rgb(0,0,255)" fill-opacity="1" font-family="Verdana" font-size="40.0" text-anchor="middle" x="155.0" y="25.0">name</text><defs /><text dominant-baseline="middle" fill="rgb(0,0,255)" fill-opacity="1" font-family="Verdana" font-size="40.0" text-anchor="middle" x="155.0" y="25.0">name</text><defs /><polygon fill="rgb(0,0,255)" fill-opacity="1" points="65.0,135.0 85.0,135.0 85.0,85.0 225.0,85.0 225.0,205.0 85.0,205.0 85.0,155.0 65.0,155.0 65.0,135.0" stroke="rgb(255,0,0)" stroke-width="0.5mm" /><defs /><rect fill="rgb(255,255,255)" fill-opacity="1" height="116.0" rx="0.0" ry="0.0" stroke="rgb(28,108,200)" stroke-width="0.25mm" width="82.0" x="141.0" y="87.0" /><defs /><rect fill="url(#0)" height="116.0" rx="0.0" ry="0.0" stroke="rgb(0,0,0)" stroke-width="0.5mm" width="10.0" x="131.0" y="87.0" /><defs><linearGradient id="0" x1="0%" x2="0%" y1="0%" y2="100%"><stop offset="0" stop-color="rgb(0, 0, 0)" stop-opacity="1" /><stop offset="0.3" stop-color="rgb(192, 192, 192)" stop-opacity="1" /><stop offset="0.7" stop-color="rgb(192, 192, 192)" stop-opacity="1" /><stop offset="1" stop-color="rgb(0, 0, 0)" stop-opacity="1" /></linearGradient></defs><rect fill="url(#1)" height="20.0" rx="0.0" ry="0.0" stroke="rgb(0,127,0)" stroke-width="0.5mm" width="104.0" x="141.0" y="135.0" /><defs><linearGradient id="1" x1="0%" x2="0%" y1="0%" y2="100%"><stop offset="0" stop-color="rgb(0, 127, 0)" stop-opacity="1" /><stop offset="0.3" stop-color="rgb(160, 215, 160)" stop-opacity="1" /><stop offset="0.7" stop-color="rgb(160, 215, 160)" stop-opacity="1" /><stop offset="1" stop-color="rgb(0, 127, 0)" stop-opacity="1" /></linearGradient></defs><polyline fill="none" fill-opacity="0" points="145.0,217.0 225.0,217.0" stroke="rgb(0,0,0)" stroke-width="0.25mm" /><defs /><polygon fill="rgb(128,128,128)" fill-opacity="1" points="115.0,217.0 145.0,207.0 145.0,227.0 115.0,217.0" stroke="rgb(128,128,128)" stroke-width="0.25mm" /><defs /><g id="flange"><rect fill="rgb(255,255,255)" fill-opacity="1" height="40.0" rx="0.0" ry="0.0" stroke="rgb(0,127,0)" stroke-width="0.25mm" width="40.0" x="15.0" y="125.0" /><defs /><g display="none" id="info"><text id="name">flange</text><text id="type">Modelica.Mechanics.Translational.Interfaces.Flange_b</text><text id="classDesc">One-dimensional translational flange (right, flange axis directed OUT OF cut plane)</text><text id="desc">Flange of component</text></g></g><g id="support"><rect fill="rgb(175,175,175)" fill-opacity="1" height="24.0" rx="0.0" ry="0.0" stroke="rgb(0,127,0)" stroke-width="0.25mm" width="24.0" x="23.0" y="133.0" /><defs /><rect fill="rgb(175,190,175)" fill-opacity="1" height="40.0" rx="0.0" ry="0.0" width="40.0" x="15.0" y="125.0" /><defs /><rect fill="rgb(0,127,0)" fill-opacity="1" height="24.0" rx="0.0" ry="0.0" stroke="rgb(0,127,0)" stroke-width="0.25mm" width="24.0" x="23.0" y="133.0" /><defs /><g display="none" id="info"><text id="name">support</text><text id="type">Modelica.Mechanics.Translational.Interfaces.Support</text><text id="classDesc">Support/housing flange of a one-dimensional translational component</text><text id="desc">Support/housing of component</text></g></g><g id="flowPort"><rect fill="rgb(255,255,255)" fill-opacity="1" height="40.0" rx="0.0" ry="0.0" stroke="rgb(255,0,0)" stroke-width="0.25mm" width="40.0" x="15.0" y="125.0" /><defs /><ellipse cx="35.0" cy="145.0" fill="rgb(0,0,255)" fill-opacity="1" rx="19.6" ry="19.6" stroke="rgb(0,0,255)" stroke-width="0.25mm" /><defs /><g display="none" id="info"><text id="name">flowPort</text><text id="type">Modelica.Thermal.FluidHeatFlow.Interfaces.FlowPort_a</text><text id="classDesc">Filled flow port (used upstream)</text><text id="desc" /></g></g></svg>