<?xml version="1.0" encoding="utf-8" ?>
<svg baseProfile="full" height="306.0" version="1.1" viewBox="0 0 310.0 306.0" width="310.0" xmlns="http://www.w3.org/2000/svg" xmlns:ev="http://www.w3.org/2001/xml-events" xmlns:xlink="http://www.w3.org/1999/xlink"><defs /><rect fill="rgb(255,255,255)" fill-opacity="1" height="200.0" rx="0.0" ry="0.0" stroke="rgb(0,0,127)" stroke-width="0.25mm" width="200.0" x="55.0" y="55.0" /><defs /><text dominant-baseline="middle" fill="rgb(0,0,255)" fill-opacity="1" font-family="Verdana" font-size="40.0" text-anchor="middle" x="155.0" y="25.0">name</text><defs /><polyline fill="none" fill-opacity="0" points="74.3103,77.3744 74.3103,245.37439999999998" stroke="rgb(192,192,192)" stroke-width="0.25mm" /><defs /><polygon fill="rgb(192,192,192)" fill-opacity="1" points="75.2956,64.3695 67.2956,86.3695 83.2956,86.3695 75.2956,64.3695" stroke="rgb(192,192,192)" stroke-width="0.25mm" /><defs /><polyline fill="none" fill-opacity="0" points="65.0,235.0 237.0,235.0" stroke="rgb(192,192,192)" stroke-width="0.25mm" /><defs /><polygon fill="rgb(192,192,192)" fill-opacity="1" points="245.0,235.0 223.0,227.0 223.0,243.0 245.0,235.0" stroke="rgb(192,192,192)" stroke-width="0.25mm" /><defs /><text dominant-baseline="middle" fill="rgb(192,192,192)" fill-opacity="1" font-family="Verdana" font-size="60.0" text-anchor="middle" x="185.0" y="185.0">PTn</text><defs /><path d="M 233.986 106.363 C 193.715 108.6975 153.44400000000002 111.03200000000001 135.74 126.985 135.74 126.985 118.036 142.938 111.518 178.969 111.518 178.969 105.0 215.0 90.0 225.0 90.0 225.0 75.0 235.0 75.0 235.0" fill="none" fill-opacity="0" stroke="rgb(0,0,127)" stroke-width="0.25mm" /><defs /><text dominant-baseline="middle" fill="rgb(192,192,192)" fill-opacity="1" font-family="Verdana" font-size="46.0" text-anchor="middle" x="133.0" y="84.0">n</text><defs /><text dominant-baseline="middle" fill="rgb(0,0,0)" fill-opacity="1" font-family="Verdana" font-size="40.0" text-anchor="middle" x="163.0" y="281.0">f=f</text><defs /><g id="u"><polygon fill="rgb(0,0,127)" fill-opacity="1" points="15.0,135.0 55.0,155.0 15.0,175.0" stroke="rgb(0,0,127)" stroke-width="0.25mm" /><defs /><g display="none" id="info"><text id="name">u</text><text id="type">Modelica.Blocks.Interfaces.RealInput</text><text id="classDesc">'input Real' as connector</text><text id="desc">Connector of Real input signal</text></g></g><g id="y"><polygon fill="rgb(255,255,255)" fill-opacity="1" points="15.0,135.0 55.0,155.0 15.0,175.0" stroke="rgb(0,0,127)" stroke-width="0.25mm" /><defs /><g display="none" id="info"><text id="name">y</text><text id="type">Modelica.Blocks.Interfaces.RealOutput</text><text id="classDesc">'output Real' as connector</text><text id="desc">Connector of Real output signal</text></g></g></svg>