<?xml version="1.0" encoding="utf-8" ?>
<svg baseProfile="full" height="210" version="1.1" viewBox="0 0 310.0 210" width="310.0" xmlns="http://www.w3.org/2000/svg" xmlns:ev="http://www.w3.org/2001/xml-events" xmlns:xlink="http://www.w3.org/1999/xlink"><defs /><ellipse cx="155.0" cy="105.0" fill="rgb(255,255,255)" fill-opacity="1" rx="50.0" ry="50.0" stroke="rgb(0,0,255)" stroke-width="0.25mm" /><defs /><text alignment-baseline="middle" fill="rgb(0,0,255)" fill-opacity="1" font-family="Verdana" font-size="18" text-anchor="middle" x="155.0" y="25.0">name</text><defs /><polyline fill="none" fill-opacity="0" points="65.0,105.0 245.0,105.0" stroke="rgb(0,0,255)" stroke-width="0.25mm" /><defs /><polyline fill="none" fill-opacity="0" points="75.0,85.0 95.0,85.0" stroke="rgb(0,0,255)" stroke-width="0.25mm" /><defs /><polyline fill="none" fill-opacity="0" points="85.0,75.0 85.0,95.0" stroke="rgb(0,0,255)" stroke-width="0.25mm" /><defs /><polyline fill="none" fill-opacity="0" points="215.0,85.0 235.0,85.0" stroke="rgb(0,0,255)" stroke-width="0.25mm" /><defs /><polyline fill="none" fill-opacity="0" points="89.0,105.0 98.8,75.1 105.2,58.5 110.8,46.9 115.7,39.8 120.7,35.8 125.6,35.2 130.5,38.0 135.4,44.0 140.4,53.0 146.0,66.4 153.02,86.4 167.79,131.9 174.1,149.0 179.8,161.2 184.7,169.0 189.6,173.6 194.5,175.0 199.5,172.9 204.4,167.5 209.3,159.1 214.9,146.3 222.0,126.7 229.0,105.0" stroke="rgb(192,192,192)" stroke-width="0.25mm" /><defs /><g id="p"><rect fill="rgb(0,0,255)" fill-opacity="1" height="40.0" rx="0.0" ry="0.0" stroke="rgb(0,0,255)" stroke-width="0.25mm" width="40.0" x="15.0" y="85.0" /><defs /><g display="none" id="info"><text id="name">p</text><text id="type">Modelica.Electrical.Analog.Interfaces.PositivePin</text><text id="classDesc">Positive pin of an electrical component</text><text id="desc">Positive electrical pin</text></g></g><g id="n"><rect fill="rgb(255,255,255)" fill-opacity="1" height="40.0" rx="0.0" ry="0.0" stroke="rgb(0,0,255)" stroke-width="0.25mm" width="40.0" x="15.0" y="85.0" /><defs /><g display="none" id="info"><text id="name">n</text><text id="type">Modelica.Electrical.Analog.Interfaces.NegativePin</text><text id="classDesc">Negative pin of an electrical component</text><text id="desc">Negative electrical pin</text></g></g></svg>