<?xml version="1.0" encoding="utf-8" ?>
<svg baseProfile="full" height="309.0" version="1.1" viewBox="0 0 310.0 309.0" width="310.0" xmlns="http://www.w3.org/2000/svg" xmlns:ev="http://www.w3.org/2001/xml-events" xmlns:xlink="http://www.w3.org/1999/xlink"><defs /><text dominant-baseline="middle" fill="rgb(0,0,0)" fill-opacity="1" font-family="Verdana" font-size="40.0" text-anchor="middle" x="155.0" y="284.0">m=m</text><defs /><polyline fill="none" fill-opacity="0" points="115.0,94.0 115.0,54.0 65.0,54.0" stroke="rgb(0,0,255)" stroke-width="0.25mm" /><defs /><polyline fill="none" fill-opacity="0" points="195.0,94.0 195.0,54.0 245.0,54.0" stroke="rgb(0,0,255)" stroke-width="0.25mm" /><defs /><polyline fill="none" fill-opacity="0" points="115.0,214.0 115.0,254.0 65.0,254.0" stroke="rgb(0,0,255)" stroke-width="0.25mm" /><defs /><polyline fill="none" fill-opacity="0" points="195.0,214.0 195.0,254.0 245.0,254.0" stroke="rgb(0,0,255)" stroke-width="0.25mm" /><defs /><path d="M 115.00208477336805 93.99902728217691 C 118.0020152542026 94.49944421850074 121.00194573503717 94.99986115482459 125.00145926506123 98.50041704255935 125.00145926506123 98.50041704255935 129.0009727950853 102.00097293029411 128.9999999323956 109.00097286268971 128.9999999323956 109.00097286268971 128.9990270697059 116.00097279508529 124.99854067699215 119.50041683974611 124.99854067699215 119.50041683974611 120.99805428427838 122.99986088440693 117.99798482305958 123.49944393842532 117.99798482305958 123.49944393842532 114.99791536184078 123.9990269924437 114.99791536184078 123.9990269924437" fill="none" fill-opacity="0" stroke="rgb(0,0,255)" stroke-width="0.25mm" /><defs /><path d="M 115.00208477336805 123.99902728217691 C 118.0020152542026 124.49944421850074 121.00194573503717 124.99986115482459 125.00145926506123 128.50041704255935 125.00145926506123 128.50041704255935 129.0009727950853 132.0009729302941 128.9999999323956 139.0009728626897 128.9999999323956 139.0009728626897 128.9990270697059 146.0009727950853 124.99854067699215 149.5004168397461 124.99854067699215 149.5004168397461 120.99805428427838 152.99986088440693 117.99798482305958 153.49944393842532 117.99798482305958 153.49944393842532 114.99791536184078 153.9990269924437 114.99791536184078 153.9990269924437" fill="none" fill-opacity="0" stroke="rgb(0,0,255)" stroke-width="0.25mm" /><defs /><path d="M 115.00208477336805 153.9990272821769 C 118.0020152542026 154.49944421850074 121.00194573503717 154.9998611548246 125.00145926506123 158.50041704255938 125.00145926506123 158.50041704255938 129.0009727950853 162.00097293029413 128.9999999323956 169.0009728626897 128.9999999323956 169.0009728626897 128.9990270697059 176.0009727950853 124.99854067699215 179.5004168397461 124.99854067699215 179.5004168397461 120.99805428427838 182.99986088440693 117.99798482305958 183.49944393842532 117.99798482305958 183.49944393842532 114.99791536184078 183.9990269924437 114.99791536184078 183.9990269924437" fill="none" fill-opacity="0" stroke="rgb(0,0,255)" stroke-width="0.25mm" /><defs /><path d="M 115.00208477336805 183.9990272821769 C 118.0020152542026 184.49944421850074 121.00194573503717 184.9998611548246 125.00145926506123 188.50041704255935 125.00145926506123 188.50041704255935 129.0009727950853 192.0009729302941 128.9999999323956 199.0009728626897 128.9999999323956 199.0009728626897 128.9990270697059 206.0009727950853 124.99854067699215 209.5004168397461 124.99854067699215 209.5004168397461 120.99805428427838 212.99986088440693 117.99798482305958 213.49944393842532 117.99798482305958 213.49944393842532 114.99791536184078 213.9990269924437 114.99791536184078 213.9990269924437" fill="none" fill-opacity="0" stroke="rgb(0,0,255)" stroke-width="0.25mm" /><defs /><path d="M 194.9993050905652 124.00032427146787 C 191.9993282571819 123.50018529161977 188.9993514237986 123.00004631177168 184.99951357187302 119.49986100834796 184.99951357187302 119.49986100834796 180.99967571994745 115.99967570492424 181.0000000075116 108.99967571243585 181.0000000075116 108.99967571243585 181.00032429507576 101.99967571994745 185.0004864345655 98.49986103088277 185.0004864345655 98.49986103088277 189.00064857405522 95.00004634181809 192.0006717342334 94.50018532273927 192.0006717342334 94.50018532273927 195.0006948944116 94.00032430366045 195.0006948944116 94.00032430366045" fill="none" fill-opacity="0" stroke="rgb(0,0,255)" stroke-width="0.25mm" /><defs /><path d="M 194.9993050905652 154.00032427146786 C 191.9993282571819 153.50018529161977 188.9993514237986 153.00004631177168 184.99951357187302 149.49986100834798 184.99951357187302 149.49986100834798 180.99967571994745 145.99967570492424 181.0000000075116 138.99967571243585 181.0000000075116 138.99967571243585 181.00032429507576 131.99967571994745 185.0004864345655 128.49986103088276 185.0004864345655 128.49986103088276 189.00064857405522 125.00004634181809 192.0006717342334 124.50018532273927 192.0006717342334 124.50018532273927 195.0006948944116 124.00032430366045 195.0006948944116 124.00032430366045" fill="none" fill-opacity="0" stroke="rgb(0,0,255)" stroke-width="0.25mm" /><defs /><path d="M 194.9993050905652 184.00032427146786 C 191.9993282571819 183.50018529161977 188.9993514237986 183.00004631177168 184.99951357187302 179.49986100834798 184.99951357187302 179.49986100834798 180.99967571994745 175.99967570492424 181.0000000075116 168.99967571243585 181.0000000075116 168.99967571243585 181.00032429507576 161.99967571994745 185.0004864345655 158.49986103088276 185.0004864345655 158.49986103088276 189.00064857405522 155.0000463418181 192.0006717342334 154.50018532273927 192.0006717342334 154.50018532273927 195.0006948944116 154.00032430366045 195.0006948944116 154.00032430366045" fill="none" fill-opacity="0" stroke="rgb(0,0,255)" stroke-width="0.25mm" /><defs /><path d="M 194.9993050905652 214.0003242714679 C 191.9993282571819 213.5001852916198 188.9993514237986 213.00004631177168 184.99951357187302 209.49986100834798 184.99951357187302 209.49986100834798 180.99967571994745 205.99967570492424 181.0000000075116 198.99967571243585 181.0000000075116 198.99967571243585 181.00032429507576 191.99967571994745 185.0004864345655 188.49986103088276 185.0004864345655 188.49986103088276 189.00064857405522 185.0000463418181 192.0006717342334 184.50018532273927 192.0006717342334 184.50018532273927 195.0006948944116 184.00032430366045 195.0006948944116 184.00032430366045" fill="none" fill-opacity="0" stroke="rgb(0,0,255)" stroke-width="0.25mm" /><defs /><text dominant-baseline="middle" fill="rgb(0,0,255)" fill-opacity="1" font-family="Verdana" font-size="40.0" text-anchor="middle" x="75.0" y="154.0">1</text><defs /><text dominant-baseline="middle" fill="rgb(0,0,255)" fill-opacity="1" font-family="Verdana" font-size="40.0" text-anchor="middle" x="235.0" y="154.0">2</text><defs /><text dominant-baseline="middle" fill="rgb(0,0,255)" fill-opacity="1" font-family="Verdana" font-size="40.0" text-anchor="middle" x="155.0" y="25.0">name</text><defs /><g id="plug_p1"><ellipse cx="35.0" cy="154.0" fill="rgb(0,0,255)" fill-opacity="1" rx="20.0" ry="20.0" stroke="rgb(0,0,255)" stroke-width="0.25mm" /><defs /><g display="none" id="info"><text id="name">plug_p1</text><text id="type">Modelica.Electrical.MultiPhase.Interfaces.PositivePlug</text><text id="classDesc">Positive polyphase electrical plug with m pins</text><text id="desc">Positive electrical polyphase plug of port 1 with m pins</text></g></g><g id="plug_p2"><ellipse cx="35.0" cy="154.0" fill="rgb(0,0,255)" fill-opacity="1" rx="20.0" ry="20.0" stroke="rgb(0,0,255)" stroke-width="0.25mm" /><defs /><g display="none" id="info"><text id="name">plug_p2</text><text id="type">Modelica.Electrical.MultiPhase.Interfaces.PositivePlug</text><text id="classDesc">Positive polyphase electrical plug with m pins</text><text id="desc">Positive electrical polyphase plug of port 2 with m pins</text></g></g><g id="plug_n1"><ellipse cx="35.0" cy="154.0" fill="rgb(255,255,255)" fill-opacity="1" rx="20.0" ry="20.0" stroke="rgb(0,0,255)" stroke-width="0.25mm" /><defs /><g display="none" id="info"><text id="name">plug_n1</text><text id="type">Modelica.Electrical.MultiPhase.Interfaces.NegativePlug</text><text id="classDesc">Negative polyphase electrical plug with m pins</text><text id="desc">Negative electrical polyphase plug of port 1 with m pins</text></g></g><g id="plug_n2"><ellipse cx="35.0" cy="154.0" fill="rgb(255,255,255)" fill-opacity="1" rx="20.0" ry="20.0" stroke="rgb(0,0,255)" stroke-width="0.25mm" /><defs /><g display="none" id="info"><text id="name">plug_n2</text><text id="type">Modelica.Electrical.MultiPhase.Interfaces.NegativePlug</text><text id="classDesc">Negative polyphase electrical plug with m pins</text><text id="desc">Negative electrical polyphase plug of port 2 with m pins</text></g></g></svg>