<?xml version="1.0" encoding="utf-8" ?>
<svg baseProfile="full" height="210.0" version="1.1" viewBox="0 0 310.0 210.0" width="310.0" xmlns="http://www.w3.org/2000/svg" xmlns:ev="http://www.w3.org/2001/xml-events" xmlns:xlink="http://www.w3.org/1999/xlink"><defs /><rect fill="rgb(245,245,245)" fill-opacity="1" height="80.0" rx="0.0" ry="0.0" stroke="rgb(0,0,0)" stroke-width="0.25mm" width="140.0" x="85.0" y="85.0" /><defs /><polygon fill="rgb(0,0,0)" fill-opacity="1" points="155.0,145.0 145.0,121.0 165.0,121.0 155.0,145.0" /><defs /><polyline fill="none" fill-opacity="0" points="155.0,105.0 155.0,121.0" stroke="rgb(0,0,0)" stroke-width="0.25mm" /><defs /><polyline fill="none" fill-opacity="0" points="85.0,105.0 155.0,105.0" stroke="rgb(0,0,0)" stroke-width="0.25mm" /><defs /><polyline fill="none" fill-opacity="0" points="105.0,145.0 105.0,165.0" stroke="rgb(0,0,0)" stroke-width="0.25mm" /><defs /><polyline fill="none" fill-opacity="0" points="125.0,145.0 125.0,165.0" stroke="rgb(0,0,0)" stroke-width="0.25mm" /><defs /><polyline fill="none" fill-opacity="0" points="145.0,145.0 145.0,165.0" stroke="rgb(0,0,0)" stroke-width="0.25mm" /><defs /><polyline fill="none" fill-opacity="0" points="165.0,145.0 165.0,165.0" stroke="rgb(0,0,0)" stroke-width="0.25mm" /><defs /><polyline fill="none" fill-opacity="0" points="185.0,145.0 185.0,165.0" stroke="rgb(0,0,0)" stroke-width="0.25mm" /><defs /><polyline fill="none" fill-opacity="0" points="205.0,145.0 205.0,165.0" stroke="rgb(0,0,0)" stroke-width="0.25mm" /><defs /><polyline fill="none" fill-opacity="0" points="55.0,195.0 135.0,195.0" stroke="rgb(95,127,95)" stroke-width="0.25mm" /><defs /><polygon fill="rgb(95,127,95)" fill-opacity="1" points="165.0,195.0 135.0,185.0 135.0,205.0 165.0,195.0" stroke="rgb(95,127,95)" stroke-width="0.25mm" /><defs /><polyline fill="none" fill-opacity="0" points="85.0,105.0 55.0,105.0" stroke="rgb(0,127,0)" stroke-width="0.25mm" /><defs /><polyline fill="none" fill-opacity="0" points="225.0,105.0 255.0,105.0" stroke="rgb(0,0,127)" stroke-width="0.25mm" /><defs /><text alignment-baseline="middle" fill="rgb(0,0,255)" fill-opacity="1" font-family="Verdana" font-size="18" text-anchor="middle" x="155.0" y="45.0">name</text><defs /><text alignment-baseline="middle" fill="rgb(0,0,0)" fill-opacity="1" font-family="Verdana" font-size="18" text-anchor="middle" x="252.5" y="149.0">a</text><defs /><g id="flange"><rect fill="rgb(0,127,0)" fill-opacity="1" height="40.0" rx="0.0" ry="0.0" stroke="rgb(0,127,0)" stroke-width="0.25mm" width="40.0" x="15.0" y="85.0" /><defs /><g display="none" id="info"><text id="name">flange</text><text id="type">Modelica.Mechanics.Translational.Interfaces.Flange_a</text><text id="classDesc">One-dimensional translational flange (left, flange axis directed INTO cut plane)</text><text id="desc">Flange to be measured (flange axis directed in to cut plane, e. g. from left to right)</text></g></g><g id="a"><polygon fill="rgb(255,255,255)" fill-opacity="1" points="15.0,85.0 55.0,105.0 15.0,125.0" stroke="rgb(0,0,127)" stroke-width="0.25mm" /><defs /><g display="none" id="info"><text id="name">a</text><text id="type">Modelica.Blocks.Interfaces.RealOutput</text><text id="classDesc">'output Real' as connector</text><text id="desc">Absolute acceleration of flange as output signal</text></g></g></svg>