<?xml version="1.0" encoding="utf-8" ?>
<svg baseProfile="full" height="305.0" version="1.1" viewBox="0 0 310.0 305.0" width="310.0" xmlns="http://www.w3.org/2000/svg" xmlns:ev="http://www.w3.org/2001/xml-events" xmlns:xlink="http://www.w3.org/1999/xlink"><defs /><text dominant-baseline="middle" fill="rgb(0,0,255)" fill-opacity="1" font-family="Verdana" font-size="40.0" text-anchor="middle" x="155.0" y="25.0">name</text><defs /><polyline fill="none" fill-opacity="0" points="125.0,55.0 65.0,55.0" stroke="rgb(0,0,255)" stroke-width="0.25mm" /><defs /><polyline fill="none" fill-opacity="0" points="125.0,255.0 65.0,255.0" stroke="rgb(0,0,255)" stroke-width="0.25mm" /><defs /><polyline fill="none" fill-opacity="0" points="155.0,75.0 55.0,75.0" stroke="rgb(0,0,255)" stroke-dasharray="4.0 2.0" stroke-width="0.25mm" /><defs /><polyline fill="none" fill-opacity="0" points="55.0,75.0 55.0,235.0" stroke="rgb(0,0,255)" stroke-dasharray="4.0 2.0" stroke-width="0.25mm" /><defs /><polyline fill="none" fill-opacity="0" points="155.0,235.0 55.0,235.0" stroke="rgb(0,0,255)" stroke-dasharray="4.0 2.0" stroke-width="0.25mm" /><defs /><polyline fill="none" fill-opacity="0" points="255.0,75.0 155.0,75.0" stroke="rgb(255,127,0)" stroke-dasharray="4.0 2.0" stroke-width="0.25mm" /><defs /><polyline fill="none" fill-opacity="0" points="255.0,235.0 155.0,235.0" stroke="rgb(255,127,0)" stroke-dasharray="4.0 2.0" stroke-width="0.25mm" /><defs /><polyline fill="none" fill-opacity="0" points="255.0,75.0 255.0,235.0" stroke="rgb(255,127,0)" stroke-dasharray="4.0 2.0" stroke-width="0.25mm" /><defs /><ellipse cx="185.0" cy="155.0" fill="none" fill-opacity="0" rx="34.0" ry="34.0" stroke="rgb(255,127,0)" stroke-width="0.25mm" /><defs /><polyline fill="none" fill-opacity="0" points="185.0,255.0 185.0,189.0" stroke="rgb(255,127,0)" stroke-width="0.25mm" /><defs /><polyline fill="none" fill-opacity="0" points="173.0,155.0 197.0,155.0" stroke="rgb(255,127,0)" stroke-width="0.25mm" /><defs /><polyline fill="none" fill-opacity="0" points="197.0,145.0 197.0,167.0" stroke="rgb(255,127,0)" stroke-width="0.25mm" /><defs /><polyline fill="none" fill-opacity="0" points="185.0,121.0 185.0,55.0" stroke="rgb(255,127,0)" stroke-width="0.25mm" /><defs /><polyline fill="none" fill-opacity="0" points="185.0,55.0 245.0,55.0" stroke="rgb(255,127,0)" stroke-width="0.25mm" /><defs /><polyline fill="none" fill-opacity="0" points="185.0,255.0 245.0,255.0" stroke="rgb(255,127,0)" stroke-width="0.25mm" /><defs /><text dominant-baseline="middle" fill="rgb(0,0,255)" fill-opacity="1" font-family="Verdana" font-size="40.0" text-anchor="middle" x="155.0" y="25.0">name</text><defs /><polyline fill="none" fill-opacity="0" points="173.0,145.0 173.0,167.0" stroke="rgb(255,127,0)" stroke-width="0.25mm" /><defs /><polyline fill="none" fill-opacity="0" points="45.0,125.0 45.0,185.0" stroke="rgb(0,0,255)" stroke-width="0.25mm" /><defs /><polygon fill="rgb(0,0,255)" fill-opacity="1" points="45.0,185.0 51.0,165.0 39.0,165.0 45.0,185.0" stroke="rgb(0,0,255)" stroke-width="0.25mm" /><defs /><polyline fill="none" fill-opacity="0" points="265.0,123.0 265.0,183.0" stroke="rgb(255,128,0)" stroke-width="0.25mm" /><defs /><polygon fill="rgb(255,128,0)" fill-opacity="1" points="265.0,183.0 271.0,163.0 259.0,163.0 265.0,183.0" stroke="rgb(255,128,0)" stroke-width="0.25mm" /><defs /><path d="M 125.00208477336805 94.99902728217691 C 128.0020152542026 95.49944421850074 131.00194573503717 95.99986115482459 135.00145926506121 99.50041704255935 135.00145926506121 99.50041704255935 139.0009727950853 103.00097293029411 138.9999999323956 110.00097286268971 138.9999999323956 110.00097286268971 138.9990270697059 117.00097279508529 134.99854067699215 120.50041683974611 134.99854067699215 120.50041683974611 130.9980542842784 123.99986088440693 127.9979848230596 124.49944393842532 127.9979848230596 124.49944393842532 124.99791536184078 124.9990269924437 124.99791536184078 124.9990269924437" fill="none" fill-opacity="0" stroke="rgb(0,0,255)" stroke-width="0.25mm" /><defs /><path d="M 125.00208477336805 124.99902728217691 C 128.0020152542026 125.49944421850074 131.00194573503717 125.99986115482459 135.00145926506121 129.50041704255935 135.00145926506121 129.50041704255935 139.0009727950853 133.0009729302941 138.9999999323956 140.0009728626897 138.9999999323956 140.0009728626897 138.9990270697059 147.0009727950853 134.99854067699215 150.5004168397461 134.99854067699215 150.5004168397461 130.9980542842784 153.99986088440693 127.9979848230596 154.49944393842532 127.9979848230596 154.49944393842532 124.99791536184078 154.9990269924437 124.99791536184078 154.9990269924437" fill="none" fill-opacity="0" stroke="rgb(0,0,255)" stroke-width="0.25mm" /><defs /><path d="M 125.00208477336805 154.9990272821769 C 128.0020152542026 155.49944421850074 131.00194573503717 155.9998611548246 135.00145926506121 159.50041704255938 135.00145926506121 159.50041704255938 139.0009727950853 163.00097293029413 138.9999999323956 170.0009728626897 138.9999999323956 170.0009728626897 138.9990270697059 177.0009727950853 134.99854067699215 180.5004168397461 134.99854067699215 180.5004168397461 130.9980542842784 183.99986088440693 127.9979848230596 184.49944393842532 127.9979848230596 184.49944393842532 124.99791536184078 184.9990269924437 124.99791536184078 184.9990269924437" fill="none" fill-opacity="0" stroke="rgb(0,0,255)" stroke-width="0.25mm" /><defs /><path d="M 125.00208477336805 184.9990272821769 C 128.0020152542026 185.49944421850074 131.00194573503717 185.9998611548246 135.00145926506121 189.50041704255935 135.00145926506121 189.50041704255935 139.0009727950853 193.0009729302941 138.9999999323956 200.0009728626897 138.9999999323956 200.0009728626897 138.9990270697059 207.0009727950853 134.99854067699215 210.5004168397461 134.99854067699215 210.5004168397461 130.9980542842784 213.99986088440693 127.9979848230596 214.49944393842532 127.9979848230596 214.49944393842532 124.99791536184078 214.9990269924437 124.99791536184078 214.9990269924437" fill="none" fill-opacity="0" stroke="rgb(0,0,255)" stroke-width="0.25mm" /><defs /><polyline fill="none" fill-opacity="0" points="125.0,95.0 125.0,55.0" stroke="rgb(28,108,200)" stroke-width="0.25mm" /><defs /><polyline fill="none" fill-opacity="0" points="125.0,255.0 125.0,215.0" stroke="rgb(28,108,200)" stroke-width="0.25mm" /><defs /><g id="port_p"><rect fill="rgb(255,127,0)" fill-opacity="1" height="40.0" rx="0.0" ry="0.0" stroke="rgb(255,127,0)" stroke-width="0.25mm" width="40.0" x="15.0" y="135.0" /><defs /><g display="none" id="info"><text id="name">port_p</text><text id="type">Modelica.Magnetic.FluxTubes.Interfaces.PositiveMagneticPort</text><text id="classDesc">Positive magnetic port</text><text id="desc">Positive magnetic port</text></g></g><g id="port_n"><rect fill="rgb(255,255,255)" fill-opacity="1" height="40.0" rx="0.0" ry="0.0" stroke="rgb(255,127,0)" stroke-width="0.25mm" width="40.0" x="15.0" y="135.0" /><defs /><g display="none" id="info"><text id="name">port_n</text><text id="type">Modelica.Magnetic.FluxTubes.Interfaces.NegativeMagneticPort</text><text id="classDesc">Negative magnetic port</text><text id="desc">Negative magnetic port</text></g></g><g id="p"><rect fill="rgb(0,0,255)" fill-opacity="1" height="40.0" rx="0.0" ry="0.0" stroke="rgb(0,0,255)" stroke-width="0.25mm" width="40.0" x="15.0" y="135.0" /><defs /><g display="none" id="info"><text id="name">p</text><text id="type">Modelica.Electrical.Analog.Interfaces.PositivePin</text><text id="classDesc">Positive pin of an electrical component</text><text id="desc">Positive electrical pin</text></g></g><g id="n"><rect fill="rgb(255,255,255)" fill-opacity="1" height="40.0" rx="0.0" ry="0.0" stroke="rgb(0,0,255)" stroke-width="0.25mm" width="40.0" x="15.0" y="135.0" /><defs /><g display="none" id="info"><text id="name">n</text><text id="type">Modelica.Electrical.Analog.Interfaces.NegativePin</text><text id="classDesc">Negative pin of an electrical component</text><text id="desc">Negative electrical pin</text></g></g></svg>