<?xml version="1.0" encoding="utf-8" ?>
<svg baseProfile="full" height="210.0" version="1.1" viewBox="0 0 210.0 210.0" width="210.0" xmlns="http://www.w3.org/2000/svg" xmlns:ev="http://www.w3.org/2001/xml-events" xmlns:xlink="http://www.w3.org/1999/xlink"><defs /><rect fill="url(#0)" height="200.0" rx="25.0" ry="25.0" stroke="rgb(200,200,200)" stroke-width="0.25mm" width="200.0" x="5.0" y="5.0" /><defs><linearGradient id="0" x1="0%" x2="0%" y1="0%" y2="100%"><stop offset="0" stop-color="rgb(200, 200, 200)" stop-opacity="1" /><stop offset="0.3" stop-color="rgb(248, 248, 248)" stop-opacity="1" /><stop offset="0.7" stop-color="rgb(248, 248, 248)" stop-opacity="1" /><stop offset="1" stop-color="rgb(200, 200, 200)" stop-opacity="1" /></linearGradient></defs><rect fill="none" fill-opacity="0" height="200.0" rx="25.0" ry="25.0" stroke="rgb(128,128,128)" stroke-width="0.25mm" width="200.0" x="5.0" y="5.0" /><defs /><path d="M 25.0 105.0 C 30.65 87.9 36.3 70.8 39.9 61.349999999999994 39.9 61.349999999999994 43.5 51.9 46.7 45.25 46.7 45.25 49.9 38.599999999999994 52.75 34.5 52.75 34.5 55.6 30.400000000000006 58.400000000000006 28.150000000000006 58.400000000000006 28.150000000000006 61.2 25.900000000000006 64.0 25.550000000000004 64.0 25.550000000000004 66.8 25.200000000000003 69.6 26.800000000000004 69.6 26.800000000000004 72.4 28.400000000000006 75.25 31.85 75.25 31.85 78.1 35.3 80.9 40.45 80.9 40.45 83.7 45.6 86.9 53.25 86.9 53.25 90.1 60.9 94.13499999999999 72.35 94.13499999999999 72.35 98.17 83.8 106.63499999999999 109.80000000000001 106.63499999999999 109.80000000000001 115.1 135.8 118.69999999999999 145.5 118.69999999999999 145.5 122.3 155.2 125.5 162.2 125.5 162.2 128.7 169.2 131.5 173.64999999999998 131.5 173.64999999999998 134.3 178.1 137.15 180.75 137.15 180.75 140.0 183.4 142.8 184.2 142.8 184.2 145.6 185.0 148.39999999999998 183.8 148.39999999999998 183.8 151.2 182.6 154.05 179.55 154.05 179.55 156.9 176.5 159.7 171.7 159.7 171.7 162.5 166.9 165.7 159.55 165.7 159.55 168.9 152.2 172.95 141.0 172.95 141.0 177.0 129.8 181.0 117.4 181.0 117.4 185.0 105.0 185.0 105.0" fill="none" fill-opacity="0" stroke="rgb(0,0,0)" stroke-width="0.25mm" /><defs /></svg>