<?xml version="1.0" encoding="utf-8" ?>
<svg baseProfile="full" height="236.0" version="1.1" viewBox="0 0 271.0 236.0" width="271.0" xmlns="http://www.w3.org/2000/svg" xmlns:ev="http://www.w3.org/2001/xml-events" xmlns:xlink="http://www.w3.org/1999/xlink"><defs /><rect fill="none" fill-opacity="0" height="204.0" rx="0.0" ry="0.0" stroke="rgb(255,0,0)" stroke-dasharray="8.0 4.0" stroke-width="0.5mm" width="204.0" x="35.0" y="27.0" /><defs /><ellipse cx="137.0" cy="129.0" fill="rgb(245,245,245)" fill-opacity="1" rx="70.0" ry="70.0" stroke="rgb(0,0,0)" stroke-width="0.25mm" /><defs /><polyline fill="none" fill-opacity="0" points="137.0,59.0 137.0,89.0" stroke="rgb(0,0,0)" stroke-width="0.25mm" /><defs /><polyline fill="none" fill-opacity="0" points="159.9,96.2 177.2,71.7" stroke="rgb(0,0,0)" stroke-width="0.25mm" /><defs /><polyline fill="none" fill-opacity="0" points="114.1,96.2 96.8,71.7" stroke="rgb(0,0,0)" stroke-width="0.25mm" /><defs /><polyline fill="none" fill-opacity="0" points="174.6,115.3 202.8,105.1" stroke="rgb(0,0,0)" stroke-width="0.25mm" /><defs /><polyline fill="none" fill-opacity="0" points="99.4,115.3 71.2,105.1" stroke="rgb(0,0,0)" stroke-width="0.25mm" /><defs /><ellipse cx="137.0" cy="129.0" fill="none" fill-opacity="0" rx="12.0" ry="12.0" stroke="rgb(64,64,64)" stroke-width="0.25mm" /><defs /><polygon fill="rgb(64,64,64)" fill-opacity="1" points="132.23140170268132,127.49651395789338 153.13439318635196,71.17542601533324 156.54531854738605,67.00822213485722 156.9492718242069,72.37821484901855 141.76859829731868,130.50348604210663" /><defs /><ellipse cx="137.0" cy="129.0" fill="rgb(64,64,64)" fill-opacity="1" rx="7.0" ry="7.0" /><defs /><polyline fill="none" fill-opacity="0" points="67.0,129.0 36.0,129.0" stroke="rgb(0,0,0)" stroke-width="0.25mm" /><defs /><polyline fill="none" fill-opacity="0" points="207.0,129.0 237.0,129.0" stroke="rgb(0,0,0)" stroke-width="0.25mm" /><defs /><polyline fill="none" fill-opacity="0" points="57.0,229.0 57.0,129.0" stroke="rgb(0,0,127)" stroke-width="0.25mm" /><defs /><text dominant-baseline="middle" fill="rgb(0,0,255)" fill-opacity="1" font-family="Verdana" font-size="48.0" text-anchor="middle" x="135.5" y="29.0">name</text><defs /><text dominant-baseline="middle" fill="rgb(128,128,128)" fill-opacity="1" font-family="Verdana" font-size="25.0" text-anchor="middle" x="37.0" y="86.5">a</text><defs /><text dominant-baseline="middle" fill="rgb(128,128,128)" fill-opacity="1" font-family="Verdana" font-size="25.0" text-anchor="middle" x="238.0" y="86.5">b</text><defs /><text dominant-baseline="middle" fill="rgb(192,192,192)" fill-opacity="1" font-family="Verdana" font-size="25.0" text-anchor="middle" x="171.5" y="213.5">resolve</text><defs /><polyline fill="none" fill-opacity="0" points="217.0,129.0 217.0,229.0" stroke="rgb(95,95,95)" stroke-dasharray="1.0 2.0" stroke-width="0.25mm" /><defs /></svg>