<?xml version="1.0" encoding="utf-8" ?>
<svg baseProfile="full" height="210.0" version="1.1" viewBox="0 0 210.0 210.0" width="210.0" xmlns="http://www.w3.org/2000/svg" xmlns:ev="http://www.w3.org/2001/xml-events" xmlns:xlink="http://www.w3.org/1999/xlink"><defs /><rect fill="url(#0)" height="200.0" rx="25.0" ry="25.0" stroke="rgb(200,200,200)" stroke-width="0.25mm" width="200.0" x="5.0" y="5.0" /><defs><linearGradient id="0" x1="0%" x2="0%" y1="0%" y2="100%"><stop offset="0" stop-color="rgb(200, 200, 200)" stop-opacity="1" /><stop offset="0.3" stop-color="rgb(248, 248, 248)" stop-opacity="1" /><stop offset="0.7" stop-color="rgb(248, 248, 248)" stop-opacity="1" /><stop offset="1" stop-color="rgb(200, 200, 200)" stop-opacity="1" /></linearGradient></defs><rect fill="none" fill-opacity="0" height="200.0" rx="25.0" ry="25.0" stroke="rgb(128,128,128)" stroke-width="0.25mm" width="200.0" x="5.0" y="5.0" /><defs /><path d="M 25.0 145.0 C 25.0 145.0 25.0 145.0 37.5 100.0 37.5 100.0 50.0 55.0 51.25 48.75 51.25 48.75 52.5 42.5 46.25 43.75 46.25 43.75 40.0 45.0 40.0 42.5 40.0 42.5 40.0 40.0 55.0 33.75 55.0 33.75 70.0 27.5 71.25 36.25 71.25 36.25 72.5 45.0 63.75 75.0 63.75 75.0 55.0 105.0 55.0 105.0 55.0 105.0 55.0 105.0 65.0 97.5 65.0 97.5 75.0 90.0 80.0 83.75 80.0 83.75 85.0 77.5 78.75 77.5 78.75 77.5 72.5 77.5 72.5 77.5 72.5 77.5 72.5 77.5 72.5 75.0 72.5 75.0 72.5 72.5 72.5 72.5 72.5 72.5 72.5 72.5 90.0 72.5 90.0 72.5 107.5 72.5 107.5 72.5 107.5 72.5 107.5 72.5 107.5 75.0 107.5 75.0 107.5 77.5 107.5 77.5 107.5 77.5 107.5 77.5 102.5 77.5 102.5 77.5 97.5 77.5 86.25 87.5 86.25 87.5 75.0 97.5 75.0 97.5 75.0 97.5 75.0 97.5 77.5 113.75 77.5 113.75 80.0 130.0 83.75 131.875 83.75 131.875 87.5 133.75 91.25 131.875 91.25 131.875 95.0 130.0 97.5 130.625 97.5 130.625 100.0 131.25 100.0 134.375 100.0 134.375 100.0 137.5 94.375 141.875 94.375 141.875 88.75 146.25 81.25 147.5 81.25 147.5 73.75 148.75 69.375 143.75 69.375 143.75 65.0 138.75 62.5 124.375 62.5 124.375 60.0 110.0 60.0 110.0 60.0 110.0 60.0 110.0 56.25 112.5 56.25 112.5 52.5 115.0 52.5 115.0 52.5 115.0 52.5 115.0 48.75 130.0 48.75 130.0 45.0 145.0 45.0 145.0 45.0 145.0 45.0 145.0 45.0 145.0" fill="rgb(128,128,128)" fill-opacity="1" /><defs /><path d="M 192.5 75.0 C 180.0 75.0 167.5 75.0 167.5 75.0 167.5 75.0 167.5 75.0 163.75 73.125 163.75 73.125 160.0 71.25 150.625 70.625 150.625 70.625 141.25 70.0 131.25 75.0 131.25 75.0 121.25 80.0 116.875 89.375 116.875 89.375 112.5 98.75 114.375 105.625 114.375 105.625 116.25 112.5 121.875 115.0 121.875 115.0 127.5 117.5 127.5 117.5 127.5 117.5 127.5 117.5 119.375 122.5 119.375 122.5 111.25 127.5 111.25 133.75 111.25 133.75 111.25 140.0 116.25 141.875 116.25 141.875 121.25 143.75 121.25 143.75 121.25 143.75 121.25 143.75 123.75 145.0 123.75 145.0 126.25 146.25 126.25 146.25 126.25 146.25 126.25 146.25 138.125 150.0 138.125 150.0 150.0 153.75 151.25 160.0 151.25 160.0 152.5 166.25 145.0 170.625 145.0 170.625 137.5 175.0 127.5 172.5 127.5 172.5 117.5 170.0 115.0 163.125 115.0 163.125 112.5 156.25 119.375 151.25 119.375 151.25 126.25 146.25 126.25 146.25 126.25 146.25 126.25 146.25 123.75 145.0 123.75 145.0 121.25 143.75 121.25 143.75 121.25 143.75 121.25 143.75 116.25 145.0 116.25 145.0 111.25 146.25 105.0 150.625 105.0 150.625 98.75 155.0 100.0 164.375 100.0 164.375 101.25 173.75 118.125 177.5 118.125 177.5 135.0 181.25 152.5 174.375 152.5 174.375 170.0 167.5 169.375 153.75 169.375 153.75 168.75 140.0 150.625 135.625 150.625 135.625 132.5 131.25 130.0 128.125 130.0 128.125 127.5 125.0 130.0 122.5 130.0 122.5 132.5 120.0 132.5 120.0 132.5 120.0 132.5 120.0 133.75 116.25 133.75 116.25 135.0 112.5 135.0 112.5 135.0 112.5 135.0 112.5 133.75 110.0 133.75 110.0 132.5 107.5 133.125 100.625 133.125 100.625 133.75 93.75 137.5 85.625 137.5 85.625 141.25 77.5 146.875 76.25 146.875 76.25 152.5 75.0 155.625 78.75 155.625 78.75 158.75 82.5 157.5 89.375 157.5 89.375 156.25 96.25 153.125 103.75 153.125 103.75 150.0 111.25 145.0 113.75 145.0 113.75 140.0 116.25 137.5 114.375 137.5 114.375 135.0 112.5 135.0 112.5 135.0 112.5 135.0 112.5 133.75 116.25 133.75 116.25 132.5 120.0 132.5 120.0 132.5 120.0 132.5 120.0 140.625 120.625 140.625 120.625 148.75 121.25 159.375 116.25 159.375 116.25 170.0 111.25 173.75 103.125 173.75 103.125 177.5 95.0 176.25 90.0 176.25 90.0 175.0 85.0 175.0 85.0 175.0 85.0 175.0 85.0 180.0 85.0 180.0 85.0 185.0 85.0 185.0 85.0" fill="rgb(128,128,128)" fill-opacity="1" /><defs /></svg>