<?xml version="1.0" encoding="utf-8" ?>
<svg baseProfile="full" height="237.0" version="1.1" viewBox="0 0 310.0 237.0" width="310.0" xmlns="http://www.w3.org/2000/svg" xmlns:ev="http://www.w3.org/2001/xml-events" xmlns:xlink="http://www.w3.org/1999/xlink"><defs /><polyline fill="none" fill-opacity="0" points="75.0,85.0 75.0,125.0 95.0,125.0" stroke="rgb(0,0,255)" stroke-width="0.25mm" /><defs /><polyline fill="none" fill-opacity="0" points="75.0,85.0 95.0,85.0" stroke="rgb(0,0,255)" stroke-width="0.25mm" /><defs /><polyline fill="none" fill-opacity="0" points="215.0,85.0 235.0,85.0" stroke="rgb(0,0,255)" stroke-width="0.25mm" /><defs /><polyline fill="none" fill-opacity="0" points="235.0,85.0 235.0,125.0 215.0,125.0" stroke="rgb(0,0,255)" stroke-width="0.25mm" /><defs /><polyline fill="none" fill-opacity="0" points="65.0,105.0 75.0,105.0" stroke="rgb(0,0,255)" stroke-width="0.25mm" /><defs /><polyline fill="none" fill-opacity="0" points="235.0,105.0 245.0,105.0" stroke="rgb(0,0,255)" stroke-width="0.25mm" /><defs /><path d="M 95.0 85.0 C 95.5 82.0 96.0 79.0 99.5 75.0 99.5 75.0 103.0 71.0 110.0 71.0 110.0 71.0 117.0 71.0 120.5 75.0 120.5 75.0 124.0 79.0 124.5 82.0 124.5 82.0 125.0 85.0 125.0 85.0" fill="none" fill-opacity="0" stroke="rgb(0,0,255)" stroke-width="0.25mm" /><defs /><path d="M 125.0 85.0 C 125.5 82.0 126.0 79.0 129.5 75.0 129.5 75.0 133.0 71.0 140.0 71.0 140.0 71.0 147.0 71.0 150.5 75.0 150.5 75.0 154.0 79.0 154.5 82.0 154.5 82.0 155.0 85.0 155.0 85.0" fill="none" fill-opacity="0" stroke="rgb(0,0,255)" stroke-width="0.25mm" /><defs /><path d="M 155.0 85.0 C 155.5 82.0 156.0 79.0 159.5 75.0 159.5 75.0 163.0 71.0 170.0 71.0 170.0 71.0 177.0 71.0 180.5 75.0 180.5 75.0 184.0 79.0 184.5 82.0 184.5 82.0 185.0 85.0 185.0 85.0" fill="none" fill-opacity="0" stroke="rgb(0,0,255)" stroke-width="0.25mm" /><defs /><path d="M 185.0 85.0 C 185.5 82.0 186.0 79.0 189.5 75.0 189.5 75.0 193.0 71.0 200.0 71.0 200.0 71.0 207.0 71.0 210.5 75.0 210.5 75.0 214.0 79.0 214.5 82.0 214.5 82.0 215.0 85.0 215.0 85.0" fill="none" fill-opacity="0" stroke="rgb(0,0,255)" stroke-width="0.25mm" /><defs /><path d="M 125.000648511 125.001389834 C 124.500370552 128.001343494 124.000092593 131.001297155 120.499721994 135.00097285 120.499721994 135.00097285 116.999351395 139.000648545 109.999351425 138.99999997 109.999351425 138.99999997 102.999351455 138.999351395 99.4997220843 134.999027124 99.4997220843 134.999027124 96.0000927137 130.998702854 95.5003706766 127.99865654 95.5003706766 127.99865654 95.0006486395 124.998610226 95.0006486395 124.998610226" fill="none" fill-opacity="0" stroke="rgb(0,0,255)" stroke-width="0.25mm" /><defs /><path d="M 155.000648511 125.001389834 C 154.500370552 128.001343494 154.000092593 131.001297155 150.499721994 135.00097285 150.499721994 135.00097285 146.999351395 139.000648545 139.999351425 138.99999997 139.999351425 138.99999997 132.999351455 138.999351395 129.499722084 134.999027124 129.499722084 134.999027124 126.000092714 130.998702854 125.500370677 127.99865654 125.500370677 127.99865654 125.00064864 124.998610226 125.00064864 124.998610226" fill="none" fill-opacity="0" stroke="rgb(0,0,255)" stroke-width="0.25mm" /><defs /><path d="M 185.000648511 125.001389834 C 184.500370552 128.001343494 184.000092593 131.001297155 180.499721994 135.00097285 180.499721994 135.00097285 176.999351395 139.000648545 169.999351425 138.99999997 169.999351425 138.99999997 162.999351455 138.999351395 159.499722084 134.999027124 159.499722084 134.999027124 156.000092714 130.998702854 155.500370677 127.99865654 155.500370677 127.99865654 155.00064864 124.998610226 155.00064864 124.998610226" fill="none" fill-opacity="0" stroke="rgb(0,0,255)" stroke-width="0.25mm" /><defs /><path d="M 215.000648511 125.001389834 C 214.500370552 128.001343494 214.000092593 131.001297155 210.499721994 135.00097285 210.499721994 135.00097285 206.999351395 139.000648545 199.999351425 138.99999997 199.999351425 138.99999997 192.999351455 138.999351395 189.499722084 134.999027124 189.499722084 134.999027124 186.000092714 130.998702854 185.500370677 127.99865654 185.500370677 127.99865654 185.00064864 124.998610226 185.00064864 124.998610226" fill="none" fill-opacity="0" stroke="rgb(0,0,255)" stroke-width="0.25mm" /><defs /><text alignment-baseline="middle" fill="rgb(0,0,255)" fill-opacity="1" font-family="Verdana" font-size="18" text-anchor="middle" x="155.0" y="35.0">name</text><defs /><text alignment-baseline="middle" fill="rgb(0,0,0)" fill-opacity="1" font-family="Verdana" font-size="18" text-anchor="middle" x="155.0" y="165.0">m=m</text><defs /><g id="plug_p"><ellipse cx="35.0" cy="105.0" fill="rgb(0,0,255)" fill-opacity="1" rx="20.0" ry="20.0" stroke="rgb(0,0,255)" stroke-width="0.25mm" /><defs /><g display="none" id="info"><text id="name">plug_p</text><text id="type">Modelica.Electrical.MultiPhase.Interfaces.PositivePlug</text><text id="classDesc">Positive polyphase electrical plug with m pins</text><text id="desc">Positive polyphase electrical plug with m pins</text></g></g><g id="plug_n"><ellipse cx="35.0" cy="105.0" fill="rgb(255,255,255)" fill-opacity="1" rx="20.0" ry="20.0" stroke="rgb(0,0,255)" stroke-width="0.25mm" /><defs /><g display="none" id="info"><text id="name">plug_n</text><text id="type">Modelica.Electrical.MultiPhase.Interfaces.NegativePlug</text><text id="classDesc">Negative polyphase electrical plug with m pins</text><text id="desc">Negative polyphase electrical plug with m pins</text></g></g></svg>