<?xml version="1.0" encoding="utf-8" ?>
<svg baseProfile="full" height="298.0" version="1.1" viewBox="0 0 310.0 298.0" width="310.0" xmlns="http://www.w3.org/2000/svg" xmlns:ev="http://www.w3.org/2001/xml-events" xmlns:xlink="http://www.w3.org/1999/xlink"><defs /><rect fill="rgb(255,255,255)" fill-opacity="1" height="200.0" rx="0.0" ry="0.0" stroke="rgb(0,0,127)" stroke-width="0.25mm" width="200.0" x="55.0" y="55.0" /><defs /><text dominant-baseline="middle" fill="rgb(0,0,255)" fill-opacity="1" font-family="Verdana" font-size="40.0" text-anchor="middle" x="155.0" y="25.0">name</text><defs /><polyline fill="none" fill-opacity="0" points="95.0,175.0 95.0,135.0 99.0,147.0 91.0,147.0 95.0,135.0" stroke="rgb(85,170,255)" stroke-width="0.25mm" /><defs /><polyline fill="none" fill-opacity="0" points="195.0,175.0 195.0,135.0 199.0,149.0 191.0,149.0 195.0,135.0" stroke="rgb(85,170,255)" stroke-width="0.25mm" /><defs /><polyline fill="none" fill-opacity="0" points="195.0,175.0 195.0,175.0 231.0,195.0 217.0,191.0 221.0,185.0 231.0,195.0" stroke="rgb(85,170,255)" stroke-width="0.25mm" /><defs /><polyline fill="none" fill-opacity="0" points="194.9991661069613,174.99953675136675 194.9991661069613,174.99953675136675 161.00009267934382,195.00111184093095 170.99962940066416,185.000648583713 174.9999073571411,191.00046327009497 161.00009267934382,195.00111184093095" stroke="rgb(85,170,255)" stroke-width="0.25mm" /><defs /><g id="u"><rect fill="rgb(160,160,164)" fill-opacity="1" height="40.0" rx="25.0" ry="25.0" stroke="rgb(160,160,164)" stroke-width="0.25mm" width="40.0" x="15.0" y="135.0" /><defs /><text dominant-baseline="middle" fill="rgb(255,255,255)" fill-opacity="1" font-family="Verdana" font-size="20.0" text-anchor="middle" x="35.0" y="155.0">C</text><defs /><polygon fill="rgb(85,170,255)" fill-opacity="1" points="15.0,135.0 55.0,155.0 15.0,175.0 15.0,135.0" stroke="rgb(85,170,255)" stroke-width="0.25mm" /><defs /><g display="none" id="info"><text id="name">u</text><text id="type">Modelica.ComplexBlocks.Interfaces.ComplexInput</text><text id="classDesc">'input Complex' as connector</text><text id="desc">Connector of Complex input signal</text></g></g><g id="y"><rect fill="rgb(160,160,164)" fill-opacity="1" height="40.0" rx="25.0" ry="25.0" stroke="rgb(160,160,164)" stroke-width="0.25mm" width="40.0" x="15.0" y="135.0" /><defs /><text dominant-baseline="middle" fill="rgb(255,255,255)" fill-opacity="1" font-family="Verdana" font-size="20.0" text-anchor="middle" x="35.0" y="155.0">C</text><defs /><polygon fill="rgb(255,255,255)" fill-opacity="1" points="15.0,135.0 55.0,155.0 15.0,175.0 15.0,135.0" stroke="rgb(85,170,255)" stroke-width="0.25mm" /><defs /><g display="none" id="info"><text id="name">y</text><text id="type">Modelica.ComplexBlocks.Interfaces.ComplexOutput</text><text id="classDesc">'output Complex' as connector</text><text id="desc" /></g></g></svg>