<?xml version="1.0" encoding="utf-8" ?>
<svg baseProfile="full" height="300.0" version="1.1" viewBox="0 0 314.0 300.0" width="314.0" xmlns="http://www.w3.org/2000/svg" xmlns:ev="http://www.w3.org/2001/xml-events" xmlns:xlink="http://www.w3.org/1999/xlink"><defs /><rect fill="rgb(255,255,255)" fill-opacity="1" height="200.0" rx="0.0" ry="0.0" stroke="rgb(0,0,127)" stroke-width="0.25mm" width="200.0" x="59.0" y="55.0" /><defs /><text alignment-baseline="middle" fill="rgb(0,0,255)" fill-opacity="1" font-family="Verdana" font-size="18" text-anchor="middle" x="159.0" y="25.0">name</text><defs /><polyline fill="none" fill-opacity="0" points="114.999166107,176.999536751 114.999166107,176.999536751 81.0000926793,197.001111841 90.9996294007,187.000648584 94.9999073571,193.00046327 81.0000926793,197.001111841" stroke="rgb(85,170,255)" stroke-width="0.25mm" /><defs /><polyline fill="none" fill-opacity="0" points="115.0,177.0 115.0,177.0 151.0,197.0 137.0,193.0 141.0,187.0 151.0,197.0" stroke="rgb(85,170,255)" stroke-width="0.25mm" /><defs /><polyline fill="none" fill-opacity="0" points="115.0,177.0 115.0,137.0 119.0,151.0 111.0,151.0 115.0,137.0" stroke="rgb(85,170,255)" stroke-width="0.25mm" /><defs /><polyline fill="none" fill-opacity="0" points="114.999166107,106.999536751 114.999166107,106.999536751 81.0000926793,127.001111841 90.9996294007,117.000648584 94.9999073571,123.00046327 81.0000926793,127.001111841" stroke="rgb(85,170,255)" stroke-width="0.25mm" /><defs /><polyline fill="none" fill-opacity="0" points="115.0,107.0 115.0,67.0 119.0,81.0 111.0,81.0 115.0,67.0" stroke="rgb(85,170,255)" stroke-width="0.25mm" /><defs /><polyline fill="none" fill-opacity="0" points="115.0,107.0 115.0,107.0 151.0,127.0 137.0,123.0 141.0,117.0 151.0,127.0" stroke="rgb(85,170,255)" stroke-width="0.25mm" /><defs /><polyline fill="none" fill-opacity="0" points="105.0,243.0 105.0,203.0 109.0,217.0 101.0,217.0 105.0,203.0" stroke="rgb(85,170,255)" stroke-width="0.25mm" /><defs /><polyline fill="none" fill-opacity="0" points="115.0,243.0 115.0,203.0 119.0,217.0 111.0,217.0 115.0,203.0" stroke="rgb(85,170,255)" stroke-width="0.25mm" /><defs /><polyline fill="none" fill-opacity="0" points="125.0,243.0 125.0,203.0 129.0,217.0 121.0,217.0 125.0,203.0" stroke="rgb(85,170,255)" stroke-width="0.25mm" /><defs /><polyline fill="none" fill-opacity="0" points="201.0,165.0 201.0,125.0 205.0,139.0 197.0,139.0 201.0,125.0" stroke="rgb(85,170,255)" stroke-width="0.25mm" /><defs /><polyline fill="none" fill-opacity="0" points="200.999166107,164.999536751 200.999166107,164.999536751 167.000092679,185.001111841 176.999629401,175.000648584 180.999907357,181.00046327 167.000092679,185.001111841" stroke="rgb(85,170,255)" stroke-width="0.25mm" /><defs /><polyline fill="none" fill-opacity="0" points="201.0,165.0 201.0,165.0 237.0,185.0 223.0,181.0 227.0,175.0 237.0,185.0" stroke="rgb(85,170,255)" stroke-width="0.25mm" /><defs /><g id="u"><rect fill="rgb(160,160,164)" fill-opacity="1" height="40.0" rx="25.0" ry="25.0" stroke="rgb(160,160,164)" stroke-width="0.25mm" width="40.0" x="19.0" y="135.0" /><defs /><text alignment-baseline="middle" fill="rgb(255,255,255)" fill-opacity="1" font-family="Verdana" font-size="18" text-anchor="middle" x="39.0" y="155.0">C</text><defs /><polygon fill="rgb(85,170,255)" fill-opacity="1" points="19.0,135.0 59.0,155.0 19.0,175.0 19.0,135.0" stroke="rgb(85,170,255)" stroke-width="0.25mm" /><defs /><g display="none" id="info"><text id="name">u</text><text id="type">Modelica.ComplexBlocks.Interfaces.ComplexInput</text><text id="classDesc">'input Complex' as connector</text><text id="desc" /></g></g><g id="y"><rect fill="rgb(160,160,164)" fill-opacity="1" height="40.0" rx="25.0" ry="25.0" stroke="rgb(160,160,164)" stroke-width="0.25mm" width="40.0" x="19.0" y="135.0" /><defs /><text alignment-baseline="middle" fill="rgb(255,255,255)" fill-opacity="1" font-family="Verdana" font-size="18" text-anchor="middle" x="39.0" y="155.0">C</text><defs /><polygon fill="rgb(255,255,255)" fill-opacity="1" points="19.0,135.0 59.0,155.0 19.0,175.0 19.0,135.0" stroke="rgb(85,170,255)" stroke-width="0.25mm" /><defs /><g display="none" id="info"><text id="name">y</text><text id="type">Modelica.ComplexBlocks.Interfaces.ComplexOutput</text><text id="classDesc">'output Complex' as connector</text><text id="desc" /></g></g></svg>