<?xml version="1.0" encoding="utf-8" ?>
<svg baseProfile="full" height="210.0" version="1.1" viewBox="0 0 210.0 210.0" width="210.0" xmlns="http://www.w3.org/2000/svg" xmlns:ev="http://www.w3.org/2001/xml-events" xmlns:xlink="http://www.w3.org/1999/xlink"><defs /><polyline fill="none" fill-opacity="0" points="45.0,65.0 45.0,145.0 165.0,145.0 165.0,65.0 135.0,65.0 135.0,145.0 75.0,145.0 75.0,65.0 45.0,65.0 45.0,85.0 165.0,85.0 165.0,105.0 45.0,105.0 45.0,125.0 165.0,125.0 165.0,145.0 45.0,145.0 45.0,65.0 165.0,65.0 165.0,145.0" stroke="rgb(0,0,0)" stroke-width="0.25mm" /><defs /><polyline fill="none" fill-opacity="0" points="105.0,65.0 105.0,145.0" stroke="rgb(0,0,0)" stroke-width="0.25mm" /><defs /><polyline fill="none" fill-opacity="0" points="45.0,65.0 75.0,85.0" stroke="rgb(0,0,0)" stroke-width="0.25mm" /><defs /><polyline fill="none" fill-opacity="0" points="75.0,65.0 45.0,85.0" stroke="rgb(0,0,0)" stroke-width="0.25mm" /><defs /><rect fill="rgb(255,215,136)" fill-opacity="1" height="20.0" rx="0.0" ry="0.0" stroke="rgb(0,0,0)" stroke-width="0.25mm" width="30.0" x="45.0" y="85.0" /><defs /><rect fill="rgb(255,215,136)" fill-opacity="1" height="20.0" rx="0.0" ry="0.0" stroke="rgb(0,0,0)" stroke-width="0.25mm" width="30.0" x="45.0" y="105.0" /><defs /><rect fill="rgb(255,215,136)" fill-opacity="1" height="20.0" rx="0.0" ry="0.0" stroke="rgb(0,0,0)" stroke-width="0.25mm" width="30.0" x="45.0" y="125.0" /><defs /><rect fill="rgb(255,215,136)" fill-opacity="1" height="20.0" rx="0.0" ry="0.0" stroke="rgb(0,0,0)" stroke-width="0.25mm" width="30.0" x="75.0" y="65.0" /><defs /><rect fill="rgb(255,215,136)" fill-opacity="1" height="20.0" rx="0.0" ry="0.0" stroke="rgb(0,0,0)" stroke-width="0.25mm" width="30.0" x="105.0" y="65.0" /><defs /><rect fill="rgb(255,215,136)" fill-opacity="1" height="20.0" rx="0.0" ry="0.0" stroke="rgb(0,0,0)" stroke-width="0.25mm" width="30.0" x="135.0" y="65.0" /><defs /></svg>