<?xml version="1.0" encoding="utf-8" ?>
<svg baseProfile="full" height="230.0" version="1.1" viewBox="0 0 330.0 230.0" width="330.0" xmlns="http://www.w3.org/2000/svg" xmlns:ev="http://www.w3.org/2001/xml-events" xmlns:xlink="http://www.w3.org/1999/xlink"><defs /><ellipse cx="165.0" cy="125.0" fill="rgb(245,245,245)" fill-opacity="1" rx="70.0" ry="70.0" stroke="rgb(0,0,0)" stroke-width="0.25mm" /><defs /><polyline fill="none" fill-opacity="0" points="165.0,55.0 165.0,85.0" stroke="rgb(0,0,0)" stroke-width="0.25mm" /><defs /><polyline fill="none" fill-opacity="0" points="187.9,92.2 205.2,67.7" stroke="rgb(0,0,0)" stroke-width="0.25mm" /><defs /><polyline fill="none" fill-opacity="0" points="142.1,92.2 124.8,67.7" stroke="rgb(0,0,0)" stroke-width="0.25mm" /><defs /><polyline fill="none" fill-opacity="0" points="202.6,111.3 230.8,101.1" stroke="rgb(0,0,0)" stroke-width="0.25mm" /><defs /><polyline fill="none" fill-opacity="0" points="127.4,111.3 99.2,101.1" stroke="rgb(0,0,0)" stroke-width="0.25mm" /><defs /><ellipse cx="165.0" cy="125.0" fill="none" fill-opacity="0" rx="12.0" ry="12.0" stroke="rgb(64,64,64)" stroke-width="0.25mm" /><defs /><polygon fill="rgb(64,64,64)" fill-opacity="1" points="160.231401703,123.496513958 181.134393186,67.1754260153 184.545318547,63.0082221349 184.949271824,68.378214849 169.768598297,126.503486042" /><defs /><ellipse cx="165.0" cy="125.0" fill="rgb(64,64,64)" fill-opacity="1" rx="7.0" ry="7.0" /><defs /><polyline fill="none" fill-opacity="0" points="95.0,125.0 71.0,125.0" stroke="rgb(85,170,255)" stroke-width="0.25mm" /><defs /><text dominant-baseline="middle" fill="rgb(0,0,255)" fill-opacity="1" font-family="Verdana" font-size="40.0" text-anchor="middle" x="165.0" y="25.0">name</text><defs /><polyline fill="none" fill-opacity="0" points="265.0,125.0 235.0,125.0" stroke="rgb(0,0,0)" stroke-width="0.25mm" /><defs /><g id="pin"><rect fill="rgb(85,170,255)" fill-opacity="1" height="40.0" rx="0.0" ry="0.0" stroke="rgb(85,170,255)" stroke-width="0.25mm" width="40.0" x="25.0" y="105.0" /><defs /><g display="none" id="info"><text id="name">pin</text><text id="type">Modelica.Electrical.QuasiStationary.SinglePhase.Interfaces.PositivePin</text><text id="classDesc">Positive quasi-static single-phase pin</text><text id="desc">Positive quasi-static single-phase pin</text></g></g></svg>