<?xml version="1.0" encoding="utf-8" ?>
<svg baseProfile="full" height="310.0" version="1.1" viewBox="0 0 310.0 310.0" width="310.0" xmlns="http://www.w3.org/2000/svg" xmlns:ev="http://www.w3.org/2001/xml-events" xmlns:xlink="http://www.w3.org/1999/xlink"><defs /><text dominant-baseline="middle" fill="rgb(0,0,255)" fill-opacity="1" font-family="Verdana" font-size="40.0" text-anchor="middle" x="155.0" y="25.0">name</text><defs /><polyline fill="none" fill-opacity="0" points="55.0,265.0 255.0,265.0" stroke="rgb(0,0,0)" stroke-width="0.5mm" /><defs /><polygon fill="rgb(192,192,192)" fill-opacity="1" points="95.0,225.0 95.0,101.0 215.0,101.0 215.0,225.0 255.0,225.0 255.0,51.0 55.0,51.0 55.0,225.0 95.0,225.0" stroke="rgb(0,0,0)" stroke-width="0.25mm" /><defs /><rect fill="url(#0)" height="76.0" rx="0.0" ry="0.0" stroke="rgb(0,0,0)" stroke-width="0.25mm" width="116.0" x="97.0" y="112.0" /><defs><linearGradient id="0" x1="0%" x2="100%" y1="0%" y2="0%"><stop offset="0" stop-color="rgb(0, 0, 0)" stop-opacity="1" /><stop offset="0.3" stop-color="rgb(192, 192, 192)" stop-opacity="1" /><stop offset="0.7" stop-color="rgb(192, 192, 192)" stop-opacity="1" /><stop offset="1" stop-color="rgb(0, 0, 0)" stop-opacity="1" /></linearGradient></defs><rect fill="rgb(0,0,0)" fill-opacity="1" height="6.0" rx="0.0" ry="0.0" stroke="rgb(0,0,0)" stroke-width="0.25mm" width="120.0" x="95.0" y="120.0" /><defs /><rect fill="rgb(0,0,0)" fill-opacity="1" height="6.0" rx="0.0" ry="0.0" stroke="rgb(0,0,0)" stroke-width="0.25mm" width="120.0" x="95.0" y="134.0" /><defs /><rect fill="rgb(0,0,0)" fill-opacity="1" height="6.0" rx="0.0" ry="0.0" stroke="rgb(0,0,0)" stroke-width="0.25mm" width="120.0" x="95.0" y="146.0" /><defs /><polygon fill="rgb(255,255,255)" fill-opacity="1" points="98.0,188.0 115.0,176.0 195.0,176.0 212.0,188.0 98.0,188.0" /><defs /><ellipse cx="153.0" cy="165.0" fill="rgb(0,0,0)" fill-opacity="1" rx="6.0" ry="6.0" stroke="rgb(0,0,0)" stroke-width="0.25mm" /><defs /><ellipse cx="155.0" cy="265.0" fill="none" fill-opacity="0" rx="40.0" ry="40.0" stroke="rgb(192,192,192)" stroke-width="0.25mm" /><defs /><polyline fill="none" fill-opacity="0" points="155.0,265.0 181.0,235.0 153.0,165.0" stroke="rgb(0,0,0)" stroke-width="1.0mm" /><defs /><g id="cylinder_a"><rect fill="none" fill-opacity="0" height="4.0" rx="0.0" ry="0.0" stroke="rgb(95,95,95)" stroke-width="0.5mm" width="4.0" x="33.0" y="163.0" /><defs /><rect fill="rgb(192,192,192)" fill-opacity="1" height="40.0" rx="0.0" ry="0.0" stroke="rgb(0,0,0)" stroke-width="0.25mm" width="12.0" x="29.0" y="145.0" /><defs /><g display="none" id="info"><text id="name">cylinder_a</text><text id="type">Modelica.Mechanics.MultiBody.Interfaces.Frame_a</text><text id="classDesc">Coordinate system fixed to the component with one cut-force and cut-torque (filled rectangular icon)</text><text id="desc" /></g></g><g id="cylinder_b"><rect fill="none" fill-opacity="0" height="4.0" rx="0.0" ry="0.0" stroke="rgb(95,95,95)" stroke-width="0.5mm" width="4.0" x="33.0" y="163.0" /><defs /><rect fill="rgb(192,192,192)" fill-opacity="1" height="40.0" rx="0.0" ry="0.0" stroke="rgb(0,0,0)" stroke-width="0.25mm" width="12.0" x="29.0" y="145.0" /><defs /><g display="none" id="info"><text id="name">cylinder_b</text><text id="type">Modelica.Mechanics.MultiBody.Interfaces.Frame_a</text><text id="classDesc">Coordinate system fixed to the component with one cut-force and cut-torque (filled rectangular icon)</text><text id="desc" /></g></g><g id="crank_a"><rect fill="none" fill-opacity="0" height="4.0" rx="0.0" ry="0.0" stroke="rgb(95,95,95)" stroke-width="0.5mm" width="4.0" x="33.0" y="163.0" /><defs /><rect fill="rgb(192,192,192)" fill-opacity="1" height="40.0" rx="0.0" ry="0.0" stroke="rgb(0,0,0)" stroke-width="0.25mm" width="12.0" x="29.0" y="145.0" /><defs /><g display="none" id="info"><text id="name">crank_a</text><text id="type">Modelica.Mechanics.MultiBody.Interfaces.Frame_a</text><text id="classDesc">Coordinate system fixed to the component with one cut-force and cut-torque (filled rectangular icon)</text><text id="desc" /></g></g><g id="crank_b"><rect fill="none" fill-opacity="0" height="4.0" rx="0.0" ry="0.0" stroke="rgb(95,95,95)" stroke-width="0.5mm" width="4.0" x="33.0" y="163.0" /><defs /><rect fill="rgb(192,192,192)" fill-opacity="1" height="40.0" rx="0.0" ry="0.0" stroke="rgb(0,0,0)" stroke-width="0.25mm" width="12.0" x="29.0" y="145.0" /><defs /><g display="none" id="info"><text id="name">crank_b</text><text id="type">Modelica.Mechanics.MultiBody.Interfaces.Frame_a</text><text id="classDesc">Coordinate system fixed to the component with one cut-force and cut-torque (filled rectangular icon)</text><text id="desc" /></g></g></svg>