<?xml version="1.0" encoding="utf-8" ?>
<svg baseProfile="full" height="210" version="1.1" viewBox="0 0 310.0 210" width="310.0" xmlns="http://www.w3.org/2000/svg" xmlns:ev="http://www.w3.org/2001/xml-events" xmlns:xlink="http://www.w3.org/1999/xlink"><defs /><ellipse cx="155.0" cy="105.0" fill="rgb(255,255,255)" fill-opacity="1" rx="50.0" ry="50.0" stroke="rgb(85,170,255)" stroke-width="0.25mm" /><defs /><polyline fill="none" fill-opacity="0" points="65.0,105.0 105.0,105.0" stroke="rgb(85,170,255)" stroke-width="0.25mm" /><defs /><polyline fill="none" fill-opacity="0" points="205.0,105.0 245.0,105.0" stroke="rgb(85,170,255)" stroke-width="0.25mm" /><defs /><polyline fill="none" fill-opacity="0" points="105.0,105.0 205.0,105.0" stroke="rgb(85,170,255)" stroke-width="0.25mm" /><defs /><polyline fill="none" fill-opacity="0" points="85.0,75.0 85.0,95.0" stroke="rgb(85,170,255)" stroke-width="0.25mm" /><defs /><polyline fill="none" fill-opacity="0" points="75.0,85.0 95.0,85.0" stroke="rgb(85,170,255)" stroke-width="0.25mm" /><defs /><polyline fill="none" fill-opacity="0" points="215.0,85.0 235.0,85.0" stroke="rgb(85,170,255)" stroke-width="0.25mm" /><defs /><text dominant-baseline="middle" fill="rgb(0,0,255)" fill-opacity="1" font-family="Verdana" font-size="40.0" text-anchor="middle" x="155.0" y="25.0">name</text><defs /><path d="M 111.0 105.0 C 117.0 98.0 123.0 91.0 129.0 82.0 129.0 82.0 135.0 73.0 139.0 68.0 139.0 68.0 143.0 63.0 146.0 69.0 146.0 69.0 149.0 75.0 152.0 90.0 152.0 90.0 155.0 105.0 157.0 119.0 157.0 119.0 159.0 133.0 161.0 139.0 161.0 139.0 163.0 145.0 165.0 135.0 165.0 135.0 167.0 125.0 168.0 114.0 168.0 114.0 169.0 103.0 170.0 89.0 170.0 89.0 171.0 75.0 172.0 69.0 172.0 69.0 173.0 63.0 174.0 70.0 174.0 70.0 175.0 77.0 177.0 107.0 177.0 107.0 179.0 137.0 180.0 141.0 180.0 141.0 181.0 145.0 182.0 125.0 182.0 125.0 183.0 105.0 183.0 105.0" fill="none" fill-opacity="0" stroke="rgb(192,192,192)" stroke-width="0.25mm" /><defs /><g id="pin_p"><rect fill="rgb(85,170,255)" fill-opacity="1" height="40.0" rx="0.0" ry="0.0" stroke="rgb(85,170,255)" stroke-width="0.25mm" width="40.0" x="15.0" y="85.0" /><defs /><g display="none" id="info"><text id="name">pin_p</text><text id="type">Modelica.Electrical.QuasiStationary.SinglePhase.Interfaces.PositivePin</text><text id="classDesc">Positive quasi-static single-phase pin</text><text id="desc">Positive quasi-static single-phase pin</text></g></g><g id="pin_n"><rect fill="rgb(255,255,255)" fill-opacity="1" height="40.0" rx="0.0" ry="0.0" stroke="rgb(85,170,255)" stroke-width="0.25mm" width="40.0" x="15.0" y="85.0" /><defs /><g display="none" id="info"><text id="name">pin_n</text><text id="type">Modelica.Electrical.QuasiStationary.SinglePhase.Interfaces.NegativePin</text><text id="classDesc">Negative quasi-static single-phase pin</text><text id="desc">Negative quasi-static single-phase pin</text></g></g></svg>