<?xml version="1.0" encoding="utf-8" ?>
<svg baseProfile="full" height="210" version="1.1" viewBox="0 0 310.0 210" width="310.0" xmlns="http://www.w3.org/2000/svg" xmlns:ev="http://www.w3.org/2001/xml-events" xmlns:xlink="http://www.w3.org/1999/xlink"><defs /><polyline fill="none" fill-opacity="0" points="215.0,105.0 245.0,105.0" stroke="rgb(85,170,255)" stroke-width="0.25mm" /><defs /><polyline fill="none" fill-opacity="0" points="65.0,105.0 95.0,105.0" stroke="rgb(85,170,255)" stroke-width="0.25mm" /><defs /><text dominant-baseline="middle" fill="rgb(0,0,0)" fill-opacity="1" font-family="Verdana" font-size="30.0" text-anchor="middle" x="155.0" y="170.0">L=L</text><defs /><path d="M 95.0 105.0 C 95.5 102.0 96.0 99.0 99.5 95.0 99.5 95.0 103.0 91.0 110.0 91.0 110.0 91.0 117.0 91.0 120.5 95.0 120.5 95.0 124.0 99.0 124.5 102.0 124.5 102.0 125.0 105.0 125.0 105.0" fill="none" fill-opacity="0" stroke="rgb(0,128,255)" stroke-width="0.25mm" /><defs /><path d="M 125.0 105.0 C 125.5 102.0 126.0 99.0 129.5 95.0 129.5 95.0 133.0 91.0 140.0 91.0 140.0 91.0 147.0 91.0 150.5 95.0 150.5 95.0 154.0 99.0 154.5 102.0 154.5 102.0 155.0 105.0 155.0 105.0" fill="none" fill-opacity="0" stroke="rgb(0,128,255)" stroke-width="0.25mm" /><defs /><path d="M 155.0 105.0 C 155.5 102.0 156.0 99.0 159.5 95.0 159.5 95.0 163.0 91.0 170.0 91.0 170.0 91.0 177.0 91.0 180.5 95.0 180.5 95.0 184.0 99.0 184.5 102.0 184.5 102.0 185.0 105.0 185.0 105.0" fill="none" fill-opacity="0" stroke="rgb(0,128,255)" stroke-width="0.25mm" /><defs /><path d="M 185.0 105.0 C 185.5 102.0 186.0 99.0 189.5 95.0 189.5 95.0 193.0 91.0 200.0 91.0 200.0 91.0 207.0 91.0 210.5 95.0 210.5 95.0 214.0 99.0 214.5 102.0 214.5 102.0 215.0 105.0 215.0 105.0" fill="none" fill-opacity="0" stroke="rgb(0,128,255)" stroke-width="0.25mm" /><defs /><text dominant-baseline="middle" fill="rgb(0,0,255)" fill-opacity="1" font-family="Verdana" font-size="40.0" text-anchor="middle" x="155.0" y="35.0">name</text><defs /><g id="pin_p"><rect fill="rgb(85,170,255)" fill-opacity="1" height="40.0" rx="0.0" ry="0.0" stroke="rgb(85,170,255)" stroke-width="0.25mm" width="40.0" x="15.0" y="85.0" /><defs /><g display="none" id="info"><text id="name">pin_p</text><text id="type">Modelica.Electrical.QuasiStationary.SinglePhase.Interfaces.PositivePin</text><text id="classDesc">Positive quasi-static single-phase pin</text><text id="desc">Positive quasi-static single-phase pin</text></g></g><g id="pin_n"><rect fill="rgb(255,255,255)" fill-opacity="1" height="40.0" rx="0.0" ry="0.0" stroke="rgb(85,170,255)" stroke-width="0.25mm" width="40.0" x="15.0" y="85.0" /><defs /><g display="none" id="info"><text id="name">pin_n</text><text id="type">Modelica.Electrical.QuasiStationary.SinglePhase.Interfaces.NegativePin</text><text id="classDesc">Negative quasi-static single-phase pin</text><text id="desc">Negative quasi-static single-phase pin</text></g></g></svg>