<?xml version="1.0" encoding="utf-8" ?>
<svg baseProfile="full" height="260.0" version="1.1" viewBox="0 0 310.0 260.0" width="310.0" xmlns="http://www.w3.org/2000/svg" xmlns:ev="http://www.w3.org/2001/xml-events" xmlns:xlink="http://www.w3.org/1999/xlink"><defs /><rect fill="rgb(255,255,255)" fill-opacity="1" height="200.0" rx="0.0" ry="0.0" stroke="rgb(0,0,127)" stroke-width="0.25mm" width="200.0" x="55.0" y="55.0" /><defs /><text dominant-baseline="middle" fill="rgb(0,0,255)" fill-opacity="1" font-family="Verdana" font-size="40.0" text-anchor="middle" x="155.0" y="25.0">name</text><defs /><polygon fill="rgb(95,95,95)" fill-opacity="1" points="145.0,65.0 139.0,87.0 151.0,87.0 145.0,65.0" stroke="rgb(192,192,192)" stroke-width="0.25mm" /><defs /><polyline fill="none" fill-opacity="0" points="145.0,87.0 145.0,245.0" stroke="rgb(95,95,95)" stroke-width="0.25mm" /><defs /><polyline fill="none" fill-opacity="0" points="65.0,155.0 237.0,155.0" stroke="rgb(95,95,95)" stroke-width="0.25mm" /><defs /><polygon fill="rgb(95,95,95)" fill-opacity="1" points="245.0,155.0 223.0,149.0 223.0,161.0 245.0,155.0" stroke="rgb(95,95,95)" stroke-width="0.25mm" /><defs /><polyline fill="none" fill-opacity="0" points="145.0,165.0 169.0,145.0" stroke="rgb(0,0,255)" stroke-width="0.25mm" /><defs /><polygon fill="rgb(0,0,255)" fill-opacity="1" points="183.0,133.0 162.0,142.0 171.0,153.0 183.0,133.0" stroke="rgb(95,95,95)" stroke-width="0.25mm" /><defs /><polyline fill="none" fill-opacity="0" points="145.0,149.0 205.0,99.0" stroke="rgb(0,0,255)" stroke-width="0.25mm" /><defs /><polygon fill="rgb(0,0,255)" fill-opacity="1" points="221.0,85.0 200.0,94.0 209.0,105.0 221.0,85.0" stroke="rgb(95,95,95)" stroke-width="0.25mm" /><defs /><g id="y"><rect fill="rgb(160,160,164)" fill-opacity="1" height="40.0" rx="25.0" ry="25.0" stroke="rgb(160,160,164)" stroke-width="0.25mm" width="40.0" x="15.0" y="135.0" /><defs /><text dominant-baseline="middle" fill="rgb(255,255,255)" fill-opacity="1" font-family="Verdana" font-size="20.0" text-anchor="middle" x="35.0" y="155.0">C</text><defs /><polygon fill="rgb(255,255,255)" fill-opacity="1" points="15.0,135.0 55.0,155.0 15.0,175.0 15.0,135.0" stroke="rgb(85,170,255)" stroke-width="0.25mm" /><defs /><g display="none" id="info"><text id="name">y</text><text id="type">Modelica.ComplexBlocks.Interfaces.ComplexOutput</text><text id="classDesc">'output Complex' as connector</text><text id="desc">Connector of Complex output signal</text></g></g></svg>