<?xml version="1.0" encoding="utf-8" ?>
<svg baseProfile="full" height="255.0" version="1.1" viewBox="0 0 310.0 255.0" width="310.0" xmlns="http://www.w3.org/2000/svg" xmlns:ev="http://www.w3.org/2001/xml-events" xmlns:xlink="http://www.w3.org/1999/xlink"><defs /><rect fill="rgb(255,255,255)" fill-opacity="1" height="200.0" rx="0.0" ry="0.0" stroke="rgb(0,127,255)" stroke-width="0.25mm" width="200.0" x="55.0" y="50.0" /><defs /><polygon fill="rgb(0,191,0)" fill-opacity="1" points="153.0,58.0 141.0,98.0 165.0,98.0 153.0,58.0 153.0,58.0" stroke="rgb(0,191,0)" stroke-width="0.25mm" /><defs /><polyline fill="none" fill-opacity="0" points="153.0,168.0 153.0,98.0" stroke="rgb(0,191,0)" stroke-width="0.5mm" /><defs /><text dominant-baseline="middle" fill="rgb(0,191,0)" fill-opacity="1" font-family="Verdana" font-size="50.0" text-anchor="middle" x="196.5" y="82.0">y</text><defs /><text dominant-baseline="middle" fill="rgb(0,0,0)" fill-opacity="1" font-family="Verdana" font-size="49.0" text-anchor="middle" x="222.5" y="163.5">x</text><defs /><polygon fill="rgb(0,0,0)" fill-opacity="1" points="253.0,220.0 229.0,194.0 219.0,210.0 253.0,220.0" stroke="rgb(0,0,0)" stroke-width="0.25mm" /><defs /><polyline fill="none" fill-opacity="0" points="153.0,168.0 227.0,204.0" stroke="rgb(0,0,0)" stroke-width="0.5mm" /><defs /><polyline fill="none" fill-opacity="0" points="83.0,204.0 153.0,168.0" stroke="rgb(0,0,255)" stroke-width="0.5mm" /><defs /><text dominant-baseline="middle" fill="rgb(0,0,255)" fill-opacity="1" font-family="Verdana" font-size="49.0" text-anchor="middle" x="92.5" y="161.5">z</text><defs /><text dominant-baseline="middle" fill="rgb(0,0,255)" fill-opacity="1" font-family="Verdana" font-size="40.0" text-anchor="middle" x="155.0" y="25.0">name</text><defs /><polygon fill="rgb(255,255,255)" fill-opacity="1" points="57.0,218.0 89.0,210.0 77.0,196.0 57.0,218.0" stroke="rgb(0,0,255)" stroke-width="0.25mm" /><defs /><g id="frame_a"><rect fill="none" fill-opacity="0" height="4.0" rx="0.0" ry="0.0" stroke="rgb(95,95,95)" stroke-width="0.5mm" width="4.0" x="33.0" y="148.0" /><defs /><rect fill="rgb(192,192,192)" fill-opacity="1" height="40.0" rx="0.0" ry="0.0" stroke="rgb(0,0,0)" stroke-width="0.25mm" width="12.0" x="29.0" y="130.0" /><defs /><g display="none" id="info"><text id="name">frame_a</text><text id="type">Modelica.Mechanics.MultiBody.Interfaces.Frame_a</text><text id="classDesc">Coordinate system fixed to the component with one cut-force and cut-torque (filled rectangular icon)</text><text id="desc">Coordinate system in which visualization data is resolved</text></g></g></svg>