<?xml version="1.0" encoding="utf-8" ?>
<svg baseProfile="full" height="250.0" version="1.1" viewBox="0 0 310.0 250.0" width="310.0" xmlns="http://www.w3.org/2000/svg" xmlns:ev="http://www.w3.org/2001/xml-events" xmlns:xlink="http://www.w3.org/1999/xlink"><defs /><text dominant-baseline="middle" fill="rgb(0,0,255)" fill-opacity="1" font-family="Verdana" font-size="40.0" text-anchor="middle" x="155.0" y="25.0">name</text><defs /><text dominant-baseline="middle" fill="rgb(0,0,0)" fill-opacity="1" font-family="Verdana" font-size="40.0" text-anchor="middle" x="155.0" y="225.0">N=N</text><defs /><polyline fill="none" fill-opacity="0" points="215.0,175.0 245.0,175.0" stroke="rgb(0,0,255)" stroke-width="0.25mm" /><defs /><polyline fill="none" fill-opacity="0" points="65.0,175.0 95.0,175.0" stroke="rgb(0,0,255)" stroke-width="0.25mm" /><defs /><path d="M 95.0 175.0 C 95.5 172.0 96.0 169.0 99.5 165.0 99.5 165.0 103.0 161.0 110.0 161.0 110.0 161.0 117.0 161.0 120.5 165.0 120.5 165.0 124.0 169.0 124.5 172.0 124.5 172.0 125.0 175.0 125.0 175.0" fill="none" fill-opacity="0" stroke="rgb(0,0,255)" stroke-width="0.25mm" /><defs /><path d="M 125.0 175.0 C 125.5 172.0 126.0 169.0 129.5 165.0 129.5 165.0 133.0 161.0 140.0 161.0 140.0 161.0 147.0 161.0 150.5 165.0 150.5 165.0 154.0 169.0 154.5 172.0 154.5 172.0 155.0 175.0 155.0 175.0" fill="none" fill-opacity="0" stroke="rgb(0,0,255)" stroke-width="0.25mm" /><defs /><path d="M 155.0 175.0 C 155.5 172.0 156.0 169.0 159.5 165.0 159.5 165.0 163.0 161.0 170.0 161.0 170.0 161.0 177.0 161.0 180.5 165.0 180.5 165.0 184.0 169.0 184.5 172.0 184.5 172.0 185.0 175.0 185.0 175.0" fill="none" fill-opacity="0" stroke="rgb(0,0,255)" stroke-width="0.25mm" /><defs /><path d="M 185.0 175.0 C 185.5 172.0 186.0 169.0 189.5 165.0 189.5 165.0 193.0 161.0 200.0 161.0 200.0 161.0 207.0 161.0 210.5 165.0 210.5 165.0 214.0 169.0 214.5 172.0 214.5 172.0 215.0 175.0 215.0 175.0" fill="none" fill-opacity="0" stroke="rgb(0,0,255)" stroke-width="0.25mm" /><defs /><polyline fill="none" fill-opacity="0" points="215.0,105.0 245.0,105.0" stroke="rgb(0,0,255)" stroke-width="0.25mm" /><defs /><polyline fill="none" fill-opacity="0" points="65.0,105.0 95.0,105.0" stroke="rgb(0,0,255)" stroke-width="0.25mm" /><defs /><path d="M 95.0 105.0 C 95.5 102.0 96.0 99.0 99.5 95.0 99.5 95.0 103.0 91.0 110.0 91.0 110.0 91.0 117.0 91.0 120.5 95.0 120.5 95.0 124.0 99.0 124.5 102.0 124.5 102.0 125.0 105.0 125.0 105.0" fill="none" fill-opacity="0" stroke="rgb(0,0,255)" stroke-width="0.25mm" /><defs /><path d="M 125.0 105.0 C 125.5 102.0 126.0 99.0 129.5 95.0 129.5 95.0 133.0 91.0 140.0 91.0 140.0 91.0 147.0 91.0 150.5 95.0 150.5 95.0 154.0 99.0 154.5 102.0 154.5 102.0 155.0 105.0 155.0 105.0" fill="none" fill-opacity="0" stroke="rgb(0,0,255)" stroke-width="0.25mm" /><defs /><path d="M 155.0 105.0 C 155.5 102.0 156.0 99.0 159.5 95.0 159.5 95.0 163.0 91.0 170.0 91.0 170.0 91.0 177.0 91.0 180.5 95.0 180.5 95.0 184.0 99.0 184.5 102.0 184.5 102.0 185.0 105.0 185.0 105.0" fill="none" fill-opacity="0" stroke="rgb(0,0,255)" stroke-width="0.25mm" /><defs /><path d="M 185.0 105.0 C 185.5 102.0 186.0 99.0 189.5 95.0 189.5 95.0 193.0 91.0 200.0 91.0 200.0 91.0 207.0 91.0 210.5 95.0 210.5 95.0 214.0 99.0 214.5 102.0 214.5 102.0 215.0 105.0 215.0 105.0" fill="none" fill-opacity="0" stroke="rgb(0,0,255)" stroke-width="0.25mm" /><defs /><polyline fill="none" fill-opacity="0" points="215.0,75.0 245.0,75.0" stroke="rgb(0,0,255)" stroke-width="0.25mm" /><defs /><polyline fill="none" fill-opacity="0" points="65.0,75.0 95.0,75.0" stroke="rgb(0,0,255)" stroke-width="0.25mm" /><defs /><path d="M 95.0 75.0 C 95.5 72.0 96.0 69.0 99.5 65.0 99.5 65.0 103.0 61.0 110.0 61.0 110.0 61.0 117.0 61.0 120.5 65.0 120.5 65.0 124.0 69.0 124.5 72.0 124.5 72.0 125.0 75.0 125.0 75.0" fill="none" fill-opacity="0" stroke="rgb(0,0,255)" stroke-width="0.25mm" /><defs /><path d="M 125.0 75.0 C 125.5 72.0 126.0 69.0 129.5 65.0 129.5 65.0 133.0 61.0 140.0 61.0 140.0 61.0 147.0 61.0 150.5 65.0 150.5 65.0 154.0 69.0 154.5 72.0 154.5 72.0 155.0 75.0 155.0 75.0" fill="none" fill-opacity="0" stroke="rgb(0,0,255)" stroke-width="0.25mm" /><defs /><path d="M 155.0 75.0 C 155.5 72.0 156.0 69.0 159.5 65.0 159.5 65.0 163.0 61.0 170.0 61.0 170.0 61.0 177.0 61.0 180.5 65.0 180.5 65.0 184.0 69.0 184.5 72.0 184.5 72.0 185.0 75.0 185.0 75.0" fill="none" fill-opacity="0" stroke="rgb(0,0,255)" stroke-width="0.25mm" /><defs /><path d="M 185.0 75.0 C 185.5 72.0 186.0 69.0 189.5 65.0 189.5 65.0 193.0 61.0 200.0 61.0 200.0 61.0 207.0 61.0 210.5 65.0 210.5 65.0 214.0 69.0 214.5 72.0 214.5 72.0 215.0 75.0 215.0 75.0" fill="none" fill-opacity="0" stroke="rgb(0,0,255)" stroke-width="0.25mm" /><defs /><ellipse cx="155.0" cy="121.0" fill="rgb(0,0,255)" fill-opacity="1" rx="2.0" ry="2.0" stroke="rgb(0,0,255)" stroke-width="0.25mm" /><defs /><ellipse cx="155.0" cy="149.0" fill="rgb(0,0,255)" fill-opacity="1" rx="2.0" ry="2.0" stroke="rgb(0,0,255)" stroke-width="0.25mm" /><defs /><ellipse cx="155.0" cy="135.0" fill="rgb(0,0,255)" fill-opacity="1" rx="2.0" ry="2.0" stroke="rgb(0,0,255)" stroke-width="0.25mm" /><defs /><g id="p"><rect fill="rgb(0,0,255)" fill-opacity="1" height="40.0" rx="0.0" ry="0.0" stroke="rgb(0,0,255)" stroke-width="0.25mm" width="40.0" x="15.0" y="105.0" /><defs /><g display="none" id="info"><text id="name">p</text><text id="type">Modelica.Electrical.Analog.Interfaces.PositivePin</text><text id="classDesc">Positive pin of an electrical component</text><text id="desc" /></g></g><g id="n"><rect fill="rgb(255,255,255)" fill-opacity="1" height="40.0" rx="0.0" ry="0.0" stroke="rgb(0,0,255)" stroke-width="0.25mm" width="40.0" x="15.0" y="105.0" /><defs /><g display="none" id="info"><text id="name">n</text><text id="type">Modelica.Electrical.Analog.Interfaces.NegativePin</text><text id="classDesc">Negative pin of an electrical component</text><text id="desc" /></g></g></svg>