<?xml version="1.0" encoding="utf-8" ?>
<svg baseProfile="full" height="260.0" version="1.1" viewBox="0 0 310.0 260.0" width="310.0" xmlns="http://www.w3.org/2000/svg" xmlns:ev="http://www.w3.org/2001/xml-events" xmlns:xlink="http://www.w3.org/1999/xlink"><defs /><rect fill="rgb(255,255,255)" fill-opacity="1" height="200.0" rx="0.0" ry="0.0" stroke="rgb(0,0,0)" stroke-width="0.25mm" width="200.0" x="55.0" y="55.0" /><defs /><polyline fill="none" fill-opacity="0" points="155.0,235.0 155.0,87.0" stroke="rgb(192,192,192)" stroke-width="0.25mm" /><defs /><polygon fill="rgb(192,192,192)" fill-opacity="1" points="155.0,65.0 147.0,87.0 163.0,87.0 155.0,65.0" stroke="rgb(192,192,192)" stroke-width="0.25mm" /><defs /><text dominant-baseline="middle" fill="rgb(0,0,255)" fill-opacity="1" font-family="Verdana" font-size="40.0" text-anchor="middle" x="155.0" y="25.0">name</text><defs /><polyline fill="none" fill-opacity="0" points="65.0,155.0 223.0,155.0" stroke="rgb(192,192,192)" stroke-width="0.25mm" /><defs /><polygon fill="rgb(192,192,192)" fill-opacity="1" points="245.0,155.0 223.0,147.0 223.0,163.0 245.0,155.0" stroke="rgb(192,192,192)" stroke-width="0.25mm" /><defs /><polyline fill="none" fill-opacity="0" points="75.0,235.0 107.2,233.7 119.2,230.7 127.3,225.6 132.9,219.2 137.7,210.9 142.5,199.3 147.36,184.2 153.79,159.82 161.83,128.7 166.7,113.0 171.5,100.8 176.3,91.9 181.9,85.1 189.2,80.0 200.4,76.6 227.0,75.1 235.0,75.0" stroke="rgb(0,0,0)" stroke-width="0.25mm" /><defs /><text dominant-baseline="middle" fill="rgb(192,192,192)" fill-opacity="1" font-family="Verdana" font-size="48.0" text-anchor="middle" x="103.0" y="107.0">tanh</text><defs /></svg>