<?xml version="1.0" encoding="utf-8" ?>
<svg baseProfile="full" height="390.0" version="1.1" viewBox="0 0 310.0 390.0" width="310.0" xmlns="http://www.w3.org/2000/svg" xmlns:ev="http://www.w3.org/2001/xml-events" xmlns:xlink="http://www.w3.org/1999/xlink"><defs /><polyline fill="none" fill-opacity="0" points="65.0,95.0 125.0,95.0" stroke="rgb(0,0,255)" stroke-width="0.25mm" /><defs /><polyline fill="none" fill-opacity="0" points="65.0,295.0 125.0,295.0" stroke="rgb(0,0,255)" stroke-width="0.25mm" /><defs /><polyline fill="none" fill-opacity="0" points="185.0,95.0 245.0,95.0" stroke="rgb(0,0,255)" stroke-width="0.25mm" /><defs /><polyline fill="none" fill-opacity="0" points="185.0,155.0 247.0,155.0" stroke="rgb(0,0,255)" stroke-width="0.25mm" /><defs /><polyline fill="none" fill-opacity="0" points="185.0,235.0 245.0,235.0" stroke="rgb(0,0,255)" stroke-width="0.25mm" /><defs /><polyline fill="none" fill-opacity="0" points="185.0,295.0 245.0,295.0" stroke="rgb(0,0,255)" stroke-width="0.25mm" /><defs /><path d="M 184.999536727 115.000231623 C 182.499559893 114.500115807 179.999583059 113.99999999 177.499698879 111.499884176 177.499698879 111.499884176 174.999814698 108.999768362 175.000000005 104.999768366 175.000000005 104.999768366 175.000185313 100.99976837 177.500301127 98.49988419 177.500301127 98.49988419 180.000416941 96.0000000097 182.500440102 95.5001158272 182.500440102 95.5001158272 185.000463263 95.0002316447 185.000463263 95.0002316447" fill="none" fill-opacity="0" stroke="rgb(0,0,255)" stroke-width="0.25mm" /><defs /><path d="M 184.999536727 135.000231623 C 182.499559893 134.500115807 179.999583059 133.99999999 177.499698879 131.499884176 177.499698879 131.499884176 174.999814698 128.999768362 175.000000005 124.999768366 175.000000005 124.999768366 175.000185313 120.99976837 177.500301127 118.49988419 177.500301127 118.49988419 180.000416941 116.00000001 182.500440102 115.500115827 182.500440102 115.500115827 185.000463263 115.000231645 185.000463263 115.000231645" fill="none" fill-opacity="0" stroke="rgb(0,0,255)" stroke-width="0.25mm" /><defs /><path d="M 184.999536727 155.000231623 C 182.499559893 154.500115807 179.999583059 153.99999999 177.499698879 151.499884176 177.499698879 151.499884176 174.999814698 148.999768362 175.000000005 144.999768366 175.000000005 144.999768366 175.000185313 140.99976837 177.500301127 138.49988419 177.500301127 138.49988419 180.000416941 136.00000001 182.500440102 135.500115827 182.500440102 135.500115827 185.000463263 135.000231645 185.000463263 135.000231645" fill="none" fill-opacity="0" stroke="rgb(0,0,255)" stroke-width="0.25mm" /><defs /><path d="M 184.999536727 255.000231623 C 182.499559893 254.500115807 179.999583059 253.99999999 177.499698879 251.499884176 177.499698879 251.499884176 174.999814698 248.999768362 175.000000005 244.999768366 175.000000005 244.999768366 175.000185313 240.99976837 177.500301127 238.49988419 177.500301127 238.49988419 180.000416941 236.00000001 182.500440102 235.500115827 182.500440102 235.500115827 185.000463263 235.000231645 185.000463263 235.000231645" fill="none" fill-opacity="0" stroke="rgb(0,0,255)" stroke-width="0.25mm" /><defs /><path d="M 184.999536727 275.000231623 C 182.499559893 274.500115807 179.999583059 273.99999999 177.499698879 271.499884176 177.499698879 271.499884176 174.999814698 268.999768362 175.000000005 264.999768366 175.000000005 264.999768366 175.000185313 260.99976837 177.500301127 258.49988419 177.500301127 258.49988419 180.000416941 256.00000001 182.500440102 255.500115827 182.500440102 255.500115827 185.000463263 255.000231645 185.000463263 255.000231645" fill="none" fill-opacity="0" stroke="rgb(0,0,255)" stroke-width="0.25mm" /><defs /><path d="M 184.999536727 295.000231623 C 182.499559893 294.500115807 179.999583059 293.99999999 177.499698879 291.499884176 177.499698879 291.499884176 174.999814698 288.999768362 175.000000005 284.999768366 175.000000005 284.999768366 175.000185313 280.99976837 177.500301127 278.49988419 177.500301127 278.49988419 180.000416941 276.00000001 182.500440102 275.500115827 182.500440102 275.500115827 185.000463263 275.000231645 185.000463263 275.000231645" fill="none" fill-opacity="0" stroke="rgb(0,0,255)" stroke-width="0.25mm" /><defs /><path d="M 124.998147014 114.999073292 C 127.498239625 114.499536569 129.998332235 113.999999845 132.49879546 111.500463156 132.49879546 111.500463156 134.999258685 109.000926467 134.999999914 105.000926536 134.999999914 105.000926536 135.000741143 101.000926605 132.501204454 98.5004633795 132.501204454 98.5004633795 130.001667765 96.0000001545 127.501760461 95.4995368952 127.501760461 95.4995368952 125.001853158 94.9990736358 125.001853158 94.9990736358" fill="none" fill-opacity="0" stroke="rgb(0,0,255)" stroke-width="0.25mm" /><defs /><path d="M 124.998147014 134.999073292 C 127.498239625 134.499536569 129.998332235 133.999999845 132.49879546 131.500463156 132.49879546 131.500463156 134.999258685 129.000926467 134.999999914 125.000926536 134.999999914 125.000926536 135.000741143 121.000926605 132.501204454 118.50046338 132.501204454 118.50046338 130.001667765 116.000000155 127.501760461 115.499536895 127.501760461 115.499536895 125.001853158 114.999073636 125.001853158 114.999073636" fill="none" fill-opacity="0" stroke="rgb(0,0,255)" stroke-width="0.25mm" /><defs /><path d="M 124.998147014 154.999073292 C 127.498239625 154.499536569 129.998332235 153.999999845 132.49879546 151.500463156 132.49879546 151.500463156 134.999258685 149.000926467 134.999999914 145.000926536 134.999999914 145.000926536 135.000741143 141.000926605 132.501204454 138.50046338 132.501204454 138.50046338 130.001667765 136.000000155 127.501760461 135.499536895 127.501760461 135.499536895 125.001853158 134.999073636 125.001853158 134.999073636" fill="none" fill-opacity="0" stroke="rgb(0,0,255)" stroke-width="0.25mm" /><defs /><path d="M 124.998147014 174.999073292 C 127.498239625 174.499536569 129.998332235 173.999999845 132.49879546 171.500463156 132.49879546 171.500463156 134.999258685 169.000926467 134.999999914 165.000926536 134.999999914 165.000926536 135.000741143 161.000926605 132.501204454 158.50046338 132.501204454 158.50046338 130.001667765 156.000000155 127.501760461 155.499536895 127.501760461 155.499536895 125.001853158 154.999073636 125.001853158 154.999073636" fill="none" fill-opacity="0" stroke="rgb(0,0,255)" stroke-width="0.25mm" /><defs /><path d="M 124.998147014 194.999073292 C 127.498239625 194.499536569 129.998332235 193.999999845 132.49879546 191.500463156 132.49879546 191.500463156 134.999258685 189.000926467 134.999999914 185.000926536 134.999999914 185.000926536 135.000741143 181.000926605 132.501204454 178.50046338 132.501204454 178.50046338 130.001667765 176.000000155 127.501760461 175.499536895 127.501760461 175.499536895 125.001853158 174.999073636 125.001853158 174.999073636" fill="none" fill-opacity="0" stroke="rgb(0,0,255)" stroke-width="0.25mm" /><defs /><path d="M 124.998147014 214.999073292 C 127.498239625 214.499536569 129.998332235 213.999999845 132.49879546 211.500463156 132.49879546 211.500463156 134.999258685 209.000926467 134.999999914 205.000926536 134.999999914 205.000926536 135.000741143 201.000926605 132.501204454 198.50046338 132.501204454 198.50046338 130.001667765 196.000000155 127.501760461 195.499536895 127.501760461 195.499536895 125.001853158 194.999073636 125.001853158 194.999073636" fill="none" fill-opacity="0" stroke="rgb(0,0,255)" stroke-width="0.25mm" /><defs /><path d="M 124.998147014 234.999073292 C 127.498239625 234.499536569 129.998332235 233.999999845 132.49879546 231.500463156 132.49879546 231.500463156 134.999258685 229.000926467 134.999999914 225.000926536 134.999999914 225.000926536 135.000741143 221.000926605 132.501204454 218.50046338 132.501204454 218.50046338 130.001667765 216.000000155 127.501760461 215.499536895 127.501760461 215.499536895 125.001853158 214.999073636 125.001853158 214.999073636" fill="none" fill-opacity="0" stroke="rgb(0,0,255)" stroke-width="0.25mm" /><defs /><path d="M 124.998147014 254.999073292 C 127.498239625 254.499536569 129.998332235 253.999999845 132.49879546 251.500463156 132.49879546 251.500463156 134.999258685 249.000926467 134.999999914 245.000926536 134.999999914 245.000926536 135.000741143 241.000926605 132.501204454 238.50046338 132.501204454 238.50046338 130.001667765 236.000000155 127.501760461 235.499536895 127.501760461 235.499536895 125.001853158 234.999073636 125.001853158 234.999073636" fill="none" fill-opacity="0" stroke="rgb(0,0,255)" stroke-width="0.25mm" /><defs /><path d="M 124.998147014 274.999073292 C 127.498239625 274.499536569 129.998332235 273.999999845 132.49879546 271.500463156 132.49879546 271.500463156 134.999258685 269.000926467 134.999999914 265.000926536 134.999999914 265.000926536 135.000741143 261.000926605 132.501204454 258.50046338 132.501204454 258.50046338 130.001667765 256.000000155 127.501760461 255.499536895 127.501760461 255.499536895 125.001853158 254.999073636 125.001853158 254.999073636" fill="none" fill-opacity="0" stroke="rgb(0,0,255)" stroke-width="0.25mm" /><defs /><path d="M 124.998147014 294.999073292 C 127.498239625 294.499536569 129.998332235 293.999999845 132.49879546 291.500463156 132.49879546 291.500463156 134.999258685 289.000926467 134.999999914 285.000926536 134.999999914 285.000926536 135.000741143 281.000926605 132.501204454 278.50046338 132.501204454 278.50046338 130.001667765 276.000000155 127.501760461 275.499536895 127.501760461 275.499536895 125.001853158 274.999073636 125.001853158 274.999073636" fill="none" fill-opacity="0" stroke="rgb(0,0,255)" stroke-width="0.25mm" /><defs /><text dominant-baseline="middle" fill="rgb(0,0,0)" fill-opacity="1" font-family="Verdana" font-size="40.0" text-anchor="middle" x="155.0" y="325.0">m=m</text><defs /><text dominant-baseline="middle" fill="rgb(0,0,255)" fill-opacity="1" font-family="Verdana" font-size="40.0" text-anchor="middle" x="155.0" y="65.0">name</text><defs /><g id="plug_p1"><ellipse cx="35.0" cy="195.0" fill="rgb(0,0,255)" fill-opacity="1" rx="20.0" ry="20.0" stroke="rgb(0,0,255)" stroke-width="0.25mm" /><defs /><g display="none" id="info"><text id="name">plug_p1</text><text id="type">Modelica.Electrical.MultiPhase.Interfaces.PositivePlug</text><text id="classDesc">Positive polyphase electrical plug with m pins</text><text id="desc" /></g></g><g id="plug_n1"><ellipse cx="35.0" cy="195.0" fill="rgb(255,255,255)" fill-opacity="1" rx="20.0" ry="20.0" stroke="rgb(0,0,255)" stroke-width="0.25mm" /><defs /><g display="none" id="info"><text id="name">plug_n1</text><text id="type">Modelica.Electrical.MultiPhase.Interfaces.NegativePlug</text><text id="classDesc">Negative polyphase electrical plug with m pins</text><text id="desc" /></g></g><g id="plug_p2"><ellipse cx="35.0" cy="195.0" fill="rgb(0,0,255)" fill-opacity="1" rx="20.0" ry="20.0" stroke="rgb(0,0,255)" stroke-width="0.25mm" /><defs /><g display="none" id="info"><text id="name">plug_p2</text><text id="type">Modelica.Electrical.MultiPhase.Interfaces.PositivePlug</text><text id="classDesc">Positive polyphase electrical plug with m pins</text><text id="desc" /></g></g><g id="plug_n2"><ellipse cx="35.0" cy="195.0" fill="rgb(255,255,255)" fill-opacity="1" rx="20.0" ry="20.0" stroke="rgb(0,0,255)" stroke-width="0.25mm" /><defs /><g display="none" id="info"><text id="name">plug_n2</text><text id="type">Modelica.Electrical.MultiPhase.Interfaces.NegativePlug</text><text id="classDesc">Negative polyphase electrical plug with m pins</text><text id="desc" /></g></g><g id="plug_p3"><ellipse cx="35.0" cy="195.0" fill="rgb(0,0,255)" fill-opacity="1" rx="20.0" ry="20.0" stroke="rgb(0,0,255)" stroke-width="0.25mm" /><defs /><g display="none" id="info"><text id="name">plug_p3</text><text id="type">Modelica.Electrical.MultiPhase.Interfaces.PositivePlug</text><text id="classDesc">Positive polyphase electrical plug with m pins</text><text id="desc" /></g></g><g id="plug_n3"><ellipse cx="35.0" cy="195.0" fill="rgb(255,255,255)" fill-opacity="1" rx="20.0" ry="20.0" stroke="rgb(0,0,255)" stroke-width="0.25mm" /><defs /><g display="none" id="info"><text id="name">plug_n3</text><text id="type">Modelica.Electrical.MultiPhase.Interfaces.NegativePlug</text><text id="classDesc">Negative polyphase electrical plug with m pins</text><text id="desc" /></g></g></svg>