<?xml version="1.0" encoding="utf-8" ?>
<svg baseProfile="full" height="220.0" version="1.1" viewBox="0 0 310.0 220.0" width="310.0" xmlns="http://www.w3.org/2000/svg" xmlns:ev="http://www.w3.org/2001/xml-events" xmlns:xlink="http://www.w3.org/1999/xlink"><defs /><polygon fill="rgb(0,0,255)" fill-opacity="1" points="65.0,95.0 95.0,95.0 95.0,45.0 155.0,105.0 215.0,45.0 215.0,95.0 245.0,95.0 245.0,115.0 215.0,115.0 215.0,165.0 155.0,105.0 95.0,165.0 95.0,115.0 65.0,115.0 65.0,95.0" stroke="rgb(255,0,0)" stroke-width="0.25mm" /><defs /><polyline fill="none" fill-opacity="0" points="155.0,25.0 155.0,105.0" stroke="rgb(0,0,127)" stroke-width="0.25mm" /><defs /><text dominant-baseline="middle" fill="rgb(0,0,255)" fill-opacity="1" font-family="Verdana" font-size="40.0" text-anchor="middle" x="155.0" y="195.0">name</text><defs /><g id="flowPort_a"><rect fill="rgb(255,255,255)" fill-opacity="1" height="40.0" rx="0.0" ry="0.0" stroke="rgb(255,0,0)" stroke-width="0.25mm" width="40.0" x="15.0" y="85.0" /><defs /><ellipse cx="35.0" cy="105.0" fill="rgb(0,0,255)" fill-opacity="1" rx="19.6" ry="19.6" stroke="rgb(0,0,255)" stroke-width="0.25mm" /><defs /><g display="none" id="info"><text id="name">flowPort_a</text><text id="type">Modelica.Thermal.FluidHeatFlow.Interfaces.FlowPort_a</text><text id="classDesc">Filled flow port (used upstream)</text><text id="desc" /></g></g><g id="flowPort_b"><rect fill="rgb(255,255,255)" fill-opacity="1" height="40.0" rx="0.0" ry="0.0" stroke="rgb(255,0,0)" stroke-width="0.25mm" width="40.0" x="15.0" y="85.0" /><defs /><ellipse cx="35.0" cy="105.0" fill="none" fill-opacity="0" rx="19.6" ry="19.6" stroke="rgb(0,0,255)" stroke-width="0.25mm" /><defs /><g display="none" id="info"><text id="name">flowPort_b</text><text id="type">Modelica.Thermal.FluidHeatFlow.Interfaces.FlowPort_b</text><text id="classDesc">Hollow flow port (used downstream)</text><text id="desc" /></g></g><g id="y"><polygon fill="rgb(0,0,127)" fill-opacity="1" points="15.0,85.0 55.0,105.0 15.0,125.0" stroke="rgb(0,0,127)" stroke-width="0.25mm" /><defs /><g display="none" id="info"><text id="name">y</text><text id="type">Modelica.Blocks.Interfaces.RealInput</text><text id="classDesc">'input Real' as connector</text><text id="desc" /></g></g></svg>