<?xml version="1.0" encoding="utf-8" ?>
<svg baseProfile="full" height="210" version="1.1" viewBox="0 0 310.0 210" width="310.0" xmlns="http://www.w3.org/2000/svg" xmlns:ev="http://www.w3.org/2001/xml-events" xmlns:xlink="http://www.w3.org/1999/xlink"><defs /><ellipse cx="155.0" cy="105.0" fill="rgb(255,255,255)" fill-opacity="1" rx="50.0" ry="50.0" stroke="rgb(0,0,255)" stroke-width="0.25mm" /><defs /><polyline fill="none" fill-opacity="0" points="65.0,105.0 105.0,105.0" stroke="rgb(0,0,255)" stroke-width="0.25mm" /><defs /><polyline fill="none" fill-opacity="0" points="205.0,105.0 245.0,105.0" stroke="rgb(0,0,255)" stroke-width="0.25mm" /><defs /><polyline fill="none" fill-opacity="0" points="155.0,155.0 155.0,55.0" stroke="rgb(0,0,255)" stroke-width="0.25mm" /><defs /><text dominant-baseline="middle" fill="rgb(0,0,255)" fill-opacity="1" font-family="Verdana" font-size="40.0" text-anchor="middle" x="155.0" y="25.0">name</text><defs /><polygon fill="rgb(0,0,255)" fill-opacity="1" points="245.0,105.0 215.0,95.0 215.0,115.0 245.0,105.0" stroke="rgb(0,0,255)" stroke-width="0.25mm" /><defs /><polyline fill="none" fill-opacity="0" points="85.0,105.0 94.8,75.1 101.2,58.5 106.8,46.9 111.7,39.8 116.7,35.8 121.6,35.2 126.5,38.0 131.4,44.0 136.4,53.0 142.0,66.4 149.02,86.4 163.79,131.9 170.1,149.0 175.8,161.2 180.7,169.0 185.6,173.6 190.5,175.0 195.5,172.9 200.4,167.5 205.3,159.1 210.9,146.3 218.0,126.7 225.0,105.0" stroke="rgb(192,192,192)" stroke-width="0.25mm" /><defs /><g id="p"><rect fill="rgb(0,0,255)" fill-opacity="1" height="40.0" rx="0.0" ry="0.0" stroke="rgb(0,0,255)" stroke-width="0.25mm" width="40.0" x="15.0" y="85.0" /><defs /><g display="none" id="info"><text id="name">p</text><text id="type">Modelica.Electrical.Analog.Interfaces.PositivePin</text><text id="classDesc">Positive pin of an electrical component</text><text id="desc">Positive electrical pin</text></g></g><g id="n"><rect fill="rgb(255,255,255)" fill-opacity="1" height="40.0" rx="0.0" ry="0.0" stroke="rgb(0,0,255)" stroke-width="0.25mm" width="40.0" x="15.0" y="85.0" /><defs /><g display="none" id="info"><text id="name">n</text><text id="type">Modelica.Electrical.Analog.Interfaces.NegativePin</text><text id="classDesc">Negative pin of an electrical component</text><text id="desc">Negative electrical pin</text></g></g></svg>