<?xml version="1.0" encoding="UTF-8" standalone="no"?>
<svg
   xmlns:dc="http://purl.org/dc/elements/1.1/"
   xmlns:cc="http://creativecommons.org/ns#"
   xmlns:rdf="http://www.w3.org/1999/02/22-rdf-syntax-ns#"
   xmlns:svg="http://www.w3.org/2000/svg"
   xmlns="http://www.w3.org/2000/svg"
   viewBox="0 0 504.62747 240.88258"
   height="240.88258"
   width="504.62747"
   xml:space="preserve"
   id="svg272"
   version="1.1"><metadata
     id="metadata278"><rdf:RDF><cc:Work
         rdf:about=""><dc:format>image/svg+xml</dc:format><dc:type
           rdf:resource="http://purl.org/dc/dcmitype/StillImage" /><dc:title></dc:title></cc:Work></rdf:RDF></metadata><defs
     id="defs276" /><g
     transform="matrix(1.3333333,0,0,-1.3333333,1.9994792,238.88259)"
     id="g280"><g
       transform="scale(0.1)"
       id="g282"><path
         id="path284"
         style="fill:#de1d31;fill-opacity:1;fill-rule:nonzero;stroke:none"
         d="m 2600.46,1092.76 c 0,56.45 45.77,102.22 102.22,102.22 56.47,0 102.24,-45.77 102.24,-102.22 0,-56.46 -45.77,-102.237 -102.24,-102.237 -56.45,0 -102.22,45.777 -102.22,102.237" /><path
         id="path286"
         style="fill:#707a84;fill-opacity:1;fill-rule:nonzero;stroke:none"
         d="M 638.063,352.371 325.793,0 h 273.301 l 188.972,231.148 c -59.535,27.454 -110.875,69.34 -150.003,121.223 z M 2888.34,1773.86 c -127.6,-4.66 -270.77,-143.16 -270.77,-141.6 1.56,79.36 -57.57,155.6 -166.51,138.49 -108.91,-17.12 -245.86,-154.05 -247.41,-154.05 4.67,57.57 -33.52,125.25 -93.37,147.82 -85.43,32.24 -212.15,8.25 -376.06,-173.24 -128.93,-142.76 -456.43,-516.18 -579.78,-656.116 43.66,-25.879 81.86,-59.836 112.65,-100.012 l 391.92,484.328 c 0,0 227.09,297.77 351.68,326.78 103.13,24.01 119.2,-74.6 80.91,-166.51 -77.89,-186.93 -269.21,-497.949 -269.21,-497.949 0,0 267.66,347.009 312.78,404.589 45.13,57.57 270.77,340.79 370.36,241.2 97.06,-97.05 -194.51,-516.64 -194.51,-516.64 l 149.39,192.97 c 0,0 303.44,398.36 435.71,348.56 132.28,-49.79 -85.6,-413.92 -85.6,-412.37 0,0 130.49,99.46 200.75,312.78 32.13,97.55 4.67,225.64 -122.93,220.97" /><path
         id="path288"
         style="fill:#1f262f;fill-opacity:1;fill-rule:nonzero;stroke:none"
         d="m 0.0507813,784.254 c 0,85.754 69.1015187,158.187 172.3442187,158.187 54.121,0 99.914,-19.984 129.882,-50.773 30.813,30.789 75.762,50.773 129.887,50.773 104.082,0 169.856,-72.433 169.856,-158.187 L 601.969,407.48 h -94.926 l 0.051,362.61 c 0,59.117 -29.957,91.586 -76.582,91.586 -45.809,0 -81.61,-32.469 -81.61,-91.586 l -0.047,-362.61 h -95.742 l 0.047,362.61 c 0,59.117 -35.797,91.586 -82.422,91.586 -45.808,0 -75.781,-32.469 -75.781,-91.586 L 94.9102,407.48 H 0.00390625 L 0.0507813,784.254" /><path
         id="path290"
         style="fill:#1f262f;fill-opacity:1;fill-rule:nonzero;stroke:none"
         d="m 1485.39,492.02 c 54.13,0 97.42,43.269 97.42,97.402 0,54.117 -43.29,97.418 -97.42,97.418 -54.1,0 -97.39,-43.301 -97.39,-97.418 0,-54.133 43.29,-97.402 97.39,-97.402 z m 96.6,441.269 h 95.75 V 592.75 c 0,-105.719 -85.77,-192.301 -192.35,-192.301 -105.73,0 -191.49,86.582 -191.49,192.301 0,106.57 80.77,192.344 184.83,192.344 44.97,0 81.61,-20.824 103.26,-39.153 v 187.348" /><path
         id="path292"
         style="fill:#1f262f;fill-opacity:1;fill-rule:nonzero;stroke:none"
         d="m 1051.74,591.512 c 0,55.367 -37.44,102.539 -98.06,102.539 -60.617,0 -98.02,-47.172 -98.02,-102.539 0,-55.371 37.403,-102.543 98.02,-102.543 60.62,0 98.06,47.172 98.06,102.543 z m 91.3,0 c 0,-104.032 -83.83,-186.352 -189.36,-186.352 -105.528,0 -189.332,82.32 -189.332,186.352 0,104.758 83.804,186.336 189.332,186.336 105.53,0 189.36,-81.578 189.36,-186.336" /><path
         id="path294"
         style="fill:#1f262f;fill-opacity:1;fill-rule:nonzero;stroke:none"
         d="m 2094.85,624.422 c -1.53,30.687 -29.96,71.848 -89.08,71.848 -57.64,0 -83.81,-40.391 -86.8,-71.848 z M 2184.64,593 c 0,-6.738 0,-20.191 -0.74,-33.68 h -264.93 c 6.71,-31.422 43.38,-71.84 99.51,-71.84 62.12,0 97.3,35.942 97.3,35.942 l 44.9,-67.371 c 0,0 -56.13,-50.891 -142.2,-50.891 -107.75,0 -190.82,82.32 -190.82,186.352 0,104.027 75.6,186.336 178.11,186.336 97.28,0 178.87,-75.567 178.87,-184.848" /><path
         id="path296"
         style="fill:#1f262f;fill-opacity:1;fill-rule:nonzero;stroke:none"
         d="m 2360.79,933.289 h 93.4 V 407.48 h -93.4 v 525.809" /><path
         id="path298"
         style="fill:#1f262f;fill-opacity:1;fill-rule:nonzero;stroke:none"
         d="m 3181.32,532.379 59.12,-59.879 c 0,0 -50.89,-67.34 -146.68,-67.34 -106.26,0 -190.83,82.32 -190.83,186.352 0,104.758 84.57,186.336 190.83,186.336 95.06,0 145.18,-65.868 145.18,-65.868 l -62.12,-55.371 c 0,0 -29.16,37.442 -83.06,37.442 -60.63,0 -99.52,-47.172 -99.52,-102.539 0,-55.371 38.89,-102.543 99.52,-102.543 60.61,0 87.56,43.41 87.56,43.41" /><path
         id="path300"
         style="fill:#1f262f;fill-opacity:1;fill-rule:nonzero;stroke:none"
         d="m 2653.74,777.555 h 94.17 V 407.48 h -94.17 v 370.075" /><path
         id="path302"
         style="fill:#1f262f;fill-opacity:1;fill-rule:nonzero;stroke:none"
         d="m 3562.5,488.969 c -60.62,0 -98.02,47.172 -98.02,102.543 0,55.367 37.4,102.539 98.02,102.539 60.62,0 98.05,-47.172 98.05,-102.539 0,-55.371 -37.43,-102.543 -98.05,-102.543 z m 98.05,288.586 v -26.184 c -28.53,16.75 -61.96,26.477 -98.05,26.477 -105.53,0 -189.33,-81.578 -189.33,-186.336 0,-104.032 83.8,-186.352 189.33,-186.352 36.09,0 69.52,9.82 98.05,26.641 v -24.563 h 94.16 v 370.317 h -94.16" /></g></g></svg>