0
SECTION
2
ENTITIES
0
3DFACE
8
default
62
251
10
0.018000
20
0.695004
30
-0.041004
11
0.018000
21
0.605004
31
-0.041004
12
0.018000
22
0.695004
32
0.048996
13
0.018000
23
0.695004
33
-0.041004
0
3DFACE
8
default
62
251
10
0.033000
20
0.605004
30
0.003996
11
0.018000
21
0.605004
31
-0.041004
12
0.033000
22
0.605004
32
-0.041004
13
0.033000
23
0.605004
33
0.003996
0
3DFACE
8
default
62
251
10
0.033000
20
0.605004
30
0.048996
11
0.018000
21
0.605004
31
-0.041004
12
0.033000
22
0.605004
32
0.003996
13
0.033000
23
0.605004
33
0.048996
0
3DFACE
8
default
62
251
10
0.018000
20
0.605004
30
0.048996
11
0.018000
21
0.605004
31
-0.041004
12
0.033000
22
0.605004
32
0.048996
13
0.018000
23
0.605004
33
0.048996
0
3DFACE
8
default
62
251
10
0.033000
20
0.650004
30
-0.041004
11
0.018000
21
0.695004
31
-0.041004
12
0.033000
22
0.695004
32
-0.041004
13
0.033000
23
0.650004
33
-0.041004
0
3DFACE
8
default
62
251
10
0.033000
20
0.605004
30
-0.041004
11
0.018000
21
0.695004
31
-0.041004
12
0.033000
22
0.650004
32
-0.041004
13
0.033000
23
0.605004
33
-0.041004
0
3DFACE
8
default
62
251
10
0.018000
20
0.605004
30
-0.041004
11
0.018000
21
0.605004
31
0.048996
12
0.018000
22
0.695004
32
0.048996
13
0.018000
23
0.605004
33
-0.041004
0
3DFACE
8
default
62
251
10
0.018000
20
0.605004
30
-0.041004
11
0.018000
21
0.695004
31
-0.041004
12
0.033000
22
0.605004
32
-0.041004
13
0.018000
23
0.605004
33
-0.041004
0
3DFACE
8
default
62
251
10
0.018000
20
0.695004
30
0.048996
11
0.018000
21
0.605004
31
0.048996
12
0.033000
22
0.695004
32
0.048996
13
0.018000
23
0.695004
33
0.048996
0
3DFACE
8
default
62
251
10
0.033000
20
0.695004
30
0.003996
11
0.018000
21
0.695004
31
0.048996
12
0.033000
22
0.695004
32
0.048996
13
0.033000
23
0.695004
33
0.003996
0
3DFACE
8
default
62
251
10
0.033000
20
0.695004
30
-0.041004
11
0.018000
21
0.695004
31
0.048996
12
0.033000
22
0.695004
32
0.003996
13
0.033000
23
0.695004
33
-0.041004
0
3DFACE
8
default
62
251
10
0.018000
20
0.695004
30
-0.041004
11
0.018000
21
0.695004
31
0.048996
12
0.033000
22
0.695004
32
-0.041004
13
0.018000
23
0.695004
33
-0.041004
0
3DFACE
8
default
62
251
10
0.033000
20
0.650004
30
0.048996
11
0.018000
21
0.605004
31
0.048996
12
0.033000
22
0.605004
32
0.048996
13
0.033000
23
0.650004
33
0.048996
0
3DFACE
8
default
62
251
10
0.033000
20
0.695004
30
0.048996
11
0.018000
21
0.605004
31
0.048996
12
0.033000
22
0.650004
32
0.048996
13
0.033000
23
0.695004
33
0.048996
0
3DFACE
8
default
62
251
10
0.033000
20
0.695004
30
-0.041004
11
0.033000
21
0.683004
31
-0.038256
12
0.033000
22
0.650004
32
-0.041004
13
0.033000
23
0.695004
33
-0.041004
0
3DFACE
8
default
62
251
10
0.207996
20
0.617004
30
0.046260
11
0.207996
21
0.650004
31
0.048996
12
0.033000
22
0.617004
32
0.046260
13
0.207996
23
0.617004
33
0.046260
0
3DFACE
8
default
62
251
10
0.033000
20
0.683004
30
-0.033000
11
0.033000
21
0.683004
31
-0.038256
12
0.033000
22
0.695004
32
-0.041004
13
0.033000
23
0.683004
33
-0.033000
0
3DFACE
8
default
62
251
10
0.033000
20
0.683136
30
-0.031968
11
0.033000
21
0.683004
31
-0.033000
12
0.033000
22
0.695004
32
-0.041004
13
0.033000
23
0.683136
33
-0.031968
0
3DFACE
8
default
62
251
10
0.033000
20
0.683532
30
-0.030996
11
0.033000
21
0.683136
31
-0.031968
12
0.033000
22
0.695004
32
-0.041004
13
0.033000
23
0.683532
33
-0.030996
0
3DFACE
8
default
62
251
10
0.033000
20
0.684168
30
-0.030168
11
0.033000
21
0.683532
31
-0.030996
12
0.033000
22
0.695004
32
-0.041004
13
0.033000
23
0.684168
33
-0.030168
0
3DFACE
8
default
62
251
10
0.033000
20
0.684996
30
-0.029532
11
0.033000
21
0.684168
31
-0.030168
12
0.033000
22
0.695004
32
-0.041004
13
0.033000
23
0.684996
33
-0.029532
0
3DFACE
8
default
62
251
10
0.033000
20
0.685968
30
-0.029136
11
0.033000
21
0.684996
31
-0.029532
12
0.033000
22
0.695004
32
-0.041004
13
0.033000
23
0.685968
33
-0.029136
0
3DFACE
8
default
62
251
10
0.033000
20
0.687000
30
-0.029004
11
0.033000
21
0.685968
31
-0.029136
12
0.033000
22
0.695004
32
-0.041004
13
0.033000
23
0.687000
33
-0.029004
0
3DFACE
8
default
62
251
10
0.033000
20
0.692256
30
-0.029004
11
0.033000
21
0.687000
31
-0.029004
12
0.033000
22
0.695004
32
-0.041004
13
0.033000
23
0.692256
33
-0.029004
0
3DFACE
8
default
62
251
10
0.033000
20
0.695004
30
0.003996
11
0.033000
21
0.692256
31
-0.029004
12
0.033000
22
0.695004
32
-0.041004
13
0.033000
23
0.695004
33
0.003996
0
3DFACE
8
default
62
251
10
0.033000
20
0.605004
30
-0.041004
11
0.033000
21
0.607740
31
-0.029004
12
0.033000
22
0.605004
32
0.003996
13
0.033000
23
0.605004
33
-0.041004
0
3DFACE
8
default
62
251
10
0.033000
20
0.612996
30
-0.029004
11
0.033000
21
0.607740
31
-0.029004
12
0.033000
22
0.605004
32
-0.041004
13
0.033000
23
0.612996
33
-0.029004
0
3DFACE
8
default
62
251
10
0.033000
20
0.614040
30
-0.029136
11
0.033000
21
0.612996
31
-0.029004
12
0.033000
22
0.605004
32
-0.041004
13
0.033000
23
0.614040
33
-0.029136
0
3DFACE
8
default
62
251
10
0.033000
20
0.615000
30
-0.029532
11
0.033000
21
0.614040
31
-0.029136
12
0.033000
22
0.605004
32
-0.041004
13
0.033000
23
0.615000
33
-0.029532
0
3DFACE
8
default
62
251
10
0.033000
20
0.615828
30
-0.030168
11
0.033000
21
0.615000
31
-0.029532
12
0.033000
22
0.605004
32
-0.041004
13
0.033000
23
0.615828
33
-0.030168
0
3DFACE
8
default
62
251
10
0.033000
20
0.616464
30
-0.030996
11
0.033000
21
0.615828
31
-0.030168
12
0.033000
22
0.605004
32
-0.041004
13
0.033000
23
0.616464
33
-0.030996
0
3DFACE
8
default
62
251
10
0.033000
20
0.616860
30
-0.031968
11
0.033000
21
0.616464
31
-0.030996
12
0.033000
22
0.605004
32
-0.041004
13
0.033000
23
0.616860
33
-0.031968
0
3DFACE
8
default
62
251
10
0.033000
20
0.617004
30
-0.033000
11
0.033000
21
0.616860
31
-0.031968
12
0.033000
22
0.605004
32
-0.041004
13
0.033000
23
0.617004
33
-0.033000
0
3DFACE
8
default
62
251
10
0.033000
20
0.617004
30
-0.038256
11
0.033000
21
0.617004
31
-0.033000
12
0.033000
22
0.605004
32
-0.041004
13
0.033000
23
0.617004
33
-0.038256
0
3DFACE
8
default
62
251
10
0.033000
20
0.650004
30
-0.041004
11
0.033000
21
0.617004
31
-0.038256
12
0.033000
22
0.605004
32
-0.041004
13
0.033000
23
0.650004
33
-0.041004
0
3DFACE
8
default
62
251
10
0.033000
20
0.605004
30
0.048996
11
0.033000
21
0.617004
31
0.046260
12
0.033000
22
0.650004
32
0.048996
13
0.033000
23
0.605004
33
0.048996
0
3DFACE
8
default
62
251
10
0.033000
20
0.617004
30
0.041004
11
0.033000
21
0.617004
31
0.046260
12
0.033000
22
0.605004
32
0.048996
13
0.033000
23
0.617004
33
0.041004
0
3DFACE
8
default
62
251
10
0.033000
20
0.616860
30
0.039960
11
0.033000
21
0.617004
31
0.041004
12
0.033000
22
0.605004
32
0.048996
13
0.033000
23
0.616860
33
0.039960
0
3DFACE
8
default
62
251
10
0.033000
20
0.616464
30
0.039000
11
0.033000
21
0.616860
31
0.039960
12
0.033000
22
0.605004
32
0.048996
13
0.033000
23
0.616464
33
0.039000
0
3DFACE
8
default
62
251
10
0.033000
20
0.615828
30
0.038172
11
0.033000
21
0.616464
31
0.039000
12
0.033000
22
0.605004
32
0.048996
13
0.033000
23
0.615828
33
0.038172
0
3DFACE
8
default
62
251
10
0.033000
20
0.615000
30
0.037536
11
0.033000
21
0.615828
31
0.038172
12
0.033000
22
0.605004
32
0.048996
13
0.033000
23
0.615000
33
0.037536
0
3DFACE
8
default
62
251
10
0.033000
20
0.614040
30
0.037140
11
0.033000
21
0.615000
31
0.037536
12
0.033000
22
0.605004
32
0.048996
13
0.033000
23
0.614040
33
0.037140
0
3DFACE
8
default
62
251
10
0.033000
20
0.612996
30
0.036996
11
0.033000
21
0.614040
31
0.037140
12
0.033000
22
0.605004
32
0.048996
13
0.033000
23
0.612996
33
0.036996
0
3DFACE
8
default
62
251
10
0.033000
20
0.607740
30
0.036996
11
0.033000
21
0.612996
31
0.036996
12
0.033000
22
0.605004
32
0.048996
13
0.033000
23
0.607740
33
0.036996
0
3DFACE
8
default
62
251
10
0.033000
20
0.605004
30
0.003996
11
0.033000
21
0.607740
31
0.036996
12
0.033000
22
0.605004
32
0.048996
13
0.033000
23
0.605004
33
0.003996
0
3DFACE
8
default
62
251
10
0.033000
20
0.695004
30
0.048996
11
0.033000
21
0.692256
31
0.036996
12
0.033000
22
0.695004
32
0.003996
13
0.033000
23
0.695004
33
0.048996
0
3DFACE
8
default
62
251
10
0.033000
20
0.687000
30
0.036996
11
0.033000
21
0.692256
31
0.036996
12
0.033000
22
0.695004
32
0.048996
13
0.033000
23
0.687000
33
0.036996
0
3DFACE
8
default
62
251
10
0.033000
20
0.685968
30
0.037140
11
0.033000
21
0.687000
31
0.036996
12
0.033000
22
0.695004
32
0.048996
13
0.033000
23
0.685968
33
0.037140
0
3DFACE
8
default
62
251
10
0.033000
20
0.684996
30
0.037536
11
0.033000
21
0.685968
31
0.037140
12
0.033000
22
0.695004
32
0.048996
13
0.033000
23
0.684996
33
0.037536
0
3DFACE
8
default
62
251
10
0.033000
20
0.684168
30
0.038172
11
0.033000
21
0.684996
31
0.037536
12
0.033000
22
0.695004
32
0.048996
13
0.033000
23
0.684168
33
0.038172
0
3DFACE
8
default
62
251
10
0.033000
20
0.683532
30
0.039000
11
0.033000
21
0.684168
31
0.038172
12
0.033000
22
0.695004
32
0.048996
13
0.033000
23
0.683532
33
0.039000
0
3DFACE
8
default
62
251
10
0.033000
20
0.683136
30
0.039960
11
0.033000
21
0.683532
31
0.039000
12
0.033000
22
0.695004
32
0.048996
13
0.033000
23
0.683136
33
0.039960
0
3DFACE
8
default
62
251
10
0.033000
20
0.683004
30
0.041004
11
0.033000
21
0.683136
31
0.039960
12
0.033000
22
0.695004
32
0.048996
13
0.033000
23
0.683004
33
0.041004
0
3DFACE
8
default
62
251
10
0.033000
20
0.683004
30
0.046260
11
0.033000
21
0.683004
31
0.041004
12
0.033000
22
0.695004
32
0.048996
13
0.033000
23
0.683004
33
0.046260
0
3DFACE
8
default
62
251
10
0.033000
20
0.650004
30
0.048996
11
0.033000
21
0.683004
31
0.046260
12
0.033000
22
0.695004
32
0.048996
13
0.033000
23
0.650004
33
0.048996
0
3DFACE
8
default
62
251
10
0.207996
20
0.650004
30
0.048996
11
0.033000
21
0.650004
31
0.048996
12
0.033000
22
0.617004
32
0.046260
13
0.207996
23
0.650004
33
0.048996
0
3DFACE
8
default
62
251
10
0.033000
20
0.683004
30
0.046260
11
0.033000
21
0.650004
31
0.048996
12
0.207996
22
0.683004
32
0.046260
13
0.033000
23
0.683004
33
0.046260
0
3DFACE
8
default
62
251
10
0.033000
20
0.650004
30
0.048996
11
0.207996
21
0.650004
31
0.048996
12
0.207996
22
0.683004
32
0.046260
13
0.033000
23
0.650004
33
0.048996
0
3DFACE
8
default
62
251
10
0.207996
20
0.607740
30
-0.029004
11
0.207996
21
0.605004
31
0.003996
12
0.033000
22
0.607740
32
-0.029004
13
0.207996
23
0.607740
33
-0.029004
0
3DFACE
8
default
62
251
10
0.207996
20
0.605004
30
0.003996
11
0.033000
21
0.605004
31
0.003996
12
0.033000
22
0.607740
32
-0.029004
13
0.207996
23
0.605004
33
0.003996
0
3DFACE
8
default
62
251
10
0.033000
20
0.607740
30
0.036996
11
0.033000
21
0.605004
31
0.003996
12
0.207996
22
0.607740
32
0.036996
13
0.033000
23
0.607740
33
0.036996
0
3DFACE
8
default
62
251
10
0.033000
20
0.605004
30
0.003996
11
0.207996
21
0.605004
31
0.003996
12
0.207996
22
0.607740
32
0.036996
13
0.033000
23
0.605004
33
0.003996
0
3DFACE
8
default
62
251
10
0.207996
20
0.683004
30
-0.038256
11
0.207996
21
0.650004
31
-0.041004
12
0.033000
22
0.683004
32
-0.038256
13
0.207996
23
0.683004
33
-0.038256
0
3DFACE
8
default
62
251
10
0.207996
20
0.650004
30
-0.041004
11
0.033000
21
0.650004
31
-0.041004
12
0.033000
22
0.683004
32
-0.038256
13
0.207996
23
0.650004
33
-0.041004
0
3DFACE
8
default
62
251
10
0.033000
20
0.617004
30
-0.038256
11
0.033000
21
0.650004
31
-0.041004
12
0.207996
22
0.617004
32
-0.038256
13
0.033000
23
0.617004
33
-0.038256
0
3DFACE
8
default
62
251
10
0.033000
20
0.650004
30
-0.041004
11
0.207996
21
0.650004
31
-0.041004
12
0.207996
22
0.617004
32
-0.038256
13
0.033000
23
0.650004
33
-0.041004
0
3DFACE
8
default
62
251
10
0.033000
20
0.692256
30
-0.029004
11
0.033000
21
0.695004
31
0.003996
12
0.207996
22
0.692256
32
-0.029004
13
0.033000
23
0.692256
33
-0.029004
0
3DFACE
8
default
62
251
10
0.033000
20
0.695004
30
0.003996
11
0.207996
21
0.695004
31
0.003996
12
0.207996
22
0.692256
32
-0.029004
13
0.033000
23
0.695004
33
0.003996
0
3DFACE
8
default
62
251
10
0.207996
20
0.692256
30
0.036996
11
0.207996
21
0.695004
31
0.003996
12
0.033000
22
0.692256
32
0.036996
13
0.207996
23
0.692256
33
0.036996
0
3DFACE
8
default
62
251
10
0.207996
20
0.692256
30
-0.029004
11
0.033000
21
0.687000
31
-0.029004
12
0.033000
22
0.692256
32
-0.029004
13
0.207996
23
0.692256
33
-0.029004
0
3DFACE
8
default
62
251
10
0.207996
20
0.687000
30
-0.029004
11
0.033000
21
0.687000
31
-0.029004
12
0.207996
22
0.692256
32
-0.029004
13
0.207996
23
0.687000
33
-0.029004
0
3DFACE
8
default
62
251
10
0.207996
20
0.687000
30
-0.029004
11
0.207996
21
0.685968
31
-0.029136
12
0.033000
22
0.687000
32
-0.029004
13
0.207996
23
0.687000
33
-0.029004
0
3DFACE
8
default
62
251
10
0.033000
20
0.687000
30
-0.029004
11
0.207996
21
0.685968
31
-0.029136
12
0.033000
22
0.685968
32
-0.029136
13
0.033000
23
0.687000
33
-0.029004
0
3DFACE
8
default
62
251
10
0.033000
20
0.684996
30
-0.029532
11
0.033000
21
0.685968
31
-0.029136
12
0.207996
22
0.685968
32
-0.029136
13
0.033000
23
0.684996
33
-0.029532
0
3DFACE
8
default
62
251
10
0.033000
20
0.684996
30
-0.029532
11
0.207996
21
0.685968
31
-0.029136
12
0.207996
22
0.684996
32
-0.029532
13
0.033000
23
0.684996
33
-0.029532
0
3DFACE
8
default
62
251
10
0.033000
20
0.684168
30
-0.030168
11
0.033000
21
0.684996
31
-0.029532
12
0.207996
22
0.684996
32
-0.029532
13
0.033000
23
0.684168
33
-0.030168
0
3DFACE
8
default
62
251
10
0.033000
20
0.684168
30
-0.030168
11
0.207996
21
0.684996
31
-0.029532
12
0.207996
22
0.684168
32
-0.030168
13
0.033000
23
0.684168
33
-0.030168
0
3DFACE
8
default
62
251
10
0.033000
20
0.683532
30
-0.030996
11
0.033000
21
0.684168
31
-0.030168
12
0.207996
22
0.684168
32
-0.030168
13
0.033000
23
0.683532
33
-0.030996
0
3DFACE
8
default
62
251
10
0.033000
20
0.683532
30
-0.030996
11
0.207996
21
0.684168
31
-0.030168
12
0.207996
22
0.683532
32
-0.030996
13
0.033000
23
0.683532
33
-0.030996
0
3DFACE
8
default
62
251
10
0.033000
20
0.683136
30
-0.031968
11
0.033000
21
0.683532
31
-0.030996
12
0.207996
22
0.683532
32
-0.030996
13
0.033000
23
0.683136
33
-0.031968
0
3DFACE
8
default
62
251
10
0.033000
20
0.683136
30
-0.031968
11
0.207996
21
0.683532
31
-0.030996
12
0.207996
22
0.683136
32
-0.031968
13
0.033000
23
0.683136
33
-0.031968
0
3DFACE
8
default
62
251
10
0.033000
20
0.683004
30
-0.033000
11
0.033000
21
0.683136
31
-0.031968
12
0.207996
22
0.683136
32
-0.031968
13
0.033000
23
0.683004
33
-0.033000
0
3DFACE
8
default
62
251
10
0.033000
20
0.683004
30
-0.033000
11
0.207996
21
0.683136
31
-0.031968
12
0.207996
22
0.683004
32
-0.033000
13
0.033000
23
0.683004
33
-0.033000
0
3DFACE
8
default
62
251
10
0.033000
20
0.683004
30
-0.038256
11
0.207996
21
0.683004
31
-0.033000
12
0.207996
22
0.683004
32
-0.038256
13
0.033000
23
0.683004
33
-0.038256
0
3DFACE
8
default
62
251
10
0.033000
20
0.683004
30
-0.033000
11
0.207996
21
0.683004
31
-0.033000
12
0.033000
22
0.683004
32
-0.038256
13
0.033000
23
0.683004
33
-0.033000
0
3DFACE
8
default
62
251
10
0.207996
20
0.617004
30
-0.038256
11
0.033000
21
0.617004
31
-0.033000
12
0.033000
22
0.617004
32
-0.038256
13
0.207996
23
0.617004
33
-0.038256
0
3DFACE
8
default
62
251
10
0.207996
20
0.617004
30
-0.033000
11
0.033000
21
0.617004
31
-0.033000
12
0.207996
22
0.617004
32
-0.038256
13
0.207996
23
0.617004
33
-0.033000
0
3DFACE
8
default
62
251
10
0.207996
20
0.617004
30
-0.033000
11
0.207996
21
0.616860
31
-0.031968
12
0.033000
22
0.617004
32
-0.033000
13
0.207996
23
0.617004
33
-0.033000
0
3DFACE
8
default
62
251
10
0.033000
20
0.617004
30
-0.033000
11
0.207996
21
0.616860
31
-0.031968
12
0.033000
22
0.616860
32
-0.031968
13
0.033000
23
0.617004
33
-0.033000
0
3DFACE
8
default
62
251
10
0.033000
20
0.616464
30
-0.030996
11
0.033000
21
0.616860
31
-0.031968
12
0.207996
22
0.616860
32
-0.031968
13
0.033000
23
0.616464
33
-0.030996
0
3DFACE
8
default
62
251
10
0.033000
20
0.616464
30
-0.030996
11
0.207996
21
0.616860
31
-0.031968
12
0.207996
22
0.616464
32
-0.030996
13
0.033000
23
0.616464
33
-0.030996
0
3DFACE
8
default
62
251
10
0.033000
20
0.615828
30
-0.030168
11
0.033000
21
0.616464
31
-0.030996
12
0.207996
22
0.616464
32
-0.030996
13
0.033000
23
0.615828
33
-0.030168
0
3DFACE
8
default
62
251
10
0.033000
20
0.615828
30
-0.030168
11
0.207996
21
0.616464
31
-0.030996
12
0.207996
22
0.615828
32
-0.030168
13
0.033000
23
0.615828
33
-0.030168
0
3DFACE
8
default
62
251
10
0.033000
20
0.615000
30
-0.029532
11
0.033000
21
0.615828
31
-0.030168
12
0.207996
22
0.615828
32
-0.030168
13
0.033000
23
0.615000
33
-0.029532
0
3DFACE
8
default
62
251
10
0.033000
20
0.615000
30
-0.029532
11
0.207996
21
0.615828
31
-0.030168
12
0.207996
22
0.615000
32
-0.029532
13
0.033000
23
0.615000
33
-0.029532
0
3DFACE
8
default
62
251
10
0.033000
20
0.614040
30
-0.029136
11
0.033000
21
0.615000
31
-0.029532
12
0.207996
22
0.615000
32
-0.029532
13
0.033000
23
0.614040
33
-0.029136
0
3DFACE
8
default
62
251
10
0.033000
20
0.614040
30
-0.029136
11
0.207996
21
0.615000
31
-0.029532
12
0.207996
22
0.614040
32
-0.029136
13
0.033000
23
0.614040
33
-0.029136
0
3DFACE
8
default
62
251
10
0.033000
20
0.612996
30
-0.029004
11
0.033000
21
0.614040
31
-0.029136
12
0.207996
22
0.614040
32
-0.029136
13
0.033000
23
0.612996
33
-0.029004
0
3DFACE
8
default
62
251
10
0.033000
20
0.612996
30
-0.029004
11
0.207996
21
0.614040
31
-0.029136
12
0.207996
22
0.612996
32
-0.029004
13
0.033000
23
0.612996
33
-0.029004
0
3DFACE
8
default
62
251
10
0.033000
20
0.607740
30
-0.029004
11
0.207996
21
0.612996
31
-0.029004
12
0.207996
22
0.607740
32
-0.029004
13
0.033000
23
0.607740
33
-0.029004
0
3DFACE
8
default
62
251
10
0.033000
20
0.612996
30
-0.029004
11
0.207996
21
0.612996
31
-0.029004
12
0.033000
22
0.607740
32
-0.029004
13
0.033000
23
0.612996
33
-0.029004
0
3DFACE
8
default
62
251
10
0.207996
20
0.607740
30
0.036996
11
0.033000
21
0.612996
31
0.036996
12
0.033000
22
0.607740
32
0.036996
13
0.207996
23
0.607740
33
0.036996
0
3DFACE
8
default
62
251
10
0.207996
20
0.612996
30
0.036996
11
0.033000
21
0.612996
31
0.036996
12
0.207996
22
0.607740
32
0.036996
13
0.207996
23
0.612996
33
0.036996
0
3DFACE
8
default
62
251
10
0.207996
20
0.612996
30
0.036996
11
0.207996
21
0.614040
31
0.037140
12
0.033000
22
0.612996
32
0.036996
13
0.207996
23
0.612996
33
0.036996
0
3DFACE
8
default
62
251
10
0.033000
20
0.612996
30
0.036996
11
0.207996
21
0.614040
31
0.037140
12
0.033000
22
0.614040
32
0.037140
13
0.033000
23
0.612996
33
0.036996
0
3DFACE
8
default
62
251
10
0.033000
20
0.615000
30
0.037536
11
0.033000
21
0.614040
31
0.037140
12
0.207996
22
0.614040
32
0.037140
13
0.033000
23
0.615000
33
0.037536
0
3DFACE
8
default
62
251
10
0.033000
20
0.615000
30
0.037536
11
0.207996
21
0.614040
31
0.037140
12
0.207996
22
0.615000
32
0.037536
13
0.033000
23
0.615000
33
0.037536
0
3DFACE
8
default
62
251
10
0.033000
20
0.615828
30
0.038172
11
0.033000
21
0.615000
31
0.037536
12
0.207996
22
0.615000
32
0.037536
13
0.033000
23
0.615828
33
0.038172
0
3DFACE
8
default
62
251
10
0.033000
20
0.615828
30
0.038172
11
0.207996
21
0.615000
31
0.037536
12
0.207996
22
0.615828
32
0.038172
13
0.033000
23
0.615828
33
0.038172
0
3DFACE
8
default
62
251
10
0.033000
20
0.616464
30
0.039000
11
0.033000
21
0.615828
31
0.038172
12
0.207996
22
0.615828
32
0.038172
13
0.033000
23
0.616464
33
0.039000
0
3DFACE
8
default
62
251
10
0.033000
20
0.616464
30
0.039000
11
0.207996
21
0.615828
31
0.038172
12
0.207996
22
0.616464
32
0.039000
13
0.033000
23
0.616464
33
0.039000
0
3DFACE
8
default
62
251
10
0.033000
20
0.616860
30
0.039960
11
0.033000
21
0.616464
31
0.039000
12
0.207996
22
0.616464
32
0.039000
13
0.033000
23
0.616860
33
0.039960
0
3DFACE
8
default
62
251
10
0.033000
20
0.616860
30
0.039960
11
0.207996
21
0.616464
31
0.039000
12
0.207996
22
0.616860
32
0.039960
13
0.033000
23
0.616860
33
0.039960
0
3DFACE
8
default
62
251
10
0.033000
20
0.617004
30
0.041004
11
0.033000
21
0.616860
31
0.039960
12
0.207996
22
0.616860
32
0.039960
13
0.033000
23
0.617004
33
0.041004
0
3DFACE
8
default
62
251
10
0.033000
20
0.617004
30
0.041004
11
0.207996
21
0.616860
31
0.039960
12
0.207996
22
0.617004
32
0.041004
13
0.033000
23
0.617004
33
0.041004
0
3DFACE
8
default
62
251
10
0.033000
20
0.617004
30
0.046260
11
0.207996
21
0.617004
31
0.041004
12
0.207996
22
0.617004
32
0.046260
13
0.033000
23
0.617004
33
0.046260
0
3DFACE
8
default
62
251
10
0.033000
20
0.617004
30
0.041004
11
0.207996
21
0.617004
31
0.041004
12
0.033000
22
0.617004
32
0.046260
13
0.033000
23
0.617004
33
0.041004
0
3DFACE
8
default
62
251
10
0.207996
20
0.683004
30
0.046260
11
0.033000
21
0.683004
31
0.041004
12
0.033000
22
0.683004
32
0.046260
13
0.207996
23
0.683004
33
0.046260
0
3DFACE
8
default
62
251
10
0.207996
20
0.683004
30
0.041004
11
0.033000
21
0.683004
31
0.041004
12
0.207996
22
0.683004
32
0.046260
13
0.207996
23
0.683004
33
0.041004
0
3DFACE
8
default
62
251
10
0.207996
20
0.683004
30
0.041004
11
0.207996
21
0.683136
31
0.039960
12
0.033000
22
0.683004
32
0.041004
13
0.207996
23
0.683004
33
0.041004
0
3DFACE
8
default
62
251
10
0.033000
20
0.683004
30
0.041004
11
0.207996
21
0.683136
31
0.039960
12
0.033000
22
0.683136
32
0.039960
13
0.033000
23
0.683004
33
0.041004
0
3DFACE
8
default
62
251
10
0.033000
20
0.683532
30
0.039000
11
0.033000
21
0.683136
31
0.039960
12
0.207996
22
0.683136
32
0.039960
13
0.033000
23
0.683532
33
0.039000
0
3DFACE
8
default
62
251
10
0.033000
20
0.683532
30
0.039000
11
0.207996
21
0.683136
31
0.039960
12
0.207996
22
0.683532
32
0.039000
13
0.033000
23
0.683532
33
0.039000
0
3DFACE
8
default
62
251
10
0.033000
20
0.684168
30
0.038172
11
0.033000
21
0.683532
31
0.039000
12
0.207996
22
0.683532
32
0.039000
13
0.033000
23
0.684168
33
0.038172
0
3DFACE
8
default
62
251
10
0.033000
20
0.684168
30
0.038172
11
0.207996
21
0.683532
31
0.039000
12
0.207996
22
0.684168
32
0.038172
13
0.033000
23
0.684168
33
0.038172
0
3DFACE
8
default
62
251
10
0.033000
20
0.684996
30
0.037536
11
0.033000
21
0.684168
31
0.038172
12
0.207996
22
0.684168
32
0.038172
13
0.033000
23
0.684996
33
0.037536
0
3DFACE
8
default
62
251
10
0.033000
20
0.684996
30
0.037536
11
0.207996
21
0.684168
31
0.038172
12
0.207996
22
0.684996
32
0.037536
13
0.033000
23
0.684996
33
0.037536
0
3DFACE
8
default
62
251
10
0.033000
20
0.685968
30
0.037140
11
0.033000
21
0.684996
31
0.037536
12
0.207996
22
0.684996
32
0.037536
13
0.033000
23
0.685968
33
0.037140
0
3DFACE
8
default
62
251
10
0.033000
20
0.685968
30
0.037140
11
0.207996
21
0.684996
31
0.037536
12
0.207996
22
0.685968
32
0.037140
13
0.033000
23
0.685968
33
0.037140
0
3DFACE
8
default
62
251
10
0.033000
20
0.687000
30
0.036996
11
0.033000
21
0.685968
31
0.037140
12
0.207996
22
0.685968
32
0.037140
13
0.033000
23
0.687000
33
0.036996
0
3DFACE
8
default
62
251
10
0.033000
20
0.687000
30
0.036996
11
0.207996
21
0.685968
31
0.037140
12
0.207996
22
0.687000
32
0.036996
13
0.033000
23
0.687000
33
0.036996
0
3DFACE
8
default
62
251
10
0.033000
20
0.692256
30
0.036996
11
0.207996
21
0.687000
31
0.036996
12
0.207996
22
0.692256
32
0.036996
13
0.033000
23
0.692256
33
0.036996
0
3DFACE
8
default
62
251
10
0.033000
20
0.687000
30
0.036996
11
0.207996
21
0.687000
31
0.036996
12
0.033000
22
0.692256
32
0.036996
13
0.033000
23
0.687000
33
0.036996
0
3DFACE
8
default
62
251
10
0.207996
20
0.695004
30
0.003996
11
0.033000
21
0.695004
31
0.003996
12
0.033000
22
0.692256
32
0.036996
13
0.207996
23
0.695004
33
0.003996
0
3DFACE
8
default
62
251
10
0.218004
20
0.643296
30
0.015612
11
0.207996
21
0.637356
31
0.025908
12
0.207996
22
0.632112
32
0.021888
13
0.218004
23
0.643296
33
0.015612
0
3DFACE
8
default
62
251
10
0.218004
20
0.640524
30
0.013476
11
0.218004
21
0.643296
31
0.015612
12
0.207996
22
0.632112
32
0.021888
13
0.218004
23
0.640524
33
0.013476
0
3DFACE
8
default
62
251
10
0.218004
20
0.640524
30
0.013476
11
0.207996
21
0.632112
31
0.021888
12
0.207996
22
0.628092
32
0.016644
13
0.218004
23
0.640524
33
0.013476
0
3DFACE
8
default
62
251
10
0.218004
20
0.638388
30
0.010704
11
0.218004
21
0.640524
31
0.013476
12
0.207996
22
0.628092
32
0.016644
13
0.218004
23
0.638388
33
0.010704
0
3DFACE
8
default
62
251
10
0.218004
20
0.638388
30
0.010704
11
0.207996
21
0.628092
31
0.016644
12
0.207996
22
0.625572
32
0.010548
13
0.218004
23
0.638388
33
0.010704
0
3DFACE
8
default
62
251
10
0.218004
20
0.637056
30
0.007464
11
0.218004
21
0.638388
31
0.010704
12
0.207996
22
0.625572
32
0.010548
13
0.218004
23
0.637056
33
0.007464
0
3DFACE
8
default
62
251
10
0.218004
20
0.637056
30
0.007464
11
0.207996
21
0.625572
31
0.010548
12
0.207996
22
0.624708
32
0.003996
13
0.218004
23
0.637056
33
0.007464
0
3DFACE
8
default
62
251
10
0.218004
20
0.636600
30
0.003996
11
0.218004
21
0.637056
31
0.007464
12
0.207996
22
0.624708
32
0.003996
13
0.218004
23
0.636600
33
0.003996
0
3DFACE
8
default
62
251
10
0.218004
20
0.636600
30
0.003996
11
0.207996
21
0.624708
31
0.003996
12
0.207996
22
0.625572
32
-0.002544
13
0.218004
23
0.636600
33
0.003996
0
3DFACE
8
default
62
251
10
0.218004
20
0.637056
30
0.000528
11
0.218004
21
0.636600
31
0.003996
12
0.207996
22
0.625572
32
-0.002544
13
0.218004
23
0.637056
33
0.000528
0
3DFACE
8
default
62
251
10
0.218004
20
0.637056
30
0.000528
11
0.207996
21
0.625572
31
-0.002544
12
0.207996
22
0.628092
32
-0.008652
13
0.218004
23
0.637056
33
0.000528
0
3DFACE
8
default
62
251
10
0.218004
20
0.638388
30
-0.002700
11
0.218004
21
0.637056
31
0.000528
12
0.207996
22
0.628092
32
-0.008652
13
0.218004
23
0.638388
33
-0.002700
0
3DFACE
8
default
62
251
10
0.218004
20
0.638388
30
-0.002700
11
0.207996
21
0.628092
31
-0.008652
12
0.207996
22
0.632112
32
-0.013884
13
0.218004
23
0.638388
33
-0.002700
0
3DFACE
8
default
62
251
10
0.218004
20
0.640524
30
-0.005484
11
0.218004
21
0.638388
31
-0.002700
12
0.207996
22
0.632112
32
-0.013884
13
0.218004
23
0.640524
33
-0.005484
0
3DFACE
8
default
62
251
10
0.218004
20
0.640524
30
-0.005484
11
0.207996
21
0.632112
31
-0.013884
12
0.207996
22
0.637356
32
-0.017904
13
0.218004
23
0.640524
33
-0.005484
0
3DFACE
8
default
62
251
10
0.218004
20
0.643296
30
-0.007608
11
0.218004
21
0.640524
31
-0.005484
12
0.207996
22
0.637356
32
-0.017904
13
0.218004
23
0.643296
33
-0.007608
0
3DFACE
8
default
62
251
10
0.218004
20
0.643296
30
-0.007608
11
0.207996
21
0.637356
31
-0.017904
12
0.207996
22
0.643452
32
-0.020436
13
0.218004
23
0.643296
33
-0.007608
0
3DFACE
8
default
62
251
10
0.218004
20
0.646536
30
-0.008952
11
0.218004
21
0.643296
31
-0.007608
12
0.207996
22
0.643452
32
-0.020436
13
0.218004
23
0.646536
33
-0.008952
0
3DFACE
8
default
62
251
10
0.218004
20
0.646536
30
-0.008952
11
0.207996
21
0.643452
31
-0.020436
12
0.207996
22
0.650004
32
-0.021288
13
0.218004
23
0.646536
33
-0.008952
0
3DFACE
8
default
62
251
10
0.218004
20
0.650004
30
-0.009408
11
0.218004
21
0.646536
31
-0.008952
12
0.207996
22
0.650004
32
-0.021288
13
0.218004
23
0.650004
33
-0.009408
0
3DFACE
8
default
62
251
10
0.218004
20
0.650004
30
-0.009408
11
0.207996
21
0.650004
31
-0.021288
12
0.207996
22
0.656544
32
-0.020436
13
0.218004
23
0.650004
33
-0.009408
0
3DFACE
8
default
62
251
10
0.218004
20
0.653472
30
-0.008952
11
0.218004
21
0.650004
31
-0.009408
12
0.207996
22
0.656544
32
-0.020436
13
0.218004
23
0.653472
33
-0.008952
0
3DFACE
8
default
62
251
10
0.218004
20
0.653472
30
-0.008952
11
0.207996
21
0.656544
31
-0.020436
12
0.207996
22
0.662652
32
-0.017904
13
0.218004
23
0.653472
33
-0.008952
0
3DFACE
8
default
62
251
10
0.218004
20
0.656700
30
-0.007608
11
0.218004
21
0.653472
31
-0.008952
12
0.207996
22
0.662652
32
-0.017904
13
0.218004
23
0.656700
33
-0.007608
0
3DFACE
8
default
62
251
10
0.218004
20
0.656700
30
-0.007608
11
0.207996
21
0.662652
31
-0.017904
12
0.207996
22
0.667884
32
-0.013884
13
0.218004
23
0.656700
33
-0.007608
0
3DFACE
8
default
62
251
10
0.218004
20
0.659484
30
-0.005484
11
0.218004
21
0.656700
31
-0.007608
12
0.207996
22
0.667884
32
-0.013884
13
0.218004
23
0.659484
33
-0.005484
0
3DFACE
8
default
62
251
10
0.218004
20
0.659484
30
-0.005484
11
0.207996
21
0.667884
31
-0.013884
12
0.207996
22
0.671904
32
-0.008652
13
0.218004
23
0.659484
33
-0.005484
0
3DFACE
8
default
62
251
10
0.218004
20
0.661608
30
-0.002700
11
0.218004
21
0.659484
31
-0.005484
12
0.207996
22
0.671904
32
-0.008652
13
0.218004
23
0.661608
33
-0.002700
0
3DFACE
8
default
62
251
10
0.218004
20
0.661608
30
-0.002700
11
0.207996
21
0.671904
31
-0.008652
12
0.207996
22
0.674436
32
-0.002544
13
0.218004
23
0.661608
33
-0.002700
0
3DFACE
8
default
62
251
10
0.218004
20
0.662952
30
0.000528
11
0.218004
21
0.661608
31
-0.002700
12
0.207996
22
0.674436
32
-0.002544
13
0.218004
23
0.662952
33
0.000528
0
3DFACE
8
default
62
251
10
0.218004
20
0.662952
30
0.000528
11
0.207996
21
0.674436
31
-0.002544
12
0.207996
22
0.675288
32
0.003996
13
0.218004
23
0.662952
33
0.000528
0
3DFACE
8
default
62
251
10
0.218004
20
0.663408
30
0.003996
11
0.218004
21
0.662952
31
0.000528
12
0.207996
22
0.675288
32
0.003996
13
0.218004
23
0.663408
33
0.003996
0
3DFACE
8
default
62
251
10
0.207996
20
0.625572
30
-0.002544
11
0.207996
21
0.607740
31
-0.029004
12
0.207996
22
0.628092
32
-0.008652
13
0.207996
23
0.625572
33
-0.002544
0
3DFACE
8
default
62
251
10
0.207996
20
0.683004
30
0.046260
11
0.207996
21
0.662652
31
0.025908
12
0.207996
22
0.683004
32
0.041004
13
0.207996
23
0.683004
33
0.046260
0
3DFACE
8
default
62
251
10
0.207996
20
0.656544
30
0.028428
11
0.207996
21
0.662652
31
0.025908
12
0.207996
22
0.683004
32
0.046260
13
0.207996
23
0.656544
33
0.028428
0
3DFACE
8
default
62
251
10
0.207996
20
0.624708
30
0.003996
11
0.207996
21
0.607740
31
-0.029004
12
0.207996
22
0.625572
32
-0.002544
13
0.207996
23
0.624708
33
0.003996
0
3DFACE
8
default
62
251
10
0.207996
20
0.650004
30
0.029292
11
0.207996
21
0.656544
31
0.028428
12
0.207996
22
0.683004
32
0.046260
13
0.207996
23
0.650004
33
0.029292
0
3DFACE
8
default
62
251
10
0.207996
20
0.625572
30
0.010548
11
0.207996
21
0.607740
31
-0.029004
12
0.207996
22
0.624708
32
0.003996
13
0.207996
23
0.625572
33
0.010548
0
3DFACE
8
default
62
251
10
0.207996
20
0.643452
30
0.028428
11
0.207996
21
0.650004
31
0.029292
12
0.207996
22
0.683004
32
0.046260
13
0.207996
23
0.643452
33
0.028428
0
3DFACE
8
default
62
251
10
0.207996
20
0.628092
30
0.016644
11
0.207996
21
0.607740
31
-0.029004
12
0.207996
22
0.625572
32
0.010548
13
0.207996
23
0.628092
33
0.016644
0
3DFACE
8
default
62
251
10
0.207996
20
0.637356
30
0.025908
11
0.207996
21
0.643452
31
0.028428
12
0.207996
22
0.683004
32
0.046260
13
0.207996
23
0.637356
33
0.025908
0
3DFACE
8
default
62
251
10
0.207996
20
0.605004
30
0.003996
11
0.207996
21
0.632112
31
0.021888
12
0.207996
22
0.637356
32
0.025908
13
0.207996
23
0.605004
33
0.003996
0
3DFACE
8
default
62
251
10
0.207996
20
0.605004
30
0.003996
11
0.207996
21
0.628092
31
0.016644
12
0.207996
22
0.632112
32
0.021888
13
0.207996
23
0.605004
33
0.003996
0
3DFACE
8
default
62
251
10
0.207996
20
0.605004
30
0.003996
11
0.207996
21
0.607740
31
-0.029004
12
0.207996
22
0.628092
32
0.016644
13
0.207996
23
0.605004
33
0.003996
0
3DFACE
8
default
62
251
10
0.207996
20
0.650004
30
0.048996
11
0.207996
21
0.605004
31
0.003996
12
0.207996
22
0.637356
32
0.025908
13
0.207996
23
0.650004
33
0.048996
0
3DFACE
8
default
62
251
10
0.207996
20
0.650004
30
0.048996
11
0.207996
21
0.637356
31
0.025908
12
0.207996
22
0.683004
32
0.046260
13
0.207996
23
0.650004
33
0.048996
0
3DFACE
8
default
62
251
10
0.207996
20
0.615828
30
0.038172
11
0.207996
21
0.605004
31
0.003996
12
0.207996
22
0.650004
32
0.048996
13
0.207996
23
0.615828
33
0.038172
0
3DFACE
8
default
62
251
10
0.207996
20
0.615000
30
0.037536
11
0.207996
21
0.605004
31
0.003996
12
0.207996
22
0.615828
32
0.038172
13
0.207996
23
0.615000
33
0.037536
0
3DFACE
8
default
62
251
10
0.207996
20
0.616464
30
0.039000
11
0.207996
21
0.615828
31
0.038172
12
0.207996
22
0.650004
32
0.048996
13
0.207996
23
0.616464
33
0.039000
0
3DFACE
8
default
62
251
10
0.207996
20
0.614040
30
0.037140
11
0.207996
21
0.605004
31
0.003996
12
0.207996
22
0.615000
32
0.037536
13
0.207996
23
0.614040
33
0.037140
0
3DFACE
8
default
62
251
10
0.207996
20
0.616860
30
0.039960
11
0.207996
21
0.616464
31
0.039000
12
0.207996
22
0.650004
32
0.048996
13
0.207996
23
0.616860
33
0.039960
0
3DFACE
8
default
62
251
10
0.207996
20
0.612996
30
0.036996
11
0.207996
21
0.605004
31
0.003996
12
0.207996
22
0.614040
32
0.037140
13
0.207996
23
0.612996
33
0.036996
0
3DFACE
8
default
62
251
10
0.207996
20
0.617004
30
0.041004
11
0.207996
21
0.616860
31
0.039960
12
0.207996
22
0.650004
32
0.048996
13
0.207996
23
0.617004
33
0.041004
0
3DFACE
8
default
62
251
10
0.207996
20
0.607740
30
0.036996
11
0.207996
21
0.605004
31
0.003996
12
0.207996
22
0.612996
32
0.036996
13
0.207996
23
0.607740
33
0.036996
0
3DFACE
8
default
62
251
10
0.218004
20
0.646536
30
0.016944
11
0.207996
21
0.643452
31
0.028428
12
0.207996
22
0.637356
32
0.025908
13
0.218004
23
0.646536
33
0.016944
0
3DFACE
8
default
62
251
10
0.218004
20
0.646536
30
0.016944
11
0.218004
21
0.650004
31
0.017400
12
0.207996
22
0.643452
32
0.028428
13
0.218004
23
0.646536
33
0.016944
0
3DFACE
8
default
62
251
10
0.218004
20
0.650004
30
0.017400
11
0.207996
21
0.650004
31
0.029292
12
0.207996
22
0.643452
32
0.028428
13
0.218004
23
0.650004
33
0.017400
0
3DFACE
8
default
62
251
10
0.218004
20
0.650004
30
0.017400
11
0.218004
21
0.653472
31
0.016944
12
0.207996
22
0.650004
32
0.029292
13
0.218004
23
0.650004
33
0.017400
0
3DFACE
8
default
62
251
10
0.218004
20
0.653472
30
0.016944
11
0.207996
21
0.656544
31
0.028428
12
0.207996
22
0.650004
32
0.029292
13
0.218004
23
0.653472
33
0.016944
0
3DFACE
8
default
62
251
10
0.218004
20
0.653472
30
0.016944
11
0.218004
21
0.656700
31
0.015612
12
0.207996
22
0.656544
32
0.028428
13
0.218004
23
0.653472
33
0.016944
0
3DFACE
8
default
62
251
10
0.218004
20
0.656700
30
0.015612
11
0.207996
21
0.662652
31
0.025908
12
0.207996
22
0.656544
32
0.028428
13
0.218004
23
0.656700
33
0.015612
0
3DFACE
8
default
62
251
10
0.218004
20
0.656700
30
0.015612
11
0.218004
21
0.659484
31
0.013476
12
0.207996
22
0.662652
32
0.025908
13
0.218004
23
0.656700
33
0.015612
0
3DFACE
8
default
62
251
10
0.218004
20
0.659484
30
0.013476
11
0.207996
21
0.667884
31
0.021888
12
0.207996
22
0.662652
32
0.025908
13
0.218004
23
0.659484
33
0.013476
0
3DFACE
8
default
62
251
10
0.218004
20
0.659484
30
0.013476
11
0.218004
21
0.661608
31
0.010704
12
0.207996
22
0.667884
32
0.021888
13
0.218004
23
0.659484
33
0.013476
0
3DFACE
8
default
62
251
10
0.218004
20
0.661608
30
0.010704
11
0.207996
21
0.671904
31
0.016644
12
0.207996
22
0.667884
32
0.021888
13
0.218004
23
0.661608
33
0.010704
0
3DFACE
8
default
62
251
10
0.218004
20
0.661608
30
0.010704
11
0.218004
21
0.662952
31
0.007464
12
0.207996
22
0.671904
32
0.016644
13
0.218004
23
0.661608
33
0.010704
0
3DFACE
8
default
62
251
10
0.218004
20
0.643296
30
0.015612
11
0.218004
21
0.646536
31
0.016944
12
0.207996
22
0.637356
32
0.025908
13
0.218004
23
0.643296
33
0.015612
0
3DFACE
8
default
62
251
10
0.218004
20
0.662952
30
0.007464
11
0.207996
21
0.674436
31
0.010548
12
0.207996
22
0.671904
32
0.016644
13
0.218004
23
0.662952
33
0.007464
0
3DFACE
8
default
62
251
10
0.207996
20
0.617004
30
0.046260
11
0.207996
21
0.617004
31
0.041004
12
0.207996
22
0.650004
32
0.048996
13
0.207996
23
0.617004
33
0.046260
0
3DFACE
8
default
62
251
10
0.218004
20
0.662952
30
0.007464
11
0.218004
21
0.663408
31
0.003996
12
0.207996
22
0.674436
32
0.010548
13
0.218004
23
0.662952
33
0.007464
0
3DFACE
8
default
62
251
10
0.218004
20
0.663408
30
0.003996
11
0.207996
21
0.675288
31
0.003996
12
0.207996
22
0.674436
32
0.010548
13
0.218004
23
0.663408
33
0.003996
0
3DFACE
8
default
62
251
10
0.207996
20
0.650004
30
-0.041004
11
0.207996
21
0.684168
31
-0.030168
12
0.207996
22
0.684996
32
-0.029532
13
0.207996
23
0.650004
33
-0.041004
0
3DFACE
8
default
62
251
10
0.207996
20
0.650004
30
-0.041004
11
0.207996
21
0.684996
31
-0.029532
12
0.207996
22
0.685968
32
-0.029136
13
0.207996
23
0.650004
33
-0.041004
0
3DFACE
8
default
62
251
10
0.207996
20
0.650004
30
-0.041004
11
0.207996
21
0.683532
31
-0.030996
12
0.207996
22
0.684168
32
-0.030168
13
0.207996
23
0.650004
33
-0.041004
0
3DFACE
8
default
62
251
10
0.207996
20
0.650004
30
-0.041004
11
0.207996
21
0.683136
31
-0.031968
12
0.207996
22
0.683532
32
-0.030996
13
0.207996
23
0.650004
33
-0.041004
0
3DFACE
8
default
62
251
10
0.207996
20
0.650004
30
-0.041004
11
0.207996
21
0.683004
31
-0.033000
12
0.207996
22
0.683136
32
-0.031968
13
0.207996
23
0.650004
33
-0.041004
0
3DFACE
8
default
62
251
10
0.207996
20
0.650004
30
-0.041004
11
0.207996
21
0.683004
31
-0.038256
12
0.207996
22
0.683004
32
-0.033000
13
0.207996
23
0.650004
33
-0.041004
0
3DFACE
8
default
62
251
10
0.207996
20
0.695004
30
0.003996
11
0.207996
21
0.650004
31
-0.041004
12
0.207996
22
0.685968
32
-0.029136
13
0.207996
23
0.695004
33
0.003996
0
3DFACE
8
default
62
251
10
0.207996
20
0.695004
30
0.003996
11
0.207996
21
0.685968
31
-0.029136
12
0.207996
22
0.687000
32
-0.029004
13
0.207996
23
0.695004
33
0.003996
0
3DFACE
8
default
62
251
10
0.207996
20
0.695004
30
0.003996
11
0.207996
21
0.687000
31
-0.029004
12
0.207996
22
0.692256
32
-0.029004
13
0.207996
23
0.695004
33
0.003996
0
3DFACE
8
default
62
251
10
0.207996
20
0.667884
30
-0.013884
11
0.207996
21
0.650004
31
-0.041004
12
0.207996
22
0.695004
32
0.003996
13
0.207996
23
0.667884
33
-0.013884
0
3DFACE
8
default
62
251
10
0.207996
20
0.662652
30
-0.017904
11
0.207996
21
0.650004
31
-0.041004
12
0.207996
22
0.667884
32
-0.013884
13
0.207996
23
0.662652
33
-0.017904
0
3DFACE
8
default
62
251
10
0.207996
20
0.671904
30
-0.008652
11
0.207996
21
0.667884
31
-0.013884
12
0.207996
22
0.695004
32
0.003996
13
0.207996
23
0.671904
33
-0.008652
0
3DFACE
8
default
62
251
10
0.207996
20
0.656544
30
-0.020436
11
0.207996
21
0.650004
31
-0.041004
12
0.207996
22
0.662652
32
-0.017904
13
0.207996
23
0.656544
33
-0.020436
0
3DFACE
8
default
62
251
10
0.207996
20
0.674436
30
-0.002544
11
0.207996
21
0.671904
31
-0.008652
12
0.207996
22
0.695004
32
0.003996
13
0.207996
23
0.674436
33
-0.002544
0
3DFACE
8
default
62
251
10
0.207996
20
0.650004
30
-0.021288
11
0.207996
21
0.650004
31
-0.041004
12
0.207996
22
0.656544
32
-0.020436
13
0.207996
23
0.650004
33
-0.021288
0
3DFACE
8
default
62
251
10
0.207996
20
0.675288
30
0.003996
11
0.207996
21
0.674436
31
-0.002544
12
0.207996
22
0.695004
32
0.003996
13
0.207996
23
0.675288
33
0.003996
0
3DFACE
8
default
62
251
10
0.207996
20
0.643452
30
-0.020436
11
0.207996
21
0.650004
31
-0.041004
12
0.207996
22
0.650004
32
-0.021288
13
0.207996
23
0.643452
33
-0.020436
0
3DFACE
8
default
62
251
10
0.207996
20
0.617004
30
-0.038256
11
0.207996
21
0.650004
31
-0.041004
12
0.207996
22
0.643452
32
-0.020436
13
0.207996
23
0.617004
33
-0.038256
0
3DFACE
8
default
62
251
10
0.207996
20
0.674436
30
0.010548
11
0.207996
21
0.675288
31
0.003996
12
0.207996
22
0.695004
32
0.003996
13
0.207996
23
0.674436
33
0.010548
0
3DFACE
8
default
62
251
10
0.207996
20
0.637356
30
-0.017904
11
0.207996
21
0.617004
31
-0.038256
12
0.207996
22
0.643452
32
-0.020436
13
0.207996
23
0.637356
33
-0.017904
0
3DFACE
8
default
62
251
10
0.207996
20
0.617004
30
-0.033000
11
0.207996
21
0.617004
31
-0.038256
12
0.207996
22
0.637356
32
-0.017904
13
0.207996
23
0.617004
33
-0.033000
0
3DFACE
8
default
62
251
10
0.207996
20
0.616860
30
-0.031968
11
0.207996
21
0.617004
31
-0.033000
12
0.207996
22
0.637356
32
-0.017904
13
0.207996
23
0.616860
33
-0.031968
0
3DFACE
8
default
62
251
10
0.207996
20
0.616464
30
-0.030996
11
0.207996
21
0.616860
31
-0.031968
12
0.207996
22
0.637356
32
-0.017904
13
0.207996
23
0.616464
33
-0.030996
0
3DFACE
8
default
62
251
10
0.207996
20
0.615828
30
-0.030168
11
0.207996
21
0.616464
31
-0.030996
12
0.207996
22
0.637356
32
-0.017904
13
0.207996
23
0.615828
33
-0.030168
0
3DFACE
8
default
62
251
10
0.207996
20
0.671904
30
0.016644
11
0.207996
21
0.674436
31
0.010548
12
0.207996
22
0.695004
32
0.003996
13
0.207996
23
0.671904
33
0.016644
0
3DFACE
8
default
62
251
10
0.207996
20
0.615000
30
-0.029532
11
0.207996
21
0.615828
31
-0.030168
12
0.207996
22
0.637356
32
-0.017904
13
0.207996
23
0.615000
33
-0.029532
0
3DFACE
8
default
62
251
10
0.207996
20
0.614040
30
-0.029136
11
0.207996
21
0.615000
31
-0.029532
12
0.207996
22
0.637356
32
-0.017904
13
0.207996
23
0.614040
33
-0.029136
0
3DFACE
8
default
62
251
10
0.207996
20
0.632112
30
-0.013884
11
0.207996
21
0.614040
31
-0.029136
12
0.207996
22
0.637356
32
-0.017904
13
0.207996
23
0.632112
33
-0.013884
0
3DFACE
8
default
62
251
10
0.207996
20
0.692256
30
0.036996
11
0.207996
21
0.671904
31
0.016644
12
0.207996
22
0.695004
32
0.003996
13
0.207996
23
0.692256
33
0.036996
0
3DFACE
8
default
62
251
10
0.207996
20
0.612996
30
-0.029004
11
0.207996
21
0.614040
31
-0.029136
12
0.207996
22
0.632112
32
-0.013884
13
0.207996
23
0.612996
33
-0.029004
0
3DFACE
8
default
62
251
10
0.207996
20
0.687000
30
0.036996
11
0.207996
21
0.671904
31
0.016644
12
0.207996
22
0.692256
32
0.036996
13
0.207996
23
0.687000
33
0.036996
0
3DFACE
8
default
62
251
10
0.207996
20
0.607740
30
-0.029004
11
0.207996
21
0.612996
31
-0.029004
12
0.207996
22
0.632112
32
-0.013884
13
0.207996
23
0.607740
33
-0.029004
0
3DFACE
8
default
62
251
10
0.207996
20
0.667884
30
0.021888
11
0.207996
21
0.671904
31
0.016644
12
0.207996
22
0.687000
32
0.036996
13
0.207996
23
0.667884
33
0.021888
0
3DFACE
8
default
62
251
10
0.207996
20
0.685968
30
0.037140
11
0.207996
21
0.667884
31
0.021888
12
0.207996
22
0.687000
32
0.036996
13
0.207996
23
0.685968
33
0.037140
0
3DFACE
8
default
62
251
10
0.207996
20
0.684996
30
0.037536
11
0.207996
21
0.667884
31
0.021888
12
0.207996
22
0.685968
32
0.037140
13
0.207996
23
0.684996
33
0.037536
0
3DFACE
8
default
62
251
10
0.207996
20
0.628092
30
-0.008652
11
0.207996
21
0.607740
31
-0.029004
12
0.207996
22
0.632112
32
-0.013884
13
0.207996
23
0.628092
33
-0.008652
0
3DFACE
8
default
62
251
10
0.207996
20
0.684168
30
0.038172
11
0.207996
21
0.667884
31
0.021888
12
0.207996
22
0.684996
32
0.037536
13
0.207996
23
0.684168
33
0.038172
0
3DFACE
8
default
62
251
10
0.207996
20
0.683532
30
0.039000
11
0.207996
21
0.667884
31
0.021888
12
0.207996
22
0.684168
32
0.038172
13
0.207996
23
0.683532
33
0.039000
0
3DFACE
8
default
62
251
10
0.207996
20
0.683136
30
0.039960
11
0.207996
21
0.667884
31
0.021888
12
0.207996
22
0.683532
32
0.039000
13
0.207996
23
0.683136
33
0.039960
0
3DFACE
8
default
62
251
10
0.207996
20
0.683004
30
0.041004
11
0.207996
21
0.667884
31
0.021888
12
0.207996
22
0.683136
32
0.039960
13
0.207996
23
0.683004
33
0.041004
0
3DFACE
8
default
62
251
10
0.207996
20
0.662652
30
0.025908
11
0.207996
21
0.667884
31
0.021888
12
0.207996
22
0.683004
32
0.041004
13
0.207996
23
0.662652
33
0.025908
0
3DFACE
8
default
62
251
10
0.218004
20
0.656700
30
0.015612
11
0.218004
21
0.653472
31
0.016944
12
0.218004
22
0.646536
32
0.016944
13
0.218004
23
0.656700
33
0.015612
0
3DFACE
8
default
62
251
10
0.218004
20
0.643296
30
0.015612
11
0.218004
21
0.656700
31
0.015612
12
0.218004
22
0.646536
32
0.016944
13
0.218004
23
0.643296
33
0.015612
0
3DFACE
8
default
62
251
10
0.218004
20
0.659484
30
0.013476
11
0.218004
21
0.656700
31
0.015612
12
0.218004
22
0.643296
32
0.015612
13
0.218004
23
0.659484
33
0.013476
0
3DFACE
8
default
62
251
10
0.218004
20
0.640524
30
0.013476
11
0.218004
21
0.659484
31
0.013476
12
0.218004
22
0.643296
32
0.015612
13
0.218004
23
0.640524
33
0.013476
0
3DFACE
8
default
62
251
10
0.218004
20
0.638388
30
0.010704
11
0.218004
21
0.659484
31
0.013476
12
0.218004
22
0.640524
32
0.013476
13
0.218004
23
0.638388
33
0.010704
0
3DFACE
8
default
62
251
10
0.218004
20
0.661608
30
0.010704
11
0.218004
21
0.659484
31
0.013476
12
0.218004
22
0.638388
32
0.010704
13
0.218004
23
0.661608
33
0.010704
0
3DFACE
8
default
62
251
10
0.218004
20
0.637056
30
0.007464
11
0.218004
21
0.661608
31
0.010704
12
0.218004
22
0.638388
32
0.010704
13
0.218004
23
0.637056
33
0.007464
0
3DFACE
8
default
62
251
10
0.218004
20
0.662952
30
0.007464
11
0.218004
21
0.661608
31
0.010704
12
0.218004
22
0.637056
32
0.007464
13
0.218004
23
0.662952
33
0.007464
0
3DFACE
8
default
62
251
10
0.218004
20
0.636600
30
0.003996
11
0.218004
21
0.662952
31
0.007464
12
0.218004
22
0.637056
32
0.007464
13
0.218004
23
0.636600
33
0.003996
0
3DFACE
8
default
62
251
10
0.218004
20
0.663408
30
0.003996
11
0.218004
21
0.662952
31
0.007464
12
0.218004
22
0.636600
32
0.003996
13
0.218004
23
0.663408
33
0.003996
0
3DFACE
8
default
62
251
10
0.218004
20
0.653472
30
0.016944
11
0.218004
21
0.650004
31
0.017400
12
0.218004
22
0.646536
32
0.016944
13
0.218004
23
0.653472
33
0.016944
0
3DFACE
8
default
62
251
10
0.218004
20
0.637056
30
0.000528
11
0.218004
21
0.663408
31
0.003996
12
0.218004
22
0.636600
32
0.003996
13
0.218004
23
0.637056
33
0.000528
0
3DFACE
8
default
62
251
10
0.218004
20
0.650004
30
-0.009408
11
0.218004
21
0.653472
31
-0.008952
12
0.218004
22
0.646536
32
-0.008952
13
0.218004
23
0.650004
33
-0.009408
0
3DFACE
8
default
62
251
10
0.218004
20
0.662952
30
0.000528
11
0.218004
21
0.663408
31
0.003996
12
0.218004
22
0.637056
32
0.000528
13
0.218004
23
0.662952
33
0.000528
0
3DFACE
8
default
62
251
10
0.218004
20
0.638388
30
-0.002700
11
0.218004
21
0.662952
31
0.000528
12
0.218004
22
0.637056
32
0.000528
13
0.218004
23
0.638388
33
-0.002700
0
3DFACE
8
default
62
251
10
0.218004
20
0.661608
30
-0.002700
11
0.218004
21
0.662952
31
0.000528
12
0.218004
22
0.638388
32
-0.002700
13
0.218004
23
0.661608
33
-0.002700
0
3DFACE
8
default
62
251
10
0.218004
20
0.640524
30
-0.005484
11
0.218004
21
0.661608
31
-0.002700
12
0.218004
22
0.638388
32
-0.002700
13
0.218004
23
0.640524
33
-0.005484
0
3DFACE
8
default
62
251
10
0.218004
20
0.659484
30
-0.005484
11
0.218004
21
0.661608
31
-0.002700
12
0.218004
22
0.640524
32
-0.005484
13
0.218004
23
0.659484
33
-0.005484
0
3DFACE
8
default
62
251
10
0.218004
20
0.643296
30
-0.007608
11
0.218004
21
0.659484
31
-0.005484
12
0.218004
22
0.640524
32
-0.005484
13
0.218004
23
0.643296
33
-0.007608
0
3DFACE
8
default
62
251
10
0.218004
20
0.656700
30
-0.007608
11
0.218004
21
0.659484
31
-0.005484
12
0.218004
22
0.643296
32
-0.007608
13
0.218004
23
0.656700
33
-0.007608
0
3DFACE
8
default
62
251
10
0.218004
20
0.646536
30
-0.008952
11
0.218004
21
0.656700
31
-0.007608
12
0.218004
22
0.643296
32
-0.007608
13
0.218004
23
0.646536
33
-0.008952
0
3DFACE
8
default
62
251
10
0.218004
20
0.653472
30
-0.008952
11
0.218004
21
0.656700
31
-0.007608
12
0.218004
22
0.646536
32
-0.008952
13
0.218004
23
0.653472
33
-0.008952
0
3DFACE
8
default
62
253
10
-0.183492
20
0.000000
30
0.017340
11
-0.190812
21
0.000000
31
0.010008
12
-0.193488
22
0.000000
32
0.000012
13
-0.183492
23
0.000000
33
0.017340
0
3DFACE
8
default
62
253
10
-0.183492
20
0.000000
30
0.017340
11
-0.193488
21
0.000000
31
0.000012
12
-0.190812
22
0.000000
32
-0.009984
13
-0.183492
23
0.000000
33
0.017340
0
3DFACE
8
default
62
253
10
-0.183492
20
0.000000
30
0.017340
11
-0.190812
21
0.000000
31
-0.009984
12
-0.183492
22
0.000000
32
-0.017304
13
-0.183492
23
0.000000
33
0.017340
0
3DFACE
8
default
62
253
10
-0.183492
20
0.000000
30
0.017340
11
-0.183492
21
0.000000
31
-0.017304
12
-0.173484
22
0.000000
32
-0.019992
13
-0.183492
23
0.000000
33
0.017340
0
3DFACE
8
default
62
253
10
-0.183492
20
0.000000
30
0.017340
11
-0.173484
21
0.000000
31
-0.019992
12
-0.163488
22
0.000000
32
-0.017304
13
-0.183492
23
0.000000
33
0.017340
0
3DFACE
8
default
62
253
10
-0.183492
20
0.000000
30
0.017340
11
-0.163488
21
0.000000
31
-0.017304
12
-0.156168
22
0.000000
32
-0.009984
13
-0.183492
23
0.000000
33
0.017340
0
3DFACE
8
default
62
253
10
-0.183492
20
0.000000
30
0.017340
11
-0.156168
21
0.000000
31
-0.009984
12
-0.153492
22
0.000000
32
0.000012
13
-0.183492
23
0.000000
33
0.017340
0
3DFACE
8
default
62
253
10
-0.183492
20
0.000000
30
0.017340
11
-0.153492
21
0.000000
31
0.000012
12
-0.156168
22
0.000000
32
0.010008
13
-0.183492
23
0.000000
33
0.017340
0
3DFACE
8
default
62
253
10
-0.183492
20
0.000000
30
0.017340
11
-0.156168
21
0.000000
31
0.010008
12
-0.163488
22
0.000000
32
0.017340
13
-0.183492
23
0.000000
33
0.017340
0
3DFACE
8
default
62
253
10
-0.183492
20
0.000000
30
0.017340
11
-0.163488
21
0.000000
31
0.017340
12
-0.173484
22
0.000000
32
0.020016
13
-0.183492
23
0.000000
33
0.017340
0
3DFACE
8
default
62
253
10
-0.163488
20
0.140004
30
0.017340
11
-0.156168
21
0.140004
31
0.010008
12
-0.153492
22
0.140004
32
0.000012
13
-0.163488
23
0.140004
33
0.017340
0
3DFACE
8
default
62
253
10
-0.163488
20
0.140004
30
0.017340
11
-0.153492
21
0.140004
31
0.000012
12
-0.156168
22
0.140004
32
-0.009984
13
-0.163488
23
0.140004
33
0.017340
0
3DFACE
8
default
62
253
10
-0.163488
20
0.140004
30
0.017340
11
-0.156168
21
0.140004
31
-0.009984
12
-0.163488
22
0.140004
32
-0.017304
13
-0.163488
23
0.140004
33
0.017340
0
3DFACE
8
default
62
253
10
-0.163488
20
0.140004
30
0.017340
11
-0.163488
21
0.140004
31
-0.017304
12
-0.173484
22
0.140004
32
-0.019992
13
-0.163488
23
0.140004
33
0.017340
0
3DFACE
8
default
62
253
10
-0.163488
20
0.140004
30
0.017340
11
-0.173484
21
0.140004
31
-0.019992
12
-0.183492
22
0.140004
32
-0.017304
13
-0.163488
23
0.140004
33
0.017340
0
3DFACE
8
default
62
253
10
-0.163488
20
0.140004
30
0.017340
11
-0.183492
21
0.140004
31
-0.017304
12
-0.190812
22
0.140004
32
-0.009984
13
-0.163488
23
0.140004
33
0.017340
0
3DFACE
8
default
62
253
10
-0.163488
20
0.140004
30
0.017340
11
-0.190812
21
0.140004
31
-0.009984
12
-0.193488
22
0.140004
32
0.000012
13
-0.163488
23
0.140004
33
0.017340
0
3DFACE
8
default
62
253
10
-0.163488
20
0.140004
30
0.017340
11
-0.193488
21
0.140004
31
0.000012
12
-0.190812
22
0.140004
32
0.010008
13
-0.163488
23
0.140004
33
0.017340
0
3DFACE
8
default
62
253
10
-0.163488
20
0.140004
30
0.017340
11
-0.190812
21
0.140004
31
0.010008
12
-0.183492
22
0.140004
32
0.017340
13
-0.163488
23
0.140004
33
0.017340
0
3DFACE
8
default
62
253
10
-0.163488
20
0.140004
30
0.017340
11
-0.183492
21
0.140004
31
0.017340
12
-0.173484
22
0.140004
32
0.020016
13
-0.163488
23
0.140004
33
0.017340
0
3DFACE
8
default
62
253
10
-0.163488
20
0.140004
30
0.017340
11
-0.173484
21
0.140004
31
0.020016
12
-0.173484
22
0.000000
32
0.020016
13
-0.163488
23
0.140004
33
0.017340
0
3DFACE
8
default
62
253
10
-0.163488
20
0.140004
30
0.017340
11
-0.173484
21
0.000000
31
0.020016
12
-0.163488
22
0.000000
32
0.017340
13
-0.163488
23
0.140004
33
0.017340
0
3DFACE
8
default
62
253
10
-0.156168
20
0.140004
30
0.010008
11
-0.163488
21
0.140004
31
0.017340
12
-0.163488
22
0.000000
32
0.017340
13
-0.156168
23
0.140004
33
0.010008
0
3DFACE
8
default
62
253
10
-0.156168
20
0.140004
30
0.010008
11
-0.163488
21
0.000000
31
0.017340
12
-0.156168
22
0.000000
32
0.010008
13
-0.156168
23
0.140004
33
0.010008
0
3DFACE
8
default
62
253
10
-0.153492
20
0.140004
30
0.000012
11
-0.156168
21
0.140004
31
0.010008
12
-0.156168
22
0.000000
32
0.010008
13
-0.153492
23
0.140004
33
0.000012
0
3DFACE
8
default
62
253
10
-0.153492
20
0.140004
30
0.000012
11
-0.156168
21
0.000000
31
0.010008
12
-0.153492
22
0.000000
32
0.000012
13
-0.153492
23
0.140004
33
0.000012
0
3DFACE
8
default
62
253
10
-0.156168
20
0.140004
30
-0.009984
11
-0.153492
21
0.140004
31
0.000012
12
-0.153492
22
0.000000
32
0.000012
13
-0.156168
23
0.140004
33
-0.009984
0
3DFACE
8
default
62
253
10
-0.156168
20
0.140004
30
-0.009984
11
-0.153492
21
0.000000
31
0.000012
12
-0.156168
22
0.000000
32
-0.009984
13
-0.156168
23
0.140004
33
-0.009984
0
3DFACE
8
default
62
253
10
-0.163488
20
0.140004
30
-0.017304
11
-0.156168
21
0.140004
31
-0.009984
12
-0.156168
22
0.000000
32
-0.009984
13
-0.163488
23
0.140004
33
-0.017304
0
3DFACE
8
default
62
253
10
-0.163488
20
0.140004
30
-0.017304
11
-0.156168
21
0.000000
31
-0.009984
12
-0.163488
22
0.000000
32
-0.017304
13
-0.163488
23
0.140004
33
-0.017304
0
3DFACE
8
default
62
253
10
-0.173484
20
0.140004
30
-0.019992
11
-0.163488
21
0.140004
31
-0.017304
12
-0.163488
22
0.000000
32
-0.017304
13
-0.173484
23
0.140004
33
-0.019992
0
3DFACE
8
default
62
253
10
-0.173484
20
0.140004
30
-0.019992
11
-0.163488
21
0.000000
31
-0.017304
12
-0.173484
22
0.000000
32
-0.019992
13
-0.173484
23
0.140004
33
-0.019992
0
3DFACE
8
default
62
253
10
-0.183492
20
0.140004
30
-0.017304
11
-0.173484
21
0.140004
31
-0.019992
12
-0.173484
22
0.000000
32
-0.019992
13
-0.183492
23
0.140004
33
-0.017304
0
3DFACE
8
default
62
253
10
-0.183492
20
0.140004
30
-0.017304
11
-0.173484
21
0.000000
31
-0.019992
12
-0.183492
22
0.000000
32
-0.017304
13
-0.183492
23
0.140004
33
-0.017304
0
3DFACE
8
default
62
253
10
-0.190812
20
0.140004
30
-0.009984
11
-0.183492
21
0.140004
31
-0.017304
12
-0.183492
22
0.000000
32
-0.017304
13
-0.190812
23
0.140004
33
-0.009984
0
3DFACE
8
default
62
253
10
-0.190812
20
0.140004
30
-0.009984
11
-0.183492
21
0.000000
31
-0.017304
12
-0.190812
22
0.000000
32
-0.009984
13
-0.190812
23
0.140004
33
-0.009984
0
3DFACE
8
default
62
253
10
-0.193488
20
0.140004
30
0.000012
11
-0.190812
21
0.140004
31
-0.009984
12
-0.190812
22
0.000000
32
-0.009984
13
-0.193488
23
0.140004
33
0.000012
0
3DFACE
8
default
62
253
10
-0.193488
20
0.140004
30
0.000012
11
-0.190812
21
0.000000
31
-0.009984
12
-0.193488
22
0.000000
32
0.000012
13
-0.193488
23
0.140004
33
0.000012
0
3DFACE
8
default
62
253
10
-0.190812
20
0.140004
30
0.010008
11
-0.193488
21
0.140004
31
0.000012
12
-0.193488
22
0.000000
32
0.000012
13
-0.190812
23
0.140004
33
0.010008
0
3DFACE
8
default
62
253
10
-0.190812
20
0.140004
30
0.010008
11
-0.193488
21
0.000000
31
0.000012
12
-0.190812
22
0.000000
32
0.010008
13
-0.190812
23
0.140004
33
0.010008
0
3DFACE
8
default
62
253
10
-0.183492
20
0.140004
30
0.017340
11
-0.190812
21
0.140004
31
0.010008
12
-0.190812
22
0.000000
32
0.010008
13
-0.183492
23
0.140004
33
0.017340
0
3DFACE
8
default
62
253
10
-0.183492
20
0.140004
30
0.017340
11
-0.190812
21
0.000000
31
0.010008
12
-0.183492
22
0.000000
32
0.017340
13
-0.183492
23
0.140004
33
0.017340
0
3DFACE
8
default
62
253
10
-0.173484
20
0.140004
30
0.020016
11
-0.183492
21
0.140004
31
0.017340
12
-0.183492
22
0.000000
32
0.017340
13
-0.173484
23
0.140004
33
0.020016
0
3DFACE
8
default
62
253
10
-0.173484
20
0.140004
30
0.020016
11
-0.183492
21
0.000000
31
0.017340
12
-0.173484
22
0.000000
32
0.020016
13
-0.173484
23
0.140004
33
0.020016
0
3DFACE
8
default
62
30
10
-0.225000
20
0.459000
30
-0.062412
11
-0.225000
21
0.459000
31
0.062412
12
-0.213000
22
0.459000
32
0.062412
13
-0.225000
23
0.459000
33
-0.062412
0
3DFACE
8
default
62
30
10
-0.225000
20
0.459000
30
-0.062412
11
-0.213000
21
0.459000
31
0.062412
12
-0.213000
22
0.459000
32
-0.062412
13
-0.225000
23
0.459000
33
-0.062412
0
3DFACE
8
default
62
30
10
-0.065004
20
0.073080
30
0.077208
11
-0.065004
21
0.095820
31
0.073848
12
-0.225000
22
0.095820
32
0.073848
13
-0.065004
23
0.073080
33
0.077208
0
3DFACE
8
default
62
30
10
-0.065004
20
0.073080
30
0.077208
11
-0.225000
21
0.095820
31
0.073848
12
-0.202332
22
0.073080
32
0.077208
13
-0.065004
23
0.073080
33
0.077208
0
3DFACE
8
default
62
30
10
-0.210000
20
0.090000
30
-0.050004
11
-0.210000
21
0.090000
31
0.050004
12
-0.210000
22
0.090000
32
0.074196
13
-0.210000
23
0.090000
33
-0.050004
0
3DFACE
8
default
62
30
10
-0.210000
20
0.090000
30
-0.050004
11
-0.210000
21
0.090000
31
0.074196
12
-0.225000
22
0.090000
32
0.074196
13
-0.210000
23
0.090000
33
-0.050004
0
3DFACE
8
default
62
30
10
-0.210000
20
0.090000
30
-0.050004
11
-0.225000
21
0.090000
31
0.074196
12
-0.225000
22
0.090000
32
-0.074196
13
-0.210000
23
0.090000
33
-0.050004
0
3DFACE
8
default
62
30
10
-0.210000
20
0.090000
30
-0.050004
11
-0.225000
21
0.090000
31
-0.074196
12
-0.210000
22
0.090000
32
-0.074196
13
-0.210000
23
0.090000
33
-0.050004
0
3DFACE
8
default
62
30
10
-0.065004
20
0.587700
30
0.058356
11
-0.165828
21
0.587700
31
0.058356
12
-0.213000
22
0.459000
32
0.062412
13
-0.065004
23
0.587700
33
0.058356
0
3DFACE
8
default
62
30
10
-0.225000
20
0.095820
30
0.073848
11
-0.065004
21
0.095820
31
0.073848
12
-0.213000
22
0.459000
32
0.062412
13
-0.225000
23
0.095820
33
0.073848
0
3DFACE
8
default
62
30
10
-0.065004
20
0.095820
30
0.073848
11
-0.065004
21
0.587700
31
0.058356
12
-0.213000
22
0.459000
32
0.062412
13
-0.065004
23
0.095820
33
0.073848
0
3DFACE
8
default
62
30
10
-0.213000
20
0.459000
30
0.062412
11
-0.225000
21
0.459000
31
0.062412
12
-0.225000
22
0.095820
32
0.073848
13
-0.213000
23
0.459000
33
0.062412
0
3DFACE
8
default
62
30
10
-0.225000
20
0.095820
30
-0.073848
11
-0.225000
21
0.459000
31
-0.062412
12
-0.213000
22
0.459000
32
-0.062412
13
-0.225000
23
0.095820
33
-0.073848
0
3DFACE
8
default
62
30
10
-0.213000
20
0.459000
30
-0.062412
11
-0.065004
21
0.587700
31
-0.058356
12
-0.225000
22
0.095820
32
-0.073848
13
-0.213000
23
0.459000
33
-0.062412
0
3DFACE
8
default
62
30
10
-0.065004
20
0.587700
30
-0.058356
11
-0.065004
21
0.095820
31
-0.073848
12
-0.225000
22
0.095820
32
-0.073848
13
-0.065004
23
0.587700
33
-0.058356
0
3DFACE
8
default
62
30
10
-0.213000
20
0.459000
30
-0.062412
11
-0.165828
21
0.587700
31
-0.058356
12
-0.065004
22
0.587700
32
-0.058356
13
-0.213000
23
0.459000
33
-0.062412
0
3DFACE
8
default
62
30
10
-0.065004
20
0.073080
30
-0.077208
11
-0.202332
21
0.073080
31
-0.077208
12
-0.225000
22
0.095820
32
-0.073848
13
-0.065004
23
0.073080
33
-0.077208
0
3DFACE
8
default
62
30
10
-0.065004
20
0.073080
30
-0.077208
11
-0.225000
21
0.095820
31
-0.073848
12
-0.065004
22
0.095820
32
-0.073848
13
-0.065004
23
0.073080
33
-0.077208
0
3DFACE
8
default
62
30
10
-0.149544
20
0.632136
30
0.066648
11
-0.143004
21
0.650004
31
0.069000
12
-0.148740
22
0.634344
32
0.058440
13
-0.149544
23
0.632136
33
0.066648
0
3DFACE
8
default
62
30
10
-0.143004
20
0.650004
30
0.069000
11
-0.143004
21
0.650004
31
0.060504
12
-0.148740
22
0.634344
32
0.058440
13
-0.143004
23
0.650004
33
0.069000
0
3DFACE
8
default
62
30
10
-0.155484
20
0.615936
30
0.050004
11
-0.210000
21
0.467184
31
0.050004
12
-0.165828
22
0.587700
32
0.058356
13
-0.155484
23
0.615936
33
0.050004
0
3DFACE
8
default
62
30
10
-0.210000
20
0.467184
30
0.050004
11
-0.213000
21
0.459000
31
0.062412
12
-0.165828
22
0.587700
32
0.058356
13
-0.210000
23
0.467184
33
0.050004
0
3DFACE
8
default
62
30
10
-0.165828
20
0.587700
30
0.058356
11
-0.164676
21
0.590844
31
0.058308
12
-0.155484
22
0.615936
32
0.050004
13
-0.165828
23
0.587700
33
0.058356
0
3DFACE
8
default
62
30
10
-0.164676
20
0.590844
30
0.058308
11
-0.155196
21
0.616728
31
0.061716
12
-0.155484
22
0.615936
32
0.050004
13
-0.164676
23
0.590844
33
0.058308
0
3DFACE
8
default
62
30
10
-0.155196
20
0.616728
30
0.061716
11
-0.154092
21
0.619752
31
0.052392
12
-0.155484
22
0.615936
32
0.050004
13
-0.155196
23
0.616728
33
0.061716
0
3DFACE
8
default
62
30
10
-0.210000
20
0.467184
30
0.050004
11
-0.210000
21
0.467184
31
-0.050004
12
-0.213000
22
0.459000
32
-0.062412
13
-0.210000
23
0.467184
33
0.050004
0
3DFACE
8
default
62
30
10
-0.210000
20
0.467184
30
0.050004
11
-0.213000
21
0.459000
31
-0.062412
12
-0.213000
22
0.459000
32
0.062412
13
-0.210000
23
0.467184
33
0.050004
0
3DFACE
8
default
62
30
10
-0.155484
20
0.615936
30
-0.050004
11
-0.154092
21
0.619752
31
-0.052392
12
-0.164676
22
0.590844
32
-0.058308
13
-0.155484
23
0.615936
33
-0.050004
0
3DFACE
8
default
62
30
10
-0.154092
20
0.619752
30
-0.052392
11
-0.155196
21
0.616728
31
-0.061716
12
-0.164676
22
0.590844
32
-0.058308
13
-0.154092
23
0.619752
33
-0.052392
0
3DFACE
8
default
62
30
10
-0.155484
20
0.615936
30
-0.050004
11
-0.164676
21
0.590844
31
-0.058308
12
-0.165828
22
0.587700
32
-0.058356
13
-0.155484
23
0.615936
33
-0.050004
0
3DFACE
8
default
62
30
10
-0.165828
20
0.587700
30
-0.058356
11
-0.213000
21
0.459000
31
-0.062412
12
-0.155484
22
0.615936
32
-0.050004
13
-0.165828
23
0.587700
33
-0.058356
0
3DFACE
8
default
62
30
10
-0.213000
20
0.459000
30
-0.062412
11
-0.210000
21
0.467184
31
-0.050004
12
-0.155484
22
0.615936
32
-0.050004
13
-0.213000
23
0.459000
33
-0.062412
0
3DFACE
8
default
62
30
10
-0.154092
20
0.619752
30
-0.052392
11
-0.148740
21
0.634344
31
-0.058440
12
-0.155196
22
0.616728
32
-0.061716
13
-0.154092
23
0.619752
33
-0.052392
0
3DFACE
8
default
62
30
10
-0.148740
20
0.634344
30
-0.058440
11
-0.149544
21
0.632136
31
-0.066648
12
-0.155196
22
0.616728
32
-0.061716
13
-0.148740
23
0.634344
33
-0.058440
0
3DFACE
8
default
62
30
10
-0.155196
20
0.616728
30
0.061716
11
-0.149544
21
0.632136
31
0.066648
12
-0.154092
22
0.619752
32
0.052392
13
-0.155196
23
0.616728
33
0.061716
0
3DFACE
8
default
62
30
10
-0.149544
20
0.632136
30
0.066648
11
-0.148740
21
0.634344
31
0.058440
12
-0.154092
22
0.619752
32
0.052392
13
-0.149544
23
0.632136
33
0.066648
0
3DFACE
8
default
62
30
10
-0.148740
20
0.634344
30
-0.058440
11
-0.143004
21
0.650004
31
-0.060504
12
-0.149544
22
0.632136
32
-0.066648
13
-0.148740
23
0.634344
33
-0.058440
0
3DFACE
8
default
62
30
10
-0.143004
20
0.650004
30
-0.060504
11
-0.143004
21
0.650004
31
-0.069000
12
-0.149544
22
0.632136
32
-0.066648
13
-0.143004
23
0.650004
33
-0.060504
0
3DFACE
8
default
62
30
10
-0.140004
20
0.615936
30
-0.050004
11
-0.155484
21
0.615936
31
-0.050004
12
-0.210000
22
0.467184
32
-0.050004
13
-0.140004
23
0.615936
33
-0.050004
0
3DFACE
8
default
62
30
10
-0.140004
20
0.615936
30
-0.050004
11
-0.210000
21
0.467184
31
-0.050004
12
-0.210000
22
0.090000
32
-0.050004
13
-0.140004
23
0.615936
33
-0.050004
0
3DFACE
8
default
62
30
10
-0.140004
20
0.615936
30
-0.050004
11
-0.210000
21
0.090000
31
-0.050004
12
-0.203124
22
0.074832
32
-0.050004
13
-0.140004
23
0.615936
33
-0.050004
0
3DFACE
8
default
62
30
10
-0.140004
20
0.615936
30
-0.050004
11
-0.203124
21
0.074832
31
-0.050004
12
-0.140004
22
0.074832
32
-0.050004
13
-0.140004
23
0.615936
33
-0.050004
0
3DFACE
8
default
62
30
10
-0.140004
20
0.684060
30
-0.050004
11
-0.140004
21
0.697548
31
-0.050004
12
-0.143004
22
0.697548
32
-0.050004
13
-0.140004
23
0.684060
33
-0.050004
0
3DFACE
8
default
62
30
10
-0.140004
20
0.684060
30
-0.050004
11
-0.143004
21
0.697548
31
-0.050004
12
-0.143004
22
0.684060
32
-0.050004
13
-0.140004
23
0.684060
33
-0.050004
0
3DFACE
8
default
62
30
10
-0.140004
20
0.615936
30
0.050004
11
-0.140004
21
0.074832
31
0.050004
12
-0.203124
22
0.074832
32
0.050004
13
-0.140004
23
0.615936
33
0.050004
0
3DFACE
8
default
62
30
10
-0.140004
20
0.615936
30
0.050004
11
-0.203124
21
0.074832
31
0.050004
12
-0.210000
22
0.090000
32
0.050004
13
-0.140004
23
0.615936
33
0.050004
0
3DFACE
8
default
62
30
10
-0.140004
20
0.615936
30
0.050004
11
-0.210000
21
0.090000
31
0.050004
12
-0.210000
22
0.467184
32
0.050004
13
-0.140004
23
0.615936
33
0.050004
0
3DFACE
8
default
62
30
10
-0.140004
20
0.615936
30
0.050004
11
-0.210000
21
0.467184
31
0.050004
12
-0.155484
22
0.615936
32
0.050004
13
-0.140004
23
0.615936
33
0.050004
0
3DFACE
8
default
62
30
10
-0.140004
20
0.697548
30
0.050004
11
-0.140004
21
0.684060
31
0.050004
12
-0.143004
22
0.684060
32
0.050004
13
-0.140004
23
0.697548
33
0.050004
0
3DFACE
8
default
62
30
10
-0.140004
20
0.697548
30
0.050004
11
-0.143004
21
0.684060
31
0.050004
12
-0.143004
22
0.697548
32
0.050004
13
-0.140004
23
0.697548
33
0.050004
0
3DFACE
8
default
62
30
10
-0.140004
20
-0.064476
30
-0.076440
11
-0.140004
21
-0.064476
31
-0.062784
12
-0.140376
22
-0.063636
32
-0.063636
13
-0.140004
23
-0.064476
33
-0.076440
0
3DFACE
8
default
62
30
10
-0.140376
20
-0.063636
30
-0.063636
11
-0.148824
21
-0.045000
31
-0.077940
12
-0.140004
22
-0.064476
32
-0.076440
13
-0.140376
23
-0.063636
33
-0.063636
0
3DFACE
8
default
62
30
10
-0.148824
20
-0.045000
30
-0.077940
11
-0.146556
21
-0.050004
31
-0.086604
12
-0.140004
22
-0.064476
32
-0.076440
13
-0.148824
23
-0.045000
33
-0.077940
0
3DFACE
8
default
62
30
10
-0.148824
20
-0.045000
30
-0.077940
11
-0.158664
21
-0.023292
31
-0.086928
12
-0.146556
22
-0.050004
32
-0.086604
13
-0.148824
23
-0.045000
33
-0.077940
0
3DFACE
8
default
62
30
10
-0.158664
20
-0.023292
30
-0.086928
11
-0.157488
21
-0.025884
31
-0.096588
12
-0.146556
22
-0.050004
32
-0.086604
13
-0.158664
23
-0.023292
33
-0.086928
0
3DFACE
8
default
62
30
10
-0.158664
20
-0.023292
30
-0.086928
11
-0.169224
21
0.000000
31
-0.090000
12
-0.157488
22
-0.025884
32
-0.096588
13
-0.158664
23
-0.023292
33
-0.086928
0
3DFACE
8
default
62
30
10
-0.169224
20
0.000000
30
-0.090000
11
-0.169224
21
0.000000
31
-0.099996
12
-0.157488
22
-0.025884
32
-0.096588
13
-0.169224
23
0.000000
33
-0.090000
0
3DFACE
8
default
62
30
10
-0.180948
20
0.025884
30
-0.096588
11
-0.169224
21
0.000000
31
-0.099996
12
-0.179772
22
0.023292
32
-0.086928
13
-0.180948
23
0.025884
33
-0.096588
0
3DFACE
8
default
62
30
10
-0.169224
20
0.000000
30
-0.099996
11
-0.169224
21
0.000000
31
-0.090000
12
-0.179772
22
0.023292
32
-0.086928
13
-0.169224
23
0.000000
33
-0.099996
0
3DFACE
8
default
62
30
10
-0.180948
20
0.025884
30
-0.096588
11
-0.179772
21
0.023292
31
-0.086928
12
-0.189612
22
0.045000
32
-0.077940
13
-0.180948
23
0.025884
33
-0.096588
0
3DFACE
8
default
62
30
10
-0.189612
20
0.045000
30
-0.077940
11
-0.198060
21
0.063636
31
-0.063636
12
-0.180948
22
0.025884
32
-0.096588
13
-0.189612
23
0.045000
33
-0.077940
0
3DFACE
8
default
62
30
10
-0.198060
20
0.063636
30
-0.063636
11
-0.202332
21
0.073080
31
-0.077208
12
-0.180948
22
0.025884
32
-0.096588
13
-0.198060
23
0.063636
33
-0.063636
0
3DFACE
8
default
62
30
10
-0.203124
20
0.074832
30
-0.050004
11
-0.210000
21
0.090000
31
-0.050004
12
-0.202332
22
0.073080
32
-0.077208
13
-0.203124
23
0.074832
33
-0.050004
0
3DFACE
8
default
62
30
10
-0.210000
20
0.090000
30
-0.050004
11
-0.210000
21
0.090000
31
-0.074196
12
-0.202332
22
0.073080
32
-0.077208
13
-0.210000
23
0.090000
33
-0.050004
0
3DFACE
8
default
62
30
10
-0.202332
20
0.073080
30
-0.077208
11
-0.198060
21
0.063636
31
-0.063636
12
-0.203124
22
0.074832
32
-0.050004
13
-0.202332
23
0.073080
33
-0.077208
0
3DFACE
8
default
62
30
10
-0.180948
20
0.025884
30
0.096588
11
-0.202332
21
0.073080
31
0.077208
12
-0.189612
22
0.045000
32
0.077940
13
-0.180948
23
0.025884
33
0.096588
0
3DFACE
8
default
62
30
10
-0.202332
20
0.073080
30
0.077208
11
-0.198060
21
0.063636
31
0.063636
12
-0.189612
22
0.045000
32
0.077940
13
-0.202332
23
0.073080
33
0.077208
0
3DFACE
8
default
62
30
10
-0.189612
20
0.045000
30
0.077940
11
-0.179772
21
0.023292
31
0.086928
12
-0.180948
22
0.025884
32
0.096588
13
-0.189612
23
0.045000
33
0.077940
0
3DFACE
8
default
62
30
10
-0.202332
20
0.073080
30
0.077208
11
-0.210000
21
0.090000
31
0.074196
12
-0.203124
22
0.074832
32
0.050004
13
-0.202332
23
0.073080
33
0.077208
0
3DFACE
8
default
62
30
10
-0.210000
20
0.090000
30
0.074196
11
-0.210000
21
0.090000
31
0.050004
12
-0.203124
22
0.074832
32
0.050004
13
-0.210000
23
0.090000
33
0.074196
0
3DFACE
8
default
62
30
10
-0.203124
20
0.074832
30
0.050004
11
-0.198060
21
0.063636
31
0.063636
12
-0.202332
22
0.073080
32
0.077208
13
-0.203124
23
0.074832
33
0.050004
0
3DFACE
8
default
62
30
10
-0.179772
20
0.023292
30
0.086928
11
-0.169224
21
-0.000000
31
0.090000
12
-0.180948
22
0.025884
32
0.096588
13
-0.179772
23
0.023292
33
0.086928
0
3DFACE
8
default
62
30
10
-0.169224
20
-0.000000
30
0.090000
11
-0.169224
21
-0.000000
31
0.099996
12
-0.180948
22
0.025884
32
0.096588
13
-0.169224
23
-0.000000
33
0.090000
0
3DFACE
8
default
62
30
10
-0.157488
20
-0.025884
30
0.096588
11
-0.169224
21
-0.000000
31
0.099996
12
-0.158664
22
-0.023292
32
0.086928
13
-0.157488
23
-0.025884
33
0.096588
0
3DFACE
8
default
62
30
10
-0.169224
20
-0.000000
30
0.099996
11
-0.169224
21
-0.000000
31
0.090000
12
-0.158664
22
-0.023292
32
0.086928
13
-0.169224
23
-0.000000
33
0.099996
0
3DFACE
8
default
62
30
10
-0.146556
20
-0.050004
30
0.086604
11
-0.157488
21
-0.025884
31
0.096588
12
-0.148824
22
-0.045000
32
0.077940
13
-0.146556
23
-0.050004
33
0.086604
0
3DFACE
8
default
62
30
10
-0.157488
20
-0.025884
30
0.096588
11
-0.158664
21
-0.023292
31
0.086928
12
-0.148824
22
-0.045000
32
0.077940
13
-0.157488
23
-0.025884
33
0.096588
0
3DFACE
8
default
62
30
10
-0.140004
20
-0.064476
30
0.076440
11
-0.146556
21
-0.050004
31
0.086604
12
-0.140376
22
-0.063636
32
0.063636
13
-0.140004
23
-0.064476
33
0.076440
0
3DFACE
8
default
62
30
10
-0.146556
20
-0.050004
30
0.086604
11
-0.148824
21
-0.045000
31
0.077940
12
-0.140376
22
-0.063636
32
0.063636
13
-0.146556
23
-0.050004
33
0.086604
0
3DFACE
8
default
62
30
10
-0.140376
20
-0.063636
30
0.063636
11
-0.140004
21
-0.064476
31
0.062784
12
-0.140004
22
-0.064476
32
0.076440
13
-0.140376
23
-0.063636
33
0.063636
0
3DFACE
8
default
62
30
10
-0.210000
20
0.467184
30
-0.050004
11
-0.210000
21
0.467184
31
0.050004
12
-0.210000
22
0.090000
32
0.050004
13
-0.210000
23
0.467184
33
-0.050004
0
3DFACE
8
default
62
30
10
-0.210000
20
0.467184
30
-0.050004
11
-0.210000
21
0.090000
31
0.050004
12
-0.210000
22
0.090000
32
-0.050004
13
-0.210000
23
0.467184
33
-0.050004
0
3DFACE
8
default
62
30
10
-0.065004
20
0.025884
30
-0.096588
11
-0.180948
21
0.025884
31
-0.096588
12
-0.202332
22
0.073080
32
-0.077208
13
-0.065004
23
0.025884
33
-0.096588
0
3DFACE
8
default
62
30
10
-0.065004
20
0.025884
30
-0.096588
11
-0.202332
21
0.073080
31
-0.077208
12
-0.065004
22
0.073080
32
-0.077208
13
-0.065004
23
0.025884
33
-0.096588
0
3DFACE
8
default
62
30
10
-0.202332
20
0.073080
30
0.077208
11
-0.180948
21
0.025884
31
0.096588
12
-0.065004
22
0.025884
32
0.096588
13
-0.202332
23
0.073080
33
0.077208
0
3DFACE
8
default
62
30
10
-0.202332
20
0.073080
30
0.077208
11
-0.065004
21
0.025884
31
0.096588
12
-0.065004
22
0.073080
32
0.077208
13
-0.202332
23
0.073080
33
0.077208
0
3DFACE
8
default
62
30
10
-0.189612
20
0.045000
30
-0.077940
11
-0.120000
21
0.045000
31
-0.077940
12
-0.120000
22
0.063636
32
-0.063636
13
-0.189612
23
0.045000
33
-0.077940
0
3DFACE
8
default
62
30
10
-0.189612
20
0.045000
30
-0.077940
11
-0.120000
21
0.063636
31
-0.063636
12
-0.198060
22
0.063636
32
-0.063636
13
-0.189612
23
0.045000
33
-0.077940
0
3DFACE
8
default
62
30
10
-0.120000
20
0.077940
30
0.045000
11
-0.120000
21
0.063636
31
0.063636
12
-0.198060
22
0.063636
32
0.063636
13
-0.120000
23
0.077940
33
0.045000
0
3DFACE
8
default
62
30
10
-0.120000
20
0.077940
30
0.045000
11
-0.198060
21
0.063636
31
0.063636
12
-0.140004
22
0.077940
32
0.045000
13
-0.120000
23
0.077940
33
0.045000
0
3DFACE
8
default
62
30
10
-0.120000
20
0.045000
30
0.077940
11
-0.189612
21
0.045000
31
0.077940
12
-0.198060
22
0.063636
32
0.063636
13
-0.120000
23
0.045000
33
0.077940
0
3DFACE
8
default
62
30
10
-0.120000
20
0.045000
30
0.077940
11
-0.198060
21
0.063636
31
0.063636
12
-0.120000
22
0.063636
32
0.063636
13
-0.120000
23
0.045000
33
0.077940
0
3DFACE
8
default
62
30
10
-0.120000
20
0.023292
30
0.086928
11
-0.179772
21
0.023292
31
0.086928
12
-0.189612
22
0.045000
32
0.077940
13
-0.120000
23
0.023292
33
0.086928
0
3DFACE
8
default
62
30
10
-0.120000
20
0.023292
30
0.086928
11
-0.189612
21
0.045000
31
0.077940
12
-0.120000
22
0.045000
32
0.077940
13
-0.120000
23
0.023292
33
0.086928
0
3DFACE
8
default
62
30
10
-0.179772
20
0.023292
30
-0.086928
11
-0.120000
21
0.023292
31
-0.086928
12
-0.120000
22
0.045000
32
-0.077940
13
-0.179772
23
0.023292
33
-0.086928
0
3DFACE
8
default
62
30
10
-0.179772
20
0.023292
30
-0.086928
11
-0.120000
21
0.045000
31
-0.077940
12
-0.189612
22
0.045000
32
-0.077940
13
-0.179772
23
0.023292
33
-0.086928
0
3DFACE
8
default
62
30
10
-0.065004
20
0.000000
30
-0.099996
11
-0.169224
21
0.000000
31
-0.099996
12
-0.180948
22
0.025884
32
-0.096588
13
-0.065004
23
0.000000
33
-0.099996
0
3DFACE
8
default
62
30
10
-0.065004
20
0.000000
30
-0.099996
11
-0.180948
21
0.025884
31
-0.096588
12
-0.065004
22
0.025884
32
-0.096588
13
-0.065004
23
0.000000
33
-0.099996
0
3DFACE
8
default
62
30
10
-0.065004
20
-0.000000
30
0.099996
11
-0.065004
21
0.025884
31
0.096588
12
-0.180948
22
0.025884
32
0.096588
13
-0.065004
23
-0.000000
33
0.099996
0
3DFACE
8
default
62
30
10
-0.065004
20
-0.000000
30
0.099996
11
-0.180948
21
0.025884
31
0.096588
12
-0.169224
22
-0.000000
32
0.099996
13
-0.065004
23
-0.000000
33
0.099996
0
3DFACE
8
default
62
30
10
-0.120000
20
0.023292
30
0.086928
11
-0.120000
21
-0.000000
31
0.090000
12
-0.169224
22
-0.000000
32
0.090000
13
-0.120000
23
0.023292
33
0.086928
0
3DFACE
8
default
62
30
10
-0.120000
20
0.023292
30
0.086928
11
-0.169224
21
-0.000000
31
0.090000
12
-0.179772
22
0.023292
32
0.086928
13
-0.120000
23
0.023292
33
0.086928
0
3DFACE
8
default
62
30
10
-0.169224
20
0.000000
30
-0.090000
11
-0.120000
21
0.000000
31
-0.090000
12
-0.120000
22
0.023292
32
-0.086928
13
-0.169224
23
0.000000
33
-0.090000
0
3DFACE
8
default
62
30
10
-0.169224
20
0.000000
30
-0.090000
11
-0.120000
21
0.023292
31
-0.086928
12
-0.179772
22
0.023292
32
-0.086928
13
-0.169224
23
0.000000
33
-0.090000
0
3DFACE
8
default
62
30
10
-0.065004
20
-0.025884
30
-0.096588
11
-0.157488
21
-0.025884
31
-0.096588
12
-0.169224
22
0.000000
32
-0.099996
13
-0.065004
23
-0.025884
33
-0.096588
0
3DFACE
8
default
62
30
10
-0.065004
20
-0.025884
30
-0.096588
11
-0.169224
21
0.000000
31
-0.099996
12
-0.065004
22
0.000000
32
-0.099996
13
-0.065004
23
-0.025884
33
-0.096588
0
3DFACE
8
default
62
30
10
-0.065004
20
-0.025884
30
0.096588
11
-0.065004
21
-0.000000
31
0.099996
12
-0.169224
22
-0.000000
32
0.099996
13
-0.065004
23
-0.025884
33
0.096588
0
3DFACE
8
default
62
30
10
-0.065004
20
-0.025884
30
0.096588
11
-0.169224
21
-0.000000
31
0.099996
12
-0.157488
22
-0.025884
32
0.096588
13
-0.065004
23
-0.025884
33
0.096588
0
3DFACE
8
default
62
30
10
-0.158664
20
-0.023292
30
-0.086928
11
-0.120000
21
-0.023292
31
-0.086928
12
-0.169224
22
0.000000
32
-0.090000
13
-0.158664
23
-0.023292
33
-0.086928
0
3DFACE
8
default
62
30
10
-0.120000
20
-0.023292
30
-0.086928
11
-0.120000
21
0.000000
31
-0.090000
12
-0.169224
22
0.000000
32
-0.090000
13
-0.120000
23
-0.023292
33
-0.086928
0
3DFACE
8
default
62
30
10
-0.120000
20
-0.000000
30
0.090000
11
-0.120000
21
-0.023292
31
0.086928
12
-0.169224
22
-0.000000
32
0.090000
13
-0.120000
23
-0.000000
33
0.090000
0
3DFACE
8
default
62
30
10
-0.120000
20
-0.023292
30
0.086928
11
-0.158664
21
-0.023292
31
0.086928
12
-0.169224
22
-0.000000
32
0.090000
13
-0.120000
23
-0.023292
33
0.086928
0
3DFACE
8
default
62
30
10
-0.164676
20
0.590844
30
-0.058308
11
-0.065004
21
0.590844
31
-0.058308
12
-0.065004
22
0.587700
32
-0.058356
13
-0.164676
23
0.590844
33
-0.058308
0
3DFACE
8
default
62
30
10
-0.164676
20
0.590844
30
-0.058308
11
-0.065004
21
0.587700
31
-0.058356
12
-0.165828
22
0.587700
32
-0.058356
13
-0.164676
23
0.590844
33
-0.058308
0
3DFACE
8
default
62
30
10
-0.065004
20
0.590844
30
0.058308
11
-0.164676
21
0.590844
31
0.058308
12
-0.165828
22
0.587700
32
0.058356
13
-0.065004
23
0.590844
33
0.058308
0
3DFACE
8
default
62
30
10
-0.065004
20
0.590844
30
0.058308
11
-0.165828
21
0.587700
31
0.058356
12
-0.065004
22
0.587700
32
0.058356
13
-0.065004
23
0.590844
33
0.058308
0
3DFACE
8
default
62
30
10
-0.164676
20
0.590844
30
-0.058308
11
-0.155196
21
0.616728
31
-0.061716
12
-0.065004
22
0.616728
32
-0.061716
13
-0.164676
23
0.590844
33
-0.058308
0
3DFACE
8
default
62
30
10
-0.164676
20
0.590844
30
-0.058308
11
-0.065004
21
0.616728
31
-0.061716
12
-0.065004
22
0.590844
32
-0.058308
13
-0.164676
23
0.590844
33
-0.058308
0
3DFACE
8
default
62
30
10
-0.065004
20
0.616728
30
0.061716
11
-0.155196
21
0.616728
31
0.061716
12
-0.164676
22
0.590844
32
0.058308
13
-0.065004
23
0.616728
33
0.061716
0
3DFACE
8
default
62
30
10
-0.065004
20
0.616728
30
0.061716
11
-0.164676
21
0.590844
31
0.058308
12
-0.065004
22
0.590844
32
0.058308
13
-0.065004
23
0.616728
33
0.061716
0
3DFACE
8
default
62
30
10
-0.148824
20
-0.045000
30
-0.077940
11
-0.120000
21
-0.045000
31
-0.077940
12
-0.158664
22
-0.023292
32
-0.086928
13
-0.148824
23
-0.045000
33
-0.077940
0
3DFACE
8
default
62
30
10
-0.120000
20
-0.045000
30
-0.077940
11
-0.120000
21
-0.023292
31
-0.086928
12
-0.158664
22
-0.023292
32
-0.086928
13
-0.120000
23
-0.045000
33
-0.077940
0
3DFACE
8
default
62
30
10
-0.120000
20
-0.023292
30
0.086928
11
-0.120000
21
-0.045000
31
0.077940
12
-0.158664
22
-0.023292
32
0.086928
13
-0.120000
23
-0.023292
33
0.086928
0
3DFACE
8
default
62
30
10
-0.120000
20
-0.045000
30
0.077940
11
-0.148824
21
-0.045000
31
0.077940
12
-0.158664
22
-0.023292
32
0.086928
13
-0.120000
23
-0.045000
33
0.077940
0
3DFACE
8
default
62
30
10
-0.065004
20
-0.050004
30
0.086604
11
-0.065004
21
-0.025884
31
0.096588
12
-0.157488
22
-0.025884
32
0.096588
13
-0.065004
23
-0.050004
33
0.086604
0
3DFACE
8
default
62
30
10
-0.065004
20
-0.050004
30
0.086604
11
-0.157488
21
-0.025884
31
0.096588
12
-0.146556
22
-0.050004
32
0.086604
13
-0.065004
23
-0.050004
33
0.086604
0
3DFACE
8
default
62
30
10
-0.065004
20
-0.050004
30
-0.086604
11
-0.146556
21
-0.050004
31
-0.086604
12
-0.065004
22
-0.025884
32
-0.096588
13
-0.065004
23
-0.050004
33
-0.086604
0
3DFACE
8
default
62
30
10
-0.146556
20
-0.050004
30
-0.086604
11
-0.157488
21
-0.025884
31
-0.096588
12
-0.065004
22
-0.025884
32
-0.096588
13
-0.146556
23
-0.050004
33
-0.086604
0
3DFACE
8
default
62
30
10
-0.065004
20
0.616728
30
0.061716
11
-0.065004
21
0.632136
31
0.066648
12
-0.149544
22
0.632136
32
0.066648
13
-0.065004
23
0.616728
33
0.061716
0
3DFACE
8
default
62
30
10
-0.065004
20
0.616728
30
0.061716
11
-0.149544
21
0.632136
31
0.066648
12
-0.155196
22
0.616728
32
0.061716
13
-0.065004
23
0.616728
33
0.061716
0
3DFACE
8
default
62
30
10
-0.149544
20
0.632136
30
-0.066648
11
-0.065004
21
0.632136
31
-0.066648
12
-0.065004
22
0.616728
32
-0.061716
13
-0.149544
23
0.632136
33
-0.066648
0
3DFACE
8
default
62
30
10
-0.149544
20
0.632136
30
-0.066648
11
-0.065004
21
0.616728
31
-0.061716
12
-0.155196
22
0.616728
32
-0.061716
13
-0.149544
23
0.632136
33
-0.066648
0
3DFACE
8
default
62
30
10
-0.120000
20
0.619752
30
-0.052392
11
-0.120000
21
0.634344
31
-0.058440
12
-0.148740
22
0.634344
32
-0.058440
13
-0.120000
23
0.619752
33
-0.052392
0
3DFACE
8
default
62
30
10
-0.120000
20
0.619752
30
-0.052392
11
-0.148740
21
0.634344
31
-0.058440
12
-0.154092
22
0.619752
32
-0.052392
13
-0.120000
23
0.619752
33
-0.052392
0
3DFACE
8
default
62
30
10
-0.148740
20
0.634344
30
0.058440
11
-0.120000
21
0.634344
31
0.058440
12
-0.120000
22
0.619752
32
0.052392
13
-0.148740
23
0.634344
33
0.058440
0
3DFACE
8
default
62
30
10
-0.148740
20
0.634344
30
0.058440
11
-0.120000
21
0.619752
31
0.052392
12
-0.154092
22
0.619752
32
0.052392
13
-0.148740
23
0.634344
33
0.058440
0
3DFACE
8
default
62
30
10
-0.065004
20
0.650004
30
0.069000
11
-0.143004
21
0.650004
31
0.069000
12
-0.149544
22
0.632136
32
0.066648
13
-0.065004
23
0.650004
33
0.069000
0
3DFACE
8
default
62
30
10
-0.065004
20
0.650004
30
0.069000
11
-0.149544
21
0.632136
31
0.066648
12
-0.065004
22
0.632136
32
0.066648
13
-0.065004
23
0.650004
33
0.069000
0
3DFACE
8
default
62
30
10
-0.065004
20
0.650004
30
-0.069000
11
-0.065004
21
0.632136
31
-0.066648
12
-0.149544
22
0.632136
32
-0.066648
13
-0.065004
23
0.650004
33
-0.069000
0
3DFACE
8
default
62
30
10
-0.065004
20
0.650004
30
-0.069000
11
-0.149544
21
0.632136
31
-0.066648
12
-0.143004
22
0.650004
32
-0.069000
13
-0.065004
23
0.650004
33
-0.069000
0
3DFACE
8
default
62
30
10
-0.120000
20
-0.045000
30
0.077940
11
-0.120000
21
-0.063636
31
0.063636
12
-0.140376
22
-0.063636
32
0.063636
13
-0.120000
23
-0.045000
33
0.077940
0
3DFACE
8
default
62
30
10
-0.120000
20
-0.045000
30
0.077940
11
-0.140376
21
-0.063636
31
0.063636
12
-0.148824
22
-0.045000
32
0.077940
13
-0.120000
23
-0.045000
33
0.077940
0
3DFACE
8
default
62
30
10
-0.140376
20
-0.063636
30
-0.063636
11
-0.120000
21
-0.063636
31
-0.063636
12
-0.120000
22
-0.045000
32
-0.077940
13
-0.140376
23
-0.063636
33
-0.063636
0
3DFACE
8
default
62
30
10
-0.140376
20
-0.063636
30
-0.063636
11
-0.120000
21
-0.045000
31
-0.077940
12
-0.148824
22
-0.045000
32
-0.077940
13
-0.140376
23
-0.063636
33
-0.063636
0
3DFACE
8
default
62
30
10
-0.143004
20
0.650004
30
0.060504
11
-0.120000
21
0.650004
31
0.060504
12
-0.120000
22
0.634344
32
0.058440
13
-0.143004
23
0.650004
33
0.060504
0
3DFACE
8
default
62
30
10
-0.143004
20
0.650004
30
0.060504
11
-0.120000
21
0.634344
31
0.058440
12
-0.148740
22
0.634344
32
0.058440
13
-0.143004
23
0.650004
33
0.060504
0
3DFACE
8
default
62
30
10
-0.120000
20
0.634344
30
-0.058440
11
-0.120000
21
0.650004
31
-0.060504
12
-0.143004
22
0.650004
32
-0.060504
13
-0.120000
23
0.634344
33
-0.058440
0
3DFACE
8
default
62
30
10
-0.120000
20
0.634344
30
-0.058440
11
-0.143004
21
0.650004
31
-0.060504
12
-0.148740
22
0.634344
32
-0.058440
13
-0.120000
23
0.634344
33
-0.058440
0
3DFACE
8
default
62
30
10
-0.143004
20
0.665664
30
0.058440
11
-0.120000
21
0.665664
31
0.058440
12
-0.120000
22
0.650004
32
0.060504
13
-0.143004
23
0.665664
33
0.058440
0
3DFACE
8
default
62
30
10
-0.143004
20
0.665664
30
0.058440
11
-0.120000
21
0.650004
31
0.060504
12
-0.143004
22
0.650004
32
0.060504
13
-0.143004
23
0.665664
33
0.058440
0
3DFACE
8
default
62
30
10
-0.143004
20
0.665664
30
-0.058440
11
-0.120000
21
0.665664
31
-0.058440
12
-0.120000
22
0.680256
32
-0.052392
13
-0.143004
23
0.665664
33
-0.058440
0
3DFACE
8
default
62
30
10
-0.143004
20
0.665664
30
-0.058440
11
-0.120000
21
0.680256
31
-0.052392
12
-0.143004
22
0.680256
32
-0.052392
13
-0.143004
23
0.665664
33
-0.058440
0
3DFACE
8
default
62
30
10
-0.120000
20
0.665664
30
-0.058440
11
-0.143004
21
0.665664
31
-0.058440
12
-0.143004
22
0.650004
32
-0.060504
13
-0.120000
23
0.665664
33
-0.058440
0
3DFACE
8
default
62
30
10
-0.120000
20
0.665664
30
-0.058440
11
-0.143004
21
0.650004
31
-0.060504
12
-0.120000
22
0.650004
32
-0.060504
13
-0.120000
23
0.665664
33
-0.058440
0
3DFACE
8
default
62
30
10
-0.140004
20
0.697548
30
-0.050004
11
-0.065004
21
0.684504
31
-0.059760
12
-0.143004
22
0.684504
32
-0.059760
13
-0.140004
23
0.697548
33
-0.050004
0
3DFACE
8
default
62
30
10
-0.140004
20
0.697548
30
-0.050004
11
-0.143004
21
0.684504
31
-0.059760
12
-0.143004
22
0.697548
32
-0.050004
13
-0.140004
23
0.697548
33
-0.050004
0
3DFACE
8
default
62
30
10
-0.065004
20
0.667860
30
-0.066648
11
-0.143004
21
0.667860
31
-0.066648
12
-0.143004
22
0.684504
32
-0.059760
13
-0.065004
23
0.667860
33
-0.066648
0
3DFACE
8
default
62
30
10
-0.065004
20
0.667860
30
-0.066648
11
-0.143004
21
0.684504
31
-0.059760
12
-0.065004
22
0.684504
32
-0.059760
13
-0.065004
23
0.667860
33
-0.066648
0
3DFACE
8
default
62
30
10
-0.120000
20
0.680256
30
0.052392
11
-0.120000
21
0.665664
31
0.058440
12
-0.143004
22
0.665664
32
0.058440
13
-0.120000
23
0.680256
33
0.052392
0
3DFACE
8
default
62
30
10
-0.120000
20
0.680256
30
0.052392
11
-0.143004
21
0.665664
31
0.058440
12
-0.143004
22
0.680256
32
0.052392
13
-0.120000
23
0.680256
33
0.052392
0
3DFACE
8
default
62
30
10
-0.065004
20
0.667860
30
-0.066648
11
-0.065004
21
0.650004
31
-0.069000
12
-0.143004
22
0.650004
32
-0.069000
13
-0.065004
23
0.667860
33
-0.066648
0
3DFACE
8
default
62
30
10
-0.065004
20
0.667860
30
-0.066648
11
-0.143004
21
0.650004
31
-0.069000
12
-0.143004
22
0.667860
32
-0.066648
13
-0.065004
23
0.667860
33
-0.066648
0
3DFACE
8
default
62
30
10
-0.140004
20
0.692784
30
0.042780
11
-0.120000
21
0.692784
31
0.042780
12
-0.120000
22
0.680256
32
0.052392
13
-0.140004
23
0.692784
33
0.042780
0
3DFACE
8
default
62
30
10
-0.140004
20
0.692784
30
0.042780
11
-0.120000
21
0.680256
31
0.052392
12
-0.143004
22
0.680256
32
0.052392
13
-0.140004
23
0.692784
33
0.042780
0
3DFACE
8
default
62
30
10
-0.065004
20
0.667860
30
0.066648
11
-0.143004
21
0.667860
31
0.066648
12
-0.143004
22
0.650004
32
0.069000
13
-0.065004
23
0.667860
33
0.066648
0
3DFACE
8
default
62
30
10
-0.065004
20
0.667860
30
0.066648
11
-0.143004
21
0.650004
31
0.069000
12
-0.065004
22
0.650004
32
0.069000
13
-0.065004
23
0.667860
33
0.066648
0
3DFACE
8
default
62
30
10
-0.143004
20
0.667860
30
0.066648
11
-0.065004
21
0.667860
31
0.066648
12
-0.143004
22
0.684504
32
0.059760
13
-0.143004
23
0.667860
33
0.066648
0
3DFACE
8
default
62
30
10
-0.065004
20
0.667860
30
0.066648
11
-0.065004
21
0.684504
31
0.059760
12
-0.143004
22
0.684504
32
0.059760
13
-0.065004
23
0.667860
33
0.066648
0
3DFACE
8
default
62
30
10
-0.120000
20
0.090000
30
0.000000
11
-0.140004
21
0.090000
31
0.000000
12
-0.140004
22
0.086928
32
-0.023292
13
-0.120000
23
0.090000
33
0.000000
0
3DFACE
8
default
62
30
10
-0.120000
20
0.090000
30
0.000000
11
-0.140004
21
0.086928
31
-0.023292
12
-0.120000
22
0.086928
32
-0.023292
13
-0.120000
23
0.090000
33
0.000000
0
3DFACE
8
default
62
30
10
-0.120000
20
0.086928
30
0.023292
11
-0.140004
21
0.086928
31
0.023292
12
-0.140004
22
0.090000
32
0.000000
13
-0.120000
23
0.086928
33
0.023292
0
3DFACE
8
default
62
30
10
-0.120000
20
0.086928
30
0.023292
11
-0.140004
21
0.090000
31
0.000000
12
-0.120000
22
0.090000
32
0.000000
13
-0.120000
23
0.086928
33
0.023292
0
3DFACE
8
default
62
30
10
-0.120000
20
0.077940
30
0.045000
11
-0.140004
21
0.077940
31
0.045000
12
-0.140004
22
0.086928
32
0.023292
13
-0.120000
23
0.077940
33
0.045000
0
3DFACE
8
default
62
30
10
-0.120000
20
0.077940
30
0.045000
11
-0.140004
21
0.086928
31
0.023292
12
-0.120000
22
0.086928
32
0.023292
13
-0.120000
23
0.077940
33
0.045000
0
3DFACE
8
default
62
30
10
-0.140004
20
0.077940
30
-0.045000
11
-0.120000
21
0.077940
31
-0.045000
12
-0.120000
22
0.086928
32
-0.023292
13
-0.140004
23
0.077940
33
-0.045000
0
3DFACE
8
default
62
30
10
-0.140004
20
0.077940
30
-0.045000
11
-0.120000
21
0.086928
31
-0.023292
12
-0.140004
22
0.086928
32
-0.023292
13
-0.140004
23
0.077940
33
-0.045000
0
3DFACE
8
default
62
30
10
-0.120000
20
0.710496
30
0.000000
11
-0.120000
21
0.708444
31
0.015660
12
-0.140004
22
0.710496
32
0.000000
13
-0.120000
23
0.710496
33
0.000000
0
3DFACE
8
default
62
30
10
-0.120000
20
0.708444
30
0.015660
11
-0.140004
21
0.708444
31
0.015660
12
-0.140004
22
0.710496
32
0.000000
13
-0.120000
23
0.708444
33
0.015660
0
3DFACE
8
default
62
30
10
-0.140004
20
0.708444
30
-0.015660
11
-0.120000
21
0.708444
31
-0.015660
12
-0.120000
22
0.710496
32
0.000000
13
-0.140004
23
0.708444
33
-0.015660
0
3DFACE
8
default
62
30
10
-0.140004
20
0.708444
30
-0.015660
11
-0.120000
21
0.710496
31
0.000000
12
-0.140004
22
0.710496
32
0.000000
13
-0.140004
23
0.708444
33
-0.015660
0
3DFACE
8
default
62
30
10
-0.140004
20
0.702396
30
-0.030252
11
-0.120000
21
0.702396
31
-0.030252
12
-0.120000
22
0.708444
32
-0.015660
13
-0.140004
23
0.702396
33
-0.030252
0
3DFACE
8
default
62
30
10
-0.140004
20
0.702396
30
-0.030252
11
-0.120000
21
0.708444
31
-0.015660
12
-0.140004
22
0.708444
32
-0.015660
13
-0.140004
23
0.702396
33
-0.030252
0
3DFACE
8
default
62
30
10
-0.140004
20
0.692784
30
-0.042780
11
-0.120000
21
0.692784
31
-0.042780
12
-0.140004
22
0.702396
32
-0.030252
13
-0.140004
23
0.692784
33
-0.042780
0
3DFACE
8
default
62
30
10
-0.120000
20
0.692784
30
-0.042780
11
-0.120000
21
0.702396
31
-0.030252
12
-0.140004
22
0.702396
32
-0.030252
13
-0.120000
23
0.692784
33
-0.042780
0
3DFACE
8
default
62
30
10
-0.065004
20
0.709752
30
0.034500
11
-0.140004
21
0.709752
31
0.034500
12
-0.140004
22
0.698796
32
0.048792
13
-0.065004
23
0.709752
33
0.034500
0
3DFACE
8
default
62
30
10
-0.065004
20
0.709752
30
0.034500
11
-0.140004
21
0.698796
31
0.048792
12
-0.065004
22
0.698796
32
0.048792
13
-0.065004
23
0.709752
33
0.034500
0
3DFACE
8
default
62
30
10
-0.065004
20
0.716652
30
0.017856
11
-0.140004
21
0.716652
31
0.017856
12
-0.065004
22
0.709752
32
0.034500
13
-0.065004
23
0.716652
33
0.017856
0
3DFACE
8
default
62
30
10
-0.140004
20
0.716652
30
0.017856
11
-0.140004
21
0.709752
31
0.034500
12
-0.065004
22
0.709752
32
0.034500
13
-0.140004
23
0.716652
33
0.017856
0
3DFACE
8
default
62
30
10
-0.120000
20
-0.086928
30
0.023292
11
-0.140004
21
-0.086928
31
0.023292
12
-0.140004
22
-0.077940
32
0.045000
13
-0.120000
23
-0.086928
33
0.023292
0
3DFACE
8
default
62
30
10
-0.120000
20
-0.086928
30
0.023292
11
-0.140004
21
-0.077940
31
0.045000
12
-0.120000
22
-0.077940
32
0.045000
13
-0.120000
23
-0.086928
33
0.023292
0
3DFACE
8
default
62
30
10
-0.120000
20
-0.090000
30
-0.000000
11
-0.140004
21
-0.090000
31
-0.000000
12
-0.140004
22
-0.086928
32
0.023292
13
-0.120000
23
-0.090000
33
-0.000000
0
3DFACE
8
default
62
30
10
-0.120000
20
-0.090000
30
-0.000000
11
-0.140004
21
-0.086928
31
0.023292
12
-0.120000
22
-0.086928
32
0.023292
13
-0.120000
23
-0.090000
33
-0.000000
0
3DFACE
8
default
62
30
10
-0.120000
20
-0.086928
30
-0.023292
11
-0.140004
21
-0.086928
31
-0.023292
12
-0.140004
22
-0.090000
32
-0.000000
13
-0.120000
23
-0.086928
33
-0.023292
0
3DFACE
8
default
62
30
10
-0.120000
20
-0.086928
30
-0.023292
11
-0.140004
21
-0.090000
31
-0.000000
12
-0.120000
22
-0.090000
32
-0.000000
13
-0.120000
23
-0.086928
33
-0.023292
0
3DFACE
8
default
62
30
10
-0.120000
20
-0.077940
30
-0.045000
11
-0.140004
21
-0.077940
31
-0.045000
12
-0.140004
22
-0.086928
32
-0.023292
13
-0.120000
23
-0.077940
33
-0.045000
0
3DFACE
8
default
62
30
10
-0.120000
20
-0.077940
30
-0.045000
11
-0.140004
21
-0.086928
31
-0.023292
12
-0.120000
22
-0.086928
32
-0.023292
13
-0.120000
23
-0.077940
33
-0.045000
0
3DFACE
8
default
62
30
10
-0.065004
20
0.719004
30
0.000000
11
-0.140004
21
0.719004
31
0.000000
12
-0.065004
22
0.716652
32
0.017856
13
-0.065004
23
0.719004
33
0.000000
0
3DFACE
8
default
62
30
10
-0.140004
20
0.719004
30
0.000000
11
-0.140004
21
0.716652
31
0.017856
12
-0.065004
22
0.716652
32
0.017856
13
-0.140004
23
0.719004
33
0.000000
0
3DFACE
8
default
62
30
10
-0.065004
20
0.716652
30
-0.017856
11
-0.140004
21
0.716652
31
-0.017856
12
-0.140004
22
0.719004
32
0.000000
13
-0.065004
23
0.716652
33
-0.017856
0
3DFACE
8
default
62
30
10
-0.065004
20
0.716652
30
-0.017856
11
-0.140004
21
0.719004
31
0.000000
12
-0.065004
22
0.719004
32
0.000000
13
-0.065004
23
0.716652
33
-0.017856
0
3DFACE
8
default
62
30
10
-0.065004
20
0.709752
30
-0.034500
11
-0.140004
21
0.709752
31
-0.034500
12
-0.140004
22
0.716652
32
-0.017856
13
-0.065004
23
0.709752
33
-0.034500
0
3DFACE
8
default
62
30
10
-0.065004
20
0.709752
30
-0.034500
11
-0.140004
21
0.716652
31
-0.017856
12
-0.065004
22
0.716652
32
-0.017856
13
-0.065004
23
0.709752
33
-0.034500
0
3DFACE
8
default
62
30
10
-0.065004
20
0.698796
30
-0.048792
11
-0.140004
21
0.698796
31
-0.048792
12
-0.065004
22
0.709752
32
-0.034500
13
-0.065004
23
0.698796
33
-0.048792
0
3DFACE
8
default
62
30
10
-0.140004
20
0.698796
30
-0.048792
11
-0.140004
21
0.709752
31
-0.034500
12
-0.065004
22
0.709752
32
-0.034500
13
-0.140004
23
0.698796
33
-0.048792
0
3DFACE
8
default
62
30
10
-0.120000
20
0.597600
30
-0.030252
11
-0.120000
21
0.607224
31
-0.042780
12
-0.140004
22
0.607224
32
-0.042780
13
-0.120000
23
0.597600
33
-0.030252
0
3DFACE
8
default
62
30
10
-0.120000
20
0.597600
30
-0.030252
11
-0.140004
21
0.607224
31
-0.042780
12
-0.140004
22
0.597600
32
-0.030252
13
-0.120000
23
0.597600
33
-0.030252
0
3DFACE
8
default
62
30
10
-0.120000
20
0.591564
30
-0.015660
11
-0.120000
21
0.597600
31
-0.030252
12
-0.140004
22
0.591564
32
-0.015660
13
-0.120000
23
0.591564
33
-0.015660
0
3DFACE
8
default
62
30
10
-0.120000
20
0.597600
30
-0.030252
11
-0.140004
21
0.597600
31
-0.030252
12
-0.140004
22
0.591564
32
-0.015660
13
-0.120000
23
0.597600
33
-0.030252
0
3DFACE
8
default
62
30
10
-0.120000
20
0.589500
30
0.000000
11
-0.120000
21
0.591564
31
-0.015660
12
-0.140004
22
0.589500
32
0.000000
13
-0.120000
23
0.589500
33
0.000000
0
3DFACE
8
default
62
30
10
-0.120000
20
0.591564
30
-0.015660
11
-0.140004
21
0.591564
31
-0.015660
12
-0.140004
22
0.589500
32
0.000000
13
-0.120000
23
0.591564
33
-0.015660
0
3DFACE
8
default
62
30
10
-0.120000
20
0.591564
30
0.015660
11
-0.120000
21
0.589500
31
0.000000
12
-0.140004
22
0.589500
32
0.000000
13
-0.120000
23
0.591564
33
0.015660
0
3DFACE
8
default
62
30
10
-0.120000
20
0.591564
30
0.015660
11
-0.140004
21
0.589500
31
0.000000
12
-0.140004
22
0.591564
32
0.015660
13
-0.120000
23
0.591564
33
0.015660
0
3DFACE
8
default
62
30
10
-0.120000
20
0.597600
30
0.030252
11
-0.120000
21
0.591564
31
0.015660
12
-0.140004
22
0.591564
32
0.015660
13
-0.120000
23
0.597600
33
0.030252
0
3DFACE
8
default
62
30
10
-0.120000
20
0.597600
30
0.030252
11
-0.140004
21
0.591564
31
0.015660
12
-0.140004
22
0.597600
32
0.030252
13
-0.120000
23
0.597600
33
0.030252
0
3DFACE
8
default
62
30
10
-0.065004
20
-0.070716
30
-0.070716
11
-0.065004
21
-0.086604
31
-0.050004
12
-0.140004
22
-0.086604
32
-0.050004
13
-0.065004
23
-0.070716
33
-0.070716
0
3DFACE
8
default
62
30
10
-0.065004
20
-0.070716
30
-0.070716
11
-0.140004
21
-0.086604
31
-0.050004
12
-0.140004
22
-0.070716
32
-0.070716
13
-0.065004
23
-0.070716
33
-0.070716
0
3DFACE
8
default
62
30
10
-0.065004
20
-0.086604
30
-0.050004
11
-0.065004
21
-0.096588
31
-0.025884
12
-0.140004
22
-0.096588
32
-0.025884
13
-0.065004
23
-0.086604
33
-0.050004
0
3DFACE
8
default
62
30
10
-0.065004
20
-0.086604
30
-0.050004
11
-0.140004
21
-0.096588
31
-0.025884
12
-0.140004
22
-0.086604
32
-0.050004
13
-0.065004
23
-0.086604
33
-0.050004
0
3DFACE
8
default
62
30
10
-0.065004
20
-0.096588
30
-0.025884
11
-0.065004
21
-0.099996
31
-0.000000
12
-0.140004
22
-0.099996
32
-0.000000
13
-0.065004
23
-0.096588
33
-0.025884
0
3DFACE
8
default
62
30
10
-0.065004
20
-0.096588
30
-0.025884
11
-0.140004
21
-0.099996
31
-0.000000
12
-0.140004
22
-0.096588
32
-0.025884
13
-0.065004
23
-0.096588
33
-0.025884
0
3DFACE
8
default
62
30
10
-0.065004
20
-0.099996
30
-0.000000
11
-0.065004
21
-0.096588
31
0.025884
12
-0.140004
22
-0.096588
32
0.025884
13
-0.065004
23
-0.099996
33
-0.000000
0
3DFACE
8
default
62
30
10
-0.065004
20
-0.099996
30
-0.000000
11
-0.140004
21
-0.096588
31
0.025884
12
-0.140004
22
-0.099996
32
-0.000000
13
-0.065004
23
-0.099996
33
-0.000000
0
3DFACE
8
default
62
30
10
-0.065004
20
-0.096588
30
0.025884
11
-0.065004
21
-0.086604
31
0.050004
12
-0.140004
22
-0.086604
32
0.050004
13
-0.065004
23
-0.096588
33
0.025884
0
3DFACE
8
default
62
30
10
-0.065004
20
-0.096588
30
0.025884
11
-0.140004
21
-0.086604
31
0.050004
12
-0.140004
22
-0.096588
32
0.025884
13
-0.065004
23
-0.096588
33
0.025884
0
3DFACE
8
default
62
30
10
-0.065004
20
-0.086604
30
0.050004
11
-0.065004
21
-0.070716
31
0.070716
12
-0.140004
22
-0.086604
32
0.050004
13
-0.065004
23
-0.086604
33
0.050004
0
3DFACE
8
default
62
30
10
-0.065004
20
-0.070716
30
0.070716
11
-0.140004
21
-0.070716
31
0.070716
12
-0.140004
22
-0.086604
32
0.050004
13
-0.065004
23
-0.070716
33
0.070716
0
3DFACE
8
default
62
30
10
-0.120000
20
0.607224
30
0.042780
11
-0.120000
21
0.597600
31
0.030252
12
-0.140004
22
0.607224
32
0.042780
13
-0.120000
23
0.607224
33
0.042780
0
3DFACE
8
default
62
30
10
-0.120000
20
0.597600
30
0.030252
11
-0.140004
21
0.597600
31
0.030252
12
-0.140004
22
0.607224
32
0.042780
13
-0.120000
23
0.597600
33
0.030252
0
3DFACE
8
default
62
30
10
-0.140004
20
0.702396
30
0.030252
11
-0.120000
21
0.702396
31
0.030252
12
-0.120000
22
0.692784
32
0.042780
13
-0.140004
23
0.702396
33
0.030252
0
3DFACE
8
default
62
30
10
-0.140004
20
0.702396
30
0.030252
11
-0.120000
21
0.692784
31
0.042780
12
-0.140004
22
0.692784
32
0.042780
13
-0.140004
23
0.702396
33
0.030252
0
3DFACE
8
default
62
30
10
-0.120000
20
0.708444
30
0.015660
11
-0.120000
21
0.702396
31
0.030252
12
-0.140004
22
0.708444
32
0.015660
13
-0.120000
23
0.708444
33
0.015660
0
3DFACE
8
default
62
30
10
-0.120000
20
0.702396
30
0.030252
11
-0.140004
21
0.702396
31
0.030252
12
-0.140004
22
0.708444
32
0.015660
13
-0.120000
23
0.702396
33
0.030252
0
3DFACE
8
default
62
30
10
-0.120000
20
0.077940
30
0.045000
11
-0.120000
21
0.086928
31
0.023292
12
-0.120000
22
0.090000
32
0.000000
13
-0.120000
23
0.077940
33
0.045000
0
3DFACE
8
default
62
30
10
-0.120000
20
0.077940
30
0.045000
11
-0.120000
21
0.090000
31
0.000000
12
-0.120000
22
0.086928
32
-0.023292
13
-0.120000
23
0.077940
33
0.045000
0
3DFACE
8
default
62
30
10
-0.120000
20
0.077940
30
0.045000
11
-0.120000
21
0.086928
31
-0.023292
12
-0.120000
22
0.077940
32
-0.045000
13
-0.120000
23
0.077940
33
0.045000
0
3DFACE
8
default
62
30
10
-0.120000
20
0.077940
30
0.045000
11
-0.120000
21
0.077940
31
-0.045000
12
-0.120000
22
0.063636
32
-0.063636
13
-0.120000
23
0.077940
33
0.045000
0
3DFACE
8
default
62
30
10
-0.120000
20
0.077940
30
0.045000
11
-0.120000
21
0.063636
31
-0.063636
12
-0.120000
22
0.045000
32
-0.077940
13
-0.120000
23
0.077940
33
0.045000
0
3DFACE
8
default
62
30
10
-0.120000
20
0.077940
30
0.045000
11
-0.120000
21
0.045000
31
-0.077940
12
-0.120000
22
0.023292
32
-0.086928
13
-0.120000
23
0.077940
33
0.045000
0
3DFACE
8
default
62
30
10
-0.120000
20
0.077940
30
0.045000
11
-0.120000
21
0.023292
31
-0.086928
12
-0.120000
22
0.000000
32
-0.090000
13
-0.120000
23
0.077940
33
0.045000
0
3DFACE
8
default
62
30
10
-0.120000
20
0.077940
30
0.045000
11
-0.120000
21
0.000000
31
-0.090000
12
-0.120000
22
-0.023292
32
-0.086928
13
-0.120000
23
0.077940
33
0.045000
0
3DFACE
8
default
62
30
10
-0.120000
20
0.077940
30
0.045000
11
-0.120000
21
-0.023292
31
-0.086928
12
-0.120000
22
-0.045000
32
-0.077940
13
-0.120000
23
0.077940
33
0.045000
0
3DFACE
8
default
62
30
10
-0.120000
20
0.077940
30
0.045000
11
-0.120000
21
-0.045000
31
-0.077940
12
-0.120000
22
-0.063636
32
-0.063636
13
-0.120000
23
0.077940
33
0.045000
0
3DFACE
8
default
62
30
10
-0.120000
20
0.077940
30
0.045000
11
-0.120000
21
-0.063636
31
-0.063636
12
-0.120000
22
-0.077940
32
-0.045000
13
-0.120000
23
0.077940
33
0.045000
0
3DFACE
8
default
62
30
10
-0.120000
20
0.077940
30
0.045000
11
-0.120000
21
-0.077940
31
-0.045000
12
-0.120000
22
-0.086928
32
-0.023292
13
-0.120000
23
0.077940
33
0.045000
0
3DFACE
8
default
62
30
10
-0.120000
20
0.077940
30
0.045000
11
-0.120000
21
-0.086928
31
-0.023292
12
-0.120000
22
-0.090000
32
-0.000000
13
-0.120000
23
0.077940
33
0.045000
0
3DFACE
8
default
62
30
10
-0.120000
20
0.077940
30
0.045000
11
-0.120000
21
-0.090000
31
-0.000000
12
-0.120000
22
-0.086928
32
0.023292
13
-0.120000
23
0.077940
33
0.045000
0
3DFACE
8
default
62
30
10
-0.120000
20
0.077940
30
0.045000
11
-0.120000
21
-0.086928
31
0.023292
12
-0.120000
22
-0.077940
32
0.045000
13
-0.120000
23
0.077940
33
0.045000
0
3DFACE
8
default
62
30
10
-0.120000
20
0.077940
30
0.045000
11
-0.120000
21
-0.077940
31
0.045000
12
-0.120000
22
-0.063636
32
0.063636
13
-0.120000
23
0.077940
33
0.045000
0
3DFACE
8
default
62
30
10
-0.120000
20
0.077940
30
0.045000
11
-0.120000
21
-0.063636
31
0.063636
12
-0.120000
22
-0.045000
32
0.077940
13
-0.120000
23
0.077940
33
0.045000
0
3DFACE
8
default
62
30
10
-0.120000
20
0.077940
30
0.045000
11
-0.120000
21
-0.045000
31
0.077940
12
-0.120000
22
-0.023292
32
0.086928
13
-0.120000
23
0.077940
33
0.045000
0
3DFACE
8
default
62
30
10
-0.120000
20
0.077940
30
0.045000
11
-0.120000
21
-0.023292
31
0.086928
12
-0.120000
22
-0.000000
32
0.090000
13
-0.120000
23
0.077940
33
0.045000
0
3DFACE
8
default
62
30
10
-0.120000
20
0.077940
30
0.045000
11
-0.120000
21
-0.000000
31
0.090000
12
-0.120000
22
0.023292
32
0.086928
13
-0.120000
23
0.077940
33
0.045000
0
3DFACE
8
default
62
30
10
-0.120000
20
0.077940
30
0.045000
11
-0.120000
21
0.023292
31
0.086928
12
-0.120000
22
0.045000
32
0.077940
13
-0.120000
23
0.077940
33
0.045000
0
3DFACE
8
default
62
30
10
-0.120000
20
0.077940
30
0.045000
11
-0.120000
21
0.045000
31
0.077940
12
-0.120000
22
0.063636
32
0.063636
13
-0.120000
23
0.077940
33
0.045000
0
3DFACE
8
default
62
30
10
-0.120000
20
0.597600
30
-0.030252
11
-0.120000
21
0.591564
31
-0.015660
12
-0.120000
22
0.589500
32
0.000000
13
-0.120000
23
0.597600
33
-0.030252
0
3DFACE
8
default
62
30
10
-0.120000
20
0.597600
30
-0.030252
11
-0.120000
21
0.589500
31
0.000000
12
-0.120000
22
0.591564
32
0.015660
13
-0.120000
23
0.597600
33
-0.030252
0
3DFACE
8
default
62
30
10
-0.120000
20
0.597600
30
-0.030252
11
-0.120000
21
0.591564
31
0.015660
12
-0.120000
22
0.597600
32
0.030252
13
-0.120000
23
0.597600
33
-0.030252
0
3DFACE
8
default
62
30
10
-0.120000
20
0.597600
30
-0.030252
11
-0.120000
21
0.597600
31
0.030252
12
-0.120000
22
0.607224
32
0.042780
13
-0.120000
23
0.597600
33
-0.030252
0
3DFACE
8
default
62
30
10
-0.120000
20
0.597600
30
-0.030252
11
-0.120000
21
0.607224
31
0.042780
12
-0.120000
22
0.619752
32
0.052392
13
-0.120000
23
0.597600
33
-0.030252
0
3DFACE
8
default
62
30
10
-0.120000
20
0.597600
30
-0.030252
11
-0.120000
21
0.619752
31
0.052392
12
-0.120000
22
0.634344
32
0.058440
13
-0.120000
23
0.597600
33
-0.030252
0
3DFACE
8
default
62
30
10
-0.120000
20
0.597600
30
-0.030252
11
-0.120000
21
0.634344
31
0.058440
12
-0.120000
22
0.650004
32
0.060504
13
-0.120000
23
0.597600
33
-0.030252
0
3DFACE
8
default
62
30
10
-0.120000
20
0.597600
30
-0.030252
11
-0.120000
21
0.650004
31
0.060504
12
-0.120000
22
0.665664
32
0.058440
13
-0.120000
23
0.597600
33
-0.030252
0
3DFACE
8
default
62
30
10
-0.120000
20
0.597600
30
-0.030252
11
-0.120000
21
0.665664
31
0.058440
12
-0.120000
22
0.680256
32
0.052392
13
-0.120000
23
0.597600
33
-0.030252
0
3DFACE
8
default
62
30
10
-0.120000
20
0.597600
30
-0.030252
11
-0.120000
21
0.680256
31
0.052392
12
-0.120000
22
0.692784
32
0.042780
13
-0.120000
23
0.597600
33
-0.030252
0
3DFACE
8
default
62
30
10
-0.120000
20
0.597600
30
-0.030252
11
-0.120000
21
0.692784
31
0.042780
12
-0.120000
22
0.702396
32
0.030252
13
-0.120000
23
0.597600
33
-0.030252
0
3DFACE
8
default
62
30
10
-0.120000
20
0.597600
30
-0.030252
11
-0.120000
21
0.702396
31
0.030252
12
-0.120000
22
0.708444
32
0.015660
13
-0.120000
23
0.597600
33
-0.030252
0
3DFACE
8
default
62
30
10
-0.120000
20
0.597600
30
-0.030252
11
-0.120000
21
0.708444
31
0.015660
12
-0.120000
22
0.710496
32
0.000000
13
-0.120000
23
0.597600
33
-0.030252
0
3DFACE
8
default
62
30
10
-0.120000
20
0.597600
30
-0.030252
11
-0.120000
21
0.710496
31
0.000000
12
-0.120000
22
0.708444
32
-0.015660
13
-0.120000
23
0.597600
33
-0.030252
0
3DFACE
8
default
62
30
10
-0.120000
20
0.597600
30
-0.030252
11
-0.120000
21
0.708444
31
-0.015660
12
-0.120000
22
0.702396
32
-0.030252
13
-0.120000
23
0.597600
33
-0.030252
0
3DFACE
8
default
62
30
10
-0.120000
20
0.597600
30
-0.030252
11
-0.120000
21
0.702396
31
-0.030252
12
-0.120000
22
0.692784
32
-0.042780
13
-0.120000
23
0.597600
33
-0.030252
0
3DFACE
8
default
62
30
10
-0.120000
20
0.597600
30
-0.030252
11
-0.120000
21
0.692784
31
-0.042780
12
-0.120000
22
0.680256
32
-0.052392
13
-0.120000
23
0.597600
33
-0.030252
0
3DFACE
8
default
62
30
10
-0.120000
20
0.597600
30
-0.030252
11
-0.120000
21
0.680256
31
-0.052392
12
-0.120000
22
0.665664
32
-0.058440
13
-0.120000
23
0.597600
33
-0.030252
0
3DFACE
8
default
62
30
10
-0.120000
20
0.597600
30
-0.030252
11
-0.120000
21
0.665664
31
-0.058440
12
-0.120000
22
0.650004
32
-0.060504
13
-0.120000
23
0.597600
33
-0.030252
0
3DFACE
8
default
62
30
10
-0.120000
20
0.597600
30
-0.030252
11
-0.120000
21
0.650004
31
-0.060504
12
-0.120000
22
0.634344
32
-0.058440
13
-0.120000
23
0.597600
33
-0.030252
0
3DFACE
8
default
62
30
10
-0.120000
20
0.597600
30
-0.030252
11
-0.120000
21
0.634344
31
-0.058440
12
-0.120000
22
0.619752
32
-0.052392
13
-0.120000
23
0.597600
33
-0.030252
0
3DFACE
8
default
62
30
10
-0.120000
20
0.597600
30
-0.030252
11
-0.120000
21
0.619752
31
-0.052392
12
-0.120000
22
0.607224
32
-0.042780
13
-0.120000
23
0.597600
33
-0.030252
0
3DFACE
8
default
62
30
10
-0.225000
20
0.095820
30
0.073848
11
-0.225000
21
0.090000
31
0.074196
12
-0.210000
22
0.090000
32
0.074196
13
-0.225000
23
0.095820
33
0.073848
0
3DFACE
8
default
62
30
10
-0.202332
20
0.073080
30
-0.077208
11
-0.225000
21
0.090000
31
-0.074196
12
-0.225000
22
0.095820
32
-0.073848
13
-0.202332
23
0.073080
33
-0.077208
0
3DFACE
8
default
62
30
10
-0.140004
20
0.074832
30
0.050004
11
-0.198060
21
0.063636
31
0.063636
12
-0.203124
22
0.074832
32
0.050004
13
-0.140004
23
0.074832
33
0.050004
0
3DFACE
8
default
62
30
10
-0.203124
20
0.074832
30
-0.050004
11
-0.198060
21
0.063636
31
-0.063636
12
-0.120000
22
0.063636
32
-0.063636
13
-0.203124
23
0.074832
33
-0.050004
0
3DFACE
8
default
62
30
10
-0.140004
20
0.077940
30
-0.045000
11
-0.203124
21
0.074832
31
-0.050004
12
-0.120000
22
0.063636
32
-0.063636
13
-0.140004
23
0.077940
33
-0.045000
0
3DFACE
8
default
62
30
10
-0.140004
20
0.607224
30
0.042780
11
-0.155484
21
0.615936
31
0.050004
12
-0.120000
22
0.619752
32
0.052392
13
-0.140004
23
0.607224
33
0.042780
0
3DFACE
8
default
62
30
10
-0.154092
20
0.619752
30
-0.052392
11
-0.155484
21
0.615936
31
-0.050004
12
-0.140004
22
0.615936
32
-0.050004
13
-0.154092
23
0.619752
33
-0.052392
0
3DFACE
8
default
62
30
10
-0.155484
20
0.615936
30
0.050004
11
-0.154092
21
0.619752
31
0.052392
12
-0.120000
22
0.619752
32
0.052392
13
-0.155484
23
0.615936
33
0.050004
0
3DFACE
8
default
62
30
10
-0.154092
20
0.619752
30
-0.052392
11
-0.120000
21
0.607224
31
-0.042780
12
-0.120000
22
0.619752
32
-0.052392
13
-0.154092
23
0.619752
33
-0.052392
0
3DFACE
8
default
62
30
10
-0.146556
20
-0.050004
30
-0.086604
11
-0.065004
21
-0.050004
31
-0.086604
12
-0.140004
22
-0.064476
32
-0.076440
13
-0.146556
23
-0.050004
33
-0.086604
0
3DFACE
8
default
62
30
10
-0.146556
20
-0.050004
30
0.086604
11
-0.140004
21
-0.064476
31
0.076440
12
-0.065004
22
-0.050004
32
0.086604
13
-0.146556
23
-0.050004
33
0.086604
0
3DFACE
8
default
62
30
10
-0.143004
20
0.684504
30
0.059760
11
-0.065004
21
0.684504
31
0.059760
12
-0.065004
22
0.698796
32
0.048792
13
-0.143004
23
0.684504
33
0.059760
0
3DFACE
8
default
62
30
10
-0.140004
20
0.697548
30
0.050004
11
-0.143004
21
0.684504
31
0.059760
12
-0.065004
22
0.698796
32
0.048792
13
-0.140004
23
0.697548
33
0.050004
0
3DFACE
8
default
62
30
10
-0.143004
20
0.697548
30
0.050004
11
-0.143004
21
0.684504
31
0.059760
12
-0.140004
22
0.697548
32
0.050004
13
-0.143004
23
0.697548
33
0.050004
0
3DFACE
8
default
62
30
10
-0.143004
20
0.684060
30
-0.050004
11
-0.143004
21
0.680256
31
-0.052392
12
-0.120000
22
0.680256
32
-0.052392
13
-0.143004
23
0.684060
33
-0.050004
0
3DFACE
8
default
62
30
10
-0.140004
20
0.692784
30
-0.042780
11
-0.143004
21
0.684060
31
-0.050004
12
-0.120000
22
0.680256
32
-0.052392
13
-0.140004
23
0.692784
33
-0.042780
0
3DFACE
8
default
62
30
10
-0.143004
20
0.684060
30
0.050004
11
-0.140004
21
0.684060
31
0.050004
12
-0.143004
22
0.680256
32
0.052392
13
-0.143004
23
0.684060
33
0.050004
0
3DFACE
8
default
62
30
10
-0.140376
20
-0.063636
30
-0.063636
11
-0.140004
21
-0.064476
31
-0.062784
12
-0.120000
22
-0.063636
32
-0.063636
13
-0.140376
23
-0.063636
33
-0.063636
0
3DFACE
8
default
62
30
10
-0.140004
20
-0.064476
30
0.062784
11
-0.140376
21
-0.063636
31
0.063636
12
-0.120000
22
-0.063636
32
0.063636
13
-0.140004
23
-0.064476
33
0.062784
0
3DFACE
8
default
62
30
10
-0.140004
20
0.077940
30
-0.045000
11
-0.120000
21
0.063636
31
-0.063636
12
-0.120000
22
0.077940
32
-0.045000
13
-0.140004
23
0.077940
33
-0.045000
0
3DFACE
8
default
62
30
10
-0.140004
20
0.698796
30
0.048792
11
-0.140004
21
0.697548
31
0.050004
12
-0.065004
22
0.698796
32
0.048792
13
-0.140004
23
0.698796
33
0.048792
0
3DFACE
8
default
62
30
10
-0.140004
20
0.692784
30
-0.042780
11
-0.120000
21
0.680256
31
-0.052392
12
-0.120000
22
0.692784
32
-0.042780
13
-0.140004
23
0.692784
33
-0.042780
0
3DFACE
8
default
62
30
10
-0.140004
20
-0.077940
30
0.045000
11
-0.120000
21
-0.063636
31
0.063636
12
-0.120000
22
-0.077940
32
0.045000
13
-0.140004
23
-0.077940
33
0.045000
0
3DFACE
8
default
62
30
10
-0.140004
20
-0.077940
30
-0.045000
11
-0.120000
21
-0.077940
31
-0.045000
12
-0.140004
22
-0.064476
32
-0.062784
13
-0.140004
23
-0.077940
33
-0.045000
0
3DFACE
8
default
62
30
10
-0.140004
20
-0.064476
30
0.062784
11
-0.120000
21
-0.063636
31
0.063636
12
-0.140004
22
-0.077940
32
0.045000
13
-0.140004
23
-0.064476
33
0.062784
0
3DFACE
8
default
62
30
10
-0.140004
20
-0.064476
30
-0.062784
11
-0.120000
21
-0.077940
31
-0.045000
12
-0.120000
22
-0.063636
32
-0.063636
13
-0.140004
23
-0.064476
33
-0.062784
0
3DFACE
8
default
62
30
10
-0.140004
20
0.698796
30
-0.048792
11
-0.065004
21
0.698796
31
-0.048792
12
-0.065004
22
0.684504
32
-0.059760
13
-0.140004
23
0.698796
33
-0.048792
0
3DFACE
8
default
62
30
10
-0.140004
20
0.615936
30
-0.050004
11
-0.140004
21
0.607224
31
-0.042780
12
-0.120000
22
0.607224
32
-0.042780
13
-0.140004
23
0.615936
33
-0.050004
0
3DFACE
8
default
62
30
10
-0.140004
20
-0.064476
30
-0.076440
11
-0.065004
21
-0.050004
31
-0.086604
12
-0.065004
22
-0.070716
32
-0.070716
13
-0.140004
23
-0.064476
33
-0.076440
0
3DFACE
8
default
62
30
10
-0.140004
20
-0.070716
30
-0.070716
11
-0.140004
21
-0.064476
31
-0.076440
12
-0.065004
22
-0.070716
32
-0.070716
13
-0.140004
23
-0.070716
33
-0.070716
0
3DFACE
8
default
62
30
10
-0.140004
20
0.697548
30
-0.050004
11
-0.140004
21
0.698796
31
-0.048792
12
-0.065004
22
0.684504
32
-0.059760
13
-0.140004
23
0.697548
33
-0.050004
0
3DFACE
8
default
62
30
10
-0.140004
20
-0.070716
30
0.070716
11
-0.065004
21
-0.070716
31
0.070716
12
-0.065004
22
-0.050004
32
0.086604
13
-0.140004
23
-0.070716
33
0.070716
0
3DFACE
8
default
62
30
10
-0.140004
20
-0.064476
30
0.076440
11
-0.140004
21
-0.070716
31
0.070716
12
-0.065004
22
-0.050004
32
0.086604
13
-0.140004
23
-0.064476
33
0.076440
0
3DFACE
8
default
62
30
10
-0.140004
20
0.607224
30
0.042780
11
-0.120000
21
0.619752
31
0.052392
12
-0.120000
22
0.607224
32
0.042780
13
-0.140004
23
0.607224
33
0.042780
0
3DFACE
8
default
62
30
10
-0.202332
20
0.073080
30
0.077208
11
-0.225000
21
0.095820
31
0.073848
12
-0.210000
22
0.090000
32
0.074196
13
-0.202332
23
0.073080
33
0.077208
0
3DFACE
8
default
62
30
10
-0.225000
20
0.090000
30
-0.074196
11
-0.202332
21
0.073080
31
-0.077208
12
-0.210000
22
0.090000
32
-0.074196
13
-0.225000
23
0.090000
33
-0.074196
0
3DFACE
8
default
62
30
10
-0.154092
20
0.619752
30
-0.052392
11
-0.140004
21
0.615936
31
-0.050004
12
-0.120000
22
0.607224
32
-0.042780
13
-0.154092
23
0.619752
33
-0.052392
0
3DFACE
8
default
62
30
10
-0.155484
20
0.615936
30
0.050004
11
-0.140004
21
0.607224
31
0.042780
12
-0.140004
22
0.615936
32
0.050004
13
-0.155484
23
0.615936
33
0.050004
0
3DFACE
8
default
62
30
10
-0.140004
20
0.074832
30
-0.050004
11
-0.203124
21
0.074832
31
-0.050004
12
-0.140004
22
0.077940
32
-0.045000
13
-0.140004
23
0.074832
33
-0.050004
0
3DFACE
8
default
62
30
10
-0.143004
20
0.684060
30
-0.050004
11
-0.140004
21
0.692784
31
-0.042780
12
-0.140004
22
0.684060
32
-0.050004
13
-0.143004
23
0.684060
33
-0.050004
0
3DFACE
8
default
62
30
10
-0.140004
20
0.074832
30
0.050004
11
-0.140004
21
0.077940
31
0.045000
12
-0.198060
22
0.063636
32
0.063636
13
-0.140004
23
0.074832
33
0.050004
0
3DFACE
8
default
62
30
10
-0.140004
20
0.684060
30
0.050004
11
-0.140004
21
0.692784
31
0.042780
12
-0.143004
22
0.680256
32
0.052392
13
-0.140004
23
0.684060
33
0.050004
0
3DFACE
8
default
62
30
10
-0.225000
20
0.095820
30
0.073848
11
-0.225000
21
0.459000
31
0.062412
12
-0.225000
22
0.459000
32
-0.062412
13
-0.225000
23
0.095820
33
0.073848
0
3DFACE
8
default
62
30
10
-0.143004
20
0.680256
30
-0.052392
11
-0.143004
21
0.684060
31
-0.050004
12
-0.143004
22
0.697548
32
-0.050004
13
-0.143004
23
0.680256
33
-0.052392
0
3DFACE
8
default
62
30
10
-0.143004
20
0.665664
30
0.058440
11
-0.143004
21
0.650004
31
0.060504
12
-0.143004
22
0.650004
32
0.069000
13
-0.143004
23
0.665664
33
0.058440
0
3DFACE
8
default
62
30
10
-0.140004
20
0.607224
30
-0.042780
11
-0.140004
21
0.615936
31
-0.050004
12
-0.140004
22
0.074832
32
-0.050004
13
-0.140004
23
0.607224
33
-0.042780
0
3DFACE
8
default
62
30
10
-0.140004
20
-0.077940
30
-0.045000
11
-0.140004
21
-0.064476
31
-0.062784
12
-0.140004
22
-0.064476
32
-0.076440
13
-0.140004
23
-0.077940
33
-0.045000
0
3DFACE
8
default
62
30
10
-0.140004
20
0.692784
30
0.042780
11
-0.140004
21
0.684060
31
0.050004
12
-0.140004
22
0.697548
32
0.050004
13
-0.140004
23
0.692784
33
0.042780
0
3DFACE
8
default
62
30
10
-0.065004
20
0.616728
30
-0.061716
11
-0.065004
21
0.632136
31
-0.066648
12
-0.065004
22
0.650004
32
-0.069000
13
-0.065004
23
0.616728
33
-0.061716
0
3DFACE
8
default
62
30
10
-0.225000
20
0.095820
30
-0.073848
11
-0.225000
21
0.090000
31
-0.074196
12
-0.225000
22
0.090000
32
0.074196
13
-0.225000
23
0.095820
33
-0.073848
0
3DFACE
8
default
62
30
10
-0.225000
20
0.090000
30
0.074196
11
-0.225000
21
0.095820
31
0.073848
12
-0.225000
22
0.459000
32
-0.062412
13
-0.225000
23
0.090000
33
0.074196
0
3DFACE
8
default
62
30
10
-0.225000
20
0.090000
30
0.074196
11
-0.225000
21
0.459000
31
-0.062412
12
-0.225000
22
0.095820
32
-0.073848
13
-0.225000
23
0.090000
33
0.074196
0
3DFACE
8
default
62
30
10
-0.143004
20
0.665664
30
-0.058440
11
-0.143004
21
0.680256
31
-0.052392
12
-0.143004
22
0.697548
32
-0.050004
13
-0.143004
23
0.665664
33
-0.058440
0
3DFACE
8
default
62
30
10
-0.143004
20
0.680256
30
0.052392
11
-0.143004
21
0.665664
31
0.058440
12
-0.143004
22
0.650004
32
0.069000
13
-0.143004
23
0.680256
33
0.052392
0
3DFACE
8
default
62
30
10
-0.140004
20
0.077940
30
0.045000
11
-0.140004
21
0.074832
31
0.050004
12
-0.140004
22
0.615936
32
0.050004
13
-0.140004
23
0.077940
33
0.045000
0
3DFACE
8
default
62
30
10
-0.140004
20
-0.077940
30
-0.045000
11
-0.140004
21
-0.064476
31
-0.076440
12
-0.140004
22
-0.070716
32
-0.070716
13
-0.140004
23
-0.077940
33
-0.045000
0
3DFACE
8
default
62
30
10
-0.140004
20
0.702396
30
0.030252
11
-0.140004
21
0.692784
31
0.042780
12
-0.140004
22
0.697548
32
0.050004
13
-0.140004
23
0.702396
33
0.030252
0
3DFACE
8
default
62
30
10
-0.065004
20
0.073080
30
0.077208
11
-0.065004
21
0.025884
31
0.096588
12
-0.065004
22
-0.000000
32
0.099996
13
-0.065004
23
0.073080
33
0.077208
0
3DFACE
8
default
62
30
10
-0.143004
20
0.684504
30
-0.059760
11
-0.143004
21
0.667860
31
-0.066648
12
-0.143004
22
0.650004
32
-0.069000
13
-0.143004
23
0.684504
33
-0.059760
0
3DFACE
8
default
62
30
10
-0.143004
20
0.684504
30
-0.059760
11
-0.143004
21
0.650004
31
-0.069000
12
-0.143004
22
0.650004
32
-0.060504
13
-0.143004
23
0.684504
33
-0.059760
0
3DFACE
8
default
62
30
10
-0.143004
20
0.684504
30
-0.059760
11
-0.143004
21
0.650004
31
-0.060504
12
-0.143004
22
0.665664
32
-0.058440
13
-0.143004
23
0.684504
33
-0.059760
0
3DFACE
8
default
62
30
10
-0.143004
20
0.665664
30
-0.058440
11
-0.143004
21
0.697548
31
-0.050004
12
-0.143004
22
0.684504
32
-0.059760
13
-0.143004
23
0.665664
33
-0.058440
0
3DFACE
8
default
62
30
10
-0.143004
20
0.667860
30
0.066648
11
-0.143004
21
0.684504
31
0.059760
12
-0.143004
22
0.697548
32
0.050004
13
-0.143004
23
0.667860
33
0.066648
0
3DFACE
8
default
62
30
10
-0.143004
20
0.667860
30
0.066648
11
-0.143004
21
0.697548
31
0.050004
12
-0.143004
22
0.684060
32
0.050004
13
-0.143004
23
0.667860
33
0.066648
0
3DFACE
8
default
62
30
10
-0.143004
20
0.667860
30
0.066648
11
-0.143004
21
0.684060
31
0.050004
12
-0.143004
22
0.680256
32
0.052392
13
-0.143004
23
0.667860
33
0.066648
0
3DFACE
8
default
62
30
10
-0.143004
20
0.680256
30
0.052392
11
-0.143004
21
0.650004
31
0.069000
12
-0.143004
22
0.667860
32
0.066648
13
-0.143004
23
0.680256
33
0.052392
0
3DFACE
8
default
62
30
10
-0.140004
20
0.597600
30
-0.030252
11
-0.140004
21
0.607224
31
-0.042780
12
-0.140004
22
0.074832
32
-0.050004
13
-0.140004
23
0.597600
33
-0.030252
0
3DFACE
8
default
62
30
10
-0.140004
20
-0.086928
30
-0.023292
11
-0.140004
21
-0.077940
31
-0.045000
12
-0.140004
22
-0.070716
32
-0.070716
13
-0.140004
23
-0.086928
33
-0.023292
0
3DFACE
8
default
62
30
10
-0.140004
20
0.708444
30
0.015660
11
-0.140004
21
0.702396
31
0.030252
12
-0.140004
22
0.697548
32
0.050004
13
-0.140004
23
0.708444
33
0.015660
0
3DFACE
8
default
62
30
10
-0.065004
20
0.616728
30
-0.061716
11
-0.065004
21
0.650004
31
-0.069000
12
-0.065004
22
0.667860
32
-0.066648
13
-0.065004
23
0.616728
33
-0.061716
0
3DFACE
8
default
62
30
10
-0.140004
20
0.086928
30
0.023292
11
-0.140004
21
0.077940
31
0.045000
12
-0.140004
22
0.615936
32
0.050004
13
-0.140004
23
0.086928
33
0.023292
0
3DFACE
8
default
62
30
10
-0.140004
20
-0.086928
30
-0.023292
11
-0.140004
21
-0.070716
31
-0.070716
12
-0.140004
22
-0.086604
32
-0.050004
13
-0.140004
23
-0.086928
33
-0.023292
0
3DFACE
8
default
62
30
10
-0.140004
20
0.708444
30
0.015660
11
-0.140004
21
0.697548
31
0.050004
12
-0.140004
22
0.698796
32
0.048792
13
-0.140004
23
0.708444
33
0.015660
0
3DFACE
8
default
62
30
10
-0.065004
20
0.073080
30
0.077208
11
-0.065004
21
-0.000000
31
0.099996
12
-0.065004
22
-0.025884
32
0.096588
13
-0.065004
23
0.073080
33
0.077208
0
3DFACE
8
default
62
30
10
-0.140004
20
0.591564
30
-0.015660
11
-0.140004
21
0.597600
31
-0.030252
12
-0.140004
22
0.074832
32
-0.050004
13
-0.140004
23
0.591564
33
-0.015660
0
3DFACE
8
default
62
30
10
-0.140004
20
-0.090000
30
-0.000000
11
-0.140004
21
-0.086928
31
-0.023292
12
-0.140004
22
-0.086604
32
-0.050004
13
-0.140004
23
-0.090000
33
-0.000000
0
3DFACE
8
default
62
30
10
-0.140004
20
0.708444
30
0.015660
11
-0.140004
21
0.698796
31
0.048792
12
-0.140004
22
0.709752
32
0.034500
13
-0.140004
23
0.708444
33
0.015660
0
3DFACE
8
default
62
30
10
-0.065004
20
0.590844
30
-0.058308
11
-0.065004
21
0.616728
31
-0.061716
12
-0.065004
22
0.667860
32
-0.066648
13
-0.065004
23
0.590844
33
-0.058308
0
3DFACE
8
default
62
30
10
-0.140004
20
0.090000
30
0.000000
11
-0.140004
21
0.086928
31
0.023292
12
-0.140004
22
0.615936
32
0.050004
13
-0.140004
23
0.090000
33
0.000000
0
3DFACE
8
default
62
30
10
-0.140004
20
-0.090000
30
-0.000000
11
-0.140004
21
-0.086604
31
-0.050004
12
-0.140004
22
-0.096588
32
-0.025884
13
-0.140004
23
-0.090000
33
-0.000000
0
3DFACE
8
default
62
30
10
-0.140004
20
0.710496
30
0.000000
11
-0.140004
21
0.708444
31
0.015660
12
-0.140004
22
0.709752
32
0.034500
13
-0.140004
23
0.710496
33
0.000000
0
3DFACE
8
default
62
30
10
-0.065004
20
0.073080
30
0.077208
11
-0.065004
21
-0.025884
31
0.096588
12
-0.065004
22
-0.050004
32
0.086604
13
-0.065004
23
0.073080
33
0.077208
0
3DFACE
8
default
62
30
10
-0.140004
20
0.589500
30
0.000000
11
-0.140004
21
0.591564
31
-0.015660
12
-0.140004
22
0.074832
32
-0.050004
13
-0.140004
23
0.589500
33
0.000000
0
3DFACE
8
default
62
30
10
-0.140004
20
-0.086928
30
0.023292
11
-0.140004
21
-0.090000
31
-0.000000
12
-0.140004
22
-0.096588
32
-0.025884
13
-0.140004
23
-0.086928
33
0.023292
0
3DFACE
8
default
62
30
10
-0.140004
20
0.710496
30
0.000000
11
-0.140004
21
0.709752
31
0.034500
12
-0.140004
22
0.716652
32
0.017856
13
-0.140004
23
0.710496
33
0.000000
0
3DFACE
8
default
62
30
10
-0.065004
20
0.590844
30
-0.058308
11
-0.065004
21
0.667860
31
-0.066648
12
-0.065004
22
0.684504
32
-0.059760
13
-0.065004
23
0.590844
33
-0.058308
0
3DFACE
8
default
62
30
10
-0.140004
20
0.086928
30
-0.023292
11
-0.140004
21
0.090000
31
0.000000
12
-0.140004
22
0.615936
32
0.050004
13
-0.140004
23
0.086928
33
-0.023292
0
3DFACE
8
default
62
30
10
-0.140004
20
-0.086928
30
0.023292
11
-0.140004
21
-0.096588
31
-0.025884
12
-0.140004
22
-0.099996
32
-0.000000
13
-0.140004
23
-0.086928
33
0.023292
0
3DFACE
8
default
62
30
10
-0.140004
20
0.708444
30
-0.015660
11
-0.140004
21
0.710496
31
0.000000
12
-0.140004
22
0.716652
32
0.017856
13
-0.140004
23
0.708444
33
-0.015660
0
3DFACE
8
default
62
30
10
-0.065004
20
0.095820
30
0.073848
11
-0.065004
21
0.073080
31
0.077208
12
-0.065004
22
-0.050004
32
0.086604
13
-0.065004
23
0.095820
33
0.073848
0
3DFACE
8
default
62
30
10
-0.140004
20
0.591564
30
0.015660
11
-0.140004
21
0.589500
31
0.000000
12
-0.140004
22
0.074832
32
-0.050004
13
-0.140004
23
0.591564
33
0.015660
0
3DFACE
8
default
62
30
10
-0.140004
20
-0.077940
30
0.045000
11
-0.140004
21
-0.086928
31
0.023292
12
-0.140004
22
-0.099996
32
-0.000000
13
-0.140004
23
-0.077940
33
0.045000
0
3DFACE
8
default
62
30
10
-0.140004
20
0.708444
30
-0.015660
11
-0.140004
21
0.716652
31
0.017856
12
-0.140004
22
0.719004
32
0.000000
13
-0.140004
23
0.708444
33
-0.015660
0
3DFACE
8
default
62
30
10
-0.065004
20
0.590844
30
-0.058308
11
-0.065004
21
0.684504
31
-0.059760
12
-0.065004
22
0.698796
32
-0.048792
13
-0.065004
23
0.590844
33
-0.058308
0
3DFACE
8
default
62
30
10
-0.140004
20
0.077940
30
-0.045000
11
-0.140004
21
0.086928
31
-0.023292
12
-0.140004
22
0.615936
32
0.050004
13
-0.140004
23
0.077940
33
-0.045000
0
3DFACE
8
default
62
30
10
-0.140004
20
-0.096588
30
0.025884
11
-0.140004
21
-0.086604
31
0.050004
12
-0.140004
22
-0.070716
32
0.070716
13
-0.140004
23
-0.096588
33
0.025884
0
3DFACE
8
default
62
30
10
-0.140004
20
-0.096588
30
0.025884
11
-0.140004
21
-0.070716
31
0.070716
12
-0.140004
22
-0.064476
32
0.076440
13
-0.140004
23
-0.096588
33
0.025884
0
3DFACE
8
default
62
30
10
-0.140004
20
-0.096588
30
0.025884
11
-0.140004
21
-0.064476
31
0.076440
12
-0.140004
22
-0.064476
32
0.062784
13
-0.140004
23
-0.096588
33
0.025884
0
3DFACE
8
default
62
30
10
-0.140004
20
-0.096588
30
0.025884
11
-0.140004
21
-0.064476
31
0.062784
12
-0.140004
22
-0.077940
32
0.045000
13
-0.140004
23
-0.096588
33
0.025884
0
3DFACE
8
default
62
30
10
-0.140004
20
-0.077940
30
0.045000
11
-0.140004
21
-0.099996
31
-0.000000
12
-0.140004
22
-0.096588
32
0.025884
13
-0.140004
23
-0.077940
33
0.045000
0
3DFACE
8
default
62
30
10
-0.140004
20
0.702396
30
-0.030252
11
-0.140004
21
0.708444
31
-0.015660
12
-0.140004
22
0.719004
32
0.000000
13
-0.140004
23
0.702396
33
-0.030252
0
3DFACE
8
default
62
30
10
-0.065004
20
0.095820
30
0.073848
11
-0.065004
21
-0.050004
31
0.086604
12
-0.065004
22
-0.070716
32
0.070716
13
-0.065004
23
0.095820
33
0.073848
0
3DFACE
8
default
62
30
10
-0.140004
20
0.597600
30
0.030252
11
-0.140004
21
0.591564
31
0.015660
12
-0.140004
22
0.074832
32
-0.050004
13
-0.140004
23
0.597600
33
0.030252
0
3DFACE
8
default
62
30
10
-0.140004
20
0.702396
30
-0.030252
11
-0.140004
21
0.719004
31
0.000000
12
-0.140004
22
0.716652
32
-0.017856
13
-0.140004
23
0.702396
33
-0.030252
0
3DFACE
8
default
62
30
10
-0.065004
20
0.587700
30
-0.058356
11
-0.065004
21
0.590844
31
-0.058308
12
-0.065004
22
0.698796
32
-0.048792
13
-0.065004
23
0.587700
33
-0.058356
0
3DFACE
8
default
62
30
10
-0.140004
20
0.074832
30
-0.050004
11
-0.140004
21
0.077940
31
-0.045000
12
-0.140004
22
0.615936
32
0.050004
13
-0.140004
23
0.074832
33
-0.050004
0
3DFACE
8
default
62
30
10
-0.140004
20
0.074832
30
-0.050004
11
-0.140004
21
0.615936
31
0.050004
12
-0.140004
22
0.607224
32
0.042780
13
-0.140004
23
0.074832
33
-0.050004
0
3DFACE
8
default
62
30
10
-0.140004
20
0.607224
30
0.042780
11
-0.140004
21
0.597600
31
0.030252
12
-0.140004
22
0.074832
32
-0.050004
13
-0.140004
23
0.607224
33
0.042780
0
3DFACE
8
default
62
30
10
-0.140004
20
0.692784
30
-0.042780
11
-0.140004
21
0.702396
31
-0.030252
12
-0.140004
22
0.716652
32
-0.017856
13
-0.140004
23
0.692784
33
-0.042780
0
3DFACE
8
default
62
30
10
-0.065004
20
0.587700
30
0.058356
11
-0.065004
21
0.095820
31
0.073848
12
-0.065004
22
-0.070716
32
0.070716
13
-0.065004
23
0.587700
33
0.058356
0
3DFACE
8
default
62
30
10
-0.140004
20
0.709752
30
-0.034500
11
-0.140004
21
0.698796
31
-0.048792
12
-0.140004
22
0.697548
32
-0.050004
13
-0.140004
23
0.709752
33
-0.034500
0
3DFACE
8
default
62
30
10
-0.140004
20
0.709752
30
-0.034500
11
-0.140004
21
0.697548
31
-0.050004
12
-0.140004
22
0.684060
32
-0.050004
13
-0.140004
23
0.709752
33
-0.034500
0
3DFACE
8
default
62
30
10
-0.140004
20
0.709752
30
-0.034500
11
-0.140004
21
0.684060
31
-0.050004
12
-0.140004
22
0.692784
32
-0.042780
13
-0.140004
23
0.709752
33
-0.034500
0
3DFACE
8
default
62
30
10
-0.140004
20
0.692784
30
-0.042780
11
-0.140004
21
0.716652
31
-0.017856
12
-0.140004
22
0.709752
32
-0.034500
13
-0.140004
23
0.692784
33
-0.042780
0
3DFACE
8
default
62
30
10
-0.065004
20
0.095820
30
-0.073848
11
-0.065004
21
0.587700
31
-0.058356
12
-0.065004
22
0.698796
32
-0.048792
13
-0.065004
23
0.095820
33
-0.073848
0
3DFACE
8
default
62
30
10
-0.065004
20
0.587700
30
0.058356
11
-0.065004
21
-0.070716
31
0.070716
12
-0.065004
22
-0.086604
32
0.050004
13
-0.065004
23
0.587700
33
0.058356
0
3DFACE
8
default
62
30
10
-0.065004
20
0.095820
30
-0.073848
11
-0.065004
21
0.698796
31
-0.048792
12
-0.065004
22
0.709752
32
-0.034500
13
-0.065004
23
0.095820
33
-0.073848
0
3DFACE
8
default
62
30
10
-0.065004
20
0.590844
30
0.058308
11
-0.065004
21
0.587700
31
0.058356
12
-0.065004
22
-0.086604
32
0.050004
13
-0.065004
23
0.590844
33
0.058308
0
3DFACE
8
default
62
30
10
-0.065004
20
0.095820
30
-0.073848
11
-0.065004
21
0.709752
31
-0.034500
12
-0.065004
22
0.716652
32
-0.017856
13
-0.065004
23
0.095820
33
-0.073848
0
3DFACE
8
default
62
30
10
-0.065004
20
0.590844
30
0.058308
11
-0.065004
21
-0.086604
31
0.050004
12
-0.065004
22
-0.096588
32
0.025884
13
-0.065004
23
0.590844
33
0.058308
0
3DFACE
8
default
62
30
10
-0.065004
20
0.095820
30
-0.073848
11
-0.065004
21
0.716652
31
-0.017856
12
-0.065004
22
0.719004
32
0.000000
13
-0.065004
23
0.095820
33
-0.073848
0
3DFACE
8
default
62
30
10
-0.065004
20
0.590844
30
0.058308
11
-0.065004
21
-0.096588
31
0.025884
12
-0.065004
22
-0.099996
32
-0.000000
13
-0.065004
23
0.590844
33
0.058308
0
3DFACE
8
default
62
30
10
-0.065004
20
0.095820
30
-0.073848
11
-0.065004
21
0.719004
31
0.000000
12
-0.065004
22
0.716652
32
0.017856
13
-0.065004
23
0.095820
33
-0.073848
0
3DFACE
8
default
62
30
10
-0.065004
20
0.590844
30
0.058308
11
-0.065004
21
-0.099996
31
-0.000000
12
-0.065004
22
-0.096588
32
-0.025884
13
-0.065004
23
0.590844
33
0.058308
0
3DFACE
8
default
62
30
10
-0.065004
20
0.073080
30
-0.077208
11
-0.065004
21
0.095820
31
-0.073848
12
-0.065004
22
0.716652
32
0.017856
13
-0.065004
23
0.073080
33
-0.077208
0
3DFACE
8
default
62
30
10
-0.065004
20
0.590844
30
0.058308
11
-0.065004
21
-0.096588
31
-0.025884
12
-0.065004
22
-0.086604
32
-0.050004
13
-0.065004
23
0.590844
33
0.058308
0
3DFACE
8
default
62
30
10
-0.065004
20
0.073080
30
-0.077208
11
-0.065004
21
0.716652
31
0.017856
12
-0.065004
22
0.709752
32
0.034500
13
-0.065004
23
0.073080
33
-0.077208
0
3DFACE
8
default
62
30
10
-0.065004
20
0.616728
30
0.061716
11
-0.065004
21
0.590844
31
0.058308
12
-0.065004
22
-0.086604
32
-0.050004
13
-0.065004
23
0.616728
33
0.061716
0
3DFACE
8
default
62
30
10
-0.065004
20
0.073080
30
-0.077208
11
-0.065004
21
0.709752
31
0.034500
12
-0.065004
22
0.698796
32
0.048792
13
-0.065004
23
0.073080
33
-0.077208
0
3DFACE
8
default
62
30
10
-0.065004
20
0.616728
30
0.061716
11
-0.065004
21
-0.086604
31
-0.050004
12
-0.065004
22
-0.070716
32
-0.070716
13
-0.065004
23
0.616728
33
0.061716
0
3DFACE
8
default
62
30
10
-0.065004
20
0.073080
30
-0.077208
11
-0.065004
21
0.698796
31
0.048792
12
-0.065004
22
0.684504
32
0.059760
13
-0.065004
23
0.073080
33
-0.077208
0
3DFACE
8
default
62
30
10
-0.065004
20
0.616728
30
0.061716
11
-0.065004
21
-0.070716
31
-0.070716
12
-0.065004
22
-0.050004
32
-0.086604
13
-0.065004
23
0.616728
33
0.061716
0
3DFACE
8
default
62
30
10
-0.065004
20
0.073080
30
-0.077208
11
-0.065004
21
0.684504
31
0.059760
12
-0.065004
22
0.667860
32
0.066648
13
-0.065004
23
0.073080
33
-0.077208
0
3DFACE
8
default
62
30
10
-0.065004
20
0.616728
30
0.061716
11
-0.065004
21
-0.050004
31
-0.086604
12
-0.065004
22
-0.025884
32
-0.096588
13
-0.065004
23
0.616728
33
0.061716
0
3DFACE
8
default
62
30
10
-0.065004
20
0.073080
30
-0.077208
11
-0.065004
21
0.667860
31
0.066648
12
-0.065004
22
0.650004
32
0.069000
13
-0.065004
23
0.073080
33
-0.077208
0
3DFACE
8
default
62
30
10
-0.065004
20
-0.025884
30
-0.096588
11
-0.065004
21
0.000000
31
-0.099996
12
-0.065004
22
0.025884
32
-0.096588
13
-0.065004
23
-0.025884
33
-0.096588
0
3DFACE
8
default
62
30
10
-0.065004
20
-0.025884
30
-0.096588
11
-0.065004
21
0.025884
31
-0.096588
12
-0.065004
22
0.073080
32
-0.077208
13
-0.065004
23
-0.025884
33
-0.096588
0
3DFACE
8
default
62
30
10
-0.065004
20
0.073080
30
-0.077208
11
-0.065004
21
0.616728
31
0.061716
12
-0.065004
22
-0.025884
32
-0.096588
13
-0.065004
23
0.073080
33
-0.077208
0
3DFACE
8
default
62
30
10
-0.065004
20
0.650004
30
0.069000
11
-0.065004
21
0.632136
31
0.066648
12
-0.065004
22
0.616728
32
0.061716
13
-0.065004
23
0.650004
33
0.069000
0
3DFACE
8
default
62
30
10
-0.065004
20
0.616728
30
0.061716
11
-0.065004
21
0.073080
31
-0.077208
12
-0.065004
22
0.650004
32
0.069000
13
-0.065004
23
0.616728
33
0.061716
0
3DFACE
8
default
62
253
10
-0.183492
20
0.250104
30
0.017340
11
-0.190812
21
0.250104
31
0.010008
12
-0.193488
22
0.250104
32
0.000012
13
-0.183492
23
0.250104
33
0.017340
0
3DFACE
8
default
62
253
10
-0.183492
20
0.250104
30
0.017340
11
-0.193488
21
0.250104
31
0.000012
12
-0.190812
22
0.250104
32
-0.009984
13
-0.183492
23
0.250104
33
0.017340
0
3DFACE
8
default
62
253
10
-0.183492
20
0.250104
30
0.017340
11
-0.190812
21
0.250104
31
-0.009984
12
-0.183492
22
0.250104
32
-0.017304
13
-0.183492
23
0.250104
33
0.017340
0
3DFACE
8
default
62
253
10
-0.183492
20
0.250104
30
0.017340
11
-0.183492
21
0.250104
31
-0.017304
12
-0.173484
22
0.250104
32
-0.019992
13
-0.183492
23
0.250104
33
0.017340
0
3DFACE
8
default
62
253
10
-0.183492
20
0.250104
30
0.017340
11
-0.173484
21
0.250104
31
-0.019992
12
-0.163488
22
0.250104
32
-0.017304
13
-0.183492
23
0.250104
33
0.017340
0
3DFACE
8
default
62
253
10
-0.183492
20
0.250104
30
0.017340
11
-0.163488
21
0.250104
31
-0.017304
12
-0.156168
22
0.250104
32
-0.009984
13
-0.183492
23
0.250104
33
0.017340
0
3DFACE
8
default
62
253
10
-0.183492
20
0.250104
30
0.017340
11
-0.156168
21
0.250104
31
-0.009984
12
-0.153492
22
0.250104
32
0.000012
13
-0.183492
23
0.250104
33
0.017340
0
3DFACE
8
default
62
253
10
-0.183492
20
0.250104
30
0.017340
11
-0.153492
21
0.250104
31
0.000012
12
-0.156168
22
0.250104
32
0.010008
13
-0.183492
23
0.250104
33
0.017340
0
3DFACE
8
default
62
253
10
-0.183492
20
0.250104
30
0.017340
11
-0.156168
21
0.250104
31
0.010008
12
-0.163488
22
0.250104
32
0.017340
13
-0.183492
23
0.250104
33
0.017340
0
3DFACE
8
default
62
253
10
-0.183492
20
0.250104
30
0.017340
11
-0.163488
21
0.250104
31
0.017340
12
-0.173484
22
0.250104
32
0.020016
13
-0.183492
23
0.250104
33
0.017340
0
3DFACE
8
default
62
253
10
-0.163488
20
0.650112
30
0.017340
11
-0.156168
21
0.650112
31
0.010008
12
-0.153492
22
0.650112
32
0.000012
13
-0.163488
23
0.650112
33
0.017340
0
3DFACE
8
default
62
253
10
-0.163488
20
0.650112
30
0.017340
11
-0.153492
21
0.650112
31
0.000012
12
-0.156168
22
0.650112
32
-0.009984
13
-0.163488
23
0.650112
33
0.017340
0
3DFACE
8
default
62
253
10
-0.163488
20
0.650112
30
0.017340
11
-0.156168
21
0.650112
31
-0.009984
12
-0.163488
22
0.650112
32
-0.017304
13
-0.163488
23
0.650112
33
0.017340
0
3DFACE
8
default
62
253
10
-0.163488
20
0.650112
30
0.017340
11
-0.163488
21
0.650112
31
-0.017304
12
-0.173484
22
0.650112
32
-0.019992
13
-0.163488
23
0.650112
33
0.017340
0
3DFACE
8
default
62
253
10
-0.163488
20
0.650112
30
0.017340
11
-0.173484
21
0.650112
31
-0.019992
12
-0.183492
22
0.650112
32
-0.017304
13
-0.163488
23
0.650112
33
0.017340
0
3DFACE
8
default
62
253
10
-0.163488
20
0.650112
30
0.017340
11
-0.183492
21
0.650112
31
-0.017304
12
-0.190812
22
0.650112
32
-0.009984
13
-0.163488
23
0.650112
33
0.017340
0
3DFACE
8
default
62
253
10
-0.163488
20
0.650112
30
0.017340
11
-0.190812
21
0.650112
31
-0.009984
12
-0.193488
22
0.650112
32
0.000012
13
-0.163488
23
0.650112
33
0.017340
0
3DFACE
8
default
62
253
10
-0.163488
20
0.650112
30
0.017340
11
-0.193488
21
0.650112
31
0.000012
12
-0.190812
22
0.650112
32
0.010008
13
-0.163488
23
0.650112
33
0.017340
0
3DFACE
8
default
62
253
10
-0.163488
20
0.650112
30
0.017340
11
-0.190812
21
0.650112
31
0.010008
12
-0.183492
22
0.650112
32
0.017340
13
-0.163488
23
0.650112
33
0.017340
0
3DFACE
8
default
62
253
10
-0.163488
20
0.650112
30
0.017340
11
-0.183492
21
0.650112
31
0.017340
12
-0.173484
22
0.650112
32
0.020016
13
-0.163488
23
0.650112
33
0.017340
0
3DFACE
8
default
62
253
10
-0.163488
20
0.650112
30
0.017340
11
-0.173484
21
0.650112
31
0.020016
12
-0.173484
22
0.250104
32
0.020016
13
-0.163488
23
0.650112
33
0.017340
0
3DFACE
8
default
62
253
10
-0.163488
20
0.650112
30
0.017340
11
-0.173484
21
0.250104
31
0.020016
12
-0.163488
22
0.250104
32
0.017340
13
-0.163488
23
0.650112
33
0.017340
0
3DFACE
8
default
62
253
10
-0.156168
20
0.650112
30
0.010008
11
-0.163488
21
0.650112
31
0.017340
12
-0.163488
22
0.250104
32
0.017340
13
-0.156168
23
0.650112
33
0.010008
0
3DFACE
8
default
62
253
10
-0.156168
20
0.650112
30
0.010008
11
-0.163488
21
0.250104
31
0.017340
12
-0.156168
22
0.250104
32
0.010008
13
-0.156168
23
0.650112
33
0.010008
0
3DFACE
8
default
62
253
10
-0.153492
20
0.650112
30
0.000012
11
-0.156168
21
0.650112
31
0.010008
12
-0.156168
22
0.250104
32
0.010008
13
-0.153492
23
0.650112
33
0.000012
0
3DFACE
8
default
62
253
10
-0.153492
20
0.650112
30
0.000012
11
-0.156168
21
0.250104
31
0.010008
12
-0.153492
22
0.250104
32
0.000012
13
-0.153492
23
0.650112
33
0.000012
0
3DFACE
8
default
62
253
10
-0.156168
20
0.650112
30
-0.009984
11
-0.153492
21
0.650112
31
0.000012
12
-0.153492
22
0.250104
32
0.000012
13
-0.156168
23
0.650112
33
-0.009984
0
3DFACE
8
default
62
253
10
-0.156168
20
0.650112
30
-0.009984
11
-0.153492
21
0.250104
31
0.000012
12
-0.156168
22
0.250104
32
-0.009984
13
-0.156168
23
0.650112
33
-0.009984
0
3DFACE
8
default
62
253
10
-0.163488
20
0.650112
30
-0.017304
11
-0.156168
21
0.650112
31
-0.009984
12
-0.156168
22
0.250104
32
-0.009984
13
-0.163488
23
0.650112
33
-0.017304
0
3DFACE
8
default
62
253
10
-0.163488
20
0.650112
30
-0.017304
11
-0.156168
21
0.250104
31
-0.009984
12
-0.163488
22
0.250104
32
-0.017304
13
-0.163488
23
0.650112
33
-0.017304
0
3DFACE
8
default
62
253
10
-0.173484
20
0.650112
30
-0.019992
11
-0.163488
21
0.650112
31
-0.017304
12
-0.163488
22
0.250104
32
-0.017304
13
-0.173484
23
0.650112
33
-0.019992
0
3DFACE
8
default
62
253
10
-0.173484
20
0.650112
30
-0.019992
11
-0.163488
21
0.250104
31
-0.017304
12
-0.173484
22
0.250104
32
-0.019992
13
-0.173484
23
0.650112
33
-0.019992
0
3DFACE
8
default
62
253
10
-0.183492
20
0.650112
30
-0.017304
11
-0.173484
21
0.650112
31
-0.019992
12
-0.173484
22
0.250104
32
-0.019992
13
-0.183492
23
0.650112
33
-0.017304
0
3DFACE
8
default
62
253
10
-0.183492
20
0.650112
30
-0.017304
11
-0.173484
21
0.250104
31
-0.019992
12
-0.183492
22
0.250104
32
-0.017304
13
-0.183492
23
0.650112
33
-0.017304
0
3DFACE
8
default
62
253
10
-0.190812
20
0.650112
30
-0.009984
11
-0.183492
21
0.650112
31
-0.017304
12
-0.183492
22
0.250104
32
-0.017304
13
-0.190812
23
0.650112
33
-0.009984
0
3DFACE
8
default
62
253
10
-0.190812
20
0.650112
30
-0.009984
11
-0.183492
21
0.250104
31
-0.017304
12
-0.190812
22
0.250104
32
-0.009984
13
-0.190812
23
0.650112
33
-0.009984
0
3DFACE
8
default
62
253
10
-0.193488
20
0.650112
30
0.000012
11
-0.190812
21
0.650112
31
-0.009984
12
-0.190812
22
0.250104
32
-0.009984
13
-0.193488
23
0.650112
33
0.000012
0
3DFACE
8
default
62
253
10
-0.193488
20
0.650112
30
0.000012
11
-0.190812
21
0.250104
31
-0.009984
12
-0.193488
22
0.250104
32
0.000012
13
-0.193488
23
0.650112
33
0.000012
0
3DFACE
8
default
62
253
10
-0.190812
20
0.650112
30
0.010008
11
-0.193488
21
0.650112
31
0.000012
12
-0.193488
22
0.250104
32
0.000012
13
-0.190812
23
0.650112
33
0.010008
0
3DFACE
8
default
62
253
10
-0.190812
20
0.650112
30
0.010008
11
-0.193488
21
0.250104
31
0.000012
12
-0.190812
22
0.250104
32
0.010008
13
-0.190812
23
0.650112
33
0.010008
0
3DFACE
8
default
62
253
10
-0.183492
20
0.650112
30
0.017340
11
-0.190812
21
0.650112
31
0.010008
12
-0.190812
22
0.250104
32
0.010008
13
-0.183492
23
0.650112
33
0.017340
0
3DFACE
8
default
62
253
10
-0.183492
20
0.650112
30
0.017340
11
-0.190812
21
0.250104
31
0.010008
12
-0.183492
22
0.250104
32
0.017340
13
-0.183492
23
0.650112
33
0.017340
0
3DFACE
8
default
62
253
10
-0.173484
20
0.650112
30
0.020016
11
-0.183492
21
0.650112
31
0.017340
12
-0.183492
22
0.250104
32
0.017340
13
-0.173484
23
0.650112
33
0.020016
0
3DFACE
8
default
62
253
10
-0.173484
20
0.650112
30
0.020016
11
-0.183492
21
0.250104
31
0.017340
12
-0.173484
22
0.250104
32
0.020016
13
-0.173484
23
0.650112
33
0.020016
0
ENDSEC
0
EOF
