0
SECTION
2
ENTITIES
0
3DFACE
8
default
62
30
10
0.054996
20
0.035512
30
0.020504
11
0.054996
21
0.020500
31
0.035504
12
0.054996
22
0.000004
32
0.041000
13
0.054996
23
0.035512
33
0.020504
0
3DFACE
8
default
62
30
10
0.054996
20
0.035512
30
0.020504
11
0.054996
21
0.000004
31
0.041000
12
0.054996
22
-0.020504
32
0.035504
13
0.054996
23
0.035512
33
0.020504
0
3DFACE
8
default
62
30
10
0.054996
20
0.035512
30
0.020504
11
0.054996
21
-0.020504
31
0.035504
12
0.054996
22
-0.035504
32
0.020504
13
0.054996
23
0.035512
33
0.020504
0
3DFACE
8
default
62
30
10
0.054996
20
0.035512
30
0.020504
11
0.054996
21
-0.035504
31
0.020504
12
0.054996
22
-0.041000
32
-0.000004
13
0.054996
23
0.035512
33
0.020504
0
3DFACE
8
default
62
30
10
0.054996
20
0.035512
30
0.020504
11
0.054996
21
-0.041000
31
-0.000004
12
0.054996
22
-0.035504
32
-0.020500
13
0.054996
23
0.035512
33
0.020504
0
3DFACE
8
default
62
30
10
0.054996
20
0.035512
30
0.020504
11
0.054996
21
-0.035504
31
-0.020500
12
0.054996
22
-0.020504
32
-0.035512
13
0.054996
23
0.035512
33
0.020504
0
3DFACE
8
default
62
30
10
0.054996
20
0.035512
30
0.020504
11
0.054996
21
-0.020504
31
-0.035512
12
0.054996
22
0.000004
32
-0.040996
13
0.054996
23
0.035512
33
0.020504
0
3DFACE
8
default
62
30
10
0.054996
20
0.035512
30
0.020504
11
0.054996
21
0.000004
31
-0.040996
12
0.054996
22
0.020500
32
-0.035512
13
0.054996
23
0.035512
33
0.020504
0
3DFACE
8
default
62
30
10
0.054996
20
0.035512
30
0.020504
11
0.054996
21
0.020500
31
-0.035512
12
0.054996
22
0.035512
32
-0.020500
13
0.054996
23
0.035512
33
0.020504
0
3DFACE
8
default
62
30
10
0.054996
20
0.035512
30
0.020504
11
0.054996
21
0.035512
31
-0.020500
12
0.054996
22
0.040996
32
-0.000004
13
0.054996
23
0.035512
33
0.020504
0
3DFACE
8
default
62
30
10
0.054996
20
0.035512
30
0.020504
11
0.054996
21
0.040996
31
-0.000004
12
0.029448
22
0.036448
32
0.017000
13
0.054996
23
0.035512
33
0.020504
0
3DFACE
8
default
62
30
10
0.054996
20
0.040996
30
-0.000004
11
0.033996
21
0.040996
31
-0.000004
12
0.029448
22
0.036448
32
0.017000
13
0.054996
23
0.040996
33
-0.000004
0
3DFACE
8
default
62
30
10
0.029448
20
0.036448
30
0.017000
11
0.025944
21
0.035512
31
0.020504
12
0.054996
22
0.035512
32
0.020504
13
0.029448
23
0.036448
33
0.017000
0
3DFACE
8
default
62
30
10
0.054996
20
0.020500
30
0.035504
11
0.054996
21
0.035512
31
0.020504
12
0.017004
22
0.026560
32
0.029444
13
0.054996
23
0.020500
33
0.035504
0
3DFACE
8
default
62
30
10
0.054996
20
0.035512
30
0.020504
11
0.025944
21
0.035512
31
0.020504
12
0.017004
22
0.026560
32
0.029444
13
0.054996
23
0.035512
33
0.020504
0
3DFACE
8
default
62
30
10
0.054996
20
0.020500
30
0.035504
11
0.017004
21
0.026560
31
0.029444
12
0.000000
22
0.022012
32
0.034004
13
0.054996
23
0.020500
33
0.035504
0
3DFACE
8
default
62
30
10
0.000000
20
0.022012
30
0.034004
11
-0.024996
21
0.020500
31
0.035504
12
0.054996
22
0.020500
32
0.035504
13
0.000000
23
0.022012
33
0.034004
0
3DFACE
8
default
62
30
10
0.000000
20
0.022012
30
0.034004
11
-0.017004
21
0.026560
31
0.029444
12
-0.024996
22
0.020500
32
0.035504
13
0.000000
23
0.022012
33
0.034004
0
3DFACE
8
default
62
30
10
-0.017004
20
0.026560
30
0.029444
11
-0.024996
21
0.034564
31
0.021440
12
-0.024996
22
0.020500
32
0.035504
13
-0.017004
23
0.026560
33
0.029444
0
3DFACE
8
default
62
30
10
0.054996
20
0.000004
30
0.041000
11
0.054996
21
0.020500
31
0.035504
12
-0.024996
22
0.020500
32
0.035504
13
0.054996
23
0.000004
33
0.041000
0
3DFACE
8
default
62
30
10
0.054996
20
0.000004
30
0.041000
11
-0.024996
21
0.020500
31
0.035504
12
-0.024996
22
0.000004
32
0.041000
13
0.054996
23
0.000004
33
0.041000
0
3DFACE
8
default
62
30
10
0.054996
20
-0.020504
30
0.035504
11
0.054996
21
0.000004
31
0.041000
12
-0.024996
22
0.000004
32
0.041000
13
0.054996
23
-0.020504
33
0.035504
0
3DFACE
8
default
62
30
10
0.054996
20
-0.020504
30
0.035504
11
-0.024996
21
0.000004
31
0.041000
12
-0.024996
22
-0.020504
32
0.035504
13
0.054996
23
-0.020504
33
0.035504
0
3DFACE
8
default
62
30
10
0.054996
20
-0.035504
30
0.020504
11
0.054996
21
-0.020504
31
0.035504
12
-0.024996
22
-0.020504
32
0.035504
13
0.054996
23
-0.035504
33
0.020504
0
3DFACE
8
default
62
30
10
0.054996
20
-0.035504
30
0.020504
11
-0.024996
21
-0.020504
31
0.035504
12
-0.024996
22
-0.035504
32
0.020504
13
0.054996
23
-0.035504
33
0.020504
0
3DFACE
8
default
62
30
10
0.054996
20
-0.041000
30
-0.000004
11
0.054996
21
-0.035504
31
0.020504
12
-0.024996
22
-0.035504
32
0.020504
13
0.054996
23
-0.041000
33
-0.000004
0
3DFACE
8
default
62
30
10
0.054996
20
-0.041000
30
-0.000004
11
-0.024996
21
-0.035504
31
0.020504
12
-0.024996
22
-0.041000
32
-0.000004
13
0.054996
23
-0.041000
33
-0.000004
0
3DFACE
8
default
62
30
10
0.054996
20
-0.035504
30
-0.020500
11
0.054996
21
-0.041000
31
-0.000004
12
-0.024996
22
-0.041000
32
-0.000004
13
0.054996
23
-0.035504
33
-0.020500
0
3DFACE
8
default
62
30
10
0.054996
20
-0.035504
30
-0.020500
11
-0.024996
21
-0.041000
31
-0.000004
12
-0.024996
22
-0.035504
32
-0.020500
13
0.054996
23
-0.035504
33
-0.020500
0
3DFACE
8
default
62
30
10
0.054996
20
-0.020504
30
-0.035512
11
0.054996
21
-0.035504
31
-0.020500
12
-0.024996
22
-0.035504
32
-0.020500
13
0.054996
23
-0.020504
33
-0.035512
0
3DFACE
8
default
62
30
10
0.054996
20
-0.020504
30
-0.035512
11
-0.024996
21
-0.035504
31
-0.020500
12
-0.024996
22
-0.020504
32
-0.035512
13
0.054996
23
-0.020504
33
-0.035512
0
3DFACE
8
default
62
30
10
0.054996
20
0.000004
30
-0.040996
11
0.054996
21
-0.020504
31
-0.035512
12
-0.024996
22
-0.020504
32
-0.035512
13
0.054996
23
0.000004
33
-0.040996
0
3DFACE
8
default
62
30
10
0.054996
20
0.000004
30
-0.040996
11
-0.024996
21
-0.020504
31
-0.035512
12
-0.024996
22
0.000004
32
-0.040996
13
0.054996
23
0.000004
33
-0.040996
0
3DFACE
8
default
62
30
10
0.054996
20
0.020500
30
-0.035512
11
0.054996
21
0.000004
31
-0.040996
12
-0.024996
22
0.000004
32
-0.040996
13
0.054996
23
0.020500
33
-0.035512
0
3DFACE
8
default
62
30
10
0.054996
20
0.020500
30
-0.035512
11
-0.024996
21
0.000004
31
-0.040996
12
-0.024996
22
0.020500
32
-0.035512
13
0.054996
23
0.020500
33
-0.035512
0
3DFACE
8
default
62
30
10
-0.024996
20
0.020500
30
-0.035512
11
-0.024996
21
0.034564
31
-0.021448
12
-0.017004
22
0.026560
32
-0.029440
13
-0.024996
23
0.020500
33
-0.035512
0
3DFACE
8
default
62
30
10
-0.024996
20
0.020500
30
-0.035512
11
-0.017004
21
0.026560
31
-0.029440
12
0.000000
22
0.022012
32
-0.034000
13
-0.024996
23
0.020500
33
-0.035512
0
3DFACE
8
default
62
30
10
0.054996
20
0.020500
30
-0.035512
11
-0.024996
21
0.020500
31
-0.035512
12
0.000000
22
0.022012
32
-0.034000
13
0.054996
23
0.020500
33
-0.035512
0
3DFACE
8
default
62
30
10
0.000000
20
0.022012
30
-0.034000
11
0.017004
21
0.026560
31
-0.029440
12
0.054996
22
0.020500
32
-0.035512
13
0.000000
23
0.022012
33
-0.034000
0
3DFACE
8
default
62
30
10
0.017004
20
0.026560
30
-0.029440
11
0.025944
21
0.035512
31
-0.020500
12
0.054996
22
0.020500
32
-0.035512
13
0.017004
23
0.026560
33
-0.029440
0
3DFACE
8
default
62
30
10
0.025944
20
0.035512
30
-0.020500
11
0.054996
21
0.035512
31
-0.020500
12
0.054996
22
0.020500
32
-0.035512
13
0.025944
23
0.035512
33
-0.020500
0
3DFACE
8
default
62
30
10
0.054996
20
0.035512
30
-0.020500
11
0.025944
21
0.035512
31
-0.020500
12
0.029448
22
0.036448
32
-0.016996
13
0.054996
23
0.035512
33
-0.020500
0
3DFACE
8
default
62
30
10
0.029448
20
0.036448
30
-0.016996
11
0.033996
21
0.040996
31
-0.000004
12
0.054996
22
0.035512
32
-0.020500
13
0.029448
23
0.036448
33
-0.016996
0
3DFACE
8
default
62
30
10
0.033996
20
0.040996
30
-0.000004
11
0.054996
21
0.040996
31
-0.000004
12
0.054996
22
0.035512
32
-0.020500
13
0.033996
23
0.040996
33
-0.000004
0
3DFACE
8
default
62
30
10
-0.024996
20
0.000004
30
0.021440
11
-0.029448
21
0.000004
31
0.017000
12
-0.033996
22
0.000004
32
-0.000004
13
-0.024996
23
0.000004
33
0.021440
0
3DFACE
8
default
62
30
10
-0.024996
20
0.000004
30
0.021440
11
-0.033996
21
0.000004
31
-0.000004
12
-0.029448
22
0.000004
32
-0.016996
13
-0.024996
23
0.000004
33
0.021440
0
3DFACE
8
default
62
30
10
-0.024996
20
0.000004
30
0.021440
11
-0.029448
21
0.000004
31
-0.016996
12
-0.024996
22
0.000004
32
-0.021448
13
-0.024996
23
0.000004
33
0.021440
0
3DFACE
8
default
62
30
10
0.017004
20
0.090004
30
0.029444
11
0.029448
21
0.090004
31
0.017000
12
0.033996
22
0.090004
32
-0.000004
13
0.017004
23
0.090004
33
0.029444
0
3DFACE
8
default
62
30
10
0.017004
20
0.090004
30
0.029444
11
0.033996
21
0.090004
31
-0.000004
12
0.029448
22
0.090004
32
-0.016996
13
0.017004
23
0.090004
33
0.029444
0
3DFACE
8
default
62
30
10
0.017004
20
0.090004
30
0.029444
11
0.029448
21
0.090004
31
-0.016996
12
0.017004
22
0.090004
32
-0.029440
13
0.017004
23
0.090004
33
0.029444
0
3DFACE
8
default
62
30
10
0.017004
20
0.090004
30
0.029444
11
0.017004
21
0.090004
31
-0.029440
12
0.000000
22
0.090004
32
-0.034000
13
0.017004
23
0.090004
33
0.029444
0
3DFACE
8
default
62
30
10
0.017004
20
0.090004
30
0.029444
11
0.000000
21
0.090004
31
-0.034000
12
-0.017004
22
0.090004
32
-0.029440
13
0.017004
23
0.090004
33
0.029444
0
3DFACE
8
default
62
30
10
0.017004
20
0.090004
30
0.029444
11
-0.017004
21
0.090004
31
-0.029440
12
-0.029448
22
0.090004
32
-0.016996
13
0.017004
23
0.090004
33
0.029444
0
3DFACE
8
default
62
30
10
0.017004
20
0.090004
30
0.029444
11
-0.029448
21
0.090004
31
-0.016996
12
-0.033996
22
0.090004
32
-0.000004
13
0.017004
23
0.090004
33
0.029444
0
3DFACE
8
default
62
30
10
0.017004
20
0.090004
30
0.029444
11
-0.033996
21
0.090004
31
-0.000004
12
-0.029448
22
0.090004
32
0.017000
13
0.017004
23
0.090004
33
0.029444
0
3DFACE
8
default
62
30
10
0.017004
20
0.090004
30
0.029444
11
-0.029448
21
0.090004
31
0.017000
12
-0.017004
22
0.090004
32
0.029444
13
0.017004
23
0.090004
33
0.029444
0
3DFACE
8
default
62
30
10
0.017004
20
0.090004
30
0.029444
11
-0.017004
21
0.090004
31
0.029444
12
0.000000
22
0.090004
32
0.034004
13
0.017004
23
0.090004
33
0.029444
0
3DFACE
8
default
62
30
10
-0.022512
20
0.090004
30
0.013004
11
-0.026004
21
0.090004
31
-0.000004
12
-0.022512
22
0.090004
32
-0.013000
13
-0.022512
23
0.090004
33
0.013004
0
3DFACE
8
default
62
30
10
-0.022512
20
0.090004
30
0.013004
11
-0.022512
21
0.090004
31
-0.013000
12
-0.012996
22
0.090004
32
-0.022516
13
-0.022512
23
0.090004
33
0.013004
0
3DFACE
8
default
62
30
10
-0.022512
20
0.090004
30
0.013004
11
-0.012996
21
0.090004
31
-0.022516
12
0.000000
22
0.090004
32
-0.025996
13
-0.022512
23
0.090004
33
0.013004
0
3DFACE
8
default
62
30
10
-0.022512
20
0.090004
30
0.013004
11
0.000000
21
0.090004
31
-0.025996
12
0.012996
22
0.090004
32
-0.022516
13
-0.022512
23
0.090004
33
0.013004
0
3DFACE
8
default
62
30
10
-0.022512
20
0.090004
30
0.013004
11
0.012996
21
0.090004
31
-0.022516
12
0.022512
22
0.090004
32
-0.013000
13
-0.022512
23
0.090004
33
0.013004
0
3DFACE
8
default
62
30
10
-0.022512
20
0.090004
30
0.013004
11
0.022512
21
0.090004
31
-0.013000
12
0.026004
22
0.090004
32
-0.000004
13
-0.022512
23
0.090004
33
0.013004
0
3DFACE
8
default
62
30
10
-0.022512
20
0.090004
30
0.013004
11
0.026004
21
0.090004
31
-0.000004
12
0.022512
22
0.090004
32
0.013004
13
-0.022512
23
0.090004
33
0.013004
0
3DFACE
8
default
62
30
10
-0.022512
20
0.090004
30
0.013004
11
0.022512
21
0.090004
31
0.013004
12
0.012996
22
0.090004
32
0.022520
13
-0.022512
23
0.090004
33
0.013004
0
3DFACE
8
default
62
30
10
-0.022512
20
0.090004
30
0.013004
11
0.012996
21
0.090004
31
0.022520
12
0.000000
22
0.090004
32
0.026000
13
-0.022512
23
0.090004
33
0.013004
0
3DFACE
8
default
62
30
10
-0.022512
20
0.090004
30
0.013004
11
0.000000
21
0.090004
31
0.026000
12
-0.012996
22
0.090004
32
0.022520
13
-0.022512
23
0.090004
33
0.013004
0
3DFACE
8
default
62
30
10
0.017004
20
0.026560
30
0.029444
11
0.017004
21
0.090004
31
0.029444
12
0.000000
22
0.090004
32
0.034004
13
0.017004
23
0.026560
33
0.029444
0
3DFACE
8
default
62
30
10
0.017004
20
0.026560
30
0.029444
11
0.000000
21
0.090004
31
0.034004
12
0.000000
22
0.022012
32
0.034004
13
0.017004
23
0.026560
33
0.029444
0
3DFACE
8
default
62
30
10
0.033996
20
0.040996
30
-0.000004
11
0.033996
21
0.090004
31
-0.000004
12
0.029448
22
0.090004
32
0.017000
13
0.033996
23
0.040996
33
-0.000004
0
3DFACE
8
default
62
30
10
0.033996
20
0.040996
30
-0.000004
11
0.029448
21
0.090004
31
0.017000
12
0.029448
22
0.036448
32
0.017000
13
0.033996
23
0.040996
33
-0.000004
0
3DFACE
8
default
62
30
10
0.029448
20
0.036448
30
-0.016996
11
0.029448
21
0.090004
31
-0.016996
12
0.033996
22
0.090004
32
-0.000004
13
0.029448
23
0.036448
33
-0.016996
0
3DFACE
8
default
62
30
10
0.029448
20
0.036448
30
-0.016996
11
0.033996
21
0.090004
31
-0.000004
12
0.033996
22
0.040996
32
-0.000004
13
0.029448
23
0.036448
33
-0.016996
0
3DFACE
8
default
62
30
10
0.000000
20
0.022012
30
-0.034000
11
0.000000
21
0.090004
31
-0.034000
12
0.017004
22
0.090004
32
-0.029440
13
0.000000
23
0.022012
33
-0.034000
0
3DFACE
8
default
62
30
10
0.000000
20
0.022012
30
-0.034000
11
0.017004
21
0.090004
31
-0.029440
12
0.017004
22
0.026560
32
-0.029440
13
0.000000
23
0.022012
33
-0.034000
0
3DFACE
8
default
62
30
10
-0.017004
20
0.026560
30
-0.029440
11
-0.017004
21
0.090004
31
-0.029440
12
0.000000
22
0.090004
32
-0.034000
13
-0.017004
23
0.026560
33
-0.029440
0
3DFACE
8
default
62
30
10
-0.017004
20
0.026560
30
-0.029440
11
0.000000
21
0.090004
31
-0.034000
12
0.000000
22
0.022012
32
-0.034000
13
-0.017004
23
0.026560
33
-0.029440
0
3DFACE
8
default
62
30
10
-0.033996
20
0.090004
30
-0.000004
11
-0.029448
21
0.090004
31
-0.016996
12
-0.029448
22
0.000004
32
-0.016996
13
-0.033996
23
0.090004
33
-0.000004
0
3DFACE
8
default
62
30
10
-0.033996
20
0.090004
30
-0.000004
11
-0.029448
21
0.000004
31
-0.016996
12
-0.033996
22
0.000004
32
-0.000004
13
-0.033996
23
0.090004
33
-0.000004
0
3DFACE
8
default
62
30
10
-0.029448
20
0.090004
30
0.017000
11
-0.033996
21
0.090004
31
-0.000004
12
-0.033996
22
0.000004
32
-0.000004
13
-0.029448
23
0.090004
33
0.017000
0
3DFACE
8
default
62
30
10
-0.029448
20
0.090004
30
0.017000
11
-0.033996
21
0.000004
31
-0.000004
12
-0.029448
22
0.000004
32
0.017000
13
-0.029448
23
0.090004
33
0.017000
0
3DFACE
8
default
62
30
10
0.000000
20
0.022012
30
0.034004
11
0.000000
21
0.090004
31
0.034004
12
-0.017004
22
0.090004
32
0.029444
13
0.000000
23
0.022012
33
0.034004
0
3DFACE
8
default
62
30
10
0.000000
20
0.022012
30
0.034004
11
-0.017004
21
0.090004
31
0.029444
12
-0.017004
22
0.026560
32
0.029444
13
0.000000
23
0.022012
33
0.034004
0
3DFACE
8
default
62
30
10
0.010500
20
0.102004
30
0.018188
11
0.000000
21
0.102004
31
0.020996
12
0.000000
22
0.090004
32
0.026000
13
0.010500
23
0.102004
33
0.018188
0
3DFACE
8
default
62
30
10
0.010500
20
0.102004
30
0.018188
11
0.000000
21
0.090004
31
0.026000
12
0.012996
22
0.090004
32
0.022520
13
0.010500
23
0.102004
33
0.018188
0
3DFACE
8
default
62
30
10
0.018192
20
0.102004
30
0.010496
11
0.010500
21
0.102004
31
0.018188
12
0.012996
22
0.090004
32
0.022520
13
0.018192
23
0.102004
33
0.010496
0
3DFACE
8
default
62
30
10
0.018192
20
0.102004
30
0.010496
11
0.012996
21
0.090004
31
0.022520
12
0.022512
22
0.090004
32
0.013004
13
0.018192
23
0.102004
33
0.010496
0
3DFACE
8
default
62
30
10
0.021000
20
0.102004
30
-0.000004
11
0.018192
21
0.102004
31
0.010496
12
0.022512
22
0.090004
32
0.013004
13
0.021000
23
0.102004
33
-0.000004
0
3DFACE
8
default
62
30
10
0.021000
20
0.102004
30
-0.000004
11
0.022512
21
0.090004
31
0.013004
12
0.026004
22
0.090004
32
-0.000004
13
0.021000
23
0.102004
33
-0.000004
0
3DFACE
8
default
62
30
10
0.018192
20
0.102004
30
-0.010504
11
0.021000
21
0.102004
31
-0.000004
12
0.026004
22
0.090004
32
-0.000004
13
0.018192
23
0.102004
33
-0.010504
0
3DFACE
8
default
62
30
10
0.018192
20
0.102004
30
-0.010504
11
0.026004
21
0.090004
31
-0.000004
12
0.022512
22
0.090004
32
-0.013000
13
0.018192
23
0.102004
33
-0.010504
0
3DFACE
8
default
62
30
10
0.010500
20
0.102004
30
-0.018184
11
0.018192
21
0.102004
31
-0.010504
12
0.022512
22
0.090004
32
-0.013000
13
0.010500
23
0.102004
33
-0.018184
0
3DFACE
8
default
62
30
10
0.010500
20
0.102004
30
-0.018184
11
0.022512
21
0.090004
31
-0.013000
12
0.012996
22
0.090004
32
-0.022516
13
0.010500
23
0.102004
33
-0.018184
0
3DFACE
8
default
62
30
10
0.000000
20
0.102004
30
-0.021004
11
0.010500
21
0.102004
31
-0.018184
12
0.012996
22
0.090004
32
-0.022516
13
0.000000
23
0.102004
33
-0.021004
0
3DFACE
8
default
62
30
10
0.000000
20
0.102004
30
-0.021004
11
0.012996
21
0.090004
31
-0.022516
12
0.000000
22
0.090004
32
-0.025996
13
0.000000
23
0.102004
33
-0.021004
0
3DFACE
8
default
62
30
10
-0.010500
20
0.102004
30
-0.018184
11
0.000000
21
0.102004
31
-0.021004
12
0.000000
22
0.090004
32
-0.025996
13
-0.010500
23
0.102004
33
-0.018184
0
3DFACE
8
default
62
30
10
-0.010500
20
0.102004
30
-0.018184
11
0.000000
21
0.090004
31
-0.025996
12
-0.012996
22
0.090004
32
-0.022516
13
-0.010500
23
0.102004
33
-0.018184
0
3DFACE
8
default
62
30
10
-0.018192
20
0.102004
30
-0.010504
11
-0.010500
21
0.102004
31
-0.018184
12
-0.012996
22
0.090004
32
-0.022516
13
-0.018192
23
0.102004
33
-0.010504
0
3DFACE
8
default
62
30
10
-0.018192
20
0.102004
30
-0.010504
11
-0.012996
21
0.090004
31
-0.022516
12
-0.022512
22
0.090004
32
-0.013000
13
-0.018192
23
0.102004
33
-0.010504
0
3DFACE
8
default
62
30
10
-0.021000
20
0.102004
30
-0.000004
11
-0.018192
21
0.102004
31
-0.010504
12
-0.022512
22
0.090004
32
-0.013000
13
-0.021000
23
0.102004
33
-0.000004
0
3DFACE
8
default
62
30
10
-0.021000
20
0.102004
30
-0.000004
11
-0.022512
21
0.090004
31
-0.013000
12
-0.026004
22
0.090004
32
-0.000004
13
-0.021000
23
0.102004
33
-0.000004
0
3DFACE
8
default
62
30
10
-0.018192
20
0.102004
30
0.010496
11
-0.021000
21
0.102004
31
-0.000004
12
-0.026004
22
0.090004
32
-0.000004
13
-0.018192
23
0.102004
33
0.010496
0
3DFACE
8
default
62
30
10
-0.018192
20
0.102004
30
0.010496
11
-0.026004
21
0.090004
31
-0.000004
12
-0.022512
22
0.090004
32
0.013004
13
-0.018192
23
0.102004
33
0.010496
0
3DFACE
8
default
62
30
10
-0.010500
20
0.102004
30
0.018188
11
-0.018192
21
0.102004
31
0.010496
12
-0.022512
22
0.090004
32
0.013004
13
-0.010500
23
0.102004
33
0.018188
0
3DFACE
8
default
62
30
10
-0.010500
20
0.102004
30
0.018188
11
-0.022512
21
0.090004
31
0.013004
12
-0.012996
22
0.090004
32
0.022520
13
-0.010500
23
0.102004
33
0.018188
0
3DFACE
8
default
62
30
10
0.000000
20
0.102004
30
0.020996
11
-0.010500
21
0.102004
31
0.018188
12
-0.012996
22
0.090004
32
0.022520
13
0.000000
23
0.102004
33
0.020996
0
3DFACE
8
default
62
30
10
0.000000
20
0.102004
30
0.020996
11
-0.012996
21
0.090004
31
0.022520
12
0.000000
22
0.090004
32
0.026000
13
0.000000
23
0.102004
33
0.020996
0
3DFACE
8
default
62
30
10
0.010500
20
0.114004
30
0.018188
11
0.018192
21
0.114004
31
0.010496
12
0.021000
22
0.114004
32
-0.000004
13
0.010500
23
0.114004
33
0.018188
0
3DFACE
8
default
62
30
10
0.010500
20
0.114004
30
0.018188
11
0.021000
21
0.114004
31
-0.000004
12
0.018192
22
0.114004
32
-0.010504
13
0.010500
23
0.114004
33
0.018188
0
3DFACE
8
default
62
30
10
0.010500
20
0.114004
30
0.018188
11
0.018192
21
0.114004
31
-0.010504
12
0.010500
22
0.114004
32
-0.018184
13
0.010500
23
0.114004
33
0.018188
0
3DFACE
8
default
62
30
10
0.010500
20
0.114004
30
0.018188
11
0.010500
21
0.114004
31
-0.018184
12
0.000000
22
0.114004
32
-0.021004
13
0.010500
23
0.114004
33
0.018188
0
3DFACE
8
default
62
30
10
0.010500
20
0.114004
30
0.018188
11
0.000000
21
0.114004
31
-0.021004
12
-0.010500
22
0.114004
32
-0.018184
13
0.010500
23
0.114004
33
0.018188
0
3DFACE
8
default
62
30
10
0.010500
20
0.114004
30
0.018188
11
-0.010500
21
0.114004
31
-0.018184
12
-0.018192
22
0.114004
32
-0.010504
13
0.010500
23
0.114004
33
0.018188
0
3DFACE
8
default
62
30
10
0.010500
20
0.114004
30
0.018188
11
-0.018192
21
0.114004
31
-0.010504
12
-0.021000
22
0.114004
32
-0.000004
13
0.010500
23
0.114004
33
0.018188
0
3DFACE
8
default
62
30
10
0.010500
20
0.114004
30
0.018188
11
-0.021000
21
0.114004
31
-0.000004
12
-0.018192
22
0.114004
32
0.010496
13
0.010500
23
0.114004
33
0.018188
0
3DFACE
8
default
62
30
10
0.010500
20
0.114004
30
0.018188
11
-0.018192
21
0.114004
31
0.010496
12
-0.010500
22
0.114004
32
0.018188
13
0.010500
23
0.114004
33
0.018188
0
3DFACE
8
default
62
30
10
0.010500
20
0.114004
30
0.018188
11
-0.010500
21
0.114004
31
0.018188
12
0.000000
22
0.114004
32
0.020996
13
0.010500
23
0.114004
33
0.018188
0
3DFACE
8
default
62
30
10
0.010500
20
0.114004
30
0.018188
11
0.000000
21
0.114004
31
0.020996
12
0.000000
22
0.102004
32
0.020996
13
0.010500
23
0.114004
33
0.018188
0
3DFACE
8
default
62
30
10
0.010500
20
0.114004
30
0.018188
11
0.000000
21
0.102004
31
0.020996
12
0.010500
22
0.102004
32
0.018188
13
0.010500
23
0.114004
33
0.018188
0
3DFACE
8
default
62
30
10
0.018192
20
0.114004
30
0.010496
11
0.010500
21
0.114004
31
0.018188
12
0.010500
22
0.102004
32
0.018188
13
0.018192
23
0.114004
33
0.010496
0
3DFACE
8
default
62
30
10
0.018192
20
0.114004
30
0.010496
11
0.010500
21
0.102004
31
0.018188
12
0.018192
22
0.102004
32
0.010496
13
0.018192
23
0.114004
33
0.010496
0
3DFACE
8
default
62
30
10
0.021000
20
0.114004
30
-0.000004
11
0.018192
21
0.114004
31
0.010496
12
0.018192
22
0.102004
32
0.010496
13
0.021000
23
0.114004
33
-0.000004
0
3DFACE
8
default
62
30
10
0.021000
20
0.114004
30
-0.000004
11
0.018192
21
0.102004
31
0.010496
12
0.021000
22
0.102004
32
-0.000004
13
0.021000
23
0.114004
33
-0.000004
0
3DFACE
8
default
62
30
10
0.018192
20
0.114004
30
-0.010504
11
0.021000
21
0.114004
31
-0.000004
12
0.021000
22
0.102004
32
-0.000004
13
0.018192
23
0.114004
33
-0.010504
0
3DFACE
8
default
62
30
10
0.018192
20
0.114004
30
-0.010504
11
0.021000
21
0.102004
31
-0.000004
12
0.018192
22
0.102004
32
-0.010504
13
0.018192
23
0.114004
33
-0.010504
0
3DFACE
8
default
62
30
10
0.010500
20
0.114004
30
-0.018184
11
0.018192
21
0.114004
31
-0.010504
12
0.018192
22
0.102004
32
-0.010504
13
0.010500
23
0.114004
33
-0.018184
0
3DFACE
8
default
62
30
10
0.010500
20
0.114004
30
-0.018184
11
0.018192
21
0.102004
31
-0.010504
12
0.010500
22
0.102004
32
-0.018184
13
0.010500
23
0.114004
33
-0.018184
0
3DFACE
8
default
62
30
10
0.000000
20
0.114004
30
-0.021004
11
0.010500
21
0.114004
31
-0.018184
12
0.010500
22
0.102004
32
-0.018184
13
0.000000
23
0.114004
33
-0.021004
0
3DFACE
8
default
62
30
10
0.000000
20
0.114004
30
-0.021004
11
0.010500
21
0.102004
31
-0.018184
12
0.000000
22
0.102004
32
-0.021004
13
0.000000
23
0.114004
33
-0.021004
0
3DFACE
8
default
62
30
10
-0.010500
20
0.114004
30
-0.018184
11
0.000000
21
0.114004
31
-0.021004
12
0.000000
22
0.102004
32
-0.021004
13
-0.010500
23
0.114004
33
-0.018184
0
3DFACE
8
default
62
30
10
-0.010500
20
0.114004
30
-0.018184
11
0.000000
21
0.102004
31
-0.021004
12
-0.010500
22
0.102004
32
-0.018184
13
-0.010500
23
0.114004
33
-0.018184
0
3DFACE
8
default
62
30
10
-0.018192
20
0.114004
30
-0.010504
11
-0.010500
21
0.114004
31
-0.018184
12
-0.010500
22
0.102004
32
-0.018184
13
-0.018192
23
0.114004
33
-0.010504
0
3DFACE
8
default
62
30
10
-0.018192
20
0.114004
30
-0.010504
11
-0.010500
21
0.102004
31
-0.018184
12
-0.018192
22
0.102004
32
-0.010504
13
-0.018192
23
0.114004
33
-0.010504
0
3DFACE
8
default
62
30
10
-0.021000
20
0.114004
30
-0.000004
11
-0.018192
21
0.114004
31
-0.010504
12
-0.018192
22
0.102004
32
-0.010504
13
-0.021000
23
0.114004
33
-0.000004
0
3DFACE
8
default
62
30
10
-0.021000
20
0.114004
30
-0.000004
11
-0.018192
21
0.102004
31
-0.010504
12
-0.021000
22
0.102004
32
-0.000004
13
-0.021000
23
0.114004
33
-0.000004
0
3DFACE
8
default
62
30
10
-0.018192
20
0.114004
30
0.010496
11
-0.021000
21
0.114004
31
-0.000004
12
-0.021000
22
0.102004
32
-0.000004
13
-0.018192
23
0.114004
33
0.010496
0
3DFACE
8
default
62
30
10
-0.018192
20
0.114004
30
0.010496
11
-0.021000
21
0.102004
31
-0.000004
12
-0.018192
22
0.102004
32
0.010496
13
-0.018192
23
0.114004
33
0.010496
0
3DFACE
8
default
62
30
10
-0.010500
20
0.114004
30
0.018188
11
-0.018192
21
0.114004
31
0.010496
12
-0.018192
22
0.102004
32
0.010496
13
-0.010500
23
0.114004
33
0.018188
0
3DFACE
8
default
62
30
10
-0.010500
20
0.114004
30
0.018188
11
-0.018192
21
0.102004
31
0.010496
12
-0.010500
22
0.102004
32
0.018188
13
-0.010500
23
0.114004
33
0.018188
0
3DFACE
8
default
62
30
10
0.000000
20
0.114004
30
0.020996
11
-0.010500
21
0.114004
31
0.018188
12
-0.010500
22
0.102004
32
0.018188
13
0.000000
23
0.114004
33
0.020996
0
3DFACE
8
default
62
30
10
0.000000
20
0.114004
30
0.020996
11
-0.010500
21
0.102004
31
0.018188
12
0.000000
22
0.102004
32
0.020996
13
0.000000
23
0.114004
33
0.020996
0
3DFACE
8
default
62
30
10
-0.024996
20
0.000004
30
-0.021448
11
-0.024996
21
0.034564
31
-0.021448
12
-0.024996
22
0.020500
32
-0.035512
13
-0.024996
23
0.000004
33
-0.021448
0
3DFACE
8
default
62
30
10
0.025944
20
0.035512
30
0.020504
11
0.029448
21
0.036448
31
0.017000
12
0.029448
22
0.090004
32
0.017000
13
0.025944
23
0.035512
33
0.020504
0
3DFACE
8
default
62
30
10
0.029448
20
0.090004
30
0.017000
11
0.017004
21
0.090004
31
0.029444
12
0.017004
22
0.026560
32
0.029444
13
0.029448
23
0.090004
33
0.017000
0
3DFACE
8
default
62
30
10
0.029448
20
0.090004
30
0.017000
11
0.017004
21
0.026560
31
0.029444
12
0.025944
22
0.035512
32
0.020504
13
0.029448
23
0.090004
33
0.017000
0
3DFACE
8
default
62
30
10
0.025944
20
0.035512
30
-0.020500
11
0.017004
21
0.026560
31
-0.029440
12
0.017004
22
0.090004
32
-0.029440
13
0.025944
23
0.035512
33
-0.020500
0
3DFACE
8
default
62
30
10
0.017004
20
0.090004
30
-0.029440
11
0.029448
21
0.090004
31
-0.016996
12
0.029448
22
0.036448
32
-0.016996
13
0.017004
23
0.090004
33
-0.029440
0
3DFACE
8
default
62
30
10
0.017004
20
0.090004
30
-0.029440
11
0.029448
21
0.036448
31
-0.016996
12
0.025944
22
0.035512
32
-0.020500
13
0.017004
23
0.090004
33
-0.029440
0
3DFACE
8
default
62
30
10
-0.024996
20
0.034564
30
-0.021448
11
-0.024996
21
0.000004
31
-0.021448
12
-0.029448
22
0.000004
32
-0.016996
13
-0.024996
23
0.034564
33
-0.021448
0
3DFACE
8
default
62
30
10
-0.024996
20
0.034564
30
0.021440
11
-0.017004
21
0.026560
31
0.029444
12
-0.017004
22
0.090004
32
0.029444
13
-0.024996
23
0.034564
33
0.021440
0
3DFACE
8
default
62
30
10
-0.024996
20
0.000004
30
-0.021448
11
-0.024996
21
0.020500
31
-0.035512
12
-0.024996
22
0.000004
32
-0.040996
13
-0.024996
23
0.000004
33
-0.021448
0
3DFACE
8
default
62
30
10
-0.029448
20
0.090004
30
-0.016996
11
-0.017004
21
0.090004
31
-0.029440
12
-0.017004
22
0.026560
32
-0.029440
13
-0.029448
23
0.090004
33
-0.016996
0
3DFACE
8
default
62
30
10
-0.029448
20
0.090004
30
-0.016996
11
-0.017004
21
0.026560
31
-0.029440
12
-0.024996
22
0.034564
32
-0.021448
13
-0.029448
23
0.090004
33
-0.016996
0
3DFACE
8
default
62
30
10
-0.024996
20
0.034564
30
-0.021448
11
-0.029448
21
0.000004
31
-0.016996
12
-0.029448
22
0.090004
32
-0.016996
13
-0.024996
23
0.034564
33
-0.021448
0
3DFACE
8
default
62
30
10
-0.029448
20
0.090004
30
0.017000
11
-0.029448
21
0.000004
31
0.017000
12
-0.024996
22
0.000004
32
0.021440
13
-0.029448
23
0.090004
33
0.017000
0
3DFACE
8
default
62
30
10
-0.029448
20
0.090004
30
0.017000
11
-0.024996
21
0.000004
31
0.021440
12
-0.024996
22
0.034564
32
0.021440
13
-0.029448
23
0.090004
33
0.017000
0
3DFACE
8
default
62
30
10
-0.024996
20
0.034564
30
0.021440
11
-0.017004
21
0.090004
31
0.029444
12
-0.029448
22
0.090004
32
0.017000
13
-0.024996
23
0.034564
33
0.021440
0
3DFACE
8
default
62
30
10
-0.024996
20
0.000004
30
0.021440
11
-0.024996
21
0.000004
31
-0.021448
12
-0.024996
22
0.000004
32
-0.040996
13
-0.024996
23
0.000004
33
0.021440
0
3DFACE
8
default
62
30
10
-0.024996
20
0.000004
30
0.021440
11
-0.024996
21
0.000004
31
-0.040996
12
-0.024996
22
-0.020504
32
-0.035512
13
-0.024996
23
0.000004
33
0.021440
0
3DFACE
8
default
62
30
10
-0.024996
20
0.000004
30
0.021440
11
-0.024996
21
-0.020504
31
-0.035512
12
-0.024996
22
-0.035504
32
-0.020500
13
-0.024996
23
0.000004
33
0.021440
0
3DFACE
8
default
62
30
10
-0.024996
20
0.000004
30
0.021440
11
-0.024996
21
-0.035504
31
-0.020500
12
-0.024996
22
-0.041000
32
-0.000004
13
-0.024996
23
0.000004
33
0.021440
0
3DFACE
8
default
62
30
10
-0.024996
20
0.000004
30
0.021440
11
-0.024996
21
-0.041000
31
-0.000004
12
-0.024996
22
-0.035504
32
0.020504
13
-0.024996
23
0.000004
33
0.021440
0
3DFACE
8
default
62
30
10
-0.024996
20
-0.020504
30
0.035504
11
-0.024996
21
0.000004
31
0.041000
12
-0.024996
22
0.020500
32
0.035504
13
-0.024996
23
-0.020504
33
0.035504
0
3DFACE
8
default
62
30
10
-0.024996
20
-0.020504
30
0.035504
11
-0.024996
21
0.020500
31
0.035504
12
-0.024996
22
0.034564
32
0.021440
13
-0.024996
23
-0.020504
33
0.035504
0
3DFACE
8
default
62
30
10
-0.024996
20
-0.020504
30
0.035504
11
-0.024996
21
0.034564
31
0.021440
12
-0.024996
22
0.000004
32
0.021440
13
-0.024996
23
-0.020504
33
0.035504
0
3DFACE
8
default
62
30
10
-0.024996
20
0.000004
30
0.021440
11
-0.024996
21
-0.035504
31
0.020504
12
-0.024996
22
-0.020504
32
0.035504
13
-0.024996
23
0.000004
33
0.021440
0
ENDSEC
0
EOF
