0
SECTION
2
ENTITIES
0
3DFACE
8
default
62
251
10
-0.011004
20
-0.011500
30
0.019052
11
-0.019056
21
-0.011500
31
0.011000
12
-0.021996
22
-0.011500
32
-0.000004
13
-0.011004
23
-0.011500
33
0.019052
0
3DFACE
8
default
62
251
10
-0.011004
20
-0.011500
30
0.019052
11
-0.021996
21
-0.011500
31
-0.000004
12
-0.019056
22
-0.011500
32
-0.010996
13
-0.011004
23
-0.011500
33
0.019052
0
3DFACE
8
default
62
251
10
-0.011004
20
-0.011500
30
0.019052
11
-0.019056
21
-0.011500
31
-0.010996
12
-0.011004
22
-0.011500
32
-0.019048
13
-0.011004
23
-0.011500
33
0.019052
0
3DFACE
8
default
62
251
10
-0.011004
20
-0.011500
30
0.019052
11
-0.011004
21
-0.011500
31
-0.019048
12
0.000000
22
-0.011500
32
-0.022000
13
-0.011004
23
-0.011500
33
0.019052
0
3DFACE
8
default
62
251
10
-0.011004
20
-0.011500
30
0.019052
11
0.000000
21
-0.011500
31
-0.022000
12
0.011004
22
-0.011500
32
-0.019048
13
-0.011004
23
-0.011500
33
0.019052
0
3DFACE
8
default
62
251
10
-0.011004
20
-0.011500
30
0.019052
11
0.011004
21
-0.011500
31
-0.019048
12
0.019056
22
-0.011500
32
-0.010996
13
-0.011004
23
-0.011500
33
0.019052
0
3DFACE
8
default
62
251
10
-0.011004
20
-0.011500
30
0.019052
11
0.019056
21
-0.011500
31
-0.010996
12
0.021996
22
-0.011500
32
-0.000004
13
-0.011004
23
-0.011500
33
0.019052
0
3DFACE
8
default
62
251
10
-0.011004
20
-0.011500
30
0.019052
11
0.021996
21
-0.011500
31
-0.000004
12
0.019056
22
-0.011500
32
0.011000
13
-0.011004
23
-0.011500
33
0.019052
0
3DFACE
8
default
62
251
10
-0.011004
20
-0.011500
30
0.019052
11
0.019056
21
-0.011500
31
0.011000
12
0.011004
22
-0.011500
32
0.019052
13
-0.011004
23
-0.011500
33
0.019052
0
3DFACE
8
default
62
251
10
-0.011004
20
-0.011500
30
0.019052
11
0.011004
21
-0.011500
31
0.019052
12
0.000000
22
-0.011500
32
0.022004
13
-0.011004
23
-0.011500
33
0.019052
0
3DFACE
8
default
62
251
10
0.011004
20
-0.006004
30
0.019052
11
0.000000
21
-0.006004
31
0.022004
12
0.000000
22
-0.011500
32
0.022004
13
0.011004
23
-0.006004
33
0.019052
0
3DFACE
8
default
62
251
10
0.011004
20
-0.006004
30
0.019052
11
0.000000
21
-0.011500
31
0.022004
12
0.011004
22
-0.011500
32
0.019052
13
0.011004
23
-0.006004
33
0.019052
0
3DFACE
8
default
62
251
10
0.019056
20
-0.006004
30
0.011000
11
0.011004
21
-0.006004
31
0.019052
12
0.011004
22
-0.011500
32
0.019052
13
0.019056
23
-0.006004
33
0.011000
0
3DFACE
8
default
62
251
10
0.019056
20
-0.006004
30
0.011000
11
0.011004
21
-0.011500
31
0.019052
12
0.019056
22
-0.011500
32
0.011000
13
0.019056
23
-0.006004
33
0.011000
0
3DFACE
8
default
62
251
10
0.021996
20
-0.006004
30
-0.000004
11
0.019056
21
-0.006004
31
0.011000
12
0.019056
22
-0.011500
32
0.011000
13
0.021996
23
-0.006004
33
-0.000004
0
3DFACE
8
default
62
251
10
0.021996
20
-0.006004
30
-0.000004
11
0.019056
21
-0.011500
31
0.011000
12
0.021996
22
-0.011500
32
-0.000004
13
0.021996
23
-0.006004
33
-0.000004
0
3DFACE
8
default
62
251
10
0.019056
20
-0.006004
30
-0.010996
11
0.021996
21
-0.006004
31
-0.000004
12
0.021996
22
-0.011500
32
-0.000004
13
0.019056
23
-0.006004
33
-0.010996
0
3DFACE
8
default
62
251
10
0.019056
20
-0.006004
30
-0.010996
11
0.021996
21
-0.011500
31
-0.000004
12
0.019056
22
-0.011500
32
-0.010996
13
0.019056
23
-0.006004
33
-0.010996
0
3DFACE
8
default
62
251
10
0.011004
20
-0.006004
30
-0.019048
11
0.019056
21
-0.006004
31
-0.010996
12
0.019056
22
-0.011500
32
-0.010996
13
0.011004
23
-0.006004
33
-0.019048
0
3DFACE
8
default
62
251
10
0.011004
20
-0.006004
30
-0.019048
11
0.019056
21
-0.011500
31
-0.010996
12
0.011004
22
-0.011500
32
-0.019048
13
0.011004
23
-0.006004
33
-0.019048
0
3DFACE
8
default
62
251
10
0.000000
20
-0.006004
30
-0.022000
11
0.011004
21
-0.006004
31
-0.019048
12
0.011004
22
-0.011500
32
-0.019048
13
0.000000
23
-0.006004
33
-0.022000
0
3DFACE
8
default
62
251
10
0.000000
20
-0.006004
30
-0.022000
11
0.011004
21
-0.011500
31
-0.019048
12
0.000000
22
-0.011500
32
-0.022000
13
0.000000
23
-0.006004
33
-0.022000
0
3DFACE
8
default
62
251
10
-0.011004
20
-0.006004
30
-0.019048
11
0.000000
21
-0.006004
31
-0.022000
12
0.000000
22
-0.011500
32
-0.022000
13
-0.011004
23
-0.006004
33
-0.019048
0
3DFACE
8
default
62
251
10
-0.011004
20
-0.006004
30
-0.019048
11
0.000000
21
-0.011500
31
-0.022000
12
-0.011004
22
-0.011500
32
-0.019048
13
-0.011004
23
-0.006004
33
-0.019048
0
3DFACE
8
default
62
251
10
-0.019056
20
-0.006004
30
-0.010996
11
-0.011004
21
-0.006004
31
-0.019048
12
-0.011004
22
-0.011500
32
-0.019048
13
-0.019056
23
-0.006004
33
-0.010996
0
3DFACE
8
default
62
251
10
-0.019056
20
-0.006004
30
-0.010996
11
-0.011004
21
-0.011500
31
-0.019048
12
-0.019056
22
-0.011500
32
-0.010996
13
-0.019056
23
-0.006004
33
-0.010996
0
3DFACE
8
default
62
251
10
-0.021996
20
-0.006004
30
-0.000004
11
-0.019056
21
-0.006004
31
-0.010996
12
-0.019056
22
-0.011500
32
-0.010996
13
-0.021996
23
-0.006004
33
-0.000004
0
3DFACE
8
default
62
251
10
-0.021996
20
-0.006004
30
-0.000004
11
-0.019056
21
-0.011500
31
-0.010996
12
-0.021996
22
-0.011500
32
-0.000004
13
-0.021996
23
-0.006004
33
-0.000004
0
3DFACE
8
default
62
251
10
-0.019056
20
-0.006004
30
0.011000
11
-0.021996
21
-0.006004
31
-0.000004
12
-0.021996
22
-0.011500
32
-0.000004
13
-0.019056
23
-0.006004
33
0.011000
0
3DFACE
8
default
62
251
10
-0.019056
20
-0.006004
30
0.011000
11
-0.021996
21
-0.011500
31
-0.000004
12
-0.019056
22
-0.011500
32
0.011000
13
-0.019056
23
-0.006004
33
0.011000
0
3DFACE
8
default
62
251
10
-0.011004
20
-0.006004
30
0.019052
11
-0.019056
21
-0.006004
31
0.011000
12
-0.019056
22
-0.011500
32
0.011000
13
-0.011004
23
-0.006004
33
0.019052
0
3DFACE
8
default
62
251
10
-0.011004
20
-0.006004
30
0.019052
11
-0.019056
21
-0.011500
31
0.011000
12
-0.011004
22
-0.011500
32
0.019052
13
-0.011004
23
-0.006004
33
0.019052
0
3DFACE
8
default
62
251
10
0.000000
20
-0.006004
30
0.022004
11
-0.011004
21
-0.006004
31
0.019052
12
-0.011004
22
-0.011500
32
0.019052
13
0.000000
23
-0.006004
33
0.022004
0
3DFACE
8
default
62
251
10
0.000000
20
-0.006004
30
0.022004
11
-0.011004
21
-0.011500
31
0.019052
12
0.000000
22
-0.011500
32
0.022004
13
0.000000
23
-0.006004
33
0.022004
0
3DFACE
8
default
62
251
10
-0.015504
20
-0.006004
30
0.026852
11
-0.026844
21
-0.006004
31
0.015500
12
-0.030996
22
-0.006004
32
-0.000004
13
-0.015504
23
-0.006004
33
0.026852
0
3DFACE
8
default
62
251
10
-0.015504
20
-0.006004
30
0.026852
11
-0.030996
21
-0.006004
31
-0.000004
12
-0.026844
22
-0.006004
32
-0.015496
13
-0.015504
23
-0.006004
33
0.026852
0
3DFACE
8
default
62
251
10
-0.015504
20
-0.006004
30
0.026852
11
-0.026844
21
-0.006004
31
-0.015496
12
-0.015504
22
-0.006004
32
-0.026848
13
-0.015504
23
-0.006004
33
0.026852
0
3DFACE
8
default
62
251
10
-0.015504
20
-0.006004
30
0.026852
11
-0.015504
21
-0.006004
31
-0.026848
12
0.000000
22
-0.006004
32
-0.031000
13
-0.015504
23
-0.006004
33
0.026852
0
3DFACE
8
default
62
251
10
-0.015504
20
-0.006004
30
0.026852
11
0.000000
21
-0.006004
31
-0.031000
12
0.015504
22
-0.006004
32
-0.026848
13
-0.015504
23
-0.006004
33
0.026852
0
3DFACE
8
default
62
251
10
-0.015504
20
-0.006004
30
0.026852
11
0.015504
21
-0.006004
31
-0.026848
12
0.026844
22
-0.006004
32
-0.015496
13
-0.015504
23
-0.006004
33
0.026852
0
3DFACE
8
default
62
251
10
-0.015504
20
-0.006004
30
0.026852
11
0.026844
21
-0.006004
31
-0.015496
12
0.030996
22
-0.006004
32
-0.000004
13
-0.015504
23
-0.006004
33
0.026852
0
3DFACE
8
default
62
251
10
-0.015504
20
-0.006004
30
0.026852
11
0.030996
21
-0.006004
31
-0.000004
12
0.026844
22
-0.006004
32
0.015500
13
-0.015504
23
-0.006004
33
0.026852
0
3DFACE
8
default
62
251
10
-0.015504
20
-0.006004
30
0.026852
11
0.026844
21
-0.006004
31
0.015500
12
0.015504
22
-0.006004
32
0.026852
13
-0.015504
23
-0.006004
33
0.026852
0
3DFACE
8
default
62
251
10
-0.015504
20
-0.006004
30
0.026852
11
0.015504
21
-0.006004
31
0.026852
12
0.000000
22
-0.006004
32
0.031004
13
-0.015504
23
-0.006004
33
0.026852
0
3DFACE
8
default
62
251
10
0.011004
20
-0.006004
30
0.019052
11
0.019056
21
-0.006004
31
0.011000
12
0.021996
22
-0.006004
32
-0.000004
13
0.011004
23
-0.006004
33
0.019052
0
3DFACE
8
default
62
251
10
0.011004
20
-0.006004
30
0.019052
11
0.021996
21
-0.006004
31
-0.000004
12
0.019056
22
-0.006004
32
-0.010996
13
0.011004
23
-0.006004
33
0.019052
0
3DFACE
8
default
62
251
10
0.011004
20
-0.006004
30
0.019052
11
0.019056
21
-0.006004
31
-0.010996
12
0.011004
22
-0.006004
32
-0.019048
13
0.011004
23
-0.006004
33
0.019052
0
3DFACE
8
default
62
251
10
0.011004
20
-0.006004
30
0.019052
11
0.011004
21
-0.006004
31
-0.019048
12
0.000000
22
-0.006004
32
-0.022000
13
0.011004
23
-0.006004
33
0.019052
0
3DFACE
8
default
62
251
10
0.011004
20
-0.006004
30
0.019052
11
0.000000
21
-0.006004
31
-0.022000
12
-0.011004
22
-0.006004
32
-0.019048
13
0.011004
23
-0.006004
33
0.019052
0
3DFACE
8
default
62
251
10
0.011004
20
-0.006004
30
0.019052
11
-0.011004
21
-0.006004
31
-0.019048
12
-0.019056
22
-0.006004
32
-0.010996
13
0.011004
23
-0.006004
33
0.019052
0
3DFACE
8
default
62
251
10
0.011004
20
-0.006004
30
0.019052
11
-0.019056
21
-0.006004
31
-0.010996
12
-0.021996
22
-0.006004
32
-0.000004
13
0.011004
23
-0.006004
33
0.019052
0
3DFACE
8
default
62
251
10
0.011004
20
-0.006004
30
0.019052
11
-0.021996
21
-0.006004
31
-0.000004
12
-0.019056
22
-0.006004
32
0.011000
13
0.011004
23
-0.006004
33
0.019052
0
3DFACE
8
default
62
251
10
0.011004
20
-0.006004
30
0.019052
11
-0.019056
21
-0.006004
31
0.011000
12
-0.011004
22
-0.006004
32
0.019052
13
0.011004
23
-0.006004
33
0.019052
0
3DFACE
8
default
62
251
10
0.011004
20
-0.006004
30
0.019052
11
-0.011004
21
-0.006004
31
0.019052
12
0.000000
22
-0.006004
32
0.022004
13
0.011004
23
-0.006004
33
0.019052
0
3DFACE
8
default
62
251
10
0.015504
20
-0.000004
30
0.026852
11
0.026844
21
-0.000004
31
0.015500
12
0.030996
22
-0.000004
32
-0.000004
13
0.015504
23
-0.000004
33
0.026852
0
3DFACE
8
default
62
251
10
0.015504
20
-0.000004
30
0.026852
11
0.030996
21
-0.000004
31
-0.000004
12
0.026844
22
-0.000004
32
-0.015496
13
0.015504
23
-0.000004
33
0.026852
0
3DFACE
8
default
62
251
10
0.015504
20
-0.000004
30
0.026852
11
0.026844
21
-0.000004
31
-0.015496
12
0.015504
22
-0.000004
32
-0.026848
13
0.015504
23
-0.000004
33
0.026852
0
3DFACE
8
default
62
251
10
0.015504
20
-0.000004
30
0.026852
11
0.015504
21
-0.000004
31
-0.026848
12
0.000000
22
-0.000004
32
-0.031000
13
0.015504
23
-0.000004
33
0.026852
0
3DFACE
8
default
62
251
10
0.015504
20
-0.000004
30
0.026852
11
0.000000
21
-0.000004
31
-0.031000
12
-0.015504
22
-0.000004
32
-0.026848
13
0.015504
23
-0.000004
33
0.026852
0
3DFACE
8
default
62
251
10
0.015504
20
-0.000004
30
0.026852
11
-0.015504
21
-0.000004
31
-0.026848
12
-0.026844
22
-0.000004
32
-0.015496
13
0.015504
23
-0.000004
33
0.026852
0
3DFACE
8
default
62
251
10
0.015504
20
-0.000004
30
0.026852
11
-0.026844
21
-0.000004
31
-0.015496
12
-0.030996
22
-0.000004
32
-0.000004
13
0.015504
23
-0.000004
33
0.026852
0
3DFACE
8
default
62
251
10
0.015504
20
-0.000004
30
0.026852
11
-0.030996
21
-0.000004
31
-0.000004
12
-0.026844
22
-0.000004
32
0.015500
13
0.015504
23
-0.000004
33
0.026852
0
3DFACE
8
default
62
251
10
0.015504
20
-0.000004
30
0.026852
11
-0.026844
21
-0.000004
31
0.015500
12
-0.015504
22
-0.000004
32
0.026852
13
0.015504
23
-0.000004
33
0.026852
0
3DFACE
8
default
62
251
10
0.015504
20
-0.000004
30
0.026852
11
-0.015504
21
-0.000004
31
0.026852
12
0.000000
22
-0.000004
32
0.031004
13
0.015504
23
-0.000004
33
0.026852
0
3DFACE
8
default
62
251
10
0.015504
20
-0.000004
30
0.026852
11
0.000000
21
-0.000004
31
0.031004
12
0.000000
22
-0.006004
32
0.031004
13
0.015504
23
-0.000004
33
0.026852
0
3DFACE
8
default
62
251
10
0.015504
20
-0.000004
30
0.026852
11
0.000000
21
-0.006004
31
0.031004
12
0.015504
22
-0.006004
32
0.026852
13
0.015504
23
-0.000004
33
0.026852
0
3DFACE
8
default
62
251
10
0.026844
20
-0.000004
30
0.015500
11
0.015504
21
-0.000004
31
0.026852
12
0.015504
22
-0.006004
32
0.026852
13
0.026844
23
-0.000004
33
0.015500
0
3DFACE
8
default
62
251
10
0.026844
20
-0.000004
30
0.015500
11
0.015504
21
-0.006004
31
0.026852
12
0.026844
22
-0.006004
32
0.015500
13
0.026844
23
-0.000004
33
0.015500
0
3DFACE
8
default
62
251
10
0.030996
20
-0.000004
30
-0.000004
11
0.026844
21
-0.000004
31
0.015500
12
0.026844
22
-0.006004
32
0.015500
13
0.030996
23
-0.000004
33
-0.000004
0
3DFACE
8
default
62
251
10
0.030996
20
-0.000004
30
-0.000004
11
0.026844
21
-0.006004
31
0.015500
12
0.030996
22
-0.006004
32
-0.000004
13
0.030996
23
-0.000004
33
-0.000004
0
3DFACE
8
default
62
251
10
0.026844
20
-0.000004
30
-0.015496
11
0.030996
21
-0.000004
31
-0.000004
12
0.030996
22
-0.006004
32
-0.000004
13
0.026844
23
-0.000004
33
-0.015496
0
3DFACE
8
default
62
251
10
0.026844
20
-0.000004
30
-0.015496
11
0.030996
21
-0.006004
31
-0.000004
12
0.026844
22
-0.006004
32
-0.015496
13
0.026844
23
-0.000004
33
-0.015496
0
3DFACE
8
default
62
251
10
0.015504
20
-0.000004
30
-0.026848
11
0.026844
21
-0.000004
31
-0.015496
12
0.026844
22
-0.006004
32
-0.015496
13
0.015504
23
-0.000004
33
-0.026848
0
3DFACE
8
default
62
251
10
0.015504
20
-0.000004
30
-0.026848
11
0.026844
21
-0.006004
31
-0.015496
12
0.015504
22
-0.006004
32
-0.026848
13
0.015504
23
-0.000004
33
-0.026848
0
3DFACE
8
default
62
251
10
0.000000
20
-0.000004
30
-0.031000
11
0.015504
21
-0.000004
31
-0.026848
12
0.015504
22
-0.006004
32
-0.026848
13
0.000000
23
-0.000004
33
-0.031000
0
3DFACE
8
default
62
251
10
0.000000
20
-0.000004
30
-0.031000
11
0.015504
21
-0.006004
31
-0.026848
12
0.000000
22
-0.006004
32
-0.031000
13
0.000000
23
-0.000004
33
-0.031000
0
3DFACE
8
default
62
251
10
-0.015504
20
-0.000004
30
-0.026848
11
0.000000
21
-0.000004
31
-0.031000
12
0.000000
22
-0.006004
32
-0.031000
13
-0.015504
23
-0.000004
33
-0.026848
0
3DFACE
8
default
62
251
10
-0.015504
20
-0.000004
30
-0.026848
11
0.000000
21
-0.006004
31
-0.031000
12
-0.015504
22
-0.006004
32
-0.026848
13
-0.015504
23
-0.000004
33
-0.026848
0
3DFACE
8
default
62
251
10
-0.026844
20
-0.000004
30
-0.015496
11
-0.015504
21
-0.000004
31
-0.026848
12
-0.015504
22
-0.006004
32
-0.026848
13
-0.026844
23
-0.000004
33
-0.015496
0
3DFACE
8
default
62
251
10
-0.026844
20
-0.000004
30
-0.015496
11
-0.015504
21
-0.006004
31
-0.026848
12
-0.026844
22
-0.006004
32
-0.015496
13
-0.026844
23
-0.000004
33
-0.015496
0
3DFACE
8
default
62
251
10
-0.030996
20
-0.000004
30
-0.000004
11
-0.026844
21
-0.000004
31
-0.015496
12
-0.026844
22
-0.006004
32
-0.015496
13
-0.030996
23
-0.000004
33
-0.000004
0
3DFACE
8
default
62
251
10
-0.030996
20
-0.000004
30
-0.000004
11
-0.026844
21
-0.006004
31
-0.015496
12
-0.030996
22
-0.006004
32
-0.000004
13
-0.030996
23
-0.000004
33
-0.000004
0
3DFACE
8
default
62
251
10
-0.026844
20
-0.000004
30
0.015500
11
-0.030996
21
-0.000004
31
-0.000004
12
-0.030996
22
-0.006004
32
-0.000004
13
-0.026844
23
-0.000004
33
0.015500
0
3DFACE
8
default
62
251
10
-0.026844
20
-0.000004
30
0.015500
11
-0.030996
21
-0.006004
31
-0.000004
12
-0.026844
22
-0.006004
32
0.015500
13
-0.026844
23
-0.000004
33
0.015500
0
3DFACE
8
default
62
251
10
-0.015504
20
-0.000004
30
0.026852
11
-0.026844
21
-0.000004
31
0.015500
12
-0.026844
22
-0.006004
32
0.015500
13
-0.015504
23
-0.000004
33
0.026852
0
3DFACE
8
default
62
251
10
-0.015504
20
-0.000004
30
0.026852
11
-0.026844
21
-0.006004
31
0.015500
12
-0.015504
22
-0.006004
32
0.026852
13
-0.015504
23
-0.000004
33
0.026852
0
3DFACE
8
default
62
251
10
0.000000
20
-0.000004
30
0.031004
11
-0.015504
21
-0.000004
31
0.026852
12
-0.015504
22
-0.006004
32
0.026852
13
0.000000
23
-0.000004
33
0.031004
0
3DFACE
8
default
62
251
10
0.000000
20
-0.000004
30
0.031004
11
-0.015504
21
-0.006004
31
0.026852
12
0.000000
22
-0.006004
32
0.031004
13
0.000000
23
-0.000004
33
0.031004
0
ENDSEC
0
EOF
