999
D:\1working\borghesani0402\dxf\pstrod.dxf
999
Converted by PolyTrans from Okino Computer Graphics, Inc.
999
Export options: Layer names derived from object names, Uses 3D FACE entity, Forced triangulation.
0
SECTION
2
HEADER
9
$ACADVER
1
AC1008
9
$UCSORG
10
0.0
20
0.0
30
0.0
9
$UCSXDIR
10
1
20
0.0
30
0.0
9
$TILEMODE
70
1
9
$UCSYDIR
10
0.0
20
0.0
30
1
9
$EXTMIN
10
-0.156682
20
0.558392
30
-0.555077
9
$EXTMAX
10
0.153318
20
-0.551187
30
2.07302
0
ENDSEC
0
SECTION
2
TABLES
0
TABLE
2
LTYPE
70
1
0
LTYPE
2
SOLIDLINE
70
64
3
Solid line
72
65
73
0
40
0.0
0
ENDTAB
0
TABLE
2
LAYER
70
8
0
LAYER
2
VIFS121
70
0
62
206
6
SOLIDLINE
0
LAYER
2
VIFS122
70
0
62
26
6
SOLIDLINE
0
LAYER
2
VIFS123
70
0
62
206
6
SOLIDLINE
0
LAYER
2
VIFS124
70
0
62
26
6
SOLIDLINE
0
LAYER
2
VIFS125
70
0
62
26
6
SOLIDLINE
0
LAYER
2
VIFS126
70
0
62
26
6
SOLIDLINE
0
LAYER
2
VIFS127
70
0
62
36
6
SOLIDLINE
0
LAYER
2
VIFS128
70
0
62
176
6
SOLIDLINE
0
ENDTAB
0
ENDSEC
0
SECTION
2
ENTITIES
0
3DFACE
8
VIFS121
62
206
10
-0.100155
20
-0.451574
30
0.36996
11
-0.0829918
21
-0.482849
31
0.339956
12
-0.0971489
22
-0.451208
32
0.370313
13
-0.0971489
23
-0.451208
33
0.370313
0
3DFACE
8
VIFS121
62
206
10
-0.0971489
20
-0.451208
30
0.370313
11
-0.0829918
21
-0.482849
31
0.339956
12
0.0773821
22
-0.484814
32
0.338314
13
0.0773821
23
-0.484814
33
0.338314
0
3DFACE
8
VIFS121
62
206
10
-0.0971489
20
-0.451208
30
0.370313
11
0.0773821
21
-0.484814
31
0.338314
12
0.0930681
22
-0.451507
32
0.370311
13
0.0930681
23
-0.451507
33
0.370311
0
3DFACE
8
VIFS121
62
206
10
0.0930681
20
-0.451507
30
0.370311
11
0.0773821
21
-0.484814
31
0.338314
12
0.0960822
22
-0.451884
32
0.369958
13
0.0960822
23
-0.451884
33
0.369958
0
3DFACE
8
VIFS121
62
206
10
-0.0555209
20
-0.499174
30
0.324324
11
0.0491932
21
-0.500725
31
0.322996
12
-0.0829918
22
-0.482849
32
0.339956
13
-0.0829918
23
-0.482849
33
0.339956
0
3DFACE
8
VIFS121
62
206
10
-0.0829918
20
-0.482849
30
0.339956
11
0.0491932
21
-0.500725
31
0.322996
12
0.0773821
22
-0.484814
32
0.338314
13
0.0773821
23
-0.484814
33
0.338314
0
3DFACE
8
VIFS122
62
26
10
-0.0917148
20
-0.480612
30
0.300147
11
-0.108342
21
-0.450799
31
0.300313
12
-0.0556588
22
-0.502151
32
0.300027
13
-0.0556588
23
-0.502151
33
0.300027
0
3DFACE
8
VIFS122
62
26
10
-0.0556588
20
-0.502151
30
0.300027
11
-0.108342
21
-0.450799
31
0.300313
12
0.104286
22
-0.451135
32
0.300312
13
0.104286
23
-0.451135
33
0.300312
0
3DFACE
8
VIFS122
62
26
10
-0.0556588
20
-0.502151
30
0.300027
11
0.104286
21
-0.451135
31
0.300312
12
0.0490551
22
-0.503711
32
0.300018
13
0.0490551
23
-0.503711
33
0.300018
0
3DFACE
8
VIFS122
62
26
10
0.0490551
20
-0.503711
30
0.300018
11
0.104286
21
-0.451135
31
0.300312
12
0.0860531
22
-0.482715
32
0.300135
13
0.0860531
23
-0.482715
33
0.300135
0
3DFACE
8
VIFS122
62
26
10
0.112005
20
-0.396825
30
0.300615
11
0.104286
21
-0.451135
31
0.300312
12
0.0404601
22
-0.340181
32
0.300932
13
0.0404601
23
-0.340181
33
0.300932
0
3DFACE
8
VIFS122
62
26
10
0.0404601
20
-0.340181
30
0.300932
11
0.104286
21
-0.451135
31
0.300312
12
-0.0438238
22
-0.340181
32
0.300932
13
-0.0438238
23
-0.340181
33
0.300932
0
3DFACE
8
VIFS122
62
26
10
0.104286
20
-0.451135
30
0.300312
11
-0.108342
21
-0.450799
31
0.300313
12
-0.0438238
22
-0.340181
32
0.300932
13
-0.0438238
23
-0.340181
33
0.300932
0
3DFACE
8
VIFS122
62
26
10
-0.0438238
20
-0.340181
30
0.300932
11
-0.108342
21
-0.450799
31
0.300313
12
-0.115355
22
-0.396782
32
0.300616
13
-0.115355
23
-0.396782
33
0.300616
0
3DFACE
8
VIFS122
62
26
10
-0.0438238
20
-0.350572
30
0.370875
11
-0.105667
21
-0.399651
31
0.370601
12
0.0404601
22
-0.350572
32
0.370875
13
0.0404601
23
-0.350572
33
0.370875
0
3DFACE
8
VIFS122
62
26
10
0.0404601
20
-0.350572
30
0.370875
11
-0.105667
21
-0.399651
31
0.370601
12
0.102294
22
-0.399605
32
0.370601
13
0.102294
23
-0.399605
33
0.370601
0
3DFACE
8
VIFS122
62
26
10
0.0930681
20
-0.451507
30
0.370311
11
0.102294
21
-0.399605
31
0.370601
12
-0.0971489
22
-0.451208
32
0.370313
13
-0.0971489
23
-0.451208
33
0.370313
0
3DFACE
8
VIFS122
62
26
10
-0.0971489
20
-0.451208
30
0.370313
11
0.102294
21
-0.399605
31
0.370601
12
-0.105667
22
-0.399651
32
0.370601
13
-0.105667
23
-0.399651
33
0.370601
0
3DFACE
8
VIFS122
62
26
10
0.0404601
20
-0.340516
30
0.360931
11
0.112005
21
-0.397161
31
0.360614
12
0.0404601
22
-0.340181
32
0.300932
13
0.0404601
23
-0.340181
33
0.300932
0
3DFACE
8
VIFS122
62
26
10
0.0404601
20
-0.340181
30
0.300932
11
0.112005
21
-0.397161
31
0.360614
12
0.112005
22
-0.396825
32
0.300615
13
0.112005
23
-0.396825
33
0.300615
0
3DFACE
8
VIFS122
62
26
10
0.112005
20
-0.396825
30
0.300615
11
0.112005
21
-0.397161
31
0.360614
12
0.104286
22
-0.451135
32
0.300312
13
0.104286
23
-0.451135
33
0.300312
0
3DFACE
8
VIFS122
62
26
10
0.104286
20
-0.451135
30
0.300312
11
0.112005
21
-0.397161
31
0.360614
12
0.104278
22
-0.451486
32
0.360781
13
0.104278
23
-0.451486
33
0.360781
0
3DFACE
8
VIFS122
62
26
10
-0.0438238
20
-0.340181
30
0.300932
11
-0.0438238
21
-0.340516
31
0.360931
12
0.0404601
22
-0.340181
32
0.300932
13
0.0404601
23
-0.340181
33
0.300932
0
3DFACE
8
VIFS122
62
26
10
0.0404601
20
-0.340181
30
0.300932
11
-0.0438238
21
-0.340516
31
0.360931
12
0.0404601
22
-0.340516
32
0.360931
13
0.0404601
23
-0.340516
33
0.360931
0
3DFACE
8
VIFS122
62
26
10
-0.115355
20
-0.396782
30
0.300616
11
-0.115355
21
-0.397116
31
0.360615
12
-0.0438238
22
-0.340181
32
0.300932
13
-0.0438238
23
-0.340181
33
0.300932
0
3DFACE
8
VIFS122
62
26
10
-0.0438238
20
-0.340181
30
0.300932
11
-0.115355
21
-0.397116
31
0.360615
12
-0.0438238
22
-0.340516
32
0.360931
13
-0.0438238
23
-0.340516
33
0.360931
0
3DFACE
8
VIFS122
62
26
10
-0.108339
20
-0.451141
30
0.360743
11
-0.115355
21
-0.397116
31
0.360615
12
-0.108342
22
-0.450799
32
0.300313
13
-0.108342
23
-0.450799
33
0.300313
0
3DFACE
8
VIFS122
62
26
10
-0.108342
20
-0.450799
30
0.300313
11
-0.115355
21
-0.397116
31
0.360615
12
-0.115355
22
-0.396782
32
0.300616
13
-0.115355
23
-0.396782
33
0.300616
0
3DFACE
8
VIFS122
62
26
10
-0.0917148
20
-0.480612
30
0.300147
11
-0.0917148
21
-0.480794
31
0.332716
12
-0.108342
22
-0.450799
32
0.300313
13
-0.108342
23
-0.450799
33
0.300313
0
3DFACE
8
VIFS122
62
26
10
-0.108342
20
-0.450799
30
0.300313
11
-0.0917148
21
-0.480794
31
0.332716
12
-0.108339
22
-0.451141
32
0.360743
13
-0.108339
23
-0.451141
33
0.360743
0
3DFACE
8
VIFS122
62
26
10
-0.0556588
20
-0.502151
30
0.300027
11
-0.0556588
21
-0.502246
31
0.317057
12
-0.0917148
22
-0.480612
32
0.300147
13
-0.0917148
23
-0.480612
33
0.300147
0
3DFACE
8
VIFS122
62
26
10
-0.0917148
20
-0.480612
30
0.300147
11
-0.0556588
21
-0.502246
31
0.317057
12
-0.0917148
22
-0.480794
32
0.332716
13
-0.0917148
23
-0.480794
33
0.332716
0
3DFACE
8
VIFS122
62
26
10
0.0490551
20
-0.503711
30
0.300018
11
0.0490551
21
-0.503799
31
0.315718
12
-0.0556588
22
-0.502151
32
0.300027
13
-0.0556588
23
-0.502151
33
0.300027
0
3DFACE
8
VIFS122
62
26
10
-0.0556588
20
-0.502151
30
0.300027
11
0.0490551
21
-0.503799
31
0.315718
12
-0.0556588
22
-0.502246
32
0.317057
13
-0.0556588
23
-0.502246
33
0.317057
0
3DFACE
8
VIFS122
62
26
10
0.0860531
20
-0.482888
30
0.331065
11
0.0490551
21
-0.503799
31
0.315718
12
0.0860531
22
-0.482715
32
0.300135
13
0.0860531
23
-0.482715
33
0.300135
0
3DFACE
8
VIFS122
62
26
10
0.0860531
20
-0.482715
30
0.300135
11
0.0490551
21
-0.503799
31
0.315718
12
0.0490551
22
-0.503711
32
0.300018
13
0.0490551
23
-0.503711
33
0.300018
0
3DFACE
8
VIFS122
62
26
10
0.104278
20
-0.451486
30
0.360781
11
0.0860531
21
-0.482888
31
0.331065
12
0.104286
22
-0.451135
32
0.300312
13
0.104286
23
-0.451135
33
0.300312
0
3DFACE
8
VIFS122
62
26
10
0.104286
20
-0.451135
30
0.300312
11
0.0860531
21
-0.482888
31
0.331065
12
0.0860531
22
-0.482715
32
0.300135
13
0.0860531
23
-0.482715
33
0.300135
0
3DFACE
8
VIFS122
62
26
10
0.102294
20
-0.399605
30
0.370601
11
0.107043
21
-0.39843
31
0.369327
12
0.0404601
22
-0.345675
32
0.369622
13
0.0404601
23
-0.345675
33
0.369622
0
3DFACE
8
VIFS122
62
26
10
0.0404601
20
-0.345675
30
0.369622
11
0.107043
21
-0.39843
31
0.369327
12
0.0404601
22
-0.341821
32
0.365813
13
0.0404601
23
-0.341821
33
0.365813
0
3DFACE
8
VIFS122
62
26
10
0.0404601
20
-0.345675
30
0.369622
11
0.0404601
21
-0.350572
31
0.370875
12
0.102294
22
-0.399605
32
0.370601
13
0.102294
23
-0.399605
33
0.370601
0
3DFACE
8
VIFS122
62
26
10
0.107043
20
-0.39843
30
0.369327
11
0.110764
21
-0.397492
31
0.365502
12
0.0404601
22
-0.341821
32
0.365813
13
0.0404601
23
-0.341821
33
0.365813
0
3DFACE
8
VIFS122
62
26
10
0.0404601
20
-0.341821
30
0.365813
11
0.110764
21
-0.397492
31
0.365502
12
0.0404601
22
-0.340516
32
0.360931
13
0.0404601
23
-0.340516
33
0.360931
0
3DFACE
8
VIFS122
62
26
10
0.110764
20
-0.397492
30
0.365502
11
0.112005
21
-0.397161
31
0.360614
12
0.0404601
22
-0.340516
32
0.360931
13
0.0404601
23
-0.340516
33
0.360931
0
3DFACE
8
VIFS122
62
26
10
0.0930681
20
-0.451507
30
0.370311
11
0.0960572
21
-0.451928
31
0.369908
12
0.102294
22
-0.399605
32
0.370601
13
0.102294
23
-0.399605
33
0.370601
0
3DFACE
8
VIFS122
62
26
10
0.102294
20
-0.399605
30
0.370601
11
0.0960572
21
-0.451928
31
0.369908
12
0.107043
22
-0.39843
32
0.369327
13
0.107043
23
-0.39843
33
0.369327
0
3DFACE
8
VIFS122
62
26
10
0.112005
20
-0.397161
30
0.360614
11
0.110764
21
-0.397492
31
0.365502
12
0.104278
22
-0.451486
32
0.360781
13
0.104278
23
-0.451486
33
0.360781
0
3DFACE
8
VIFS122
62
26
10
0.104278
20
-0.451486
30
0.360781
11
0.110764
21
-0.397492
31
0.365502
12
0.0960572
22
-0.451928
32
0.369908
13
0.0960572
23
-0.451928
33
0.369908
0
3DFACE
8
VIFS122
62
26
10
0.110764
20
-0.397492
30
0.365502
11
0.107043
21
-0.39843
31
0.369327
12
0.0960572
22
-0.451928
32
0.369908
13
0.0960572
23
-0.451928
33
0.369908
0
3DFACE
8
VIFS122
62
26
10
0.0404601
20
-0.350572
30
0.370875
11
0.0404601
21
-0.345675
31
0.369622
12
-0.0438238
22
-0.350572
32
0.370875
13
-0.0438238
23
-0.350572
33
0.370875
0
3DFACE
8
VIFS122
62
26
10
-0.0438238
20
-0.350572
30
0.370875
11
0.0404601
21
-0.345675
31
0.369622
12
-0.0438238
22
-0.345675
32
0.369622
13
-0.0438238
23
-0.345675
33
0.369622
0
3DFACE
8
VIFS122
62
26
10
0.0404601
20
-0.345675
30
0.369622
11
0.0404601
21
-0.341821
31
0.365813
12
-0.0438238
22
-0.345675
32
0.369622
13
-0.0438238
23
-0.345675
33
0.369622
0
3DFACE
8
VIFS122
62
26
10
-0.0438238
20
-0.345675
30
0.369622
11
0.0404601
21
-0.341821
31
0.365813
12
-0.0438238
22
-0.341821
32
0.365813
13
-0.0438238
23
-0.341821
33
0.365813
0
3DFACE
8
VIFS122
62
26
10
-0.0438238
20
-0.340516
30
0.360931
11
-0.0438238
21
-0.341821
31
0.365813
12
0.0404601
22
-0.340516
32
0.360931
13
0.0404601
23
-0.340516
33
0.360931
0
3DFACE
8
VIFS122
62
26
10
0.0404601
20
-0.340516
30
0.360931
11
-0.0438238
21
-0.341821
31
0.365813
12
0.0404601
22
-0.341821
32
0.365813
13
0.0404601
23
-0.341821
33
0.365813
0
3DFACE
8
VIFS122
62
26
10
-0.0438238
20
-0.350572
30
0.370875
11
-0.0438238
21
-0.345675
31
0.369622
12
-0.105623
22
-0.399472
32
0.370601
13
-0.105623
23
-0.399472
33
0.370601
0
3DFACE
8
VIFS122
62
26
10
-0.105623
20
-0.399472
30
0.370601
11
-0.0438238
21
-0.345675
31
0.369622
12
-0.110405
22
-0.398431
32
0.369328
13
-0.110405
23
-0.398431
33
0.369328
0
3DFACE
8
VIFS122
62
26
10
-0.110405
20
-0.398431
30
0.369328
11
-0.0438238
21
-0.341821
31
0.365813
12
-0.114117
22
-0.39746
32
0.365502
13
-0.114117
23
-0.39746
33
0.365502
0
3DFACE
8
VIFS122
62
26
10
-0.114117
20
-0.39746
30
0.365502
11
-0.0438238
21
-0.341821
31
0.365813
12
-0.0438238
22
-0.340516
32
0.360931
13
-0.0438238
23
-0.340516
33
0.360931
0
3DFACE
8
VIFS122
62
26
10
-0.114117
20
-0.39746
30
0.365502
11
-0.0438238
21
-0.340516
31
0.360931
12
-0.115355
22
-0.397116
32
0.360615
13
-0.115355
23
-0.397116
33
0.360615
0
3DFACE
8
VIFS122
62
26
10
-0.0438238
20
-0.345675
30
0.369622
11
-0.0438238
21
-0.341821
31
0.365813
12
-0.110405
22
-0.398431
32
0.369328
13
-0.110405
23
-0.398431
33
0.369328
0
3DFACE
8
VIFS122
62
26
10
-0.114117
20
-0.39746
30
0.365502
11
-0.100155
21
-0.451574
31
0.36996
12
-0.110405
22
-0.398431
32
0.369328
13
-0.110405
23
-0.398431
33
0.369328
0
3DFACE
8
VIFS122
62
26
10
-0.110405
20
-0.398431
30
0.369328
11
-0.100155
21
-0.451574
31
0.36996
12
-0.105667
22
-0.399651
32
0.370601
13
-0.105667
23
-0.399651
33
0.370601
0
3DFACE
8
VIFS122
62
26
10
-0.100155
20
-0.451574
30
0.36996
11
-0.114117
21
-0.39746
31
0.365502
12
-0.108339
22
-0.451141
32
0.360743
13
-0.108339
23
-0.451141
33
0.360743
0
3DFACE
8
VIFS122
62
26
10
-0.108339
20
-0.451141
30
0.360743
11
-0.114117
21
-0.39746
31
0.365502
12
-0.115355
22
-0.397116
32
0.360615
13
-0.115355
23
-0.397116
33
0.360615
0
3DFACE
8
VIFS122
62
26
10
-0.100155
20
-0.451574
30
0.36996
11
-0.0971489
21
-0.451208
31
0.370313
12
-0.105667
22
-0.399651
32
0.370601
13
-0.105667
23
-0.399651
33
0.370601
0
3DFACE
8
VIFS122
62
26
10
-0.100132
20
-0.451619
30
0.36991
11
-0.108339
21
-0.451141
31
0.360743
12
-0.0829918
22
-0.482849
32
0.339956
13
-0.0829918
23
-0.482849
33
0.339956
0
3DFACE
8
VIFS122
62
26
10
-0.0829918
20
-0.482849
30
0.339956
11
-0.108339
21
-0.451141
31
0.360743
12
-0.0917148
22
-0.480794
32
0.332716
13
-0.0917148
23
-0.480794
33
0.332716
0
3DFACE
8
VIFS122
62
26
10
-0.0829918
20
-0.482849
30
0.339956
11
-0.0917148
21
-0.480794
31
0.332716
12
-0.0555209
22
-0.499174
32
0.324324
13
-0.0555209
23
-0.499174
33
0.324324
0
3DFACE
8
VIFS122
62
26
10
-0.0555209
20
-0.499174
30
0.324324
11
-0.0917148
21
-0.480794
31
0.332716
12
-0.0556588
22
-0.502246
32
0.317057
13
-0.0556588
23
-0.502246
33
0.317057
0
3DFACE
8
VIFS122
62
26
10
-0.0555209
20
-0.499174
30
0.324324
11
-0.0556588
21
-0.502246
31
0.317057
12
0.0491932
22
-0.500725
32
0.322996
13
0.0491932
23
-0.500725
33
0.322996
0
3DFACE
8
VIFS122
62
26
10
0.0491932
20
-0.500725
30
0.322996
11
-0.0556588
21
-0.502246
31
0.317057
12
0.0490551
22
-0.503799
32
0.315718
13
0.0490551
23
-0.503799
33
0.315718
0
3DFACE
8
VIFS122
62
26
10
0.0491932
20
-0.500725
30
0.322996
11
0.0490551
21
-0.503799
31
0.315718
12
0.0773821
22
-0.484814
32
0.338314
13
0.0773821
23
-0.484814
33
0.338314
0
3DFACE
8
VIFS122
62
26
10
0.0773821
20
-0.484814
30
0.338314
11
0.0490551
21
-0.503799
31
0.315718
12
0.0860531
22
-0.482888
32
0.331065
13
0.0860531
23
-0.482888
33
0.331065
0
3DFACE
8
VIFS122
62
26
10
0.0860531
20
-0.482888
30
0.331065
11
0.104278
21
-0.451486
31
0.360781
12
0.0773821
22
-0.484814
32
0.338314
13
0.0773821
23
-0.484814
33
0.338314
0
3DFACE
8
VIFS122
62
26
10
0.0773821
20
-0.484814
30
0.338314
11
0.104278
21
-0.451486
31
0.360781
12
0.0960822
22
-0.451885
32
0.369958
13
0.0960822
23
-0.451885
33
0.369958
0
3DFACE
8
VIFS123
62
206
10
0.096791
20
0.467847
30
0.375095
11
0.0796282
21
0.499455
31
0.345441
12
0.0937851
22
0.467476
32
0.375444
13
0.0937851
23
0.467476
33
0.375444
0
3DFACE
8
VIFS123
62
206
10
0.0937851
20
0.467476
30
0.375444
11
0.0796282
21
0.499455
31
0.345441
12
-0.0807458
22
0.501438
32
0.343823
13
-0.0807458
23
0.501438
33
0.343823
0
3DFACE
8
VIFS123
62
206
10
0.0937851
20
0.467476
30
0.375444
11
-0.0807458
21
0.501438
31
0.343823
12
-0.0964318
22
0.467776
32
0.375445
13
-0.0964318
23
0.467776
33
0.375445
0
3DFACE
8
VIFS123
62
206
10
-0.0964318
20
0.467776
30
0.375445
11
-0.0807458
21
0.501438
31
0.343823
12
-0.0994458
22
0.468158
32
0.375097
13
-0.0994458
23
0.468158
33
0.375097
0
3DFACE
8
VIFS123
62
206
10
0.0521572
20
0.515953
30
0.329993
11
-0.0525569
21
0.517519
31
0.328682
12
0.0796282
22
0.499455
32
0.345441
13
0.0796282
23
0.499455
33
0.345441
0
3DFACE
8
VIFS123
62
206
10
0.0796282
20
0.499455
30
0.345441
11
-0.0525569
21
0.517519
31
0.328682
12
-0.0807458
22
0.501438
32
0.343823
13
-0.0807458
23
0.501438
33
0.343823
0
3DFACE
8
VIFS124
62
26
10
0.088351
20
0.497663
30
0.305611
11
0.104978
21
0.467849
31
0.305445
12
0.0522952
22
0.519201
32
0.305731
13
0.0522952
23
0.519201
33
0.305731
0
3DFACE
8
VIFS124
62
26
10
0.0522952
20
0.519201
30
0.305731
11
0.104978
21
0.467849
31
0.305445
12
-0.10765
22
0.468186
32
0.305447
13
-0.10765
23
0.468186
33
0.305447
0
3DFACE
8
VIFS124
62
26
10
0.0522952
20
0.519201
30
0.305731
11
-0.10765
21
0.468186
31
0.305447
12
-0.0524188
22
0.520761
32
0.30574
13
-0.0524188
23
0.520761
33
0.30574
0
3DFACE
8
VIFS124
62
26
10
-0.0524188
20
0.520761
30
0.30574
11
-0.10765
21
0.468186
31
0.305447
12
-0.0894168
22
0.499766
32
0.305623
13
-0.0894168
23
0.499766
33
0.305623
0
3DFACE
8
VIFS124
62
26
10
-0.115369
20
0.413876
30
0.305144
11
-0.10765
21
0.468186
31
0.305447
12
-0.0438238
22
0.357232
32
0.304827
13
-0.0438238
23
0.357232
33
0.304827
0
3DFACE
8
VIFS124
62
26
10
-0.0438238
20
0.357232
30
0.304827
11
-0.10765
21
0.468186
31
0.305447
12
0.0404601
22
0.357232
32
0.304827
13
0.0404601
23
0.357232
33
0.304827
0
3DFACE
8
VIFS124
62
26
10
-0.10765
20
0.468186
30
0.305447
11
0.104978
21
0.467849
31
0.305445
12
0.0404601
22
0.357232
32
0.304827
13
0.0404601
23
0.357232
33
0.304827
0
3DFACE
8
VIFS124
62
26
10
0.0404601
20
0.357232
30
0.304827
11
0.104978
21
0.467849
31
0.305445
12
0.111991
22
0.413832
32
0.305143
13
0.111991
23
0.413832
33
0.305143
0
3DFACE
8
VIFS124
62
26
10
0.0404601
20
0.366841
30
0.374881
11
0.102303
21
0.41592
31
0.375156
12
-0.0438238
22
0.366841
32
0.374881
13
-0.0438238
23
0.366841
33
0.374881
0
3DFACE
8
VIFS124
62
26
10
-0.0438238
20
0.366841
30
0.374881
11
0.102303
21
0.41592
31
0.375156
12
-0.105658
22
0.415874
32
0.375156
13
-0.105658
23
0.415874
33
0.375156
0
3DFACE
8
VIFS124
62
26
10
-0.0964318
20
0.467776
30
0.375445
11
-0.105658
21
0.415874
31
0.375156
12
0.0937851
22
0.467476
32
0.375444
13
0.0937851
23
0.467476
33
0.375444
0
3DFACE
8
VIFS124
62
26
10
0.0937851
20
0.467476
30
0.375444
11
-0.105658
21
0.415874
31
0.375156
12
0.102303
22
0.41592
32
0.375156
13
0.102303
23
0.41592
33
0.375156
0
3DFACE
8
VIFS124
62
26
10
-0.0438238
20
0.356897
30
0.364826
11
-0.115369
21
0.413541
31
0.365143
12
-0.0438238
22
0.357232
32
0.304827
13
-0.0438238
23
0.357232
33
0.304827
0
3DFACE
8
VIFS124
62
26
10
-0.0438238
20
0.357232
30
0.304827
11
-0.115369
21
0.413541
31
0.365143
12
-0.115369
22
0.413876
32
0.305144
13
-0.115369
23
0.413876
33
0.305144
0
3DFACE
8
VIFS124
62
26
10
-0.115369
20
0.413876
30
0.305144
11
-0.115369
21
0.413541
31
0.365143
12
-0.10765
22
0.468186
32
0.305447
13
-0.10765
23
0.468186
33
0.305447
0
3DFACE
8
VIFS124
62
26
10
-0.10765
20
0.468186
30
0.305447
11
-0.115369
21
0.413541
31
0.365143
12
-0.107642
22
0.467862
32
0.365915
13
-0.107642
23
0.467862
33
0.365915
0
3DFACE
8
VIFS124
62
26
10
0.0404601
20
0.357232
30
0.304827
11
0.0404601
21
0.356897
31
0.364826
12
-0.0438238
22
0.357232
32
0.304827
13
-0.0438238
23
0.357232
33
0.304827
0
3DFACE
8
VIFS124
62
26
10
-0.0438238
20
0.357232
30
0.304827
11
0.0404601
21
0.356897
31
0.364826
12
-0.0438238
22
0.356897
32
0.364826
13
-0.0438238
23
0.356897
33
0.364826
0
3DFACE
8
VIFS124
62
26
10
0.111991
20
0.413832
30
0.305143
11
0.111991
21
0.413497
31
0.365142
12
0.0404601
22
0.357232
32
0.304827
13
0.0404601
23
0.357232
33
0.304827
0
3DFACE
8
VIFS124
62
26
10
0.0404601
20
0.357232
30
0.304827
11
0.111991
21
0.413497
31
0.365142
12
0.0404601
22
0.356897
32
0.364826
13
0.0404601
23
0.356897
33
0.364826
0
3DFACE
8
VIFS124
62
26
10
0.104975
20
0.467517
30
0.365874
11
0.111991
21
0.413497
31
0.365142
12
0.104978
22
0.467849
32
0.305445
13
0.104978
23
0.467849
33
0.305445
0
3DFACE
8
VIFS124
62
26
10
0.104978
20
0.467849
30
0.305445
11
0.111991
21
0.413497
31
0.365142
12
0.111991
22
0.413832
32
0.305143
13
0.111991
23
0.413832
33
0.305143
0
3DFACE
8
VIFS124
62
26
10
0.088351
20
0.497663
30
0.305611
11
0.088351
21
0.497481
31
0.33818
12
0.104978
22
0.467849
32
0.305445
13
0.104978
23
0.467849
33
0.305445
0
3DFACE
8
VIFS124
62
26
10
0.104978
20
0.467849
30
0.305445
11
0.088351
21
0.497481
31
0.33818
12
0.104975
22
0.467517
32
0.365874
13
0.104975
23
0.467517
33
0.365874
0
3DFACE
8
VIFS124
62
26
10
0.0522952
20
0.519201
30
0.305731
11
0.0522952
21
0.519106
31
0.322761
12
0.088351
22
0.497663
32
0.305611
13
0.088351
23
0.497663
33
0.305611
0
3DFACE
8
VIFS124
62
26
10
0.088351
20
0.497663
30
0.305611
11
0.0522952
21
0.519106
31
0.322761
12
0.088351
22
0.497481
32
0.33818
13
0.088351
23
0.497481
33
0.33818
0
3DFACE
8
VIFS124
62
26
10
-0.0524188
20
0.520761
30
0.30574
11
-0.0524188
21
0.520674
31
0.32144
12
0.0522952
22
0.519201
32
0.305731
13
0.0522952
23
0.519201
33
0.305731
0
3DFACE
8
VIFS124
62
26
10
0.0522952
20
0.519201
30
0.305731
11
-0.0524188
21
0.520674
31
0.32144
12
0.0522952
22
0.519106
32
0.322761
13
0.0522952
23
0.519106
33
0.322761
0
3DFACE
8
VIFS124
62
26
10
-0.0894168
20
0.499593
30
0.336553
11
-0.0524188
21
0.520674
31
0.32144
12
-0.0894168
22
0.499766
32
0.305623
13
-0.0894168
23
0.499766
33
0.305623
0
3DFACE
8
VIFS124
62
26
10
-0.0894168
20
0.499766
30
0.305623
11
-0.0524188
21
0.520674
31
0.32144
12
-0.0524188
22
0.520761
32
0.30574
13
-0.0524188
23
0.520761
33
0.30574
0
3DFACE
8
VIFS124
62
26
10
-0.107642
20
0.467862
30
0.365915
11
-0.0894168
21
0.499593
31
0.336553
12
-0.10765
22
0.468186
32
0.305447
13
-0.10765
23
0.468186
33
0.305447
0
3DFACE
8
VIFS124
62
26
10
-0.10765
20
0.468186
30
0.305447
11
-0.0894168
21
0.499593
31
0.336553
12
-0.0894168
22
0.499766
32
0.305623
13
-0.0894168
23
0.499766
33
0.305623
0
3DFACE
8
VIFS124
62
26
10
-0.105658
20
0.415874
30
0.375156
11
-0.110407
21
0.414713
31
0.373869
12
-0.0438238
22
0.361958
32
0.373574
13
-0.0438238
23
0.361958
33
0.373574
0
3DFACE
8
VIFS124
62
26
10
-0.0438238
20
0.361958
30
0.373574
11
-0.110407
21
0.414713
31
0.373869
12
-0.0438238
22
0.358146
32
0.369723
13
-0.0438238
23
0.358146
33
0.369723
0
3DFACE
8
VIFS124
62
26
10
-0.0438238
20
0.361958
30
0.373574
11
-0.0438238
21
0.366841
31
0.374881
12
-0.105658
22
0.415874
32
0.375156
13
-0.105658
23
0.415874
33
0.375156
0
3DFACE
8
VIFS124
62
26
10
-0.110407
20
0.414713
30
0.373869
11
-0.114128
21
0.413818
31
0.370034
12
-0.0438238
22
0.358146
32
0.369723
13
-0.0438238
23
0.358146
33
0.369723
0
3DFACE
8
VIFS124
62
26
10
-0.0438238
20
0.358146
30
0.369723
11
-0.114128
21
0.413818
31
0.370034
12
-0.0438238
22
0.356897
32
0.364826
13
-0.0438238
23
0.356897
33
0.364826
0
3DFACE
8
VIFS124
62
26
10
-0.114128
20
0.413818
30
0.370034
11
-0.115369
21
0.413541
31
0.365143
12
-0.0438238
22
0.356897
32
0.364826
13
-0.0438238
23
0.356897
33
0.364826
0
3DFACE
8
VIFS124
62
26
10
-0.0964318
20
0.467776
30
0.375445
11
-0.0994209
21
0.468201
31
0.375048
12
-0.105658
22
0.415874
32
0.375156
13
-0.105658
23
0.415874
33
0.375156
0
3DFACE
8
VIFS124
62
26
10
-0.105658
20
0.415874
30
0.375156
11
-0.0994209
21
0.468201
31
0.375048
12
-0.110407
22
0.414713
32
0.373869
13
-0.110407
23
0.414713
33
0.373869
0
3DFACE
8
VIFS124
62
26
10
-0.115369
20
0.413541
30
0.365143
11
-0.114128
21
0.413818
31
0.370034
12
-0.107642
22
0.467862
32
0.365915
13
-0.107642
23
0.467862
33
0.365915
0
3DFACE
8
VIFS124
62
26
10
-0.107642
20
0.467862
30
0.365915
11
-0.114128
21
0.413818
31
0.370034
12
-0.0994209
22
0.468201
32
0.375048
13
-0.0994209
23
0.468201
33
0.375048
0
3DFACE
8
VIFS124
62
26
10
-0.114128
20
0.413818
30
0.370034
11
-0.110407
21
0.414713
31
0.373869
12
-0.0994209
22
0.468201
32
0.375048
13
-0.0994209
23
0.468201
33
0.375048
0
3DFACE
8
VIFS124
62
26
10
-0.0438238
20
0.366841
30
0.374881
11
-0.0438238
21
0.361958
31
0.373574
12
0.0404601
22
0.366841
32
0.374881
13
0.0404601
23
0.366841
33
0.374881
0
3DFACE
8
VIFS124
62
26
10
0.0404601
20
0.366841
30
0.374881
11
-0.0438238
21
0.361958
31
0.373574
12
0.0404601
22
0.361958
32
0.373574
13
0.0404601
23
0.361958
33
0.373574
0
3DFACE
8
VIFS124
62
26
10
-0.0438238
20
0.361958
30
0.373574
11
-0.0438238
21
0.358146
31
0.369723
12
0.0404601
22
0.361958
32
0.373574
13
0.0404601
23
0.361958
33
0.373574
0
3DFACE
8
VIFS124
62
26
10
0.0404601
20
0.361958
30
0.373574
11
-0.0438238
21
0.358146
31
0.369723
12
0.0404601
22
0.358146
32
0.369723
13
0.0404601
23
0.358146
33
0.369723
0
3DFACE
8
VIFS124
62
26
10
0.0404601
20
0.356897
30
0.364826
11
0.0404601
21
0.358146
31
0.369723
12
-0.0438238
22
0.356897
32
0.364826
13
-0.0438238
23
0.356897
33
0.364826
0
3DFACE
8
VIFS124
62
26
10
-0.0438238
20
0.356897
30
0.364826
11
0.0404601
21
0.358146
31
0.369723
12
-0.0438238
22
0.358146
32
0.369723
13
-0.0438238
23
0.358146
33
0.369723
0
3DFACE
8
VIFS124
62
26
10
0.0404601
20
0.366841
30
0.374881
11
0.0404601
21
0.361958
31
0.373574
12
0.102259
22
0.41574
32
0.375155
13
0.102259
23
0.41574
33
0.375155
0
3DFACE
8
VIFS124
62
26
10
0.102259
20
0.41574
30
0.375155
11
0.0404601
21
0.361958
31
0.373574
12
0.107041
22
0.414714
32
0.373869
13
0.107041
23
0.414714
33
0.373869
0
3DFACE
8
VIFS124
62
26
10
0.107041
20
0.414714
30
0.373869
11
0.0404601
21
0.358146
31
0.369723
12
0.110753
22
0.413785
32
0.370034
13
0.110753
23
0.413785
33
0.370034
0
3DFACE
8
VIFS124
62
26
10
0.110753
20
0.413785
30
0.370034
11
0.0404601
21
0.358146
31
0.369723
12
0.0404601
22
0.356897
32
0.364826
13
0.0404601
23
0.356897
33
0.364826
0
3DFACE
8
VIFS124
62
26
10
0.110753
20
0.413785
30
0.370034
11
0.0404601
21
0.356897
31
0.364826
12
0.111991
22
0.413497
32
0.365142
13
0.111991
23
0.413497
33
0.365142
0
3DFACE
8
VIFS124
62
26
10
0.0404601
20
0.361958
30
0.373574
11
0.0404601
21
0.358146
31
0.369723
12
0.107041
22
0.414714
32
0.373869
13
0.107041
23
0.414714
33
0.373869
0
3DFACE
8
VIFS124
62
26
10
0.110753
20
0.413785
30
0.370034
11
0.096791
21
0.467847
31
0.375095
12
0.107041
22
0.414714
32
0.373869
13
0.107041
23
0.414714
33
0.373869
0
3DFACE
8
VIFS124
62
26
10
0.107041
20
0.414714
30
0.373869
11
0.096791
21
0.467847
31
0.375095
12
0.102303
22
0.41592
32
0.375156
13
0.102303
23
0.41592
33
0.375156
0
3DFACE
8
VIFS124
62
26
10
0.096791
20
0.467847
30
0.375095
11
0.110753
21
0.413785
31
0.370034
12
0.104975
22
0.467517
32
0.365874
13
0.104975
23
0.467517
33
0.365874
0
3DFACE
8
VIFS124
62
26
10
0.104975
20
0.467517
30
0.365874
11
0.110753
21
0.413785
31
0.370034
12
0.111991
22
0.413497
32
0.365142
13
0.111991
23
0.413497
33
0.365142
0
3DFACE
8
VIFS124
62
26
10
0.096791
20
0.467847
30
0.375095
11
0.0937851
21
0.467476
31
0.375444
12
0.102303
22
0.41592
32
0.375156
13
0.102303
23
0.41592
33
0.375156
0
3DFACE
8
VIFS124
62
26
10
0.0967682
20
0.467892
30
0.375046
11
0.104975
21
0.467517
31
0.365874
12
0.0796282
22
0.499455
32
0.345441
13
0.0796282
23
0.499455
33
0.345441
0
3DFACE
8
VIFS124
62
26
10
0.0796282
20
0.499455
30
0.345441
11
0.104975
21
0.467517
31
0.365874
12
0.088351
22
0.497481
32
0.33818
13
0.088351
23
0.497481
33
0.33818
0
3DFACE
8
VIFS124
62
26
10
0.0796282
20
0.499455
30
0.345441
11
0.088351
21
0.497481
31
0.33818
12
0.0521572
22
0.515953
32
0.329993
13
0.0521572
23
0.515953
33
0.329993
0
3DFACE
8
VIFS124
62
26
10
0.0521572
20
0.515953
30
0.329993
11
0.088351
21
0.497481
31
0.33818
12
0.0522952
22
0.519106
32
0.322761
13
0.0522952
23
0.519106
33
0.322761
0
3DFACE
8
VIFS124
62
26
10
0.0521572
20
0.515953
30
0.329993
11
0.0522952
21
0.519106
31
0.322761
12
-0.0525569
22
0.517519
32
0.328682
13
-0.0525569
23
0.517519
33
0.328682
0
3DFACE
8
VIFS124
62
26
10
-0.0525569
20
0.517519
30
0.328682
11
0.0522952
21
0.519106
31
0.322761
12
-0.0524188
22
0.520674
32
0.32144
13
-0.0524188
23
0.520674
33
0.32144
0
3DFACE
8
VIFS124
62
26
10
-0.0525569
20
0.517519
30
0.328682
11
-0.0524188
21
0.520674
31
0.32144
12
-0.0807458
22
0.501438
32
0.343823
13
-0.0807458
23
0.501438
33
0.343823
0
3DFACE
8
VIFS124
62
26
10
-0.0807458
20
0.501438
30
0.343823
11
-0.0524188
21
0.520674
31
0.32144
12
-0.0894168
22
0.499593
32
0.336553
13
-0.0894168
23
0.499593
33
0.336553
0
3DFACE
8
VIFS124
62
26
10
-0.0894168
20
0.499593
30
0.336553
11
-0.107642
21
0.467862
31
0.365915
12
-0.0807458
22
0.501438
32
0.343823
13
-0.0807458
23
0.501438
33
0.343823
0
3DFACE
8
VIFS124
62
26
10
-0.0807458
20
0.501438
30
0.343823
11
-0.107642
21
0.467862
31
0.365915
12
-0.0994458
22
0.468157
32
0.375097
13
-0.0994458
23
0.468157
33
0.375097
0
3DFACE
8
VIFS125
62
26
10
-0.0591819
20
-0.517708
30
-0.300069
11
0.113318
21
-0.418117
31
-0.299513
12
-0.116682
22
-0.418117
32
-0.299513
13
-0.116682
23
-0.418117
33
-0.299513
0
3DFACE
8
VIFS125
62
26
10
-0.116682
20
-0.418117
30
-0.299513
11
0.113318
21
-0.418117
31
-0.299513
12
0.0587571
22
-0.320282
32
-0.298966
13
0.0587571
23
-0.320282
33
-0.298966
0
3DFACE
8
VIFS125
62
26
10
-0.116682
20
-0.418117
30
-0.299513
11
0.0587571
21
-0.320282
31
-0.298966
12
-0.0591819
22
-0.318526
32
-0.298956
13
-0.0591819
23
-0.318526
33
-0.298956
0
3DFACE
8
VIFS125
62
26
10
-0.0591819
20
-0.517708
30
-0.300069
11
0.0558181
21
-0.517708
31
-0.300069
12
0.113318
22
-0.418117
32
-0.299513
13
0.113318
23
-0.418117
33
-0.299513
0
3DFACE
8
VIFS125
62
26
10
-0.0591819
20
-0.317743
30
-0.438954
11
0.0587571
21
-0.319499
31
-0.438964
12
-0.116682
22
-0.417335
32
-0.439511
13
-0.116682
23
-0.417335
33
-0.439511
0
3DFACE
8
VIFS125
62
26
10
-0.116682
20
-0.417335
30
-0.439511
11
0.0587571
21
-0.319499
31
-0.438964
12
0.113318
22
-0.417335
32
-0.439511
13
0.113318
23
-0.417335
33
-0.439511
0
3DFACE
8
VIFS125
62
26
10
-0.116682
20
-0.417335
30
-0.439511
11
0.113318
21
-0.417335
31
-0.439511
12
-0.0591819
22
-0.516926
32
-0.440067
13
-0.0591819
23
-0.516926
33
-0.440067
0
3DFACE
8
VIFS125
62
26
10
-0.0591819
20
-0.516926
30
-0.440067
11
0.113318
21
-0.417335
31
-0.439511
12
0.0558181
22
-0.516926
32
-0.440067
13
0.0558181
23
-0.516926
33
-0.440067
0
3DFACE
8
VIFS125
62
26
10
0.113318
20
-0.417335
30
-0.439511
11
0.113318
21
-0.418117
31
-0.299513
12
0.0558181
22
-0.516926
32
-0.440067
13
0.0558181
23
-0.516926
33
-0.440067
0
3DFACE
8
VIFS125
62
26
10
0.0558181
20
-0.516926
30
-0.440067
11
0.113318
21
-0.418117
31
-0.299513
12
0.0558181
22
-0.517708
32
-0.300069
13
0.0558181
23
-0.517708
33
-0.300069
0
3DFACE
8
VIFS125
62
26
10
0.0558181
20
-0.516926
30
-0.440067
11
0.0558181
21
-0.517708
31
-0.300069
12
-0.0591819
22
-0.516926
32
-0.440067
13
-0.0591819
23
-0.516926
33
-0.440067
0
3DFACE
8
VIFS125
62
26
10
-0.0591819
20
-0.516926
30
-0.440067
11
0.0558181
21
-0.517708
31
-0.300069
12
-0.0591819
22
-0.517708
32
-0.300069
13
-0.0591819
23
-0.517708
33
-0.300069
0
3DFACE
8
VIFS125
62
26
10
-0.0591819
20
-0.516926
30
-0.440067
11
-0.0591819
21
-0.517708
31
-0.300069
12
-0.116682
22
-0.417335
32
-0.439511
13
-0.116682
23
-0.417335
33
-0.439511
0
3DFACE
8
VIFS125
62
26
10
-0.116682
20
-0.417335
30
-0.439511
11
-0.0591819
21
-0.517708
31
-0.300069
12
-0.116682
22
-0.418117
32
-0.299513
13
-0.116682
23
-0.418117
33
-0.299513
0
3DFACE
8
VIFS125
62
26
10
-0.116682
20
-0.417335
30
-0.439511
11
-0.116682
21
-0.418117
31
-0.299513
12
-0.0591819
22
-0.317743
32
-0.438954
13
-0.0591819
23
-0.317743
33
-0.438954
0
3DFACE
8
VIFS125
62
26
10
-0.0591819
20
-0.317743
30
-0.438954
11
-0.116682
21
-0.418117
31
-0.299513
12
-0.0591819
22
-0.318526
32
-0.298956
13
-0.0591819
23
-0.318526
33
-0.298956
0
3DFACE
8
VIFS125
62
26
10
-0.0591819
20
-0.317743
30
-0.438954
11
-0.0591819
21
-0.318526
31
-0.298956
12
0.0587571
22
-0.319499
32
-0.438964
13
0.0587571
23
-0.319499
33
-0.438964
0
3DFACE
8
VIFS125
62
26
10
0.0587571
20
-0.319499
30
-0.438964
11
-0.0591819
21
-0.318526
31
-0.298956
12
0.0587571
22
-0.320282
32
-0.298966
13
0.0587571
23
-0.320282
33
-0.298966
0
3DFACE
8
VIFS125
62
26
10
0.0587571
20
-0.319499
30
-0.438964
11
0.0587571
21
-0.320282
31
-0.298966
12
0.113318
22
-0.417335
32
-0.439511
13
0.113318
23
-0.417335
33
-0.439511
0
3DFACE
8
VIFS125
62
26
10
0.113318
20
-0.417335
30
-0.439511
11
0.0587571
21
-0.320282
31
-0.298966
12
0.113318
22
-0.418117
32
-0.299513
13
0.113318
23
-0.418117
33
-0.299513
0
3DFACE
8
VIFS126
62
26
10
-0.0591819
20
0.342279
30
-0.295266
11
0.113318
21
0.44187
31
-0.29471
12
-0.116682
22
0.44187
32
-0.29471
13
-0.116682
23
0.44187
33
-0.29471
0
3DFACE
8
VIFS126
62
26
10
-0.116682
20
0.44187
30
-0.29471
11
0.113318
21
0.44187
31
-0.29471
12
0.0587571
22
0.539705
32
-0.294163
13
0.0587571
23
0.539705
33
-0.294163
0
3DFACE
8
VIFS126
62
26
10
-0.116682
20
0.44187
30
-0.29471
11
0.0587571
21
0.539705
31
-0.294163
12
-0.0591819
22
0.541461
32
-0.294154
13
-0.0591819
23
0.541461
33
-0.294154
0
3DFACE
8
VIFS126
62
26
10
-0.0591819
20
0.342279
30
-0.295266
11
0.0558181
21
0.342279
31
-0.295266
12
0.113318
22
0.44187
32
-0.29471
13
0.113318
23
0.44187
33
-0.29471
0
3DFACE
8
VIFS126
62
26
10
-0.0591819
20
0.542243
30
-0.434152
11
0.0587571
21
0.540487
31
-0.434161
12
-0.116682
22
0.442652
32
-0.434708
13
-0.116682
23
0.442652
33
-0.434708
0
3DFACE
8
VIFS126
62
26
10
-0.116682
20
0.442652
30
-0.434708
11
0.0587571
21
0.540487
31
-0.434161
12
0.113318
22
0.442652
32
-0.434708
13
0.113318
23
0.442652
33
-0.434708
0
3DFACE
8
VIFS126
62
26
10
-0.116682
20
0.442652
30
-0.434708
11
0.113318
21
0.442652
31
-0.434708
12
-0.0591819
22
0.34306
32
-0.435264
13
-0.0591819
23
0.34306
33
-0.435264
0
3DFACE
8
VIFS126
62
26
10
-0.0591819
20
0.34306
30
-0.435264
11
0.113318
21
0.442652
31
-0.434708
12
0.0558181
22
0.34306
32
-0.435264
13
0.0558181
23
0.34306
33
-0.435264
0
3DFACE
8
VIFS126
62
26
10
0.113318
20
0.442652
30
-0.434708
11
0.113318
21
0.44187
31
-0.29471
12
0.0558181
22
0.34306
32
-0.435264
13
0.0558181
23
0.34306
33
-0.435264
0
3DFACE
8
VIFS126
62
26
10
0.0558181
20
0.34306
30
-0.435264
11
0.113318
21
0.44187
31
-0.29471
12
0.0558181
22
0.342279
32
-0.295266
13
0.0558181
23
0.342279
33
-0.295266
0
3DFACE
8
VIFS126
62
26
10
0.0558181
20
0.34306
30
-0.435264
11
0.0558181
21
0.342279
31
-0.295266
12
-0.0591819
22
0.34306
32
-0.435264
13
-0.0591819
23
0.34306
33
-0.435264
0
3DFACE
8
VIFS126
62
26
10
-0.0591819
20
0.34306
30
-0.435264
11
0.0558181
21
0.342279
31
-0.295266
12
-0.0591819
22
0.342279
32
-0.295266
13
-0.0591819
23
0.342279
33
-0.295266
0
3DFACE
8
VIFS126
62
26
10
-0.0591819
20
0.34306
30
-0.435264
11
-0.0591819
21
0.342279
31
-0.295266
12
-0.116682
22
0.442652
32
-0.434708
13
-0.116682
23
0.442652
33
-0.434708
0
3DFACE
8
VIFS126
62
26
10
-0.116682
20
0.442652
30
-0.434708
11
-0.0591819
21
0.342279
31
-0.295266
12
-0.116682
22
0.44187
32
-0.29471
13
-0.116682
23
0.44187
33
-0.29471
0
3DFACE
8
VIFS126
62
26
10
-0.116682
20
0.442652
30
-0.434708
11
-0.116682
21
0.44187
31
-0.29471
12
-0.0591819
22
0.542243
32
-0.434152
13
-0.0591819
23
0.542243
33
-0.434152
0
3DFACE
8
VIFS126
62
26
10
-0.0591819
20
0.542243
30
-0.434152
11
-0.116682
21
0.44187
31
-0.29471
12
-0.0591819
22
0.541461
32
-0.294154
13
-0.0591819
23
0.541461
33
-0.294154
0
3DFACE
8
VIFS126
62
26
10
-0.0591819
20
0.542243
30
-0.434152
11
-0.0591819
21
0.541461
31
-0.294154
12
0.0587571
22
0.540487
32
-0.434161
13
0.0587571
23
0.540487
33
-0.434161
0
3DFACE
8
VIFS126
62
26
10
0.0587571
20
0.540487
30
-0.434161
11
-0.0591819
21
0.541461
31
-0.294154
12
0.0587571
22
0.539705
32
-0.294163
13
0.0587571
23
0.539705
33
-0.294163
0
3DFACE
8
VIFS126
62
26
10
0.0587571
20
0.540487
30
-0.434161
11
0.0587571
21
0.539705
31
-0.294163
12
0.113318
22
0.442652
32
-0.434708
13
0.113318
23
0.442652
33
-0.434708
0
3DFACE
8
VIFS126
62
26
10
0.113318
20
0.442652
30
-0.434708
11
0.0587571
21
0.539705
31
-0.294163
12
0.113318
22
0.44187
32
-0.29471
13
0.113318
23
0.44187
33
-0.29471
0
3DFACE
8
VIFS127
62
36
10
0.128318
20
-0.160358
30
0.285386
11
-0.131682
21
-0.160356
31
0.285386
12
0.128318
22
-0.00433197
32
0.332568
13
0.128318
23
-0.00433197
33
0.332568
0
3DFACE
8
VIFS127
62
36
10
0.128318
20
-0.00433197
30
0.332568
11
-0.131682
21
-0.160356
31
0.285386
12
-0.131682
22
-0.00433197
32
0.332568
13
-0.131682
23
-0.00433197
33
0.332568
0
3DFACE
8
VIFS127
62
36
10
0.128318
20
-0.00433197
30
0.332568
11
-0.131682
21
-0.00433197
31
0.332568
12
0.128318
22
0.162228
32
0.295778
13
0.128318
23
0.162228
33
0.295778
0
3DFACE
8
VIFS127
62
36
10
0.128318
20
0.162228
30
0.295778
11
-0.131682
21
-0.00433197
31
0.332568
12
-0.131682
22
0.162229
32
0.295777
13
-0.131682
23
0.162229
33
0.295777
0
3DFACE
8
VIFS127
62
36
10
0.128318
20
0.162228
30
0.295778
11
-0.131682
21
0.162229
31
0.295777
12
0.128318
22
0.295191
32
0.169259
13
0.128318
23
0.295191
33
0.169259
0
3DFACE
8
VIFS127
62
36
10
0.128318
20
0.295191
30
0.169259
11
-0.131682
21
0.162229
31
0.295777
12
-0.131682
22
0.295191
32
0.169259
13
-0.131682
23
0.295191
33
0.169259
0
3DFACE
8
VIFS127
62
36
10
0.128318
20
0.295191
30
0.169259
11
-0.131682
21
0.295191
31
0.169259
12
0.128318
22
0.340196
32
0.00472669
13
0.128318
23
0.340196
33
0.00472669
0
3DFACE
8
VIFS127
62
36
10
0.128318
20
0.340196
30
0.00472669
11
-0.131682
21
0.295191
31
0.169259
12
-0.131682
22
0.340196
32
0.00472669
13
-0.131682
23
0.340196
33
0.00472669
0
3DFACE
8
VIFS127
62
36
10
0.128318
20
0.340196
30
0.00472669
11
-0.131682
21
0.340196
31
0.00472669
12
0.128318
22
0.297032
32
-0.160297
13
0.128318
23
0.297032
33
-0.160297
0
3DFACE
8
VIFS127
62
36
10
0.128318
20
0.297032
30
-0.160297
11
-0.131682
21
0.340196
31
0.00472669
12
-0.131682
22
0.297032
32
-0.160297
13
-0.131682
23
0.297032
33
-0.160297
0
3DFACE
8
VIFS127
62
36
10
0.128318
20
0.297032
30
-0.160297
11
-0.131682
21
0.297032
31
-0.160297
12
0.128318
22
0.165492
32
-0.288293
13
0.128318
23
0.165492
33
-0.288293
0
3DFACE
8
VIFS127
62
36
10
0.128318
20
0.165492
30
-0.288293
11
-0.131682
21
0.297032
31
-0.160297
12
-0.131682
22
0.165491
32
-0.288294
13
-0.131682
23
0.165491
33
-0.288294
0
3DFACE
8
VIFS127
62
36
10
0.128318
20
0.165492
30
-0.288293
11
-0.131682
21
0.165491
31
-0.288294
12
0.128318
22
-0.000648379
32
-0.326942
13
0.128318
23
-0.000648379
33
-0.326942
0
3DFACE
8
VIFS127
62
36
10
0.128318
20
-0.000648379
30
-0.326942
11
-0.131682
21
0.165491
31
-0.288294
12
-0.131682
22
-0.000648379
32
-0.326942
13
-0.131682
23
-0.000648379
33
-0.326942
0
3DFACE
8
VIFS127
62
36
10
0.128318
20
-0.000648379
30
-0.326942
11
-0.131682
21
-0.000648379
31
-0.326942
12
0.128318
22
-0.157191
32
-0.281515
13
0.128318
23
-0.157191
33
-0.281515
0
3DFACE
8
VIFS127
62
36
10
0.128318
20
-0.157191
30
-0.281515
11
-0.131682
21
-0.000648379
31
-0.326942
12
-0.131682
22
-0.157192
32
-0.281505
13
-0.131682
23
-0.157192
33
-0.281505
0
3DFACE
8
VIFS127
62
36
10
0.128318
20
-0.157191
30
-0.281515
11
-0.131682
21
-0.157192
31
-0.281505
12
0.128318
22
-0.278656
32
-0.156683
13
0.128318
23
-0.278656
33
-0.156683
0
3DFACE
8
VIFS127
62
36
10
0.128318
20
-0.278656
30
-0.156683
11
-0.131682
21
-0.157192
31
-0.281505
12
-0.131682
22
-0.278656
32
-0.156683
13
-0.131682
23
-0.278656
33
-0.156683
0
3DFACE
8
VIFS127
62
36
10
0.128318
20
-0.278656
30
-0.156683
11
-0.131682
21
-0.278656
31
-0.156683
12
0.128318
22
-0.319794
32
0.00104135
13
0.128318
23
-0.319794
33
0.00104135
0
3DFACE
8
VIFS127
62
36
10
0.128318
20
-0.319794
30
0.00104135
11
-0.131682
21
-0.278656
31
-0.156683
12
-0.131682
22
-0.319794
32
0.00104134
13
-0.131682
23
-0.319794
33
0.00104134
0
3DFACE
8
VIFS127
62
36
10
0.128318
20
-0.319794
30
0.00104135
11
-0.131682
21
-0.319794
31
0.00104134
12
0.128318
22
-0.28042
32
0.159213
13
0.128318
23
-0.28042
33
0.159213
0
3DFACE
8
VIFS127
62
36
10
0.128318
20
-0.28042
30
0.159213
11
-0.131682
21
-0.319794
31
0.00104134
12
-0.131682
22
-0.28042
32
0.159213
13
-0.131682
23
-0.28042
33
0.159213
0
3DFACE
8
VIFS127
62
36
10
0.128318
20
-0.28042
30
0.159213
11
-0.131682
21
-0.28042
31
0.159213
12
0.128318
22
-0.160358
32
0.285386
13
0.128318
23
-0.160358
33
0.285386
0
3DFACE
8
VIFS127
62
36
10
0.128318
20
-0.160358
30
0.285386
11
-0.131682
21
-0.28042
31
0.159213
12
-0.131682
22
-0.160356
32
0.285386
13
-0.131682
23
-0.160356
33
0.285386
0
3DFACE
8
VIFS128
62
176
10
-0.106682
20
0.153665
30
2.06872
11
-0.106682
21
-0.15633
31
2.06699
12
0.103318
22
0.153665
32
2.06872
13
0.103318
23
0.153665
33
2.06872
0
3DFACE
8
VIFS128
62
176
10
0.103318
20
0.153665
30
2.06872
11
-0.106682
21
-0.15633
31
2.06699
12
0.103318
22
-0.15633
32
2.06699
13
0.103318
23
-0.15633
33
2.06699
0
3DFACE
8
VIFS128
62
176
10
0.103318
20
0.153665
30
2.06872
11
0.103318
21
0.154513
31
1.91681
12
-0.106682
22
0.153665
32
2.06872
13
-0.106682
23
0.153665
33
2.06872
0
3DFACE
8
VIFS128
62
176
10
-0.106682
20
0.153665
30
2.06872
11
0.103318
21
0.154513
31
1.91681
12
-0.106682
22
0.154513
32
1.91681
13
-0.106682
23
0.154513
33
1.91681
0
3DFACE
8
VIFS128
62
176
10
-0.106682
20
0.154513
30
1.91681
11
-0.106682
21
-0.000829521
31
1.97785
12
-0.106682
22
0.153665
32
2.06872
13
-0.106682
23
0.153665
33
2.06872
0
3DFACE
8
VIFS128
62
176
10
-0.106682
20
0.153665
30
2.06872
11
-0.106682
21
-0.000829521
31
1.97785
12
-0.106682
22
-0.15633
32
2.06699
13
-0.106682
23
-0.15633
33
2.06699
0
3DFACE
8
VIFS128
62
176
10
-0.106682
20
-0.000829521
30
1.97785
11
-0.106682
21
-0.155482
31
1.91508
12
-0.106682
22
-0.15633
32
2.06699
13
-0.106682
23
-0.15633
33
2.06699
0
3DFACE
8
VIFS128
62
176
10
-0.106682
20
-0.155482
30
1.91508
11
0.103318
21
-0.155482
31
1.91508
12
-0.106682
22
-0.15633
32
2.06699
13
-0.106682
23
-0.15633
33
2.06699
0
3DFACE
8
VIFS128
62
176
10
-0.106682
20
-0.15633
30
2.06699
11
0.103318
21
-0.155482
31
1.91508
12
0.103318
22
-0.15633
32
2.06699
13
0.103318
23
-0.15633
33
2.06699
0
3DFACE
8
VIFS128
62
176
10
0.103318
20
-0.155482
30
1.91508
11
0.103318
21
-0.00082952
31
1.97785
12
0.103318
22
-0.15633
32
2.06699
13
0.103318
23
-0.15633
33
2.06699
0
3DFACE
8
VIFS128
62
176
10
0.103318
20
-0.15633
30
2.06699
11
0.103318
21
-0.00082952
31
1.97785
12
0.103318
22
0.153665
32
2.06872
13
0.103318
23
0.153665
33
2.06872
0
3DFACE
8
VIFS128
62
176
10
0.103318
20
-0.00082952
30
1.97785
11
0.103318
21
0.154513
31
1.91681
12
0.103318
22
0.153665
32
2.06872
13
0.103318
23
0.153665
33
2.06872
0
3DFACE
8
VIFS128
62
176
10
-0.156682
20
-0.0644724
30
1.89362
11
-0.156682
21
-0.000829521
31
1.97785
12
-0.156682
22
-0.000438519
32
1.90785
13
-0.156682
23
-0.000438519
33
1.90785
0
3DFACE
8
VIFS128
62
176
10
-0.156682
20
-0.000438519
30
1.90785
11
-0.156682
21
-0.000829521
31
1.97785
12
-0.156682
22
0.138621
32
1.93042
13
-0.156682
23
0.138621
33
1.93042
0
3DFACE
8
VIFS128
62
176
10
-0.156682
20
-0.000438519
30
1.90785
11
-0.156682
21
0.138621
31
1.93042
12
-0.156682
22
0.0956271
32
1.87518
13
-0.156682
23
0.0956271
33
1.87518
0
3DFACE
8
VIFS128
62
176
10
-0.156682
20
0.0956271
30
1.87518
11
-0.156682
21
0.138621
31
1.93042
12
-0.156682
22
0.217036
32
1.81373
13
-0.156682
23
0.217036
33
1.81373
0
3DFACE
8
VIFS128
62
176
10
-0.156682
20
0.0956271
30
1.87518
11
-0.156682
21
0.217036
31
1.81373
12
-0.156682
22
0.149646
32
1.79479
13
-0.156682
23
0.149646
33
1.79479
0
3DFACE
8
VIFS128
62
176
10
-0.156682
20
0.149646
30
1.79479
11
-0.156682
21
0.217036
31
1.81373
12
-0.156682
22
0.220685
32
1.70691
13
-0.156682
23
0.220685
33
1.70691
0
3DFACE
8
VIFS128
62
176
10
-0.156682
20
0.149646
30
1.79479
11
-0.156682
21
0.220685
31
1.70691
12
-0.156682
22
0.15216
32
1.7212
13
-0.156682
23
0.15216
33
1.7212
0
3DFACE
8
VIFS128
62
176
10
-0.156682
20
0.15216
30
1.7212
11
-0.156682
21
0.220685
31
1.70691
12
-0.156682
22
0.169422
32
1.60431
13
-0.156682
23
0.169422
33
1.60431
0
3DFACE
8
VIFS128
62
176
10
-0.156682
20
0.15216
30
1.7212
11
-0.156682
21
0.169422
31
1.60431
12
-0.156682
22
0.116846
32
1.65053
13
-0.156682
23
0.116846
33
1.65053
0
3DFACE
8
VIFS128
62
176
10
-0.156682
20
0.116846
30
1.65053
11
-0.156682
21
0.169422
31
1.60431
12
-0.156682
22
0.085102
32
1.5444
13
-0.156682
23
0.085102
33
1.5444
0
3DFACE
8
VIFS128
62
176
10
-0.156682
20
0.116846
30
1.65053
11
-0.156682
21
0.085102
31
1.5444
12
-0.156682
22
0.0587576
32
1.60925
13
-0.156682
23
0.0587576
33
1.60925
0
3DFACE
8
VIFS128
62
176
10
-0.156682
20
0.0587576
30
1.60925
11
-0.156682
21
0.085102
31
1.5444
12
-0.156682
22
-0.0551561
32
1.53483
13
-0.156682
23
-0.0551561
33
1.53483
0
3DFACE
8
VIFS128
62
176
10
-0.156682
20
0.0587576
30
1.60925
11
-0.156682
21
-0.0551561
31
1.53483
12
-0.156682
22
-0.0378641
32
1.60266
13
-0.156682
23
-0.0378641
33
1.60266
0
3DFACE
8
VIFS128
62
176
10
-0.156682
20
-0.0378641
30
1.60266
11
-0.156682
21
-0.0551561
31
1.53483
12
-0.156682
22
-0.149496
32
1.58508
13
-0.156682
23
-0.149496
33
1.58508
0
3DFACE
8
VIFS128
62
176
10
-0.156682
20
-0.0378641
30
1.60266
11
-0.156682
21
-0.149496
31
1.58508
12
-0.156682
22
-0.102852
32
1.63728
13
-0.156682
23
-0.102852
33
1.63728
0
3DFACE
8
VIFS128
62
176
10
-0.156682
20
-0.102852
30
1.63728
11
-0.156682
21
-0.149496
31
1.58508
12
-0.156682
22
-0.212715
32
1.68077
13
-0.156682
23
-0.212715
33
1.68077
0
3DFACE
8
VIFS128
62
176
10
-0.156682
20
-0.102852
30
1.63728
11
-0.156682
21
-0.212715
31
1.68077
12
-0.156682
22
-0.146404
32
1.7032
13
-0.156682
23
-0.146404
33
1.7032
0
3DFACE
8
VIFS128
62
176
10
-0.156682
20
-0.146404
30
1.7032
11
-0.156682
21
-0.212715
31
1.68077
12
-0.156682
22
-0.222441
32
1.78376
13
-0.156682
23
-0.222441
33
1.78376
0
3DFACE
8
VIFS128
62
176
10
-0.156682
20
-0.146404
30
1.7032
11
-0.156682
21
-0.222441
31
1.78376
12
-0.156682
22
-0.153104
32
1.77414
13
-0.156682
23
-0.153104
33
1.77414
0
3DFACE
8
VIFS128
62
176
10
-0.156682
20
-0.153104
30
1.77414
11
-0.156682
21
-0.222441
31
1.78376
12
-0.156682
22
-0.179215
32
1.88833
13
-0.156682
23
-0.179215
33
1.88833
0
3DFACE
8
VIFS128
62
176
10
-0.156682
20
-0.153104
30
1.77414
11
-0.156682
21
-0.179215
31
1.88833
12
-0.156682
22
-0.123327
32
1.84618
13
-0.156682
23
-0.123327
33
1.84618
0
3DFACE
8
VIFS128
62
176
10
-0.156682
20
-0.123327
30
1.84618
11
-0.156682
21
-0.179215
31
1.88833
12
-0.156682
22
-0.093781
32
1.95718
13
-0.156682
23
-0.093781
33
1.95718
0
3DFACE
8
VIFS128
62
176
10
-0.156682
20
-0.123327
30
1.84618
11
-0.156682
21
-0.093781
31
1.95718
12
-0.156682
22
-0.0644724
32
1.89362
13
-0.156682
23
-0.0644724
33
1.89362
0
3DFACE
8
VIFS128
62
176
10
-0.156682
20
-0.0644724
30
1.89362
11
-0.156682
21
-0.093781
31
1.95718
12
-0.156682
22
-0.000829521
32
1.97785
13
-0.156682
23
-0.000829521
33
1.97785
0
3DFACE
8
VIFS128
62
176
10
0.153318
20
0.0637495
30
1.89433
11
-0.156682
21
0.0956271
31
1.87518
12
0.153318
22
0.123131
32
1.84756
13
0.153318
23
0.123131
33
1.84756
0
3DFACE
8
VIFS128
62
176
10
0.153318
20
0.123131
30
1.84756
11
-0.156682
21
0.0956271
31
1.87518
12
-0.156682
22
0.149646
32
1.79479
13
-0.156682
23
0.149646
33
1.79479
0
3DFACE
8
VIFS128
62
176
10
0.153318
20
0.123131
30
1.84756
11
-0.156682
21
0.149646
31
1.79479
12
0.153318
22
0.153711
32
1.77586
13
0.153318
23
0.153711
33
1.77586
0
3DFACE
8
VIFS128
62
176
10
0.153318
20
0.153711
30
1.77586
11
-0.156682
21
0.149646
31
1.79479
12
-0.156682
22
0.15216
32
1.7212
13
-0.156682
23
0.15216
33
1.7212
0
3DFACE
8
VIFS128
62
176
10
0.153318
20
0.153711
30
1.77586
11
-0.156682
21
0.15216
31
1.7212
12
0.153318
22
0.147804
32
1.70484
13
0.153318
23
0.147804
33
1.70484
0
3DFACE
8
VIFS128
62
176
10
0.153318
20
0.147804
30
1.70484
11
-0.156682
21
0.15216
31
1.7212
12
-0.156682
22
0.116846
32
1.65053
13
-0.156682
23
0.116846
33
1.65053
0
3DFACE
8
VIFS128
62
176
10
0.153318
20
0.147804
30
1.70484
11
-0.156682
21
0.116846
31
1.65053
12
0.153318
22
0.104991
32
1.63844
13
0.153318
23
0.104991
33
1.63844
0
3DFACE
8
VIFS128
62
176
10
0.153318
20
0.104991
30
1.63844
11
-0.156682
21
0.116846
31
1.65053
12
-0.156682
22
0.0587576
32
1.60925
13
-0.156682
23
0.0587576
33
1.60925
0
3DFACE
8
VIFS128
62
176
10
0.153318
20
0.104991
30
1.63844
11
-0.156682
21
0.0587576
31
1.60925
12
0.153318
22
0.040393
32
1.6031
13
0.153318
23
0.040393
33
1.6031
0
3DFACE
8
VIFS128
62
176
10
0.153318
20
0.040393
30
1.6031
11
-0.156682
21
0.0587576
31
1.60925
12
-0.156682
22
-0.0378641
32
1.60266
13
-0.156682
23
-0.0378641
33
1.60266
0
3DFACE
8
VIFS128
62
176
10
0.153318
20
0.040393
30
1.6031
11
-0.156682
21
-0.0378641
31
1.60266
12
0.153318
22
-0.0562962
32
1.60861
13
0.153318
23
-0.0562962
33
1.60861
0
3DFACE
8
VIFS128
62
176
10
0.153318
20
-0.0562962
30
1.60861
11
-0.156682
21
-0.0378641
31
1.60266
12
-0.156682
22
-0.102852
32
1.63728
13
-0.156682
23
-0.102852
33
1.63728
0
3DFACE
8
VIFS128
62
176
10
0.153318
20
-0.0562962
30
1.60861
11
-0.156682
21
-0.102852
31
1.63728
12
0.153318
22
-0.114842
32
1.64923
13
0.153318
23
-0.114842
33
1.64923
0
3DFACE
8
VIFS128
62
176
10
0.153318
20
-0.114842
30
1.64923
11
-0.156682
21
-0.102852
31
1.63728
12
-0.156682
22
-0.146404
32
1.7032
13
-0.156682
23
-0.146404
33
1.7032
0
3DFACE
8
VIFS128
62
176
10
0.153318
20
-0.114842
30
1.64923
11
-0.156682
21
-0.146404
31
1.7032
12
0.153318
22
-0.150943
32
1.71951
13
0.153318
23
-0.150943
33
1.71951
0
3DFACE
8
VIFS128
62
176
10
0.153318
20
-0.150943
30
1.71951
11
-0.156682
21
-0.146404
31
1.7032
12
-0.156682
22
-0.153104
32
1.77414
13
-0.156682
23
-0.153104
33
1.77414
0
3DFACE
8
VIFS128
62
176
10
0.153318
20
-0.150943
30
1.71951
11
-0.156682
21
-0.153104
31
1.77414
12
0.153318
22
-0.149251
32
1.79312
13
0.153318
23
-0.149251
33
1.79312
0
3DFACE
8
VIFS128
62
176
10
0.153318
20
-0.149251
30
1.79312
11
-0.156682
21
-0.153104
31
1.77414
12
-0.156682
22
-0.123327
32
1.84618
13
-0.156682
23
-0.123327
33
1.84618
0
3DFACE
8
VIFS128
62
176
10
0.153318
20
-0.149251
30
1.79312
11
-0.156682
21
-0.123327
31
1.84618
12
0.153318
22
-0.0961343
32
1.8741
13
0.153318
23
-0.0961343
33
1.8741
0
3DFACE
8
VIFS128
62
176
10
0.153318
20
-0.0961343
30
1.8741
11
-0.156682
21
-0.123327
31
1.84618
12
-0.156682
22
-0.0644724
32
1.89362
13
-0.156682
23
-0.0644724
33
1.89362
0
3DFACE
8
VIFS128
62
176
10
0.153318
20
-0.0961343
30
1.8741
11
-0.156682
21
-0.0644724
31
1.89362
12
0.153318
22
-0.000438518
32
1.90785
13
0.153318
23
-0.000438518
33
1.90785
0
3DFACE
8
VIFS128
62
176
10
0.153318
20
-0.000438518
30
1.90785
11
-0.156682
21
-0.0644724
31
1.89362
12
-0.156682
22
-0.000438519
32
1.90785
13
-0.156682
23
-0.000438519
33
1.90785
0
3DFACE
8
VIFS128
62
176
10
0.153318
20
-0.000438518
30
1.90785
11
-0.156682
21
-0.000438519
31
1.90785
12
0.153318
22
0.0637495
32
1.89433
13
0.153318
23
0.0637495
33
1.89433
0
3DFACE
8
VIFS128
62
176
10
0.153318
20
0.0637495
30
1.89433
11
-0.156682
21
-0.000438519
31
1.90785
12
-0.156682
22
0.0956271
32
1.87518
13
-0.156682
23
0.0956271
33
1.87518
0
3DFACE
8
VIFS128
62
176
10
0.153318
20
0.0637495
30
1.89433
11
0.153318
21
-0.00082952
31
1.97785
12
0.153318
22
-0.000438518
32
1.90785
13
0.153318
23
-0.000438518
33
1.90785
0
3DFACE
8
VIFS128
62
176
10
0.153318
20
-0.000438518
30
1.90785
11
0.153318
21
-0.00082952
31
1.97785
12
0.153318
22
-0.139742
32
1.92886
13
0.153318
23
-0.139742
33
1.92886
0
3DFACE
8
VIFS128
62
176
10
0.153318
20
-0.000438518
30
1.90785
11
0.153318
21
-0.139742
31
1.92886
12
0.153318
22
-0.0961343
32
1.8741
13
0.153318
23
-0.0961343
33
1.8741
0
3DFACE
8
VIFS128
62
176
10
0.153318
20
-0.0961343
30
1.8741
11
0.153318
21
-0.139742
31
1.92886
12
0.153318
22
-0.216848
32
1.81131
13
0.153318
23
-0.216848
33
1.81131
0
3DFACE
8
VIFS128
62
176
10
0.153318
20
-0.0961343
30
1.8741
11
0.153318
21
-0.216848
31
1.81131
12
0.153318
22
-0.149251
32
1.79312
13
0.153318
23
-0.149251
33
1.79312
0
3DFACE
8
VIFS128
62
176
10
0.153318
20
-0.149251
30
1.79312
11
0.153318
21
-0.216848
31
1.81131
12
0.153318
22
-0.219305
32
1.70445
13
0.153318
23
-0.219305
33
1.70445
0
3DFACE
8
VIFS128
62
176
10
0.153318
20
-0.149251
30
1.79312
11
0.153318
21
-0.219305
31
1.70445
12
0.153318
22
-0.150943
32
1.71951
13
0.153318
23
-0.150943
33
1.71951
0
3DFACE
8
VIFS128
62
176
10
0.153318
20
-0.150943
30
1.71951
11
0.153318
21
-0.219305
31
1.70445
12
0.153318
22
-0.166899
32
1.60243
13
0.153318
23
-0.166899
33
1.60243
0
3DFACE
8
VIFS128
62
176
10
0.153318
20
-0.150943
30
1.71951
11
0.153318
21
-0.166899
31
1.60243
12
0.153318
22
-0.114842
32
1.64923
13
0.153318
23
-0.114842
33
1.64923
0
3DFACE
8
VIFS128
62
176
10
0.153318
20
-0.114842
30
1.64923
11
0.153318
21
-0.166899
31
1.60243
12
0.153318
22
-0.0819136
32
1.54346
13
0.153318
23
-0.0819136
33
1.54346
0
3DFACE
8
VIFS128
62
176
10
0.153318
20
-0.114842
30
1.64923
11
0.153318
21
-0.0819136
31
1.54346
12
0.153318
22
-0.0562962
32
1.60861
13
0.153318
23
-0.0562962
33
1.60861
0
3DFACE
8
VIFS128
62
176
10
0.153318
20
-0.0562962
30
1.60861
11
0.153318
21
-0.0819136
31
1.54346
12
0.153318
22
0.0584421
32
1.53547
13
0.153318
23
0.0584421
33
1.53547
0
3DFACE
8
VIFS128
62
176
10
0.153318
20
-0.0562962
30
1.60861
11
0.153318
21
0.0584421
31
1.53547
12
0.153318
22
0.040393
32
1.6031
13
0.153318
23
0.040393
33
1.6031
0
3DFACE
8
VIFS128
62
176
10
0.153318
20
0.040393
30
1.6031
11
0.153318
21
0.0584421
31
1.53547
12
0.153318
22
0.152213
32
1.58677
13
0.153318
23
0.152213
33
1.58677
0
3DFACE
8
VIFS128
62
176
10
0.153318
20
0.040393
30
1.6031
11
0.153318
21
0.152213
31
1.58677
12
0.153318
22
0.104991
32
1.63844
13
0.153318
23
0.104991
33
1.63844
0
3DFACE
8
VIFS128
62
176
10
0.153318
20
0.104991
30
1.63844
11
0.153318
21
0.152213
31
1.58677
12
0.153318
22
0.214361
32
1.68316
13
0.153318
23
0.214361
33
1.68316
0
3DFACE
8
VIFS128
62
176
10
0.153318
20
0.104991
30
1.63844
11
0.153318
21
0.214361
31
1.68316
12
0.153318
22
0.147804
32
1.70484
13
0.153318
23
0.147804
33
1.70484
0
3DFACE
8
VIFS128
62
176
10
0.153318
20
0.147804
30
1.70484
11
0.153318
21
0.214361
31
1.68316
12
0.153318
22
0.222936
32
1.78624
13
0.153318
23
0.222936
33
1.78624
0
3DFACE
8
VIFS128
62
176
10
0.153318
20
0.147804
30
1.70484
11
0.153318
21
0.222936
31
1.78624
12
0.153318
22
0.153711
32
1.77586
13
0.153318
23
0.153711
33
1.77586
0
3DFACE
8
VIFS128
62
176
10
0.153318
20
0.153711
30
1.77586
11
0.153318
21
0.222936
31
1.78624
12
0.153318
22
0.178545
32
1.89033
13
0.153318
23
0.178545
33
1.89033
0
3DFACE
8
VIFS128
62
176
10
0.153318
20
0.153711
30
1.77586
11
0.153318
21
0.178545
31
1.89033
12
0.153318
22
0.123131
32
1.84756
13
0.153318
23
0.123131
33
1.84756
0
3DFACE
8
VIFS128
62
176
10
0.153318
20
0.123131
30
1.84756
11
0.153318
21
0.178545
31
1.89033
12
0.153318
22
0.0923459
32
1.95822
13
0.153318
23
0.0923459
33
1.95822
0
3DFACE
8
VIFS128
62
176
10
0.153318
20
0.123131
30
1.84756
11
0.153318
21
0.0923459
31
1.95822
12
0.153318
22
0.0637495
32
1.89433
13
0.153318
23
0.0637495
33
1.89433
0
3DFACE
8
VIFS128
62
176
10
0.153318
20
0.0637495
30
1.89433
11
0.153318
21
0.0923459
31
1.95822
12
0.153318
22
-0.00082952
32
1.97785
13
0.153318
23
-0.00082952
33
1.97785
0
3DFACE
8
VIFS128
62
176
10
0.103318
20
-0.143715
30
1.58009
11
0.100869
21
-0.150232
31
1.58575
12
0.101954
22
-0.327836
32
0.314861
13
0.101954
23
-0.327836
33
0.314861
0
3DFACE
8
VIFS128
62
176
10
0.101954
20
-0.327836
30
0.314861
11
0.100869
21
-0.150232
31
1.58575
12
0.098793
22
-0.335735
32
0.306086
13
0.098793
23
-0.335735
33
0.306086
0
3DFACE
8
VIFS128
62
176
10
0.101954
20
-0.327836
30
0.314861
11
0.103318
21
-0.316871
31
0.326342
12
0.103318
22
-0.143715
32
1.58009
13
0.103318
23
-0.143715
33
1.58009
0
3DFACE
8
VIFS128
62
176
10
0.098793
20
-0.335735
30
0.306086
11
0.096688
21
-0.153178
31
1.58845
12
0.0959811
22
-0.339201
32
0.302077
13
0.0959811
23
-0.339201
33
0.302077
0
3DFACE
8
VIFS128
62
176
10
0.0959811
20
-0.339201
30
0.302077
11
0.096688
21
-0.153178
31
1.58845
12
0.0933182
22
-0.153804
32
1.58903
13
0.0933182
23
-0.153804
33
1.58903
0
3DFACE
8
VIFS128
62
176
10
0.0959811
20
-0.339201
30
0.302077
11
0.0933182
21
-0.153804
31
1.58903
12
0.0942261
22
-0.340071
32
0.301062
13
0.0942261
23
-0.340071
33
0.301062
0
3DFACE
8
VIFS128
62
176
10
0.0942261
20
-0.340071
30
0.301062
11
0.0933182
21
-0.153804
31
1.58903
12
0.0933182
22
-0.340181
32
0.300932
13
0.0933182
23
-0.340181
33
0.300932
0
3DFACE
8
VIFS128
62
176
10
0.100869
20
-0.150232
30
1.58575
11
0.096688
21
-0.153178
31
1.58845
12
0.098793
22
-0.335735
32
0.306086
13
0.098793
23
-0.335735
33
0.306086
0
3DFACE
8
VIFS128
62
176
10
0.0933182
20
-0.0773486
30
0.454423
11
0.0333181
21
-0.0773486
31
0.454423
12
0.0933182
22
-0.140463
32
0.462829
13
0.0933182
23
-0.140463
33
0.462829
0
3DFACE
8
VIFS128
62
176
10
0.0933182
20
-0.140463
30
0.462829
11
0.0333181
21
-0.0773486
31
0.454423
12
0.0333181
22
-0.140463
32
0.462829
13
0.0333181
23
-0.140463
33
0.462829
0
3DFACE
8
VIFS128
62
176
10
0.0933182
20
-0.140463
30
0.462829
11
0.0333181
21
-0.140463
31
0.462829
12
0.0933182
22
-0.189175
32
0.515338
13
0.0933182
23
-0.189175
33
0.515338
0
3DFACE
8
VIFS128
62
176
10
0.0933182
20
-0.189175
30
0.515338
11
0.0333181
21
-0.140463
31
0.462829
12
0.0333181
22
-0.189175
32
0.515338
13
0.0333181
23
-0.189175
33
0.515338
0
3DFACE
8
VIFS128
62
176
10
0.0933182
20
-0.189175
30
0.515338
11
0.0333181
21
-0.189175
31
0.515338
12
0.0933182
22
-0.19284
32
0.578909
13
0.0933182
23
-0.19284
33
0.578909
0
3DFACE
8
VIFS128
62
176
10
0.0933182
20
-0.19284
30
0.578909
11
0.0333181
21
-0.189175
31
0.515338
12
0.0333181
22
-0.19284
32
0.578909
13
0.0333181
23
-0.19284
33
0.578909
0
3DFACE
8
VIFS128
62
176
10
0.0333181
20
-0.19284
30
0.578909
11
0.033318
21
-0.112142
31
1.42275
12
0.0933182
22
-0.19284
32
0.578909
13
0.0933182
23
-0.19284
33
0.578909
0
3DFACE
8
VIFS128
62
176
10
0.0933182
20
-0.19284
30
0.578909
11
0.033318
21
-0.112142
31
1.42275
12
0.0933182
22
-0.112142
32
1.42275
13
0.0933182
23
-0.112142
33
1.42275
0
3DFACE
8
VIFS128
62
176
10
0.033318
20
0.117224
30
1.41345
11
0.0933182
21
0.117224
31
1.41345
12
0.033318
22
0.102234
32
1.46955
13
0.033318
23
0.102234
33
1.46955
0
3DFACE
8
VIFS128
62
176
10
0.033318
20
0.102234
30
1.46955
11
0.0933182
21
0.117224
31
1.41345
12
0.0933182
22
0.0379437
32
1.52205
13
0.0933182
23
0.0379437
33
1.52205
0
3DFACE
8
VIFS128
62
176
10
0.033318
20
0.102234
30
1.46955
11
0.0933182
21
0.0379437
31
1.52205
12
0.033318
22
0.0579561
32
1.51334
13
0.033318
23
0.0579561
33
1.51334
0
3DFACE
8
VIFS128
62
176
10
0.033318
20
0.0579561
30
1.51334
11
0.0933182
21
0.0379437
31
1.52205
12
0.033318
22
0.00168435
32
1.5277
13
0.033318
23
0.00168435
33
1.5277
0
3DFACE
8
VIFS128
62
176
10
0.0933182
20
0.0379437
30
1.52205
11
0.0933182
21
-0.0345094
31
1.52164
12
0.033318
22
0.00168435
32
1.5277
13
0.033318
23
0.00168435
33
1.5277
0
3DFACE
8
VIFS128
62
176
10
0.033318
20
0.00168435
30
1.5277
11
0.0933182
21
-0.0345094
31
1.52164
12
0.033318
22
-0.0509314
32
1.51462
13
0.033318
23
-0.0509314
33
1.51462
0
3DFACE
8
VIFS128
62
176
10
0.033318
20
-0.0509314
30
1.51462
11
0.0933182
21
-0.0345094
31
1.52164
12
0.033318
22
-0.094088
32
1.4753
13
0.033318
23
-0.094088
33
1.4753
0
3DFACE
8
VIFS128
62
176
10
0.033318
20
-0.094088
30
1.4753
11
0.0933182
21
-0.0345094
31
1.52164
12
0.0933182
22
-0.112142
32
1.42275
13
0.0933182
23
-0.112142
33
1.42275
0
3DFACE
8
VIFS128
62
176
10
0.033318
20
-0.094088
30
1.4753
11
0.0933182
21
-0.112142
31
1.42275
12
0.033318
22
-0.112142
32
1.42275
13
0.033318
23
-0.112142
33
1.42275
0
3DFACE
8
VIFS128
62
176
10
0.033318
20
0.117224
30
1.41345
11
0.033318
21
0.102234
31
1.46955
12
0.0333181
22
0.187003
32
0.5853
13
0.0333181
23
0.187003
33
0.5853
0
3DFACE
8
VIFS128
62
176
10
0.0333181
20
0.187003
30
0.5853
11
0.033318
21
0.102234
31
1.46955
12
0.0333181
22
0.138696
32
0.468989
13
0.0333181
23
0.138696
33
0.468989
0
3DFACE
8
VIFS128
62
176
10
0.0333181
20
0.187003
30
0.5853
11
0.0333181
21
0.138696
31
0.468989
12
0.0333181
22
0.184949
32
0.522358
13
0.0333181
23
0.184949
33
0.522358
0
3DFACE
8
VIFS128
62
176
10
0.033318
20
0.0579561
30
1.51334
11
0.0333181
21
0.0766864
31
0.457992
12
0.033318
22
0.102234
32
1.46955
13
0.033318
23
0.102234
33
1.46955
0
3DFACE
8
VIFS128
62
176
10
0.033318
20
0.102234
30
1.46955
11
0.0333181
21
0.0766864
31
0.457992
12
0.0333181
22
0.138696
32
0.468989
13
0.0333181
23
0.138696
33
0.468989
0
3DFACE
8
VIFS128
62
176
10
0.033318
20
-0.094088
30
1.4753
11
0.0333181
21
-0.0773486
31
0.454423
12
0.033318
22
-0.0509314
32
1.51462
13
0.033318
23
-0.0509314
33
1.51462
0
3DFACE
8
VIFS128
62
176
10
0.033318
20
-0.0509314
30
1.51462
11
0.0333181
21
-0.0773486
31
0.454423
12
0.0333181
22
0.0766864
32
0.457992
13
0.0333181
23
0.0766864
33
0.457992
0
3DFACE
8
VIFS128
62
176
10
0.033318
20
-0.0509314
30
1.51462
11
0.0333181
21
0.0766864
31
0.457992
12
0.033318
22
0.00168435
32
1.5277
13
0.033318
23
0.00168435
33
1.5277
0
3DFACE
8
VIFS128
62
176
10
0.033318
20
0.00168435
30
1.5277
11
0.0333181
21
0.0766864
31
0.457992
12
0.033318
22
0.0579561
32
1.51334
13
0.033318
23
0.0579561
33
1.51334
0
3DFACE
8
VIFS128
62
176
10
0.0333181
20
-0.140463
30
0.462829
11
0.0333181
21
-0.0773486
31
0.454423
12
0.033318
22
-0.112142
32
1.42275
13
0.033318
23
-0.112142
33
1.42275
0
3DFACE
8
VIFS128
62
176
10
0.033318
20
-0.112142
30
1.42275
11
0.0333181
21
-0.0773486
31
0.454423
12
0.033318
22
-0.094088
32
1.4753
13
0.033318
23
-0.094088
33
1.4753
0
3DFACE
8
VIFS128
62
176
10
0.0333181
20
-0.189175
30
0.515338
11
0.0333181
21
-0.140463
31
0.462829
12
0.0333181
22
-0.19284
32
0.578909
13
0.0333181
23
-0.19284
33
0.578909
0
3DFACE
8
VIFS128
62
176
10
0.0333181
20
-0.19284
30
0.578909
11
0.0333181
21
-0.140463
31
0.462829
12
0.033318
22
-0.112142
32
1.42275
13
0.033318
23
-0.112142
33
1.42275
0
3DFACE
8
VIFS128
62
176
10
0.0933182
20
0.187003
30
0.5853
11
0.0333181
21
0.187003
31
0.5853
12
0.0933182
22
0.184949
32
0.522358
13
0.0933182
23
0.184949
33
0.522358
0
3DFACE
8
VIFS128
62
176
10
0.0933182
20
0.184949
30
0.522358
11
0.0333181
21
0.187003
31
0.5853
12
0.0333181
22
0.184949
32
0.522358
13
0.0333181
23
0.184949
33
0.522358
0
3DFACE
8
VIFS128
62
176
10
0.0933182
20
0.184949
30
0.522358
11
0.0333181
21
0.184949
31
0.522358
12
0.0933182
22
0.138696
32
0.468989
13
0.0933182
23
0.138696
33
0.468989
0
3DFACE
8
VIFS128
62
176
10
0.0933182
20
0.138696
30
0.468989
11
0.0333181
21
0.184949
31
0.522358
12
0.0333181
22
0.138696
32
0.468989
13
0.0333181
23
0.138696
33
0.468989
0
3DFACE
8
VIFS128
62
176
10
0.0933182
20
0.138696
30
0.468989
11
0.0333181
21
0.138696
31
0.468989
12
0.0933182
22
0.0766864
32
0.457992
13
0.0933182
23
0.0766864
33
0.457992
0
3DFACE
8
VIFS128
62
176
10
0.0933182
20
0.0766864
30
0.457992
11
0.0333181
21
0.138696
31
0.468989
12
0.0333181
22
0.0766864
32
0.457992
13
0.0333181
23
0.0766864
33
0.457992
0
3DFACE
8
VIFS128
62
176
10
0.0933182
20
0.117224
30
1.41345
11
0.033318
21
0.117224
31
1.41345
12
0.0933182
22
0.187003
32
0.5853
13
0.0933182
23
0.187003
33
0.5853
0
3DFACE
8
VIFS128
62
176
10
0.0933182
20
0.187003
30
0.5853
11
0.033318
21
0.117224
31
1.41345
12
0.0333181
22
0.187003
32
0.5853
13
0.0333181
23
0.187003
33
0.5853
0
3DFACE
8
VIFS128
62
176
10
0.103318
20
0.127225
30
1.4135
11
0.102041
21
0.122333
31
1.41348
12
0.103318
22
0.196591
32
0.588144
13
0.103318
23
0.196591
33
0.588144
0
3DFACE
8
VIFS128
62
176
10
0.103318
20
0.196591
30
0.588144
11
0.102041
21
0.122333
31
1.41348
12
0.102041
22
0.191902
32
0.586757
13
0.102041
23
0.191902
33
0.586757
0
3DFACE
8
VIFS128
62
176
10
0.102041
20
0.191902
30
0.586757
11
0.0982082
21
0.118501
31
1.41345
12
0.0982082
22
0.188228
32
0.585668
13
0.0982082
23
0.188228
33
0.585668
0
3DFACE
8
VIFS128
62
176
10
0.0982082
20
0.188228
30
0.585668
11
0.0982082
21
0.118501
31
1.41345
12
0.0933182
22
0.117224
32
1.41345
13
0.0933182
23
0.117224
33
1.41345
0
3DFACE
8
VIFS128
62
176
10
0.0982082
20
0.188228
30
0.585668
11
0.0933182
21
0.117224
31
1.41345
12
0.0933182
22
0.187003
32
0.5853
13
0.0933182
23
0.187003
33
0.5853
0
3DFACE
8
VIFS128
62
176
10
0.102041
20
0.122333
30
1.41348
11
0.0982082
21
0.118501
31
1.41345
12
0.102041
22
0.191902
32
0.586757
13
0.102041
23
0.191902
33
0.586757
0
3DFACE
8
VIFS128
62
176
10
0.103318
20
0.0410424
30
1.53155
11
0.102041
21
0.0395275
31
1.5269
12
0.102041
22
0.122333
32
1.41348
13
0.102041
23
0.122333
33
1.41348
0
3DFACE
8
VIFS128
62
176
10
0.102041
20
0.122333
30
1.41348
11
0.102041
21
0.0395275
31
1.5269
12
0.0982082
22
0.118501
32
1.41345
13
0.0982082
23
0.118501
33
1.41345
0
3DFACE
8
VIFS128
62
176
10
0.102041
20
0.122333
30
1.41348
11
0.103318
21
0.127225
31
1.4135
12
0.103318
22
0.0410424
32
1.53155
13
0.103318
23
0.0410424
33
1.53155
0
3DFACE
8
VIFS128
62
176
10
0.102041
20
0.0395275
30
1.5269
11
0.0982082
21
0.0383383
31
1.52326
12
0.0982082
22
0.118501
32
1.41345
13
0.0982082
23
0.118501
33
1.41345
0
3DFACE
8
VIFS128
62
176
10
0.0982082
20
0.118501
30
1.41345
11
0.0982082
21
0.0383383
31
1.52326
12
0.0933182
22
0.117224
32
1.41345
13
0.0933182
23
0.117224
33
1.41345
0
3DFACE
8
VIFS128
62
176
10
0.0982082
20
0.0383383
30
1.52326
11
0.0933182
21
0.0379437
31
1.52205
12
0.0933182
22
0.117224
32
1.41345
13
0.0933182
23
0.117224
33
1.41345
0
3DFACE
8
VIFS128
62
176
10
0.100146
20
0.00168931
30
1.52688
11
0.103318
21
0.0016838
31
1.52786
12
0.103318
22
-0.037714
32
1.53111
13
0.103318
23
-0.037714
33
1.53111
0
3DFACE
8
VIFS128
62
176
10
0.100146
20
0.00168931
30
1.52688
11
0.103318
21
0.0410424
31
1.53155
12
0.103318
22
0.0016838
32
1.52786
13
0.103318
23
0.0016838
33
1.52786
0
3DFACE
8
VIFS128
62
176
10
0.0933182
20
0.0379437
30
1.52205
11
0.0982082
21
0.0383383
31
1.52326
12
0.100146
22
0.00168931
32
1.52688
13
0.100146
23
0.00168931
33
1.52688
0
3DFACE
8
VIFS128
62
176
10
0.0982082
20
0.0383383
30
1.52326
11
0.102041
21
0.0395275
31
1.5269
12
0.100146
22
0.00168931
32
1.52688
13
0.100146
23
0.00168931
33
1.52688
0
3DFACE
8
VIFS128
62
176
10
0.100146
20
0.00168931
30
1.52688
11
0.102041
21
0.0395275
31
1.5269
12
0.103318
22
0.0410424
32
1.53155
13
0.103318
23
0.0410424
33
1.53155
0
3DFACE
8
VIFS128
62
176
10
0.100146
20
0.00168931
30
1.52688
11
0.0933182
21
-0.0345094
31
1.52164
12
0.0933182
22
0.0379437
32
1.52205
13
0.0933182
23
0.0379437
33
1.52205
0
3DFACE
8
VIFS128
62
176
10
0.103318
20
-0.037714
30
1.53111
11
0.102041
21
-0.036147
31
1.52648
12
0.100146
22
0.00168931
32
1.52688
13
0.100146
23
0.00168931
33
1.52688
0
3DFACE
8
VIFS128
62
176
10
0.102041
20
-0.036147
30
1.52648
11
0.0982082
21
-0.0349183
31
1.52285
12
0.100146
22
0.00168931
32
1.52688
13
0.100146
23
0.00168931
33
1.52688
0
3DFACE
8
VIFS128
62
176
10
0.100146
20
0.00168931
30
1.52688
11
0.0982082
21
-0.0349183
31
1.52285
12
0.0933182
22
-0.0345094
32
1.52164
13
0.0933182
23
-0.0345094
33
1.52164
0
3DFACE
8
VIFS128
62
176
10
0.103318
20
-0.122145
30
1.42318
11
0.102313
21
-0.117774
31
1.42298
12
0.103318
22
-0.037714
32
1.53111
13
0.103318
23
-0.037714
33
1.53111
0
3DFACE
8
VIFS128
62
176
10
0.103318
20
-0.037714
30
1.53111
11
0.102313
21
-0.117774
31
1.42298
12
0.102041
22
-0.036147
32
1.52648
13
0.102041
23
-0.036147
33
1.52648
0
3DFACE
8
VIFS128
62
176
10
0.102313
20
-0.117774
30
1.42298
11
0.098922
21
-0.11386
31
1.42282
12
0.102041
22
-0.036147
32
1.52648
13
0.102041
23
-0.036147
33
1.52648
0
3DFACE
8
VIFS128
62
176
10
0.102041
20
-0.036147
30
1.52648
11
0.098922
21
-0.11386
31
1.42282
12
0.0982082
22
-0.0349183
32
1.52285
13
0.0982082
23
-0.0349183
33
1.52285
0
3DFACE
8
VIFS128
62
176
10
0.0933182
20
-0.0345094
30
1.52164
11
0.0982082
21
-0.0349183
31
1.52285
12
0.0933182
22
-0.112142
32
1.42275
13
0.0933182
23
-0.112142
33
1.42275
0
3DFACE
8
VIFS128
62
176
10
0.0933182
20
-0.112142
30
1.42275
11
0.0982082
21
-0.0349183
31
1.52285
12
0.098922
22
-0.11386
32
1.42282
13
0.098922
23
-0.11386
33
1.42282
0
3DFACE
8
VIFS128
62
176
10
0.103318
20
-0.202486
30
0.581545
11
0.102041
21
-0.197768
31
0.580252
12
0.102313
22
-0.117774
32
1.42298
13
0.102313
23
-0.117774
33
1.42298
0
3DFACE
8
VIFS128
62
176
10
0.102313
20
-0.117774
30
1.42298
11
0.102041
21
-0.197768
31
0.580252
12
0.098922
22
-0.11386
32
1.42282
13
0.098922
23
-0.11386
33
1.42282
0
3DFACE
8
VIFS128
62
176
10
0.102313
20
-0.117774
30
1.42298
11
0.103318
21
-0.122145
31
1.42318
12
0.103318
22
-0.202486
32
0.581545
13
0.103318
23
-0.202486
33
0.581545
0
3DFACE
8
VIFS128
62
176
10
0.102041
20
-0.197768
30
0.580252
11
0.0982082
21
-0.194071
31
0.579242
12
0.098922
22
-0.11386
32
1.42282
13
0.098922
23
-0.11386
33
1.42282
0
3DFACE
8
VIFS128
62
176
10
0.098922
20
-0.11386
30
1.42282
11
0.0982082
21
-0.194071
31
0.579242
12
0.0933182
22
-0.112142
32
1.42275
13
0.0933182
23
-0.112142
33
1.42275
0
3DFACE
8
VIFS128
62
176
10
0.0982082
20
-0.194071
30
0.579242
11
0.0933182
21
-0.19284
31
0.578909
12
0.0933182
22
-0.112142
32
1.42275
13
0.0933182
23
-0.112142
33
1.42275
0
3DFACE
8
VIFS128
62
176
10
0.0933182
20
-0.19284
30
0.578909
11
0.0982082
21
-0.194071
31
0.579242
12
0.0933182
22
-0.189175
32
0.515338
13
0.0933182
23
-0.189175
33
0.515338
0
3DFACE
8
VIFS128
62
176
10
0.0933182
20
-0.189175
30
0.515338
11
0.0982082
21
-0.194071
31
0.579242
12
0.103318
22
-0.203356
32
0.527019
13
0.103318
23
-0.203356
33
0.527019
0
3DFACE
8
VIFS128
62
176
10
0.0933182
20
-0.189175
30
0.515338
11
0.103318
21
-0.203356
31
0.527019
12
0.103318
22
-0.172268
32
0.472962
13
0.103318
23
-0.172268
33
0.472962
0
3DFACE
8
VIFS128
62
176
10
0.0982082
20
-0.194071
30
0.579242
11
0.102041
21
-0.197768
31
0.580252
12
0.103318
22
-0.203356
32
0.527019
13
0.103318
23
-0.203356
33
0.527019
0
3DFACE
8
VIFS128
62
176
10
0.103318
20
-0.203356
30
0.527019
11
0.102041
21
-0.197768
31
0.580252
12
0.103318
22
-0.202486
32
0.581545
13
0.103318
23
-0.202486
33
0.581545
0
3DFACE
8
VIFS128
62
176
10
0.0933182
20
-0.189175
30
0.515338
11
0.103318
21
-0.172268
31
0.472962
12
0.0933182
22
-0.140463
32
0.462829
13
0.0933182
23
-0.140463
33
0.462829
0
3DFACE
8
VIFS128
62
176
10
0.0933182
20
-0.140463
30
0.462829
11
0.103318
21
-0.172268
31
0.472962
12
0.103318
22
-0.117839
32
0.444706
13
0.103318
23
-0.117839
33
0.444706
0
3DFACE
8
VIFS128
62
176
10
0.0933182
20
-0.140463
30
0.462829
11
0.103318
21
-0.117839
31
0.444706
12
0.0933182
22
-0.0773486
32
0.454423
13
0.0933182
23
-0.0773486
33
0.454423
0
3DFACE
8
VIFS128
62
176
10
0.0933182
20
-0.0773486
30
0.454423
11
0.103318
21
-0.117839
31
0.444706
12
0.103318
22
-0.0773597
32
0.454472
13
0.103318
23
-0.0773597
33
0.454472
0
3DFACE
8
VIFS128
62
176
10
0.0333181
20
0.0766864
30
0.457992
11
0.103318
21
0.00763221
31
0.462877
12
0.0933182
22
0.0766864
32
0.457992
13
0.0933182
23
0.0766864
33
0.457992
0
3DFACE
8
VIFS128
62
176
10
0.0933182
20
0.0766864
30
0.457992
11
0.103318
21
0.00763221
31
0.462877
12
0.103318
22
0.0766935
32
0.458053
13
0.103318
23
0.0766935
33
0.458053
0
3DFACE
8
VIFS128
62
176
10
0.103318
20
-0.0773486
30
0.454423
11
0.103318
21
0.00763221
31
0.462877
12
0.0933182
22
-0.0773486
32
0.454423
13
0.0933182
23
-0.0773486
33
0.454423
0
3DFACE
8
VIFS128
62
176
10
0.0933182
20
-0.0773486
30
0.454423
11
0.103318
21
0.00763221
31
0.462877
12
0.0333181
22
0.0766864
32
0.457992
13
0.0333181
23
0.0766864
33
0.457992
0
3DFACE
8
VIFS128
62
176
10
0.0933182
20
-0.0773486
30
0.454423
11
0.0333181
21
0.0766864
31
0.457992
12
0.0333181
22
-0.0773486
32
0.454423
13
0.0333181
23
-0.0773486
33
0.454423
0
3DFACE
8
VIFS128
62
176
10
0.103318
20
0.117583
30
0.450171
11
0.0933182
21
0.0766864
31
0.457992
12
0.103318
22
0.0766935
32
0.458053
13
0.103318
23
0.0766935
33
0.458053
0
3DFACE
8
VIFS128
62
176
10
0.0933182
20
0.0766864
30
0.457992
11
0.103318
21
0.117583
31
0.450171
12
0.0933182
22
0.138696
32
0.468989
13
0.0933182
23
0.138696
33
0.468989
0
3DFACE
8
VIFS128
62
176
10
0.0933182
20
0.138696
30
0.468989
11
0.103318
21
0.117583
31
0.450171
12
0.103318
22
0.169965
32
0.480234
13
0.103318
23
0.169965
33
0.480234
0
3DFACE
8
VIFS128
62
176
10
0.0933182
20
0.138696
30
0.468989
11
0.103318
21
0.169965
31
0.480234
12
0.0933182
22
0.184949
32
0.522358
13
0.0933182
23
0.184949
33
0.522358
0
3DFACE
8
VIFS128
62
176
10
0.0933182
20
0.184949
30
0.522358
11
0.103318
21
0.169965
31
0.480234
12
0.103318
22
0.198778
32
0.534375
13
0.103318
23
0.198778
33
0.534375
0
3DFACE
8
VIFS128
62
176
10
0.0933182
20
0.184949
30
0.522358
11
0.103318
21
0.198778
31
0.534375
12
0.102041
22
0.191902
32
0.586757
13
0.102041
23
0.191902
33
0.586757
0
3DFACE
8
VIFS128
62
176
10
0.102041
20
0.191902
30
0.586757
11
0.103318
21
0.198778
31
0.534375
12
0.103318
22
0.196591
32
0.588144
13
0.103318
23
0.196591
33
0.588144
0
3DFACE
8
VIFS128
62
176
10
0.102041
20
0.191902
30
0.586757
11
0.0982082
21
0.188228
31
0.585668
12
0.0933182
22
0.184949
32
0.522358
13
0.0933182
23
0.184949
33
0.522358
0
3DFACE
8
VIFS128
62
176
10
0.0933182
20
0.184949
30
0.522358
11
0.0982082
21
0.188228
31
0.585668
12
0.0933182
22
0.187003
32
0.5853
13
0.0933182
23
0.187003
33
0.5853
0
3DFACE
8
VIFS128
62
176
10
0.103318
20
0.0410424
30
1.53155
11
0.103318
21
0.127225
31
1.4135
12
0.103318
22
0.146345
32
1.58159
13
0.103318
23
0.146345
33
1.58159
0
3DFACE
8
VIFS128
62
176
10
0.103318
20
0.146345
30
1.58159
11
0.103318
21
0.127225
31
1.4135
12
0.103318
22
0.325479
32
0.33785
13
0.103318
23
0.325479
33
0.33785
0
3DFACE
8
VIFS128
62
176
10
0.103318
20
0.127225
30
1.4135
11
0.103318
21
0.196591
31
0.588144
12
0.103318
22
0.325479
32
0.33785
13
0.103318
23
0.325479
33
0.33785
0
3DFACE
8
VIFS128
62
176
10
0.103318
20
0.325479
30
0.33785
11
0.103318
21
0.196591
31
0.588144
12
0.103318
22
0.198778
32
0.534375
13
0.103318
23
0.198778
33
0.534375
0
3DFACE
8
VIFS128
62
176
10
0.103318
20
0.325479
30
0.33785
11
0.103318
21
0.198778
31
0.534375
12
0.103318
22
0.169965
32
0.480234
13
0.103318
23
0.169965
33
0.480234
0
3DFACE
8
VIFS128
62
176
10
0.103318
20
0.169965
30
0.480234
11
0.103318
21
0.117583
31
0.450171
12
0.103318
22
0.325479
32
0.33785
13
0.103318
23
0.325479
33
0.33785
0
3DFACE
8
VIFS128
62
176
10
0.0933182
20
0.156279
30
1.59058
11
0.101892
21
0.151364
31
1.586
12
0.0933182
22
0.357232
32
0.304827
13
0.0933182
23
0.357232
33
0.304827
0
3DFACE
8
VIFS128
62
176
10
0.0933182
20
0.357232
30
0.304827
11
0.101892
21
0.151364
31
1.586
12
0.103318
22
0.325479
32
0.33785
13
0.103318
23
0.325479
33
0.33785
0
3DFACE
8
VIFS128
62
176
10
0.101892
20
0.151364
30
1.586
11
0.103318
21
0.146345
31
1.58159
12
0.103318
22
0.325479
32
0.33785
13
0.103318
23
0.325479
33
0.33785
0
3DFACE
8
VIFS128
62
176
10
-0.116682
20
0.395946
30
0.305043
11
-0.120514
21
0.426047
31
0.233119
12
-0.120705
22
0.376789
32
0.304936
13
-0.120705
23
0.376789
33
0.304936
0
3DFACE
8
VIFS128
62
176
10
-0.120705
20
0.376789
30
0.304936
11
-0.120514
21
0.426047
31
0.233119
12
-0.132011
22
0.415989
32
0.227554
13
-0.132011
23
0.415989
33
0.227554
0
3DFACE
8
VIFS128
62
176
10
-0.120705
20
0.376789
30
0.304936
11
-0.132011
21
0.415989
31
0.227554
12
-0.13155
22
0.362578
32
0.304857
13
-0.13155
23
0.362578
33
0.304857
0
3DFACE
8
VIFS128
62
176
10
-0.13155
20
0.362578
30
0.304857
11
-0.132011
21
0.415989
31
0.227554
12
-0.146682
22
0.412636
32
0.225695
13
-0.146682
23
0.412636
33
0.225695
0
3DFACE
8
VIFS128
62
176
10
-0.13155
20
0.362578
30
0.304857
11
-0.146682
21
0.412636
31
0.225695
12
-0.146682
22
0.357232
32
0.304827
13
-0.146682
23
0.357232
33
0.304827
0
3DFACE
8
VIFS128
62
176
10
-0.116682
20
0.395946
30
0.305043
11
-0.116682
21
0.438882
31
0.240232
12
-0.120514
22
0.426047
32
0.233119
13
-0.120514
23
0.426047
33
0.233119
0
3DFACE
8
VIFS128
62
176
10
-0.116682
20
0.441507
30
-0.229661
11
-0.120514
21
0.428593
31
-0.222693
12
-0.120514
22
0.426047
32
0.233119
13
-0.120514
23
0.426047
33
0.233119
0
3DFACE
8
VIFS128
62
176
10
-0.120514
20
0.426047
30
0.233119
11
-0.120514
21
0.428593
31
-0.222693
12
-0.132011
22
0.415989
32
0.227554
13
-0.132011
23
0.415989
33
0.227554
0
3DFACE
8
VIFS128
62
176
10
-0.120514
20
0.426047
30
0.233119
11
-0.116682
21
0.438882
31
0.240232
12
-0.116682
22
0.441507
32
-0.229661
13
-0.116682
23
0.441507
33
-0.229661
0
3DFACE
8
VIFS128
62
176
10
-0.120514
20
0.428593
30
-0.222693
11
-0.132011
21
0.418473
31
-0.217239
12
-0.132011
22
0.415989
32
0.227554
13
-0.132011
23
0.415989
33
0.227554
0
3DFACE
8
VIFS128
62
176
10
-0.132011
20
0.415989
30
0.227554
11
-0.132011
21
0.418473
31
-0.217239
12
-0.146682
22
0.412636
32
0.225695
13
-0.146682
23
0.412636
33
0.225695
0
3DFACE
8
VIFS128
62
176
10
-0.132011
20
0.418473
30
-0.217239
11
-0.146682
21
0.415099
31
-0.215419
12
-0.146682
22
0.412636
32
0.225695
13
-0.146682
23
0.412636
33
0.225695
0
3DFACE
8
VIFS128
62
176
10
-0.146682
20
0.415099
30
-0.215419
11
-0.132011
21
0.418473
31
-0.217239
12
-0.130914
22
0.366443
32
-0.295131
13
-0.130914
23
0.366443
33
-0.295131
0
3DFACE
8
VIFS128
62
176
10
-0.130914
20
0.366443
30
-0.295131
11
-0.132011
21
0.418473
31
-0.217239
12
-0.120391
22
0.380854
32
-0.29505
13
-0.120391
23
0.380854
33
-0.29505
0
3DFACE
8
VIFS128
62
176
10
-0.130914
20
0.366443
30
-0.295131
11
-0.146682
21
0.360583
31
-0.295164
12
-0.146682
22
0.415099
32
-0.215419
13
-0.146682
23
0.415099
33
-0.215419
0
3DFACE
8
VIFS128
62
176
10
-0.132011
20
0.418473
30
-0.217239
11
-0.120514
21
0.428593
31
-0.222693
12
-0.120391
22
0.380854
32
-0.29505
13
-0.120391
23
0.380854
33
-0.29505
0
3DFACE
8
VIFS128
62
176
10
-0.120391
20
0.380854
30
-0.29505
11
-0.120514
21
0.428593
31
-0.222693
12
-0.116682
22
0.399298
32
-0.294948
13
-0.116682
23
0.399298
33
-0.294948
0
3DFACE
8
VIFS128
62
176
10
-0.116682
20
0.441507
30
-0.229661
11
-0.116682
21
0.399298
31
-0.294948
12
-0.120514
22
0.428593
32
-0.222693
13
-0.120514
23
0.428593
33
-0.222693
0
3DFACE
8
VIFS128
62
176
10
-0.116682
20
0.441507
30
-0.229661
11
-0.116682
21
0.44187
31
-0.29471
12
-0.116682
22
0.399298
32
-0.294948
13
-0.116682
23
0.399298
33
-0.294948
0
3DFACE
8
VIFS128
62
176
10
0.113318
20
0.44187
30
-0.29471
11
0.113318
21
0.441507
31
-0.229661
12
0.113318
22
0.399298
32
-0.294948
13
0.113318
23
0.399298
33
-0.294948
0
3DFACE
8
VIFS128
62
176
10
0.10302
20
0.489436
30
-0.294445
11
0.113318
21
0.44187
31
-0.29471
12
0.0680731
22
0.533298
32
-0.2942
13
0.0680731
23
0.533298
33
-0.2942
0
3DFACE
8
VIFS128
62
176
10
0.0680731
20
0.533298
30
-0.2942
11
0.113318
21
0.44187
31
-0.29471
12
0.113318
22
0.399298
32
-0.294948
13
0.113318
23
0.399298
33
-0.294948
0
3DFACE
8
VIFS128
62
176
10
0.0680731
20
0.533298
30
-0.2942
11
0.113318
21
0.399298
31
-0.294948
12
-0.0870038
22
0.518973
32
-0.294279
13
-0.0870038
23
0.518973
33
-0.294279
0
3DFACE
8
VIFS128
62
176
10
-0.0870038
20
0.518973
30
-0.294279
11
0.113318
21
0.399298
31
-0.294948
12
-0.120391
22
0.380854
32
-0.29505
13
-0.120391
23
0.380854
33
-0.29505
0
3DFACE
8
VIFS128
62
176
10
-0.0870038
20
0.518973
30
-0.294279
11
-0.120391
21
0.380854
31
-0.29505
12
-0.116682
22
0.399298
32
-0.294948
13
-0.116682
23
0.399298
33
-0.294948
0
3DFACE
8
VIFS128
62
176
10
-0.0870038
20
0.518973
30
-0.294279
11
-0.0379148
21
0.551011
31
-0.2941
12
0.0680731
22
0.533298
32
-0.2942
13
0.0680731
23
0.533298
33
-0.2942
0
3DFACE
8
VIFS128
62
176
10
0.0680731
20
0.533298
30
-0.2942
11
-0.0379148
21
0.551011
31
-0.2941
12
0.0147472
22
0.555688
32
-0.294074
13
0.0147472
23
0.555688
33
-0.294074
0
3DFACE
8
VIFS128
62
176
10
0.113318
20
0.399298
30
-0.294948
11
0.117341
21
0.380141
31
-0.295054
12
-0.120391
22
0.380854
32
-0.29505
13
-0.120391
23
0.380854
33
-0.29505
0
3DFACE
8
VIFS128
62
176
10
-0.120391
20
0.380854
30
-0.29505
11
0.117341
21
0.380141
31
-0.295054
12
-0.130914
22
0.366443
32
-0.295131
13
-0.130914
23
0.366443
33
-0.295131
0
3DFACE
8
VIFS128
62
176
10
0.117341
20
0.380141
30
-0.295054
11
0.128186
21
0.365928
31
-0.295134
12
-0.130914
22
0.366443
32
-0.295131
13
-0.130914
23
0.366443
33
-0.295131
0
3DFACE
8
VIFS128
62
176
10
-0.130914
20
0.366443
30
-0.295131
11
0.128186
21
0.365928
31
-0.295134
12
-0.146682
22
0.360583
32
-0.295164
13
-0.146682
23
0.360583
33
-0.295164
0
3DFACE
8
VIFS128
62
176
10
0.128186
20
0.365928
30
-0.295134
11
0.143318
21
0.360583
31
-0.295164
12
-0.146682
22
0.360583
32
-0.295164
13
-0.146682
23
0.360583
33
-0.295164
0
3DFACE
8
VIFS128
62
176
10
-0.116682
20
0.399298
30
-0.294948
11
-0.116682
21
0.44187
31
-0.29471
12
-0.0870038
22
0.518973
32
-0.294279
13
-0.0870038
23
0.518973
33
-0.294279
0
3DFACE
8
VIFS128
62
176
10
0.113318
20
0.399298
30
-0.294948
11
0.11715
21
0.428593
31
-0.222693
12
0.117341
22
0.380141
32
-0.295054
13
0.117341
23
0.380141
33
-0.295054
0
3DFACE
8
VIFS128
62
176
10
0.117341
20
0.380141
30
-0.295054
11
0.11715
21
0.428593
31
-0.222693
12
0.128647
22
0.418473
32
-0.217239
13
0.128647
23
0.418473
33
-0.217239
0
3DFACE
8
VIFS128
62
176
10
0.117341
20
0.380141
30
-0.295054
11
0.128647
21
0.418473
31
-0.217239
12
0.128186
22
0.365928
32
-0.295134
13
0.128186
23
0.365928
33
-0.295134
0
3DFACE
8
VIFS128
62
176
10
0.128186
20
0.365928
30
-0.295134
11
0.128647
21
0.418473
31
-0.217239
12
0.143318
22
0.415099
32
-0.215419
13
0.143318
23
0.415099
33
-0.215419
0
3DFACE
8
VIFS128
62
176
10
0.128186
20
0.365928
30
-0.295134
11
0.143318
21
0.415099
31
-0.215419
12
0.143318
22
0.360583
32
-0.295164
13
0.143318
23
0.360583
33
-0.295164
0
3DFACE
8
VIFS128
62
176
10
0.113318
20
0.399298
30
-0.294948
11
0.113318
21
0.441507
31
-0.229661
12
0.11715
22
0.428593
32
-0.222693
13
0.11715
23
0.428593
33
-0.222693
0
3DFACE
8
VIFS128
62
176
10
0.113318
20
0.438882
30
0.240232
11
0.11715
21
0.426047
31
0.233119
12
0.11715
22
0.428593
32
-0.222693
13
0.11715
23
0.428593
33
-0.222693
0
3DFACE
8
VIFS128
62
176
10
0.11715
20
0.428593
30
-0.222693
11
0.11715
21
0.426047
31
0.233119
12
0.128647
22
0.418473
32
-0.217239
13
0.128647
23
0.418473
33
-0.217239
0
3DFACE
8
VIFS128
62
176
10
0.11715
20
0.428593
30
-0.222693
11
0.113318
21
0.441507
31
-0.229661
12
0.113318
22
0.438882
32
0.240232
13
0.113318
23
0.438882
33
0.240232
0
3DFACE
8
VIFS128
62
176
10
0.11715
20
0.426047
30
0.233119
11
0.128647
21
0.415989
31
0.227554
12
0.128647
22
0.418473
32
-0.217239
13
0.128647
23
0.418473
33
-0.217239
0
3DFACE
8
VIFS128
62
176
10
0.128647
20
0.418473
30
-0.217239
11
0.128647
21
0.415989
31
0.227554
12
0.143318
22
0.415099
32
-0.215419
13
0.143318
23
0.415099
33
-0.215419
0
3DFACE
8
VIFS128
62
176
10
0.128647
20
0.415989
30
0.227554
11
0.143318
21
0.412636
31
0.225695
12
0.143318
22
0.415099
32
-0.215419
13
0.143318
23
0.415099
33
-0.215419
0
3DFACE
8
VIFS128
62
176
10
0.143318
20
0.412636
30
0.225695
11
0.128647
21
0.415989
31
0.227554
12
0.12755
22
0.363092
32
0.30486
13
0.12755
23
0.363092
33
0.30486
0
3DFACE
8
VIFS128
62
176
10
0.12755
20
0.363092
30
0.30486
11
0.128647
21
0.415989
31
0.227554
12
0.117027
22
0.377503
32
0.30494
13
0.117027
23
0.377503
33
0.30494
0
3DFACE
8
VIFS128
62
176
10
0.12755
20
0.363092
30
0.30486
11
0.143318
21
0.357232
31
0.304827
12
0.143318
22
0.412636
32
0.225695
13
0.143318
23
0.412636
33
0.225695
0
3DFACE
8
VIFS128
62
176
10
0.128647
20
0.415989
30
0.227554
11
0.11715
21
0.426047
31
0.233119
12
0.117027
22
0.377503
32
0.30494
13
0.117027
23
0.377503
33
0.30494
0
3DFACE
8
VIFS128
62
176
10
0.117027
20
0.377503
30
0.30494
11
0.11715
21
0.426047
31
0.233119
12
0.113318
22
0.395946
32
0.305043
13
0.113318
23
0.395946
33
0.305043
0
3DFACE
8
VIFS128
62
176
10
0.113318
20
0.438882
30
0.240232
11
0.113318
21
0.395946
31
0.305043
12
0.11715
22
0.426047
32
0.233119
13
0.11715
23
0.426047
33
0.233119
0
3DFACE
8
VIFS128
62
176
10
0.113318
20
0.438882
30
0.240232
11
0.113318
21
0.438518
31
0.305281
12
0.113318
22
0.395946
32
0.305043
13
0.113318
23
0.395946
33
0.305043
0
3DFACE
8
VIFS128
62
176
10
0.0680731
20
0.533298
30
-0.2942
11
0.088675
21
0.509656
31
0.305678
12
0.10302
22
0.489436
32
-0.294445
13
0.10302
23
0.489436
33
-0.294445
0
3DFACE
8
VIFS128
62
176
10
0.10302
20
0.489436
30
-0.294445
11
0.088675
21
0.509656
31
0.305678
12
0.113318
22
0.438882
32
0.240232
13
0.113318
23
0.438882
33
0.240232
0
3DFACE
8
VIFS128
62
176
10
0.10302
20
0.489436
30
-0.294445
11
0.113318
21
0.438882
31
0.240232
12
0.113318
22
0.441507
32
-0.229661
13
0.113318
23
0.441507
33
-0.229661
0
3DFACE
8
VIFS128
62
176
10
0.088675
20
0.509656
30
0.305678
11
0.0680731
21
0.533298
31
-0.2942
12
0.0288141
22
0.5494
32
0.305901
13
0.0288141
23
0.5494
33
0.305901
0
3DFACE
8
VIFS128
62
176
10
0.0288141
20
0.5494
30
0.305901
11
0.0680731
21
0.533298
31
-0.2942
12
0.0147472
22
0.555688
32
-0.294074
13
0.0147472
23
0.555688
33
-0.294074
0
3DFACE
8
VIFS128
62
176
10
0.0288141
20
0.5494
30
0.305901
11
0.0147472
21
0.555688
31
-0.294074
12
-0.025795
22
0.550961
32
0.305909
13
-0.025795
23
0.550961
33
0.305909
0
3DFACE
8
VIFS128
62
176
10
-0.025795
20
0.550961
30
0.305909
11
0.0147472
21
0.555688
31
-0.294074
12
-0.0379148
22
0.551011
32
-0.2941
13
-0.0379148
23
0.551011
33
-0.2941
0
3DFACE
8
VIFS128
62
176
10
-0.025795
20
0.550961
30
0.305909
11
-0.0379148
21
0.551011
31
-0.2941
12
-0.0870049
22
0.515621
32
0.305711
13
-0.0870049
23
0.515621
33
0.305711
0
3DFACE
8
VIFS128
62
176
10
-0.0870049
20
0.515621
30
0.305711
11
-0.0379148
21
0.551011
31
-0.2941
12
-0.0870038
22
0.518973
32
-0.294279
13
-0.0870038
23
0.518973
33
-0.294279
0
3DFACE
8
VIFS128
62
176
10
-0.0870049
20
0.515621
30
0.305711
11
-0.0870038
21
0.518973
31
-0.294279
12
-0.116682
22
0.441507
32
-0.229661
13
-0.116682
23
0.441507
33
-0.229661
0
3DFACE
8
VIFS128
62
176
10
-0.116682
20
0.441507
30
-0.229661
11
-0.0870038
21
0.518973
31
-0.294279
12
-0.116682
22
0.44187
32
-0.29471
13
-0.116682
23
0.44187
33
-0.29471
0
3DFACE
8
VIFS128
62
176
10
0.113318
20
0.438518
30
0.305281
11
0.113318
21
0.438882
31
0.240232
12
0.088675
22
0.509656
32
0.305678
13
0.088675
23
0.509656
33
0.305678
0
3DFACE
8
VIFS128
62
176
10
0.113318
20
0.441507
30
-0.229661
11
0.113318
21
0.44187
31
-0.29471
12
0.10302
22
0.489436
32
-0.294445
13
0.10302
23
0.489436
33
-0.294445
0
3DFACE
8
VIFS128
62
176
10
-0.116682
20
0.441507
30
-0.229661
11
-0.116682
21
0.438882
31
0.240232
12
-0.0870049
22
0.515621
32
0.305711
13
-0.0870049
23
0.515621
33
0.305711
0
3DFACE
8
VIFS128
62
176
10
-0.0870049
20
0.515621
30
0.305711
11
-0.116682
21
0.438882
31
0.240232
12
-0.116682
22
0.438518
32
0.305281
13
-0.116682
23
0.438518
33
0.305281
0
3DFACE
8
VIFS128
62
176
10
-0.116682
20
0.438518
30
0.305281
11
-0.116682
21
0.438882
31
0.240232
12
-0.116682
22
0.395946
32
0.305043
13
-0.116682
23
0.395946
33
0.305043
0
3DFACE
8
VIFS128
62
176
10
0.143318
20
0.357232
30
0.304827
11
0.12755
21
0.363092
31
0.30486
12
0.0933182
22
0.357232
32
0.304827
13
0.0933182
23
0.357232
33
0.304827
0
3DFACE
8
VIFS128
62
176
10
0.0933182
20
0.357232
30
0.304827
11
0.12755
21
0.363092
31
0.30486
12
0.117027
22
0.377503
32
0.30494
13
0.117027
23
0.377503
33
0.30494
0
3DFACE
8
VIFS128
62
176
10
0.0933182
20
0.357232
30
0.304827
11
0.117027
21
0.377503
31
0.30494
12
0.113318
22
0.395946
32
0.305043
13
0.113318
23
0.395946
33
0.305043
0
3DFACE
8
VIFS128
62
176
10
0.113318
20
0.395946
30
0.305043
11
0.113318
21
0.438518
31
0.305281
12
0.0933182
22
0.357232
32
0.304827
13
0.0933182
23
0.357232
33
0.304827
0
3DFACE
8
VIFS128
62
176
10
0.0933182
20
0.357232
30
0.304827
11
0.113318
21
0.438518
31
0.305281
12
-0.0966818
22
0.357232
32
0.304827
13
-0.0966818
23
0.357232
33
0.304827
0
3DFACE
8
VIFS128
62
176
10
-0.0870049
20
0.515621
30
0.305711
11
-0.116682
21
0.438518
31
0.305281
12
-0.025795
22
0.550961
32
0.305909
13
-0.025795
23
0.550961
33
0.305909
0
3DFACE
8
VIFS128
62
176
10
-0.025795
20
0.550961
30
0.305909
11
-0.116682
21
0.438518
31
0.305281
12
0.0288141
22
0.5494
32
0.305901
13
0.0288141
23
0.5494
33
0.305901
0
3DFACE
8
VIFS128
62
176
10
0.113318
20
0.438518
30
0.305281
11
-0.116682
21
0.438518
31
0.305281
12
-0.0966818
22
0.357232
32
0.304827
13
-0.0966818
23
0.357232
33
0.304827
0
3DFACE
8
VIFS128
62
176
10
-0.0966818
20
0.357232
30
0.304827
11
-0.116682
21
0.438518
31
0.305281
12
-0.116682
22
0.395946
32
0.305043
13
-0.116682
23
0.395946
33
0.305043
0
3DFACE
8
VIFS128
62
176
10
-0.0966818
20
0.357232
30
0.304827
11
-0.116682
21
0.395946
31
0.305043
12
-0.120705
22
0.376789
32
0.304936
13
-0.120705
23
0.376789
33
0.304936
0
3DFACE
8
VIFS128
62
176
10
-0.116682
20
0.438518
30
0.305281
11
0.113318
21
0.438518
31
0.305281
12
0.0288141
22
0.5494
32
0.305901
13
0.0288141
23
0.5494
33
0.305901
0
3DFACE
8
VIFS128
62
176
10
0.0288141
20
0.5494
30
0.305901
11
0.113318
21
0.438518
31
0.305281
12
0.088675
22
0.509656
32
0.305678
13
0.088675
23
0.509656
33
0.305678
0
3DFACE
8
VIFS128
62
176
10
-0.120705
20
0.376789
30
0.304936
11
-0.13155
21
0.362578
31
0.304857
12
-0.0966818
22
0.357232
32
0.304827
13
-0.0966818
23
0.357232
33
0.304827
0
3DFACE
8
VIFS128
62
176
10
-0.0966818
20
0.357232
30
0.304827
11
-0.13155
21
0.362578
31
0.304857
12
-0.146682
22
0.357232
32
0.304827
13
-0.146682
23
0.357232
33
0.304827
0
3DFACE
8
VIFS128
62
176
10
0.0933182
20
0.357232
30
0.304827
11
-0.0966818
21
0.357232
31
0.304827
12
0.0933182
22
0.156279
32
1.59058
13
0.0933182
23
0.156279
33
1.59058
0
3DFACE
8
VIFS128
62
176
10
0.0933182
20
0.156279
30
1.59058
11
-0.0966818
21
0.357232
31
0.304827
12
-0.0966818
22
0.156279
32
1.59058
13
-0.0966818
23
0.156279
33
1.59058
0
3DFACE
8
VIFS128
62
176
10
-0.106682
20
0.146345
30
1.58159
11
-0.104234
21
0.152762
31
1.58727
12
-0.106682
22
0.325479
32
0.33785
13
-0.106682
23
0.325479
33
0.33785
0
3DFACE
8
VIFS128
62
176
10
-0.106682
20
0.325479
30
0.33785
11
-0.104234
21
0.152762
31
1.58727
12
-0.0966818
22
0.357232
32
0.304827
13
-0.0966818
23
0.357232
33
0.304827
0
3DFACE
8
VIFS128
62
176
10
-0.104234
20
0.152762
30
1.58727
11
-0.100054
21
0.155662
31
1.58998
12
-0.0966818
22
0.357232
32
0.304827
13
-0.0966818
23
0.357232
33
0.304827
0
3DFACE
8
VIFS128
62
176
10
-0.0966818
20
0.357232
30
0.304827
11
-0.100054
21
0.155662
31
1.58998
12
-0.0966818
22
0.156279
32
1.59058
13
-0.0966818
23
0.156279
33
1.59058
0
3DFACE
8
VIFS128
62
176
10
-0.106682
20
0.117468
30
0.4502
11
-0.106682
21
0.169903
31
0.480233
12
-0.106682
22
0.325479
32
0.33785
13
-0.106682
23
0.325479
33
0.33785
0
3DFACE
8
VIFS128
62
176
10
-0.106682
20
0.325479
30
0.33785
11
-0.106682
21
0.169903
31
0.480233
12
-0.106682
22
0.198768
32
0.534385
13
-0.106682
23
0.198768
33
0.534385
0
3DFACE
8
VIFS128
62
176
10
-0.106682
20
0.325479
30
0.33785
11
-0.106682
21
0.198768
31
0.534385
12
-0.106682
22
0.196591
32
0.588194
13
-0.106682
23
0.196591
33
0.588194
0
3DFACE
8
VIFS128
62
176
10
-0.106682
20
0.196591
30
0.588194
11
-0.106682
21
0.127223
31
1.41356
12
-0.106682
22
0.325479
32
0.33785
13
-0.106682
23
0.325479
33
0.33785
0
3DFACE
8
VIFS128
62
176
10
-0.106682
20
0.325479
30
0.33785
11
-0.106682
21
0.127223
31
1.41356
12
-0.106682
22
0.146345
32
1.58159
13
-0.106682
23
0.146345
33
1.58159
0
3DFACE
8
VIFS128
62
176
10
-0.106682
20
0.127223
30
1.41356
11
-0.106682
21
0.0411533
31
1.53157
12
-0.106682
22
0.146345
32
1.58159
13
-0.106682
23
0.146345
33
1.58159
0
3DFACE
8
VIFS128
62
176
10
-0.0966818
20
0.187003
30
0.58536
11
-0.101572
21
0.188228
31
0.585727
12
-0.0966818
22
0.184949
32
0.522418
13
-0.0966818
23
0.184949
33
0.522418
0
3DFACE
8
VIFS128
62
176
10
-0.0966818
20
0.184949
30
0.522418
11
-0.101572
21
0.188228
31
0.585727
12
-0.106682
22
0.198768
32
0.534385
13
-0.106682
23
0.198768
33
0.534385
0
3DFACE
8
VIFS128
62
176
10
-0.0966818
20
0.184949
30
0.522418
11
-0.106682
21
0.198768
31
0.534385
12
-0.106682
22
0.169903
32
0.480233
13
-0.106682
23
0.169903
33
0.480233
0
3DFACE
8
VIFS128
62
176
10
-0.101572
20
0.188228
30
0.585727
11
-0.105405
21
0.191902
31
0.586808
12
-0.106682
22
0.198768
32
0.534385
13
-0.106682
23
0.198768
33
0.534385
0
3DFACE
8
VIFS128
62
176
10
-0.106682
20
0.198768
30
0.534385
11
-0.105405
21
0.191902
31
0.586808
12
-0.106682
22
0.196591
32
0.588194
13
-0.106682
23
0.196591
33
0.588194
0
3DFACE
8
VIFS128
62
176
10
-0.0966818
20
0.184949
30
0.522418
11
-0.106682
21
0.169903
31
0.480233
12
-0.0966818
22
0.138695
32
0.469039
13
-0.0966818
23
0.138695
33
0.469039
0
3DFACE
8
VIFS128
62
176
10
-0.0966818
20
0.138695
30
0.469039
11
-0.106682
21
0.169903
31
0.480233
12
-0.106682
22
0.117468
32
0.4502
13
-0.106682
23
0.117468
33
0.4502
0
3DFACE
8
VIFS128
62
176
10
-0.0966818
20
0.138695
30
0.469039
11
-0.106682
21
0.117468
31
0.4502
12
-0.0966818
22
0.076686
32
0.458052
13
-0.0966818
23
0.076686
33
0.458052
0
3DFACE
8
VIFS128
62
176
10
-0.106682
20
0.196591
30
0.588194
11
-0.105405
21
0.191902
31
0.586808
12
-0.105405
22
0.122333
32
1.41353
13
-0.105405
23
0.122333
33
1.41353
0
3DFACE
8
VIFS128
62
176
10
-0.105405
20
0.122333
30
1.41353
11
-0.105405
21
0.191902
31
0.586808
12
-0.101572
22
0.118501
32
1.41351
13
-0.101572
23
0.118501
33
1.41351
0
3DFACE
8
VIFS128
62
176
10
-0.105405
20
0.122333
30
1.41353
11
-0.106682
21
0.127223
31
1.41356
12
-0.106682
22
0.196591
32
0.588194
13
-0.106682
23
0.196591
33
0.588194
0
3DFACE
8
VIFS128
62
176
10
-0.105405
20
0.191902
30
0.586808
11
-0.101572
21
0.188228
31
0.585727
12
-0.101572
22
0.118501
32
1.41351
13
-0.101572
23
0.118501
33
1.41351
0
3DFACE
8
VIFS128
62
176
10
-0.101572
20
0.118501
30
1.41351
11
-0.101572
21
0.188228
31
0.585727
12
-0.0966818
22
0.117224
32
1.4135
13
-0.0966818
23
0.117224
33
1.4135
0
3DFACE
8
VIFS128
62
176
10
-0.101572
20
0.188228
30
0.585727
11
-0.0966818
21
0.187003
31
0.58536
12
-0.0966818
22
0.117224
32
1.4135
13
-0.0966818
23
0.117224
33
1.4135
0
3DFACE
8
VIFS128
62
176
10
-0.106682
20
0.127223
30
1.41356
11
-0.105405
21
0.122333
31
1.41353
12
-0.106682
22
0.0411533
32
1.53157
13
-0.106682
23
0.0411533
33
1.53157
0
3DFACE
8
VIFS128
62
176
10
-0.106682
20
0.0411533
30
1.53157
11
-0.105405
21
0.122333
31
1.41353
12
-0.105405
22
0.0396333
32
1.52692
13
-0.105405
23
0.0396333
33
1.52692
0
3DFACE
8
VIFS128
62
176
10
-0.105405
20
0.0396333
30
1.52692
11
-0.101572
21
0.118501
31
1.41351
12
-0.101572
22
0.0384415
32
1.52328
13
-0.101572
23
0.0384415
33
1.52328
0
3DFACE
8
VIFS128
62
176
10
-0.101572
20
0.0384415
30
1.52328
11
-0.101572
21
0.118501
31
1.41351
12
-0.0966818
22
0.117224
32
1.4135
13
-0.0966818
23
0.117224
33
1.4135
0
3DFACE
8
VIFS128
62
176
10
-0.101572
20
0.0384415
30
1.52328
11
-0.0966818
21
0.117224
31
1.4135
12
-0.0966818
22
0.0380441
32
1.52207
13
-0.0966818
23
0.0380441
33
1.52207
0
3DFACE
8
VIFS128
62
176
10
-0.105405
20
0.122333
30
1.41353
11
-0.101572
21
0.118501
31
1.41351
12
-0.105405
22
0.0396333
32
1.52692
13
-0.105405
23
0.0396333
33
1.52692
0
3DFACE
8
VIFS128
62
176
10
-0.10351
20
0.00168914
30
1.52691
11
-0.0966818
21
0.0380441
31
1.52207
12
-0.0966818
22
-0.0346105
32
1.52166
13
-0.0966818
23
-0.0346105
33
1.52166
0
3DFACE
8
VIFS128
62
176
10
-0.106682
20
0.0411533
30
1.53157
11
-0.105405
21
0.0396333
31
1.52692
12
-0.10351
22
0.00168914
32
1.52691
13
-0.10351
23
0.00168914
33
1.52691
0
3DFACE
8
VIFS128
62
176
10
-0.105405
20
0.0396333
30
1.52692
11
-0.101572
21
0.0384415
31
1.52328
12
-0.10351
22
0.00168914
32
1.52691
13
-0.10351
23
0.00168914
33
1.52691
0
3DFACE
8
VIFS128
62
176
10
-0.10351
20
0.00168914
30
1.52691
11
-0.101572
21
0.0384415
31
1.52328
12
-0.0966818
22
0.0380441
32
1.52207
13
-0.0966818
23
0.0380441
33
1.52207
0
3DFACE
8
VIFS128
62
176
10
-0.10351
20
0.00168914
30
1.52691
11
-0.106682
21
0.0016838
31
1.52786
12
-0.106682
22
0.0411533
32
1.53157
13
-0.106682
23
0.0411533
33
1.53157
0
3DFACE
8
VIFS128
62
176
10
-0.10351
20
0.00168914
30
1.52691
11
-0.106682
21
-0.0378254
31
1.53113
12
-0.106682
22
0.0016838
32
1.52786
13
-0.106682
23
0.0016838
33
1.52786
0
3DFACE
8
VIFS128
62
176
10
-0.0966818
20
-0.0346105
30
1.52166
11
-0.101572
21
-0.035021
31
1.52287
12
-0.10351
22
0.00168914
32
1.52691
13
-0.10351
23
0.00168914
33
1.52691
0
3DFACE
8
VIFS128
62
176
10
-0.101572
20
-0.035021
30
1.52287
11
-0.105405
21
-0.0362537
31
1.5265
12
-0.10351
22
0.00168914
32
1.52691
13
-0.10351
23
0.00168914
33
1.52691
0
3DFACE
8
VIFS128
62
176
10
-0.10351
20
0.00168914
30
1.52691
11
-0.105405
21
-0.0362537
31
1.5265
12
-0.106682
22
-0.0378254
32
1.53113
13
-0.106682
23
-0.0378254
33
1.53113
0
3DFACE
8
VIFS128
62
176
10
-0.106682
20
-0.0378254
30
1.53113
11
-0.105405
21
-0.0362537
31
1.5265
12
-0.105491
22
-0.117662
32
1.42298
13
-0.105491
23
-0.117662
33
1.42298
0
3DFACE
8
VIFS128
62
176
10
-0.105491
20
-0.117662
30
1.42298
11
-0.105405
21
-0.0362537
31
1.5265
12
-0.101548
22
-0.113302
32
1.42284
13
-0.101548
23
-0.113302
33
1.42284
0
3DFACE
8
VIFS128
62
176
10
-0.105491
20
-0.117662
30
1.42298
11
-0.106682
21
-0.122146
31
1.42324
12
-0.106682
22
-0.0378254
32
1.53113
13
-0.106682
23
-0.0378254
33
1.53113
0
3DFACE
8
VIFS128
62
176
10
-0.105405
20
-0.0362537
30
1.5265
11
-0.101572
21
-0.035021
31
1.52287
12
-0.101548
22
-0.113302
32
1.42284
13
-0.101548
23
-0.113302
33
1.42284
0
3DFACE
8
VIFS128
62
176
10
-0.101548
20
-0.113302
30
1.42284
11
-0.101572
21
-0.035021
31
1.52287
12
-0.0966818
22
-0.112143
32
1.42281
13
-0.0966818
23
-0.112143
33
1.42281
0
3DFACE
8
VIFS128
62
176
10
-0.0966818
20
-0.0346105
30
1.52166
11
-0.0966818
21
-0.112143
31
1.42281
12
-0.101572
22
-0.035021
32
1.52287
13
-0.101572
23
-0.035021
33
1.52287
0
3DFACE
8
VIFS128
62
176
10
-0.106682
20
-0.122146
30
1.42324
11
-0.105491
21
-0.117662
31
1.42298
12
-0.106682
22
-0.202487
32
0.581596
13
-0.106682
23
-0.202487
33
0.581596
0
3DFACE
8
VIFS128
62
176
10
-0.106682
20
-0.202487
30
0.581596
11
-0.105491
21
-0.117662
31
1.42298
12
-0.105405
22
-0.197768
32
0.580312
13
-0.105405
23
-0.197768
33
0.580312
0
3DFACE
8
VIFS128
62
176
10
-0.105405
20
-0.197768
30
0.580312
11
-0.101548
21
-0.113302
31
1.42284
12
-0.101572
22
-0.194072
32
0.579302
13
-0.101572
23
-0.194072
33
0.579302
0
3DFACE
8
VIFS128
62
176
10
-0.101572
20
-0.194072
30
0.579302
11
-0.101548
21
-0.113302
31
1.42284
12
-0.0966818
22
-0.192839
32
0.578958
13
-0.0966818
23
-0.192839
33
0.578958
0
3DFACE
8
VIFS128
62
176
10
-0.105491
20
-0.117662
30
1.42298
11
-0.101548
21
-0.113302
31
1.42284
12
-0.105405
22
-0.197768
32
0.580312
13
-0.105405
23
-0.197768
33
0.580312
0
3DFACE
8
VIFS128
62
176
10
-0.101548
20
-0.113302
30
1.42284
11
-0.0966818
21
-0.112143
31
1.42281
12
-0.0966818
22
-0.192839
32
0.578958
13
-0.0966818
23
-0.192839
33
0.578958
0
3DFACE
8
VIFS128
62
176
10
-0.0366819
20
-0.112143
30
1.42281
11
-0.0366819
21
-0.140462
31
0.462889
12
-0.0366819
22
-0.192839
32
0.578958
13
-0.0366819
23
-0.192839
33
0.578958
0
3DFACE
8
VIFS128
62
176
10
-0.0366819
20
-0.192839
30
0.578958
11
-0.0366819
21
-0.140462
31
0.462889
12
-0.0366819
22
-0.189174
32
0.515398
13
-0.0366819
23
-0.189174
33
0.515398
0
3DFACE
8
VIFS128
62
176
10
-0.0366819
20
-0.0940885
30
1.47536
11
-0.0366819
21
-0.0773483
31
0.454472
12
-0.0366819
22
-0.112143
32
1.42281
13
-0.0366819
23
-0.112143
33
1.42281
0
3DFACE
8
VIFS128
62
176
10
-0.0366819
20
-0.112143
30
1.42281
11
-0.0366819
21
-0.0773483
31
0.454472
12
-0.0366819
22
-0.140462
32
0.462889
13
-0.0366819
23
-0.140462
33
0.462889
0
3DFACE
8
VIFS128
62
176
10
-0.0366819
20
0.057956
30
1.5134
11
-0.0366819
21
0.076686
31
0.458052
12
-0.0366819
22
0.00168392
32
1.52776
13
-0.0366819
23
0.00168392
33
1.52776
0
3DFACE
8
VIFS128
62
176
10
-0.0366819
20
0.00168392
30
1.52776
11
-0.0366819
21
0.076686
31
0.458052
12
-0.0366819
22
-0.0509318
32
1.51467
13
-0.0366819
23
-0.0509318
33
1.51467
0
3DFACE
8
VIFS128
62
176
10
-0.0366819
20
0.076686
30
0.458052
11
-0.0366819
21
-0.0773483
31
0.454472
12
-0.0366819
22
-0.0509318
32
1.51467
13
-0.0366819
23
-0.0509318
33
1.51467
0
3DFACE
8
VIFS128
62
176
10
-0.0366819
20
-0.0509318
30
1.51467
11
-0.0366819
21
-0.0773483
31
0.454472
12
-0.0366819
22
-0.0940885
32
1.47536
13
-0.0366819
23
-0.0940885
33
1.47536
0
3DFACE
8
VIFS128
62
176
10
-0.0366819
20
0.138695
30
0.469039
11
-0.0366819
21
0.076686
31
0.458052
12
-0.0366819
22
0.102232
32
1.46961
13
-0.0366819
23
0.102232
33
1.46961
0
3DFACE
8
VIFS128
62
176
10
-0.0366819
20
0.102232
30
1.46961
11
-0.0366819
21
0.076686
31
0.458052
12
-0.0366819
22
0.057956
32
1.5134
13
-0.0366819
23
0.057956
33
1.5134
0
3DFACE
8
VIFS128
62
176
10
-0.0366819
20
0.184949
30
0.522418
11
-0.0366819
21
0.138695
31
0.469039
12
-0.0366819
22
0.187003
32
0.58536
13
-0.0366819
23
0.187003
33
0.58536
0
3DFACE
8
VIFS128
62
176
10
-0.0366819
20
0.187003
30
0.58536
11
-0.0366819
21
0.138695
31
0.469039
12
-0.0366819
22
0.102232
32
1.46961
13
-0.0366819
23
0.102232
33
1.46961
0
3DFACE
8
VIFS128
62
176
10
-0.0366819
20
0.187003
30
0.58536
11
-0.0366819
21
0.102232
31
1.46961
12
-0.0366819
22
0.117224
32
1.4135
13
-0.0366819
23
0.117224
33
1.4135
0
3DFACE
8
VIFS128
62
176
10
-0.0366819
20
-0.112143
30
1.42281
11
-0.0366819
21
-0.192839
31
0.578958
12
-0.0966818
22
-0.112143
32
1.42281
13
-0.0966818
23
-0.112143
33
1.42281
0
3DFACE
8
VIFS128
62
176
10
-0.0966818
20
-0.112143
30
1.42281
11
-0.0366819
21
-0.192839
31
0.578958
12
-0.0966818
22
-0.192839
32
0.578958
13
-0.0966818
23
-0.192839
33
0.578958
0
3DFACE
8
VIFS128
62
176
10
-0.0366819
20
-0.0509318
30
1.51467
11
-0.0966818
21
-0.0346105
31
1.52166
12
-0.0366819
22
0.00168392
32
1.52776
13
-0.0366819
23
0.00168392
33
1.52776
0
3DFACE
8
VIFS128
62
176
10
-0.0366819
20
0.00168392
30
1.52776
11
-0.0966818
21
-0.0346105
31
1.52166
12
-0.0966818
22
0.0380441
32
1.52207
13
-0.0966818
23
0.0380441
33
1.52207
0
3DFACE
8
VIFS128
62
176
10
-0.0366819
20
0.00168392
30
1.52776
11
-0.0966818
21
0.0380441
31
1.52207
12
-0.0366819
22
0.057956
32
1.5134
13
-0.0366819
23
0.057956
33
1.5134
0
3DFACE
8
VIFS128
62
176
10
-0.0366819
20
0.057956
30
1.5134
11
-0.0966818
21
0.0380441
31
1.52207
12
-0.0366819
22
0.102232
32
1.46961
13
-0.0366819
23
0.102232
33
1.46961
0
3DFACE
8
VIFS128
62
176
10
-0.0366819
20
-0.112143
30
1.42281
11
-0.0966818
21
-0.112143
31
1.42281
12
-0.0366819
22
-0.0940885
32
1.47536
13
-0.0366819
23
-0.0940885
33
1.47536
0
3DFACE
8
VIFS128
62
176
10
-0.0366819
20
-0.0940885
30
1.47536
11
-0.0966818
21
-0.112143
31
1.42281
12
-0.0966818
22
-0.0346105
32
1.52166
13
-0.0966818
23
-0.0346105
33
1.52166
0
3DFACE
8
VIFS128
62
176
10
-0.0366819
20
-0.0940885
30
1.47536
11
-0.0966818
21
-0.0346105
31
1.52166
12
-0.0366819
22
-0.0509318
32
1.51467
13
-0.0366819
23
-0.0509318
33
1.51467
0
3DFACE
8
VIFS128
62
176
10
-0.0966818
20
0.0380441
30
1.52207
11
-0.0966818
21
0.117224
31
1.4135
12
-0.0366819
22
0.102232
32
1.46961
13
-0.0366819
23
0.102232
33
1.46961
0
3DFACE
8
VIFS128
62
176
10
-0.0366819
20
0.102232
30
1.46961
11
-0.0966818
21
0.117224
31
1.4135
12
-0.0366819
22
0.117224
32
1.4135
13
-0.0366819
23
0.117224
33
1.4135
0
3DFACE
8
VIFS128
62
176
10
-0.0366819
20
0.187003
30
0.58536
11
-0.0366819
21
0.117224
31
1.4135
12
-0.0966818
22
0.187003
32
0.58536
13
-0.0966818
23
0.187003
33
0.58536
0
3DFACE
8
VIFS128
62
176
10
-0.0966818
20
0.187003
30
0.58536
11
-0.0366819
21
0.117224
31
1.4135
12
-0.0966818
22
0.117224
32
1.4135
13
-0.0966818
23
0.117224
33
1.4135
0
3DFACE
8
VIFS128
62
176
10
-0.0366819
20
0.076686
30
0.458052
11
-0.0366819
21
0.138695
31
0.469039
12
-0.0966818
22
0.076686
32
0.458052
13
-0.0966818
23
0.076686
33
0.458052
0
3DFACE
8
VIFS128
62
176
10
-0.0966818
20
0.076686
30
0.458052
11
-0.0366819
21
0.138695
31
0.469039
12
-0.0966818
22
0.138695
32
0.469039
13
-0.0966818
23
0.138695
33
0.469039
0
3DFACE
8
VIFS128
62
176
10
-0.0966818
20
0.138695
30
0.469039
11
-0.0366819
21
0.138695
31
0.469039
12
-0.0966818
22
0.184949
32
0.522418
13
-0.0966818
23
0.184949
33
0.522418
0
3DFACE
8
VIFS128
62
176
10
-0.0966818
20
0.184949
30
0.522418
11
-0.0366819
21
0.138695
31
0.469039
12
-0.0366819
22
0.184949
32
0.522418
13
-0.0366819
23
0.184949
33
0.522418
0
3DFACE
8
VIFS128
62
176
10
-0.0966818
20
0.184949
30
0.522418
11
-0.0366819
21
0.184949
31
0.522418
12
-0.0966818
22
0.187003
32
0.58536
13
-0.0966818
23
0.187003
33
0.58536
0
3DFACE
8
VIFS128
62
176
10
-0.0966818
20
0.187003
30
0.58536
11
-0.0366819
21
0.184949
31
0.522418
12
-0.0366819
22
0.187003
32
0.58536
13
-0.0366819
23
0.187003
33
0.58536
0
3DFACE
8
VIFS128
62
176
10
-0.0366819
20
-0.0773483
30
0.454472
11
-0.0366819
21
0.076686
31
0.458052
12
-0.0966818
22
-0.0773483
32
0.454472
13
-0.0966818
23
-0.0773483
33
0.454472
0
3DFACE
8
VIFS128
62
176
10
-0.0966818
20
-0.0773483
30
0.454472
11
-0.0366819
21
0.076686
31
0.458052
12
-0.106682
22
0.00763221
32
0.462877
13
-0.106682
23
0.00763221
33
0.462877
0
3DFACE
8
VIFS128
62
176
10
-0.0966818
20
-0.0773483
30
0.454472
11
-0.106682
21
0.00763221
31
0.462877
12
-0.106682
22
-0.0773483
32
0.454472
13
-0.106682
23
-0.0773483
33
0.454472
0
3DFACE
8
VIFS128
62
176
10
-0.106682
20
0.076686
30
0.458052
11
-0.106682
21
0.00763221
31
0.462877
12
-0.0966818
22
0.076686
32
0.458052
13
-0.0966818
23
0.076686
33
0.458052
0
3DFACE
8
VIFS128
62
176
10
-0.0966818
20
0.076686
30
0.458052
11
-0.106682
21
0.00763221
31
0.462877
12
-0.0366819
22
0.076686
32
0.458052
13
-0.0366819
23
0.076686
33
0.458052
0
3DFACE
8
VIFS128
62
176
10
-0.0966818
20
-0.192839
30
0.578958
11
-0.0366819
21
-0.192839
31
0.578958
12
-0.0966818
22
-0.189174
32
0.515398
13
-0.0966818
23
-0.189174
33
0.515398
0
3DFACE
8
VIFS128
62
176
10
-0.0966818
20
-0.189174
30
0.515398
11
-0.0366819
21
-0.192839
31
0.578958
12
-0.0366819
22
-0.189174
32
0.515398
13
-0.0366819
23
-0.189174
33
0.515398
0
3DFACE
8
VIFS128
62
176
10
-0.0966818
20
-0.189174
30
0.515398
11
-0.0366819
21
-0.189174
31
0.515398
12
-0.0966818
22
-0.140462
32
0.462889
13
-0.0966818
23
-0.140462
33
0.462889
0
3DFACE
8
VIFS128
62
176
10
-0.0966818
20
-0.140462
30
0.462889
11
-0.0366819
21
-0.189174
31
0.515398
12
-0.0366819
22
-0.140462
32
0.462889
13
-0.0366819
23
-0.140462
33
0.462889
0
3DFACE
8
VIFS128
62
176
10
-0.0966818
20
-0.140462
30
0.462889
11
-0.0366819
21
-0.140462
31
0.462889
12
-0.0966818
22
-0.0773483
32
0.454472
13
-0.0966818
23
-0.0773483
33
0.454472
0
3DFACE
8
VIFS128
62
176
10
-0.0966818
20
-0.0773483
30
0.454472
11
-0.0366819
21
-0.140462
31
0.462889
12
-0.0366819
22
-0.0773483
32
0.454472
13
-0.0366819
23
-0.0773483
33
0.454472
0
3DFACE
8
VIFS128
62
176
10
-0.0966818
20
-0.0773483
30
0.454472
11
-0.106682
21
-0.117723
31
0.444737
12
-0.0966818
22
-0.140462
32
0.462889
13
-0.0966818
23
-0.140462
33
0.462889
0
3DFACE
8
VIFS128
62
176
10
-0.0966818
20
-0.140462
30
0.462889
11
-0.106682
21
-0.117723
31
0.444737
12
-0.106682
22
-0.172205
32
0.472962
13
-0.106682
23
-0.172205
33
0.472962
0
3DFACE
8
VIFS128
62
176
10
-0.0966818
20
-0.140462
30
0.462889
11
-0.106682
21
-0.172205
31
0.472962
12
-0.0966818
22
-0.189174
32
0.515398
13
-0.0966818
23
-0.189174
33
0.515398
0
3DFACE
8
VIFS128
62
176
10
-0.0966818
20
-0.189174
30
0.515398
11
-0.106682
21
-0.172205
31
0.472962
12
-0.106682
22
-0.203347
32
0.52703
13
-0.106682
23
-0.203347
33
0.52703
0
3DFACE
8
VIFS128
62
176
10
-0.0966818
20
-0.189174
30
0.515398
11
-0.106682
21
-0.203347
31
0.52703
12
-0.105405
22
-0.197768
32
0.580312
13
-0.105405
23
-0.197768
33
0.580312
0
3DFACE
8
VIFS128
62
176
10
-0.105405
20
-0.197768
30
0.580312
11
-0.106682
21
-0.203347
31
0.52703
12
-0.106682
22
-0.202487
32
0.581596
13
-0.106682
23
-0.202487
33
0.581596
0
3DFACE
8
VIFS128
62
176
10
-0.105405
20
-0.197768
30
0.580312
11
-0.101572
21
-0.194072
31
0.579302
12
-0.0966818
22
-0.189174
32
0.515398
13
-0.0966818
23
-0.189174
33
0.515398
0
3DFACE
8
VIFS128
62
176
10
-0.0966818
20
-0.189174
30
0.515398
11
-0.101572
21
-0.194072
31
0.579302
12
-0.0966818
22
-0.192839
32
0.578958
13
-0.0966818
23
-0.192839
33
0.578958
0
3DFACE
8
VIFS128
62
176
10
-0.106682
20
-0.0378254
30
1.53113
11
-0.106682
21
-0.122146
31
1.42324
12
-0.106682
22
-0.143715
32
1.58009
13
-0.106682
23
-0.143715
33
1.58009
0
3DFACE
8
VIFS128
62
176
10
-0.106682
20
-0.143715
30
1.58009
11
-0.106682
21
-0.122146
31
1.42324
12
-0.106682
22
-0.316871
32
0.326342
13
-0.106682
23
-0.316871
33
0.326342
0
3DFACE
8
VIFS128
62
176
10
-0.106682
20
-0.122146
30
1.42324
11
-0.106682
21
-0.202487
31
0.581596
12
-0.106682
22
-0.316871
32
0.326342
13
-0.106682
23
-0.316871
33
0.326342
0
3DFACE
8
VIFS128
62
176
10
-0.106682
20
-0.316871
30
0.326342
11
-0.106682
21
-0.202487
31
0.581596
12
-0.106682
22
-0.203347
32
0.52703
13
-0.106682
23
-0.203347
33
0.52703
0
3DFACE
8
VIFS128
62
176
10
-0.106682
20
-0.316871
30
0.326342
11
-0.106682
21
-0.203347
31
0.52703
12
-0.106682
22
-0.172205
32
0.472962
13
-0.106682
23
-0.172205
33
0.472962
0
3DFACE
8
VIFS128
62
176
10
-0.106682
20
-0.172205
30
0.472962
11
-0.106682
21
-0.117723
31
0.444737
12
-0.106682
22
-0.316871
32
0.326342
13
-0.106682
23
-0.316871
33
0.326342
0
3DFACE
8
VIFS128
62
176
10
-0.0966818
20
-0.153804
30
1.58903
11
-0.105255
21
-0.148811
31
1.58448
12
-0.0966818
22
-0.340181
32
0.300932
13
-0.0966818
23
-0.340181
33
0.300932
0
3DFACE
8
VIFS128
62
176
10
-0.0966818
20
-0.340181
30
0.300932
11
-0.105255
21
-0.148811
31
1.58448
12
-0.106682
22
-0.316871
32
0.326342
13
-0.106682
23
-0.316871
33
0.326342
0
3DFACE
8
VIFS128
62
176
10
-0.105255
20
-0.148811
30
1.58448
11
-0.106682
21
-0.143715
31
1.58009
12
-0.106682
22
-0.316871
32
0.326342
13
-0.106682
23
-0.316871
33
0.326342
0
3DFACE
8
VIFS128
62
176
10
0.113318
20
-0.378895
30
0.300716
11
0.11715
21
-0.40819
31
0.228461
12
0.117341
22
-0.359738
32
0.300822
13
0.117341
23
-0.359738
33
0.300822
0
3DFACE
8
VIFS128
62
176
10
0.117341
20
-0.359738
30
0.300822
11
0.11715
21
-0.40819
31
0.228461
12
0.128647
22
-0.398071
32
0.223007
13
0.128647
23
-0.398071
33
0.223007
0
3DFACE
8
VIFS128
62
176
10
0.117341
20
-0.359738
30
0.300822
11
0.128647
21
-0.398071
31
0.223007
12
0.128186
22
-0.345526
32
0.300902
13
0.128186
23
-0.345526
33
0.300902
0
3DFACE
8
VIFS128
62
176
10
0.128186
20
-0.345526
30
0.300902
11
0.128647
21
-0.398071
31
0.223007
12
0.143318
22
-0.394698
32
0.221185
13
0.143318
23
-0.394698
33
0.221185
0
3DFACE
8
VIFS128
62
176
10
0.128186
20
-0.345526
30
0.300902
11
0.143318
21
-0.394698
31
0.221185
12
0.143318
22
-0.340181
32
0.300932
13
0.143318
23
-0.340181
33
0.300932
0
3DFACE
8
VIFS128
62
176
10
0.113318
20
-0.378895
30
0.300716
11
0.113318
21
-0.421105
31
0.235429
12
0.11715
22
-0.40819
32
0.228461
13
0.11715
23
-0.40819
33
0.228461
0
3DFACE
8
VIFS128
62
176
10
0.143318
20
-0.394698
30
0.221185
11
0.128647
21
-0.398071
31
0.223007
12
0.128647
22
-0.395586
32
-0.221787
13
0.128647
23
-0.395586
33
-0.221787
0
3DFACE
8
VIFS128
62
176
10
0.128647
20
-0.395586
30
-0.221787
11
0.128647
21
-0.398071
31
0.223007
12
0.11715
22
-0.405645
32
-0.227353
13
0.11715
23
-0.405645
33
-0.227353
0
3DFACE
8
VIFS128
62
176
10
0.128647
20
-0.395586
30
-0.221787
11
0.143318
21
-0.392234
31
-0.219928
12
0.143318
22
-0.394698
32
0.221185
13
0.143318
23
-0.394698
33
0.221185
0
3DFACE
8
VIFS128
62
176
10
0.128647
20
-0.398071
30
0.223007
11
0.11715
21
-0.40819
31
0.228461
12
0.11715
22
-0.405645
32
-0.227353
13
0.11715
23
-0.405645
33
-0.227353
0
3DFACE
8
VIFS128
62
176
10
0.11715
20
-0.405645
30
-0.227353
11
0.11715
21
-0.40819
31
0.228461
12
0.113318
22
-0.41848
32
-0.234464
13
0.113318
23
-0.41848
33
-0.234464
0
3DFACE
8
VIFS128
62
176
10
0.11715
20
-0.40819
30
0.228461
11
0.113318
21
-0.421105
31
0.235429
12
0.113318
22
-0.41848
32
-0.234464
13
0.113318
23
-0.41848
33
-0.234464
0
3DFACE
8
VIFS128
62
176
10
0.143318
20
-0.392234
30
-0.219928
11
0.128647
21
-0.395586
31
-0.221787
12
0.12755
22
-0.34269
32
-0.299092
13
0.12755
23
-0.34269
33
-0.299092
0
3DFACE
8
VIFS128
62
176
10
0.12755
20
-0.34269
30
-0.299092
11
0.128647
21
-0.395586
31
-0.221787
12
0.117027
22
-0.357101
32
-0.299173
13
0.117027
23
-0.357101
33
-0.299173
0
3DFACE
8
VIFS128
62
176
10
0.12755
20
-0.34269
30
-0.299092
11
0.143318
21
-0.33683
31
-0.299059
12
0.143318
22
-0.392234
32
-0.219928
13
0.143318
23
-0.392234
33
-0.219928
0
3DFACE
8
VIFS128
62
176
10
0.128647
20
-0.395586
30
-0.221787
11
0.11715
21
-0.405645
31
-0.227353
12
0.117027
22
-0.357101
32
-0.299173
13
0.117027
23
-0.357101
33
-0.299173
0
3DFACE
8
VIFS128
62
176
10
0.117027
20
-0.357101
30
-0.299173
11
0.11715
21
-0.405645
31
-0.227353
12
0.113318
22
-0.375545
32
-0.299275
13
0.113318
23
-0.375545
33
-0.299275
0
3DFACE
8
VIFS128
62
176
10
0.113318
20
-0.41848
30
-0.234464
11
0.113318
21
-0.375545
31
-0.299275
12
0.11715
22
-0.405645
32
-0.227353
13
0.11715
23
-0.405645
33
-0.227353
0
3DFACE
8
VIFS128
62
176
10
-0.116682
20
-0.41848
30
-0.234464
11
-0.116682
21
-0.375545
31
-0.299275
12
-0.116682
22
-0.418117
32
-0.299513
13
-0.116682
23
-0.418117
33
-0.299513
0
3DFACE
8
VIFS128
62
176
10
-0.116682
20
-0.421105
30
0.235429
11
-0.116682
21
-0.421468
31
0.300477
12
-0.116682
22
-0.378895
32
0.300716
13
-0.116682
23
-0.378895
33
0.300716
0
3DFACE
8
VIFS128
62
176
10
-0.146682
20
-0.394698
30
0.221185
11
-0.132011
21
-0.398071
31
0.223007
12
-0.130914
22
-0.346041
32
0.300899
13
-0.130914
23
-0.346041
33
0.300899
0
3DFACE
8
VIFS128
62
176
10
-0.130914
20
-0.346041
30
0.300899
11
-0.132011
21
-0.398071
31
0.223007
12
-0.120391
22
-0.360452
32
0.300818
13
-0.120391
23
-0.360452
33
0.300818
0
3DFACE
8
VIFS128
62
176
10
-0.130914
20
-0.346041
30
0.300899
11
-0.146682
21
-0.340181
31
0.300932
12
-0.146682
22
-0.394698
32
0.221185
13
-0.146682
23
-0.394698
33
0.221185
0
3DFACE
8
VIFS128
62
176
10
-0.132011
20
-0.398071
30
0.223007
11
-0.120514
21
-0.40819
31
0.228461
12
-0.120391
22
-0.360452
32
0.300818
13
-0.120391
23
-0.360452
33
0.300818
0
3DFACE
8
VIFS128
62
176
10
-0.120391
20
-0.360452
30
0.300818
11
-0.120514
21
-0.40819
31
0.228461
12
-0.116682
22
-0.378895
32
0.300716
13
-0.116682
23
-0.378895
33
0.300716
0
3DFACE
8
VIFS128
62
176
10
-0.116682
20
-0.421105
30
0.235429
11
-0.116682
21
-0.378895
31
0.300716
12
-0.120514
22
-0.40819
32
0.228461
13
-0.120514
23
-0.40819
33
0.228461
0
3DFACE
8
VIFS128
62
176
10
-0.146682
20
-0.392234
30
-0.219928
11
-0.132011
21
-0.395586
31
-0.221787
12
-0.132011
22
-0.398071
32
0.223007
13
-0.132011
23
-0.398071
33
0.223007
0
3DFACE
8
VIFS128
62
176
10
-0.132011
20
-0.398071
30
0.223007
11
-0.132011
21
-0.395586
31
-0.221787
12
-0.120514
22
-0.40819
32
0.228461
13
-0.120514
23
-0.40819
33
0.228461
0
3DFACE
8
VIFS128
62
176
10
-0.132011
20
-0.398071
30
0.223007
11
-0.146682
21
-0.394698
31
0.221185
12
-0.146682
22
-0.392234
32
-0.219928
13
-0.146682
23
-0.392234
33
-0.219928
0
3DFACE
8
VIFS128
62
176
10
-0.132011
20
-0.395586
30
-0.221787
11
-0.120514
21
-0.405645
31
-0.227353
12
-0.120514
22
-0.40819
32
0.228461
13
-0.120514
23
-0.40819
33
0.228461
0
3DFACE
8
VIFS128
62
176
10
-0.120514
20
-0.40819
30
0.228461
11
-0.120514
21
-0.405645
31
-0.227353
12
-0.116682
22
-0.421105
32
0.235429
13
-0.116682
23
-0.421105
33
0.235429
0
3DFACE
8
VIFS128
62
176
10
-0.120514
20
-0.405645
30
-0.227353
11
-0.116682
21
-0.41848
31
-0.234464
12
-0.116682
22
-0.421105
32
0.235429
13
-0.116682
23
-0.421105
33
0.235429
0
3DFACE
8
VIFS128
62
176
10
-0.116682
20
-0.375545
30
-0.299275
11
-0.120514
21
-0.405645
31
-0.227353
12
-0.120705
22
-0.356387
32
-0.299168
13
-0.120705
23
-0.356387
33
-0.299168
0
3DFACE
8
VIFS128
62
176
10
-0.120705
20
-0.356387
30
-0.299168
11
-0.120514
21
-0.405645
31
-0.227353
12
-0.132011
22
-0.395586
32
-0.221787
13
-0.132011
23
-0.395586
33
-0.221787
0
3DFACE
8
VIFS128
62
176
10
-0.120705
20
-0.356387
30
-0.299168
11
-0.132011
21
-0.395586
31
-0.221787
12
-0.13155
22
-0.342175
32
-0.299089
13
-0.13155
23
-0.342175
33
-0.299089
0
3DFACE
8
VIFS128
62
176
10
-0.13155
20
-0.342175
30
-0.299089
11
-0.132011
21
-0.395586
31
-0.221787
12
-0.146682
22
-0.392234
32
-0.219928
13
-0.146682
23
-0.392234
33
-0.219928
0
3DFACE
8
VIFS128
62
176
10
-0.13155
20
-0.342175
30
-0.299089
11
-0.146682
21
-0.392234
31
-0.219928
12
-0.146682
22
-0.33683
32
-0.299059
13
-0.146682
23
-0.33683
33
-0.299059
0
3DFACE
8
VIFS128
62
176
10
-0.116682
20
-0.375545
30
-0.299275
11
-0.116682
21
-0.41848
31
-0.234464
12
-0.120514
22
-0.405645
32
-0.227353
13
-0.120514
23
-0.405645
33
-0.227353
0
3DFACE
8
VIFS128
62
176
10
-0.116682
20
-0.418117
30
-0.299513
11
-0.116682
21
-0.375545
31
-0.299275
12
-0.0870049
22
-0.495219
32
-0.299944
13
-0.0870049
23
-0.495219
33
-0.299944
0
3DFACE
8
VIFS128
62
176
10
-0.0870049
20
-0.495219
30
-0.299944
11
-0.116682
21
-0.375545
31
-0.299275
12
-0.120705
22
-0.356387
32
-0.299168
13
-0.120705
23
-0.356387
33
-0.299168
0
3DFACE
8
VIFS128
62
176
10
-0.0870049
20
-0.495219
30
-0.299944
11
-0.120705
21
-0.356387
31
-0.299168
12
0.088675
22
-0.489253
32
-0.299911
13
0.088675
23
-0.489253
33
-0.299911
0
3DFACE
8
VIFS128
62
176
10
0.088675
20
-0.489253
30
-0.299911
11
-0.120705
21
-0.356387
31
-0.299168
12
0.117027
22
-0.357101
32
-0.299173
13
0.117027
23
-0.357101
33
-0.299173
0
3DFACE
8
VIFS128
62
176
10
0.088675
20
-0.489253
30
-0.299911
11
0.117027
21
-0.357101
31
-0.299173
12
0.113318
22
-0.375545
32
-0.299275
13
0.113318
23
-0.375545
33
-0.299275
0
3DFACE
8
VIFS128
62
176
10
0.088675
20
-0.489253
30
-0.299911
11
0.0288141
21
-0.528998
31
-0.300133
12
-0.0870049
22
-0.495219
32
-0.299944
13
-0.0870049
23
-0.495219
33
-0.299944
0
3DFACE
8
VIFS128
62
176
10
-0.0870049
20
-0.495219
30
-0.299944
11
0.0288141
21
-0.528998
31
-0.300133
12
-0.025795
22
-0.530559
32
-0.300141
13
-0.025795
23
-0.530559
33
-0.300141
0
3DFACE
8
VIFS128
62
176
10
0.117027
20
-0.357101
30
-0.299173
11
-0.120705
21
-0.356387
31
-0.299168
12
0.12755
22
-0.34269
32
-0.299092
13
0.12755
23
-0.34269
33
-0.299092
0
3DFACE
8
VIFS128
62
176
10
0.12755
20
-0.34269
30
-0.299092
11
-0.120705
21
-0.356387
31
-0.299168
12
-0.13155
22
-0.342175
32
-0.299089
13
-0.13155
23
-0.342175
33
-0.299089
0
3DFACE
8
VIFS128
62
176
10
0.12755
20
-0.34269
30
-0.299092
11
-0.13155
21
-0.342175
31
-0.299089
12
0.143318
22
-0.33683
32
-0.299059
13
0.143318
23
-0.33683
33
-0.299059
0
3DFACE
8
VIFS128
62
176
10
0.143318
20
-0.33683
30
-0.299059
11
-0.13155
21
-0.342175
31
-0.299089
12
-0.146682
22
-0.33683
32
-0.299059
13
-0.146682
23
-0.33683
33
-0.299059
0
3DFACE
8
VIFS128
62
176
10
0.113318
20
-0.375545
30
-0.299275
11
0.113318
21
-0.418117
31
-0.299513
12
0.088675
22
-0.489253
32
-0.299911
13
0.088675
23
-0.489253
33
-0.299911
0
3DFACE
8
VIFS128
62
176
10
0.113318
20
-0.41848
30
-0.234464
11
0.113318
21
-0.418117
31
-0.299513
12
0.113318
22
-0.375545
32
-0.299275
13
0.113318
23
-0.375545
33
-0.299275
0
3DFACE
8
VIFS128
62
176
10
0.068073
20
-0.512895
30
0.299967
11
0.088675
21
-0.489253
31
-0.299911
12
0.10302
22
-0.469034
32
0.300212
13
0.10302
23
-0.469034
33
0.300212
0
3DFACE
8
VIFS128
62
176
10
0.10302
20
-0.469034
30
0.300212
11
0.088675
21
-0.489253
31
-0.299911
12
0.113318
22
-0.41848
32
-0.234464
13
0.113318
23
-0.41848
33
-0.234464
0
3DFACE
8
VIFS128
62
176
10
0.10302
20
-0.469034
30
0.300212
11
0.113318
21
-0.41848
31
-0.234464
12
0.113318
22
-0.421105
32
0.235429
13
0.113318
23
-0.421105
33
0.235429
0
3DFACE
8
VIFS128
62
176
10
0.088675
20
-0.489253
30
-0.299911
11
0.068073
21
-0.512895
31
0.299967
12
0.0288141
22
-0.528998
32
-0.300133
13
0.0288141
23
-0.528998
33
-0.300133
0
3DFACE
8
VIFS128
62
176
10
0.0288141
20
-0.528998
30
-0.300133
11
0.068073
21
-0.512895
31
0.299967
12
0.0147472
22
-0.535286
32
0.299842
13
0.0147472
23
-0.535286
33
0.299842
0
3DFACE
8
VIFS128
62
176
10
0.0288141
20
-0.528998
30
-0.300133
11
0.0147472
21
-0.535286
31
0.299842
12
-0.025795
22
-0.530559
32
-0.300141
13
-0.025795
23
-0.530559
33
-0.300141
0
3DFACE
8
VIFS128
62
176
10
-0.025795
20
-0.530559
30
-0.300141
11
0.0147472
21
-0.535286
31
0.299842
12
-0.0379149
22
-0.53061
32
0.299868
13
-0.0379149
23
-0.53061
33
0.299868
0
3DFACE
8
VIFS128
62
176
10
-0.025795
20
-0.530559
30
-0.300141
11
-0.0379149
21
-0.53061
31
0.299868
12
-0.0870049
22
-0.495219
32
-0.299944
13
-0.0870049
23
-0.495219
33
-0.299944
0
3DFACE
8
VIFS128
62
176
10
-0.0870049
20
-0.495219
30
-0.299944
11
-0.0379149
21
-0.53061
31
0.299868
12
-0.0870038
22
-0.49857
32
0.300046
13
-0.0870038
23
-0.49857
33
0.300046
0
3DFACE
8
VIFS128
62
176
10
-0.0870049
20
-0.495219
30
-0.299944
11
-0.0870038
21
-0.49857
31
0.300046
12
-0.116682
22
-0.421105
32
0.235429
13
-0.116682
23
-0.421105
33
0.235429
0
3DFACE
8
VIFS128
62
176
10
-0.116682
20
-0.421105
30
0.235429
11
-0.0870038
21
-0.49857
31
0.300046
12
-0.116682
22
-0.421468
32
0.300477
13
-0.116682
23
-0.421468
33
0.300477
0
3DFACE
8
VIFS128
62
176
10
0.113318
20
-0.418117
30
-0.299513
11
0.113318
21
-0.41848
31
-0.234464
12
0.088675
22
-0.489253
32
-0.299911
13
0.088675
23
-0.489253
33
-0.299911
0
3DFACE
8
VIFS128
62
176
10
0.113318
20
-0.421105
30
0.235429
11
0.113318
21
-0.421468
31
0.300477
12
0.10302
22
-0.469034
32
0.300212
13
0.10302
23
-0.469034
33
0.300212
0
3DFACE
8
VIFS128
62
176
10
-0.116682
20
-0.421105
30
0.235429
11
-0.116682
21
-0.41848
31
-0.234464
12
-0.0870049
22
-0.495219
32
-0.299944
13
-0.0870049
23
-0.495219
33
-0.299944
0
3DFACE
8
VIFS128
62
176
10
-0.0870049
20
-0.495219
30
-0.299944
11
-0.116682
21
-0.41848
31
-0.234464
12
-0.116682
22
-0.418117
32
-0.299513
13
-0.116682
23
-0.418117
33
-0.299513
0
3DFACE
8
VIFS128
62
176
10
0.113318
20
-0.421105
30
0.235429
11
0.113318
21
-0.378895
31
0.300716
12
0.113318
22
-0.421468
32
0.300477
13
0.113318
23
-0.421468
33
0.300477
0
3DFACE
8
VIFS128
62
176
10
-0.146682
20
-0.340181
30
0.300932
11
-0.130914
21
-0.346041
31
0.300899
12
-0.0966818
22
-0.340181
32
0.300932
13
-0.0966818
23
-0.340181
33
0.300932
0
3DFACE
8
VIFS128
62
176
10
-0.0966818
20
-0.340181
30
0.300932
11
-0.130914
21
-0.346041
31
0.300899
12
-0.120391
22
-0.360452
32
0.300818
13
-0.120391
23
-0.360452
33
0.300818
0
3DFACE
8
VIFS128
62
176
10
-0.0966818
20
-0.340181
30
0.300932
11
-0.120391
21
-0.360452
31
0.300818
12
-0.116682
22
-0.378895
32
0.300716
13
-0.116682
23
-0.378895
33
0.300716
0
3DFACE
8
VIFS128
62
176
10
-0.116682
20
-0.378895
30
0.300716
11
-0.116682
21
-0.421468
31
0.300477
12
-0.0966818
22
-0.340181
32
0.300932
13
-0.0966818
23
-0.340181
33
0.300932
0
3DFACE
8
VIFS128
62
176
10
-0.0966818
20
-0.340181
30
0.300932
11
-0.116682
21
-0.421468
31
0.300477
12
0.0933182
22
-0.340181
32
0.300932
13
0.0933182
23
-0.340181
33
0.300932
0
3DFACE
8
VIFS128
62
176
10
0.10302
20
-0.469034
30
0.300212
11
0.113318
21
-0.421468
31
0.300477
12
0.068073
22
-0.512895
32
0.299967
13
0.068073
23
-0.512895
33
0.299967
0
3DFACE
8
VIFS128
62
176
10
0.068073
20
-0.512895
30
0.299967
11
0.113318
21
-0.421468
31
0.300477
12
0.0147472
22
-0.535286
32
0.299842
13
0.0147472
23
-0.535286
33
0.299842
0
3DFACE
8
VIFS128
62
176
10
-0.116682
20
-0.421468
30
0.300477
11
0.113318
21
-0.421468
31
0.300477
12
0.0933182
22
-0.340181
32
0.300932
13
0.0933182
23
-0.340181
33
0.300932
0
3DFACE
8
VIFS128
62
176
10
0.0933182
20
-0.340181
30
0.300932
11
0.113318
21
-0.421468
31
0.300477
12
0.113318
22
-0.378895
32
0.300716
13
0.113318
23
-0.378895
33
0.300716
0
3DFACE
8
VIFS128
62
176
10
0.0933182
20
-0.340181
30
0.300932
11
0.113318
21
-0.378895
31
0.300716
12
0.117341
22
-0.359738
32
0.300822
13
0.117341
23
-0.359738
33
0.300822
0
3DFACE
8
VIFS128
62
176
10
0.113318
20
-0.421468
30
0.300477
11
-0.116682
21
-0.421468
31
0.300477
12
-0.0379149
22
-0.53061
32
0.299868
13
-0.0379149
23
-0.53061
33
0.299868
0
3DFACE
8
VIFS128
62
176
10
-0.0379149
20
-0.53061
30
0.299868
11
-0.116682
21
-0.421468
31
0.300477
12
-0.0870038
22
-0.49857
32
0.300046
13
-0.0870038
23
-0.49857
33
0.300046
0
3DFACE
8
VIFS128
62
176
10
-0.0379149
20
-0.53061
30
0.299868
11
0.0147472
21
-0.535286
31
0.299842
12
0.113318
22
-0.421468
32
0.300477
13
0.113318
23
-0.421468
33
0.300477
0
3DFACE
8
VIFS128
62
176
10
0.117341
20
-0.359738
30
0.300822
11
0.128186
21
-0.345526
31
0.300902
12
0.0933182
22
-0.340181
32
0.300932
13
0.0933182
23
-0.340181
33
0.300932
0
3DFACE
8
VIFS128
62
176
10
0.0933182
20
-0.340181
30
0.300932
11
0.128186
21
-0.345526
31
0.300902
12
0.143318
22
-0.340181
32
0.300932
13
0.143318
23
-0.340181
33
0.300932
0
3DFACE
8
VIFS128
62
176
10
-0.0966818
20
-0.340181
30
0.300932
11
0.0933182
21
-0.340181
31
0.300932
12
-0.0966818
22
-0.153804
32
1.58903
13
-0.0966818
23
-0.153804
33
1.58903
0
3DFACE
8
VIFS128
62
176
10
-0.0966818
20
-0.153804
30
1.58903
11
0.0933182
21
-0.340181
31
0.300932
12
0.0933182
22
-0.153804
32
1.58903
13
0.0933182
23
-0.153804
33
1.58903
0
3DFACE
8
VIFS128
62
176
10
-0.156682
20
-0.093781
30
1.95718
11
-0.106682
21
-0.000829521
31
1.97785
12
-0.156682
22
-0.000829521
32
1.97785
13
-0.156682
23
-0.000829521
33
1.97785
0
3DFACE
8
VIFS128
62
176
10
-0.156682
20
-0.000829521
30
1.97785
11
-0.106682
21
-0.000829521
31
1.97785
12
-0.156682
22
0.138621
32
1.93042
13
-0.156682
23
0.138621
33
1.93042
0
3DFACE
8
VIFS128
62
176
10
-0.106682
20
-0.000829521
30
1.97785
11
-0.156682
21
-0.093781
31
1.95718
12
-0.106682
22
-0.155482
32
1.91508
13
-0.106682
23
-0.155482
33
1.91508
0
3DFACE
8
VIFS128
62
176
10
-0.106682
20
-0.155482
30
1.91508
11
-0.156682
21
-0.093781
31
1.95718
12
-0.156682
22
-0.179215
32
1.88833
13
-0.156682
23
-0.179215
33
1.88833
0
3DFACE
8
VIFS128
62
176
10
-0.106682
20
-0.155482
30
1.91508
11
-0.156682
21
-0.179215
31
1.88833
12
-0.156682
22
-0.222441
32
1.78376
13
-0.156682
23
-0.222441
33
1.78376
0
3DFACE
8
VIFS128
62
176
10
-0.105255
20
-0.148811
30
1.58448
11
-0.156682
21
-0.149496
31
1.58508
12
-0.106682
22
-0.143715
32
1.58009
13
-0.106682
23
-0.143715
33
1.58009
0
3DFACE
8
VIFS128
62
176
10
-0.106682
20
-0.143715
30
1.58009
11
-0.156682
21
-0.149496
31
1.58508
12
-0.156682
22
-0.0551561
32
1.53483
13
-0.156682
23
-0.0551561
33
1.53483
0
3DFACE
8
VIFS128
62
176
10
-0.106682
20
-0.143715
30
1.58009
11
-0.156682
21
-0.0551561
31
1.53483
12
-0.106682
22
-0.0378254
32
1.53113
13
-0.106682
23
-0.0378254
33
1.53113
0
3DFACE
8
VIFS128
62
176
10
-0.106682
20
-0.0378254
30
1.53113
11
-0.156682
21
-0.0551561
31
1.53483
12
-0.106682
22
0.0016838
32
1.52786
13
-0.106682
23
0.0016838
33
1.52786
0
3DFACE
8
VIFS128
62
176
10
-0.105255
20
-0.148811
30
1.58448
11
-0.0966818
21
-0.153804
31
1.58903
12
-0.156682
22
-0.149496
32
1.58508
13
-0.156682
23
-0.149496
33
1.58508
0
3DFACE
8
VIFS128
62
176
10
-0.156682
20
-0.149496
30
1.58508
11
-0.0966818
21
-0.153804
31
1.58903
12
-0.156682
22
-0.212715
32
1.68077
13
-0.156682
23
-0.212715
33
1.68077
0
3DFACE
8
VIFS128
62
176
10
-0.156682
20
-0.212715
30
1.68077
11
-0.0966818
21
-0.153804
31
1.58903
12
0.153318
22
-0.219305
32
1.70445
13
0.153318
23
-0.219305
33
1.70445
0
3DFACE
8
VIFS128
62
176
10
0.153318
20
-0.219305
30
1.70445
11
-0.0966818
21
-0.153804
31
1.58903
12
0.0933182
22
-0.153804
32
1.58903
13
0.0933182
23
-0.153804
33
1.58903
0
3DFACE
8
VIFS128
62
176
10
0.153318
20
-0.219305
30
1.70445
11
0.0933182
21
-0.153804
31
1.58903
12
0.153318
22
-0.166899
32
1.60243
13
0.153318
23
-0.166899
33
1.60243
0
3DFACE
8
VIFS128
62
176
10
0.153318
20
-0.166899
30
1.60243
11
0.0933182
21
-0.153804
31
1.58903
12
0.096688
22
-0.153178
32
1.58845
13
0.096688
23
-0.153178
33
1.58845
0
3DFACE
8
VIFS128
62
176
10
0.153318
20
-0.166899
30
1.60243
11
0.096688
21
-0.153178
31
1.58845
12
0.100869
22
-0.150232
32
1.58575
13
0.100869
23
-0.150232
33
1.58575
0
3DFACE
8
VIFS128
62
176
10
0.153318
20
-0.219305
30
1.70445
11
0.153318
21
-0.216848
31
1.81131
12
0.103318
22
-0.155482
32
1.91508
13
0.103318
23
-0.155482
33
1.91508
0
3DFACE
8
VIFS128
62
176
10
0.103318
20
-0.155482
30
1.91508
11
0.153318
21
-0.216848
31
1.81131
12
0.153318
22
-0.139742
32
1.92886
13
0.153318
23
-0.139742
33
1.92886
0
3DFACE
8
VIFS128
62
176
10
0.103318
20
-0.155482
30
1.91508
11
0.153318
21
-0.139742
31
1.92886
12
0.103318
22
-0.00082952
32
1.97785
13
0.103318
23
-0.00082952
33
1.97785
0
3DFACE
8
VIFS128
62
176
10
0.103318
20
-0.00082952
30
1.97785
11
0.153318
21
-0.139742
31
1.92886
12
0.153318
22
-0.00082952
32
1.97785
13
0.153318
23
-0.00082952
33
1.97785
0
3DFACE
8
VIFS128
62
176
10
0.103318
20
-0.00082952
30
1.97785
11
0.153318
21
-0.00082952
31
1.97785
12
0.153318
22
0.0923459
32
1.95822
13
0.153318
23
0.0923459
33
1.95822
0
3DFACE
8
VIFS128
62
176
10
0.153318
20
-0.219305
30
1.70445
11
0.103318
21
-0.155482
31
1.91508
12
-0.156682
22
-0.212715
32
1.68077
13
-0.156682
23
-0.212715
33
1.68077
0
3DFACE
8
VIFS128
62
176
10
-0.156682
20
-0.212715
30
1.68077
11
0.103318
21
-0.155482
31
1.91508
12
-0.106682
22
-0.155482
32
1.91508
13
-0.106682
23
-0.155482
33
1.91508
0
3DFACE
8
VIFS128
62
176
10
-0.156682
20
-0.212715
30
1.68077
11
-0.106682
21
-0.155482
31
1.91508
12
-0.156682
22
-0.222441
32
1.78376
13
-0.156682
23
-0.222441
33
1.78376
0
3DFACE
8
VIFS128
62
176
10
0.100869
20
-0.150232
30
1.58575
11
0.103318
21
-0.143715
31
1.58009
12
0.153318
22
-0.166899
32
1.60243
13
0.153318
23
-0.166899
33
1.60243
0
3DFACE
8
VIFS128
62
176
10
0.153318
20
-0.166899
30
1.60243
11
0.103318
21
-0.143715
31
1.58009
12
0.153318
22
-0.0819136
32
1.54346
13
0.153318
23
-0.0819136
33
1.54346
0
3DFACE
8
VIFS128
62
176
10
0.103318
20
-0.143715
30
1.58009
11
0.103318
21
-0.037714
31
1.53111
12
0.153318
22
-0.0819136
32
1.54346
13
0.153318
23
-0.0819136
33
1.54346
0
3DFACE
8
VIFS128
62
176
10
0.153318
20
-0.0819136
30
1.54346
11
0.103318
21
-0.037714
31
1.53111
12
0.103318
22
0.0016838
32
1.52786
13
0.103318
23
0.0016838
33
1.52786
0
3DFACE
8
VIFS128
62
176
10
0.153318
20
-0.0819136
30
1.54346
11
0.103318
21
0.0016838
31
1.52786
12
0.153318
22
0.0584421
32
1.53547
13
0.153318
23
0.0584421
33
1.53547
0
3DFACE
8
VIFS128
62
176
10
0.153318
20
0.0584421
30
1.53547
11
0.103318
21
0.0016838
31
1.52786
12
0.103318
22
0.0410424
32
1.53155
13
0.103318
23
0.0410424
33
1.53155
0
3DFACE
8
VIFS128
62
176
10
0.153318
20
0.0584421
30
1.53547
11
0.103318
21
0.0410424
31
1.53155
12
0.103318
22
0.146345
32
1.58159
13
0.103318
23
0.146345
33
1.58159
0
3DFACE
8
VIFS128
62
176
10
0.153318
20
0.0584421
30
1.53547
11
0.103318
21
0.146345
31
1.58159
12
0.153318
22
0.152213
32
1.58677
13
0.153318
23
0.152213
33
1.58677
0
3DFACE
8
VIFS128
62
176
10
0.153318
20
0.152213
30
1.58677
11
0.103318
21
0.146345
31
1.58159
12
0.101892
22
0.151364
32
1.586
13
0.101892
23
0.151364
33
1.586
0
3DFACE
8
VIFS128
62
176
10
0.153318
20
0.152213
30
1.58677
11
0.101892
21
0.151364
31
1.586
12
0.0933182
22
0.156279
32
1.59058
13
0.0933182
23
0.156279
33
1.59058
0
3DFACE
8
VIFS128
62
176
10
0.103318
20
-0.00082952
30
1.97785
11
0.153318
21
0.0923459
31
1.95822
12
0.103318
22
0.154513
32
1.91681
13
0.103318
23
0.154513
33
1.91681
0
3DFACE
8
VIFS128
62
176
10
0.103318
20
0.154513
30
1.91681
11
0.153318
21
0.0923459
31
1.95822
12
0.153318
22
0.178545
32
1.89033
13
0.153318
23
0.178545
33
1.89033
0
3DFACE
8
VIFS128
62
176
10
0.103318
20
0.154513
30
1.91681
11
0.153318
21
0.178545
31
1.89033
12
0.153318
22
0.222936
32
1.78624
13
0.153318
23
0.222936
33
1.78624
0
3DFACE
8
VIFS128
62
176
10
0.153318
20
0.152213
30
1.58677
11
0.0933182
21
0.156279
31
1.59058
12
0.153318
22
0.214361
32
1.68316
13
0.153318
23
0.214361
33
1.68316
0
3DFACE
8
VIFS128
62
176
10
0.153318
20
0.214361
30
1.68316
11
0.0933182
21
0.156279
31
1.59058
12
-0.156682
22
0.220685
32
1.70691
13
-0.156682
23
0.220685
33
1.70691
0
3DFACE
8
VIFS128
62
176
10
0.153318
20
0.214361
30
1.68316
11
-0.156682
21
0.220685
31
1.70691
12
-0.106682
22
0.154513
32
1.91681
13
-0.106682
23
0.154513
33
1.91681
0
3DFACE
8
VIFS128
62
176
10
-0.106682
20
0.154513
30
1.91681
11
-0.156682
21
0.220685
31
1.70691
12
-0.156682
22
0.217036
32
1.81373
13
-0.156682
23
0.217036
33
1.81373
0
3DFACE
8
VIFS128
62
176
10
-0.106682
20
0.154513
30
1.91681
11
-0.156682
21
0.217036
31
1.81373
12
-0.156682
22
0.138621
32
1.93042
13
-0.156682
23
0.138621
33
1.93042
0
3DFACE
8
VIFS128
62
176
10
0.0933182
20
0.156279
30
1.59058
11
-0.0966818
21
0.156279
31
1.59058
12
-0.156682
22
0.220685
32
1.70691
13
-0.156682
23
0.220685
33
1.70691
0
3DFACE
8
VIFS128
62
176
10
-0.156682
20
0.220685
30
1.70691
11
-0.0966818
21
0.156279
31
1.59058
12
-0.156682
22
0.169422
32
1.60431
13
-0.156682
23
0.169422
33
1.60431
0
3DFACE
8
VIFS128
62
176
10
-0.106682
20
0.154513
30
1.91681
11
0.103318
21
0.154513
31
1.91681
12
0.153318
22
0.214361
32
1.68316
13
0.153318
23
0.214361
33
1.68316
0
3DFACE
8
VIFS128
62
176
10
0.153318
20
0.214361
30
1.68316
11
0.103318
21
0.154513
31
1.91681
12
0.153318
22
0.222936
32
1.78624
13
0.153318
23
0.222936
33
1.78624
0
3DFACE
8
VIFS128
62
176
10
-0.0966818
20
0.156279
30
1.59058
11
-0.100054
21
0.155662
31
1.58998
12
-0.156682
22
0.169422
32
1.60431
13
-0.156682
23
0.169422
33
1.60431
0
3DFACE
8
VIFS128
62
176
10
-0.156682
20
0.169422
30
1.60431
11
-0.100054
21
0.155662
31
1.58998
12
-0.104234
22
0.152762
32
1.58727
13
-0.104234
23
0.152762
33
1.58727
0
3DFACE
8
VIFS128
62
176
10
-0.156682
20
0.169422
30
1.60431
11
-0.104234
21
0.152762
31
1.58727
12
-0.106682
22
0.146345
32
1.58159
13
-0.106682
23
0.146345
33
1.58159
0
3DFACE
8
VIFS128
62
176
10
-0.156682
20
0.138621
30
1.93042
11
-0.106682
21
-0.000829521
31
1.97785
12
-0.106682
22
0.154513
32
1.91681
13
-0.106682
23
0.154513
33
1.91681
0
3DFACE
8
VIFS128
62
176
10
-0.106682
20
0.146345
30
1.58159
11
-0.106682
21
0.0411533
31
1.53157
12
-0.156682
22
0.085102
32
1.5444
13
-0.156682
23
0.085102
33
1.5444
0
3DFACE
8
VIFS128
62
176
10
-0.156682
20
0.085102
30
1.5444
11
-0.106682
21
0.0411533
31
1.53157
12
-0.106682
22
0.0016838
32
1.52786
13
-0.106682
23
0.0016838
33
1.52786
0
3DFACE
8
VIFS128
62
176
10
-0.156682
20
0.085102
30
1.5444
11
-0.106682
21
0.0016838
31
1.52786
12
-0.156682
22
-0.0551561
32
1.53483
13
-0.156682
23
-0.0551561
33
1.53483
0
3DFACE
8
VIFS128
62
176
10
-0.156682
20
0.085102
30
1.5444
11
-0.156682
21
0.169422
31
1.60431
12
-0.106682
22
0.146345
32
1.58159
13
-0.106682
23
0.146345
33
1.58159
0
3DFACE
8
VIFS128
62
176
10
0.103318
20
-0.117839
30
0.444706
11
0.103318
21
-0.172268
31
0.472962
12
0.103318
22
-0.316871
32
0.326342
13
0.103318
23
-0.316871
33
0.326342
0
3DFACE
8
VIFS128
62
176
10
0.103318
20
-0.316871
30
0.326342
11
0.103318
21
-0.172268
31
0.472962
12
0.103318
22
-0.203356
32
0.527019
13
0.103318
23
-0.203356
33
0.527019
0
3DFACE
8
VIFS128
62
176
10
0.103318
20
-0.316871
30
0.326342
11
0.103318
21
-0.203356
31
0.527019
12
0.103318
22
-0.202486
32
0.581545
13
0.103318
23
-0.202486
33
0.581545
0
3DFACE
8
VIFS128
62
176
10
0.103318
20
-0.202486
30
0.581545
11
0.103318
21
-0.122145
31
1.42318
12
0.103318
22
-0.316871
32
0.326342
13
0.103318
23
-0.316871
33
0.326342
0
3DFACE
8
VIFS128
62
176
10
0.103318
20
-0.316871
30
0.326342
11
0.103318
21
-0.122145
31
1.42318
12
0.103318
22
-0.143715
32
1.58009
13
0.103318
23
-0.143715
33
1.58009
0
3DFACE
8
VIFS128
62
176
10
0.103318
20
-0.122145
30
1.42318
11
0.103318
21
-0.037714
31
1.53111
12
0.103318
22
-0.143715
32
1.58009
13
0.103318
23
-0.143715
33
1.58009
0
3DFACE
8
VIFS128
62
176
10
0.0883181
20
-0.133109
30
-0.460464
11
0.0898192
21
0.15874
31
-0.449874
12
0.0898192
22
-0.13327
32
-0.451505
13
0.0898192
23
-0.13327
33
-0.451505
0
3DFACE
8
VIFS128
62
176
10
0.0898192
20
-0.13327
30
-0.451505
11
0.0898192
21
0.15874
31
-0.449874
12
0.0979863
22
-0.130874
32
-0.440461
13
0.0979863
23
-0.130874
33
-0.440461
0
3DFACE
8
VIFS128
62
176
10
0.0883181
20
-0.133109
30
-0.460464
11
0.0883181
21
0.158679
31
-0.458834
12
0.0898192
22
0.15874
32
-0.449874
13
0.0898192
23
0.15874
33
-0.449874
0
3DFACE
8
VIFS128
62
176
10
0.0898192
20
0.15874
30
-0.449874
11
0.0979863
21
0.15622
31
-0.438857
12
0.0979863
22
-0.130874
32
-0.440461
13
0.0979863
23
-0.130874
33
-0.440461
0
3DFACE
8
VIFS128
62
176
10
0.0979863
20
-0.130874
30
-0.440461
11
0.0979863
21
0.15622
31
-0.438857
12
0.113318
22
-0.125722
32
-0.436573
13
0.113318
23
-0.125722
33
-0.436573
0
3DFACE
8
VIFS128
62
176
10
0.113318
20
0.151024
30
-0.435026
11
0.113318
21
-0.125722
31
-0.436573
12
0.0979863
22
0.15622
32
-0.438857
13
0.0979863
23
0.15622
33
-0.438857
0
3DFACE
8
VIFS128
62
176
10
0.0899263
20
0.193592
30
-0.418979
11
0.0979863
21
0.15622
31
-0.438857
12
0.063318
22
0.201041
32
-0.415657
13
0.063318
23
0.201041
33
-0.415657
0
3DFACE
8
VIFS128
62
176
10
0.063318
20
0.201041
30
-0.415657
11
0.0979863
21
0.15622
31
-0.438857
12
0.063318
22
0.186583
32
-0.435498
13
0.063318
23
0.186583
33
-0.435498
0
3DFACE
8
VIFS128
62
176
10
0.0899263
20
0.193592
30
-0.418979
11
0.107526
21
0.174805
31
-0.426653
12
0.0979863
22
0.15622
32
-0.438857
13
0.0979863
23
0.15622
33
-0.438857
0
3DFACE
8
VIFS128
62
176
10
0.0979863
20
0.15622
30
-0.438857
11
0.107526
21
0.174805
31
-0.426653
12
0.113318
22
0.151024
32
-0.435026
13
0.113318
23
0.151024
33
-0.435026
0
3DFACE
8
VIFS128
62
176
10
0.0979863
20
0.15622
30
-0.438857
11
0.0898192
21
0.15874
31
-0.449874
12
0.063318
22
0.186583
32
-0.435498
13
0.063318
23
0.186583
33
-0.435498
0
3DFACE
8
VIFS128
62
176
10
0.063318
20
0.186583
30
-0.435498
11
0.0898192
21
0.15874
31
-0.449874
12
0.0792311
22
0.179857
32
-0.443906
13
0.0792311
23
0.179857
33
-0.443906
0
3DFACE
8
VIFS128
62
176
10
0.0883181
20
0.158679
30
-0.458834
11
0.0792311
21
0.179857
31
-0.443906
12
0.0898192
22
0.15874
32
-0.449874
13
0.0898192
23
0.15874
33
-0.449874
0
3DFACE
8
VIFS128
62
176
10
-0.0666818
20
0.17586
30
-0.527059
11
-0.0824169
21
0.17038
31
-0.52594
12
-0.0825948
22
0.179857
32
-0.443906
13
-0.0825948
23
0.179857
33
-0.443906
0
3DFACE
8
VIFS128
62
176
10
-0.0825948
20
0.179857
30
-0.443906
11
-0.0824169
21
0.17038
31
-0.52594
12
-0.0902658
22
0.159329
32
-0.524531
13
-0.0902658
23
0.159329
33
-0.524531
0
3DFACE
8
VIFS128
62
176
10
-0.0825948
20
0.179857
30
-0.443906
11
-0.0902658
21
0.159329
31
-0.524531
12
-0.0916818
22
0.158679
32
-0.458834
13
-0.0916818
23
0.158679
33
-0.458834
0
3DFACE
8
VIFS128
62
176
10
-0.0916818
20
0.158679
30
-0.458834
11
-0.0902658
21
0.159329
31
-0.524531
12
-0.0916818
22
0.151029
32
-0.524148
13
-0.0916818
23
0.151029
33
-0.524148
0
3DFACE
8
VIFS128
62
176
10
-0.0825948
20
0.179857
30
-0.443906
11
-0.0666818
21
0.186583
31
-0.435498
12
-0.0666818
22
0.17586
32
-0.527059
13
-0.0666818
23
0.17586
33
-0.527059
0
3DFACE
8
VIFS128
62
176
10
-0.0916818
20
0.151029
30
-0.524148
11
-0.0916818
21
-0.12473
31
-0.525689
12
-0.0916818
22
0.158679
32
-0.458834
13
-0.0916818
23
0.158679
33
-0.458834
0
3DFACE
8
VIFS128
62
176
10
-0.0916818
20
0.158679
30
-0.458834
11
-0.0916818
21
-0.12473
31
-0.525689
12
-0.0916818
22
-0.133109
32
-0.460464
13
-0.0916818
23
-0.133109
33
-0.460464
0
3DFACE
8
VIFS128
62
176
10
-0.0916818
20
0.158679
30
-0.458834
11
-0.0931829
21
-0.13327
31
-0.451505
12
-0.0931829
22
0.15874
32
-0.449874
13
-0.0931829
23
0.15874
33
-0.449874
0
3DFACE
8
VIFS128
62
176
10
-0.0931829
20
0.15874
30
-0.449874
11
-0.0931829
21
-0.13327
31
-0.451505
12
-0.10135
22
0.15622
32
-0.438857
13
-0.10135
23
0.15622
33
-0.438857
0
3DFACE
8
VIFS128
62
176
10
-0.0916818
20
0.158679
30
-0.458834
11
-0.0916818
21
-0.133109
31
-0.460464
12
-0.0931829
22
-0.13327
32
-0.451505
13
-0.0931829
23
-0.13327
33
-0.451505
0
3DFACE
8
VIFS128
62
176
10
-0.0931829
20
-0.13327
30
-0.451505
11
-0.10135
21
-0.130874
31
-0.440461
12
-0.10135
22
0.15622
32
-0.438857
13
-0.10135
23
0.15622
33
-0.438857
0
3DFACE
8
VIFS128
62
176
10
-0.10135
20
0.15622
30
-0.438857
11
-0.10135
21
-0.130874
31
-0.440461
12
-0.116682
22
0.151024
32
-0.435026
13
-0.116682
23
0.151024
33
-0.435026
0
3DFACE
8
VIFS128
62
176
10
-0.116682
20
-0.125722
30
-0.436573
11
-0.116682
21
0.151024
31
-0.435026
12
-0.10135
22
-0.130874
32
-0.440461
13
-0.10135
23
-0.130874
33
-0.440461
0
3DFACE
8
VIFS128
62
176
10
-0.0932898
20
-0.168467
30
-0.421001
11
-0.10135
21
-0.130874
31
-0.440461
12
-0.0666818
22
-0.175951
32
-0.417762
13
-0.0666818
23
-0.175951
33
-0.417762
0
3DFACE
8
VIFS128
62
176
10
-0.0666818
20
-0.175951
30
-0.417762
11
-0.10135
21
-0.130874
31
-0.440461
12
-0.0666818
22
-0.161272
32
-0.437441
13
-0.0666818
23
-0.161272
33
-0.437441
0
3DFACE
8
VIFS128
62
176
10
-0.0932898
20
-0.168467
30
-0.421001
11
-0.11089
21
-0.149595
31
-0.428466
12
-0.10135
22
-0.130874
32
-0.440461
13
-0.10135
23
-0.130874
33
-0.440461
0
3DFACE
8
VIFS128
62
176
10
-0.10135
20
-0.130874
30
-0.440461
11
-0.11089
21
-0.149595
31
-0.428466
12
-0.116682
22
-0.125722
32
-0.436573
13
-0.116682
23
-0.125722
33
-0.436573
0
3DFACE
8
VIFS128
62
176
10
-0.10135
20
-0.130874
30
-0.440461
11
-0.0931829
21
-0.13327
31
-0.451505
12
-0.0666818
22
-0.161272
32
-0.437441
13
-0.0666818
23
-0.161272
33
-0.437441
0
3DFACE
8
VIFS128
62
176
10
-0.0666818
20
-0.161272
30
-0.437441
11
-0.0931829
21
-0.13327
31
-0.451505
12
-0.0825948
22
-0.154454
32
-0.445773
13
-0.0825948
23
-0.154454
33
-0.445773
0
3DFACE
8
VIFS128
62
176
10
-0.0916818
20
-0.133109
30
-0.460464
11
-0.0825948
21
-0.154454
31
-0.445773
12
-0.0931829
22
-0.13327
32
-0.451505
13
-0.0931829
23
-0.13327
33
-0.451505
0
3DFACE
8
VIFS128
62
176
10
-0.151682
20
0.460507
30
-0.0910523
11
-0.146682
21
0.415099
31
-0.215419
12
-0.151682
22
0.355702
32
-0.300811
13
-0.151682
23
0.355702
33
-0.300811
0
3DFACE
8
VIFS128
62
176
10
-0.151682
20
0.355702
30
-0.300811
11
-0.146682
21
0.415099
31
-0.215419
12
-0.146682
22
0.360583
32
-0.295164
13
-0.146682
23
0.360583
33
-0.295164
0
3DFACE
8
VIFS128
62
176
10
-0.151682
20
0.355702
30
-0.300811
11
-0.146682
21
0.360583
31
-0.295164
12
-0.0666818
22
0.201041
32
-0.415657
13
-0.0666818
23
0.201041
33
-0.415657
0
3DFACE
8
VIFS128
62
176
10
-0.0666818
20
0.201041
30
-0.415657
11
-0.146682
21
0.360583
31
-0.295164
12
0.143318
22
0.360583
32
-0.295164
13
0.143318
23
0.360583
33
-0.295164
0
3DFACE
8
VIFS128
62
176
10
-0.0666818
20
0.201041
30
-0.415657
11
0.143318
21
0.360583
31
-0.295164
12
0.063318
22
0.201041
32
-0.415657
13
0.063318
23
0.201041
33
-0.415657
0
3DFACE
8
VIFS128
62
176
10
0.063318
20
0.201041
30
-0.415657
11
0.143318
21
0.360583
31
-0.295164
12
0.148318
22
0.320521
32
-0.336678
13
0.148318
23
0.320521
33
-0.336678
0
3DFACE
8
VIFS128
62
176
10
0.063318
20
0.201041
30
-0.415657
11
0.148318
21
0.320521
31
-0.336678
12
0.0899263
22
0.193592
32
-0.418979
13
0.0899263
23
0.193592
33
-0.418979
0
3DFACE
8
VIFS128
62
176
10
0.0899263
20
0.193592
30
-0.418979
11
0.148318
21
0.320521
31
-0.336678
12
0.107526
22
0.174805
32
-0.426653
13
0.107526
23
0.174805
33
-0.426653
0
3DFACE
8
VIFS128
62
176
10
-0.146682
20
0.415099
30
-0.215419
11
-0.151682
21
0.460507
31
-0.0910523
12
-0.146682
22
0.412636
32
0.225695
13
-0.146682
23
0.412636
33
0.225695
0
3DFACE
8
VIFS128
62
176
10
-0.146682
20
0.412636
30
0.225695
11
-0.151682
21
0.460507
31
-0.0910523
12
-0.151682
22
0.453044
32
0.127339
13
-0.151682
23
0.453044
33
0.127339
0
3DFACE
8
VIFS128
62
176
10
-0.146682
20
0.412636
30
0.225695
11
-0.151682
21
0.453044
31
0.127339
12
-0.151682
22
0.292731
32
0.365898
13
-0.151682
23
0.292731
33
0.365898
0
3DFACE
8
VIFS128
62
176
10
-0.146682
20
0.357232
30
0.304827
11
-0.151682
21
0.292731
31
0.365898
12
-0.106682
22
0.325479
32
0.33785
13
-0.106682
23
0.325479
33
0.33785
0
3DFACE
8
VIFS128
62
176
10
-0.106682
20
0.325479
30
0.33785
11
-0.151682
21
0.292731
31
0.365898
12
-0.106682
22
0.117468
32
0.4502
13
-0.106682
23
0.117468
33
0.4502
0
3DFACE
8
VIFS128
62
176
10
-0.106682
20
0.325479
30
0.33785
11
-0.0966818
21
0.357232
31
0.304827
12
-0.146682
22
0.357232
32
0.304827
13
-0.146682
23
0.357232
33
0.304827
0
3DFACE
8
VIFS128
62
176
10
-0.146682
20
0.357232
30
0.304827
11
-0.146682
21
0.412636
31
0.225695
12
-0.151682
22
0.292731
32
0.365898
13
-0.151682
23
0.292731
33
0.365898
0
3DFACE
8
VIFS128
62
176
10
-0.106682
20
0.076686
30
0.458052
11
-0.151682
21
0.00763221
31
0.462877
12
-0.106682
22
0.00763221
32
0.462877
13
-0.106682
23
0.00763221
33
0.462877
0
3DFACE
8
VIFS128
62
176
10
-0.106682
20
0.00763221
30
0.462877
11
-0.151682
21
0.00763221
31
0.462877
12
-0.106682
22
-0.0773483
32
0.454472
13
-0.106682
23
-0.0773483
33
0.454472
0
3DFACE
8
VIFS128
62
176
10
-0.151682
20
0.00763221
30
0.462877
11
-0.106682
21
0.076686
31
0.458052
12
-0.151682
22
0.292731
32
0.365898
13
-0.151682
23
0.292731
33
0.365898
0
3DFACE
8
VIFS128
62
176
10
-0.151682
20
0.292731
30
0.365898
11
-0.106682
21
0.076686
31
0.458052
12
-0.106682
22
0.117468
32
0.4502
13
-0.106682
23
0.117468
33
0.4502
0
3DFACE
8
VIFS128
62
176
10
-0.0966818
20
0.076686
30
0.458052
11
-0.106682
21
0.117468
31
0.4502
12
-0.106682
22
0.076686
32
0.458052
13
-0.106682
23
0.076686
33
0.458052
0
3DFACE
8
VIFS128
62
176
10
0.143318
20
0.357232
30
0.304827
11
0.148318
21
0.374354
31
0.283942
12
0.143318
22
0.412636
32
0.225695
13
0.143318
23
0.412636
33
0.225695
0
3DFACE
8
VIFS128
62
176
10
0.143318
20
0.412636
30
0.225695
11
0.148318
21
0.374354
31
0.283942
12
0.148318
22
0.465109
32
0.0711461
13
0.148318
23
0.465109
33
0.0711461
0
3DFACE
8
VIFS128
62
176
10
0.143318
20
0.412636
30
0.225695
11
0.148318
21
0.465109
31
0.0711461
12
0.143318
22
0.415099
32
-0.215419
13
0.143318
23
0.415099
33
-0.215419
0
3DFACE
8
VIFS128
62
176
10
0.143318
20
0.415099
30
-0.215419
11
0.148318
21
0.465109
31
0.0711461
12
0.148318
22
0.447576
32
-0.139606
13
0.148318
23
0.447576
33
-0.139606
0
3DFACE
8
VIFS128
62
176
10
0.143318
20
0.415099
30
-0.215419
11
0.148318
21
0.447576
31
-0.139606
12
0.148318
22
0.320521
32
-0.336678
13
0.148318
23
0.320521
33
-0.336678
0
3DFACE
8
VIFS128
62
176
10
0.148318
20
0.374354
30
0.283942
11
0.143318
21
0.357232
31
0.304827
12
0.148318
22
0.198126
32
0.42275
13
0.148318
23
0.198126
33
0.42275
0
3DFACE
8
VIFS128
62
176
10
0.148318
20
0.198126
30
0.42275
11
0.143318
21
0.357232
31
0.304827
12
0.103318
22
0.117583
32
0.450171
13
0.103318
23
0.117583
33
0.450171
0
3DFACE
8
VIFS128
62
176
10
0.148318
20
0.198126
30
0.42275
11
0.103318
21
0.117583
31
0.450171
12
0.148318
22
0.00763221
32
0.462877
13
0.148318
23
0.00763221
33
0.462877
0
3DFACE
8
VIFS128
62
176
10
0.148318
20
0.00763221
30
0.462877
11
0.103318
21
0.117583
31
0.450171
12
0.103318
22
0.0766935
32
0.458053
13
0.103318
23
0.0766935
33
0.458053
0
3DFACE
8
VIFS128
62
176
10
0.148318
20
0.00763221
30
0.462877
11
0.103318
21
0.0766935
31
0.458053
12
0.103318
22
0.00763221
32
0.462877
13
0.103318
23
0.00763221
33
0.462877
0
3DFACE
8
VIFS128
62
176
10
0.103318
20
0.117583
30
0.450171
11
0.143318
21
0.357232
31
0.304827
12
0.103318
22
0.325479
32
0.33785
13
0.103318
23
0.325479
33
0.33785
0
3DFACE
8
VIFS128
62
176
10
0.103318
20
0.325479
30
0.33785
11
0.143318
21
0.357232
31
0.304827
12
0.0933182
22
0.357232
32
0.304827
13
0.0933182
23
0.357232
33
0.304827
0
3DFACE
8
VIFS128
62
176
10
0.107526
20
0.174805
30
-0.426653
11
0.148318
21
0.128811
31
-0.441561
12
0.113318
22
0.151024
32
-0.435026
13
0.113318
23
0.151024
33
-0.435026
0
3DFACE
8
VIFS128
62
176
10
0.113318
20
0.151024
30
-0.435026
11
0.148318
21
0.128811
31
-0.441561
12
0.113318
22
-0.125722
32
-0.436573
13
0.113318
23
-0.125722
33
-0.436573
0
3DFACE
8
VIFS128
62
176
10
0.107526
20
0.174805
30
-0.426653
11
0.148318
21
0.320521
31
-0.336678
12
0.148318
22
0.128811
32
-0.441561
13
0.148318
23
0.128811
33
-0.441561
0
3DFACE
8
VIFS128
62
176
10
0.143318
20
0.360583
30
-0.295164
11
0.143318
21
0.415099
31
-0.215419
12
0.148318
22
0.320521
32
-0.336678
13
0.148318
23
0.320521
33
-0.336678
0
3DFACE
8
VIFS128
62
176
10
-0.0666818
20
0.201041
30
-0.415657
11
-0.0919279
21
0.1944
31
-0.418624
12
-0.151682
22
0.355702
32
-0.300811
13
-0.151682
23
0.355702
33
-0.300811
0
3DFACE
8
VIFS128
62
176
10
-0.151682
20
0.355702
30
-0.300811
11
-0.0919279
21
0.1944
31
-0.418624
12
-0.110152
22
0.176153
32
-0.426136
13
-0.110152
23
0.176153
33
-0.426136
0
3DFACE
8
VIFS128
62
176
10
-0.151682
20
0.355702
30
-0.300811
11
-0.110152
21
0.176153
31
-0.426136
12
-0.151682
22
0.183313
32
-0.423296
13
-0.151682
23
0.183313
33
-0.423296
0
3DFACE
8
VIFS128
62
176
10
-0.151682
20
0.183313
30
-0.423296
11
-0.110152
21
0.176153
31
-0.426136
12
-0.116682
22
0.151024
32
-0.435026
13
-0.116682
23
0.151024
33
-0.435026
0
3DFACE
8
VIFS128
62
176
10
-0.151682
20
0.183313
30
-0.423296
11
-0.116682
21
0.151024
31
-0.435026
12
-0.151682
22
-0.103436
32
-0.442858
13
-0.151682
23
-0.103436
33
-0.442858
0
3DFACE
8
VIFS128
62
176
10
-0.151682
20
-0.103436
30
-0.442858
11
-0.116682
21
0.151024
31
-0.435026
12
-0.116682
22
-0.125722
32
-0.436573
13
-0.116682
23
-0.125722
33
-0.436573
0
3DFACE
8
VIFS128
62
176
10
-0.151682
20
-0.103436
30
-0.442858
11
-0.116682
21
-0.125722
31
-0.436573
12
-0.11089
22
-0.149595
32
-0.428466
13
-0.11089
23
-0.149595
33
-0.428466
0
3DFACE
8
VIFS128
62
176
10
0.103318
20
0.00763221
30
0.462877
11
0.103318
21
-0.0773597
31
0.454472
12
0.148318
22
0.00763221
32
0.462877
13
0.148318
23
0.00763221
33
0.462877
0
3DFACE
8
VIFS128
62
176
10
0.148318
20
0.00763221
30
0.462877
11
0.103318
21
-0.0773597
31
0.454472
12
0.103318
22
-0.117839
32
0.444706
13
0.103318
23
-0.117839
33
0.444706
0
3DFACE
8
VIFS128
62
176
10
0.148318
20
0.00763221
30
0.462877
11
0.103318
21
-0.117839
31
0.444706
12
0.148318
22
-0.276366
32
0.362719
13
0.148318
23
-0.276366
33
0.362719
0
3DFACE
8
VIFS128
62
176
10
0.148318
20
-0.276366
30
0.362719
11
0.103318
21
-0.117839
31
0.444706
12
0.103318
22
-0.316871
32
0.326342
13
0.103318
23
-0.316871
33
0.326342
0
3DFACE
8
VIFS128
62
176
10
0.148318
20
-0.276366
30
0.362719
11
0.103318
21
-0.316871
31
0.326342
12
0.101954
22
-0.327836
32
0.314861
13
0.101954
23
-0.327836
33
0.314861
0
3DFACE
8
VIFS128
62
176
10
0.101954
20
-0.327836
30
0.314861
11
0.098793
21
-0.335735
31
0.306086
12
0.148318
22
-0.276366
32
0.362719
13
0.148318
23
-0.276366
33
0.362719
0
3DFACE
8
VIFS128
62
176
10
0.148318
20
-0.276366
30
0.362719
11
0.098793
21
-0.335735
31
0.306086
12
0.0959811
22
-0.339201
32
0.302077
13
0.0959811
23
-0.339201
33
0.302077
0
3DFACE
8
VIFS128
62
176
10
0.148318
20
-0.276366
30
0.362719
11
0.0959811
21
-0.339201
31
0.302077
12
0.143318
22
-0.340181
32
0.300932
13
0.143318
23
-0.340181
33
0.300932
0
3DFACE
8
VIFS128
62
176
10
0.143318
20
-0.340181
30
0.300932
11
0.0959811
21
-0.339201
31
0.302077
12
0.0942261
22
-0.340071
32
0.301062
13
0.0942261
23
-0.340071
33
0.301062
0
3DFACE
8
VIFS128
62
176
10
0.143318
20
-0.340181
30
0.300932
11
0.0942261
21
-0.340071
31
0.301062
12
0.0933182
22
-0.340181
32
0.300932
13
0.0933182
23
-0.340181
33
0.300932
0
3DFACE
8
VIFS128
62
176
10
0.143318
20
-0.340181
30
0.300932
11
0.143318
21
-0.394698
31
0.221185
12
0.148318
22
-0.276366
32
0.362719
13
0.148318
23
-0.276366
33
0.362719
0
3DFACE
8
VIFS128
62
176
10
0.148318
20
-0.276366
30
0.362719
11
0.143318
21
-0.394698
31
0.221185
12
0.148318
22
-0.434005
32
0.122385
13
0.148318
23
-0.434005
33
0.122385
0
3DFACE
8
VIFS128
62
176
10
0.148318
20
-0.439027
30
-0.096077
11
0.143318
21
-0.392234
31
-0.219928
12
0.148318
22
-0.331886
32
-0.304652
13
0.148318
23
-0.331886
33
-0.304652
0
3DFACE
8
VIFS128
62
176
10
0.148318
20
-0.331886
30
-0.304652
11
0.143318
21
-0.392234
31
-0.219928
12
0.143318
22
-0.33683
32
-0.299059
13
0.143318
23
-0.33683
33
-0.299059
0
3DFACE
8
VIFS128
62
176
10
0.148318
20
-0.331886
30
-0.304652
11
0.143318
21
-0.33683
31
-0.299059
12
0.063318
22
-0.175951
32
-0.417762
13
0.063318
23
-0.175951
33
-0.417762
0
3DFACE
8
VIFS128
62
176
10
0.063318
20
-0.175951
30
-0.417762
11
0.143318
21
-0.33683
31
-0.299059
12
-0.146682
22
-0.33683
32
-0.299059
13
-0.146682
23
-0.33683
33
-0.299059
0
3DFACE
8
VIFS128
62
176
10
0.063318
20
-0.175951
30
-0.417762
11
-0.146682
21
-0.33683
31
-0.299059
12
-0.0666818
22
-0.175951
32
-0.417762
13
-0.0666818
23
-0.175951
33
-0.417762
0
3DFACE
8
VIFS128
62
176
10
-0.0666818
20
-0.175951
30
-0.417762
11
-0.146682
21
-0.33683
31
-0.299059
12
-0.151682
22
-0.296306
32
-0.340124
13
-0.151682
23
-0.296306
33
-0.340124
0
3DFACE
8
VIFS128
62
176
10
-0.0666818
20
-0.175951
30
-0.417762
11
-0.151682
21
-0.296306
31
-0.340124
12
-0.0932898
22
-0.168467
32
-0.421001
13
-0.0932898
23
-0.168467
33
-0.421001
0
3DFACE
8
VIFS128
62
176
10
-0.0932898
20
-0.168467
30
-0.421001
11
-0.151682
21
-0.296306
31
-0.340124
12
-0.11089
22
-0.149595
32
-0.428466
13
-0.11089
23
-0.149595
33
-0.428466
0
3DFACE
8
VIFS128
62
176
10
0.143318
20
-0.392234
30
-0.219928
11
0.148318
21
-0.439027
31
-0.096077
12
0.143318
22
-0.394698
32
0.221185
13
0.143318
23
-0.394698
33
0.221185
0
3DFACE
8
VIFS128
62
176
10
0.143318
20
-0.394698
30
0.221185
11
0.148318
21
-0.439027
31
-0.096077
12
0.148318
22
-0.434005
32
0.122385
13
0.148318
23
-0.434005
33
0.122385
0
3DFACE
8
VIFS128
62
176
10
-0.151682
20
-0.357069
30
0.279857
11
-0.151682
21
-0.445441
31
0.0660594
12
-0.146682
22
-0.394698
32
0.221185
13
-0.146682
23
-0.394698
33
0.221185
0
3DFACE
8
VIFS128
62
176
10
-0.146682
20
-0.394698
30
0.221185
11
-0.151682
21
-0.445441
31
0.0660594
12
-0.146682
22
-0.392234
32
-0.219928
13
-0.146682
23
-0.392234
33
-0.219928
0
3DFACE
8
VIFS128
62
176
10
-0.146682
20
-0.394698
30
0.221185
11
-0.146682
21
-0.340181
31
0.300932
12
-0.151682
22
-0.357069
32
0.279857
13
-0.151682
23
-0.357069
33
0.279857
0
3DFACE
8
VIFS128
62
176
10
-0.151682
20
-0.357069
30
0.279857
11
-0.146682
21
-0.340181
31
0.300932
12
-0.151682
22
-0.182402
32
0.420625
13
-0.151682
23
-0.182402
33
0.420625
0
3DFACE
8
VIFS128
62
176
10
-0.151682
20
-0.182402
30
0.420625
11
-0.146682
21
-0.340181
31
0.300932
12
-0.106682
22
-0.117723
32
0.444737
13
-0.106682
23
-0.117723
33
0.444737
0
3DFACE
8
VIFS128
62
176
10
-0.106682
20
-0.117723
30
0.444737
11
-0.146682
21
-0.340181
31
0.300932
12
-0.106682
22
-0.316871
32
0.326342
13
-0.106682
23
-0.316871
33
0.326342
0
3DFACE
8
VIFS128
62
176
10
-0.0966818
20
-0.0773483
30
0.454472
11
-0.106682
21
-0.0773483
31
0.454472
12
-0.106682
22
-0.117723
32
0.444737
13
-0.106682
23
-0.117723
33
0.444737
0
3DFACE
8
VIFS128
62
176
10
-0.106682
20
-0.117723
30
0.444737
11
-0.106682
21
-0.0773483
31
0.454472
12
-0.151682
22
-0.182402
32
0.420625
13
-0.151682
23
-0.182402
33
0.420625
0
3DFACE
8
VIFS128
62
176
10
-0.106682
20
-0.0773483
30
0.454472
11
-0.151682
21
0.00763221
31
0.462877
12
-0.151682
22
-0.182402
32
0.420625
13
-0.151682
23
-0.182402
33
0.420625
0
3DFACE
8
VIFS128
62
176
10
-0.146682
20
-0.340181
30
0.300932
11
-0.0966818
21
-0.340181
31
0.300932
12
-0.106682
22
-0.316871
32
0.326342
13
-0.106682
23
-0.316871
33
0.326342
0
3DFACE
8
VIFS128
62
176
10
-0.11089
20
-0.149595
30
-0.428466
11
-0.151682
21
-0.296306
31
-0.340124
12
-0.151682
22
-0.103436
32
-0.442858
13
-0.151682
23
-0.103436
33
-0.442858
0
3DFACE
8
VIFS128
62
176
10
-0.146682
20
-0.33683
30
-0.299059
11
-0.146682
21
-0.392234
31
-0.219928
12
-0.151682
22
-0.296306
32
-0.340124
13
-0.151682
23
-0.296306
33
-0.340124
0
3DFACE
8
VIFS128
62
176
10
-0.151682
20
-0.296306
30
-0.340124
11
-0.146682
21
-0.392234
31
-0.219928
12
-0.151682
22
-0.425555
32
-0.144482
13
-0.151682
23
-0.425555
33
-0.144482
0
3DFACE
8
VIFS128
62
176
10
-0.151682
20
-0.445441
30
0.0660594
11
-0.151682
21
-0.425555
31
-0.144482
12
-0.146682
22
-0.392234
32
-0.219928
13
-0.146682
23
-0.392234
33
-0.219928
0
3DFACE
8
VIFS128
62
176
10
0.063318
20
-0.175951
30
-0.417762
11
0.0885642
21
-0.169278
31
-0.420655
12
0.148318
22
-0.331886
32
-0.304652
13
0.148318
23
-0.331886
33
-0.304652
0
3DFACE
8
VIFS128
62
176
10
0.148318
20
-0.331886
30
-0.304652
11
0.0885642
21
-0.169278
31
-0.420655
12
0.106788
22
-0.150948
32
-0.427963
13
0.106788
23
-0.150948
33
-0.427963
0
3DFACE
8
VIFS128
62
176
10
0.148318
20
-0.331886
30
-0.304652
11
0.106788
21
-0.150948
31
-0.427963
12
0.148318
22
-0.15814
32
-0.425203
13
0.148318
23
-0.15814
33
-0.425203
0
3DFACE
8
VIFS128
62
176
10
0.148318
20
-0.15814
30
-0.425203
11
0.106788
21
-0.150948
31
-0.427963
12
0.113318
22
-0.125722
32
-0.436573
13
0.113318
23
-0.125722
33
-0.436573
0
3DFACE
8
VIFS128
62
176
10
0.148318
20
-0.15814
30
-0.425203
11
0.113318
21
-0.125722
31
-0.436573
12
0.148318
22
0.128811
32
-0.441561
13
0.148318
23
0.128811
33
-0.441561
0
3DFACE
8
VIFS128
62
176
10
-0.0666818
20
0.186583
30
-0.435498
11
-0.0825948
21
0.179857
31
-0.443906
12
-0.0666818
22
0.201041
32
-0.415657
13
-0.0666818
23
0.201041
33
-0.415657
0
3DFACE
8
VIFS128
62
176
10
-0.0666818
20
0.201041
30
-0.415657
11
-0.0825948
21
0.179857
31
-0.443906
12
-0.10135
22
0.15622
32
-0.438857
13
-0.10135
23
0.15622
33
-0.438857
0
3DFACE
8
VIFS128
62
176
10
-0.0666818
20
0.201041
30
-0.415657
11
-0.10135
21
0.15622
31
-0.438857
12
-0.0919279
22
0.1944
32
-0.418624
13
-0.0919279
23
0.1944
33
-0.418624
0
3DFACE
8
VIFS128
62
176
10
-0.0919279
20
0.1944
30
-0.418624
11
-0.10135
21
0.15622
31
-0.438857
12
-0.110152
22
0.176153
32
-0.426136
13
-0.110152
23
0.176153
33
-0.426136
0
3DFACE
8
VIFS128
62
176
10
-0.10135
20
0.15622
30
-0.438857
11
-0.0825948
21
0.179857
31
-0.443906
12
-0.0931829
22
0.15874
32
-0.449874
13
-0.0931829
23
0.15874
33
-0.449874
0
3DFACE
8
VIFS128
62
176
10
-0.0931829
20
0.15874
30
-0.449874
11
-0.0825948
21
0.179857
31
-0.443906
12
-0.0916818
22
0.158679
32
-0.458834
13
-0.0916818
23
0.158679
33
-0.458834
0
3DFACE
8
VIFS128
62
176
10
-0.116682
20
0.151024
30
-0.435026
11
-0.110152
21
0.176153
31
-0.426136
12
-0.10135
22
0.15622
32
-0.438857
13
-0.10135
23
0.15622
33
-0.438857
0
3DFACE
8
VIFS128
62
176
10
-0.0666818
20
0.186583
30
-0.435498
11
-0.0666818
21
0.201041
31
-0.415657
12
0.063318
22
0.186583
32
-0.435498
13
0.063318
23
0.186583
33
-0.435498
0
3DFACE
8
VIFS128
62
176
10
0.063318
20
0.186583
30
-0.435498
11
-0.0666818
21
0.201041
31
-0.415657
12
0.063318
22
0.201041
32
-0.415657
13
0.063318
23
0.201041
33
-0.415657
0
3DFACE
8
VIFS128
62
176
10
-0.0666818
20
0.186583
30
-0.435498
11
0.063318
21
0.186583
31
-0.435498
12
-0.0666818
22
0.17586
32
-0.527059
13
-0.0666818
23
0.17586
33
-0.527059
0
3DFACE
8
VIFS128
62
176
10
-0.0666818
20
0.17586
30
-0.527059
11
0.063318
21
0.186583
31
-0.435498
12
0.063318
22
0.17586
32
-0.527059
13
0.063318
23
0.17586
33
-0.527059
0
3DFACE
8
VIFS128
62
176
10
0.063318
20
0.17586
30
-0.527059
11
0.063318
21
0.171807
31
-0.538052
12
-0.0666818
22
0.171807
32
-0.538052
13
-0.0666818
23
0.171807
33
-0.538052
0
3DFACE
8
VIFS128
62
176
10
-0.0666818
20
0.171807
30
-0.538052
11
0.063318
21
0.171807
31
-0.538052
12
-0.0666818
22
0.162543
32
-0.546334
13
-0.0666818
23
0.162543
33
-0.546334
0
3DFACE
8
VIFS128
62
176
10
-0.0666818
20
0.171807
30
-0.538052
11
-0.0666818
21
0.17586
31
-0.527059
12
0.063318
22
0.17586
32
-0.527059
13
0.063318
23
0.17586
33
-0.527059
0
3DFACE
8
VIFS128
62
176
10
0.063318
20
0.171807
30
-0.538052
11
0.063318
21
0.162543
31
-0.546334
12
-0.0666818
22
0.162543
32
-0.546334
13
-0.0666818
23
0.162543
33
-0.546334
0
3DFACE
8
VIFS128
62
176
10
-0.0666818
20
0.162543
30
-0.546334
11
0.063318
21
0.162543
31
-0.546334
12
-0.0666818
22
0.151169
32
-0.549147
13
-0.0666818
23
0.151169
33
-0.549147
0
3DFACE
8
VIFS128
62
176
10
0.063318
20
0.162543
30
-0.546334
11
0.063318
21
0.151169
31
-0.549147
12
-0.0666818
22
0.151169
32
-0.549147
13
-0.0666818
23
0.151169
33
-0.549147
0
3DFACE
8
VIFS128
62
176
10
-0.0666818
20
0.17586
30
-0.527059
11
-0.0666818
21
0.171807
31
-0.538052
12
-0.0824169
22
0.17038
32
-0.52594
13
-0.0824169
23
0.17038
33
-0.52594
0
3DFACE
8
VIFS128
62
176
10
-0.0824169
20
0.17038
30
-0.52594
11
-0.0666818
21
0.171807
31
-0.538052
12
-0.0752208
22
0.150981
32
-0.547649
13
-0.0752208
23
0.150981
33
-0.547649
0
3DFACE
8
VIFS128
62
176
10
-0.0824169
20
0.17038
30
-0.52594
11
-0.0752208
21
0.150981
31
-0.547649
12
-0.0863498
22
0.150508
32
-0.539581
13
-0.0863498
23
0.150508
33
-0.539581
0
3DFACE
8
VIFS128
62
176
10
-0.0666818
20
0.171807
30
-0.538052
11
-0.0666818
21
0.162543
31
-0.546334
12
-0.0752208
22
0.150981
32
-0.547649
13
-0.0752208
23
0.150981
33
-0.547649
0
3DFACE
8
VIFS128
62
176
10
-0.0752208
20
0.150981
30
-0.547649
11
-0.0666818
21
0.162543
31
-0.546334
12
-0.0666818
22
0.151169
32
-0.549147
13
-0.0666818
23
0.151169
33
-0.549147
0
3DFACE
8
VIFS128
62
176
10
-0.0916818
20
0.151029
30
-0.524148
11
-0.0902658
21
0.159329
31
-0.524531
12
-0.0863498
22
0.150508
32
-0.539581
13
-0.0863498
23
0.150508
33
-0.539581
0
3DFACE
8
VIFS128
62
176
10
-0.0863498
20
0.150508
30
-0.539581
11
-0.0902658
21
0.159329
31
-0.524531
12
-0.0824169
22
0.17038
32
-0.52594
13
-0.0824169
23
0.17038
33
-0.52594
0
3DFACE
8
VIFS128
62
176
10
-0.0905288
20
-0.124127
30
-0.533185
11
-0.0863498
21
0.150508
31
-0.539581
12
-0.0829959
22
-0.124135
32
-0.544635
13
-0.0829959
23
-0.124135
33
-0.544635
0
3DFACE
8
VIFS128
62
176
10
-0.0829959
20
-0.124135
30
-0.544635
11
-0.0863498
21
0.150508
31
-0.539581
12
-0.0752208
22
0.150981
32
-0.547649
13
-0.0752208
23
0.150981
33
-0.547649
0
3DFACE
8
VIFS128
62
176
10
-0.0829959
20
-0.124135
30
-0.544635
11
-0.0752208
21
0.150981
31
-0.547649
12
-0.0666818
22
-0.124591
32
-0.550687
13
-0.0666818
23
-0.124591
33
-0.550687
0
3DFACE
8
VIFS128
62
176
10
-0.0666818
20
-0.124591
30
-0.550687
11
-0.0752208
21
0.150981
31
-0.547649
12
-0.0666818
22
0.151169
32
-0.549147
13
-0.0666818
23
0.151169
33
-0.549147
0
3DFACE
8
VIFS128
62
176
10
-0.0863498
20
0.150508
30
-0.539581
11
-0.0905288
21
-0.124127
31
-0.533185
12
-0.0916818
22
0.151029
32
-0.524148
13
-0.0916818
23
0.151029
33
-0.524148
0
3DFACE
8
VIFS128
62
176
10
-0.0916818
20
0.151029
30
-0.524148
11
-0.0905288
21
-0.124127
31
-0.533185
12
-0.0916818
22
-0.12473
32
-0.525689
13
-0.0916818
23
-0.12473
33
-0.525689
0
3DFACE
8
VIFS128
62
176
10
-0.0666818
20
-0.149527
30
-0.528877
11
-0.0743599
21
-0.148348
31
-0.52857
12
-0.0666818
22
-0.145353
32
-0.539824
13
-0.0666818
23
-0.145353
33
-0.539824
0
3DFACE
8
VIFS128
62
176
10
-0.0666818
20
-0.145353
30
-0.539824
11
-0.0743599
21
-0.148348
31
-0.52857
12
-0.0905288
22
-0.124127
32
-0.533185
13
-0.0905288
23
-0.124127
33
-0.533185
0
3DFACE
8
VIFS128
62
176
10
-0.0666818
20
-0.145353
30
-0.539824
11
-0.0905288
21
-0.124127
31
-0.533185
12
-0.0829959
22
-0.124135
32
-0.544635
13
-0.0829959
23
-0.124135
33
-0.544635
0
3DFACE
8
VIFS128
62
176
10
-0.0743599
20
-0.148348
30
-0.52857
11
-0.0858918
21
-0.140681
31
-0.527138
12
-0.0905288
22
-0.124127
32
-0.533185
13
-0.0905288
23
-0.124127
33
-0.533185
0
3DFACE
8
VIFS128
62
176
10
-0.0905288
20
-0.124127
30
-0.533185
11
-0.0858918
21
-0.140681
31
-0.527138
12
-0.0916818
22
-0.12473
32
-0.525689
13
-0.0916818
23
-0.12473
33
-0.525689
0
3DFACE
8
VIFS128
62
176
10
-0.0666818
20
-0.145353
30
-0.539824
11
-0.0829959
21
-0.124135
31
-0.544635
12
-0.0666818
22
-0.135997
32
-0.548001
13
-0.0666818
23
-0.135997
33
-0.548001
0
3DFACE
8
VIFS128
62
176
10
-0.0666818
20
-0.135997
30
-0.548001
11
-0.0829959
21
-0.124135
31
-0.544635
12
-0.0666818
22
-0.124591
32
-0.550687
13
-0.0666818
23
-0.124591
33
-0.550687
0
3DFACE
8
VIFS128
62
176
10
-0.0916818
20
-0.133109
30
-0.460464
11
-0.0858918
21
-0.140681
31
-0.527138
12
-0.0825948
22
-0.154454
32
-0.445773
13
-0.0825948
23
-0.154454
33
-0.445773
0
3DFACE
8
VIFS128
62
176
10
-0.0825948
20
-0.154454
30
-0.445773
11
-0.0858918
21
-0.140681
31
-0.527138
12
-0.0743599
22
-0.148348
32
-0.52857
13
-0.0743599
23
-0.148348
33
-0.52857
0
3DFACE
8
VIFS128
62
176
10
-0.0825948
20
-0.154454
30
-0.445773
11
-0.0743599
21
-0.148348
31
-0.52857
12
-0.0666818
22
-0.161272
32
-0.437441
13
-0.0666818
23
-0.161272
33
-0.437441
0
3DFACE
8
VIFS128
62
176
10
-0.0666818
20
-0.161272
30
-0.437441
11
-0.0743599
21
-0.148348
31
-0.52857
12
-0.0666818
22
-0.149527
32
-0.528877
13
-0.0666818
23
-0.149527
33
-0.528877
0
3DFACE
8
VIFS128
62
176
10
-0.0916818
20
-0.133109
30
-0.460464
11
-0.0916818
21
-0.12473
31
-0.525689
12
-0.0858918
22
-0.140681
32
-0.527138
13
-0.0858918
23
-0.140681
33
-0.527138
0
3DFACE
8
VIFS128
62
176
10
0.063318
20
-0.161272
30
-0.437441
11
-0.0666818
21
-0.161272
31
-0.437441
12
0.063318
22
-0.149527
32
-0.528877
13
0.063318
23
-0.149527
33
-0.528877
0
3DFACE
8
VIFS128
62
176
10
0.063318
20
-0.149527
30
-0.528877
11
-0.0666818
21
-0.161272
31
-0.437441
12
-0.0666818
22
-0.149527
32
-0.528877
13
-0.0666818
23
-0.149527
33
-0.528877
0
3DFACE
8
VIFS128
62
176
10
0.063318
20
-0.161272
30
-0.437441
11
0.063318
21
-0.175951
31
-0.417762
12
-0.0666818
22
-0.161272
32
-0.437441
13
-0.0666818
23
-0.161272
33
-0.437441
0
3DFACE
8
VIFS128
62
176
10
-0.0666818
20
-0.161272
30
-0.437441
11
0.063318
21
-0.175951
31
-0.417762
12
-0.0666818
22
-0.175951
32
-0.417762
13
-0.0666818
23
-0.175951
33
-0.417762
0
3DFACE
8
VIFS128
62
176
10
0.0792311
20
-0.154454
30
-0.445773
11
0.0898192
21
-0.13327
31
-0.451505
12
0.063318
22
-0.161272
32
-0.437441
13
0.063318
23
-0.161272
33
-0.437441
0
3DFACE
8
VIFS128
62
176
10
0.063318
20
-0.161272
30
-0.437441
11
0.0898192
21
-0.13327
31
-0.451505
12
0.0979863
22
-0.130874
32
-0.440461
13
0.0979863
23
-0.130874
33
-0.440461
0
3DFACE
8
VIFS128
62
176
10
0.063318
20
-0.161272
30
-0.437441
11
0.0979863
21
-0.130874
31
-0.440461
12
0.063318
22
-0.175951
32
-0.417762
13
0.063318
23
-0.175951
33
-0.417762
0
3DFACE
8
VIFS128
62
176
10
0.063318
20
-0.175951
30
-0.417762
11
0.0979863
21
-0.130874
31
-0.440461
12
0.0885642
22
-0.169278
32
-0.420655
13
0.0885642
23
-0.169278
33
-0.420655
0
3DFACE
8
VIFS128
62
176
10
0.0792311
20
-0.154454
30
-0.445773
11
0.0883181
21
-0.133109
31
-0.460464
12
0.0898192
22
-0.13327
32
-0.451505
13
0.0898192
23
-0.13327
33
-0.451505
0
3DFACE
8
VIFS128
62
176
10
0.113318
20
-0.125722
30
-0.436573
11
0.106788
21
-0.150948
31
-0.427963
12
0.0979863
22
-0.130874
32
-0.440461
13
0.0979863
23
-0.130874
33
-0.440461
0
3DFACE
8
VIFS128
62
176
10
0.0979863
20
-0.130874
30
-0.440461
11
0.106788
21
-0.150948
31
-0.427963
12
0.0885642
22
-0.169278
32
-0.420655
13
0.0885642
23
-0.169278
33
-0.420655
0
3DFACE
8
VIFS128
62
176
10
0.063318
20
-0.149527
30
-0.528877
11
0.0790532
21
-0.14406
31
-0.527696
12
0.0792311
22
-0.154454
32
-0.445773
13
0.0792311
23
-0.154454
33
-0.445773
0
3DFACE
8
VIFS128
62
176
10
0.0792311
20
-0.154454
30
-0.445773
11
0.0790532
21
-0.14406
31
-0.527696
12
0.0869022
22
-0.133026
32
-0.526164
13
0.0869022
23
-0.133026
33
-0.526164
0
3DFACE
8
VIFS128
62
176
10
0.0792311
20
-0.154454
30
-0.445773
11
0.0869022
21
-0.133026
31
-0.526164
12
0.0883181
22
-0.133109
32
-0.460464
13
0.0883181
23
-0.133109
33
-0.460464
0
3DFACE
8
VIFS128
62
176
10
0.0883181
20
-0.133109
30
-0.460464
11
0.0869022
21
-0.133026
31
-0.526164
12
0.0883181
22
-0.12473
32
-0.525689
13
0.0883181
23
-0.12473
33
-0.525689
0
3DFACE
8
VIFS128
62
176
10
0.0792311
20
-0.154454
30
-0.445773
11
0.063318
21
-0.161272
31
-0.437441
12
0.063318
22
-0.149527
32
-0.528877
13
0.063318
23
-0.149527
33
-0.528877
0
3DFACE
8
VIFS128
62
176
10
0.0883181
20
-0.133109
30
-0.460464
11
0.0883181
21
-0.12473
31
-0.525689
12
0.0883181
22
0.158679
32
-0.458834
13
0.0883181
23
0.158679
33
-0.458834
0
3DFACE
8
VIFS128
62
176
10
0.0883181
20
0.158679
30
-0.458834
11
0.0883181
21
-0.12473
31
-0.525689
12
0.0883181
22
0.151029
32
-0.524148
13
0.0883181
23
0.151029
33
-0.524148
0
3DFACE
8
VIFS128
62
176
10
0.0883181
20
0.158679
30
-0.458834
11
0.0825281
21
0.166994
31
-0.525418
12
0.0792311
22
0.179857
32
-0.443906
13
0.0792311
23
0.179857
33
-0.443906
0
3DFACE
8
VIFS128
62
176
10
0.0792311
20
0.179857
30
-0.443906
11
0.0825281
21
0.166994
31
-0.525418
12
0.0709961
22
0.174676
32
-0.526766
13
0.0709961
23
0.174676
33
-0.526766
0
3DFACE
8
VIFS128
62
176
10
0.0792311
20
0.179857
30
-0.443906
11
0.0709961
21
0.174676
31
-0.526766
12
0.063318
22
0.186583
32
-0.435498
13
0.063318
23
0.186583
33
-0.435498
0
3DFACE
8
VIFS128
62
176
10
0.063318
20
0.186583
30
-0.435498
11
0.0709961
21
0.174676
31
-0.526766
12
0.063318
22
0.17586
32
-0.527059
13
0.063318
23
0.17586
33
-0.527059
0
3DFACE
8
VIFS128
62
176
10
0.0883181
20
0.158679
30
-0.458834
11
0.0883181
21
0.151029
31
-0.524148
12
0.0825281
22
0.166994
32
-0.525418
13
0.0825281
23
0.166994
33
-0.525418
0
3DFACE
8
VIFS128
62
176
10
0.0883181
20
0.151029
30
-0.524148
11
0.0871651
21
0.150509
31
-0.531651
12
0.0825281
22
0.166994
32
-0.525418
13
0.0825281
23
0.166994
33
-0.525418
0
3DFACE
8
VIFS128
62
176
10
0.0825281
20
0.166994
30
-0.525418
11
0.0871651
21
0.150509
31
-0.531651
12
0.063318
22
0.162543
32
-0.546334
13
0.063318
23
0.162543
33
-0.546334
0
3DFACE
8
VIFS128
62
176
10
0.0825281
20
0.166994
30
-0.525418
11
0.063318
21
0.162543
31
-0.546334
12
0.063318
22
0.171807
32
-0.538052
13
0.063318
23
0.171807
33
-0.538052
0
3DFACE
8
VIFS128
62
176
10
0.0871651
20
0.150509
30
-0.531651
11
0.0796321
21
0.150645
31
-0.5431
12
0.063318
22
0.162543
32
-0.546334
13
0.063318
23
0.162543
33
-0.546334
0
3DFACE
8
VIFS128
62
176
10
0.063318
20
0.162543
30
-0.546334
11
0.0796321
21
0.150645
31
-0.5431
12
0.063318
22
0.151169
32
-0.549147
13
0.063318
23
0.151169
33
-0.549147
0
3DFACE
8
VIFS128
62
176
10
0.0825281
20
0.166994
30
-0.525418
11
0.063318
21
0.171807
31
-0.538052
12
0.0709961
22
0.174676
32
-0.526766
13
0.0709961
23
0.174676
33
-0.526766
0
3DFACE
8
VIFS128
62
176
10
0.0709961
20
0.174676
30
-0.526766
11
0.063318
21
0.171807
31
-0.538052
12
0.063318
22
0.17586
32
-0.527059
13
0.063318
23
0.17586
33
-0.527059
0
3DFACE
8
VIFS128
62
176
10
0.0871651
20
0.150509
30
-0.531651
11
0.0829861
21
-0.124037
31
-0.541115
12
0.0796321
22
0.150645
32
-0.5431
13
0.0796321
23
0.150645
33
-0.5431
0
3DFACE
8
VIFS128
62
176
10
0.0796321
20
0.150645
30
-0.5431
11
0.0829861
21
-0.124037
31
-0.541115
12
0.0718572
22
-0.124421
32
-0.549186
13
0.0718572
23
-0.124421
33
-0.549186
0
3DFACE
8
VIFS128
62
176
10
0.0796321
20
0.150645
30
-0.5431
11
0.0718572
21
-0.124421
31
-0.549186
12
0.063318
22
0.151169
32
-0.549147
13
0.063318
23
0.151169
33
-0.549147
0
3DFACE
8
VIFS128
62
176
10
0.063318
20
0.151169
30
-0.549147
11
0.0718572
21
-0.124421
31
-0.549186
12
0.063318
22
-0.124591
32
-0.550687
13
0.063318
23
-0.124591
33
-0.550687
0
3DFACE
8
VIFS128
62
176
10
0.0829861
20
-0.124037
30
-0.541115
11
0.0871651
21
0.150509
31
-0.531651
12
0.0883181
22
-0.12473
32
-0.525689
13
0.0883181
23
-0.12473
33
-0.525689
0
3DFACE
8
VIFS128
62
176
10
0.0883181
20
-0.12473
30
-0.525689
11
0.0871651
21
0.150509
31
-0.531651
12
0.0883181
22
0.151029
32
-0.524148
13
0.0883181
23
0.151029
33
-0.524148
0
3DFACE
8
VIFS128
62
176
10
-0.0666818
20
0.151169
30
-0.549147
11
0.063318
21
0.151169
31
-0.549147
12
-0.0666818
22
-0.124591
32
-0.550687
13
-0.0666818
23
-0.124591
33
-0.550687
0
3DFACE
8
VIFS128
62
176
10
-0.0666818
20
-0.124591
30
-0.550687
11
0.063318
21
0.151169
31
-0.549147
12
0.063318
22
-0.124591
32
-0.550687
13
0.063318
23
-0.124591
33
-0.550687
0
3DFACE
8
VIFS128
62
176
10
-0.0666818
20
-0.149527
30
-0.528877
11
-0.0666818
21
-0.145353
31
-0.539824
12
0.063318
22
-0.145353
32
-0.539824
13
0.063318
23
-0.145353
33
-0.539824
0
3DFACE
8
VIFS128
62
176
10
0.063318
20
-0.145353
30
-0.539824
11
-0.0666818
21
-0.145353
31
-0.539824
12
0.063318
22
-0.135997
32
-0.548001
13
0.063318
23
-0.135997
33
-0.548001
0
3DFACE
8
VIFS128
62
176
10
0.063318
20
-0.145353
30
-0.539824
11
0.063318
21
-0.149527
31
-0.528877
12
-0.0666818
22
-0.149527
32
-0.528877
13
-0.0666818
23
-0.149527
33
-0.528877
0
3DFACE
8
VIFS128
62
176
10
-0.0666818
20
-0.145353
30
-0.539824
11
-0.0666818
21
-0.135997
31
-0.548001
12
0.063318
22
-0.135997
32
-0.548001
13
0.063318
23
-0.135997
33
-0.548001
0
3DFACE
8
VIFS128
62
176
10
0.063318
20
-0.135997
30
-0.548001
11
-0.0666818
21
-0.135997
31
-0.548001
12
0.063318
22
-0.124591
32
-0.550687
13
0.063318
23
-0.124591
33
-0.550687
0
3DFACE
8
VIFS128
62
176
10
-0.0666818
20
-0.135997
30
-0.548001
11
-0.0666818
21
-0.124591
31
-0.550687
12
0.063318
22
-0.124591
32
-0.550687
13
0.063318
23
-0.124591
33
-0.550687
0
3DFACE
8
VIFS128
62
176
10
0.063318
20
-0.149527
30
-0.528877
11
0.063318
21
-0.145353
31
-0.539824
12
0.0790532
22
-0.14406
32
-0.527696
13
0.0790532
23
-0.14406
33
-0.527696
0
3DFACE
8
VIFS128
62
176
10
0.0790532
20
-0.14406
30
-0.527696
11
0.063318
21
-0.145353
31
-0.539824
12
0.0718572
22
-0.124421
32
-0.549186
13
0.0718572
23
-0.124421
33
-0.549186
0
3DFACE
8
VIFS128
62
176
10
0.0790532
20
-0.14406
30
-0.527696
11
0.0718572
21
-0.124421
31
-0.549186
12
0.0829861
22
-0.124037
32
-0.541115
13
0.0829861
23
-0.124037
33
-0.541115
0
3DFACE
8
VIFS128
62
176
10
0.063318
20
-0.145353
30
-0.539824
11
0.063318
21
-0.135997
31
-0.548001
12
0.0718572
22
-0.124421
32
-0.549186
13
0.0718572
23
-0.124421
33
-0.549186
0
3DFACE
8
VIFS128
62
176
10
0.0718572
20
-0.124421
30
-0.549186
11
0.063318
21
-0.135997
31
-0.548001
12
0.063318
22
-0.124591
32
-0.550687
13
0.063318
23
-0.124591
33
-0.550687
0
3DFACE
8
VIFS128
62
176
10
0.0883181
20
-0.12473
30
-0.525689
11
0.0869022
21
-0.133026
31
-0.526164
12
0.0829861
22
-0.124037
32
-0.541115
13
0.0829861
23
-0.124037
33
-0.541115
0
3DFACE
8
VIFS128
62
176
10
0.0829861
20
-0.124037
30
-0.541115
11
0.0869022
21
-0.133026
31
-0.526164
12
0.0790532
22
-0.14406
32
-0.527696
13
0.0790532
23
-0.14406
33
-0.527696
0
3DFACE
8
VIFS128
62
176
10
0.148318
20
0.198126
30
0.42275
11
0.148318
21
0.00763221
31
0.462877
12
0.148318
22
-0.00521439
32
0.352544
13
0.148318
23
-0.00521439
33
0.352544
0
3DFACE
8
VIFS128
62
176
10
0.148318
20
-0.00521439
30
0.352544
11
0.148318
21
0.00763221
31
0.462877
12
0.148318
22
-0.170694
32
0.302508
13
0.148318
23
-0.170694
33
0.302508
0
3DFACE
8
VIFS128
62
176
10
0.148318
20
-0.00521439
30
0.352544
11
0.148318
21
0.171443
31
0.313529
12
0.148318
22
0.198126
32
0.42275
13
0.148318
23
0.198126
33
0.42275
0
3DFACE
8
VIFS128
62
176
10
0.148318
20
0.198126
30
0.42275
11
0.148318
21
0.171443
31
0.313529
12
0.148318
22
0.374354
32
0.283942
13
0.148318
23
0.374354
33
0.283942
0
3DFACE
8
VIFS128
62
176
10
0.148318
20
0.171443
30
0.313529
11
0.148318
21
0.312463
31
0.179345
12
0.148318
22
0.374354
32
0.283942
13
0.148318
23
0.374354
33
0.283942
0
3DFACE
8
VIFS128
62
176
10
0.148318
20
0.374354
30
0.283942
11
0.148318
21
0.312463
31
0.179345
12
0.148318
22
0.465109
32
0.0711461
13
0.148318
23
0.465109
33
0.0711461
0
3DFACE
8
VIFS128
62
176
10
0.148318
20
0.312463
30
0.179345
11
0.148318
21
0.360195
31
0.00483895
12
0.148318
22
0.465109
32
0.0711461
13
0.148318
23
0.465109
33
0.0711461
0
3DFACE
8
VIFS128
62
176
10
0.148318
20
0.465109
30
0.0711461
11
0.148318
21
0.360195
31
0.00483895
12
0.148318
22
0.447576
32
-0.139606
13
0.148318
23
0.447576
33
-0.139606
0
3DFACE
8
VIFS128
62
176
10
0.148318
20
0.360195
30
0.00483895
11
0.148318
21
0.314416
31
-0.17019
12
0.148318
22
0.447576
32
-0.139606
13
0.148318
23
0.447576
33
-0.139606
0
3DFACE
8
VIFS128
62
176
10
0.148318
20
0.447576
30
-0.139606
11
0.148318
21
0.314416
31
-0.17019
12
0.148318
22
0.320521
32
-0.336678
13
0.148318
23
0.320521
33
-0.336678
0
3DFACE
8
VIFS128
62
176
10
0.148318
20
0.314416
30
-0.17019
11
0.148318
21
0.174903
31
-0.305941
12
0.148318
22
0.320521
32
-0.336678
13
0.148318
23
0.320521
33
-0.336678
0
3DFACE
8
VIFS128
62
176
10
0.148318
20
0.320521
30
-0.336678
11
0.148318
21
0.174903
31
-0.305941
12
0.148318
22
0.128811
32
-0.441561
13
0.148318
23
0.128811
33
-0.441561
0
3DFACE
8
VIFS128
62
176
10
0.148318
20
0.174903
30
-0.305941
11
0.148318
21
-0.00130712
31
-0.346926
12
0.148318
22
0.128811
32
-0.441561
13
0.148318
23
0.128811
33
-0.441561
0
3DFACE
8
VIFS128
62
176
10
0.148318
20
0.128811
30
-0.441561
11
0.148318
21
-0.00130712
31
-0.346926
12
0.148318
22
-0.15814
32
-0.425203
13
0.148318
23
-0.15814
33
-0.425203
0
3DFACE
8
VIFS128
62
176
10
0.148318
20
-0.00130712
30
-0.346926
11
0.148318
21
-0.167336
31
-0.298742
12
0.148318
22
-0.15814
32
-0.425203
13
0.148318
23
-0.15814
33
-0.425203
0
3DFACE
8
VIFS128
62
176
10
0.148318
20
-0.15814
30
-0.425203
11
0.148318
21
-0.167336
31
-0.298742
12
0.148318
22
-0.331886
32
-0.304652
13
0.148318
23
-0.331886
33
-0.304652
0
3DFACE
8
VIFS128
62
176
10
0.148318
20
-0.167336
30
-0.298742
11
0.148318
21
-0.296162
31
-0.16635
12
0.148318
22
-0.331886
32
-0.304652
13
0.148318
23
-0.331886
33
-0.304652
0
3DFACE
8
VIFS128
62
176
10
0.148318
20
-0.331886
30
-0.304652
11
0.148318
21
-0.296162
31
-0.16635
12
0.148318
22
-0.439027
32
-0.096077
13
0.148318
23
-0.439027
33
-0.096077
0
3DFACE
8
VIFS128
62
176
10
0.148318
20
-0.296162
30
-0.16635
11
0.148318
21
-0.339794
31
0.000928957
12
0.148318
22
-0.439027
32
-0.096077
13
0.148318
23
-0.439027
33
-0.096077
0
3DFACE
8
VIFS128
62
176
10
0.148318
20
-0.439027
30
-0.096077
11
0.148318
21
-0.339794
31
0.000928957
12
0.148318
22
-0.434005
32
0.122385
13
0.148318
23
-0.434005
33
0.122385
0
3DFACE
8
VIFS128
62
176
10
0.148318
20
-0.339794
30
0.000928957
11
0.148318
21
-0.298034
31
0.168685
12
0.148318
22
-0.434005
32
0.122385
13
0.148318
23
-0.434005
33
0.122385
0
3DFACE
8
VIFS128
62
176
10
0.148318
20
-0.434005
30
0.122385
11
0.148318
21
-0.298034
31
0.168685
12
0.148318
22
-0.276366
32
0.362719
13
0.148318
23
-0.276366
33
0.362719
0
3DFACE
8
VIFS128
62
176
10
0.148318
20
-0.298034
30
0.168685
11
0.148318
21
-0.170694
31
0.302508
12
0.148318
22
-0.276366
32
0.362719
13
0.148318
23
-0.276366
33
0.362719
0
3DFACE
8
VIFS128
62
176
10
0.148318
20
-0.276366
30
0.362719
11
0.148318
21
-0.170694
31
0.302508
12
0.148318
22
0.00763221
32
0.462877
13
0.148318
23
0.00763221
33
0.462877
0
3DFACE
8
VIFS128
62
176
10
-0.151682
20
-0.182402
30
0.420625
11
-0.151682
21
0.00763221
31
0.462877
12
-0.151682
22
-0.00521439
32
0.352544
13
-0.151682
23
-0.00521439
33
0.352544
0
3DFACE
8
VIFS128
62
176
10
-0.151682
20
-0.00521439
30
0.352544
11
-0.151682
21
0.00763221
31
0.462877
12
-0.151682
22
0.171444
32
0.31353
13
-0.151682
23
0.171444
33
0.31353
0
3DFACE
8
VIFS128
62
176
10
-0.151682
20
-0.00521439
30
0.352544
11
-0.151682
21
-0.170693
31
0.302508
12
-0.151682
22
-0.182402
32
0.420625
13
-0.151682
23
-0.182402
33
0.420625
0
3DFACE
8
VIFS128
62
176
10
-0.151682
20
-0.182402
30
0.420625
11
-0.151682
21
-0.170693
31
0.302508
12
-0.151682
22
-0.357069
32
0.279857
13
-0.151682
23
-0.357069
33
0.279857
0
3DFACE
8
VIFS128
62
176
10
-0.151682
20
-0.170693
30
0.302508
11
-0.151682
21
-0.298033
31
0.168685
12
-0.151682
22
-0.357069
32
0.279857
13
-0.151682
23
-0.357069
33
0.279857
0
3DFACE
8
VIFS128
62
176
10
-0.151682
20
-0.357069
30
0.279857
11
-0.151682
21
-0.298033
31
0.168685
12
-0.151682
22
-0.445441
32
0.0660594
13
-0.151682
23
-0.445441
33
0.0660594
0
3DFACE
8
VIFS128
62
176
10
-0.151682
20
-0.298033
30
0.168685
11
-0.151682
21
-0.339794
31
0.000928953
12
-0.151682
22
-0.445441
32
0.0660594
13
-0.151682
23
-0.445441
33
0.0660594
0
3DFACE
8
VIFS128
62
176
10
-0.151682
20
-0.445441
30
0.0660594
11
-0.151682
21
-0.339794
31
0.000928953
12
-0.151682
22
-0.425555
32
-0.144482
13
-0.151682
23
-0.425555
33
-0.144482
0
3DFACE
8
VIFS128
62
176
10
-0.151682
20
-0.339794
30
0.000928953
11
-0.151682
21
-0.296163
31
-0.16635
12
-0.151682
22
-0.425555
32
-0.144482
13
-0.151682
23
-0.425555
33
-0.144482
0
3DFACE
8
VIFS128
62
176
10
-0.151682
20
-0.425555
30
-0.144482
11
-0.151682
21
-0.296163
31
-0.16635
12
-0.151682
22
-0.296306
32
-0.340124
13
-0.151682
23
-0.296306
33
-0.340124
0
3DFACE
8
VIFS128
62
176
10
-0.151682
20
-0.296163
30
-0.16635
11
-0.151682
21
-0.167336
31
-0.298742
12
-0.151682
22
-0.296306
32
-0.340124
13
-0.151682
23
-0.296306
33
-0.340124
0
3DFACE
8
VIFS128
62
176
10
-0.151682
20
-0.296306
30
-0.340124
11
-0.151682
21
-0.167336
31
-0.298742
12
-0.151682
22
-0.103436
32
-0.442858
13
-0.151682
23
-0.103436
33
-0.442858
0
3DFACE
8
VIFS128
62
176
10
-0.151682
20
-0.167336
30
-0.298742
11
-0.151682
21
-0.00130712
31
-0.346926
12
-0.151682
22
-0.103436
32
-0.442858
13
-0.151682
23
-0.103436
33
-0.442858
0
3DFACE
8
VIFS128
62
176
10
-0.151682
20
-0.103436
30
-0.442858
11
-0.151682
21
-0.00130712
31
-0.346926
12
-0.151682
22
0.183313
32
-0.423296
13
-0.151682
23
0.183313
33
-0.423296
0
3DFACE
8
VIFS128
62
176
10
-0.151682
20
-0.00130712
30
-0.346926
11
-0.151682
21
0.174902
31
-0.305941
12
-0.151682
22
0.183313
32
-0.423296
13
-0.151682
23
0.183313
33
-0.423296
0
3DFACE
8
VIFS128
62
176
10
-0.151682
20
0.183313
30
-0.423296
11
-0.151682
21
0.174902
31
-0.305941
12
-0.151682
22
0.355702
32
-0.300811
13
-0.151682
23
0.355702
33
-0.300811
0
3DFACE
8
VIFS128
62
176
10
-0.151682
20
0.174902
30
-0.305941
11
-0.151682
21
0.314416
31
-0.17019
12
-0.151682
22
0.355702
32
-0.300811
13
-0.151682
23
0.355702
33
-0.300811
0
3DFACE
8
VIFS128
62
176
10
-0.151682
20
0.355702
30
-0.300811
11
-0.151682
21
0.314416
31
-0.17019
12
-0.151682
22
0.460507
32
-0.0910523
13
-0.151682
23
0.460507
33
-0.0910523
0
3DFACE
8
VIFS128
62
176
10
-0.151682
20
0.314416
30
-0.17019
11
-0.151682
21
0.360195
31
0.00483895
12
-0.151682
22
0.460507
32
-0.0910523
13
-0.151682
23
0.460507
33
-0.0910523
0
3DFACE
8
VIFS128
62
176
10
-0.151682
20
0.460507
30
-0.0910523
11
-0.151682
21
0.360195
31
0.00483895
12
-0.151682
22
0.453044
32
0.127339
13
-0.151682
23
0.453044
33
0.127339
0
3DFACE
8
VIFS128
62
176
10
-0.151682
20
0.360195
30
0.00483895
11
-0.151682
21
0.312464
31
0.179344
12
-0.151682
22
0.453044
32
0.127339
13
-0.151682
23
0.453044
33
0.127339
0
3DFACE
8
VIFS128
62
176
10
-0.151682
20
0.453044
30
0.127339
11
-0.151682
21
0.312464
31
0.179344
12
-0.151682
22
0.292731
32
0.365898
13
-0.151682
23
0.292731
33
0.365898
0
3DFACE
8
VIFS128
62
176
10
-0.151682
20
0.312464
30
0.179344
11
-0.151682
21
0.171444
31
0.31353
12
-0.151682
22
0.292731
32
0.365898
13
-0.151682
23
0.292731
33
0.365898
0
3DFACE
8
VIFS128
62
176
10
-0.151682
20
0.292731
30
0.365898
11
-0.151682
21
0.171444
31
0.31353
12
-0.151682
22
0.00763221
32
0.462877
13
-0.151682
23
0.00763221
33
0.462877
0
3DFACE
8
VIFS128
62
176
10
0.128318
20
-0.00433193
30
0.332568
11
0.148318
21
-0.170694
31
0.302508
12
0.128318
22
-0.160358
32
0.285386
13
0.128318
23
-0.160358
33
0.285386
0
3DFACE
8
VIFS128
62
176
10
0.128318
20
-0.160358
30
0.285386
11
0.148318
21
-0.170694
31
0.302508
12
0.148318
22
-0.298034
32
0.168685
13
0.148318
23
-0.298034
33
0.168685
0
3DFACE
8
VIFS128
62
176
10
0.128318
20
-0.160358
30
0.285386
11
0.148318
21
-0.298034
31
0.168685
12
0.128318
22
-0.28042
32
0.159213
13
0.128318
23
-0.28042
33
0.159213
0
3DFACE
8
VIFS128
62
176
10
0.128318
20
-0.28042
30
0.159213
11
0.148318
21
-0.298034
31
0.168685
12
0.148318
22
-0.339794
32
0.000928957
13
0.148318
23
-0.339794
33
0.000928957
0
3DFACE
8
VIFS128
62
176
10
0.128318
20
-0.28042
30
0.159213
11
0.148318
21
-0.339794
31
0.000928957
12
0.128318
22
-0.319794
32
0.00104135
13
0.128318
23
-0.319794
33
0.00104135
0
3DFACE
8
VIFS128
62
176
10
0.128318
20
-0.319794
30
0.00104135
11
0.148318
21
-0.339794
31
0.000928957
12
0.148318
22
-0.296162
32
-0.16635
13
0.148318
23
-0.296162
33
-0.16635
0
3DFACE
8
VIFS128
62
176
10
0.128318
20
-0.319794
30
0.00104135
11
0.148318
21
-0.296162
31
-0.16635
12
0.128318
22
-0.278656
32
-0.156683
13
0.128318
23
-0.278656
33
-0.156683
0
3DFACE
8
VIFS128
62
176
10
0.128318
20
-0.278656
30
-0.156683
11
0.148318
21
-0.296162
31
-0.16635
12
0.148318
22
-0.167336
32
-0.298742
13
0.148318
23
-0.167336
33
-0.298742
0
3DFACE
8
VIFS128
62
176
10
0.128318
20
-0.278656
30
-0.156683
11
0.148318
21
-0.167336
31
-0.298742
12
0.128318
22
-0.15719
32
-0.281515
13
0.128318
23
-0.15719
33
-0.281515
0
3DFACE
8
VIFS128
62
176
10
0.128318
20
-0.15719
30
-0.281515
11
0.148318
21
-0.167336
31
-0.298742
12
0.148318
22
-0.00130712
32
-0.346926
13
0.148318
23
-0.00130712
33
-0.346926
0
3DFACE
8
VIFS128
62
176
10
0.128318
20
-0.15719
30
-0.281515
11
0.148318
21
-0.00130712
31
-0.346926
12
0.128318
22
-0.000648334
32
-0.326942
13
0.128318
23
-0.000648334
33
-0.326942
0
3DFACE
8
VIFS128
62
176
10
0.128318
20
-0.000648334
30
-0.326942
11
0.148318
21
-0.00130712
31
-0.346926
12
0.148318
22
0.174903
32
-0.305941
13
0.148318
23
0.174903
33
-0.305941
0
3DFACE
8
VIFS128
62
176
10
0.128318
20
-0.000648334
30
-0.326942
11
0.148318
21
0.174903
31
-0.305941
12
0.128318
22
0.165492
32
-0.288293
13
0.128318
23
0.165492
33
-0.288293
0
3DFACE
8
VIFS128
62
176
10
0.128318
20
0.165492
30
-0.288293
11
0.148318
21
0.174903
31
-0.305941
12
0.148318
22
0.314416
32
-0.17019
13
0.148318
23
0.314416
33
-0.17019
0
3DFACE
8
VIFS128
62
176
10
0.128318
20
0.165492
30
-0.288293
11
0.148318
21
0.314416
31
-0.17019
12
0.128318
22
0.297032
32
-0.160297
13
0.128318
23
0.297032
33
-0.160297
0
3DFACE
8
VIFS128
62
176
10
0.128318
20
0.297032
30
-0.160297
11
0.148318
21
0.314416
31
-0.17019
12
0.148318
22
0.360195
32
0.00483895
13
0.148318
23
0.360195
33
0.00483895
0
3DFACE
8
VIFS128
62
176
10
0.128318
20
0.297032
30
-0.160297
11
0.148318
21
0.360195
31
0.00483895
12
0.128318
22
0.340196
32
0.00472669
13
0.128318
23
0.340196
33
0.00472669
0
3DFACE
8
VIFS128
62
176
10
0.128318
20
0.340196
30
0.00472669
11
0.148318
21
0.360195
31
0.00483895
12
0.148318
22
0.312463
32
0.179345
13
0.148318
23
0.312463
33
0.179345
0
3DFACE
8
VIFS128
62
176
10
0.128318
20
0.340196
30
0.00472669
11
0.148318
21
0.312463
31
0.179345
12
0.128318
22
0.295191
32
0.169259
13
0.128318
23
0.295191
33
0.169259
0
3DFACE
8
VIFS128
62
176
10
0.128318
20
0.295191
30
0.169259
11
0.148318
21
0.312463
31
0.179345
12
0.148318
22
0.171443
32
0.313529
13
0.148318
23
0.171443
33
0.313529
0
3DFACE
8
VIFS128
62
176
10
0.128318
20
0.295191
30
0.169259
11
0.148318
21
0.171443
31
0.313529
12
0.128318
22
0.162228
32
0.295778
13
0.128318
23
0.162228
33
0.295778
0
3DFACE
8
VIFS128
62
176
10
0.128318
20
0.162228
30
0.295778
11
0.148318
21
0.171443
31
0.313529
12
0.148318
22
-0.00521439
32
0.352544
13
0.148318
23
-0.00521439
33
0.352544
0
3DFACE
8
VIFS128
62
176
10
0.128318
20
0.162228
30
0.295778
11
0.148318
21
-0.00521439
31
0.352544
12
0.128318
22
-0.00433193
32
0.332568
13
0.128318
23
-0.00433193
33
0.332568
0
3DFACE
8
VIFS128
62
176
10
0.128318
20
-0.00433193
30
0.332568
11
0.148318
21
-0.00521439
31
0.352544
12
0.148318
22
-0.170694
32
0.302508
13
0.148318
23
-0.170694
33
0.302508
0
3DFACE
8
VIFS128
62
176
10
-0.131682
20
-0.000648335
30
-0.326942
11
-0.151682
21
-0.167336
31
-0.298742
12
-0.131682
22
-0.157192
32
-0.281505
13
-0.131682
23
-0.157192
33
-0.281505
0
3DFACE
8
VIFS128
62
176
10
-0.131682
20
-0.157192
30
-0.281505
11
-0.151682
21
-0.167336
31
-0.298742
12
-0.151682
22
-0.296163
32
-0.16635
13
-0.151682
23
-0.296163
33
-0.16635
0
3DFACE
8
VIFS128
62
176
10
-0.131682
20
-0.157192
30
-0.281505
11
-0.151682
21
-0.296163
31
-0.16635
12
-0.131682
22
-0.278656
32
-0.156683
13
-0.131682
23
-0.278656
33
-0.156683
0
3DFACE
8
VIFS128
62
176
10
-0.131682
20
-0.278656
30
-0.156683
11
-0.151682
21
-0.296163
31
-0.16635
12
-0.151682
22
-0.339794
32
0.000928953
13
-0.151682
23
-0.339794
33
0.000928953
0
3DFACE
8
VIFS128
62
176
10
-0.131682
20
-0.278656
30
-0.156683
11
-0.151682
21
-0.339794
31
0.000928953
12
-0.131682
22
-0.319794
32
0.00104134
13
-0.131682
23
-0.319794
33
0.00104134
0
3DFACE
8
VIFS128
62
176
10
-0.131682
20
-0.319794
30
0.00104134
11
-0.151682
21
-0.339794
31
0.000928953
12
-0.151682
22
-0.298033
32
0.168685
13
-0.151682
23
-0.298033
33
0.168685
0
3DFACE
8
VIFS128
62
176
10
-0.131682
20
-0.319794
30
0.00104134
11
-0.151682
21
-0.298033
31
0.168685
12
-0.131682
22
-0.28042
32
0.159213
13
-0.131682
23
-0.28042
33
0.159213
0
3DFACE
8
VIFS128
62
176
10
-0.131682
20
-0.28042
30
0.159213
11
-0.151682
21
-0.298033
31
0.168685
12
-0.151682
22
-0.170693
32
0.302508
13
-0.151682
23
-0.170693
33
0.302508
0
3DFACE
8
VIFS128
62
176
10
-0.131682
20
-0.28042
30
0.159213
11
-0.151682
21
-0.170693
31
0.302508
12
-0.131682
22
-0.160356
32
0.285386
13
-0.131682
23
-0.160356
33
0.285386
0
3DFACE
8
VIFS128
62
176
10
-0.131682
20
-0.160356
30
0.285386
11
-0.151682
21
-0.170693
31
0.302508
12
-0.151682
22
-0.00521439
32
0.352544
13
-0.151682
23
-0.00521439
33
0.352544
0
3DFACE
8
VIFS128
62
176
10
-0.131682
20
-0.160356
30
0.285386
11
-0.151682
21
-0.00521439
31
0.352544
12
-0.131682
22
-0.00433193
32
0.332568
13
-0.131682
23
-0.00433193
33
0.332568
0
3DFACE
8
VIFS128
62
176
10
-0.131682
20
-0.00433193
30
0.332568
11
-0.151682
21
-0.00521439
31
0.352544
12
-0.151682
22
0.171444
32
0.31353
13
-0.151682
23
0.171444
33
0.31353
0
3DFACE
8
VIFS128
62
176
10
-0.131682
20
-0.00433193
30
0.332568
11
-0.151682
21
0.171444
31
0.31353
12
-0.131682
22
0.162229
32
0.295777
13
-0.131682
23
0.162229
33
0.295777
0
3DFACE
8
VIFS128
62
176
10
-0.131682
20
0.162229
30
0.295777
11
-0.151682
21
0.171444
31
0.31353
12
-0.151682
22
0.312464
32
0.179344
13
-0.151682
23
0.312464
33
0.179344
0
3DFACE
8
VIFS128
62
176
10
-0.131682
20
0.162229
30
0.295777
11
-0.151682
21
0.312464
31
0.179344
12
-0.131682
22
0.295191
32
0.169259
13
-0.131682
23
0.295191
33
0.169259
0
3DFACE
8
VIFS128
62
176
10
-0.131682
20
0.295191
30
0.169259
11
-0.151682
21
0.312464
31
0.179344
12
-0.151682
22
0.360195
32
0.00483895
13
-0.151682
23
0.360195
33
0.00483895
0
3DFACE
8
VIFS128
62
176
10
-0.131682
20
0.295191
30
0.169259
11
-0.151682
21
0.360195
31
0.00483895
12
-0.131682
22
0.340196
32
0.00472669
13
-0.131682
23
0.340196
33
0.00472669
0
3DFACE
8
VIFS128
62
176
10
-0.131682
20
0.340196
30
0.00472669
11
-0.151682
21
0.360195
31
0.00483895
12
-0.151682
22
0.314416
32
-0.17019
13
-0.151682
23
0.314416
33
-0.17019
0
3DFACE
8
VIFS128
62
176
10
-0.131682
20
0.340196
30
0.00472669
11
-0.151682
21
0.314416
31
-0.17019
12
-0.131682
22
0.297032
32
-0.160297
13
-0.131682
23
0.297032
33
-0.160297
0
3DFACE
8
VIFS128
62
176
10
-0.131682
20
0.297032
30
-0.160297
11
-0.151682
21
0.314416
31
-0.17019
12
-0.151682
22
0.174902
32
-0.305941
13
-0.151682
23
0.174902
33
-0.305941
0
3DFACE
8
VIFS128
62
176
10
-0.131682
20
0.297032
30
-0.160297
11
-0.151682
21
0.174902
31
-0.305941
12
-0.131682
22
0.165491
32
-0.288294
13
-0.131682
23
0.165491
33
-0.288294
0
3DFACE
8
VIFS128
62
176
10
-0.131682
20
0.165491
30
-0.288294
11
-0.151682
21
0.174902
31
-0.305941
12
-0.151682
22
-0.00130712
32
-0.346926
13
-0.151682
23
-0.00130712
33
-0.346926
0
3DFACE
8
VIFS128
62
176
10
-0.131682
20
0.165491
30
-0.288294
11
-0.151682
21
-0.00130712
31
-0.346926
12
-0.131682
22
-0.000648335
32
-0.326942
13
-0.131682
23
-0.000648335
33
-0.326942
0
3DFACE
8
VIFS128
62
176
10
-0.131682
20
-0.000648335
30
-0.326942
11
-0.151682
21
-0.00130712
31
-0.346926
12
-0.151682
22
-0.167336
32
-0.298742
13
-0.151682
23
-0.167336
33
-0.298742
0
ENDSEC
0
EOF
