<?xml version="1.0" encoding="utf-8" ?>
<svg baseProfile="full" height="194.0" version="1.1" viewBox="0 0 236.0 194.0" width="236.0" xmlns="http://www.w3.org/2000/svg" xmlns:ev="http://www.w3.org/2001/xml-events" xmlns:xlink="http://www.w3.org/1999/xlink"><defs /><rect fill="rgb(159,159,223)" height="120.0" stroke="rgb(0,0,127)" stroke-width="0.25mm" width="200.0" x="11.0" y="69.0" /><defs /><text alignment-baseline="middle" fill="rgb(0,0,255)" font-family="Verdana" font-size="18" text-anchor="middle" x="115.0" y="33.0">name</text><defs /><g id="subControlBus"><polyline fill="none" points="211.400444733,125.800055623 211.399555259,132.200055561" stroke="rgb(255,204,51)" stroke-width="0.5mm" /><defs /><rect fill="none" height="3.60022233385" stroke="rgb(255,204,51)" stroke-width="0.5mm" width="1.59949965516" x="211.000277961" y="127.000000019" /><defs /><path d="M 221.00222359 113.001389958 C 220.999999903 129.001389804 220.997776217 145.001389649 218.997498276 147.001111669 218.997498276 147.001111669 216.997220334 149.000833689 209.997498363 146.999860846 209.997498363 146.999860846 202.997776391 144.998888002 201.998054362 142.998749041 201.998054362 142.998749041 200.998332332 140.99861008 201.000000097 128.998610196 201.000000097 128.998610196 201.001667861 116.998610312 202.001945812 114.998749312 202.001945812 114.998749312 203.002223763 112.998888311 210.002501657 110.999861193 210.002501657 110.999861193 217.00277955 109.000834075 217.00277955 109.000834075" fill="rgb(255,215,136)" stroke="rgb(0,0,0)" stroke-width="0.25mm" /><defs /><ellipse cx="215.001389765" cy="119.000556018" fill="rgb(0,0,0)" rx="0.999861009958" ry="1.00013897073" stroke="rgb(0,0,0)" stroke-width="0.25mm" /><defs /><ellipse cx="214.998610158" cy="139.000555825" fill="rgb(0,0,0)" rx="0.999861009958" ry="1.00013897073" stroke="rgb(0,0,0)" stroke-width="0.25mm" /><defs /><ellipse cx="207.000000039" cy="128.999444078" fill="rgb(0,0,0)" rx="0.999861009958" ry="1.00013897073" stroke="rgb(0,0,0)" stroke-width="0.25mm" /><defs /><rect fill="none" height="8.00011110705" stroke="rgb(255,215,136)" stroke-width="0.5mm" width="0.7988881492" x="211.000555922" y="125.000000039" /><defs /><rect fill="none" height="8.39988873457" stroke="rgb(255,204,51)" stroke-width="0.5mm" width="0.801167427501" x="210.59938849" y="125.000055631" /><defs /><g display="none" id="info"><text id="name">subControlBus</text><text id="type">Modelica.Blocks.Examples.BusUsage_Utilities.Interfaces.SubControlBus</text><text id="classDesc">Sub-control bus that is adapted to the signals connected to it</text><text id="desc" /></g></g></svg>