<?xml version="1.0" encoding="utf-8" ?>
<svg baseProfile="full" height="210.0" version="1.1" viewBox="0 0 220.0 210.0" width="220.0" xmlns="http://www.w3.org/2000/svg" xmlns:ev="http://www.w3.org/2001/xml-events" xmlns:xlink="http://www.w3.org/1999/xlink"><defs /><rect fill="rgb(255,255,255)" height="80.0" stroke="rgb(0,0,255)" stroke-width="0.25mm" width="28.0" x="131.0" y="65.0" /><defs /><polyline fill="none" points="205.0,165.0 145.0,165.0 145.0,145.0" stroke="rgb(0,0,255)" stroke-width="0.25mm" /><defs /><polyline fill="none" points="115.0,185.0 175.0,185.0" stroke="rgb(0,0,255)" stroke-width="0.25mm" /><defs /><polyline fill="none" points="145.0,165.0 145.0,185.0" stroke="rgb(0,0,255)" stroke-width="0.25mm" /><defs /><polyline fill="none" points="125.0,195.0 165.0,195.0" stroke="rgb(0,0,255)" stroke-width="0.25mm" /><defs /><polyline fill="none" points="135.0,205.0 155.0,205.0" stroke="rgb(0,0,255)" stroke-width="0.25mm" /><defs /><polyline fill="none" points="145.0,65.0 145.0,45.0 205.0,45.0" stroke="rgb(0,0,255)" stroke-width="0.25mm" /><defs /><rect fill="rgb(255,255,255)" height="80.0" stroke="rgb(0,0,255)" stroke-width="0.25mm" width="80.0" x="5.0" y="65.0" /><defs /><polyline fill="none" points="15.0,81.0 33.0,81.0 75.0,135.0" stroke="rgb(0,0,255)" stroke-width="0.25mm" /><defs /><polygon fill="rgb(255,255,255)" points="85.0,99.0 95.0,105.0 85.0,111.0 85.0,99.0" stroke="rgb(0,0,255)" stroke-width="0.25mm" /><defs /><polygon fill="rgb(255,255,255)" points="115.0,99.0 125.0,105.0 115.0,111.0 115.0,99.0" stroke="rgb(0,0,255)" stroke-width="0.25mm" /><defs /><polyline fill="none" points="95.0,105.0 115.0,105.0" stroke="rgb(0,0,255)" stroke-width="0.25mm" /><defs /><polyline fill="none" points="125.0,105.0 131.0,105.0" stroke="rgb(0,0,255)" stroke-width="0.25mm" /><defs /><g id="plug_p"><ellipse cx="205.0" cy="45.0" fill="rgb(0,0,255)" rx="10.0" ry="10.0" stroke="rgb(0,0,255)" stroke-width="0.25mm" /><defs /><g display="none" id="info"><text id="name">plug_p</text><text id="type">Modelica.Electrical.MultiPhase.Interfaces.PositivePlug</text><text id="classDesc">Positive plug with m pins</text><text id="desc">To positive rotor plug</text></g></g><g id="plug_n"><ellipse cx="205.0" cy="165.0" fill="rgb(255,255,255)" rx="10.0" ry="10.0" stroke="rgb(0,0,255)" stroke-width="0.25mm" /><defs /><g display="none" id="info"><text id="name">plug_n</text><text id="type">Modelica.Electrical.MultiPhase.Interfaces.NegativePlug</text><text id="classDesc">Negative plug with m pins</text><text id="desc">To negative rotor plug</text></g></g></svg>