<?xml version="1.0" encoding="utf-8" ?>
<svg baseProfile="full" height="220.0" version="1.1" viewBox="0 0 230.0 220.0" width="230.0" xmlns="http://www.w3.org/2000/svg" xmlns:ev="http://www.w3.org/2001/xml-events" xmlns:xlink="http://www.w3.org/1999/xlink"><defs /><rect fill="rgb(255,255,255)" height="48.0" width="52.0" x="113.0" y="117.0" /><defs /><polyline fill="none" points="115.0,115.0 195.0,115.0 175.0,105.0 175.0,125.0 195.0,115.0" stroke="rgb(0,0,255)" stroke-width="0.25mm" /><defs /><polyline fill="none" points="115.0,115.0 115.0,35.0 105.0,55.0 125.0,55.0 115.0,35.0" stroke="rgb(0,0,255)" stroke-width="0.25mm" /><defs /><polygon fill="rgb(0,0,255)" points="165.0,115.0 157.0,101.0 169.0,99.0 165.0,115.0" stroke="rgb(0,0,255)" stroke-width="0.25mm" /><defs /><ellipse cx="115.0" cy="115.0" fill="none" rx="50.0" ry="50.0" stroke="rgb(0,0,255)" stroke-width="0.25mm" /><defs /><rect fill="rgb(255,255,255)" height="102.0" width="50.0" x="64.0" y="64.0" /><defs /><rect fill="rgb(255,255,255)" height="50.0" width="52.0" x="114.0" y="116.0" /><defs /><g id="spacePhasor_b"><polygon fill="rgb(0,0,255)" points="15.0,5.0 5.0,15.0 15.0,25.0 25.0,15.0 15.0,5.0" stroke="rgb(0,0,255)" stroke-width="0.25mm" /><defs /><g display="none" id="info"><text id="name">spacePhasor_b</text><text id="type">Modelica.Electrical.Machines.Interfaces.SpacePhasor</text><text id="classDesc">Connector for Space Phasors</text><text id="desc" /></g></g><g id="angle"><polygon fill="rgb(0,0,127)" points="205.0,5.0 225.0,15.0 205.0,25.0" stroke="rgb(0,0,127)" stroke-width="0.25mm" /><defs /><g display="none" id="info"><text id="name">angle</text><text id="type">Modelica.Blocks.Interfaces.RealInput</text><text id="classDesc">'input Real' as connector</text><text id="desc" /></g></g></svg>