<?xml version="1.0" encoding="utf-8" ?>
<svg baseProfile="full" height="237.517" version="1.1" viewBox="0 0 223.758 237.517" width="223.758" xmlns="http://www.w3.org/2000/svg" xmlns:ev="http://www.w3.org/2001/xml-events" xmlns:xlink="http://www.w3.org/1999/xlink"><defs /><rect fill="url(#0)" height="200.0" rx="25.0" ry="25.0" stroke="rgb(200,200,200)" stroke-width="0.25mm" width="200.0" x="5.0" y="32.517" /><defs><linearGradient id="0" x1="0%" x2="0%" y1="0%" y2="100%"><stop offset="0" stop-color="rgb(200, 200, 200)" stop-opacity="1" /><stop offset="0.3" stop-color="rgb(248, 248, 248)" stop-opacity="1" /><stop offset="0.7" stop-color="rgb(248, 248, 248)" stop-opacity="1" /><stop offset="1" stop-color="rgb(200, 200, 200)" stop-opacity="1" /></linearGradient></defs><rect fill="none" height="200.0" rx="25.0" ry="25.0" stroke="rgb(128,128,128)" stroke-width="0.25mm" width="200.0" x="5.0" y="32.517" /><defs /><polygon fill="rgb(192,192,192)" points="64.758,111.0 57.758,112.0 43.758,120.0 39.758,129.0 38.758,139.0 40.758,147.0 45.758,154.0 54.758,156.0 61.758,156.0 71.758,155.0 77.758,148.0 80.758,140.0 78.758,132.0 78.758,125.0 76.758,118.0 71.758,112.0 64.758,110.0 64.758,111.0" stroke="rgb(128,128,128)" stroke-width="0.25mm" /><defs /><polygon fill="rgb(160,160,164)" points="43.758,120.0 39.758,130.0 38.758,139.0 40.758,147.0 46.758,154.0 54.758,156.0 61.758,156.0 71.758,155.0 61.758,152.0 53.758,150.0 47.758,145.0 44.758,138.0 42.758,128.0 43.758,120.0 43.758,120.0" stroke="rgb(0,0,0)" stroke-width="0.25mm" /><defs /><polygon fill="rgb(192,192,192)" points="157.758,111.0 150.758,112.0 136.758,120.0 132.758,129.0 131.758,139.0 133.758,147.0 138.758,154.0 147.758,156.0 154.758,156.0 164.758,155.0 170.758,148.0 173.758,140.0 171.758,132.0 171.758,125.0 169.758,118.0 164.758,112.0 157.758,110.0 157.758,111.0" stroke="rgb(160,160,164)" stroke-width="0.25mm" /><defs /><polygon fill="rgb(160,160,164)" points="136.758,120.0 132.758,130.0 131.758,139.0 133.758,147.0 139.758,154.0 147.758,156.0 154.758,156.0 164.758,155.0 154.758,152.0 146.758,150.0 140.758,145.0 137.758,138.0 135.758,128.0 136.758,120.0 136.758,120.0" stroke="rgb(0,0,0)" stroke-width="0.25mm" /><defs /><polygon fill="rgb(191,0,0)" points="109.758,128.0 109.758,115.0 136.758,122.0 109.758,128.0" stroke="rgb(191,0,0)" stroke-width="0.25mm" /><defs /><polyline fill="none" points="77.758,122.0 109.758,122.0" stroke="rgb(191,0,0)" stroke-width="0.5mm" /><defs /><polyline fill="none" points="101.758,145.0 133.758,145.0" stroke="rgb(191,0,0)" stroke-width="0.5mm" /><defs /><polygon fill="rgb(191,0,0)" points="101.758,151.0 101.758,139.0 78.758,145.0 101.758,151.0" stroke="rgb(191,0,0)" stroke-width="0.25mm" /><defs /></svg>