<?xml version="1.0" encoding="utf-8" ?>
<svg baseProfile="full" height="210.0" version="1.1" viewBox="0 0 232.0 210.0" width="232.0" xmlns="http://www.w3.org/2000/svg" xmlns:ev="http://www.w3.org/2001/xml-events" xmlns:xlink="http://www.w3.org/1999/xlink"><defs /><rect fill="none" height="62.0" stroke="rgb(0,0,255)" stroke-width="0.25mm" width="160.0" x="37.0" y="75.0" /><defs /><polyline fill="none" points="25.0,105.0 37.0,105.0" stroke="rgb(85,85,255)" stroke-width="0.25mm" /><defs /><polyline fill="none" points="197.0,105.0 209.0,105.0" stroke="rgb(85,85,255)" stroke-width="0.25mm" /><defs /><text alignment-baseline="middle" fill="rgb(0,0,0)" font-family="Verdana" font-size="18" text-anchor="middle" x="113.0" y="161.0">R=R</text><defs /><polyline fill="none" points="43.0,105.0 37.0,105.0 57.0,105.0" stroke="rgb(85,255,85)" stroke-width="0.25mm" /><defs /><polyline fill="none" points="37.0,125.0 57.0,125.0 57.0,121.0 77.0,115.0 113.0,115.0" stroke="rgb(85,255,85)" stroke-width="0.25mm" /><defs /><polyline fill="none" points="121.0,115.0 157.0,115.0 177.0,121.0 177.0,125.0 197.0,125.0" stroke="rgb(85,255,85)" stroke-width="0.25mm" /><defs /><polyline fill="none" points="197.0,105.0 177.0,105.0" stroke="rgb(85,255,85)" stroke-width="0.25mm" /><defs /><polyline fill="none" points="177.0,105.0 177.0,109.0" stroke="rgb(85,255,85)" stroke-width="0.25mm" /><defs /><polyline fill="none" points="57.0,105.0 57.0,111.0" stroke="rgb(170,255,170)" stroke-width="0.25mm" /><defs /><polyline fill="none" points="113.0,105.0 113.0,125.0" stroke="rgb(85,255,85)" stroke-width="0.25mm" /><defs /><polyline fill="none" points="121.0,105.0 121.0,125.0" stroke="rgb(85,255,85)" stroke-width="0.25mm" /><defs /><text alignment-baseline="middle" fill="rgb(0,0,255)" font-family="Verdana" font-size="18" text-anchor="middle" x="117.0" y="45.0">name</text><defs /><g id="n1"><rect fill="rgb(255,255,255)" height="20.0" stroke="rgb(0,0,255)" stroke-width="0.25mm" width="20.0" x="5.0" y="95.0" /><defs /><g display="none" id="info"><text id="name">n1</text><text id="type">Modelica.Electrical.Analog.Interfaces.NegativePin</text><text id="classDesc">Negative pin of an electric component</text><text id="desc" /></g></g><g id="n2"><rect fill="rgb(255,255,255)" height="20.0" stroke="rgb(0,0,255)" stroke-width="0.25mm" width="20.0" x="207.0" y="93.0" /><defs /><g display="none" id="info"><text id="name">n2</text><text id="type">Modelica.Electrical.Analog.Interfaces.NegativePin</text><text id="classDesc">Negative pin of an electric component</text><text id="desc" /></g></g></svg>