<?xml version="1.0" encoding="utf-8" ?>
<svg baseProfile="full" height="280.0" version="1.1" viewBox="0 0 210.0 280.0" width="210.0" xmlns="http://www.w3.org/2000/svg" xmlns:ev="http://www.w3.org/2001/xml-events" xmlns:xlink="http://www.w3.org/1999/xlink"><defs /><rect fill="rgb(235,235,235)" height="200.0" stroke="rgb(0,0,0)" stroke-width="0.25mm" width="200.0" x="5.0" y="55.0" /><defs /><rect fill="rgb(255,255,255)" height="30.0" stroke="rgb(0,0,255)" stroke-width="0.25mm" width="60.0" x="75.0" y="101.0" /><defs /><polygon fill="rgb(0,0,255)" points="75.0,115.0 45.0,105.0 45.0,125.0 75.0,115.0" stroke="rgb(0,0,255)" stroke-width="0.25mm" /><defs /><polyline fill="none" points="74.0,196.0 27.0,196.0 27.0,116.0 75.0,116.0" stroke="rgb(0,0,255)" stroke-width="0.25mm" /><defs /><rect fill="rgb(255,255,255)" height="30.0" stroke="rgb(0,0,255)" stroke-width="0.25mm" width="60.0" x="75.0" y="181.0" /><defs /><polygon fill="rgb(0,0,255)" points="165.0,187.0 135.0,197.0 165.0,207.0 165.0,187.0" stroke="rgb(0,0,255)" stroke-width="0.25mm" /><defs /><polyline fill="none" points="135.0,116.0 181.0,116.0 181.0,196.0 135.0,196.0" stroke="rgb(0,0,255)" stroke-width="0.25mm" /><defs /><text alignment-baseline="middle" fill="rgb(0,0,255)" font-family="Verdana" font-size="18" text-anchor="middle" x="105.0" y="25.0">name</text><defs /><g id="axisControlBus"><polyline fill="none" points="101.8,254.6 108.2,254.6" stroke="rgb(255,204,51)" stroke-width="0.5mm" /><defs /><rect fill="none" height="1.6" stroke="rgb(255,204,51)" stroke-width="0.5mm" width="3.6" x="103.0" y="253.4" /><defs /><path d="M 89.0 245.0 C 105.0 245.0 121.0 245.0 123.0 247.0 123.0 247.0 125.0 249.0 123.0 256.0 123.0 256.0 121.0 263.0 119.0 264.0 119.0 264.0 117.0 265.0 105.0 265.0 105.0 265.0 93.0 265.0 91.0 264.0 91.0 264.0 89.0 263.0 87.0 256.0 87.0 256.0 85.0 249.0 85.0 249.0" fill="rgb(255,215,136)" stroke="rgb(0,0,0)" stroke-width="0.25mm" /><defs /><ellipse cx="95.0" cy="251.0" fill="rgb(0,0,0)" rx="1.0" ry="1.0" stroke="rgb(0,0,0)" stroke-width="0.25mm" /><defs /><ellipse cx="115.0" cy="251.0" fill="rgb(0,0,0)" rx="1.0" ry="1.0" stroke="rgb(0,0,0)" stroke-width="0.25mm" /><defs /><ellipse cx="105.0" cy="259.0" fill="rgb(0,0,0)" rx="1.0" ry="1.0" stroke="rgb(0,0,0)" stroke-width="0.25mm" /><defs /><rect fill="none" height="0.8" stroke="rgb(255,215,136)" stroke-width="0.5mm" width="8.0" x="101.0" y="254.2" /><defs /><rect fill="none" height="0.8" stroke="rgb(255,204,51)" stroke-width="0.5mm" width="8.4" x="101.0" y="254.6" /><defs /><g display="none" id="info"><text id="name">axisControlBus</text><text id="type">Modelica.Mechanics.MultiBody.Examples.Systems.RobotR3.Components.AxisControlBus</text><text id="classDesc">Data bus for one robot axis</text><text id="desc" /></g></g></svg>