<?xml version="1.0" encoding="utf-8" ?>
<svg baseProfile="full" height="210.0" version="1.1" viewBox="0 0 210.0 210.0" width="210.0" xmlns="http://www.w3.org/2000/svg" xmlns:ev="http://www.w3.org/2001/xml-events" xmlns:xlink="http://www.w3.org/1999/xlink"><defs /><rect fill="url(#0)" height="200.0" rx="25.0" ry="25.0" stroke="rgb(200,200,200)" stroke-width="0.25mm" width="200.0" x="5.0" y="5.0" /><defs><linearGradient id="0" x1="0%" x2="0%" y1="0%" y2="100%"><stop offset="0" stop-color="rgb(200, 200, 200)" stop-opacity="1" /><stop offset="0.3" stop-color="rgb(248, 248, 248)" stop-opacity="1" /><stop offset="0.7" stop-color="rgb(248, 248, 248)" stop-opacity="1" /><stop offset="1" stop-color="rgb(200, 200, 200)" stop-opacity="1" /></linearGradient></defs><rect fill="none" height="200.0" rx="25.0" ry="25.0" stroke="rgb(128,128,128)" stroke-width="0.25mm" width="200.0" x="5.0" y="5.0" /><defs /><polyline fill="none" points="39.0,27.0 39.0,145.0" stroke="rgb(64,64,64)" stroke-width="0.25mm" /><defs /><ellipse cx="145.0" cy="106.0" fill="rgb(175,175,175)" rx="28.0" ry="37.0" stroke="rgb(64,64,64)" stroke-width="0.25mm" /><defs /><rect fill="rgb(175,175,175)" height="118.0" stroke="rgb(64,64,64)" stroke-width="0.25mm" width="8.0" x="31.0" y="27.0" /><defs /><polygon fill="rgb(175,175,175)" points="39.0,109.0 39.0,99.0 89.0,49.0 89.0,59.0 39.0,109.0" stroke="rgb(64,64,64)" stroke-width="0.25mm" /><defs /><polygon fill="rgb(175,175,175)" points="59.0,89.0 65.0,83.0 103.0,145.0 95.0,145.0 59.0,89.0" stroke="rgb(64,64,64)" stroke-width="0.25mm" /><defs /><ellipse cx="145.0" cy="106.0" fill="rgb(255,255,255)" rx="18.0" ry="27.0" stroke="rgb(64,64,64)" stroke-width="0.25mm" /><defs /><path d="M 173.0 103.0 C 173.0 127.0 173.0 151.0 171.0 158.0 171.0 158.0 169.0 165.0 166.0 169.0 166.0 169.0 163.0 173.0 158.0 175.0 158.0 175.0 153.0 177.0 138.0 177.0 138.0 177.0 123.0 177.0 123.0 173.0 123.0 173.0 123.0 169.0 137.0 169.0 137.0 169.0 151.0 169.0 155.0 167.0 155.0 167.0 159.0 165.0 161.0 162.0 161.0 162.0 163.0 159.0 164.0 155.0 164.0 155.0 165.0 151.0 165.0 141.0 165.0 141.0 165.0 131.0 167.0 128.0 167.0 128.0 169.0 125.0 171.0 118.0 171.0 118.0 173.0 111.0 173.0 107.0 173.0 107.0 173.0 103.0 173.0 103.0" fill="rgb(175,175,175)" stroke="rgb(64,64,64)" stroke-width="0.25mm" /><defs /></svg>