<?xml version="1.0" encoding="utf-8" ?>
<svg baseProfile="full" height="210.0" version="1.1" viewBox="0 0 210.0 210.0" width="210.0" xmlns="http://www.w3.org/2000/svg" xmlns:ev="http://www.w3.org/2001/xml-events" xmlns:xlink="http://www.w3.org/1999/xlink"><defs /><ellipse cx="105.0" cy="105.0" fill="rgb(255,255,255)" rx="100.0" ry="100.0" stroke="rgb(75,138,73)" stroke-width="0.25mm" /><defs /><polygon fill="rgb(75,138,73)" points="69.0,45.0 169.0,105.0 69.0,165.0 69.0,45.0" /><defs /><g id="controlBus"><rect fill="none" height="7.99996292998" stroke="rgb(255,204,51)" stroke-width="0.5mm" width="0.800370613501" x="134.599814693" y="91.000018535" /><defs /><path d="M 144.999258761 111.000463251 C 144.999999989 95.0004632679 145.000741218 79.0004632851 143.000833874 77.0003706337 143.000833874 77.0003706337 141.000926529 75.0002779822 134.000833883 76.9999536925 134.000833883 76.9999536925 127.000741237 78.9996294028 126.000648585 80.9995830739 126.000648585 80.9995830739 125.000555932 82.9995367449 125.000000011 94.9995367321 125.000000011 94.9995367321 124.999444089 106.999536719 125.999351435 108.999583044 125.999351435 108.999583044 126.99925878 110.999629368 133.999166119 112.999953654 133.999166119 112.999953654 140.999073458 115.000277939 140.999073458 115.000277939" fill="rgb(255,215,136)" stroke="rgb(0,0,0)" stroke-width="0.25mm" /><defs /><ellipse cx="138.999444074" cy="107.000185294" fill="rgb(0,0,0)" rx="1.00004632572" ry="0.999953672132" stroke="rgb(0,0,0)" stroke-width="0.25mm" /><defs /><ellipse cx="138.999999996" cy="95.0001853072" fill="rgb(0,0,0)" rx="1.00004632572" ry="0.999953672132" stroke="rgb(0,0,0)" stroke-width="0.25mm" /><defs /><ellipse cx="139.000555917" cy="83.0001853201" fill="rgb(0,0,0)" rx="1.00004632572" ry="0.999953672132" stroke="rgb(0,0,0)" stroke-width="0.25mm" /><defs /><ellipse cx="130.999722044" cy="100.999814686" fill="rgb(0,0,0)" rx="1.00004632572" ry="0.999953672132" stroke="rgb(0,0,0)" stroke-width="0.25mm" /><defs /><ellipse cx="131.000277965" cy="88.9998146993" fill="rgb(0,0,0)" rx="1.00004632572" ry="0.999953672132" stroke="rgb(0,0,0)" stroke-width="0.25mm" /><defs /><rect fill="none" height="8.40003705242" stroke="rgb(255,204,51)" stroke-width="0.5mm" width="0.799610854065" x="134.600203838" y="90.599981474" /><defs /><g display="none" id="info"><text id="name">controlBus</text><text id="type">Modelica.Blocks.Examples.BusUsage_Utilities.Interfaces.ControlBus</text><text id="classDesc">Control bus that is adapted to the signals connected to it</text><text id="desc" /></g></g></svg>