<?xml version="1.0" encoding="utf-8" ?>
<svg baseProfile="full" height="288.0" version="1.1" viewBox="0 0 310.0 288.0" width="310.0" xmlns="http://www.w3.org/2000/svg" xmlns:ev="http://www.w3.org/2001/xml-events" xmlns:xlink="http://www.w3.org/1999/xlink"><defs /><ellipse cx="154.0" cy="129.0" fill="rgb(245,245,245)" rx="70.0" ry="70.0" stroke="rgb(0,0,0)" stroke-width="0.25mm" /><defs /><polyline fill="none" points="154.0,59.0 154.0,89.0" stroke="rgb(0,0,0)" stroke-width="0.25mm" /><defs /><polyline fill="none" points="176.9,96.2 194.2,71.7" stroke="rgb(0,0,0)" stroke-width="0.25mm" /><defs /><polyline fill="none" points="131.1,96.2 113.8,71.7" stroke="rgb(0,0,0)" stroke-width="0.25mm" /><defs /><polyline fill="none" points="191.6,115.3 219.8,105.1" stroke="rgb(0,0,0)" stroke-width="0.25mm" /><defs /><polyline fill="none" points="116.4,115.3 88.2,105.1" stroke="rgb(0,0,0)" stroke-width="0.25mm" /><defs /><ellipse cx="154.0" cy="129.0" fill="none" rx="12.0" ry="12.0" stroke="rgb(64,64,64)" stroke-width="0.25mm" /><defs /><polygon fill="rgb(64,64,64)" points="149.231401703,127.496513958 170.134393186,71.1754260153 173.545318547,67.0082221349 173.949271824,72.378214849 158.768598297,130.503486042" /><defs /><ellipse cx="154.0" cy="129.0" fill="rgb(64,64,64)" rx="7.0" ry="7.0" /><defs /><polygon fill="rgb(0,128,255)" points="174.0,199.0 214.0,214.0 174.0,229.0 174.0,199.0" stroke="rgb(0,128,255)" stroke-width="0.25mm" /><defs /><polygon fill="rgb(255,255,255)" points="174.0,204.0 204.0,214.0 174.0,224.0 174.0,204.0" stroke="rgb(255,255,255)" stroke-width="0.25mm" /><defs /><polyline fill="none" points="209.0,214.0 94.0,214.0" stroke="rgb(0,128,255)" stroke-width="0.25mm" /><defs /><text alignment-baseline="middle" fill="rgb(0,0,255)" font-family="Verdana" font-size="18" text-anchor="middle" x="155.0" y="263.0">name</text><defs /><ellipse cx="54.0" cy="128.0" fill="rgb(0,0,0)" rx="10.0" ry="25.0" stroke="rgb(0,0,0)" stroke-width="0.25mm" /><defs /><ellipse cx="254.0" cy="129.0" fill="rgb(0,0,0)" rx="10.0" ry="25.0" stroke="rgb(0,0,0)" stroke-width="0.25mm" /><defs /><text alignment-baseline="middle" fill="rgb(0,0,0)" font-family="Verdana" font-size="18" text-anchor="middle" x="208.0" y="19.5">d</text><defs /><polyline fill="none" points="154.0,29.0 154.0,59.0" stroke="rgb(0,0,127)" stroke-width="0.25mm" /><defs /><polyline fill="none" points="54.0,129.0 84.0,129.0" stroke="rgb(0,128,255)" stroke-width="0.25mm" /><defs /><polyline fill="none" points="224.0,129.0 254.0,129.0" stroke="rgb(0,128,255)" stroke-width="0.25mm" /><defs /><g id="port_a"><ellipse cx="54.0" cy="129.0" fill="rgb(0,127,255)" rx="10.0" ry="10.0" stroke="rgb(0,127,255)" stroke-width="0.25mm" /><defs /><ellipse cx="54.0" cy="129.0" fill="rgb(0,127,255)" rx="10.0" ry="10.0" stroke="rgb(0,0,0)" stroke-width="0.25mm" /><defs /><g display="none" id="info"><text id="name">port_a</text><text id="type">Modelica.Fluid.Interfaces.FluidPort_a</text><text id="classDesc">Generic fluid connector at design inlet</text><text id="desc">Fluid connector a (positive design flow direction is from port_a to port_b)</text></g></g><g id="port_b"><ellipse cx="254.0" cy="129.0" fill="rgb(0,127,255)" rx="10.0" ry="10.0" stroke="rgb(0,127,255)" stroke-width="0.25mm" /><defs /><ellipse cx="254.0" cy="129.0" fill="rgb(0,127,255)" rx="10.0" ry="10.0" stroke="rgb(0,0,0)" stroke-width="0.25mm" /><defs /><ellipse cx="254.0" cy="129.0" fill="rgb(255,255,255)" rx="8.0" ry="8.0" stroke="rgb(0,127,255)" stroke-width="0.25mm" /><defs /><g display="none" id="info"><text id="name">port_b</text><text id="type">Modelica.Fluid.Interfaces.FluidPort_b</text><text id="classDesc">Generic fluid connector at design outlet</text><text id="desc">Fluid connector b (positive design flow direction is from port_a to port_b)</text></g></g><g id="d"><polygon fill="rgb(255,255,255)" points="163.9986101,29.0013897073 154.001389804,9.00000009658 143.998610293,28.9986100996" stroke="rgb(0,0,127)" stroke-width="0.25mm" /><defs /><g display="none" id="info"><text id="name">d</text><text id="type">Modelica.Blocks.Interfaces.RealOutput</text><text id="classDesc">'output Real' as connector</text><text id="desc">Density of the passing fluid</text></g></g></svg>