<?xml version="1.0" encoding="utf-8" ?>
<svg baseProfile="full" height="270.0" version="1.1" viewBox="0 0 220.0 270.0" width="220.0" xmlns="http://www.w3.org/2000/svg" xmlns:ev="http://www.w3.org/2001/xml-events" xmlns:xlink="http://www.w3.org/1999/xlink"><defs /><rect fill="rgb(255,255,255)" height="200.0" stroke="rgb(255,255,255)" stroke-width="0.25mm" width="180.0" x="25.0" y="65.0" /><defs /><rect fill="rgb(255,128,0)" height="60.0" stroke="rgb(255,128,0)" stroke-width="0.25mm" width="94.0" x="111.0" y="135.0" /><defs /><rect fill="rgb(255,128,0)" height="60.0" stroke="rgb(255,128,0)" stroke-width="0.25mm" width="50.0" x="25.0" y="135.0" /><defs /><rect fill="rgb(255,128,0)" height="200.0" stroke="rgb(255,128,0)" stroke-width="0.25mm" width="10.0" x="25.0" y="65.0" /><defs /><rect fill="rgb(255,128,0)" height="10.0" stroke="rgb(255,128,0)" stroke-width="0.25mm" width="180.0" x="25.0" y="65.0" /><defs /><rect fill="rgb(255,128,0)" height="10.0" stroke="rgb(255,128,0)" stroke-width="0.25mm" width="180.0" x="25.0" y="255.0" /><defs /><rect fill="rgb(255,128,0)" height="60.0" stroke="rgb(255,128,0)" stroke-width="0.25mm" width="10.0" x="195.0" y="65.0" /><defs /><rect fill="rgb(255,128,0)" height="60.0" stroke="rgb(255,128,0)" stroke-width="0.25mm" width="10.0" x="195.0" y="205.0" /><defs /><rect fill="rgb(255,213,170)" height="40.0" stroke="rgb(255,213,170)" stroke-width="0.25mm" width="140.0" x="45.0" y="85.0" /><defs /><rect fill="rgb(255,213,170)" height="40.0" stroke="rgb(255,213,170)" stroke-width="0.25mm" width="140.0" x="45.0" y="205.0" /><defs /><polyline fill="none" points="119.0,135.0 119.0,133.0 117.0,127.0 111.0,117.0 101.0,105.0 93.0,93.0 91.0,85.0 91.0,75.0" stroke="rgb(255,128,0)" stroke-width="0.25mm" /><defs /><polyline fill="none" points="137.0,135.0 137.0,133.0 135.0,127.0 129.0,117.0 119.0,105.0 111.0,93.0 109.0,85.0 109.0,75.0" stroke="rgb(255,128,0)" stroke-width="0.25mm" /><defs /><polyline fill="none" points="155.0,135.0 155.0,133.0 153.0,127.0 147.0,117.0 137.0,105.0 129.0,93.0 127.0,85.0 127.0,75.0" stroke="rgb(255,128,0)" stroke-width="0.25mm" /><defs /><text alignment-baseline="middle" fill="rgb(0,0,255)" font-family="Verdana" font-size="18" text-anchor="middle" x="115.0" y="25.0">name</text><defs /><g id="p"><rect fill="rgb(0,0,255)" height="19.9981468424" stroke="rgb(0,0,255)" stroke-width="0.25mm" width="20.0018529859" x="84.999073507" y="91.0009265788" /><defs /><g display="none" id="info"><text id="name">p</text><text id="type">Modelica.Electrical.Analog.Interfaces.PositivePin</text><text id="classDesc">Positive pin of an electric component</text><text id="desc">Electrical connector</text></g></g><g id="n"><rect fill="rgb(255,255,255)" height="20.0" stroke="rgb(0,0,255)" stroke-width="0.25mm" width="20.0" x="5.0" y="95.0" /><defs /><g display="none" id="info"><text id="name">n</text><text id="type">Modelica.Electrical.Analog.Interfaces.NegativePin</text><text id="classDesc">Negative pin of an electric component</text><text id="desc">Electrical connector</text></g></g><g id="flange"><rect fill="rgb(255,255,255)" height="20.0" stroke="rgb(0,127,0)" stroke-width="0.25mm" width="20.0" x="5.0" y="215.0" /><defs /><g display="none" id="info"><text id="name">flange</text><text id="type">Modelica.Mechanics.Translational.Interfaces.Flange_b</text><text id="classDesc">(right) 1D translational flange (flange axis directed OUT OF cut plane)</text><text id="desc">Flange of component</text></g></g></svg>