<?xml version="1.0" encoding="utf-8" ?>
<svg baseProfile="full" height="302.0" version="1.1" viewBox="0 0 310.0 302.0" width="310.0" xmlns="http://www.w3.org/2000/svg" xmlns:ev="http://www.w3.org/2001/xml-events" xmlns:xlink="http://www.w3.org/1999/xlink"><defs /><rect fill="rgb(255,255,255)" height="200.0" stroke="rgb(0,0,127)" stroke-width="0.25mm" width="200.0" x="55.0" y="55.0" /><defs /><text alignment-baseline="middle" fill="rgb(0,0,255)" font-family="Verdana" font-size="18" text-anchor="middle" x="155.0" y="25.0">name</text><defs /><text alignment-baseline="middle" fill="rgb(0,0,0)" font-family="Verdana" font-size="18" text-anchor="middle" x="163.0" y="277.0">delayTime=delayTime</text><defs /><path d="M 61.0 155.0 C 66.65 137.9 72.3 120.8 75.9 111.35 75.9 111.35 79.5 101.9 82.7 95.25 82.7 95.25 85.9 88.6 88.75 84.5 88.75 84.5 91.6 80.4 94.4 78.15 94.4 78.15 97.2 75.9 100.0 75.55 100.0 75.55 102.8 75.2 105.6 76.8 105.6 76.8 108.4 78.4 111.25 81.85 111.25 81.85 114.1 85.3 116.9 90.45 116.9 90.45 119.7 95.6 122.9 103.25 122.9 103.25 126.1 110.9 130.135 122.35 130.135 122.35 134.17 133.8 142.635 159.8 142.635 159.8 151.1 185.8 154.7 195.5 154.7 195.5 158.3 205.2 161.5 212.2 161.5 212.2 164.7 219.2 167.5 223.65 167.5 223.65 170.3 228.1 173.15 230.75 173.15 230.75 176.0 233.4 178.8 234.2 178.8 234.2 181.6 235.0 184.4 233.8 184.4 233.8 187.2 232.6 190.05 229.55 190.05 229.55 192.9 226.5 195.7 221.7 195.7 221.7 198.5 216.9 201.7 209.55 201.7 209.55 204.9 202.2 208.95 191.0 208.95 191.0 213.0 179.8 217.0 167.4 217.0 167.4 221.0 155.0 221.0 155.0" fill="none" stroke="rgb(0,0,127)" stroke-width="0.25mm" /><defs /><path d="M 83.0 155.0 C 88.65 137.9 94.3 120.8 97.9 111.35 97.9 111.35 101.5 101.9 104.7 95.25 104.7 95.25 107.9 88.6 110.75 84.5 110.75 84.5 113.6 80.4 116.4 78.15 116.4 78.15 119.2 75.9 122.0 75.55 122.0 75.55 124.8 75.2 127.6 76.8 127.6 76.8 130.4 78.4 133.25 81.85 133.25 81.85 136.1 85.3 138.9 90.45 138.9 90.45 141.7 95.6 144.9 103.25 144.9 103.25 148.1 110.9 152.135 122.35 152.135 122.35 156.17 133.8 164.635 159.8 164.635 159.8 173.1 185.8 176.7 195.5 176.7 195.5 180.3 205.2 183.5 212.2 183.5 212.2 186.7 219.2 189.5 223.65 189.5 223.65 192.3 228.1 195.15 230.75 195.15 230.75 198.0 233.4 200.8 234.2 200.8 234.2 203.6 235.0 206.4 233.8 206.4 233.8 209.2 232.6 212.05 229.55 212.05 229.55 214.9 226.5 217.7 221.7 217.7 221.7 220.5 216.9 223.7 209.55 223.7 209.55 226.9 202.2 230.95 191.0 230.95 191.0 235.0 179.8 239.0 167.4 239.0 167.4 243.0 155.0 243.0 155.0" fill="none" stroke="rgb(160,160,164)" stroke-width="0.25mm" /><defs /><text alignment-baseline="middle" fill="rgb(160,160,164)" font-family="Verdana" font-size="18" text-anchor="middle" x="200.0" y="86.0">m=m</text><defs /><text alignment-baseline="middle" fill="rgb(160,160,164)" font-family="Verdana" font-size="18" text-anchor="middle" x="109.0" y="220.0">n=n</text><defs /><g id="u"><polygon fill="rgb(0,0,127)" points="15.0,135.0 55.0,155.0 15.0,175.0" stroke="rgb(0,0,127)" stroke-width="0.25mm" /><defs /><g display="none" id="info"><text id="name">u</text><text id="type">Modelica.Blocks.Interfaces.RealInput</text><text id="classDesc">'input Real' as connector</text><text id="desc">Connector of Real input signal</text></g></g><g id="y"><polygon fill="rgb(255,255,255)" points="255.0,145.0 275.0,155.0 255.0,165.0" stroke="rgb(0,0,127)" stroke-width="0.25mm" /><defs /><g display="none" id="info"><text id="name">y</text><text id="type">Modelica.Blocks.Interfaces.RealOutput</text><text id="classDesc">'output Real' as connector</text><text id="desc">Connector of Real output signal</text></g></g></svg>