<?xml version="1.0" encoding="utf-8" ?>
<svg baseProfile="full" height="270.0" version="1.1" viewBox="0 0 310.0 270.0" width="310.0" xmlns="http://www.w3.org/2000/svg" xmlns:ev="http://www.w3.org/2001/xml-events" xmlns:xlink="http://www.w3.org/1999/xlink"><defs /><polyline fill="none" points="57.0,105.0 107.0,105.0" stroke="rgb(0,127,0)" stroke-width="0.25mm" /><defs /><polyline fill="none" points="107.0,67.0 107.0,143.0" stroke="rgb(0,0,0)" stroke-width="1.0mm" /><defs /><polyline fill="none" points="163.0,115.0 163.0,153.0" stroke="rgb(0,0,0)" stroke-width="0.25mm" /><defs /><polyline fill="none" points="153.0,155.0 193.0,155.0 193.0,111.0 153.0,111.0" stroke="rgb(0,0,0)" stroke-width="0.25mm" /><defs /><polyline fill="none" points="193.0,133.0 227.0,133.0" stroke="rgb(0,0,0)" stroke-width="0.25mm" /><defs /><polyline fill="none" points="143.0,143.0 143.0,69.0" stroke="rgb(0,0,0)" stroke-width="1.0mm" /><defs /><polyline fill="none" points="143.0,133.0 163.0,133.0" stroke="rgb(0,0,0)" stroke-width="0.25mm" /><defs /><polyline fill="none" points="143.0,81.0 149.0,81.0" stroke="rgb(0,0,0)" stroke-width="0.25mm" /><defs /><polyline fill="none" points="227.0,105.0 253.0,105.0" stroke="rgb(0,127,0)" stroke-width="0.25mm" /><defs /><polyline fill="none" points="227.0,83.0 227.0,147.0" stroke="rgb(0,0,0)" stroke-width="0.25mm" /><defs /><polyline fill="none" points="149.0,81.0 161.0,71.0 173.0,91.0 189.0,71.0 201.0,91.0 215.0,71.0 223.0,83.0" stroke="rgb(0,0,0)" stroke-width="0.25mm" /><defs /><rect fill="rgb(192,192,192)" height="44.0" stroke="rgb(0,0,0)" stroke-width="0.25mm" width="30.0" x="163.0" y="111.0" /><defs /><polyline fill="none" points="103.0,175.0 183.0,175.0" stroke="rgb(0,0,0)" stroke-width="0.25mm" /><defs /><polygon fill="rgb(128,128,128)" points="213.0,175.0 183.0,165.0 183.0,185.0 213.0,175.0" stroke="rgb(128,128,128)" stroke-width="0.25mm" /><defs /><text alignment-baseline="middle" fill="rgb(0,0,255)" font-family="Verdana" font-size="18" text-anchor="middle" x="155.0" y="25.0">name</text><defs /><text alignment-baseline="middle" fill="rgb(0,0,0)" font-family="Verdana" font-size="18" text-anchor="middle" x="155.0" y="215.0">c=c</text><defs /><text alignment-baseline="middle" fill="rgb(0,0,0)" font-family="Verdana" font-size="18" text-anchor="middle" x="155.0" y="250.0">d=d</text><defs /><polyline fill="none" points="223.0,83.0 227.0,83.0" stroke="rgb(0,0,0)" stroke-width="0.25mm" /><defs /><polyline fill="none" points="55.0,205.0 55.0,149.0 177.0,149.0 177.0,133.0" stroke="rgb(191,0,0)" stroke-dasharray="1.0 2.0" stroke-width="0.25mm" /><defs /><g id="heatPort"><rect fill="rgb(191,0,0)" height="20.0" stroke="rgb(191,0,0)" stroke-width="0.25mm" width="20.0" x="45.0" y="195.0" /><defs /><g display="none" id="info"><text id="name">heatPort</text><text id="type">Modelica.Thermal.HeatTransfer.Interfaces.HeatPort_a</text><text id="classDesc">Thermal port for 1-dim. heat transfer (filled rectangular icon)</text><text id="desc">Optional port to which dissipated losses are transported in form of heat</text></g></g><g id="flange_a"><rect fill="rgb(0,127,0)" height="20.0" stroke="rgb(0,127,0)" stroke-width="0.25mm" width="20.0" x="45.0" y="95.0" /><defs /><g display="none" id="info"><text id="name">flange_a</text><text id="type">Modelica.Mechanics.Translational.Interfaces.Flange_a</text><text id="classDesc">(left) 1D translational flange (flange axis directed INTO cut plane, e. g. from left to right)</text><text id="desc">Left flange of compliant 1-dim. translational component</text></g></g><g id="flange_b"><rect fill="rgb(255,255,255)" height="20.0" stroke="rgb(0,127,0)" stroke-width="0.25mm" width="20.0" x="245.0" y="95.0" /><defs /><g display="none" id="info"><text id="name">flange_b</text><text id="type">Modelica.Mechanics.Translational.Interfaces.Flange_b</text><text id="classDesc">(right) 1D translational flange (flange axis directed OUT OF cut plane)</text><text id="desc">Right flange of compliant 1-dim. translational component</text></g></g></svg>