<?xml version="1.0" encoding="utf-8" ?>
<svg baseProfile="full" height="160.0" version="1.1" viewBox="0 0 210.0 160.0" width="210.0" xmlns="http://www.w3.org/2000/svg" xmlns:ev="http://www.w3.org/2001/xml-events" xmlns:xlink="http://www.w3.org/1999/xlink"><defs /><rect fill="none" height="4.0" stroke="rgb(255,204,51)" stroke-width="0.5mm" width="40.0" x="85.0" y="103.0" /><defs /><path d="M 25.0 55.0 C 105.0 55.0 185.0 55.0 195.0 65.0 195.0 65.0 205.0 75.0 195.0 110.0 195.0 110.0 185.0 145.0 175.0 150.0 175.0 150.0 165.0 155.0 105.0 155.0 105.0 155.0 45.0 155.0 35.0 150.0 35.0 150.0 25.0 145.0 15.0 110.0 15.0 110.0 5.0 75.0 5.0 75.0" fill="rgb(255,215,136)" stroke="rgb(0,0,0)" stroke-width="0.25mm" /><defs /><ellipse cx="45.0" cy="85.0" fill="rgb(0,0,0)" rx="5.0" ry="5.0" stroke="rgb(0,0,0)" stroke-width="0.25mm" /><defs /><ellipse cx="105.0" cy="85.0" fill="rgb(0,0,0)" rx="5.0" ry="5.0" stroke="rgb(0,0,0)" stroke-width="0.25mm" /><defs /><ellipse cx="165.0" cy="85.0" fill="rgb(0,0,0)" rx="5.0" ry="5.0" stroke="rgb(0,0,0)" stroke-width="0.25mm" /><defs /><ellipse cx="75.0" cy="125.0" fill="rgb(0,0,0)" rx="5.0" ry="5.0" stroke="rgb(0,0,0)" stroke-width="0.25mm" /><defs /><ellipse cx="135.0" cy="125.0" fill="rgb(0,0,0)" rx="5.0" ry="5.0" stroke="rgb(0,0,0)" stroke-width="0.25mm" /><defs /><rect fill="none" height="4.0" stroke="rgb(255,204,51)" stroke-width="0.5mm" width="42.0" x="85.0" y="103.0" /><defs /></svg>