<?xml version="1.0" encoding="utf-8" ?>
<svg baseProfile="full" height="210" version="1.1" viewBox="0 0 310.0 210" width="310.0" xmlns="http://www.w3.org/2000/svg" xmlns:ev="http://www.w3.org/2001/xml-events" xmlns:xlink="http://www.w3.org/1999/xlink"><defs /><text alignment-baseline="middle" fill="rgb(0,0,255)" font-family="Verdana" font-size="18" text-anchor="middle" x="155.0" y="165.0">name</text><defs /><polygon fill="rgb(0,0,0)" points="77.0,81.0 86.0,88.0 66.0,105.0 77.0,81.0" stroke="rgb(0,0,0)" stroke-width="0.5mm" /><defs /><path d="M 81.0 85.0 C 83.0 83.5 85.0 82.0 87.5 80.5 87.5 80.5 90.0 79.0 92.5 78.0 92.5 78.0 95.0 77.0 97.0 76.5 97.0 76.5 99.0 76.0 102.0 75.5 102.0 75.5 105.0 75.0 109.5 75.0 109.5 75.0 114.0 75.0 117.0 75.5 117.0 75.5 120.0 76.0 122.0 76.5 122.0 76.5 124.0 77.0 126.5 78.0 126.5 78.0 129.0 79.0 131.5 80.5 131.5 80.5 134.0 82.0 136.0 83.5 136.0 83.5 138.0 85.0 140.0 87.5 140.0 87.5 142.0 90.0 143.5 93.0 143.5 93.0 145.0 96.0 145.0 96.0" fill="none" stroke="rgb(0,0,0)" stroke-width="0.5mm" /><defs /><path d="M 229.0 85.0 C 227.0 83.5 225.0 82.0 222.5 80.5 222.5 80.5 220.0 79.0 217.5 78.0 217.5 78.0 215.0 77.0 213.0 76.5 213.0 76.5 211.0 76.0 208.0 75.5 208.0 75.5 205.0 75.0 200.5 75.0 200.5 75.0 196.0 75.0 193.0 75.5 193.0 75.5 190.0 76.0 188.0 76.5 188.0 76.5 186.0 77.0 183.5 78.0 183.5 78.0 181.0 79.0 178.5 80.5 178.5 80.5 176.0 82.0 174.0 83.5 174.0 83.5 172.0 85.0 170.0 87.5 170.0 87.5 168.0 90.0 166.5 93.0 166.5 93.0 165.0 96.0 165.0 96.0" fill="none" stroke="rgb(0,0,0)" stroke-width="0.5mm" /><defs /><polygon fill="rgb(0,0,0)" points="244.0,105.0 233.0,81.0 224.0,88.0 244.0,105.0" stroke="rgb(0,0,0)" stroke-width="0.25mm" /><defs /><g id="flange_a"><ellipse cx="55.0" cy="105.0" fill="rgb(95,95,95)" rx="10.0" ry="10.0" stroke="rgb(0,0,0)" stroke-width="0.25mm" /><defs /><g display="none" id="info"><text id="name">flange_a</text><text id="type">Modelica.Mechanics.Rotational.Interfaces.Flange_a</text><text id="classDesc">1-dim. rotational flange of a shaft (filled square icon)</text><text id="desc">Flange of left shaft</text></g></g><g id="flange_b"><ellipse cx="255.198019802" cy="105.0" fill="rgb(255,255,255)" rx="9.90099009901" ry="10.0" stroke="rgb(0,0,0)" stroke-width="0.25mm" /><defs /><g display="none" id="info"><text id="name">flange_b</text><text id="type">Modelica.Mechanics.Rotational.Interfaces.Flange_b</text><text id="classDesc">1-dim. rotational flange of a shaft (non-filled square icon)</text><text id="desc">Flange of right shaft</text></g></g><g id="tau"><polygon fill="rgb(0,0,127)" points="175.002779415,45.0027798008 154.997220392,84.9999998068 135.002779801,44.9972205855" stroke="rgb(0,0,127)" stroke-width="0.25mm" /><defs /><g display="none" id="info"><text id="name">tau</text><text id="type">Modelica.Blocks.Interfaces.RealInput</text><text id="classDesc">'input Real' as connector</text><text id="desc">Torque driving the two flanges (a positive value accelerates the flange)</text></g></g></svg>