<?xml version="1.0" encoding="utf-8" ?>
<svg baseProfile="full" height="235.0" version="1.1" viewBox="0 0 273.0 235.0" width="273.0" xmlns="http://www.w3.org/2000/svg" xmlns:ev="http://www.w3.org/2001/xml-events" xmlns:xlink="http://www.w3.org/1999/xlink"><defs /><ellipse cx="137.0" cy="105.0" fill="rgb(245,245,245)" rx="70.0" ry="70.0" stroke="rgb(0,0,0)" stroke-width="0.25mm" /><defs /><polyline fill="none" points="137.0,35.0 137.0,65.0" stroke="rgb(0,0,0)" stroke-width="0.25mm" /><defs /><polyline fill="none" points="159.9,72.2 177.2,47.7" stroke="rgb(0,0,0)" stroke-width="0.25mm" /><defs /><polyline fill="none" points="114.1,72.2 96.8,47.7" stroke="rgb(0,0,0)" stroke-width="0.25mm" /><defs /><polyline fill="none" points="174.6,91.3 202.8,81.1" stroke="rgb(0,0,0)" stroke-width="0.25mm" /><defs /><polyline fill="none" points="99.4,91.3 71.2,81.1" stroke="rgb(0,0,0)" stroke-width="0.25mm" /><defs /><ellipse cx="137.0" cy="105.0" fill="none" rx="12.0" ry="12.0" stroke="rgb(64,64,64)" stroke-width="0.25mm" /><defs /><polygon fill="rgb(64,64,64)" points="132.231401703,103.496513958 153.134393186,47.1754260153 156.545318547,43.0082221349 156.949271824,48.378214849 141.768598297,106.503486042" /><defs /><ellipse cx="137.0" cy="105.0" fill="rgb(64,64,64)" rx="7.0" ry="7.0" /><defs /><polyline fill="none" points="67.0,105.0 37.0,105.0" stroke="rgb(0,0,0)" stroke-width="0.25mm" /><defs /><polyline fill="none" points="207.0,105.0 237.0,105.0" stroke="rgb(0,0,255)" stroke-width="0.25mm" /><defs /><text alignment-baseline="middle" fill="rgb(0,0,255)" font-family="Verdana" font-size="18" text-anchor="middle" x="136.5" y="207.0">name</text><defs /><g id="frame_a"><rect fill="none" height="3.2" stroke="rgb(95,95,95)" stroke-width="0.5mm" width="3.2" x="35.4" y="103.4" /><defs /><rect fill="rgb(192,192,192)" height="32.0" stroke="rgb(0,0,0)" stroke-width="0.25mm" width="9.6" x="32.2" y="89.0" /><defs /><g display="none" id="info"><text id="name">frame_a</text><text id="type">Modelica.Mechanics.MultiBody.Interfaces.Frame_a</text><text id="classDesc">Coordinate system fixed to the component with one cut-force and cut-torque (filled rectangular icon)</text><text id="desc">Coordinate system from which absolute quantities are provided as output signals</text></g></g><g id="y"><polygon fill="rgb(255,255,255)" points="237.0,95.0 257.0,105.0 237.0,115.0" stroke="rgb(0,0,127)" stroke-width="0.25mm" /><defs /><g display="none" id="info"><text id="name">y</text><text id="type">Modelica.Blocks.Interfaces.RealOutput</text><text id="classDesc">'output Real' as connector</text><text id="desc" /></g></g></svg>