<?xml version="1.0" encoding="utf-8" ?>
<svg baseProfile="full" height="210.0" version="1.1" viewBox="0 0 210.0 210.0" width="210.0" xmlns="http://www.w3.org/2000/svg" xmlns:ev="http://www.w3.org/2001/xml-events" xmlns:xlink="http://www.w3.org/1999/xlink"><defs /><rect fill="url(#0)" height="200.0" rx="25.0" ry="25.0" stroke="rgb(200,200,200)" stroke-width="0.25mm" width="200.0" x="5.0" y="5.0" /><defs><linearGradient id="0" x1="0%" x2="0%" y1="0%" y2="100%"><stop offset="0" stop-color="rgb(200, 200, 200)" stop-opacity="1" /><stop offset="0.3" stop-color="rgb(248, 248, 248)" stop-opacity="1" /><stop offset="0.7" stop-color="rgb(248, 248, 248)" stop-opacity="1" /><stop offset="1" stop-color="rgb(200, 200, 200)" stop-opacity="1" /></linearGradient></defs><rect fill="none" height="200.0" rx="25.0" ry="25.0" stroke="rgb(128,128,128)" stroke-width="0.25mm" width="200.0" x="5.0" y="5.0" /><defs /><path d="M 29.0 185.0 C 36.0 160.0 43.0 135.0 58.0 100.0 58.0 100.0 73.0 65.0 91.0 52.0 91.0 52.0 109.0 39.0 131.0 39.0 131.0 39.0 153.0 39.0 165.5 49.5 165.5 49.5 178.0 60.0 172.5 86.5 172.5 86.5 167.0 113.0 160.0 134.0 160.0 134.0 153.0 155.0 148.0 170.0 148.0 170.0 143.0 185.0 143.0 185.0" fill="none" stroke="rgb(64,64,64)" stroke-width="0.25mm" /><defs /><polyline fill="none" points="65.0,85.0 173.0,85.0" stroke="rgb(175,175,175)" stroke-width="0.25mm" /><defs /><polyline fill="none" points="65.0,85.0 61.0,17.0 61.0,17.0" stroke="rgb(175,175,175)" stroke-width="0.25mm" /><defs /><polyline fill="none" points="173.0,85.0 191.0,163.0" stroke="rgb(175,175,175)" stroke-width="0.25mm" /><defs /><polyline fill="none" points="45.0,133.0 161.0,133.0" stroke="rgb(175,175,175)" stroke-width="0.25mm" /><defs /><polyline fill="none" points="45.0,133.0 31.0,21.0 31.0,21.0" stroke="rgb(175,175,175)" stroke-width="0.25mm" /><defs /><polyline fill="none" points="161.0,133.0 175.0,185.0" stroke="rgb(175,175,175)" stroke-width="0.25mm" /><defs /><polyline fill="none" points="29.0,185.0 143.0,185.0" stroke="rgb(175,175,175)" stroke-width="0.25mm" /><defs /><polyline fill="none" points="29.0,185.0 11.0,121.0 11.0,121.0" stroke="rgb(175,175,175)" stroke-width="0.25mm" /><defs /></svg>