<?xml version="1.0" encoding="utf-8" ?>
<svg baseProfile="full" height="210.0" version="1.1" viewBox="0 0 210.0 210.0" width="210.0" xmlns="http://www.w3.org/2000/svg" xmlns:ev="http://www.w3.org/2001/xml-events" xmlns:xlink="http://www.w3.org/1999/xlink"><defs /><rect fill="url(#0)" height="200.0" rx="25.0" ry="25.0" stroke="rgb(200,200,200)" stroke-width="0.25mm" width="200.0" x="5.0" y="5.0" /><defs><linearGradient id="0" x1="0%" x2="0%" y1="0%" y2="100%"><stop offset="0" stop-color="rgb(200, 200, 200)" stop-opacity="1" /><stop offset="0.3" stop-color="rgb(248, 248, 248)" stop-opacity="1" /><stop offset="0.7" stop-color="rgb(248, 248, 248)" stop-opacity="1" /><stop offset="1" stop-color="rgb(200, 200, 200)" stop-opacity="1" /></linearGradient></defs><rect fill="none" height="200.0" rx="25.0" ry="25.0" stroke="rgb(128,128,128)" stroke-width="0.25mm" width="200.0" x="5.0" y="5.0" /><defs /><path d="M 81.0 102.0 C 81.0 97.0 81.0 92.0 96.0 87.0 96.0 87.0 111.0 82.0 116.0 92.0 116.0 92.0 121.0 102.0 111.0 127.0 111.0 127.0 101.0 152.0 106.0 152.0 106.0 152.0 111.0 152.0 116.0 152.0 116.0 152.0 121.0 152.0 121.0 157.0 121.0 157.0 121.0 162.0 106.0 167.0 106.0 167.0 91.0 172.0 86.0 162.0 86.0 162.0 81.0 152.0 91.0 127.0 91.0 127.0 101.0 102.0 96.0 102.0 96.0 102.0 91.0 102.0 91.0 102.0" fill="rgb(128,128,128)" /><defs /><ellipse cx="104.5" cy="48.5" fill="rgb(128,128,128)" rx="12.5" ry="12.5" /><defs /></svg>