<?xml version="1.0" encoding="utf-8" ?>
<svg baseProfile="full" height="210.0" version="1.1" viewBox="0 0 210.0 210.0" width="210.0" xmlns="http://www.w3.org/2000/svg" xmlns:ev="http://www.w3.org/2001/xml-events" xmlns:xlink="http://www.w3.org/1999/xlink"><defs /><ellipse cx="105.0" cy="105.0" fill="rgb(75,138,73)" rx="100.0" ry="100.0" /><defs /><path d="M 85.0 100.0 C 85.0 95.0 85.0 90.0 100.0 85.0 100.0 85.0 115.0 80.0 120.0 90.0 120.0 90.0 125.0 100.0 115.0 125.0 115.0 125.0 105.0 150.0 110.0 150.0 110.0 150.0 115.0 150.0 120.0 150.0 120.0 150.0 125.0 150.0 125.0 155.0 125.0 155.0 125.0 160.0 110.0 165.0 110.0 165.0 95.0 170.0 90.0 160.0 90.0 160.0 85.0 150.0 95.0 125.0 95.0 125.0 105.0 100.0 100.0 100.0 100.0 100.0 95.0 100.0 95.0 100.0" fill="rgb(255,255,255)" /><defs /><ellipse cx="112.5" cy="48.5" fill="rgb(255,255,255)" rx="12.5" ry="12.5" /><defs /></svg>