<?xml version="1.0" encoding="utf-8" ?>
<svg baseProfile="full" height="255.0" version="1.1" viewBox="0 0 310.0 255.0" width="310.0" xmlns="http://www.w3.org/2000/svg" xmlns:ev="http://www.w3.org/2001/xml-events" xmlns:xlink="http://www.w3.org/1999/xlink"><defs /><rect fill="rgb(255,255,255)" height="200.0" stroke="rgb(0,127,255)" stroke-width="0.25mm" width="200.0" x="55.0" y="50.0" /><defs /><polygon fill="rgb(0,191,0)" points="153.0,58.0 141.0,98.0 167.0,98.0 153.0,58.0 153.0,58.0" stroke="rgb(0,191,0)" stroke-width="0.25mm" /><defs /><polyline fill="none" points="153.0,168.0 153.0,98.0" stroke="rgb(0,191,0)" stroke-width="0.5mm" /><defs /><text alignment-baseline="middle" fill="rgb(0,191,0)" font-family="Verdana" font-size="18" text-anchor="middle" x="196.5" y="82.0">y</text><defs /><text alignment-baseline="middle" fill="rgb(0,0,0)" font-family="Verdana" font-size="18" text-anchor="middle" x="222.5" y="163.5">x</text><defs /><polygon fill="rgb(0,0,0)" points="253.0,220.0 229.0,194.0 219.0,210.0 253.0,220.0" stroke="rgb(0,0,0)" stroke-width="0.25mm" /><defs /><polyline fill="none" points="153.0,168.0 227.0,204.0" stroke="rgb(0,0,0)" stroke-width="0.5mm" /><defs /><polyline fill="none" points="83.0,204.0 153.0,168.0" stroke="rgb(0,0,255)" stroke-width="0.5mm" /><defs /><polygon fill="none" points="57.0,218.0 89.0,210.0 77.0,196.0 57.0,218.0" stroke="rgb(0,0,255)" stroke-width="0.25mm" /><defs /><text alignment-baseline="middle" fill="rgb(0,0,255)" font-family="Verdana" font-size="18" text-anchor="middle" x="92.5" y="161.5">z</text><defs /><text alignment-baseline="middle" fill="rgb(0,0,255)" font-family="Verdana" font-size="18" text-anchor="middle" x="155.0" y="25.0">name</text><defs /><g id="frame_a"><rect fill="none" height="3.2" stroke="rgb(95,95,95)" stroke-width="0.5mm" width="3.2" x="53.4" y="148.4" /><defs /><rect fill="rgb(192,192,192)" height="32.0" stroke="rgb(0,0,0)" stroke-width="0.25mm" width="9.6" x="50.2" y="134.0" /><defs /><g display="none" id="info"><text id="name">frame_a</text><text id="type">Modelica.Mechanics.MultiBody.Interfaces.Frame_a</text><text id="classDesc">Coordinate system fixed to the component with one cut-force and cut-torque (filled rectangular icon)</text><text id="desc">Coordinate system in which visualization data is resolved</text></g></g></svg>