<?xml version="1.0" encoding="utf-8" ?>
<svg baseProfile="full" height="210.0" version="1.1" viewBox="0 0 210.0 210.0" width="210.0" xmlns="http://www.w3.org/2000/svg" xmlns:ev="http://www.w3.org/2001/xml-events" xmlns:xlink="http://www.w3.org/1999/xlink"><defs /><ellipse cx="105.0" cy="105.0" fill="rgb(255,255,255)" rx="100.0" ry="100.0" stroke="rgb(75,138,73)" stroke-width="0.25mm" /><defs /><polygon fill="rgb(75,138,73)" points="69.0,45.0 169.0,105.0 69.0,165.0 69.0,45.0" /><defs /><g id="controlBus"><rect fill="none" height="8.00003705285" stroke="rgb(255,204,51)" stroke-width="0.5mm" width="0.799629384782" x="24.6001853076" y="110.999981474" /><defs /><path d="M 14.999258782 130.999536715 C 15.0000000107 114.999536732 15.0007412394 98.9995367492 17.0008338909 96.999629405 17.0008338909 96.999629405 19.0009265423 94.9997220607 26.0008338812 97.0000463461 26.0008338812 97.0000463461 33.0007412201 99.0003706315 34.0006485655 101.000416956 34.0006485655 101.000416956 35.0005559108 103.000463281 34.9999999893 115.000463268 34.9999999893 115.000463268 34.9994440677 127.000463255 33.9993514152 129.000416926 33.9993514152 129.000416926 32.9992587627 131.000370597 25.9991661166 133.000046307 25.9991661166 133.000046307 18.9990734705 134.999722018 18.9990734705 134.999722018" fill="rgb(255,215,136)" stroke="rgb(0,0,0)" stroke-width="0.25mm" /><defs /><ellipse cx="20.9994440828" cy="126.99981468" fill="rgb(0,0,0)" rx="0.999953672132" ry="1.00004632572" stroke="rgb(0,0,0)" stroke-width="0.25mm" /><defs /><ellipse cx="21.0000000043" cy="114.999814693" fill="rgb(0,0,0)" rx="0.999953672132" ry="1.00004632572" stroke="rgb(0,0,0)" stroke-width="0.25mm" /><defs /><ellipse cx="21.0005559258" cy="102.999814706" fill="rgb(0,0,0)" rx="0.999953672132" ry="1.00004632572" stroke="rgb(0,0,0)" stroke-width="0.25mm" /><defs /><ellipse cx="28.9997220349" cy="121.000185301" fill="rgb(0,0,0)" rx="0.999953672132" ry="1.00004632572" stroke="rgb(0,0,0)" stroke-width="0.25mm" /><defs /><ellipse cx="29.0002779565" cy="109.000185314" fill="rgb(0,0,0)" rx="0.999953672132" ry="1.00004632572" stroke="rgb(0,0,0)" stroke-width="0.25mm" /><defs /><rect fill="none" height="8.39996292955" stroke="rgb(255,204,51)" stroke-width="0.5mm" width="0.800389144219" x="24.5998146932" y="110.600018535" /><defs /><g display="none" id="info"><text id="name">controlBus</text><text id="type">Modelica.Mechanics.MultiBody.Examples.Systems.RobotR3.Components.ControlBus</text><text id="classDesc">Data bus for all axes of robot</text><text id="desc" /></g></g></svg>