<?xml version="1.0" encoding="utf-8" ?>
<svg baseProfile="full" height="210" version="1.1" viewBox="0 0 310.0 210" width="310.0" xmlns="http://www.w3.org/2000/svg" xmlns:ev="http://www.w3.org/2001/xml-events" xmlns:xlink="http://www.w3.org/1999/xlink"><defs /><text alignment-baseline="middle" fill="rgb(0,0,255)" font-family="Verdana" font-size="18" text-anchor="middle" x="91.0" y="73.0">+</text><defs /><text alignment-baseline="middle" fill="rgb(0,0,255)" font-family="Verdana" font-size="18" text-anchor="middle" x="230.0" y="70.0">-</text><defs /><text alignment-baseline="middle" fill="rgb(0,0,255)" font-family="Verdana" font-size="18" text-anchor="middle" x="155.0" y="183.0">name</text><defs /><ellipse cx="157.0" cy="105.0" fill="rgb(255,255,255)" rx="50.0" ry="50.0" stroke="rgb(0,0,255)" stroke-width="0.25mm" /><defs /><polyline fill="none" points="68.0,105.0 208.0,105.0" stroke="rgb(0,0,255)" stroke-width="0.25mm" /><defs /><polyline fill="none" points="208.0,105.0 248.0,105.0" stroke="rgb(0,0,255)" stroke-width="0.25mm" /><defs /><polyline fill="none" points="88.0,153.0 90.8,138.3 93.7,125.1 97.2,110.6 100.7,98.0 104.3,87.08 108.5,75.82 112.7,66.3 117.7,57.0 123.4,48.5 129.7,40.9 136.8,34.4 145.3,28.7 155.9,23.8 158.0,23.0 160.12,35.5 162.95,50.3 165.78,63.2 168.0,74.0 172.14,86.7 175.68,97.0 179.9,107.2 184.2,115.6 189.1,123.5 194.8,130.4 201.1,136.3 208.9,141.5 218.8,145.8 228.0,148.4" stroke="rgb(192,192,192)" stroke-width="0.25mm" /><defs /><g id="p"><rect fill="rgb(0,0,255)" height="20.0" stroke="rgb(0,0,255)" stroke-width="0.25mm" width="20.0" x="48.0" y="95.0" /><defs /><g display="none" id="info"><text id="name">p</text><text id="type">Modelica.Electrical.Analog.Interfaces.PositivePin</text><text id="classDesc">Positive pin of an electric component</text><text id="desc">Positive pin (potential p.v &gt; n.v for positive voltage drop v)</text></g></g><g id="n"><rect fill="rgb(255,255,255)" height="20.0" stroke="rgb(0,0,255)" stroke-width="0.25mm" width="20.0" x="248.0" y="95.0" /><defs /><g display="none" id="info"><text id="name">n</text><text id="type">Modelica.Electrical.Analog.Interfaces.NegativePin</text><text id="classDesc">Negative pin of an electric component</text><text id="desc">Negative pin</text></g></g></svg>