<?xml version="1.0" encoding="utf-8" ?>
<svg baseProfile="full" height="210.0" version="1.1" viewBox="0 0 310.0 210.0" width="310.0" xmlns="http://www.w3.org/2000/svg" xmlns:ev="http://www.w3.org/2001/xml-events" xmlns:xlink="http://www.w3.org/1999/xlink"><defs /><rect fill="rgb(245,245,245)" height="80.0" stroke="rgb(0,0,0)" stroke-width="0.25mm" width="140.0" x="85.0" y="85.0" /><defs /><polygon fill="rgb(0,0,0)" points="155.0,145.0 145.0,121.0 165.0,121.0 155.0,145.0" /><defs /><polyline fill="none" points="155.0,105.0 155.0,121.0" stroke="rgb(0,0,0)" stroke-width="0.25mm" /><defs /><polyline fill="none" points="85.0,105.0 155.0,105.0" stroke="rgb(0,0,0)" stroke-width="0.25mm" /><defs /><polyline fill="none" points="105.0,145.0 105.0,165.0" stroke="rgb(0,0,0)" stroke-width="0.25mm" /><defs /><polyline fill="none" points="125.0,145.0 125.0,165.0" stroke="rgb(0,0,0)" stroke-width="0.25mm" /><defs /><polyline fill="none" points="145.0,145.0 145.0,165.0" stroke="rgb(0,0,0)" stroke-width="0.25mm" /><defs /><polyline fill="none" points="165.0,145.0 165.0,165.0" stroke="rgb(0,0,0)" stroke-width="0.25mm" /><defs /><polyline fill="none" points="185.0,145.0 185.0,165.0" stroke="rgb(0,0,0)" stroke-width="0.25mm" /><defs /><polyline fill="none" points="205.0,145.0 205.0,165.0" stroke="rgb(0,0,0)" stroke-width="0.25mm" /><defs /><polyline fill="none" points="55.0,195.0 135.0,195.0" stroke="rgb(0,0,0)" stroke-width="0.25mm" /><defs /><polygon fill="rgb(128,128,128)" points="165.0,195.0 135.0,185.0 135.0,205.0 165.0,195.0" stroke="rgb(128,128,128)" stroke-width="0.25mm" /><defs /><polyline fill="none" points="85.0,105.0 65.0,105.0" stroke="rgb(0,0,0)" stroke-width="0.25mm" /><defs /><polyline fill="none" points="225.0,105.0 255.0,105.0" stroke="rgb(0,0,127)" stroke-width="0.25mm" /><defs /><text alignment-baseline="middle" fill="rgb(0,0,255)" font-family="Verdana" font-size="18" text-anchor="middle" x="155.0" y="45.0">name</text><defs /><polyline fill="none" points="85.0,105.0 65.0,105.0" stroke="rgb(0,0,0)" stroke-width="0.25mm" /><defs /><text alignment-baseline="middle" fill="rgb(0,0,0)" font-family="Verdana" font-size="18" text-anchor="middle" x="252.0" y="150.0">s</text><defs /><g id="flange"><rect fill="rgb(0,127,0)" height="20.0" stroke="rgb(0,127,0)" stroke-width="0.25mm" width="20.0" x="45.0" y="95.0" /><defs /><g display="none" id="info"><text id="name">flange</text><text id="type">Modelica.Mechanics.Translational.Interfaces.Flange_a</text><text id="classDesc">(left) 1D translational flange (flange axis directed INTO cut plane, e. g. from left to right)</text><text id="desc">Flange to be measured (flange axis directed in to cut plane, e. g. from left to right)</text></g></g><g id="s"><polygon fill="rgb(255,255,255)" points="255.0,95.0 275.0,105.0 255.0,115.0" stroke="rgb(0,0,127)" stroke-width="0.25mm" /><defs /><g display="none" id="info"><text id="name">s</text><text id="type">Modelica.Blocks.Interfaces.RealOutput</text><text id="classDesc">'output Real' as connector</text><text id="desc">Absolute position of flange as output signal</text></g></g></svg>