<?xml version="1.0" encoding="utf-8" ?>
<svg baseProfile="full" height="210.0" version="1.1" viewBox="0 0 210.0 210.0" width="210.0" xmlns="http://www.w3.org/2000/svg" xmlns:ev="http://www.w3.org/2001/xml-events" xmlns:xlink="http://www.w3.org/1999/xlink"><defs /><ellipse cx="105.0" cy="105.0" fill="rgb(255,255,255)" rx="100.0" ry="100.0" stroke="rgb(75,138,73)" stroke-width="0.25mm" /><defs /><polygon fill="rgb(75,138,73)" points="69.0,45.0 169.0,105.0 69.0,165.0 69.0,45.0" /><defs /><g id="controlBus"><rect fill="none" height="0.8" stroke="rgb(255,204,51)" stroke-width="0.5mm" width="8.0" x="89.0" y="74.6" /><defs /><path d="M 77.0 65.0 C 93.0 65.0 109.0 65.0 111.0 67.0 111.0 67.0 113.0 69.0 111.0 76.0 111.0 76.0 109.0 83.0 107.0 84.0 107.0 84.0 105.0 85.0 93.0 85.0 93.0 85.0 81.0 85.0 79.0 84.0 79.0 84.0 77.0 83.0 75.0 76.0 75.0 76.0 73.0 69.0 73.0 69.0" fill="rgb(255,215,136)" stroke="rgb(0,0,0)" stroke-width="0.25mm" /><defs /><ellipse cx="81.0" cy="71.0" fill="rgb(0,0,0)" rx="1.0" ry="1.0" stroke="rgb(0,0,0)" stroke-width="0.25mm" /><defs /><ellipse cx="93.0" cy="71.0" fill="rgb(0,0,0)" rx="1.0" ry="1.0" stroke="rgb(0,0,0)" stroke-width="0.25mm" /><defs /><ellipse cx="105.0" cy="71.0" fill="rgb(0,0,0)" rx="1.0" ry="1.0" stroke="rgb(0,0,0)" stroke-width="0.25mm" /><defs /><ellipse cx="87.0" cy="79.0" fill="rgb(0,0,0)" rx="1.0" ry="1.0" stroke="rgb(0,0,0)" stroke-width="0.25mm" /><defs /><ellipse cx="99.0" cy="79.0" fill="rgb(0,0,0)" rx="1.0" ry="1.0" stroke="rgb(0,0,0)" stroke-width="0.25mm" /><defs /><rect fill="none" height="0.8" stroke="rgb(255,204,51)" stroke-width="0.5mm" width="8.4" x="89.0" y="74.6" /><defs /><g display="none" id="info"><text id="name">controlBus</text><text id="type">Modelica.Mechanics.MultiBody.Examples.Systems.RobotR3.Components.ControlBus</text><text id="classDesc">Data bus for all axes of robot</text><text id="desc" /></g></g></svg>