<?xml version="1.0" encoding="utf-8" ?>
<svg baseProfile="full" height="260.0" version="1.1" viewBox="0 0 310.0 260.0" width="310.0" xmlns="http://www.w3.org/2000/svg" xmlns:ev="http://www.w3.org/2001/xml-events" xmlns:xlink="http://www.w3.org/1999/xlink"><defs /><ellipse cx="155.0" cy="214.0" fill="rgb(191,0,0)" rx="20.0" ry="19.0" stroke="rgb(0,0,0)" stroke-width="0.5mm" /><defs /><rect fill="rgb(191,0,0)" height="108.0" stroke="rgb(191,0,0)" stroke-width="0.25mm" width="24.0" x="143.0" y="95.0" /><defs /><polyline fill="none" points="167.0,135.0 245.0,135.0" stroke="rgb(0,0,255)" stroke-width="0.25mm" /><defs /><polyline fill="none" points="65.0,135.0 143.0,135.0" stroke="rgb(191,0,0)" stroke-width="0.25mm" /><defs /><polygon fill="none" points="143.0,95.0 143.0,55.0 145.0,49.0 149.0,47.0 155.0,45.0 161.0,47.0 165.0,49.0 167.0,55.0 167.0,95.0 143.0,95.0" stroke="rgb(0,0,0)" stroke-width="0.5mm" /><defs /><polyline fill="none" points="143.0,95.0 143.0,199.0" stroke="rgb(0,0,0)" stroke-width="0.5mm" /><defs /><polyline fill="none" points="167.0,95.0 167.0,199.0" stroke="rgb(0,0,0)" stroke-width="0.5mm" /><defs /><polyline fill="none" points="115.0,155.0 143.0,155.0" stroke="rgb(0,0,0)" stroke-width="0.25mm" /><defs /><polyline fill="none" points="115.0,115.0 143.0,115.0" stroke="rgb(0,0,0)" stroke-width="0.25mm" /><defs /><polyline fill="none" points="115.0,75.0 143.0,75.0" stroke="rgb(0,0,0)" stroke-width="0.25mm" /><defs /><text alignment-baseline="middle" fill="rgb(0,0,0)" font-family="Verdana" font-size="18" text-anchor="middle" x="231.0" y="205.0">K</text><defs /><text alignment-baseline="middle" fill="rgb(0,0,255)" font-family="Verdana" font-size="18" text-anchor="middle" x="155.0" y="25.0">name</text><defs /><g id="T"><polygon fill="rgb(255,255,255)" points="245.0,125.0 265.0,135.0 245.0,145.0" stroke="rgb(0,0,127)" stroke-width="0.25mm" /><defs /><g display="none" id="info"><text id="name">T</text><text id="type">Modelica.Blocks.Interfaces.RealOutput</text><text id="classDesc">'output Real' as connector</text><text id="desc">Absolute temperature as output signal</text></g></g><g id="port"><rect fill="rgb(191,0,0)" height="20.0" stroke="rgb(191,0,0)" stroke-width="0.25mm" width="20.0" x="45.0" y="125.0" /><defs /><g display="none" id="info"><text id="name">port</text><text id="type">Modelica.Thermal.HeatTransfer.Interfaces.HeatPort_a</text><text id="classDesc">Thermal port for 1-dim. heat transfer (filled rectangular icon)</text><text id="desc" /></g></g></svg>