<?xml version="1.0" encoding="utf-8" ?>
<svg baseProfile="full" height="220.0" version="1.1" viewBox="0 0 230.0 220.0" width="230.0" xmlns="http://www.w3.org/2000/svg" xmlns:ev="http://www.w3.org/2001/xml-events" xmlns:xlink="http://www.w3.org/1999/xlink"><defs /><polyline fill="none" points="15.0,205.0 23.0,185.0 35.0,165.0 55.0,145.0 75.0,133.0 95.0,127.0 115.0,125.0 135.0,127.0 155.0,133.0 175.0,145.0 195.0,165.0 207.0,185.0 215.0,205.0" stroke="rgb(0,0,255)" stroke-width="0.25mm" /><defs /><polygon fill="rgb(0,0,255)" points="95.0,127.0 75.0,133.0 75.0,85.0 155.0,85.0 155.0,133.0 135.0,127.0 115.0,125.0 95.0,127.0" stroke="rgb(0,0,255)" stroke-width="0.25mm" /><defs /><polyline fill="none" points="25.0,105.0 75.0,105.0" stroke="rgb(0,0,255)" stroke-width="0.25mm" /><defs /><polyline fill="none" points="155.0,105.0 205.0,105.0" stroke="rgb(0,0,255)" stroke-width="0.25mm" /><defs /><g id="heatPort"><rect fill="rgb(191,0,0)" height="20.0" stroke="rgb(191,0,0)" stroke-width="0.25mm" width="20.0" x="5.0" y="195.0" /><defs /><g display="none" id="info"><text id="name">heatPort</text><text id="type">Modelica.Thermal.HeatTransfer.Interfaces.HeatPort_a</text><text id="classDesc">Thermal port for 1-dim. heat transfer (filled rectangular icon)</text><text id="desc">Optional port to which dissipated losses are transported in form of heat</text></g></g><g id="internalHeatPort"><rect fill="rgb(191,0,0)" height="8.0" stroke="rgb(191,0,0)" stroke-width="0.25mm" width="8.0" x="11.0" y="181.0" /><defs /><g display="none" id="info"><text id="name">internalHeatPort</text><text id="type">Modelica.Thermal.HeatTransfer.Interfaces.HeatPort_a</text><text id="classDesc">Thermal port for 1-dim. heat transfer (filled rectangular icon)</text><text id="desc" /></g></g><g id="plug_p"><ellipse cx="15.0" cy="105.0" fill="rgb(0,0,255)" rx="10.0" ry="10.0" stroke="rgb(0,0,255)" stroke-width="0.25mm" /><defs /><g display="none" id="info"><text id="name">plug_p</text><text id="type">Modelica.Electrical.MultiPhase.Interfaces.PositivePlug</text><text id="classDesc">Positive plug with m pins</text><text id="desc" /></g></g><g id="plug_n"><ellipse cx="215.0" cy="105.0" fill="rgb(255,255,255)" rx="10.0" ry="10.0" stroke="rgb(0,0,255)" stroke-width="0.25mm" /><defs /><g display="none" id="info"><text id="name">plug_n</text><text id="type">Modelica.Electrical.MultiPhase.Interfaces.NegativePlug</text><text id="classDesc">Negative plug with m pins</text><text id="desc" /></g></g></svg>