<?xml version="1.0" encoding="utf-8" ?>
<svg baseProfile="full" height="286.0" version="1.1" viewBox="0 0 310.0 286.0" width="310.0" xmlns="http://www.w3.org/2000/svg" xmlns:ev="http://www.w3.org/2001/xml-events" xmlns:xlink="http://www.w3.org/1999/xlink"><defs /><path d="M 53.0 111.0 C 55.0 85.0 57.0 59.0 120.0 109.0 120.0 109.0 183.0 159.0 217.0 82.0 217.0 82.0 251.0 5.0 255.0 137.0 255.0 137.0 259.0 269.0 198.0 227.0 198.0 227.0 137.0 185.0 120.0 233.0 120.0 233.0 103.0 281.0 78.0 196.0 78.0 196.0 53.0 111.0 53.0 111.0" fill="rgb(255,255,255)" stroke="rgb(0,0,255)" stroke-width="0.25mm" /><defs /><text alignment-baseline="middle" fill="rgb(0,0,255)" font-family="Verdana" font-size="18" text-anchor="middle" x="155.0" y="31.0">name</text><defs /><path d="M 53.0 111.0 C 55.0 85.0 57.0 59.0 120.0 109.0 120.0 109.0 183.0 159.0 217.0 82.0 217.0 82.0 251.0 5.0 255.0 137.0 255.0 137.0 259.0 269.0 198.0 227.0 198.0 227.0 137.0 185.0 120.0 233.0 120.0 233.0 103.0 281.0 78.0 196.0 78.0 196.0 53.0 111.0 53.0 111.0" fill="rgb(255,255,255)" stroke="rgb(0,0,255)" stroke-width="0.25mm" /><defs /><text alignment-baseline="middle" fill="rgb(0,0,255)" font-family="Verdana" font-size="18" text-anchor="middle" x="155.0" y="31.0">name</text><defs /></svg>