<?xml version="1.0" encoding="utf-8" ?>
<svg baseProfile="full" height="217.509" version="1.1" viewBox="0 0 210.0 217.509" width="210.0" xmlns="http://www.w3.org/2000/svg" xmlns:ev="http://www.w3.org/2001/xml-events" xmlns:xlink="http://www.w3.org/1999/xlink"><defs /><rect fill="url(#0)" height="200.0" rx="25.0" ry="25.0" stroke="rgb(200,200,200)" stroke-width="0.25mm" width="200.0" x="5.0" y="5.0" /><defs><linearGradient id="0" x1="0%" x2="0%" y1="0%" y2="100%"><stop offset="0" stop-color="rgb(200, 200, 200)" stop-opacity="1" /><stop offset="0.3" stop-color="rgb(248, 248, 248)" stop-opacity="1" /><stop offset="0.7" stop-color="rgb(248, 248, 248)" stop-opacity="1" /><stop offset="1" stop-color="rgb(200, 200, 200)" stop-opacity="1" /></linearGradient></defs><rect fill="none" height="200.0" rx="25.0" ry="25.0" stroke="rgb(128,128,128)" stroke-width="0.25mm" width="200.0" x="5.0" y="5.0" /><defs /><polygon fill="rgb(64,64,64)" points="29.7817841101,53.7502301385 47.4590441602,71.4283091383 65.13679558,67.8931847082 68.6727389599,50.2155970782 50.9954789099,32.5375180784 54.5310947098,29.0020660684 65.1376145298,32.5378456583 82.8148745799,50.2159246581 82.81438321,71.429128088 142.91706738,131.534596687 164.13027081,131.535088057 178.27207885,145.677551257 178.27158748,166.890754687 171.20035588,173.961658707 164.12945186,166.890427107 167.66506766,163.354975097 167.66539524,149.212839477 160.59449122,142.141607877 146.4523556,142.141280297 139.381124,149.212184317 139.38079642,163.354319937 146.45170044,170.425551537 160.59383606,170.425879117 164.12945186,166.890427107 171.20035588,173.961658707 164.12912428,181.032562727 142.91592085,181.032071357 128.77411281,166.889608157 128.77460418,145.676404727 68.6719200101,85.5709361281 47.4587165802,85.5704447582 29.7814565302,67.8923657584 26.2461683102,57.2856821485" /><defs /><polygon fill="rgb(255,255,255)" points="166.204853254,27.462884428 187.418548054,48.675596488 187.418711844,55.746664298 148.528739734,94.6384380976 134.386604114,94.6387656775 127.315700094,101.709997277 130.851479684,112.316517097 127.316027674,115.852132897 116.709180274,105.245776867 63.6774001236,158.280013867 60.1421119035,168.886697477 38.9292360535,183.029324466 31.8580044536,175.958420446 45.9996487037,154.744889437 56.6061685237,151.209109847 109.637948674,98.1748728473 99.0311012739,87.5685168173 102.566553284,84.0329010173 113.173236894,87.5681892374 120.244140914,80.4969576374 120.243813334,66.3548220175 159.133785444,27.4630482179" stroke="rgb(0,0,0)" stroke-width="0.25mm" /><defs /></svg>