<?xml version="1.0" encoding="UTF-8" standalone="no"?>
<svg
   xmlns:dc="http://purl.org/dc/elements/1.1/"
   xmlns:cc="http://creativecommons.org/ns#"
   xmlns:rdf="http://www.w3.org/1999/02/22-rdf-syntax-ns#"
   xmlns:svg="http://www.w3.org/2000/svg"
   xmlns="http://www.w3.org/2000/svg"
   viewBox="0 0 500.64001 237.56"
   height="237.56"
   width="500.64001"
   xml:space="preserve"
   id="svg2"
   version="1.1"><metadata
     id="metadata8"><rdf:RDF><cc:Work
         rdf:about=""><dc:format>image/svg+xml</dc:format><dc:type
           rdf:resource="http://purl.org/dc/dcmitype/StillImage" /><dc:title></dc:title></cc:Work></rdf:RDF></metadata><defs
     id="defs6" /><g
     transform="matrix(1.3333333,0,0,-1.3333333,0,237.56)"
     id="g10"><g
       transform="scale(0.1)"
       id="g12"><path
         id="path14"
         style="fill:#1f262f;fill-opacity:1;fill-rule:nonzero;stroke:none"
         d="m 2019.16,298.77 h 35.25 V 38.6016 h 131.76 V 5.03906 H 2019.16 V 298.77" /><path
         id="path16"
         style="fill:#1f262f;fill-opacity:1;fill-rule:nonzero;stroke:none"
         d="m 2252.07,198.898 h 35.24 V 5.03906 h -35.24 z m 17.61,86.024 c 13.01,0 23.92,-10.91 23.92,-23.922 0,-13 -10.91,-23.91 -23.92,-23.91 -13,0 -23.91,10.91 -23.91,23.91 0,13.012 10.91,23.922 23.91,23.922" /><path
         id="path18"
         style="fill:#1f262f;fill-opacity:1;fill-rule:nonzero;stroke:none"
         d="m 2419.49,66.3008 c 0,0 18.46,-33.5703 57.07,-33.5703 39.44,0 64.2,31.0586 64.2,69.2385 0,38.179 -25.6,69.242 -64.2,69.242 -38.61,0 -57.07,-33.582 -57.07,-33.582 z M 2576,101.969 C 2576,44.8984 2534.46,0 2482.01,0 c -46.57,0 -65.46,33.1484 -65.46,33.1484 V 5.03906 h -32.31 V 322.262 h 35.25 V 174.98 c 0,0 19.72,28.95 62.52,28.95 52.45,0 93.99,-44.891 93.99,-101.961" /><path
         id="path20"
         style="fill:#1f262f;fill-opacity:1;fill-rule:nonzero;stroke:none"
         d="m 2760.65,198.898 -13.01,-31.886 c 0,0 -7.55,4.199 -22.23,4.199 -30.64,0 -44.49,-32.742 -44.49,-32.742 V 5.03906 h -35.24 V 198.898 h 32.74 v -29.789 c 0,0 17.19,34.821 54.13,34.821 15.93,0 28.1,-5.032 28.1,-5.032" /><path
         id="path22"
         style="fill:#1f262f;fill-opacity:1;fill-rule:nonzero;stroke:none"
         d="m 2938.59,60.4297 v 27.2695 c 0,0 -19.31,13.8518 -50.78,13.8518 -30.21,0 -49.09,-15.1096 -49.09,-35.2502 0,-25.1797 22.65,-35.25 44.48,-35.25 34.4,0 55.39,29.3789 55.39,29.3789 z m 35.25,72.1793 V 5.03906 h -32.32 V 33.1484 c 0,0 -21.82,-33.1484 -65.88,-33.1484 -34.82,0 -72.17,24.3398 -72.17,66.3008 0,37.7692 33.15,64.6292 76.79,64.6292 35.66,0 58.33,-15.95 58.33,-15.95 v 10.489 c 0,40.281 -33.57,45.742 -49.1,45.742 -29.38,0 -57.9,-16.371 -57.9,-16.371 l -14.69,29.379 c 0,0 30.21,19.711 72.59,19.711 57.07,0 84.35,-35.239 84.35,-71.321" /><path
         id="path24"
         style="fill:#1f262f;fill-opacity:1;fill-rule:nonzero;stroke:none"
         d="m 3171.9,198.898 -13.01,-31.886 c 0,0 -7.55,4.199 -22.23,4.199 -30.64,0 -44.49,-32.742 -44.49,-32.742 V 5.03906 h -35.24 V 198.898 h 32.74 v -29.789 c 0,0 17.19,34.821 54.13,34.821 15.93,0 28.1,-5.032 28.1,-5.032" /><path
         id="path26"
         style="fill:#1f262f;fill-opacity:1;fill-rule:nonzero;stroke:none"
         d="m 3235.28,198.898 h 35.24 V 5.03906 h -35.24 z m 17.62,86.024 c 13.01,0 23.91,-10.91 23.91,-23.922 0,-13 -10.9,-23.91 -23.91,-23.91 -13.01,0 -23.92,10.91 -23.92,23.91 0,13.012 10.91,23.922 23.92,23.922" /><path
         id="path28"
         style="fill:#1f262f;fill-opacity:1;fill-rule:nonzero;stroke:none"
         d="m 3503.42,118.762 c -1.26,21.808 -20.98,52.449 -60,52.449 -41.97,0 -59.17,-32.32 -61.69,-52.449 z m 34.41,-18.051 c 0,-3.7813 0,-6.7227 -0.42,-11.3321 h -156.52 c 2.1,-29.3672 30.21,-56.6484 66.71,-56.6484 38.2,0 58.33,28.539 58.33,28.539 l 22.24,-23.0781 c 0,0 -29.36,-38.1914 -80.57,-38.1914 -58.74,0 -101.12,44.4805 -101.12,101.969 0,56.652 38.61,101.961 96.94,101.961 54.13,0 94.41,-40.7 94.41,-103.219" /><path
         id="path30"
         style="fill:#1f262f;fill-opacity:1;fill-rule:nonzero;stroke:none"
         d="m 3619.24,63.3711 c 0,0 20.56,-31.4805 58.75,-31.4805 19.71,0 41.96,8.3907 41.96,23.918 0,16.793 -14.27,25.1719 -44.06,31.0508 -41.55,8.3906 -70.92,24.7616 -70.92,61.2616 0,28.117 28.11,55.809 71.34,55.809 45.73,0 71.75,-29.371 71.75,-29.371 l -23.08,-23.918 c 0,0 -19.3,21.41 -48.67,21.41 -24.76,0 -36.93,-12.18 -36.93,-24.77 0,-14.672 15.1,-22.652 46.99,-29.359 36.93,-7.981 68.4,-21.8322 68.4,-61.2736 C 3754.77,19.3008 3715.33,0 3677.99,0 3623.43,0 3594.9,40.6992 3594.9,40.6992 l 24.34,22.6719" /><path
         id="path32"
         style="fill:#de1d31;fill-opacity:1;fill-rule:nonzero;stroke:none"
         d="m 2600.46,1097.8 c 0,56.46 45.77,102.22 102.22,102.22 56.47,0 102.23,-45.76 102.23,-102.22 0,-56.46 -45.76,-102.234 -102.23,-102.234 -56.45,0 -102.22,45.774 -102.22,102.234" /><path
         id="path34"
         style="fill:#707a84;fill-opacity:1;fill-rule:nonzero;stroke:none"
         d="M 638.063,357.41 325.793,5.03906 H 599.094 L 788.063,236.191 c -59.532,27.45 -110.872,69.34 -150,121.219 z m 2250.277,1421.5 c -127.6,-4.67 -270.77,-143.17 -270.77,-141.61 1.56,79.36 -57.57,155.6 -166.51,138.49 -108.91,-17.12 -245.86,-154.06 -247.41,-154.06 4.67,57.58 -33.52,125.25 -93.37,147.83 -85.43,32.24 -212.15,8.25 -376.06,-173.24 -128.93,-142.76 -456.43,-516.18 -579.78,-656.117 43.66,-25.879 81.86,-59.836 112.65,-100.012 l 391.92,484.329 c 0,0 227.09,297.77 351.68,326.78 103.13,24.01 119.2,-74.6 80.91,-166.51 -77.89,-186.93 -269.21,-497.95 -269.21,-497.95 0,0 267.66,347.01 312.78,404.59 45.13,57.57 270.77,340.79 370.36,241.2 C 2602.59,1535.57 2311.02,1116 2311.02,1116 l 149.39,192.96 c 0,0 303.44,398.36 435.71,348.56 132.28,-49.79 -85.6,-413.92 -85.6,-412.37 0,0 130.49,99.46 200.75,312.78 32.13,97.55 4.67,225.64 -122.93,220.98" /><path
         id="path36"
         style="fill:#1f262f;fill-opacity:1;fill-rule:nonzero;stroke:none"
         d="m 0.0507813,789.297 c 0,85.75 69.0976187,158.187 172.3442187,158.187 54.121,0 99.914,-19.984 129.882,-50.777 30.813,30.793 75.762,50.777 129.887,50.777 104.082,0 169.856,-72.437 169.856,-158.187 L 601.969,412.52 h -94.926 l 0.051,362.609 c 0,59.117 -29.957,91.59 -76.582,91.59 -45.809,0 -81.61,-32.473 -81.61,-91.59 L 348.855,412.52 h -95.742 l 0.047,362.609 c 0,59.117 -35.793,91.59 -82.422,91.59 -45.808,0 -75.781,-32.473 -75.781,-91.59 L 94.9102,412.52 H 0.00390625 L 0.0507813,789.297" /><path
         id="path38"
         style="fill:#1f262f;fill-opacity:1;fill-rule:nonzero;stroke:none"
         d="m 1485.39,497.059 c 54.13,0 97.42,43.269 97.42,97.402 0,54.121 -43.29,97.418 -97.42,97.418 -54.1,0 -97.39,-43.297 -97.39,-97.418 0,-54.133 43.29,-97.402 97.39,-97.402 z m 96.6,441.269 h 95.75 V 597.789 c 0,-105.719 -85.77,-192.301 -192.35,-192.301 -105.73,0 -191.49,86.582 -191.49,192.301 0,106.57 80.77,192.348 184.83,192.348 44.97,0 81.61,-20.828 103.26,-39.157 v 187.348" /><path
         id="path40"
         style="fill:#1f262f;fill-opacity:1;fill-rule:nonzero;stroke:none"
         d="m 1051.74,596.551 c 0,55.371 -37.44,102.539 -98.06,102.539 -60.617,0 -98.02,-47.168 -98.02,-102.539 0,-55.371 37.403,-102.539 98.02,-102.539 60.62,0 98.06,47.168 98.06,102.539 z m 91.3,0 c 0,-104.031 -83.83,-186.352 -189.36,-186.352 -105.528,0 -189.332,82.321 -189.332,186.352 0,104.758 83.804,186.34 189.332,186.34 105.53,0 189.36,-81.582 189.36,-186.34" /><path
         id="path42"
         style="fill:#1f262f;fill-opacity:1;fill-rule:nonzero;stroke:none"
         d="m 2094.85,629.461 c -1.53,30.687 -29.96,71.848 -89.09,71.848 -57.63,0 -83.8,-40.387 -86.79,-71.848 z m 89.79,-31.41 c 0,-6.75 0,-20.199 -0.74,-33.692 h -264.93 c 6.71,-31.418 43.38,-71.839 99.51,-71.839 62.12,0 97.3,35.941 97.3,35.941 l 44.9,-67.371 c 0,0 -56.13,-50.891 -142.2,-50.891 -107.75,0 -190.82,82.321 -190.82,186.352 0,104.027 75.6,186.34 178.1,186.34 97.29,0 178.88,-75.571 178.88,-184.84" /><path
         id="path44"
         style="fill:#1f262f;fill-opacity:1;fill-rule:nonzero;stroke:none"
         d="m 2360.79,938.328 h 93.4 V 412.52 h -93.4 v 525.808" /><path
         id="path46"
         style="fill:#1f262f;fill-opacity:1;fill-rule:nonzero;stroke:none"
         d="m 3181.31,537.422 59.13,-59.883 c 0,0 -50.89,-67.34 -146.68,-67.34 -106.26,0 -190.83,82.321 -190.83,186.352 0,104.758 84.57,186.34 190.83,186.34 95.06,0 145.18,-65.871 145.18,-65.871 l -62.12,-55.372 c 0,0 -29.16,37.442 -83.06,37.442 -60.63,0 -99.52,-47.168 -99.52,-102.539 0,-55.371 38.89,-102.539 99.52,-102.539 60.61,0 87.55,43.41 87.55,43.41" /><path
         id="path48"
         style="fill:#1f262f;fill-opacity:1;fill-rule:nonzero;stroke:none"
         d="m 2653.74,782.598 h 94.17 V 412.52 h -94.17 v 370.078" /><path
         id="path50"
         style="fill:#1f262f;fill-opacity:1;fill-rule:nonzero;stroke:none"
         d="m 3562.5,494.012 c -60.62,0 -98.02,47.168 -98.02,102.539 0,55.371 37.4,102.539 98.02,102.539 60.62,0 98.05,-47.168 98.05,-102.539 0,-55.371 -37.43,-102.539 -98.05,-102.539 z m 98.05,288.586 V 756.41 c -28.53,16.75 -61.96,26.481 -98.05,26.481 -105.53,0 -189.33,-81.582 -189.33,-186.34 0,-104.031 83.8,-186.352 189.33,-186.352 36.09,0 69.52,9.821 98.05,26.641 v -24.559 h 94.16 v 370.317 h -94.16" /></g></g></svg>